<?xml version="1.0" encoding="UTF-8" standalone="no"?>
<!DOCTYPE svg PUBLIC "-//W3C//DTD SVG 1.1//EN"
 "http://www.w3.org/Graphics/SVG/1.1/DTD/svg11.dtd">
<!-- Generated by graphviz version 2.40.1 (20161225.0304)
 -->
<!-- Title: qjs::Context::fromJSON Pages: 1 -->
<!--zoomable 582 -->
<svg id="main" version="1.1" xmlns="http://www.w3.org/2000/svg" xmlns:xlink="http://www.w3.org/1999/xlink" xml:space="preserve" onload="init(evt)">
<style type="text/css"><![CDATA[
.edge:hover path { stroke: red; }
.edge:hover polygon { stroke: red; fill: red; }
]]></style>
<script type="text/javascript"><![CDATA[
var edges = document.getElementsByTagName('g');
if (edges && edges.length) {
  for (var i=0;i<edges.length;i++) {
    if (edges[i].id.substr(0,4)=='edge') {
      edges[i].setAttribute('class','edge');
    }
  }
}
]]></script>
        <defs>
                <circle id="rim" cx="0" cy="0" r="7"/>
                <circle id="rim2" cx="0" cy="0" r="3.5"/>
                <g id="zoomPlus">
                        <use xlink:href="#rim" fill="#404040">
                                <set attributeName="fill" to="#808080" begin="zoomplus.mouseover" end="zoomplus.mouseout"/>
                        </use>
                        <path d="M-4,0h8M0,-4v8" fill="none" stroke="white" stroke-width="1.5" pointer-events="none"/>
                </g>
                <g id="zoomMin">
                        <use xlink:href="#rim" fill="#404040">
                                <set attributeName="fill" to="#808080" begin="zoomminus.mouseover" end="zoomminus.mouseout"/>
                        </use>
                        <path d="M-4,0h8" fill="none" stroke="white" stroke-width="1.5" pointer-events="none"/>
                </g>
                <g id="dirArrow">
                        <path fill="none" stroke="white" stroke-width="1.5" d="M0,-3.0v7 M-2.5,-0.5L0,-3.0L2.5,-0.5"/>
                </g>
               <g id="resetDef">
                       <use xlink:href="#rim2" fill="#404040">
                               <set attributeName="fill" to="#808080" begin="reset.mouseover" end="reset.mouseout"/>
                       </use>
               </g>
        </defs>

<script type="text/javascript">
var viewWidth = 996;
var viewHeight = 582;
var sectionId = 'dynsection-15';
</script>
<script xlink:href="svgpan.js"/>
<svg id="graph" class="graph">
<g id="viewport">
<title>qjs::Context::fromJSON</title>
<!-- Node214 -->
<g id="node1" class="node">
<title>Node214</title>
<polygon fill="#bfbfbf" stroke="#000000" points="0,-145.2046 0,-164.2046 122,-164.2046 122,-145.2046 0,-145.2046"/>
<text text-anchor="middle" x="61" y="-152.2046" font-family="Helvetica,sans-Serif" font-size="10.00" fill="#000000">qjs::Context::fromJSON</text>
</g>
<!-- Node215 -->
<g id="node2" class="node">
<title>Node215</title>
<g id="a_node2"><a xlink:href="quickjs_8c.html#a85a2abf65c29c82c085c9b7430538096" target="_top" xlink:title="JS_ParseJSON">
<polygon fill="none" stroke="#000000" points="160.5,-202.2046 160.5,-221.2046 246.5,-221.2046 246.5,-202.2046 160.5,-202.2046"/>
<text text-anchor="middle" x="203.5" y="-209.2046" font-family="Helvetica,sans-Serif" font-size="10.00" fill="#000000">JS_ParseJSON</text>
</a>
</g>
</g>
<!-- Node214&#45;&gt;Node215 -->
<g id="edge1" class="edge">
<title>Node214&#45;&gt;Node215</title>
<path fill="none" stroke="#191970" d="M84.8513,-164.2451C108.1762,-173.575 143.904,-187.8662 170.0606,-198.3288"/>
<polygon fill="#191970" stroke="#191970" points="168.9862,-201.6686 179.5709,-202.1329 171.586,-195.1693 168.9862,-201.6686"/>
</g>
<!-- Node666 -->
<g id="node19" class="node">
<title>Node666</title>
<g id="a_node19"><a xlink:href="classqjs_1_1Value.html#a8e2a5be6c89f30cee044b884e30bf819" target="_top" xlink:title="Use context.newValue(val) instead. ">
<polygon fill="none" stroke="#000000" points="158,-126.2046 158,-145.2046 249,-145.2046 249,-126.2046 158,-126.2046"/>
<text text-anchor="middle" x="203.5" y="-133.2046" font-family="Helvetica,sans-Serif" font-size="10.00" fill="#000000">qjs::Value::Value</text>
</a>
</g>
</g>
<!-- Node214&#45;&gt;Node666 -->
<g id="edge30" class="edge">
<title>Node214&#45;&gt;Node666</title>
<path fill="none" stroke="#191970" d="M122.2598,-146.5366C130.7332,-145.4068 139.3989,-144.2514 147.7647,-143.1359"/>
<polygon fill="#191970" stroke="#191970" points="148.3376,-146.5906 157.7873,-141.7996 147.4124,-139.652 148.3376,-146.5906"/>
</g>
<!-- Node216 -->
<g id="node3" class="node">
<title>Node216</title>
<g id="a_node3"><a xlink:href="quickjs_8c.html#a7cd95e5ed87d4b27630af7944855779f" target="_top" xlink:title="free_token">
<polygon fill="none" stroke="#000000" points="768.5,-269.2046 768.5,-288.2046 830.5,-288.2046 830.5,-269.2046 768.5,-269.2046"/>
<text text-anchor="middle" x="799.5" y="-276.2046" font-family="Helvetica,sans-Serif" font-size="10.00" fill="#000000">free_token</text>
</a>
</g>
</g>
<!-- Node215&#45;&gt;Node216 -->
<g id="edge2" class="edge">
<title>Node215&#45;&gt;Node216</title>
<path fill="none" stroke="#191970" d="M205.4732,-221.3065C216.0087,-269.7184 270.577,-487.7029 413,-563.7046 487.8657,-603.6554 687.3765,-508.5426 689,-506.7046 751.3987,-436.0594 661.039,-366.9385 725,-297.7046 733.5624,-288.4363 745.9597,-283.4221 758.1922,-280.7841"/>
<polygon fill="#191970" stroke="#191970" points="759.0557,-284.1883 768.3409,-279.0858 757.9004,-277.2843 759.0557,-284.1883"/>
</g>
<!-- Node253 -->
<g id="node6" class="node">
<title>Node253</title>
<g id="a_node6"><a xlink:href="quickjs_8h.html#ad80a83d73e9b7d872b88fbf2943aebe9" target="_top" xlink:title="JS_IsException">
<polygon fill="none" stroke="#000000" points="756.5,-60.2046 756.5,-79.2046 842.5,-79.2046 842.5,-60.2046 756.5,-60.2046"/>
<text text-anchor="middle" x="799.5" y="-67.2046" font-family="Helvetica,sans-Serif" font-size="10.00" fill="#000000">JS_IsException</text>
</a>
</g>
</g>
<!-- Node215&#45;&gt;Node253 -->
<g id="edge5" class="edge">
<title>Node215&#45;&gt;Node253</title>
<path fill="none" stroke="#191970" d="M213.8586,-201.9511C228.6869,-188.3832 257.2484,-163.6837 285,-147.7046 338.0697,-117.1475 354.7912,-115.727 413,-96.7046 467.101,-79.0245 480.5365,-71.8728 537,-64.7046 604.0177,-56.1965 621.4617,-63.1773 689,-64.7046 707.7038,-65.1275 728.1747,-65.9527 746.3591,-66.8126"/>
<polygon fill="#191970" stroke="#191970" points="746.3263,-70.3151 756.4847,-67.3059 746.6669,-63.3234 746.3263,-70.3151"/>
</g>
<!-- Node254 -->
<g id="node7" class="node">
<title>Node254</title>
<g id="a_node7"><a xlink:href="quickjs_8c.html#a317ecdd2a00184939feb6a0b3df79b2b" target="_top" xlink:title="js_parse_init">
<polygon fill="none" stroke="#000000" points="295.5,-344.2046 295.5,-363.2046 366.5,-363.2046 366.5,-344.2046 295.5,-344.2046"/>
<text text-anchor="middle" x="331" y="-351.2046" font-family="Helvetica,sans-Serif" font-size="10.00" fill="#000000">js_parse_init</text>
</a>
</g>
</g>
<!-- Node215&#45;&gt;Node254 -->
<g id="edge6" class="edge">
<title>Node215&#45;&gt;Node254</title>
<path fill="none" stroke="#191970" d="M207.5161,-221.4247C217.4015,-244.2494 245.0475,-301.8204 285,-334.7046 286.9847,-336.3382 289.1294,-337.8487 291.37,-339.2426"/>
<polygon fill="#191970" stroke="#191970" points="289.8848,-342.4176 300.3523,-344.0553 293.1908,-336.2474 289.8848,-342.4176"/>
</g>
<!-- Node255 -->
<g id="node8" class="node">
<title>Node255</title>
<g id="a_node8"><a xlink:href="quickjs_8c.html#a756c1ab5dee9a6dd07723d7a075e2a53" target="_top" xlink:title="json_parse_value">
<polygon fill="none" stroke="#000000" points="285,-288.2046 285,-307.2046 377,-307.2046 377,-288.2046 285,-288.2046"/>
<text text-anchor="middle" x="331" y="-295.2046" font-family="Helvetica,sans-Serif" font-size="10.00" fill="#000000">json_parse_value</text>
</a>
</g>
</g>
<!-- Node215&#45;&gt;Node255 -->
<g id="edge7" class="edge">
<title>Node215&#45;&gt;Node255</title>
<path fill="none" stroke="#191970" d="M217.6319,-221.2367C239.5552,-236.0241 281.9669,-264.6312 308.2434,-282.355"/>
<polygon fill="#191970" stroke="#191970" points="306.5572,-285.4394 316.8048,-288.1298 310.4716,-279.6362 306.5572,-285.4394"/>
</g>
<!-- Node649 -->
<g id="node17" class="node">
<title>Node649</title>
<g id="a_node17"><a xlink:href="quickjs_8c.html#a75a3798e2045f6e403c1ef467126d1fb" target="_top" xlink:title="next_token">
<polygon fill="none" stroke="#ff0000" points="580.5,-174.2046 580.5,-193.2046 645.5,-193.2046 645.5,-174.2046 580.5,-174.2046"/>
<text text-anchor="middle" x="613" y="-181.2046" font-family="Helvetica,sans-Serif" font-size="10.00" fill="#000000">next_token</text>
</a>
</g>
</g>
<!-- Node215&#45;&gt;Node649 -->
<g id="edge29" class="edge">
<title>Node215&#45;&gt;Node649</title>
<path fill="none" stroke="#191970" d="M222.8489,-202.1407C270.0564,-179.9648 395.0359,-128.218 501,-145.7046 529.2852,-150.3723 560.0313,-161.2513 582.1408,-170.1783"/>
<polygon fill="#191970" stroke="#191970" points="581.0732,-173.5242 591.6516,-174.1131 583.7493,-167.056 581.0732,-173.5242"/>
</g>
<!-- Node217 -->
<g id="node4" class="node">
<title>Node217</title>
<g id="a_node4"><a xlink:href="quickjs_8c.html#ab7fc45a99935a1c0ba50b0216d9401a9" target="_top" xlink:title="JS_FreeAtom">
<polygon fill="none" stroke="#ff0000" points="910.5,-297.2046 910.5,-316.2046 987.5,-316.2046 987.5,-297.2046 910.5,-297.2046"/>
<text text-anchor="middle" x="949" y="-304.2046" font-family="Helvetica,sans-Serif" font-size="10.00" fill="#000000">JS_FreeAtom</text>
</a>
</g>
</g>
<!-- Node216&#45;&gt;Node217 -->
<g id="edge3" class="edge">
<title>Node216&#45;&gt;Node217</title>
<path fill="none" stroke="#191970" d="M830.8401,-284.5743C850.9779,-288.3459 877.5482,-293.3223 900.3918,-297.6007"/>
<polygon fill="#191970" stroke="#191970" points="899.782,-301.0473 910.2554,-299.4481 901.0707,-294.1669 899.782,-301.0473"/>
</g>
<!-- Node223 -->
<g id="node5" class="node">
<title>Node223</title>
<g id="a_node5"><a xlink:href="quickjs_8h.html#afaa20c47565bc704c6c85f3d77254e7d" target="_top" xlink:title="JS_FreeValue">
<polygon fill="none" stroke="#ff0000" points="910,-250.2046 910,-269.2046 988,-269.2046 988,-250.2046 910,-250.2046"/>
<text text-anchor="middle" x="949" y="-257.2046" font-family="Helvetica,sans-Serif" font-size="10.00" fill="#000000">JS_FreeValue</text>
</a>
</g>
</g>
<!-- Node216&#45;&gt;Node223 -->
<g id="edge4" class="edge">
<title>Node216&#45;&gt;Node223</title>
<path fill="none" stroke="#191970" d="M830.8401,-274.7215C850.8133,-272.1831 877.1144,-268.8405 899.8311,-265.9535"/>
<polygon fill="#191970" stroke="#191970" points="900.5018,-269.3965 909.9807,-264.6635 899.6192,-262.4523 900.5018,-269.3965"/>
</g>
<!-- Node255&#45;&gt;Node223 -->
<g id="edge14" class="edge">
<title>Node255&#45;&gt;Node223</title>
<path fill="none" stroke="#191970" d="M377.3751,-288.5122C388.9996,-286.2476 401.4499,-283.8558 413,-281.7046 468.0255,-271.4557 481.2438,-264.6124 537,-259.7046 667.4887,-248.2186 822.1267,-253.1662 899.5831,-256.9131"/>
<polygon fill="#191970" stroke="#191970" points="899.8278,-260.4296 909.9897,-257.432 900.1765,-253.4383 899.8278,-260.4296"/>
</g>
<!-- Node255&#45;&gt;Node253 -->
<g id="edge15" class="edge">
<title>Node255&#45;&gt;Node253</title>
<path fill="none" stroke="#191970" d="M333.1758,-287.975C339.822,-260.6668 362.5532,-182.8828 413,-145.7046 512.9702,-72.0287 665.5949,-64.6358 745.8675,-66.5619"/>
<polygon fill="#191970" stroke="#191970" points="746.1305,-70.0712 756.2309,-66.8725 746.3403,-63.0744 746.1305,-70.0712"/>
</g>
<!-- Node255&#45;&gt;Node255 -->
<g id="edge27" class="edge">
<title>Node255&#45;&gt;Node255</title>
<path fill="none" stroke="#191970" d="M311.5797,-307.4616C302.132,-316.2698 308.6055,-325.7046 331,-325.7046 345.3465,-325.7046 353.159,-321.8325 354.4374,-316.7337"/>
<polygon fill="#191970" stroke="#191970" points="357.6073,-315.2461 350.4203,-307.4616 351.1842,-318.0289 357.6073,-315.2461"/>
</g>
<!-- Node256 -->
<g id="node9" class="node">
<title>Node256</title>
<g id="a_node9"><a xlink:href="quickjs_8c.html#a12aed667595f49667e0095f0a028e0d4" target="_top" xlink:title="JS_DefinePropertyValueUint32">
<polygon fill="none" stroke="#ff0000" points="537,-269.2046 537,-288.2046 689,-288.2046 689,-269.2046 537,-269.2046"/>
<text text-anchor="middle" x="613" y="-276.2046" font-family="Helvetica,sans-Serif" font-size="10.00" fill="#000000">JS_DefinePropertyValueUint32</text>
</a>
</g>
</g>
<!-- Node255&#45;&gt;Node256 -->
<g id="edge8" class="edge">
<title>Node255&#45;&gt;Node256</title>
<path fill="none" stroke="#191970" d="M377.2508,-294.5884C417.7438,-291.8601 477.6411,-287.8245 526.9262,-284.5039"/>
<polygon fill="#191970" stroke="#191970" points="527.2095,-287.9928 536.9516,-283.8284 526.7389,-281.0086 527.2095,-287.9928"/>
</g>
<!-- Node257 -->
<g id="node10" class="node">
<title>Node257</title>
<g id="a_node10"><a xlink:href="quickjs_8c.html#a0c61bd5a64c743e81188bb528b78e715" target="_top" xlink:title="JS_DefinePropertyValueValue">
<polygon fill="none" stroke="#ff0000" points="725,-307.2046 725,-326.2046 874,-326.2046 874,-307.2046 725,-307.2046"/>
<text text-anchor="middle" x="799.5" y="-314.2046" font-family="Helvetica,sans-Serif" font-size="10.00" fill="#000000">JS_DefinePropertyValueValue</text>
</a>
</g>
</g>
<!-- Node255&#45;&gt;Node257 -->
<g id="edge12" class="edge">
<title>Node255&#45;&gt;Node257</title>
<path fill="none" stroke="#191970" d="M377.3905,-300.7336C389.0147,-301.4374 401.4609,-302.1439 413,-302.7046 516.6569,-307.7414 636.0333,-311.7995 714.3632,-314.2246"/>
<polygon fill="#191970" stroke="#191970" points="714.5575,-317.7322 724.6604,-314.5414 714.7728,-310.7355 714.5575,-317.7322"/>
</g>
<!-- Node284 -->
<g id="node11" class="node">
<title>Node284</title>
<g id="a_node11"><a xlink:href="quickjs_8h.html#a775522f2d084fc8fa0fcb33f390006b4" target="_top" xlink:title="JS_DupValue">
<polygon fill="none" stroke="#000000" points="574.5,-478.2046 574.5,-497.2046 651.5,-497.2046 651.5,-478.2046 574.5,-478.2046"/>
<text text-anchor="middle" x="613" y="-485.2046" font-family="Helvetica,sans-Serif" font-size="10.00" fill="#000000">JS_DupValue</text>
</a>
</g>
</g>
<!-- Node255&#45;&gt;Node284 -->
<g id="edge13" class="edge">
<title>Node255&#45;&gt;Node284</title>
<path fill="none" stroke="#191970" d="M347.5582,-307.47C357.3873,-314.0388 369.3791,-323.5267 377,-334.7046 407.1695,-378.9555 373.0048,-414.0854 413,-449.7046 454.2596,-486.4497 519.7055,-492.4883 564.4148,-491.62"/>
<polygon fill="#191970" stroke="#191970" points="564.5795,-495.1167 574.464,-491.3026 564.3584,-488.1201 564.5795,-495.1167"/>
</g>
<!-- Node464 -->
<g id="node12" class="node">
<title>Node464</title>
<g id="a_node12"><a xlink:href="quickjs_8c.html#ad4ba09e4c7ab9f28c144182e1aacf1f6" target="_top" xlink:title="JS_NewArray">
<polygon fill="none" stroke="#ff0000" points="418.5,-421.2046 418.5,-440.2046 495.5,-440.2046 495.5,-421.2046 418.5,-421.2046"/>
<text text-anchor="middle" x="457" y="-428.2046" font-family="Helvetica,sans-Serif" font-size="10.00" fill="#000000">JS_NewArray</text>
</a>
</g>
</g>
<!-- Node255&#45;&gt;Node464 -->
<g id="edge16" class="edge">
<title>Node255&#45;&gt;Node464</title>
<path fill="none" stroke="#191970" d="M346.1743,-307.2444C355.9504,-313.9822 368.395,-323.7393 377,-334.7046 400.3222,-364.4238 385.8933,-385.3913 413,-411.7046 414.6008,-413.2585 416.3489,-414.6954 418.196,-416.0226"/>
<polygon fill="#191970" stroke="#191970" points="416.4001,-419.0267 426.7774,-421.1631 419.9973,-413.0217 416.4001,-419.0267"/>
</g>
<!-- Node592 -->
<g id="node13" class="node">
<title>Node592</title>
<g id="a_node13"><a xlink:href="quickjs_8h.html#a93abffa925714e249a6aa2f4ae7900f6" target="_top" xlink:title="JS_NewBool">
<polygon fill="none" stroke="#000000" points="420,-383.2046 420,-402.2046 494,-402.2046 494,-383.2046 420,-383.2046"/>
<text text-anchor="middle" x="457" y="-390.2046" font-family="Helvetica,sans-Serif" font-size="10.00" fill="#000000">JS_NewBool</text>
</a>
</g>
</g>
<!-- Node255&#45;&gt;Node592 -->
<g id="edge17" class="edge">
<title>Node255&#45;&gt;Node592</title>
<path fill="none" stroke="#191970" d="M343.9148,-307.2711C353.3751,-314.4722 366.3651,-324.7696 377,-334.7046 394.2376,-350.8076 393.7536,-360.0657 413,-373.7046 415.4992,-375.4756 418.1894,-377.1301 420.9641,-378.6651"/>
<polygon fill="#191970" stroke="#191970" points="419.472,-381.832 429.9837,-383.1568 422.5924,-375.566 419.472,-381.832"/>
</g>
<!-- Node355 -->
<g id="node14" class="node">
<title>Node355</title>
<g id="a_node14"><a xlink:href="quickjs_8h.html#ae91f44bd7249613050c18c7133702c67" target="_top" xlink:title="JS_NewFloat64">
<polygon fill="none" stroke="#ff0000" points="414,-345.2046 414,-364.2046 500,-364.2046 500,-345.2046 414,-345.2046"/>
<text text-anchor="middle" x="457" y="-352.2046" font-family="Helvetica,sans-Serif" font-size="10.00" fill="#000000">JS_NewFloat64</text>
</a>
</g>
</g>
<!-- Node255&#45;&gt;Node355 -->
<g id="edge18" class="edge">
<title>Node255&#45;&gt;Node355</title>
<path fill="none" stroke="#191970" d="M352.0896,-307.2451C372.4411,-316.4517 403.4715,-330.4893 426.5112,-340.912"/>
<polygon fill="#191970" stroke="#191970" points="425.2879,-344.2001 435.8416,-345.1329 428.1731,-337.8223 425.2879,-344.2001"/>
</g>
<!-- Node366 -->
<g id="node15" class="node">
<title>Node366</title>
<g id="a_node15"><a xlink:href="quickjs_8c.html#afc0d8ea75588216ec132a6e1655524a7" target="_top" xlink:title="JS_NewObject">
<polygon fill="none" stroke="#ff0000" points="415.5,-535.2046 415.5,-554.2046 498.5,-554.2046 498.5,-535.2046 415.5,-535.2046"/>
<text text-anchor="middle" x="457" y="-542.2046" font-family="Helvetica,sans-Serif" font-size="10.00" fill="#000000">JS_NewObject</text>
</a>
</g>
</g>
<!-- Node255&#45;&gt;Node366 -->
<g id="edge19" class="edge">
<title>Node255&#45;&gt;Node366</title>
<path fill="none" stroke="#191970" d="M348.4839,-307.4652C358.3964,-313.913 370.1515,-323.2758 377,-334.7046 421.402,-408.803 359.0373,-458.2498 413,-525.7046 413.9746,-526.9228 415.0425,-528.0646 416.1847,-529.1344"/>
<polygon fill="#191970" stroke="#191970" points="414.4435,-532.1939 424.6024,-535.202 418.5367,-526.5153 414.4435,-532.1939"/>
</g>
<!-- Node648 -->
<g id="node16" class="node">
<title>Node648</title>
<g id="a_node16"><a xlink:href="quickjs_8c.html#aeca8ed71e1eef8ec809afab744958c28" target="_top" xlink:title="js_parse_expect">
<polygon fill="none" stroke="#000000" points="413,-155.2046 413,-174.2046 501,-174.2046 501,-155.2046 413,-155.2046"/>
<text text-anchor="middle" x="457" y="-162.2046" font-family="Helvetica,sans-Serif" font-size="10.00" fill="#000000">js_parse_expect</text>
</a>
</g>
</g>
<!-- Node255&#45;&gt;Node648 -->
<g id="edge20" class="edge">
<title>Node255&#45;&gt;Node648</title>
<path fill="none" stroke="#191970" d="M336.2567,-288.1753C347.8709,-267.7994 377.5215,-219.3594 413,-188.7046 417.0122,-185.2379 421.6074,-182.0617 426.2807,-179.2342"/>
<polygon fill="#191970" stroke="#191970" points="428.2028,-182.1698 435.2312,-174.2417 424.7929,-176.0565 428.2028,-182.1698"/>
</g>
<!-- Node255&#45;&gt;Node649 -->
<g id="edge28" class="edge">
<title>Node255&#45;&gt;Node649</title>
<path fill="none" stroke="#191970" d="M339.0098,-288.1889C352.5722,-272.735 381.6573,-242.3389 413,-226.7046 463.3931,-201.5676 528.0882,-191.0731 570.0358,-186.726"/>
<polygon fill="#191970" stroke="#191970" points="570.5695,-190.1909 580.1878,-185.748 569.8983,-183.2231 570.5695,-190.1909"/>
</g>
<!-- Node645 -->
<g id="node18" class="node">
<title>Node645</title>
<g id="a_node18"><a xlink:href="quickjs_8c.html#a8cc9386cd04cfa067d0c6bf588c6bb58" target="_top" xlink:title="JS_ToFloat64">
<polygon fill="none" stroke="#ff0000" points="418.5,-497.2046 418.5,-516.2046 495.5,-516.2046 495.5,-497.2046 418.5,-497.2046"/>
<text text-anchor="middle" x="457" y="-504.2046" font-family="Helvetica,sans-Serif" font-size="10.00" fill="#000000">JS_ToFloat64</text>
</a>
</g>
</g>
<!-- Node255&#45;&gt;Node645 -->
<g id="edge25" class="edge">
<title>Node255&#45;&gt;Node645</title>
<path fill="none" stroke="#191970" d="M347.8158,-307.3005C357.7418,-313.8055 369.745,-323.2858 377,-334.7046 413.3031,-391.843 371.7609,-429.0198 413,-482.7046 415.6239,-486.1203 418.8781,-489.1124 422.4208,-491.717"/>
<polygon fill="#191970" stroke="#191970" points="420.7145,-494.7778 431.0499,-497.1082 424.4235,-488.8412 420.7145,-494.7778"/>
</g>
<!-- Node256&#45;&gt;Node257 -->
<g id="edge9" class="edge">
<title>Node256&#45;&gt;Node257</title>
<path fill="none" stroke="#191970" d="M660.0618,-288.2936C685.2268,-293.421 716.3958,-299.7718 742.8786,-305.1678"/>
<polygon fill="#191970" stroke="#191970" points="742.2791,-308.6175 752.7766,-307.1845 743.6767,-301.7584 742.2791,-308.6175"/>
</g>
<!-- Node257&#45;&gt;Node217 -->
<g id="edge10" class="edge">
<title>Node257&#45;&gt;Node217</title>
<path fill="none" stroke="#191970" d="M874.25,-311.7046C882.9755,-311.1209 891.7011,-310.5373 899.9511,-309.9854"/>
<polygon fill="#191970" stroke="#191970" points="900.3668,-313.4655 910.1109,-309.3058 899.8996,-306.4811 900.3668,-313.4655"/>
</g>
<!-- Node257&#45;&gt;Node223 -->
<g id="edge11" class="edge">
<title>Node257&#45;&gt;Node223</title>
<path fill="none" stroke="#191970" d="M843.7225,-307.1285C853.8049,-304.4779 864.3785,-301.3189 874,-297.7046 891.0977,-291.2819 909.3989,-282.0596 923.6425,-274.3088"/>
<polygon fill="#191970" stroke="#191970" points="925.7462,-277.1441 932.7907,-269.2304 922.3487,-271.0239 925.7462,-277.1441"/>
</g>
<!-- Node648&#45;&gt;Node649 -->
<g id="edge21" class="edge">
<title>Node648&#45;&gt;Node649</title>
<path fill="none" stroke="#191970" d="M501.2861,-170.0984C522.8065,-172.7195 548.5668,-175.8569 569.9245,-178.4582"/>
<polygon fill="#191970" stroke="#191970" points="569.6679,-181.9527 580.0177,-179.6875 570.5143,-175.0041 569.6679,-181.9527"/>
</g>
<!-- Node649&#45;&gt;Node216 -->
<g id="edge22" class="edge">
<title>Node649&#45;&gt;Node216</title>
<path fill="none" stroke="#191970" d="M631.909,-193.3365C664.9472,-210.1656 733.3152,-244.9911 771.7354,-264.5617"/>
<polygon fill="#191970" stroke="#191970" points="770.3191,-267.7682 780.8183,-269.1884 773.4963,-261.5307 770.3191,-267.7682"/>
</g>
<!-- Node649&#45;&gt;Node223 -->
<g id="edge23" class="edge">
<title>Node649&#45;&gt;Node223</title>
<path fill="none" stroke="#191970" d="M645.7342,-186.4374C695.7647,-191.2049 793.8832,-202.893 874,-226.7046 890.2865,-231.5451 907.7013,-239.052 921.6465,-245.6837"/>
<polygon fill="#191970" stroke="#191970" points="920.1675,-248.8564 930.6901,-250.0915 923.2344,-242.564 920.1675,-248.8564"/>
</g>
<!-- Node649&#45;&gt;Node253 -->
<g id="edge24" class="edge">
<title>Node649&#45;&gt;Node253</title>
<path fill="none" stroke="#191970" d="M628.5801,-174.1811C661.0804,-154.3149 736.3087,-108.3309 775.2165,-84.5481"/>
<polygon fill="#191970" stroke="#191970" points="777.1262,-87.4829 783.8331,-79.2811 773.4754,-81.5103 777.1262,-87.4829"/>
</g>
<!-- Node645&#45;&gt;Node284 -->
<g id="edge26" class="edge">
<title>Node645&#45;&gt;Node284</title>
<path fill="none" stroke="#191970" d="M495.5618,-502.0079C516.2808,-499.4845 542.0379,-496.3474 564.1463,-493.6547"/>
<polygon fill="#191970" stroke="#191970" points="564.8377,-497.0964 574.3411,-492.413 563.9913,-490.1478 564.8377,-497.0964"/>
</g>
<!-- Node666&#45;&gt;Node253 -->
<g id="edge31" class="edge">
<title>Node666&#45;&gt;Node253</title>
<path fill="none" stroke="#191970" d="M207.8636,-125.9787C217.912,-104.948 244.9369,-55.6156 285,-36.7046 450.4509,41.3937 679.7053,-26.2643 765.3913,-56.7075"/>
<polygon fill="#191970" stroke="#191970" points="764.2869,-60.0298 774.8812,-60.1372 766.6662,-53.4466 764.2869,-60.0298"/>
</g>
</g>
</svg>
        <g id="navigator" transform="translate(0 0)" fill="#404254">
                <rect fill="#f2f5e9" fill-opacity="0.5" stroke="#606060" stroke-width=".5" x="0" y="0" width="60" height="60"/>
                <use id="zoomplus" xlink:href="#zoomPlus" x="17" y="9" onmousedown="handleZoom(evt,'in')"/>
                <use id="zoomminus" xlink:href="#zoomMin" x="42" y="9" onmousedown="handleZoom(evt,'out')"/>
                <use id="reset" xlink:href="#resetDef" x="30" y="36" onmousedown="handleReset()"/>
                <g id="arrowUp" xlink:href="#dirArrow" transform="translate(30 24)" onmousedown="handlePan(0,-1)">
                  <use xlink:href="#rim" fill="#404040">
                        <set attributeName="fill" to="#808080" begin="arrowUp.mouseover" end="arrowUp.mouseout"/>
                  </use>
                  <path fill="none" stroke="white" stroke-width="1.5" d="M0,-3.0v7 M-2.5,-0.5L0,-3.0L2.5,-0.5"/>
                </g>
                <g id="arrowRight" xlink:href="#dirArrow" transform="rotate(90) translate(36 -43)" onmousedown="handlePan(1,0)">
                  <use xlink:href="#rim" fill="#404040">
                        <set attributeName="fill" to="#808080" begin="arrowRight.mouseover" end="arrowRight.mouseout"/>
                  </use>
                  <path fill="none" stroke="white" stroke-width="1.5" d="M0,-3.0v7 M-2.5,-0.5L0,-3.0L2.5,-0.5"/>
                </g>
                <g id="arrowDown" xlink:href="#dirArrow" transform="rotate(180) translate(-30 -48)" onmousedown="handlePan(0,1)">
                  <use xlink:href="#rim" fill="#404040">
                        <set attributeName="fill" to="#808080" begin="arrowDown.mouseover" end="arrowDown.mouseout"/>
                  </use>
                  <path fill="none" stroke="white" stroke-width="1.5" d="M0,-3.0v7 M-2.5,-0.5L0,-3.0L2.5,-0.5"/>
                </g>
                <g id="arrowLeft" xlink:href="#dirArrow" transform="rotate(270) translate(-36 17)" onmousedown="handlePan(-1,0)">
                  <use xlink:href="#rim" fill="#404040">
                        <set attributeName="fill" to="#808080" begin="arrowLeft.mouseover" end="arrowLeft.mouseout"/>
                  </use>
                  <path fill="none" stroke="white" stroke-width="1.5" d="M0,-3.0v7 M-2.5,-0.5L0,-3.0L2.5,-0.5"/>
                </g>
        </g>
        <svg viewBox="0 0 15 15" width="100%" height="30px" preserveAspectRatio="xMaxYMin meet">
         <g id="arrow_out" transform="scale(0.3 0.3)">
          <a xlink:href="classqjs_1_1Context_ace3f753ae2ad418064ea2d2382579a9d_cgraph_org.svg" target="_base">
           <rect id="button" ry="5" rx="5" y="6" x="6" height="38" width="38"
                fill="#f2f5e9" fill-opacity="0.5" stroke="#606060" stroke-width="1.0"/>
           <path id="arrow"
             d="M 11.500037,31.436501 C 11.940474,20.09759 22.043105,11.32322 32.158766,21.979434 L 37.068811,17.246167 C 37.068811,17.246167 37.088388,32 37.088388,32 L 22.160133,31.978069 C 22.160133,31.978069 26.997745,27.140456 26.997745,27.140456 C 18.528582,18.264221 13.291696,25.230495 11.500037,31.436501 z"
             style="fill:#404040;"/>
          </a>
         </g>
        </svg>
</svg>
