<?xml version="1.0" encoding="UTF-8" standalone="no"?>
<!DOCTYPE svg PUBLIC "-//W3C//DTD SVG 1.1//EN"
 "http://www.w3.org/Graphics/SVG/1.1/DTD/svg11.dtd">
<!-- Generated by graphviz version 2.40.1 (20161225.0304)
 -->
<!-- Title: dbuf_default_realloc Pages: 1 -->
<svg width="621pt" height="547pt"
 viewBox="0.00 0.00 621.00 547.20" xmlns="http://www.w3.org/2000/svg" xmlns:xlink="http://www.w3.org/1999/xlink">
<g id="graph0" class="graph" transform="scale(1 1) rotate(0) translate(4 543.1996)">
<title>dbuf_default_realloc</title>
<!-- Node622 -->
<g id="node1" class="node">
<title>Node622</title>
<polygon fill="#bfbfbf" stroke="#000000" points="0,-424.6996 0,-443.6996 104,-443.6996 104,-424.6996 0,-424.6996"/>
<text text-anchor="middle" x="52" y="-431.6996" font-family="Helvetica,sans-Serif" font-size="10.00" fill="#000000">dbuf_default_realloc</text>
</g>
<!-- Node623 -->
<g id="node2" class="node">
<title>Node623</title>
<g id="a_node2"><a xlink:href="cutils_8h.html#a04e3983476063eb6fbab2fd74fc49fc6" target="_top" xlink:title="dbuf_init2">
<polygon fill="none" stroke="#000000" points="140,-424.6996 140,-443.6996 199,-443.6996 199,-424.6996 140,-424.6996"/>
<text text-anchor="middle" x="169.5" y="-431.6996" font-family="Helvetica,sans-Serif" font-size="10.00" fill="#000000">dbuf_init2</text>
</a>
</g>
</g>
<!-- Node622&#45;&gt;Node623 -->
<g id="edge1" class="edge">
<title>Node622&#45;&gt;Node623</title>
<path fill="none" stroke="#191970" d="M114.3189,-434.1996C123.26,-434.1996 132.0904,-434.1996 139.9778,-434.1996"/>
<polygon fill="#191970" stroke="#191970" points="114.2215,-430.6997 104.2215,-434.1996 114.2214,-437.6997 114.2215,-430.6997"/>
</g>
<!-- Node624 -->
<g id="node3" class="node">
<title>Node624</title>
<g id="a_node3"><a xlink:href="cutils_8h.html#a8645310bf961d402d460dd8552678947" target="_top" xlink:title="dbuf_init">
<polygon fill="none" stroke="#000000" points="257.5,-519.6996 257.5,-538.6996 310.5,-538.6996 310.5,-519.6996 257.5,-519.6996"/>
<text text-anchor="middle" x="284" y="-526.6996" font-family="Helvetica,sans-Serif" font-size="10.00" fill="#000000">dbuf_init</text>
</a>
</g>
</g>
<!-- Node623&#45;&gt;Node624 -->
<g id="edge2" class="edge">
<title>Node623&#45;&gt;Node624</title>
<path fill="none" stroke="#191970" d="M181.3011,-452.451C193.1005,-469.4369 212.6676,-494.4347 235,-510.1996 241.7086,-514.9353 249.7564,-518.6895 257.3726,-521.5671"/>
<polygon fill="#191970" stroke="#191970" points="184.0648,-450.2889 175.5768,-443.9482 178.2581,-454.1981 184.0648,-450.2889"/>
</g>
<!-- Node625 -->
<g id="node4" class="node">
<title>Node625</title>
<g id="a_node4"><a xlink:href="libbf_8c.html#ad79aefc435021a0743c89cb4aec7fa56" target="_top" xlink:title="bf_ftoa_internal">
<polygon fill="none" stroke="#000000" points="242.5,-481.6996 242.5,-500.6996 325.5,-500.6996 325.5,-481.6996 242.5,-481.6996"/>
<text text-anchor="middle" x="284" y="-488.6996" font-family="Helvetica,sans-Serif" font-size="10.00" fill="#000000">bf_ftoa_internal</text>
</a>
</g>
</g>
<!-- Node623&#45;&gt;Node625 -->
<g id="edge3" class="edge">
<title>Node623&#45;&gt;Node625</title>
<path fill="none" stroke="#191970" d="M193.1759,-449.1344C205.415,-456.5443 220.7406,-465.3501 235,-472.1996 242.073,-475.5971 249.9237,-478.8561 257.2314,-481.6863"/>
<polygon fill="#191970" stroke="#191970" points="194.8395,-446.0487 184.487,-443.7956 191.1749,-452.0128 194.8395,-446.0487"/>
</g>
<!-- Node628 -->
<g id="node7" class="node">
<title>Node628</title>
<g id="a_node7"><a xlink:href="libregexp_8h.html#a9f2d004d841acbf42a7cf0490258b5ab" target="_top" xlink:title="lre_compile">
<polygon fill="none" stroke="#000000" points="251,-443.6996 251,-462.6996 317,-462.6996 317,-443.6996 251,-443.6996"/>
<text text-anchor="middle" x="284" y="-450.6996" font-family="Helvetica,sans-Serif" font-size="10.00" fill="#000000">lre_compile</text>
</a>
</g>
</g>
<!-- Node623&#45;&gt;Node628 -->
<g id="edge6" class="edge">
<title>Node623&#45;&gt;Node628</title>
<path fill="none" stroke="#191970" d="M209.2887,-440.8021C222.8118,-443.0461 237.7723,-445.5286 250.7317,-447.6791"/>
<polygon fill="#191970" stroke="#191970" points="209.7227,-437.3263 199.2846,-439.142 208.5767,-444.2319 209.7227,-437.3263"/>
</g>
<!-- Node635 -->
<g id="node9" class="node">
<title>Node635</title>
<g id="a_node9"><a xlink:href="libunicode_8c.html#a6a79bc427bb64048b575fe5ac770160d" target="_top" xlink:title="unicode_normalize">
<polygon fill="none" stroke="#000000" points="235,-405.6996 235,-424.6996 333,-424.6996 333,-405.6996 235,-405.6996"/>
<text text-anchor="middle" x="284" y="-412.6996" font-family="Helvetica,sans-Serif" font-size="10.00" fill="#000000">unicode_normalize</text>
</a>
</g>
</g>
<!-- Node623&#45;&gt;Node635 -->
<g id="edge8" class="edge">
<title>Node623&#45;&gt;Node635</title>
<path fill="none" stroke="#191970" d="M209.3622,-427.5849C217.5875,-426.22 226.3419,-424.7673 234.8525,-423.3551"/>
<polygon fill="#191970" stroke="#191970" points="208.5767,-424.1673 199.2846,-429.2572 209.7227,-431.0729 208.5767,-424.1673"/>
</g>
<!-- Node637 -->
<g id="node11" class="node">
<title>Node637</title>
<g id="a_node11"><a xlink:href="quickjs-libc_8c.html#abc010e21334ba999f6ad18a681caf4fb" target="_top" xlink:title="js_std_dbuf_init">
<polygon fill="none" stroke="#000000" points="241.5,-329.6996 241.5,-348.6996 326.5,-348.6996 326.5,-329.6996 241.5,-329.6996"/>
<text text-anchor="middle" x="284" y="-336.6996" font-family="Helvetica,sans-Serif" font-size="10.00" fill="#000000">js_std_dbuf_init</text>
</a>
</g>
</g>
<!-- Node623&#45;&gt;Node637 -->
<g id="edge10" class="edge">
<title>Node623&#45;&gt;Node637</title>
<path fill="none" stroke="#191970" d="M189.0793,-417.9548C213.0439,-398.0715 252.8442,-365.0494 272.4126,-348.8136"/>
<polygon fill="#191970" stroke="#191970" points="186.7834,-415.3118 181.3223,-424.3907 191.2531,-420.699 186.7834,-415.3118"/>
</g>
<!-- Node645 -->
<g id="node16" class="node">
<title>Node645</title>
<g id="a_node16"><a xlink:href="quickjs_8c.html#a85c6e39e83eab2ddb82d58e82721d06a" target="_top" xlink:title="js_dbuf_init">
<polygon fill="none" stroke="#000000" points="251,-120.6996 251,-139.6996 317,-139.6996 317,-120.6996 251,-120.6996"/>
<text text-anchor="middle" x="284" y="-127.6996" font-family="Helvetica,sans-Serif" font-size="10.00" fill="#000000">js_dbuf_init</text>
</a>
</g>
</g>
<!-- Node623&#45;&gt;Node645 -->
<g id="edge15" class="edge">
<title>Node623&#45;&gt;Node645</title>
<path fill="none" stroke="#191970" d="M176.7645,-414.9121C198.7876,-356.4403 264.2828,-182.5491 280.3909,-139.7819"/>
<polygon fill="#191970" stroke="#191970" points="173.4293,-413.8374 173.1799,-424.4293 179.9801,-416.3047 173.4293,-413.8374"/>
</g>
<!-- Node626 -->
<g id="node5" class="node">
<title>Node626</title>
<g id="a_node5"><a xlink:href="libbf_8h.html#a3ab9f99dbc84f8cce63cf3867b8986e5" target="_top" xlink:title="bf_ftoa">
<polygon fill="none" stroke="#000000" points="406.5,-519.6996 406.5,-538.6996 453.5,-538.6996 453.5,-519.6996 406.5,-519.6996"/>
<text text-anchor="middle" x="430" y="-526.6996" font-family="Helvetica,sans-Serif" font-size="10.00" fill="#000000">bf_ftoa</text>
</a>
</g>
</g>
<!-- Node625&#45;&gt;Node626 -->
<g id="edge4" class="edge">
<title>Node625&#45;&gt;Node626</title>
<path fill="none" stroke="#191970" d="M330.6119,-503.3315C355.8781,-509.9076 386.0175,-517.7521 406.4311,-523.0652"/>
<polygon fill="#191970" stroke="#191970" points="331.4012,-499.9203 320.842,-500.7886 329.6379,-506.6946 331.4012,-499.9203"/>
</g>
<!-- Node627 -->
<g id="node6" class="node">
<title>Node627</title>
<g id="a_node6"><a xlink:href="libbf_8h.html#a076d088aa44d1cfa2d6f85f718fb88bc" target="_top" xlink:title="bfdec_ftoa">
<polygon fill="none" stroke="#000000" points="399,-481.6996 399,-500.6996 461,-500.6996 461,-481.6996 399,-481.6996"/>
<text text-anchor="middle" x="430" y="-488.6996" font-family="Helvetica,sans-Serif" font-size="10.00" fill="#000000">bfdec_ftoa</text>
</a>
</g>
</g>
<!-- Node625&#45;&gt;Node627 -->
<g id="edge5" class="edge">
<title>Node625&#45;&gt;Node627</title>
<path fill="none" stroke="#191970" d="M335.9229,-491.1996C356.9547,-491.1996 380.5393,-491.1996 398.8333,-491.1996"/>
<polygon fill="#191970" stroke="#191970" points="335.8378,-487.6997 325.8377,-491.1996 335.8377,-494.6997 335.8378,-487.6997"/>
</g>
<!-- Node629 -->
<g id="node8" class="node">
<title>Node629</title>
<g id="a_node8"><a xlink:href="quickjs_8c.html#ab0bd3fbfe9b7f004c067b103a6d60d03" target="_top" xlink:title="js_compile_regexp">
<polygon fill="none" stroke="#ff0000" points="381,-443.6996 381,-462.6996 479,-462.6996 479,-443.6996 381,-443.6996"/>
<text text-anchor="middle" x="430" y="-450.6996" font-family="Helvetica,sans-Serif" font-size="10.00" fill="#000000">js_compile_regexp</text>
</a>
</g>
</g>
<!-- Node628&#45;&gt;Node629 -->
<g id="edge7" class="edge">
<title>Node628&#45;&gt;Node629</title>
<path fill="none" stroke="#191970" d="M327.2592,-453.1996C344.124,-453.1996 363.5433,-453.1996 380.9271,-453.1996"/>
<polygon fill="#191970" stroke="#191970" points="327.1297,-449.6997 317.1297,-453.1996 327.1296,-456.6997 327.1297,-449.6997"/>
</g>
<!-- Node636 -->
<g id="node10" class="node">
<title>Node636</title>
<g id="a_node10"><a xlink:href="quickjs_8c.html#ac6b88454ffc4d639197c1e95e515e04a" target="_top" xlink:title="js_string_normalize">
<polygon fill="none" stroke="#000000" points="379.5,-405.6996 379.5,-424.6996 480.5,-424.6996 480.5,-405.6996 379.5,-405.6996"/>
<text text-anchor="middle" x="430" y="-412.6996" font-family="Helvetica,sans-Serif" font-size="10.00" fill="#000000">js_string_normalize</text>
</a>
</g>
</g>
<!-- Node635&#45;&gt;Node636 -->
<g id="edge9" class="edge">
<title>Node635&#45;&gt;Node636</title>
<path fill="none" stroke="#191970" d="M343.3546,-415.1996C355.2988,-415.1996 367.7483,-415.1996 379.362,-415.1996"/>
<polygon fill="#191970" stroke="#191970" points="343.0221,-411.6997 333.022,-415.1996 343.022,-418.6997 343.0221,-411.6997"/>
</g>
<!-- Node638 -->
<g id="node12" class="node">
<title>Node638</title>
<g id="a_node12"><a xlink:href="quickjs-libc_8c.html#a2abec3aeee82a6dd3dd063725bbeecfe" target="_top" xlink:title="js_printf_internal">
<polygon fill="none" stroke="#ff0000" points="386,-367.6996 386,-386.6996 474,-386.6996 474,-367.6996 386,-367.6996"/>
<text text-anchor="middle" x="430" y="-374.6996" font-family="Helvetica,sans-Serif" font-size="10.00" fill="#000000">js_printf_internal</text>
</a>
</g>
</g>
<!-- Node637&#45;&gt;Node638 -->
<g id="edge11" class="edge">
<title>Node637&#45;&gt;Node638</title>
<path fill="none" stroke="#191970" d="M330.536,-351.3117C350.8696,-356.604 374.3713,-362.7209 393.423,-367.6795"/>
<polygon fill="#191970" stroke="#191970" points="331.4012,-347.9203 320.842,-348.7886 329.6379,-354.6946 331.4012,-347.9203"/>
</g>
<!-- Node642 -->
<g id="node13" class="node">
<title>Node642</title>
<g id="a_node13"><a xlink:href="quickjs-libc_8c.html#af31f002f20b3b7e983dd4efabd18d65e" target="_top" xlink:title="js_std_file_getline">
<polygon fill="none" stroke="#000000" points="382.5,-329.6996 382.5,-348.6996 477.5,-348.6996 477.5,-329.6996 382.5,-329.6996"/>
<text text-anchor="middle" x="430" y="-336.6996" font-family="Helvetica,sans-Serif" font-size="10.00" fill="#000000">js_std_file_getline</text>
</a>
</g>
</g>
<!-- Node637&#45;&gt;Node642 -->
<g id="edge12" class="edge">
<title>Node637&#45;&gt;Node642</title>
<path fill="none" stroke="#191970" d="M336.7343,-339.1996C351.6747,-339.1996 367.8451,-339.1996 382.4593,-339.1996"/>
<polygon fill="#191970" stroke="#191970" points="336.6218,-335.6997 326.6217,-339.1996 336.6217,-342.6997 336.6218,-335.6997"/>
</g>
<!-- Node643 -->
<g id="node14" class="node">
<title>Node643</title>
<g id="a_node14"><a xlink:href="quickjs-libc_8c.html#ae8abf0c32bf9b0acd85adffaf8345dfe" target="_top" xlink:title="js_std_file_readAsString">
<polygon fill="none" stroke="#000000" points="369,-291.6996 369,-310.6996 491,-310.6996 491,-291.6996 369,-291.6996"/>
<text text-anchor="middle" x="430" y="-298.6996" font-family="Helvetica,sans-Serif" font-size="10.00" fill="#000000">js_std_file_readAsString</text>
</a>
</g>
</g>
<!-- Node637&#45;&gt;Node643 -->
<g id="edge13" class="edge">
<title>Node637&#45;&gt;Node643</title>
<path fill="none" stroke="#191970" d="M330.536,-327.0875C350.8696,-321.7952 374.3713,-315.6783 393.423,-310.7196"/>
<polygon fill="#191970" stroke="#191970" points="329.6379,-323.7045 320.842,-329.6106 331.4012,-330.4788 329.6379,-323.7045"/>
</g>
<!-- Node644 -->
<g id="node15" class="node">
<title>Node644</title>
<g id="a_node15"><a xlink:href="quickjs-libc_8c.html#a7aebce2172c6aa4a6645aef600a69e6b" target="_top" xlink:title="js_std_urlGet">
<polygon fill="none" stroke="#000000" points="393,-253.6996 393,-272.6996 467,-272.6996 467,-253.6996 393,-253.6996"/>
<text text-anchor="middle" x="430" y="-260.6996" font-family="Helvetica,sans-Serif" font-size="10.00" fill="#000000">js_std_urlGet</text>
</a>
</g>
</g>
<!-- Node637&#45;&gt;Node644 -->
<g id="edge14" class="edge">
<title>Node637&#45;&gt;Node644</title>
<path fill="none" stroke="#191970" d="M304.3567,-323.0825C320.973,-310.5512 345.4701,-293.4596 369,-282.1996 376.6042,-278.5607 385.0696,-275.4078 393.2147,-272.7731"/>
<polygon fill="#191970" stroke="#191970" points="301.7896,-320.641 295.9924,-329.5091 306.0545,-326.1918 301.7896,-320.641"/>
</g>
<!-- Node646 -->
<g id="node17" class="node">
<title>Node646</title>
<g id="a_node17"><a xlink:href="quickjs_8c.html#a61c8dfb5e807af1b6ff7d8ca61576dda" target="_top" xlink:title="build_backtrace">
<polygon fill="none" stroke="#ff0000" points="387.5,-215.6996 387.5,-234.6996 472.5,-234.6996 472.5,-215.6996 387.5,-215.6996"/>
<text text-anchor="middle" x="430" y="-222.6996" font-family="Helvetica,sans-Serif" font-size="10.00" fill="#000000">build_backtrace</text>
</a>
</g>
</g>
<!-- Node645&#45;&gt;Node646 -->
<g id="edge16" class="edge">
<title>Node645&#45;&gt;Node646</title>
<path fill="none" stroke="#191970" d="M299.0622,-147.431C314.901,-164.5698 341.3261,-190.5102 369,-206.1996 375.658,-209.9742 383.1584,-213.0944 390.5634,-215.6387"/>
<polygon fill="#191970" stroke="#191970" points="301.4779,-144.8838 292.1781,-139.808 296.2827,-149.5754 301.4779,-144.8838"/>
</g>
<!-- Node1218 -->
<g id="node18" class="node">
<title>Node1218</title>
<g id="a_node18"><a xlink:href="quickjs_8c.html#a8020fd59ed57f7f299216ec1ebfcda01" target="_top" xlink:title="js_new_function_def">
<polygon fill="none" stroke="#ff0000" points="377,-177.6996 377,-196.6996 483,-196.6996 483,-177.6996 377,-177.6996"/>
<text text-anchor="middle" x="430" y="-184.6996" font-family="Helvetica,sans-Serif" font-size="10.00" fill="#000000">js_new_function_def</text>
</a>
</g>
</g>
<!-- Node645&#45;&gt;Node1218 -->
<g id="edge17" class="edge">
<title>Node645&#45;&gt;Node1218</title>
<path fill="none" stroke="#191970" d="M313.1268,-144.2498C329.3739,-151.8252 350.0909,-161.0567 369,-168.1996 377.9238,-171.5705 387.736,-174.8208 396.8326,-177.6511"/>
<polygon fill="#191970" stroke="#191970" points="314.1823,-140.878 303.6445,-139.7805 311.1979,-147.21 314.1823,-140.878"/>
</g>
<!-- Node988 -->
<g id="node19" class="node">
<title>Node988</title>
<g id="a_node19"><a xlink:href="quickjs_8c.html#a7a4eedc4cc552a71e165f4d28ad43985" target="_top" xlink:title="resolve_variables">
<polygon fill="none" stroke="#ff0000" points="384,-139.6996 384,-158.6996 476,-158.6996 476,-139.6996 384,-139.6996"/>
<text text-anchor="middle" x="430" y="-146.6996" font-family="Helvetica,sans-Serif" font-size="10.00" fill="#000000">resolve_variables</text>
</a>
</g>
</g>
<!-- Node645&#45;&gt;Node988 -->
<g id="edge18" class="edge">
<title>Node645&#45;&gt;Node988</title>
<path fill="none" stroke="#191970" d="M327.2741,-135.8311C345.1356,-138.1556 365.8604,-140.8526 383.9973,-143.2129"/>
<polygon fill="#191970" stroke="#191970" points="327.4977,-132.3308 317.1297,-134.511 326.5943,-139.2723 327.4977,-132.3308"/>
</g>
<!-- Node1222 -->
<g id="node20" class="node">
<title>Node1222</title>
<g id="a_node20"><a xlink:href="quickjs_8c.html#ac8f4450aa771cc138f5fd25086f1c106" target="_top" xlink:title="compute_pc2line_info">
<polygon fill="none" stroke="#000000" points="374.5,-101.6996 374.5,-120.6996 485.5,-120.6996 485.5,-101.6996 374.5,-101.6996"/>
<text text-anchor="middle" x="430" y="-108.6996" font-family="Helvetica,sans-Serif" font-size="10.00" fill="#000000">compute_pc2line_info</text>
</a>
</g>
</g>
<!-- Node645&#45;&gt;Node1222 -->
<g id="edge19" class="edge">
<title>Node645&#45;&gt;Node1222</title>
<path fill="none" stroke="#191970" d="M327.466,-124.543C342.189,-122.627 358.8398,-120.4602 374.3758,-118.4384"/>
<polygon fill="#191970" stroke="#191970" points="326.5943,-121.1269 317.1297,-125.8882 327.4977,-128.0684 326.5943,-121.1269"/>
</g>
<!-- Node1223 -->
<g id="node21" class="node">
<title>Node1223</title>
<g id="a_node21"><a xlink:href="quickjs_8c.html#ad0d311d4ce409584384f835f1a3e185a" target="_top" xlink:title="resolve_labels">
<polygon fill="none" stroke="#ff0000" points="530.5,-72.6996 530.5,-91.6996 609.5,-91.6996 609.5,-72.6996 530.5,-72.6996"/>
<text text-anchor="middle" x="570" y="-79.6996" font-family="Helvetica,sans-Serif" font-size="10.00" fill="#000000">resolve_labels</text>
</a>
</g>
</g>
<!-- Node645&#45;&gt;Node1223 -->
<g id="edge21" class="edge">
<title>Node645&#45;&gt;Node1223</title>
<path fill="none" stroke="#191970" d="M309.5633,-115.7634C325.9951,-107.2547 348.1059,-97.2034 369,-92.1996 423.8748,-79.0579 489.5077,-78.5175 530.4858,-79.9093"/>
<polygon fill="#191970" stroke="#191970" points="307.7736,-112.7512 300.5969,-120.5451 311.0676,-118.9278 307.7736,-112.7512"/>
</g>
<!-- Node1224 -->
<g id="node22" class="node">
<title>Node1224</title>
<g id="a_node22"><a xlink:href="quickjs_8c.html#a91942742587df191fbf0f17a2ede99ef" target="_top" xlink:title="JS_WriteObjectAtoms">
<polygon fill="none" stroke="#000000" points="373,-25.6996 373,-44.6996 487,-44.6996 487,-25.6996 373,-25.6996"/>
<text text-anchor="middle" x="430" y="-32.6996" font-family="Helvetica,sans-Serif" font-size="10.00" fill="#000000">JS_WriteObjectAtoms</text>
</a>
</g>
</g>
<!-- Node645&#45;&gt;Node1224 -->
<g id="edge22" class="edge">
<title>Node645&#45;&gt;Node1224</title>
<path fill="none" stroke="#191970" d="M300.8403,-113.2892C317.1463,-97.6395 343.1344,-74.5418 369,-59.1996 378.6902,-53.4518 390.0083,-48.5604 400.246,-44.7225"/>
<polygon fill="#191970" stroke="#191970" points="298.364,-110.8153 293.6563,-120.3068 303.2554,-115.8227 298.364,-110.8153"/>
</g>
<!-- Node805 -->
<g id="node23" class="node">
<title>Node805</title>
<g id="a_node23"><a xlink:href="quickjs_8c.html#a8c807d481615ed55818787ae89621a37" target="_top" xlink:title="JS_WriteObject">
<polygon fill="none" stroke="#000000" points="527,-15.6996 527,-34.6996 613,-34.6996 613,-15.6996 527,-15.6996"/>
<text text-anchor="middle" x="570" y="-22.6996" font-family="Helvetica,sans-Serif" font-size="10.00" fill="#000000">JS_WriteObject</text>
</a>
</g>
</g>
<!-- Node645&#45;&gt;Node805 -->
<g id="edge24" class="edge">
<title>Node645&#45;&gt;Node805</title>
<path fill="none" stroke="#191970" d="M291.6815,-110.9374C303.6218,-83.9697 329.4558,-36.0412 369,-16.1996 424.8857,11.8416 500.889,-3.7312 541.5538,-15.6361"/>
<polygon fill="#191970" stroke="#191970" points="288.3287,-109.8802 287.6615,-120.454 294.777,-112.6042 288.3287,-109.8802"/>
</g>
<!-- Node1222&#45;&gt;Node1223 -->
<g id="edge20" class="edge">
<title>Node1222&#45;&gt;Node1223</title>
<path fill="none" stroke="#191970" d="M486.2892,-99.5397C501.0652,-96.4789 516.6896,-93.2425 530.3875,-90.405"/>
<polygon fill="#191970" stroke="#191970" points="485.3114,-96.1678 476.2292,-101.6235 486.7313,-103.0223 485.3114,-96.1678"/>
</g>
<!-- Node1224&#45;&gt;Node805 -->
<g id="edge23" class="edge">
<title>Node1224&#45;&gt;Node805</title>
<path fill="none" stroke="#191970" d="M497.5993,-30.3711C507.4911,-29.6645 517.4469,-28.9534 526.6753,-28.2942"/>
<polygon fill="#191970" stroke="#191970" points="497.0725,-26.8997 487.3473,-31.1033 497.5713,-33.8819 497.0725,-26.8997"/>
</g>
</g>
</svg>
