<?xml version="1.0" encoding="UTF-8" standalone="no"?>
<!DOCTYPE svg PUBLIC "-//W3C//DTD SVG 1.1//EN"
 "http://www.w3.org/Graphics/SVG/1.1/DTD/svg11.dtd">
<!-- Generated by graphviz version 2.40.1 (20161225.0304)
 -->
<!-- Title: min_int Pages: 1 -->
<!--zoomable 685 -->
<svg id="main" version="1.1" xmlns="http://www.w3.org/2000/svg" xmlns:xlink="http://www.w3.org/1999/xlink" xml:space="preserve" onload="init(evt)">
<style type="text/css"><![CDATA[
.edge:hover path { stroke: red; }
.edge:hover polygon { stroke: red; fill: red; }
]]></style>
<script type="text/javascript"><![CDATA[
var edges = document.getElementsByTagName('g');
if (edges && edges.length) {
  for (var i=0;i<edges.length;i++) {
    if (edges[i].id.substr(0,4)=='edge') {
      edges[i].setAttribute('class','edge');
    }
  }
}
]]></script>
        <defs>
                <circle id="rim" cx="0" cy="0" r="7"/>
                <circle id="rim2" cx="0" cy="0" r="3.5"/>
                <g id="zoomPlus">
                        <use xlink:href="#rim" fill="#404040">
                                <set attributeName="fill" to="#808080" begin="zoomplus.mouseover" end="zoomplus.mouseout"/>
                        </use>
                        <path d="M-4,0h8M0,-4v8" fill="none" stroke="white" stroke-width="1.5" pointer-events="none"/>
                </g>
                <g id="zoomMin">
                        <use xlink:href="#rim" fill="#404040">
                                <set attributeName="fill" to="#808080" begin="zoomminus.mouseover" end="zoomminus.mouseout"/>
                        </use>
                        <path d="M-4,0h8" fill="none" stroke="white" stroke-width="1.5" pointer-events="none"/>
                </g>
                <g id="dirArrow">
                        <path fill="none" stroke="white" stroke-width="1.5" d="M0,-3.0v7 M-2.5,-0.5L0,-3.0L2.5,-0.5"/>
                </g>
               <g id="resetDef">
                       <use xlink:href="#rim2" fill="#404040">
                               <set attributeName="fill" to="#808080" begin="reset.mouseover" end="reset.mouseout"/>
                       </use>
               </g>
        </defs>

<script type="text/javascript">
var viewWidth = 565;
var viewHeight = 685;
var sectionId = 'dynsection-8';
</script>
<script xlink:href="svgpan.js"/>
<svg id="graph" class="graph">
<g id="viewport">
<title>min_int</title>
<!-- Node1371 -->
<g id="node1" class="node">
<title>Node1371</title>
<polygon fill="#bfbfbf" stroke="#000000" points="0,-228.5 0,-247.5 48,-247.5 48,-228.5 0,-228.5"/>
<text text-anchor="middle" x="24" y="-235.5" font-family="Helvetica,sans-Serif" font-size="10.00" fill="#000000">min_int</text>
</g>
<!-- Node1372 -->
<g id="node2" class="node">
<title>Node1372</title>
<g id="a_node2"><a xlink:href="quickjs_8c.html#ac2894ff4edcdb4e6841bcce9c76081e3" target="_top" xlink:title="JS_CallInternal">
<polygon fill="none" stroke="#000000" points="109.5,-494.5 109.5,-513.5 192.5,-513.5 192.5,-494.5 109.5,-494.5"/>
<text text-anchor="middle" x="151" y="-501.5" font-family="Helvetica,sans-Serif" font-size="10.00" fill="#000000">JS_CallInternal</text>
</a>
</g>
</g>
<!-- Node1371&#45;&gt;Node1372 -->
<g id="edge1" class="edge">
<title>Node1371&#45;&gt;Node1372</title>
<path fill="none" stroke="#191970" d="M33.0648,-256.9862C58.1534,-309.534 127.8766,-455.5684 146.4208,-494.409"/>
<polygon fill="#191970" stroke="#191970" points="36.1377,-255.2988 28.6706,-247.7825 29.8207,-258.3148 36.1377,-255.2988"/>
</g>
<!-- Node1436 -->
<g id="node14" class="node">
<title>Node1436</title>
<g id="a_node14"><a xlink:href="quickjs_8c.html#a343a343b16bc3c9875050e99ee0d2884" target="_top" xlink:title="JS_JSONStringify">
<polygon fill="none" stroke="#ff0000" points="102.5,-323.5 102.5,-342.5 199.5,-342.5 199.5,-323.5 102.5,-323.5"/>
<text text-anchor="middle" x="151" y="-330.5" font-family="Helvetica,sans-Serif" font-size="10.00" fill="#000000">JS_JSONStringify</text>
</a>
</g>
</g>
<!-- Node1371&#45;&gt;Node1436 -->
<g id="edge19" class="edge">
<title>Node1371&#45;&gt;Node1436</title>
<path fill="none" stroke="#191970" d="M34.1051,-256.6729C44.4294,-274.0178 62.0387,-299.3142 84,-314 89.8293,-317.8981 96.4563,-321.0052 103.2204,-323.4795"/>
<polygon fill="#191970" stroke="#191970" points="36.8816,-254.4759 28.8903,-247.5196 30.7994,-257.941 36.8816,-254.4759"/>
</g>
<!-- Node1756 -->
<g id="node15" class="node">
<title>Node1756</title>
<g id="a_node15"><a xlink:href="quickjs_8c.html#af5a7bd13b47d5c2de41e92111bf21305" target="_top" xlink:title="js_math_min_max">
<polygon fill="none" stroke="#000000" points="103,-285.5 103,-304.5 199,-304.5 199,-285.5 103,-285.5"/>
<text text-anchor="middle" x="151" y="-292.5" font-family="Helvetica,sans-Serif" font-size="10.00" fill="#000000">js_math_min_max</text>
</a>
</g>
</g>
<!-- Node1371&#45;&gt;Node1756 -->
<g id="edge20" class="edge">
<title>Node1371&#45;&gt;Node1756</title>
<path fill="none" stroke="#191970" d="M44.9535,-253.3794C56.1103,-261.0127 70.322,-269.8844 84,-276 92.2782,-279.7013 101.4565,-282.8646 110.2971,-285.4875"/>
<polygon fill="#191970" stroke="#191970" points="46.9234,-250.4859 36.7294,-247.5993 42.8984,-256.213 46.9234,-250.4859"/>
</g>
<!-- Node1957 -->
<g id="node16" class="node">
<title>Node1957</title>
<g id="a_node16"><a xlink:href="quickjs_8c.html#a3d9b165d4274aa43e051caba9bcbbe9f" target="_top" xlink:title="js_string_compare">
<polygon fill="none" stroke="#000000" points="103,-247.5 103,-266.5 199,-266.5 199,-247.5 103,-247.5"/>
<text text-anchor="middle" x="151" y="-254.5" font-family="Helvetica,sans-Serif" font-size="10.00" fill="#000000">js_string_compare</text>
</a>
</g>
</g>
<!-- Node1371&#45;&gt;Node1957 -->
<g id="edge21" class="edge">
<title>Node1371&#45;&gt;Node1957</title>
<path fill="none" stroke="#191970" d="M58.1922,-243.1154C71.9531,-245.1741 88.0663,-247.5847 102.9691,-249.8143"/>
<polygon fill="#191970" stroke="#191970" points="58.5945,-239.6367 48.1867,-241.6185 57.5587,-246.5596 58.5945,-239.6367"/>
</g>
<!-- Node1795 -->
<g id="node22" class="node">
<title>Node1795</title>
<g id="a_node22"><a xlink:href="quickjs_8c.html#afe038ef522a8c7c8862cfe18a0c0a785" target="_top" xlink:title="js_string_pad">
<polygon fill="none" stroke="#000000" points="453.5,-171.5 453.5,-190.5 527.5,-190.5 527.5,-171.5 453.5,-171.5"/>
<text text-anchor="middle" x="490.5" y="-178.5" font-family="Helvetica,sans-Serif" font-size="10.00" fill="#000000">js_string_pad</text>
</a>
</g>
</g>
<!-- Node1371&#45;&gt;Node1795 -->
<g id="edge27" class="edge">
<title>Node1371&#45;&gt;Node1795</title>
<path fill="none" stroke="#191970" d="M58.2767,-233.8118C143.5814,-223.3888 364.8886,-196.348 453.2562,-185.5507"/>
<polygon fill="#191970" stroke="#191970" points="57.6004,-230.3684 48.0987,-235.0555 58.4494,-237.3167 57.6004,-230.3684"/>
</g>
<!-- Node1856 -->
<g id="node23" class="node">
<title>Node1856</title>
<g id="a_node23"><a xlink:href="quickjs_8c.html#a4623c0fbf1417b8c089ba0f5037c5362" target="_top" xlink:title="JS_ToUint8ClampFree">
<polygon fill="none" stroke="#ff0000" points="93,-152.5 93,-171.5 209,-171.5 209,-152.5 93,-152.5"/>
<text text-anchor="middle" x="151" y="-159.5" font-family="Helvetica,sans-Serif" font-size="10.00" fill="#000000">JS_ToUint8ClampFree</text>
</a>
</g>
</g>
<!-- Node1371&#45;&gt;Node1856 -->
<g id="edge28" class="edge">
<title>Node1371&#45;&gt;Node1856</title>
<path fill="none" stroke="#191970" d="M39.9934,-221.1904C51.3964,-209.9871 67.5632,-195.6092 84,-186 94.1333,-180.0759 105.9724,-175.2436 116.8558,-171.5085"/>
<polygon fill="#191970" stroke="#191970" points="37.4623,-218.7722 32.9152,-228.3417 42.4374,-223.6965 37.4623,-218.7722"/>
</g>
<!-- Node1802 -->
<g id="node24" class="node">
<title>Node1802</title>
<g id="a_node24"><a xlink:href="quickjs_8c.html#abe83a22e4d81b08015c382d8f4e7f833" target="_top" xlink:title="js_typed_array_copyWithin">
<polygon fill="none" stroke="#000000" points="84,-114.5 84,-133.5 218,-133.5 218,-114.5 84,-114.5"/>
<text text-anchor="middle" x="151" y="-121.5" font-family="Helvetica,sans-Serif" font-size="10.00" fill="#000000">js_typed_array_copyWithin</text>
</a>
</g>
</g>
<!-- Node1371&#45;&gt;Node1802 -->
<g id="edge29" class="edge">
<title>Node1371&#45;&gt;Node1802</title>
<path fill="none" stroke="#191970" d="M31.1584,-218.8335C40.2026,-197.2281 57.817,-162.572 84,-143 89.2294,-139.091 95.2338,-135.9857 101.4535,-133.519"/>
<polygon fill="#191970" stroke="#191970" points="27.8495,-217.6825 27.4069,-228.2681 34.3542,-220.269 27.8495,-217.6825"/>
</g>
<!-- Node1967 -->
<g id="node25" class="node">
<title>Node1967</title>
<g id="a_node25"><a xlink:href="quickjs_8c.html#a317ccdca83843c76330ace89fb055b56" target="_top" xlink:title="string_buffer_realloc">
<polygon fill="none" stroke="#000000" points="99,-76.5 99,-95.5 203,-95.5 203,-76.5 99,-76.5"/>
<text text-anchor="middle" x="151" y="-83.5" font-family="Helvetica,sans-Serif" font-size="10.00" fill="#000000">string_buffer_realloc</text>
</a>
</g>
</g>
<!-- Node1371&#45;&gt;Node1967 -->
<g id="edge30" class="edge">
<title>Node1371&#45;&gt;Node1967</title>
<path fill="none" stroke="#191970" d="M27.4942,-218.1414C33.6664,-189.0171 49.2839,-134.9402 84,-105 88.4864,-101.1308 93.71,-98.0467 99.2242,-95.5889"/>
<polygon fill="#191970" stroke="#191970" points="23.9909,-217.8207 25.5129,-228.3056 30.8616,-219.16 23.9909,-217.8207"/>
</g>
<!-- Node1372&#45;&gt;Node1372 -->
<g id="edge2" class="edge">
<title>Node1372&#45;&gt;Node1372</title>
<path fill="none" stroke="#191970" d="M127.5626,-523.0292C128.841,-528.128 136.6535,-532 151,-532 173.3945,-532 179.868,-522.5653 170.4203,-513.7571"/>
<polygon fill="#191970" stroke="#191970" points="130.8158,-524.3243 131.5797,-513.7571 124.3927,-521.5415 130.8158,-524.3243"/>
</g>
<!-- Node1373 -->
<g id="node3" class="node">
<title>Node1373</title>
<g id="a_node3"><a xlink:href="quickjs_8c.html#a1a4c02a29525d5cb2085dd8bca3af350" target="_top" xlink:title="JS_Call">
<polygon fill="none" stroke="#ff0000" points="295.5,-532.5 295.5,-551.5 346.5,-551.5 346.5,-532.5 295.5,-532.5"/>
<text text-anchor="middle" x="321" y="-539.5" font-family="Helvetica,sans-Serif" font-size="10.00" fill="#000000">JS_Call</text>
</a>
</g>
</g>
<!-- Node1372&#45;&gt;Node1373 -->
<g id="edge3" class="edge">
<title>Node1372&#45;&gt;Node1373</title>
<path fill="none" stroke="#191970" d="M202.7606,-509.3014C235.0065,-515.5275 274.828,-524.9488 299.0489,-532.3847"/>
<polygon fill="#191970" stroke="#191970" points="203.0597,-505.7967 192.5867,-507.3988 201.7729,-512.6774 203.0597,-505.7967"/>
</g>
<!-- Node1456 -->
<g id="node11" class="node">
<title>Node1456</title>
<g id="a_node11"><a xlink:href="quickjs_8c.html#a75f6ee5e4235a7dc99889f3d2eb2c147" target="_top" xlink:title="JS_CallFree">
<polygon fill="none" stroke="#ff0000" points="285.5,-494.5 285.5,-513.5 356.5,-513.5 356.5,-494.5 285.5,-494.5"/>
<text text-anchor="middle" x="321" y="-501.5" font-family="Helvetica,sans-Serif" font-size="10.00" fill="#000000">JS_CallFree</text>
</a>
</g>
</g>
<!-- Node1372&#45;&gt;Node1456 -->
<g id="edge13" class="edge">
<title>Node1372&#45;&gt;Node1456</title>
<path fill="none" stroke="#191970" d="M202.9076,-497.7269C229.5855,-496.919 261.4172,-497.1376 285.3066,-498.3826"/>
<polygon fill="#191970" stroke="#191970" points="202.4526,-494.2411 192.5867,-498.1029 202.7075,-501.2364 202.4526,-494.2411"/>
</g>
<!-- Node1919 -->
<g id="node12" class="node">
<title>Node1919</title>
<g id="a_node12"><a xlink:href="quickjs_8c.html#ad35594576a14c10812efaf958c99af8a" target="_top" xlink:title="JS_CallConstructorInternal">
<polygon fill="none" stroke="#ff0000" points="254,-456.5 254,-475.5 388,-475.5 388,-456.5 254,-456.5"/>
<text text-anchor="middle" x="321" y="-463.5" font-family="Helvetica,sans-Serif" font-size="10.00" fill="#000000">JS_CallConstructorInternal</text>
</a>
</g>
</g>
<!-- Node1372&#45;&gt;Node1919 -->
<g id="edge15" class="edge">
<title>Node1372&#45;&gt;Node1919</title>
<path fill="none" stroke="#191970" d="M182.6736,-491.5264C202.6444,-485.8761 229.2038,-479.5311 253.7085,-474.4236"/>
<polygon fill="#191970" stroke="#191970" points="181.4827,-488.2284 172.8765,-494.4076 183.4578,-494.944 181.4827,-488.2284"/>
</g>
<!-- Node1956 -->
<g id="node13" class="node">
<title>Node1956</title>
<g id="a_node13"><a xlink:href="quickjs_8c.html#ade71a22dc56e7371392393df663b28b3" target="_top" xlink:title="async_func_resume">
<polygon fill="none" stroke="#ff0000" points="269,-614.5 269,-633.5 373,-633.5 373,-614.5 269,-614.5"/>
<text text-anchor="middle" x="321" y="-621.5" font-family="Helvetica,sans-Serif" font-size="10.00" fill="#000000">async_func_resume</text>
</a>
</g>
</g>
<!-- Node1372&#45;&gt;Node1956 -->
<g id="edge17" class="edge">
<title>Node1372&#45;&gt;Node1956</title>
<path fill="none" stroke="#191970" d="M172.9029,-519.4609C208.5058,-544.5923 277.9075,-593.5817 307.3107,-614.3369"/>
<polygon fill="#191970" stroke="#191970" points="174.8125,-516.5247 164.6244,-513.6173 170.7757,-522.2435 174.8125,-516.5247"/>
</g>
<!-- Node1373&#45;&gt;Node1372 -->
<g id="edge11" class="edge">
<title>Node1373&#45;&gt;Node1372</title>
<path fill="none" stroke="#191970" d="M285.3393,-539.6445C251.3703,-533.8236 201.3207,-522.3316 172.8765,-513.5924"/>
<polygon fill="#191970" stroke="#191970" points="284.8928,-543.1176 295.3234,-541.2595 286.0107,-536.2075 284.8928,-543.1176"/>
</g>
<!-- Node1374 -->
<g id="node4" class="node">
<title>Node1374</title>
<g id="a_node4"><a xlink:href="structqjs_1_1js__traits_3_01std_1_1function_3_01R_07Args_8_8_8_08_4_01_4.html#abc36cacd670b6b5f1773734a0586a02b" target="_top" xlink:title="qjs::js_traits\&lt; std\l::function\&lt; R(Args...)\l\&gt; \&gt;::unwrap">
<polygon fill="none" stroke="#000000" points="436,-521.5 436,-562.5 545,-562.5 545,-521.5 436,-521.5"/>
<text text-anchor="start" x="444" y="-550.5" font-family="Helvetica,sans-Serif" font-size="10.00" fill="#000000">qjs::js_traits&lt; std</text>
<text text-anchor="start" x="444" y="-539.5" font-family="Helvetica,sans-Serif" font-size="10.00" fill="#000000">::function&lt; R(Args...)</text>
<text text-anchor="middle" x="490.5" y="-528.5" font-family="Helvetica,sans-Serif" font-size="10.00" fill="#000000">&gt; &gt;::unwrap</text>
</a>
</g>
</g>
<!-- Node1373&#45;&gt;Node1374 -->
<g id="edge4" class="edge">
<title>Node1373&#45;&gt;Node1374</title>
<path fill="none" stroke="#191970" d="M357.0215,-542C379.8847,-542 409.9139,-542 435.6986,-542"/>
<polygon fill="#191970" stroke="#191970" points="356.7434,-538.5001 346.7434,-542 356.7434,-545.5001 356.7434,-538.5001"/>
</g>
<!-- Node1375 -->
<g id="node5" class="node">
<title>Node1375</title>
<g id="a_node5"><a xlink:href="quickjs-libc_8c.html#abb1cbe3fdf905e81f603a3a0bfce475a" target="_top" xlink:title="call_handler">
<polygon fill="none" stroke="#ff0000" points="456.5,-483.5 456.5,-502.5 524.5,-502.5 524.5,-483.5 456.5,-483.5"/>
<text text-anchor="middle" x="490.5" y="-490.5" font-family="Helvetica,sans-Serif" font-size="10.00" fill="#000000">call_handler</text>
</a>
</g>
</g>
<!-- Node1373&#45;&gt;Node1375 -->
<g id="edge5" class="edge">
<title>Node1373&#45;&gt;Node1375</title>
<path fill="none" stroke="#191970" d="M356.5924,-532.0511C366.7504,-529.1725 377.8228,-525.9976 388,-523 404.0486,-518.2731 407.9561,-516.7427 424,-512 434.5934,-508.8685 446.1613,-505.5339 456.6351,-502.5466"/>
<polygon fill="#191970" stroke="#191970" points="355.4793,-528.7284 346.8061,-534.8133 357.3809,-535.4652 355.4793,-528.7284"/>
</g>
<!-- Node1380 -->
<g id="node6" class="node">
<title>Node1380</title>
<g id="a_node6"><a xlink:href="quickjs_8c.html#aa049793cc8648d35fe81876a2543ca4e" target="_top" xlink:title="JS_GetIterator2">
<polygon fill="none" stroke="#ff0000" points="447.5,-445.5 447.5,-464.5 533.5,-464.5 533.5,-445.5 447.5,-445.5"/>
<text text-anchor="middle" x="490.5" y="-452.5" font-family="Helvetica,sans-Serif" font-size="10.00" fill="#000000">JS_GetIterator2</text>
</a>
</g>
</g>
<!-- Node1373&#45;&gt;Node1380 -->
<g id="edge6" class="edge">
<title>Node1373&#45;&gt;Node1380</title>
<path fill="none" stroke="#191970" d="M356.5901,-536.5176C367.3431,-533.6914 378.7418,-529.426 388,-523 410.2001,-507.5913 401.8151,-489.4306 424,-474 430.9986,-469.1321 439.2303,-465.5029 447.4728,-462.7998"/>
<polygon fill="#191970" stroke="#191970" points="355.537,-533.1681 346.5693,-538.8099 357.098,-539.9918 355.537,-533.1681"/>
</g>
<!-- Node1403 -->
<g id="node7" class="node">
<title>Node1403</title>
<g id="a_node7"><a xlink:href="quickjs_8c.html#ad6303fbd3add4afa0cb64b0aa6d431ce" target="_top" xlink:title="JS_IteratorNext2">
<polygon fill="none" stroke="#ff0000" points="445,-619.5 445,-638.5 536,-638.5 536,-619.5 445,-619.5"/>
<text text-anchor="middle" x="490.5" y="-626.5" font-family="Helvetica,sans-Serif" font-size="10.00" fill="#000000">JS_IteratorNext2</text>
</a>
</g>
</g>
<!-- Node1373&#45;&gt;Node1403 -->
<g id="edge7" class="edge">
<title>Node1373&#45;&gt;Node1403</title>
<path fill="none" stroke="#191970" d="M340.9982,-557.8933C360.9956,-573.1164 393.1345,-595.8106 424,-610 432.0731,-613.7113 441.0354,-616.8646 449.6984,-619.4724"/>
<polygon fill="#191970" stroke="#191970" points="343.013,-555.0269 332.9615,-551.6776 338.7305,-560.5641 343.013,-555.0269"/>
</g>
<!-- Node1407 -->
<g id="node8" class="node">
<title>Node1407</title>
<g id="a_node8"><a xlink:href="quickjs_8c.html#a62424fefab7bcc97f49c978205c7a1c1" target="_top" xlink:title="js_for_await_of_next">
<polygon fill="none" stroke="#000000" points="437,-407.5 437,-426.5 544,-426.5 544,-407.5 437,-407.5"/>
<text text-anchor="middle" x="490.5" y="-414.5" font-family="Helvetica,sans-Serif" font-size="10.00" fill="#000000">js_for_await_of_next</text>
</a>
</g>
</g>
<!-- Node1373&#45;&gt;Node1407 -->
<g id="edge8" class="edge">
<title>Node1373&#45;&gt;Node1407</title>
<path fill="none" stroke="#191970" d="M356.7443,-538.0305C367.813,-535.2906 379.3574,-530.6939 388,-523 419.2555,-495.1754 392.772,-463.8554 424,-436 428.301,-432.1635 433.327,-429.0978 438.6549,-426.6486"/>
<polygon fill="#191970" stroke="#191970" points="355.9067,-534.6293 346.8098,-540.0604 357.3081,-541.4876 355.9067,-534.6293"/>
</g>
<!-- Node1408 -->
<g id="node9" class="node">
<title>Node1408</title>
<g id="a_node9"><a xlink:href="quickjs_8c.html#afd4ef2d701fa0702f321925b61c57bbf" target="_top" xlink:title="js_call_bound_function">
<polygon fill="none" stroke="#ff0000" points="432.5,-581.5 432.5,-600.5 548.5,-600.5 548.5,-581.5 432.5,-581.5"/>
<text text-anchor="middle" x="490.5" y="-588.5" font-family="Helvetica,sans-Serif" font-size="10.00" fill="#000000">js_call_bound_function</text>
</a>
</g>
</g>
<!-- Node1373&#45;&gt;Node1408 -->
<g id="edge10" class="edge">
<title>Node1373&#45;&gt;Node1408</title>
<path fill="none" stroke="#191970" d="M356.6524,-552.4329C376.4775,-558.222 401.5988,-565.5376 424,-572 434.7291,-575.0952 446.439,-578.449 457.0013,-581.4651"/>
<polygon fill="#191970" stroke="#191970" points="357.3907,-549.0024 346.8104,-549.5573 355.4275,-555.7214 357.3907,-549.0024"/>
</g>
<!-- Node1412 -->
<g id="node10" class="node">
<title>Node1412</title>
<g id="a_node10"><a xlink:href="quickjs_8c.html#a1bf6b62983e8fff99c0a5d5a9f486115" target="_top" xlink:title="js_async_function_resume">
<polygon fill="none" stroke="#ff0000" points="424,-657.5 424,-676.5 557,-676.5 557,-657.5 424,-657.5"/>
<text text-anchor="middle" x="490.5" y="-664.5" font-family="Helvetica,sans-Serif" font-size="10.00" fill="#000000">js_async_function_resume</text>
</a>
</g>
</g>
<!-- Node1373&#45;&gt;Node1412 -->
<g id="edge12" class="edge">
<title>Node1373&#45;&gt;Node1412</title>
<path fill="none" stroke="#191970" d="M340.1223,-558.8645C353.8488,-571.2342 372.5701,-588.6545 388,-605 405.1094,-623.1247 403.0976,-634.4235 424,-648 429.941,-651.8588 436.6758,-654.9481 443.5229,-657.4177"/>
<polygon fill="#191970" stroke="#191970" points="342.084,-555.9236 332.2953,-551.87 337.4196,-561.1432 342.084,-555.9236"/>
</g>
<!-- Node1407&#45;&gt;Node1372 -->
<g id="edge9" class="edge">
<title>Node1407&#45;&gt;Node1372</title>
<path fill="none" stroke="#191970" d="M426.6079,-418.5859C378.1868,-421.3336 310.5622,-428.5184 254,-447 219.4204,-458.2988 183.1317,-481.4424 164.2285,-494.4966"/>
<polygon fill="#191970" stroke="#191970" points="426.8333,-422.079 436.638,-418.0645 426.4698,-415.0885 426.8333,-422.079"/>
</g>
<!-- Node1456&#45;&gt;Node1372 -->
<g id="edge14" class="edge">
<title>Node1456&#45;&gt;Node1372</title>
<path fill="none" stroke="#191970" d="M275.0615,-510.0718C249.3539,-511.031 217.5546,-510.9727 192.5867,-509.8971"/>
<polygon fill="#191970" stroke="#191970" points="275.4715,-513.5571 285.3066,-509.6174 275.1613,-506.564 275.4715,-513.5571"/>
</g>
<!-- Node1919&#45;&gt;Node1372 -->
<g id="edge16" class="edge">
<title>Node1919&#45;&gt;Node1372</title>
<path fill="none" stroke="#191970" d="M289.235,-478.4994C261.9432,-486.2162 222.3961,-495.2222 192.5867,-500.6012"/>
<polygon fill="#191970" stroke="#191970" points="290.4415,-481.7929 299.0489,-475.6153 288.4678,-475.077 290.4415,-481.7929"/>
</g>
<!-- Node1956&#45;&gt;Node1412 -->
<g id="edge18" class="edge">
<title>Node1956&#45;&gt;Node1412</title>
<path fill="none" stroke="#191970" d="M368.5239,-636.0562C395.2349,-642.8325 428.103,-651.1707 452.9876,-657.4836"/>
<polygon fill="#191970" stroke="#191970" points="369.1712,-632.6096 358.6175,-633.5431 367.4498,-639.3947 369.1712,-632.6096"/>
</g>
<!-- Node1555 -->
<g id="node17" class="node">
<title>Node1555</title>
<g id="a_node17"><a xlink:href="quickjs_8c.html#ab4e100a9cde5f7ec87c92f5e766dbbab" target="_top" xlink:title="JS_AtomIsNumericIndex1">
<polygon fill="none" stroke="#ff0000" points="255.5,-342.5 255.5,-361.5 386.5,-361.5 386.5,-342.5 255.5,-342.5"/>
<text text-anchor="middle" x="321" y="-349.5" font-family="Helvetica,sans-Serif" font-size="10.00" fill="#000000">JS_AtomIsNumericIndex1</text>
</a>
</g>
</g>
<!-- Node1957&#45;&gt;Node1555 -->
<g id="edge22" class="edge">
<title>Node1957&#45;&gt;Node1555</title>
<path fill="none" stroke="#191970" d="M208.3953,-270.0629C211.7799,-271.8007 215.0161,-273.7695 218,-276 241.999,-293.9394 230.001,-315.0606 254,-333 259.2294,-336.909 265.2338,-340.0143 271.4535,-342.481"/>
<polygon fill="#191970" stroke="#191970" points="209.7224,-266.8229 199.161,-265.9813 206.8924,-273.2253 209.7224,-266.8229"/>
</g>
<!-- Node1777 -->
<g id="node18" class="node">
<title>Node1777</title>
<g id="a_node18"><a xlink:href="quickjs_8c.html#ad48277f7656d161f492b5f1ff5d8c388" target="_top" xlink:title="js_relational_slow">
<polygon fill="none" stroke="#000000" points="274,-304.5 274,-323.5 368,-323.5 368,-304.5 274,-304.5"/>
<text text-anchor="middle" x="321" y="-311.5" font-family="Helvetica,sans-Serif" font-size="10.00" fill="#000000">js_relational_slow</text>
</a>
</g>
</g>
<!-- Node1957&#45;&gt;Node1777 -->
<g id="edge23" class="edge">
<title>Node1957&#45;&gt;Node1777</title>
<path fill="none" stroke="#191970" d="M199.7675,-269.5311C205.9713,-271.5034 212.1812,-273.6693 218,-276 234.7945,-282.7269 237.2055,-288.2731 254,-295 262.8668,-298.5515 272.6415,-301.7205 281.9194,-304.4047"/>
<polygon fill="#191970" stroke="#191970" points="200.6659,-266.1462 190.0806,-266.5953 198.6356,-272.8453 200.6659,-266.1462"/>
</g>
<!-- Node1958 -->
<g id="node19" class="node">
<title>Node1958</title>
<g id="a_node19"><a xlink:href="quickjs_8c.html#a6b7e8c810c238daa5ac20c70c2f22b24" target="_top" xlink:title="js_strict_eq2">
<polygon fill="none" stroke="#ff0000" points="285,-266.5 285,-285.5 357,-285.5 357,-266.5 285,-266.5"/>
<text text-anchor="middle" x="321" y="-273.5" font-family="Helvetica,sans-Serif" font-size="10.00" fill="#000000">js_strict_eq2</text>
</a>
</g>
</g>
<!-- Node1957&#45;&gt;Node1958 -->
<g id="edge24" class="edge">
<title>Node1957&#45;&gt;Node1958</title>
<path fill="none" stroke="#191970" d="M209.3857,-263.5255C234.4171,-266.3231 262.8733,-269.5035 284.7881,-271.9528"/>
<polygon fill="#191970" stroke="#191970" points="209.5874,-260.0263 199.2605,-262.3938 208.8098,-266.983 209.5874,-260.0263"/>
</g>
<!-- Node1779 -->
<g id="node20" class="node">
<title>Node1779</title>
<g id="a_node20"><a xlink:href="quickjs_8c.html#a341f4d5925a607eeaad8d3cbb03e9de1" target="_top" xlink:title="js_array_cmp_generic">
<polygon fill="none" stroke="#ff0000" points="265,-228.5 265,-247.5 377,-247.5 377,-228.5 265,-228.5"/>
<text text-anchor="middle" x="321" y="-235.5" font-family="Helvetica,sans-Serif" font-size="10.00" fill="#000000">js_array_cmp_generic</text>
</a>
</g>
</g>
<!-- Node1957&#45;&gt;Node1779 -->
<g id="edge25" class="edge">
<title>Node1957&#45;&gt;Node1779</title>
<path fill="none" stroke="#191970" d="M209.3146,-250.4825C227.2707,-248.4756 246.9949,-246.2712 264.8055,-244.2806"/>
<polygon fill="#191970" stroke="#191970" points="208.8098,-247.017 199.2605,-251.6062 209.5874,-253.9737 208.8098,-247.017"/>
</g>
<!-- Node1898 -->
<g id="node21" class="node">
<title>Node1898</title>
<g id="a_node21"><a xlink:href="quickjs_8c.html#a96177f318d170980abe8c9c41cdb52d5" target="_top" xlink:title="js_string_localeCompare">
<polygon fill="none" stroke="#000000" points="259,-380.5 259,-399.5 383,-399.5 383,-380.5 259,-380.5"/>
<text text-anchor="middle" x="321" y="-387.5" font-family="Helvetica,sans-Serif" font-size="10.00" fill="#000000">js_string_localeCompare</text>
</a>
</g>
</g>
<!-- Node1957&#45;&gt;Node1898 -->
<g id="edge26" class="edge">
<title>Node1957&#45;&gt;Node1898</title>
<path fill="none" stroke="#191970" d="M208.613,-269.1983C211.9892,-271.1431 215.1604,-273.3944 218,-276 251.2688,-306.5271 220.7312,-340.4729 254,-371 258.187,-374.842 263.095,-377.9136 268.318,-380.3684"/>
<polygon fill="#191970" stroke="#191970" points="209.8154,-265.8935 199.2843,-264.7331 206.7932,-272.2075 209.8154,-265.8935"/>
</g>
<!-- Node1968 -->
<g id="node26" class="node">
<title>Node1968</title>
<g id="a_node26"><a xlink:href="quickjs_8c.html#a08e52b8382e2347db73c950c39af413c" target="_top" xlink:title="string_buffer_putc_slow">
<polygon fill="none" stroke="#ff0000" points="261,-114.5 261,-133.5 381,-133.5 381,-114.5 261,-114.5"/>
<text text-anchor="middle" x="321" y="-121.5" font-family="Helvetica,sans-Serif" font-size="10.00" fill="#000000">string_buffer_putc_slow</text>
</a>
</g>
</g>
<!-- Node1967&#45;&gt;Node1968 -->
<g id="edge31" class="edge">
<title>Node1967&#45;&gt;Node1968</title>
<path fill="none" stroke="#191970" d="M203.8981,-97.8243C227.865,-103.1816 255.8235,-109.4311 278.4103,-114.4799"/>
<polygon fill="#191970" stroke="#191970" points="204.4209,-94.3548 193.8982,-95.589 202.8938,-101.1862 204.4209,-94.3548"/>
</g>
<!-- Node2023 -->
<g id="node27" class="node">
<title>Node2023</title>
<g id="a_node27"><a xlink:href="quickjs_8c.html#a874fcee73f61cc997ec1d10cc6711554" target="_top" xlink:title="string_buffer_putc8">
<polygon fill="none" stroke="#ff0000" points="271,-76.5 271,-95.5 371,-95.5 371,-76.5 271,-76.5"/>
<text text-anchor="middle" x="321" y="-83.5" font-family="Helvetica,sans-Serif" font-size="10.00" fill="#000000">string_buffer_putc8</text>
</a>
</g>
</g>
<!-- Node1967&#45;&gt;Node2023 -->
<g id="edge32" class="edge">
<title>Node1967&#45;&gt;Node2023</title>
<path fill="none" stroke="#191970" d="M213.4057,-86C232.31,-86 252.822,-86 270.8171,-86"/>
<polygon fill="#191970" stroke="#191970" points="213.3928,-82.5001 203.3928,-86 213.3927,-89.5001 213.3928,-82.5001"/>
</g>
<!-- Node2024 -->
<g id="node28" class="node">
<title>Node2024</title>
<g id="a_node28"><a xlink:href="quickjs_8c.html#a0b130652cf11eb0eb9f7e3ee6c5d7c6a" target="_top" xlink:title="string_buffer_write8">
<polygon fill="none" stroke="#ff0000" points="270,-38.5 270,-57.5 372,-57.5 372,-38.5 270,-38.5"/>
<text text-anchor="middle" x="321" y="-45.5" font-family="Helvetica,sans-Serif" font-size="10.00" fill="#000000">string_buffer_write8</text>
</a>
</g>
</g>
<!-- Node1967&#45;&gt;Node2024 -->
<g id="edge33" class="edge">
<title>Node1967&#45;&gt;Node2024</title>
<path fill="none" stroke="#191970" d="M203.8981,-74.1757C227.865,-68.8184 255.8235,-62.5689 278.4103,-57.5201"/>
<polygon fill="#191970" stroke="#191970" points="202.8938,-70.8138 193.8982,-76.411 204.4209,-77.6452 202.8938,-70.8138"/>
</g>
<!-- Node2028 -->
<g id="node29" class="node">
<title>Node2028</title>
<g id="a_node29"><a xlink:href="quickjs_8c.html#a529c84c4766057fc95736603e6f55e3e" target="_top" xlink:title="string_buffer_write16">
<polygon fill="none" stroke="#ff0000" points="267.5,-.5 267.5,-19.5 374.5,-19.5 374.5,-.5 267.5,-.5"/>
<text text-anchor="middle" x="321" y="-7.5" font-family="Helvetica,sans-Serif" font-size="10.00" fill="#000000">string_buffer_write16</text>
</a>
</g>
</g>
<!-- Node1967&#45;&gt;Node2028 -->
<g id="edge34" class="edge">
<title>Node1967&#45;&gt;Node2028</title>
<path fill="none" stroke="#191970" d="M174.4128,-71.0058C194.8033,-58.4509 225.4878,-40.7497 254,-29 262.7193,-25.4068 272.3452,-22.2394 281.5158,-19.5718"/>
<polygon fill="#191970" stroke="#191970" points="172.4439,-68.1088 165.8133,-76.3723 176.1499,-74.0474 172.4439,-68.1088"/>
</g>
<!-- Node1983 -->
<g id="node30" class="node">
<title>Node1983</title>
<g id="a_node30"><a xlink:href="quickjs_8c.html#a8b6748281754a2c4690fc2ab20b2bad1" target="_top" xlink:title="string_buffer_fill">
<polygon fill="none" stroke="#ff0000" points="278,-152.5 278,-171.5 364,-171.5 364,-152.5 278,-152.5"/>
<text text-anchor="middle" x="321" y="-159.5" font-family="Helvetica,sans-Serif" font-size="10.00" fill="#000000">string_buffer_fill</text>
</a>
</g>
</g>
<!-- Node1967&#45;&gt;Node1983 -->
<g id="edge35" class="edge">
<title>Node1967&#45;&gt;Node1983</title>
<path fill="none" stroke="#191970" d="M206.5347,-99.1505C210.5252,-100.875 214.3929,-102.8163 218,-105 237.9016,-117.0482 234.0984,-130.9518 254,-143 261.2401,-147.3831 269.5302,-150.7897 277.7548,-153.4262"/>
<polygon fill="#191970" stroke="#191970" points="207.6559,-95.8318 197.066,-95.5082 205.1427,-102.3651 207.6559,-95.8318"/>
</g>
<!-- Node1983&#45;&gt;Node1795 -->
<g id="edge36" class="edge">
<title>Node1983&#45;&gt;Node1795</title>
<path fill="none" stroke="#191970" d="M374.1938,-167.9627C399.9323,-170.8479 430.2008,-174.2408 453.4065,-176.842"/>
<polygon fill="#191970" stroke="#191970" points="374.5383,-164.4795 364.2106,-166.8437 373.7584,-171.4359 374.5383,-164.4795"/>
</g>
</g>
</svg>
        <g id="navigator" transform="translate(0 0)" fill="#404254">
                <rect fill="#f2f5e9" fill-opacity="0.5" stroke="#606060" stroke-width=".5" x="0" y="0" width="60" height="60"/>
                <use id="zoomplus" xlink:href="#zoomPlus" x="17" y="9" onmousedown="handleZoom(evt,'in')"/>
                <use id="zoomminus" xlink:href="#zoomMin" x="42" y="9" onmousedown="handleZoom(evt,'out')"/>
                <use id="reset" xlink:href="#resetDef" x="30" y="36" onmousedown="handleReset()"/>
                <g id="arrowUp" xlink:href="#dirArrow" transform="translate(30 24)" onmousedown="handlePan(0,-1)">
                  <use xlink:href="#rim" fill="#404040">
                        <set attributeName="fill" to="#808080" begin="arrowUp.mouseover" end="arrowUp.mouseout"/>
                  </use>
                  <path fill="none" stroke="white" stroke-width="1.5" d="M0,-3.0v7 M-2.5,-0.5L0,-3.0L2.5,-0.5"/>
                </g>
                <g id="arrowRight" xlink:href="#dirArrow" transform="rotate(90) translate(36 -43)" onmousedown="handlePan(1,0)">
                  <use xlink:href="#rim" fill="#404040">
                        <set attributeName="fill" to="#808080" begin="arrowRight.mouseover" end="arrowRight.mouseout"/>
                  </use>
                  <path fill="none" stroke="white" stroke-width="1.5" d="M0,-3.0v7 M-2.5,-0.5L0,-3.0L2.5,-0.5"/>
                </g>
                <g id="arrowDown" xlink:href="#dirArrow" transform="rotate(180) translate(-30 -48)" onmousedown="handlePan(0,1)">
                  <use xlink:href="#rim" fill="#404040">
                        <set attributeName="fill" to="#808080" begin="arrowDown.mouseover" end="arrowDown.mouseout"/>
                  </use>
                  <path fill="none" stroke="white" stroke-width="1.5" d="M0,-3.0v7 M-2.5,-0.5L0,-3.0L2.5,-0.5"/>
                </g>
                <g id="arrowLeft" xlink:href="#dirArrow" transform="rotate(270) translate(-36 17)" onmousedown="handlePan(-1,0)">
                  <use xlink:href="#rim" fill="#404040">
                        <set attributeName="fill" to="#808080" begin="arrowLeft.mouseover" end="arrowLeft.mouseout"/>
                  </use>
                  <path fill="none" stroke="white" stroke-width="1.5" d="M0,-3.0v7 M-2.5,-0.5L0,-3.0L2.5,-0.5"/>
                </g>
        </g>
        <svg viewBox="0 0 15 15" width="100%" height="30px" preserveAspectRatio="xMaxYMin meet">
         <g id="arrow_out" transform="scale(0.3 0.3)">
          <a xlink:href="cutils_8h_a29a7a26d9387c01c1b4e9fe4fff5704a_icgraph_org.svg" target="_base">
           <rect id="button" ry="5" rx="5" y="6" x="6" height="38" width="38"
                fill="#f2f5e9" fill-opacity="0.5" stroke="#606060" stroke-width="1.0"/>
           <path id="arrow"
             d="M 11.500037,31.436501 C 11.940474,20.09759 22.043105,11.32322 32.158766,21.979434 L 37.068811,17.246167 C 37.068811,17.246167 37.088388,32 37.088388,32 L 22.160133,31.978069 C 22.160133,31.978069 26.997745,27.140456 26.997745,27.140456 C 18.528582,18.264221 13.291696,25.230495 11.500037,31.436501 z"
             style="fill:#404040;"/>
          </a>
         </g>
        </svg>
</svg>
