<?xml version="1.0" encoding="UTF-8" standalone="no"?>
<!DOCTYPE svg PUBLIC "-//W3C//DTD SVG 1.1//EN"
 "http://www.w3.org/Graphics/SVG/1.1/DTD/svg11.dtd">
<!-- Generated by graphviz version 2.40.1 (20161225.0304)
 -->
<!-- Title: get_i16 Pages: 1 -->
<!--zoomable 972 -->
<svg id="main" version="1.1" xmlns="http://www.w3.org/2000/svg" xmlns:xlink="http://www.w3.org/1999/xlink" xml:space="preserve" onload="init(evt)">
<style type="text/css"><![CDATA[
.edge:hover path { stroke: red; }
.edge:hover polygon { stroke: red; fill: red; }
]]></style>
<script type="text/javascript"><![CDATA[
var edges = document.getElementsByTagName('g');
if (edges && edges.length) {
  for (var i=0;i<edges.length;i++) {
    if (edges[i].id.substr(0,4)=='edge') {
      edges[i].setAttribute('class','edge');
    }
  }
}
]]></script>
        <defs>
                <circle id="rim" cx="0" cy="0" r="7"/>
                <circle id="rim2" cx="0" cy="0" r="3.5"/>
                <g id="zoomPlus">
                        <use xlink:href="#rim" fill="#404040">
                                <set attributeName="fill" to="#808080" begin="zoomplus.mouseover" end="zoomplus.mouseout"/>
                        </use>
                        <path d="M-4,0h8M0,-4v8" fill="none" stroke="white" stroke-width="1.5" pointer-events="none"/>
                </g>
                <g id="zoomMin">
                        <use xlink:href="#rim" fill="#404040">
                                <set attributeName="fill" to="#808080" begin="zoomminus.mouseover" end="zoomminus.mouseout"/>
                        </use>
                        <path d="M-4,0h8" fill="none" stroke="white" stroke-width="1.5" pointer-events="none"/>
                </g>
                <g id="dirArrow">
                        <path fill="none" stroke="white" stroke-width="1.5" d="M0,-3.0v7 M-2.5,-0.5L0,-3.0L2.5,-0.5"/>
                </g>
               <g id="resetDef">
                       <use xlink:href="#rim2" fill="#404040">
                               <set attributeName="fill" to="#808080" begin="reset.mouseover" end="reset.mouseout"/>
                       </use>
               </g>
        </defs>

<script type="text/javascript">
var viewWidth = 624;
var viewHeight = 972;
var sectionId = 'dynsection-22';
</script>
<script xlink:href="svgpan.js"/>
<svg id="graph" class="graph">
<g id="viewport">
<title>get_i16</title>
<!-- Node3587 -->
<g id="node1" class="node">
<title>Node3587</title>
<polygon fill="#bfbfbf" stroke="#000000" points="0,-402.5 0,-421.5 48,-421.5 48,-402.5 0,-402.5"/>
<text text-anchor="middle" x="24" y="-409.5" font-family="Helvetica,sans-Serif" font-size="10.00" fill="#000000">get_i16</text>
</g>
<!-- Node3588 -->
<g id="node2" class="node">
<title>Node3588</title>
<g id="a_node2"><a xlink:href="quickjs_8c.html#ac2894ff4edcdb4e6841bcce9c76081e3" target="_top" xlink:title="JS_CallInternal">
<polygon fill="none" stroke="#000000" points="84,-402.5 84,-421.5 167,-421.5 167,-402.5 84,-402.5"/>
<text text-anchor="middle" x="125.5" y="-409.5" font-family="Helvetica,sans-Serif" font-size="10.00" fill="#000000">JS_CallInternal</text>
</a>
</g>
</g>
<!-- Node3587&#45;&gt;Node3588 -->
<g id="edge1" class="edge">
<title>Node3587&#45;&gt;Node3588</title>
<path fill="none" stroke="#191970" d="M58.0621,-412C66.3023,-412 75.2029,-412 83.7515,-412"/>
<polygon fill="#191970" stroke="#191970" points="58.0541,-408.5001 48.0541,-412 58.054,-415.5001 58.0541,-408.5001"/>
</g>
<!-- Node3588&#45;&gt;Node3588 -->
<g id="edge2" class="edge">
<title>Node3588&#45;&gt;Node3588</title>
<path fill="none" stroke="#191970" d="M106.9824,-431.4C108.2191,-436.3146 114.3916,-440 125.5,-440 143.2734,-440 148.4111,-430.5653 140.9129,-421.7571"/>
<polygon fill="#191970" stroke="#191970" points="110.3539,-432.3485 110.0871,-421.7571 103.6907,-430.2032 110.3539,-432.3485"/>
</g>
<!-- Node3589 -->
<g id="node3" class="node">
<title>Node3589</title>
<g id="a_node3"><a xlink:href="quickjs_8c.html#a1a4c02a29525d5cb2085dd8bca3af350" target="_top" xlink:title="JS_Call">
<polygon fill="none" stroke="#ff0000" points="244.5,-440.5 244.5,-459.5 295.5,-459.5 295.5,-440.5 244.5,-440.5"/>
<text text-anchor="middle" x="270" y="-447.5" font-family="Helvetica,sans-Serif" font-size="10.00" fill="#000000">JS_Call</text>
</a>
</g>
</g>
<!-- Node3588&#45;&gt;Node3589 -->
<g id="edge3" class="edge">
<title>Node3588&#45;&gt;Node3589</title>
<path fill="none" stroke="#191970" d="M177.3524,-419.1309C203.197,-425.291 232.8346,-433.6885 251.4855,-440.4368"/>
<polygon fill="#191970" stroke="#191970" points="177.8269,-415.6484 167.2954,-416.8052 176.2497,-422.4684 177.8269,-415.6484"/>
</g>
<!-- Node3672 -->
<g id="node28" class="node">
<title>Node3672</title>
<g id="a_node28"><a xlink:href="quickjs_8c.html#a75f6ee5e4235a7dc99889f3d2eb2c147" target="_top" xlink:title="JS_CallFree">
<polygon fill="none" stroke="#ff0000" points="234.5,-364.5 234.5,-383.5 305.5,-383.5 305.5,-364.5 234.5,-364.5"/>
<text text-anchor="middle" x="270" y="-371.5" font-family="Helvetica,sans-Serif" font-size="10.00" fill="#000000">JS_CallFree</text>
</a>
</g>
</g>
<!-- Node3588&#45;&gt;Node3672 -->
<g id="edge34" class="edge">
<title>Node3588&#45;&gt;Node3672</title>
<path fill="none" stroke="#191970" d="M153.6305,-399.1263C176.6733,-391.5295 209.4179,-382.7723 234.3055,-377.4723"/>
<polygon fill="#191970" stroke="#191970" points="152.4119,-395.8441 144.095,-402.4076 154.6897,-402.4632 152.4119,-395.8441"/>
</g>
<!-- Node4135 -->
<g id="node29" class="node">
<title>Node4135</title>
<g id="a_node29"><a xlink:href="quickjs_8c.html#ad35594576a14c10812efaf958c99af8a" target="_top" xlink:title="JS_CallConstructorInternal">
<polygon fill="none" stroke="#ff0000" points="203,-326.5 203,-345.5 337,-345.5 337,-326.5 203,-326.5"/>
<text text-anchor="middle" x="270" y="-333.5" font-family="Helvetica,sans-Serif" font-size="10.00" fill="#000000">JS_CallConstructorInternal</text>
</a>
</g>
</g>
<!-- Node3588&#45;&gt;Node4135 -->
<g id="edge38" class="edge">
<title>Node3588&#45;&gt;Node4135</title>
<path fill="none" stroke="#191970" d="M137.5491,-394.5463C152.0695,-379.2145 177.6856,-358.3922 203,-346 203.3258,-345.8405 203.6531,-345.6822 203.9819,-345.525"/>
<polygon fill="#191970" stroke="#191970" points="134.627,-392.572 130.6961,-402.4106 139.9045,-397.1708 134.627,-392.572"/>
</g>
<!-- Node4172 -->
<g id="node30" class="node">
<title>Node4172</title>
<g id="a_node30"><a xlink:href="quickjs_8c.html#ade71a22dc56e7371392393df663b28b3" target="_top" xlink:title="async_func_resume">
<polygon fill="none" stroke="#ff0000" points="218,-692.5 218,-711.5 322,-711.5 322,-692.5 218,-692.5"/>
<text text-anchor="middle" x="270" y="-699.5" font-family="Helvetica,sans-Serif" font-size="10.00" fill="#000000">async_func_resume</text>
</a>
</g>
</g>
<!-- Node3588&#45;&gt;Node4172 -->
<g id="edge40" class="edge">
<title>Node3588&#45;&gt;Node4172</title>
<path fill="none" stroke="#191970" d="M134.8544,-430.7736C162.7061,-486.6698 244.4392,-650.7016 265.1742,-692.3149"/>
<polygon fill="#191970" stroke="#191970" points="137.9003,-429.0383 130.3078,-421.6488 131.635,-432.1602 137.9003,-429.0383"/>
</g>
<!-- Node3589&#45;&gt;Node3588 -->
<g id="edge11" class="edge">
<title>Node3589&#45;&gt;Node3588</title>
<path fill="none" stroke="#191970" d="M234.4088,-446.5497C205.8289,-440.469 166.8374,-429.8129 144.095,-421.5924"/>
<polygon fill="#191970" stroke="#191970" points="233.923,-450.0222 244.4179,-448.57 235.3081,-443.1605 233.923,-450.0222"/>
</g>
<!-- Node3590 -->
<g id="node4" class="node">
<title>Node3590</title>
<g id="a_node4"><a xlink:href="structqjs_1_1js__traits_3_01std_1_1function_3_01R_07Args_8_8_8_08_4_01_4.html#abc36cacd670b6b5f1773734a0586a02b" target="_top" xlink:title="qjs::js_traits\&lt; std\l::function\&lt; R(Args...)\l\&gt; \&gt;::unwrap">
<polygon fill="none" stroke="#000000" points="385,-228.5 385,-269.5 494,-269.5 494,-228.5 385,-228.5"/>
<text text-anchor="start" x="393" y="-257.5" font-family="Helvetica,sans-Serif" font-size="10.00" fill="#000000">qjs::js_traits&lt; std</text>
<text text-anchor="start" x="393" y="-246.5" font-family="Helvetica,sans-Serif" font-size="10.00" fill="#000000">::function&lt; R(Args...)</text>
<text text-anchor="middle" x="439.5" y="-235.5" font-family="Helvetica,sans-Serif" font-size="10.00" fill="#000000">&gt; &gt;::unwrap</text>
</a>
</g>
</g>
<!-- Node3589&#45;&gt;Node3590 -->
<g id="edge4" class="edge">
<title>Node3589&#45;&gt;Node3590</title>
<path fill="none" stroke="#191970" d="M305.4499,-444.2443C316.9356,-440.7344 328.8109,-435.0865 337,-426 382.0314,-376.0339 329.9981,-330.7231 373,-279 376.4008,-274.9095 380.4756,-271.3537 384.9118,-268.2672"/>
<polygon fill="#191970" stroke="#191970" points="304.3592,-440.9113 295.5591,-446.8111 306.1176,-447.6869 304.3592,-440.9113"/>
</g>
<!-- Node3591 -->
<g id="node5" class="node">
<title>Node3591</title>
<g id="a_node5"><a xlink:href="quickjs-libc_8c.html#abb1cbe3fdf905e81f603a3a0bfce475a" target="_top" xlink:title="call_handler">
<polygon fill="none" stroke="#ff0000" points="405.5,-190.5 405.5,-209.5 473.5,-209.5 473.5,-190.5 405.5,-190.5"/>
<text text-anchor="middle" x="439.5" y="-197.5" font-family="Helvetica,sans-Serif" font-size="10.00" fill="#000000">call_handler</text>
</a>
</g>
</g>
<!-- Node3589&#45;&gt;Node3591 -->
<g id="edge5" class="edge">
<title>Node3589&#45;&gt;Node3591</title>
<path fill="none" stroke="#191970" d="M305.5338,-444.6336C317.1355,-441.1583 329.0629,-435.4326 337,-426 397.1226,-354.5488 310.5642,-288.4389 373,-219 381.269,-209.8035 393.6491,-204.9316 405.4935,-202.3931"/>
<polygon fill="#191970" stroke="#191970" points="304.3773,-441.3153 295.5306,-447.1451 306.0819,-448.1046 304.3773,-441.3153"/>
</g>
<!-- Node3596 -->
<g id="node6" class="node">
<title>Node3596</title>
<g id="a_node6"><a xlink:href="quickjs_8c.html#aa049793cc8648d35fe81876a2543ca4e" target="_top" xlink:title="JS_GetIterator2">
<polygon fill="none" stroke="#ff0000" points="396.5,-152.5 396.5,-171.5 482.5,-171.5 482.5,-152.5 396.5,-152.5"/>
<text text-anchor="middle" x="439.5" y="-159.5" font-family="Helvetica,sans-Serif" font-size="10.00" fill="#000000">JS_GetIterator2</text>
</a>
</g>
</g>
<!-- Node3589&#45;&gt;Node3596 -->
<g id="edge6" class="edge">
<title>Node3589&#45;&gt;Node3596</title>
<path fill="none" stroke="#191970" d="M305.6731,-444.7493C317.2877,-441.2846 329.1876,-435.5362 337,-426 406.7467,-340.8637 300.4959,-263.8007 373,-181 379.0907,-174.0443 387.5337,-169.554 396.3629,-166.6752"/>
<polygon fill="#191970" stroke="#191970" points="304.5084,-441.4323 295.6497,-447.2439 306.199,-448.2251 304.5084,-441.4323"/>
</g>
<!-- Node3619 -->
<g id="node7" class="node">
<title>Node3619</title>
<g id="a_node7"><a xlink:href="quickjs_8c.html#ad6303fbd3add4afa0cb64b0aa6d431ce" target="_top" xlink:title="JS_IteratorNext2">
<polygon fill="none" stroke="#ff0000" points="394,-114.5 394,-133.5 485,-133.5 485,-114.5 394,-114.5"/>
<text text-anchor="middle" x="439.5" y="-121.5" font-family="Helvetica,sans-Serif" font-size="10.00" fill="#000000">JS_IteratorNext2</text>
</a>
</g>
</g>
<!-- Node3589&#45;&gt;Node3619 -->
<g id="edge7" class="edge">
<title>Node3589&#45;&gt;Node3619</title>
<path fill="none" stroke="#191970" d="M305.7767,-444.8333C317.4008,-441.3764 329.2803,-435.6114 337,-426 416.3976,-327.1462 290.4,-239.194 373,-143 378.4755,-136.6233 385.9287,-132.3133 393.8686,-129.4165"/>
<polygon fill="#191970" stroke="#191970" points="304.6056,-441.5174 295.7382,-447.3157 306.286,-448.3127 304.6056,-441.5174"/>
</g>
<!-- Node3623 -->
<g id="node8" class="node">
<title>Node3623</title>
<g id="a_node8"><a xlink:href="quickjs_8c.html#a62424fefab7bcc97f49c978205c7a1c1" target="_top" xlink:title="js_for_await_of_next">
<polygon fill="none" stroke="#000000" points="386,-944.5 386,-963.5 493,-963.5 493,-944.5 386,-944.5"/>
<text text-anchor="middle" x="439.5" y="-951.5" font-family="Helvetica,sans-Serif" font-size="10.00" fill="#000000">js_for_await_of_next</text>
</a>
</g>
</g>
<!-- Node3589&#45;&gt;Node3623 -->
<g id="edge8" class="edge">
<title>Node3589&#45;&gt;Node3623</title>
<path fill="none" stroke="#191970" d="M276.5483,-469.3407C289.7486,-508.9797 319.7605,-602.492 337,-683 348.8447,-738.3146 335.8189,-892.3671 373,-935 376.6303,-939.1626 381.1031,-942.4428 385.9984,-945.0232"/>
<polygon fill="#191970" stroke="#191970" points="279.7944,-468.0121 273.2955,-459.6446 273.1579,-470.2385 279.7944,-468.0121"/>
</g>
<!-- Node3624 -->
<g id="node9" class="node">
<title>Node3624</title>
<g id="a_node9"><a xlink:href="quickjs_8c.html#afd4ef2d701fa0702f321925b61c57bbf" target="_top" xlink:title="js_call_bound_function">
<polygon fill="none" stroke="#ff0000" points="381.5,-868.5 381.5,-887.5 497.5,-887.5 497.5,-868.5 381.5,-868.5"/>
<text text-anchor="middle" x="439.5" y="-875.5" font-family="Helvetica,sans-Serif" font-size="10.00" fill="#000000">js_call_bound_function</text>
</a>
</g>
</g>
<!-- Node3589&#45;&gt;Node3624 -->
<g id="edge10" class="edge">
<title>Node3589&#45;&gt;Node3624</title>
<path fill="none" stroke="#191970" d="M276.1473,-469.4328C288.6154,-509.2402 317.3588,-603.044 337,-683 356.0469,-760.5366 318.7446,-800.4246 373,-859 376.5901,-862.8759 380.9105,-865.9808 385.6043,-868.4651"/>
<polygon fill="#191970" stroke="#191970" points="279.423,-468.1821 273.0833,-459.6934 272.7457,-470.2828 279.423,-468.1821"/>
</g>
<!-- Node3628 -->
<g id="node10" class="node">
<title>Node3628</title>
<g id="a_node10"><a xlink:href="quickjs_8c.html#a1bf6b62983e8fff99c0a5d5a9f486115" target="_top" xlink:title="js_async_function_resume">
<polygon fill="none" stroke="#ff0000" points="373,-906.5 373,-925.5 506,-925.5 506,-906.5 373,-906.5"/>
<text text-anchor="middle" x="439.5" y="-913.5" font-family="Helvetica,sans-Serif" font-size="10.00" fill="#000000">js_async_function_resume</text>
</a>
</g>
</g>
<!-- Node3589&#45;&gt;Node3628 -->
<g id="edge12" class="edge">
<title>Node3589&#45;&gt;Node3628</title>
<path fill="none" stroke="#191970" d="M276.3821,-469.3773C289.2789,-509.0833 318.7649,-602.7116 337,-683 358.3612,-777.0522 308.7123,-825.1028 373,-897 376.4415,-900.8488 380.603,-903.9407 385.1457,-906.4214"/>
<polygon fill="#191970" stroke="#191970" points="279.641,-468.082 273.2076,-459.664 272.9873,-470.2565 279.641,-468.082"/>
</g>
<!-- Node3632 -->
<g id="node11" class="node">
<title>Node3632</title>
<g id="a_node11"><a xlink:href="quickjs_8c.html#a3e852026d167fa03c673f86697dd3e67" target="_top" xlink:title="js_async_generator\l_resolve_or_reject">
<polygon fill="none" stroke="#ff0000" points="389,-819 389,-849 490,-849 490,-819 389,-819"/>
<text text-anchor="start" x="397" y="-837" font-family="Helvetica,sans-Serif" font-size="10.00" fill="#000000">js_async_generator</text>
<text text-anchor="middle" x="439.5" y="-826" font-family="Helvetica,sans-Serif" font-size="10.00" fill="#000000">_resolve_or_reject</text>
</a>
</g>
</g>
<!-- Node3589&#45;&gt;Node3632 -->
<g id="edge13" class="edge">
<title>Node3589&#45;&gt;Node3632</title>
<path fill="none" stroke="#191970" d="M275.639,-469.5681C287.179,-509.6223 314.3141,-603.854 337,-683 353.0476,-738.9864 333.525,-766.178 373,-809 377.4307,-813.8064 382.8772,-817.6942 388.7289,-820.8377"/>
<polygon fill="#191970" stroke="#191970" points="278.9463,-468.4049 272.8144,-459.7649 272.22,-470.3431 278.9463,-468.4049"/>
</g>
<!-- Node3636 -->
<g id="node12" class="node">
<title>Node3636</title>
<g id="a_node12"><a xlink:href="quickjs_8c.html#a2355fabf91f59212ea65baba1b0b7c1b" target="_top" xlink:title="js_async_generator_next">
<polygon fill="none" stroke="#000000" points="377,-780.5 377,-799.5 502,-799.5 502,-780.5 377,-780.5"/>
<text text-anchor="middle" x="439.5" y="-787.5" font-family="Helvetica,sans-Serif" font-size="10.00" fill="#000000">js_async_generator_next</text>
</a>
</g>
</g>
<!-- Node3589&#45;&gt;Node3636 -->
<g id="edge14" class="edge">
<title>Node3589&#45;&gt;Node3636</title>
<path fill="none" stroke="#191970" d="M275.67,-469.3824C295.5637,-537.1464 361.599,-759.9602 373,-771 376.9679,-774.8422 381.657,-777.917 386.6799,-780.3763"/>
<polygon fill="#191970" stroke="#191970" points="278.9654,-468.1818 272.7939,-459.57 272.248,-470.1507 278.9654,-468.1818"/>
</g>
<!-- Node3637 -->
<g id="node13" class="node">
<title>Node3637</title>
<g id="a_node13"><a xlink:href="quickjs_8c.html#a6357b7fdae71c70c140e78e6c20cb5c2" target="_top" xlink:title="js_dynamic_import_job">
<polygon fill="none" stroke="#ff0000" points="381.5,-742.5 381.5,-761.5 497.5,-761.5 497.5,-742.5 381.5,-742.5"/>
<text text-anchor="middle" x="439.5" y="-749.5" font-family="Helvetica,sans-Serif" font-size="10.00" fill="#000000">js_dynamic_import_job</text>
</a>
</g>
</g>
<!-- Node3589&#45;&gt;Node3637 -->
<g id="edge15" class="edge">
<title>Node3589&#45;&gt;Node3637</title>
<path fill="none" stroke="#191970" d="M274.7003,-469.7251C288.8654,-527.6283 332.6523,-695.4107 373,-733 377.1291,-736.8468 381.9835,-739.9215 387.1578,-742.378"/>
<polygon fill="#191970" stroke="#191970" points="278.0239,-468.5781 272.272,-459.6806 271.2199,-470.2231 278.0239,-468.5781"/>
</g>
<!-- Node3639 -->
<g id="node14" class="node">
<title>Node3639</title>
<g id="a_node14"><a xlink:href="quickjs_8c.html#a8d4b24969540aff427939eeda47f451d" target="_top" xlink:title="js_function_apply">
<polygon fill="none" stroke="#ff0000" points="393.5,-76.5 393.5,-95.5 485.5,-95.5 485.5,-76.5 393.5,-76.5"/>
<text text-anchor="middle" x="439.5" y="-83.5" font-family="Helvetica,sans-Serif" font-size="10.00" fill="#000000">js_function_apply</text>
</a>
</g>
</g>
<!-- Node3589&#45;&gt;Node3639 -->
<g id="edge16" class="edge">
<title>Node3589&#45;&gt;Node3639</title>
<path fill="none" stroke="#191970" d="M305.8566,-444.897C317.4882,-441.446 329.3519,-435.6684 337,-426 426.0656,-313.4073 280.2862,-214.608 373,-105 378.3505,-98.6745 385.6478,-94.3786 393.4537,-91.4776"/>
<polygon fill="#191970" stroke="#191970" points="304.6805,-441.582 295.8065,-447.3701 306.3532,-448.3792 304.6805,-441.582"/>
</g>
<!-- Node3642 -->
<g id="node15" class="node">
<title>Node3642</title>
<g id="a_node15"><a xlink:href="quickjs_8c.html#a677ad630a103e1f3d5129e0549112b50" target="_top" xlink:title="js_function_call">
<polygon fill="none" stroke="#000000" points="397.5,-704.5 397.5,-723.5 481.5,-723.5 481.5,-704.5 397.5,-704.5"/>
<text text-anchor="middle" x="439.5" y="-711.5" font-family="Helvetica,sans-Serif" font-size="10.00" fill="#000000">js_function_call</text>
</a>
</g>
</g>
<!-- Node3589&#45;&gt;Node3642 -->
<g id="edge18" class="edge">
<title>Node3589&#45;&gt;Node3642</title>
<path fill="none" stroke="#191970" d="M272.475,-469.6297C279.3784,-515.9986 303.1614,-633.0564 373,-695 379.827,-701.0552 388.4614,-705.1897 397.2284,-708.0102"/>
<polygon fill="#191970" stroke="#191970" points="275.9348,-469.0973 271.0953,-459.6723 269.001,-470.0581 275.9348,-469.0973"/>
</g>
<!-- Node3599 -->
<g id="node16" class="node">
<title>Node3599</title>
<g id="a_node16"><a xlink:href="quickjs_8c.html#a5e32da9a43002cb96dcbd62a1a340144" target="_top" xlink:title="js_array_from">
<polygon fill="none" stroke="#000000" points="401.5,-666.5 401.5,-685.5 477.5,-685.5 477.5,-666.5 401.5,-666.5"/>
<text text-anchor="middle" x="439.5" y="-673.5" font-family="Helvetica,sans-Serif" font-size="10.00" fill="#000000">js_array_from</text>
</a>
</g>
</g>
<!-- Node3589&#45;&gt;Node3599 -->
<g id="edge19" class="edge">
<title>Node3589&#45;&gt;Node3599</title>
<path fill="none" stroke="#191970" d="M274.0755,-469.3235C283.7343,-510.2814 311.9332,-606.2192 373,-657 381.032,-663.6791 391.2851,-668.0129 401.322,-670.824"/>
<polygon fill="#191970" stroke="#191970" points="277.4806,-468.5122 271.8754,-459.5216 270.6506,-470.0453 277.4806,-468.5122"/>
</g>
<!-- Node3615 -->
<g id="node17" class="node">
<title>Node3615</title>
<g id="a_node17"><a xlink:href="quickjs_8c.html#aa0bbf08a7e91459c68a312fba7016c6d" target="_top" xlink:title="js_array_every">
<polygon fill="none" stroke="#000000" points="399.5,-628.5 399.5,-647.5 479.5,-647.5 479.5,-628.5 399.5,-628.5"/>
<text text-anchor="middle" x="439.5" y="-635.5" font-family="Helvetica,sans-Serif" font-size="10.00" fill="#000000">js_array_every</text>
</a>
</g>
</g>
<!-- Node3589&#45;&gt;Node3615 -->
<g id="edge20" class="edge">
<title>Node3589&#45;&gt;Node3615</title>
<path fill="none" stroke="#191970" d="M276.4074,-469.3415C289.0788,-504.5625 320.7297,-579.1919 373,-619 380.6419,-624.8199 390.0017,-628.8578 399.2595,-631.6592"/>
<polygon fill="#191970" stroke="#191970" points="279.667,-468.0584 273.0824,-459.7581 273.0537,-470.3529 279.667,-468.0584"/>
</g>
<!-- Node3643 -->
<g id="node18" class="node">
<title>Node3643</title>
<g id="a_node18"><a xlink:href="quickjs_8c.html#a36c1692489542a86dd79a7d39ab8ff95" target="_top" xlink:title="js_array_reduce">
<polygon fill="none" stroke="#000000" points="396.5,-590.5 396.5,-609.5 482.5,-609.5 482.5,-590.5 396.5,-590.5"/>
<text text-anchor="middle" x="439.5" y="-597.5" font-family="Helvetica,sans-Serif" font-size="10.00" fill="#000000">js_array_reduce</text>
</a>
</g>
</g>
<!-- Node3589&#45;&gt;Node3643 -->
<g id="edge21" class="edge">
<title>Node3589&#45;&gt;Node3643</title>
<path fill="none" stroke="#191970" d="M279.5306,-468.5039C295.1607,-496.9999 328.9568,-551.4216 373,-581 379.9775,-585.6859 388.1113,-589.2299 396.2473,-591.9059"/>
<polygon fill="#191970" stroke="#191970" points="282.5689,-466.7631 274.7726,-459.5889 276.3933,-470.0591 282.5689,-466.7631"/>
</g>
<!-- Node3644 -->
<g id="node19" class="node">
<title>Node3644</title>
<g id="a_node19"><a xlink:href="quickjs_8c.html#a9dd41b086da4e13b3487cc9c6e2af2b8" target="_top" xlink:title="js_array_find">
<polygon fill="none" stroke="#000000" points="403.5,-552.5 403.5,-571.5 475.5,-571.5 475.5,-552.5 403.5,-552.5"/>
<text text-anchor="middle" x="439.5" y="-559.5" font-family="Helvetica,sans-Serif" font-size="10.00" fill="#000000">js_array_find</text>
</a>
</g>
</g>
<!-- Node3589&#45;&gt;Node3644 -->
<g id="edge22" class="edge">
<title>Node3589&#45;&gt;Node3644</title>
<path fill="none" stroke="#191970" d="M284.7694,-467.5222C303.3129,-488.4365 337.0752,-523.0764 373,-543 382.3454,-548.1829 393.2303,-552.0584 403.4548,-554.9093"/>
<polygon fill="#191970" stroke="#191970" points="287.2051,-464.989 278.0056,-459.7336 281.9199,-469.5788 287.2051,-464.989"/>
</g>
<!-- Node3645 -->
<g id="node20" class="node">
<title>Node3645</title>
<g id="a_node20"><a xlink:href="quickjs_8c.html#ad90c33b4aae1181151bda4a98ac2ef23" target="_top" xlink:title="JS_FlattenIntoArray">
<polygon fill="none" stroke="#ff0000" points="387.5,-496.5 387.5,-515.5 491.5,-515.5 491.5,-496.5 387.5,-496.5"/>
<text text-anchor="middle" x="439.5" y="-503.5" font-family="Helvetica,sans-Serif" font-size="10.00" fill="#000000">JS_FlattenIntoArray</text>
</a>
</g>
</g>
<!-- Node3589&#45;&gt;Node3645 -->
<g id="edge23" class="edge">
<title>Node3589&#45;&gt;Node3645</title>
<path fill="none" stroke="#191970" d="M304.7903,-463.1494C324.6594,-470.4948 350.1017,-479.625 373,-487 383.1718,-490.2761 394.3085,-493.5707 404.5098,-496.475"/>
<polygon fill="#191970" stroke="#191970" points="305.8289,-459.8015 295.2361,-459.5963 303.3889,-466.3625 305.8289,-459.8015"/>
</g>
<!-- Node3647 -->
<g id="node21" class="node">
<title>Node3647</title>
<g id="a_node21"><a xlink:href="quickjs_8c.html#aed1bf9ce4b9e3a82388679dd6ec7635b" target="_top" xlink:title="js_string_replace">
<polygon fill="none" stroke="#000000" points="394.5,-38.5 394.5,-57.5 484.5,-57.5 484.5,-38.5 394.5,-38.5"/>
<text text-anchor="middle" x="439.5" y="-45.5" font-family="Helvetica,sans-Serif" font-size="10.00" fill="#000000">js_string_replace</text>
</a>
</g>
</g>
<!-- Node3589&#45;&gt;Node3647 -->
<g id="edge25" class="edge">
<title>Node3589&#45;&gt;Node3647</title>
<path fill="none" stroke="#191970" d="M296.2252,-434.7255C310.7746,-424.781 327.751,-410.4271 337,-393 371.1681,-328.6203 325.9772,-122.6871 373,-67 378.5775,-60.3948 386.278,-56.002 394.466,-53.0998"/>
<polygon fill="#191970" stroke="#191970" points="294.058,-431.9592 287.5706,-440.3356 297.8656,-437.8331 294.058,-431.9592"/>
</g>
<!-- Node3648 -->
<g id="node22" class="node">
<title>Node3648</title>
<g id="a_node22"><a xlink:href="quickjs_8c.html#a624282391413d4c5a030adbd8b77aa80" target="_top" xlink:title="internalize_json_property">
<polygon fill="none" stroke="#ff0000" points="377,-440.5 377,-459.5 502,-459.5 502,-440.5 377,-440.5"/>
<text text-anchor="middle" x="439.5" y="-447.5" font-family="Helvetica,sans-Serif" font-size="10.00" fill="#000000">internalize_json_property</text>
</a>
</g>
</g>
<!-- Node3589&#45;&gt;Node3648 -->
<g id="edge26" class="edge">
<title>Node3589&#45;&gt;Node3648</title>
<path fill="none" stroke="#191970" d="M305.9311,-450C326.5135,-450 352.9253,-450 376.8209,-450"/>
<polygon fill="#191970" stroke="#191970" points="305.7434,-446.5001 295.7434,-450 305.7434,-453.5001 305.7434,-446.5001"/>
</g>
<!-- Node3650 -->
<g id="node23" class="node">
<title>Node3650</title>
<g id="a_node23"><a xlink:href="quickjs_8c.html#a0da6493b4bc0edb7ddddfab807241d0b" target="_top" xlink:title="js_json_check">
<polygon fill="none" stroke="#ff0000" points="400,-.5 400,-19.5 479,-19.5 479,-.5 400,-.5"/>
<text text-anchor="middle" x="439.5" y="-7.5" font-family="Helvetica,sans-Serif" font-size="10.00" fill="#000000">js_json_check</text>
</a>
</g>
</g>
<!-- Node3589&#45;&gt;Node3650 -->
<g id="edge28" class="edge">
<title>Node3589&#45;&gt;Node3650</title>
<path fill="none" stroke="#191970" d="M296.2984,-434.7641C310.8731,-424.833 327.8505,-410.4795 337,-393 374.6954,-320.9856 320.9136,-91.4021 373,-29 379.7709,-20.8882 389.7447,-16.1081 399.9193,-13.3278"/>
<polygon fill="#191970" stroke="#191970" points="294.1276,-431.9995 287.6256,-440.3646 297.925,-437.8801 294.1276,-431.9995"/>
</g>
<!-- Node3654 -->
<g id="node24" class="node">
<title>Node3654</title>
<g id="a_node24"><a xlink:href="quickjs_8c.html#af97646b66d6fcb8bd19543d93baeadd7" target="_top" xlink:title="js_proxy_call_constructor">
<polygon fill="none" stroke="#000000" points="375.5,-364.5 375.5,-383.5 503.5,-383.5 503.5,-364.5 375.5,-364.5"/>
<text text-anchor="middle" x="439.5" y="-371.5" font-family="Helvetica,sans-Serif" font-size="10.00" fill="#000000">js_proxy_call_constructor</text>
</a>
</g>
</g>
<!-- Node3589&#45;&gt;Node3654 -->
<g id="edge29" class="edge">
<title>Node3589&#45;&gt;Node3654</title>
<path fill="none" stroke="#191970" d="M305.3621,-439.683C315.8475,-436.0068 327.153,-431.4115 337,-426 354.764,-416.2376 355.2477,-407.7836 373,-398 383.5346,-392.1942 395.749,-387.3164 406.8132,-383.5069"/>
<polygon fill="#191970" stroke="#191970" points="304.0166,-436.442 295.6348,-442.9226 306.2285,-443.0834 304.0166,-436.442"/>
</g>
<!-- Node3655 -->
<g id="node25" class="node">
<title>Node3655</title>
<g id="a_node25"><a xlink:href="quickjs_8c.html#ab9f916b6a1fda4cec1a1eb6d691ed89c" target="_top" xlink:title="js_proxy_call">
<polygon fill="none" stroke="#ff0000" points="542,-383.5 542,-402.5 616,-402.5 616,-383.5 542,-383.5"/>
<text text-anchor="middle" x="579" y="-390.5" font-family="Helvetica,sans-Serif" font-size="10.00" fill="#000000">js_proxy_call</text>
</a>
</g>
</g>
<!-- Node3589&#45;&gt;Node3655 -->
<g id="edge31" class="edge">
<title>Node3589&#45;&gt;Node3655</title>
<path fill="none" stroke="#191970" d="M305.508,-443.45C364.4476,-432.5776 481.9178,-410.9084 541.8957,-399.8445"/>
<polygon fill="#191970" stroke="#191970" points="304.7488,-440.0309 295.5497,-445.287 306.0187,-446.9148 304.7488,-440.0309"/>
</g>
<!-- Node3607 -->
<g id="node26" class="node">
<title>Node3607</title>
<g id="a_node26"><a xlink:href="quickjs_8c.html#a27dcb5e2923cd6c0201c70546d704748" target="_top" xlink:title="js_map_constructor">
<polygon fill="none" stroke="#ff0000" points="388.5,-326.5 388.5,-345.5 490.5,-345.5 490.5,-326.5 388.5,-326.5"/>
<text text-anchor="middle" x="439.5" y="-333.5" font-family="Helvetica,sans-Serif" font-size="10.00" fill="#000000">js_map_constructor</text>
</a>
</g>
</g>
<!-- Node3589&#45;&gt;Node3607 -->
<g id="edge32" class="edge">
<title>Node3589&#45;&gt;Node3607</title>
<path fill="none" stroke="#191970" d="M305.4786,-442.7545C316.5302,-439.1492 328.1315,-433.8215 337,-426 363.5347,-402.5978 345.7113,-377.5185 373,-355 377.7232,-351.1025 383.2037,-348.0038 388.9524,-345.5404"/>
<polygon fill="#191970" stroke="#191970" points="304.2202,-439.4745 295.578,-445.6034 306.156,-446.2016 304.2202,-439.4745"/>
</g>
<!-- Node3657 -->
<g id="node27" class="node">
<title>Node3657</title>
<g id="a_node27"><a xlink:href="quickjs_8c.html#aa69ea100389cd387befe76998dc9fffa" target="_top" xlink:title="promise_reaction_job">
<polygon fill="none" stroke="#ff0000" points="385,-288.5 385,-307.5 494,-307.5 494,-288.5 385,-288.5"/>
<text text-anchor="middle" x="439.5" y="-295.5" font-family="Helvetica,sans-Serif" font-size="10.00" fill="#000000">promise_reaction_job</text>
</a>
</g>
</g>
<!-- Node3589&#45;&gt;Node3657 -->
<g id="edge33" class="edge">
<title>Node3589&#45;&gt;Node3657</title>
<path fill="none" stroke="#191970" d="M305.3216,-443.7889C316.6909,-440.2427 328.526,-434.6883 337,-426 372.6221,-389.477 336.1981,-352.3339 373,-317 376.9842,-313.1747 381.6837,-310.1107 386.7128,-307.6578"/>
<polygon fill="#191970" stroke="#191970" points="304.295,-440.4405 295.5464,-446.4166 306.1122,-447.2005 304.295,-440.4405"/>
</g>
<!-- Node3623&#45;&gt;Node3588 -->
<g id="edge9" class="edge">
<title>Node3623&#45;&gt;Node3588</title>
<path fill="none" stroke="#191970" d="M382.7997,-940.5297C379.3758,-938.8905 376.0765,-937.055 373,-935 271.9915,-867.5312 256.7655,-829.9221 203,-721 148.898,-611.3962 130.4493,-460.7466 126.416,-421.602"/>
<polygon fill="#191970" stroke="#191970" points="381.511,-943.7845 392.0865,-944.4258 384.2192,-937.3296 381.511,-943.7845"/>
</g>
<!-- Node3639&#45;&gt;Node3588 -->
<g id="edge17" class="edge">
<title>Node3639&#45;&gt;Node3588</title>
<path fill="none" stroke="#191970" d="M383.8241,-96.089C379.7674,-98.4838 376.0712,-101.4155 373,-105 289.0701,-202.958 429.7855,-303.385 337,-393 291.522,-436.924 212.0572,-430.5238 164.5529,-421.5131"/>
<polygon fill="#191970" stroke="#191970" points="385.6388,-99.1023 393.1784,-91.6589 382.6426,-92.7759 385.6388,-99.1023"/>
</g>
<!-- Node3645&#45;&gt;Node3645 -->
<g id="edge24" class="edge">
<title>Node3645&#45;&gt;Node3645</title>
<path fill="none" stroke="#191970" d="M413.8305,-525.0292C415.2307,-530.128 423.7872,-534 439.5,-534 464.0273,-534 471.1173,-524.5653 460.7698,-515.7571"/>
<polygon fill="#191970" stroke="#191970" points="417.1052,-526.292 418.2302,-515.7571 410.7811,-523.2911 417.1052,-526.292"/>
</g>
<!-- Node3648&#45;&gt;Node3648 -->
<g id="edge27" class="edge">
<title>Node3648&#45;&gt;Node3648</title>
<path fill="none" stroke="#191970" d="M413.8305,-469.0292C415.2307,-474.128 423.7872,-478 439.5,-478 464.0273,-478 471.1173,-468.5653 460.7698,-459.7571"/>
<polygon fill="#191970" stroke="#191970" points="417.1052,-470.292 418.2302,-459.7571 410.7811,-467.2911 417.1052,-470.292"/>
</g>
<!-- Node3654&#45;&gt;Node3655 -->
<g id="edge30" class="edge">
<title>Node3654&#45;&gt;Node3655</title>
<path fill="none" stroke="#191970" d="M513.7493,-384.1128C523.5418,-385.4466 533.2156,-386.7641 541.9942,-387.9598"/>
<polygon fill="#191970" stroke="#191970" points="513.9149,-380.6031 503.534,-382.7215 512.9702,-387.5391 513.9149,-380.6031"/>
</g>
<!-- Node3672&#45;&gt;Node3588 -->
<g id="edge35" class="edge">
<title>Node3672&#45;&gt;Node3588</title>
<path fill="none" stroke="#191970" d="M241.7961,-386.8979C220.5982,-393.8825 191.2201,-401.8432 167.2954,-407.1948"/>
<polygon fill="#191970" stroke="#191970" points="243.1689,-390.127 251.4855,-383.5632 240.8909,-383.508 243.1689,-390.127"/>
</g>
<!-- Node3672&#45;&gt;Node3647 -->
<g id="edge36" class="edge">
<title>Node3672&#45;&gt;Node3647</title>
<path fill="none" stroke="#191970" d="M315.3366,-368.8848C323.5759,-365.9824 331.3394,-361.5936 337,-355 421.0265,-257.1248 289.0701,-164.958 373,-67 378.5467,-60.5262 386.1319,-56.1818 394.1982,-53.2837"/>
<polygon fill="#191970" stroke="#191970" points="314.2147,-365.5647 305.5432,-371.6522 316.1182,-372.3009 314.2147,-365.5647"/>
</g>
<!-- Node3672&#45;&gt;Node3650 -->
<g id="edge37" class="edge">
<title>Node3672&#45;&gt;Node3650</title>
<path fill="none" stroke="#191970" d="M315.4103,-368.9477C323.6442,-366.0407 331.3869,-361.6341 337,-355 431.1554,-243.7186 278.9544,-140.3742 373,-29 379.817,-20.9269 389.8052,-16.159 399.9789,-13.3778"/>
<polygon fill="#191970" stroke="#191970" points="314.2884,-365.6276 305.6169,-371.7149 316.1918,-372.3638 314.2884,-365.6276"/>
</g>
<!-- Node4135&#45;&gt;Node3588 -->
<g id="edge39" class="edge">
<title>Node4135&#45;&gt;Node3588</title>
<path fill="none" stroke="#191970" d="M245.6333,-348.6763C232.5753,-352.7533 216.4528,-357.4145 203,-364 181.3984,-374.5746 159.5771,-391.288 144.6182,-402.2863"/>
<polygon fill="#191970" stroke="#191970" points="246.9199,-351.9381 255.3391,-345.5063 244.7466,-345.284 246.9199,-351.9381"/>
</g>
<!-- Node4172&#45;&gt;Node3628 -->
<g id="edge41" class="edge">
<title>Node4172&#45;&gt;Node3628</title>
<path fill="none" stroke="#191970" d="M279.6968,-720.8266C304.6071,-769.1283 369.1659,-893.8895 373,-897 377.7555,-900.858 383.2555,-903.9329 389.0146,-906.3835"/>
<polygon fill="#191970" stroke="#191970" points="282.7118,-719.0365 275.0191,-711.7513 276.4896,-722.2436 282.7118,-719.0365"/>
</g>
</g>
</svg>
        <g id="navigator" transform="translate(0 0)" fill="#404254">
                <rect fill="#f2f5e9" fill-opacity="0.5" stroke="#606060" stroke-width=".5" x="0" y="0" width="60" height="60"/>
                <use id="zoomplus" xlink:href="#zoomPlus" x="17" y="9" onmousedown="handleZoom(evt,'in')"/>
                <use id="zoomminus" xlink:href="#zoomMin" x="42" y="9" onmousedown="handleZoom(evt,'out')"/>
                <use id="reset" xlink:href="#resetDef" x="30" y="36" onmousedown="handleReset()"/>
                <g id="arrowUp" xlink:href="#dirArrow" transform="translate(30 24)" onmousedown="handlePan(0,-1)">
                  <use xlink:href="#rim" fill="#404040">
                        <set attributeName="fill" to="#808080" begin="arrowUp.mouseover" end="arrowUp.mouseout"/>
                  </use>
                  <path fill="none" stroke="white" stroke-width="1.5" d="M0,-3.0v7 M-2.5,-0.5L0,-3.0L2.5,-0.5"/>
                </g>
                <g id="arrowRight" xlink:href="#dirArrow" transform="rotate(90) translate(36 -43)" onmousedown="handlePan(1,0)">
                  <use xlink:href="#rim" fill="#404040">
                        <set attributeName="fill" to="#808080" begin="arrowRight.mouseover" end="arrowRight.mouseout"/>
                  </use>
                  <path fill="none" stroke="white" stroke-width="1.5" d="M0,-3.0v7 M-2.5,-0.5L0,-3.0L2.5,-0.5"/>
                </g>
                <g id="arrowDown" xlink:href="#dirArrow" transform="rotate(180) translate(-30 -48)" onmousedown="handlePan(0,1)">
                  <use xlink:href="#rim" fill="#404040">
                        <set attributeName="fill" to="#808080" begin="arrowDown.mouseover" end="arrowDown.mouseout"/>
                  </use>
                  <path fill="none" stroke="white" stroke-width="1.5" d="M0,-3.0v7 M-2.5,-0.5L0,-3.0L2.5,-0.5"/>
                </g>
                <g id="arrowLeft" xlink:href="#dirArrow" transform="rotate(270) translate(-36 17)" onmousedown="handlePan(-1,0)">
                  <use xlink:href="#rim" fill="#404040">
                        <set attributeName="fill" to="#808080" begin="arrowLeft.mouseover" end="arrowLeft.mouseout"/>
                  </use>
                  <path fill="none" stroke="white" stroke-width="1.5" d="M0,-3.0v7 M-2.5,-0.5L0,-3.0L2.5,-0.5"/>
                </g>
        </g>
        <svg viewBox="0 0 15 15" width="100%" height="30px" preserveAspectRatio="xMaxYMin meet">
         <g id="arrow_out" transform="scale(0.3 0.3)">
          <a xlink:href="cutils_8h_a7c82a3ee025fee89db5b11ff5b7691b8_icgraph_org.svg" target="_base">
           <rect id="button" ry="5" rx="5" y="6" x="6" height="38" width="38"
                fill="#f2f5e9" fill-opacity="0.5" stroke="#606060" stroke-width="1.0"/>
           <path id="arrow"
             d="M 11.500037,31.436501 C 11.940474,20.09759 22.043105,11.32322 32.158766,21.979434 L 37.068811,17.246167 C 37.068811,17.246167 37.088388,32 37.088388,32 L 22.160133,31.978069 C 22.160133,31.978069 26.997745,27.140456 26.997745,27.140456 C 18.528582,18.264221 13.291696,25.230495 11.500037,31.436501 z"
             style="fill:#404040;"/>
          </a>
         </g>
        </svg>
</svg>
