<?xml version="1.0" encoding="UTF-8" standalone="no"?>
<!DOCTYPE svg PUBLIC "-//W3C//DTD SVG 1.1//EN"
 "http://www.w3.org/Graphics/SVG/1.1/DTD/svg11.dtd">
<!-- Generated by graphviz version 2.40.1 (20161225.0304)
 -->
<!-- Title: dbuf_error Pages: 1 -->
<svg width="468pt" height="401pt"
 viewBox="0.00 0.00 468.00 401.00" xmlns="http://www.w3.org/2000/svg" xmlns:xlink="http://www.w3.org/1999/xlink">
<g id="graph0" class="graph" transform="scale(1 1) rotate(0) translate(4 397)">
<title>dbuf_error</title>
<!-- Node8758 -->
<g id="node1" class="node">
<title>Node8758</title>
<polygon fill="#bfbfbf" stroke="#000000" points="0,-114.5 0,-133.5 60,-133.5 60,-114.5 0,-114.5"/>
<text text-anchor="middle" x="30" y="-121.5" font-family="Helvetica,sans-Serif" font-size="10.00" fill="#000000">dbuf_error</text>
</g>
<!-- Node8759 -->
<g id="node2" class="node">
<title>Node8759</title>
<g id="a_node2"><a xlink:href="libbf_8c.html#ad79aefc435021a0743c89cb4aec7fa56" target="_top" xlink:title="bf_ftoa_internal">
<polygon fill="none" stroke="#000000" points="103.5,-335.5 103.5,-354.5 186.5,-354.5 186.5,-335.5 103.5,-335.5"/>
<text text-anchor="middle" x="145" y="-342.5" font-family="Helvetica,sans-Serif" font-size="10.00" fill="#000000">bf_ftoa_internal</text>
</a>
</g>
</g>
<!-- Node8758&#45;&gt;Node8759 -->
<g id="edge1" class="edge">
<title>Node8758&#45;&gt;Node8759</title>
<path fill="none" stroke="#191970" d="M39.7824,-142.7993C63.2997,-187.9934 122.3603,-301.4924 139.969,-335.3317"/>
<polygon fill="#191970" stroke="#191970" points="42.8107,-141.0365 35.0898,-133.7813 36.6011,-144.2678 42.8107,-141.0365"/>
</g>
<!-- Node8762 -->
<g id="node5" class="node">
<title>Node8762</title>
<g id="a_node5"><a xlink:href="quickjs_8c.html#a61c8dfb5e807af1b6ff7d8ca61576dda" target="_top" xlink:title="build_backtrace">
<polygon fill="none" stroke="#000000" points="102.5,-190.5 102.5,-209.5 187.5,-209.5 187.5,-190.5 102.5,-190.5"/>
<text text-anchor="middle" x="145" y="-197.5" font-family="Helvetica,sans-Serif" font-size="10.00" fill="#000000">build_backtrace</text>
</a>
</g>
</g>
<!-- Node8758&#45;&gt;Node8762 -->
<g id="edge4" class="edge">
<title>Node8758&#45;&gt;Node8762</title>
<path fill="none" stroke="#191970" d="M46.0897,-140.7113C58.7421,-153.1168 77.3011,-169.7625 96,-181 102.0218,-184.6189 108.8541,-187.7797 115.4645,-190.4306"/>
<polygon fill="#191970" stroke="#191970" points="48.5639,-138.2357 39.0267,-133.6213 43.6047,-143.176 48.5639,-138.2357"/>
</g>
<!-- Node8942 -->
<g id="node11" class="node">
<title>Node8942</title>
<g id="a_node11"><a xlink:href="quickjs-libc_8c.html#a7aebce2172c6aa4a6645aef600a69e6b" target="_top" xlink:title="js_std_urlGet">
<polygon fill="none" stroke="#000000" points="108,-152.5 108,-171.5 182,-171.5 182,-152.5 108,-152.5"/>
<text text-anchor="middle" x="145" y="-159.5" font-family="Helvetica,sans-Serif" font-size="10.00" fill="#000000">js_std_urlGet</text>
</a>
</g>
</g>
<!-- Node8758&#45;&gt;Node8942 -->
<g id="edge12" class="edge">
<title>Node8758&#45;&gt;Node8942</title>
<path fill="none" stroke="#191970" d="M68.8153,-136.8259C84.2459,-141.9247 101.6907,-147.6891 115.9899,-152.4141"/>
<polygon fill="#191970" stroke="#191970" points="69.6126,-133.4033 59.0194,-133.589 67.4163,-140.0498 69.6126,-133.4033"/>
</g>
<!-- Node9347 -->
<g id="node12" class="node">
<title>Node9347</title>
<g id="a_node12"><a xlink:href="libregexp_8h.html#a9f2d004d841acbf42a7cf0490258b5ab" target="_top" xlink:title="lre_compile">
<polygon fill="none" stroke="#000000" points="112,-114.5 112,-133.5 178,-133.5 178,-114.5 112,-114.5"/>
<text text-anchor="middle" x="145" y="-121.5" font-family="Helvetica,sans-Serif" font-size="10.00" fill="#000000">lre_compile</text>
</a>
</g>
</g>
<!-- Node8758&#45;&gt;Node9347 -->
<g id="edge13" class="edge">
<title>Node8758&#45;&gt;Node9347</title>
<path fill="none" stroke="#191970" d="M70.2548,-124C83.8176,-124 98.791,-124 111.7517,-124"/>
<polygon fill="#191970" stroke="#191970" points="70.2149,-120.5001 60.2149,-124 70.2149,-127.5001 70.2149,-120.5001"/>
</g>
<!-- Node9348 -->
<g id="node14" class="node">
<title>Node9348</title>
<g id="a_node14"><a xlink:href="quickjs_8c.html#ad0d311d4ce409584384f835f1a3e185a" target="_top" xlink:title="resolve_labels">
<polygon fill="none" stroke="#000000" points="105.5,-76.5 105.5,-95.5 184.5,-95.5 184.5,-76.5 105.5,-76.5"/>
<text text-anchor="middle" x="145" y="-83.5" font-family="Helvetica,sans-Serif" font-size="10.00" fill="#000000">resolve_labels</text>
</a>
</g>
</g>
<!-- Node8758&#45;&gt;Node9348 -->
<g id="edge15" class="edge">
<title>Node8758&#45;&gt;Node9348</title>
<path fill="none" stroke="#191970" d="M68.8153,-111.1741C84.2459,-106.0753 101.6907,-100.3109 115.9899,-95.5859"/>
<polygon fill="#191970" stroke="#191970" points="67.4163,-107.9502 59.0194,-114.411 69.6126,-114.5967 67.4163,-107.9502"/>
</g>
<!-- Node9112 -->
<g id="node16" class="node">
<title>Node9112</title>
<g id="a_node16"><a xlink:href="quickjs_8c.html#a7a4eedc4cc552a71e165f4d28ad43985" target="_top" xlink:title="resolve_variables">
<polygon fill="none" stroke="#000000" points="99,-38.5 99,-57.5 191,-57.5 191,-38.5 99,-38.5"/>
<text text-anchor="middle" x="145" y="-45.5" font-family="Helvetica,sans-Serif" font-size="10.00" fill="#000000">resolve_variables</text>
</a>
</g>
</g>
<!-- Node8758&#45;&gt;Node9112 -->
<g id="edge18" class="edge">
<title>Node8758&#45;&gt;Node9112</title>
<path fill="none" stroke="#191970" d="M46.0897,-107.2887C58.7421,-94.8832 77.3011,-78.2375 96,-67 102.0218,-63.3811 108.8541,-60.2203 115.4645,-57.5694"/>
<polygon fill="#191970" stroke="#191970" points="43.6047,-104.824 39.0267,-114.3787 48.5639,-109.7643 43.6047,-104.824"/>
</g>
<!-- Node9349 -->
<g id="node17" class="node">
<title>Node9349</title>
<g id="a_node17"><a xlink:href="libunicode_8c.html#a6a79bc427bb64048b575fe5ac770160d" target="_top" xlink:title="unicode_normalize">
<polygon fill="none" stroke="#000000" points="96,-.5 96,-19.5 194,-19.5 194,-.5 96,-.5"/>
<text text-anchor="middle" x="145" y="-7.5" font-family="Helvetica,sans-Serif" font-size="10.00" fill="#000000">unicode_normalize</text>
</a>
</g>
</g>
<!-- Node8758&#45;&gt;Node9349 -->
<g id="edge20" class="edge">
<title>Node8758&#45;&gt;Node9349</title>
<path fill="none" stroke="#191970" d="M38.8829,-104.9506C49.656,-83.7344 69.6891,-49.7064 96,-29 100.8039,-25.2194 106.4496,-22.1162 112.1674,-19.5949"/>
<polygon fill="#191970" stroke="#191970" points="35.598,-103.701 34.3512,-114.2222 41.887,-106.7749 35.598,-103.701"/>
</g>
<!-- Node8760 -->
<g id="node3" class="node">
<title>Node8760</title>
<g id="a_node3"><a xlink:href="libbf_8h.html#a3ab9f99dbc84f8cce63cf3867b8986e5" target="_top" xlink:title="bf_ftoa">
<polygon fill="none" stroke="#000000" points="262.5,-373.5 262.5,-392.5 309.5,-392.5 309.5,-373.5 262.5,-373.5"/>
<text text-anchor="middle" x="286" y="-380.5" font-family="Helvetica,sans-Serif" font-size="10.00" fill="#000000">bf_ftoa</text>
</a>
</g>
</g>
<!-- Node8759&#45;&gt;Node8760 -->
<g id="edge2" class="edge">
<title>Node8759&#45;&gt;Node8760</title>
<path fill="none" stroke="#191970" d="M190.5338,-357.2715C214.4789,-363.7248 242.8364,-371.3673 262.3898,-376.637"/>
<polygon fill="#191970" stroke="#191970" points="191.1465,-353.8118 180.5803,-354.589 189.325,-360.5707 191.1465,-353.8118"/>
</g>
<!-- Node8761 -->
<g id="node4" class="node">
<title>Node8761</title>
<g id="a_node4"><a xlink:href="libbf_8h.html#a076d088aa44d1cfa2d6f85f718fb88bc" target="_top" xlink:title="bfdec_ftoa">
<polygon fill="none" stroke="#000000" points="255,-335.5 255,-354.5 317,-354.5 317,-335.5 255,-335.5"/>
<text text-anchor="middle" x="286" y="-342.5" font-family="Helvetica,sans-Serif" font-size="10.00" fill="#000000">bfdec_ftoa</text>
</a>
</g>
</g>
<!-- Node8759&#45;&gt;Node8761 -->
<g id="edge3" class="edge">
<title>Node8759&#45;&gt;Node8761</title>
<path fill="none" stroke="#191970" d="M196.7647,-345C216.1612,-345 237.5976,-345 254.5981,-345"/>
<polygon fill="#191970" stroke="#191970" points="196.5421,-341.5001 186.542,-345 196.542,-348.5001 196.5421,-341.5001"/>
</g>
<!-- Node8763 -->
<g id="node6" class="node">
<title>Node8763</title>
<g id="a_node6"><a xlink:href="quickjs_8c.html#aeafb37b03b5560171754f8c4505b0f6b" target="_top" xlink:title="JS_ThrowError2">
<polygon fill="none" stroke="#000000" points="242.5,-297.5 242.5,-316.5 329.5,-316.5 329.5,-297.5 242.5,-297.5"/>
<text text-anchor="middle" x="286" y="-304.5" font-family="Helvetica,sans-Serif" font-size="10.00" fill="#000000">JS_ThrowError2</text>
</a>
</g>
</g>
<!-- Node8762&#45;&gt;Node8763 -->
<g id="edge5" class="edge">
<title>Node8762&#45;&gt;Node8763</title>
<path fill="none" stroke="#191970" d="M157.9502,-217.8047C173.1577,-237.5369 200.1286,-269.0668 230,-288 235.9833,-291.7924 242.8095,-294.9207 249.5895,-297.4675"/>
<polygon fill="#191970" stroke="#191970" points="160.6302,-215.545 151.8226,-209.6563 155.0356,-219.7523 160.6302,-215.545"/>
</g>
<!-- Node8786 -->
<g id="node8" class="node">
<title>Node8786</title>
<g id="a_node8"><a xlink:href="quickjs_8c.html#ac2894ff4edcdb4e6841bcce9c76081e3" target="_top" xlink:title="JS_CallInternal">
<polygon fill="none" stroke="#ff0000" points="244.5,-241.5 244.5,-260.5 327.5,-260.5 327.5,-241.5 244.5,-241.5"/>
<text text-anchor="middle" x="286" y="-248.5" font-family="Helvetica,sans-Serif" font-size="10.00" fill="#000000">JS_CallInternal</text>
</a>
</g>
</g>
<!-- Node8762&#45;&gt;Node8786 -->
<g id="edge7" class="edge">
<title>Node8762&#45;&gt;Node8786</title>
<path fill="none" stroke="#191970" d="M179.486,-213.2776C194.8984,-219.1354 213.3151,-226.0307 230,-232 238.7966,-235.1471 248.4154,-238.4576 257.1603,-241.4177"/>
<polygon fill="#191970" stroke="#191970" points="180.4307,-209.892 169.84,-209.5981 177.9359,-216.4324 180.4307,-209.892"/>
</g>
<!-- Node8999 -->
<g id="node9" class="node">
<title>Node8999</title>
<g id="a_node9"><a xlink:href="quickjs_8c.html#acdcc62310b4f6f73fa7bc7267b18b1d4" target="_top" xlink:title="js_parse_postfix_expr">
<polygon fill="none" stroke="#ff0000" points="230,-185.5 230,-204.5 342,-204.5 342,-185.5 230,-185.5"/>
<text text-anchor="middle" x="286" y="-192.5" font-family="Helvetica,sans-Serif" font-size="10.00" fill="#000000">js_parse_postfix_expr</text>
</a>
</g>
</g>
<!-- Node8762&#45;&gt;Node8999 -->
<g id="edge9" class="edge">
<title>Node8762&#45;&gt;Node8999</title>
<path fill="none" stroke="#191970" d="M197.9145,-198.1236C208.3623,-197.7531 219.3605,-197.3631 229.9091,-196.989"/>
<polygon fill="#191970" stroke="#191970" points="197.5569,-194.634 187.6873,-198.4863 197.8051,-201.6296 197.5569,-194.634"/>
</g>
<!-- Node8800 -->
<g id="node10" class="node">
<title>Node8800</title>
<g id="a_node10"><a xlink:href="quickjs_8c.html#ad25358fc5ae69ab218abde24d52b7767" target="_top" xlink:title="js_error_constructor">
<polygon fill="none" stroke="#ff0000" points="234.5,-147.5 234.5,-166.5 337.5,-166.5 337.5,-147.5 234.5,-147.5"/>
<text text-anchor="middle" x="286" y="-154.5" font-family="Helvetica,sans-Serif" font-size="10.00" fill="#000000">js_error_constructor</text>
</a>
</g>
</g>
<!-- Node8762&#45;&gt;Node8800 -->
<g id="edge11" class="edge">
<title>Node8762&#45;&gt;Node8800</title>
<path fill="none" stroke="#191970" d="M186.0087,-187.4938C207.9542,-180.8012 234.5505,-172.6903 254.795,-166.5164"/>
<polygon fill="#191970" stroke="#191970" points="184.8366,-184.192 176.2925,-190.4569 186.8785,-190.8876 184.8366,-184.192"/>
</g>
<!-- Node8764 -->
<g id="node7" class="node">
<title>Node8764</title>
<g id="a_node7"><a xlink:href="quickjs_8c.html#a1b110b017211230b8b6310e853cd2b54" target="_top" xlink:title="JS_ThrowError">
<polygon fill="none" stroke="#ff0000" points="378,-297.5 378,-316.5 460,-316.5 460,-297.5 378,-297.5"/>
<text text-anchor="middle" x="419" y="-304.5" font-family="Helvetica,sans-Serif" font-size="10.00" fill="#000000">JS_ThrowError</text>
</a>
</g>
</g>
<!-- Node8763&#45;&gt;Node8764 -->
<g id="edge6" class="edge">
<title>Node8763&#45;&gt;Node8764</title>
<path fill="none" stroke="#191970" d="M339.9206,-307C352.491,-307 365.6839,-307 377.6129,-307"/>
<polygon fill="#191970" stroke="#191970" points="339.5492,-303.5001 329.5492,-307 339.5491,-310.5001 339.5492,-303.5001"/>
</g>
<!-- Node8786&#45;&gt;Node8786 -->
<g id="edge8" class="edge">
<title>Node8786&#45;&gt;Node8786</title>
<path fill="none" stroke="#191970" d="M261.4465,-270.0292C262.7858,-275.128 270.9703,-279 286,-279 309.4609,-279 316.2426,-269.5653 306.345,-260.7571"/>
<polygon fill="#191970" stroke="#191970" points="264.709,-271.3096 265.655,-260.7571 258.3348,-268.4164 264.709,-271.3096"/>
</g>
<!-- Node8999&#45;&gt;Node8999 -->
<g id="edge10" class="edge">
<title>Node8999&#45;&gt;Node8999</title>
<path fill="none" stroke="#191970" d="M261.4465,-214.0292C262.7858,-219.128 270.9703,-223 286,-223 309.4609,-223 316.2426,-213.5653 306.345,-204.7571"/>
<polygon fill="#191970" stroke="#191970" points="264.709,-215.3096 265.655,-204.7571 258.3348,-212.4164 264.709,-215.3096"/>
</g>
<!-- Node9246 -->
<g id="node13" class="node">
<title>Node9246</title>
<g id="a_node13"><a xlink:href="quickjs_8c.html#ab0bd3fbfe9b7f004c067b103a6d60d03" target="_top" xlink:title="js_compile_regexp">
<polygon fill="none" stroke="#ff0000" points="237,-109.5 237,-128.5 335,-128.5 335,-109.5 237,-109.5"/>
<text text-anchor="middle" x="286" y="-116.5" font-family="Helvetica,sans-Serif" font-size="10.00" fill="#000000">js_compile_regexp</text>
</a>
</g>
</g>
<!-- Node9347&#45;&gt;Node9246 -->
<g id="edge14" class="edge">
<title>Node9347&#45;&gt;Node9246</title>
<path fill="none" stroke="#191970" d="M188.3152,-122.464C203.6633,-121.9197 221.0412,-121.3035 236.8405,-120.7432"/>
<polygon fill="#191970" stroke="#191970" points="187.9279,-118.9754 178.0582,-122.8277 188.176,-125.971 187.9279,-118.9754"/>
</g>
<!-- Node9113 -->
<g id="node15" class="node">
<title>Node9113</title>
<g id="a_node15"><a xlink:href="quickjs_8c.html#a97fcc747d8b1c3644174745d2e2739be" target="_top" xlink:title="js_create_function">
<polygon fill="none" stroke="#ff0000" points="238,-48.5 238,-67.5 334,-67.5 334,-48.5 238,-48.5"/>
<text text-anchor="middle" x="286" y="-55.5" font-family="Helvetica,sans-Serif" font-size="10.00" fill="#000000">js_create_function</text>
</a>
</g>
</g>
<!-- Node9348&#45;&gt;Node9113 -->
<g id="edge16" class="edge">
<title>Node9348&#45;&gt;Node9113</title>
<path fill="none" stroke="#191970" d="M194.6772,-76.135C208.7929,-73.3319 224.1321,-70.2858 238.1378,-67.5045"/>
<polygon fill="#191970" stroke="#191970" points="193.7783,-72.7451 184.6516,-78.1259 195.1418,-79.611 193.7783,-72.7451"/>
</g>
<!-- Node9113&#45;&gt;Node9113 -->
<g id="edge17" class="edge">
<title>Node9113&#45;&gt;Node9113</title>
<path fill="none" stroke="#191970" d="M261.4465,-77.0292C262.7858,-82.128 270.9703,-86 286,-86 309.4609,-86 316.2426,-76.5653 306.345,-67.7571"/>
<polygon fill="#191970" stroke="#191970" points="264.709,-78.3096 265.655,-67.7571 258.3348,-75.4164 264.709,-78.3096"/>
</g>
<!-- Node9112&#45;&gt;Node9113 -->
<g id="edge19" class="edge">
<title>Node9112&#45;&gt;Node9113</title>
<path fill="none" stroke="#191970" d="M201.1774,-51.9842C213.2973,-52.8438 226.0067,-53.7452 237.7901,-54.5809"/>
<polygon fill="#191970" stroke="#191970" points="201.3913,-48.4907 191.1687,-51.2744 200.896,-55.4731 201.3913,-48.4907"/>
</g>
<!-- Node9245 -->
<g id="node18" class="node">
<title>Node9245</title>
<g id="a_node18"><a xlink:href="quickjs_8c.html#ac6b88454ffc4d639197c1e95e515e04a" target="_top" xlink:title="js_string_normalize">
<polygon fill="none" stroke="#000000" points="235.5,-.5 235.5,-19.5 336.5,-19.5 336.5,-.5 235.5,-.5"/>
<text text-anchor="middle" x="286" y="-7.5" font-family="Helvetica,sans-Serif" font-size="10.00" fill="#000000">js_string_normalize</text>
</a>
</g>
</g>
<!-- Node9349&#45;&gt;Node9245 -->
<g id="edge21" class="edge">
<title>Node9349&#45;&gt;Node9245</title>
<path fill="none" stroke="#191970" d="M204.3737,-10C214.5713,-10 225.0875,-10 235.0397,-10"/>
<polygon fill="#191970" stroke="#191970" points="204.315,-6.5001 194.315,-10 204.3149,-13.5001 204.315,-6.5001"/>
</g>
</g>
</svg>
