<?xml version="1.0" encoding="UTF-8" standalone="no"?>
<!DOCTYPE svg PUBLIC "-//W3C//DTD SVG 1.1//EN"
 "http://www.w3.org/Graphics/SVG/1.1/DTD/svg11.dtd">
<!-- Generated by graphviz version 2.40.1 (20161225.0304)
 -->
<!-- Title: re_parse_disjunction Pages: 1 -->
<svg width="1138pt" height="990pt"
 viewBox="0.00 0.00 1138.00 990.42" xmlns="http://www.w3.org/2000/svg" xmlns:xlink="http://www.w3.org/1999/xlink">
<g id="graph0" class="graph" transform="scale(1 1) rotate(0) translate(4 986.4215)">
<title>re_parse_disjunction</title>
<!-- Node1246 -->
<g id="node1" class="node">
<title>Node1246</title>
<polygon fill="#bfbfbf" stroke="#000000" points="0,-459.9215 0,-478.9215 106,-478.9215 106,-459.9215 0,-459.9215"/>
<text text-anchor="middle" x="53" y="-466.9215" font-family="Helvetica,sans-Serif" font-size="10.00" fill="#000000">re_parse_disjunction</text>
</g>
<!-- Node1247 -->
<g id="node2" class="node">
<title>Node1247</title>
<g id="a_node2"><a xlink:href="libregexp_8c.html#aa7c7a1de0de1647c6f3b9d1da89ed7dc" target="_top" xlink:title="dbuf_insert">
<polygon fill="none" stroke="#000000" points="426,-934.9215 426,-953.9215 491,-953.9215 491,-934.9215 426,-934.9215"/>
<text text-anchor="middle" x="458.5" y="-941.9215" font-family="Helvetica,sans-Serif" font-size="10.00" fill="#000000">dbuf_insert</text>
</a>
</g>
</g>
<!-- Node1246&#45;&gt;Node1247 -->
<g id="edge1" class="edge">
<title>Node1246&#45;&gt;Node1247</title>
<path fill="none" stroke="#191970" d="M57.4699,-479.2145C82.5297,-533.0138 211.1334,-794.943 397,-925.4215 402.715,-929.4334 409.3041,-932.6188 416,-935.1422"/>
<polygon fill="#191970" stroke="#191970" points="415.2041,-938.5654 425.7974,-938.3846 417.4035,-931.9199 415.2041,-938.5654"/>
</g>
<!-- Node1249 -->
<g id="node4" class="node">
<title>Node1249</title>
<g id="a_node4"><a xlink:href="cutils_8h.html#a3b6aba81e32ed70a2a851744e5a9cc9c" target="_top" xlink:title="put_u32">
<polygon fill="none" stroke="#000000" points="433,-22.9215 433,-41.9215 484,-41.9215 484,-22.9215 433,-22.9215"/>
<text text-anchor="middle" x="458.5" y="-29.9215" font-family="Helvetica,sans-Serif" font-size="10.00" fill="#000000">put_u32</text>
</a>
</g>
</g>
<!-- Node1246&#45;&gt;Node1249 -->
<g id="edge3" class="edge">
<title>Node1246&#45;&gt;Node1249</title>
<path fill="none" stroke="#191970" d="M58.4362,-459.8183C86.9747,-410.2084 224.7364,-180.4929 397,-56.4215 404.8543,-50.7645 414.2195,-46.228 423.2439,-42.6884"/>
<polygon fill="#191970" stroke="#191970" points="424.5978,-45.9208 432.815,-39.2329 422.2207,-39.3367 424.5978,-45.9208"/>
</g>
<!-- Node1250 -->
<g id="node5" class="node">
<title>Node1250</title>
<g id="a_node5"><a xlink:href="libregexp_8c.html#ac72424cc4c3614e12582bb5684d5971e" target="_top" xlink:title="re_emit_op_u32">
<polygon fill="none" stroke="#000000" points="694.5,-212.9215 694.5,-231.9215 780.5,-231.9215 780.5,-212.9215 694.5,-212.9215"/>
<text text-anchor="middle" x="737.5" y="-219.9215" font-family="Helvetica,sans-Serif" font-size="10.00" fill="#000000">re_emit_op_u32</text>
</a>
</g>
</g>
<!-- Node1246&#45;&gt;Node1250 -->
<g id="edge4" class="edge">
<title>Node1246&#45;&gt;Node1250</title>
<path fill="none" stroke="#191970" d="M54.0817,-459.7631C58.6611,-422.3974 79.1972,-284.9107 142,-194.4215 221.2428,-80.2447 263.1806,-50.9466 397,-13.4215 449.6363,1.3386 469.1764,6.7133 520,-13.4215 618.6743,-52.5133 697.4324,-160.7027 725.9631,-204.0809"/>
<polygon fill="#191970" stroke="#191970" points="723.1973,-206.2498 731.5615,-212.7529 729.0783,-202.4532 723.1973,-206.2498"/>
</g>
<!-- Node1254 -->
<g id="node9" class="node">
<title>Node1254</title>
<g id="a_node9"><a xlink:href="libregexp_8c.html#a87dce3150c68b8a079854274dd39243c" target="_top" xlink:title="re_parse_alternative">
<polygon fill="none" stroke="#000000" points="142,-497.9215 142,-516.9215 246,-516.9215 246,-497.9215 142,-497.9215"/>
<text text-anchor="middle" x="194" y="-504.9215" font-family="Helvetica,sans-Serif" font-size="10.00" fill="#000000">re_parse_alternative</text>
</a>
</g>
</g>
<!-- Node1246&#45;&gt;Node1254 -->
<g id="edge10" class="edge">
<title>Node1246&#45;&gt;Node1254</title>
<path fill="none" stroke="#191970" d="M88.5803,-479.0105C106.782,-483.9159 129.1384,-489.9411 148.5723,-495.1786"/>
<polygon fill="#191970" stroke="#191970" points="147.8648,-498.6127 158.4311,-497.8355 149.6864,-491.8539 147.8648,-498.6127"/>
</g>
<!-- Node1248 -->
<g id="node3" class="node">
<title>Node1248</title>
<g id="a_node3"><a xlink:href="cutils_8h.html#ac0b9ce26415947e972d6781d9f2fb11b" target="_top" xlink:title="dbuf_realloc">
<polygon fill="none" stroke="#000000" points="1061,-934.9215 1061,-953.9215 1130,-953.9215 1130,-934.9215 1061,-934.9215"/>
<text text-anchor="middle" x="1095.5" y="-941.9215" font-family="Helvetica,sans-Serif" font-size="10.00" fill="#000000">dbuf_realloc</text>
</a>
</g>
</g>
<!-- Node1247&#45;&gt;Node1248 -->
<g id="edge2" class="edge">
<title>Node1247&#45;&gt;Node1248</title>
<path fill="none" stroke="#191970" d="M491.1442,-944.4215C543.2354,-944.4215 648.375,-944.4215 737.5,-944.4215 737.5,-944.4215 737.5,-944.4215 878.5,-944.4215 938.1406,-944.4215 1007.0015,-944.4215 1050.872,-944.4215"/>
<polygon fill="#191970" stroke="#191970" points="1050.9237,-947.9216 1060.9236,-944.4215 1050.9236,-940.9216 1050.9237,-947.9216"/>
</g>
<!-- Node1251 -->
<g id="node6" class="node">
<title>Node1251</title>
<g id="a_node6"><a xlink:href="cutils_8h.html#a8ba08f82c43549fcb3c939229498354d" target="_top" xlink:title="dbuf_put_u32">
<polygon fill="none" stroke="#000000" points="841,-326.9215 841,-345.9215 916,-345.9215 916,-326.9215 841,-326.9215"/>
<text text-anchor="middle" x="878.5" y="-333.9215" font-family="Helvetica,sans-Serif" font-size="10.00" fill="#000000">dbuf_put_u32</text>
</a>
</g>
</g>
<!-- Node1250&#45;&gt;Node1251 -->
<g id="edge5" class="edge">
<title>Node1250&#45;&gt;Node1251</title>
<path fill="none" stroke="#191970" d="M760.5437,-232.0201C768.888,-235.9539 778.1766,-240.888 786,-246.4215 816.4354,-267.9484 846.3812,-299.5093 863.618,-318.9687"/>
<polygon fill="#191970" stroke="#191970" points="861.1854,-321.5045 870.3957,-326.741 866.4612,-316.9038 861.1854,-321.5045"/>
</g>
<!-- Node1253 -->
<g id="node8" class="node">
<title>Node1253</title>
<g id="a_node8"><a xlink:href="cutils_8h.html#aeed81d4787ccdbd55baa9b5fd6717e88" target="_top" xlink:title="dbuf_putc">
<polygon fill="none" stroke="#000000" points="849,-440.9215 849,-459.9215 908,-459.9215 908,-440.9215 849,-440.9215"/>
<text text-anchor="middle" x="878.5" y="-447.9215" font-family="Helvetica,sans-Serif" font-size="10.00" fill="#000000">dbuf_putc</text>
</a>
</g>
</g>
<!-- Node1250&#45;&gt;Node1253 -->
<g id="edge8" class="edge">
<title>Node1250&#45;&gt;Node1253</title>
<path fill="none" stroke="#191970" d="M747.3084,-232.2806C757.7831,-243.1648 774.4349,-261.5239 786,-279.4215 806.285,-310.8135 804.428,-322.4342 822,-355.4215 836.5869,-382.8049 855.2856,-413.4933 867.0836,-432.3891"/>
<polygon fill="#191970" stroke="#191970" points="864.1365,-434.2774 872.4194,-440.8837 870.0641,-430.554 864.1365,-434.2774"/>
</g>
<!-- Node1252 -->
<g id="node7" class="node">
<title>Node1252</title>
<g id="a_node7"><a xlink:href="cutils_8h.html#ad1cfaae47347ae771136b5a9bbda49aa" target="_top" xlink:title="dbuf_put">
<polygon fill="none" stroke="#000000" points="971,-421.9215 971,-440.9215 1025,-440.9215 1025,-421.9215 971,-421.9215"/>
<text text-anchor="middle" x="998" y="-428.9215" font-family="Helvetica,sans-Serif" font-size="10.00" fill="#000000">dbuf_put</text>
</a>
</g>
</g>
<!-- Node1251&#45;&gt;Node1252 -->
<g id="edge6" class="edge">
<title>Node1251&#45;&gt;Node1252</title>
<path fill="none" stroke="#191970" d="M890.8385,-346.2303C911.4291,-362.5994 952.985,-395.6355 977.8639,-415.4137"/>
<polygon fill="#191970" stroke="#191970" points="975.9007,-418.3242 985.9066,-421.8075 980.2568,-412.8447 975.9007,-418.3242"/>
</g>
<!-- Node1252&#45;&gt;Node1248 -->
<g id="edge7" class="edge">
<title>Node1252&#45;&gt;Node1248</title>
<path fill="none" stroke="#191970" d="M999.8606,-441.2113C1011.6018,-502.9879 1075.4527,-838.9417 1091.7248,-924.5582"/>
<polygon fill="#191970" stroke="#191970" points="1088.3141,-925.3583 1093.6198,-934.5289 1095.191,-924.0512 1088.3141,-925.3583"/>
</g>
<!-- Node1253&#45;&gt;Node1252 -->
<g id="edge9" class="edge">
<title>Node1253&#45;&gt;Node1252</title>
<path fill="none" stroke="#191970" d="M908.0393,-445.7249C923.9511,-443.1949 943.742,-440.0483 960.7064,-437.351"/>
<polygon fill="#191970" stroke="#191970" points="961.5176,-440.7661 970.8439,-435.7392 960.4183,-433.8529 961.5176,-440.7661"/>
</g>
<!-- Node1254&#45;&gt;Node1248 -->
<g id="edge56" class="edge">
<title>Node1254&#45;&gt;Node1248</title>
<path fill="none" stroke="#191970" d="M194.6309,-517.3425C199.5457,-585.5541 237.631,-982.4215 458.5,-982.4215 458.5,-982.4215 458.5,-982.4215 878.5,-982.4215 939.5307,-982.4215 1008.7888,-967.6574 1052.3055,-956.5347"/>
<polygon fill="#191970" stroke="#191970" points="1053.1961,-959.9196 1061.99,-954.0105 1051.4306,-953.1459 1053.1961,-959.9196"/>
</g>
<!-- Node1255 -->
<g id="node10" class="node">
<title>Node1255</title>
<g id="a_node10"><a xlink:href="libregexp_8c.html#acca34590a18d70f866ad56d67ce309e8" target="_top" xlink:title="re_parse_term">
<polygon fill="none" stroke="#ff0000" points="282,-478.9215 282,-497.9215 361,-497.9215 361,-478.9215 282,-478.9215"/>
<text text-anchor="middle" x="321.5" y="-485.9215" font-family="Helvetica,sans-Serif" font-size="10.00" fill="#000000">re_parse_term</text>
</a>
</g>
</g>
<!-- Node1254&#45;&gt;Node1255 -->
<g id="edge11" class="edge">
<title>Node1254&#45;&gt;Node1255</title>
<path fill="none" stroke="#191970" d="M246.227,-499.6386C254.6364,-498.3855 263.3226,-497.0911 271.6736,-495.8466"/>
<polygon fill="#191970" stroke="#191970" points="272.2778,-499.2953 281.6527,-494.3595 271.246,-492.3717 272.2778,-499.2953"/>
</g>
<!-- Node1255&#45;&gt;Node1246 -->
<g id="edge17" class="edge">
<title>Node1255&#45;&gt;Node1246</title>
<path fill="none" stroke="#191970" d="M281.6606,-485.6023C238.0571,-482.5168 167.5467,-477.5272 116.3403,-473.9037"/>
<polygon fill="#191970" stroke="#191970" points="116.2691,-470.39 106.047,-473.1753 115.7749,-477.3725 116.2691,-470.39"/>
</g>
<!-- Node1255&#45;&gt;Node1247 -->
<g id="edge51" class="edge">
<title>Node1255&#45;&gt;Node1247</title>
<path fill="none" stroke="#191970" d="M323.1292,-498.268C333.7919,-562.6609 393.2988,-921.211 397,-925.4215 402.0217,-931.1341 408.7203,-935.1521 415.8493,-937.9729"/>
<polygon fill="#191970" stroke="#191970" points="415.1295,-941.4171 425.7203,-941.1239 417.2583,-934.7486 415.1295,-941.4171"/>
</g>
<!-- Node1255&#45;&gt;Node1249 -->
<g id="edge21" class="edge">
<title>Node1255&#45;&gt;Node1249</title>
<path fill="none" stroke="#191970" d="M323.1338,-478.6908C333.8261,-415.0544 393.4889,-60.7116 397,-56.4215 403.642,-48.3059 413.3927,-42.9257 423.1812,-39.3622"/>
<polygon fill="#191970" stroke="#191970" points="424.3469,-42.6654 432.8688,-36.3704 422.2812,-35.9771 424.3469,-42.6654"/>
</g>
<!-- Node1255&#45;&gt;Node1250 -->
<g id="edge20" class="edge">
<title>Node1255&#45;&gt;Node1250</title>
<path fill="none" stroke="#191970" d="M322.8786,-478.8054C330.6481,-425.2589 369.5948,-165.4779 397,-143.4215 403.8781,-137.8858 651.0974,-145.667 653,-146.4215 683.2426,-158.4139 709.5822,-186.4866 724.5004,-204.9502"/>
<polygon fill="#191970" stroke="#191970" points="721.789,-207.1649 730.699,-212.8975 727.3086,-202.8597 721.789,-207.1649"/>
</g>
<!-- Node1255&#45;&gt;Node1252 -->
<g id="edge24" class="edge">
<title>Node1255&#45;&gt;Node1252</title>
<path fill="none" stroke="#191970" d="M322.0087,-478.6898C324.9476,-426.6757 341.6023,-182.1703 397,-137.4215 533.4141,-27.2299 636.8547,-111.1898 786,-203.4215 856.917,-247.2766 880.5681,-254.2577 935,-317.4215 960.4606,-346.9664 980.2107,-388.4473 990.388,-412.3697"/>
<polygon fill="#191970" stroke="#191970" points="987.2078,-413.8384 994.2648,-421.7409 993.6762,-411.1624 987.2078,-413.8384"/>
</g>
<!-- Node1255&#45;&gt;Node1253 -->
<g id="edge25" class="edge">
<title>Node1255&#45;&gt;Node1253</title>
<path fill="none" stroke="#191970" d="M324.3821,-498.2068C331.8594,-521.5745 354.3343,-580.3935 397,-603.4215 445.1069,-629.3863 465.8101,-610.6258 520,-603.4215 644.5897,-586.8578 674.9866,-566.3533 786,-507.4215 810.3727,-494.4831 837.0949,-477.7193 855.523,-465.7267"/>
<polygon fill="#191970" stroke="#191970" points="857.6606,-468.5103 864.1017,-460.0983 853.8206,-462.6576 857.6606,-468.5103"/>
</g>
<!-- Node1256 -->
<g id="node11" class="node">
<title>Node1256</title>
<g id="a_node11"><a xlink:href="libregexp_8c.html#a9cfa82248f8e07e4f79304fb3c51b6ab" target="_top" xlink:title="re_emit_op">
<polygon fill="none" stroke="#000000" points="572,-440.9215 572,-459.9215 637,-459.9215 637,-440.9215 572,-440.9215"/>
<text text-anchor="middle" x="604.5" y="-447.9215" font-family="Helvetica,sans-Serif" font-size="10.00" fill="#000000">re_emit_op</text>
</a>
</g>
</g>
<!-- Node1255&#45;&gt;Node1256 -->
<g id="edge12" class="edge">
<title>Node1255&#45;&gt;Node1256</title>
<path fill="none" stroke="#191970" d="M354.7131,-478.8789C367.7948,-475.4326 383.0099,-471.8075 397,-469.4215 453.5436,-459.778 519.6475,-454.7915 561.7764,-452.3926"/>
<polygon fill="#191970" stroke="#191970" points="562.1559,-455.8772 571.9502,-451.8372 561.7742,-448.8876 562.1559,-455.8772"/>
</g>
<!-- Node1257 -->
<g id="node12" class="node">
<title>Node1257</title>
<g id="a_node12"><a xlink:href="libregexp_8c.html#a0a619a0b3bf0d0ec3aa0a9a59d610e1c" target="_top" xlink:title="__attribute__">
<polygon fill="none" stroke="#000000" points="701,-288.9215 701,-307.9215 774,-307.9215 774,-288.9215 701,-288.9215"/>
<text text-anchor="middle" x="737.5" y="-295.9215" font-family="Helvetica,sans-Serif" font-size="10.00" fill="#000000">__attribute__</text>
</a>
</g>
</g>
<!-- Node1255&#45;&gt;Node1257 -->
<g id="edge14" class="edge">
<title>Node1255&#45;&gt;Node1257</title>
<path fill="none" stroke="#191970" d="M324.3681,-478.8454C331.9515,-455.3008 354.8947,-394.4014 397,-365.4215 492.3571,-299.7898 539.6226,-340.7894 653,-317.4215 665.3107,-314.8842 678.5916,-311.978 690.8964,-309.2144"/>
<polygon fill="#191970" stroke="#191970" points="691.9789,-312.558 700.9601,-306.9377 690.4343,-305.7306 691.9789,-312.558"/>
</g>
<!-- Node1258 -->
<g id="node13" class="node">
<title>Node1258</title>
<g id="a_node13"><a xlink:href="libregexp_8c.html#ab3ca6381d29dea396b12acd7f755c51a" target="_top" xlink:title="is_digit">
<polygon fill="none" stroke="#000000" points="435,-896.9215 435,-915.9215 482,-915.9215 482,-896.9215 435,-896.9215"/>
<text text-anchor="middle" x="458.5" y="-903.9215" font-family="Helvetica,sans-Serif" font-size="10.00" fill="#000000">is_digit</text>
</a>
</g>
</g>
<!-- Node1255&#45;&gt;Node1258 -->
<g id="edge15" class="edge">
<title>Node1255&#45;&gt;Node1258</title>
<path fill="none" stroke="#191970" d="M323.0687,-498.2674C332.6583,-558.2259 383.4092,-872.2068 397,-887.4215 404.1469,-895.4223 414.582,-900.0944 424.8342,-902.8091"/>
<polygon fill="#191970" stroke="#191970" points="424.391,-906.2923 434.8969,-904.9223 425.8297,-899.4418 424.391,-906.2923"/>
</g>
<!-- Node1259 -->
<g id="node14" class="node">
<title>Node1259</title>
<g id="a_node14"><a xlink:href="libregexp_8c.html#aa656000c3344b15eb895e145f9e57c5c" target="_top" xlink:title="parse_digits">
<polygon fill="none" stroke="#000000" points="424,-858.9215 424,-877.9215 493,-877.9215 493,-858.9215 424,-858.9215"/>
<text text-anchor="middle" x="458.5" y="-865.9215" font-family="Helvetica,sans-Serif" font-size="10.00" fill="#000000">parse_digits</text>
</a>
</g>
</g>
<!-- Node1255&#45;&gt;Node1259 -->
<g id="edge16" class="edge">
<title>Node1255&#45;&gt;Node1259</title>
<path fill="none" stroke="#191970" d="M323.0054,-498.1875C331.465,-552.5886 373.5406,-816.7865 397,-844.4215 401.7424,-850.0081 407.9522,-854.3011 414.6006,-857.5984"/>
<polygon fill="#191970" stroke="#191970" points="413.2681,-860.8349 423.8417,-861.5053 415.994,-854.3875 413.2681,-860.8349"/>
</g>
<!-- Node1260 -->
<g id="node15" class="node">
<title>Node1260</title>
<g id="a_node15"><a xlink:href="libregexp_8c.html#a187e89a1f7e63588373701e223deae5d" target="_top" xlink:title="re_parse_expect">
<polygon fill="none" stroke="#000000" points="560,-364.9215 560,-383.9215 649,-383.9215 649,-364.9215 560,-364.9215"/>
<text text-anchor="middle" x="604.5" y="-371.9215" font-family="Helvetica,sans-Serif" font-size="10.00" fill="#000000">re_parse_expect</text>
</a>
</g>
</g>
<!-- Node1255&#45;&gt;Node1260 -->
<g id="edge18" class="edge">
<title>Node1255&#45;&gt;Node1260</title>
<path fill="none" stroke="#191970" d="M326.3529,-478.7385C336.5065,-459.6269 361.9842,-417.2774 397,-398.4215 444.1475,-373.0326 505.9413,-368.9477 549.7991,-370.0373"/>
<polygon fill="#191970" stroke="#191970" points="549.8691,-373.5417 559.9845,-370.3908 550.112,-366.5459 549.8691,-373.5417"/>
</g>
<!-- Node1261 -->
<g id="node16" class="node">
<title>Node1261</title>
<g id="a_node16"><a xlink:href="libregexp_8c.html#a6e0ee9170c3faaca126dbcc40c07aed7" target="_top" xlink:title="re_parse_group_name">
<polygon fill="none" stroke="#ff0000" points="822,-725.9215 822,-744.9215 935,-744.9215 935,-725.9215 822,-725.9215"/>
<text text-anchor="middle" x="878.5" y="-732.9215" font-family="Helvetica,sans-Serif" font-size="10.00" fill="#000000">re_parse_group_name</text>
</a>
</g>
</g>
<!-- Node1255&#45;&gt;Node1261 -->
<g id="edge22" class="edge">
<title>Node1255&#45;&gt;Node1261</title>
<path fill="none" stroke="#191970" d="M323.6856,-497.9978C332.2312,-534.5606 364.515,-664.5534 397,-689.4215 460.3504,-737.9178 694.9304,-739.7644 811.6491,-737.4945"/>
<polygon fill="#191970" stroke="#191970" points="811.9632,-740.9887 821.8872,-737.2788 811.8157,-733.9903 811.9632,-740.9887"/>
</g>
<!-- Node1273 -->
<g id="node17" class="node">
<title>Node1273</title>
<g id="a_node17"><a xlink:href="libregexp_8c.html#aa9d5df50b8660101698d8ac4595ec0ed" target="_top" xlink:title="find_group_name">
<polygon fill="none" stroke="#000000" points="413,-554.9215 413,-573.9215 504,-573.9215 504,-554.9215 413,-554.9215"/>
<text text-anchor="middle" x="458.5" y="-561.9215" font-family="Helvetica,sans-Serif" font-size="10.00" fill="#000000">find_group_name</text>
</a>
</g>
</g>
<!-- Node1255&#45;&gt;Node1273 -->
<g id="edge23" class="edge">
<title>Node1255&#45;&gt;Node1273</title>
<path fill="none" stroke="#191970" d="M331.9468,-498.2112C345.8249,-510.7463 371.5624,-532.3989 397,-545.4215 401.3115,-547.6287 405.926,-549.6332 410.6174,-551.4403"/>
<polygon fill="#191970" stroke="#191970" points="409.6876,-554.8243 420.2823,-554.8742 412.0312,-548.2282 409.6876,-554.8243"/>
</g>
<!-- Node1274 -->
<g id="node18" class="node">
<title>Node1274</title>
<g id="a_node18"><a xlink:href="libregexp_8c.html#a108e0185eb65a399b93d273b6b609da5" target="_top" xlink:title="re_emit_op_u8">
<polygon fill="none" stroke="#000000" points="697.5,-668.9215 697.5,-687.9215 777.5,-687.9215 777.5,-668.9215 697.5,-668.9215"/>
<text text-anchor="middle" x="737.5" y="-675.9215" font-family="Helvetica,sans-Serif" font-size="10.00" fill="#000000">re_emit_op_u8</text>
</a>
</g>
</g>
<!-- Node1255&#45;&gt;Node1274 -->
<g id="edge26" class="edge">
<title>Node1255&#45;&gt;Node1274</title>
<path fill="none" stroke="#191970" d="M322.5391,-498.0535C326.274,-527.4166 341.8763,-616.1275 397,-654.4215 484.0941,-714.9251 615.8055,-702.5693 687.2006,-689.6507"/>
<polygon fill="#191970" stroke="#191970" points="688.1059,-693.0417 697.2841,-687.7492 686.8087,-686.163 688.1059,-693.0417"/>
</g>
<!-- Node1275 -->
<g id="node19" class="node">
<title>Node1275</title>
<g id="a_node19"><a xlink:href="libregexp_8c.html#adc25d27f1e668598f417fb0f07f3281f" target="_top" xlink:title="re_has_named_captures">
<polygon fill="none" stroke="#000000" points="397,-782.9215 397,-801.9215 520,-801.9215 520,-782.9215 397,-782.9215"/>
<text text-anchor="middle" x="458.5" y="-789.9215" font-family="Helvetica,sans-Serif" font-size="10.00" fill="#000000">re_has_named_captures</text>
</a>
</g>
</g>
<!-- Node1255&#45;&gt;Node1275 -->
<g id="edge28" class="edge">
<title>Node1255&#45;&gt;Node1275</title>
<path fill="none" stroke="#191970" d="M322.9342,-498.1852C329.6513,-542.7343 359.2676,-726.3478 397,-768.4215 400.4507,-772.2692 404.5939,-775.506 409.0786,-778.2278"/>
<polygon fill="#191970" stroke="#191970" points="407.5406,-781.3727 418.0316,-782.8523 410.7532,-775.1533 407.5406,-781.3727"/>
</g>
<!-- Node1276 -->
<g id="node20" class="node">
<title>Node1276</title>
<g id="a_node20"><a xlink:href="libregexp_8c.html#a88ae24975d089263922d36934da51581" target="_top" xlink:title="re_count_captures">
<polygon fill="none" stroke="#000000" points="556,-763.9215 556,-782.9215 653,-782.9215 653,-763.9215 556,-763.9215"/>
<text text-anchor="middle" x="604.5" y="-770.9215" font-family="Helvetica,sans-Serif" font-size="10.00" fill="#000000">re_count_captures</text>
</a>
</g>
</g>
<!-- Node1255&#45;&gt;Node1276 -->
<g id="edge33" class="edge">
<title>Node1255&#45;&gt;Node1276</title>
<path fill="none" stroke="#191970" d="M323.1766,-498.0798C330.4725,-539.0073 360.7229,-697.5386 397,-730.4215 418.5105,-749.9194 492.367,-761.7197 545.8492,-767.9028"/>
<polygon fill="#191970" stroke="#191970" points="545.5894,-771.3955 555.9165,-769.0289 546.3675,-764.4389 545.5894,-771.3955"/>
</g>
<!-- Node1277 -->
<g id="node21" class="node">
<title>Node1277</title>
<g id="a_node21"><a xlink:href="libregexp_8c.html#abe49cc9b1bcf935c4c8cfcbc932cb407" target="_top" xlink:title="re_parse_captures">
<polygon fill="none" stroke="#000000" points="689,-763.9215 689,-782.9215 786,-782.9215 786,-763.9215 689,-763.9215"/>
<text text-anchor="middle" x="737.5" y="-770.9215" font-family="Helvetica,sans-Serif" font-size="10.00" fill="#000000">re_parse_captures</text>
</a>
</g>
</g>
<!-- Node1255&#45;&gt;Node1277 -->
<g id="edge32" class="edge">
<title>Node1255&#45;&gt;Node1277</title>
<path fill="none" stroke="#191970" d="M323.0343,-498.0947C331.3122,-549.6966 371.2265,-790.9777 397,-811.4215 491.2201,-886.1578 649.0015,-819.1411 711.1754,-787.6618"/>
<polygon fill="#191970" stroke="#191970" points="713.0317,-790.6422 720.3086,-782.9418 709.8179,-784.4236 713.0317,-790.6422"/>
</g>
<!-- Node1278 -->
<g id="node22" class="node">
<title>Node1278</title>
<g id="a_node22"><a xlink:href="libregexp_8c.html#ab2f98b8a2e66fd9197d2677f47ccffa8" target="_top" xlink:title="re_parse_char_class">
<polygon fill="none" stroke="#ff0000" points="405,-250.9215 405,-269.9215 512,-269.9215 512,-250.9215 405,-250.9215"/>
<text text-anchor="middle" x="458.5" y="-257.9215" font-family="Helvetica,sans-Serif" font-size="10.00" fill="#000000">re_parse_char_class</text>
</a>
</g>
</g>
<!-- Node1255&#45;&gt;Node1278 -->
<g id="edge34" class="edge">
<title>Node1255&#45;&gt;Node1278</title>
<path fill="none" stroke="#191970" d="M322.3106,-478.8563C325.5196,-446.8614 340.095,-342.337 397,-284.4215 400.8657,-280.4871 405.4514,-277.1838 410.3498,-274.4133"/>
<polygon fill="#191970" stroke="#191970" points="411.9699,-277.5172 419.4165,-269.9808 408.8954,-271.2285 411.9699,-277.5172"/>
</g>
<!-- Node1280 -->
<g id="node23" class="node">
<title>Node1280</title>
<g id="a_node23"><a xlink:href="libunicode_8c.html#a32dd1af21800853555eaa260ddffeff4" target="_top" xlink:title="cr_free">
<polygon fill="none" stroke="#000000" points="581,-155.9215 581,-174.9215 628,-174.9215 628,-155.9215 581,-155.9215"/>
<text text-anchor="middle" x="604.5" y="-162.9215" font-family="Helvetica,sans-Serif" font-size="10.00" fill="#000000">cr_free</text>
</a>
</g>
</g>
<!-- Node1255&#45;&gt;Node1280 -->
<g id="edge47" class="edge">
<title>Node1255&#45;&gt;Node1280</title>
<path fill="none" stroke="#191970" d="M323.1433,-478.8348C331.8176,-428.7523 372.7949,-198.695 397,-178.4215 445.7758,-137.5683 525.759,-146.8109 570.8488,-156.5308"/>
<polygon fill="#191970" stroke="#191970" points="570.1906,-159.9706 580.7192,-158.7874 571.7508,-153.1466 570.1906,-159.9706"/>
</g>
<!-- Node1292 -->
<g id="node24" class="node">
<title>Node1292</title>
<g id="a_node24"><a xlink:href="libregexp_8c.html#ac654c01af0eedad21af5da6e5035f37c" target="_top" xlink:title="get_class_atom">
<polygon fill="none" stroke="#ff0000" points="561.5,-288.9215 561.5,-307.9215 647.5,-307.9215 647.5,-288.9215 561.5,-288.9215"/>
<text text-anchor="middle" x="604.5" y="-295.9215" font-family="Helvetica,sans-Serif" font-size="10.00" fill="#000000">get_class_atom</text>
</a>
</g>
</g>
<!-- Node1255&#45;&gt;Node1292 -->
<g id="edge45" class="edge">
<title>Node1255&#45;&gt;Node1292</title>
<path fill="none" stroke="#191970" d="M322.6163,-478.898C326.5735,-449.8473 342.7475,-361.9401 397,-322.4215 441.3264,-290.1332 505.6887,-287.6163 550.9494,-290.965"/>
<polygon fill="#191970" stroke="#191970" points="550.8968,-294.4733 561.1599,-291.843 551.4965,-287.499 550.8968,-294.4733"/>
</g>
<!-- Node1306 -->
<g id="node25" class="node">
<title>Node1306</title>
<g id="a_node25"><a xlink:href="libregexp_8c.html#a889cced8db78de00f11774dc8210874d" target="_top" xlink:title="re_emit_range">
<polygon fill="none" stroke="#ff0000" points="565.5,-212.9215 565.5,-231.9215 643.5,-231.9215 643.5,-212.9215 565.5,-212.9215"/>
<text text-anchor="middle" x="604.5" y="-219.9215" font-family="Helvetica,sans-Serif" font-size="10.00" fill="#000000">re_emit_range</text>
</a>
</g>
</g>
<!-- Node1255&#45;&gt;Node1306 -->
<g id="edge46" class="edge">
<title>Node1255&#45;&gt;Node1306</title>
<path fill="none" stroke="#191970" d="M322.5121,-478.748C327.5205,-432.9437 351.2638,-238.6193 397,-203.4215 449.3723,-163.1167 532.6645,-190.011 576.0774,-208.7215"/>
<polygon fill="#191970" stroke="#191970" points="574.6538,-211.9188 585.2124,-212.7937 577.5039,-205.5253 574.6538,-211.9188"/>
</g>
<!-- Node1308 -->
<g id="node26" class="node">
<title>Node1308</title>
<g id="a_node26"><a xlink:href="libregexp_8c.html#a0b36775d2caea480692fc53522db875b" target="_top" xlink:title="re_emit_op_u16">
<polygon fill="none" stroke="#ff0000" points="694.5,-478.9215 694.5,-497.9215 780.5,-497.9215 780.5,-478.9215 694.5,-478.9215"/>
<text text-anchor="middle" x="737.5" y="-485.9215" font-family="Helvetica,sans-Serif" font-size="10.00" fill="#000000">re_emit_op_u16</text>
</a>
</g>
</g>
<!-- Node1255&#45;&gt;Node1308 -->
<g id="edge49" class="edge">
<title>Node1255&#45;&gt;Node1308</title>
<path fill="none" stroke="#191970" d="M325.5853,-498.0492C334.8129,-518.3767 359.4328,-565.2913 397,-583.4215 446.2331,-607.1817 466.4881,-594.5982 520,-583.4215 593.9955,-567.9665 673.6325,-525.8762 712.8262,-503.2617"/>
<polygon fill="#191970" stroke="#191970" points="715.0262,-506.0297 721.8913,-497.9599 711.4922,-499.9873 715.0262,-506.0297"/>
</g>
<!-- Node1309 -->
<g id="node27" class="node">
<title>Node1309</title>
<g id="a_node27"><a xlink:href="libregexp_8c.html#aa10efbd91b18637bccff3b8075a0d9a1" target="_top" xlink:title="lre_canonicalize">
<polygon fill="none" stroke="#ff0000" points="415.5,-516.9215 415.5,-535.9215 501.5,-535.9215 501.5,-516.9215 415.5,-516.9215"/>
<text text-anchor="middle" x="458.5" y="-523.9215" font-family="Helvetica,sans-Serif" font-size="10.00" fill="#000000">lre_canonicalize</text>
</a>
</g>
</g>
<!-- Node1255&#45;&gt;Node1309 -->
<g id="edge48" class="edge">
<title>Node1255&#45;&gt;Node1309</title>
<path fill="none" stroke="#191970" d="M356.0709,-498.0105C373.6752,-502.8934 395.2793,-508.8858 414.101,-514.1064"/>
<polygon fill="#191970" stroke="#191970" points="413.3685,-517.5353 423.9402,-516.8355 415.2395,-510.79 413.3685,-517.5353"/>
</g>
<!-- Node1311 -->
<g id="node28" class="node">
<title>Node1311</title>
<g id="a_node28"><a xlink:href="libregexp_8c.html#a5607046a903afaa790c57e87ea2e6fd9" target="_top" xlink:title="re_is_simple_quantifier">
<polygon fill="none" stroke="#ff0000" points="400.5,-478.9215 400.5,-497.9215 516.5,-497.9215 516.5,-478.9215 400.5,-478.9215"/>
<text text-anchor="middle" x="458.5" y="-485.9215" font-family="Helvetica,sans-Serif" font-size="10.00" fill="#000000">re_is_simple_quantifier</text>
</a>
</g>
</g>
<!-- Node1255&#45;&gt;Node1311 -->
<g id="edge50" class="edge">
<title>Node1255&#45;&gt;Node1311</title>
<path fill="none" stroke="#191970" d="M361.1261,-488.4215C370.2172,-488.4215 380.1388,-488.4215 390.0587,-488.4215"/>
<polygon fill="#191970" stroke="#191970" points="390.3609,-491.9216 400.3609,-488.4215 390.3608,-484.9216 390.3609,-491.9216"/>
</g>
<!-- Node1313 -->
<g id="node29" class="node">
<title>Node1313</title>
<g id="a_node29"><a xlink:href="libregexp_8c.html#ad7f2d2a438d99f72a2f3609d1c71e5b1" target="_top" xlink:title="re_check_advance">
<polygon fill="none" stroke="#ff0000" points="409.5,-212.9215 409.5,-231.9215 507.5,-231.9215 507.5,-212.9215 409.5,-212.9215"/>
<text text-anchor="middle" x="458.5" y="-219.9215" font-family="Helvetica,sans-Serif" font-size="10.00" fill="#000000">re_check_advance</text>
</a>
</g>
</g>
<!-- Node1255&#45;&gt;Node1313 -->
<g id="edge52" class="edge">
<title>Node1255&#45;&gt;Node1313</title>
<path fill="none" stroke="#191970" d="M323.2309,-478.6543C330.7488,-437.2523 361.7787,-276.7483 397,-241.4215 398.4498,-239.9673 400.0083,-238.624 401.6525,-237.3832"/>
<polygon fill="#191970" stroke="#191970" points="403.769,-240.1918 410.4802,-231.9936 400.1213,-234.2173 403.769,-240.1918"/>
</g>
<!-- Node1314 -->
<g id="node30" class="node">
<title>Node1314</title>
<g id="a_node30"><a xlink:href="libregexp_8c.html#ae6b5e2d5d49def829e7f5a8d390b79cd" target="_top" xlink:title="re_emit_goto">
<polygon fill="none" stroke="#000000" points="701,-402.9215 701,-421.9215 774,-421.9215 774,-402.9215 701,-402.9215"/>
<text text-anchor="middle" x="737.5" y="-409.9215" font-family="Helvetica,sans-Serif" font-size="10.00" fill="#000000">re_emit_goto</text>
</a>
</g>
</g>
<!-- Node1255&#45;&gt;Node1314 -->
<g id="edge53" class="edge">
<title>Node1255&#45;&gt;Node1314</title>
<path fill="none" stroke="#191970" d="M336.4617,-478.9191C351.2438,-470.0169 374.8002,-457.1094 397,-450.4215 498.6348,-419.8029 624.031,-413.4066 690.6746,-412.341"/>
<polygon fill="#191970" stroke="#191970" points="690.8982,-415.8385 700.8534,-412.2128 690.8101,-408.8391 690.8982,-415.8385"/>
</g>
<!-- Node1256&#45;&gt;Node1253 -->
<g id="edge13" class="edge">
<title>Node1256&#45;&gt;Node1253</title>
<path fill="none" stroke="#191970" d="M637.0074,-450.4215C687.3755,-450.4215 784.1371,-450.4215 838.6439,-450.4215"/>
<polygon fill="#191970" stroke="#191970" points="838.9556,-453.9216 848.9556,-450.4215 838.9555,-446.9216 838.9556,-453.9216"/>
</g>
<!-- Node1260&#45;&gt;Node1257 -->
<g id="edge19" class="edge">
<title>Node1260&#45;&gt;Node1257</title>
<path fill="none" stroke="#191970" d="M625.0093,-364.7907C633.7327,-360.5615 643.9588,-355.4265 653,-350.4215 674.1079,-338.7366 697.4129,-324.2722 714.1924,-313.5674"/>
<polygon fill="#191970" stroke="#191970" points="716.2639,-316.3967 722.7876,-308.0486 712.4818,-310.5064 716.2639,-316.3967"/>
</g>
<!-- Node1274&#45;&gt;Node1253 -->
<g id="edge27" class="edge">
<title>Node1274&#45;&gt;Node1253</title>
<path fill="none" stroke="#191970" d="M764.8185,-668.9028C772.3841,-665.2714 780.1232,-660.5004 786,-654.4215 838.7579,-599.8489 864.8389,-509.8994 874.2524,-470.2465"/>
<polygon fill="#191970" stroke="#191970" points="877.7184,-470.788 876.5183,-460.2613 870.892,-469.2388 877.7184,-470.788"/>
</g>
<!-- Node1275&#45;&gt;Node1276 -->
<g id="edge29" class="edge">
<title>Node1275&#45;&gt;Node1276</title>
<path fill="none" stroke="#191970" d="M520.4171,-784.3638C528.8157,-783.2708 537.4146,-782.1518 545.7552,-781.0664"/>
<polygon fill="#191970" stroke="#191970" points="546.3053,-784.5244 555.77,-779.7631 545.4019,-777.5829 546.3053,-784.5244"/>
</g>
<!-- Node1276&#45;&gt;Node1277 -->
<g id="edge30" class="edge">
<title>Node1276&#45;&gt;Node1277</title>
<path fill="none" stroke="#191970" d="M653.2691,-773.4215C661.4913,-773.4215 670.1037,-773.4215 678.5514,-773.4215"/>
<polygon fill="#191970" stroke="#191970" points="678.7368,-776.9216 688.7368,-773.4215 678.7368,-769.9216 678.7368,-776.9216"/>
</g>
<!-- Node1277&#45;&gt;Node1261 -->
<g id="edge31" class="edge">
<title>Node1277&#45;&gt;Node1261</title>
<path fill="none" stroke="#191970" d="M773.0803,-763.8325C791.282,-758.927 813.6384,-752.9019 833.0723,-747.6644"/>
<polygon fill="#191970" stroke="#191970" points="834.1864,-750.9891 842.9311,-745.0074 832.3648,-744.2303 834.1864,-750.9891"/>
</g>
<!-- Node1278&#45;&gt;Node1257 -->
<g id="edge35" class="edge">
<title>Node1278&#45;&gt;Node1257</title>
<path fill="none" stroke="#191970" d="M512.391,-263.8859C551.5605,-266.8409 605.7669,-271.8341 653,-279.4215 665.2944,-281.3964 678.4771,-284.0818 690.6867,-286.8114"/>
<polygon fill="#191970" stroke="#191970" points="690.144,-290.2777 700.6731,-289.1 691.7077,-283.4546 690.144,-290.2777"/>
</g>
<!-- Node1278&#45;&gt;Node1280 -->
<g id="edge36" class="edge">
<title>Node1278&#45;&gt;Node1280</title>
<path fill="none" stroke="#191970" d="M499.8161,-250.8767C506.8291,-248.3673 513.8305,-245.2554 520,-241.4215 539.7598,-229.1421 538.7966,-219.0828 556,-203.4215 564.5428,-195.6444 574.5096,-187.6661 583.1784,-181.0404"/>
<polygon fill="#191970" stroke="#191970" points="585.4246,-183.7305 591.3138,-174.9232 581.2177,-178.1357 585.4246,-183.7305"/>
</g>
<!-- Node1278&#45;&gt;Node1292 -->
<g id="edge37" class="edge">
<title>Node1278&#45;&gt;Node1292</title>
<path fill="none" stroke="#191970" d="M495.342,-270.0105C514.3479,-274.9572 537.7286,-281.0426 557.9692,-286.3107"/>
<polygon fill="#191970" stroke="#191970" points="557.3638,-289.7697 567.923,-288.9014 559.127,-282.9954 557.3638,-289.7697"/>
</g>
<!-- Node1278&#45;&gt;Node1306 -->
<g id="edge39" class="edge">
<title>Node1278&#45;&gt;Node1306</title>
<path fill="none" stroke="#191970" d="M495.342,-250.8325C514.3479,-245.8857 537.7286,-239.8004 557.9692,-234.5323"/>
<polygon fill="#191970" stroke="#191970" points="559.127,-237.8476 567.923,-231.9415 557.3638,-231.0733 559.127,-237.8476"/>
</g>
<!-- Node1292&#45;&gt;Node1257 -->
<g id="edge38" class="edge">
<title>Node1292&#45;&gt;Node1257</title>
<path fill="none" stroke="#191970" d="M647.6813,-298.4215C661.3414,-298.4215 676.5045,-298.4215 690.4233,-298.4215"/>
<polygon fill="#191970" stroke="#191970" points="690.779,-301.9216 700.7789,-298.4215 690.7789,-294.9216 690.779,-301.9216"/>
</g>
<!-- Node1306&#45;&gt;Node1250 -->
<g id="edge44" class="edge">
<title>Node1306&#45;&gt;Node1250</title>
<path fill="none" stroke="#191970" d="M643.685,-222.4215C656.3855,-222.4215 670.6949,-222.4215 684.2404,-222.4215"/>
<polygon fill="#191970" stroke="#191970" points="684.4106,-225.9216 694.4106,-222.4215 684.4105,-218.9216 684.4106,-225.9216"/>
</g>
<!-- Node1306&#45;&gt;Node1251 -->
<g id="edge41" class="edge">
<title>Node1306&#45;&gt;Node1251</title>
<path fill="none" stroke="#191970" d="M643.7737,-231.7399C681.252,-241.327 738.8297,-257.8865 786,-279.4215 811.4256,-291.0292 838.4067,-308.2952 856.6249,-320.7809"/>
<polygon fill="#191970" stroke="#191970" points="855.0917,-323.978 865.2985,-326.819 859.0911,-318.2331 855.0917,-323.978"/>
</g>
<!-- Node1306&#45;&gt;Node1257 -->
<g id="edge40" class="edge">
<title>Node1306&#45;&gt;Node1257</title>
<path fill="none" stroke="#191970" d="M626.2518,-232.0341C634.7991,-236.1051 644.5642,-241.1294 653,-246.4215 670.1707,-257.1933 671.8293,-263.6497 689,-274.4215 694.536,-277.8944 700.6445,-281.252 706.6056,-284.3006"/>
<polygon fill="#191970" stroke="#191970" points="705.2314,-287.5253 715.7482,-288.8089 708.3273,-281.2471 705.2314,-287.5253"/>
</g>
<!-- Node1306&#45;&gt;Node1308 -->
<g id="edge42" class="edge">
<title>Node1306&#45;&gt;Node1308</title>
<path fill="none" stroke="#191970" d="M615.4685,-232.2376C626.5942,-242.8054 643.49,-260.6431 653,-279.4215 684.3658,-341.3564 657.6342,-369.4865 689,-431.4215 696.5783,-446.3855 708.8466,-460.7522 719.1478,-471.3188"/>
<polygon fill="#191970" stroke="#191970" points="716.9553,-474.0724 726.5315,-478.6054 721.8722,-469.09 716.9553,-474.0724"/>
</g>
<!-- Node1308&#45;&gt;Node1253 -->
<g id="edge43" class="edge">
<title>Node1308&#45;&gt;Node1253</title>
<path fill="none" stroke="#191970" d="M773.0803,-478.8325C793.1316,-473.4286 818.2249,-466.6658 838.8989,-461.0941"/>
<polygon fill="#191970" stroke="#191970" points="839.9067,-464.4475 848.6514,-458.4658 838.0851,-457.6886 839.9067,-464.4475"/>
</g>
<!-- Node1314&#45;&gt;Node1251 -->
<g id="edge54" class="edge">
<title>Node1314&#45;&gt;Node1251</title>
<path fill="none" stroke="#191970" d="M755.3577,-402.796C779.7251,-389.6618 823.5861,-366.0204 851.8505,-350.7857"/>
<polygon fill="#191970" stroke="#191970" points="853.6452,-353.7945 860.7872,-345.9688 850.3239,-347.6326 853.6452,-353.7945"/>
</g>
<!-- Node1314&#45;&gt;Node1253 -->
<g id="edge55" class="edge">
<title>Node1314&#45;&gt;Node1253</title>
<path fill="none" stroke="#191970" d="M773.0803,-422.0105C793.1316,-427.4144 818.2249,-434.1771 838.8989,-439.7488"/>
<polygon fill="#191970" stroke="#191970" points="838.0851,-443.1543 848.6514,-442.3772 839.9067,-436.3955 838.0851,-443.1543"/>
</g>
</g>
</svg>
