<?xml version="1.0" encoding="UTF-8" standalone="no"?>
<!DOCTYPE svg PUBLIC "-//W3C//DTD SVG 1.1//EN"
 "http://www.w3.org/Graphics/SVG/1.1/DTD/svg11.dtd">
<!-- Generated by graphviz version 2.40.1 (20161225.0304)
 -->
<!-- Title: is_digit Pages: 1 -->
<!--zoomable 251 -->
<svg id="main" version="1.1" xmlns="http://www.w3.org/2000/svg" xmlns:xlink="http://www.w3.org/1999/xlink" xml:space="preserve" onload="init(evt)">
<style type="text/css"><![CDATA[
.edge:hover path { stroke: red; }
.edge:hover polygon { stroke: red; fill: red; }
]]></style>
<script type="text/javascript"><![CDATA[
var edges = document.getElementsByTagName('g');
if (edges && edges.length) {
  for (var i=0;i<edges.length;i++) {
    if (edges[i].id.substr(0,4)=='edge') {
      edges[i].setAttribute('class','edge');
    }
  }
}
]]></script>
        <defs>
                <circle id="rim" cx="0" cy="0" r="7"/>
                <circle id="rim2" cx="0" cy="0" r="3.5"/>
                <g id="zoomPlus">
                        <use xlink:href="#rim" fill="#404040">
                                <set attributeName="fill" to="#808080" begin="zoomplus.mouseover" end="zoomplus.mouseout"/>
                        </use>
                        <path d="M-4,0h8M0,-4v8" fill="none" stroke="white" stroke-width="1.5" pointer-events="none"/>
                </g>
                <g id="zoomMin">
                        <use xlink:href="#rim" fill="#404040">
                                <set attributeName="fill" to="#808080" begin="zoomminus.mouseover" end="zoomminus.mouseout"/>
                        </use>
                        <path d="M-4,0h8" fill="none" stroke="white" stroke-width="1.5" pointer-events="none"/>
                </g>
                <g id="dirArrow">
                        <path fill="none" stroke="white" stroke-width="1.5" d="M0,-3.0v7 M-2.5,-0.5L0,-3.0L2.5,-0.5"/>
                </g>
               <g id="resetDef">
                       <use xlink:href="#rim2" fill="#404040">
                               <set attributeName="fill" to="#808080" begin="reset.mouseover" end="reset.mouseout"/>
                       </use>
               </g>
        </defs>

<script type="text/javascript">
var viewWidth = 608;
var viewHeight = 251;
var sectionId = 'dynsection-1';
</script>
<script xlink:href="svgpan.js"/>
<svg id="graph" class="graph">
<g id="viewport">
<title>is_digit</title>
<!-- Node1 -->
<g id="node1" class="node">
<title>Node1</title>
<polygon fill="#bfbfbf" stroke="#000000" points="0,-47.5383 0,-66.5383 47,-66.5383 47,-47.5383 0,-47.5383"/>
<text text-anchor="middle" x="23.5" y="-54.5383" font-family="Helvetica,sans-Serif" font-size="10.00" fill="#000000">is_digit</text>
</g>
<!-- Node2 -->
<g id="node2" class="node">
<title>Node2</title>
<g id="a_node2"><a xlink:href="libregexp_8h.html#adca92c15688d39a0e06cd92f870d25d2" target="_top" xlink:title="lre_parse_escape">
<polygon fill="none" stroke="#000000" points="83,-142.5383 83,-161.5383 176,-161.5383 176,-142.5383 83,-142.5383"/>
<text text-anchor="middle" x="129.5" y="-149.5383" font-family="Helvetica,sans-Serif" font-size="10.00" fill="#000000">lre_parse_escape</text>
</a>
</g>
</g>
<!-- Node1&#45;&gt;Node2 -->
<g id="edge1" class="edge">
<title>Node1&#45;&gt;Node2</title>
<path fill="none" stroke="#191970" d="M41.9173,-73.5444C64.1328,-93.4545 100.7361,-126.2594 118.7728,-142.4243"/>
<polygon fill="#191970" stroke="#191970" points="44.2275,-70.9149 34.4446,-66.8472 39.5556,-76.1278 44.2275,-70.9149"/>
</g>
<!-- Node5 -->
<g id="node5" class="node">
<title>Node5</title>
<g id="a_node5"><a xlink:href="libregexp_8c.html#acca34590a18d70f866ad56d67ce309e8" target="_top" xlink:title="re_parse_term">
<polygon fill="none" stroke="#ff0000" points="512.5,-66.5383 512.5,-85.5383 591.5,-85.5383 591.5,-66.5383 512.5,-66.5383"/>
<text text-anchor="middle" x="552" y="-73.5383" font-family="Helvetica,sans-Serif" font-size="10.00" fill="#000000">re_parse_term</text>
</a>
</g>
</g>
<!-- Node1&#45;&gt;Node5 -->
<g id="edge17" class="edge">
<title>Node1&#45;&gt;Node5</title>
<path fill="none" stroke="#191970" d="M57.1876,-45.7103C132.6481,-22.1381 320.2163,26.369 468,-19.0383 498.3239,-28.3555 527.5331,-52.7503 542.2035,-66.4136"/>
<polygon fill="#191970" stroke="#191970" points="55.7664,-42.4895 47.2996,-48.8585 57.8902,-49.1596 55.7664,-42.4895"/>
</g>
<!-- Node3 -->
<g id="node3" class="node">
<title>Node3</title>
<g id="a_node3"><a xlink:href="libregexp_8c.html#ac654c01af0eedad21af5da6e5035f37c" target="_top" xlink:title="get_class_atom">
<polygon fill="none" stroke="#000000" points="225.5,-123.5383 225.5,-142.5383 311.5,-142.5383 311.5,-123.5383 225.5,-123.5383"/>
<text text-anchor="middle" x="268.5" y="-130.5383" font-family="Helvetica,sans-Serif" font-size="10.00" fill="#000000">get_class_atom</text>
</a>
</g>
</g>
<!-- Node2&#45;&gt;Node3 -->
<g id="edge2" class="edge">
<title>Node2&#45;&gt;Node3</title>
<path fill="none" stroke="#191970" d="M186.4571,-144.2528C199.4904,-142.4713 213.1325,-140.6066 225.467,-138.9205"/>
<polygon fill="#191970" stroke="#191970" points="185.6055,-140.8366 176.1717,-145.6588 186.5536,-147.7721 185.6055,-140.8366"/>
</g>
<!-- Node15 -->
<g id="node6" class="node">
<title>Node15</title>
<g id="a_node6"><a xlink:href="libregexp_8c.html#a6e0ee9170c3faaca126dbcc40c07aed7" target="_top" xlink:title="re_parse_group_name">
<polygon fill="none" stroke="#000000" points="212,-66.5383 212,-85.5383 325,-85.5383 325,-66.5383 212,-66.5383"/>
<text text-anchor="middle" x="268.5" y="-73.5383" font-family="Helvetica,sans-Serif" font-size="10.00" fill="#000000">re_parse_group_name</text>
</a>
</g>
</g>
<!-- Node2&#45;&gt;Node15 -->
<g id="edge6" class="edge">
<title>Node2&#45;&gt;Node15</title>
<path fill="none" stroke="#191970" d="M155.9377,-137.5832C183.8621,-122.3151 227.0932,-98.678 251.0385,-85.5856"/>
<polygon fill="#191970" stroke="#191970" points="154.1995,-134.5445 147.1044,-142.4129 157.5577,-140.6864 154.1995,-134.5445"/>
</g>
<!-- Node19 -->
<g id="node8" class="node">
<title>Node19</title>
<g id="a_node8"><a xlink:href="quickjs_8c.html#ace438176f9f0e0fea6d6f5cdffb1577e" target="_top" xlink:title="js_parse_string">
<polygon fill="none" stroke="#000000" points="227,-161.5383 227,-180.5383 310,-180.5383 310,-161.5383 227,-161.5383"/>
<text text-anchor="middle" x="268.5" y="-168.5383" font-family="Helvetica,sans-Serif" font-size="10.00" fill="#000000">js_parse_string</text>
</a>
</g>
</g>
<!-- Node2&#45;&gt;Node19 -->
<g id="edge10" class="edge">
<title>Node2&#45;&gt;Node19</title>
<path fill="none" stroke="#191970" d="M186.3689,-159.8118C199.9194,-161.664 214.1328,-163.6069 226.8543,-165.3458"/>
<polygon fill="#191970" stroke="#191970" points="186.5536,-156.3046 176.1717,-158.4179 185.6055,-163.2401 186.5536,-156.3046"/>
</g>
<!-- Node20 -->
<g id="node9" class="node">
<title>Node20</title>
<g id="a_node9"><a xlink:href="quickjs_8c.html#a75a3798e2045f6e403c1ef467126d1fb" target="_top" xlink:title="next_token">
<polygon fill="none" stroke="#ff0000" points="382,-218.5383 382,-237.5383 447,-237.5383 447,-218.5383 382,-218.5383"/>
<text text-anchor="middle" x="414.5" y="-225.5383" font-family="Helvetica,sans-Serif" font-size="10.00" fill="#000000">next_token</text>
</a>
</g>
</g>
<!-- Node2&#45;&gt;Node20 -->
<g id="edge16" class="edge">
<title>Node2&#45;&gt;Node20</title>
<path fill="none" stroke="#191970" d="M142.2424,-169.8819C156.715,-188.4519 182.2239,-216.4136 212,-228.0383 268.492,-250.093 340.7962,-242.4256 381.9533,-235.0774"/>
<polygon fill="#191970" stroke="#191970" points="144.8547,-167.5317 136.0538,-161.6329 139.2553,-171.7325 144.8547,-167.5317"/>
</g>
<!-- Node64 -->
<g id="node11" class="node">
<title>Node64</title>
<g id="a_node11"><a xlink:href="quickjs_8c.html#ad91865d0889d1420e3e70d5d497a9bdb" target="_top" xlink:title="parse_ident">
<polygon fill="none" stroke="#000000" points="235,-199.5383 235,-218.5383 302,-218.5383 302,-199.5383 235,-199.5383"/>
<text text-anchor="middle" x="268.5" y="-206.5383" font-family="Helvetica,sans-Serif" font-size="10.00" fill="#000000">parse_ident</text>
</a>
</g>
</g>
<!-- Node2&#45;&gt;Node64 -->
<g id="edge14" class="edge">
<title>Node2&#45;&gt;Node64</title>
<path fill="none" stroke="#191970" d="M158.1047,-166.1326C173.8324,-173.648 193.7946,-182.8086 212,-190.0383 220.3678,-193.3614 229.5735,-196.6201 238.0812,-199.4746"/>
<polygon fill="#191970" stroke="#191970" points="159.4402,-162.8909 148.9127,-161.6978 156.3984,-169.1955 159.4402,-162.8909"/>
</g>
<!-- Node4 -->
<g id="node4" class="node">
<title>Node4</title>
<g id="a_node4"><a xlink:href="libregexp_8c.html#ab2f98b8a2e66fd9197d2677f47ccffa8" target="_top" xlink:title="re_parse_char_class">
<polygon fill="none" stroke="#000000" points="361,-142.5383 361,-161.5383 468,-161.5383 468,-142.5383 361,-142.5383"/>
<text text-anchor="middle" x="414.5" y="-149.5383" font-family="Helvetica,sans-Serif" font-size="10.00" fill="#000000">re_parse_char_class</text>
</a>
</g>
</g>
<!-- Node3&#45;&gt;Node4 -->
<g id="edge3" class="edge">
<title>Node3&#45;&gt;Node4</title>
<path fill="none" stroke="#191970" d="M321.5663,-139.9442C334.378,-141.6115 348.0768,-143.3942 360.9123,-145.0646"/>
<polygon fill="#191970" stroke="#191970" points="321.8832,-136.456 311.5152,-138.6362 320.9798,-143.3975 321.8832,-136.456"/>
</g>
<!-- Node3&#45;&gt;Node5 -->
<g id="edge5" class="edge">
<title>Node3&#45;&gt;Node5</title>
<path fill="none" stroke="#191970" d="M321.5244,-122.3773C376.8656,-111.2506 462.383,-94.0566 512.2073,-84.039"/>
<polygon fill="#191970" stroke="#191970" points="320.6714,-118.9787 311.5575,-124.3813 322.0513,-125.8414 320.6714,-118.9787"/>
</g>
<!-- Node4&#45;&gt;Node5 -->
<g id="edge4" class="edge">
<title>Node4&#45;&gt;Node5</title>
<path fill="none" stroke="#191970" d="M446.8189,-138.3715C453.8843,-135.1543 461.2619,-131.6151 468,-128.0383 493.2996,-114.6088 521.3375,-96.5719 537.7748,-85.6538"/>
<polygon fill="#191970" stroke="#191970" points="445.1811,-135.2694 437.4674,-142.5323 448.0267,-141.6649 445.1811,-135.2694"/>
</g>
<!-- Node15&#45;&gt;Node5 -->
<g id="edge9" class="edge">
<title>Node15&#45;&gt;Node5</title>
<path fill="none" stroke="#191970" d="M335.2028,-76.0383C390.2173,-76.0383 466.4245,-76.0383 512.2949,-76.0383"/>
<polygon fill="#191970" stroke="#191970" points="335.1891,-72.5384 325.1891,-76.0383 335.189,-79.5384 335.1891,-72.5384"/>
</g>
<!-- Node16 -->
<g id="node7" class="node">
<title>Node16</title>
<g id="a_node7"><a xlink:href="libregexp_8c.html#abe49cc9b1bcf935c4c8cfcbc932cb407" target="_top" xlink:title="re_parse_captures">
<polygon fill="none" stroke="#ff0000" points="366,-28.5383 366,-47.5383 463,-47.5383 463,-28.5383 366,-28.5383"/>
<text text-anchor="middle" x="414.5" y="-35.5383" font-family="Helvetica,sans-Serif" font-size="10.00" fill="#000000">re_parse_captures</text>
</a>
</g>
</g>
<!-- Node15&#45;&gt;Node16 -->
<g id="edge7" class="edge">
<title>Node15&#45;&gt;Node16</title>
<path fill="none" stroke="#191970" d="M315.036,-63.9262C335.3696,-58.6339 358.8713,-52.517 377.923,-47.5584"/>
<polygon fill="#191970" stroke="#191970" points="314.1379,-60.5433 305.342,-66.4493 315.9012,-67.3176 314.1379,-60.5433"/>
</g>
<!-- Node16&#45;&gt;Node5 -->
<g id="edge8" class="edge">
<title>Node16&#45;&gt;Node5</title>
<path fill="none" stroke="#191970" d="M459.0729,-50.3567C477.9645,-55.5776 499.6472,-61.5699 517.314,-66.4524"/>
<polygon fill="#191970" stroke="#191970" points="459.7681,-46.9177 449.1971,-47.6273 457.9034,-53.6647 459.7681,-46.9177"/>
</g>
<!-- Node19&#45;&gt;Node20 -->
<g id="edge11" class="edge">
<title>Node19&#45;&gt;Node20</title>
<path fill="none" stroke="#191970" d="M307.8428,-183.8337C313.6224,-185.8392 319.484,-187.9434 325,-190.0383 348.6714,-199.0284 375.3303,-210.5295 393.3487,-218.5125"/>
<polygon fill="#191970" stroke="#191970" points="308.8636,-180.484 298.2691,-180.571 306.6054,-187.1098 308.8636,-180.484"/>
</g>
<!-- Node22 -->
<g id="node10" class="node">
<title>Node22</title>
<g id="a_node10"><a xlink:href="quickjs_8c.html#a035daca514f14aacc1e0cff81d8e423a" target="_top" xlink:title="js_parse_template">
<polygon fill="none" stroke="#ff0000" points="504,-199.5383 504,-218.5383 600,-218.5383 600,-199.5383 504,-199.5383"/>
<text text-anchor="middle" x="552" y="-206.5383" font-family="Helvetica,sans-Serif" font-size="10.00" fill="#000000">js_parse_template</text>
</a>
</g>
</g>
<!-- Node19&#45;&gt;Node22 -->
<g id="edge13" class="edge">
<title>Node19&#45;&gt;Node22</title>
<path fill="none" stroke="#191970" d="M320.0943,-177.954C372.381,-184.9624 452.6442,-195.7208 503.7117,-202.5658"/>
<polygon fill="#191970" stroke="#191970" points="320.4033,-174.4642 310.0269,-176.6046 319.4733,-181.4021 320.4033,-174.4642"/>
</g>
<!-- Node20&#45;&gt;Node22 -->
<g id="edge12" class="edge">
<title>Node20&#45;&gt;Node22</title>
<path fill="none" stroke="#191970" d="M457.4171,-222.108C472.1181,-220.0766 488.6632,-217.7903 503.7568,-215.7047"/>
<polygon fill="#191970" stroke="#191970" points="456.5123,-218.6997 447.0856,-223.5356 457.4706,-225.6338 456.5123,-218.6997"/>
</g>
<!-- Node64&#45;&gt;Node20 -->
<g id="edge15" class="edge">
<title>Node64&#45;&gt;Node20</title>
<path fill="none" stroke="#191970" d="M312.5798,-214.7748C334.8508,-217.673 361.4055,-221.1288 381.8257,-223.7862"/>
<polygon fill="#191970" stroke="#191970" points="312.7304,-211.2649 302.3623,-213.4451 311.827,-218.2064 312.7304,-211.2649"/>
</g>
</g>
</svg>
        <g id="navigator" transform="translate(0 0)" fill="#404254">
                <rect fill="#f2f5e9" fill-opacity="0.5" stroke="#606060" stroke-width=".5" x="0" y="0" width="60" height="60"/>
                <use id="zoomplus" xlink:href="#zoomPlus" x="17" y="9" onmousedown="handleZoom(evt,'in')"/>
                <use id="zoomminus" xlink:href="#zoomMin" x="42" y="9" onmousedown="handleZoom(evt,'out')"/>
                <use id="reset" xlink:href="#resetDef" x="30" y="36" onmousedown="handleReset()"/>
                <g id="arrowUp" xlink:href="#dirArrow" transform="translate(30 24)" onmousedown="handlePan(0,-1)">
                  <use xlink:href="#rim" fill="#404040">
                        <set attributeName="fill" to="#808080" begin="arrowUp.mouseover" end="arrowUp.mouseout"/>
                  </use>
                  <path fill="none" stroke="white" stroke-width="1.5" d="M0,-3.0v7 M-2.5,-0.5L0,-3.0L2.5,-0.5"/>
                </g>
                <g id="arrowRight" xlink:href="#dirArrow" transform="rotate(90) translate(36 -43)" onmousedown="handlePan(1,0)">
                  <use xlink:href="#rim" fill="#404040">
                        <set attributeName="fill" to="#808080" begin="arrowRight.mouseover" end="arrowRight.mouseout"/>
                  </use>
                  <path fill="none" stroke="white" stroke-width="1.5" d="M0,-3.0v7 M-2.5,-0.5L0,-3.0L2.5,-0.5"/>
                </g>
                <g id="arrowDown" xlink:href="#dirArrow" transform="rotate(180) translate(-30 -48)" onmousedown="handlePan(0,1)">
                  <use xlink:href="#rim" fill="#404040">
                        <set attributeName="fill" to="#808080" begin="arrowDown.mouseover" end="arrowDown.mouseout"/>
                  </use>
                  <path fill="none" stroke="white" stroke-width="1.5" d="M0,-3.0v7 M-2.5,-0.5L0,-3.0L2.5,-0.5"/>
                </g>
                <g id="arrowLeft" xlink:href="#dirArrow" transform="rotate(270) translate(-36 17)" onmousedown="handlePan(-1,0)">
                  <use xlink:href="#rim" fill="#404040">
                        <set attributeName="fill" to="#808080" begin="arrowLeft.mouseover" end="arrowLeft.mouseout"/>
                  </use>
                  <path fill="none" stroke="white" stroke-width="1.5" d="M0,-3.0v7 M-2.5,-0.5L0,-3.0L2.5,-0.5"/>
                </g>
        </g>
        <svg viewBox="0 0 15 15" width="100%" height="30px" preserveAspectRatio="xMaxYMin meet">
         <g id="arrow_out" transform="scale(0.3 0.3)">
          <a xlink:href="libregexp_8c_ab3ca6381d29dea396b12acd7f755c51a_icgraph_org.svg" target="_base">
           <rect id="button" ry="5" rx="5" y="6" x="6" height="38" width="38"
                fill="#f2f5e9" fill-opacity="0.5" stroke="#606060" stroke-width="1.0"/>
           <path id="arrow"
             d="M 11.500037,31.436501 C 11.940474,20.09759 22.043105,11.32322 32.158766,21.979434 L 37.068811,17.246167 C 37.068811,17.246167 37.088388,32 37.088388,32 L 22.160133,31.978069 C 22.160133,31.978069 26.997745,27.140456 26.997745,27.140456 C 18.528582,18.264221 13.291696,25.230495 11.500037,31.436501 z"
             style="fill:#404040;"/>
          </a>
         </g>
        </svg>
</svg>
