<?xml version="1.0" encoding="UTF-8" standalone="no"?>
<!DOCTYPE svg PUBLIC "-//W3C//DTD SVG 1.1//EN"
 "http://www.w3.org/Graphics/SVG/1.1/DTD/svg11.dtd">
<!-- Generated by graphviz version 2.40.1 (20161225.0304)
 -->
<!-- Title: re_parse_alternative Pages: 1 -->
<!--zoomable 1044 -->
<svg id="main" version="1.1" xmlns="http://www.w3.org/2000/svg" xmlns:xlink="http://www.w3.org/1999/xlink" xml:space="preserve" onload="init(evt)">
<style type="text/css"><![CDATA[
.edge:hover path { stroke: red; }
.edge:hover polygon { stroke: red; fill: red; }
]]></style>
<script type="text/javascript"><![CDATA[
var edges = document.getElementsByTagName('g');
if (edges && edges.length) {
  for (var i=0;i<edges.length;i++) {
    if (edges[i].id.substr(0,4)=='edge') {
      edges[i].setAttribute('class','edge');
    }
  }
}
]]></script>
        <defs>
                <circle id="rim" cx="0" cy="0" r="7"/>
                <circle id="rim2" cx="0" cy="0" r="3.5"/>
                <g id="zoomPlus">
                        <use xlink:href="#rim" fill="#404040">
                                <set attributeName="fill" to="#808080" begin="zoomplus.mouseover" end="zoomplus.mouseout"/>
                        </use>
                        <path d="M-4,0h8M0,-4v8" fill="none" stroke="white" stroke-width="1.5" pointer-events="none"/>
                </g>
                <g id="zoomMin">
                        <use xlink:href="#rim" fill="#404040">
                                <set attributeName="fill" to="#808080" begin="zoomminus.mouseover" end="zoomminus.mouseout"/>
                        </use>
                        <path d="M-4,0h8" fill="none" stroke="white" stroke-width="1.5" pointer-events="none"/>
                </g>
                <g id="dirArrow">
                        <path fill="none" stroke="white" stroke-width="1.5" d="M0,-3.0v7 M-2.5,-0.5L0,-3.0L2.5,-0.5"/>
                </g>
               <g id="resetDef">
                       <use xlink:href="#rim2" fill="#404040">
                               <set attributeName="fill" to="#808080" begin="reset.mouseover" end="reset.mouseout"/>
                       </use>
               </g>
        </defs>

<script type="text/javascript">
var viewWidth = 1017;
var viewHeight = 1044;
var sectionId = 'dynsection-53';
</script>
<script xlink:href="svgpan.js"/>
<svg id="graph" class="graph">
<g id="viewport">
<title>re_parse_alternative</title>
<!-- Node1406 -->
<g id="node1" class="node">
<title>Node1406</title>
<polygon fill="#bfbfbf" stroke="#000000" points="0,-912.5 0,-931.5 104,-931.5 104,-912.5 0,-912.5"/>
<text text-anchor="middle" x="52" y="-919.5" font-family="Helvetica,sans-Serif" font-size="10.00" fill="#000000">re_parse_alternative</text>
</g>
<!-- Node1407 -->
<g id="node2" class="node">
<title>Node1407</title>
<g id="a_node2"><a xlink:href="cutils_8h.html#ac0b9ce26415947e972d6781d9f2fb11b" target="_top" xlink:title="dbuf_realloc">
<polygon fill="none" stroke="#000000" points="940,-969.5 940,-988.5 1009,-988.5 1009,-969.5 940,-969.5"/>
<text text-anchor="middle" x="974.5" y="-976.5" font-family="Helvetica,sans-Serif" font-size="10.00" fill="#000000">dbuf_realloc</text>
</a>
</g>
</g>
<!-- Node1406&#45;&gt;Node1407 -->
<g id="edge1" class="edge">
<title>Node1406&#45;&gt;Node1407</title>
<path fill="none" stroke="#191970" d="M64.1211,-931.5235C100.2502,-958.9222 211.2422,-1036 316.5,-1036 316.5,-1036 316.5,-1036 736.5,-1036 811.3534,-1036 895.8976,-1009.0048 941.3438,-992.1698"/>
<polygon fill="#191970" stroke="#191970" points="942.8424,-995.3453 950.9631,-988.5405 940.3713,-988.7959 942.8424,-995.3453"/>
</g>
<!-- Node1408 -->
<g id="node3" class="node">
<title>Node1408</title>
<g id="a_node3"><a xlink:href="libregexp_8c.html#acca34590a18d70f866ad56d67ce309e8" target="_top" xlink:title="re_parse_term">
<polygon fill="none" stroke="#000000" points="140,-513.5 140,-532.5 219,-532.5 219,-513.5 140,-513.5"/>
<text text-anchor="middle" x="179.5" y="-520.5" font-family="Helvetica,sans-Serif" font-size="10.00" fill="#000000">re_parse_term</text>
</a>
</g>
</g>
<!-- Node1406&#45;&gt;Node1408 -->
<g id="edge2" class="edge">
<title>Node1406&#45;&gt;Node1408</title>
<path fill="none" stroke="#191970" d="M55.1517,-912.137C71.8958,-859.7379 150.5181,-613.6962 173.2996,-542.4034"/>
<polygon fill="#191970" stroke="#191970" points="176.7485,-543.1091 176.4585,-532.5182 170.0806,-540.9783 176.7485,-543.1091"/>
</g>
<!-- Node1409 -->
<g id="node4" class="node">
<title>Node1409</title>
<g id="a_node4"><a xlink:href="libregexp_8c.html#a0a619a0b3bf0d0ec3aa0a9a59d610e1c" target="_top" xlink:title="__attribute__">
<polygon fill="none" stroke="#000000" points="559,-456.5 559,-475.5 632,-475.5 632,-456.5 559,-456.5"/>
<text text-anchor="middle" x="595.5" y="-463.5" font-family="Helvetica,sans-Serif" font-size="10.00" fill="#000000">__attribute__</text>
</a>
</g>
</g>
<!-- Node1408&#45;&gt;Node1409 -->
<g id="edge3" class="edge">
<title>Node1408&#45;&gt;Node1409</title>
<path fill="none" stroke="#191970" d="M181.3527,-513.2961C186.9721,-486.845 206.5037,-413.3678 255,-382 350.6235,-320.1499 407.104,-324.3642 511,-371 545.8886,-386.6604 572.256,-424.6343 585.6568,-447.5476"/>
<polygon fill="#191970" stroke="#191970" points="582.6445,-449.3316 590.5932,-456.3365 588.7477,-445.9036 582.6445,-449.3316"/>
</g>
<!-- Node1410 -->
<g id="node5" class="node">
<title>Node1410</title>
<g id="a_node5"><a xlink:href="libunicode_8c.html#a32dd1af21800853555eaa260ddffeff4" target="_top" xlink:title="cr_free">
<polygon fill="none" stroke="#000000" points="439,-380.5 439,-399.5 486,-399.5 486,-380.5 439,-380.5"/>
<text text-anchor="middle" x="462.5" y="-387.5" font-family="Helvetica,sans-Serif" font-size="10.00" fill="#000000">cr_free</text>
</a>
</g>
</g>
<!-- Node1408&#45;&gt;Node1410 -->
<g id="edge4" class="edge">
<title>Node1408&#45;&gt;Node1410</title>
<path fill="none" stroke="#191970" d="M183.2313,-513.4434C192.0757,-492.2005 216.5023,-441.1167 255,-418 309.1257,-385.4991 385.3169,-384.2101 428.7209,-386.7417"/>
<polygon fill="#191970" stroke="#191970" points="428.5415,-390.2376 438.7577,-387.4305 429.0208,-383.254 428.5415,-390.2376"/>
</g>
<!-- Node1411 -->
<g id="node6" class="node">
<title>Node1411</title>
<g id="a_node6"><a xlink:href="libregexp_8c.html#aa7c7a1de0de1647c6f3b9d1da89ed7dc" target="_top" xlink:title="dbuf_insert">
<polygon fill="none" stroke="#000000" points="430,-988.5 430,-1007.5 495,-1007.5 495,-988.5 430,-988.5"/>
<text text-anchor="middle" x="462.5" y="-995.5" font-family="Helvetica,sans-Serif" font-size="10.00" fill="#000000">dbuf_insert</text>
</a>
</g>
</g>
<!-- Node1408&#45;&gt;Node1411 -->
<g id="edge5" class="edge">
<title>Node1408&#45;&gt;Node1411</title>
<path fill="none" stroke="#191970" d="M179.6121,-532.862C180.5112,-593.0758 188.396,-910.6911 255,-974 298.6194,-1015.4614 372.8816,-1013.2542 419.7294,-1006.571"/>
<polygon fill="#191970" stroke="#191970" points="420.5199,-1009.9902 429.8632,-1004.9948 419.444,-1003.0734 420.5199,-1009.9902"/>
</g>
<!-- Node1412 -->
<g id="node7" class="node">
<title>Node1412</title>
<g id="a_node7"><a xlink:href="cutils_8h.html#ad1cfaae47347ae771136b5a9bbda49aa" target="_top" xlink:title="dbuf_put">
<polygon fill="none" stroke="#000000" points="839.5,-950.5 839.5,-969.5 893.5,-969.5 893.5,-950.5 839.5,-950.5"/>
<text text-anchor="middle" x="866.5" y="-957.5" font-family="Helvetica,sans-Serif" font-size="10.00" fill="#000000">dbuf_put</text>
</a>
</g>
</g>
<!-- Node1408&#45;&gt;Node1412 -->
<g id="edge7" class="edge">
<title>Node1408&#45;&gt;Node1412</title>
<path fill="none" stroke="#191970" d="M179.7227,-532.5343C181.2604,-589.4162 192.1998,-883.461 255,-941 289.1407,-972.2805 416.196,-960 462.5,-960 462.5,-960 462.5,-960 595.5,-960 678.9107,-960 776.7623,-960 829.0506,-960"/>
<polygon fill="#191970" stroke="#191970" points="829.1892,-963.5001 839.1892,-960 829.1891,-956.5001 829.1892,-963.5001"/>
</g>
<!-- Node1413 -->
<g id="node8" class="node">
<title>Node1413</title>
<g id="a_node8"><a xlink:href="cutils_8h.html#a6fe4b8f13b6e624047285f2ea509f555" target="_top" xlink:title="dbuf_put_self">
<polygon fill="none" stroke="#000000" points="829,-722.5 829,-741.5 904,-741.5 904,-722.5 829,-722.5"/>
<text text-anchor="middle" x="866.5" y="-729.5" font-family="Helvetica,sans-Serif" font-size="10.00" fill="#000000">dbuf_put_self</text>
</a>
</g>
</g>
<!-- Node1408&#45;&gt;Node1413 -->
<g id="edge9" class="edge">
<title>Node1408&#45;&gt;Node1413</title>
<path fill="none" stroke="#191970" d="M219.2804,-527.359C273.996,-532.9684 375.5869,-542 462.5,-542 462.5,-542 462.5,-542 595.5,-542 714.798,-542 818.8395,-666.9708 853.9037,-714.2067"/>
<polygon fill="#191970" stroke="#191970" points="851.0934,-716.2931 859.8094,-722.3167 856.7521,-712.1725 851.0934,-716.2931"/>
</g>
<!-- Node1414 -->
<g id="node9" class="node">
<title>Node1414</title>
<g id="a_node9"><a xlink:href="cutils_8h.html#aeed81d4787ccdbd55baa9b5fd6717e88" target="_top" xlink:title="dbuf_putc">
<polygon fill="none" stroke="#000000" points="707,-722.5 707,-741.5 766,-741.5 766,-722.5 707,-722.5"/>
<text text-anchor="middle" x="736.5" y="-729.5" font-family="Helvetica,sans-Serif" font-size="10.00" fill="#000000">dbuf_putc</text>
</a>
</g>
</g>
<!-- Node1408&#45;&gt;Node1414 -->
<g id="edge11" class="edge">
<title>Node1408&#45;&gt;Node1414</title>
<path fill="none" stroke="#191970" d="M180.1191,-532.5063C182.7227,-564.2382 195.6069,-667.3588 255,-718 384.1384,-828.1091 611.0986,-772.45 699.6499,-744.6408"/>
<polygon fill="#191970" stroke="#191970" points="700.8037,-747.9464 709.2578,-741.5607 698.6667,-741.2806 700.8037,-747.9464"/>
</g>
<!-- Node1415 -->
<g id="node10" class="node">
<title>Node1415</title>
<g id="a_node10"><a xlink:href="libregexp_8c.html#aa9d5df50b8660101698d8ac4595ec0ed" target="_top" xlink:title="find_group_name">
<polygon fill="none" stroke="#000000" points="271,-266.5 271,-285.5 362,-285.5 362,-266.5 271,-266.5"/>
<text text-anchor="middle" x="316.5" y="-273.5" font-family="Helvetica,sans-Serif" font-size="10.00" fill="#000000">find_group_name</text>
</a>
</g>
</g>
<!-- Node1408&#45;&gt;Node1415 -->
<g id="edge13" class="edge">
<title>Node1408&#45;&gt;Node1415</title>
<path fill="none" stroke="#191970" d="M179.9868,-513.0439C182.1915,-478.7057 194.0111,-363.8364 255,-300 258.6668,-296.162 263.0196,-292.9273 267.6902,-290.203"/>
<polygon fill="#191970" stroke="#191970" points="269.5851,-293.1689 276.9671,-285.569 266.457,-286.9067 269.5851,-293.1689"/>
</g>
<!-- Node1416 -->
<g id="node11" class="node">
<title>Node1416</title>
<g id="a_node11"><a xlink:href="libregexp_8c.html#ac654c01af0eedad21af5da6e5035f37c" target="_top" xlink:title="get_class_atom">
<polygon fill="none" stroke="#ff0000" points="419.5,-418.5 419.5,-437.5 505.5,-437.5 505.5,-418.5 419.5,-418.5"/>
<text text-anchor="middle" x="462.5" y="-425.5" font-family="Helvetica,sans-Serif" font-size="10.00" fill="#000000">get_class_atom</text>
</a>
</g>
</g>
<!-- Node1408&#45;&gt;Node1416 -->
<g id="edge14" class="edge">
<title>Node1408&#45;&gt;Node1416</title>
<path fill="none" stroke="#191970" d="M185.5922,-513.4515C196.9262,-496.625 223.0288,-462.0516 255,-447 303.6318,-424.1048 365.7142,-421.3864 409.2497,-423.1359"/>
<polygon fill="#191970" stroke="#191970" points="409.1856,-426.6369 419.3461,-423.6347 409.531,-419.6454 409.1856,-426.6369"/>
</g>
<!-- Node1428 -->
<g id="node12" class="node">
<title>Node1428</title>
<g id="a_node12"><a xlink:href="libregexp_8c.html#ab3ca6381d29dea396b12acd7f755c51a" target="_top" xlink:title="is_digit">
<polygon fill="none" stroke="#000000" points="293,-228.5 293,-247.5 340,-247.5 340,-228.5 293,-228.5"/>
<text text-anchor="middle" x="316.5" y="-235.5" font-family="Helvetica,sans-Serif" font-size="10.00" fill="#000000">is_digit</text>
</a>
</g>
</g>
<!-- Node1408&#45;&gt;Node1428 -->
<g id="edge16" class="edge">
<title>Node1408&#45;&gt;Node1428</title>
<path fill="none" stroke="#191970" d="M180.9827,-513.3728C187.8012,-470.2697 217.4234,-295.454 255,-257 262.4392,-249.3871 272.8565,-244.8089 283.0058,-242.0612"/>
<polygon fill="#191970" stroke="#191970" points="283.9288,-245.442 292.9456,-239.879 282.4276,-238.6048 283.9288,-245.442"/>
</g>
<!-- Node1443 -->
<g id="node13" class="node">
<title>Node1443</title>
<g id="a_node13"><a xlink:href="libregexp_8c.html#aa10efbd91b18637bccff3b8075a0d9a1" target="_top" xlink:title="lre_canonicalize">
<polygon fill="none" stroke="#ff0000" points="273.5,-190.5 273.5,-209.5 359.5,-209.5 359.5,-190.5 273.5,-190.5"/>
<text text-anchor="middle" x="316.5" y="-197.5" font-family="Helvetica,sans-Serif" font-size="10.00" fill="#000000">lre_canonicalize</text>
</a>
</g>
</g>
<!-- Node1408&#45;&gt;Node1443 -->
<g id="edge17" class="edge">
<title>Node1408&#45;&gt;Node1443</title>
<path fill="none" stroke="#191970" d="M180.6283,-513.2938C186.2646,-466.3911 212.7861,-263.6561 255,-219 257.6509,-216.1958 260.7056,-213.8023 264.007,-211.7599"/>
<polygon fill="#191970" stroke="#191970" points="265.8509,-214.7504 273.214,-207.1323 262.7073,-208.496 265.8509,-214.7504"/>
</g>
<!-- Node1445 -->
<g id="node14" class="node">
<title>Node1445</title>
<g id="a_node14"><a xlink:href="libregexp_8c.html#aa656000c3344b15eb895e145f9e57c5c" target="_top" xlink:title="parse_digits">
<polygon fill="none" stroke="#000000" points="282,-152.5 282,-171.5 351,-171.5 351,-152.5 282,-152.5"/>
<text text-anchor="middle" x="316.5" y="-159.5" font-family="Helvetica,sans-Serif" font-size="10.00" fill="#000000">parse_digits</text>
</a>
</g>
</g>
<!-- Node1408&#45;&gt;Node1445 -->
<g id="edge18" class="edge">
<title>Node1408&#45;&gt;Node1445</title>
<path fill="none" stroke="#191970" d="M180.3269,-513.4511C184.841,-463.4331 208.0449,-231.9911 255,-181 259.6791,-175.9187 265.6842,-172.1834 272.102,-169.4405"/>
<polygon fill="#191970" stroke="#191970" points="273.407,-172.6921 281.6939,-166.0907 271.099,-166.0836 273.407,-172.6921"/>
</g>
<!-- Node1446 -->
<g id="node15" class="node">
<title>Node1446</title>
<g id="a_node15"><a xlink:href="cutils_8h.html#a3b6aba81e32ed70a2a851744e5a9cc9c" target="_top" xlink:title="put_u32">
<polygon fill="none" stroke="#000000" points="437,-798.5 437,-817.5 488,-817.5 488,-798.5 437,-798.5"/>
<text text-anchor="middle" x="462.5" y="-805.5" font-family="Helvetica,sans-Serif" font-size="10.00" fill="#000000">put_u32</text>
</a>
</g>
</g>
<!-- Node1408&#45;&gt;Node1446 -->
<g id="edge19" class="edge">
<title>Node1408&#45;&gt;Node1446</title>
<path fill="none" stroke="#191970" d="M180.8535,-532.6154C187.1121,-575.6413 214.6672,-749.8775 255,-784 303.0307,-824.6351 381.2571,-821.217 426.6949,-814.7919"/>
<polygon fill="#191970" stroke="#191970" points="427.3347,-818.2348 436.6864,-813.2552 426.2706,-811.3161 427.3347,-818.2348"/>
</g>
<!-- Node1447 -->
<g id="node16" class="node">
<title>Node1447</title>
<g id="a_node16"><a xlink:href="libregexp_8c.html#ad7f2d2a438d99f72a2f3609d1c71e5b1" target="_top" xlink:title="re_check_advance">
<polygon fill="none" stroke="#ff0000" points="267.5,-114.5 267.5,-133.5 365.5,-133.5 365.5,-114.5 267.5,-114.5"/>
<text text-anchor="middle" x="316.5" y="-121.5" font-family="Helvetica,sans-Serif" font-size="10.00" fill="#000000">re_check_advance</text>
</a>
</g>
</g>
<!-- Node1408&#45;&gt;Node1447 -->
<g id="edge20" class="edge">
<title>Node1408&#45;&gt;Node1447</title>
<path fill="none" stroke="#191970" d="M180.0982,-513.4702C183.6224,-460.2685 203.3199,-200.3268 255,-143 256.2089,-141.659 257.5102,-140.4116 258.8873,-139.2513"/>
<polygon fill="#191970" stroke="#191970" points="261.1127,-141.9742 267.4898,-133.5135 257.2284,-136.1507 261.1127,-141.9742"/>
</g>
<!-- Node1449 -->
<g id="node17" class="node">
<title>Node1449</title>
<g id="a_node17"><a xlink:href="libregexp_8c.html#a88ae24975d089263922d36934da51581" target="_top" xlink:title="re_count_captures">
<polygon fill="none" stroke="#000000" points="414,-38.5 414,-57.5 511,-57.5 511,-38.5 414,-38.5"/>
<text text-anchor="middle" x="462.5" y="-45.5" font-family="Helvetica,sans-Serif" font-size="10.00" fill="#000000">re_count_captures</text>
</a>
</g>
</g>
<!-- Node1408&#45;&gt;Node1449 -->
<g id="edge21" class="edge">
<title>Node1408&#45;&gt;Node1449</title>
<path fill="none" stroke="#191970" d="M179.6121,-513.138C180.5112,-452.9242 188.396,-135.3089 255,-72 293.9359,-34.9904 357.2875,-32.7753 403.7626,-37.4795"/>
<polygon fill="#191970" stroke="#191970" points="403.3713,-40.9575 413.7041,-38.6158 404.1663,-34.0028 403.3713,-40.9575"/>
</g>
<!-- Node1450 -->
<g id="node18" class="node">
<title>Node1450</title>
<g id="a_node18"><a xlink:href="libregexp_8c.html#abe49cc9b1bcf935c4c8cfcbc932cb407" target="_top" xlink:title="re_parse_captures">
<polygon fill="none" stroke="#000000" points="547,-76.5 547,-95.5 644,-95.5 644,-76.5 547,-76.5"/>
<text text-anchor="middle" x="595.5" y="-83.5" font-family="Helvetica,sans-Serif" font-size="10.00" fill="#000000">re_parse_captures</text>
</a>
</g>
</g>
<!-- Node1408&#45;&gt;Node1450 -->
<g id="edge41" class="edge">
<title>Node1408&#45;&gt;Node1450</title>
<path fill="none" stroke="#191970" d="M179.6937,-513.4335C181.0625,-456.3639 191.1865,-161.4131 255,-105 295.3345,-69.3431 450.1934,-74.758 536.5105,-80.8853"/>
<polygon fill="#191970" stroke="#191970" points="536.4551,-84.3906 546.6849,-81.6334 536.9685,-77.4095 536.4551,-84.3906"/>
</g>
<!-- Node1451 -->
<g id="node19" class="node">
<title>Node1451</title>
<g id="a_node19"><a xlink:href="libregexp_8c.html#a6e0ee9170c3faaca126dbcc40c07aed7" target="_top" xlink:title="re_parse_group_name">
<polygon fill="none" stroke="#ff0000" points="680,-190.5 680,-209.5 793,-209.5 793,-190.5 680,-190.5"/>
<text text-anchor="middle" x="736.5" y="-197.5" font-family="Helvetica,sans-Serif" font-size="10.00" fill="#000000">re_parse_group_name</text>
</a>
</g>
</g>
<!-- Node1408&#45;&gt;Node1451 -->
<g id="edge54" class="edge">
<title>Node1408&#45;&gt;Node1451</title>
<path fill="none" stroke="#191970" d="M180.3212,-513.3235C183.5144,-481.957 197.9276,-382.1665 255,-331 259.172,-327.2597 571.3163,-243.943 690.7346,-212.1645"/>
<polygon fill="#191970" stroke="#191970" points="691.9087,-215.474 700.6727,-209.5205 690.1089,-208.7093 691.9087,-215.474"/>
</g>
<!-- Node1460 -->
<g id="node20" class="node">
<title>Node1460</title>
<g id="a_node20"><a xlink:href="libregexp_8c.html#ae6b5e2d5d49def829e7f5a8d390b79cd" target="_top" xlink:title="re_emit_goto">
<polygon fill="none" stroke="#ff0000" points="559,-722.5 559,-741.5 632,-741.5 632,-722.5 559,-722.5"/>
<text text-anchor="middle" x="595.5" y="-729.5" font-family="Helvetica,sans-Serif" font-size="10.00" fill="#000000">re_emit_goto</text>
</a>
</g>
</g>
<!-- Node1408&#45;&gt;Node1460 -->
<g id="edge24" class="edge">
<title>Node1408&#45;&gt;Node1460</title>
<path fill="none" stroke="#191970" d="M181.1109,-532.5366C186.2891,-560.0613 205.1747,-640.1427 255,-679 341.1076,-746.1529 477.5198,-744.4904 548.7318,-738.004"/>
<polygon fill="#191970" stroke="#191970" points="549.1418,-741.4807 558.7517,-737.0196 548.4573,-734.5142 549.1418,-741.4807"/>
</g>
<!-- Node1462 -->
<g id="node21" class="node">
<title>Node1462</title>
<g id="a_node21"><a xlink:href="libregexp_8c.html#a9cfa82248f8e07e4f79304fb3c51b6ab" target="_top" xlink:title="re_emit_op">
<polygon fill="none" stroke="#000000" points="563,-684.5 563,-703.5 628,-703.5 628,-684.5 563,-684.5"/>
<text text-anchor="middle" x="595.5" y="-691.5" font-family="Helvetica,sans-Serif" font-size="10.00" fill="#000000">re_emit_op</text>
</a>
</g>
</g>
<!-- Node1408&#45;&gt;Node1462 -->
<g id="edge26" class="edge">
<title>Node1408&#45;&gt;Node1462</title>
<path fill="none" stroke="#191970" d="M182.5718,-532.621C190.4702,-555.6811 213.8096,-614.2464 255,-642 346.7484,-703.8191 483.7152,-703.4458 552.6292,-698.484"/>
<polygon fill="#191970" stroke="#191970" points="552.9948,-701.9662 562.6889,-697.6914 552.4449,-694.9878 552.9948,-701.9662"/>
</g>
<!-- Node1463 -->
<g id="node22" class="node">
<title>Node1463</title>
<g id="a_node22"><a xlink:href="libregexp_8c.html#a0b36775d2caea480692fc53522db875b" target="_top" xlink:title="re_emit_op_u16">
<polygon fill="none" stroke="#ff0000" points="552.5,-608.5 552.5,-627.5 638.5,-627.5 638.5,-608.5 552.5,-608.5"/>
<text text-anchor="middle" x="595.5" y="-615.5" font-family="Helvetica,sans-Serif" font-size="10.00" fill="#000000">re_emit_op_u16</text>
</a>
</g>
</g>
<!-- Node1408&#45;&gt;Node1463 -->
<g id="edge28" class="edge">
<title>Node1408&#45;&gt;Node1463</title>
<path fill="none" stroke="#191970" d="M189.2016,-532.8541C202.6544,-545.845 228.344,-568.302 255,-579 350.8557,-617.4701 473.2755,-621.7005 542.1602,-620.4374"/>
<polygon fill="#191970" stroke="#191970" points="542.4178,-623.9325 552.3346,-620.2033 542.2568,-616.9344 542.4178,-623.9325"/>
</g>
<!-- Node1465 -->
<g id="node23" class="node">
<title>Node1465</title>
<g id="a_node23"><a xlink:href="libregexp_8c.html#ac72424cc4c3614e12582bb5684d5971e" target="_top" xlink:title="re_emit_op_u32">
<polygon fill="none" stroke="#ff0000" points="552.5,-646.5 552.5,-665.5 638.5,-665.5 638.5,-646.5 552.5,-646.5"/>
<text text-anchor="middle" x="595.5" y="-653.5" font-family="Helvetica,sans-Serif" font-size="10.00" fill="#000000">re_emit_op_u32</text>
</a>
</g>
</g>
<!-- Node1408&#45;&gt;Node1465 -->
<g id="edge30" class="edge">
<title>Node1408&#45;&gt;Node1465</title>
<path fill="none" stroke="#191970" d="M184.8836,-532.6087C195.6083,-550.7459 221.5179,-589.8317 255,-608 346.709,-657.7639 471.9058,-661.9511 542.1176,-659.5987"/>
<polygon fill="#191970" stroke="#191970" points="542.6295,-663.0813 552.4838,-659.19 542.3536,-656.0868 542.6295,-663.0813"/>
</g>
<!-- Node1466 -->
<g id="node24" class="node">
<title>Node1466</title>
<g id="a_node24"><a xlink:href="libregexp_8c.html#a108e0185eb65a399b93d273b6b609da5" target="_top" xlink:title="re_emit_op_u8">
<polygon fill="none" stroke="#000000" points="422.5,-874.5 422.5,-893.5 502.5,-893.5 502.5,-874.5 422.5,-874.5"/>
<text text-anchor="middle" x="462.5" y="-881.5" font-family="Helvetica,sans-Serif" font-size="10.00" fill="#000000">re_emit_op_u8</text>
</a>
</g>
</g>
<!-- Node1408&#45;&gt;Node1466 -->
<g id="edge32" class="edge">
<title>Node1408&#45;&gt;Node1466</title>
<path fill="none" stroke="#191970" d="M180.1457,-532.7341C183.7369,-583.6953 202.9975,-819.1675 255,-865 297.5137,-902.4695 365.6955,-901.1966 412.2124,-894.5657"/>
<polygon fill="#191970" stroke="#191970" points="413.0318,-897.9803 422.3744,-892.9837 411.955,-891.0637 413.0318,-897.9803"/>
</g>
<!-- Node1467 -->
<g id="node25" class="node">
<title>Node1467</title>
<g id="a_node25"><a xlink:href="libregexp_8c.html#a889cced8db78de00f11774dc8210874d" target="_top" xlink:title="re_emit_range">
<polygon fill="none" stroke="#ff0000" points="423.5,-570.5 423.5,-589.5 501.5,-589.5 501.5,-570.5 423.5,-570.5"/>
<text text-anchor="middle" x="462.5" y="-577.5" font-family="Helvetica,sans-Serif" font-size="10.00" fill="#000000">re_emit_range</text>
</a>
</g>
</g>
<!-- Node1408&#45;&gt;Node1467 -->
<g id="edge34" class="edge">
<title>Node1408&#45;&gt;Node1467</title>
<path fill="none" stroke="#191970" d="M197.2584,-532.5652C212.2215,-540.1783 234.4218,-550.4462 255,-556 307.8838,-570.2727 370.5987,-576.058 413.1332,-578.4027"/>
<polygon fill="#191970" stroke="#191970" points="413.0613,-581.9035 423.226,-578.9154 413.4165,-574.9125 413.0613,-581.9035"/>
</g>
<!-- Node1468 -->
<g id="node26" class="node">
<title>Node1468</title>
<g id="a_node26"><a xlink:href="libregexp_8c.html#adc25d27f1e668598f417fb0f07f3281f" target="_top" xlink:title="re_has_named_captures">
<polygon fill="none" stroke="#000000" points="255,-.5 255,-19.5 378,-19.5 378,-.5 255,-.5"/>
<text text-anchor="middle" x="316.5" y="-7.5" font-family="Helvetica,sans-Serif" font-size="10.00" fill="#000000">re_has_named_captures</text>
</a>
</g>
</g>
<!-- Node1408&#45;&gt;Node1468 -->
<g id="edge38" class="edge">
<title>Node1408&#45;&gt;Node1468</title>
<path fill="none" stroke="#191970" d="M179.7124,-513.364C181.2547,-451.6457 192.5226,-111.9022 255,-34 258.0229,-30.2308 261.7179,-27.0521 265.7817,-24.3718"/>
<polygon fill="#191970" stroke="#191970" points="267.4771,-27.4338 274.544,-19.5402 264.097,-21.3039 267.4771,-27.4338"/>
</g>
<!-- Node1469 -->
<g id="node27" class="node">
<title>Node1469</title>
<g id="a_node27"><a xlink:href="libregexp_8c.html#a5607046a903afaa790c57e87ea2e6fd9" target="_top" xlink:title="re_is_simple_quantifier">
<polygon fill="none" stroke="#ff0000" points="258.5,-836.5 258.5,-855.5 374.5,-855.5 374.5,-836.5 258.5,-836.5"/>
<text text-anchor="middle" x="316.5" y="-843.5" font-family="Helvetica,sans-Serif" font-size="10.00" fill="#000000">re_is_simple_quantifier</text>
</a>
</g>
</g>
<!-- Node1408&#45;&gt;Node1469 -->
<g id="edge40" class="edge">
<title>Node1408&#45;&gt;Node1469</title>
<path fill="none" stroke="#191970" d="M180.7588,-532.7937C186.9013,-579.2169 215.0586,-776.738 255,-822 258.4197,-825.8752 262.5429,-829.1299 267.0156,-831.8624"/>
<polygon fill="#191970" stroke="#191970" points="265.4662,-835.0015 275.9546,-836.4994 268.6895,-828.7878 265.4662,-835.0015"/>
</g>
<!-- Node1470 -->
<g id="node28" class="node">
<title>Node1470</title>
<g id="a_node28"><a xlink:href="libregexp_8c.html#ab2f98b8a2e66fd9197d2677f47ccffa8" target="_top" xlink:title="re_parse_char_class">
<polygon fill="none" stroke="#ff0000" points="263,-456.5 263,-475.5 370,-475.5 370,-456.5 263,-456.5"/>
<text text-anchor="middle" x="316.5" y="-463.5" font-family="Helvetica,sans-Serif" font-size="10.00" fill="#000000">re_parse_char_class</text>
</a>
</g>
</g>
<!-- Node1408&#45;&gt;Node1470 -->
<g id="edge42" class="edge">
<title>Node1408&#45;&gt;Node1470</title>
<path fill="none" stroke="#191970" d="M200.8813,-513.3826C215.9454,-506.6736 236.6248,-497.5976 255,-490 263.6189,-486.4363 272.9725,-482.7132 281.7229,-479.2921"/>
<polygon fill="#191970" stroke="#191970" points="283.2201,-482.4654 291.2746,-475.5825 280.6858,-475.9402 283.2201,-482.4654"/>
</g>
<!-- Node1474 -->
<g id="node29" class="node">
<title>Node1474</title>
<g id="a_node29"><a xlink:href="libregexp_8c.html#af445f369f2ccbbc81596e0fbed929b7e" target="_top" xlink:title="re_parse_disjunction">
<polygon fill="none" stroke="#000000" points="263.5,-912.5 263.5,-931.5 369.5,-931.5 369.5,-912.5 263.5,-912.5"/>
<text text-anchor="middle" x="316.5" y="-919.5" font-family="Helvetica,sans-Serif" font-size="10.00" fill="#000000">re_parse_disjunction</text>
</a>
</g>
</g>
<!-- Node1408&#45;&gt;Node1474 -->
<g id="edge47" class="edge">
<title>Node1408&#45;&gt;Node1474</title>
<path fill="none" stroke="#191970" d="M180.2102,-532.6913C184.2688,-585.649 206.0891,-839.7778 255,-898 258.1516,-901.7516 261.9656,-904.9195 266.133,-907.594"/>
<polygon fill="#191970" stroke="#191970" points="264.6209,-910.755 275.0841,-912.4198 267.9428,-904.5934 264.6209,-910.755"/>
</g>
<!-- Node1475 -->
<g id="node30" class="node">
<title>Node1475</title>
<g id="a_node30"><a xlink:href="libregexp_8c.html#a187e89a1f7e63588373701e223deae5d" target="_top" xlink:title="re_parse_expect">
<polygon fill="none" stroke="#000000" points="418,-494.5 418,-513.5 507,-513.5 507,-494.5 418,-494.5"/>
<text text-anchor="middle" x="462.5" y="-501.5" font-family="Helvetica,sans-Serif" font-size="10.00" fill="#000000">re_parse_expect</text>
</a>
</g>
</g>
<!-- Node1408&#45;&gt;Node1475 -->
<g id="edge52" class="edge">
<title>Node1408&#45;&gt;Node1475</title>
<path fill="none" stroke="#191970" d="M219.1479,-520.3381C268.3089,-517.0376 352.3628,-511.3944 407.675,-507.6808"/>
<polygon fill="#191970" stroke="#191970" points="408.2512,-511.1501 417.9943,-506.988 407.7823,-504.1658 408.2512,-511.1501"/>
</g>
<!-- Node1411&#45;&gt;Node1407 -->
<g id="edge6" class="edge">
<title>Node1411&#45;&gt;Node1407</title>
<path fill="none" stroke="#191970" d="M495.3068,-996.7826C583.9841,-993.4918 828.5731,-984.4153 929.7695,-980.6599"/>
<polygon fill="#191970" stroke="#191970" points="930.098,-984.1502 939.9613,-980.2817 929.8383,-977.1551 930.098,-984.1502"/>
</g>
<!-- Node1412&#45;&gt;Node1407 -->
<g id="edge8" class="edge">
<title>Node1412&#45;&gt;Node1407</title>
<path fill="none" stroke="#191970" d="M893.753,-964.7945C904.6884,-966.7183 917.5818,-968.9866 929.8171,-971.1391"/>
<polygon fill="#191970" stroke="#191970" points="929.4273,-974.6242 939.8825,-972.9099 930.6402,-967.7301 929.4273,-974.6242"/>
</g>
<!-- Node1413&#45;&gt;Node1407 -->
<g id="edge10" class="edge">
<title>Node1413&#45;&gt;Node1407</title>
<path fill="none" stroke="#191970" d="M870.7337,-741.6827C886.8631,-778.5713 944.6425,-910.7149 966.2596,-960.1539"/>
<polygon fill="#191970" stroke="#191970" points="963.0824,-961.624 970.2955,-969.3842 969.4961,-958.8196 963.0824,-961.624"/>
</g>
<!-- Node1414&#45;&gt;Node1412 -->
<g id="edge12" class="edge">
<title>Node1414&#45;&gt;Node1412</title>
<path fill="none" stroke="#191970" d="M741.9204,-741.5066C761.6187,-776.0543 829.6312,-895.3379 855.9678,-941.5281"/>
<polygon fill="#191970" stroke="#191970" points="853.0627,-943.4993 861.0564,-950.4528 859.1437,-940.0321 853.0627,-943.4993"/>
</g>
<!-- Node1416&#45;&gt;Node1409 -->
<g id="edge15" class="edge">
<title>Node1416&#45;&gt;Node1409</title>
<path fill="none" stroke="#191970" d="M496.0615,-437.589C513.073,-442.4494 533.9319,-448.4091 552.1446,-453.6127"/>
<polygon fill="#191970" stroke="#191970" points="551.3724,-457.0321 561.9492,-456.4141 553.2955,-450.3014 551.3724,-457.0321"/>
</g>
<!-- Node1449&#45;&gt;Node1450 -->
<g id="edge22" class="edge">
<title>Node1449&#45;&gt;Node1450</title>
<path fill="none" stroke="#191970" d="M496.0615,-57.589C513.073,-62.4494 533.9319,-68.4091 552.1446,-73.6127"/>
<polygon fill="#191970" stroke="#191970" points="551.3724,-77.0321 561.9492,-76.4141 553.2955,-70.3014 551.3724,-77.0321"/>
</g>
<!-- Node1450&#45;&gt;Node1451 -->
<g id="edge23" class="edge">
<title>Node1450&#45;&gt;Node1451</title>
<path fill="none" stroke="#191970" d="M607.5216,-95.7196C631.7671,-115.3223 686.7448,-159.7724 716.4912,-183.8227"/>
<polygon fill="#191970" stroke="#191970" points="714.532,-186.7395 724.5088,-190.305 718.9331,-181.2961 714.532,-186.7395"/>
</g>
<!-- Node1460&#45;&gt;Node1414 -->
<g id="edge25" class="edge">
<title>Node1460&#45;&gt;Node1414</title>
<path fill="none" stroke="#191970" d="M632.178,-732C651.9117,-732 676.2788,-732 696.4992,-732"/>
<polygon fill="#191970" stroke="#191970" points="696.6487,-735.5001 706.6487,-732 696.6487,-728.5001 696.6487,-735.5001"/>
</g>
<!-- Node1462&#45;&gt;Node1414 -->
<g id="edge27" class="edge">
<title>Node1462&#45;&gt;Node1414</title>
<path fill="none" stroke="#191970" d="M628.2026,-702.8135C648.71,-708.3403 675.2753,-715.4997 696.9625,-721.3445"/>
<polygon fill="#191970" stroke="#191970" points="696.2895,-724.788 706.8558,-724.0108 698.1111,-718.0291 696.2895,-724.788"/>
</g>
<!-- Node1463&#45;&gt;Node1414 -->
<g id="edge29" class="edge">
<title>Node1463&#45;&gt;Node1414</title>
<path fill="none" stroke="#191970" d="M625.7315,-627.543C632.0201,-630.1498 638.4247,-633.2988 644,-637 676.5555,-658.6122 706.6075,-693.3328 723.162,-714.2753"/>
<polygon fill="#191970" stroke="#191970" points="720.5083,-716.565 729.3983,-722.3287 726.0429,-712.2792 720.5083,-716.565"/>
</g>
<!-- Node1465&#45;&gt;Node1414 -->
<g id="edge31" class="edge">
<title>Node1465&#45;&gt;Node1414</title>
<path fill="none" stroke="#191970" d="M622.3034,-665.5133C629.4645,-668.3205 637.1219,-671.5681 644,-675 668.8355,-687.392 695.6798,-704.3694 714.0192,-716.5673"/>
<polygon fill="#191970" stroke="#191970" points="712.2843,-719.6184 722.5354,-722.2953 716.1911,-713.81 712.2843,-719.6184"/>
</g>
<!-- Node1466&#45;&gt;Node1414 -->
<g id="edge33" class="edge">
<title>Node1466&#45;&gt;Node1414</title>
<path fill="none" stroke="#191970" d="M482.4508,-874.4436C491.2607,-870.1427 501.7057,-864.9324 511,-860 584.7811,-820.8452 670.0708,-771.2071 711.4274,-746.8511"/>
<polygon fill="#191970" stroke="#191970" points="713.4316,-749.7325 720.2659,-741.6366 709.8746,-743.7035 713.4316,-749.7325"/>
</g>
<!-- Node1467&#45;&gt;Node1409 -->
<g id="edge35" class="edge">
<title>Node1467&#45;&gt;Node1409</title>
<path fill="none" stroke="#191970" d="M473.8395,-570.2804C496.6112,-550.7618 548.1232,-506.6087 576.2639,-482.4881"/>
<polygon fill="#191970" stroke="#191970" points="578.8744,-484.8603 584.1892,-475.695 574.3188,-479.5455 578.8744,-484.8603"/>
</g>
<!-- Node1467&#45;&gt;Node1463 -->
<g id="edge36" class="edge">
<title>Node1467&#45;&gt;Node1463</title>
<path fill="none" stroke="#191970" d="M496.0615,-589.589C513.073,-594.4494 533.9319,-600.4091 552.1446,-605.6127"/>
<polygon fill="#191970" stroke="#191970" points="551.3724,-609.0321 561.9492,-608.4141 553.2955,-602.3014 551.3724,-609.0321"/>
</g>
<!-- Node1467&#45;&gt;Node1465 -->
<g id="edge37" class="edge">
<title>Node1467&#45;&gt;Node1465</title>
<path fill="none" stroke="#191970" d="M474.8397,-589.6026C490.8341,-601.7424 519.8942,-622.7707 547,-637 550.7383,-638.9624 554.7261,-640.841 558.7482,-642.601"/>
<polygon fill="#191970" stroke="#191970" points="557.5158,-645.8789 568.0938,-646.4763 560.1971,-639.4128 557.5158,-645.8789"/>
</g>
<!-- Node1468&#45;&gt;Node1449 -->
<g id="edge39" class="edge">
<title>Node1468&#45;&gt;Node1449</title>
<path fill="none" stroke="#191970" d="M353.342,-19.589C372.3479,-24.5358 395.7286,-30.6211 415.9692,-35.8892"/>
<polygon fill="#191970" stroke="#191970" points="415.3638,-39.3482 425.923,-38.4799 417.127,-32.5739 415.3638,-39.3482"/>
</g>
<!-- Node1470&#45;&gt;Node1409 -->
<g id="edge43" class="edge">
<title>Node1470&#45;&gt;Node1409</title>
<path fill="none" stroke="#191970" d="M370.294,-466C422.0354,-466 499.4601,-466 548.7119,-466"/>
<polygon fill="#191970" stroke="#191970" points="548.7747,-469.5001 558.7746,-466 548.7746,-462.5001 548.7747,-469.5001"/>
</g>
<!-- Node1470&#45;&gt;Node1410 -->
<g id="edge44" class="edge">
<title>Node1470&#45;&gt;Node1410</title>
<path fill="none" stroke="#191970" d="M331.3004,-456.3664C350.0699,-444.3813 383.6502,-423.7057 414,-409 418.9846,-406.5847 424.3604,-404.2376 429.6548,-402.0642"/>
<polygon fill="#191970" stroke="#191970" points="430.9878,-405.3008 438.9947,-398.3626 428.4086,-398.7933 430.9878,-405.3008"/>
</g>
<!-- Node1470&#45;&gt;Node1416 -->
<g id="edge45" class="edge">
<title>Node1470&#45;&gt;Node1416</title>
<path fill="none" stroke="#191970" d="M353.342,-456.411C372.3479,-451.4642 395.7286,-445.3789 415.9692,-440.1108"/>
<polygon fill="#191970" stroke="#191970" points="417.127,-443.4261 425.923,-437.5201 415.3638,-436.6518 417.127,-443.4261"/>
</g>
<!-- Node1470&#45;&gt;Node1467 -->
<g id="edge46" class="edge">
<title>Node1470&#45;&gt;Node1467</title>
<path fill="none" stroke="#191970" d="M328.6968,-475.5235C353.7546,-495.0892 411.2579,-539.9891 442.089,-564.0626"/>
<polygon fill="#191970" stroke="#191970" points="439.9925,-566.8662 450.0285,-570.262 444.3006,-561.3489 439.9925,-566.8662"/>
</g>
<!-- Node1474&#45;&gt;Node1406 -->
<g id="edge51" class="edge">
<title>Node1474&#45;&gt;Node1406</title>
<path fill="none" stroke="#191970" d="M263.4465,-922C220.3959,-922 159.6204,-922 114.2678,-922"/>
<polygon fill="#191970" stroke="#191970" points="114.2567,-918.5001 104.2567,-922 114.2567,-925.5001 114.2567,-918.5001"/>
</g>
<!-- Node1474&#45;&gt;Node1411 -->
<g id="edge48" class="edge">
<title>Node1474&#45;&gt;Node1411</title>
<path fill="none" stroke="#191970" d="M334.991,-931.6255C360.3322,-944.8168 406.0341,-968.6068 435.2863,-983.834"/>
<polygon fill="#191970" stroke="#191970" points="433.6729,-986.9399 444.1591,-988.4527 436.905,-980.7307 433.6729,-986.9399"/>
</g>
<!-- Node1474&#45;&gt;Node1446 -->
<g id="edge49" class="edge">
<title>Node1474&#45;&gt;Node1446</title>
<path fill="none" stroke="#191970" d="M326.7844,-912.4714C351.595,-889.489 412.79,-832.8322 414,-832 419.058,-828.5213 424.6938,-825.2548 430.2829,-822.3188"/>
<polygon fill="#191970" stroke="#191970" points="432.1438,-825.3021 439.5345,-817.7107 429.0229,-819.0363 432.1438,-825.3021"/>
</g>
<!-- Node1474&#45;&gt;Node1465 -->
<g id="edge50" class="edge">
<title>Node1474&#45;&gt;Node1465</title>
<path fill="none" stroke="#191970" d="M331.3004,-912.3664C350.0699,-900.3813 383.6502,-879.7057 414,-865 455.6675,-844.8104 480.6445,-861.9621 511,-827 556.5153,-774.5775 501.4847,-727.4225 547,-675 548.1413,-673.6855 549.3852,-672.4613 550.7098,-671.3211"/>
<polygon fill="#191970" stroke="#191970" points="552.7235,-674.1844 559.0264,-665.6683 548.7885,-668.3951 552.7235,-674.1844"/>
</g>
<!-- Node1475&#45;&gt;Node1409 -->
<g id="edge53" class="edge">
<title>Node1475&#45;&gt;Node1409</title>
<path fill="none" stroke="#191970" d="M496.0615,-494.411C513.073,-489.5506 533.9319,-483.5909 552.1446,-478.3873"/>
<polygon fill="#191970" stroke="#191970" points="553.2955,-481.6986 561.9492,-475.5859 551.3724,-474.9679 553.2955,-481.6986"/>
</g>
</g>
</svg>
        <g id="navigator" transform="translate(0 0)" fill="#404254">
                <rect fill="#f2f5e9" fill-opacity="0.5" stroke="#606060" stroke-width=".5" x="0" y="0" width="60" height="60"/>
                <use id="zoomplus" xlink:href="#zoomPlus" x="17" y="9" onmousedown="handleZoom(evt,'in')"/>
                <use id="zoomminus" xlink:href="#zoomMin" x="42" y="9" onmousedown="handleZoom(evt,'out')"/>
                <use id="reset" xlink:href="#resetDef" x="30" y="36" onmousedown="handleReset()"/>
                <g id="arrowUp" xlink:href="#dirArrow" transform="translate(30 24)" onmousedown="handlePan(0,-1)">
                  <use xlink:href="#rim" fill="#404040">
                        <set attributeName="fill" to="#808080" begin="arrowUp.mouseover" end="arrowUp.mouseout"/>
                  </use>
                  <path fill="none" stroke="white" stroke-width="1.5" d="M0,-3.0v7 M-2.5,-0.5L0,-3.0L2.5,-0.5"/>
                </g>
                <g id="arrowRight" xlink:href="#dirArrow" transform="rotate(90) translate(36 -43)" onmousedown="handlePan(1,0)">
                  <use xlink:href="#rim" fill="#404040">
                        <set attributeName="fill" to="#808080" begin="arrowRight.mouseover" end="arrowRight.mouseout"/>
                  </use>
                  <path fill="none" stroke="white" stroke-width="1.5" d="M0,-3.0v7 M-2.5,-0.5L0,-3.0L2.5,-0.5"/>
                </g>
                <g id="arrowDown" xlink:href="#dirArrow" transform="rotate(180) translate(-30 -48)" onmousedown="handlePan(0,1)">
                  <use xlink:href="#rim" fill="#404040">
                        <set attributeName="fill" to="#808080" begin="arrowDown.mouseover" end="arrowDown.mouseout"/>
                  </use>
                  <path fill="none" stroke="white" stroke-width="1.5" d="M0,-3.0v7 M-2.5,-0.5L0,-3.0L2.5,-0.5"/>
                </g>
                <g id="arrowLeft" xlink:href="#dirArrow" transform="rotate(270) translate(-36 17)" onmousedown="handlePan(-1,0)">
                  <use xlink:href="#rim" fill="#404040">
                        <set attributeName="fill" to="#808080" begin="arrowLeft.mouseover" end="arrowLeft.mouseout"/>
                  </use>
                  <path fill="none" stroke="white" stroke-width="1.5" d="M0,-3.0v7 M-2.5,-0.5L0,-3.0L2.5,-0.5"/>
                </g>
        </g>
        <svg viewBox="0 0 15 15" width="100%" height="30px" preserveAspectRatio="xMaxYMin meet">
         <g id="arrow_out" transform="scale(0.3 0.3)">
          <a xlink:href="libregexp_8c_a87dce3150c68b8a079854274dd39243c_cgraph_org.svg" target="_base">
           <rect id="button" ry="5" rx="5" y="6" x="6" height="38" width="38"
                fill="#f2f5e9" fill-opacity="0.5" stroke="#606060" stroke-width="1.0"/>
           <path id="arrow"
             d="M 11.500037,31.436501 C 11.940474,20.09759 22.043105,11.32322 32.158766,21.979434 L 37.068811,17.246167 C 37.068811,17.246167 37.088388,32 37.088388,32 L 22.160133,31.978069 C 22.160133,31.978069 26.997745,27.140456 26.997745,27.140456 C 18.528582,18.264221 13.291696,25.230495 11.500037,31.436501 z"
             style="fill:#404040;"/>
          </a>
         </g>
        </svg>
</svg>
