<?xml version="1.0" encoding="UTF-8" standalone="no"?>
<!DOCTYPE svg PUBLIC "-//W3C//DTD SVG 1.1//EN"
 "http://www.w3.org/Graphics/SVG/1.1/DTD/svg11.dtd">
<!-- Generated by graphviz version 2.40.1 (20161225.0304)
 -->
<!-- Title: parse_unicode_property Pages: 1 -->
<!--zoomable 440 -->
<svg id="main" version="1.1" xmlns="http://www.w3.org/2000/svg" xmlns:xlink="http://www.w3.org/1999/xlink" xml:space="preserve" onload="init(evt)">
<style type="text/css"><![CDATA[
.edge:hover path { stroke: red; }
.edge:hover polygon { stroke: red; fill: red; }
]]></style>
<script type="text/javascript"><![CDATA[
var edges = document.getElementsByTagName('g');
if (edges && edges.length) {
  for (var i=0;i<edges.length;i++) {
    if (edges[i].id.substr(0,4)=='edge') {
      edges[i].setAttribute('class','edge');
    }
  }
}
]]></script>
        <defs>
                <circle id="rim" cx="0" cy="0" r="7"/>
                <circle id="rim2" cx="0" cy="0" r="3.5"/>
                <g id="zoomPlus">
                        <use xlink:href="#rim" fill="#404040">
                                <set attributeName="fill" to="#808080" begin="zoomplus.mouseover" end="zoomplus.mouseout"/>
                        </use>
                        <path d="M-4,0h8M0,-4v8" fill="none" stroke="white" stroke-width="1.5" pointer-events="none"/>
                </g>
                <g id="zoomMin">
                        <use xlink:href="#rim" fill="#404040">
                                <set attributeName="fill" to="#808080" begin="zoomminus.mouseover" end="zoomminus.mouseout"/>
                        </use>
                        <path d="M-4,0h8" fill="none" stroke="white" stroke-width="1.5" pointer-events="none"/>
                </g>
                <g id="dirArrow">
                        <path fill="none" stroke="white" stroke-width="1.5" d="M0,-3.0v7 M-2.5,-0.5L0,-3.0L2.5,-0.5"/>
                </g>
               <g id="resetDef">
                       <use xlink:href="#rim2" fill="#404040">
                               <set attributeName="fill" to="#808080" begin="reset.mouseover" end="reset.mouseout"/>
                       </use>
               </g>
        </defs>

<script type="text/javascript">
var viewWidth = 899;
var viewHeight = 440;
var sectionId = 'dynsection-28';
</script>
<script xlink:href="svgpan.js"/>
<svg id="graph" class="graph">
<g id="viewport">
<title>parse_unicode_property</title>
<!-- Node950 -->
<g id="node1" class="node">
<title>Node950</title>
<polygon fill="#bfbfbf" stroke="#000000" points="0,-260.8387 0,-279.8387 120,-279.8387 120,-260.8387 0,-260.8387"/>
<text text-anchor="middle" x="60" y="-267.8387" font-family="Helvetica,sans-Serif" font-size="10.00" fill="#000000">parse_unicode_property</text>
</g>
<!-- Node951 -->
<g id="node2" class="node">
<title>Node951</title>
<g id="a_node2"><a xlink:href="libregexp_8c.html#a0a619a0b3bf0d0ec3aa0a9a59d610e1c" target="_top" xlink:title="__attribute__">
<polygon fill="none" stroke="#000000" points="163,-412.8387 163,-431.8387 236,-431.8387 236,-412.8387 163,-412.8387"/>
<text text-anchor="middle" x="199.5" y="-419.8387" font-family="Helvetica,sans-Serif" font-size="10.00" fill="#000000">__attribute__</text>
</a>
</g>
</g>
<!-- Node950&#45;&gt;Node951 -->
<g id="edge1" class="edge">
<title>Node950&#45;&gt;Node951</title>
<path fill="none" stroke="#191970" d="M65.3604,-280.1073C78.3654,-303.1106 113.6578,-361.5203 156,-398.3387 159.9663,-401.7875 164.5091,-404.9543 169.1292,-407.778"/>
<polygon fill="#191970" stroke="#191970" points="167.5484,-410.9047 177.9779,-412.7689 170.9873,-404.8076 167.5484,-410.9047"/>
</g>
<!-- Node952 -->
<g id="node3" class="node">
<title>Node952</title>
<g id="a_node3"><a xlink:href="libunicode_8c.html#a32dd1af21800853555eaa260ddffeff4" target="_top" xlink:title="cr_free">
<polygon fill="none" stroke="#000000" points="489,-336.8387 489,-355.8387 536,-355.8387 536,-336.8387 489,-336.8387"/>
<text text-anchor="middle" x="512.5" y="-343.8387" font-family="Helvetica,sans-Serif" font-size="10.00" fill="#000000">cr_free</text>
</a>
</g>
</g>
<!-- Node950&#45;&gt;Node952 -->
<g id="edge2" class="edge">
<title>Node950&#45;&gt;Node952</title>
<path fill="none" stroke="#191970" d="M80.148,-279.8502C99.2687,-288.5044 129.0139,-301.0127 156,-308.3387 271.2712,-339.6318 414.0462,-345.3624 478.3197,-346.2703"/>
<polygon fill="#191970" stroke="#191970" points="478.6282,-349.7738 488.6659,-346.3835 478.7048,-342.7742 478.6282,-349.7738"/>
</g>
<!-- Node953 -->
<g id="node4" class="node">
<title>Node953</title>
<g id="a_node4"><a xlink:href="libunicode_8c.html#a6fc0a36e3fd26d4b91b66cd5619be63b" target="_top" xlink:title="cr_init">
<polygon fill="none" stroke="#000000" points="491,-374.8387 491,-393.8387 534,-393.8387 534,-374.8387 491,-374.8387"/>
<text text-anchor="middle" x="512.5" y="-381.8387" font-family="Helvetica,sans-Serif" font-size="10.00" fill="#000000">cr_init</text>
</a>
</g>
</g>
<!-- Node950&#45;&gt;Node953 -->
<g id="edge3" class="edge">
<title>Node950&#45;&gt;Node953</title>
<path fill="none" stroke="#191970" d="M71.9073,-279.9598C89.2869,-293.4727 123.1223,-317.8187 156,-330.3387 269.9201,-373.72 416.8101,-382.349 480.5926,-383.9945"/>
<polygon fill="#191970" stroke="#191970" points="480.7321,-387.4982 490.8054,-384.2154 480.8835,-380.4999 480.7321,-387.4982"/>
</g>
<!-- Node955 -->
<g id="node6" class="node">
<title>Node955</title>
<g id="a_node6"><a xlink:href="libunicode_8c.html#af1269fd74e0699bd0e12ac018a078c54" target="_top" xlink:title="cr_invert">
<polygon fill="none" stroke="#000000" points="485.5,-184.8387 485.5,-203.8387 539.5,-203.8387 539.5,-184.8387 485.5,-184.8387"/>
<text text-anchor="middle" x="512.5" y="-191.8387" font-family="Helvetica,sans-Serif" font-size="10.00" fill="#000000">cr_invert</text>
</a>
</g>
</g>
<!-- Node950&#45;&gt;Node955 -->
<g id="edge5" class="edge">
<title>Node950&#45;&gt;Node955</title>
<path fill="none" stroke="#191970" d="M68.3903,-260.7003C83.823,-243.6871 118.5773,-208.5962 156,-192.3387 263.7703,-145.5203 407.753,-169.2407 474.9727,-184.6271"/>
<polygon fill="#191970" stroke="#191970" points="474.5482,-188.123 485.0847,-187.0129 476.1557,-181.31 474.5482,-188.123"/>
</g>
<!-- Node959 -->
<g id="node10" class="node">
<title>Node959</title>
<g id="a_node10"><a xlink:href="libregexp_8c.html#aa2f98968b4b2e8ef3f9498fbfb89f70e" target="_top" xlink:title="is_unicode_char">
<polygon fill="none" stroke="#000000" points="156,-260.8387 156,-279.8387 243,-279.8387 243,-260.8387 156,-260.8387"/>
<text text-anchor="middle" x="199.5" y="-267.8387" font-family="Helvetica,sans-Serif" font-size="10.00" fill="#000000">is_unicode_char</text>
</a>
</g>
</g>
<!-- Node950&#45;&gt;Node959 -->
<g id="edge9" class="edge">
<title>Node950&#45;&gt;Node959</title>
<path fill="none" stroke="#191970" d="M120.3754,-270.3387C128.763,-270.3387 137.3347,-270.3387 145.5936,-270.3387"/>
<polygon fill="#191970" stroke="#191970" points="145.8501,-273.8388 155.8501,-270.3387 145.8501,-266.8388 145.8501,-273.8388"/>
</g>
<!-- Node960 -->
<g id="node11" class="node">
<title>Node960</title>
<g id="a_node11"><a xlink:href="quickjs_8c.html#a770bcb52221b07905a94fcb36ac192cd" target="_top" xlink:title="lre_realloc">
<polygon fill="none" stroke="#000000" points="169,-222.8387 169,-241.8387 230,-241.8387 230,-222.8387 169,-222.8387"/>
<text text-anchor="middle" x="199.5" y="-229.8387" font-family="Helvetica,sans-Serif" font-size="10.00" fill="#000000">lre_realloc</text>
</a>
</g>
</g>
<!-- Node950&#45;&gt;Node960 -->
<g id="edge10" class="edge">
<title>Node950&#45;&gt;Node960</title>
<path fill="none" stroke="#191970" d="M95.2017,-260.7497C114.5353,-255.4832 138.6068,-248.9261 158.7514,-243.4387"/>
<polygon fill="#191970" stroke="#191970" points="159.8552,-246.7656 168.5837,-240.7603 158.0154,-240.0117 159.8552,-246.7656"/>
</g>
<!-- Node961 -->
<g id="node12" class="node">
<title>Node961</title>
<g id="a_node12"><a xlink:href="libunicode_8c.html#ae15ce595055a80c448d0e7ea28a3e2d3" target="_top" xlink:title="unicode_general_category">
<polygon fill="none" stroke="#000000" points="279,-184.8387 279,-203.8387 409,-203.8387 409,-184.8387 279,-184.8387"/>
<text text-anchor="middle" x="344" y="-191.8387" font-family="Helvetica,sans-Serif" font-size="10.00" fill="#000000">unicode_general_category</text>
</a>
</g>
</g>
<!-- Node950&#45;&gt;Node961 -->
<g id="edge11" class="edge">
<title>Node950&#45;&gt;Node961</title>
<path fill="none" stroke="#191970" d="M72.1792,-260.6954C89.6191,-247.4749 123.2308,-224.1351 156,-213.3387 191.8733,-201.5196 233.5058,-196.4886 268.461,-194.5304"/>
<polygon fill="#191970" stroke="#191970" points="268.7874,-198.0187 278.6054,-194.0368 268.4471,-191.027 268.7874,-198.0187"/>
</g>
<!-- Node965 -->
<g id="node16" class="node">
<title>Node965</title>
<g id="a_node16"><a xlink:href="libunicode_8c.html#a042c7e38726f6727a9826c4dd2c45832" target="_top" xlink:title="unicode_prop">
<polygon fill="none" stroke="#000000" points="162.5,-89.8387 162.5,-108.8387 236.5,-108.8387 236.5,-89.8387 162.5,-89.8387"/>
<text text-anchor="middle" x="199.5" y="-96.8387" font-family="Helvetica,sans-Serif" font-size="10.00" fill="#000000">unicode_prop</text>
</a>
</g>
</g>
<!-- Node950&#45;&gt;Node965 -->
<g id="edge16" class="edge">
<title>Node950&#45;&gt;Node965</title>
<path fill="none" stroke="#191970" d="M66.5287,-260.6532C81.4282,-238.7793 119.4788,-184.203 156,-142.3387 163.9581,-133.2163 173.4547,-123.6915 181.5415,-115.9317"/>
<polygon fill="#191970" stroke="#191970" points="184.1826,-118.2516 189.0491,-108.8405 179.3759,-113.1627 184.1826,-118.2516"/>
</g>
<!-- Node972 -->
<g id="node22" class="node">
<title>Node972</title>
<g id="a_node22"><a xlink:href="libunicode_8c.html#aed9a601406b09f37aad3e07557c8b754" target="_top" xlink:title="unicode_script">
<polygon fill="none" stroke="#000000" points="304,-298.8387 304,-317.8387 384,-317.8387 384,-298.8387 304,-298.8387"/>
<text text-anchor="middle" x="344" y="-305.8387" font-family="Helvetica,sans-Serif" font-size="10.00" fill="#000000">unicode_script</text>
</a>
</g>
</g>
<!-- Node950&#45;&gt;Node972 -->
<g id="edge34" class="edge">
<title>Node950&#45;&gt;Node972</title>
<path fill="none" stroke="#191970" d="M103.8159,-279.9181C120.138,-283.2467 138.8598,-286.7823 156,-289.3387 202.4146,-296.2613 255.6597,-301.3801 293.6088,-304.5493"/>
<polygon fill="#191970" stroke="#191970" points="293.636,-308.0632 303.8884,-305.3914 294.2075,-301.0866 293.636,-308.0632"/>
</g>
<!-- Node954 -->
<g id="node5" class="node">
<title>Node954</title>
<g id="a_node5"><a xlink:href="libunicode_8c.html#a20de05c0af47860fc64fcc54f998cddc" target="_top" xlink:title="cr_default_realloc">
<polygon fill="none" stroke="#000000" points="616,-374.8387 616,-393.8387 709,-393.8387 709,-374.8387 616,-374.8387"/>
<text text-anchor="middle" x="662.5" y="-381.8387" font-family="Helvetica,sans-Serif" font-size="10.00" fill="#000000">cr_default_realloc</text>
</a>
</g>
</g>
<!-- Node953&#45;&gt;Node954 -->
<g id="edge4" class="edge">
<title>Node953&#45;&gt;Node954</title>
<path fill="none" stroke="#191970" d="M534.3113,-384.3387C553.022,-384.3387 580.832,-384.3387 605.7717,-384.3387"/>
<polygon fill="#191970" stroke="#191970" points="605.8854,-387.8388 615.8853,-384.3387 605.8853,-380.8388 605.8854,-387.8388"/>
</g>
<!-- Node956 -->
<g id="node7" class="node">
<title>Node956</title>
<g id="a_node7"><a xlink:href="libunicode_8c.html#a7b73e29a0e2b936a11426d602faac462" target="_top" xlink:title="cr_realloc">
<polygon fill="none" stroke="#000000" points="745,-146.8387 745,-165.8387 804,-165.8387 804,-146.8387 745,-146.8387"/>
<text text-anchor="middle" x="774.5" y="-153.8387" font-family="Helvetica,sans-Serif" font-size="10.00" fill="#000000">cr_realloc</text>
</a>
</g>
</g>
<!-- Node955&#45;&gt;Node956 -->
<g id="edge6" class="edge">
<title>Node955&#45;&gt;Node956</title>
<path fill="none" stroke="#191970" d="M539.7443,-193.3049C577.8906,-191.4957 649.2517,-186.7898 709,-175.3387 717.8714,-173.6384 727.2722,-171.2642 736.099,-168.7687"/>
<polygon fill="#191970" stroke="#191970" points="737.1545,-172.1066 745.7621,-165.9292 735.1809,-165.3906 737.1545,-172.1066"/>
</g>
<!-- Node958 -->
<g id="node9" class="node">
<title>Node958</title>
<g id="a_node9"><a xlink:href="libunicode_8c.html#a16bf65ec6f33994ffa796da462b4a434" target="_top" xlink:title="cr_compress">
<polygon fill="none" stroke="#000000" points="626,-222.8387 626,-241.8387 699,-241.8387 699,-222.8387 626,-222.8387"/>
<text text-anchor="middle" x="662.5" y="-229.8387" font-family="Helvetica,sans-Serif" font-size="10.00" fill="#000000">cr_compress</text>
</a>
</g>
</g>
<!-- Node955&#45;&gt;Node958 -->
<g id="edge8" class="edge">
<title>Node955&#45;&gt;Node958</title>
<path fill="none" stroke="#191970" d="M539.6639,-201.2202C560.98,-206.6203 591.1441,-214.2619 616.2461,-220.621"/>
<polygon fill="#191970" stroke="#191970" points="615.3889,-224.0144 625.9423,-223.0774 617.108,-217.2287 615.3889,-224.0144"/>
</g>
<!-- Node957 -->
<g id="node8" class="node">
<title>Node957</title>
<g id="a_node8"><a xlink:href="cutils_8h.html#a94f155fcce337a2b9d4719ed8042cbbe" target="_top" xlink:title="max_int">
<polygon fill="none" stroke="#000000" points="840,-146.8387 840,-165.8387 891,-165.8387 891,-146.8387 840,-146.8387"/>
<text text-anchor="middle" x="865.5" y="-153.8387" font-family="Helvetica,sans-Serif" font-size="10.00" fill="#000000">max_int</text>
</a>
</g>
</g>
<!-- Node956&#45;&gt;Node957 -->
<g id="edge7" class="edge">
<title>Node956&#45;&gt;Node957</title>
<path fill="none" stroke="#191970" d="M804.0451,-156.3387C812.2359,-156.3387 821.2166,-156.3387 829.7219,-156.3387"/>
<polygon fill="#191970" stroke="#191970" points="829.7756,-159.8388 839.7756,-156.3387 829.7756,-152.8388 829.7756,-159.8388"/>
</g>
<!-- Node962 -->
<g id="node13" class="node">
<title>Node962</title>
<g id="a_node13"><a xlink:href="libunicode_8c.html#a2c7890f229a1126ae81362db9f770003" target="_top" xlink:title="unicode_find_name">
<polygon fill="none" stroke="#000000" points="462,-260.8387 462,-279.8387 563,-279.8387 563,-260.8387 462,-260.8387"/>
<text text-anchor="middle" x="512.5" y="-267.8387" font-family="Helvetica,sans-Serif" font-size="10.00" fill="#000000">unicode_find_name</text>
</a>
</g>
</g>
<!-- Node961&#45;&gt;Node962 -->
<g id="edge12" class="edge">
<title>Node961&#45;&gt;Node962</title>
<path fill="none" stroke="#191970" d="M358.4924,-203.9963C377.6173,-216.3885 412.6516,-237.8868 445,-251.3387 450.545,-253.6445 456.4592,-255.7672 462.3945,-257.6917"/>
<polygon fill="#191970" stroke="#191970" points="461.7551,-261.1563 472.3417,-260.7407 463.8065,-254.4637 461.7551,-261.1563"/>
</g>
<!-- Node963 -->
<g id="node14" class="node">
<title>Node963</title>
<g id="a_node14"><a xlink:href="libunicode_8c.html#a5b19223b1de0eaf5d64806a1e3009a30" target="_top" xlink:title="unicode_general_category1">
<polygon fill="none" stroke="#000000" points="445,-108.8387 445,-127.8387 580,-127.8387 580,-108.8387 445,-108.8387"/>
<text text-anchor="middle" x="512.5" y="-115.8387" font-family="Helvetica,sans-Serif" font-size="10.00" fill="#000000">unicode_general_category1</text>
</a>
</g>
</g>
<!-- Node961&#45;&gt;Node963 -->
<g id="edge13" class="edge">
<title>Node961&#45;&gt;Node963</title>
<path fill="none" stroke="#191970" d="M365.3406,-184.7132C394.8404,-171.4077 448.2473,-147.3191 481.965,-132.1111"/>
<polygon fill="#191970" stroke="#191970" points="483.656,-135.188 491.3326,-127.886 480.7779,-128.8071 483.656,-135.188"/>
</g>
<!-- Node964 -->
<g id="node15" class="node">
<title>Node964</title>
<g id="a_node15"><a xlink:href="libunicode_8h.html#aeade60962a424d84bc260a72311a0745" target="_top" xlink:title="cr_add_interval">
<polygon fill="none" stroke="#000000" points="621,-89.8387 621,-108.8387 704,-108.8387 704,-89.8387 621,-89.8387"/>
<text text-anchor="middle" x="662.5" y="-96.8387" font-family="Helvetica,sans-Serif" font-size="10.00" fill="#000000">cr_add_interval</text>
</a>
</g>
</g>
<!-- Node963&#45;&gt;Node964 -->
<g id="edge14" class="edge">
<title>Node963&#45;&gt;Node964</title>
<path fill="none" stroke="#191970" d="M580.0403,-109.7836C590.3133,-108.4823 600.7749,-107.1572 610.6437,-105.9071"/>
<polygon fill="#191970" stroke="#191970" points="611.1999,-109.3648 620.6808,-104.6358 610.3202,-102.4202 611.1999,-109.3648"/>
</g>
<!-- Node964&#45;&gt;Node956 -->
<g id="edge15" class="edge">
<title>Node964&#45;&gt;Node956</title>
<path fill="none" stroke="#191970" d="M681.2463,-108.8792C699.0942,-117.9625 726.182,-131.7483 746.5722,-142.1254"/>
<polygon fill="#191970" stroke="#191970" points="745.1928,-145.3506 755.6926,-146.767 748.3678,-139.112 745.1928,-145.3506"/>
</g>
<!-- Node965&#45;&gt;Node962 -->
<g id="edge17" class="edge">
<title>Node965&#45;&gt;Node962</title>
<path fill="none" stroke="#191970" d="M203.3915,-109.0681C212.7985,-131.2833 238.9892,-185.9286 279,-213.3387 330.5301,-248.6403 401.6314,-262.147 451.7988,-267.277"/>
<polygon fill="#191970" stroke="#191970" points="451.5724,-270.7711 461.8561,-268.2224 452.2276,-263.8018 451.5724,-270.7711"/>
</g>
<!-- Node965&#45;&gt;Node964 -->
<g id="edge18" class="edge">
<title>Node965&#45;&gt;Node964</title>
<path fill="none" stroke="#191970" d="M214.4442,-89.7818C229.9964,-80.2418 255.3409,-65.8152 279,-57.3387 405.7398,-11.9309 454.5898,25.6218 580,-23.3387 609.7761,-34.9634 635.285,-62.9251 649.7576,-81.4951"/>
<polygon fill="#191970" stroke="#191970" points="647.1453,-83.8454 655.9462,-89.7441 652.7447,-79.6446 647.1453,-83.8454"/>
</g>
<!-- Node966 -->
<g id="node17" class="node">
<title>Node966</title>
<g id="a_node17"><a xlink:href="libunicode_8c.html#a58dbb07f758bbf3de6c87a0647ec72e3" target="_top" xlink:title="unicode_prop_ops">
<polygon fill="none" stroke="#000000" points="296.5,-108.8387 296.5,-127.8387 391.5,-127.8387 391.5,-108.8387 296.5,-108.8387"/>
<text text-anchor="middle" x="344" y="-115.8387" font-family="Helvetica,sans-Serif" font-size="10.00" fill="#000000">unicode_prop_ops</text>
</a>
</g>
</g>
<!-- Node965&#45;&gt;Node966 -->
<g id="edge19" class="edge">
<title>Node965&#45;&gt;Node966</title>
<path fill="none" stroke="#191970" d="M236.7123,-104.2317C251.7394,-106.2075 269.4347,-108.5342 286.0739,-110.7221"/>
<polygon fill="#191970" stroke="#191970" points="285.8935,-114.2284 296.2645,-112.062 286.8061,-107.2882 285.8935,-114.2284"/>
</g>
<!-- Node967 -->
<g id="node18" class="node">
<title>Node967</title>
<g id="a_node18"><a xlink:href="libunicode_8c.html#a91155ef56a166c73950e8c0954813fa3" target="_top" xlink:title="unicode_prop1">
<polygon fill="none" stroke="#000000" points="472.5,-70.8387 472.5,-89.8387 552.5,-89.8387 552.5,-70.8387 472.5,-70.8387"/>
<text text-anchor="middle" x="512.5" y="-77.8387" font-family="Helvetica,sans-Serif" font-size="10.00" fill="#000000">unicode_prop1</text>
</a>
</g>
</g>
<!-- Node965&#45;&gt;Node967 -->
<g id="edge33" class="edge">
<title>Node965&#45;&gt;Node967</title>
<path fill="none" stroke="#191970" d="M236.6343,-97.0845C292.7769,-93.6765 399.378,-87.2055 462.3591,-83.3824"/>
<polygon fill="#191970" stroke="#191970" points="462.6863,-86.8691 472.4558,-82.7695 462.2621,-79.8819 462.6863,-86.8691"/>
</g>
<!-- Node968 -->
<g id="node19" class="node">
<title>Node968</title>
<g id="a_node19"><a xlink:href="libunicode_8c.html#a35d09b5e2095fe4d202ea26c98871689" target="_top" xlink:title="unicode_case1">
<polygon fill="none" stroke="#000000" points="471.5,-32.8387 471.5,-51.8387 553.5,-51.8387 553.5,-32.8387 471.5,-32.8387"/>
<text text-anchor="middle" x="512.5" y="-39.8387" font-family="Helvetica,sans-Serif" font-size="10.00" fill="#000000">unicode_case1</text>
</a>
</g>
</g>
<!-- Node965&#45;&gt;Node968 -->
<g id="edge32" class="edge">
<title>Node965&#45;&gt;Node968</title>
<path fill="none" stroke="#191970" d="M236.672,-91.6592C250.0073,-88.9568 265.1646,-85.9452 279,-83.3387 341.552,-71.5543 413.7431,-59.0451 461.0988,-50.9876"/>
<polygon fill="#191970" stroke="#191970" points="461.8354,-54.4127 471.1083,-49.2878 460.6634,-47.5115 461.8354,-54.4127"/>
</g>
<!-- Node966&#45;&gt;Node952 -->
<g id="edge28" class="edge">
<title>Node966&#45;&gt;Node952</title>
<path fill="none" stroke="#191970" d="M359.0281,-127.8905C373.7634,-137.9916 395.8721,-155.2301 409,-175.3387 438.046,-219.8296 415.5402,-245.1207 445,-289.3387 456.1977,-306.146 473.7336,-320.7432 488.1252,-330.9574"/>
<polygon fill="#191970" stroke="#191970" points="486.3608,-333.9904 496.595,-336.7313 490.3038,-328.2065 486.3608,-333.9904"/>
</g>
<!-- Node966&#45;&gt;Node953 -->
<g id="edge20" class="edge">
<title>Node966&#45;&gt;Node953</title>
<path fill="none" stroke="#191970" d="M360.1116,-127.9502C375.2334,-137.8614 397.236,-154.7479 409,-175.3387 451.6356,-249.9649 386.9308,-301.976 445,-365.3387 454.1514,-375.3242 468.0976,-380.219 480.9425,-382.5619"/>
<polygon fill="#191970" stroke="#191970" points="480.5091,-386.0352 490.8951,-383.9422 481.4708,-379.1016 480.5091,-386.0352"/>
</g>
<!-- Node966&#45;&gt;Node955 -->
<g id="edge29" class="edge">
<title>Node966&#45;&gt;Node955</title>
<path fill="none" stroke="#191970" d="M375.9419,-127.9345C386.7559,-131.7511 398.6963,-136.6107 409,-142.3387 426.7163,-152.1874 427.2245,-160.5972 445,-170.3387 454.5879,-175.5931 465.5502,-180.0689 475.8125,-183.6812"/>
<polygon fill="#191970" stroke="#191970" points="474.7757,-187.0249 485.3695,-186.8772 476.9958,-180.3863 474.7757,-187.0249"/>
</g>
<!-- Node966&#45;&gt;Node963 -->
<g id="edge21" class="edge">
<title>Node966&#45;&gt;Node963</title>
<path fill="none" stroke="#191970" d="M391.8346,-118.3387C405.1947,-118.3387 420.0676,-118.3387 434.681,-118.3387"/>
<polygon fill="#191970" stroke="#191970" points="434.7347,-121.8388 444.7347,-118.3387 434.7346,-114.8388 434.7347,-121.8388"/>
</g>
<!-- Node966&#45;&gt;Node967 -->
<g id="edge22" class="edge">
<title>Node966&#45;&gt;Node967</title>
<path fill="none" stroke="#191970" d="M386.5197,-108.7497C409.5525,-103.5553 438.1524,-97.1055 462.2778,-91.6648"/>
<polygon fill="#191970" stroke="#191970" points="463.329,-95.0157 472.314,-89.4014 461.789,-88.1872 463.329,-95.0157"/>
</g>
<!-- Node966&#45;&gt;Node968 -->
<g id="edge24" class="edge">
<title>Node966&#45;&gt;Node968</title>
<path fill="none" stroke="#191970" d="M358.4924,-108.6811C377.6173,-96.2889 412.6516,-74.7906 445,-61.3387 450.545,-59.0328 456.4592,-56.9102 462.3945,-54.9857"/>
<polygon fill="#191970" stroke="#191970" points="463.8065,-58.2137 472.3417,-51.9367 461.7551,-51.521 463.8065,-58.2137"/>
</g>
<!-- Node969 -->
<g id="node20" class="node">
<title>Node969</title>
<g id="a_node20"><a xlink:href="libunicode_8c.html#a34896d0331c7b2845f267f8f6dde6a55" target="_top" xlink:title="cr_op">
<polygon fill="none" stroke="#ff0000" points="492,-222.8387 492,-241.8387 533,-241.8387 533,-222.8387 492,-222.8387"/>
<text text-anchor="middle" x="512.5" y="-229.8387" font-family="Helvetica,sans-Serif" font-size="10.00" fill="#000000">cr_op</text>
</a>
</g>
</g>
<!-- Node966&#45;&gt;Node969 -->
<g id="edge26" class="edge">
<title>Node966&#45;&gt;Node969</title>
<path fill="none" stroke="#191970" d="M355.7957,-128.1145C369.0461,-139.2249 391.0469,-158.0631 409,-175.3387 425.7637,-191.4698 425.0867,-201.3098 445,-213.3387 456.1223,-220.0572 469.7038,-224.4762 481.7604,-227.3453"/>
<polygon fill="#191970" stroke="#191970" points="481.3545,-230.837 491.8629,-229.4865 482.8059,-223.9891 481.3545,-230.837"/>
</g>
<!-- Node971 -->
<g id="node21" class="node">
<title>Node971</title>
<g id="a_node21"><a xlink:href="libunicode_8c.html#a9bd15878dff9b34a1cbd091f1559b8b5" target="_top" xlink:title="cr_copy">
<polygon fill="none" stroke="#000000" points="637,-146.8387 637,-165.8387 688,-165.8387 688,-146.8387 637,-146.8387"/>
<text text-anchor="middle" x="662.5" y="-153.8387" font-family="Helvetica,sans-Serif" font-size="10.00" fill="#000000">cr_copy</text>
</a>
</g>
</g>
<!-- Node966&#45;&gt;Node971 -->
<g id="edge30" class="edge">
<title>Node966&#45;&gt;Node971</title>
<path fill="none" stroke="#191970" d="M389.3455,-127.8569C406.6943,-131.2383 426.7051,-134.8251 445,-137.3387 508.8316,-146.1088 583.7899,-151.6093 626.9555,-154.3154"/>
<polygon fill="#191970" stroke="#191970" points="626.765,-157.8102 636.9603,-154.9281 627.193,-150.8233 626.765,-157.8102"/>
</g>
<!-- Node967&#45;&gt;Node964 -->
<g id="edge23" class="edge">
<title>Node967&#45;&gt;Node964</title>
<path fill="none" stroke="#191970" d="M552.6972,-85.4303C570.5724,-87.6945 591.8366,-90.388 610.8698,-92.7989"/>
<polygon fill="#191970" stroke="#191970" points="610.5226,-96.2828 620.8832,-94.0672 611.4023,-89.3383 610.5226,-96.2828"/>
</g>
<!-- Node968&#45;&gt;Node964 -->
<g id="edge25" class="edge">
<title>Node968&#45;&gt;Node964</title>
<path fill="none" stroke="#191970" d="M550.3246,-51.856C560.0898,-54.6199 570.5185,-57.8453 580,-61.3387 598.6255,-68.2012 618.8806,-77.5023 634.6597,-85.1847"/>
<polygon fill="#191970" stroke="#191970" points="633.3352,-88.4341 643.8514,-89.7227 636.4341,-82.1574 633.3352,-88.4341"/>
</g>
<!-- Node969&#45;&gt;Node958 -->
<g id="edge27" class="edge">
<title>Node969&#45;&gt;Node958</title>
<path fill="none" stroke="#191970" d="M533.0423,-232.3387C554.1731,-232.3387 587.8169,-232.3387 615.5106,-232.3387"/>
<polygon fill="#191970" stroke="#191970" points="615.7947,-235.8388 625.7946,-232.3387 615.7946,-228.8388 615.7947,-235.8388"/>
</g>
<!-- Node971&#45;&gt;Node956 -->
<g id="edge31" class="edge">
<title>Node971&#45;&gt;Node956</title>
<path fill="none" stroke="#191970" d="M688.1951,-156.3387C701.9431,-156.3387 719.1782,-156.3387 734.6242,-156.3387"/>
<polygon fill="#191970" stroke="#191970" points="734.9669,-159.8388 744.9669,-156.3387 734.9669,-152.8388 734.9669,-159.8388"/>
</g>
<!-- Node972&#45;&gt;Node952 -->
<g id="edge40" class="edge">
<title>Node972&#45;&gt;Node952</title>
<path fill="none" stroke="#191970" d="M384.3599,-317.4406C413.195,-323.9435 451.5466,-332.5925 478.7569,-338.729"/>
<polygon fill="#191970" stroke="#191970" points="478.072,-342.1623 488.597,-340.9481 479.612,-335.3338 478.072,-342.1623"/>
</g>
<!-- Node972&#45;&gt;Node953 -->
<g id="edge36" class="edge">
<title>Node972&#45;&gt;Node953</title>
<path fill="none" stroke="#191970" d="M358.4924,-317.9963C377.6173,-330.3885 412.6516,-351.8868 445,-365.3387 456.3604,-370.0628 469.2709,-374.0181 480.7371,-377.0754"/>
<polygon fill="#191970" stroke="#191970" points="480.2213,-380.5555 490.7754,-379.6269 481.9458,-373.7712 480.2213,-380.5555"/>
</g>
<!-- Node972&#45;&gt;Node955 -->
<g id="edge38" class="edge">
<title>Node972&#45;&gt;Node955</title>
<path fill="none" stroke="#191970" d="M351.5106,-298.6628C366.9248,-279.4694 404.1377,-236.4422 445,-213.3387 454.2993,-208.0809 465.1544,-204.1951 475.406,-201.3586"/>
<polygon fill="#191970" stroke="#191970" points="476.5273,-204.6859 485.3765,-198.8599 474.8256,-197.8959 476.5273,-204.6859"/>
</g>
<!-- Node972&#45;&gt;Node962 -->
<g id="edge35" class="edge">
<title>Node972&#45;&gt;Node962</title>
<path fill="none" stroke="#191970" d="M384.3599,-299.2367C407.1221,-294.1034 435.8143,-287.6328 460.2751,-282.1164"/>
<polygon fill="#191970" stroke="#191970" points="461.133,-285.5109 470.118,-279.8966 459.593,-278.6824 461.133,-285.5109"/>
</g>
<!-- Node972&#45;&gt;Node964 -->
<g id="edge37" class="edge">
<title>Node972&#45;&gt;Node964</title>
<path fill="none" stroke="#191970" d="M383.5347,-317.9067C435.1751,-327.8645 525.4151,-336.1884 580,-289.3387 632.6811,-244.123 579.1754,-196.1919 616,-137.3387 621.4998,-128.5488 629.7444,-120.8534 637.771,-114.7287"/>
<polygon fill="#191970" stroke="#191970" points="639.8045,-117.5774 645.9325,-108.9346 635.7522,-111.8695 639.8045,-117.5774"/>
</g>
<!-- Node972&#45;&gt;Node969 -->
<g id="edge39" class="edge">
<title>Node972&#45;&gt;Node969</title>
<path fill="none" stroke="#191970" d="M358.4924,-298.6811C377.6173,-286.2889 412.6516,-264.7906 445,-251.3387 456.8241,-246.4217 470.3274,-242.3376 482.1337,-239.2321"/>
<polygon fill="#191970" stroke="#191970" points="483.1404,-242.5881 491.9873,-236.7586 481.436,-235.7987 483.1404,-242.5881"/>
</g>
</g>
</svg>
        <g id="navigator" transform="translate(0 0)" fill="#404254">
                <rect fill="#f2f5e9" fill-opacity="0.5" stroke="#606060" stroke-width=".5" x="0" y="0" width="60" height="60"/>
                <use id="zoomplus" xlink:href="#zoomPlus" x="17" y="9" onmousedown="handleZoom(evt,'in')"/>
                <use id="zoomminus" xlink:href="#zoomMin" x="42" y="9" onmousedown="handleZoom(evt,'out')"/>
                <use id="reset" xlink:href="#resetDef" x="30" y="36" onmousedown="handleReset()"/>
                <g id="arrowUp" xlink:href="#dirArrow" transform="translate(30 24)" onmousedown="handlePan(0,-1)">
                  <use xlink:href="#rim" fill="#404040">
                        <set attributeName="fill" to="#808080" begin="arrowUp.mouseover" end="arrowUp.mouseout"/>
                  </use>
                  <path fill="none" stroke="white" stroke-width="1.5" d="M0,-3.0v7 M-2.5,-0.5L0,-3.0L2.5,-0.5"/>
                </g>
                <g id="arrowRight" xlink:href="#dirArrow" transform="rotate(90) translate(36 -43)" onmousedown="handlePan(1,0)">
                  <use xlink:href="#rim" fill="#404040">
                        <set attributeName="fill" to="#808080" begin="arrowRight.mouseover" end="arrowRight.mouseout"/>
                  </use>
                  <path fill="none" stroke="white" stroke-width="1.5" d="M0,-3.0v7 M-2.5,-0.5L0,-3.0L2.5,-0.5"/>
                </g>
                <g id="arrowDown" xlink:href="#dirArrow" transform="rotate(180) translate(-30 -48)" onmousedown="handlePan(0,1)">
                  <use xlink:href="#rim" fill="#404040">
                        <set attributeName="fill" to="#808080" begin="arrowDown.mouseover" end="arrowDown.mouseout"/>
                  </use>
                  <path fill="none" stroke="white" stroke-width="1.5" d="M0,-3.0v7 M-2.5,-0.5L0,-3.0L2.5,-0.5"/>
                </g>
                <g id="arrowLeft" xlink:href="#dirArrow" transform="rotate(270) translate(-36 17)" onmousedown="handlePan(-1,0)">
                  <use xlink:href="#rim" fill="#404040">
                        <set attributeName="fill" to="#808080" begin="arrowLeft.mouseover" end="arrowLeft.mouseout"/>
                  </use>
                  <path fill="none" stroke="white" stroke-width="1.5" d="M0,-3.0v7 M-2.5,-0.5L0,-3.0L2.5,-0.5"/>
                </g>
        </g>
        <svg viewBox="0 0 15 15" width="100%" height="30px" preserveAspectRatio="xMaxYMin meet">
         <g id="arrow_out" transform="scale(0.3 0.3)">
          <a xlink:href="libregexp_8c_a24c5604c81a33e66906a1f43227221e8_cgraph_org.svg" target="_base">
           <rect id="button" ry="5" rx="5" y="6" x="6" height="38" width="38"
                fill="#f2f5e9" fill-opacity="0.5" stroke="#606060" stroke-width="1.0"/>
           <path id="arrow"
             d="M 11.500037,31.436501 C 11.940474,20.09759 22.043105,11.32322 32.158766,21.979434 L 37.068811,17.246167 C 37.068811,17.246167 37.088388,32 37.088388,32 L 22.160133,31.978069 C 22.160133,31.978069 26.997745,27.140456 26.997745,27.140456 C 18.528582,18.264221 13.291696,25.230495 11.500037,31.436501 z"
             style="fill:#404040;"/>
          </a>
         </g>
        </svg>
</svg>
