<?xml version="1.0" encoding="UTF-8" standalone="no"?>
<!DOCTYPE svg PUBLIC "-//W3C//DTD SVG 1.1//EN"
 "http://www.w3.org/Graphics/SVG/1.1/DTD/svg11.dtd">
<!-- Generated by graphviz version 2.40.1 (20161225.0304)
 -->
<!-- Title: lre_is_in_table Pages: 1 -->
<svg width="292pt" height="28pt"
 viewBox="0.00 0.00 292.00 28.00" xmlns="http://www.w3.org/2000/svg" xmlns:xlink="http://www.w3.org/1999/xlink">
<g id="graph0" class="graph" transform="scale(1 1) rotate(0) translate(4 24)">
<title>lre_is_in_table</title>
<!-- Node186 -->
<g id="node1" class="node">
<title>Node186</title>
<polygon fill="#bfbfbf" stroke="#000000" points="0,-.5 0,-19.5 79,-19.5 79,-.5 0,-.5"/>
<text text-anchor="middle" x="39.5" y="-7.5" font-family="Helvetica,sans-Serif" font-size="10.00" fill="#000000">lre_is_in_table</text>
</g>
<!-- Node187 -->
<g id="node2" class="node">
<title>Node187</title>
<g id="a_node2"><a xlink:href="libunicode_8c.html#a71293078e836b0d817225cd6c72e17c2" target="_top" xlink:title="get_index_pos">
<polygon fill="none" stroke="#000000" points="115,-.5 115,-19.5 195,-19.5 195,-.5 115,-.5"/>
<text text-anchor="middle" x="155" y="-7.5" font-family="Helvetica,sans-Serif" font-size="10.00" fill="#000000">get_index_pos</text>
</a>
</g>
</g>
<!-- Node186&#45;&gt;Node187 -->
<g id="edge1" class="edge">
<title>Node186&#45;&gt;Node187</title>
<path fill="none" stroke="#191970" d="M79.2485,-10C87.4134,-10 96.1118,-10 104.5951,-10"/>
<polygon fill="#191970" stroke="#191970" points="104.7861,-13.5001 114.7861,-10 104.7861,-6.5001 104.7861,-13.5001"/>
</g>
<!-- Node188 -->
<g id="node3" class="node">
<title>Node188</title>
<g id="a_node3"><a xlink:href="libunicode_8c.html#a3bd0341bf90b93aa553b61e02324b5e0" target="_top" xlink:title="get_le24">
<polygon fill="none" stroke="#000000" points="231,-.5 231,-19.5 284,-19.5 284,-.5 231,-.5"/>
<text text-anchor="middle" x="257.5" y="-7.5" font-family="Helvetica,sans-Serif" font-size="10.00" fill="#000000">get_le24</text>
</a>
</g>
</g>
<!-- Node187&#45;&gt;Node188 -->
<g id="edge2" class="edge">
<title>Node187&#45;&gt;Node188</title>
<path fill="none" stroke="#191970" d="M195.2165,-10C203.6557,-10 212.5139,-10 220.8159,-10"/>
<polygon fill="#191970" stroke="#191970" points="220.9611,-13.5001 230.961,-10 220.961,-6.5001 220.9611,-13.5001"/>
</g>
</g>
</svg>
