<?xml version="1.0" encoding="UTF-8" standalone="no"?>
<!DOCTYPE svg PUBLIC "-//W3C//DTD SVG 1.1//EN"
 "http://www.w3.org/Graphics/SVG/1.1/DTD/svg11.dtd">
<!-- Generated by graphviz version 2.40.1 (20161225.0304)
 -->
<!-- Title: init_list_head Pages: 1 -->
<svg width="714pt" height="618pt"
 viewBox="0.00 0.00 714.00 618.00" xmlns="http://www.w3.org/2000/svg" xmlns:xlink="http://www.w3.org/1999/xlink">
<g id="graph0" class="graph" transform="scale(1 1) rotate(0) translate(4 614)">
<title>init_list_head</title>
<!-- Node1 -->
<g id="node1" class="node">
<title>Node1</title>
<polygon fill="#bfbfbf" stroke="#000000" points="0,-284.5 0,-303.5 74,-303.5 74,-284.5 0,-284.5"/>
<text text-anchor="middle" x="37" y="-291.5" font-family="Helvetica,sans-Serif" font-size="10.00" fill="#000000">init_list_head</text>
</g>
<!-- Node2 -->
<g id="node2" class="node">
<title>Node2</title>
<g id="a_node2"><a xlink:href="quickjs_8c.html#a4bd986b91b68c6aa485f57c6142acccb" target="_top" xlink:title="async_func_init">
<polygon fill="none" stroke="#000000" points="137.5,-493.5 137.5,-512.5 222.5,-512.5 222.5,-493.5 137.5,-493.5"/>
<text text-anchor="middle" x="180" y="-500.5" font-family="Helvetica,sans-Serif" font-size="10.00" fill="#000000">async_func_init</text>
</a>
</g>
</g>
<!-- Node1&#45;&gt;Node2 -->
<g id="edge1" class="edge">
<title>Node1&#45;&gt;Node2</title>
<path fill="none" stroke="#191970" d="M41.5125,-313.5929C50.0162,-346.9413 71.1474,-415.4437 110,-460 122.9356,-474.8346 142.2662,-486.1709 157.3382,-493.4698"/>
<polygon fill="#191970" stroke="#191970" points="44.8738,-312.6033 39.1054,-303.7165 38.0729,-314.2609 44.8738,-312.6033"/>
</g>
<!-- Node4 -->
<g id="node4" class="node">
<title>Node4</title>
<g id="a_node4"><a xlink:href="quickjs_8c.html#a27966451027feb455b5da12c1578771c" target="_top" xlink:title="JS_NewRuntime2">
<polygon fill="none" stroke="#ff0000" points="610,-426.5 610,-445.5 706,-445.5 706,-426.5 610,-426.5"/>
<text text-anchor="middle" x="658" y="-433.5" font-family="Helvetica,sans-Serif" font-size="10.00" fill="#000000">JS_NewRuntime2</text>
</a>
</g>
</g>
<!-- Node1&#45;&gt;Node4 -->
<g id="edge29" class="edge">
<title>Node1&#45;&gt;Node4</title>
<path fill="none" stroke="#191970" d="M41.6287,-274.3249C52.4792,-230.0709 80.8502,-124.9897 110,-105 152.5221,-75.8402 533.7144,-78.821 574,-111 625.7956,-152.3728 651.8706,-376.8767 657.0344,-426.3511"/>
<polygon fill="#191970" stroke="#191970" points="38.1948,-273.6351 39.2577,-284.1765 45.0005,-275.2731 38.1948,-273.6351"/>
</g>
<!-- Node10 -->
<g id="node7" class="node">
<title>Node10</title>
<g id="a_node7"><a xlink:href="quickjs_8c.html#ae19867da709929c072f05e90301835a4" target="_top" xlink:title="js_async_generator\l_function_call">
<polygon fill="none" stroke="#000000" points="296.5,-541 296.5,-571 397.5,-571 397.5,-541 296.5,-541"/>
<text text-anchor="start" x="304.5" y="-559" font-family="Helvetica,sans-Serif" font-size="10.00" fill="#000000">js_async_generator</text>
<text text-anchor="middle" x="347" y="-548" font-family="Helvetica,sans-Serif" font-size="10.00" fill="#000000">_function_call</text>
</a>
</g>
</g>
<!-- Node1&#45;&gt;Node10 -->
<g id="edge17" class="edge">
<title>Node1&#45;&gt;Node10</title>
<path fill="none" stroke="#191970" d="M40.5349,-313.5866C49.979,-363.6644 77.3164,-494.3753 110,-522 161.7466,-565.7371 243.6795,-567.5617 296.3797,-563.1153"/>
<polygon fill="#191970" stroke="#191970" points="43.9645,-312.8845 38.7046,-303.6876 37.0812,-314.1573 43.9645,-312.8845"/>
</g>
<!-- Node11 -->
<g id="node8" class="node">
<title>Node11</title>
<g id="a_node8"><a xlink:href="quickjs_8c.html#ae09ca4f159971d3c1f1dafc8682ba04b" target="_top" xlink:title="gc_decref">
<polygon fill="none" stroke="#000000" points="150.5,-360.5 150.5,-379.5 209.5,-379.5 209.5,-360.5 150.5,-360.5"/>
<text text-anchor="middle" x="180" y="-367.5" font-family="Helvetica,sans-Serif" font-size="10.00" fill="#000000">gc_decref</text>
</a>
</g>
</g>
<!-- Node1&#45;&gt;Node11 -->
<g id="edge8" class="edge">
<title>Node1&#45;&gt;Node11</title>
<path fill="none" stroke="#191970" d="M53.9009,-310.4154C67.8942,-323.1685 88.8443,-340.4131 110,-351 122.6125,-357.3116 137.5875,-361.7373 150.4437,-364.7192"/>
<polygon fill="#191970" stroke="#191970" points="56.2112,-307.784 46.5168,-303.5098 51.4299,-312.8966 56.2112,-307.784"/>
</g>
<!-- Node612 -->
<g id="node12" class="node">
<title>Node612</title>
<g id="a_node12"><a xlink:href="quickjs_8c.html#ad80a65b72c3a346d8a0047858a5f0b13" target="_top" xlink:title="JS_FreeRuntime">
<polygon fill="none" stroke="#ff0000" points="464,-426.5 464,-445.5 554,-445.5 554,-426.5 464,-426.5"/>
<text text-anchor="middle" x="509" y="-433.5" font-family="Helvetica,sans-Serif" font-size="10.00" fill="#000000">JS_FreeRuntime</text>
</a>
</g>
</g>
<!-- Node1&#45;&gt;Node612 -->
<g id="edge21" class="edge">
<title>Node1&#45;&gt;Node612</title>
<path fill="none" stroke="#191970" d="M41.1992,-313.4965C48.9092,-343.9176 68.4925,-401.7973 110,-427 227.8593,-498.5624 403.5853,-464.306 475.9953,-445.5034"/>
<polygon fill="#191970" stroke="#191970" points="44.5775,-312.5731 38.8772,-303.6424 37.7641,-314.1786 44.5775,-312.5731"/>
</g>
<!-- Node614 -->
<g id="node13" class="node">
<title>Node614</title>
<g id="a_node13"><a xlink:href="quickjs_8c.html#af7c53b26778d6b7e155fab5349a4585e" target="_top" xlink:title="gc_free_cycles">
<polygon fill="none" stroke="#000000" points="138.5,-398.5 138.5,-417.5 221.5,-417.5 221.5,-398.5 138.5,-398.5"/>
<text text-anchor="middle" x="180" y="-405.5" font-family="Helvetica,sans-Serif" font-size="10.00" fill="#000000">gc_free_cycles</text>
</a>
</g>
</g>
<!-- Node1&#45;&gt;Node614 -->
<g id="edge14" class="edge">
<title>Node1&#45;&gt;Node614</title>
<path fill="none" stroke="#191970" d="M46.423,-312.6398C58.3103,-334.2569 80.7796,-369.4215 110,-389 118.4737,-394.6776 128.593,-398.6645 138.4683,-401.4622"/>
<polygon fill="#191970" stroke="#191970" points="49.4951,-310.9622 41.7196,-303.7656 43.3101,-314.2403 49.4951,-310.9622"/>
</g>
<!-- Node567 -->
<g id="node14" class="node">
<title>Node567</title>
<g id="a_node14"><a xlink:href="quickjs_8c.html#a06f84cf8ea00e2baf1a9b94f1a319b18" target="_top" xlink:title="js_array_buffer_constructor3">
<polygon fill="none" stroke="#ff0000" points="110,-322.5 110,-341.5 250,-341.5 250,-322.5 110,-322.5"/>
<text text-anchor="middle" x="180" y="-329.5" font-family="Helvetica,sans-Serif" font-size="10.00" fill="#000000">js_array_buffer_constructor3</text>
</a>
</g>
</g>
<!-- Node1&#45;&gt;Node567 -->
<g id="edge16" class="edge">
<title>Node1&#45;&gt;Node567</title>
<path fill="none" stroke="#191970" d="M82.8133,-306.1742C102.5871,-311.4287 125.3838,-317.4866 143.9266,-322.4141"/>
<polygon fill="#191970" stroke="#191970" points="83.6484,-302.7747 73.0849,-303.589 81.8506,-309.5399 83.6484,-302.7747"/>
</g>
<!-- Node448 -->
<g id="node15" class="node">
<title>Node448</title>
<g id="a_node15"><a xlink:href="quickjs_8c.html#a10203c5ecfd1db25342e97b0342ba514" target="_top" xlink:title="js_atomics_notify">
<polygon fill="none" stroke="#000000" points="133.5,-284.5 133.5,-303.5 226.5,-303.5 226.5,-284.5 133.5,-284.5"/>
<text text-anchor="middle" x="180" y="-291.5" font-family="Helvetica,sans-Serif" font-size="10.00" fill="#000000">js_atomics_notify</text>
</a>
</g>
</g>
<!-- Node1&#45;&gt;Node448 -->
<g id="edge18" class="edge">
<title>Node1&#45;&gt;Node448</title>
<path fill="none" stroke="#191970" d="M84.2552,-294C100.0069,-294 117.5393,-294 133.2522,-294"/>
<polygon fill="#191970" stroke="#191970" points="84.1983,-290.5001 74.1983,-294 84.1982,-297.5001 84.1983,-290.5001"/>
</g>
<!-- Node31 -->
<g id="node16" class="node">
<title>Node31</title>
<g id="a_node16"><a xlink:href="quickjs_8c.html#ac2894ff4edcdb4e6841bcce9c76081e3" target="_top" xlink:title="JS_CallInternal">
<polygon fill="none" stroke="#ff0000" points="138.5,-228.5 138.5,-247.5 221.5,-247.5 221.5,-228.5 138.5,-228.5"/>
<text text-anchor="middle" x="180" y="-235.5" font-family="Helvetica,sans-Serif" font-size="10.00" fill="#000000">JS_CallInternal</text>
</a>
</g>
</g>
<!-- Node1&#45;&gt;Node31 -->
<g id="edge19" class="edge">
<title>Node1&#45;&gt;Node31</title>
<path fill="none" stroke="#191970" d="M71.0798,-280.6541C97.1573,-270.4419 132.4815,-256.6086 155.7382,-247.5011"/>
<polygon fill="#191970" stroke="#191970" points="69.6178,-277.4677 61.5826,-284.3733 72.1703,-283.9858 69.6178,-277.4677"/>
</g>
<!-- Node48 -->
<g id="node17" class="node">
<title>Node48</title>
<g id="a_node17"><a xlink:href="quickjs_8c.html#a27dcb5e2923cd6c0201c70546d704748" target="_top" xlink:title="js_map_constructor">
<polygon fill="none" stroke="#ff0000" points="129,-190.5 129,-209.5 231,-209.5 231,-190.5 129,-190.5"/>
<text text-anchor="middle" x="180" y="-197.5" font-family="Helvetica,sans-Serif" font-size="10.00" fill="#000000">js_map_constructor</text>
</a>
</g>
</g>
<!-- Node1&#45;&gt;Node48 -->
<g id="edge22" class="edge">
<title>Node1&#45;&gt;Node48</title>
<path fill="none" stroke="#191970" d="M49.7153,-276.2468C62.904,-259.1146 85.0637,-233.6769 110,-219 116.5114,-215.1676 123.8158,-212.0879 131.1837,-209.6186"/>
<polygon fill="#191970" stroke="#191970" points="46.8455,-274.2403 43.669,-284.3478 52.4553,-278.4273 46.8455,-274.2403"/>
</g>
<!-- Node615 -->
<g id="node18" class="node">
<title>Node615</title>
<g id="a_node18"><a xlink:href="quickjs_8c.html#a8020fd59ed57f7f299216ec1ebfcda01" target="_top" xlink:title="js_new_function_def">
<polygon fill="none" stroke="#000000" points="127,-152.5 127,-171.5 233,-171.5 233,-152.5 127,-152.5"/>
<text text-anchor="middle" x="180" y="-159.5" font-family="Helvetica,sans-Serif" font-size="10.00" fill="#000000">js_new_function_def</text>
</a>
</g>
</g>
<!-- Node1&#45;&gt;Node615 -->
<g id="edge23" class="edge">
<title>Node1&#45;&gt;Node615</title>
<path fill="none" stroke="#191970" d="M44.2308,-274.8435C54.7854,-249.5066 76.8363,-205.2378 110,-181 115.2867,-177.1362 121.3138,-174.0582 127.5625,-171.6061"/>
<polygon fill="#191970" stroke="#191970" points="40.8615,-273.8441 40.4124,-284.4294 47.3645,-276.4346 40.8615,-273.8441"/>
</g>
<!-- Node241 -->
<g id="node23" class="node">
<title>Node241</title>
<g id="a_node23"><a xlink:href="quickjs_8c.html#a442ff496ba00319ad39eb0a129b9eb8b" target="_top" xlink:title="JS_NewContextRaw">
<polygon fill="none" stroke="#ff0000" points="125.5,-114.5 125.5,-133.5 234.5,-133.5 234.5,-114.5 125.5,-114.5"/>
<text text-anchor="middle" x="180" y="-121.5" font-family="Helvetica,sans-Serif" font-size="10.00" fill="#000000">JS_NewContextRaw</text>
</a>
</g>
</g>
<!-- Node1&#45;&gt;Node241 -->
<g id="edge28" class="edge">
<title>Node1&#45;&gt;Node241</title>
<path fill="none" stroke="#191970" d="M41.0338,-274.0956C48.6596,-241.6712 68.311,-177.6015 110,-143 114.6511,-139.1397 120.0189,-136.059 125.6713,-133.6013"/>
<polygon fill="#191970" stroke="#191970" points="37.5534,-273.6259 38.8215,-284.1446 44.3897,-275.131 37.5534,-273.6259"/>
</g>
<!-- Node100 -->
<g id="node24" class="node">
<title>Node100</title>
<g id="a_node24"><a xlink:href="quickjs_8c.html#a96f03a78375e0f29d9445c3fb2d5d60e" target="_top" xlink:title="js_promise_constructor">
<polygon fill="none" stroke="#ff0000" points="288,-590.5 288,-609.5 406,-609.5 406,-590.5 288,-590.5"/>
<text text-anchor="middle" x="347" y="-597.5" font-family="Helvetica,sans-Serif" font-size="10.00" fill="#000000">js_promise_constructor</text>
</a>
</g>
</g>
<!-- Node1&#45;&gt;Node100 -->
<g id="edge30" class="edge">
<title>Node1&#45;&gt;Node100</title>
<path fill="none" stroke="#191970" d="M39.7652,-313.8646C47.8835,-369.2639 73.4025,-523.599 110,-557 157.8758,-600.6942 234.6594,-607.2409 287.7944,-605.6055"/>
<polygon fill="#191970" stroke="#191970" points="43.181,-313.0268 38.2992,-303.6237 36.2516,-314.0188 43.181,-313.0268"/>
</g>
<!-- Node227 -->
<g id="node25" class="node">
<title>Node227</title>
<g id="a_node25"><a xlink:href="quickjs-libc_8c.html#ad04466feec6822a3b838baf229f6dfa0" target="_top" xlink:title="js_std_add_helpers">
<polygon fill="none" stroke="#ff0000" points="129.5,-38.5 129.5,-57.5 230.5,-57.5 230.5,-38.5 129.5,-38.5"/>
<text text-anchor="middle" x="180" y="-45.5" font-family="Helvetica,sans-Serif" font-size="10.00" fill="#000000">js_std_add_helpers</text>
</a>
</g>
</g>
<!-- Node1&#45;&gt;Node227 -->
<g id="edge32" class="edge">
<title>Node1&#45;&gt;Node227</title>
<path fill="none" stroke="#191970" d="M37.8179,-274.283C40.655,-231.4985 53.3345,-129.3843 110,-72 116.2286,-65.6924 124.1849,-61.0415 132.485,-57.6124"/>
<polygon fill="#191970" stroke="#191970" points="34.3119,-274.2981 37.2594,-284.4747 41.3014,-274.6812 34.3119,-274.2981"/>
</g>
<!-- Node619 -->
<g id="node26" class="node">
<title>Node619</title>
<g id="a_node26"><a xlink:href="quickjs_8c.html#aeccf925ab52fbc5faf1877795ba4e6a7" target="_top" xlink:title="map_hash_resize">
<polygon fill="none" stroke="#000000" points="133.5,-.5 133.5,-19.5 226.5,-19.5 226.5,-.5 133.5,-.5"/>
<text text-anchor="middle" x="180" y="-7.5" font-family="Helvetica,sans-Serif" font-size="10.00" fill="#000000">map_hash_resize</text>
</a>
</g>
</g>
<!-- Node1&#45;&gt;Node619 -->
<g id="edge33" class="edge">
<title>Node1&#45;&gt;Node619</title>
<path fill="none" stroke="#191970" d="M39.8379,-274.4879C48.2305,-219.3827 74.5766,-64.2904 110,-29 116.4231,-22.601 124.7703,-18.2985 133.4513,-15.4194"/>
<polygon fill="#191970" stroke="#191970" points="36.3758,-273.9745 38.3619,-284.3815 43.2992,-275.0074 36.3758,-273.9745"/>
</g>
<!-- Node3 -->
<g id="node3" class="node">
<title>Node3</title>
<g id="a_node3"><a xlink:href="quickjs_8c.html#ac90552b1f1659acb3dae9a4c62479a30" target="_top" xlink:title="js_generator_function_call">
<polygon fill="none" stroke="#000000" points="444,-464.5 444,-483.5 574,-483.5 574,-464.5 444,-464.5"/>
<text text-anchor="middle" x="509" y="-471.5" font-family="Helvetica,sans-Serif" font-size="10.00" fill="#000000">js_generator_function_call</text>
</a>
</g>
</g>
<!-- Node2&#45;&gt;Node3 -->
<g id="edge2" class="edge">
<title>Node2&#45;&gt;Node3</title>
<path fill="none" stroke="#191970" d="M232.8343,-497.9206C249.8088,-496.3142 268.6956,-494.5534 286,-493 339.0189,-488.2406 399.1565,-483.1338 443.6093,-479.4144"/>
<polygon fill="#191970" stroke="#191970" points="232.168,-494.468 222.5437,-498.8977 232.8297,-501.4367 232.168,-494.468"/>
</g>
<!-- Node7 -->
<g id="node5" class="node">
<title>Node7</title>
<g id="a_node5"><a xlink:href="quickjs_8c.html#a8029b29b8458274699fbcb7ce42a7100" target="_top" xlink:title="js_async_function_call">
<polygon fill="none" stroke="#000000" points="289,-502.5 289,-521.5 405,-521.5 405,-502.5 289,-502.5"/>
<text text-anchor="middle" x="347" y="-509.5" font-family="Helvetica,sans-Serif" font-size="10.00" fill="#000000">js_async_function_call</text>
</a>
</g>
</g>
<!-- Node2&#45;&gt;Node7 -->
<g id="edge4" class="edge">
<title>Node2&#45;&gt;Node7</title>
<path fill="none" stroke="#191970" d="M232.7761,-505.8442C250.5804,-506.8037 270.5502,-507.88 288.7527,-508.8609"/>
<polygon fill="#191970" stroke="#191970" points="232.7471,-502.3377 222.5733,-505.2944 232.3704,-509.3275 232.7471,-502.3377"/>
</g>
<!-- Node2&#45;&gt;Node10 -->
<g id="edge6" class="edge">
<title>Node2&#45;&gt;Node10</title>
<path fill="none" stroke="#191970" d="M220.0568,-515.7126C243.9805,-523.3052 274.4989,-532.9907 299.6165,-540.9621"/>
<polygon fill="#191970" stroke="#191970" points="220.8327,-512.2869 210.2424,-512.5979 218.7152,-518.959 220.8327,-512.2869"/>
</g>
<!-- Node3&#45;&gt;Node4 -->
<g id="edge3" class="edge">
<title>Node3&#45;&gt;Node4</title>
<path fill="none" stroke="#191970" d="M556.4922,-461.8879C577.2436,-456.5956 601.2282,-450.4787 620.6714,-445.5201"/>
<polygon fill="#191970" stroke="#191970" points="555.4239,-458.5482 546.599,-464.411 557.1538,-465.3311 555.4239,-458.5482"/>
</g>
<!-- Node8 -->
<g id="node6" class="node">
<title>Node8</title>
<g id="a_node6"><a xlink:href="quickjs_8c.html#a2e66fcf1bc1d19f346317f10ee590621" target="_top" xlink:title="JS_AddIntrinsicPromise">
<polygon fill="none" stroke="#ff0000" points="448,-546.5 448,-565.5 570,-565.5 570,-546.5 448,-546.5"/>
<text text-anchor="middle" x="509" y="-553.5" font-family="Helvetica,sans-Serif" font-size="10.00" fill="#000000">JS_AddIntrinsicPromise</text>
</a>
</g>
</g>
<!-- Node7&#45;&gt;Node8 -->
<g id="edge5" class="edge">
<title>Node7&#45;&gt;Node8</title>
<path fill="none" stroke="#191970" d="M392.0943,-524.2478C417.9575,-531.2724 449.9438,-539.96 473.917,-546.4713"/>
<polygon fill="#191970" stroke="#191970" points="392.7194,-520.7909 382.1516,-521.5473 390.8846,-527.5461 392.7194,-520.7909"/>
</g>
<!-- Node10&#45;&gt;Node8 -->
<g id="edge7" class="edge">
<title>Node10&#45;&gt;Node8</title>
<path fill="none" stroke="#191970" d="M408.0672,-556C421.0835,-556 434.8319,-556 447.8512,-556"/>
<polygon fill="#191970" stroke="#191970" points="407.8134,-552.5001 397.8133,-556 407.8133,-559.5001 407.8134,-552.5001"/>
</g>
<!-- Node12 -->
<g id="node9" class="node">
<title>Node12</title>
<g id="a_node9"><a xlink:href="quickjs_8c.html#aeeea589ee4cec4bbc3145210f4cf6e42" target="_top" xlink:title="JS_RunGC">
<polygon fill="none" stroke="#000000" points="313.5,-388.5 313.5,-407.5 380.5,-407.5 380.5,-388.5 313.5,-388.5"/>
<text text-anchor="middle" x="347" y="-395.5" font-family="Helvetica,sans-Serif" font-size="10.00" fill="#000000">JS_RunGC</text>
</a>
</g>
</g>
<!-- Node11&#45;&gt;Node12 -->
<g id="edge9" class="edge">
<title>Node11&#45;&gt;Node12</title>
<path fill="none" stroke="#191970" d="M219.9019,-376.6901C248.4303,-381.4733 286.3954,-387.8388 313.384,-392.3638"/>
<polygon fill="#191970" stroke="#191970" points="220.2974,-373.2077 209.8563,-375.0058 219.1398,-380.1113 220.2974,-373.2077"/>
</g>
<!-- Node13 -->
<g id="node10" class="node">
<title>Node13</title>
<g id="a_node10"><a xlink:href="quickjs-libc_8c.html#a9d1d581951398643c2791e45231f87db" target="_top" xlink:title="js_std_gc">
<polygon fill="none" stroke="#000000" points="479.5,-350.5 479.5,-369.5 538.5,-369.5 538.5,-350.5 479.5,-350.5"/>
<text text-anchor="middle" x="509" y="-357.5" font-family="Helvetica,sans-Serif" font-size="10.00" fill="#000000">js_std_gc</text>
</a>
</g>
</g>
<!-- Node12&#45;&gt;Node13 -->
<g id="edge10" class="edge">
<title>Node12&#45;&gt;Node13</title>
<path fill="none" stroke="#191970" d="M390.5332,-387.7885C418.6267,-381.1987 454.4323,-372.7998 479.2896,-366.9691"/>
<polygon fill="#191970" stroke="#191970" points="389.5029,-384.4351 380.5665,-390.1264 391.1016,-391.2501 389.5029,-384.4351"/>
</g>
<!-- Node14 -->
<g id="node11" class="node">
<title>Node14</title>
<g id="a_node11"><a xlink:href="quickjs_8c.html#a85321334e4bec66bfc03451897a03a3b" target="_top" xlink:title="js_trigger_gc">
<polygon fill="none" stroke="#ff0000" points="473,-388.5 473,-407.5 545,-407.5 545,-388.5 473,-388.5"/>
<text text-anchor="middle" x="509" y="-395.5" font-family="Helvetica,sans-Serif" font-size="10.00" fill="#000000">js_trigger_gc</text>
</a>
</g>
</g>
<!-- Node12&#45;&gt;Node14 -->
<g id="edge11" class="edge">
<title>Node12&#45;&gt;Node14</title>
<path fill="none" stroke="#191970" d="M390.803,-398C416.5411,-398 448.6798,-398 472.9448,-398"/>
<polygon fill="#191970" stroke="#191970" points="390.5665,-394.5001 380.5665,-398 390.5665,-401.5001 390.5665,-394.5001"/>
</g>
<!-- Node12&#45;&gt;Node612 -->
<g id="edge12" class="edge">
<title>Node12&#45;&gt;Node612</title>
<path fill="none" stroke="#191970" d="M390.5426,-408.2137C414.7166,-413.8841 444.5987,-420.8935 468.3019,-426.4535"/>
<polygon fill="#191970" stroke="#191970" points="391.1016,-404.7499 380.5665,-405.8736 389.5029,-411.5649 391.1016,-404.7499"/>
</g>
<!-- Node612&#45;&gt;Node4 -->
<g id="edge13" class="edge">
<title>Node612&#45;&gt;Node4</title>
<path fill="none" stroke="#191970" d="M564.2779,-436C579.2705,-436 595.3779,-436 609.9374,-436"/>
<polygon fill="#191970" stroke="#191970" points="564.1093,-432.5001 554.1093,-436 564.1092,-439.5001 564.1093,-432.5001"/>
</g>
<!-- Node614&#45;&gt;Node12 -->
<g id="edge15" class="edge">
<title>Node614&#45;&gt;Node12</title>
<path fill="none" stroke="#191970" d="M231.9868,-404.887C258.5303,-403.2976 290.053,-401.41 313.3785,-400.0133"/>
<polygon fill="#191970" stroke="#191970" points="231.4832,-401.4108 221.7104,-405.5024 231.9017,-408.3983 231.4832,-401.4108"/>
</g>
<!-- Node31&#45;&gt;Node31 -->
<g id="edge20" class="edge">
<title>Node31&#45;&gt;Node31</title>
<path fill="none" stroke="#191970" d="M153.4941,-256.6539C154.6021,-261.9368 163.4374,-266 180,-266 205.2383,-266 212.5337,-256.5653 201.8863,-247.7571"/>
<polygon fill="#191970" stroke="#191970" points="156.6117,-258.2449 158.1137,-247.7571 150.3992,-255.0192 156.6117,-258.2449"/>
</g>
<!-- Node616 -->
<g id="node19" class="node">
<title>Node616</title>
<g id="a_node19"><a xlink:href="quickjs_8c.html#a63058dc37265af331214fa1eec1aebf8" target="_top" xlink:title="js_parse_function_class\l_fields_init">
<polygon fill="none" stroke="#000000" points="286,-115 286,-145 408,-145 408,-115 286,-115"/>
<text text-anchor="start" x="294" y="-133" font-family="Helvetica,sans-Serif" font-size="10.00" fill="#000000">js_parse_function_class</text>
<text text-anchor="middle" x="347" y="-122" font-family="Helvetica,sans-Serif" font-size="10.00" fill="#000000">_fields_init</text>
</a>
</g>
</g>
<!-- Node615&#45;&gt;Node616 -->
<g id="edge24" class="edge">
<title>Node615&#45;&gt;Node616</title>
<path fill="none" stroke="#191970" d="M239.7788,-150.5454C254.6965,-147.6869 270.7157,-144.6174 285.7054,-141.7451"/>
<polygon fill="#191970" stroke="#191970" points="238.816,-147.1661 229.6534,-152.4856 240.1334,-154.041 238.816,-147.1661"/>
</g>
<!-- Node264 -->
<g id="node21" class="node">
<title>Node264</title>
<g id="a_node21"><a xlink:href="quickjs_8c.html#acc9eb677cab8dfcf45f59381f8a19601" target="_top" xlink:title="js_parse_function_decl2">
<polygon fill="none" stroke="#ff0000" points="286,-202.5 286,-221.5 408,-221.5 408,-202.5 286,-202.5"/>
<text text-anchor="middle" x="347" y="-209.5" font-family="Helvetica,sans-Serif" font-size="10.00" fill="#000000">js_parse_function_decl2</text>
</a>
</g>
</g>
<!-- Node615&#45;&gt;Node264 -->
<g id="edge26" class="edge">
<title>Node615&#45;&gt;Node264</title>
<path fill="none" stroke="#191970" d="M226.5779,-174.2461C234.4183,-176.4209 242.4566,-178.721 250,-181 266.1448,-185.8776 269.948,-187.8253 286,-193 295.7125,-196.131 306.3224,-199.4655 315.9302,-202.4528"/>
<polygon fill="#191970" stroke="#191970" points="227.374,-170.8353 216.8046,-171.5695 225.5249,-177.5867 227.374,-170.8353"/>
</g>
<!-- Node270 -->
<g id="node22" class="node">
<title>Node270</title>
<g id="a_node22"><a xlink:href="quickjs_8c.html#a46a8a7e155cfd0af984f6725f060f0d6" target="_top" xlink:title="__JS_EvalInternal">
<polygon fill="none" stroke="#ff0000" points="299,-164.5 299,-183.5 395,-183.5 395,-164.5 299,-164.5"/>
<text text-anchor="middle" x="347" y="-171.5" font-family="Helvetica,sans-Serif" font-size="10.00" fill="#000000">__JS_EvalInternal</text>
</a>
</g>
</g>
<!-- Node615&#45;&gt;Node270 -->
<g id="edge27" class="edge">
<title>Node615&#45;&gt;Node270</title>
<path fill="none" stroke="#191970" d="M243.3342,-166.551C261.698,-167.8705 281.4458,-169.2895 298.7282,-170.5314"/>
<polygon fill="#191970" stroke="#191970" points="243.5242,-163.0557 233.299,-165.8299 243.0224,-170.0377 243.5242,-163.0557"/>
</g>
<!-- Node617 -->
<g id="node20" class="node">
<title>Node617</title>
<g id="a_node20"><a xlink:href="quickjs_8c.html#a38e4107378b0d9abd638e4fe13541678" target="_top" xlink:title="emit_class_init_start">
<polygon fill="none" stroke="#ff0000" points="455.5,-120.5 455.5,-139.5 562.5,-139.5 562.5,-120.5 455.5,-120.5"/>
<text text-anchor="middle" x="509" y="-127.5" font-family="Helvetica,sans-Serif" font-size="10.00" fill="#000000">emit_class_init_start</text>
</a>
</g>
</g>
<!-- Node616&#45;&gt;Node617 -->
<g id="edge25" class="edge">
<title>Node616&#45;&gt;Node617</title>
<path fill="none" stroke="#191970" d="M418.5395,-130C430.9088,-130 443.5765,-130 455.3674,-130"/>
<polygon fill="#191970" stroke="#191970" points="418.2453,-126.5001 408.2453,-130 418.2452,-133.5001 418.2453,-126.5001"/>
</g>
<!-- Node100&#45;&gt;Node8 -->
<g id="edge31" class="edge">
<title>Node100&#45;&gt;Node8</title>
<path fill="none" stroke="#191970" d="M392.0943,-587.7522C417.9575,-580.7276 449.9438,-572.04 473.917,-565.5287"/>
<polygon fill="#191970" stroke="#191970" points="390.8846,-584.4539 382.1516,-590.4527 392.7194,-591.2091 390.8846,-584.4539"/>
</g>
<!-- Node620 -->
<g id="node27" class="node">
<title>Node620</title>
<g id="a_node27"><a xlink:href="quickjs_8c.html#a3691dc732fa96ac90c70eb3c4a9f9a6c" target="_top" xlink:title="map_add_record">
<polygon fill="none" stroke="#000000" points="302.5,-.5 302.5,-19.5 391.5,-19.5 391.5,-.5 302.5,-.5"/>
<text text-anchor="middle" x="347" y="-7.5" font-family="Helvetica,sans-Serif" font-size="10.00" fill="#000000">map_add_record</text>
</a>
</g>
</g>
<!-- Node619&#45;&gt;Node620 -->
<g id="edge34" class="edge">
<title>Node619&#45;&gt;Node620</title>
<path fill="none" stroke="#191970" d="M236.8029,-10C258.2394,-10 282.2995,-10 302.4562,-10"/>
<polygon fill="#191970" stroke="#191970" points="236.5188,-6.5001 226.5188,-10 236.5188,-13.5001 236.5188,-6.5001"/>
</g>
</g>
</svg>
