<?xml version="1.0" encoding="UTF-8" standalone="no"?>
<!DOCTYPE svg PUBLIC "-//W3C//DTD SVG 1.1//EN"
 "http://www.w3.org/Graphics/SVG/1.1/DTD/svg11.dtd">
<!-- Generated by graphviz version 2.40.1 (20161225.0304)
 -->
<!-- Title: main Pages: 1 -->
<svg width="647pt" height="750pt"
 viewBox="0.00 0.00 647.00 750.00" xmlns="http://www.w3.org/2000/svg" xmlns:xlink="http://www.w3.org/1999/xlink">
<g id="graph0" class="graph" transform="scale(1 1) rotate(0) translate(4 746)">
<title>main</title>
<!-- Node0 -->
<g id="node1" class="node">
<title>Node0</title>
<polygon fill="#bfbfbf" stroke="#000000" points="0,-228.5 0,-247.5 38,-247.5 38,-228.5 0,-228.5"/>
<text text-anchor="middle" x="19" y="-235.5" font-family="Helvetica,sans-Serif" font-size="10.00" fill="#000000">main</text>
</g>
<!-- Node1 -->
<g id="node2" class="node">
<title>Node1</title>
<g id="a_node2"><a xlink:href="classqjs_1_1Context.html#af725fb8083d8c33a37198d6acaf1a836" target="_top" xlink:title="qjs::Context::Context">
<polygon fill="none" stroke="#000000" points="85.5,-665.5 85.5,-684.5 195.5,-684.5 195.5,-665.5 85.5,-665.5"/>
<text text-anchor="middle" x="140.5" y="-672.5" font-family="Helvetica,sans-Serif" font-size="10.00" fill="#000000">qjs::Context::Context</text>
</a>
</g>
</g>
<!-- Node0&#45;&gt;Node1 -->
<g id="edge1" class="edge">
<title>Node0&#45;&gt;Node1</title>
<path fill="none" stroke="#191970" d="M19.7369,-247.6589C23.7108,-298.313 43.5429,-533.4587 74,-599 85.0106,-622.694 105.7368,-644.5562 121.1361,-658.6902"/>
<polygon fill="#191970" stroke="#191970" points="118.8243,-661.3181 128.6238,-665.3457 123.4748,-656.0862 118.8243,-661.3181"/>
</g>
<!-- Node3 -->
<g id="node4" class="node">
<title>Node3</title>
<g id="a_node4"><a xlink:href="classqjs_1_1Context.html#aeafa4cad50424999587a30d7d3994251" target="_top" xlink:title="qjs::Context::eval">
<polygon fill="none" stroke="#000000" points="259.5,-380.5 259.5,-399.5 353.5,-399.5 353.5,-380.5 259.5,-380.5"/>
<text text-anchor="middle" x="306.5" y="-387.5" font-family="Helvetica,sans-Serif" font-size="10.00" fill="#000000">qjs::Context::eval</text>
</a>
</g>
</g>
<!-- Node0&#45;&gt;Node3 -->
<g id="edge3" class="edge">
<title>Node0&#45;&gt;Node3</title>
<path fill="none" stroke="#191970" d="M21.722,-247.5174C27.7495,-266.8113 44.111,-310.5968 74,-333 125.0233,-371.2443 198.4011,-384.1208 249.0099,-388.2998"/>
<polygon fill="#191970" stroke="#191970" points="248.9008,-391.8011 259.1309,-389.0451 249.4149,-384.82 248.9008,-391.8011"/>
</g>
<!-- Node8 -->
<g id="node8" class="node">
<title>Node8</title>
<g id="a_node8"><a xlink:href="classqjs_1_1Context.html#a003bfbb1ead4106d2f1fad18cedbdad1" target="_top" xlink:title="qjs::Context::evalFile">
<polygon fill="none" stroke="#000000" points="85.5,-408.5 85.5,-427.5 195.5,-427.5 195.5,-408.5 85.5,-408.5"/>
<text text-anchor="middle" x="140.5" y="-415.5" font-family="Helvetica,sans-Serif" font-size="10.00" fill="#000000">qjs::Context::evalFile</text>
</a>
</g>
</g>
<!-- Node0&#45;&gt;Node8 -->
<g id="edge7" class="edge">
<title>Node0&#45;&gt;Node8</title>
<path fill="none" stroke="#191970" d="M20.77,-247.6671C25.5657,-271.6122 40.7476,-334.6517 74,-375 83.7097,-386.7818 97.5086,-396.4332 110.0219,-403.5856"/>
<polygon fill="#191970" stroke="#191970" points="108.3682,-406.6703 118.8296,-408.3467 111.697,-400.5124 108.3682,-406.6703"/>
</g>
<!-- Node12 -->
<g id="node11" class="node">
<title>Node12</title>
<g id="a_node11"><a xlink:href="classqjs_1_1Context.html#a3d44c8a62385adeb9248cb38ae0168da" target="_top" xlink:title="returns current exception associated with context, and resets it. ">
<polygon fill="none" stroke="#000000" points="74,-304.5 74,-323.5 207,-323.5 207,-304.5 74,-304.5"/>
<text text-anchor="middle" x="140.5" y="-311.5" font-family="Helvetica,sans-Serif" font-size="10.00" fill="#000000">qjs::Context::getException</text>
</a>
</g>
</g>
<!-- Node0&#45;&gt;Node12 -->
<g id="edge12" class="edge">
<title>Node0&#45;&gt;Node12</title>
<path fill="none" stroke="#191970" d="M25.6775,-247.57C35.0357,-260.2714 53.2509,-282.5404 74,-295 77.59,-297.1557 81.436,-299.0767 85.4016,-300.7869"/>
<polygon fill="#191970" stroke="#191970" points="84.2179,-304.0816 94.8078,-304.4061 86.7317,-297.5485 84.2179,-304.0816"/>
</g>
<!-- Node14 -->
<g id="node13" class="node">
<title>Node14</title>
<g id="a_node13"><a xlink:href="classqjs_1_1Value.html#a57d738d3c1035c1cccbec16676fa59db" target="_top" xlink:title="qjs::Value::isError">
<polygon fill="none" stroke="#000000" points="93,-266.5 93,-285.5 188,-285.5 188,-266.5 93,-266.5"/>
<text text-anchor="middle" x="140.5" y="-273.5" font-family="Helvetica,sans-Serif" font-size="10.00" fill="#000000">qjs::Value::isError</text>
</a>
</g>
</g>
<!-- Node0&#45;&gt;Node14 -->
<g id="edge15" class="edge">
<title>Node0&#45;&gt;Node14</title>
<path fill="none" stroke="#191970" d="M38.0058,-244.8506C48.5614,-248.5834 61.9567,-253.2024 74,-257 81.166,-259.2596 88.8022,-261.5499 96.2506,-263.7208"/>
<polygon fill="#191970" stroke="#191970" points="95.3006,-267.0894 105.8787,-266.4932 97.2377,-260.3627 95.3006,-267.0894"/>
</g>
<!-- Node16 -->
<g id="node15" class="node">
<title>Node16</title>
<g id="a_node15"><a xlink:href="quickjs-libc_8h.html#adcca2b4a661355e6ff87a0def2339894" target="_top" xlink:title="js_init_module_os">
<polygon fill="none" stroke="#000000" points="93,-228.5 93,-247.5 188,-247.5 188,-228.5 93,-228.5"/>
<text text-anchor="middle" x="140.5" y="-235.5" font-family="Helvetica,sans-Serif" font-size="10.00" fill="#000000">js_init_module_os</text>
</a>
</g>
</g>
<!-- Node0&#45;&gt;Node16 -->
<g id="edge17" class="edge">
<title>Node0&#45;&gt;Node16</title>
<path fill="none" stroke="#191970" d="M38.252,-238C50.2729,-238 66.4463,-238 82.3782,-238"/>
<polygon fill="#191970" stroke="#191970" points="82.7668,-241.5001 92.7668,-238 82.7667,-234.5001 82.7668,-241.5001"/>
</g>
<!-- Node465 -->
<g id="node20" class="node">
<title>Node465</title>
<g id="a_node20"><a xlink:href="quickjs-libc_8h.html#a0e65c67dfff872a664f8d29e7eae5a61" target="_top" xlink:title="js_init_module_std">
<polygon fill="none" stroke="#000000" points="91.5,-190.5 91.5,-209.5 189.5,-209.5 189.5,-190.5 91.5,-190.5"/>
<text text-anchor="middle" x="140.5" y="-197.5" font-family="Helvetica,sans-Serif" font-size="10.00" fill="#000000">js_init_module_std</text>
</a>
</g>
</g>
<!-- Node0&#45;&gt;Node465 -->
<g id="edge22" class="edge">
<title>Node0&#45;&gt;Node465</title>
<path fill="none" stroke="#191970" d="M38.0058,-231.1494C48.5614,-227.4166 61.9567,-222.7976 74,-219 81.166,-216.7404 88.8022,-214.4501 96.2506,-212.2792"/>
<polygon fill="#191970" stroke="#191970" points="97.2377,-215.6373 105.8787,-209.5068 95.3006,-208.9106 97.2377,-215.6373"/>
</g>
<!-- Node469 -->
<g id="node22" class="node">
<title>Node469</title>
<g id="a_node22"><a xlink:href="quickjs-libc_8h.html#ad61d60681847f324c5ba4ad88c546f1e" target="_top" xlink:title="js_module_loader">
<polygon fill="none" stroke="#ff0000" points="94.5,-570.5 94.5,-589.5 186.5,-589.5 186.5,-570.5 94.5,-570.5"/>
<text text-anchor="middle" x="140.5" y="-577.5" font-family="Helvetica,sans-Serif" font-size="10.00" fill="#000000">js_module_loader</text>
</a>
</g>
</g>
<!-- Node0&#45;&gt;Node469 -->
<g id="edge27" class="edge">
<title>Node0&#45;&gt;Node469</title>
<path fill="none" stroke="#191970" d="M21.0807,-247.7053C27.4576,-276.8578 47.8912,-366.019 74,-437 90.8461,-482.7987 116.4686,-534.14 130.4815,-561.107"/>
<polygon fill="#191970" stroke="#191970" points="127.4983,-562.9548 135.2412,-570.1866 133.6981,-559.7047 127.4983,-562.9548"/>
</g>
<!-- Node478 -->
<g id="node26" class="node">
<title>Node478</title>
<g id="a_node26"><a xlink:href="quickjs_8c.html#ae7580084b7ee2e8ebe03e24b693750e3" target="_top" xlink:title="JS_SetModuleLoaderFunc">
<polygon fill="none" stroke="#000000" points="75,-152.5 75,-171.5 206,-171.5 206,-152.5 75,-152.5"/>
<text text-anchor="middle" x="140.5" y="-159.5" font-family="Helvetica,sans-Serif" font-size="10.00" fill="#000000">JS_SetModuleLoaderFunc</text>
</a>
</g>
</g>
<!-- Node0&#45;&gt;Node478 -->
<g id="edge36" class="edge">
<title>Node0&#45;&gt;Node478</title>
<path fill="none" stroke="#191970" d="M25.6775,-228.43C35.0357,-215.7286 53.2509,-193.4596 74,-181 77.59,-178.8443 81.436,-176.9233 85.4016,-175.2131"/>
<polygon fill="#191970" stroke="#191970" points="86.7317,-178.4515 94.8078,-171.5939 84.2179,-171.9184 86.7317,-178.4515"/>
</g>
<!-- Node479 -->
<g id="node27" class="node">
<title>Node479</title>
<g id="a_node27"><a xlink:href="quickjs-libc_8h.html#ad04466feec6822a3b838baf229f6dfa0" target="_top" xlink:title="js_std_add_helpers">
<polygon fill="none" stroke="#ff0000" points="90,-114.5 90,-133.5 191,-133.5 191,-114.5 90,-114.5"/>
<text text-anchor="middle" x="140.5" y="-121.5" font-family="Helvetica,sans-Serif" font-size="10.00" fill="#000000">js_std_add_helpers</text>
</a>
</g>
</g>
<!-- Node0&#45;&gt;Node479 -->
<g id="edge37" class="edge">
<title>Node0&#45;&gt;Node479</title>
<path fill="none" stroke="#191970" d="M21.8878,-228.2806C28.1205,-209.009 44.6909,-165.8481 74,-143 76.431,-141.1049 79.0433,-139.3988 81.7759,-137.8628"/>
<polygon fill="#191970" stroke="#191970" points="83.3373,-140.9957 90.8385,-133.5135 80.3086,-134.6848 83.3373,-140.9957"/>
</g>
<!-- Node488 -->
<g id="node28" class="node">
<title>Node488</title>
<g id="a_node28"><a xlink:href="quickjs-libc_8h.html#a090f31285f348ef3b91004b9a9a294d0" target="_top" xlink:title="js_std_free_handlers">
<polygon fill="none" stroke="#ff0000" points="87,-76.5 87,-95.5 194,-95.5 194,-76.5 87,-76.5"/>
<text text-anchor="middle" x="140.5" y="-83.5" font-family="Helvetica,sans-Serif" font-size="10.00" fill="#000000">js_std_free_handlers</text>
</a>
</g>
</g>
<!-- Node0&#45;&gt;Node488 -->
<g id="edge38" class="edge">
<title>Node0&#45;&gt;Node488</title>
<path fill="none" stroke="#191970" d="M20.128,-228.3278C23.5023,-203.8735 35.7785,-139.1012 74,-105 75.7471,-103.4412 77.6139,-102.0097 79.572,-100.6951"/>
<polygon fill="#191970" stroke="#191970" points="81.6135,-103.5647 88.6541,-95.6476 78.213,-97.4461 81.6135,-103.5647"/>
</g>
<!-- Node491 -->
<g id="node29" class="node">
<title>Node491</title>
<g id="a_node29"><a xlink:href="quickjs-libc_8h.html#af7480dad10e937004e36b2b409b084a4" target="_top" xlink:title="js_std_loop">
<polygon fill="none" stroke="#ff0000" points="107.5,-38.5 107.5,-57.5 173.5,-57.5 173.5,-38.5 107.5,-38.5"/>
<text text-anchor="middle" x="140.5" y="-45.5" font-family="Helvetica,sans-Serif" font-size="10.00" fill="#000000">js_std_loop</text>
</a>
</g>
</g>
<!-- Node0&#45;&gt;Node491 -->
<g id="edge39" class="edge">
<title>Node0&#45;&gt;Node491</title>
<path fill="none" stroke="#191970" d="M20.836,-228.4956C27.281,-196.0563 49.7962,-90.4206 74,-67 80.5201,-60.6909 88.9849,-56.4509 97.6783,-53.6082"/>
<polygon fill="#191970" stroke="#191970" points="98.757,-56.9424 107.499,-50.9567 96.9324,-50.1843 98.757,-56.9424"/>
</g>
<!-- Node493 -->
<g id="node30" class="node">
<title>Node493</title>
<g id="a_node30"><a xlink:href="classqjs_1_1Value.html#af11fd023b991d7d6adc5c18142ded292" target="_top" xlink:title="Access JS properties. ">
<polygon fill="none" stroke="#000000" points="87,-.5 87,-19.5 194,-19.5 194,-.5 87,-.5"/>
<text text-anchor="middle" x="140.5" y="-7.5" font-family="Helvetica,sans-Serif" font-size="10.00" fill="#000000">qjs::Value::operator[]</text>
</a>
</g>
</g>
<!-- Node0&#45;&gt;Node493 -->
<g id="edge40" class="edge">
<title>Node0&#45;&gt;Node493</title>
<path fill="none" stroke="#191970" d="M20.2784,-228.2598C25.35,-191.0407 45.1895,-58.4212 74,-29 75.4176,-27.5523 76.9373,-26.2129 78.5395,-24.9738"/>
<polygon fill="#191970" stroke="#191970" points="80.5332,-27.8549 87.1464,-19.5774 76.8147,-21.9242 80.5332,-27.8549"/>
</g>
<!-- Node2 -->
<g id="node3" class="node">
<title>Node2</title>
<g id="a_node3"><a xlink:href="classqjs_1_1Context.html#a4392a23648acfc4bf6b445336efb5007" target="_top" xlink:title="qjs::Context::Context">
<polygon fill="none" stroke="#000000" points="251.5,-722.5 251.5,-741.5 361.5,-741.5 361.5,-722.5 251.5,-722.5"/>
<text text-anchor="middle" x="306.5" y="-729.5" font-family="Helvetica,sans-Serif" font-size="10.00" fill="#000000">qjs::Context::Context</text>
</a>
</g>
</g>
<!-- Node1&#45;&gt;Node2 -->
<g id="edge2" class="edge">
<title>Node1&#45;&gt;Node2</title>
<path fill="none" stroke="#191970" d="M168.2847,-684.5405C195.9349,-694.0349 238.5472,-708.6668 269.1462,-719.1737"/>
<polygon fill="#191970" stroke="#191970" points="268.03,-722.491 278.6247,-722.4284 270.3034,-715.8704 268.03,-722.491"/>
</g>
<!-- Node4 -->
<g id="node5" class="node">
<title>Node4</title>
<g id="a_node5"><a xlink:href="quickjs_8c.html#a8f9200abd5af97fd0411fe053cb021e0" target="_top" xlink:title="JS_Eval">
<polygon fill="none" stroke="#ff0000" points="435,-456.5 435,-475.5 488,-475.5 488,-456.5 435,-456.5"/>
<text text-anchor="middle" x="461.5" y="-463.5" font-family="Helvetica,sans-Serif" font-size="10.00" fill="#000000">JS_Eval</text>
</a>
</g>
</g>
<!-- Node3&#45;&gt;Node4 -->
<g id="edge4" class="edge">
<title>Node3&#45;&gt;Node4</title>
<path fill="none" stroke="#191970" d="M334.7085,-399.5935C345.862,-403.6619 358.6924,-408.6894 370,-414 393.6602,-425.112 419.4514,-440.044 437.6028,-451.0561"/>
<polygon fill="#191970" stroke="#191970" points="435.9918,-454.1739 446.3466,-456.4165 439.6504,-448.206 435.9918,-454.1739"/>
</g>
<!-- Node6 -->
<g id="node6" class="node">
<title>Node6</title>
<g id="a_node6"><a xlink:href="classqjs_1_1Value.html#a8e2a5be6c89f30cee044b884e30bf819" target="_top" xlink:title="Use context.newValue(val) instead. ">
<polygon fill="none" stroke="#000000" points="416,-380.5 416,-399.5 507,-399.5 507,-380.5 416,-380.5"/>
<text text-anchor="middle" x="461.5" y="-387.5" font-family="Helvetica,sans-Serif" font-size="10.00" fill="#000000">qjs::Value::Value</text>
</a>
</g>
</g>
<!-- Node3&#45;&gt;Node6 -->
<g id="edge5" class="edge">
<title>Node3&#45;&gt;Node6</title>
<path fill="none" stroke="#191970" d="M353.8473,-390C370.141,-390 388.5412,-390 405.4602,-390"/>
<polygon fill="#191970" stroke="#191970" points="405.7712,-393.5001 415.7711,-390 405.7711,-386.5001 405.7712,-393.5001"/>
</g>
<!-- Node7 -->
<g id="node7" class="node">
<title>Node7</title>
<g id="a_node7"><a xlink:href="quickjs_8h.html#ad80a83d73e9b7d872b88fbf2943aebe9" target="_top" xlink:title="JS_IsException">
<polygon fill="none" stroke="#000000" points="553,-532.5 553,-551.5 639,-551.5 639,-532.5 553,-532.5"/>
<text text-anchor="middle" x="596" y="-539.5" font-family="Helvetica,sans-Serif" font-size="10.00" fill="#000000">JS_IsException</text>
</a>
</g>
</g>
<!-- Node6&#45;&gt;Node7 -->
<g id="edge6" class="edge">
<title>Node6&#45;&gt;Node7</title>
<path fill="none" stroke="#191970" d="M471.5681,-399.8628C482.8786,-411.0512 501.661,-429.959 517,-447 540.6452,-473.2688 566.5786,-505.0765 582.06,-524.4116"/>
<polygon fill="#191970" stroke="#191970" points="579.4209,-526.716 588.3918,-532.353 584.8942,-522.3521 579.4209,-526.716"/>
</g>
<!-- Node8&#45;&gt;Node3 -->
<g id="edge11" class="edge">
<title>Node8&#45;&gt;Node3</title>
<path fill="none" stroke="#191970" d="M195.7756,-408.6764C212.9631,-405.7773 231.9426,-402.5759 249.2611,-399.6548"/>
<polygon fill="#191970" stroke="#191970" points="249.9614,-403.0862 259.2399,-397.9716 248.797,-396.1837 249.9614,-403.0862"/>
</g>
<!-- Node9 -->
<g id="node9" class="node">
<title>Node9</title>
<g id="a_node9"><a xlink:href="quickjs_8c.html#a80e54dcf9ac687d4ccc2f90273565f30" target="_top" xlink:title="js_free">
<polygon fill="none" stroke="#ff0000" points="438.5,-570.5 438.5,-589.5 484.5,-589.5 484.5,-570.5 438.5,-570.5"/>
<text text-anchor="middle" x="461.5" y="-577.5" font-family="Helvetica,sans-Serif" font-size="10.00" fill="#000000">js_free</text>
</a>
</g>
</g>
<!-- Node8&#45;&gt;Node9 -->
<g id="edge8" class="edge">
<title>Node8&#45;&gt;Node9</title>
<path fill="none" stroke="#191970" d="M195.6097,-412.8238C244.8543,-410.8737 317.1751,-414.8346 370,-447 392.877,-460.9299 432.5983,-528.1976 451.2593,-561.3927"/>
<polygon fill="#191970" stroke="#191970" points="448.2095,-563.1101 456.1334,-570.143 454.3248,-559.7037 448.2095,-563.1101"/>
</g>
<!-- Node11 -->
<g id="node10" class="node">
<title>Node11</title>
<g id="a_node10"><a xlink:href="quickjs-libc_8h.html#a529207225a77f71253f17893e1e6dffb" target="_top" xlink:title="js_load_file">
<polygon fill="none" stroke="#000000" points="274,-456.5 274,-475.5 339,-475.5 339,-456.5 274,-456.5"/>
<text text-anchor="middle" x="306.5" y="-463.5" font-family="Helvetica,sans-Serif" font-size="10.00" fill="#000000">js_load_file</text>
</a>
</g>
</g>
<!-- Node8&#45;&gt;Node11 -->
<g id="edge9" class="edge">
<title>Node8&#45;&gt;Node11</title>
<path fill="none" stroke="#191970" d="M173.6936,-427.5982C199.6478,-435.103 235.9127,-445.5892 263.99,-453.708"/>
<polygon fill="#191970" stroke="#191970" points="263.3509,-457.1665 273.9296,-456.5821 265.2954,-450.442 263.3509,-457.1665"/>
</g>
<!-- Node11&#45;&gt;Node9 -->
<g id="edge10" class="edge">
<title>Node11&#45;&gt;Node9</title>
<path fill="none" stroke="#191970" d="M319.4486,-475.5235C346.0512,-495.0892 407.0992,-539.9891 439.8307,-564.0626"/>
<polygon fill="#191970" stroke="#191970" points="438.1302,-567.1565 448.2597,-570.262 442.2776,-561.5175 438.1302,-567.1565"/>
</g>
<!-- Node12&#45;&gt;Node6 -->
<g id="edge13" class="edge">
<title>Node12&#45;&gt;Node6</title>
<path fill="none" stroke="#191970" d="M207.1856,-311.3282C253.8928,-311.4116 317.1515,-315.4947 370,-333 397.0812,-341.9703 424.3525,-360.4667 441.9863,-373.9648"/>
<polygon fill="#191970" stroke="#191970" points="440.2545,-377.0558 450.2771,-380.4908 444.5842,-371.5554 440.2545,-377.0558"/>
</g>
<!-- Node13 -->
<g id="node12" class="node">
<title>Node13</title>
<g id="a_node12"><a xlink:href="quickjs_8c.html#a8551eaac7ef616910807cebdc515760d" target="_top" xlink:title="JS_GetException">
<polygon fill="none" stroke="#000000" points="260,-342.5 260,-361.5 353,-361.5 353,-342.5 260,-342.5"/>
<text text-anchor="middle" x="306.5" y="-349.5" font-family="Helvetica,sans-Serif" font-size="10.00" fill="#000000">JS_GetException</text>
</a>
</g>
</g>
<!-- Node12&#45;&gt;Node13 -->
<g id="edge14" class="edge">
<title>Node12&#45;&gt;Node13</title>
<path fill="none" stroke="#191970" d="M182.3888,-323.589C204.393,-328.6261 231.5545,-334.8438 254.8524,-340.1771"/>
<polygon fill="#191970" stroke="#191970" points="254.3835,-343.6602 264.9124,-342.4799 255.9456,-336.8367 254.3835,-343.6602"/>
</g>
<!-- Node15 -->
<g id="node14" class="node">
<title>Node15</title>
<g id="a_node14"><a xlink:href="quickjs_8c.html#afc9f16af1ddbee548aa05ae2d28dcd16" target="_top" xlink:title="JS_IsError">
<polygon fill="none" stroke="#000000" points="275,-266.5 275,-285.5 338,-285.5 338,-266.5 275,-266.5"/>
<text text-anchor="middle" x="306.5" y="-273.5" font-family="Helvetica,sans-Serif" font-size="10.00" fill="#000000">JS_IsError</text>
</a>
</g>
</g>
<!-- Node14&#45;&gt;Node15 -->
<g id="edge16" class="edge">
<title>Node14&#45;&gt;Node15</title>
<path fill="none" stroke="#191970" d="M188.0689,-276C212.2457,-276 241.3602,-276 264.6718,-276"/>
<polygon fill="#191970" stroke="#191970" points="264.9357,-279.5001 274.9356,-276 264.9356,-272.5001 264.9357,-279.5001"/>
</g>
<!-- Node17 -->
<g id="node16" class="node">
<title>Node17</title>
<g id="a_node16"><a xlink:href="quickjs_8c.html#ac29cc4ec49efa0f0308e494316ce5139" target="_top" xlink:title="JS_NewCModule">
<polygon fill="none" stroke="#ff0000" points="260,-152.5 260,-171.5 353,-171.5 353,-152.5 260,-152.5"/>
<text text-anchor="middle" x="306.5" y="-159.5" font-family="Helvetica,sans-Serif" font-size="10.00" fill="#000000">JS_NewCModule</text>
</a>
</g>
</g>
<!-- Node16&#45;&gt;Node17 -->
<g id="edge18" class="edge">
<title>Node16&#45;&gt;Node17</title>
<path fill="none" stroke="#191970" d="M186.2226,-228.4564C193.4532,-225.9672 200.6355,-222.8616 207,-219 226.8897,-206.9321 223.1857,-193.1913 243,-181 246.4302,-178.8895 250.1095,-177.0009 253.9055,-175.313"/>
<polygon fill="#191970" stroke="#191970" points="255.4929,-178.4491 263.5066,-171.5187 252.9201,-171.939 255.4929,-178.4491"/>
</g>
<!-- Node71 -->
<g id="node17" class="node">
<title>Node71</title>
<g id="a_node17"><a xlink:href="quickjs-libc_8c.html#a066e7962ce24f22d5df20968a8baa346" target="_top" xlink:title="js_os_init">
<polygon fill="none" stroke="#ff0000" points="277.5,-228.5 277.5,-247.5 335.5,-247.5 335.5,-228.5 277.5,-228.5"/>
<text text-anchor="middle" x="306.5" y="-235.5" font-family="Helvetica,sans-Serif" font-size="10.00" fill="#000000">js_os_init</text>
</a>
</g>
</g>
<!-- Node16&#45;&gt;Node71 -->
<g id="edge19" class="edge">
<title>Node16&#45;&gt;Node71</title>
<path fill="none" stroke="#191970" d="M188.0689,-238C213.1057,-238 243.4377,-238 267.137,-238"/>
<polygon fill="#191970" stroke="#191970" points="267.1838,-241.5001 277.1838,-238 267.1838,-234.5001 267.1838,-241.5001"/>
</g>
<!-- Node462 -->
<g id="node18" class="node">
<title>Node462</title>
<g id="a_node18"><a xlink:href="quickjs_8c.html#ac7a9b88dd7ca1a70cd0ecd9a28905e25" target="_top" xlink:title="JS_AddModuleExportList">
<polygon fill="none" stroke="#000000" points="243,-190.5 243,-209.5 370,-209.5 370,-190.5 243,-190.5"/>
<text text-anchor="middle" x="306.5" y="-197.5" font-family="Helvetica,sans-Serif" font-size="10.00" fill="#000000">JS_AddModuleExportList</text>
</a>
</g>
</g>
<!-- Node16&#45;&gt;Node462 -->
<g id="edge20" class="edge">
<title>Node16&#45;&gt;Node462</title>
<path fill="none" stroke="#191970" d="M182.3888,-228.411C204.393,-223.3739 231.5545,-217.1562 254.8524,-211.8229"/>
<polygon fill="#191970" stroke="#191970" points="255.9456,-215.1633 264.9124,-209.5201 254.3835,-208.3398 255.9456,-215.1633"/>
</g>
<!-- Node463 -->
<g id="node19" class="node">
<title>Node463</title>
<g id="a_node19"><a xlink:href="quickjs_8c.html#a369af749a1fb181216fe8a8b55f841b0" target="_top" xlink:title="JS_AddModuleExport">
<polygon fill="none" stroke="#ff0000" points="406,-152.5 406,-171.5 517,-171.5 517,-152.5 406,-152.5"/>
<text text-anchor="middle" x="461.5" y="-159.5" font-family="Helvetica,sans-Serif" font-size="10.00" fill="#000000">JS_AddModuleExport</text>
</a>
</g>
</g>
<!-- Node462&#45;&gt;Node463 -->
<g id="edge21" class="edge">
<title>Node462&#45;&gt;Node463</title>
<path fill="none" stroke="#191970" d="M345.613,-190.411C365.9748,-185.4191 391.0663,-179.2676 412.6887,-173.9666"/>
<polygon fill="#191970" stroke="#191970" points="413.7892,-177.3006 422.6682,-171.5201 412.1224,-170.5019 413.7892,-177.3006"/>
</g>
<!-- Node465&#45;&gt;Node17 -->
<g id="edge23" class="edge">
<title>Node465&#45;&gt;Node17</title>
<path fill="none" stroke="#191970" d="M182.3888,-190.411C204.393,-185.3739 231.5545,-179.1562 254.8524,-173.8229"/>
<polygon fill="#191970" stroke="#191970" points="255.9456,-177.1633 264.9124,-171.5201 254.3835,-170.3398 255.9456,-177.1633"/>
</g>
<!-- Node465&#45;&gt;Node462 -->
<g id="edge25" class="edge">
<title>Node465&#45;&gt;Node462</title>
<path fill="none" stroke="#191970" d="M189.856,-200C203.2374,-200 218.0233,-200 232.4447,-200"/>
<polygon fill="#191970" stroke="#191970" points="232.856,-203.5001 242.856,-200 232.8559,-196.5001 232.856,-203.5001"/>
</g>
<!-- Node465&#45;&gt;Node463 -->
<g id="edge26" class="edge">
<title>Node465&#45;&gt;Node463</title>
<path fill="none" stroke="#191970" d="M186.2226,-190.4564C193.4532,-187.9672 200.6355,-184.8616 207,-181 226.8897,-168.9321 221.6287,-152.1925 243,-143 303.6832,-116.8982 382.4651,-134.8996 426.9466,-149.2156"/>
<polygon fill="#191970" stroke="#191970" points="426.0984,-152.6224 436.6921,-152.4714 428.3165,-145.9831 426.0984,-152.6224"/>
</g>
<!-- Node466 -->
<g id="node21" class="node">
<title>Node466</title>
<g id="a_node21"><a xlink:href="quickjs-libc_8c.html#a08cea1a0226b7603e6969e2208d99d55" target="_top" xlink:title="js_std_init">
<polygon fill="none" stroke="#ff0000" points="276,-76.5 276,-95.5 337,-95.5 337,-76.5 276,-76.5"/>
<text text-anchor="middle" x="306.5" y="-83.5" font-family="Helvetica,sans-Serif" font-size="10.00" fill="#000000">js_std_init</text>
</a>
</g>
</g>
<!-- Node465&#45;&gt;Node466 -->
<g id="edge24" class="edge">
<title>Node465&#45;&gt;Node466</title>
<path fill="none" stroke="#191970" d="M189.6903,-191.0276C195.932,-188.4773 201.9064,-185.2032 207,-181 234.2887,-158.4815 216.6697,-133.632 243,-110 249.6912,-103.9945 258.0336,-99.437 266.4488,-95.9978"/>
<polygon fill="#191970" stroke="#191970" points="267.6885,-99.2713 275.8968,-92.5723 265.3026,-92.6905 267.6885,-99.2713"/>
</g>
<!-- Node469&#45;&gt;Node4 -->
<g id="edge33" class="edge">
<title>Node469&#45;&gt;Node4</title>
<path fill="none" stroke="#191970" d="M154.8579,-570.4747C174.1727,-558.0282 209.9269,-536.2615 243,-523 275.9192,-509.8002 371.4559,-486.7851 424.6509,-474.4232"/>
<polygon fill="#191970" stroke="#191970" points="425.7409,-477.7636 434.6942,-472.099 424.1626,-470.9438 425.7409,-477.7636"/>
</g>
<!-- Node469&#45;&gt;Node7 -->
<g id="edge35" class="edge">
<title>Node469&#45;&gt;Node7</title>
<path fill="none" stroke="#191970" d="M149.1978,-589.6442C165.5401,-606.9554 202.8223,-642.7298 243,-656 296.5967,-673.7024 314.5182,-666.3802 370,-656 438.8779,-643.1136 455.4202,-632.4387 517,-599 538.6949,-587.2193 561.3336,-570.3414 576.7865,-558.0092"/>
<polygon fill="#191970" stroke="#191970" points="579.0192,-560.7048 584.5804,-551.6868 574.6093,-555.2685 579.0192,-560.7048"/>
</g>
<!-- Node469&#45;&gt;Node9 -->
<g id="edge34" class="edge">
<title>Node469&#45;&gt;Node9</title>
<path fill="none" stroke="#191970" d="M152.8573,-589.6555C171.261,-603.357 207.5228,-627.7991 243,-637 297.6369,-651.1699 315.7314,-652.5207 370,-637 397.5817,-629.1117 424.9374,-610.2348 442.4496,-596.3563"/>
<polygon fill="#191970" stroke="#191970" points="445.1361,-598.6804 450.6591,-589.639 440.7033,-593.2628 445.1361,-598.6804"/>
</g>
<!-- Node470 -->
<g id="node23" class="node">
<title>Node470</title>
<g id="a_node23"><a xlink:href="cutils_8h.html#a6ba0ed81ba200dfb3deaaff79932a5b0" target="_top" xlink:title="has_suffix">
<polygon fill="none" stroke="#000000" points="275.5,-532.5 275.5,-551.5 337.5,-551.5 337.5,-532.5 275.5,-532.5"/>
<text text-anchor="middle" x="306.5" y="-539.5" font-family="Helvetica,sans-Serif" font-size="10.00" fill="#000000">has_suffix</text>
</a>
</g>
</g>
<!-- Node469&#45;&gt;Node470 -->
<g id="edge28" class="edge">
<title>Node469&#45;&gt;Node470</title>
<path fill="none" stroke="#191970" d="M182.3888,-570.411C207.7982,-564.5944 240.0846,-557.2035 265.3576,-551.4181"/>
<polygon fill="#191970" stroke="#191970" points="266.4012,-554.7699 275.368,-549.1266 264.8391,-547.9464 266.4012,-554.7699"/>
</g>
<!-- Node471 -->
<g id="node24" class="node">
<title>Node471</title>
<g id="a_node24"><a xlink:href="quickjs-libc_8c.html#a403f4287b78b0e8e88e39e1d9cffa463" target="_top" xlink:title="js_module_loader_so">
<polygon fill="none" stroke="#000000" points="252.5,-570.5 252.5,-589.5 360.5,-589.5 360.5,-570.5 252.5,-570.5"/>
<text text-anchor="middle" x="306.5" y="-577.5" font-family="Helvetica,sans-Serif" font-size="10.00" fill="#000000">js_module_loader_so</text>
</a>
</g>
</g>
<!-- Node469&#45;&gt;Node471 -->
<g id="edge29" class="edge">
<title>Node469&#45;&gt;Node471</title>
<path fill="none" stroke="#191970" d="M186.7403,-580C203.9004,-580 223.6876,-580 242.1718,-580"/>
<polygon fill="#191970" stroke="#191970" points="242.2818,-583.5001 252.2818,-580 242.2818,-576.5001 242.2818,-583.5001"/>
</g>
<!-- Node472 -->
<g id="node25" class="node">
<title>Node472</title>
<g id="a_node25"><a xlink:href="quickjs-libc_8c.html#a529207225a77f71253f17893e1e6dffb" target="_top" xlink:title="js_load_file">
<polygon fill="none" stroke="#000000" points="274,-608.5 274,-627.5 339,-627.5 339,-608.5 274,-608.5"/>
<text text-anchor="middle" x="306.5" y="-615.5" font-family="Helvetica,sans-Serif" font-size="10.00" fill="#000000">js_load_file</text>
</a>
</g>
</g>
<!-- Node469&#45;&gt;Node472 -->
<g id="edge31" class="edge">
<title>Node469&#45;&gt;Node472</title>
<path fill="none" stroke="#191970" d="M182.3888,-589.589C207.2917,-595.2897 238.8002,-602.5024 263.838,-608.234"/>
<polygon fill="#191970" stroke="#191970" points="263.2554,-611.6911 273.7843,-610.5109 264.8174,-604.8676 263.2554,-611.6911"/>
</g>
<!-- Node471&#45;&gt;Node9 -->
<g id="edge30" class="edge">
<title>Node471&#45;&gt;Node9</title>
<path fill="none" stroke="#191970" d="M360.7115,-580C383.1039,-580 408.3558,-580 427.9821,-580"/>
<polygon fill="#191970" stroke="#191970" points="428.2531,-583.5001 438.253,-580 428.253,-576.5001 428.2531,-583.5001"/>
</g>
<!-- Node472&#45;&gt;Node9 -->
<g id="edge32" class="edge">
<title>Node472&#45;&gt;Node9</title>
<path fill="none" stroke="#191970" d="M339.3715,-609.9412C365.5742,-603.5173 402.1016,-594.5622 428.3715,-588.1218"/>
<polygon fill="#191970" stroke="#191970" points="429.3636,-591.4823 438.2425,-585.7018 427.6967,-584.6837 429.3636,-591.4823"/>
</g>
</g>
</svg>
