<?xml version="1.0" encoding="UTF-8" standalone="no"?>
<!DOCTYPE svg PUBLIC "-//W3C//DTD SVG 1.1//EN"
 "http://www.w3.org/Graphics/SVG/1.1/DTD/svg11.dtd">
<!-- Generated by graphviz version 2.40.1 (20161225.0304)
 -->
<!-- Title: js_regexp_get_flag Pages: 1 -->
<svg width="602pt" height="218pt"
 viewBox="0.00 0.00 602.00 218.00" xmlns="http://www.w3.org/2000/svg" xmlns:xlink="http://www.w3.org/1999/xlink">
<g id="graph0" class="graph" transform="scale(1 1) rotate(0) translate(4 214)">
<title>js_regexp_get_flag</title>
<!-- Node405068 -->
<g id="node1" class="node">
<title>Node405068</title>
<polygon fill="#bfbfbf" stroke="#000000" points="0,-95.5 0,-114.5 98,-114.5 98,-95.5 0,-95.5"/>
<text text-anchor="middle" x="49" y="-102.5" font-family="Helvetica,sans-Serif" font-size="10.00" fill="#000000">js_regexp_get_flag</text>
</g>
<!-- Node405069 -->
<g id="node2" class="node">
<title>Node405069</title>
<g id="a_node2"><a xlink:href="quickjs_8c.html#a82de8d310598980dd9ab473ce2c8dd1c" target="_top" xlink:title="js_get_regexp">
<polygon fill="none" stroke="#000000" points="175.5,-190.5 175.5,-209.5 252.5,-209.5 252.5,-190.5 175.5,-190.5"/>
<text text-anchor="middle" x="214" y="-197.5" font-family="Helvetica,sans-Serif" font-size="10.00" fill="#000000">js_get_regexp</text>
</a>
</g>
</g>
<!-- Node405068&#45;&gt;Node405069 -->
<g id="edge1" class="edge">
<title>Node405068&#45;&gt;Node405069</title>
<path fill="none" stroke="#191970" d="M57.9957,-114.7111C72.5643,-129.891 102.8453,-159.2351 134,-176 143.7763,-181.2608 154.8605,-185.5215 165.5958,-188.9099"/>
<polygon fill="#191970" stroke="#191970" points="164.7273,-192.3028 175.3092,-191.78 166.7109,-185.5897 164.7273,-192.3028"/>
</g>
<!-- Node405070 -->
<g id="node3" class="node">
<title>Node405070</title>
<g id="a_node3"><a xlink:href="quickjs_8c.html#ab0f713d7a2440dbb2673810323a9a78d" target="_top" xlink:title="JS_ThrowTypeErrorInvalid\lClass">
<polygon fill="none" stroke="#000000" points="330,-158 330,-188 462,-188 462,-158 330,-158"/>
<text text-anchor="start" x="338" y="-176" font-family="Helvetica,sans-Serif" font-size="10.00" fill="#000000">JS_ThrowTypeErrorInvalid</text>
<text text-anchor="middle" x="396" y="-165" font-family="Helvetica,sans-Serif" font-size="10.00" fill="#000000">Class</text>
</a>
</g>
</g>
<!-- Node405068&#45;&gt;Node405070 -->
<g id="edge10" class="edge">
<title>Node405068&#45;&gt;Node405070</title>
<path fill="none" stroke="#191970" d="M66.3218,-114.6471C83.0984,-123.525 109.5224,-136.2992 134,-143 195.1903,-159.751 266.9012,-167.1576 319.8153,-170.4278"/>
<polygon fill="#191970" stroke="#191970" points="319.6173,-173.9221 329.804,-171.01 320.0246,-166.934 319.6173,-173.9221"/>
</g>
<!-- Node405077 -->
<g id="node5" class="node">
<title>Node405077</title>
<g id="a_node5"><a xlink:href="quickjs_8h.html#a93abffa925714e249a6aa2f4ae7900f6" target="_top" xlink:title="JS_NewBool">
<polygon fill="none" stroke="#000000" points="177,-114.5 177,-133.5 251,-133.5 251,-114.5 177,-114.5"/>
<text text-anchor="middle" x="214" y="-121.5" font-family="Helvetica,sans-Serif" font-size="10.00" fill="#000000">JS_NewBool</text>
</a>
</g>
</g>
<!-- Node405068&#45;&gt;Node405077 -->
<g id="edge4" class="edge">
<title>Node405068&#45;&gt;Node405077</title>
<path fill="none" stroke="#191970" d="M98.0587,-110.6492C119.774,-113.1497 145.2102,-116.0787 166.716,-118.5552"/>
<polygon fill="#191970" stroke="#191970" points="166.5894,-122.0636 176.9242,-119.7307 167.3903,-115.1096 166.5894,-122.0636"/>
</g>
<!-- Node405078 -->
<g id="node6" class="node">
<title>Node405078</title>
<g id="a_node6"><a xlink:href="quickjs_8c.html#a24be89a128d1cd7c0908604815b2b854" target="_top" xlink:title="js_same_value">
<polygon fill="none" stroke="#000000" points="173,-76.5 173,-95.5 255,-95.5 255,-76.5 173,-76.5"/>
<text text-anchor="middle" x="214" y="-83.5" font-family="Helvetica,sans-Serif" font-size="10.00" fill="#000000">js_same_value</text>
</a>
</g>
</g>
<!-- Node405068&#45;&gt;Node405078 -->
<g id="edge5" class="edge">
<title>Node405068&#45;&gt;Node405078</title>
<path fill="none" stroke="#191970" d="M98.0587,-99.3508C118.4563,-97.002 142.1369,-94.2751 162.7594,-91.9004"/>
<polygon fill="#191970" stroke="#191970" points="163.3855,-95.3516 172.9194,-90.7305 162.5846,-88.3975 163.3855,-95.3516"/>
</g>
<!-- Node405122 -->
<g id="node11" class="node">
<title>Node405122</title>
<g id="a_node11"><a xlink:href="quickjs_8c.html#a726b00d108e0a0f4d958c36c2e426a64" target="_top" xlink:title="JS_ThrowTypeErrorNotAnObject">
<polygon fill="none" stroke="#000000" points="134,-38.5 134,-57.5 294,-57.5 294,-38.5 134,-38.5"/>
<text text-anchor="middle" x="214" y="-45.5" font-family="Helvetica,sans-Serif" font-size="10.00" fill="#000000">JS_ThrowTypeErrorNotAnObject</text>
</a>
</g>
</g>
<!-- Node405068&#45;&gt;Node405122 -->
<g id="edge11" class="edge">
<title>Node405068&#45;&gt;Node405122</title>
<path fill="none" stroke="#191970" d="M67.8321,-95.3512C84.7906,-86.9618 110.5772,-74.939 134,-67 141.4147,-64.4868 149.3242,-62.1784 157.176,-60.1024"/>
<polygon fill="#191970" stroke="#191970" points="158.2163,-63.4495 167.0494,-57.5992 156.4959,-56.6642 158.2163,-63.4495"/>
</g>
<!-- Node405123 -->
<g id="node12" class="node">
<title>Node405123</title>
<g id="a_node12"><a xlink:href="libregexp_8h.html#a3bf39330d9dde9c1c41f1a73504a7386" target="_top" xlink:title="lre_get_flags">
<polygon fill="none" stroke="#000000" points="178,-.5 178,-19.5 250,-19.5 250,-.5 178,-.5"/>
<text text-anchor="middle" x="214" y="-7.5" font-family="Helvetica,sans-Serif" font-size="10.00" fill="#000000">lre_get_flags</text>
</a>
</g>
</g>
<!-- Node405068&#45;&gt;Node405123 -->
<g id="edge12" class="edge">
<title>Node405068&#45;&gt;Node405123</title>
<path fill="none" stroke="#191970" d="M56.8236,-95.409C70.6349,-79.141 101.0136,-46.2305 134,-29 144.3735,-23.5814 156.3076,-19.6848 167.7389,-16.891"/>
<polygon fill="#191970" stroke="#191970" points="168.595,-20.2863 177.6032,-14.7093 167.0833,-13.4515 168.595,-20.2863"/>
</g>
<!-- Node405069&#45;&gt;Node405070 -->
<g id="edge2" class="edge">
<title>Node405069&#45;&gt;Node405070</title>
<path fill="none" stroke="#191970" d="M252.5975,-194.274C272.1397,-191.3749 296.5729,-187.7502 319.7041,-184.3186"/>
<polygon fill="#191970" stroke="#191970" points="320.4894,-187.7405 329.8675,-182.8109 319.4621,-180.8163 320.4894,-187.7405"/>
</g>
<!-- Node405071 -->
<g id="node4" class="node">
<title>Node405071</title>
<g id="a_node4"><a xlink:href="quickjs_8c.html#ab18048ab5eea3e47109a5473f78515bc" target="_top" xlink:title="JS_AtomGetStr">
<polygon fill="none" stroke="#ff0000" points="503,-163.5 503,-182.5 589,-182.5 589,-163.5 503,-163.5"/>
<text text-anchor="middle" x="546" y="-170.5" font-family="Helvetica,sans-Serif" font-size="10.00" fill="#000000">JS_AtomGetStr</text>
</a>
</g>
</g>
<!-- Node405070&#45;&gt;Node405071 -->
<g id="edge3" class="edge">
<title>Node405070&#45;&gt;Node405071</title>
<path fill="none" stroke="#191970" d="M462.2288,-173C472.4806,-173 482.954,-173 492.8686,-173"/>
<polygon fill="#191970" stroke="#191970" points="492.9658,-176.5001 502.9658,-173 492.9658,-169.5001 492.9658,-176.5001"/>
</g>
<!-- Node405079 -->
<g id="node7" class="node">
<title>Node405079</title>
<g id="a_node7"><a xlink:href="quickjs_8h.html#a775522f2d084fc8fa0fcb33f390006b4" target="_top" xlink:title="JS_DupValue">
<polygon fill="none" stroke="#000000" points="357.5,-103.5 357.5,-122.5 434.5,-122.5 434.5,-103.5 357.5,-103.5"/>
<text text-anchor="middle" x="396" y="-110.5" font-family="Helvetica,sans-Serif" font-size="10.00" fill="#000000">JS_DupValue</text>
</a>
</g>
</g>
<!-- Node405078&#45;&gt;Node405079 -->
<g id="edge6" class="edge">
<title>Node405078&#45;&gt;Node405079</title>
<path fill="none" stroke="#191970" d="M255.2986,-92.1267C282.5735,-96.173 318.4413,-101.494 347.1358,-105.7509"/>
<polygon fill="#191970" stroke="#191970" points="346.9484,-109.2613 357.3538,-107.2668 347.9757,-102.3371 346.9484,-109.2613"/>
</g>
<!-- Node405080 -->
<g id="node8" class="node">
<title>Node405080</title>
<g id="a_node8"><a xlink:href="quickjs_8c.html#a6b7e8c810c238daa5ac20c70c2f22b24" target="_top" xlink:title="js_strict_eq2">
<polygon fill="none" stroke="#000000" points="360,-65.5 360,-84.5 432,-84.5 432,-65.5 360,-65.5"/>
<text text-anchor="middle" x="396" y="-72.5" font-family="Helvetica,sans-Serif" font-size="10.00" fill="#000000">js_strict_eq2</text>
</a>
</g>
</g>
<!-- Node405078&#45;&gt;Node405080 -->
<g id="edge7" class="edge">
<title>Node405078&#45;&gt;Node405080</title>
<path fill="none" stroke="#191970" d="M255.2986,-83.5039C283.3208,-81.8103 320.4131,-79.5684 349.4778,-77.8118"/>
<polygon fill="#191970" stroke="#191970" points="350.0204,-81.2855 359.791,-77.1885 349.598,-74.2982 350.0204,-81.2855"/>
</g>
<!-- Node405081 -->
<g id="node9" class="node">
<title>Node405081</title>
<g id="a_node9"><a xlink:href="quickjs_8h.html#afaa20c47565bc704c6c85f3d77254e7d" target="_top" xlink:title="JS_FreeValue">
<polygon fill="none" stroke="#ff0000" points="507,-84.5 507,-103.5 585,-103.5 585,-84.5 507,-84.5"/>
<text text-anchor="middle" x="546" y="-91.5" font-family="Helvetica,sans-Serif" font-size="10.00" fill="#000000">JS_FreeValue</text>
</a>
</g>
</g>
<!-- Node405080&#45;&gt;Node405081 -->
<g id="edge8" class="edge">
<title>Node405080&#45;&gt;Node405081</title>
<path fill="none" stroke="#191970" d="M432.3108,-79.5994C451.6839,-82.0533 475.7998,-85.108 496.8294,-87.7717"/>
<polygon fill="#191970" stroke="#191970" points="496.5102,-91.2592 506.8708,-89.0436 497.3899,-84.3147 496.5102,-91.2592"/>
</g>
<!-- Node405117 -->
<g id="node10" class="node">
<title>Node405117</title>
<g id="a_node10"><a xlink:href="quickjs_8c.html#a3d9b165d4274aa43e051caba9bcbbe9f" target="_top" xlink:title="js_string_compare">
<polygon fill="none" stroke="#ff0000" points="498,-46.5 498,-65.5 594,-65.5 594,-46.5 498,-46.5"/>
<text text-anchor="middle" x="546" y="-53.5" font-family="Helvetica,sans-Serif" font-size="10.00" fill="#000000">js_string_compare</text>
</a>
</g>
</g>
<!-- Node405080&#45;&gt;Node405117 -->
<g id="edge9" class="edge">
<title>Node405080&#45;&gt;Node405117</title>
<path fill="none" stroke="#191970" d="M432.3108,-70.4006C448.9175,-68.2971 469.0092,-65.7522 487.6545,-63.3904"/>
<polygon fill="#191970" stroke="#191970" points="488.3521,-66.8301 497.8329,-62.1012 487.4724,-59.8856 488.3521,-66.8301"/>
</g>
</g>
</svg>
