<?xml version="1.0" encoding="UTF-8" standalone="no"?>
<!DOCTYPE svg PUBLIC "-//W3C//DTD SVG 1.1//EN"
 "http://www.w3.org/Graphics/SVG/1.1/DTD/svg11.dtd">
<!-- Generated by graphviz version 2.40.1 (20161225.0304)
 -->
<!-- Title: js_atomics_op Pages: 1 -->
<svg width="453pt" height="142pt"
 viewBox="0.00 0.00 453.00 142.00" xmlns="http://www.w3.org/2000/svg" xmlns:xlink="http://www.w3.org/1999/xlink">
<g id="graph0" class="graph" transform="scale(1 1) rotate(0) translate(4 138)">
<title>js_atomics_op</title>
<!-- Node465048 -->
<g id="node1" class="node">
<title>Node465048</title>
<polygon fill="#bfbfbf" stroke="#000000" points="0,-57.5 0,-76.5 80,-76.5 80,-57.5 0,-57.5"/>
<text text-anchor="middle" x="40" y="-64.5" font-family="Helvetica,sans-Serif" font-size="10.00" fill="#000000">js_atomics_op</text>
</g>
<!-- Node465049 -->
<g id="node2" class="node">
<title>Node465049</title>
<g id="a_node2"><a xlink:href="quickjs_8c.html#ad119234e7332a6e78a01b58f3f9a44c7" target="_top" xlink:title="js_atomics_get_ptr">
<polygon fill="none" stroke="#000000" points="116,-114.5 116,-133.5 215,-133.5 215,-114.5 116,-114.5"/>
<text text-anchor="middle" x="165.5" y="-121.5" font-family="Helvetica,sans-Serif" font-size="10.00" fill="#000000">js_atomics_get_ptr</text>
</a>
</g>
</g>
<!-- Node465048&#45;&gt;Node465049 -->
<g id="edge1" class="edge">
<title>Node465048&#45;&gt;Node465049</title>
<path fill="none" stroke="#191970" d="M61.0059,-76.5405C81.2766,-85.7472 112.1839,-99.7847 135.1321,-110.2074"/>
<polygon fill="#191970" stroke="#191970" points="133.8733,-113.4797 144.4256,-114.4284 136.768,-107.1063 133.8733,-113.4797"/>
</g>
<!-- Node465103 -->
<g id="node5" class="node">
<title>Node465103</title>
<g id="a_node5"><a xlink:href="quickjs_8h.html#a2050bc428da1c65ac7eb87c3fa3b0392" target="_top" xlink:title="JS_NewInt32">
<polygon fill="none" stroke="#000000" points="251,-57.5 251,-76.5 327,-76.5 327,-57.5 251,-57.5"/>
<text text-anchor="middle" x="289" y="-64.5" font-family="Helvetica,sans-Serif" font-size="10.00" fill="#000000">JS_NewInt32</text>
</a>
</g>
</g>
<!-- Node465048&#45;&gt;Node465103 -->
<g id="edge4" class="edge">
<title>Node465048&#45;&gt;Node465103</title>
<path fill="none" stroke="#191970" d="M80.0062,-67C123.7163,-67 193.7355,-67 240.5311,-67"/>
<polygon fill="#191970" stroke="#191970" points="240.7287,-70.5001 250.7287,-67 240.7287,-63.5001 240.7287,-70.5001"/>
</g>
<!-- Node465246 -->
<g id="node6" class="node">
<title>Node465246</title>
<g id="a_node6"><a xlink:href="quickjs_8h.html#a88259aa0da61ac754402c64ccecee116" target="_top" xlink:title="JS_NewUint32">
<polygon fill="none" stroke="#ff0000" points="124,-38.5 124,-57.5 207,-57.5 207,-38.5 124,-38.5"/>
<text text-anchor="middle" x="165.5" y="-45.5" font-family="Helvetica,sans-Serif" font-size="10.00" fill="#000000">JS_NewUint32</text>
</a>
</g>
</g>
<!-- Node465048&#45;&gt;Node465246 -->
<g id="edge5" class="edge">
<title>Node465048&#45;&gt;Node465246</title>
<path fill="none" stroke="#191970" d="M80.054,-60.936C90.709,-59.3229 102.3729,-57.5571 113.5636,-55.8629"/>
<polygon fill="#191970" stroke="#191970" points="114.302,-59.2911 123.6653,-54.3335 113.2541,-52.3699 114.302,-59.2911"/>
</g>
<!-- Node465247 -->
<g id="node7" class="node">
<title>Node465247</title>
<g id="a_node7"><a xlink:href="quickjs_8h.html#aa032ee323127468119b3dd2bb1452680" target="_top" xlink:title="JS_ToUint32">
<polygon fill="none" stroke="#ff0000" points="128.5,-.5 128.5,-19.5 202.5,-19.5 202.5,-.5 128.5,-.5"/>
<text text-anchor="middle" x="165.5" y="-7.5" font-family="Helvetica,sans-Serif" font-size="10.00" fill="#000000">JS_ToUint32</text>
</a>
</g>
</g>
<!-- Node465048&#45;&gt;Node465247 -->
<g id="edge7" class="edge">
<title>Node465048&#45;&gt;Node465247</title>
<path fill="none" stroke="#191970" d="M57.8847,-57.4398C73.1389,-49.4357 95.7512,-37.9232 116,-29 120.4012,-27.0605 125.0679,-25.1212 129.7084,-23.2628"/>
<polygon fill="#191970" stroke="#191970" points="131.0654,-26.4903 139.1032,-19.5878 128.5153,-19.9713 131.0654,-26.4903"/>
</g>
<!-- Node465050 -->
<g id="node3" class="node">
<title>Node465050</title>
<g id="a_node3"><a xlink:href="quickjs_8c.html#ad52f50dfe0e0e4aeae7003b97c4c0765" target="_top" xlink:title="JS_ToIndex">
<polygon fill="none" stroke="#000000" points="254.5,-114.5 254.5,-133.5 323.5,-133.5 323.5,-114.5 254.5,-114.5"/>
<text text-anchor="middle" x="289" y="-121.5" font-family="Helvetica,sans-Serif" font-size="10.00" fill="#000000">JS_ToIndex</text>
</a>
</g>
</g>
<!-- Node465049&#45;&gt;Node465050 -->
<g id="edge2" class="edge">
<title>Node465049&#45;&gt;Node465050</title>
<path fill="none" stroke="#191970" d="M215.0206,-124C224.6797,-124 234.7548,-124 244.2485,-124"/>
<polygon fill="#191970" stroke="#191970" points="244.2749,-127.5001 254.2749,-124 244.2748,-120.5001 244.2749,-127.5001"/>
</g>
<!-- Node465051 -->
<g id="node4" class="node">
<title>Node465051</title>
<g id="a_node4"><a xlink:href="quickjs_8c.html#aee6a60a9e9f3c0d9827d5cb0e15c23b4" target="_top" xlink:title="JS_ToInt64Sat">
<polygon fill="none" stroke="#ff0000" points="363,-114.5 363,-133.5 445,-133.5 445,-114.5 363,-114.5"/>
<text text-anchor="middle" x="404" y="-121.5" font-family="Helvetica,sans-Serif" font-size="10.00" fill="#000000">JS_ToInt64Sat</text>
</a>
</g>
</g>
<!-- Node465050&#45;&gt;Node465051 -->
<g id="edge3" class="edge">
<title>Node465050&#45;&gt;Node465051</title>
<path fill="none" stroke="#191970" d="M323.5038,-124C332.637,-124 342.6969,-124 352.5199,-124"/>
<polygon fill="#191970" stroke="#191970" points="352.622,-127.5001 362.622,-124 352.622,-120.5001 352.622,-127.5001"/>
</g>
<!-- Node465246&#45;&gt;Node465103 -->
<g id="edge6" class="edge">
<title>Node465246&#45;&gt;Node465103</title>
<path fill="none" stroke="#191970" d="M207.3115,-54.4325C218.1339,-56.0975 229.8716,-57.9033 240.9842,-59.613"/>
<polygon fill="#191970" stroke="#191970" points="240.5539,-63.0878 250.9698,-61.1492 241.6183,-56.1692 240.5539,-63.0878"/>
</g>
</g>
</svg>
