<?xml version="1.0" encoding="UTF-8" standalone="no"?>
<!DOCTYPE svg PUBLIC "-//W3C//DTD SVG 1.1//EN"
 "http://www.w3.org/Graphics/SVG/1.1/DTD/svg11.dtd">
<!-- Generated by graphviz version 2.40.1 (20161225.0304)
 -->
<!-- Title: compute_stack_size Pages: 1 -->
<svg width="385pt" height="142pt"
 viewBox="0.00 0.00 385.00 142.00" xmlns="http://www.w3.org/2000/svg" xmlns:xlink="http://www.w3.org/1999/xlink">
<g id="graph0" class="graph" transform="scale(1 1) rotate(0) translate(4 138)">
<title>compute_stack_size</title>
<!-- Node338598 -->
<g id="node1" class="node">
<title>Node338598</title>
<polygon fill="#bfbfbf" stroke="#000000" points="0,-38.5 0,-57.5 107,-57.5 107,-38.5 0,-38.5"/>
<text text-anchor="middle" x="53.5" y="-45.5" font-family="Helvetica,sans-Serif" font-size="10.00" fill="#000000">compute_stack_size</text>
</g>
<!-- Node338599 -->
<g id="node2" class="node">
<title>Node338599</title>
<g id="a_node2"><a xlink:href="quickjs_8c.html#aa042996addea7da32807474636362082" target="_top" xlink:title="compute_stack_size_rec">
<polygon fill="none" stroke="#000000" points="143,-66.5 143,-85.5 268,-85.5 268,-66.5 143,-66.5"/>
<text text-anchor="middle" x="205.5" y="-73.5" font-family="Helvetica,sans-Serif" font-size="10.00" fill="#000000">compute_stack_size_rec</text>
</a>
</g>
</g>
<!-- Node338598&#45;&gt;Node338599 -->
<g id="edge1" class="edge">
<title>Node338598&#45;&gt;Node338599</title>
<path fill="none" stroke="#191970" d="M105.3846,-57.5577C117.7354,-59.8328 131.0341,-62.2826 143.7772,-64.63"/>
<polygon fill="#191970" stroke="#191970" points="143.3806,-68.1158 153.8492,-66.4854 144.6487,-61.2316 143.3806,-68.1158"/>
</g>
<!-- Node338603 -->
<g id="node6" class="node">
<title>Node338603</title>
<g id="a_node6"><a xlink:href="quickjs_8c.html#a80e54dcf9ac687d4ccc2f90273565f30" target="_top" xlink:title="js_free">
<polygon fill="none" stroke="#000000" points="182.5,-19.5 182.5,-38.5 228.5,-38.5 228.5,-19.5 182.5,-19.5"/>
<text text-anchor="middle" x="205.5" y="-26.5" font-family="Helvetica,sans-Serif" font-size="10.00" fill="#000000">js_free</text>
</a>
</g>
</g>
<!-- Node338598&#45;&gt;Node338603 -->
<g id="edge6" class="edge">
<title>Node338598&#45;&gt;Node338603</title>
<path fill="none" stroke="#191970" d="M107.0895,-41.3013C128.8689,-38.5789 153.3448,-35.5194 172.4388,-33.1326"/>
<polygon fill="#191970" stroke="#191970" points="172.9529,-36.5957 182.4416,-31.8823 172.0846,-29.6498 172.9529,-36.5957"/>
</g>
<!-- Node338599&#45;&gt;Node338599 -->
<g id="edge3" class="edge">
<title>Node338599&#45;&gt;Node338599</title>
<path fill="none" stroke="#191970" d="M184.8467,-85.7571C174.7992,-94.5653 181.6836,-104 205.5,-104 220.7574,-104 229.0659,-100.128 230.4255,-95.0292"/>
<polygon fill="#191970" stroke="#191970" points="233.5169,-93.3747 226.1533,-85.7571 227.1593,-96.304 233.5169,-93.3747"/>
</g>
<!-- Node338600 -->
<g id="node3" class="node">
<title>Node338600</title>
<g id="a_node3"><a xlink:href="quickjs_8c.html#a853f0924d441ea4225488f37c8b69f9a" target="_top" xlink:title="__attribute__">
<polygon fill="none" stroke="#000000" points="304,-114.5 304,-133.5 377,-133.5 377,-114.5 304,-114.5"/>
<text text-anchor="middle" x="340.5" y="-121.5" font-family="Helvetica,sans-Serif" font-size="10.00" fill="#000000">__attribute__</text>
</a>
</g>
</g>
<!-- Node338599&#45;&gt;Node338600 -->
<g id="edge2" class="edge">
<title>Node338599&#45;&gt;Node338600</title>
<path fill="none" stroke="#191970" d="M232.4948,-85.5982C253.0052,-92.8907 281.4332,-102.9985 303.9757,-111.0136"/>
<polygon fill="#191970" stroke="#191970" points="302.9573,-114.3661 313.552,-114.4185 305.3024,-107.7706 302.9573,-114.3661"/>
</g>
<!-- Node338601 -->
<g id="node4" class="node">
<title>Node338601</title>
<g id="a_node4"><a xlink:href="cutils_8h.html#ad587834d17e95461893d59661e5e9676" target="_top" xlink:title="get_u16">
<polygon fill="none" stroke="#000000" points="315,-76.5 315,-95.5 366,-95.5 366,-76.5 315,-76.5"/>
<text text-anchor="middle" x="340.5" y="-83.5" font-family="Helvetica,sans-Serif" font-size="10.00" fill="#000000">get_u16</text>
</a>
</g>
</g>
<!-- Node338599&#45;&gt;Node338601 -->
<g id="edge4" class="edge">
<title>Node338599&#45;&gt;Node338601</title>
<path fill="none" stroke="#191970" d="M268.2574,-80.6487C280.7806,-81.5763 293.5226,-82.5202 304.7477,-83.3517"/>
<polygon fill="#191970" stroke="#191970" points="304.7573,-86.8619 314.9885,-84.1103 305.2744,-79.881 304.7573,-86.8619"/>
</g>
<!-- Node338602 -->
<g id="node5" class="node">
<title>Node338602</title>
<g id="a_node5"><a xlink:href="cutils_8h.html#a941262a5f72fda2ec43ae7911e97a0dc" target="_top" xlink:title="get_u32">
<polygon fill="none" stroke="#000000" points="315,-38.5 315,-57.5 366,-57.5 366,-38.5 315,-38.5"/>
<text text-anchor="middle" x="340.5" y="-45.5" font-family="Helvetica,sans-Serif" font-size="10.00" fill="#000000">get_u32</text>
</a>
</g>
</g>
<!-- Node338599&#45;&gt;Node338602 -->
<g id="edge5" class="edge">
<title>Node338599&#45;&gt;Node338602</title>
<path fill="none" stroke="#191970" d="M251.5818,-66.4423C268.8755,-62.8554 288.2618,-58.8346 304.5084,-55.4649"/>
<polygon fill="#191970" stroke="#191970" points="305.5969,-58.8137 314.6777,-53.3557 304.1753,-51.9596 305.5969,-58.8137"/>
</g>
<!-- Node338604 -->
<g id="node7" class="node">
<title>Node338604</title>
<g id="a_node7"><a xlink:href="quickjs_8c.html#a69e19dda8a93d613203e0baa06f0ed8d" target="_top" xlink:title="js_free_rt">
<polygon fill="none" stroke="#000000" points="312,-.5 312,-19.5 369,-19.5 369,-.5 312,-.5"/>
<text text-anchor="middle" x="340.5" y="-7.5" font-family="Helvetica,sans-Serif" font-size="10.00" fill="#000000">js_free_rt</text>
</a>
</g>
</g>
<!-- Node338603&#45;&gt;Node338604 -->
<g id="edge7" class="edge">
<title>Node338603&#45;&gt;Node338604</title>
<path fill="none" stroke="#191970" d="M228.7073,-25.7338C248.8023,-22.9056 278.274,-18.7577 301.9126,-15.4308"/>
<polygon fill="#191970" stroke="#191970" points="302.5598,-18.8743 311.9744,-14.0147 301.5842,-11.9426 302.5598,-18.8743"/>
</g>
</g>
</svg>
