<?xml version="1.0" encoding="UTF-8" standalone="no"?>
<!DOCTYPE svg PUBLIC "-//W3C//DTD SVG 1.1//EN"
 "http://www.w3.org/Graphics/SVG/1.1/DTD/svg11.dtd">
<!-- Generated by graphviz version 2.40.1 (20161225.0304)
 -->
<!-- Title: js_object_set___proto__ Pages: 1 -->
<svg width="865pt" height="384pt"
 viewBox="0.00 0.00 865.00 383.71" xmlns="http://www.w3.org/2000/svg" xmlns:xlink="http://www.w3.org/1999/xlink">
<g id="graph0" class="graph" transform="scale(1 1) rotate(0) translate(4 379.7066)">
<title>js_object_set___proto__</title>
<!-- Node363353 -->
<g id="node1" class="node">
<title>Node363353</title>
<polygon fill="#bfbfbf" stroke="#000000" points="0,-114.5 0,-133.5 122,-133.5 122,-114.5 0,-114.5"/>
<text text-anchor="middle" x="61" y="-121.5" font-family="Helvetica,sans-Serif" font-size="10.00" fill="#000000">js_object_set___proto__</text>
</g>
<!-- Node363354 -->
<g id="node2" class="node">
<title>Node363354</title>
<g id="a_node2"><a xlink:href="quickjs_8h.html#a149f24b67e745bad93573b3b4c80db4c" target="_top" xlink:title="JS_IsNull">
<polygon fill="none" stroke="#000000" points="659.5,-351.5 659.5,-370.5 718.5,-370.5 718.5,-351.5 659.5,-351.5"/>
<text text-anchor="middle" x="689" y="-358.5" font-family="Helvetica,sans-Serif" font-size="10.00" fill="#000000">JS_IsNull</text>
</a>
</g>
</g>
<!-- Node363353&#45;&gt;Node363354 -->
<g id="edge1" class="edge">
<title>Node363353&#45;&gt;Node363354</title>
<path fill="none" stroke="#191970" d="M69.627,-133.6016C85.7359,-151.1444 122.0252,-188.8793 158,-214 299.4468,-312.7703 343.4234,-339.2737 513,-371 559.2724,-379.6572 613.4783,-374.3009 649.3791,-368.6457"/>
<polygon fill="#191970" stroke="#191970" points="650.1578,-372.0645 659.4504,-366.9755 649.0124,-365.1588 650.1578,-372.0645"/>
</g>
<!-- Node363355 -->
<g id="node3" class="node">
<title>Node363355</title>
<g id="a_node3"><a xlink:href="quickjs_8h.html#a3d68fe446df2d9c7d1900b16371bff5b" target="_top" xlink:title="JS_IsObject">
<polygon fill="none" stroke="#000000" points="184,-38.5 184,-57.5 255,-57.5 255,-38.5 184,-38.5"/>
<text text-anchor="middle" x="219.5" y="-45.5" font-family="Helvetica,sans-Serif" font-size="10.00" fill="#000000">JS_IsObject</text>
</a>
</g>
</g>
<!-- Node363353&#45;&gt;Node363355 -->
<g id="edge2" class="edge">
<title>Node363353&#45;&gt;Node363355</title>
<path fill="none" stroke="#191970" d="M77.513,-114.3603C96.5734,-103.4198 129.0231,-85.3625 158,-72 166.0792,-68.2743 174.9133,-64.6014 183.3018,-61.2919"/>
<polygon fill="#191970" stroke="#191970" points="184.807,-64.4624 192.8724,-57.5922 182.2831,-57.9333 184.807,-64.4624"/>
</g>
<!-- Node363356 -->
<g id="node4" class="node">
<title>Node363356</title>
<g id="a_node4"><a xlink:href="quickjs_8h.html#a4e407128a9605afb77523e49e9a627fd" target="_top" xlink:title="JS_IsUndefined">
<polygon fill="none" stroke="#000000" points="518.5,-342.5 518.5,-361.5 604.5,-361.5 604.5,-342.5 518.5,-342.5"/>
<text text-anchor="middle" x="561.5" y="-349.5" font-family="Helvetica,sans-Serif" font-size="10.00" fill="#000000">JS_IsUndefined</text>
</a>
</g>
</g>
<!-- Node363353&#45;&gt;Node363356 -->
<g id="edge3" class="edge">
<title>Node363353&#45;&gt;Node363356</title>
<path fill="none" stroke="#191970" d="M80.6371,-133.5928C143.1904,-164.0392 343.6208,-260.7393 513,-333 517.4449,-334.8963 522.1474,-336.8288 526.8062,-338.6997"/>
<polygon fill="#191970" stroke="#191970" points="525.6252,-341.9964 536.2115,-342.4224 528.2015,-335.4877 525.6252,-341.9964"/>
</g>
<!-- Node363357 -->
<g id="node5" class="node">
<title>Node363357</title>
<g id="a_node5"><a xlink:href="quickjs_8c.html#a11b9662411b5b3f631925a0ca708ce25" target="_top" xlink:title="JS_SetPrototypeInternal">
<polygon fill="none" stroke="#000000" points="158,-114.5 158,-133.5 281,-133.5 281,-114.5 158,-114.5"/>
<text text-anchor="middle" x="219.5" y="-121.5" font-family="Helvetica,sans-Serif" font-size="10.00" fill="#000000">JS_SetPrototypeInternal</text>
</a>
</g>
</g>
<!-- Node363353&#45;&gt;Node363357 -->
<g id="edge4" class="edge">
<title>Node363353&#45;&gt;Node363357</title>
<path fill="none" stroke="#191970" d="M122.2802,-124C130.5791,-124 139.1555,-124 147.6188,-124"/>
<polygon fill="#191970" stroke="#191970" points="147.8599,-127.5001 157.8599,-124 147.8599,-120.5001 147.8599,-127.5001"/>
</g>
<!-- Node363593 -->
<g id="node17" class="node">
<title>Node363593</title>
<g id="a_node17"><a xlink:href="quickjs_8c.html#a726b00d108e0a0f4d958c36c2e426a64" target="_top" xlink:title="JS_ThrowTypeErrorNotAnObject">
<polygon fill="none" stroke="#000000" points="317,-.5 317,-19.5 477,-19.5 477,-.5 317,-.5"/>
<text text-anchor="middle" x="397" y="-7.5" font-family="Helvetica,sans-Serif" font-size="10.00" fill="#000000">JS_ThrowTypeErrorNotAnObject</text>
</a>
</g>
</g>
<!-- Node363353&#45;&gt;Node363593 -->
<g id="edge23" class="edge">
<title>Node363353&#45;&gt;Node363593</title>
<path fill="none" stroke="#191970" d="M110.5008,-114.4944C166.1172,-103.2398 252.3691,-83.8896 281,-67 301.0377,-55.1795 296.8431,-40.6161 317,-29 320.8613,-26.7748 324.9705,-24.8098 329.2098,-23.0746"/>
<polygon fill="#191970" stroke="#191970" points="330.4567,-26.3454 338.6523,-19.6311 328.0584,-19.769 330.4567,-26.3454"/>
</g>
<!-- Node363358 -->
<g id="node6" class="node">
<title>Node363358</title>
<g id="a_node6"><a xlink:href="quickjs_8h.html#a775522f2d084fc8fa0fcb33f390006b4" target="_top" xlink:title="JS_DupValue">
<polygon fill="none" stroke="#000000" points="358.5,-76.5 358.5,-95.5 435.5,-95.5 435.5,-76.5 358.5,-76.5"/>
<text text-anchor="middle" x="397" y="-83.5" font-family="Helvetica,sans-Serif" font-size="10.00" fill="#000000">JS_DupValue</text>
</a>
</g>
</g>
<!-- Node363357&#45;&gt;Node363358 -->
<g id="edge5" class="edge">
<title>Node363357&#45;&gt;Node363358</title>
<path fill="none" stroke="#191970" d="M264.2907,-114.411C289.8585,-108.9373 321.9382,-102.0696 348.1523,-96.4575"/>
<polygon fill="#191970" stroke="#191970" points="349.2068,-99.8112 358.2525,-94.2952 347.7414,-92.9663 349.2068,-99.8112"/>
</g>
<!-- Node363359 -->
<g id="node7" class="node">
<title>Node363359</title>
<g id="a_node7"><a xlink:href="quickjs_8h.html#afaa20c47565bc704c6c85f3d77254e7d" target="_top" xlink:title="JS_FreeValue">
<polygon fill="none" stroke="#000000" points="650,-190.5 650,-209.5 728,-209.5 728,-190.5 650,-190.5"/>
<text text-anchor="middle" x="689" y="-197.5" font-family="Helvetica,sans-Serif" font-size="10.00" fill="#000000">JS_FreeValue</text>
</a>
</g>
</g>
<!-- Node363357&#45;&gt;Node363359 -->
<g id="edge6" class="edge">
<title>Node363357&#45;&gt;Node363359</title>
<path fill="none" stroke="#191970" d="M281.283,-118.8356C340.6391,-114.15 432.8753,-107.5908 513,-105 556.0886,-103.6068 570.9685,-86.694 610,-105 643.4962,-120.71 667.717,-158.3737 679.956,-181.278"/>
<polygon fill="#191970" stroke="#191970" points="676.9279,-183.0441 684.5936,-190.3576 683.1618,-179.86 676.9279,-183.0441"/>
</g>
<!-- Node363395 -->
<g id="node9" class="node">
<title>Node363395</title>
<g id="a_node9"><a xlink:href="quickjs_8c.html#ae8b32777df50bb192c19840adc4d32a1" target="_top" xlink:title="js_proxy_setPrototypeOf">
<polygon fill="none" stroke="#000000" points="334.5,-190.5 334.5,-209.5 459.5,-209.5 459.5,-190.5 334.5,-190.5"/>
<text text-anchor="middle" x="397" y="-197.5" font-family="Helvetica,sans-Serif" font-size="10.00" fill="#000000">js_proxy_setPrototypeOf</text>
</a>
</g>
</g>
<!-- Node363357&#45;&gt;Node363395 -->
<g id="edge8" class="edge">
<title>Node363357&#45;&gt;Node363395</title>
<path fill="none" stroke="#191970" d="M254.5683,-133.5114C290.1232,-146.8349 344.0904,-170.2146 374.3622,-185.6213"/>
<polygon fill="#191970" stroke="#191970" points="372.8243,-188.7669 383.3047,-190.3204 376.0806,-182.5704 372.8243,-188.7669"/>
</g>
<!-- Node363542 -->
<g id="node16" class="node">
<title>Node363542</title>
<g id="a_node16"><a xlink:href="quickjs_8c.html#a3dd8e78607dbc729614deacf55901b95" target="_top" xlink:title="js_shape_prepare_update">
<polygon fill="none" stroke="#ff0000" points="333,-38.5 333,-57.5 461,-57.5 461,-38.5 333,-38.5"/>
<text text-anchor="middle" x="397" y="-45.5" font-family="Helvetica,sans-Serif" font-size="10.00" fill="#000000">js_shape_prepare_update</text>
</a>
</g>
</g>
<!-- Node363357&#45;&gt;Node363542 -->
<g id="edge21" class="edge">
<title>Node363357&#45;&gt;Node363542</title>
<path fill="none" stroke="#191970" d="M250.5961,-114.4101C260.677,-110.6458 271.6603,-105.8166 281,-100 299.4242,-88.5256 297.8241,-77.1683 317,-67 321.4575,-64.6364 326.2091,-62.5632 331.0885,-60.7454"/>
<polygon fill="#191970" stroke="#191970" points="332.221,-64.0573 340.586,-57.5551 329.992,-57.4216 332.221,-64.0573"/>
</g>
<!-- Node363357&#45;&gt;Node363593 -->
<g id="edge22" class="edge">
<title>Node363357&#45;&gt;Node363593</title>
<path fill="none" stroke="#191970" d="M256.7863,-114.4326C265.4427,-110.9311 274.1243,-106.2379 281,-100 307.2033,-76.2274 289.2103,-50.8971 317,-29 319.3126,-27.1778 321.7719,-25.5258 324.3391,-24.0286"/>
<polygon fill="#191970" stroke="#191970" points="326.0306,-27.0964 333.4276,-19.5112 322.9149,-20.828 326.0306,-27.0964"/>
</g>
<!-- Node363360 -->
<g id="node8" class="node">
<title>Node363360</title>
<g id="a_node8"><a xlink:href="quickjs_8c.html#aa059f309c30fd5166d16c82a97973146" target="_top" xlink:title="__JS_FreeValue">
<polygon fill="none" stroke="#ff0000" points="768,-190.5 768,-209.5 857,-209.5 857,-190.5 768,-190.5"/>
<text text-anchor="middle" x="812.5" y="-197.5" font-family="Helvetica,sans-Serif" font-size="10.00" fill="#000000">__JS_FreeValue</text>
</a>
</g>
</g>
<!-- Node363359&#45;&gt;Node363360 -->
<g id="edge7" class="edge">
<title>Node363359&#45;&gt;Node363360</title>
<path fill="none" stroke="#191970" d="M728.0762,-200C737.412,-200 747.5507,-200 757.4566,-200"/>
<polygon fill="#191970" stroke="#191970" points="757.6517,-203.5001 767.6517,-200 757.6517,-196.5001 757.6517,-203.5001"/>
</g>
<!-- Node363395&#45;&gt;Node363356 -->
<g id="edge17" class="edge">
<title>Node363395&#45;&gt;Node363356</title>
<path fill="none" stroke="#191970" d="M407.6957,-209.6927C423.6274,-224.3736 454.1629,-253.4629 477,-281 494.9437,-302.6367 490.9555,-315.5597 513,-333 515.2606,-334.7885 517.7102,-336.4261 520.2666,-337.9228"/>
<polygon fill="#191970" stroke="#191970" points="518.7494,-341.0777 529.2507,-342.4825 521.9175,-334.8356 518.7494,-341.0777"/>
</g>
<!-- Node363395&#45;&gt;Node363357 -->
<g id="edge18" class="edge">
<title>Node363395&#45;&gt;Node363357</title>
<path fill="none" stroke="#191970" d="M361.892,-190.4737C326.3083,-177.1371 272.3127,-153.7426 242.0659,-138.3421"/>
<polygon fill="#191970" stroke="#191970" points="243.6134,-135.2015 233.1334,-133.6457 240.3558,-141.3973 243.6134,-135.2015"/>
</g>
<!-- Node363396 -->
<g id="node10" class="node">
<title>Node363396</title>
<g id="a_node10"><a xlink:href="quickjs_8c.html#a9e94551ddba8762d74eda5127445dbbd" target="_top" xlink:title="get_proxy_method">
<polygon fill="none" stroke="#ff0000" points="513,-304.5 513,-323.5 610,-323.5 610,-304.5 513,-304.5"/>
<text text-anchor="middle" x="561.5" y="-311.5" font-family="Helvetica,sans-Serif" font-size="10.00" fill="#000000">get_proxy_method</text>
</a>
</g>
</g>
<!-- Node363395&#45;&gt;Node363396 -->
<g id="edge9" class="edge">
<title>Node363395&#45;&gt;Node363396</title>
<path fill="none" stroke="#191970" d="M407.9714,-209.7346C427.9406,-227.1663 471.9592,-264.2877 513,-290 518.5381,-293.4696 524.6475,-296.8257 530.6089,-299.8738"/>
<polygon fill="#191970" stroke="#191970" points="529.2347,-303.0986 539.7515,-304.3822 532.3306,-296.8204 529.2347,-303.0986"/>
</g>
<!-- Node363402 -->
<g id="node11" class="node">
<title>Node363402</title>
<g id="a_node11"><a xlink:href="quickjs_8h.html#ad80a83d73e9b7d872b88fbf2943aebe9" target="_top" xlink:title="JS_IsException">
<polygon fill="none" stroke="#000000" points="646,-285.5 646,-304.5 732,-304.5 732,-285.5 646,-285.5"/>
<text text-anchor="middle" x="689" y="-292.5" font-family="Helvetica,sans-Serif" font-size="10.00" fill="#000000">JS_IsException</text>
</a>
</g>
</g>
<!-- Node363395&#45;&gt;Node363402 -->
<g id="edge15" class="edge">
<title>Node363395&#45;&gt;Node363402</title>
<path fill="none" stroke="#191970" d="M413.3511,-209.6343C435.3227,-222.2016 475.9108,-244.1015 513,-257 553.1744,-270.9714 600.3639,-280.8261 635.7615,-286.9933"/>
<polygon fill="#191970" stroke="#191970" points="635.4363,-290.4881 645.8812,-288.7122 636.6086,-283.5869 635.4363,-290.4881"/>
</g>
<!-- Node363403 -->
<g id="node12" class="node">
<title>Node363403</title>
<g id="a_node12"><a xlink:href="quickjs_8c.html#a75f6ee5e4235a7dc99889f3d2eb2c147" target="_top" xlink:title="JS_CallFree">
<polygon fill="none" stroke="#ff0000" points="526,-228.5 526,-247.5 597,-247.5 597,-228.5 526,-228.5"/>
<text text-anchor="middle" x="561.5" y="-235.5" font-family="Helvetica,sans-Serif" font-size="10.00" fill="#000000">JS_CallFree</text>
</a>
</g>
</g>
<!-- Node363395&#45;&gt;Node363403 -->
<g id="edge12" class="edge">
<title>Node363395&#45;&gt;Node363403</title>
<path fill="none" stroke="#191970" d="M438.5103,-209.589C462.0791,-215.0335 491.6186,-221.8572 515.8406,-227.4525"/>
<polygon fill="#191970" stroke="#191970" points="515.3317,-230.9271 525.8629,-229.7677 516.9073,-224.1067 515.3317,-230.9271"/>
</g>
<!-- Node363568 -->
<g id="node13" class="node">
<title>Node363568</title>
<g id="a_node13"><a xlink:href="quickjs_8c.html#a23a30fec3b10bfa38c3dc29b4cb1c99d" target="_top" xlink:title="JS_GetPrototype">
<polygon fill="none" stroke="#ff0000" points="515.5,-152.5 515.5,-171.5 607.5,-171.5 607.5,-152.5 515.5,-152.5"/>
<text text-anchor="middle" x="561.5" y="-159.5" font-family="Helvetica,sans-Serif" font-size="10.00" fill="#000000">JS_GetPrototype</text>
</a>
</g>
</g>
<!-- Node363395&#45;&gt;Node363568 -->
<g id="edge14" class="edge">
<title>Node363395&#45;&gt;Node363568</title>
<path fill="none" stroke="#191970" d="M438.5103,-190.411C460.3156,-185.3739 487.2318,-179.1562 510.3191,-173.8229"/>
<polygon fill="#191970" stroke="#191970" points="511.3326,-177.1811 520.2882,-171.5201 509.757,-170.3607 511.3326,-177.1811"/>
</g>
<!-- Node363549 -->
<g id="node14" class="node">
<title>Node363549</title>
<g id="a_node14"><a xlink:href="quickjs_8c.html#a17c92ef7fbad6a6029f6aa933d669624" target="_top" xlink:title="JS_IsExtensible">
<polygon fill="none" stroke="#ff0000" points="517.5,-114.5 517.5,-133.5 605.5,-133.5 605.5,-114.5 517.5,-114.5"/>
<text text-anchor="middle" x="561.5" y="-121.5" font-family="Helvetica,sans-Serif" font-size="10.00" fill="#000000">JS_IsExtensible</text>
</a>
</g>
</g>
<!-- Node363395&#45;&gt;Node363549 -->
<g id="edge16" class="edge">
<title>Node363395&#45;&gt;Node363549</title>
<path fill="none" stroke="#191970" d="M415.2599,-190.4383C437.9259,-178.707 477.8874,-158.4724 513,-143 517.2101,-141.1448 521.6623,-139.2766 526.0941,-137.4738"/>
<polygon fill="#191970" stroke="#191970" points="527.6671,-140.6148 535.6616,-133.6622 525.0763,-134.1118 527.6671,-140.6148"/>
</g>
<!-- Node363551 -->
<g id="node15" class="node">
<title>Node363551</title>
<g id="a_node15"><a xlink:href="quickjs_8c.html#a2bf30c9cddfe98a32535843202495069" target="_top" xlink:title="JS_ToBoolFree">
<polygon fill="none" stroke="#000000" points="519.5,-190.5 519.5,-209.5 603.5,-209.5 603.5,-190.5 519.5,-190.5"/>
<text text-anchor="middle" x="561.5" y="-197.5" font-family="Helvetica,sans-Serif" font-size="10.00" fill="#000000">JS_ToBoolFree</text>
</a>
</g>
</g>
<!-- Node363395&#45;&gt;Node363551 -->
<g id="edge19" class="edge">
<title>Node363395&#45;&gt;Node363551</title>
<path fill="none" stroke="#191970" d="M459.6597,-200C476.0455,-200 493.5328,-200 509.3092,-200"/>
<polygon fill="#191970" stroke="#191970" points="509.4008,-203.5001 519.4008,-200 509.4008,-196.5001 509.4008,-203.5001"/>
</g>
<!-- Node363396&#45;&gt;Node363354 -->
<g id="edge11" class="edge">
<title>Node363396&#45;&gt;Node363354</title>
<path fill="none" stroke="#191970" d="M587.3015,-323.5112C606.2723,-330.5043 632.2921,-340.0959 653.2634,-347.8265"/>
<polygon fill="#191970" stroke="#191970" points="652.2058,-351.1668 662.7992,-351.3417 654.627,-344.5989 652.2058,-351.1668"/>
</g>
<!-- Node363396&#45;&gt;Node363402 -->
<g id="edge10" class="edge">
<title>Node363396&#45;&gt;Node363402</title>
<path fill="none" stroke="#191970" d="M610.066,-306.7627C618.5637,-305.4964 627.4435,-304.1731 636.0526,-302.8902"/>
<polygon fill="#191970" stroke="#191970" points="636.6205,-306.3443 645.9954,-301.4085 635.5887,-299.4208 636.6205,-306.3443"/>
</g>
<!-- Node363403&#45;&gt;Node363359 -->
<g id="edge13" class="edge">
<title>Node363403&#45;&gt;Node363359</title>
<path fill="none" stroke="#191970" d="M593.6736,-228.411C609.8307,-223.5956 629.608,-217.7012 646.9518,-212.532"/>
<polygon fill="#191970" stroke="#191970" points="648.2529,-215.7964 656.8367,-209.5859 646.2535,-209.088 648.2529,-215.7964"/>
</g>
<!-- Node363551&#45;&gt;Node363359 -->
<g id="edge20" class="edge">
<title>Node363551&#45;&gt;Node363359</title>
<path fill="none" stroke="#191970" d="M603.6016,-200C615.1585,-200 627.7924,-200 639.714,-200"/>
<polygon fill="#191970" stroke="#191970" points="639.9621,-203.5001 649.9621,-200 639.9621,-196.5001 639.9621,-203.5001"/>
</g>
</g>
</svg>
