<?xml version="1.0" encoding="UTF-8" standalone="no"?>
<!DOCTYPE svg PUBLIC "-//W3C//DTD SVG 1.1//EN"
 "http://www.w3.org/Graphics/SVG/1.1/DTD/svg11.dtd">
<!-- Generated by graphviz version 2.40.1 (20161225.0304)
 -->
<!-- Title: js_parse_template_part Pages: 1 -->
<svg width="1587pt" height="1620pt"
 viewBox="0.00 0.00 1587.00 1620.42" xmlns="http://www.w3.org/2000/svg" xmlns:xlink="http://www.w3.org/1999/xlink">
<g id="graph0" class="graph" transform="scale(1 1) rotate(0) translate(4 1616.4188)">
<title>js_parse_template_part</title>
<!-- Node297998 -->
<g id="node1" class="node">
<title>Node297998</title>
<polygon fill="#bfbfbf" stroke="#000000" points="0,-510.2946 0,-529.2946 118,-529.2946 118,-510.2946 0,-510.2946"/>
<text text-anchor="middle" x="59" y="-517.2946" font-family="Helvetica,sans-Serif" font-size="10.00" fill="#000000">js_parse_template_part</text>
</g>
<!-- Node297999 -->
<g id="node2" class="node">
<title>Node297999</title>
<g id="a_node2"><a xlink:href="quickjs_8c.html#a035daca514f14aacc1e0cff81d8e423a" target="_top" xlink:title="js_parse_template">
<polygon fill="none" stroke="#000000" points="577,-235.2946 577,-254.2946 673,-254.2946 673,-235.2946 577,-235.2946"/>
<text text-anchor="middle" x="625" y="-242.2946" font-family="Helvetica,sans-Serif" font-size="10.00" fill="#000000">js_parse_template</text>
</a>
</g>
</g>
<!-- Node297998&#45;&gt;Node297999 -->
<g id="edge1" class="edge">
<title>Node297998&#45;&gt;Node297999</title>
<path fill="none" stroke="#191970" d="M75.9558,-502.7007C108.155,-471.1128 181.5231,-403.2337 255,-363.7946 363.2055,-305.7148 504.5662,-270.0708 577.249,-254.3171"/>
<polygon fill="#191970" stroke="#191970" points="73.3204,-500.3848 68.6816,-509.9102 78.2481,-505.3567 73.3204,-500.3848"/>
</g>
<!-- Node298030 -->
<g id="node10" class="node">
<title>Node298030</title>
<g id="a_node10"><a xlink:href="quickjs_8c.html#a75a3798e2045f6e403c1ef467126d1fb" target="_top" xlink:title="next_token">
<polygon fill="none" stroke="#ff0000" points="154,-785.2946 154,-804.2946 219,-804.2946 219,-785.2946 154,-785.2946"/>
<text text-anchor="middle" x="186.5" y="-792.2946" font-family="Helvetica,sans-Serif" font-size="10.00" fill="#000000">next_token</text>
</a>
</g>
</g>
<!-- Node297998&#45;&gt;Node298030 -->
<g id="edge17" class="edge">
<title>Node297998&#45;&gt;Node298030</title>
<path fill="none" stroke="#191970" d="M67.7633,-538.6958C92.7078,-592.4977 163.4897,-745.1646 182.0166,-785.1245"/>
<polygon fill="#191970" stroke="#191970" points="70.9194,-537.1821 63.5378,-529.582 64.5688,-540.1265 70.9194,-537.1821"/>
</g>
<!-- Node298000 -->
<g id="node3" class="node">
<title>Node298000</title>
<g id="a_node3"><a xlink:href="quickjs_8c.html#acdcc62310b4f6f73fa7bc7267b18b1d4" target="_top" xlink:title="js_parse_postfix_expr">
<polygon fill="none" stroke="#ff0000" points="733,-477.2946 733,-496.2946 845,-496.2946 845,-477.2946 733,-477.2946"/>
<text text-anchor="middle" x="789" y="-484.2946" font-family="Helvetica,sans-Serif" font-size="10.00" fill="#000000">js_parse_postfix_expr</text>
</a>
</g>
</g>
<!-- Node297999&#45;&gt;Node298000 -->
<g id="edge2" class="edge">
<title>Node297999&#45;&gt;Node298000</title>
<path fill="none" stroke="#191970" d="M679.7918,-259.1472C681.9827,-260.554 684.0664,-262.0986 686,-263.7946 755.5709,-324.8164 781.2051,-442.6174 787.4008,-477.0936"/>
<polygon fill="#191970" stroke="#191970" points="681.3681,-256.021 670.9017,-254.376 678.0578,-262.1889 681.3681,-256.021"/>
</g>
<!-- Node298000&#45;&gt;Node298000 -->
<g id="edge15" class="edge">
<title>Node298000&#45;&gt;Node298000</title>
<path fill="none" stroke="#191970" d="M759.0599,-505.0691C759.9135,-510.5356 769.8936,-514.7946 789,-514.7946 817.4375,-514.7946 825.6577,-505.3599 813.6606,-496.5516"/>
<polygon fill="#191970" stroke="#191970" points="762.0458,-506.8953 764.3394,-496.5516 756.096,-503.2073 762.0458,-506.8953"/>
</g>
<!-- Node298001 -->
<g id="node4" class="node">
<title>Node298001</title>
<g id="a_node4"><a xlink:href="quickjs_8c.html#a00eb789430243c24dab4a63ad6a79653" target="_top" xlink:title="js_parse_class">
<polygon fill="none" stroke="#ff0000" points="1375,-396.2946 1375,-415.2946 1457,-415.2946 1457,-396.2946 1375,-396.2946"/>
<text text-anchor="middle" x="1416" y="-403.2946" font-family="Helvetica,sans-Serif" font-size="10.00" fill="#000000">js_parse_class</text>
</a>
</g>
</g>
<!-- Node298000&#45;&gt;Node298001 -->
<g id="edge3" class="edge">
<title>Node298000&#45;&gt;Node298001</title>
<path fill="none" stroke="#191970" d="M844.1022,-475.6456C967.7689,-455.8956 1265.124,-417.6353 1374.6183,-407.5719"/>
<polygon fill="#191970" stroke="#191970" points="843.4043,-472.2129 834.0923,-477.2663 844.5232,-479.1229 843.4043,-472.2129"/>
</g>
<!-- Node298016 -->
<g id="node6" class="node">
<title>Node298016</title>
<g id="a_node6"><a xlink:href="quickjs_8c.html#a26be546cf89c4580ba9020e8fc43a759" target="_top" xlink:title="js_parse_destructuring\l_element">
<polygon fill="none" stroke="#ff0000" points="892,-823.7946 892,-853.7946 1007,-853.7946 1007,-823.7946 892,-823.7946"/>
<text text-anchor="start" x="900" y="-841.7946" font-family="Helvetica,sans-Serif" font-size="10.00" fill="#000000">js_parse_destructuring</text>
<text text-anchor="middle" x="949.5" y="-830.7946" font-family="Helvetica,sans-Serif" font-size="10.00" fill="#000000">_element</text>
</a>
</g>
</g>
<!-- Node298000&#45;&gt;Node298016 -->
<g id="edge6" class="edge">
<title>Node298000&#45;&gt;Node298016</title>
<path fill="none" stroke="#191970" d="M837.0365,-501.9396C844.1304,-506.9741 850.7918,-512.9704 856,-519.7946 930.5191,-617.4348 945.9455,-774.2317 948.8659,-823.6691"/>
<polygon fill="#191970" stroke="#191970" points="838.8721,-498.9586 828.5714,-496.4793 835.0777,-504.8411 838.8721,-498.9586"/>
</g>
<!-- Node298004 -->
<g id="node7" class="node">
<title>Node298004</title>
<g id="a_node7"><a xlink:href="quickjs_8c.html#ac188b916dd086803591a67de7e7a85f6" target="_top" xlink:title="js_parse_for_in_of">
<polygon fill="none" stroke="#ff0000" points="1056,-531.2946 1056,-550.2946 1152,-550.2946 1152,-531.2946 1056,-531.2946"/>
<text text-anchor="middle" x="1104" y="-538.2946" font-family="Helvetica,sans-Serif" font-size="10.00" fill="#000000">js_parse_for_in_of</text>
</a>
</g>
</g>
<!-- Node298000&#45;&gt;Node298004 -->
<g id="edge16" class="edge">
<title>Node298000&#45;&gt;Node298004</title>
<path fill="none" stroke="#191970" d="M854.7263,-498.062C914.777,-508.3563 1002.1633,-523.3369 1055.9233,-532.5529"/>
<polygon fill="#191970" stroke="#191970" points="855.0382,-494.5644 844.5906,-496.3244 853.8554,-501.4638 855.0382,-494.5644"/>
</g>
<!-- Node298001&#45;&gt;Node298000 -->
<g id="edge4" class="edge">
<title>Node298001&#45;&gt;Node298000</title>
<path fill="none" stroke="#191970" d="M1364.9002,-416.3011C1248.8182,-435.0369 965.9889,-471.6275 845.1939,-483.5987"/>
<polygon fill="#191970" stroke="#191970" points="1365.6436,-419.726 1374.9459,-414.6546 1364.5114,-412.8181 1365.6436,-419.726"/>
</g>
<!-- Node298009 -->
<g id="node5" class="node">
<title>Node298009</title>
<g id="a_node5"><a xlink:href="quickjs_8c.html#a498e1d5c7de1b59c1630e9847cde1e41" target="_top" xlink:title="js_parse_export">
<polygon fill="none" stroke="#ff0000" points="1493,-273.2946 1493,-292.2946 1579,-292.2946 1579,-273.2946 1493,-273.2946"/>
<text text-anchor="middle" x="1536" y="-280.2946" font-family="Helvetica,sans-Serif" font-size="10.00" fill="#000000">js_parse_export</text>
</a>
</g>
</g>
<!-- Node298001&#45;&gt;Node298009 -->
<g id="edge5" class="edge">
<title>Node298001&#45;&gt;Node298009</title>
<path fill="none" stroke="#191970" d="M1432.5647,-388.8158C1458.1229,-362.6186 1506.3384,-313.1977 1526.6275,-292.4014"/>
<polygon fill="#191970" stroke="#191970" points="1429.8942,-386.541 1425.4162,-396.143 1434.9047,-391.4293 1429.8942,-386.541"/>
</g>
<!-- Node298016&#45;&gt;Node298000 -->
<g id="edge8" class="edge">
<title>Node298016&#45;&gt;Node298000</title>
<path fill="none" stroke="#191970" d="M947.3516,-813.4446C941.7557,-757.8987 922.1847,-624.5145 856,-537.7946 841.0078,-518.1508 813.9746,-505.3669 799.245,-496.3793"/>
<polygon fill="#191970" stroke="#191970" points="943.8742,-813.8503 948.2941,-823.4791 950.8435,-813.1956 943.8742,-813.8503"/>
</g>
<!-- Node298016&#45;&gt;Node298016 -->
<g id="edge7" class="edge">
<title>Node298016&#45;&gt;Node298016</title>
<path fill="none" stroke="#191970" d="M922.1361,-864.2525C925.5323,-868.9736 934.6536,-872.2946 949.5,-872.2946 973.8633,-872.2946 982.8092,-863.3512 976.3377,-853.9536"/>
<polygon fill="#191970" stroke="#191970" points="925.6473,-864.1192 922.6623,-853.9536 918.6565,-863.7619 925.6473,-864.1192"/>
</g>
<!-- Node298016&#45;&gt;Node298004 -->
<g id="edge9" class="edge">
<title>Node298016&#45;&gt;Node298004</title>
<path fill="none" stroke="#191970" d="M962.049,-814.59C994.0474,-752.8714 1077.6627,-591.594 1098.991,-550.4559"/>
<polygon fill="#191970" stroke="#191970" points="958.8697,-813.1183 957.3741,-823.607 965.0841,-816.3402 958.8697,-813.1183"/>
</g>
<!-- Node298007 -->
<g id="node8" class="node">
<title>Node298007</title>
<g id="a_node8"><a xlink:href="quickjs_8c.html#acc9eb677cab8dfcf45f59381f8a19601" target="_top" xlink:title="js_parse_function_decl2">
<polygon fill="none" stroke="#ff0000" points="1043,-1089.2946 1043,-1108.2946 1165,-1108.2946 1165,-1089.2946 1043,-1089.2946"/>
<text text-anchor="middle" x="1104" y="-1096.2946" font-family="Helvetica,sans-Serif" font-size="10.00" fill="#000000">js_parse_function_decl2</text>
</a>
</g>
</g>
<!-- Node298016&#45;&gt;Node298007 -->
<g id="edge10" class="edge">
<title>Node298016&#45;&gt;Node298007</title>
<path fill="none" stroke="#191970" d="M963.6693,-862.6393C996.4471,-917.7994 1076.3794,-1052.3134 1098.3378,-1089.266"/>
<polygon fill="#191970" stroke="#191970" points="966.5917,-860.7059 958.4744,-853.8971 960.574,-864.2818 966.5917,-860.7059"/>
</g>
<!-- Node298007&#45;&gt;Node298001 -->
<g id="edge13" class="edge">
<title>Node298007&#45;&gt;Node298001</title>
<path fill="none" stroke="#191970" d="M1127.1722,-1083.7433C1146.6925,-1071.1802 1175.4435,-1052.9462 1201,-1037.7946 1261.4152,-1001.9764 1299.3507,-1018.7676 1339,-960.7946 1403.2508,-866.8505 1414.3774,-480.9397 1415.8153,-415.3051"/>
<polygon fill="#191970" stroke="#191970" points="1125.1446,-1080.8863 1118.6418,-1089.2508 1128.9415,-1086.7671 1125.1446,-1080.8863"/>
</g>
<!-- Node298007&#45;&gt;Node298009 -->
<g id="edge14" class="edge">
<title>Node298007&#45;&gt;Node298009</title>
<path fill="none" stroke="#191970" d="M1153.2093,-1086.7221C1214.2708,-1070.8026 1313.4777,-1041.5512 1339,-1013.7946 1444.4231,-899.1425 1523.4917,-370.2571 1534.6477,-292.3822"/>
<polygon fill="#191970" stroke="#191970" points="1152.1953,-1083.369 1143.3854,-1089.2543 1153.9425,-1090.1475 1152.1953,-1083.369"/>
</g>
<!-- Node298008 -->
<g id="node9" class="node">
<title>Node298008</title>
<g id="a_node9"><a xlink:href="quickjs_8c.html#adf95ddf430ef93fd9efea1cc2f8a2fbe" target="_top" xlink:title="js_parse_class_default_ctor">
<polygon fill="none" stroke="#000000" points="1201,-1089.2946 1201,-1108.2946 1339,-1108.2946 1339,-1089.2946 1201,-1089.2946"/>
<text text-anchor="middle" x="1270" y="-1096.2946" font-family="Helvetica,sans-Serif" font-size="10.00" fill="#000000">js_parse_class_default_ctor</text>
</a>
</g>
</g>
<!-- Node298007&#45;&gt;Node298008 -->
<g id="edge11" class="edge">
<title>Node298007&#45;&gt;Node298008</title>
<path fill="none" stroke="#191970" d="M1175.4791,-1098.7946C1183.8754,-1098.7946 1192.4321,-1098.7946 1200.7965,-1098.7946"/>
<polygon fill="#191970" stroke="#191970" points="1175.3407,-1095.2947 1165.3406,-1098.7946 1175.3406,-1102.2947 1175.3407,-1095.2947"/>
</g>
<!-- Node298008&#45;&gt;Node298001 -->
<g id="edge12" class="edge">
<title>Node298008&#45;&gt;Node298001</title>
<path fill="none" stroke="#191970" d="M1287.614,-1081.7357C1303.8678,-1064.845 1327.2125,-1037.4265 1339,-1008.7946 1386.108,-894.3694 1411.5222,-483.6067 1415.4587,-415.4185"/>
<polygon fill="#191970" stroke="#191970" points="1284.8322,-1079.5709 1280.2862,-1089.1409 1289.8079,-1084.4946 1284.8322,-1079.5709"/>
</g>
<!-- Node298030&#45;&gt;Node297999 -->
<g id="edge95" class="edge">
<title>Node298030&#45;&gt;Node297999</title>
<path fill="none" stroke="#191970" d="M187.3389,-775.0057C190.7282,-704.4025 205.6848,-466.1921 255,-411.7946 339.673,-318.3953 430.6285,-414.8679 528,-334.7946 555.3268,-312.3224 536.9795,-286.6342 564,-263.7946 568.5745,-259.9279 573.9333,-256.8471 579.542,-254.3927"/>
<polygon fill="#191970" stroke="#191970" points="183.8343,-775.0295 186.8765,-785.1782 190.8271,-775.3475 183.8343,-775.0295"/>
</g>
<!-- Node298030&#45;&gt;Node298000 -->
<g id="edge87" class="edge">
<title>Node298030&#45;&gt;Node298000</title>
<path fill="none" stroke="#191970" d="M229.1281,-807.0322C295.1118,-823.8163 425.101,-848.2099 528,-813.7946 611.3718,-785.9103 629.8696,-762.4538 686,-694.7946 741.0593,-628.4265 776.0418,-527.6689 786.0385,-496.3942"/>
<polygon fill="#191970" stroke="#191970" points="229.6615,-803.5542 219.1016,-804.414 227.8928,-810.3271 229.6615,-803.5542"/>
</g>
<!-- Node298030&#45;&gt;Node298001 -->
<g id="edge38" class="edge">
<title>Node298030&#45;&gt;Node298001</title>
<path fill="none" stroke="#191970" d="M187.4437,-774.7174C192.3884,-673.0107 216.5565,-217.578 255,-168.7946 316.8239,-90.3424 366.6154,-92.7946 466.5,-92.7946 466.5,-92.7946 466.5,-92.7946 625,-92.7946 785.1242,-92.7946 1217.9266,-85.0044 1339,-189.7946 1372.1878,-218.519 1405.3297,-358.0085 1413.8832,-396.1427"/>
<polygon fill="#191970" stroke="#191970" points="183.9405,-774.7008 186.9579,-784.8569 190.9325,-775.0358 183.9405,-774.7008"/>
</g>
<!-- Node298030&#45;&gt;Node298009 -->
<g id="edge71" class="edge">
<title>Node298030&#45;&gt;Node298009</title>
<path fill="none" stroke="#191970" d="M186.8026,-775.0689C188.7418,-661.059 201.1155,-89.6568 255,-35.7946 321.7495,30.9274 372.1215,-16.7946 466.5,-16.7946 466.5,-16.7946 466.5,-16.7946 1270,-16.7946 1357.9888,-16.7946 1393.552,-20.8325 1457,-81.7946 1515.1293,-137.6464 1531.3412,-241.4575 1535.0431,-273.2768"/>
<polygon fill="#191970" stroke="#191970" points="183.3017,-775.1018 186.6384,-785.1575 190.3007,-775.2158 183.3017,-775.1018"/>
</g>
<!-- Node298030&#45;&gt;Node298016 -->
<g id="edge44" class="edge">
<title>Node298030&#45;&gt;Node298016</title>
<path fill="none" stroke="#191970" d="M189.0659,-814.6952C194.6297,-849.6926 211.0523,-922.372 255,-962.7946 306.4195,-1010.0896 336.2283,-997.4963 405,-1009.7946 503.6659,-1027.4389 778.5934,-1067.4695 856,-1003.7946 901.3084,-966.5237 857.3639,-924.1477 892,-876.7946 898.7816,-867.523 908.5629,-859.8614 918.1405,-853.9061"/>
<polygon fill="#191970" stroke="#191970" points="192.4682,-813.7674 187.5713,-804.3721 185.5404,-814.7705 192.4682,-813.7674"/>
</g>
<!-- Node298030&#45;&gt;Node298004 -->
<g id="edge79" class="edge">
<title>Node298030&#45;&gt;Node298004</title>
<path fill="none" stroke="#191970" d="M187.1855,-775.2597C190.1833,-700.0124 204.3491,-429.8458 255,-363.7946 300.7627,-304.1177 490.4489,-241.4724 564,-225.7946 783.0063,-179.1122 828.7485,-330.2608 1007,-465.7946 1037.6705,-489.115 1073.4607,-516.9509 1091.799,-531.2593"/>
<polygon fill="#191970" stroke="#191970" points="183.6881,-775.1283 186.8087,-785.2531 190.6831,-775.3921 183.6881,-775.1283"/>
</g>
<!-- Node298030&#45;&gt;Node298007 -->
<g id="edge83" class="edge">
<title>Node298030&#45;&gt;Node298007</title>
<path fill="none" stroke="#191970" d="M186.8311,-814.6323C188.8847,-925.7054 201.6014,-1467.2288 255,-1515.7946 517.1576,-1754.2259 760.29,-1505.1767 1007,-1250.7946 1051.8959,-1204.5025 1087.3471,-1134.2884 1099.4826,-1108.6269"/>
<polygon fill="#191970" stroke="#191970" points="190.3282,-814.4346 186.6518,-804.4981 183.3293,-814.5585 190.3282,-814.4346"/>
</g>
<!-- Node298030&#45;&gt;Node298008 -->
<g id="edge39" class="edge">
<title>Node298030&#45;&gt;Node298008</title>
<path fill="none" stroke="#191970" d="M186.9066,-814.7912C188.8263,-887.1767 199.4108,-1133.8935 255,-1183.7946 397.9508,-1312.1181 1162.6239,-1118.1556 1165,-1117.7946 1183.2234,-1115.0257 1203.1429,-1111.539 1220.6871,-1108.3107"/>
<polygon fill="#191970" stroke="#191970" points="190.396,-814.3013 186.6602,-804.3869 183.398,-814.467 190.396,-814.3013"/>
</g>
<!-- Node298031 -->
<g id="node11" class="node">
<title>Node298031</title>
<g id="a_node11"><a xlink:href="quickjs_8c.html#a08f5927b79691c477c726fc5d309cfef" target="_top" xlink:title="is_let">
<polygon fill="none" stroke="#ff0000" points="446.5,-1165.2946 446.5,-1184.2946 486.5,-1184.2946 486.5,-1165.2946 446.5,-1165.2946"/>
<text text-anchor="middle" x="466.5" y="-1172.2946" font-family="Helvetica,sans-Serif" font-size="10.00" fill="#000000">is_let</text>
</a>
</g>
</g>
<!-- Node298030&#45;&gt;Node298031 -->
<g id="edge18" class="edge">
<title>Node298030&#45;&gt;Node298031</title>
<path fill="none" stroke="#191970" d="M187.3408,-814.7669C190.6453,-882.9148 205.1172,-1104.6167 255,-1150.7946 308.4232,-1200.2498 404.8705,-1187.8027 446.489,-1179.4384"/>
<polygon fill="#191970" stroke="#191970" points="190.8267,-814.3752 186.8748,-804.5451 183.834,-814.6941 190.8267,-814.3752"/>
</g>
<!-- Node298025 -->
<g id="node12" class="node">
<title>Node298025</title>
<g id="a_node12"><a xlink:href="quickjs_8c.html#a253917187cfb6b3db09d355b31edb3d5" target="_top" xlink:title="js_parse_array_literal">
<polygon fill="none" stroke="#000000" points="570.5,-595.2946 570.5,-614.2946 679.5,-614.2946 679.5,-595.2946 570.5,-595.2946"/>
<text text-anchor="middle" x="625" y="-602.2946" font-family="Helvetica,sans-Serif" font-size="10.00" fill="#000000">js_parse_array_literal</text>
</a>
</g>
</g>
<!-- Node298030&#45;&gt;Node298025 -->
<g id="edge20" class="edge">
<title>Node298030&#45;&gt;Node298025</title>
<path fill="none" stroke="#191970" d="M190.234,-775.1458C199.549,-728.302 225.2178,-612.1418 255,-587.7946 359.7973,-502.1221 542.4168,-568.8347 604.0219,-595.2554"/>
<polygon fill="#191970" stroke="#191970" points="186.7466,-774.7442 188.2703,-785.2289 193.6175,-776.0824 186.7466,-774.7442"/>
</g>
<!-- Node298024 -->
<g id="node13" class="node">
<title>Node298024</title>
<g id="a_node13"><a xlink:href="quickjs_8c.html#a4fa2fc1719feb03edf64eaf034103fd2" target="_top" xlink:title="js_parse_assign_expr">
<polygon fill="none" stroke="#ff0000" points="411,-463.2946 411,-482.2946 522,-482.2946 522,-463.2946 411,-463.2946"/>
<text text-anchor="middle" x="466.5" y="-470.2946" font-family="Helvetica,sans-Serif" font-size="10.00" fill="#000000">js_parse_assign_expr</text>
</a>
</g>
</g>
<!-- Node298030&#45;&gt;Node298024 -->
<g id="edge22" class="edge">
<title>Node298030&#45;&gt;Node298024</title>
<path fill="none" stroke="#191970" d="M188.5756,-775.2138C195.0685,-717.7439 216.8677,-551.2886 255,-514.7946 296.2447,-475.3219 363.4035,-467.973 410.9661,-468.4828"/>
<polygon fill="#191970" stroke="#191970" points="185.0933,-774.8616 187.4808,-785.1839 192.0515,-775.6257 185.0933,-774.8616"/>
</g>
<!-- Node298011 -->
<g id="node14" class="node">
<title>Node298011</title>
<g id="a_node14"><a xlink:href="quickjs_8c.html#aee6d0acd87f136d43f157ae1426436e6" target="_top" xlink:title="js_parse_object_literal">
<polygon fill="none" stroke="#000000" points="568.5,-633.2946 568.5,-652.2946 681.5,-652.2946 681.5,-633.2946 568.5,-633.2946"/>
<text text-anchor="middle" x="625" y="-640.2946" font-family="Helvetica,sans-Serif" font-size="10.00" fill="#000000">js_parse_object_literal</text>
</a>
</g>
</g>
<!-- Node298030&#45;&gt;Node298011 -->
<g id="edge86" class="edge">
<title>Node298030&#45;&gt;Node298011</title>
<path fill="none" stroke="#191970" d="M190.1399,-774.9195C197.0864,-742.4626 215.2322,-677.9804 255,-640.7946 306.8649,-592.2971 335.0866,-598.208 405,-585.7946 458.8248,-576.2378 477.7818,-564.1941 528,-585.7946 549.3713,-594.9871 544.2544,-611.4924 564,-623.7946 570.1194,-627.6072 577.0638,-630.7086 584.0198,-633.2141"/>
<polygon fill="#191970" stroke="#191970" points="186.6595,-774.4751 188.1327,-784.967 193.5239,-775.8464 186.6595,-774.4751"/>
</g>
<!-- Node298023 -->
<g id="node15" class="node">
<title>Node298023</title>
<g id="a_node15"><a xlink:href="quickjs_8c.html#abd2cbff624ea609dbf883fb1a2f048cd" target="_top" xlink:title="js_parse_cond_expr">
<polygon fill="none" stroke="#000000" points="737,-975.2946 737,-994.2946 841,-994.2946 841,-975.2946 737,-975.2946"/>
<text text-anchor="middle" x="789" y="-982.2946" font-family="Helvetica,sans-Serif" font-size="10.00" fill="#000000">js_parse_cond_expr</text>
</a>
</g>
</g>
<!-- Node298030&#45;&gt;Node298023 -->
<g id="edge42" class="edge">
<title>Node298030&#45;&gt;Node298023</title>
<path fill="none" stroke="#191970" d="M191.5439,-814.2585C199.8481,-842.2202 219.1643,-893.2998 255,-919.7946 401.0629,-1027.7847 633.4268,-1009.2013 736.6408,-994.0402"/>
<polygon fill="#191970" stroke="#191970" points="194.8674,-813.1467 188.8062,-804.4569 188.1255,-815.0299 194.8674,-813.1467"/>
</g>
<!-- Node298026 -->
<g id="node16" class="node">
<title>Node298026</title>
<g id="a_node16"><a xlink:href="quickjs_8c.html#a1cef6995e7ec0c736babe92589cf441f" target="_top" xlink:title="js_parse_expr2">
<polygon fill="none" stroke="#ff0000" points="583.5,-273.2946 583.5,-292.2946 666.5,-292.2946 666.5,-273.2946 583.5,-273.2946"/>
<text text-anchor="middle" x="625" y="-280.2946" font-family="Helvetica,sans-Serif" font-size="10.00" fill="#000000">js_parse_expr2</text>
</a>
</g>
</g>
<!-- Node298030&#45;&gt;Node298026 -->
<g id="edge72" class="edge">
<title>Node298030&#45;&gt;Node298026</title>
<path fill="none" stroke="#191970" d="M188.1259,-774.7068C193.6834,-710.7632 213.8959,-513.421 255,-466.7946 339.8595,-370.5344 429.9786,-455.6134 528,-372.7946 553.5229,-351.2301 538.9492,-328.9057 564,-306.7946 571.0818,-300.5439 579.9836,-295.8235 588.781,-292.2983"/>
<polygon fill="#191970" stroke="#191970" points="184.6084,-774.7692 187.257,-785.0276 191.5837,-775.3565 184.6084,-774.7692"/>
</g>
<!-- Node298005 -->
<g id="node17" class="node">
<title>Node298005</title>
<g id="a_node17"><a xlink:href="quickjs_8c.html#acc0cac53be5317d9cab6a79afcd7da48" target="_top" xlink:title="js_parse_block">
<polygon fill="none" stroke="#ff0000" points="425.5,-595.2946 425.5,-614.2946 507.5,-614.2946 507.5,-595.2946 425.5,-595.2946"/>
<text text-anchor="middle" x="466.5" y="-602.2946" font-family="Helvetica,sans-Serif" font-size="10.00" fill="#000000">js_parse_block</text>
</a>
</g>
</g>
<!-- Node298030&#45;&gt;Node298005 -->
<g id="edge37" class="edge">
<title>Node298030&#45;&gt;Node298005</title>
<path fill="none" stroke="#191970" d="M202.7665,-777.874C236.9405,-743.3111 320.077,-664.2912 405,-621.7946 411.3401,-618.6219 418.3539,-615.9731 425.3083,-613.7845"/>
<polygon fill="#191970" stroke="#191970" points="200.0057,-775.6912 195.5158,-785.2877 205.0101,-780.5857 200.0057,-775.6912"/>
</g>
<!-- Node298022 -->
<g id="node18" class="node">
<title>Node298022</title>
<g id="a_node18"><a xlink:href="quickjs_8c.html#a2a6a8f6738ae03f046617522b9781245" target="_top" xlink:title="js_parse_coalesce_expr">
<polygon fill="none" stroke="#000000" points="564,-1288.2946 564,-1307.2946 686,-1307.2946 686,-1288.2946 564,-1288.2946"/>
<text text-anchor="middle" x="625" y="-1295.2946" font-family="Helvetica,sans-Serif" font-size="10.00" fill="#000000">js_parse_coalesce_expr</text>
</a>
</g>
</g>
<!-- Node298030&#45;&gt;Node298022 -->
<g id="edge40" class="edge">
<title>Node298030&#45;&gt;Node298022</title>
<path fill="none" stroke="#191970" d="M187.3514,-814.484C191.6999,-910.4928 212.8845,-1326.4451 255,-1363.7946 283.9856,-1389.5 517.225,-1346.9394 528,-1343.7946 528.5032,-1343.6477 576.2541,-1320.9657 604.5618,-1307.5112"/>
<polygon fill="#191970" stroke="#191970" points="190.8443,-814.2436 186.9043,-804.4086 183.8512,-814.554 190.8443,-814.2436"/>
</g>
<!-- Node298019 -->
<g id="node19" class="node">
<title>Node298019</title>
<g id="a_node19"><a xlink:href="quickjs_8c.html#a2ecfb6abb190101748202a8aa5821fba" target="_top" xlink:title="js_parse_delete">
<polygon fill="none" stroke="#ff0000" points="269.5,-1487.2946 269.5,-1506.2946 354.5,-1506.2946 354.5,-1487.2946 269.5,-1487.2946"/>
<text text-anchor="middle" x="312" y="-1494.2946" font-family="Helvetica,sans-Serif" font-size="10.00" fill="#000000">js_parse_delete</text>
</a>
</g>
</g>
<!-- Node298030&#45;&gt;Node298019 -->
<g id="edge43" class="edge">
<title>Node298030&#45;&gt;Node298019</title>
<path fill="none" stroke="#191970" d="M187.2208,-814.669C191.2612,-921.4895 212.4543,-1424.5865 255,-1477.7946 258.7783,-1482.5198 263.7704,-1486.0792 269.2324,-1488.7584"/>
<polygon fill="#191970" stroke="#191970" points="190.7161,-814.4747 186.8473,-804.6116 183.7209,-814.7346 190.7161,-814.4747"/>
</g>
<!-- Node298032 -->
<g id="node20" class="node">
<title>Node298032</title>
<g id="a_node20"><a xlink:href="quickjs_8c.html#ab10609a91c359ea5d3051f7bb646af83" target="_top" xlink:title="js_parse_destructuring_var">
<polygon fill="none" stroke="#000000" points="722,-899.2946 722,-918.2946 856,-918.2946 856,-899.2946 722,-899.2946"/>
<text text-anchor="middle" x="789" y="-906.2946" font-family="Helvetica,sans-Serif" font-size="10.00" fill="#000000">js_parse_destructuring_var</text>
</a>
</g>
</g>
<!-- Node298030&#45;&gt;Node298032 -->
<g id="edge45" class="edge">
<title>Node298030&#45;&gt;Node298032</title>
<path fill="none" stroke="#191970" d="M194.6341,-813.4997C205.1186,-835.0227 225.5695,-869.3765 255,-884.7946 418.998,-970.7097 651.6899,-937.2933 746.4132,-918.3582"/>
<polygon fill="#191970" stroke="#191970" points="197.7831,-811.9706 190.4065,-804.3655 191.4305,-814.9107 197.7831,-811.9706"/>
</g>
<!-- Node298033 -->
<g id="node21" class="node">
<title>Node298033</title>
<g id="a_node21"><a xlink:href="quickjs_8c.html#a64f81788f15df1683a1f8c3919cfd6fd" target="_top" xlink:title="js_parse_directives">
<polygon fill="none" stroke="#000000" points="416,-1411.2946 416,-1430.2946 517,-1430.2946 517,-1411.2946 416,-1411.2946"/>
<text text-anchor="middle" x="466.5" y="-1418.2946" font-family="Helvetica,sans-Serif" font-size="10.00" fill="#000000">js_parse_directives</text>
</a>
</g>
</g>
<!-- Node298030&#45;&gt;Node298033 -->
<g id="edge47" class="edge">
<title>Node298030&#45;&gt;Node298033</title>
<path fill="none" stroke="#191970" d="M187.312,-814.5799C191.5736,-913.8527 212.781,-1354.5886 255,-1396.7946 297.861,-1439.6423 372.606,-1437.441 420.7935,-1430.325"/>
<polygon fill="#191970" stroke="#191970" points="190.8028,-814.284 186.8853,-804.44 183.809,-814.5784 190.8028,-814.284"/>
</g>
<!-- Node298012 -->
<g id="node22" class="node">
<title>Node298012</title>
<g id="a_node22"><a xlink:href="quickjs_8c.html#aec05caae64451720670d1a56040110b3" target="_top" xlink:title="js_parse_program">
<polygon fill="none" stroke="#ff0000" points="578,-1248.2946 578,-1267.2946 672,-1267.2946 672,-1248.2946 578,-1248.2946"/>
<text text-anchor="middle" x="625" y="-1255.2946" font-family="Helvetica,sans-Serif" font-size="10.00" fill="#000000">js_parse_program</text>
</a>
</g>
</g>
<!-- Node298030&#45;&gt;Node298012 -->
<g id="edge88" class="edge">
<title>Node298030&#45;&gt;Node298012</title>
<path fill="none" stroke="#191970" d="M188.255,-815.0716C195.5123,-896.696 224.2434,-1198.2242 255,-1226.7946 300.6936,-1269.2403 488.701,-1265.231 577.7779,-1260.7434"/>
<polygon fill="#191970" stroke="#191970" points="191.7042,-814.3382 187.3424,-804.6829 184.731,-814.9509 191.7042,-814.3382"/>
</g>
<!-- Node298034 -->
<g id="node23" class="node">
<title>Node298034</title>
<g id="a_node23"><a xlink:href="quickjs_8c.html#aeca8ed71e1eef8ec809afab744958c28" target="_top" xlink:title="js_parse_expect">
<polygon fill="none" stroke="#ff0000" points="268,-747.2946 268,-766.2946 356,-766.2946 356,-747.2946 268,-747.2946"/>
<text text-anchor="middle" x="312" y="-754.2946" font-family="Helvetica,sans-Serif" font-size="10.00" fill="#000000">js_parse_expect</text>
</a>
</g>
</g>
<!-- Node298030&#45;&gt;Node298034 -->
<g id="edge50" class="edge">
<title>Node298030&#45;&gt;Node298034</title>
<path fill="none" stroke="#191970" d="M227.8995,-782.2593C244.9723,-777.0898 264.4391,-771.1955 280.3412,-766.3805"/>
<polygon fill="#191970" stroke="#191970" points="226.7255,-778.9577 218.1689,-785.2056 228.7541,-785.6574 226.7255,-778.9577"/>
</g>
<!-- Node298035 -->
<g id="node24" class="node">
<title>Node298035</title>
<g id="a_node24"><a xlink:href="quickjs_8c.html#aa24f7964f6d938a05c3c3c03af5a01e9" target="_top" xlink:title="js_parse_import">
<polygon fill="none" stroke="#ff0000" points="423.5,-197.2946 423.5,-216.2946 509.5,-216.2946 509.5,-197.2946 423.5,-197.2946"/>
<text text-anchor="middle" x="466.5" y="-204.2946" font-family="Helvetica,sans-Serif" font-size="10.00" fill="#000000">js_parse_import</text>
</a>
</g>
</g>
<!-- Node298030&#45;&gt;Node298035 -->
<g id="edge84" class="edge">
<title>Node298030&#45;&gt;Node298035</title>
<path fill="none" stroke="#191970" d="M186.8352,-774.8656C188.5753,-692.9808 198.8246,-383.1495 255,-306.7946 295.5572,-251.6683 374.3531,-225.7875 423.4794,-214.5356"/>
<polygon fill="#191970" stroke="#191970" points="183.3287,-775.1726 186.6357,-785.2381 190.3274,-775.3073 183.3287,-775.1726"/>
</g>
<!-- Node298028 -->
<g id="node25" class="node">
<title>Node298028</title>
<g id="a_node25"><a xlink:href="quickjs_8c.html#a42234753f3193f37ce45b3c0ca4c25cd" target="_top" xlink:title="js_parse_property_name">
<polygon fill="none" stroke="#000000" points="405,-785.2946 405,-804.2946 528,-804.2946 528,-785.2946 405,-785.2946"/>
<text text-anchor="middle" x="466.5" y="-792.2946" font-family="Helvetica,sans-Serif" font-size="10.00" fill="#000000">js_parse_property_name</text>
</a>
</g>
</g>
<!-- Node298030&#45;&gt;Node298028 -->
<g id="edge89" class="edge">
<title>Node298030&#45;&gt;Node298028</title>
<path fill="none" stroke="#191970" d="M229.2731,-794.7946C276.0755,-794.7946 351.5164,-794.7946 404.738,-794.7946"/>
<polygon fill="#191970" stroke="#191970" points="229.1676,-791.2947 219.1675,-794.7946 229.1675,-798.2947 229.1676,-791.2947"/>
</g>
<!-- Node298040 -->
<g id="node26" class="node">
<title>Node298040</title>
<g id="a_node26"><a xlink:href="quickjs_8c.html#a02cbd69384985a4e904190810cf45641" target="_top" xlink:title="js_parse_expect_semi">
<polygon fill="none" stroke="#ff0000" points="255,-178.2946 255,-197.2946 369,-197.2946 369,-178.2946 255,-178.2946"/>
<text text-anchor="middle" x="312" y="-185.2946" font-family="Helvetica,sans-Serif" font-size="10.00" fill="#000000">js_parse_expect_semi</text>
</a>
</g>
</g>
<!-- Node298030&#45;&gt;Node298040 -->
<g id="edge67" class="edge">
<title>Node298030&#45;&gt;Node298040</title>
<path fill="none" stroke="#191970" d="M187.7996,-775.072C193.5176,-691.221 217.8175,-364.2762 255,-268.7946 266.2317,-239.9526 289.8487,-211.6245 302.8815,-197.3467"/>
<polygon fill="#191970" stroke="#191970" points="184.2947,-775.0289 187.1167,-785.241 191.279,-775.498 184.2947,-775.0289"/>
</g>
<!-- Node298020 -->
<g id="node27" class="node">
<title>Node298020</title>
<g id="a_node27"><a xlink:href="quickjs_8c.html#ab1c84e1eb8a5f06b9257c3c9b5a6f024" target="_top" xlink:title="js_parse_expr_binary">
<polygon fill="none" stroke="#000000" points="257.5,-1317.2946 257.5,-1336.2946 366.5,-1336.2946 366.5,-1317.2946 257.5,-1317.2946"/>
<text text-anchor="middle" x="312" y="-1324.2946" font-family="Helvetica,sans-Serif" font-size="10.00" fill="#000000">js_parse_expr_binary</text>
</a>
</g>
</g>
<!-- Node298030&#45;&gt;Node298020 -->
<g id="edge73" class="edge">
<title>Node298030&#45;&gt;Node298020</title>
<path fill="none" stroke="#191970" d="M188.0076,-814.5603C194.9373,-903.4048 224.6915,-1263.1857 255,-1302.7946 259.8285,-1309.1047 266.6282,-1313.7722 273.8562,-1317.2194"/>
<polygon fill="#191970" stroke="#191970" points="191.4895,-814.1896 187.2298,-804.4889 184.5103,-814.7287 191.4895,-814.1896"/>
</g>
<!-- Node298021 -->
<g id="node28" class="node">
<title>Node298021</title>
<g id="a_node28"><a xlink:href="quickjs_8c.html#a2af8c0e05d949d0ae23d94c8e73e5494" target="_top" xlink:title="js_parse_logical_and_or">
<polygon fill="none" stroke="#000000" points="406,-1279.2946 406,-1298.2946 527,-1298.2946 527,-1279.2946 406,-1279.2946"/>
<text text-anchor="middle" x="466.5" y="-1286.2946" font-family="Helvetica,sans-Serif" font-size="10.00" fill="#000000">js_parse_logical_and_or</text>
</a>
</g>
</g>
<!-- Node298030&#45;&gt;Node298021 -->
<g id="edge85" class="edge">
<title>Node298030&#45;&gt;Node298021</title>
<path fill="none" stroke="#191970" d="M187.9964,-814.8917C194.5684,-900.624 222.0173,-1232.8423 255,-1264.7946 297.9981,-1306.4494 371.2722,-1304.9956 419.2857,-1298.3119"/>
<polygon fill="#191970" stroke="#191970" points="191.4687,-814.3923 187.224,-804.685 184.4887,-814.9206 191.4687,-814.3923"/>
</g>
<!-- Node298041 -->
<g id="node29" class="node">
<title>Node298041</title>
<g id="a_node29"><a xlink:href="quickjs_8c.html#a736435f0774c85e09f2817c97ec47bbf" target="_top" xlink:title="js_parse_from_clause">
<polygon fill="none" stroke="#000000" points="256,-45.2946 256,-64.2946 368,-64.2946 368,-45.2946 256,-45.2946"/>
<text text-anchor="middle" x="312" y="-52.2946" font-family="Helvetica,sans-Serif" font-size="10.00" fill="#000000">js_parse_from_clause</text>
</a>
</g>
</g>
<!-- Node298030&#45;&gt;Node298041 -->
<g id="edge80" class="edge">
<title>Node298030&#45;&gt;Node298041</title>
<path fill="none" stroke="#191970" d="M187.1922,-775.0539C191.185,-665.6414 212.5907,-136.4949 255,-78.7946 259.642,-72.4788 266.2716,-67.8135 273.3776,-64.3709"/>
<polygon fill="#191970" stroke="#191970" points="183.6943,-774.9344 186.8335,-785.0534 190.6898,-775.1854 183.6943,-774.9344"/>
</g>
<!-- Node298042 -->
<g id="node30" class="node">
<title>Node298042</title>
<g id="a_node30"><a xlink:href="quickjs_8c.html#aba7eb7aae2eb61bfccb4565ee626cd18" target="_top" xlink:title="js_parse_seek_token">
<polygon fill="none" stroke="#ff0000" points="257.5,-1449.2946 257.5,-1468.2946 366.5,-1468.2946 366.5,-1449.2946 257.5,-1449.2946"/>
<text text-anchor="middle" x="312" y="-1456.2946" font-family="Helvetica,sans-Serif" font-size="10.00" fill="#000000">js_parse_seek_token</text>
</a>
</g>
</g>
<!-- Node298030&#45;&gt;Node298042 -->
<g id="edge90" class="edge">
<title>Node298030&#45;&gt;Node298042</title>
<path fill="none" stroke="#191970" d="M187.433,-814.6257C192.4099,-917.0912 217.0358,-1383.7461 255,-1434.7946 259.6775,-1441.0841 266.3222,-1445.7382 273.432,-1449.1781"/>
<polygon fill="#191970" stroke="#191970" points="190.92,-814.2673 186.9455,-804.4462 183.928,-814.6022 190.92,-814.2673"/>
</g>
<!-- Node298031&#45;&gt;Node298004 -->
<g id="edge19" class="edge">
<title>Node298031&#45;&gt;Node298004</title>
<path fill="none" stroke="#191970" d="M496.7457,-1175.9715C540.0486,-1176.6712 621.5928,-1174.2912 686,-1150.7946 861.1335,-1086.9036 913.8022,-1042.2503 1007,-880.7946 1075.4318,-762.2435 1098.2466,-592.2372 1102.9914,-550.3773"/>
<polygon fill="#191970" stroke="#191970" points="496.6719,-1172.469 486.5942,-1175.7382 496.5111,-1179.4671 496.6719,-1172.469"/>
</g>
<!-- Node298025&#45;&gt;Node298000 -->
<g id="edge21" class="edge">
<title>Node298025&#45;&gt;Node298000</title>
<path fill="none" stroke="#191970" d="M646.8389,-589.0812C681.2274,-564.3383 746.9999,-517.0142 775.3938,-496.5844"/>
<polygon fill="#191970" stroke="#191970" points="644.4939,-586.4566 638.4208,-595.1381 648.5822,-592.1387 644.4939,-586.4566"/>
</g>
<!-- Node298024&#45;&gt;Node297999 -->
<g id="edge23" class="edge">
<title>Node298024&#45;&gt;Node297999</title>
<path fill="none" stroke="#191970" d="M516.8924,-458.4098C521.0546,-455.7311 524.8606,-452.5564 528,-448.7946 581.6712,-384.4837 508.1076,-326.1848 564,-263.7946 567.6266,-259.7463 572.0998,-256.5517 576.9625,-254.0323"/>
<polygon fill="#191970" stroke="#191970" points="515.0829,-455.4092 507.9476,-463.241 518.4096,-461.5682 515.0829,-455.4092"/>
</g>
<!-- Node298024&#45;&gt;Node298000 -->
<g id="edge29" class="edge">
<title>Node298024&#45;&gt;Node298000</title>
<path fill="none" stroke="#191970" d="M532.1269,-461.9094C575.8685,-456.2977 634.5579,-451.9271 686,-458.7946 712.2662,-462.3011 741.3269,-470.6269 761.8644,-477.2939"/>
<polygon fill="#191970" stroke="#191970" points="531.6356,-458.4438 522.1878,-463.2386 532.5635,-465.3821 531.6356,-458.4438"/>
</g>
<!-- Node298024&#45;&gt;Node298001 -->
<g id="edge26" class="edge">
<title>Node298024&#45;&gt;Node298001</title>
<path fill="none" stroke="#191970" d="M490.4234,-457.9687C542.5838,-427.1044 671.3197,-358.7946 789,-358.7946 789,-358.7946 789,-358.7946 1104,-358.7946 1203.6956,-358.7946 1319.3314,-382.5499 1377.853,-396.2834"/>
<polygon fill="#191970" stroke="#191970" points="488.3655,-455.1219 481.5949,-463.2711 491.9697,-461.1227 488.3655,-455.1219"/>
</g>
<!-- Node298024&#45;&gt;Node298009 -->
<g id="edge35" class="edge">
<title>Node298024&#45;&gt;Node298009</title>
<path fill="none" stroke="#191970" d="M491.5364,-457.56C503.4113,-449.5995 517.3048,-439.1556 528,-427.7946 548.2812,-406.2509 539.2734,-388.0443 564,-371.7946 767.2722,-238.2092 860.7622,-282.7946 1104,-282.7946 1104,-282.7946 1104,-282.7946 1270,-282.7946 1348.5069,-282.7946 1440.0473,-282.7946 1492.6911,-282.7946"/>
<polygon fill="#191970" stroke="#191970" points="489.4214,-454.7599 482.9354,-463.1374 493.2301,-460.6331 489.4214,-454.7599"/>
</g>
<!-- Node298024&#45;&gt;Node298016 -->
<g id="edge28" class="edge">
<title>Node298024&#45;&gt;Node298016</title>
<path fill="none" stroke="#191970" d="M532.2131,-475.9394C578.157,-480.708 639.3863,-492.4031 686,-520.7946 817.9603,-601.1689 914.475,-771.5673 941.7101,-823.4708"/>
<polygon fill="#191970" stroke="#191970" points="532.3511,-472.4368 522.0641,-474.9721 531.6868,-479.4052 532.3511,-472.4368"/>
</g>
<!-- Node298024&#45;&gt;Node298004 -->
<g id="edge34" class="edge">
<title>Node298024&#45;&gt;Node298004</title>
<path fill="none" stroke="#191970" d="M511.7105,-460.9691C528.0626,-457.2478 546.7471,-453.6315 564,-451.7946 761.0754,-430.8117 817.696,-444.1175 1007,-502.7946 1033.4316,-510.9874 1062.9169,-522.9606 1082.3646,-531.269"/>
<polygon fill="#191970" stroke="#191970" points="510.7972,-457.5883 501.864,-463.2847 512.3997,-464.4024 510.7972,-457.5883"/>
</g>
<!-- Node298024&#45;&gt;Node298007 -->
<g id="edge36" class="edge">
<title>Node298024&#45;&gt;Node298007</title>
<path fill="none" stroke="#191970" d="M532.3915,-479.6844C577.633,-486.454 637.9517,-499.6088 686,-524.7946 856.0258,-613.918 901.3267,-653.5295 1007,-813.7946 1070.2968,-909.7911 1096.4392,-1051.2734 1102.54,-1089.1669"/>
<polygon fill="#191970" stroke="#191970" points="532.7919,-476.2061 522.3972,-478.2556 531.8012,-483.1357 532.7919,-476.2061"/>
</g>
<!-- Node298024&#45;&gt;Node298025 -->
<g id="edge27" class="edge">
<title>Node298024&#45;&gt;Node298025</title>
<path fill="none" stroke="#191970" d="M493.9926,-487.6617C505.4701,-494.8 518.3485,-504.1281 528,-514.7946 550.4185,-539.5707 538.9492,-558.6835 564,-580.7946 571.0818,-587.0453 579.9836,-591.7656 588.781,-595.2909"/>
<polygon fill="#191970" stroke="#191970" points="495.5613,-484.5226 485.1766,-482.4227 491.9852,-490.5402 495.5613,-484.5226"/>
</g>
<!-- Node298024&#45;&gt;Node298024 -->
<g id="edge32" class="edge">
<title>Node298024&#45;&gt;Node298024</title>
<path fill="none" stroke="#191970" d="M437.7542,-491.4485C438.9558,-496.7314 448.5377,-500.7946 466.5,-500.7946 493.8711,-500.7946 501.7831,-491.3599 490.2359,-482.5516"/>
<polygon fill="#191970" stroke="#191970" points="440.9072,-492.9825 442.7641,-482.5516 434.8077,-489.5478 440.9072,-492.9825"/>
</g>
<!-- Node298024&#45;&gt;Node298011 -->
<g id="edge24" class="edge">
<title>Node298024&#45;&gt;Node298011</title>
<path fill="none" stroke="#191970" d="M481.706,-490.5614C494.815,-506.327 513.8146,-530.2852 528,-552.7946 546.8632,-582.7267 536.9795,-600.955 564,-623.7946 568.5745,-627.6612 573.9333,-630.7421 579.542,-633.1965"/>
<polygon fill="#191970" stroke="#191970" points="484.2136,-488.1053 475.0973,-482.7068 478.8573,-492.612 484.2136,-488.1053"/>
</g>
<!-- Node298024&#45;&gt;Node298023 -->
<g id="edge30" class="edge">
<title>Node298024&#45;&gt;Node298023</title>
<path fill="none" stroke="#191970" d="M508.1254,-486.9803C525.3629,-495.5453 545.5921,-506.2859 564,-515.7946 617.8609,-543.6166 651.4699,-526.9676 686,-576.7946 773.0568,-702.4175 650.6944,-783.6076 722,-918.7946 735.5373,-944.4597 765.8866,-963.4262 780.6357,-975.1793"/>
<polygon fill="#191970" stroke="#191970" points="509.4089,-483.712 498.8874,-482.4674 506.3363,-490.0016 509.4089,-483.712"/>
</g>
<!-- Node298024&#45;&gt;Node298026 -->
<g id="edge33" class="edge">
<title>Node298024&#45;&gt;Node298026</title>
<path fill="none" stroke="#191970" d="M515.9807,-458.6537C520.4541,-455.9218 524.5785,-452.6682 528,-448.7946 571.1025,-399.9972 520.9652,-355.6517 564,-306.7946 569.5665,-300.475 577.0118,-295.8036 584.7847,-292.3555"/>
<polygon fill="#191970" stroke="#191970" points="514.3067,-455.5791 507.0408,-463.2899 517.5294,-461.7931 514.3067,-455.5791"/>
</g>
<!-- Node298011&#45;&gt;Node298000 -->
<g id="edge25" class="edge">
<title>Node298011&#45;&gt;Node298000</title>
<path fill="none" stroke="#191970" d="M677.3242,-628.999C680.3602,-627.4407 683.2802,-625.7119 686,-623.7946 736.1016,-588.4755 772.2657,-521.2876 784.4811,-496.3896"/>
<polygon fill="#191970" stroke="#191970" points="675.6591,-625.9093 667.9526,-633.1798 678.511,-632.302 675.6591,-625.9093"/>
</g>
<!-- Node298023&#45;&gt;Node298024 -->
<g id="edge31" class="edge">
<title>Node298023&#45;&gt;Node298024</title>
<path fill="none" stroke="#191970" d="M750.8031,-969.2379C739.7006,-960.7447 728.7564,-949.6039 722,-936.7946 650.6944,-801.6076 773.0568,-720.4175 686,-594.7946 651.4699,-544.9676 617.8609,-561.6166 564,-533.7946 530.7635,-516.6261 491.5897,-495.4415 474.8081,-482.3429"/>
<polygon fill="#191970" stroke="#191970" points="749.068,-972.2971 759.2573,-975.2005 753.1025,-966.5767 749.068,-972.2971"/>
</g>
<!-- Node298022&#45;&gt;Node298023 -->
<g id="edge41" class="edge">
<title>Node298022&#45;&gt;Node298023</title>
<path fill="none" stroke="#191970" d="M677.6926,-1283.3955C680.6928,-1281.465 683.4996,-1279.2762 686,-1276.7946 770.703,-1192.7294 785.9567,-1034.8766 788.5144,-994.4298"/>
<polygon fill="#191970" stroke="#191970" points="675.9596,-1280.3534 668.8193,-1288.1807 679.2823,-1286.5146 675.9596,-1280.3534"/>
</g>
<!-- Node298032&#45;&gt;Node298016 -->
<g id="edge46" class="edge">
<title>Node298032&#45;&gt;Node298016</title>
<path fill="none" stroke="#191970" d="M827.4991,-895.8465C836.9029,-892.4532 846.8802,-888.6567 856,-884.7946 878.1559,-875.4118 902.5273,-863.3624 920.8319,-853.9496"/>
<polygon fill="#191970" stroke="#191970" points="826.2246,-892.5848 817.967,-899.2226 828.5617,-899.1832 826.2246,-892.5848"/>
</g>
<!-- Node298033&#45;&gt;Node298007 -->
<g id="edge48" class="edge">
<title>Node298033&#45;&gt;Node298007</title>
<path fill="none" stroke="#191970" d="M496.7402,-1406.912C539.2319,-1387.3042 618.9234,-1350.1612 686,-1316.7946 842.4528,-1238.9686 1028.6787,-1139.3284 1086.1995,-1108.3897"/>
<polygon fill="#191970" stroke="#191970" points="495.1286,-1403.8009 487.5112,-1411.1648 498.0582,-1410.1584 495.1286,-1403.8009"/>
</g>
<!-- Node298033&#45;&gt;Node298012 -->
<g id="edge49" class="edge">
<title>Node298033&#45;&gt;Node298012</title>
<path fill="none" stroke="#191970" d="M478.3037,-1402.2486C501.6261,-1365.8127 552.3658,-1287.645 564,-1278.7946 570.329,-1273.9799 577.8395,-1270.2206 585.3893,-1267.3015"/>
<polygon fill="#191970" stroke="#191970" points="475.1875,-1400.6256 472.7556,-1410.9375 481.0873,-1404.3928 475.1875,-1400.6256"/>
</g>
<!-- Node298034&#45;&gt;Node297999 -->
<g id="edge66" class="edge">
<title>Node298034&#45;&gt;Node297999</title>
<path fill="none" stroke="#191970" d="M313.4829,-736.9591C318.24,-685.3254 337.0463,-544.4708 405,-453.7946 444.2536,-401.4152 488.1936,-424.7551 528,-372.7946 559.0264,-332.2949 527.6185,-299.5612 564,-263.7946 567.9549,-259.9065 572.6919,-256.8124 577.7546,-254.3505"/>
<polygon fill="#191970" stroke="#191970" points="309.9819,-736.8242 312.6294,-747.0829 316.9571,-737.4123 309.9819,-736.8242"/>
</g>
<!-- Node298034&#45;&gt;Node298000 -->
<g id="edge61" class="edge">
<title>Node298034&#45;&gt;Node298000</title>
<path fill="none" stroke="#191970" d="M366.0478,-745.4776C463.3505,-724.7529 660.3185,-681.0671 686,-661.7946 745.7776,-616.9348 777.185,-526.3606 786.2154,-496.5509"/>
<polygon fill="#191970" stroke="#191970" points="365.1586,-742.0884 356.1039,-747.5896 366.6129,-748.9356 365.1586,-742.0884"/>
</g>
<!-- Node298034&#45;&gt;Node298001 -->
<g id="edge53" class="edge">
<title>Node298034&#45;&gt;Node298001</title>
<path fill="none" stroke="#191970" d="M326.1706,-774.2301C342.9759,-793.7685 372.7957,-825.0276 405,-842.7946 620.7228,-961.8079 703.1253,-946.7946 949.5,-946.7946 949.5,-946.7946 949.5,-946.7946 1104,-946.7946 1359.3375,-946.7946 1408.9259,-488.9699 1415.2304,-415.6465"/>
<polygon fill="#191970" stroke="#191970" points="328.7115,-771.8134 319.5994,-766.4078 323.3517,-776.3159 328.7115,-771.8134"/>
</g>
<!-- Node298034&#45;&gt;Node298009 -->
<g id="edge56" class="edge">
<title>Node298034&#45;&gt;Node298009</title>
<path fill="none" stroke="#191970" d="M313.6455,-776.4438C318.5945,-822.8843 337.4748,-940.2779 405,-1003.7946 472.09,-1066.9019 794.7311,-1136.7946 949.5,-1136.7946 949.5,-1136.7946 949.5,-1136.7946 1270,-1136.7946 1422.2428,-1136.7946 1415.4249,-996.2507 1457,-849.7946 1519.4252,-629.8901 1533.4481,-347.4498 1535.6526,-292.3474"/>
<polygon fill="#191970" stroke="#191970" points="317.1279,-776.0921 312.686,-766.4734 310.1601,-776.7627 317.1279,-776.0921"/>
</g>
<!-- Node298034&#45;&gt;Node298016 -->
<g id="edge55" class="edge">
<title>Node298034&#45;&gt;Node298016</title>
<path fill="none" stroke="#191970" d="M331.7133,-772.607C349.6755,-786.0648 377.5205,-804.6284 405,-813.7946 574.6625,-870.3877 790.5924,-857.044 891.997,-846.183"/>
<polygon fill="#191970" stroke="#191970" points="333.7958,-769.7933 323.7343,-766.4742 329.5299,-775.3433 333.7958,-769.7933"/>
</g>
<!-- Node298034&#45;&gt;Node298004 -->
<g id="edge57" class="edge">
<title>Node298034&#45;&gt;Node298004</title>
<path fill="none" stroke="#191970" d="M366.3236,-754.695C410.2181,-752.3572 473.4502,-747.5366 528,-737.7946 753.7686,-697.4746 1010.657,-583.9609 1083.688,-550.3105"/>
<polygon fill="#191970" stroke="#191970" points="365.9639,-751.2087 356.154,-755.2107 366.3185,-758.1997 365.9639,-751.2087"/>
</g>
<!-- Node298034&#45;&gt;Node298007 -->
<g id="edge58" class="edge">
<title>Node298034&#45;&gt;Node298007</title>
<path fill="none" stroke="#191970" d="M315.0214,-776.4269C322.4273,-817.6017 345.4283,-913.263 405,-962.7946 502.3202,-1043.7126 891.1077,-1082.1909 1042.8741,-1094.3542"/>
<polygon fill="#191970" stroke="#191970" points="318.4358,-775.6246 313.3286,-766.3419 311.5323,-776.7834 318.4358,-775.6246"/>
</g>
<!-- Node298034&#45;&gt;Node298025 -->
<g id="edge51" class="edge">
<title>Node298034&#45;&gt;Node298025</title>
<path fill="none" stroke="#191970" d="M324.8172,-738.946C341.0696,-717.6299 371.0908,-682.4019 405,-662.7946 434.0653,-645.9881 521.5437,-625.926 577.038,-614.3434"/>
<polygon fill="#191970" stroke="#191970" points="321.8804,-737.0299 318.7236,-747.1436 327.4983,-741.206 321.8804,-737.0299"/>
</g>
<!-- Node298034&#45;&gt;Node298011 -->
<g id="edge60" class="edge">
<title>Node298034&#45;&gt;Node298011</title>
<path fill="none" stroke="#191970" d="M335.1486,-741.8279C353.5133,-730.4598 380.1412,-715.0787 405,-704.7946 463.3024,-680.6747 534.0489,-662.5993 579.2911,-652.3644"/>
<polygon fill="#191970" stroke="#191970" points="333.2011,-738.918 326.5965,-747.2023 336.9257,-744.8448 333.2011,-738.918"/>
</g>
<!-- Node298034&#45;&gt;Node298023 -->
<g id="edge54" class="edge">
<title>Node298034&#45;&gt;Node298023</title>
<path fill="none" stroke="#191970" d="M316.9063,-776.3517C326.9107,-811.8612 353.2287,-886.6029 405,-922.7946 505.8698,-993.3095 657.7379,-994.8463 736.8684,-989.8794"/>
<polygon fill="#191970" stroke="#191970" points="320.2832,-775.4311 314.3151,-766.6771 313.5215,-777.2422 320.2832,-775.4311"/>
</g>
<!-- Node298034&#45;&gt;Node298005 -->
<g id="edge52" class="edge">
<title>Node298034&#45;&gt;Node298005</title>
<path fill="none" stroke="#191970" d="M324.5669,-738.9464C348.7188,-704.7229 399.7101,-632.877 405,-628.7946 412.894,-622.7026 422.5254,-617.9794 431.8016,-614.3982"/>
<polygon fill="#191970" stroke="#191970" points="321.6885,-736.955 318.7869,-747.1448 327.4096,-740.9885 321.6885,-736.955"/>
</g>
<!-- Node298034&#45;&gt;Node298035 -->
<g id="edge59" class="edge">
<title>Node298034&#45;&gt;Node298035</title>
<path fill="none" stroke="#191970" d="M317.3096,-737.3521C331.4201,-685.7404 371.0913,-541.0053 405,-420.7946 427.2486,-341.9205 454.8241,-246.9224 463.6459,-216.5967"/>
<polygon fill="#191970" stroke="#191970" points="313.8886,-736.5937 314.6288,-747.1626 320.6411,-738.4389 313.8886,-736.5937"/>
</g>
<!-- Node298034&#45;&gt;Node298028 -->
<g id="edge62" class="edge">
<title>Node298034&#45;&gt;Node298028</title>
<path fill="none" stroke="#191970" d="M360.9521,-768.8346C382.5365,-774.1434 407.541,-780.2933 427.7935,-785.2745"/>
<polygon fill="#191970" stroke="#191970" points="361.5334,-765.3733 350.9869,-766.3836 359.8615,-772.1707 361.5334,-765.3733"/>
</g>
<!-- Node298028&#45;&gt;Node298001 -->
<g id="edge64" class="edge">
<title>Node298028&#45;&gt;Node298001</title>
<path fill="none" stroke="#191970" d="M538.2164,-794.7946C603.571,-794.7946 702.77,-794.7946 789,-794.7946 789,-794.7946 789,-794.7946 1104,-794.7946 1304.8505,-794.7946 1397.9016,-475.3131 1413.5835,-415.4104"/>
<polygon fill="#191970" stroke="#191970" points="538.0252,-791.2947 528.0251,-794.7946 538.0251,-798.2947 538.0252,-791.2947"/>
</g>
<!-- Node298028&#45;&gt;Node298016 -->
<g id="edge65" class="edge">
<title>Node298028&#45;&gt;Node298016</title>
<path fill="none" stroke="#191970" d="M538.191,-805.6292C546.8757,-806.7818 555.6316,-807.8691 564,-808.7946 680.0975,-821.6335 816.4663,-830.8788 891.916,-835.4842"/>
<polygon fill="#191970" stroke="#191970" points="538.4363,-802.1304 528.056,-804.2518 537.4936,-809.0666 538.4363,-802.1304"/>
</g>
<!-- Node298028&#45;&gt;Node298011 -->
<g id="edge63" class="edge">
<title>Node298028&#45;&gt;Node298011</title>
<path fill="none" stroke="#191970" d="M484.0111,-778.0016C517.3275,-746.0515 588.8525,-677.4597 615.0889,-652.2993"/>
<polygon fill="#191970" stroke="#191970" points="481.2099,-775.8386 476.4149,-785.2863 486.055,-780.8909 481.2099,-775.8386"/>
</g>
<!-- Node298040&#45;&gt;Node298001 -->
<g id="edge68" class="edge">
<title>Node298040&#45;&gt;Node298001</title>
<path fill="none" stroke="#191970" d="M379.3041,-181.3435C442.6409,-175.8342 540.1683,-168.7946 625,-168.7946 625,-168.7946 625,-168.7946 1104,-168.7946 1257.0497,-168.7946 1382.0793,-351.8714 1410.1156,-396.2104"/>
<polygon fill="#191970" stroke="#191970" points="378.7059,-177.8826 369.0522,-182.2479 379.3211,-184.8555 378.7059,-177.8826"/>
</g>
<!-- Node298040&#45;&gt;Node298009 -->
<g id="edge69" class="edge">
<title>Node298040&#45;&gt;Node298009</title>
<path fill="none" stroke="#191970" d="M361.9648,-176.0415C375.8447,-173.052 390.9605,-170.051 405,-167.7946 713.4909,-118.2139 791.5502,-92.7946 1104,-92.7946 1104,-92.7946 1104,-92.7946 1270,-92.7946 1395.4207,-92.7946 1502.5324,-234.3929 1529.4764,-273.1112"/>
<polygon fill="#191970" stroke="#191970" points="361.1262,-172.6422 352.1095,-178.2055 362.6275,-179.4793 361.1262,-172.6422"/>
</g>
<!-- Node298040&#45;&gt;Node298035 -->
<g id="edge70" class="edge">
<title>Node298040&#45;&gt;Node298035</title>
<path fill="none" stroke="#191970" d="M379.284,-196.069C394.163,-197.8988 409.5435,-199.7902 423.1677,-201.4657"/>
<polygon fill="#191970" stroke="#191970" points="379.4436,-192.5623 369.0911,-194.8155 378.5891,-199.51 379.4436,-192.5623"/>
</g>
<!-- Node298020&#45;&gt;Node298022 -->
<g id="edge78" class="edge">
<title>Node298020&#45;&gt;Node298022</title>
<path fill="none" stroke="#191970" d="M376.967,-1331.1411C420.03,-1332.8834 477.6572,-1333.0341 528,-1325.7946 552.6361,-1322.2518 579.7863,-1314.0243 599.0816,-1307.3992"/>
<polygon fill="#191970" stroke="#191970" points="377.0475,-1327.6413 366.9021,-1330.6943 376.7371,-1334.6344 377.0475,-1327.6413"/>
</g>
<!-- Node298020&#45;&gt;Node298020 -->
<g id="edge74" class="edge">
<title>Node298020&#45;&gt;Node298020</title>
<path fill="none" stroke="#191970" d="M288.9346,-1345.8238C290.1928,-1350.9226 297.8812,-1354.7946 312,-1354.7946 334.0391,-1354.7946 340.4097,-1345.3599 331.112,-1336.5516"/>
<polygon fill="#191970" stroke="#191970" points="292.1854,-1347.1232 292.888,-1336.5516 285.7463,-1344.3777 292.1854,-1347.1232"/>
</g>
<!-- Node298020&#45;&gt;Node298021 -->
<g id="edge75" class="edge">
<title>Node298020&#45;&gt;Node298021</title>
<path fill="none" stroke="#191970" d="M360.9521,-1314.7546C382.5365,-1309.4458 407.541,-1303.2958 427.7935,-1298.3146"/>
<polygon fill="#191970" stroke="#191970" points="359.8615,-1311.4184 350.9869,-1317.2056 361.5334,-1318.2158 359.8615,-1311.4184"/>
</g>
<!-- Node298021&#45;&gt;Node298022 -->
<g id="edge77" class="edge">
<title>Node298021&#45;&gt;Node298022</title>
<path fill="none" stroke="#191970" d="M537.5329,-1292.828C546.3021,-1293.3259 555.207,-1293.8316 563.8119,-1294.3202"/>
<polygon fill="#191970" stroke="#191970" points="537.5093,-1289.3211 527.3269,-1292.2485 537.1124,-1296.3099 537.5093,-1289.3211"/>
</g>
<!-- Node298021&#45;&gt;Node298021 -->
<g id="edge76" class="edge">
<title>Node298021&#45;&gt;Node298021</title>
<path fill="none" stroke="#191970" d="M437.7542,-1307.4485C438.9558,-1312.7314 448.5377,-1316.7946 466.5,-1316.7946 493.8711,-1316.7946 501.7831,-1307.3599 490.2359,-1298.5516"/>
<polygon fill="#191970" stroke="#191970" points="440.9072,-1308.9825 442.7641,-1298.5516 434.8077,-1305.5478 440.9072,-1308.9825"/>
</g>
<!-- Node298041&#45;&gt;Node298009 -->
<g id="edge81" class="edge">
<title>Node298041&#45;&gt;Node298009</title>
<path fill="none" stroke="#191970" d="M378.5108,-54.7946C441.873,-54.7946 539.9381,-54.7946 625,-54.7946 625,-54.7946 625,-54.7946 1270,-54.7946 1292.3584,-54.7946 1435.3784,-101.464 1457,-120.7946 1505.9876,-164.5914 1527.765,-245.5459 1534.0096,-273.2248"/>
<polygon fill="#191970" stroke="#191970" points="378.2596,-51.2947 368.2596,-54.7946 378.2595,-58.2947 378.2596,-51.2947"/>
</g>
<!-- Node298041&#45;&gt;Node298035 -->
<g id="edge82" class="edge">
<title>Node298041&#45;&gt;Node298035</title>
<path fill="none" stroke="#191970" d="M329.0692,-71.5876C361.5448,-103.5377 431.2648,-172.1295 456.839,-197.2899"/>
<polygon fill="#191970" stroke="#191970" points="331.2478,-68.8211 321.6647,-64.3029 326.3386,-73.811 331.2478,-68.8211"/>
</g>
<!-- Node298042&#45;&gt;Node298007 -->
<g id="edge94" class="edge">
<title>Node298042&#45;&gt;Node298007</title>
<path fill="none" stroke="#191970" d="M376.8524,-1459.2658C420.3362,-1458.0891 478.4852,-1453.606 528,-1439.7946 758.3278,-1375.5482 815.7666,-1338.3504 1007,-1194.7946 1043.5705,-1167.3417 1080.1319,-1126.7187 1095.9121,-1108.3871"/>
<polygon fill="#191970" stroke="#191970" points="376.61,-1455.7702 366.689,-1459.4882 376.7632,-1462.7685 376.61,-1455.7702"/>
</g>
<!-- Node298042&#45;&gt;Node298008 -->
<g id="edge91" class="edge">
<title>Node298042&#45;&gt;Node298008</title>
<path fill="none" stroke="#191970" d="M370.3924,-1470.1615C433.0695,-1481.3575 535.6838,-1496.7946 625,-1496.7946 625,-1496.7946 625,-1496.7946 949.5,-1496.7946 1045.8699,-1496.7946 1091.5413,-1535.1723 1165,-1472.7946 1223.9899,-1422.703 1261.5996,-1161.8462 1268.7539,-1108.3774"/>
<polygon fill="#191970" stroke="#191970" points="370.7689,-1466.6729 360.3051,-1468.3345 369.5212,-1473.5608 370.7689,-1466.6729"/>
</g>
<!-- Node298042&#45;&gt;Node298031 -->
<g id="edge92" class="edge">
<title>Node298042&#45;&gt;Node298031</title>
<path fill="none" stroke="#191970" d="M324.1619,-1440.6993C336.4352,-1421.9686 355.4591,-1391.6072 369,-1363.7946 388.5831,-1323.5716 384.7339,-1309.6778 405,-1269.7946 421.7328,-1236.8649 447.0566,-1201.0665 459.3293,-1184.3721"/>
<polygon fill="#191970" stroke="#191970" points="321.1828,-1438.8588 318.5782,-1449.1286 327.0186,-1442.7246 321.1828,-1438.8588"/>
</g>
<!-- Node298042&#45;&gt;Node298033 -->
<g id="edge93" class="edge">
<title>Node298042&#45;&gt;Node298033</title>
<path fill="none" stroke="#191970" d="M360.9521,-1446.7546C382.5365,-1441.4458 407.541,-1435.2958 427.7935,-1430.3146"/>
<polygon fill="#191970" stroke="#191970" points="359.8615,-1443.4184 350.9869,-1449.2056 361.5334,-1450.2158 359.8615,-1443.4184"/>
</g>
</g>
</svg>
