<?xml version="1.0" encoding="UTF-8" standalone="no"?>
<!DOCTYPE svg PUBLIC "-//W3C//DTD SVG 1.1//EN"
 "http://www.w3.org/Graphics/SVG/1.1/DTD/svg11.dtd">
<!-- Generated by graphviz version 2.40.1 (20161225.0304)
 -->
<!-- Title: js_proxy_get_own_property Pages: 1 -->
<!--zoomable 846 -->
<svg id="main" version="1.1" xmlns="http://www.w3.org/2000/svg" xmlns:xlink="http://www.w3.org/1999/xlink" xml:space="preserve" onload="init(evt)">
<style type="text/css"><![CDATA[
.edge:hover path { stroke: red; }
.edge:hover polygon { stroke: red; fill: red; }
]]></style>
<script type="text/javascript"><![CDATA[
var edges = document.getElementsByTagName('g');
if (edges && edges.length) {
  for (var i=0;i<edges.length;i++) {
    if (edges[i].id.substr(0,4)=='edge') {
      edges[i].setAttribute('class','edge');
    }
  }
}
]]></script>
        <defs>
                <circle id="rim" cx="0" cy="0" r="7"/>
                <circle id="rim2" cx="0" cy="0" r="3.5"/>
                <g id="zoomPlus">
                        <use xlink:href="#rim" fill="#404040">
                                <set attributeName="fill" to="#808080" begin="zoomplus.mouseover" end="zoomplus.mouseout"/>
                        </use>
                        <path d="M-4,0h8M0,-4v8" fill="none" stroke="white" stroke-width="1.5" pointer-events="none"/>
                </g>
                <g id="zoomMin">
                        <use xlink:href="#rim" fill="#404040">
                                <set attributeName="fill" to="#808080" begin="zoomminus.mouseover" end="zoomminus.mouseout"/>
                        </use>
                        <path d="M-4,0h8" fill="none" stroke="white" stroke-width="1.5" pointer-events="none"/>
                </g>
                <g id="dirArrow">
                        <path fill="none" stroke="white" stroke-width="1.5" d="M0,-3.0v7 M-2.5,-0.5L0,-3.0L2.5,-0.5"/>
                </g>
               <g id="resetDef">
                       <use xlink:href="#rim2" fill="#404040">
                               <set attributeName="fill" to="#808080" begin="reset.mouseover" end="reset.mouseout"/>
                       </use>
               </g>
        </defs>

<script type="text/javascript">
var viewWidth = 1025;
var viewHeight = 846;
var sectionId = 'dynsection-1586';
</script>
<script xlink:href="svgpan.js"/>
<svg id="graph" class="graph">
<g id="viewport">
<title>js_proxy_get_own_property</title>
<!-- Node422352 -->
<g id="node1" class="node">
<title>Node422352</title>
<polygon fill="#bfbfbf" stroke="#000000" points="0,-378.7668 0,-397.7668 136,-397.7668 136,-378.7668 0,-378.7668"/>
<text text-anchor="middle" x="68" y="-385.7668" font-family="Helvetica,sans-Serif" font-size="10.00" fill="#000000">js_proxy_get_own_property</text>
</g>
<!-- Node422353 -->
<g id="node2" class="node">
<title>Node422353</title>
<g id="a_node2"><a xlink:href="quickjs_8c.html#a68c7ae36cec3bf8bbf6cc0868a71cc4b" target="_top" xlink:title="check_define_prop_flags">
<polygon fill="none" stroke="#000000" points="172,-730.7668 172,-749.7668 297,-749.7668 297,-730.7668 172,-730.7668"/>
<text text-anchor="middle" x="234.5" y="-737.7668" font-family="Helvetica,sans-Serif" font-size="10.00" fill="#000000">check_define_prop_flags</text>
</a>
</g>
</g>
<!-- Node422352&#45;&gt;Node422353 -->
<g id="edge1" class="edge">
<title>Node422352&#45;&gt;Node422353</title>
<path fill="none" stroke="#191970" d="M69.9115,-398.0406C79.694,-447.1891 125.5056,-666.9158 172,-716.2668 175.6427,-720.1333 179.9768,-723.3842 184.6392,-726.116"/>
<polygon fill="#191970" stroke="#191970" points="183.4054,-729.4122 193.9148,-730.7551 186.5366,-723.1516 183.4054,-729.4122"/>
</g>
<!-- Node422354 -->
<g id="node3" class="node">
<title>Node422354</title>
<g id="a_node3"><a xlink:href="quickjs_8c.html#a9e94551ddba8762d74eda5127445dbbd" target="_top" xlink:title="get_proxy_method">
<polygon fill="none" stroke="#000000" points="333,-711.7668 333,-730.7668 430,-730.7668 430,-711.7668 333,-711.7668"/>
<text text-anchor="middle" x="381.5" y="-718.7668" font-family="Helvetica,sans-Serif" font-size="10.00" fill="#000000">get_proxy_method</text>
</a>
</g>
</g>
<!-- Node422352&#45;&gt;Node422354 -->
<g id="edge2" class="edge">
<title>Node422352&#45;&gt;Node422354</title>
<path fill="none" stroke="#191970" d="M68.258,-397.8594C69.908,-438.7918 82.0948,-600.2923 172,-678.2668 194.1352,-697.4646 268.6063,-709.3349 322.468,-715.6158"/>
<polygon fill="#191970" stroke="#191970" points="322.276,-719.1162 332.6057,-716.761 323.0618,-712.1605 322.276,-719.1162"/>
</g>
<!-- Node422357 -->
<g id="node6" class="node">
<title>Node422357</title>
<g id="a_node6"><a xlink:href="quickjs_8h.html#ad80a83d73e9b7d872b88fbf2943aebe9" target="_top" xlink:title="JS_IsException">
<polygon fill="none" stroke="#000000" points="503,-654.7668 503,-673.7668 589,-673.7668 589,-654.7668 503,-654.7668"/>
<text text-anchor="middle" x="546" y="-661.7668" font-family="Helvetica,sans-Serif" font-size="10.00" fill="#000000">JS_IsException</text>
</a>
</g>
</g>
<!-- Node422352&#45;&gt;Node422357 -->
<g id="edge45" class="edge">
<title>Node422352&#45;&gt;Node422357</title>
<path fill="none" stroke="#191970" d="M68.8047,-397.9815C72.4671,-435.324 91.0797,-570.47 172,-629.2668 267.3018,-698.5132 414.3256,-687.4625 492.6276,-674.9556"/>
<polygon fill="#191970" stroke="#191970" points="493.4592,-678.3654 502.7479,-673.2694 492.3086,-671.4606 493.4592,-678.3654"/>
</g>
<!-- Node422362 -->
<g id="node10" class="node">
<title>Node422362</title>
<g id="a_node10"><a xlink:href="quickjs_8c.html#afa67965c1017685fc6783776d6d0d4d7" target="_top" xlink:title="JS_AtomToValue">
<polygon fill="none" stroke="#000000" points="499.5,-616.7668 499.5,-635.7668 592.5,-635.7668 592.5,-616.7668 499.5,-616.7668"/>
<text text-anchor="middle" x="546" y="-623.7668" font-family="Helvetica,sans-Serif" font-size="10.00" fill="#000000">JS_AtomToValue</text>
</a>
</g>
</g>
<!-- Node422352&#45;&gt;Node422362 -->
<g id="edge9" class="edge">
<title>Node422352&#45;&gt;Node422362</title>
<path fill="none" stroke="#191970" d="M69.324,-398.1746C74.5986,-433.2797 97.5789,-552.3024 172,-602.2668 222.3239,-636.053 397.5058,-633.3723 489.1431,-629.4099"/>
<polygon fill="#191970" stroke="#191970" points="489.5222,-632.8964 499.3538,-628.948 489.2059,-625.9035 489.5222,-632.8964"/>
</g>
<!-- Node422390 -->
<g id="node15" class="node">
<title>Node422390</title>
<g id="a_node15"><a xlink:href="quickjs_8c.html#a75f6ee5e4235a7dc99889f3d2eb2c147" target="_top" xlink:title="JS_CallFree">
<polygon fill="none" stroke="#000000" points="199,-388.7668 199,-407.7668 270,-407.7668 270,-388.7668 199,-388.7668"/>
<text text-anchor="middle" x="234.5" y="-395.7668" font-family="Helvetica,sans-Serif" font-size="10.00" fill="#000000">JS_CallFree</text>
</a>
</g>
</g>
<!-- Node422352&#45;&gt;Node422390 -->
<g id="edge14" class="edge">
<title>Node422352&#45;&gt;Node422390</title>
<path fill="none" stroke="#191970" d="M136.2023,-392.363C153.8831,-393.425 172.5006,-394.5431 188.7202,-395.5173"/>
<polygon fill="#191970" stroke="#191970" points="188.8067,-399.0287 198.9985,-396.1346 189.2264,-392.0413 188.8067,-399.0287"/>
</g>
<!-- Node422437 -->
<g id="node17" class="node">
<title>Node422437</title>
<g id="a_node17"><a xlink:href="quickjs_8h.html#afaa20c47565bc704c6c85f3d77254e7d" target="_top" xlink:title="JS_FreeValue">
<polygon fill="none" stroke="#ff0000" points="692.5,-160.7668 692.5,-179.7668 770.5,-179.7668 770.5,-160.7668 692.5,-160.7668"/>
<text text-anchor="middle" x="731.5" y="-167.7668" font-family="Helvetica,sans-Serif" font-size="10.00" fill="#000000">JS_FreeValue</text>
</a>
</g>
</g>
<!-- Node422352&#45;&gt;Node422437 -->
<g id="edge43" class="edge">
<title>Node422352&#45;&gt;Node422437</title>
<path fill="none" stroke="#191970" d="M69.3283,-378.4899C76.6434,-326.2406 113.817,-80.7107 172,-37.2668 230.4492,6.3758 448.2764,25.2954 626,-58.2668 669.4902,-78.7151 703.9574,-125.7364 720.6051,-151.8831"/>
<polygon fill="#191970" stroke="#191970" points="717.684,-153.814 725.916,-160.4837 723.64,-150.1362 717.684,-153.814"/>
</g>
<!-- Node422663 -->
<g id="node20" class="node">
<title>Node422663</title>
<g id="a_node20"><a xlink:href="quickjs_8c.html#ad13892c0a0f11781b566808876658099" target="_top" xlink:title="JS_GetOwnPropertyInternal">
<polygon fill="none" stroke="#ff0000" points="662,-540.7668 662,-559.7668 801,-559.7668 801,-540.7668 662,-540.7668"/>
<text text-anchor="middle" x="731.5" y="-547.7668" font-family="Helvetica,sans-Serif" font-size="10.00" fill="#000000">JS_GetOwnPropertyInternal</text>
</a>
</g>
</g>
<!-- Node422352&#45;&gt;Node422663 -->
<g id="edge44" class="edge">
<title>Node422352&#45;&gt;Node422663</title>
<path fill="none" stroke="#191970" d="M95.2284,-397.8832C142.9853,-414.5508 245.1309,-449.315 333,-473.2668 391.4632,-489.203 406.594,-491.3155 466,-503.2668 532.7164,-516.6888 609.2815,-530.0239 662.9932,-539.0422"/>
<polygon fill="#191970" stroke="#191970" points="662.6441,-542.5323 673.0846,-540.7309 663.7995,-535.6283 662.6441,-542.5323"/>
</g>
<!-- Node422646 -->
<g id="node23" class="node">
<title>Node422646</title>
<g id="a_node23"><a xlink:href="quickjs_8h.html#a3d68fe446df2d9c7d1900b16371bff5b" target="_top" xlink:title="JS_IsObject">
<polygon fill="none" stroke="#000000" points="510.5,-198.7668 510.5,-217.7668 581.5,-217.7668 581.5,-198.7668 510.5,-198.7668"/>
<text text-anchor="middle" x="546" y="-205.7668" font-family="Helvetica,sans-Serif" font-size="10.00" fill="#000000">JS_IsObject</text>
</a>
</g>
</g>
<!-- Node422352&#45;&gt;Node422646 -->
<g id="edge47" class="edge">
<title>Node422352&#45;&gt;Node422646</title>
<path fill="none" stroke="#191970" d="M79.4744,-378.7658C97.9408,-363.8737 135.8531,-334.917 172,-317.2668 295.2721,-257.0743 332.994,-256.861 466,-223.2668 477.014,-220.4849 488.9997,-217.971 500.2606,-215.8311"/>
<polygon fill="#191970" stroke="#191970" points="501.1486,-219.2265 510.3498,-213.9741 499.8814,-212.3422 501.1486,-219.2265"/>
</g>
<!-- Node422482 -->
<g id="node24" class="node">
<title>Node422482</title>
<g id="a_node24"><a xlink:href="quickjs_8h.html#a4e407128a9605afb77523e49e9a627fd" target="_top" xlink:title="JS_IsUndefined">
<polygon fill="none" stroke="#000000" points="503,-122.7668 503,-141.7668 589,-141.7668 589,-122.7668 503,-122.7668"/>
<text text-anchor="middle" x="546" y="-129.7668" font-family="Helvetica,sans-Serif" font-size="10.00" fill="#000000">JS_IsUndefined</text>
</a>
</g>
</g>
<!-- Node422352&#45;&gt;Node422482 -->
<g id="edge48" class="edge">
<title>Node422352&#45;&gt;Node422482</title>
<path fill="none" stroke="#191970" d="M73.5052,-378.6084C87.2132,-355.3653 125.1672,-295.7636 172,-262.2668 272.4637,-190.4109 416.1478,-155.3806 492.8881,-140.8805"/>
<polygon fill="#191970" stroke="#191970" points="493.6107,-144.3064 502.8098,-139.0502 492.3407,-137.4226 493.6107,-144.3064"/>
</g>
<!-- Node422675 -->
<g id="node27" class="node">
<title>Node422675</title>
<g id="a_node27"><a xlink:href="quickjs_8c.html#adfe21c674d998ca6586b7f7400352dc4" target="_top" xlink:title="js_free_desc">
<polygon fill="none" stroke="#000000" points="345.5,-65.7668 345.5,-84.7668 417.5,-84.7668 417.5,-65.7668 345.5,-65.7668"/>
<text text-anchor="middle" x="381.5" y="-72.7668" font-family="Helvetica,sans-Serif" font-size="10.00" fill="#000000">js_free_desc</text>
</a>
</g>
</g>
<!-- Node422352&#45;&gt;Node422675 -->
<g id="edge41" class="edge">
<title>Node422352&#45;&gt;Node422675</title>
<path fill="none" stroke="#191970" d="M68.5503,-378.5299C71.3312,-339.1054 87.2919,-190.0194 172,-118.2668 196.1543,-97.8067 281.0734,-85.5256 335.0959,-79.6049"/>
<polygon fill="#191970" stroke="#191970" points="335.5571,-83.0757 345.1314,-78.5389 334.8176,-76.1149 335.5571,-83.0757"/>
</g>
<!-- Node422546 -->
<g id="node28" class="node">
<title>Node422546</title>
<g id="a_node28"><a xlink:href="quickjs_8c.html#a17c92ef7fbad6a6029f6aa933d669624" target="_top" xlink:title="JS_IsExtensible">
<polygon fill="none" stroke="#ff0000" points="190.5,-46.7668 190.5,-65.7668 278.5,-65.7668 278.5,-46.7668 190.5,-46.7668"/>
<text text-anchor="middle" x="234.5" y="-53.7668" font-family="Helvetica,sans-Serif" font-size="10.00" fill="#000000">JS_IsExtensible</text>
</a>
</g>
</g>
<!-- Node422352&#45;&gt;Node422546 -->
<g id="edge46" class="edge">
<title>Node422352&#45;&gt;Node422546</title>
<path fill="none" stroke="#191970" d="M68.3943,-378.7588C70.6155,-337.3879 84.8482,-171.0668 172,-80.2668 175.6785,-76.4343 180.0356,-73.2053 184.7117,-70.4865"/>
<polygon fill="#191970" stroke="#191970" points="186.6099,-73.4514 194.0028,-65.8622 183.4908,-67.1846 186.6099,-73.4514"/>
</g>
<!-- Node422782 -->
<g id="node29" class="node">
<title>Node422782</title>
<g id="a_node29"><a xlink:href="quickjs_8c.html#a26ceb6b90296d2572803b252df73cded" target="_top" xlink:title="js_obj_to_desc">
<polygon fill="none" stroke="#000000" points="340.5,-283.7668 340.5,-302.7668 422.5,-302.7668 422.5,-283.7668 340.5,-283.7668"/>
<text text-anchor="middle" x="381.5" y="-290.7668" font-family="Helvetica,sans-Serif" font-size="10.00" fill="#000000">js_obj_to_desc</text>
</a>
</g>
</g>
<!-- Node422352&#45;&gt;Node422782 -->
<g id="edge49" class="edge">
<title>Node422352&#45;&gt;Node422782</title>
<path fill="none" stroke="#191970" d="M99.495,-378.7229C156.5338,-361.4384 276.8929,-324.9659 340.3487,-305.7369"/>
<polygon fill="#191970" stroke="#191970" points="341.4708,-309.0541 350.026,-302.8044 339.4407,-302.3549 341.4708,-309.0541"/>
</g>
<!-- Node422355 -->
<g id="node4" class="node">
<title>Node422355</title>
<g id="a_node4"><a xlink:href="quickjs_8c.html#af23ec7c9970ceb4671c59da7abd4b078" target="_top" xlink:title="js_check_stack_overflow">
<polygon fill="none" stroke="#000000" points="482.5,-692.7668 482.5,-711.7668 609.5,-711.7668 609.5,-692.7668 482.5,-692.7668"/>
<text text-anchor="middle" x="546" y="-699.7668" font-family="Helvetica,sans-Serif" font-size="10.00" fill="#000000">js_check_stack_overflow</text>
</a>
</g>
</g>
<!-- Node422354&#45;&gt;Node422355 -->
<g id="edge3" class="edge">
<title>Node422354&#45;&gt;Node422355</title>
<path fill="none" stroke="#191970" d="M430.41,-715.6176C443.5181,-714.1036 457.9861,-712.4325 472.1209,-710.8"/>
<polygon fill="#191970" stroke="#191970" points="472.7978,-714.2451 482.3301,-709.6208 471.9945,-707.2914 472.7978,-714.2451"/>
</g>
<!-- Node422354&#45;&gt;Node422357 -->
<g id="edge5" class="edge">
<title>Node422354&#45;&gt;Node422357</title>
<path fill="none" stroke="#191970" d="M400.2144,-711.6115C417.0685,-703.2179 442.7007,-691.1926 466,-683.2668 474.6346,-680.3295 483.9422,-677.675 493.0491,-675.3449"/>
<polygon fill="#191970" stroke="#191970" points="493.9351,-678.7314 502.8109,-672.9459 492.2645,-671.9336 493.9351,-678.7314"/>
</g>
<!-- Node422358 -->
<g id="node7" class="node">
<title>Node422358</title>
<g id="a_node7"><a xlink:href="quickjs_8h.html#a149f24b67e745bad93573b3b4c80db4c" target="_top" xlink:title="JS_IsNull">
<polygon fill="none" stroke="#000000" points="516.5,-730.7668 516.5,-749.7668 575.5,-749.7668 575.5,-730.7668 516.5,-730.7668"/>
<text text-anchor="middle" x="546" y="-737.7668" font-family="Helvetica,sans-Serif" font-size="10.00" fill="#000000">JS_IsNull</text>
</a>
</g>
</g>
<!-- Node422354&#45;&gt;Node422358 -->
<g id="edge6" class="edge">
<title>Node422354&#45;&gt;Node422358</title>
<path fill="none" stroke="#191970" d="M430.41,-726.916C454.556,-729.7049 483.3163,-733.0267 506.1084,-735.6593"/>
<polygon fill="#191970" stroke="#191970" points="505.7868,-739.1453 516.1224,-736.8159 506.59,-732.1915 505.7868,-739.1453"/>
</g>
<!-- Node422359 -->
<g id="node8" class="node">
<title>Node422359</title>
<g id="a_node8"><a xlink:href="quickjs_8c.html#a8353f635fb8a20553c08db8cf38c17e0" target="_top" xlink:title="JS_ThrowStackOverflow">
<polygon fill="none" stroke="#ff0000" points="483.5,-768.7668 483.5,-787.7668 608.5,-787.7668 608.5,-768.7668 483.5,-768.7668"/>
<text text-anchor="middle" x="546" y="-775.7668" font-family="Helvetica,sans-Serif" font-size="10.00" fill="#000000">JS_ThrowStackOverflow</text>
</a>
</g>
</g>
<!-- Node422354&#45;&gt;Node422359 -->
<g id="edge7" class="edge">
<title>Node422354&#45;&gt;Node422359</title>
<path fill="none" stroke="#191970" d="M400.2144,-730.9221C417.0685,-739.3157 442.7007,-751.341 466,-759.2668 473.412,-761.7882 481.3198,-764.1012 489.1709,-766.1795"/>
<polygon fill="#191970" stroke="#191970" points="488.49,-769.6176 499.0437,-768.6845 490.2116,-762.8326 488.49,-769.6176"/>
</g>
<!-- Node422361 -->
<g id="node9" class="node">
<title>Node422361</title>
<g id="a_node9"><a xlink:href="quickjs_8c.html#a199d64ccbee0a90d93e1ad12745417f6" target="_top" xlink:title="JS_ThrowTypeErrorRevoked\lProxy">
<polygon fill="none" stroke="#000000" points="474.5,-807.2668 474.5,-837.2668 617.5,-837.2668 617.5,-807.2668 474.5,-807.2668"/>
<text text-anchor="start" x="482.5" y="-825.2668" font-family="Helvetica,sans-Serif" font-size="10.00" fill="#000000">JS_ThrowTypeErrorRevoked</text>
<text text-anchor="middle" x="546" y="-814.2668" font-family="Helvetica,sans-Serif" font-size="10.00" fill="#000000">Proxy</text>
</a>
</g>
</g>
<!-- Node422354&#45;&gt;Node422361 -->
<g id="edge8" class="edge">
<title>Node422354&#45;&gt;Node422361</title>
<path fill="none" stroke="#191970" d="M389.6193,-730.8747C403.6287,-746.8716 433.938,-779.0077 466,-797.2668 469.8744,-799.4732 473.9674,-801.5096 478.1711,-803.3851"/>
<polygon fill="#191970" stroke="#191970" points="476.9299,-806.6591 487.509,-807.2373 479.5995,-800.1881 476.9299,-806.6591"/>
</g>
<!-- Node422356 -->
<g id="node5" class="node">
<title>Node422356</title>
<g id="a_node5"><a xlink:href="quickjs_8c.html#acad70023f36797496683e579a4d60461" target="_top" xlink:title="js_get_stack_pointer">
<polygon fill="none" stroke="#000000" points="678,-692.7668 678,-711.7668 785,-711.7668 785,-692.7668 678,-692.7668"/>
<text text-anchor="middle" x="731.5" y="-699.7668" font-family="Helvetica,sans-Serif" font-size="10.00" fill="#000000">js_get_stack_pointer</text>
</a>
</g>
</g>
<!-- Node422355&#45;&gt;Node422356 -->
<g id="edge4" class="edge">
<title>Node422355&#45;&gt;Node422356</title>
<path fill="none" stroke="#191970" d="M609.5791,-702.2668C628.3394,-702.2668 648.8726,-702.2668 667.6499,-702.2668"/>
<polygon fill="#191970" stroke="#191970" points="667.8788,-705.7669 677.8788,-702.2668 667.8788,-698.7669 667.8788,-705.7669"/>
</g>
<!-- Node422363 -->
<g id="node11" class="node">
<title>Node422363</title>
<g id="a_node11"><a xlink:href="quickjs_8c.html#a06ff303a11e6641cbf1f6634e6a61811" target="_top" xlink:title="__JS_AtomToValue">
<polygon fill="none" stroke="#ff0000" points="679.5,-578.7668 679.5,-597.7668 783.5,-597.7668 783.5,-578.7668 679.5,-578.7668"/>
<text text-anchor="middle" x="731.5" y="-585.7668" font-family="Helvetica,sans-Serif" font-size="10.00" fill="#000000">__JS_AtomToValue</text>
</a>
</g>
</g>
<!-- Node422362&#45;&gt;Node422363 -->
<g id="edge10" class="edge">
<title>Node422362&#45;&gt;Node422363</title>
<path fill="none" stroke="#191970" d="M592.8095,-616.6778C617.8395,-611.5504 648.8414,-605.1996 675.1822,-599.8036"/>
<polygon fill="#191970" stroke="#191970" points="675.933,-603.2226 685.0271,-597.7869 674.5281,-596.365 675.933,-603.2226"/>
</g>
<!-- Node422364 -->
<g id="node12" class="node">
<title>Node422364</title>
<g id="a_node12"><a xlink:href="quickjs_8c.html#a288254c06a39c9fca740a7abdad2834e" target="_top" xlink:title="__JS_AtomIsTaggedInt">
<polygon fill="none" stroke="#000000" points="867.5,-540.7668 867.5,-559.7668 986.5,-559.7668 986.5,-540.7668 867.5,-540.7668"/>
<text text-anchor="middle" x="927" y="-547.7668" font-family="Helvetica,sans-Serif" font-size="10.00" fill="#000000">__JS_AtomIsTaggedInt</text>
</a>
</g>
</g>
<!-- Node422363&#45;&gt;Node422364 -->
<g id="edge11" class="edge">
<title>Node422363&#45;&gt;Node422364</title>
<path fill="none" stroke="#191970" d="M780.5806,-578.7269C807.0741,-573.5772 839.9717,-567.1828 867.8688,-561.7603"/>
<polygon fill="#191970" stroke="#191970" points="868.7508,-565.1545 877.8992,-559.8107 867.4151,-558.2831 868.7508,-565.1545"/>
</g>
<!-- Node422365 -->
<g id="node13" class="node">
<title>Node422365</title>
<g id="a_node13"><a xlink:href="quickjs_8c.html#a89f38938cee8077ce1fbba07946ed185" target="_top" xlink:title="__JS_AtomToUInt32">
<polygon fill="none" stroke="#000000" points="873,-578.7668 873,-597.7668 981,-597.7668 981,-578.7668 873,-578.7668"/>
<text text-anchor="middle" x="927" y="-585.7668" font-family="Helvetica,sans-Serif" font-size="10.00" fill="#000000">__JS_AtomToUInt32</text>
</a>
</g>
</g>
<!-- Node422363&#45;&gt;Node422365 -->
<g id="edge12" class="edge">
<title>Node422363&#45;&gt;Node422365</title>
<path fill="none" stroke="#191970" d="M783.6336,-588.2668C807.9989,-588.2668 837.2386,-588.2668 862.9384,-588.2668"/>
<polygon fill="#191970" stroke="#191970" points="862.9661,-591.7669 872.9661,-588.2668 862.9661,-584.7669 862.9661,-591.7669"/>
</g>
<!-- Node422366 -->
<g id="node14" class="node">
<title>Node422366</title>
<g id="a_node14"><a xlink:href="quickjs_8h.html#a775522f2d084fc8fa0fcb33f390006b4" target="_top" xlink:title="JS_DupValue">
<polygon fill="none" stroke="#000000" points="888.5,-616.7668 888.5,-635.7668 965.5,-635.7668 965.5,-616.7668 888.5,-616.7668"/>
<text text-anchor="middle" x="927" y="-623.7668" font-family="Helvetica,sans-Serif" font-size="10.00" fill="#000000">JS_DupValue</text>
</a>
</g>
</g>
<!-- Node422363&#45;&gt;Node422366 -->
<g id="edge13" class="edge">
<title>Node422363&#45;&gt;Node422366</title>
<path fill="none" stroke="#191970" d="M780.5806,-597.8068C810.428,-603.6083 848.4035,-610.9897 878.1999,-616.7814"/>
<polygon fill="#191970" stroke="#191970" points="877.8873,-620.286 888.3714,-618.7584 879.2229,-613.4146 877.8873,-620.286"/>
</g>
<!-- Node422391 -->
<g id="node16" class="node">
<title>Node422391</title>
<g id="a_node16"><a xlink:href="quickjs_8c.html#ac2894ff4edcdb4e6841bcce9c76081e3" target="_top" xlink:title="JS_CallInternal">
<polygon fill="none" stroke="#ff0000" points="340,-426.7668 340,-445.7668 423,-445.7668 423,-426.7668 340,-426.7668"/>
<text text-anchor="middle" x="381.5" y="-433.7668" font-family="Helvetica,sans-Serif" font-size="10.00" fill="#000000">JS_CallInternal</text>
</a>
</g>
</g>
<!-- Node422390&#45;&gt;Node422391 -->
<g id="edge15" class="edge">
<title>Node422390&#45;&gt;Node422391</title>
<path fill="none" stroke="#191970" d="M270.0846,-401.5873C295.5466,-406.8827 329.3684,-415.7633 353.0428,-423.445"/>
<polygon fill="#191970" stroke="#191970" points="352.2321,-426.8657 362.8264,-426.761 354.4791,-420.2361 352.2321,-426.8657"/>
</g>
<!-- Node422390&#45;&gt;Node422437 -->
<g id="edge40" class="edge">
<title>Node422390&#45;&gt;Node422437</title>
<path fill="none" stroke="#191970" d="M238.5139,-388.5882C256.822,-345.9107 337.1094,-173.9736 466,-113.2668 530.3326,-82.9665 557.0589,-95.8338 626,-113.2668 657.6464,-121.2692 690.1041,-140.8519 710.5075,-154.8273"/>
<polygon fill="#191970" stroke="#191970" points="708.5378,-157.7209 718.7318,-160.6075 712.5629,-151.9939 708.5378,-157.7209"/>
</g>
<!-- Node422391&#45;&gt;Node422355 -->
<g id="edge19" class="edge">
<title>Node422391&#45;&gt;Node422355</title>
<path fill="none" stroke="#191970" d="M383.4853,-445.8284C392.2353,-487.0845 428.5862,-649.2979 466,-683.2668 468.2294,-685.2909 470.6345,-687.1105 473.1713,-688.7454"/>
<polygon fill="#191970" stroke="#191970" points="471.7746,-691.9683 482.2396,-693.622 475.09,-685.8032 471.7746,-691.9683"/>
</g>
<!-- Node422391&#45;&gt;Node422357 -->
<g id="edge30" class="edge">
<title>Node422391&#45;&gt;Node422357</title>
<path fill="none" stroke="#191970" d="M382.3482,-445.9444C385.8066,-479.2588 401.8828,-590.1694 466,-645.2668 473.633,-651.826 483.129,-656.2134 492.8832,-659.1279"/>
<polygon fill="#191970" stroke="#191970" points="492.1131,-662.5431 502.6639,-661.5772 493.8136,-655.7527 492.1131,-662.5431"/>
</g>
<!-- Node422391&#45;&gt;Node422358 -->
<g id="edge31" class="edge">
<title>Node422391&#45;&gt;Node422358</title>
<path fill="none" stroke="#191970" d="M383.0621,-446.0365C390.5131,-491.4458 423.8316,-681.3583 466,-721.2668 476.7626,-731.4526 491.9506,-736.5019 506.2055,-738.9056"/>
<polygon fill="#191970" stroke="#191970" points="505.9759,-742.4052 516.3438,-740.2239 506.8786,-735.4636 505.9759,-742.4052"/>
</g>
<!-- Node422391&#45;&gt;Node422359 -->
<g id="edge36" class="edge">
<title>Node422391&#45;&gt;Node422359</title>
<path fill="none" stroke="#191970" d="M382.6963,-445.9921C388.9017,-494.8822 418.9555,-713.2781 466,-759.2668 468.5791,-761.788 471.4284,-763.9967 474.4694,-765.9299"/>
<polygon fill="#191970" stroke="#191970" points="473.0034,-769.1136 483.4819,-770.6796 476.267,-762.9209 473.0034,-769.1136"/>
</g>
<!-- Node422391&#45;&gt;Node422362 -->
<g id="edge16" class="edge">
<title>Node422391&#45;&gt;Node422362</title>
<path fill="none" stroke="#191970" d="M386.4869,-446.0172C398.2745,-468.4921 429.616,-525.0138 466,-564.2668 482.7306,-582.3168 505.1011,-599.1748 521.932,-610.7421"/>
<polygon fill="#191970" stroke="#191970" points="520.39,-613.9229 530.6415,-616.598 524.2958,-608.1138 520.39,-613.9229"/>
</g>
<!-- Node422391&#45;&gt;Node422366 -->
<g id="edge20" class="edge">
<title>Node422391&#45;&gt;Node422366</title>
<path fill="none" stroke="#191970" d="M392.2003,-445.8438C427.4971,-476.7172 544.6914,-573.5715 662,-607.2668 735.1486,-628.2777 824.0905,-630.0972 878.0798,-628.7359"/>
<polygon fill="#191970" stroke="#191970" points="878.5062,-632.2248 888.3965,-628.426 878.2959,-625.2279 878.5062,-632.2248"/>
</g>
<!-- Node422391&#45;&gt;Node422390 -->
<g id="edge17" class="edge">
<title>Node422391&#45;&gt;Node422390</title>
<path fill="none" stroke="#191970" d="M339.8119,-431.6437C315.2841,-426.2826 284.8998,-418.2017 263.0812,-411.1289"/>
<polygon fill="#191970" stroke="#191970" points="264.011,-407.7486 253.4167,-407.8592 261.7676,-414.3794 264.011,-407.7486"/>
</g>
<!-- Node422391&#45;&gt;Node422391 -->
<g id="edge18" class="edge">
<title>Node422391&#45;&gt;Node422391</title>
<path fill="none" stroke="#191970" d="M358.9972,-446.0239C348.0498,-454.8321 355.5508,-464.2668 381.5,-464.2668 398.5292,-464.2668 407.6133,-460.2036 408.7525,-454.9208"/>
<polygon fill="#191970" stroke="#191970" points="411.7999,-453.1972 404.0028,-446.0239 405.6248,-456.4938 411.7999,-453.1972"/>
</g>
<!-- Node422391&#45;&gt;Node422437 -->
<g id="edge21" class="edge">
<title>Node422391&#45;&gt;Node422437</title>
<path fill="none" stroke="#191970" d="M423.11,-426.7991C492.3727,-411.0077 623.9815,-380.8535 626,-379.2668 689.2258,-329.5675 717.7397,-231.8448 727.4303,-190.0203"/>
<polygon fill="#191970" stroke="#191970" points="730.9029,-190.5245 729.6332,-180.0061 724.0664,-189.0205 730.9029,-190.5245"/>
</g>
<!-- Node422447 -->
<g id="node18" class="node">
<title>Node422447</title>
<g id="a_node18"><a xlink:href="quickjs_8h.html#a89b7c8686c7eee70b86be722ee4730ad" target="_top" xlink:title="JS_GetProperty">
<polygon fill="none" stroke="#ff0000" points="503,-312.7668 503,-331.7668 589,-331.7668 589,-312.7668 503,-312.7668"/>
<text text-anchor="middle" x="546" y="-319.7668" font-family="Helvetica,sans-Serif" font-size="10.00" fill="#000000">JS_GetProperty</text>
</a>
</g>
</g>
<!-- Node422391&#45;&gt;Node422447 -->
<g id="edge22" class="edge">
<title>Node422391&#45;&gt;Node422447</title>
<path fill="none" stroke="#191970" d="M387.1287,-426.7139C399.0578,-407.3547 428.859,-363.4547 466,-341.2668 474.1859,-336.3766 483.5466,-332.7447 492.9116,-330.0476"/>
<polygon fill="#191970" stroke="#191970" points="493.8038,-333.4321 502.6235,-327.5616 492.0679,-326.6507 493.8038,-333.4321"/>
</g>
<!-- Node422662 -->
<g id="node19" class="node">
<title>Node422662</title>
<g id="a_node19"><a xlink:href="quickjs_8c.html#a9d6d0a9704951d01c128975e0d2213f8" target="_top" xlink:title="JS_HasProperty">
<polygon fill="none" stroke="#ff0000" points="501.5,-426.7668 501.5,-445.7668 590.5,-445.7668 590.5,-426.7668 501.5,-426.7668"/>
<text text-anchor="middle" x="546" y="-433.7668" font-family="Helvetica,sans-Serif" font-size="10.00" fill="#000000">JS_HasProperty</text>
</a>
</g>
</g>
<!-- Node422391&#45;&gt;Node422662 -->
<g id="edge23" class="edge">
<title>Node422391&#45;&gt;Node422662</title>
<path fill="none" stroke="#191970" d="M423.0103,-436.2668C443.6341,-436.2668 468.8298,-436.2668 491.0337,-436.2668"/>
<polygon fill="#191970" stroke="#191970" points="491.328,-439.7669 501.328,-436.2668 491.328,-432.7669 491.328,-439.7669"/>
</g>
<!-- Node422599 -->
<g id="node21" class="node">
<title>Node422599</title>
<g id="a_node21"><a xlink:href="quickjs_8h.html#aaab426b47c95d00479b7355b1cf7f56c" target="_top" xlink:title="JS_IsUninitialized">
<polygon fill="none" stroke="#000000" points="879.5,-464.7668 879.5,-483.7668 974.5,-483.7668 974.5,-464.7668 879.5,-464.7668"/>
<text text-anchor="middle" x="927" y="-471.7668" font-family="Helvetica,sans-Serif" font-size="10.00" fill="#000000">JS_IsUninitialized</text>
</a>
</g>
</g>
<!-- Node422391&#45;&gt;Node422599 -->
<g id="edge34" class="edge">
<title>Node422391&#45;&gt;Node422599</title>
<path fill="none" stroke="#191970" d="M417.4287,-445.8453C432.3454,-449.4291 449.9002,-453.1426 466,-455.2668 610.1858,-474.2907 781.7339,-475.8872 869.307,-475.2071"/>
<polygon fill="#191970" stroke="#191970" points="869.3394,-478.7071 879.3073,-475.1166 869.2759,-471.7074 869.3394,-478.7071"/>
</g>
<!-- Node422602 -->
<g id="node22" class="node">
<title>Node422602</title>
<g id="a_node22"><a xlink:href="quickjs_8c.html#a75ac132a3af4de01e1fadeb0bede6ee7" target="_top" xlink:title="JS_ThrowReferenceErrorUninitialized">
<polygon fill="none" stroke="#ff0000" points="837,-502.7668 837,-521.7668 1017,-521.7668 1017,-502.7668 837,-502.7668"/>
<text text-anchor="middle" x="927" y="-509.7668" font-family="Helvetica,sans-Serif" font-size="10.00" fill="#000000">JS_ThrowReferenceErrorUninitialized</text>
</a>
</g>
</g>
<!-- Node422391&#45;&gt;Node422602 -->
<g id="edge35" class="edge">
<title>Node422391&#45;&gt;Node422602</title>
<path fill="none" stroke="#191970" d="M397.3403,-445.9281C413.8358,-455.4594 440.7469,-469.5482 466,-476.2668 587.0736,-508.4784 731.8548,-514.7952 826.4424,-514.8182"/>
<polygon fill="#191970" stroke="#191970" points="826.586,-518.318 836.5784,-514.7966 826.571,-511.318 826.586,-518.318"/>
</g>
<!-- Node422391&#45;&gt;Node422646 -->
<g id="edge32" class="edge">
<title>Node422391&#45;&gt;Node422646</title>
<path fill="none" stroke="#191970" d="M384.4618,-426.4202C393.2042,-398.5905 421.1321,-317.9617 466,-265.2668 480.7388,-247.9569 501.8217,-233.2179 518.6444,-223.0664"/>
<polygon fill="#191970" stroke="#191970" points="520.6092,-225.9723 527.4847,-217.9114 517.083,-219.9253 520.6092,-225.9723"/>
</g>
<!-- Node422391&#45;&gt;Node422482 -->
<g id="edge33" class="edge">
<title>Node422391&#45;&gt;Node422482</title>
<path fill="none" stroke="#191970" d="M385.9214,-426.4836C395.1483,-405.7719 416.6988,-355.8192 430,-312.2668 451.4167,-242.1418 414.4963,-203.4546 466,-151.2668 473.2196,-143.9513 482.7064,-139.2478 492.6138,-136.2657"/>
<polygon fill="#191970" stroke="#191970" points="493.7113,-139.6006 502.5932,-133.8245 492.0479,-132.801 493.7113,-139.6006"/>
</g>
<!-- Node422590 -->
<g id="node25" class="node">
<title>Node422590</title>
<g id="a_node25"><a xlink:href="quickjs_8c.html#a726b00d108e0a0f4d958c36c2e426a64" target="_top" xlink:title="JS_ThrowTypeErrorNotAnObject">
<polygon fill="none" stroke="#000000" points="466,-274.7668 466,-293.7668 626,-293.7668 626,-274.7668 466,-274.7668"/>
<text text-anchor="middle" x="546" y="-281.7668" font-family="Helvetica,sans-Serif" font-size="10.00" fill="#000000">JS_ThrowTypeErrorNotAnObject</text>
</a>
</g>
</g>
<!-- Node422391&#45;&gt;Node422590 -->
<g id="edge37" class="edge">
<title>Node422391&#45;&gt;Node422590</title>
<path fill="none" stroke="#191970" d="M384.7864,-426.4086C393.6154,-401.5178 420.3242,-335.8055 466,-303.2668 468.7323,-301.3204 471.637,-299.5712 474.6596,-297.9995"/>
<polygon fill="#191970" stroke="#191970" points="476.3353,-301.0838 484.0261,-293.7967 473.4696,-294.6973 476.3353,-301.0838"/>
</g>
<!-- Node422548 -->
<g id="node26" class="node">
<title>Node422548</title>
<g id="a_node26"><a xlink:href="quickjs_8c.html#a2bf30c9cddfe98a32535843202495069" target="_top" xlink:title="JS_ToBoolFree">
<polygon fill="none" stroke="#000000" points="504,-350.7668 504,-369.7668 588,-369.7668 588,-350.7668 504,-350.7668"/>
<text text-anchor="middle" x="546" y="-357.7668" font-family="Helvetica,sans-Serif" font-size="10.00" fill="#000000">JS_ToBoolFree</text>
</a>
</g>
</g>
<!-- Node422391&#45;&gt;Node422548 -->
<g id="edge38" class="edge">
<title>Node422391&#45;&gt;Node422548</title>
<path fill="none" stroke="#191970" d="M394.6552,-426.6611C410.7851,-415.2482 439.2805,-396.2489 466,-384.2668 475.7258,-379.9054 486.4622,-376.0698 496.827,-372.8178"/>
<polygon fill="#191970" stroke="#191970" points="498.035,-376.1095 506.6053,-369.8805 496.0212,-369.4054 498.035,-376.1095"/>
</g>
<!-- Node422662&#45;&gt;Node422663 -->
<g id="edge24" class="edge">
<title>Node422662&#45;&gt;Node422663</title>
<path fill="none" stroke="#191970" d="M561.4966,-445.7903C593.8226,-465.6564 668.6475,-511.6405 707.3467,-535.4233"/>
<polygon fill="#191970" stroke="#191970" points="705.5648,-538.4363 715.9171,-540.6902 709.2299,-532.4724 705.5648,-538.4363"/>
</g>
<!-- Node422663&#45;&gt;Node422364 -->
<g id="edge25" class="edge">
<title>Node422663&#45;&gt;Node422364</title>
<path fill="none" stroke="#191970" d="M801.252,-550.2668C819.3948,-550.2668 838.9429,-550.2668 857.0937,-550.2668"/>
<polygon fill="#191970" stroke="#191970" points="857.3057,-553.7669 867.3057,-550.2668 857.3057,-546.7669 857.3057,-553.7669"/>
</g>
<!-- Node422663&#45;&gt;Node422365 -->
<g id="edge26" class="edge">
<title>Node422663&#45;&gt;Node422365</title>
<path fill="none" stroke="#191970" d="M780.5806,-559.8068C807.0741,-564.9564 839.9717,-571.3508 867.8688,-576.7733"/>
<polygon fill="#191970" stroke="#191970" points="867.4151,-580.2505 877.8992,-578.7229 868.7508,-573.3791 867.4151,-580.2505"/>
</g>
<!-- Node422663&#45;&gt;Node422366 -->
<g id="edge27" class="edge">
<title>Node422663&#45;&gt;Node422366</title>
<path fill="none" stroke="#191970" d="M780.0136,-559.8433C787.323,-562.318 794.5613,-565.4104 801,-569.2668 820.9584,-581.2207 816.6988,-595.9048 837,-607.2668 849.5592,-614.2958 864.4301,-618.7306 878.4283,-621.5265"/>
<polygon fill="#191970" stroke="#191970" points="877.9659,-624.9988 888.4215,-623.2864 879.1801,-618.1049 877.9659,-624.9988"/>
</g>
<!-- Node422663&#45;&gt;Node422599 -->
<g id="edge28" class="edge">
<title>Node422663&#45;&gt;Node422599</title>
<path fill="none" stroke="#191970" d="M745.8916,-540.7446C765.6364,-528.0973 802.6026,-505.8893 837,-493.2668 847.2155,-489.5181 858.3692,-486.4189 869.2379,-483.889"/>
<polygon fill="#191970" stroke="#191970" points="870.0871,-487.286 879.1041,-481.7234 868.5863,-480.4488 870.0871,-487.286"/>
</g>
<!-- Node422663&#45;&gt;Node422602 -->
<g id="edge29" class="edge">
<title>Node422663&#45;&gt;Node422602</title>
<path fill="none" stroke="#191970" d="M780.5806,-540.7269C807.0741,-535.5772 839.9717,-529.1828 867.8688,-523.7603"/>
<polygon fill="#191970" stroke="#191970" points="868.7508,-527.1545 877.8992,-521.8107 867.4151,-520.2831 868.7508,-527.1545"/>
</g>
<!-- Node422548&#45;&gt;Node422437 -->
<g id="edge39" class="edge">
<title>Node422548&#45;&gt;Node422437</title>
<path fill="none" stroke="#191970" d="M588.0819,-356.5972C601.1558,-353.8719 615.0068,-349.2081 626,-341.2668 680.3267,-302.0222 712.5314,-225.37 725.2201,-189.562"/>
<polygon fill="#191970" stroke="#191970" points="728.618,-190.4416 728.5343,-179.8471 721.9929,-188.1815 728.618,-190.4416"/>
</g>
<!-- Node422675&#45;&gt;Node422437 -->
<g id="edge42" class="edge">
<title>Node422675&#45;&gt;Node422437</title>
<path fill="none" stroke="#191970" d="M417.7454,-68.6457C466.7824,-61.3045 556.155,-53.7084 626,-80.2668 664.9377,-95.0728 699.4363,-130.98 717.7081,-152.6996"/>
<polygon fill="#191970" stroke="#191970" points="715.0599,-154.9901 724.0992,-160.5165 720.4791,-150.5593 715.0599,-154.9901"/>
</g>
<!-- Node422782&#45;&gt;Node422357 -->
<g id="edge53" class="edge">
<title>Node422782&#45;&gt;Node422357</title>
<path fill="none" stroke="#191970" d="M386.1424,-302.9864C395.7875,-323.5776 418.0855,-373.3148 430,-417.2668 456.8411,-516.282 396.2888,-570.002 466,-645.2668 473.1305,-652.9654 482.762,-657.8093 492.8704,-660.8033"/>
<polygon fill="#191970" stroke="#191970" points="492.1022,-664.2182 502.642,-663.1397 493.7301,-657.4101 492.1022,-664.2182"/>
</g>
<!-- Node422782&#45;&gt;Node422437 -->
<g id="edge50" class="edge">
<title>Node422782&#45;&gt;Node422437</title>
<path fill="none" stroke="#191970" d="M408.3346,-283.7131C424.8536,-277.9975 446.5239,-270.7951 466,-265.2668 536.3115,-245.3088 557.7066,-253.3059 626,-227.2668 655.5204,-216.0112 687.1156,-198.0696 707.9518,-185.3244"/>
<polygon fill="#191970" stroke="#191970" points="710.0741,-188.1264 716.722,-179.8768 706.3805,-182.1801 710.0741,-188.1264"/>
</g>
<!-- Node422782&#45;&gt;Node422447 -->
<g id="edge51" class="edge">
<title>Node422782&#45;&gt;Node422447</title>
<path fill="none" stroke="#191970" d="M422.586,-300.5099C443.8903,-304.2657 470.1591,-308.8967 492.9779,-312.9194"/>
<polygon fill="#191970" stroke="#191970" points="492.3985,-316.3712 502.8543,-314.6606 493.6138,-309.4775 492.3985,-316.3712"/>
</g>
<!-- Node422782&#45;&gt;Node422662 -->
<g id="edge52" class="edge">
<title>Node422782&#45;&gt;Node422662</title>
<path fill="none" stroke="#191970" d="M389.8837,-302.8387C404.5288,-319.313 436.0711,-353.7168 466,-379.2668 484.057,-394.6819 506.1339,-410.1882 522.5182,-421.1276"/>
<polygon fill="#191970" stroke="#191970" points="520.6987,-424.1202 530.9732,-426.7056 524.5535,-418.2772 520.6987,-424.1202"/>
</g>
<!-- Node422782&#45;&gt;Node422646 -->
<g id="edge55" class="edge">
<title>Node422782&#45;&gt;Node422646</title>
<path fill="none" stroke="#191970" d="M392.2096,-283.6978C407.5479,-270.4418 437.1183,-246.5174 466,-232.2668 476.7615,-226.9569 488.9257,-222.572 500.4609,-219.0689"/>
<polygon fill="#191970" stroke="#191970" points="501.7411,-222.3428 510.385,-216.2164 499.8073,-215.6152 501.7411,-222.3428"/>
</g>
<!-- Node422782&#45;&gt;Node422482 -->
<g id="edge56" class="edge">
<title>Node422782&#45;&gt;Node422482</title>
<path fill="none" stroke="#191970" d="M384.3423,-283.5154C392.4316,-257.5685 418.1429,-186.4243 466,-151.2668 473.8554,-145.496 483.2117,-141.4519 492.7093,-138.6239"/>
<polygon fill="#191970" stroke="#191970" points="493.7792,-141.9631 502.6011,-136.0958 492.0458,-135.1811 493.7792,-141.9631"/>
</g>
<!-- Node422782&#45;&gt;Node422590 -->
<g id="edge57" class="edge">
<title>Node422782&#45;&gt;Node422590</title>
<path fill="none" stroke="#191970" d="M422.586,-291.0189C432.8168,-290.4592 444.1925,-289.8368 455.7812,-289.2028"/>
<polygon fill="#191970" stroke="#191970" points="456.2027,-292.6851 465.9966,-288.6439 455.8203,-285.6955 456.2027,-292.6851"/>
</g>
<!-- Node422782&#45;&gt;Node422548 -->
<g id="edge58" class="edge">
<title>Node422782&#45;&gt;Node422548</title>
<path fill="none" stroke="#191970" d="M395.5311,-302.8966C411.8104,-313.6667 439.7809,-330.9497 466,-341.2668 474.8732,-344.7584 484.5624,-347.7214 494.0378,-350.194"/>
<polygon fill="#191970" stroke="#191970" points="493.2448,-353.6032 503.7915,-352.5948 494.9179,-346.8061 493.2448,-353.6032"/>
</g>
<!-- Node422481 -->
<g id="node30" class="node">
<title>Node422481</title>
<g id="a_node30"><a xlink:href="quickjs_8c.html#a1ca9cdb1fa2ffc3e6506e92b200e490f" target="_top" xlink:title="JS_IsFunction">
<polygon fill="none" stroke="#000000" points="506,-160.7668 506,-179.7668 586,-179.7668 586,-160.7668 506,-160.7668"/>
<text text-anchor="middle" x="546" y="-167.7668" font-family="Helvetica,sans-Serif" font-size="10.00" fill="#000000">JS_IsFunction</text>
</a>
</g>
</g>
<!-- Node422782&#45;&gt;Node422481 -->
<g id="edge54" class="edge">
<title>Node422782&#45;&gt;Node422481</title>
<path fill="none" stroke="#191970" d="M386.3713,-283.7574C397.4819,-263.0756 426.7964,-213.8909 466,-189.2668 474.9776,-183.6279 485.479,-179.6617 495.8646,-176.8723"/>
<polygon fill="#191970" stroke="#191970" points="496.8049,-180.2466 505.7329,-174.5422 495.1962,-173.4339 496.8049,-180.2466"/>
</g>
</g>
</svg>
        <g id="navigator" transform="translate(0 0)" fill="#404254">
                <rect fill="#f2f5e9" fill-opacity="0.5" stroke="#606060" stroke-width=".5" x="0" y="0" width="60" height="60"/>
                <use id="zoomplus" xlink:href="#zoomPlus" x="17" y="9" onmousedown="handleZoom(evt,'in')"/>
                <use id="zoomminus" xlink:href="#zoomMin" x="42" y="9" onmousedown="handleZoom(evt,'out')"/>
                <use id="reset" xlink:href="#resetDef" x="30" y="36" onmousedown="handleReset()"/>
                <g id="arrowUp" xlink:href="#dirArrow" transform="translate(30 24)" onmousedown="handlePan(0,-1)">
                  <use xlink:href="#rim" fill="#404040">
                        <set attributeName="fill" to="#808080" begin="arrowUp.mouseover" end="arrowUp.mouseout"/>
                  </use>
                  <path fill="none" stroke="white" stroke-width="1.5" d="M0,-3.0v7 M-2.5,-0.5L0,-3.0L2.5,-0.5"/>
                </g>
                <g id="arrowRight" xlink:href="#dirArrow" transform="rotate(90) translate(36 -43)" onmousedown="handlePan(1,0)">
                  <use xlink:href="#rim" fill="#404040">
                        <set attributeName="fill" to="#808080" begin="arrowRight.mouseover" end="arrowRight.mouseout"/>
                  </use>
                  <path fill="none" stroke="white" stroke-width="1.5" d="M0,-3.0v7 M-2.5,-0.5L0,-3.0L2.5,-0.5"/>
                </g>
                <g id="arrowDown" xlink:href="#dirArrow" transform="rotate(180) translate(-30 -48)" onmousedown="handlePan(0,1)">
                  <use xlink:href="#rim" fill="#404040">
                        <set attributeName="fill" to="#808080" begin="arrowDown.mouseover" end="arrowDown.mouseout"/>
                  </use>
                  <path fill="none" stroke="white" stroke-width="1.5" d="M0,-3.0v7 M-2.5,-0.5L0,-3.0L2.5,-0.5"/>
                </g>
                <g id="arrowLeft" xlink:href="#dirArrow" transform="rotate(270) translate(-36 17)" onmousedown="handlePan(-1,0)">
                  <use xlink:href="#rim" fill="#404040">
                        <set attributeName="fill" to="#808080" begin="arrowLeft.mouseover" end="arrowLeft.mouseout"/>
                  </use>
                  <path fill="none" stroke="white" stroke-width="1.5" d="M0,-3.0v7 M-2.5,-0.5L0,-3.0L2.5,-0.5"/>
                </g>
        </g>
        <svg viewBox="0 0 15 15" width="100%" height="30px" preserveAspectRatio="xMaxYMin meet">
         <g id="arrow_out" transform="scale(0.3 0.3)">
          <a xlink:href="quickjs_8c_ab9c2e9c8dab72f3c057efe4ffcced332_cgraph_org.svg" target="_base">
           <rect id="button" ry="5" rx="5" y="6" x="6" height="38" width="38"
                fill="#f2f5e9" fill-opacity="0.5" stroke="#606060" stroke-width="1.0"/>
           <path id="arrow"
             d="M 11.500037,31.436501 C 11.940474,20.09759 22.043105,11.32322 32.158766,21.979434 L 37.068811,17.246167 C 37.068811,17.246167 37.088388,32 37.088388,32 L 22.160133,31.978069 C 22.160133,31.978069 26.997745,27.140456 26.997745,27.140456 C 18.528582,18.264221 13.291696,25.230495 11.500037,31.436501 z"
             style="fill:#404040;"/>
          </a>
         </g>
        </svg>
</svg>
