<?xml version="1.0" encoding="UTF-8" standalone="no"?>
<!DOCTYPE svg PUBLIC "-//W3C//DTD SVG 1.1//EN"
 "http://www.w3.org/Graphics/SVG/1.1/DTD/svg11.dtd">
<!-- Generated by graphviz version 2.40.1 (20161225.0304)
 -->
<!-- Title: js_array_copyWithin Pages: 1 -->
<svg width="829pt" height="698pt"
 viewBox="0.00 0.00 829.00 697.59" xmlns="http://www.w3.org/2000/svg" xmlns:xlink="http://www.w3.org/1999/xlink">
<g id="graph0" class="graph" transform="scale(1 1) rotate(0) translate(4 693.5879)">
<title>js_array_copyWithin</title>
<!-- Node379311 -->
<g id="node1" class="node">
<title>Node379311</title>
<polygon fill="#bfbfbf" stroke="#000000" points="0,-252.0879 0,-271.0879 105,-271.0879 105,-252.0879 0,-252.0879"/>
<text text-anchor="middle" x="52.5" y="-259.0879" font-family="Helvetica,sans-Serif" font-size="10.00" fill="#000000">js_array_copyWithin</text>
</g>
<!-- Node379312 -->
<g id="node2" class="node">
<title>Node379312</title>
<g id="a_node2"><a xlink:href="quickjs_8c.html#a6c99d7581e100a5de07c9a24f4c7d34a" target="_top" xlink:title="JS_CopySubArray">
<polygon fill="none" stroke="#000000" points="141,-252.0879 141,-271.0879 239,-271.0879 239,-252.0879 141,-252.0879"/>
<text text-anchor="middle" x="190" y="-259.0879" font-family="Helvetica,sans-Serif" font-size="10.00" fill="#000000">JS_CopySubArray</text>
</a>
</g>
</g>
<!-- Node379311&#45;&gt;Node379312 -->
<g id="edge1" class="edge">
<title>Node379311&#45;&gt;Node379312</title>
<path fill="none" stroke="#191970" d="M105.2678,-261.5879C113.5595,-261.5879 122.1795,-261.5879 130.6083,-261.5879"/>
<polygon fill="#191970" stroke="#191970" points="130.7599,-265.088 140.7598,-261.5879 130.7598,-258.088 130.7599,-265.088"/>
</g>
<!-- Node379368 -->
<g id="node6" class="node">
<title>Node379368</title>
<g id="a_node6"><a xlink:href="quickjs_8h.html#afaa20c47565bc704c6c85f3d77254e7d" target="_top" xlink:title="JS_FreeValue">
<polygon fill="none" stroke="#ff0000" points="600.5,-309.0879 600.5,-328.0879 678.5,-328.0879 678.5,-309.0879 600.5,-309.0879"/>
<text text-anchor="middle" x="639.5" y="-316.0879" font-family="Helvetica,sans-Serif" font-size="10.00" fill="#000000">JS_FreeValue</text>
</a>
</g>
</g>
<!-- Node379311&#45;&gt;Node379368 -->
<g id="edge36" class="edge">
<title>Node379311&#45;&gt;Node379368</title>
<path fill="none" stroke="#191970" d="M91.5038,-271.1531C106.8473,-274.6024 124.6698,-278.2236 141,-280.5879 304.3989,-304.2446 500.2004,-313.7257 590.0375,-317.0362"/>
<polygon fill="#191970" stroke="#191970" points="590.0824,-320.5399 600.2015,-317.4009 590.3335,-313.5444 590.0824,-320.5399"/>
</g>
<!-- Node379382 -->
<g id="node8" class="node">
<title>Node379382</title>
<g id="a_node8"><a xlink:href="quickjs_8c.html#a710289a14c2810467e5b448d3c28bd55" target="_top" xlink:title="JS_ToObject">
<polygon fill="none" stroke="#ff0000" points="602.5,-518.0879 602.5,-537.0879 676.5,-537.0879 676.5,-518.0879 602.5,-518.0879"/>
<text text-anchor="middle" x="639.5" y="-525.0879" font-family="Helvetica,sans-Serif" font-size="10.00" fill="#000000">JS_ToObject</text>
</a>
</g>
</g>
<!-- Node379311&#45;&gt;Node379382 -->
<g id="edge42" class="edge">
<title>Node379311&#45;&gt;Node379382</title>
<path fill="none" stroke="#191970" d="M60.6032,-271.1696C97.6989,-314.1746 257.0768,-489.7473 433,-546.5879 489.6514,-564.8919 559.2785,-551.6207 601.4793,-539.9292"/>
<polygon fill="#191970" stroke="#191970" points="602.6966,-543.2209 611.336,-537.088 600.7578,-536.4947 602.6966,-543.2209"/>
</g>
<!-- Node379571 -->
<g id="node19" class="node">
<title>Node379571</title>
<g id="a_node19"><a xlink:href="quickjs_8c.html#a5f848f76409193212a44e6221e430919" target="_top" xlink:title="js_get_length64">
<polygon fill="none" stroke="#ff0000" points="446,-670.0879 446,-689.0879 531,-689.0879 531,-670.0879 446,-670.0879"/>
<text text-anchor="middle" x="488.5" y="-677.0879" font-family="Helvetica,sans-Serif" font-size="10.00" fill="#000000">js_get_length64</text>
</a>
</g>
</g>
<!-- Node379311&#45;&gt;Node379571 -->
<g id="edge37" class="edge">
<title>Node379311&#45;&gt;Node379571</title>
<path fill="none" stroke="#191970" d="M53.5044,-271.309C59.0741,-323.2873 87.8526,-567.892 141,-617.5879 221.373,-692.7413 359.9508,-692.972 435.5466,-686.4084"/>
<polygon fill="#191970" stroke="#191970" points="436.1552,-689.8666 445.7829,-685.4442 435.4987,-682.8975 436.1552,-689.8666"/>
</g>
<!-- Node379463 -->
<g id="node20" class="node">
<title>Node379463</title>
<g id="a_node20"><a xlink:href="quickjs_8h.html#a4e407128a9605afb77523e49e9a627fd" target="_top" xlink:title="JS_IsUndefined">
<polygon fill="none" stroke="#000000" points="147,-214.0879 147,-233.0879 233,-233.0879 233,-214.0879 147,-214.0879"/>
<text text-anchor="middle" x="190" y="-221.0879" font-family="Helvetica,sans-Serif" font-size="10.00" fill="#000000">JS_IsUndefined</text>
</a>
</g>
</g>
<!-- Node379311&#45;&gt;Node379463 -->
<g id="edge40" class="edge">
<title>Node379311&#45;&gt;Node379463</title>
<path fill="none" stroke="#191970" d="M87.1971,-251.9989C104.8656,-247.1159 126.5485,-241.1235 145.439,-235.9029"/>
<polygon fill="#191970" stroke="#191970" points="146.6077,-239.2112 155.314,-233.1738 144.743,-232.4641 146.6077,-239.2112"/>
</g>
<!-- Node379573 -->
<g id="node21" class="node">
<title>Node379573</title>
<g id="a_node21"><a xlink:href="quickjs_8c.html#a537e88d38784e3df2a19c72f8bd1d77e" target="_top" xlink:title="JS_ToInt64Clamp">
<polygon fill="none" stroke="#ff0000" points="142.5,-176.0879 142.5,-195.0879 237.5,-195.0879 237.5,-176.0879 142.5,-176.0879"/>
<text text-anchor="middle" x="190" y="-183.0879" font-family="Helvetica,sans-Serif" font-size="10.00" fill="#000000">JS_ToInt64Clamp</text>
</a>
</g>
</g>
<!-- Node379311&#45;&gt;Node379573 -->
<g id="edge41" class="edge">
<title>Node379311&#45;&gt;Node379573</title>
<path fill="none" stroke="#191970" d="M65.4918,-252.0228C82.315,-239.9227 112.8265,-218.9363 141,-204.5879 144.7959,-202.6547 148.837,-200.7947 152.9076,-199.0454"/>
<polygon fill="#191970" stroke="#191970" points="154.4254,-202.2062 162.3577,-195.1827 151.7768,-195.7266 154.4254,-202.2062"/>
</g>
<!-- Node379746 -->
<g id="node22" class="node">
<title>Node379746</title>
<g id="a_node22"><a xlink:href="cutils_8h.html#af5b214fa09b0daf7361c90b1831cecf2" target="_top" xlink:title="min_int64">
<polygon fill="none" stroke="#000000" points="160.5,-138.0879 160.5,-157.0879 219.5,-157.0879 219.5,-138.0879 160.5,-138.0879"/>
<text text-anchor="middle" x="190" y="-145.0879" font-family="Helvetica,sans-Serif" font-size="10.00" fill="#000000">min_int64</text>
</a>
</g>
</g>
<!-- Node379311&#45;&gt;Node379746 -->
<g id="edge43" class="edge">
<title>Node379311&#45;&gt;Node379746</title>
<path fill="none" stroke="#191970" d="M59.1876,-251.8856C72.6391,-233.023 104.7944,-191.1114 141,-166.5879 144.1303,-164.4676 147.5311,-162.5359 151.0327,-160.7873"/>
<polygon fill="#191970" stroke="#191970" points="152.725,-163.8644 160.4208,-156.5825 149.8637,-157.4759 152.725,-163.8644"/>
</g>
<!-- Node379313 -->
<g id="node3" class="node">
<title>Node379313</title>
<g id="a_node3"><a xlink:href="quickjs_8c.html#a70e21308fe3760cd95dd1dbb1a8755e6" target="_top" xlink:title="JS_DeletePropertyInt64">
<polygon fill="none" stroke="#000000" points="275.5,-252.0879 275.5,-271.0879 396.5,-271.0879 396.5,-252.0879 275.5,-252.0879"/>
<text text-anchor="middle" x="336" y="-259.0879" font-family="Helvetica,sans-Serif" font-size="10.00" fill="#000000">JS_DeletePropertyInt64</text>
</a>
</g>
</g>
<!-- Node379312&#45;&gt;Node379313 -->
<g id="edge2" class="edge">
<title>Node379312&#45;&gt;Node379313</title>
<path fill="none" stroke="#191970" d="M239.022,-261.5879C247.5087,-261.5879 256.4817,-261.5879 265.4068,-261.5879"/>
<polygon fill="#191970" stroke="#191970" points="265.4346,-265.088 275.4345,-261.5879 265.4345,-258.088 265.4346,-265.088"/>
</g>
<!-- Node379744 -->
<g id="node12" class="node">
<title>Node379744</title>
<g id="a_node12"><a xlink:href="quickjs_8c.html#a51b06daa618640e531fe808770553b96" target="_top" xlink:title="JS_SetPropertyInt64">
<polygon fill="none" stroke="#000000" points="282.5,-138.0879 282.5,-157.0879 389.5,-157.0879 389.5,-138.0879 282.5,-138.0879"/>
<text text-anchor="middle" x="336" y="-145.0879" font-family="Helvetica,sans-Serif" font-size="10.00" fill="#000000">JS_SetPropertyInt64</text>
</a>
</g>
</g>
<!-- Node379312&#45;&gt;Node379744 -->
<g id="edge14" class="edge">
<title>Node379312&#45;&gt;Node379744</title>
<path fill="none" stroke="#191970" d="M220.2208,-252.0837C226.6604,-249.4603 233.2479,-246.2947 239,-242.5879 272.784,-220.8167 304.5955,-185.9031 322.0748,-165.012"/>
<polygon fill="#191970" stroke="#191970" points="324.8101,-167.1962 328.4511,-157.2467 319.4002,-162.754 324.8101,-167.1962"/>
</g>
<!-- Node379745 -->
<g id="node15" class="node">
<title>Node379745</title>
<g id="a_node15"><a xlink:href="quickjs_8c.html#a14674e74168715dc5a3a391910982e5d" target="_top" xlink:title="JS_TryGetPropertyInt64">
<polygon fill="none" stroke="#000000" points="275,-404.0879 275,-423.0879 397,-423.0879 397,-404.0879 275,-404.0879"/>
<text text-anchor="middle" x="336" y="-411.0879" font-family="Helvetica,sans-Serif" font-size="10.00" fill="#000000">JS_TryGetPropertyInt64</text>
</a>
</g>
</g>
<!-- Node379312&#45;&gt;Node379745 -->
<g id="edge23" class="edge">
<title>Node379312&#45;&gt;Node379745</title>
<path fill="none" stroke="#191970" d="M199.133,-271.0961C223.3042,-296.2607 289.1887,-364.8528 319.8743,-396.7994"/>
<polygon fill="#191970" stroke="#191970" points="317.419,-399.2957 326.8705,-404.0832 322.4674,-394.4466 317.419,-399.2957"/>
</g>
<!-- Node379314 -->
<g id="node4" class="node">
<title>Node379314</title>
<g id="a_node4"><a xlink:href="quickjs_8c.html#a877fcb7651d95b411ce70e62b7f4a1f0" target="_top" xlink:title="__JS_AtomFromUInt32">
<polygon fill="none" stroke="#000000" points="580,-271.0879 580,-290.0879 699,-290.0879 699,-271.0879 580,-271.0879"/>
<text text-anchor="middle" x="639.5" y="-278.0879" font-family="Helvetica,sans-Serif" font-size="10.00" fill="#000000">__JS_AtomFromUInt32</text>
</a>
</g>
</g>
<!-- Node379313&#45;&gt;Node379314 -->
<g id="edge3" class="edge">
<title>Node379313&#45;&gt;Node379314</title>
<path fill="none" stroke="#191970" d="M372.7504,-252.0778C414.5533,-242.6792 484.7038,-231.224 544,-242.5879 568.0274,-247.1926 593.7099,-257.7642 612.3833,-266.5908"/>
<polygon fill="#191970" stroke="#191970" points="610.9398,-269.7807 621.4635,-271.0067 614.0012,-263.4857 610.9398,-269.7807"/>
</g>
<!-- Node379315 -->
<g id="node5" class="node">
<title>Node379315</title>
<g id="a_node5"><a xlink:href="quickjs_8c.html#a2b88ed25233c441cbed7b0a027c9ee2f" target="_top" xlink:title="JS_DeleteProperty">
<polygon fill="none" stroke="#ff0000" points="439,-442.0879 439,-461.0879 538,-461.0879 538,-442.0879 439,-442.0879"/>
<text text-anchor="middle" x="488.5" y="-449.0879" font-family="Helvetica,sans-Serif" font-size="10.00" fill="#000000">JS_DeleteProperty</text>
</a>
</g>
</g>
<!-- Node379313&#45;&gt;Node379315 -->
<g id="edge4" class="edge">
<title>Node379313&#45;&gt;Node379315</title>
<path fill="none" stroke="#191970" d="M338.7991,-271.3202C347.615,-300.2599 377.5637,-386.6176 433,-432.5879 435.0236,-434.2659 437.2034,-435.7988 439.4873,-437.1986"/>
<polygon fill="#191970" stroke="#191970" points="438.2119,-440.4793 448.7021,-441.9643 441.4275,-434.2616 438.2119,-440.4793"/>
</g>
<!-- Node379367 -->
<g id="node10" class="node">
<title>Node379367</title>
<g id="a_node10"><a xlink:href="quickjs_8c.html#ab7fc45a99935a1c0ba50b0216d9401a9" target="_top" xlink:title="JS_FreeAtom">
<polygon fill="none" stroke="#ff0000" points="601,-138.0879 601,-157.0879 678,-157.0879 678,-138.0879 601,-138.0879"/>
<text text-anchor="middle" x="639.5" y="-145.0879" font-family="Helvetica,sans-Serif" font-size="10.00" fill="#000000">JS_FreeAtom</text>
</a>
</g>
</g>
<!-- Node379313&#45;&gt;Node379367 -->
<g id="edge10" class="edge">
<title>Node379313&#45;&gt;Node379367</title>
<path fill="none" stroke="#191970" d="M342.4148,-251.7599C361.8369,-222.1577 419.4978,-135.4521 433,-128.5879 489.1539,-100.0403 565.0143,-119.3924 607.4103,-134.5028"/>
<polygon fill="#191970" stroke="#191970" points="606.3411,-137.839 616.9342,-138.0282 608.7712,-131.2743 606.3411,-137.839"/>
</g>
<!-- Node379743 -->
<g id="node11" class="node">
<title>Node379743</title>
<g id="a_node11"><a xlink:href="quickjs_8c.html#aa641af3a921335927dab07dc83285917" target="_top" xlink:title="JS_NewAtomInt64">
<polygon fill="none" stroke="#ff0000" points="439,-252.0879 439,-271.0879 538,-271.0879 538,-252.0879 439,-252.0879"/>
<text text-anchor="middle" x="488.5" y="-259.0879" font-family="Helvetica,sans-Serif" font-size="10.00" fill="#000000">JS_NewAtomInt64</text>
</a>
</g>
</g>
<!-- Node379313&#45;&gt;Node379743 -->
<g id="edge11" class="edge">
<title>Node379313&#45;&gt;Node379743</title>
<path fill="none" stroke="#191970" d="M396.7102,-261.5879C407.1759,-261.5879 418.0495,-261.5879 428.4965,-261.5879"/>
<polygon fill="#191970" stroke="#191970" points="428.7703,-265.088 438.7702,-261.5879 428.7702,-258.088 428.7703,-265.088"/>
</g>
<!-- Node379315&#45;&gt;Node379368 -->
<g id="edge5" class="edge">
<title>Node379315&#45;&gt;Node379368</title>
<path fill="none" stroke="#191970" d="M525.678,-442.0124C532.0856,-439.4981 538.4586,-436.3924 544,-432.5879 581.7474,-406.6716 613.0264,-361.9535 628.684,-336.9208"/>
<polygon fill="#191970" stroke="#191970" points="631.6799,-338.7303 633.9009,-328.3708 625.7045,-335.0842 631.6799,-338.7303"/>
</g>
<!-- Node379381 -->
<g id="node7" class="node">
<title>Node379381</title>
<g id="a_node7"><a xlink:href="quickjs_8h.html#ad80a83d73e9b7d872b88fbf2943aebe9" target="_top" xlink:title="JS_IsException">
<polygon fill="none" stroke="#000000" points="735,-518.0879 735,-537.0879 821,-537.0879 821,-518.0879 735,-518.0879"/>
<text text-anchor="middle" x="778" y="-525.0879" font-family="Helvetica,sans-Serif" font-size="10.00" fill="#000000">JS_IsException</text>
</a>
</g>
</g>
<!-- Node379315&#45;&gt;Node379381 -->
<g id="edge6" class="edge">
<title>Node379315&#45;&gt;Node379381</title>
<path fill="none" stroke="#191970" d="M524.8722,-461.1364C577.3058,-474.9013 674.1326,-500.3204 731.6347,-515.416"/>
<polygon fill="#191970" stroke="#191970" points="730.9878,-518.8647 741.5488,-518.0186 732.7653,-512.0941 730.9878,-518.8647"/>
</g>
<!-- Node379315&#45;&gt;Node379382 -->
<g id="edge7" class="edge">
<title>Node379315&#45;&gt;Node379382</title>
<path fill="none" stroke="#191970" d="M507.6243,-461.2133C533.8333,-474.4046 581.1004,-498.1947 611.3544,-513.4218"/>
<polygon fill="#191970" stroke="#191970" points="610.0251,-516.6711 620.531,-518.0406 613.1721,-510.4184 610.0251,-516.6711"/>
</g>
<!-- Node379382&#45;&gt;Node379381 -->
<g id="edge8" class="edge">
<title>Node379382&#45;&gt;Node379381</title>
<path fill="none" stroke="#191970" d="M676.6155,-527.5879C691.3389,-527.5879 708.5526,-527.5879 724.5726,-527.5879"/>
<polygon fill="#191970" stroke="#191970" points="724.8896,-531.088 734.8896,-527.5879 724.8895,-524.088 724.8896,-531.088"/>
</g>
<!-- Node379445 -->
<g id="node9" class="node">
<title>Node379445</title>
<g id="a_node9"><a xlink:href="quickjs_8h.html#a2050bc428da1c65ac7eb87c3fa3b0392" target="_top" xlink:title="JS_NewInt32">
<polygon fill="none" stroke="#000000" points="740,-442.0879 740,-461.0879 816,-461.0879 816,-442.0879 740,-442.0879"/>
<text text-anchor="middle" x="778" y="-449.0879" font-family="Helvetica,sans-Serif" font-size="10.00" fill="#000000">JS_NewInt32</text>
</a>
</g>
</g>
<!-- Node379382&#45;&gt;Node379445 -->
<g id="edge9" class="edge">
<title>Node379382&#45;&gt;Node379445</title>
<path fill="none" stroke="#191970" d="M666.3703,-518.0552C676.7702,-514.0304 688.6412,-509.0173 699,-503.5879 719.4241,-492.8828 741.2142,-478.2739 756.725,-467.2659"/>
<polygon fill="#191970" stroke="#191970" points="759.0018,-469.9395 765.0741,-461.2575 754.9129,-464.2579 759.0018,-469.9395"/>
</g>
<!-- Node379743&#45;&gt;Node379314 -->
<g id="edge12" class="edge">
<title>Node379743&#45;&gt;Node379314</title>
<path fill="none" stroke="#191970" d="M538.3615,-267.8618C548.4519,-269.1315 559.2356,-270.4884 569.8634,-271.8256"/>
<polygon fill="#191970" stroke="#191970" points="569.6187,-275.3224 579.9775,-273.0983 570.4927,-268.3771 569.6187,-275.3224"/>
</g>
<!-- Node379743&#45;&gt;Node379381 -->
<g id="edge13" class="edge">
<title>Node379743&#45;&gt;Node379381</title>
<path fill="none" stroke="#191970" d="M514.7427,-251.9916C558.5069,-237.8523 646.736,-217.5566 699,-261.5879 771.0849,-322.3177 697.5634,-384.0844 735,-470.5879 741.3711,-485.3094 752.2886,-499.7125 761.5282,-510.3574"/>
<polygon fill="#191970" stroke="#191970" points="759.1565,-512.953 768.4596,-518.023 764.3487,-508.2581 759.1565,-512.953"/>
</g>
<!-- Node379744&#45;&gt;Node379368 -->
<g id="edge16" class="edge">
<title>Node379744&#45;&gt;Node379368</title>
<path fill="none" stroke="#191970" d="M372.265,-157.1666C416.7993,-170.3845 492.7223,-197.7987 544,-242.5879 566.5666,-262.2989 556.2981,-281.2577 580,-299.5879 583.3775,-302.1999 587.1237,-304.4579 591.0451,-306.4091"/>
<polygon fill="#191970" stroke="#191970" points="589.8522,-309.7056 600.4224,-310.4268 592.609,-303.2713 589.8522,-309.7056"/>
</g>
<!-- Node379744&#45;&gt;Node379445 -->
<g id="edge18" class="edge">
<title>Node379744&#45;&gt;Node379445</title>
<path fill="none" stroke="#191970" d="M339.5047,-137.7819C349.3915,-111.8094 380.2651,-41.3973 433,-14.5879 476.9767,7.769 497.1258,.7936 544,-14.5879 625.2521,-41.2503 651.5465,-57.4475 699,-128.5879 733.1538,-179.7898 765.2198,-369.7823 774.9813,-431.8394"/>
<polygon fill="#191970" stroke="#191970" points="771.5467,-432.5313 776.5399,-441.8757 778.4638,-431.457 771.5467,-432.5313"/>
</g>
<!-- Node379744&#45;&gt;Node379367 -->
<g id="edge15" class="edge">
<title>Node379744&#45;&gt;Node379367</title>
<path fill="none" stroke="#191970" d="M348.942,-137.9271C366.7671,-125.2854 400.3837,-103.779 433,-95.5879 480.8475,-83.5716 496.1919,-83.4158 544,-95.5879 571.6708,-102.6329 599.9807,-119.5048 618.5155,-132.1326"/>
<polygon fill="#191970" stroke="#191970" points="616.5861,-135.0544 626.7836,-137.929 620.6045,-129.3226 616.5861,-135.0544"/>
</g>
<!-- Node379744&#45;&gt;Node379743 -->
<g id="edge17" class="edge">
<title>Node379744&#45;&gt;Node379743</title>
<path fill="none" stroke="#191970" d="M344.2299,-157.1315C359.9671,-174.9127 396.0593,-213.4875 433,-237.5879 438.8481,-241.4032 445.404,-244.8561 451.9051,-247.8774"/>
<polygon fill="#191970" stroke="#191970" points="450.7374,-251.1867 461.302,-251.987 453.5423,-244.7732 450.7374,-251.1867"/>
</g>
<!-- Node379586 -->
<g id="node13" class="node">
<title>Node379586</title>
<g id="a_node13"><a xlink:href="quickjs_8h.html#af763b173e78debf2075670ca2c128a30" target="_top" xlink:title="JS_SetProperty">
<polygon fill="none" stroke="#ff0000" points="445.5,-24.0879 445.5,-43.0879 531.5,-43.0879 531.5,-24.0879 445.5,-24.0879"/>
<text text-anchor="middle" x="488.5" y="-31.0879" font-family="Helvetica,sans-Serif" font-size="10.00" fill="#000000">JS_SetProperty</text>
</a>
</g>
</g>
<!-- Node379744&#45;&gt;Node379586 -->
<g id="edge19" class="edge">
<title>Node379744&#45;&gt;Node379586</title>
<path fill="none" stroke="#191970" d="M344.2299,-138.0442C359.9671,-120.2631 396.0593,-81.6883 433,-57.5879 438.8481,-53.7725 445.404,-50.3196 451.9051,-47.2983"/>
<polygon fill="#191970" stroke="#191970" points="453.5423,-50.4025 461.302,-43.1887 450.7374,-43.989 453.5423,-50.4025"/>
</g>
<!-- Node379595 -->
<g id="node14" class="node">
<title>Node379595</title>
<g id="a_node14"><a xlink:href="quickjs_8c.html#aee75cc1546e19479e3ccda58f3b50a96" target="_top" xlink:title="JS_SetPropertyValue">
<polygon fill="none" stroke="#ff0000" points="433.5,-138.0879 433.5,-157.0879 543.5,-157.0879 543.5,-138.0879 433.5,-138.0879"/>
<text text-anchor="middle" x="488.5" y="-145.0879" font-family="Helvetica,sans-Serif" font-size="10.00" fill="#000000">JS_SetPropertyValue</text>
</a>
</g>
</g>
<!-- Node379744&#45;&gt;Node379595 -->
<g id="edge20" class="edge">
<title>Node379744&#45;&gt;Node379595</title>
<path fill="none" stroke="#191970" d="M389.7658,-147.5879C400.5988,-147.5879 412.0969,-147.5879 423.2722,-147.5879"/>
<polygon fill="#191970" stroke="#191970" points="423.4162,-151.088 433.4162,-147.5879 423.4162,-144.088 423.4162,-151.088"/>
</g>
<!-- Node379595&#45;&gt;Node379368 -->
<g id="edge22" class="edge">
<title>Node379595&#45;&gt;Node379368</title>
<path fill="none" stroke="#191970" d="M499.1297,-157.2189C511.3011,-168.7083 531.2044,-188.9647 544,-209.5879 566.7132,-246.1954 548.4688,-270.2317 580,-299.5879 583.3036,-302.6636 587.1059,-305.2414 591.1575,-307.4019"/>
<polygon fill="#191970" stroke="#191970" points="589.7701,-310.6154 600.3282,-311.4964 592.6239,-304.2236 589.7701,-310.6154"/>
</g>
<!-- Node379595&#45;&gt;Node379367 -->
<g id="edge21" class="edge">
<title>Node379595&#45;&gt;Node379367</title>
<path fill="none" stroke="#191970" d="M543.8694,-147.5879C559.1884,-147.5879 575.7003,-147.5879 590.6213,-147.5879"/>
<polygon fill="#191970" stroke="#191970" points="590.6628,-151.088 600.6628,-147.5879 590.6628,-144.088 590.6628,-151.088"/>
</g>
<!-- Node379745&#45;&gt;Node379314 -->
<g id="edge24" class="edge">
<title>Node379745&#45;&gt;Node379314</title>
<path fill="none" stroke="#191970" d="M380.014,-404.0878C432.8901,-392.0611 517.767,-370.6133 544,-351.5879 566.7548,-335.085 557.4064,-316.3107 580,-299.5879 582.6148,-297.6525 585.4339,-295.9098 588.3734,-294.3412"/>
<polygon fill="#191970" stroke="#191970" points="589.8594,-297.5102 597.4697,-290.1391 586.9237,-291.1555 589.8594,-297.5102"/>
</g>
<!-- Node379745&#45;&gt;Node379381 -->
<g id="edge33" class="edge">
<title>Node379745&#45;&gt;Node379381</title>
<path fill="none" stroke="#191970" d="M338.5222,-423.3591C346.5646,-452.2941 374.5759,-537.7482 433,-573.5879 533.8585,-635.4584 586.4078,-620.9663 699,-584.5879 723.4419,-576.6907 746.6877,-558.102 761.5541,-544.287"/>
<polygon fill="#191970" stroke="#191970" points="764.1343,-546.6612 768.9054,-537.2014 759.2765,-541.6211 764.1343,-546.6612"/>
</g>
<!-- Node379745&#45;&gt;Node379445 -->
<g id="edge35" class="edge">
<title>Node379745&#45;&gt;Node379445</title>
<path fill="none" stroke="#191970" d="M347.6012,-423.2356C364.9014,-436.9276 399.0745,-461.3579 433,-470.5879 536.6435,-498.7858 664.0834,-478.2426 731.3262,-463.3467"/>
<polygon fill="#191970" stroke="#191970" points="732.2185,-466.7333 741.1946,-461.1047 730.6676,-459.9072 732.2185,-466.7333"/>
</g>
<!-- Node379745&#45;&gt;Node379367 -->
<g id="edge25" class="edge">
<title>Node379745&#45;&gt;Node379367</title>
<path fill="none" stroke="#191970" d="M350.9378,-404.0427C398.566,-373.608 543.7399,-280.8343 544,-280.5879 581.3058,-245.2381 613.5507,-193.4824 629.2761,-166.1252"/>
<polygon fill="#191970" stroke="#191970" points="632.432,-167.6544 634.301,-157.2257 626.3366,-164.2126 632.432,-167.6544"/>
</g>
<!-- Node379745&#45;&gt;Node379743 -->
<g id="edge34" class="edge">
<title>Node379745&#45;&gt;Node379743</title>
<path fill="none" stroke="#191970" d="M345.5396,-404.0796C370.7869,-378.915 439.6047,-310.3229 471.6564,-278.3763"/>
<polygon fill="#191970" stroke="#191970" points="474.3522,-280.631 478.964,-271.0925 469.4105,-275.6731 474.3522,-280.631"/>
</g>
<!-- Node379441 -->
<g id="node16" class="node">
<title>Node379441</title>
<g id="a_node16"><a xlink:href="quickjs_8h.html#a89b7c8686c7eee70b86be722ee4730ad" target="_top" xlink:title="JS_GetProperty">
<polygon fill="none" stroke="#ff0000" points="596.5,-556.0879 596.5,-575.0879 682.5,-575.0879 682.5,-556.0879 596.5,-556.0879"/>
<text text-anchor="middle" x="639.5" y="-563.0879" font-family="Helvetica,sans-Serif" font-size="10.00" fill="#000000">JS_GetProperty</text>
</a>
</g>
</g>
<!-- Node379745&#45;&gt;Node379441 -->
<g id="edge26" class="edge">
<title>Node379745&#45;&gt;Node379441</title>
<path fill="none" stroke="#191970" d="M339.646,-423.1312C349.8834,-448.4513 381.55,-517.3882 433,-546.5879 479.6693,-573.0743 541.9958,-575.1592 585.9268,-572.2785"/>
<polygon fill="#191970" stroke="#191970" points="586.4159,-575.7514 596.1203,-571.4999 585.8828,-568.7717 586.4159,-575.7514"/>
</g>
<!-- Node379494 -->
<g id="node17" class="node">
<title>Node379494</title>
<g id="a_node17"><a xlink:href="quickjs_8c.html#a90d6e607f6917d817c1e997bd2e6ed07" target="_top" xlink:title="JS_GetPropertyValue">
<polygon fill="none" stroke="#ff0000" points="433,-404.0879 433,-423.0879 544,-423.0879 544,-404.0879 433,-404.0879"/>
<text text-anchor="middle" x="488.5" y="-411.0879" font-family="Helvetica,sans-Serif" font-size="10.00" fill="#000000">JS_GetPropertyValue</text>
</a>
</g>
</g>
<!-- Node379745&#45;&gt;Node379494 -->
<g id="edge27" class="edge">
<title>Node379745&#45;&gt;Node379494</title>
<path fill="none" stroke="#191970" d="M397.1489,-413.5879C405.5143,-413.5879 414.1324,-413.5879 422.5782,-413.5879"/>
<polygon fill="#191970" stroke="#191970" points="422.7663,-417.088 432.7663,-413.5879 422.7663,-410.088 422.7663,-417.088"/>
</g>
<!-- Node379611 -->
<g id="node18" class="node">
<title>Node379611</title>
<g id="a_node18"><a xlink:href="quickjs_8c.html#a9d6d0a9704951d01c128975e0d2213f8" target="_top" xlink:title="JS_HasProperty">
<polygon fill="none" stroke="#ff0000" points="444,-518.0879 444,-537.0879 533,-537.0879 533,-518.0879 444,-518.0879"/>
<text text-anchor="middle" x="488.5" y="-525.0879" font-family="Helvetica,sans-Serif" font-size="10.00" fill="#000000">JS_HasProperty</text>
</a>
</g>
</g>
<!-- Node379745&#45;&gt;Node379611 -->
<g id="edge32" class="edge">
<title>Node379745&#45;&gt;Node379611</title>
<path fill="none" stroke="#191970" d="M344.2299,-423.1315C359.9671,-440.9127 396.0593,-479.4875 433,-503.5879 438.8481,-507.4032 445.404,-510.8561 451.9051,-513.8774"/>
<polygon fill="#191970" stroke="#191970" points="450.7374,-517.1867 461.302,-517.987 453.5423,-510.7732 450.7374,-517.1867"/>
</g>
<!-- Node379494&#45;&gt;Node379368 -->
<g id="edge29" class="edge">
<title>Node379494&#45;&gt;Node379368</title>
<path fill="none" stroke="#191970" d="M513.9642,-404.027C523.6134,-400.0326 534.5457,-395.0479 544,-389.5879 572.2366,-373.2807 601.9553,-350.0943 620.5962,-334.7091"/>
<polygon fill="#191970" stroke="#191970" points="622.9065,-337.3397 628.3363,-328.242 618.4182,-331.968 622.9065,-337.3397"/>
</g>
<!-- Node379494&#45;&gt;Node379445 -->
<g id="edge31" class="edge">
<title>Node379494&#45;&gt;Node379445</title>
<path fill="none" stroke="#191970" d="M544.0212,-418.9713C586.534,-423.3224 646.5858,-429.963 699,-437.5879 709.0278,-439.0466 719.7361,-440.8069 729.9283,-442.5795"/>
<polygon fill="#191970" stroke="#191970" points="729.4471,-446.0487 739.9041,-444.3455 730.6674,-439.1558 729.4471,-446.0487"/>
</g>
<!-- Node379494&#45;&gt;Node379367 -->
<g id="edge28" class="edge">
<title>Node379494&#45;&gt;Node379367</title>
<path fill="none" stroke="#191970" d="M499.1297,-403.9568C511.3011,-392.4674 531.2044,-372.211 544,-351.5879 566.7132,-314.9803 562.0104,-300.7334 580,-261.5879 595.8353,-227.1299 616.8523,-188.2089 629.2028,-165.9183"/>
<polygon fill="#191970" stroke="#191970" points="632.26,-167.6222 634.0715,-157.1834 626.1457,-164.2141 632.26,-167.6222"/>
</g>
<!-- Node379494&#45;&gt;Node379441 -->
<g id="edge30" class="edge">
<title>Node379494&#45;&gt;Node379441</title>
<path fill="none" stroke="#191970" d="M530.7353,-423.1962C535.6409,-425.6482 540.2292,-428.7256 544,-432.5879 581.1179,-470.6059 542.4898,-508.9569 580,-546.5879 582.2248,-548.8199 584.7114,-550.79 587.3715,-552.5288"/>
<polygon fill="#191970" stroke="#191970" points="585.8821,-555.7014 596.3506,-557.3331 589.1845,-549.5294 585.8821,-555.7014"/>
</g>
<!-- Node379571&#45;&gt;Node379381 -->
<g id="edge39" class="edge">
<title>Node379571&#45;&gt;Node379381</title>
<path fill="none" stroke="#191970" d="M531.2016,-685.0771C576.4472,-688.6713 648.2297,-687.8214 699,-655.5879 739.0746,-630.1449 762.0694,-576.2973 772.0345,-547.2117"/>
<polygon fill="#191970" stroke="#191970" points="775.4649,-547.9797 775.2242,-537.3876 768.8071,-545.818 775.4649,-547.9797"/>
</g>
<!-- Node379571&#45;&gt;Node379441 -->
<g id="edge38" class="edge">
<title>Node379571&#45;&gt;Node379441</title>
<path fill="none" stroke="#191970" d="M501.1145,-670.0644C527.0305,-650.4986 586.5031,-605.5988 618.3899,-581.5253"/>
<polygon fill="#191970" stroke="#191970" points="620.7293,-584.1446 626.6014,-575.3259 616.5115,-578.5579 620.7293,-584.1446"/>
</g>
</g>
</svg>
