<?xml version="1.0" encoding="UTF-8" standalone="no"?>
<!DOCTYPE svg PUBLIC "-//W3C//DTD SVG 1.1//EN"
 "http://www.w3.org/Graphics/SVG/1.1/DTD/svg11.dtd">
<!-- Generated by graphviz version 2.40.1 (20161225.0304)
 -->
<!-- Title: js_array_from_iterator Pages: 1 -->
<svg width="654pt" height="78pt"
 viewBox="0.00 0.00 654.00 77.50" xmlns="http://www.w3.org/2000/svg" xmlns:xlink="http://www.w3.org/1999/xlink">
<g id="graph0" class="graph" transform="scale(1 1) rotate(0) translate(4 73.5)">
<title>js_array_from_iterator</title>
<!-- Node462354 -->
<g id="node1" class="node">
<title>Node462354</title>
<polygon fill="#bfbfbf" stroke="#000000" points="0,-28 0,-47 111,-47 111,-28 0,-28"/>
<text text-anchor="middle" x="55.5" y="-35" font-family="Helvetica,sans-Serif" font-size="10.00" fill="#000000">js_array_from_iterator</text>
</g>
<!-- Node462355 -->
<g id="node2" class="node">
<title>Node462355</title>
<g id="a_node2"><a xlink:href="quickjs_8c.html#acf0e1803a9586d86d752b002a89fb8ed" target="_top" xlink:title="js_typed_array_constructor_obj">
<polygon fill="none" stroke="#000000" points="147,-28 147,-47 299,-47 299,-28 147,-28"/>
<text text-anchor="middle" x="223" y="-35" font-family="Helvetica,sans-Serif" font-size="10.00" fill="#000000">js_typed_array_constructor_obj</text>
</a>
</g>
</g>
<!-- Node462354&#45;&gt;Node462355 -->
<g id="edge1" class="edge">
<title>Node462354&#45;&gt;Node462355</title>
<path fill="none" stroke="#191970" d="M121.351,-37.5C129.7331,-37.5 138.3662,-37.5 146.8927,-37.5"/>
<polygon fill="#191970" stroke="#191970" points="121.2751,-34.0001 111.2751,-37.5 121.275,-41.0001 121.2751,-34.0001"/>
</g>
<!-- Node462356 -->
<g id="node3" class="node">
<title>Node462356</title>
<g id="a_node3"><a xlink:href="quickjs_8c.html#a3be661c1eaa7a31184410667862635a2" target="_top" xlink:title="js_typed_array_constructor">
<polygon fill="none" stroke="#000000" points="335,-28 335,-47 469,-47 469,-28 335,-28"/>
<text text-anchor="middle" x="402" y="-35" font-family="Helvetica,sans-Serif" font-size="10.00" fill="#000000">js_typed_array_constructor</text>
</a>
</g>
</g>
<!-- Node462355&#45;&gt;Node462356 -->
<g id="edge2" class="edge">
<title>Node462355&#45;&gt;Node462356</title>
<path fill="none" stroke="#191970" d="M309.2645,-37.5C317.8942,-37.5 326.5641,-37.5 334.9527,-37.5"/>
<polygon fill="#191970" stroke="#191970" points="309.1717,-34.0001 299.1717,-37.5 309.1716,-41.0001 309.1717,-34.0001"/>
</g>
<!-- Node462357 -->
<g id="node4" class="node">
<title>Node462357</title>
<g id="a_node4"><a xlink:href="quickjs_8c.html#a177d09828596bfe6df4bd90b2e93989d" target="_top" xlink:title="JS_AddIntrinsicTypedArrays">
<polygon fill="none" stroke="#ff0000" points="505,-50 505,-69 646,-69 646,-50 505,-50"/>
<text text-anchor="middle" x="575.5" y="-57" font-family="Helvetica,sans-Serif" font-size="10.00" fill="#000000">JS_AddIntrinsicTypedArrays</text>
</a>
</g>
</g>
<!-- Node462356&#45;&gt;Node462357 -->
<g id="edge3" class="edge">
<title>Node462356&#45;&gt;Node462357</title>
<path fill="none" stroke="#191970" d="M479.0756,-47.2733C487.6582,-48.3616 496.3687,-49.4661 504.8654,-50.5435"/>
<polygon fill="#191970" stroke="#191970" points="479.4405,-43.7916 469.0796,-46.0058 478.5599,-50.736 479.4405,-43.7916"/>
</g>
<!-- Node462359 -->
<g id="node5" class="node">
<title>Node462359</title>
<g id="a_node5"><a xlink:href="quickjs_8c.html#ae5a8e884ec4a3364f63ebfeae6b08bdc" target="_top" xlink:title="js_typed_array___species\lCreate">
<polygon fill="none" stroke="#ff0000" points="510.5,-.5 510.5,-30.5 640.5,-30.5 640.5,-.5 510.5,-.5"/>
<text text-anchor="start" x="518.5" y="-18.5" font-family="Helvetica,sans-Serif" font-size="10.00" fill="#000000">js_typed_array___species</text>
<text text-anchor="middle" x="575.5" y="-7.5" font-family="Helvetica,sans-Serif" font-size="10.00" fill="#000000">Create</text>
</a>
</g>
</g>
<!-- Node462356&#45;&gt;Node462359 -->
<g id="edge4" class="edge">
<title>Node462356&#45;&gt;Node462359</title>
<path fill="none" stroke="#191970" d="M479.0165,-27.7342C489.4626,-26.4096 500.0994,-25.0609 510.3107,-23.7661"/>
<polygon fill="#191970" stroke="#191970" points="478.5599,-24.264 469.0796,-28.9942 479.4405,-31.2084 478.5599,-24.264"/>
</g>
</g>
</svg>
