<?xml version="1.0" encoding="UTF-8" standalone="no"?>
<!DOCTYPE svg PUBLIC "-//W3C//DTD SVG 1.1//EN"
 "http://www.w3.org/Graphics/SVG/1.1/DTD/svg11.dtd">
<!-- Generated by graphviz version 2.40.1 (20161225.0304)
 -->
<!-- Title: js_free_string Pages: 1 -->
<!--zoomable 578 -->
<svg id="main" version="1.1" xmlns="http://www.w3.org/2000/svg" xmlns:xlink="http://www.w3.org/1999/xlink" xml:space="preserve" onload="init(evt)">
<style type="text/css"><![CDATA[
.edge:hover path { stroke: red; }
.edge:hover polygon { stroke: red; fill: red; }
]]></style>
<script type="text/javascript"><![CDATA[
var edges = document.getElementsByTagName('g');
if (edges && edges.length) {
  for (var i=0;i<edges.length;i++) {
    if (edges[i].id.substr(0,4)=='edge') {
      edges[i].setAttribute('class','edge');
    }
  }
}
]]></script>
        <defs>
                <circle id="rim" cx="0" cy="0" r="7"/>
                <circle id="rim2" cx="0" cy="0" r="3.5"/>
                <g id="zoomPlus">
                        <use xlink:href="#rim" fill="#404040">
                                <set attributeName="fill" to="#808080" begin="zoomplus.mouseover" end="zoomplus.mouseout"/>
                        </use>
                        <path d="M-4,0h8M0,-4v8" fill="none" stroke="white" stroke-width="1.5" pointer-events="none"/>
                </g>
                <g id="zoomMin">
                        <use xlink:href="#rim" fill="#404040">
                                <set attributeName="fill" to="#808080" begin="zoomminus.mouseover" end="zoomminus.mouseout"/>
                        </use>
                        <path d="M-4,0h8" fill="none" stroke="white" stroke-width="1.5" pointer-events="none"/>
                </g>
                <g id="dirArrow">
                        <path fill="none" stroke="white" stroke-width="1.5" d="M0,-3.0v7 M-2.5,-0.5L0,-3.0L2.5,-0.5"/>
                </g>
               <g id="resetDef">
                       <use xlink:href="#rim2" fill="#404040">
                               <set attributeName="fill" to="#808080" begin="reset.mouseover" end="reset.mouseout"/>
                       </use>
               </g>
        </defs>

<script type="text/javascript">
var viewWidth = 519;
var viewHeight = 578;
var sectionId = 'dynsection-183';
</script>
<script xlink:href="svgpan.js"/>
<svg id="graph" class="graph">
<g id="viewport">
<title>js_free_string</title>
<!-- Node65108 -->
<g id="node1" class="node">
<title>Node65108</title>
<polygon fill="#bfbfbf" stroke="#000000" points="0,-341.5 0,-360.5 75,-360.5 75,-341.5 0,-341.5"/>
<text text-anchor="middle" x="37.5" y="-348.5" font-family="Helvetica,sans-Serif" font-size="10.00" fill="#000000">js_free_string</text>
</g>
<!-- Node65109 -->
<g id="node2" class="node">
<title>Node65109</title>
<g id="a_node2"><a xlink:href="quickjs_8c.html#acd08798ec15cc37c60d2e7d70007c6a8" target="_top" xlink:title="__JS_NewAtom">
<polygon fill="none" stroke="#000000" points="111,-341.5 111,-360.5 199,-360.5 199,-341.5 111,-341.5"/>
<text text-anchor="middle" x="155" y="-348.5" font-family="Helvetica,sans-Serif" font-size="10.00" fill="#000000">__JS_NewAtom</text>
</a>
</g>
</g>
<!-- Node65108&#45;&gt;Node65109 -->
<g id="edge1" class="edge">
<title>Node65108&#45;&gt;Node65109</title>
<path fill="none" stroke="#191970" d="M85.162,-351C93.6642,-351 102.4879,-351 110.8856,-351"/>
<polygon fill="#191970" stroke="#191970" points="85.0008,-347.5001 75.0008,-351 85.0008,-354.5001 85.0008,-347.5001"/>
</g>
<!-- Node65125 -->
<g id="node6" class="node">
<title>Node65125</title>
<g id="a_node6"><a xlink:href="quickjs_8c.html#a33fd643aff7f70e649d246385cd99b00" target="_top" xlink:title="JS_NewAtomStr">
<polygon fill="none" stroke="#000000" points="243.5,-464.5 243.5,-483.5 333.5,-483.5 333.5,-464.5 243.5,-464.5"/>
<text text-anchor="middle" x="288.5" y="-471.5" font-family="Helvetica,sans-Serif" font-size="10.00" fill="#000000">JS_NewAtomStr</text>
</a>
</g>
</g>
<!-- Node65108&#45;&gt;Node65125 -->
<g id="edge23" class="edge">
<title>Node65108&#45;&gt;Node65125</title>
<path fill="none" stroke="#191970" d="M66.4679,-365.1954C118.1387,-390.5162 224.9031,-442.835 268.8959,-464.3932"/>
<polygon fill="#191970" stroke="#191970" points="67.7155,-361.9092 57.1955,-360.6516 64.6351,-368.195 67.7155,-361.9092"/>
</g>
<!-- Node65734 -->
<g id="node23" class="node">
<title>Node65734</title>
<g id="a_node23"><a xlink:href="quickjs_8c.html#a73a002c998fe7508eae9aa069fac802b" target="_top" xlink:title="JS_ReadString">
<polygon fill="none" stroke="#000000" points="113.5,-303.5 113.5,-322.5 196.5,-322.5 196.5,-303.5 113.5,-303.5"/>
<text text-anchor="middle" x="155" y="-310.5" font-family="Helvetica,sans-Serif" font-size="10.00" fill="#000000">JS_ReadString</text>
</a>
</g>
</g>
<!-- Node65108&#45;&gt;Node65734 -->
<g id="edge24" class="edge">
<title>Node65108&#45;&gt;Node65734</title>
<path fill="none" stroke="#191970" d="M76.7092,-338.3196C92.5854,-333.1852 110.61,-327.3559 125.3593,-322.5859"/>
<polygon fill="#191970" stroke="#191970" points="75.588,-335.0036 67.1502,-341.411 77.742,-341.664 75.588,-335.0036"/>
</g>
<!-- Node65110 -->
<g id="node3" class="node">
<title>Node65110</title>
<g id="a_node3"><a xlink:href="quickjs_8c.html#a128673f932e71b867730af75a44e3f97" target="_top" xlink:title="__JS_NewAtomInit">
<polygon fill="none" stroke="#000000" points="238,-360.5 238,-379.5 339,-379.5 339,-360.5 238,-360.5"/>
<text text-anchor="middle" x="288.5" y="-367.5" font-family="Helvetica,sans-Serif" font-size="10.00" fill="#000000">__JS_NewAtomInit</text>
</a>
</g>
</g>
<!-- Node65109&#45;&gt;Node65110 -->
<g id="edge2" class="edge">
<title>Node65109&#45;&gt;Node65110</title>
<path fill="none" stroke="#191970" d="M209.223,-358.7171C218.7303,-360.0702 228.5893,-361.4734 237.9907,-362.8114"/>
<polygon fill="#191970" stroke="#191970" points="209.4763,-355.218 199.0829,-357.274 208.4899,-362.1482 209.4763,-355.218"/>
</g>
<!-- Node65109&#45;&gt;Node65125 -->
<g id="edge5" class="edge">
<title>Node65109&#45;&gt;Node65125</title>
<path fill="none" stroke="#191970" d="M168.3901,-368.9663C183.2882,-388.2098 208.7388,-418.9511 235,-441 245.698,-449.982 259.073,-458.232 269.7735,-464.2365"/>
<polygon fill="#191970" stroke="#191970" points="170.9889,-366.6021 162.1445,-360.7688 165.4209,-370.8443 170.9889,-366.6021"/>
</g>
<!-- Node65729 -->
<g id="node11" class="node">
<title>Node65729</title>
<g id="a_node11"><a xlink:href="quickjs_8c.html#a7445082229205ad47aec019d74536f8e" target="_top" xlink:title="JS_NewAtomUInt32">
<polygon fill="none" stroke="#000000" points="235,-190.5 235,-209.5 342,-209.5 342,-190.5 235,-190.5"/>
<text text-anchor="middle" x="288.5" y="-197.5" font-family="Helvetica,sans-Serif" font-size="10.00" fill="#000000">JS_NewAtomUInt32</text>
</a>
</g>
</g>
<!-- Node65109&#45;&gt;Node65729 -->
<g id="edge10" class="edge">
<title>Node65109&#45;&gt;Node65729</title>
<path fill="none" stroke="#191970" d="M192.6969,-336.5281C194.9137,-335.1324 197.0368,-333.6246 199,-332 242.5155,-295.9899 273.5115,-233.5496 284.3082,-209.669"/>
<polygon fill="#191970" stroke="#191970" points="190.9281,-333.506 183.8233,-341.3656 194.2787,-339.652 190.9281,-333.506"/>
</g>
<!-- Node65730 -->
<g id="node14" class="node">
<title>Node65730</title>
<g id="a_node14"><a xlink:href="quickjs_8c.html#aa641af3a921335927dab07dc83285917" target="_top" xlink:title="JS_NewAtomInt64">
<polygon fill="none" stroke="#000000" points="239,-95.5 239,-114.5 338,-114.5 338,-95.5 239,-95.5"/>
<text text-anchor="middle" x="288.5" y="-102.5" font-family="Helvetica,sans-Serif" font-size="10.00" fill="#000000">JS_NewAtomInt64</text>
</a>
</g>
</g>
<!-- Node65109&#45;&gt;Node65730 -->
<g id="edge14" class="edge">
<title>Node65109&#45;&gt;Node65730</title>
<path fill="none" stroke="#191970" d="M195.7411,-335.369C196.9042,-334.3162 197.9966,-333.1947 199,-332 243.3721,-279.1699 206.6345,-243.8912 235,-181 246.8087,-154.8181 268.061,-128.3025 279.9154,-114.5751"/>
<polygon fill="#191970" stroke="#191970" points="193.3925,-332.7424 187.2356,-341.3646 197.4256,-338.4638 193.3925,-332.7424"/>
</g>
<!-- Node65731 -->
<g id="node19" class="node">
<title>Node65731</title>
<g id="a_node19"><a xlink:href="quickjs_8c.html#a4709c57b3c941673dcc69e07eb45182c" target="_top" xlink:title="JS_NewSymbol">
<polygon fill="none" stroke="#000000" points="245,-303.5 245,-322.5 332,-322.5 332,-303.5 245,-303.5"/>
<text text-anchor="middle" x="288.5" y="-310.5" font-family="Helvetica,sans-Serif" font-size="10.00" fill="#000000">JS_NewSymbol</text>
</a>
</g>
</g>
<!-- Node65109&#45;&gt;Node65731 -->
<g id="edge19" class="edge">
<title>Node65109&#45;&gt;Node65731</title>
<path fill="none" stroke="#191970" d="M198.53,-338.6094C216.8122,-333.4055 237.7492,-327.4459 254.8231,-322.5859"/>
<polygon fill="#191970" stroke="#191970" points="197.3474,-335.3069 188.6877,-341.411 199.2639,-342.0395 197.3474,-335.3069"/>
</g>
<!-- Node65111 -->
<g id="node4" class="node">
<title>Node65111</title>
<g id="a_node4"><a xlink:href="quickjs_8c.html#a2469c0e8a95a75d5835ec98ea967085f" target="_top" xlink:title="JS_InitAtoms">
<polygon fill="none" stroke="#ff0000" points="406.5,-360.5 406.5,-379.5 482.5,-379.5 482.5,-360.5 406.5,-360.5"/>
<text text-anchor="middle" x="444.5" y="-367.5" font-family="Helvetica,sans-Serif" font-size="10.00" fill="#000000">JS_InitAtoms</text>
</a>
</g>
</g>
<!-- Node65110&#45;&gt;Node65111 -->
<g id="edge3" class="edge">
<title>Node65110&#45;&gt;Node65111</title>
<path fill="none" stroke="#191970" d="M349.3512,-370C368.5909,-370 389.295,-370 406.4613,-370"/>
<polygon fill="#191970" stroke="#191970" points="349.1488,-366.5001 339.1487,-370 349.1487,-373.5001 349.1488,-366.5001"/>
</g>
<!-- Node65115 -->
<g id="node5" class="node">
<title>Node65115</title>
<g id="a_node5"><a xlink:href="quickjs_8c.html#a9f0339d81c06451de278073572cc194e" target="_top" xlink:title="JS_NewClass">
<polygon fill="none" stroke="#ff0000" points="404.5,-398.5 404.5,-417.5 484.5,-417.5 484.5,-398.5 404.5,-398.5"/>
<text text-anchor="middle" x="444.5" y="-405.5" font-family="Helvetica,sans-Serif" font-size="10.00" fill="#000000">JS_NewClass</text>
</a>
</g>
</g>
<!-- Node65110&#45;&gt;Node65115 -->
<g id="edge4" class="edge">
<title>Node65110&#45;&gt;Node65115</title>
<path fill="none" stroke="#191970" d="M337.6317,-381.968C359.4927,-387.2931 384.8761,-393.4762 405.4177,-398.4799"/>
<polygon fill="#191970" stroke="#191970" points="338.4097,-378.5552 327.8654,-379.589 336.7529,-385.3563 338.4097,-378.5552"/>
</g>
<!-- Node65126 -->
<g id="node7" class="node">
<title>Node65126</title>
<g id="a_node7"><a xlink:href="quickjs_8c.html#a522741f41afb1d0da0aa55968cd8579e" target="_top" xlink:title="JS_NewAtomLen">
<polygon fill="none" stroke="#ff0000" points="398,-550.5 398,-569.5 491,-569.5 491,-550.5 398,-550.5"/>
<text text-anchor="middle" x="444.5" y="-557.5" font-family="Helvetica,sans-Serif" font-size="10.00" fill="#000000">JS_NewAtomLen</text>
</a>
</g>
</g>
<!-- Node65125&#45;&gt;Node65126 -->
<g id="edge6" class="edge">
<title>Node65125&#45;&gt;Node65126</title>
<path fill="none" stroke="#191970" d="M306.2494,-490.4064C323.4312,-505.4946 350.8037,-527.5103 378,-541 385.5296,-544.7348 393.9136,-547.8477 402.1216,-550.3996"/>
<polygon fill="#191970" stroke="#191970" points="308.4623,-487.6897 298.6788,-483.6236 303.7913,-492.9033 308.4623,-487.6897"/>
</g>
<!-- Node65642 -->
<g id="node8" class="node">
<title>Node65642</title>
<g id="a_node8"><a xlink:href="quickjs_8c.html#a859d5c989a2aaecef1653b3ac279e108" target="_top" xlink:title="JS_ValueToAtom">
<polygon fill="none" stroke="#ff0000" points="398,-512.5 398,-531.5 491,-531.5 491,-512.5 398,-512.5"/>
<text text-anchor="middle" x="444.5" y="-519.5" font-family="Helvetica,sans-Serif" font-size="10.00" fill="#000000">JS_ValueToAtom</text>
</a>
</g>
</g>
<!-- Node65125&#45;&gt;Node65642 -->
<g id="edge7" class="edge">
<title>Node65125&#45;&gt;Node65642</title>
<path fill="none" stroke="#191970" d="M326.9709,-486.792C342.7457,-491.952 361.2103,-497.8831 378,-503 388.4519,-506.1854 399.8759,-509.5069 410.2603,-512.4654"/>
<polygon fill="#191970" stroke="#191970" points="327.6304,-483.3247 317.0376,-483.5287 325.4456,-489.975 327.6304,-483.3247"/>
</g>
<!-- Node65727 -->
<g id="node9" class="node">
<title>Node65727</title>
<g id="a_node9"><a xlink:href="quickjs_8c.html#a22324bb35cdaa36ce844506a073bb7f4" target="_top" xlink:title="emit_push_const">
<polygon fill="none" stroke="#ff0000" points="399,-474.5 399,-493.5 490,-493.5 490,-474.5 399,-474.5"/>
<text text-anchor="middle" x="444.5" y="-481.5" font-family="Helvetica,sans-Serif" font-size="10.00" fill="#000000">emit_push_const</text>
</a>
</g>
</g>
<!-- Node65125&#45;&gt;Node65727 -->
<g id="edge8" class="edge">
<title>Node65125&#45;&gt;Node65727</title>
<path fill="none" stroke="#191970" d="M343.7349,-477.5407C361.8062,-478.6991 381.6643,-479.9721 398.9393,-481.0794"/>
<polygon fill="#191970" stroke="#191970" points="343.8251,-474.0394 333.6217,-476.8924 343.3772,-481.0251 343.8251,-474.0394"/>
</g>
<!-- Node65728 -->
<g id="node10" class="node">
<title>Node65728</title>
<g id="a_node10"><a xlink:href="quickjs_8c.html#ad54b242d774ba44b2ac39fe8161aaf9c" target="_top" xlink:title="JS_ReadObjectAtoms">
<polygon fill="none" stroke="#ff0000" points="387.5,-436.5 387.5,-455.5 501.5,-455.5 501.5,-436.5 387.5,-436.5"/>
<text text-anchor="middle" x="444.5" y="-443.5" font-family="Helvetica,sans-Serif" font-size="10.00" fill="#000000">JS_ReadObjectAtoms</text>
</a>
</g>
</g>
<!-- Node65125&#45;&gt;Node65728 -->
<g id="edge9" class="edge">
<title>Node65125&#45;&gt;Node65728</title>
<path fill="none" stroke="#191970" d="M343.6221,-464.1063C359.1764,-461.3145 376.0624,-458.2837 391.49,-455.5146"/>
<polygon fill="#191970" stroke="#191970" points="342.846,-460.6896 333.6217,-465.9012 344.0827,-467.5795 342.846,-460.6896"/>
</g>
<!-- Node65319 -->
<g id="node12" class="node">
<title>Node65319</title>
<g id="a_node12"><a xlink:href="quickjs_8c.html#aeb73aae9c3ad7daaf7646e3f2f89245a" target="_top" xlink:title="set_array_length">
<polygon fill="none" stroke="#ff0000" points="400,-152.5 400,-171.5 489,-171.5 489,-152.5 400,-152.5"/>
<text text-anchor="middle" x="444.5" y="-159.5" font-family="Helvetica,sans-Serif" font-size="10.00" fill="#000000">set_array_length</text>
</a>
</g>
</g>
<!-- Node65729&#45;&gt;Node65319 -->
<g id="edge11" class="edge">
<title>Node65729&#45;&gt;Node65319</title>
<path fill="none" stroke="#191970" d="M337.6317,-188.032C359.4927,-182.7069 384.8761,-176.5238 405.4177,-171.5201"/>
<polygon fill="#191970" stroke="#191970" points="336.7529,-184.6437 327.8654,-190.411 338.4097,-191.4448 336.7529,-184.6437"/>
</g>
<!-- Node65242 -->
<g id="node13" class="node">
<title>Node65242</title>
<g id="a_node13"><a xlink:href="quickjs_8c.html#a624282391413d4c5a030adbd8b77aa80" target="_top" xlink:title="internalize_json_property">
<polygon fill="none" stroke="#ff0000" points="382,-190.5 382,-209.5 507,-209.5 507,-190.5 382,-190.5"/>
<text text-anchor="middle" x="444.5" y="-197.5" font-family="Helvetica,sans-Serif" font-size="10.00" fill="#000000">internalize_json_property</text>
</a>
</g>
</g>
<!-- Node65729&#45;&gt;Node65242 -->
<g id="edge12" class="edge">
<title>Node65729&#45;&gt;Node65242</title>
<path fill="none" stroke="#191970" d="M352.2365,-200C362.0141,-200 372.1012,-200 381.8547,-200"/>
<polygon fill="#191970" stroke="#191970" points="352.1864,-196.5001 342.1864,-200 352.1863,-203.5001 352.1864,-196.5001"/>
</g>
<!-- Node65242&#45;&gt;Node65242 -->
<g id="edge13" class="edge">
<title>Node65242&#45;&gt;Node65242</title>
<path fill="none" stroke="#191970" d="M415.3809,-218.6539C416.5981,-223.9368 426.3044,-228 444.5,-228 472.2266,-228 480.2413,-218.5653 468.5441,-209.7571"/>
<polygon fill="#191970" stroke="#191970" points="418.5412,-220.1775 420.4559,-209.7571 412.4609,-216.7091 418.5412,-220.1775"/>
</g>
<!-- Node65413 -->
<g id="node15" class="node">
<title>Node65413</title>
<g id="a_node15"><a xlink:href="quickjs_8c.html#a14674e74168715dc5a3a391910982e5d" target="_top" xlink:title="JS_TryGetPropertyInt64">
<polygon fill="none" stroke="#ff0000" points="383.5,-38.5 383.5,-57.5 505.5,-57.5 505.5,-38.5 383.5,-38.5"/>
<text text-anchor="middle" x="444.5" y="-45.5" font-family="Helvetica,sans-Serif" font-size="10.00" fill="#000000">JS_TryGetPropertyInt64</text>
</a>
</g>
</g>
<!-- Node65730&#45;&gt;Node65413 -->
<g id="edge15" class="edge">
<title>Node65730&#45;&gt;Node65413</title>
<path fill="none" stroke="#191970" d="M327.2165,-92.0004C332.2342,-90.0971 337.2698,-88.0753 342,-86 358.5674,-78.7315 361.2121,-73.7435 378,-67 386.9135,-63.4196 396.7502,-60.2214 406.0626,-57.5163"/>
<polygon fill="#191970" stroke="#191970" points="325.8593,-88.7701 317.6743,-95.4973 328.268,-95.3426 325.8593,-88.7701"/>
</g>
<!-- Node65442 -->
<g id="node16" class="node">
<title>Node65442</title>
<g id="a_node16"><a xlink:href="quickjs_8c.html#a7bb763b31e1c40a04aa0c1d5db0f1191" target="_top" xlink:title="JS_GetPropertyInt64">
<polygon fill="none" stroke="#ff0000" points="390.5,-.5 390.5,-19.5 498.5,-19.5 498.5,-.5 390.5,-.5"/>
<text text-anchor="middle" x="444.5" y="-7.5" font-family="Helvetica,sans-Serif" font-size="10.00" fill="#000000">JS_GetPropertyInt64</text>
</a>
</g>
</g>
<!-- Node65730&#45;&gt;Node65442 -->
<g id="edge16" class="edge">
<title>Node65730&#45;&gt;Node65442</title>
<path fill="none" stroke="#191970" d="M334.6905,-90.9672C337.2654,-89.4685 339.7264,-87.8175 342,-86 365.4042,-67.2911 354.0187,-46.9631 378,-29 383.1895,-25.1129 389.1485,-22.0202 395.3216,-19.5598"/>
<polygon fill="#191970" stroke="#191970" points="332.9921,-87.9031 325.604,-95.4969 336.1152,-94.1678 332.9921,-87.9031"/>
</g>
<!-- Node65285 -->
<g id="node17" class="node">
<title>Node65285</title>
<g id="a_node17"><a xlink:href="quickjs_8c.html#a51b06daa618640e531fe808770553b96" target="_top" xlink:title="JS_SetPropertyInt64">
<polygon fill="none" stroke="#ff0000" points="391,-114.5 391,-133.5 498,-133.5 498,-114.5 391,-114.5"/>
<text text-anchor="middle" x="444.5" y="-121.5" font-family="Helvetica,sans-Serif" font-size="10.00" fill="#000000">JS_SetPropertyInt64</text>
</a>
</g>
</g>
<!-- Node65730&#45;&gt;Node65285 -->
<g id="edge17" class="edge">
<title>Node65730&#45;&gt;Node65285</title>
<path fill="none" stroke="#191970" d="M348.3129,-112.2849C362.3194,-113.9908 377.1545,-115.7977 390.8716,-117.4683"/>
<polygon fill="#191970" stroke="#191970" points="348.6381,-108.7987 338.2883,-111.064 347.7917,-115.7474 348.6381,-108.7987"/>
</g>
<!-- Node65685 -->
<g id="node18" class="node">
<title>Node65685</title>
<g id="a_node18"><a xlink:href="quickjs_8c.html#a70e21308fe3760cd95dd1dbb1a8755e6" target="_top" xlink:title="JS_DeletePropertyInt64">
<polygon fill="none" stroke="#ff0000" points="384,-76.5 384,-95.5 505,-95.5 505,-76.5 384,-76.5"/>
<text text-anchor="middle" x="444.5" y="-83.5" font-family="Helvetica,sans-Serif" font-size="10.00" fill="#000000">JS_DeletePropertyInt64</text>
</a>
</g>
</g>
<!-- Node65730&#45;&gt;Node65685 -->
<g id="edge18" class="edge">
<title>Node65730&#45;&gt;Node65685</title>
<path fill="none" stroke="#191970" d="M348.3715,-97.708C360.0457,-96.2861 372.2935,-94.7944 383.9883,-93.37"/>
<polygon fill="#191970" stroke="#191970" points="347.7917,-94.2526 338.2883,-98.936 348.6381,-101.2013 347.7917,-94.2526"/>
</g>
<!-- Node65732 -->
<g id="node20" class="node">
<title>Node65732</title>
<g id="a_node20"><a xlink:href="quickjs_8c.html#a978258a269332de3a28eb005d4a7e402" target="_top" xlink:title="JS_NewSymbolFromAtom">
<polygon fill="none" stroke="#ff0000" points="378,-284.5 378,-303.5 511,-303.5 511,-284.5 378,-284.5"/>
<text text-anchor="middle" x="444.5" y="-291.5" font-family="Helvetica,sans-Serif" font-size="10.00" fill="#000000">JS_NewSymbolFromAtom</text>
</a>
</g>
</g>
<!-- Node65731&#45;&gt;Node65732 -->
<g id="edge20" class="edge">
<title>Node65731&#45;&gt;Node65732</title>
<path fill="none" stroke="#191970" d="M342.5938,-306.4116C353.9921,-305.0234 366.1444,-303.5433 377.9399,-302.1067"/>
<polygon fill="#191970" stroke="#191970" points="341.8733,-302.9735 332.3698,-307.6569 342.7197,-309.9221 341.8733,-302.9735"/>
</g>
<!-- Node65634 -->
<g id="node21" class="node">
<title>Node65634</title>
<g id="a_node21"><a xlink:href="quickjs_8c.html#a61afe2267db511c48066e98e0f1768b9" target="_top" xlink:title="js_symbol_constructor">
<polygon fill="none" stroke="#ff0000" points="387,-246.5 387,-265.5 502,-265.5 502,-246.5 387,-246.5"/>
<text text-anchor="middle" x="444.5" y="-253.5" font-family="Helvetica,sans-Serif" font-size="10.00" fill="#000000">js_symbol_constructor</text>
</a>
</g>
</g>
<!-- Node65731&#45;&gt;Node65634 -->
<g id="edge21" class="edge">
<title>Node65731&#45;&gt;Node65634</title>
<path fill="none" stroke="#191970" d="M318.6929,-299.0819C335.8736,-291.4411 357.9112,-282.1041 378,-275 387.6221,-271.5973 398.1858,-268.3596 408.0051,-265.5524"/>
<polygon fill="#191970" stroke="#191970" points="316.875,-296.0617 309.19,-303.355 319.7457,-302.446 316.875,-296.0617"/>
</g>
<!-- Node65635 -->
<g id="node22" class="node">
<title>Node65635</title>
<g id="a_node22"><a xlink:href="quickjs_8c.html#ad73ff651420d0ac8331be13d2575ee31" target="_top" xlink:title="js_symbol_for">
<polygon fill="none" stroke="#000000" points="406,-322.5 406,-341.5 483,-341.5 483,-322.5 406,-322.5"/>
<text text-anchor="middle" x="444.5" y="-329.5" font-family="Helvetica,sans-Serif" font-size="10.00" fill="#000000">js_symbol_for</text>
</a>
</g>
</g>
<!-- Node65731&#45;&gt;Node65635 -->
<g id="edge22" class="edge">
<title>Node65731&#45;&gt;Node65635</title>
<path fill="none" stroke="#191970" d="M342.4072,-319.5656C363.3351,-322.1145 386.8288,-324.9759 405.9984,-327.3107"/>
<polygon fill="#191970" stroke="#191970" points="342.7197,-316.0779 332.3698,-318.3431 341.8733,-323.0265 342.7197,-316.0779"/>
</g>
<!-- Node65734&#45;&gt;Node65728 -->
<g id="edge27" class="edge">
<title>Node65734&#45;&gt;Node65728</title>
<path fill="none" stroke="#191970" d="M192.7589,-327.3982C194.9606,-328.8118 197.0635,-330.3437 199,-332 221.7704,-351.4753 210.9055,-371.189 235,-389 279.5574,-421.9375 342.0212,-435.8428 387.1353,-441.7128"/>
<polygon fill="#191970" stroke="#191970" points="194.3661,-324.2876 183.9199,-322.5197 190.9836,-330.4161 194.3661,-324.2876"/>
</g>
<!-- Node65363 -->
<g id="node24" class="node">
<title>Node65363</title>
<g id="a_node24"><a xlink:href="quickjs_8c.html#a4b8ef2bb3b35e4a5f6ed8bd837a50e7c" target="_top" xlink:title="JS_ReadObjectRec">
<polygon fill="none" stroke="#ff0000" points="236.5,-39.5 236.5,-58.5 340.5,-58.5 340.5,-39.5 236.5,-39.5"/>
<text text-anchor="middle" x="288.5" y="-46.5" font-family="Helvetica,sans-Serif" font-size="10.00" fill="#000000">JS_ReadObjectRec</text>
</a>
</g>
</g>
<!-- Node65734&#45;&gt;Node65363 -->
<g id="edge25" class="edge">
<title>Node65734&#45;&gt;Node65363</title>
<path fill="none" stroke="#191970" d="M157.7393,-293.3593C164.4163,-251.4437 184.8151,-151.7029 235,-86 243.9114,-74.333 257.5684,-64.974 268.8532,-58.5875"/>
<polygon fill="#191970" stroke="#191970" points="154.2615,-292.9502 156.2364,-303.3593 161.1838,-293.9906 154.2615,-292.9502"/>
</g>
<!-- Node65363&#45;&gt;Node65363 -->
<g id="edge26" class="edge">
<title>Node65363&#45;&gt;Node65363</title>
<path fill="none" stroke="#191970" d="M263.9465,-68.0292C265.2858,-73.128 273.4703,-77 288.5,-77 311.9609,-77 318.7426,-67.5653 308.845,-58.7571"/>
<polygon fill="#191970" stroke="#191970" points="267.209,-69.3096 268.155,-58.7571 260.8348,-66.4164 267.209,-69.3096"/>
</g>
</g>
</svg>
        <g id="navigator" transform="translate(0 0)" fill="#404254">
                <rect fill="#f2f5e9" fill-opacity="0.5" stroke="#606060" stroke-width=".5" x="0" y="0" width="60" height="60"/>
                <use id="zoomplus" xlink:href="#zoomPlus" x="17" y="9" onmousedown="handleZoom(evt,'in')"/>
                <use id="zoomminus" xlink:href="#zoomMin" x="42" y="9" onmousedown="handleZoom(evt,'out')"/>
                <use id="reset" xlink:href="#resetDef" x="30" y="36" onmousedown="handleReset()"/>
                <g id="arrowUp" xlink:href="#dirArrow" transform="translate(30 24)" onmousedown="handlePan(0,-1)">
                  <use xlink:href="#rim" fill="#404040">
                        <set attributeName="fill" to="#808080" begin="arrowUp.mouseover" end="arrowUp.mouseout"/>
                  </use>
                  <path fill="none" stroke="white" stroke-width="1.5" d="M0,-3.0v7 M-2.5,-0.5L0,-3.0L2.5,-0.5"/>
                </g>
                <g id="arrowRight" xlink:href="#dirArrow" transform="rotate(90) translate(36 -43)" onmousedown="handlePan(1,0)">
                  <use xlink:href="#rim" fill="#404040">
                        <set attributeName="fill" to="#808080" begin="arrowRight.mouseover" end="arrowRight.mouseout"/>
                  </use>
                  <path fill="none" stroke="white" stroke-width="1.5" d="M0,-3.0v7 M-2.5,-0.5L0,-3.0L2.5,-0.5"/>
                </g>
                <g id="arrowDown" xlink:href="#dirArrow" transform="rotate(180) translate(-30 -48)" onmousedown="handlePan(0,1)">
                  <use xlink:href="#rim" fill="#404040">
                        <set attributeName="fill" to="#808080" begin="arrowDown.mouseover" end="arrowDown.mouseout"/>
                  </use>
                  <path fill="none" stroke="white" stroke-width="1.5" d="M0,-3.0v7 M-2.5,-0.5L0,-3.0L2.5,-0.5"/>
                </g>
                <g id="arrowLeft" xlink:href="#dirArrow" transform="rotate(270) translate(-36 17)" onmousedown="handlePan(-1,0)">
                  <use xlink:href="#rim" fill="#404040">
                        <set attributeName="fill" to="#808080" begin="arrowLeft.mouseover" end="arrowLeft.mouseout"/>
                  </use>
                  <path fill="none" stroke="white" stroke-width="1.5" d="M0,-3.0v7 M-2.5,-0.5L0,-3.0L2.5,-0.5"/>
                </g>
        </g>
        <svg viewBox="0 0 15 15" width="100%" height="30px" preserveAspectRatio="xMaxYMin meet">
         <g id="arrow_out" transform="scale(0.3 0.3)">
          <a xlink:href="quickjs_8c_aa506aaf9df272c0e9e541bbf0138b483_icgraph_org.svg" target="_base">
           <rect id="button" ry="5" rx="5" y="6" x="6" height="38" width="38"
                fill="#f2f5e9" fill-opacity="0.5" stroke="#606060" stroke-width="1.0"/>
           <path id="arrow"
             d="M 11.500037,31.436501 C 11.940474,20.09759 22.043105,11.32322 32.158766,21.979434 L 37.068811,17.246167 C 37.068811,17.246167 37.088388,32 37.088388,32 L 22.160133,31.978069 C 22.160133,31.978069 26.997745,27.140456 26.997745,27.140456 C 18.528582,18.264221 13.291696,25.230495 11.500037,31.436501 z"
             style="fill:#404040;"/>
          </a>
         </g>
        </svg>
</svg>
