<?xml version="1.0" encoding="UTF-8" standalone="no"?>
<!DOCTYPE svg PUBLIC "-//W3C//DTD SVG 1.1//EN"
 "http://www.w3.org/Graphics/SVG/1.1/DTD/svg11.dtd">
<!-- Generated by graphviz version 2.40.1 (20161225.0304)
 -->
<!-- Title: js_parse_expr2 Pages: 1 -->
<svg width="1081pt" height="274pt"
 viewBox="0.00 0.00 1081.00 274.00" xmlns="http://www.w3.org/2000/svg" xmlns:xlink="http://www.w3.org/1999/xlink">
<g id="graph0" class="graph" transform="scale(1 1) rotate(0) translate(4 270)">
<title>js_parse_expr2</title>
<!-- Node313789 -->
<g id="node1" class="node">
<title>Node313789</title>
<polygon fill="#bfbfbf" stroke="#000000" points="0,-47.5 0,-66.5 83,-66.5 83,-47.5 0,-47.5"/>
<text text-anchor="middle" x="41.5" y="-54.5" font-family="Helvetica,sans-Serif" font-size="10.00" fill="#000000">js_parse_expr2</text>
</g>
<!-- Node313790 -->
<g id="node2" class="node">
<title>Node313790</title>
<g id="a_node2"><a xlink:href="quickjs_8c.html#af219bd55085ad700eb078affe3f65505" target="_top" xlink:title="js_parse_expr">
<polygon fill="none" stroke="#000000" points="119,-123.5 119,-142.5 196,-142.5 196,-123.5 119,-123.5"/>
<text text-anchor="middle" x="157.5" y="-130.5" font-family="Helvetica,sans-Serif" font-size="10.00" fill="#000000">js_parse_expr</text>
</a>
</g>
</g>
<!-- Node313789&#45;&gt;Node313790 -->
<g id="edge1" class="edge">
<title>Node313789&#45;&gt;Node313790</title>
<path fill="none" stroke="#191970" d="M64.7904,-72.2592C88.117,-87.5422 123.2922,-110.588 142.9278,-123.4527"/>
<polygon fill="#191970" stroke="#191970" points="66.4742,-69.1781 56.1915,-66.6255 62.638,-75.0334 66.4742,-69.1781"/>
</g>
<!-- Node313800 -->
<g id="node6" class="node">
<title>Node313800</title>
<g id="a_node6"><a xlink:href="quickjs_8c.html#a9d844c16dcc71701436848074337d32c" target="_top" xlink:title="js_parse_statement\l_or_decl">
<polygon fill="none" stroke="#ff0000" points="971,-144 971,-174 1073,-174 1073,-144 971,-144"/>
<text text-anchor="start" x="979" y="-162" font-family="Helvetica,sans-Serif" font-size="10.00" fill="#000000">js_parse_statement</text>
<text text-anchor="middle" x="1022" y="-151" font-family="Helvetica,sans-Serif" font-size="10.00" fill="#000000">_or_decl</text>
</a>
</g>
</g>
<!-- Node313789&#45;&gt;Node313800 -->
<g id="edge25" class="edge">
<title>Node313789&#45;&gt;Node313800</title>
<path fill="none" stroke="#191970" d="M76.0691,-44.0419C124.1179,-27.2226 214.1439,0 293.5,0 293.5,0 293.5,0 745.5,0 835.4396,0 859.5134,-22.103 935,-71 966.3744,-91.323 995.2911,-124.6732 1010.5968,-143.9531"/>
<polygon fill="#191970" stroke="#191970" points="74.7184,-40.8075 66.4721,-47.4595 77.0668,-47.4018 74.7184,-40.8075"/>
</g>
<!-- Node313791 -->
<g id="node3" class="node">
<title>Node313791</title>
<g id="a_node3"><a xlink:href="quickjs_8c.html#afb5f2af95f877adc2bb9b9ec60d23759" target="_top" xlink:title="js_parse_expr_paren">
<polygon fill="none" stroke="#000000" points="394,-218.5 394,-237.5 501,-237.5 501,-218.5 394,-218.5"/>
<text text-anchor="middle" x="447.5" y="-225.5" font-family="Helvetica,sans-Serif" font-size="10.00" fill="#000000">js_parse_expr_paren</text>
</a>
</g>
</g>
<!-- Node313790&#45;&gt;Node313791 -->
<g id="edge2" class="edge">
<title>Node313790&#45;&gt;Node313791</title>
<path fill="none" stroke="#191970" d="M182.9755,-147.7047C197.0874,-155.409 215.1404,-164.5552 232,-171 288.2112,-192.4875 355.6458,-208.9019 399.9293,-218.4781"/>
<polygon fill="#191970" stroke="#191970" points="184.3384,-144.4577 173.8985,-142.6522 180.9339,-150.574 184.3384,-144.4577"/>
</g>
<!-- Node313792 -->
<g id="node4" class="node">
<title>Node313792</title>
<g id="a_node4"><a xlink:href="quickjs_8c.html#acdcc62310b4f6f73fa7bc7267b18b1d4" target="_top" xlink:title="js_parse_postfix_expr">
<polygon fill="none" stroke="#ff0000" points="540,-121.5 540,-140.5 652,-140.5 652,-121.5 540,-121.5"/>
<text text-anchor="middle" x="596" y="-128.5" font-family="Helvetica,sans-Serif" font-size="10.00" fill="#000000">js_parse_postfix_expr</text>
</a>
</g>
</g>
<!-- Node313790&#45;&gt;Node313792 -->
<g id="edge18" class="edge">
<title>Node313790&#45;&gt;Node313792</title>
<path fill="none" stroke="#191970" d="M206.0644,-132.7785C287.926,-132.4051 452.9264,-131.6526 539.7126,-131.2567"/>
<polygon fill="#191970" stroke="#191970" points="206.0135,-129.2786 196.0296,-132.8243 206.0455,-136.2785 206.0135,-129.2786"/>
</g>
<!-- Node313790&#45;&gt;Node313800 -->
<g id="edge24" class="edge">
<title>Node313790&#45;&gt;Node313800</title>
<path fill="none" stroke="#191970" d="M171.9198,-150.638C185.7729,-166.492 208.0798,-189.3251 232,-203 318.6294,-252.525 347.7133,-266 447.5,-266 447.5,-266 447.5,-266 745.5,-266 846.1287,-266 954.3161,-203.5982 999.8314,-174.1035"/>
<polygon fill="#191970" stroke="#191970" points="174.2777,-148.0074 165.1368,-142.6506 168.942,-152.5386 174.2777,-148.0074"/>
</g>
<!-- Node313802 -->
<g id="node8" class="node">
<title>Node313802</title>
<g id="a_node8"><a xlink:href="quickjs_8c.html#ac188b916dd086803591a67de7e7a85f6" target="_top" xlink:title="js_parse_for_in_of">
<polygon fill="none" stroke="#000000" points="839,-80.5 839,-99.5 935,-99.5 935,-80.5 839,-80.5"/>
<text text-anchor="middle" x="887" y="-87.5" font-family="Helvetica,sans-Serif" font-size="10.00" fill="#000000">js_parse_for_in_of</text>
</a>
</g>
</g>
<!-- Node313790&#45;&gt;Node313802 -->
<g id="edge17" class="edge">
<title>Node313790&#45;&gt;Node313802</title>
<path fill="none" stroke="#191970" d="M183.2316,-118.4293C232.7468,-91.8034 345.431,-38 447.5,-38 447.5,-38 447.5,-38 596,-38 691.4572,-38 801.8201,-65.4504 855.0376,-80.4624"/>
<polygon fill="#191970" stroke="#191970" points="181.2899,-115.5017 174.1926,-123.3681 184.6464,-121.6446 181.2899,-115.5017"/>
</g>
<!-- Node313819 -->
<g id="node9" class="node">
<title>Node313819</title>
<g id="a_node9"><a xlink:href="quickjs_8c.html#a42234753f3193f37ce45b3c0ca4c25cd" target="_top" xlink:title="js_parse_property_name">
<polygon fill="none" stroke="#000000" points="232,-142.5 232,-161.5 355,-161.5 355,-142.5 232,-142.5"/>
<text text-anchor="middle" x="293.5" y="-149.5" font-family="Helvetica,sans-Serif" font-size="10.00" fill="#000000">js_parse_property_name</text>
</a>
</g>
</g>
<!-- Node313790&#45;&gt;Node313819 -->
<g id="edge19" class="edge">
<title>Node313790&#45;&gt;Node313819</title>
<path fill="none" stroke="#191970" d="M206.0678,-139.7852C214.4384,-140.9546 223.2379,-142.184 231.8977,-143.3938"/>
<polygon fill="#191970" stroke="#191970" points="206.4965,-136.3112 196.1084,-138.3938 205.5279,-143.2439 206.4965,-136.3112"/>
</g>
<!-- Node313791&#45;&gt;Node313792 -->
<g id="edge3" class="edge">
<title>Node313791&#45;&gt;Node313792</title>
<path fill="none" stroke="#191970" d="M470.7197,-212.8329C501.6353,-192.6389 555.414,-157.5107 581.2781,-140.6163"/>
<polygon fill="#191970" stroke="#191970" points="468.7398,-209.9456 462.2817,-218.3446 472.5679,-215.8062 468.7398,-209.9456"/>
</g>
<!-- Node313791&#45;&gt;Node313800 -->
<g id="edge16" class="edge">
<title>Node313791&#45;&gt;Node313800</title>
<path fill="none" stroke="#191970" d="M511.2453,-229.1136C605.3372,-229.3412 786.3161,-224.3476 935,-188 950.3111,-184.257 966.791,-179.072 981.2459,-174.1201"/>
<polygon fill="#191970" stroke="#191970" points="511.0519,-225.6128 501.0361,-229.0674 511.0201,-232.6127 511.0519,-225.6128"/>
</g>
<!-- Node313792&#45;&gt;Node313792 -->
<g id="edge15" class="edge">
<title>Node313792&#45;&gt;Node313792</title>
<path fill="none" stroke="#191970" d="M568.3742,-149.6539C569.5289,-154.9368 578.7375,-159 596,-159 622.3047,-159 629.9084,-149.5653 618.8111,-140.7571"/>
<polygon fill="#191970" stroke="#191970" points="571.5076,-151.2176 573.1889,-140.7571 565.3512,-147.886 571.5076,-151.2176"/>
</g>
<!-- Node313793 -->
<g id="node5" class="node">
<title>Node313793</title>
<g id="a_node5"><a xlink:href="quickjs_8c.html#a00eb789430243c24dab4a63ad6a79653" target="_top" xlink:title="js_parse_class">
<polygon fill="none" stroke="#ff0000" points="704.5,-180.5 704.5,-199.5 786.5,-199.5 786.5,-180.5 704.5,-180.5"/>
<text text-anchor="middle" x="745.5" y="-187.5" font-family="Helvetica,sans-Serif" font-size="10.00" fill="#000000">js_parse_class</text>
</a>
</g>
</g>
<!-- Node313792&#45;&gt;Node313793 -->
<g id="edge4" class="edge">
<title>Node313792&#45;&gt;Node313793</title>
<path fill="none" stroke="#191970" d="M644.4798,-144.4227C658.4225,-150.1364 673.7217,-156.55 688,-162 704.305,-168.2237 723.6416,-174.365 735.2223,-180.3677"/>
<polygon fill="#191970" stroke="#191970" points="645.655,-141.1224 635.0731,-140.5994 643.0192,-147.6072 645.655,-141.1224"/>
</g>
<!-- Node313808 -->
<g id="node7" class="node">
<title>Node313808</title>
<g id="a_node7"><a xlink:href="quickjs_8c.html#a26be546cf89c4580ba9020e8fc43a759" target="_top" xlink:title="js_parse_destructuring\l_element">
<polygon fill="none" stroke="#ff0000" points="688,-113 688,-143 803,-143 803,-113 688,-113"/>
<text text-anchor="start" x="696" y="-131" font-family="Helvetica,sans-Serif" font-size="10.00" fill="#000000">js_parse_destructuring</text>
<text text-anchor="middle" x="745.5" y="-120" font-family="Helvetica,sans-Serif" font-size="10.00" fill="#000000">_element</text>
</a>
</g>
</g>
<!-- Node313792&#45;&gt;Node313808 -->
<g id="edge8" class="edge">
<title>Node313792&#45;&gt;Node313808</title>
<path fill="none" stroke="#191970" d="M662.2837,-122.9585C670.7211,-122.7119 679.3043,-122.5784 687.5958,-122.5667"/>
<polygon fill="#191970" stroke="#191970" points="661.9652,-119.4674 652.0936,-123.3148 662.2099,-126.4632 661.9652,-119.4674"/>
</g>
<!-- Node313792&#45;&gt;Node313802 -->
<g id="edge14" class="edge">
<title>Node313792&#45;&gt;Node313802</title>
<path fill="none" stroke="#191970" d="M631.2699,-118.182C648.2017,-112.5688 668.9151,-106.4795 688,-103 738.9209,-93.7162 798.2343,-90.8421 838.7721,-90.0575"/>
<polygon fill="#191970" stroke="#191970" points="630.1199,-114.8761 621.7786,-121.4086 632.373,-121.5036 630.1199,-114.8761"/>
</g>
<!-- Node313793&#45;&gt;Node313792 -->
<g id="edge5" class="edge">
<title>Node313793&#45;&gt;Node313792</title>
<path fill="none" stroke="#191970" d="M694.7273,-182.4983C692.4474,-181.6751 690.1962,-180.8383 688,-180 657.0841,-168.1993 621.3815,-151.8816 605.0272,-140.5727"/>
<polygon fill="#191970" stroke="#191970" points="693.5987,-185.8113 704.1934,-185.7745 695.8881,-179.1963 693.5987,-185.8113"/>
</g>
<!-- Node313793&#45;&gt;Node313800 -->
<g id="edge6" class="edge">
<title>Node313793&#45;&gt;Node313800</title>
<path fill="none" stroke="#191970" d="M796.7847,-184.2502C846.4056,-178.6869 921.1919,-170.3022 970.7882,-164.7417"/>
<polygon fill="#191970" stroke="#191970" points="796.144,-180.8 786.5963,-185.3925 796.924,-187.7564 796.144,-180.8"/>
</g>
<!-- Node313800&#45;&gt;Node313800 -->
<g id="edge7" class="edge">
<title>Node313800&#45;&gt;Node313800</title>
<path fill="none" stroke="#191970" d="M998.1898,-184.4579C1001.145,-189.179 1009.0817,-192.5 1022,-192.5 1043.1992,-192.5 1050.9833,-183.5566 1045.3523,-174.159"/>
<polygon fill="#191970" stroke="#191970" points="1001.7,-184.3046 998.6477,-174.159 994.7069,-183.9936 1001.7,-184.3046"/>
</g>
<!-- Node313808&#45;&gt;Node313792 -->
<g id="edge12" class="edge">
<title>Node313808&#45;&gt;Node313792</title>
<path fill="none" stroke="#191970" d="M677.3667,-136.0937C668.9104,-136.3237 660.3402,-136.4401 652.0936,-136.4339"/>
<polygon fill="#191970" stroke="#191970" points="677.7163,-139.5842 687.5958,-135.7572 677.4861,-132.5879 677.7163,-139.5842"/>
</g>
<!-- Node313808&#45;&gt;Node313800 -->
<g id="edge13" class="edge">
<title>Node313808&#45;&gt;Node313800</title>
<path fill="none" stroke="#191970" d="M813.2637,-135.5974C861.9617,-141.0572 926.5891,-148.3029 970.9603,-153.2776"/>
<polygon fill="#191970" stroke="#191970" points="813.4546,-132.0969 803.1269,-134.4609 812.6746,-139.0534 813.4546,-132.0969"/>
</g>
<!-- Node313808&#45;&gt;Node313808 -->
<g id="edge9" class="edge">
<title>Node313808&#45;&gt;Node313808</title>
<path fill="none" stroke="#191970" d="M720.6237,-153.4579C723.7112,-158.179 732.0033,-161.5 745.5,-161.5 767.6484,-161.5 775.7811,-152.5566 769.8979,-143.159"/>
<polygon fill="#191970" stroke="#191970" points="724.1342,-153.3107 721.1021,-143.159 717.1418,-152.9858 724.1342,-153.3107"/>
</g>
<!-- Node313808&#45;&gt;Node313802 -->
<g id="edge10" class="edge">
<title>Node313808&#45;&gt;Node313802</title>
<path fill="none" stroke="#191970" d="M811.396,-110.3035C825.1917,-106.5987 839.2346,-102.8275 851.4135,-99.5568"/>
<polygon fill="#191970" stroke="#191970" points="810.1746,-107.0075 801.4245,-112.9814 811.9901,-113.7679 810.1746,-107.0075"/>
</g>
<!-- Node313802&#45;&gt;Node313800 -->
<g id="edge11" class="edge">
<title>Node313802&#45;&gt;Node313800</title>
<path fill="none" stroke="#191970" d="M914.8634,-104.2413C937.5189,-115.8208 969.4,-132.1156 992.4884,-143.9163"/>
<polygon fill="#191970" stroke="#191970" points="916.2684,-101.0288 905.7712,-99.5942 913.0826,-107.2618 916.2684,-101.0288"/>
</g>
<!-- Node313819&#45;&gt;Node313793 -->
<g id="edge20" class="edge">
<title>Node313819&#45;&gt;Node313793</title>
<path fill="none" stroke="#191970" d="M345.4357,-163.5078C360.1026,-166.3791 376.1205,-169.1605 391,-171 503.8546,-184.9518 638.1718,-188.6623 704.3971,-189.6465"/>
<polygon fill="#191970" stroke="#191970" points="346.0217,-160.0557 335.528,-161.516 344.642,-166.9184 346.0217,-160.0557"/>
</g>
<!-- Node313819&#45;&gt;Node313808 -->
<g id="edge21" class="edge">
<title>Node313819&#45;&gt;Node313808</title>
<path fill="none" stroke="#191970" d="M343.3909,-140.2223C412.5731,-125.3102 541.6013,-102.6223 652,-112 663.6507,-112.9897 676.0309,-114.6611 687.8398,-116.56"/>
<polygon fill="#191970" stroke="#191970" points="342.2388,-136.8916 333.2203,-142.4519 343.7379,-143.7293 342.2388,-136.8916"/>
</g>
<!-- Node313799 -->
<g id="node10" class="node">
<title>Node313799</title>
<g id="a_node10"><a xlink:href="quickjs_8c.html#aee6d0acd87f136d43f157ae1426436e6" target="_top" xlink:title="js_parse_object_literal">
<polygon fill="none" stroke="#000000" points="391,-142.5 391,-161.5 504,-161.5 504,-142.5 391,-142.5"/>
<text text-anchor="middle" x="447.5" y="-149.5" font-family="Helvetica,sans-Serif" font-size="10.00" fill="#000000">js_parse_object_literal</text>
</a>
</g>
</g>
<!-- Node313819&#45;&gt;Node313799 -->
<g id="edge22" class="edge">
<title>Node313819&#45;&gt;Node313799</title>
<path fill="none" stroke="#191970" d="M365.5049,-152C373.9673,-152 382.5105,-152 390.7234,-152"/>
<polygon fill="#191970" stroke="#191970" points="365.2504,-148.5001 355.2504,-152 365.2503,-155.5001 365.2504,-148.5001"/>
</g>
<!-- Node313799&#45;&gt;Node313792 -->
<g id="edge23" class="edge">
<title>Node313799&#45;&gt;Node313792</title>
<path fill="none" stroke="#191970" d="M514.0041,-142.5954C522.5482,-141.3871 531.2306,-140.1593 539.5922,-138.9769"/>
<polygon fill="#191970" stroke="#191970" points="513.4765,-139.1351 504.0651,-144.0009 514.4567,-146.0661 513.4765,-139.1351"/>
</g>
</g>
</svg>
