<?xml version="1.0" encoding="UTF-8" standalone="no"?>
<!DOCTYPE svg PUBLIC "-//W3C//DTD SVG 1.1//EN"
 "http://www.w3.org/Graphics/SVG/1.1/DTD/svg11.dtd">
<!-- Generated by graphviz version 2.40.1 (20161225.0304)
 -->
<!-- Title: JS_ToIndex Pages: 1 -->
<!--zoomable 477 -->
<svg id="main" version="1.1" xmlns="http://www.w3.org/2000/svg" xmlns:xlink="http://www.w3.org/1999/xlink" xml:space="preserve" onload="init(evt)">
<style type="text/css"><![CDATA[
.edge:hover path { stroke: red; }
.edge:hover polygon { stroke: red; fill: red; }
]]></style>
<script type="text/javascript"><![CDATA[
var edges = document.getElementsByTagName('g');
if (edges && edges.length) {
  for (var i=0;i<edges.length;i++) {
    if (edges[i].id.substr(0,4)=='edge') {
      edges[i].setAttribute('class','edge');
    }
  }
}
]]></script>
        <defs>
                <circle id="rim" cx="0" cy="0" r="7"/>
                <circle id="rim2" cx="0" cy="0" r="3.5"/>
                <g id="zoomPlus">
                        <use xlink:href="#rim" fill="#404040">
                                <set attributeName="fill" to="#808080" begin="zoomplus.mouseover" end="zoomplus.mouseout"/>
                        </use>
                        <path d="M-4,0h8M0,-4v8" fill="none" stroke="white" stroke-width="1.5" pointer-events="none"/>
                </g>
                <g id="zoomMin">
                        <use xlink:href="#rim" fill="#404040">
                                <set attributeName="fill" to="#808080" begin="zoomminus.mouseover" end="zoomminus.mouseout"/>
                        </use>
                        <path d="M-4,0h8" fill="none" stroke="white" stroke-width="1.5" pointer-events="none"/>
                </g>
                <g id="dirArrow">
                        <path fill="none" stroke="white" stroke-width="1.5" d="M0,-3.0v7 M-2.5,-0.5L0,-3.0L2.5,-0.5"/>
                </g>
               <g id="resetDef">
                       <use xlink:href="#rim2" fill="#404040">
                               <set attributeName="fill" to="#808080" begin="reset.mouseover" end="reset.mouseout"/>
                       </use>
               </g>
        </defs>

<script type="text/javascript">
var viewWidth = 584;
var viewHeight = 477;
var sectionId = 'dynsection-130';
</script>
<script xlink:href="svgpan.js"/>
<svg id="graph" class="graph">
<g id="viewport">
<title>JS_ToIndex</title>
<!-- Node42900 -->
<g id="node1" class="node">
<title>Node42900</title>
<polygon fill="#bfbfbf" stroke="#000000" points="0,-221.5 0,-240.5 69,-240.5 69,-221.5 0,-221.5"/>
<text text-anchor="middle" x="34.5" y="-228.5" font-family="Helvetica,sans-Serif" font-size="10.00" fill="#000000">JS_ToIndex</text>
</g>
<!-- Node42901 -->
<g id="node2" class="node">
<title>Node42901</title>
<g id="a_node2"><a xlink:href="quickjs_8c.html#a79fd9f97cb3db574f9c2b78492723681" target="_top" xlink:title="js_array_buffer_constructor">
<polygon fill="none" stroke="#000000" points="105,-354.5 105,-373.5 240,-373.5 240,-354.5 105,-354.5"/>
<text text-anchor="middle" x="172.5" y="-361.5" font-family="Helvetica,sans-Serif" font-size="10.00" fill="#000000">js_array_buffer_constructor</text>
</a>
</g>
</g>
<!-- Node42900&#45;&gt;Node42901 -->
<g id="edge1" class="edge">
<title>Node42900&#45;&gt;Node42901</title>
<path fill="none" stroke="#191970" d="M41.2891,-250.2747C51.2628,-275.7778 72.3115,-320.3731 105,-345 110.1535,-348.8825 116.0662,-351.9718 122.2031,-354.4299"/>
<polygon fill="#191970" stroke="#191970" points="44.4649,-248.7741 37.691,-240.6276 37.9063,-251.2203 44.4649,-248.7741"/>
</g>
<!-- Node42904 -->
<g id="node5" class="node">
<title>Node42904</title>
<g id="a_node5"><a xlink:href="quickjs_8c.html#ad119234e7332a6e78a01b58f3f9a44c7" target="_top" xlink:title="js_atomics_get_ptr">
<polygon fill="none" stroke="#000000" points="123,-392.5 123,-411.5 222,-411.5 222,-392.5 123,-392.5"/>
<text text-anchor="middle" x="172.5" y="-399.5" font-family="Helvetica,sans-Serif" font-size="10.00" fill="#000000">js_atomics_get_ptr</text>
</a>
</g>
</g>
<!-- Node42900&#45;&gt;Node42904 -->
<g id="edge4" class="edge">
<title>Node42900&#45;&gt;Node42904</title>
<path fill="none" stroke="#191970" d="M38.0831,-250.5102C45.0664,-282.9125 63.5961,-347.7386 105,-383 110.1903,-387.4203 116.3399,-390.8159 122.7806,-393.4236"/>
<polygon fill="#191970" stroke="#191970" points="41.4742,-249.6194 36.076,-240.503 34.6109,-250.996 41.4742,-249.6194"/>
</g>
<!-- Node42909 -->
<g id="node10" class="node">
<title>Node42909</title>
<g id="a_node10"><a xlink:href="quickjs_8c.html#a67fcc1a61d5e110579fdaf06d051b6e9" target="_top" xlink:title="js_dataview_constructor">
<polygon fill="none" stroke="#000000" points="111.5,-316.5 111.5,-335.5 233.5,-335.5 233.5,-316.5 111.5,-316.5"/>
<text text-anchor="middle" x="172.5" y="-323.5" font-family="Helvetica,sans-Serif" font-size="10.00" fill="#000000">js_dataview_constructor</text>
</a>
</g>
</g>
<!-- Node42900&#45;&gt;Node42909 -->
<g id="edge9" class="edge">
<title>Node42900&#45;&gt;Node42909</title>
<path fill="none" stroke="#191970" d="M46.7681,-249.16C59.402,-266.4939 80.6419,-292.1111 105,-307 111.3363,-310.8731 118.4854,-313.9791 125.7003,-316.4639"/>
<polygon fill="#191970" stroke="#191970" points="49.29,-246.6625 40.6695,-240.503 43.5674,-250.6939 49.29,-246.6625"/>
</g>
<!-- Node42910 -->
<g id="node11" class="node">
<title>Node42910</title>
<g id="a_node11"><a xlink:href="quickjs_8c.html#a351e921aea7f22e239884fdc941a8e52" target="_top" xlink:title="js_dataview_getValue">
<polygon fill="none" stroke="#000000" points="116.5,-278.5 116.5,-297.5 228.5,-297.5 228.5,-278.5 116.5,-278.5"/>
<text text-anchor="middle" x="172.5" y="-285.5" font-family="Helvetica,sans-Serif" font-size="10.00" fill="#000000">js_dataview_getValue</text>
</a>
</g>
</g>
<!-- Node42900&#45;&gt;Node42910 -->
<g id="edge11" class="edge">
<title>Node42900&#45;&gt;Node42910</title>
<path fill="none" stroke="#191970" d="M58.9385,-245.898C72.2191,-253.547 89.1304,-262.5809 105,-269 113.9158,-272.6064 123.7569,-275.7963 133.1032,-278.4834"/>
<polygon fill="#191970" stroke="#191970" points="60.3713,-242.6804 49.9766,-240.6303 56.8241,-248.7151 60.3713,-242.6804"/>
</g>
<!-- Node42911 -->
<g id="node12" class="node">
<title>Node42911</title>
<g id="a_node12"><a xlink:href="quickjs_8c.html#a77e9c7ebb882b521133545bc59d15a4a" target="_top" xlink:title="js_dataview_setValue">
<polygon fill="none" stroke="#000000" points="116.5,-240.5 116.5,-259.5 228.5,-259.5 228.5,-240.5 116.5,-240.5"/>
<text text-anchor="middle" x="172.5" y="-247.5" font-family="Helvetica,sans-Serif" font-size="10.00" fill="#000000">js_dataview_setValue</text>
</a>
</g>
</g>
<!-- Node42900&#45;&gt;Node42911 -->
<g id="edge12" class="edge">
<title>Node42900&#45;&gt;Node42911</title>
<path fill="none" stroke="#191970" d="M79.3991,-237.1818C91.2288,-238.8105 104.1393,-240.588 116.4758,-242.2865"/>
<polygon fill="#191970" stroke="#191970" points="79.7072,-233.6912 69.3232,-235.7945 78.7524,-240.6258 79.7072,-233.6912"/>
</g>
<!-- Node42912 -->
<g id="node13" class="node">
<title>Node42912</title>
<g id="a_node13"><a xlink:href="quickjs-libc_8c.html#a70dbcae0637863811297360f2773c3ba" target="_top" xlink:title="js_os_read_write">
<polygon fill="none" stroke="#000000" points="127.5,-202.5 127.5,-221.5 217.5,-221.5 217.5,-202.5 127.5,-202.5"/>
<text text-anchor="middle" x="172.5" y="-209.5" font-family="Helvetica,sans-Serif" font-size="10.00" fill="#000000">js_os_read_write</text>
</a>
</g>
</g>
<!-- Node42900&#45;&gt;Node42912 -->
<g id="edge13" class="edge">
<title>Node42900&#45;&gt;Node42912</title>
<path fill="none" stroke="#191970" d="M79.6256,-224.7871C94.9863,-222.6722 112.1476,-220.3094 127.4986,-218.1958"/>
<polygon fill="#191970" stroke="#191970" points="78.7524,-221.3742 69.3232,-226.2055 79.7072,-228.3088 78.7524,-221.3742"/>
</g>
<!-- Node42913 -->
<g id="node14" class="node">
<title>Node42913</title>
<g id="a_node14"><a xlink:href="quickjs_8c.html#a4033d30f8e082770b4bb91138fec9ccc" target="_top" xlink:title="js_shared_array_buffer\l_constructor">
<polygon fill="none" stroke="#000000" points="114.5,-153 114.5,-183 230.5,-183 230.5,-153 114.5,-153"/>
<text text-anchor="start" x="122.5" y="-171" font-family="Helvetica,sans-Serif" font-size="10.00" fill="#000000">js_shared_array_buffer</text>
<text text-anchor="middle" x="172.5" y="-160" font-family="Helvetica,sans-Serif" font-size="10.00" fill="#000000">_constructor</text>
</a>
</g>
</g>
<!-- Node42900&#45;&gt;Node42913 -->
<g id="edge14" class="edge">
<title>Node42900&#45;&gt;Node42913</title>
<path fill="none" stroke="#191970" d="M59.6822,-216.3178C72.9416,-208.8727 89.6049,-199.9589 105,-193 112.6295,-189.5513 120.889,-186.1953 128.9261,-183.1198"/>
<polygon fill="#191970" stroke="#191970" points="57.6568,-213.4433 50.6958,-221.4305 61.1183,-219.5275 57.6568,-213.4433"/>
</g>
<!-- Node42914 -->
<g id="node15" class="node">
<title>Node42914</title>
<g id="a_node15"><a xlink:href="quickjs-libc_8c.html#a075659fd6c4054c89c99093d1bcb4d37" target="_top" xlink:title="js_std_file_read_write">
<polygon fill="none" stroke="#000000" points="117,-114.5 117,-133.5 228,-133.5 228,-114.5 117,-114.5"/>
<text text-anchor="middle" x="172.5" y="-121.5" font-family="Helvetica,sans-Serif" font-size="10.00" fill="#000000">js_std_file_read_write</text>
</a>
</g>
</g>
<!-- Node42900&#45;&gt;Node42914 -->
<g id="edge16" class="edge">
<title>Node42900&#45;&gt;Node42914</title>
<path fill="none" stroke="#191970" d="M44.4976,-212.6194C56.3424,-192.5625 77.9283,-160.9257 105,-143 110.8873,-139.1017 117.5718,-135.9945 124.39,-133.5201"/>
<polygon fill="#191970" stroke="#191970" points="41.3906,-211.0026 39.484,-221.4245 47.4737,-214.4663 41.3906,-211.0026"/>
</g>
<!-- Node42915 -->
<g id="node16" class="node">
<title>Node42915</title>
<g id="a_node16"><a xlink:href="quickjs-libc_8c.html#ae8abf0c32bf9b0acd85adffaf8345dfe" target="_top" xlink:title="js_std_file_readAsString">
<polygon fill="none" stroke="#000000" points="111.5,-76.5 111.5,-95.5 233.5,-95.5 233.5,-76.5 111.5,-76.5"/>
<text text-anchor="middle" x="172.5" y="-83.5" font-family="Helvetica,sans-Serif" font-size="10.00" fill="#000000">js_std_file_readAsString</text>
</a>
</g>
</g>
<!-- Node42900&#45;&gt;Node42915 -->
<g id="edge17" class="edge">
<title>Node42900&#45;&gt;Node42915</title>
<path fill="none" stroke="#191970" d="M40.068,-211.7071C49.0851,-183.9296 69.5467,-132.9455 105,-105 109.9717,-101.0811 115.7087,-97.9703 121.695,-95.501"/>
<polygon fill="#191970" stroke="#191970" points="36.6708,-210.8469 37.0738,-221.434 43.361,-212.9063 36.6708,-210.8469"/>
</g>
<!-- Node42916 -->
<g id="node17" class="node">
<title>Node42916</title>
<g id="a_node17"><a xlink:href="quickjs_8c.html#a3be661c1eaa7a31184410667862635a2" target="_top" xlink:title="js_typed_array_constructor">
<polygon fill="none" stroke="#000000" points="105.5,-38.5 105.5,-57.5 239.5,-57.5 239.5,-38.5 105.5,-38.5"/>
<text text-anchor="middle" x="172.5" y="-45.5" font-family="Helvetica,sans-Serif" font-size="10.00" fill="#000000">js_typed_array_constructor</text>
</a>
</g>
</g>
<!-- Node42900&#45;&gt;Node42916 -->
<g id="edge18" class="edge">
<title>Node42900&#45;&gt;Node42916</title>
<path fill="none" stroke="#191970" d="M37.439,-210.9324C43.5755,-176.3505 61.0244,-105.5378 105,-67 109.3948,-63.1486 114.5146,-60.0735 119.9331,-57.619"/>
<polygon fill="#191970" stroke="#191970" points="33.9244,-210.7394 35.7697,-221.1723 40.8332,-211.8658 33.9244,-210.7394"/>
</g>
<!-- Node42902 -->
<g id="node3" class="node">
<title>Node42902</title>
<g id="a_node3"><a xlink:href="quickjs_8c.html#a177d09828596bfe6df4bd90b2e93989d" target="_top" xlink:title="JS_AddIntrinsicTypedArrays">
<polygon fill="none" stroke="#000000" points="276,-227.5 276,-246.5 417,-246.5 417,-227.5 276,-227.5"/>
<text text-anchor="middle" x="346.5" y="-234.5" font-family="Helvetica,sans-Serif" font-size="10.00" fill="#000000">JS_AddIntrinsicTypedArrays</text>
</a>
</g>
</g>
<!-- Node42901&#45;&gt;Node42902 -->
<g id="edge2" class="edge">
<title>Node42901&#45;&gt;Node42902</title>
<path fill="none" stroke="#191970" d="M228.4001,-350.7937C232.4315,-349.0819 236.344,-347.1588 240,-345 285.1234,-318.3557 324.4481,-267.8745 339.7228,-246.7155"/>
<polygon fill="#191970" stroke="#191970" points="226.9535,-347.5989 218.8426,-354.4154 229.434,-354.1447 226.9535,-347.5989"/>
</g>
<!-- Node42903 -->
<g id="node4" class="node">
<title>Node42903</title>
<g id="a_node4"><a xlink:href="quickjs_8c.html#ad8aedb643b8753b7a15f6cb2df61945e" target="_top" xlink:title="JS_NewContext">
<polygon fill="none" stroke="#000000" points="470,-227.5 470,-246.5 559,-246.5 559,-227.5 470,-227.5"/>
<text text-anchor="middle" x="514.5" y="-234.5" font-family="Helvetica,sans-Serif" font-size="10.00" fill="#000000">JS_NewContext</text>
</a>
</g>
</g>
<!-- Node42902&#45;&gt;Node42903 -->
<g id="edge3" class="edge">
<title>Node42902&#45;&gt;Node42903</title>
<path fill="none" stroke="#191970" d="M427.3114,-237C441.8907,-237 456.5983,-237 469.6739,-237"/>
<polygon fill="#191970" stroke="#191970" points="427.2602,-233.5001 417.2602,-237 427.2602,-240.5001 427.2602,-233.5001"/>
</g>
<!-- Node42905 -->
<g id="node6" class="node">
<title>Node42905</title>
<g id="a_node6"><a xlink:href="quickjs_8c.html#a10203c5ecfd1db25342e97b0342ba514" target="_top" xlink:title="js_atomics_notify">
<polygon fill="none" stroke="#000000" points="300,-373.5 300,-392.5 393,-392.5 393,-373.5 300,-373.5"/>
<text text-anchor="middle" x="346.5" y="-380.5" font-family="Helvetica,sans-Serif" font-size="10.00" fill="#000000">js_atomics_notify</text>
</a>
</g>
</g>
<!-- Node42904&#45;&gt;Node42905 -->
<g id="edge5" class="edge">
<title>Node42904&#45;&gt;Node42905</title>
<path fill="none" stroke="#191970" d="M232.3148,-395.4685C254.4283,-393.0538 279.1469,-390.3547 299.915,-388.0869"/>
<polygon fill="#191970" stroke="#191970" points="231.9224,-391.9905 222.3614,-396.5554 232.6823,-398.9491 231.9224,-391.9905"/>
</g>
<!-- Node42906 -->
<g id="node7" class="node">
<title>Node42906</title>
<g id="a_node7"><a xlink:href="quickjs_8c.html#adbeea736a6232c3a784b39a2dfb6a510" target="_top" xlink:title="js_atomics_op">
<polygon fill="none" stroke="#000000" points="306.5,-335.5 306.5,-354.5 386.5,-354.5 386.5,-335.5 306.5,-335.5"/>
<text text-anchor="middle" x="346.5" y="-342.5" font-family="Helvetica,sans-Serif" font-size="10.00" fill="#000000">js_atomics_op</text>
</a>
</g>
</g>
<!-- Node42904&#45;&gt;Node42906 -->
<g id="edge6" class="edge">
<title>Node42904&#45;&gt;Node42906</title>
<path fill="none" stroke="#191970" d="M221.6332,-389.4888C227.8831,-387.5132 234.1387,-385.3411 240,-383 256.8011,-376.2894 259.1618,-370.617 276,-364 285.6744,-360.1982 296.3844,-356.8826 306.474,-354.1316"/>
<polygon fill="#191970" stroke="#191970" points="220.4404,-386.1926 211.8743,-392.4275 222.4588,-392.8953 220.4404,-386.1926"/>
</g>
<!-- Node42907 -->
<g id="node8" class="node">
<title>Node42907</title>
<g id="a_node8"><a xlink:href="quickjs_8c.html#a0586dbbd419acfaca58bb867e3a39ed3" target="_top" xlink:title="js_atomics_store">
<polygon fill="none" stroke="#000000" points="301,-449.5 301,-468.5 392,-468.5 392,-449.5 301,-449.5"/>
<text text-anchor="middle" x="346.5" y="-456.5" font-family="Helvetica,sans-Serif" font-size="10.00" fill="#000000">js_atomics_store</text>
</a>
</g>
</g>
<!-- Node42904&#45;&gt;Node42907 -->
<g id="edge7" class="edge">
<title>Node42904&#45;&gt;Node42907</title>
<path fill="none" stroke="#191970" d="M205.9106,-415.1217C226.0592,-422.8202 252.3264,-432.4803 276,-440 286.5109,-443.3387 298.0199,-446.6025 308.6348,-449.4567"/>
<polygon fill="#191970" stroke="#191970" points="207.1389,-411.8442 196.5491,-411.518 204.6241,-418.3769 207.1389,-411.8442"/>
</g>
<!-- Node42908 -->
<g id="node9" class="node">
<title>Node42908</title>
<g id="a_node9"><a xlink:href="quickjs_8c.html#a5da0aed88a968e1b5d841cec3b582b2c" target="_top" xlink:title="js_atomics_wait">
<polygon fill="none" stroke="#000000" points="303,-411.5 303,-430.5 390,-430.5 390,-411.5 303,-411.5"/>
<text text-anchor="middle" x="346.5" y="-418.5" font-family="Helvetica,sans-Serif" font-size="10.00" fill="#000000">js_atomics_wait</text>
</a>
</g>
</g>
<!-- Node42904&#45;&gt;Node42908 -->
<g id="edge8" class="edge">
<title>Node42904&#45;&gt;Node42908</title>
<path fill="none" stroke="#191970" d="M232.4218,-408.5432C255.5579,-411.0695 281.5316,-413.9058 302.8442,-416.233"/>
<polygon fill="#191970" stroke="#191970" points="232.6823,-405.0509 222.3614,-407.4446 231.9224,-412.0095 232.6823,-405.0509"/>
</g>
<!-- Node42909&#45;&gt;Node42902 -->
<g id="edge10" class="edge">
<title>Node42909&#45;&gt;Node42902</title>
<path fill="none" stroke="#191970" d="M224.0938,-313.2653C229.5501,-311.3919 234.9464,-309.305 240,-307 276.8393,-290.197 315.4316,-261.647 334.4457,-246.7308"/>
<polygon fill="#191970" stroke="#191970" points="222.7272,-310.0276 214.2687,-316.4076 224.8596,-316.6949 222.7272,-310.0276"/>
</g>
<!-- Node42913&#45;&gt;Node42902 -->
<g id="edge15" class="edge">
<title>Node42913&#45;&gt;Node42902</title>
<path fill="none" stroke="#191970" d="M223.3937,-186.6197C229.0084,-188.7422 234.6328,-190.8982 240,-193 269.246,-204.4528 302.6761,-218.407 324.1584,-227.487"/>
<polygon fill="#191970" stroke="#191970" points="224.5931,-183.3316 214.0009,-183.095 222.1337,-189.8853 224.5931,-183.3316"/>
</g>
<!-- Node42916&#45;&gt;Node42902 -->
<g id="edge19" class="edge">
<title>Node42916&#45;&gt;Node42902</title>
<path fill="none" stroke="#191970" d="M232.0245,-61.9157C234.8196,-63.438 237.4983,-65.1267 240,-67 298.8209,-111.0477 333.0286,-197.9727 343.2372,-227.1713"/>
<polygon fill="#191970" stroke="#191970" points="233.3176,-58.6568 222.7757,-57.5983 230.3566,-64.9997 233.3176,-58.6568"/>
</g>
<!-- Node42917 -->
<g id="node18" class="node">
<title>Node42917</title>
<g id="a_node18"><a xlink:href="quickjs_8c.html#ae5a8e884ec4a3364f63ebfeae6b08bdc" target="_top" xlink:title="js_typed_array___species\lCreate">
<polygon fill="none" stroke="#000000" points="281.5,-33 281.5,-63 411.5,-63 411.5,-33 281.5,-33"/>
<text text-anchor="start" x="289.5" y="-51" font-family="Helvetica,sans-Serif" font-size="10.00" fill="#000000">js_typed_array___species</text>
<text text-anchor="middle" x="346.5" y="-40" font-family="Helvetica,sans-Serif" font-size="10.00" fill="#000000">Create</text>
</a>
</g>
</g>
<!-- Node42916&#45;&gt;Node42917 -->
<g id="edge20" class="edge">
<title>Node42916&#45;&gt;Node42917</title>
<path fill="none" stroke="#191970" d="M249.8091,-48C260.36,-48 271.1034,-48 281.4082,-48"/>
<polygon fill="#191970" stroke="#191970" points="249.773,-44.5001 239.7729,-48 249.7729,-51.5001 249.773,-44.5001"/>
</g>
<!-- Node42918 -->
<g id="node19" class="node">
<title>Node42918</title>
<g id="a_node19"><a xlink:href="quickjs_8c.html#aa0bbf08a7e91459c68a312fba7016c6d" target="_top" xlink:title="js_array_every">
<polygon fill="none" stroke="#000000" points="474.5,-38.5 474.5,-57.5 554.5,-57.5 554.5,-38.5 474.5,-38.5"/>
<text text-anchor="middle" x="514.5" y="-45.5" font-family="Helvetica,sans-Serif" font-size="10.00" fill="#000000">js_array_every</text>
</a>
</g>
</g>
<!-- Node42917&#45;&gt;Node42918 -->
<g id="edge21" class="edge">
<title>Node42917&#45;&gt;Node42918</title>
<path fill="none" stroke="#191970" d="M422.1294,-48C440.0889,-48 458.5638,-48 474.2264,-48"/>
<polygon fill="#191970" stroke="#191970" points="421.9343,-44.5001 411.9342,-48 421.9342,-51.5001 421.9343,-44.5001"/>
</g>
<!-- Node42919 -->
<g id="node20" class="node">
<title>Node42919</title>
<g id="a_node20"><a xlink:href="quickjs_8c.html#a04f45f4b341a84aa1039cfd862adbcd2" target="_top" xlink:title="js_typed_array_slice">
<polygon fill="none" stroke="#000000" points="461.5,-.5 461.5,-19.5 567.5,-19.5 567.5,-.5 461.5,-.5"/>
<text text-anchor="middle" x="514.5" y="-7.5" font-family="Helvetica,sans-Serif" font-size="10.00" fill="#000000">js_typed_array_slice</text>
</a>
</g>
</g>
<!-- Node42917&#45;&gt;Node42919 -->
<g id="edge22" class="edge">
<title>Node42917&#45;&gt;Node42919</title>
<path fill="none" stroke="#191970" d="M422.0107,-30.9202C439.2572,-27.0192 456.986,-23.0091 472.2489,-19.5568"/>
<polygon fill="#191970" stroke="#191970" points="420.9157,-27.5794 411.9342,-33.1994 422.46,-34.4069 420.9157,-27.5794"/>
</g>
<!-- Node42920 -->
<g id="node21" class="node">
<title>Node42920</title>
<g id="a_node21"><a xlink:href="quickjs_8c.html#a355310420e303302c981eb7c73a222fb" target="_top" xlink:title="js_typed_array_subarray">
<polygon fill="none" stroke="#000000" points="453,-76.5 453,-95.5 576,-95.5 576,-76.5 453,-76.5"/>
<text text-anchor="middle" x="514.5" y="-83.5" font-family="Helvetica,sans-Serif" font-size="10.00" fill="#000000">js_typed_array_subarray</text>
</a>
</g>
</g>
<!-- Node42917&#45;&gt;Node42920 -->
<g id="edge23" class="edge">
<title>Node42917&#45;&gt;Node42920</title>
<path fill="none" stroke="#191970" d="M422.0107,-65.0798C439.2572,-68.9808 456.986,-72.9909 472.2489,-76.4432"/>
<polygon fill="#191970" stroke="#191970" points="422.46,-61.5931 411.9342,-62.8006 420.9157,-68.4206 422.46,-61.5931"/>
</g>
</g>
</svg>
        <g id="navigator" transform="translate(0 0)" fill="#404254">
                <rect fill="#f2f5e9" fill-opacity="0.5" stroke="#606060" stroke-width=".5" x="0" y="0" width="60" height="60"/>
                <use id="zoomplus" xlink:href="#zoomPlus" x="17" y="9" onmousedown="handleZoom(evt,'in')"/>
                <use id="zoomminus" xlink:href="#zoomMin" x="42" y="9" onmousedown="handleZoom(evt,'out')"/>
                <use id="reset" xlink:href="#resetDef" x="30" y="36" onmousedown="handleReset()"/>
                <g id="arrowUp" xlink:href="#dirArrow" transform="translate(30 24)" onmousedown="handlePan(0,-1)">
                  <use xlink:href="#rim" fill="#404040">
                        <set attributeName="fill" to="#808080" begin="arrowUp.mouseover" end="arrowUp.mouseout"/>
                  </use>
                  <path fill="none" stroke="white" stroke-width="1.5" d="M0,-3.0v7 M-2.5,-0.5L0,-3.0L2.5,-0.5"/>
                </g>
                <g id="arrowRight" xlink:href="#dirArrow" transform="rotate(90) translate(36 -43)" onmousedown="handlePan(1,0)">
                  <use xlink:href="#rim" fill="#404040">
                        <set attributeName="fill" to="#808080" begin="arrowRight.mouseover" end="arrowRight.mouseout"/>
                  </use>
                  <path fill="none" stroke="white" stroke-width="1.5" d="M0,-3.0v7 M-2.5,-0.5L0,-3.0L2.5,-0.5"/>
                </g>
                <g id="arrowDown" xlink:href="#dirArrow" transform="rotate(180) translate(-30 -48)" onmousedown="handlePan(0,1)">
                  <use xlink:href="#rim" fill="#404040">
                        <set attributeName="fill" to="#808080" begin="arrowDown.mouseover" end="arrowDown.mouseout"/>
                  </use>
                  <path fill="none" stroke="white" stroke-width="1.5" d="M0,-3.0v7 M-2.5,-0.5L0,-3.0L2.5,-0.5"/>
                </g>
                <g id="arrowLeft" xlink:href="#dirArrow" transform="rotate(270) translate(-36 17)" onmousedown="handlePan(-1,0)">
                  <use xlink:href="#rim" fill="#404040">
                        <set attributeName="fill" to="#808080" begin="arrowLeft.mouseover" end="arrowLeft.mouseout"/>
                  </use>
                  <path fill="none" stroke="white" stroke-width="1.5" d="M0,-3.0v7 M-2.5,-0.5L0,-3.0L2.5,-0.5"/>
                </g>
        </g>
        <svg viewBox="0 0 15 15" width="100%" height="30px" preserveAspectRatio="xMaxYMin meet">
         <g id="arrow_out" transform="scale(0.3 0.3)">
          <a xlink:href="quickjs_8h_ad52f50dfe0e0e4aeae7003b97c4c0765_icgraph_org.svg" target="_base">
           <rect id="button" ry="5" rx="5" y="6" x="6" height="38" width="38"
                fill="#f2f5e9" fill-opacity="0.5" stroke="#606060" stroke-width="1.0"/>
           <path id="arrow"
             d="M 11.500037,31.436501 C 11.940474,20.09759 22.043105,11.32322 32.158766,21.979434 L 37.068811,17.246167 C 37.068811,17.246167 37.088388,32 37.088388,32 L 22.160133,31.978069 C 22.160133,31.978069 26.997745,27.140456 26.997745,27.140456 C 18.528582,18.264221 13.291696,25.230495 11.500037,31.436501 z"
             style="fill:#404040;"/>
          </a>
         </g>
        </svg>
</svg>
