<?xml version="1.0" encoding="UTF-8" standalone="no"?>
<!DOCTYPE svg PUBLIC "-//W3C//DTD SVG 1.1//EN"
 "http://www.w3.org/Graphics/SVG/1.1/DTD/svg11.dtd">
<!-- Generated by graphviz version 2.40.1 (20161225.0304)
 -->
<!-- Title: JS_ToCStringLen Pages: 1 -->
<!--zoomable 576 -->
<svg id="main" version="1.1" xmlns="http://www.w3.org/2000/svg" xmlns:xlink="http://www.w3.org/1999/xlink" xml:space="preserve" onload="init(evt)">
<style type="text/css"><![CDATA[
.edge:hover path { stroke: red; }
.edge:hover polygon { stroke: red; fill: red; }
]]></style>
<script type="text/javascript"><![CDATA[
var edges = document.getElementsByTagName('g');
if (edges && edges.length) {
  for (var i=0;i<edges.length;i++) {
    if (edges[i].id.substr(0,4)=='edge') {
      edges[i].setAttribute('class','edge');
    }
  }
}
]]></script>
        <defs>
                <circle id="rim" cx="0" cy="0" r="7"/>
                <circle id="rim2" cx="0" cy="0" r="3.5"/>
                <g id="zoomPlus">
                        <use xlink:href="#rim" fill="#404040">
                                <set attributeName="fill" to="#808080" begin="zoomplus.mouseover" end="zoomplus.mouseout"/>
                        </use>
                        <path d="M-4,0h8M0,-4v8" fill="none" stroke="white" stroke-width="1.5" pointer-events="none"/>
                </g>
                <g id="zoomMin">
                        <use xlink:href="#rim" fill="#404040">
                                <set attributeName="fill" to="#808080" begin="zoomminus.mouseover" end="zoomminus.mouseout"/>
                        </use>
                        <path d="M-4,0h8" fill="none" stroke="white" stroke-width="1.5" pointer-events="none"/>
                </g>
                <g id="dirArrow">
                        <path fill="none" stroke="white" stroke-width="1.5" d="M0,-3.0v7 M-2.5,-0.5L0,-3.0L2.5,-0.5"/>
                </g>
               <g id="resetDef">
                       <use xlink:href="#rim2" fill="#404040">
                               <set attributeName="fill" to="#808080" begin="reset.mouseover" end="reset.mouseout"/>
                       </use>
               </g>
        </defs>

<script type="text/javascript">
var viewWidth = 623;
var viewHeight = 576;
var sectionId = 'dynsection-147';
</script>
<script xlink:href="svgpan.js"/>
<svg id="graph" class="graph">
<g id="viewport">
<title>JS_ToCStringLen</title>
<!-- Node48244 -->
<g id="node1" class="node">
<title>Node48244</title>
<polygon fill="#bfbfbf" stroke="#000000" points="0,-226 0,-245 94,-245 94,-226 0,-226"/>
<text text-anchor="middle" x="47" y="-233" font-family="Helvetica,sans-Serif" font-size="10.00" fill="#000000">JS_ToCStringLen</text>
</g>
<!-- Node48245 -->
<g id="node2" class="node">
<title>Node48245</title>
<g id="a_node2"><a xlink:href="quickjs_8c.html#aadfd9c31a6f69160c12e99b8d5eb5b3c" target="_top" xlink:title="js_atom_concat_str">
<polygon fill="none" stroke="#000000" points="138.5,-510 138.5,-529 240.5,-529 240.5,-510 138.5,-510"/>
<text text-anchor="middle" x="189.5" y="-517" font-family="Helvetica,sans-Serif" font-size="10.00" fill="#000000">js_atom_concat_str</text>
</a>
</g>
</g>
<!-- Node48244&#45;&gt;Node48245 -->
<g id="edge1" class="edge">
<title>Node48244&#45;&gt;Node48245</title>
<path fill="none" stroke="#191970" d="M52.654,-254.7656C64.1593,-292.5003 92.4207,-378.1622 130,-443.5 144.8712,-469.356 167.828,-495.9989 180.4367,-509.8341"/>
<polygon fill="#191970" stroke="#191970" points="55.9679,-253.6315 49.7438,-245.0577 49.2627,-255.6416 55.9679,-253.6315"/>
</g>
<!-- Node48282 -->
<g id="node7" class="node">
<title>Node48282</title>
<g id="a_node7"><a xlink:href="quickjs_8c.html#ab0bd3fbfe9b7f004c067b103a6d60d03" target="_top" xlink:title="js_compile_regexp">
<polygon fill="none" stroke="#000000" points="140.5,-415 140.5,-434 238.5,-434 238.5,-415 140.5,-415"/>
<text text-anchor="middle" x="189.5" y="-422" font-family="Helvetica,sans-Serif" font-size="10.00" fill="#000000">js_compile_regexp</text>
</a>
</g>
</g>
<!-- Node48244&#45;&gt;Node48282 -->
<g id="edge7" class="edge">
<title>Node48244&#45;&gt;Node48282</title>
<path fill="none" stroke="#191970" d="M56.5976,-254.0817C70.8004,-280.7469 99.088,-330.8017 130,-368.5 144.7512,-386.4896 165.0212,-404.4124 177.6852,-414.9711"/>
<polygon fill="#191970" stroke="#191970" points="59.6181,-252.3056 51.8678,-245.0818 53.4217,-255.5621 59.6181,-252.3056"/>
</g>
<!-- Node48287 -->
<g id="node12" class="node">
<title>Node48287</title>
<g id="a_node12"><a xlink:href="quickjs_8c.html#a97231fb89bb56fdeddd9f5ba17b0e1ff" target="_top" xlink:title="JS_EvalObject">
<polygon fill="none" stroke="#000000" points="148.5,-340 148.5,-359 230.5,-359 230.5,-340 148.5,-340"/>
<text text-anchor="middle" x="189.5" y="-347" font-family="Helvetica,sans-Serif" font-size="10.00" fill="#000000">JS_EvalObject</text>
</a>
</g>
</g>
<!-- Node48244&#45;&gt;Node48287 -->
<g id="edge13" class="edge">
<title>Node48244&#45;&gt;Node48287</title>
<path fill="none" stroke="#191970" d="M58.3039,-253.5941C72.5293,-274.9358 98.9003,-310.0843 130,-330.5 135.8016,-334.3085 142.4212,-337.4003 149.0871,-339.8956"/>
<polygon fill="#191970" stroke="#191970" points="61.1868,-251.6068 52.8106,-245.1191 55.3128,-255.4142 61.1868,-251.6068"/>
</g>
<!-- Node48568 -->
<g id="node20" class="node">
<title>Node48568</title>
<g id="a_node20"><a xlink:href="quickjs-libc_8c.html#a55f6cd4bbd0e676992642d066fd1d9fd" target="_top" xlink:title="js_evalScript">
<polygon fill="none" stroke="#000000" points="153,-302 153,-321 226,-321 226,-302 153,-302"/>
<text text-anchor="middle" x="189.5" y="-309" font-family="Helvetica,sans-Serif" font-size="10.00" fill="#000000">js_evalScript</text>
</a>
</g>
</g>
<!-- Node48244&#45;&gt;Node48568 -->
<g id="edge25" class="edge">
<title>Node48244&#45;&gt;Node48568</title>
<path fill="none" stroke="#191970" d="M66.8388,-251.6017C83.0421,-264.1243 106.9523,-281.2118 130,-292.5 137.4012,-296.1249 145.652,-299.2721 153.5956,-301.9057"/>
<polygon fill="#191970" stroke="#191970" points="68.706,-248.6172 58.6842,-245.1802 64.3753,-254.1168 68.706,-248.6172"/>
</g>
<!-- Node48307 -->
<g id="node21" class="node">
<title>Node48307</title>
<g id="a_node21"><a xlink:href="quickjs_8c.html#a8d95b2b91f50339b621237ad13f9cc47" target="_top" xlink:title="js_json_parse">
<polygon fill="none" stroke="#000000" points="151,-264 151,-283 228,-283 228,-264 151,-264"/>
<text text-anchor="middle" x="189.5" y="-271" font-family="Helvetica,sans-Serif" font-size="10.00" fill="#000000">js_json_parse</text>
</a>
</g>
</g>
<!-- Node48244&#45;&gt;Node48307 -->
<g id="edge26" class="edge">
<title>Node48244&#45;&gt;Node48307</title>
<path fill="none" stroke="#191970" d="M92.6531,-247.6742C112.3577,-252.9287 135.0747,-258.9866 153.5527,-263.9141"/>
<polygon fill="#191970" stroke="#191970" points="93.523,-244.2839 82.9588,-245.089 91.7193,-251.0475 93.523,-244.2839"/>
</g>
<!-- Node48824 -->
<g id="node22" class="node">
<title>Node48824</title>
<g id="a_node22"><a xlink:href="quickjs-libc_8c.html#a26a501e5bf41a733d365f221143ff3d5" target="_top" xlink:title="js_print">
<polygon fill="none" stroke="#000000" points="165.5,-226 165.5,-245 213.5,-245 213.5,-226 165.5,-226"/>
<text text-anchor="middle" x="189.5" y="-233" font-family="Helvetica,sans-Serif" font-size="10.00" fill="#000000">js_print</text>
</a>
</g>
</g>
<!-- Node48244&#45;&gt;Node48824 -->
<g id="edge27" class="edge">
<title>Node48244&#45;&gt;Node48824</title>
<path fill="none" stroke="#191970" d="M104.318,-235.5C125.5776,-235.5 148.5593,-235.5 165.2877,-235.5"/>
<polygon fill="#191970" stroke="#191970" points="104.0548,-232.0001 94.0548,-235.5 104.0547,-239.0001 104.0548,-232.0001"/>
</g>
<!-- Node48611 -->
<g id="node24" class="node">
<title>Node48611</title>
<g id="a_node24"><a xlink:href="quickjs-libc_8c.html#a2abec3aeee82a6dd3dd063725bbeecfe" target="_top" xlink:title="js_printf_internal">
<polygon fill="none" stroke="#ff0000" points="145.5,-188 145.5,-207 233.5,-207 233.5,-188 145.5,-188"/>
<text text-anchor="middle" x="189.5" y="-195" font-family="Helvetica,sans-Serif" font-size="10.00" fill="#000000">js_printf_internal</text>
</a>
</g>
</g>
<!-- Node48244&#45;&gt;Node48611 -->
<g id="edge29" class="edge">
<title>Node48244&#45;&gt;Node48611</title>
<path fill="none" stroke="#191970" d="M92.6531,-223.3258C112.3577,-218.0713 135.0747,-212.0134 153.5527,-207.0859"/>
<polygon fill="#191970" stroke="#191970" points="91.7193,-219.9525 82.9588,-225.911 93.523,-226.7161 91.7193,-219.9525"/>
</g>
<!-- Node48825 -->
<g id="node25" class="node">
<title>Node48825</title>
<g id="a_node25"><a xlink:href="quickjs-libc_8c.html#ad54da96247855ac44db1dafb4c5ff9ee" target="_top" xlink:title="js_std_file_puts">
<polygon fill="none" stroke="#000000" points="147,-150 147,-169 232,-169 232,-150 147,-150"/>
<text text-anchor="middle" x="189.5" y="-157" font-family="Helvetica,sans-Serif" font-size="10.00" fill="#000000">js_std_file_puts</text>
</a>
</g>
</g>
<!-- Node48244&#45;&gt;Node48825 -->
<g id="edge30" class="edge">
<title>Node48244&#45;&gt;Node48825</title>
<path fill="none" stroke="#191970" d="M66.8388,-219.3983C83.0421,-206.8757 106.9523,-189.7882 130,-178.5 137.4012,-174.8751 145.652,-171.7279 153.5956,-169.0943"/>
<polygon fill="#191970" stroke="#191970" points="64.3753,-216.8832 58.6842,-225.8198 68.706,-222.3828 64.3753,-216.8832"/>
</g>
<!-- Node48744 -->
<g id="node26" class="node">
<title>Node48744</title>
<g id="a_node26"><a xlink:href="quickjs_8c.html#ac6b88454ffc4d639197c1e95e515e04a" target="_top" xlink:title="js_string_normalize">
<polygon fill="none" stroke="#000000" points="139,-112 139,-131 240,-131 240,-112 139,-112"/>
<text text-anchor="middle" x="189.5" y="-119" font-family="Helvetica,sans-Serif" font-size="10.00" fill="#000000">js_string_normalize</text>
</a>
</g>
</g>
<!-- Node48244&#45;&gt;Node48744 -->
<g id="edge31" class="edge">
<title>Node48244&#45;&gt;Node48744</title>
<path fill="none" stroke="#191970" d="M58.3039,-217.4059C72.5293,-196.0642 98.9003,-160.9157 130,-140.5 135.8016,-136.6915 142.4212,-133.5997 149.0871,-131.1044"/>
<polygon fill="#191970" stroke="#191970" points="55.3128,-215.5858 52.8106,-225.8809 61.1868,-219.3932 55.3128,-215.5858"/>
</g>
<!-- Node48581 -->
<g id="node27" class="node">
<title>Node48581</title>
<g id="a_node27"><a xlink:href="quickjs_8c.html#a0315f23b9804563f376c47edef2967fd" target="_top" xlink:title="JS_ToNumberHintFree">
<polygon fill="none" stroke="#ff0000" points="131,-74 131,-93 248,-93 248,-74 131,-74"/>
<text text-anchor="middle" x="189.5" y="-81" font-family="Helvetica,sans-Serif" font-size="10.00" fill="#000000">JS_ToNumberHintFree</text>
</a>
</g>
</g>
<!-- Node48244&#45;&gt;Node48581 -->
<g id="edge32" class="edge">
<title>Node48244&#45;&gt;Node48581</title>
<path fill="none" stroke="#191970" d="M53.8855,-216.483C65.281,-187.649 90.7725,-133.0065 130,-102.5 134.9648,-98.639 140.734,-95.5522 146.6884,-93.0871"/>
<polygon fill="#191970" stroke="#191970" points="50.6081,-215.2548 50.3257,-225.8459 57.1512,-217.7426 50.6081,-215.2548"/>
</g>
<!-- Node48826 -->
<g id="node28" class="node">
<title>Node48826</title>
<g id="a_node28"><a xlink:href="structqjs_1_1js__traits_3_01std_1_1string__view_01_4.html#a722fb92e222abf0655072de681e46b23" target="_top" xlink:title="qjs::js_traits\&lt; std\l::string_view \&gt;::unwrap">
<polygon fill="none" stroke="#000000" points="130,-24.5 130,-54.5 249,-54.5 249,-24.5 130,-24.5"/>
<text text-anchor="start" x="138" y="-42.5" font-family="Helvetica,sans-Serif" font-size="10.00" fill="#000000">qjs::js_traits&lt; std</text>
<text text-anchor="middle" x="189.5" y="-31.5" font-family="Helvetica,sans-Serif" font-size="10.00" fill="#000000">::string_view &gt;::unwrap</text>
</a>
</g>
</g>
<!-- Node48244&#45;&gt;Node48826 -->
<g id="edge33" class="edge">
<title>Node48244&#45;&gt;Node48826</title>
<path fill="none" stroke="#191970" d="M51.5723,-216.0781C60.7114,-181.2322 84.387,-107.7093 130,-64.5 134.0672,-60.6472 138.8153,-57.3457 143.8233,-54.5271"/>
<polygon fill="#191970" stroke="#191970" points="48.1354,-215.395 49.1064,-225.9452 54.9266,-217.0922 48.1354,-215.395"/>
</g>
<!-- Node48246 -->
<g id="node3" class="node">
<title>Node48246</title>
<g id="a_node3"><a xlink:href="quickjs_8c.html#a6bb36fa120270db7f4e19891b8a0bfe1" target="_top" xlink:title="get_private_setter_name">
<polygon fill="none" stroke="#000000" points="303,-510 303,-529 427,-529 427,-510 303,-510"/>
<text text-anchor="middle" x="365" y="-517" font-family="Helvetica,sans-Serif" font-size="10.00" fill="#000000">get_private_setter_name</text>
</a>
</g>
</g>
<!-- Node48245&#45;&gt;Node48246 -->
<g id="edge2" class="edge">
<title>Node48245&#45;&gt;Node48246</title>
<path fill="none" stroke="#191970" d="M250.9825,-519.5C267.7763,-519.5 285.984,-519.5 302.8165,-519.5"/>
<polygon fill="#191970" stroke="#191970" points="250.7337,-516.0001 240.7336,-519.5 250.7336,-523.0001 250.7337,-516.0001"/>
</g>
<!-- Node48281 -->
<g id="node6" class="node">
<title>Node48281</title>
<g id="a_node6"><a xlink:href="quickjs_8c.html#aa38698096df1fd806b60ab8b209fa4a8" target="_top" xlink:title="js_atom_concat_num">
<polygon fill="none" stroke="#000000" points="310,-548 310,-567 420,-567 420,-548 310,-548"/>
<text text-anchor="middle" x="365" y="-555" font-family="Helvetica,sans-Serif" font-size="10.00" fill="#000000">js_atom_concat_num</text>
</a>
</g>
</g>
<!-- Node48245&#45;&gt;Node48281 -->
<g id="edge5" class="edge">
<title>Node48245&#45;&gt;Node48281</title>
<path fill="none" stroke="#191970" d="M243.7783,-531.2526C268.594,-536.6258 297.6108,-542.9086 321.0324,-547.9799"/>
<polygon fill="#191970" stroke="#191970" points="244.3003,-527.7846 233.7861,-529.089 242.8189,-534.626 244.3003,-527.7846"/>
</g>
<!-- Node48247 -->
<g id="node4" class="node">
<title>Node48247</title>
<g id="a_node4"><a xlink:href="quickjs_8c.html#a00eb789430243c24dab4a63ad6a79653" target="_top" xlink:title="js_parse_class">
<polygon fill="none" stroke="#ff0000" points="507,-548 507,-567 589,-567 589,-548 507,-548"/>
<text text-anchor="middle" x="548" y="-555" font-family="Helvetica,sans-Serif" font-size="10.00" fill="#000000">js_parse_class</text>
</a>
</g>
</g>
<!-- Node48246&#45;&gt;Node48247 -->
<g id="edge3" class="edge">
<title>Node48246&#45;&gt;Node48247</title>
<path fill="none" stroke="#191970" d="M421.1144,-531.1522C448.7721,-536.8953 481.5289,-543.6973 506.8314,-548.9513"/>
<polygon fill="#191970" stroke="#191970" points="421.6814,-527.6953 411.1786,-529.089 420.2581,-534.5491 421.6814,-527.6953"/>
</g>
<!-- Node48278 -->
<g id="node5" class="node">
<title>Node48278</title>
<g id="a_node5"><a xlink:href="quickjs_8c.html#a7d2ad72913c8768cc7bceeb2693d53c4" target="_top" xlink:title="resolve_scope_private\l_field">
<polygon fill="none" stroke="#ff0000" points="491,-498.5 491,-528.5 605,-528.5 605,-498.5 491,-498.5"/>
<text text-anchor="start" x="499" y="-516.5" font-family="Helvetica,sans-Serif" font-size="10.00" fill="#000000">resolve_scope_private</text>
<text text-anchor="middle" x="548" y="-505.5" font-family="Helvetica,sans-Serif" font-size="10.00" fill="#000000">_field</text>
</a>
</g>
</g>
<!-- Node48246&#45;&gt;Node48278 -->
<g id="edge4" class="edge">
<title>Node48246&#45;&gt;Node48278</title>
<path fill="none" stroke="#191970" d="M437.5174,-517.1224C455.2539,-516.5409 473.9858,-515.9267 490.8861,-515.3726"/>
<polygon fill="#191970" stroke="#191970" points="437.0907,-513.6344 427.2108,-517.4603 437.3202,-520.6306 437.0907,-513.6344"/>
</g>
<!-- Node48281&#45;&gt;Node48247 -->
<g id="edge6" class="edge">
<title>Node48281&#45;&gt;Node48247</title>
<path fill="none" stroke="#191970" d="M430.7015,-557.5C456.0702,-557.5 484.3201,-557.5 506.7387,-557.5"/>
<polygon fill="#191970" stroke="#191970" points="430.4027,-554.0001 420.4027,-557.5 430.4026,-561.0001 430.4027,-554.0001"/>
</g>
<!-- Node48283 -->
<g id="node8" class="node">
<title>Node48283</title>
<g id="a_node8"><a xlink:href="quickjs_8c.html#aa24c64e9ce871601a39b40dbfee0deb4" target="_top" xlink:title="JS_AddIntrinsicRegExpCompiler">
<polygon fill="none" stroke="#000000" points="285,-472 285,-491 445,-491 445,-472 285,-472"/>
<text text-anchor="middle" x="365" y="-479" font-family="Helvetica,sans-Serif" font-size="10.00" fill="#000000">JS_AddIntrinsicRegExpCompiler</text>
</a>
</g>
</g>
<!-- Node48282&#45;&gt;Node48283 -->
<g id="edge8" class="edge">
<title>Node48282&#45;&gt;Node48283</title>
<path fill="none" stroke="#191970" d="M220.1873,-438.033C238.7137,-445.8691 262.9323,-455.5298 285,-462.5 296.1621,-466.0256 308.3815,-469.2421 319.8356,-471.9856"/>
<polygon fill="#191970" stroke="#191970" points="221.3659,-434.7303 210.7955,-434.011 218.6102,-441.1651 221.3659,-434.7303"/>
</g>
<!-- Node48285 -->
<g id="node10" class="node">
<title>Node48285</title>
<g id="a_node10"><a xlink:href="quickjs_8c.html#af55de7fe1d3513a7230dfbfc1cbeec62" target="_top" xlink:title="js_regexp_compile">
<polygon fill="none" stroke="#000000" points="316,-434 316,-453 414,-453 414,-434 316,-434"/>
<text text-anchor="middle" x="365" y="-441" font-family="Helvetica,sans-Serif" font-size="10.00" fill="#000000">js_regexp_compile</text>
</a>
</g>
</g>
<!-- Node48282&#45;&gt;Node48285 -->
<g id="edge10" class="edge">
<title>Node48282&#45;&gt;Node48285</title>
<path fill="none" stroke="#191970" d="M248.9526,-430.9365C270.6703,-433.2877 294.9778,-435.9193 315.7131,-438.1641"/>
<polygon fill="#191970" stroke="#191970" points="249.1722,-427.4399 238.8536,-429.8431 248.4187,-434.3992 249.1722,-427.4399"/>
</g>
<!-- Node48286 -->
<g id="node11" class="node">
<title>Node48286</title>
<g id="a_node11"><a xlink:href="quickjs_8c.html#a233052710c228313122c39c231a23ddf" target="_top" xlink:title="js_regexp_constructor">
<polygon fill="none" stroke="#000000" points="308.5,-396 308.5,-415 421.5,-415 421.5,-396 308.5,-396"/>
<text text-anchor="middle" x="365" y="-403" font-family="Helvetica,sans-Serif" font-size="10.00" fill="#000000">js_regexp_constructor</text>
</a>
</g>
</g>
<!-- Node48282&#45;&gt;Node48286 -->
<g id="edge11" class="edge">
<title>Node48282&#45;&gt;Node48286</title>
<path fill="none" stroke="#191970" d="M248.9675,-418.0619C268.1338,-415.9869 289.3157,-413.6937 308.2786,-411.6408"/>
<polygon fill="#191970" stroke="#191970" points="248.4187,-414.6008 238.8536,-419.1569 249.1722,-421.5601 248.4187,-414.6008"/>
</g>
<!-- Node48284 -->
<g id="node9" class="node">
<title>Node48284</title>
<g id="a_node9"><a xlink:href="quickjs_8c.html#aafc8241682ce24b6d72e0f237ee85a51" target="_top" xlink:title="JS_AddIntrinsicRegExp">
<polygon fill="none" stroke="#ff0000" points="487.5,-457 487.5,-476 608.5,-476 608.5,-457 487.5,-457"/>
<text text-anchor="middle" x="548" y="-464" font-family="Helvetica,sans-Serif" font-size="10.00" fill="#000000">JS_AddIntrinsicRegExp</text>
</a>
</g>
</g>
<!-- Node48283&#45;&gt;Node48284 -->
<g id="edge9" class="edge">
<title>Node48283&#45;&gt;Node48284</title>
<path fill="none" stroke="#191970" d="M455.0527,-474.1186C466.0269,-473.2191 477.0289,-472.3173 487.427,-471.465"/>
<polygon fill="#191970" stroke="#191970" points="454.6809,-470.6373 445.0002,-474.9426 455.2528,-477.6139 454.6809,-470.6373"/>
</g>
<!-- Node48286&#45;&gt;Node48284 -->
<g id="edge12" class="edge">
<title>Node48286&#45;&gt;Node48284</title>
<path fill="none" stroke="#191970" d="M424.8055,-417.7915C431.7005,-419.7695 438.562,-422.0019 445,-424.5 462.0638,-431.1211 464.2296,-437.1675 481,-444.5 491.7689,-449.2085 503.883,-453.4793 514.819,-456.9787"/>
<polygon fill="#191970" stroke="#191970" points="425.2911,-414.2976 414.7248,-415.0743 423.4693,-421.0563 425.2911,-414.2976"/>
</g>
<!-- Node48288 -->
<g id="node13" class="node">
<title>Node48288</title>
<g id="a_node13"><a xlink:href="quickjs_8c.html#ac2894ff4edcdb4e6841bcce9c76081e3" target="_top" xlink:title="JS_CallInternal">
<polygon fill="none" stroke="#000000" points="323.5,-340 323.5,-359 406.5,-359 406.5,-340 323.5,-340"/>
<text text-anchor="middle" x="365" y="-347" font-family="Helvetica,sans-Serif" font-size="10.00" fill="#000000">JS_CallInternal</text>
</a>
</g>
</g>
<!-- Node48287&#45;&gt;Node48288 -->
<g id="edge14" class="edge">
<title>Node48287&#45;&gt;Node48288</title>
<path fill="none" stroke="#191970" d="M240.7775,-349.5C266.9883,-349.5 298.4804,-349.5 323.1977,-349.5"/>
<polygon fill="#191970" stroke="#191970" points="240.647,-346.0001 230.647,-349.5 240.6469,-353.0001 240.647,-346.0001"/>
</g>
<!-- Node48765 -->
<g id="node18" class="node">
<title>Node48765</title>
<g id="a_node18"><a xlink:href="quickjs_8c.html#a43064473b2e303ee40f4c1c7a87e85da" target="_top" xlink:title="js_function_constructor">
<polygon fill="none" stroke="#ff0000" points="306,-302 306,-321 424,-321 424,-302 306,-302"/>
<text text-anchor="middle" x="365" y="-309" font-family="Helvetica,sans-Serif" font-size="10.00" fill="#000000">js_function_constructor</text>
</a>
</g>
</g>
<!-- Node48287&#45;&gt;Node48765 -->
<g id="edge23" class="edge">
<title>Node48287&#45;&gt;Node48765</title>
<path fill="none" stroke="#191970" d="M240.512,-338.4547C266.0207,-332.9314 296.584,-326.3137 321.043,-321.0178"/>
<polygon fill="#191970" stroke="#191970" points="239.6798,-335.0537 230.647,-340.5907 241.1612,-341.8951 239.6798,-335.0537"/>
</g>
<!-- Node48823 -->
<g id="node19" class="node">
<title>Node48823</title>
<g id="a_node19"><a xlink:href="quickjs_8c.html#aa760a09841b95bbc8ab2859780713705" target="_top" xlink:title="js_global_eval">
<polygon fill="none" stroke="#ff0000" points="326,-264 326,-283 404,-283 404,-264 326,-264"/>
<text text-anchor="middle" x="365" y="-271" font-family="Helvetica,sans-Serif" font-size="10.00" fill="#000000">js_global_eval</text>
</a>
</g>
</g>
<!-- Node48287&#45;&gt;Node48823 -->
<g id="edge24" class="edge">
<title>Node48287&#45;&gt;Node48823</title>
<path fill="none" stroke="#191970" d="M238.4479,-336.1344C242.1228,-334.4538 245.6855,-332.5815 249,-330.5 268.7016,-318.1274 264.8431,-304.1161 285,-292.5 297.3684,-285.3723 312.281,-280.9139 325.8629,-278.1271"/>
<polygon fill="#191970" stroke="#191970" points="237.0939,-332.9067 229.1591,-339.9273 239.7402,-339.3872 237.0939,-332.9067"/>
</g>
<!-- Node48288&#45;&gt;Node48288 -->
<g id="edge22" class="edge">
<title>Node48288&#45;&gt;Node48288</title>
<path fill="none" stroke="#191970" d="M332.4401,-367.7746C333.3684,-373.241 344.2217,-377.5 365,-377.5 395.9258,-377.5 404.8653,-368.0653 391.8185,-359.2571"/>
<polygon fill="#191970" stroke="#191970" points="335.4943,-369.5054 338.1815,-359.2571 329.6898,-365.5928 335.4943,-369.5054"/>
</g>
<!-- Node48289 -->
<g id="node14" class="node">
<title>Node48289</title>
<g id="a_node14"><a xlink:href="quickjs_8c.html#ade71a22dc56e7371392393df663b28b3" target="_top" xlink:title="async_func_resume">
<polygon fill="none" stroke="#ff0000" points="496,-416 496,-435 600,-435 600,-416 496,-416"/>
<text text-anchor="middle" x="548" y="-423" font-family="Helvetica,sans-Serif" font-size="10.00" fill="#000000">async_func_resume</text>
</a>
</g>
</g>
<!-- Node48288&#45;&gt;Node48289 -->
<g id="edge15" class="edge">
<title>Node48288&#45;&gt;Node48289</title>
<path fill="none" stroke="#191970" d="M396.2243,-363.2948C411.1162,-370.038 429.1091,-378.425 445,-386.5 461.3174,-394.7918 464.083,-399.5123 481,-406.5 489.7164,-410.1004 499.3411,-413.2706 508.5115,-415.9386"/>
<polygon fill="#191970" stroke="#191970" points="397.4951,-360.0287 386.9392,-359.1207 394.6249,-366.4133 397.4951,-360.0287"/>
</g>
<!-- Node48300 -->
<g id="node15" class="node">
<title>Node48300</title>
<g id="a_node15"><a xlink:href="quickjs_8c.html#a1a4c02a29525d5cb2085dd8bca3af350" target="_top" xlink:title="JS_Call">
<polygon fill="none" stroke="#ff0000" points="522.5,-378 522.5,-397 573.5,-397 573.5,-378 522.5,-378"/>
<text text-anchor="middle" x="548" y="-385" font-family="Helvetica,sans-Serif" font-size="10.00" fill="#000000">JS_Call</text>
</a>
</g>
</g>
<!-- Node48288&#45;&gt;Node48300 -->
<g id="edge16" class="edge">
<title>Node48288&#45;&gt;Node48300</title>
<path fill="none" stroke="#191970" d="M416.7033,-354.0891C452.1393,-360.3035 497.4659,-370.1994 524.5351,-377.9318"/>
<polygon fill="#191970" stroke="#191970" points="416.9702,-350.5844 406.5255,-352.362 415.799,-357.4857 416.9702,-350.5844"/>
</g>
<!-- Node48374 -->
<g id="node16" class="node">
<title>Node48374</title>
<g id="a_node16"><a xlink:href="quickjs_8c.html#ad35594576a14c10812efaf958c99af8a" target="_top" xlink:title="JS_CallConstructorInternal">
<polygon fill="none" stroke="#ff0000" points="481,-340 481,-359 615,-359 615,-340 481,-340"/>
<text text-anchor="middle" x="548" y="-347" font-family="Helvetica,sans-Serif" font-size="10.00" fill="#000000">JS_CallConstructorInternal</text>
</a>
</g>
</g>
<!-- Node48288&#45;&gt;Node48374 -->
<g id="edge18" class="edge">
<title>Node48288&#45;&gt;Node48374</title>
<path fill="none" stroke="#191970" d="M416.6321,-343.3552C436.5558,-342.7106 459.6144,-342.5809 480.7994,-342.9662"/>
<polygon fill="#191970" stroke="#191970" points="416.3854,-339.8619 406.5255,-343.7392 416.6512,-346.8569 416.3854,-339.8619"/>
</g>
<!-- Node48388 -->
<g id="node17" class="node">
<title>Node48388</title>
<g id="a_node17"><a xlink:href="quickjs_8c.html#a75f6ee5e4235a7dc99889f3d2eb2c147" target="_top" xlink:title="JS_CallFree">
<polygon fill="none" stroke="#ff0000" points="512.5,-302 512.5,-321 583.5,-321 583.5,-302 512.5,-302"/>
<text text-anchor="middle" x="548" y="-309" font-family="Helvetica,sans-Serif" font-size="10.00" fill="#000000">JS_CallFree</text>
</a>
</g>
</g>
<!-- Node48288&#45;&gt;Node48388 -->
<g id="edge20" class="edge">
<title>Node48288&#45;&gt;Node48388</title>
<path fill="none" stroke="#191970" d="M398.3988,-337.21C430.6363,-328.6986 479.2849,-318.5546 512.2822,-313.4359"/>
<polygon fill="#191970" stroke="#191970" points="397.2696,-333.8903 388.5494,-339.9076 399.1188,-340.6416 397.2696,-333.8903"/>
</g>
<!-- Node48300&#45;&gt;Node48288 -->
<g id="edge17" class="edge">
<title>Node48300&#45;&gt;Node48288</title>
<path fill="none" stroke="#191970" d="M512.2571,-385.5602C475.6883,-379.886 419.9158,-368.0448 388.5494,-359.0924"/>
<polygon fill="#191970" stroke="#191970" points="512.0827,-389.0717 522.4832,-387.0516 513.093,-382.145 512.0827,-389.0717"/>
</g>
<!-- Node48374&#45;&gt;Node48288 -->
<g id="edge19" class="edge">
<title>Node48374&#45;&gt;Node48288</title>
<path fill="none" stroke="#191970" d="M470.7694,-356.1765C448.7246,-356.4053 425.5469,-356.1 406.5255,-355.2608"/>
<polygon fill="#191970" stroke="#191970" points="470.8502,-359.6758 480.7994,-356.0338 470.7506,-352.6765 470.8502,-359.6758"/>
</g>
<!-- Node48388&#45;&gt;Node48288 -->
<g id="edge21" class="edge">
<title>Node48388&#45;&gt;Node48288</title>
<path fill="none" stroke="#191970" d="M514.8304,-323.7294C484.4336,-331.767 439.307,-341.2772 406.5255,-346.638"/>
<polygon fill="#191970" stroke="#191970" points="515.8168,-327.0882 524.5351,-321.0682 513.9655,-320.3375 515.8168,-327.0882"/>
</g>
<!-- Node48423 -->
<g id="node23" class="node">
<title>Node48423</title>
<g id="a_node23"><a xlink:href="quickjs-libc_8c.html#ad04466feec6822a3b838baf229f6dfa0" target="_top" xlink:title="js_std_add_helpers">
<polygon fill="none" stroke="#ff0000" points="314.5,-226 314.5,-245 415.5,-245 415.5,-226 314.5,-226"/>
<text text-anchor="middle" x="365" y="-233" font-family="Helvetica,sans-Serif" font-size="10.00" fill="#000000">js_std_add_helpers</text>
</a>
</g>
</g>
<!-- Node48824&#45;&gt;Node48423 -->
<g id="edge28" class="edge">
<title>Node48824&#45;&gt;Node48423</title>
<path fill="none" stroke="#191970" d="M223.5717,-235.5C249.3427,-235.5 285.1443,-235.5 314.2777,-235.5"/>
<polygon fill="#191970" stroke="#191970" points="223.5346,-232.0001 213.5345,-235.5 223.5345,-239.0001 223.5346,-232.0001"/>
</g>
<!-- Node48827 -->
<g id="node29" class="node">
<title>Node48827</title>
<g id="a_node29"><a xlink:href="structqjs_1_1js__traits_3_01std_1_1string_01_4.html#a9511dd47284884284b365ff1bd3de9d5" target="_top" xlink:title="qjs::js_traits\&lt; std\l::string \&gt;::unwrap">
<polygon fill="none" stroke="#000000" points="318.5,-49.5 318.5,-79.5 411.5,-79.5 411.5,-49.5 318.5,-49.5"/>
<text text-anchor="start" x="326.5" y="-67.5" font-family="Helvetica,sans-Serif" font-size="10.00" fill="#000000">qjs::js_traits&lt; std</text>
<text text-anchor="middle" x="365" y="-56.5" font-family="Helvetica,sans-Serif" font-size="10.00" fill="#000000">::string &gt;::unwrap</text>
</a>
</g>
</g>
<!-- Node48826&#45;&gt;Node48827 -->
<g id="edge34" class="edge">
<title>Node48826&#45;&gt;Node48827</title>
<path fill="none" stroke="#191970" d="M259.3305,-49.4474C279.1672,-52.2731 300.28,-55.2806 318.377,-57.8585"/>
<polygon fill="#191970" stroke="#191970" points="259.8,-45.979 249.4063,-48.0337 258.8127,-52.909 259.8,-45.979"/>
</g>
<!-- Node48828 -->
<g id="node30" class="node">
<title>Node48828</title>
<g id="a_node30"><a xlink:href="structqjs_1_1js__traits_3_01const_01char_01_5_01_4.html#ac03002f04b35482ae7ad9ac3a693ddbf" target="_top" xlink:title="qjs::js_traits\&lt; const\l char * \&gt;::unwrap">
<polygon fill="none" stroke="#000000" points="313.5,-.5 313.5,-30.5 416.5,-30.5 416.5,-.5 313.5,-.5"/>
<text text-anchor="start" x="321.5" y="-18.5" font-family="Helvetica,sans-Serif" font-size="10.00" fill="#000000">qjs::js_traits&lt; const</text>
<text text-anchor="middle" x="365" y="-7.5" font-family="Helvetica,sans-Serif" font-size="10.00" fill="#000000"> char * &gt;::unwrap</text>
</a>
</g>
</g>
<!-- Node48826&#45;&gt;Node48828 -->
<g id="edge35" class="edge">
<title>Node48826&#45;&gt;Node48828</title>
<path fill="none" stroke="#191970" d="M259.5341,-29.9227C277.4721,-27.4696 296.4407,-24.8756 313.2703,-22.5741"/>
<polygon fill="#191970" stroke="#191970" points="258.8398,-26.485 249.4063,-31.3077 259.7883,-33.4204 258.8398,-26.485"/>
</g>
</g>
</svg>
        <g id="navigator" transform="translate(0 0)" fill="#404254">
                <rect fill="#f2f5e9" fill-opacity="0.5" stroke="#606060" stroke-width=".5" x="0" y="0" width="60" height="60"/>
                <use id="zoomplus" xlink:href="#zoomPlus" x="17" y="9" onmousedown="handleZoom(evt,'in')"/>
                <use id="zoomminus" xlink:href="#zoomMin" x="42" y="9" onmousedown="handleZoom(evt,'out')"/>
                <use id="reset" xlink:href="#resetDef" x="30" y="36" onmousedown="handleReset()"/>
                <g id="arrowUp" xlink:href="#dirArrow" transform="translate(30 24)" onmousedown="handlePan(0,-1)">
                  <use xlink:href="#rim" fill="#404040">
                        <set attributeName="fill" to="#808080" begin="arrowUp.mouseover" end="arrowUp.mouseout"/>
                  </use>
                  <path fill="none" stroke="white" stroke-width="1.5" d="M0,-3.0v7 M-2.5,-0.5L0,-3.0L2.5,-0.5"/>
                </g>
                <g id="arrowRight" xlink:href="#dirArrow" transform="rotate(90) translate(36 -43)" onmousedown="handlePan(1,0)">
                  <use xlink:href="#rim" fill="#404040">
                        <set attributeName="fill" to="#808080" begin="arrowRight.mouseover" end="arrowRight.mouseout"/>
                  </use>
                  <path fill="none" stroke="white" stroke-width="1.5" d="M0,-3.0v7 M-2.5,-0.5L0,-3.0L2.5,-0.5"/>
                </g>
                <g id="arrowDown" xlink:href="#dirArrow" transform="rotate(180) translate(-30 -48)" onmousedown="handlePan(0,1)">
                  <use xlink:href="#rim" fill="#404040">
                        <set attributeName="fill" to="#808080" begin="arrowDown.mouseover" end="arrowDown.mouseout"/>
                  </use>
                  <path fill="none" stroke="white" stroke-width="1.5" d="M0,-3.0v7 M-2.5,-0.5L0,-3.0L2.5,-0.5"/>
                </g>
                <g id="arrowLeft" xlink:href="#dirArrow" transform="rotate(270) translate(-36 17)" onmousedown="handlePan(-1,0)">
                  <use xlink:href="#rim" fill="#404040">
                        <set attributeName="fill" to="#808080" begin="arrowLeft.mouseover" end="arrowLeft.mouseout"/>
                  </use>
                  <path fill="none" stroke="white" stroke-width="1.5" d="M0,-3.0v7 M-2.5,-0.5L0,-3.0L2.5,-0.5"/>
                </g>
        </g>
        <svg viewBox="0 0 15 15" width="100%" height="30px" preserveAspectRatio="xMaxYMin meet">
         <g id="arrow_out" transform="scale(0.3 0.3)">
          <a xlink:href="quickjs_8h_a1e7f56471f8608df9405987087a56070_icgraph_org.svg" target="_base">
           <rect id="button" ry="5" rx="5" y="6" x="6" height="38" width="38"
                fill="#f2f5e9" fill-opacity="0.5" stroke="#606060" stroke-width="1.0"/>
           <path id="arrow"
             d="M 11.500037,31.436501 C 11.940474,20.09759 22.043105,11.32322 32.158766,21.979434 L 37.068811,17.246167 C 37.068811,17.246167 37.088388,32 37.088388,32 L 22.160133,31.978069 C 22.160133,31.978069 26.997745,27.140456 26.997745,27.140456 C 18.528582,18.264221 13.291696,25.230495 11.500037,31.436501 z"
             style="fill:#404040;"/>
          </a>
         </g>
        </svg>
</svg>
