<?xml version="1.0" encoding="UTF-8" standalone="no"?>
<!DOCTYPE svg PUBLIC "-//W3C//DTD SVG 1.1//EN"
 "http://www.w3.org/Graphics/SVG/1.1/DTD/svg11.dtd">
<!-- Generated by graphviz version 2.40.1 (20161225.0304)
 -->
<!-- Title: JS_AddModuleExport Pages: 1 -->
<!--zoomable 446 -->
<svg id="main" version="1.1" xmlns="http://www.w3.org/2000/svg" xmlns:xlink="http://www.w3.org/1999/xlink" xml:space="preserve" onload="init(evt)">
<style type="text/css"><![CDATA[
.edge:hover path { stroke: red; }
.edge:hover polygon { stroke: red; fill: red; }
]]></style>
<script type="text/javascript"><![CDATA[
var edges = document.getElementsByTagName('g');
if (edges && edges.length) {
  for (var i=0;i<edges.length;i++) {
    if (edges[i].id.substr(0,4)=='edge') {
      edges[i].setAttribute('class','edge');
    }
  }
}
]]></script>
        <defs>
                <circle id="rim" cx="0" cy="0" r="7"/>
                <circle id="rim2" cx="0" cy="0" r="3.5"/>
                <g id="zoomPlus">
                        <use xlink:href="#rim" fill="#404040">
                                <set attributeName="fill" to="#808080" begin="zoomplus.mouseover" end="zoomplus.mouseout"/>
                        </use>
                        <path d="M-4,0h8M0,-4v8" fill="none" stroke="white" stroke-width="1.5" pointer-events="none"/>
                </g>
                <g id="zoomMin">
                        <use xlink:href="#rim" fill="#404040">
                                <set attributeName="fill" to="#808080" begin="zoomminus.mouseover" end="zoomminus.mouseout"/>
                        </use>
                        <path d="M-4,0h8" fill="none" stroke="white" stroke-width="1.5" pointer-events="none"/>
                </g>
                <g id="dirArrow">
                        <path fill="none" stroke="white" stroke-width="1.5" d="M0,-3.0v7 M-2.5,-0.5L0,-3.0L2.5,-0.5"/>
                </g>
               <g id="resetDef">
                       <use xlink:href="#rim2" fill="#404040">
                               <set attributeName="fill" to="#808080" begin="reset.mouseover" end="reset.mouseout"/>
                       </use>
               </g>
        </defs>

<script type="text/javascript">
var viewWidth = 658;
var viewHeight = 446;
var sectionId = 'dynsection-1082';
</script>
<script xlink:href="svgpan.js"/>
<svg id="graph" class="graph">
<g id="viewport">
<title>JS_AddModuleExport</title>
<!-- Node318456 -->
<g id="node1" class="node">
<title>Node318456</title>
<polygon fill="#bfbfbf" stroke="#000000" points="0,-209.5 0,-228.5 111,-228.5 111,-209.5 0,-209.5"/>
<text text-anchor="middle" x="55.5" y="-216.5" font-family="Helvetica,sans-Serif" font-size="10.00" fill="#000000">JS_AddModuleExport</text>
</g>
<!-- Node318457 -->
<g id="node2" class="node">
<title>Node318457</title>
<g id="a_node2"><a xlink:href="quickjs_8c.html#aaea4bacf94d0db93f4a13f6e88860ad0" target="_top" xlink:title="add_export_entry2">
<polygon fill="none" stroke="#000000" points="147,-342.5 147,-361.5 244,-361.5 244,-342.5 147,-342.5"/>
<text text-anchor="middle" x="195.5" y="-349.5" font-family="Helvetica,sans-Serif" font-size="10.00" fill="#000000">add_export_entry2</text>
</a>
</g>
</g>
<!-- Node318456&#45;&gt;Node318457 -->
<g id="edge1" class="edge">
<title>Node318456&#45;&gt;Node318457</title>
<path fill="none" stroke="#191970" d="M65.5685,-228.565C89.065,-250.8868 147.7779,-306.664 177.5642,-334.961"/>
<polygon fill="#191970" stroke="#191970" points="175.4844,-337.8128 185.1451,-342.1628 180.3057,-332.7378 175.4844,-337.8128"/>
</g>
<!-- Node318470 -->
<g id="node11" class="node">
<title>Node318470</title>
<g id="a_node11"><a xlink:href="quickjs_8c.html#ab7fc45a99935a1c0ba50b0216d9401a9" target="_top" xlink:title="JS_FreeAtom">
<polygon fill="none" stroke="#000000" points="157,-209.5 157,-228.5 234,-228.5 234,-209.5 157,-209.5"/>
<text text-anchor="middle" x="195.5" y="-216.5" font-family="Helvetica,sans-Serif" font-size="10.00" fill="#000000">JS_FreeAtom</text>
</a>
</g>
</g>
<!-- Node318456&#45;&gt;Node318470 -->
<g id="edge10" class="edge">
<title>Node318456&#45;&gt;Node318470</title>
<path fill="none" stroke="#191970" d="M111.234,-219C122.9102,-219 135.1395,-219 146.5466,-219"/>
<polygon fill="#191970" stroke="#191970" points="146.752,-222.5001 156.752,-219 146.7519,-215.5001 146.752,-222.5001"/>
</g>
<!-- Node318475 -->
<g id="node14" class="node">
<title>Node318475</title>
<g id="a_node14"><a xlink:href="quickjs_8c.html#aa2ef5af1544a3012f91a80c98c326b8f" target="_top" xlink:title="JS_NewAtom">
<polygon fill="none" stroke="#000000" points="157,-133.5 157,-152.5 234,-152.5 234,-133.5 157,-133.5"/>
<text text-anchor="middle" x="195.5" y="-140.5" font-family="Helvetica,sans-Serif" font-size="10.00" fill="#000000">JS_NewAtom</text>
</a>
</g>
</g>
<!-- Node318456&#45;&gt;Node318475 -->
<g id="edge14" class="edge">
<title>Node318456&#45;&gt;Node318475</title>
<path fill="none" stroke="#191970" d="M73.2311,-209.3745C97.4257,-196.2403 140.9756,-172.599 169.0395,-157.3642"/>
<polygon fill="#191970" stroke="#191970" points="170.7942,-160.3943 177.9129,-152.5473 167.4545,-154.2423 170.7942,-160.3943"/>
</g>
<!-- Node318458 -->
<g id="node3" class="node">
<title>Node318458</title>
<g id="a_node3"><a xlink:href="quickjs_8c.html#af5a10beab08419072e00fedfe4e467af" target="_top" xlink:title="find_export_entry">
<polygon fill="none" stroke="#000000" points="280.5,-418.5 280.5,-437.5 372.5,-437.5 372.5,-418.5 280.5,-418.5"/>
<text text-anchor="middle" x="326.5" y="-425.5" font-family="Helvetica,sans-Serif" font-size="10.00" fill="#000000">find_export_entry</text>
</a>
</g>
</g>
<!-- Node318457&#45;&gt;Node318458 -->
<g id="edge2" class="edge">
<title>Node318457&#45;&gt;Node318458</title>
<path fill="none" stroke="#191970" d="M207.8725,-361.5407C223.9016,-373.615 252.9982,-394.5742 280,-409 283.5335,-410.8878 287.2961,-412.7098 291.0919,-414.429"/>
<polygon fill="#191970" stroke="#191970" points="289.9148,-417.7327 300.484,-418.4692 292.681,-411.3024 289.9148,-417.7327"/>
</g>
<!-- Node318459 -->
<g id="node4" class="node">
<title>Node318459</title>
<g id="a_node4"><a xlink:href="quickjs_8c.html#ab18048ab5eea3e47109a5473f78515bc" target="_top" xlink:title="JS_AtomGetStr">
<polygon fill="none" stroke="#000000" points="283.5,-380.5 283.5,-399.5 369.5,-399.5 369.5,-380.5 283.5,-380.5"/>
<text text-anchor="middle" x="326.5" y="-387.5" font-family="Helvetica,sans-Serif" font-size="10.00" fill="#000000">JS_AtomGetStr</text>
</a>
</g>
</g>
<!-- Node318457&#45;&gt;Node318459 -->
<g id="edge3" class="edge">
<title>Node318457&#45;&gt;Node318459</title>
<path fill="none" stroke="#191970" d="M228.5568,-361.589C245.3125,-366.4494 265.8577,-372.4091 283.7965,-377.6127"/>
<polygon fill="#191970" stroke="#191970" points="282.8745,-380.9895 293.4537,-380.4141 284.8247,-374.2666 282.8745,-380.9895"/>
</g>
<!-- Node318465 -->
<g id="node6" class="node">
<title>Node318465</title>
<g id="a_node6"><a xlink:href="quickjs_8c.html#abbf44eaeace1104a6bef718fbf5700fe" target="_top" xlink:title="JS_DupAtom">
<polygon fill="none" stroke="#000000" points="289,-342.5 289,-361.5 364,-361.5 364,-342.5 289,-342.5"/>
<text text-anchor="middle" x="326.5" y="-349.5" font-family="Helvetica,sans-Serif" font-size="10.00" fill="#000000">JS_DupAtom</text>
</a>
</g>
</g>
<!-- Node318457&#45;&gt;Node318465 -->
<g id="edge5" class="edge">
<title>Node318457&#45;&gt;Node318465</title>
<path fill="none" stroke="#191970" d="M244.2796,-352C255.5299,-352 267.4856,-352 278.694,-352"/>
<polygon fill="#191970" stroke="#191970" points="278.7358,-355.5001 288.7357,-352 278.7357,-348.5001 278.7358,-355.5001"/>
</g>
<!-- Node318467 -->
<g id="node8" class="node">
<title>Node318467</title>
<g id="a_node8"><a xlink:href="quickjs_8c.html#a39677cf9d17404b20a0d067fe1f4a86d" target="_top" xlink:title="js_resize_array">
<polygon fill="none" stroke="#000000" points="285,-304.5 285,-323.5 368,-323.5 368,-304.5 285,-304.5"/>
<text text-anchor="middle" x="326.5" y="-311.5" font-family="Helvetica,sans-Serif" font-size="10.00" fill="#000000">js_resize_array</text>
</a>
</g>
</g>
<!-- Node318457&#45;&gt;Node318467 -->
<g id="edge7" class="edge">
<title>Node318457&#45;&gt;Node318467</title>
<path fill="none" stroke="#191970" d="M228.5568,-342.411C245.3125,-337.5506 265.8577,-331.5909 283.7965,-326.3873"/>
<polygon fill="#191970" stroke="#191970" points="284.8247,-329.7334 293.4537,-323.5859 282.8745,-323.0105 284.8247,-329.7334"/>
</g>
<!-- Node318460 -->
<g id="node5" class="node">
<title>Node318460</title>
<g id="a_node5"><a xlink:href="quickjs_8c.html#a4e63c63058f1efe20ee939c165f7b3ad" target="_top" xlink:title="JS_AtomGetStrRT">
<polygon fill="none" stroke="#ff0000" points="411,-380.5 411,-399.5 510,-399.5 510,-380.5 411,-380.5"/>
<text text-anchor="middle" x="460.5" y="-387.5" font-family="Helvetica,sans-Serif" font-size="10.00" fill="#000000">JS_AtomGetStrRT</text>
</a>
</g>
</g>
<!-- Node318459&#45;&gt;Node318460 -->
<g id="edge4" class="edge">
<title>Node318459&#45;&gt;Node318460</title>
<path fill="none" stroke="#191970" d="M369.636,-390C379.5057,-390 390.17,-390 400.6021,-390"/>
<polygon fill="#191970" stroke="#191970" points="400.9187,-393.5001 410.9187,-390 400.9186,-386.5001 400.9187,-393.5001"/>
</g>
<!-- Node318466 -->
<g id="node7" class="node">
<title>Node318466</title>
<g id="a_node7"><a xlink:href="quickjs_8c.html#a7f6796ee7a195631366f57c713a33f65" target="_top" xlink:title="__JS_AtomIsConst">
<polygon fill="none" stroke="#000000" points="548,-228.5 548,-247.5 650,-247.5 650,-228.5 548,-228.5"/>
<text text-anchor="middle" x="599" y="-235.5" font-family="Helvetica,sans-Serif" font-size="10.00" fill="#000000">__JS_AtomIsConst</text>
</a>
</g>
</g>
<!-- Node318465&#45;&gt;Node318466 -->
<g id="edge6" class="edge">
<title>Node318465&#45;&gt;Node318466</title>
<path fill="none" stroke="#191970" d="M364.2102,-355.7217C403.3035,-357.9032 465.1401,-356.5502 512,-333 546.445,-315.6891 573.9482,-278.6187 588.2412,-256.2471"/>
<polygon fill="#191970" stroke="#191970" points="591.2673,-258.0079 593.5396,-247.6596 585.31,-254.3322 591.2673,-258.0079"/>
</g>
<!-- Node318468 -->
<g id="node9" class="node">
<title>Node318468</title>
<g id="a_node9"><a xlink:href="quickjs_8c.html#a1c31248142879982abb1595f97817cd9" target="_top" xlink:title="js_realloc2">
<polygon fill="none" stroke="#000000" points="429,-304.5 429,-323.5 492,-323.5 492,-304.5 429,-304.5"/>
<text text-anchor="middle" x="460.5" y="-311.5" font-family="Helvetica,sans-Serif" font-size="10.00" fill="#000000">js_realloc2</text>
</a>
</g>
</g>
<!-- Node318467&#45;&gt;Node318468 -->
<g id="edge8" class="edge">
<title>Node318467&#45;&gt;Node318468</title>
<path fill="none" stroke="#191970" d="M368.1639,-314C384.1718,-314 402.4425,-314 418.4834,-314"/>
<polygon fill="#191970" stroke="#191970" points="418.6563,-317.5001 428.6563,-314 418.6562,-310.5001 418.6563,-317.5001"/>
</g>
<!-- Node318469 -->
<g id="node10" class="node">
<title>Node318469</title>
<g id="a_node10"><a xlink:href="cutils_8h.html#a94f155fcce337a2b9d4719ed8042cbbe" target="_top" xlink:title="max_int">
<polygon fill="none" stroke="#000000" points="435,-266.5 435,-285.5 486,-285.5 486,-266.5 435,-266.5"/>
<text text-anchor="middle" x="460.5" y="-273.5" font-family="Helvetica,sans-Serif" font-size="10.00" fill="#000000">max_int</text>
</a>
</g>
</g>
<!-- Node318467&#45;&gt;Node318469 -->
<g id="edge9" class="edge">
<title>Node318467&#45;&gt;Node318469</title>
<path fill="none" stroke="#191970" d="M360.3139,-304.411C380.0791,-298.8059 404.9992,-291.739 425.0409,-286.0556"/>
<polygon fill="#191970" stroke="#191970" points="426.0671,-289.4026 434.7329,-283.3071 424.1573,-282.6682 426.0671,-289.4026"/>
</g>
<!-- Node318470&#45;&gt;Node318466 -->
<g id="edge11" class="edge">
<title>Node318470&#45;&gt;Node318466</title>
<path fill="none" stroke="#191970" d="M234.1893,-220.8218C304.4395,-224.1297 453.4735,-231.1475 537.6969,-235.1134"/>
<polygon fill="#191970" stroke="#191970" points="537.7333,-238.6189 547.8869,-235.5932 538.0626,-231.6266 537.7333,-238.6189"/>
</g>
<!-- Node318471 -->
<g id="node12" class="node">
<title>Node318471</title>
<g id="a_node12"><a xlink:href="quickjs_8c.html#a0bbd9e3ecd55e3ea6c9d44bfda382095" target="_top" xlink:title="__JS_FreeAtom">
<polygon fill="none" stroke="#000000" points="283,-190.5 283,-209.5 370,-209.5 370,-190.5 283,-190.5"/>
<text text-anchor="middle" x="326.5" y="-197.5" font-family="Helvetica,sans-Serif" font-size="10.00" fill="#000000">__JS_FreeAtom</text>
</a>
</g>
</g>
<!-- Node318470&#45;&gt;Node318471 -->
<g id="edge12" class="edge">
<title>Node318470&#45;&gt;Node318471</title>
<path fill="none" stroke="#191970" d="M234.0958,-213.4021C246.1253,-211.6574 259.6203,-209.7001 272.5025,-207.8317"/>
<polygon fill="#191970" stroke="#191970" points="273.2686,-211.2573 282.6626,-206.3581 272.2637,-204.3298 273.2686,-211.2573"/>
</g>
<!-- Node318472 -->
<g id="node13" class="node">
<title>Node318472</title>
<g id="a_node13"><a xlink:href="quickjs_8c.html#a58c8965dad50b15b75918a09f3d9dc7c" target="_top" xlink:title="JS_FreeAtomStruct">
<polygon fill="none" stroke="#ff0000" points="409,-190.5 409,-209.5 512,-209.5 512,-190.5 409,-190.5"/>
<text text-anchor="middle" x="460.5" y="-197.5" font-family="Helvetica,sans-Serif" font-size="10.00" fill="#000000">JS_FreeAtomStruct</text>
</a>
</g>
</g>
<!-- Node318471&#45;&gt;Node318472 -->
<g id="edge13" class="edge">
<title>Node318471&#45;&gt;Node318472</title>
<path fill="none" stroke="#191970" d="M370.006,-200C379.1943,-200 389.0576,-200 398.7722,-200"/>
<polygon fill="#191970" stroke="#191970" points="398.8075,-203.5001 408.8074,-200 398.8074,-196.5001 398.8075,-203.5001"/>
</g>
<!-- Node318476 -->
<g id="node15" class="node">
<title>Node318476</title>
<g id="a_node15"><a xlink:href="quickjs_8c.html#a522741f41afb1d0da0aa55968cd8579e" target="_top" xlink:title="JS_NewAtomLen">
<polygon fill="none" stroke="#000000" points="280,-95.5 280,-114.5 373,-114.5 373,-95.5 280,-95.5"/>
<text text-anchor="middle" x="326.5" y="-102.5" font-family="Helvetica,sans-Serif" font-size="10.00" fill="#000000">JS_NewAtomLen</text>
</a>
</g>
</g>
<!-- Node318475&#45;&gt;Node318476 -->
<g id="edge15" class="edge">
<title>Node318475&#45;&gt;Node318476</title>
<path fill="none" stroke="#191970" d="M228.5568,-133.411C245.3125,-128.5506 265.8577,-122.5909 283.7965,-117.3873"/>
<polygon fill="#191970" stroke="#191970" points="284.8247,-120.7334 293.4537,-114.5859 282.8745,-114.0105 284.8247,-120.7334"/>
</g>
<!-- Node318477 -->
<g id="node16" class="node">
<title>Node318477</title>
<g id="a_node16"><a xlink:href="quickjs_8c.html#ac8c91ebeea0cf07e3079c49a16de739f" target="_top" xlink:title="__JS_FindAtom">
<polygon fill="none" stroke="#ff0000" points="417.5,-152.5 417.5,-171.5 503.5,-171.5 503.5,-152.5 417.5,-152.5"/>
<text text-anchor="middle" x="460.5" y="-159.5" font-family="Helvetica,sans-Serif" font-size="10.00" fill="#000000">__JS_FindAtom</text>
</a>
</g>
</g>
<!-- Node318476&#45;&gt;Node318477 -->
<g id="edge16" class="edge">
<title>Node318476&#45;&gt;Node318477</title>
<path fill="none" stroke="#191970" d="M346.3121,-114.6555C362.9048,-122.6136 387.2909,-134.0119 409,-143 413.7754,-144.9772 418.8389,-146.9693 423.854,-148.8814"/>
<polygon fill="#191970" stroke="#191970" points="422.7579,-152.2082 433.3503,-152.4348 425.2111,-145.6522 422.7579,-152.2082"/>
</g>
<!-- Node318479 -->
<g id="node17" class="node">
<title>Node318479</title>
<g id="a_node17"><a xlink:href="quickjs_8c.html#ab3ca6381d29dea396b12acd7f755c51a" target="_top" xlink:title="is_digit">
<polygon fill="none" stroke="#000000" points="437,-114.5 437,-133.5 484,-133.5 484,-114.5 437,-114.5"/>
<text text-anchor="middle" x="460.5" y="-121.5" font-family="Helvetica,sans-Serif" font-size="10.00" fill="#000000">is_digit</text>
</a>
</g>
</g>
<!-- Node318476&#45;&gt;Node318479 -->
<g id="edge18" class="edge">
<title>Node318476&#45;&gt;Node318479</title>
<path fill="none" stroke="#191970" d="M373.3667,-111.6453C390.9493,-114.1383 410.5713,-116.9206 426.7364,-119.2126"/>
<polygon fill="#191970" stroke="#191970" points="426.4115,-122.7015 436.8038,-120.6401 427.3943,-115.7708 426.4115,-122.7015"/>
</g>
<!-- Node318480 -->
<g id="node18" class="node">
<title>Node318480</title>
<g id="a_node18"><a xlink:href="quickjs_8h.html#ad80a83d73e9b7d872b88fbf2943aebe9" target="_top" xlink:title="JS_IsException">
<polygon fill="none" stroke="#000000" points="417.5,-76.5 417.5,-95.5 503.5,-95.5 503.5,-76.5 417.5,-76.5"/>
<text text-anchor="middle" x="460.5" y="-83.5" font-family="Helvetica,sans-Serif" font-size="10.00" fill="#000000">JS_IsException</text>
</a>
</g>
</g>
<!-- Node318476&#45;&gt;Node318480 -->
<g id="edge19" class="edge">
<title>Node318476&#45;&gt;Node318480</title>
<path fill="none" stroke="#191970" d="M373.3667,-98.3547C384.3455,-96.798 396.1195,-95.1286 407.3505,-93.5361"/>
<polygon fill="#191970" stroke="#191970" points="408.0641,-96.97 417.4736,-92.1008 407.0813,-90.0394 408.0641,-96.97"/>
</g>
<!-- Node318481 -->
<g id="node19" class="node">
<title>Node318481</title>
<g id="a_node19"><a xlink:href="quickjs_8c.html#a33fd643aff7f70e649d246385cd99b00" target="_top" xlink:title="JS_NewAtomStr">
<polygon fill="none" stroke="#ff0000" points="415.5,-38.5 415.5,-57.5 505.5,-57.5 505.5,-38.5 415.5,-38.5"/>
<text text-anchor="middle" x="460.5" y="-45.5" font-family="Helvetica,sans-Serif" font-size="10.00" fill="#000000">JS_NewAtomStr</text>
</a>
</g>
</g>
<!-- Node318476&#45;&gt;Node318481 -->
<g id="edge20" class="edge">
<title>Node318476&#45;&gt;Node318481</title>
<path fill="none" stroke="#191970" d="M346.3121,-95.3445C362.9048,-87.3864 387.2909,-75.9881 409,-67 413.7754,-65.0228 418.8389,-63.0307 423.854,-61.1186"/>
<polygon fill="#191970" stroke="#191970" points="425.2111,-64.3478 433.3503,-57.5652 422.7579,-57.7918 425.2111,-64.3478"/>
</g>
<!-- Node318495 -->
<g id="node20" class="node">
<title>Node318495</title>
<g id="a_node20"><a xlink:href="quickjs_8c.html#ac34cc554aab1e98c45a7f845fff64385" target="_top" xlink:title="JS_NewStringLen">
<polygon fill="none" stroke="#ff0000" points="413,-.5 413,-19.5 508,-19.5 508,-.5 413,-.5"/>
<text text-anchor="middle" x="460.5" y="-7.5" font-family="Helvetica,sans-Serif" font-size="10.00" fill="#000000">JS_NewStringLen</text>
</a>
</g>
</g>
<!-- Node318476&#45;&gt;Node318495 -->
<g id="edge21" class="edge">
<title>Node318476&#45;&gt;Node318495</title>
<path fill="none" stroke="#191970" d="M334.7007,-95.2997C348.5502,-79.4555 378.0997,-47.8995 409,-29 412.1961,-27.0452 415.625,-25.2427 419.14,-23.5918"/>
<polygon fill="#191970" stroke="#191970" points="420.7223,-26.722 428.5441,-19.5756 417.973,-20.2844 420.7223,-26.722"/>
</g>
<!-- Node318477&#45;&gt;Node318466 -->
<g id="edge17" class="edge">
<title>Node318477&#45;&gt;Node318466</title>
<path fill="none" stroke="#191970" d="M489.8611,-171.5273C497.2292,-174.2707 505.0211,-177.4837 512,-181 535.7568,-192.9698 560.9824,-210.0396 578.1188,-222.3755"/>
<polygon fill="#191970" stroke="#191970" points="576.1517,-225.2729 586.2921,-228.3428 580.2794,-219.6194 576.1517,-225.2729"/>
</g>
</g>
</svg>
        <g id="navigator" transform="translate(0 0)" fill="#404254">
                <rect fill="#f2f5e9" fill-opacity="0.5" stroke="#606060" stroke-width=".5" x="0" y="0" width="60" height="60"/>
                <use id="zoomplus" xlink:href="#zoomPlus" x="17" y="9" onmousedown="handleZoom(evt,'in')"/>
                <use id="zoomminus" xlink:href="#zoomMin" x="42" y="9" onmousedown="handleZoom(evt,'out')"/>
                <use id="reset" xlink:href="#resetDef" x="30" y="36" onmousedown="handleReset()"/>
                <g id="arrowUp" xlink:href="#dirArrow" transform="translate(30 24)" onmousedown="handlePan(0,-1)">
                  <use xlink:href="#rim" fill="#404040">
                        <set attributeName="fill" to="#808080" begin="arrowUp.mouseover" end="arrowUp.mouseout"/>
                  </use>
                  <path fill="none" stroke="white" stroke-width="1.5" d="M0,-3.0v7 M-2.5,-0.5L0,-3.0L2.5,-0.5"/>
                </g>
                <g id="arrowRight" xlink:href="#dirArrow" transform="rotate(90) translate(36 -43)" onmousedown="handlePan(1,0)">
                  <use xlink:href="#rim" fill="#404040">
                        <set attributeName="fill" to="#808080" begin="arrowRight.mouseover" end="arrowRight.mouseout"/>
                  </use>
                  <path fill="none" stroke="white" stroke-width="1.5" d="M0,-3.0v7 M-2.5,-0.5L0,-3.0L2.5,-0.5"/>
                </g>
                <g id="arrowDown" xlink:href="#dirArrow" transform="rotate(180) translate(-30 -48)" onmousedown="handlePan(0,1)">
                  <use xlink:href="#rim" fill="#404040">
                        <set attributeName="fill" to="#808080" begin="arrowDown.mouseover" end="arrowDown.mouseout"/>
                  </use>
                  <path fill="none" stroke="white" stroke-width="1.5" d="M0,-3.0v7 M-2.5,-0.5L0,-3.0L2.5,-0.5"/>
                </g>
                <g id="arrowLeft" xlink:href="#dirArrow" transform="rotate(270) translate(-36 17)" onmousedown="handlePan(-1,0)">
                  <use xlink:href="#rim" fill="#404040">
                        <set attributeName="fill" to="#808080" begin="arrowLeft.mouseover" end="arrowLeft.mouseout"/>
                  </use>
                  <path fill="none" stroke="white" stroke-width="1.5" d="M0,-3.0v7 M-2.5,-0.5L0,-3.0L2.5,-0.5"/>
                </g>
        </g>
        <svg viewBox="0 0 15 15" width="100%" height="30px" preserveAspectRatio="xMaxYMin meet">
         <g id="arrow_out" transform="scale(0.3 0.3)">
          <a xlink:href="quickjs_8c_a369af749a1fb181216fe8a8b55f841b0_cgraph_org.svg" target="_base">
           <rect id="button" ry="5" rx="5" y="6" x="6" height="38" width="38"
                fill="#f2f5e9" fill-opacity="0.5" stroke="#606060" stroke-width="1.0"/>
           <path id="arrow"
             d="M 11.500037,31.436501 C 11.940474,20.09759 22.043105,11.32322 32.158766,21.979434 L 37.068811,17.246167 C 37.068811,17.246167 37.088388,32 37.088388,32 L 22.160133,31.978069 C 22.160133,31.978069 26.997745,27.140456 26.997745,27.140456 C 18.528582,18.264221 13.291696,25.230495 11.500037,31.436501 z"
             style="fill:#404040;"/>
          </a>
         </g>
        </svg>
</svg>
