<?xml version="1.0" encoding="UTF-8" standalone="no"?>
<!DOCTYPE svg PUBLIC "-//W3C//DTD SVG 1.1//EN"
 "http://www.w3.org/Graphics/SVG/1.1/DTD/svg11.dtd">
<!-- Generated by graphviz version 2.40.1 (20161225.0304)
 -->
<!-- Title: js_object_isPrototypeOf Pages: 1 -->
<svg width="936pt" height="636pt"
 viewBox="0.00 0.00 936.00 636.00" xmlns="http://www.w3.org/2000/svg" xmlns:xlink="http://www.w3.org/1999/xlink">
<g id="graph0" class="graph" transform="scale(1 1) rotate(0) translate(4 632)">
<title>js_object_isPrototypeOf</title>
<!-- Node363784 -->
<g id="node1" class="node">
<title>Node363784</title>
<polygon fill="#bfbfbf" stroke="#000000" points="0,-247.5 0,-266.5 121,-266.5 121,-247.5 0,-247.5"/>
<text text-anchor="middle" x="60.5" y="-254.5" font-family="Helvetica,sans-Serif" font-size="10.00" fill="#000000">js_object_isPrototypeOf</text>
</g>
<!-- Node363785 -->
<g id="node2" class="node">
<title>Node363785</title>
<g id="a_node2"><a xlink:href="quickjs_8c.html#a853f0924d441ea4225488f37c8b69f9a" target="_top" xlink:title="__attribute__">
<polygon fill="none" stroke="#000000" points="166.5,-608.5 166.5,-627.5 239.5,-627.5 239.5,-608.5 166.5,-608.5"/>
<text text-anchor="middle" x="203" y="-615.5" font-family="Helvetica,sans-Serif" font-size="10.00" fill="#000000">__attribute__</text>
</a>
</g>
</g>
<!-- Node363784&#45;&gt;Node363785 -->
<g id="edge1" class="edge">
<title>Node363784&#45;&gt;Node363785</title>
<path fill="none" stroke="#191970" d="M62.1945,-266.606C71.0457,-315.9159 113.2346,-540.3634 157,-594 159.8972,-597.5507 163.4596,-600.6379 167.3084,-603.3057"/>
<polygon fill="#191970" stroke="#191970" points="165.659,-606.3968 176.0444,-608.4931 169.233,-600.378 165.659,-606.3968"/>
</g>
<!-- Node363786 -->
<g id="node3" class="node">
<title>Node363786</title>
<g id="a_node3"><a xlink:href="quickjs_8h.html#a775522f2d084fc8fa0fcb33f390006b4" target="_top" xlink:title="JS_DupValue">
<polygon fill="none" stroke="#000000" points="309,-570.5 309,-589.5 386,-589.5 386,-570.5 309,-570.5"/>
<text text-anchor="middle" x="347.5" y="-577.5" font-family="Helvetica,sans-Serif" font-size="10.00" fill="#000000">JS_DupValue</text>
</a>
</g>
</g>
<!-- Node363784&#45;&gt;Node363786 -->
<g id="edge2" class="edge">
<title>Node363784&#45;&gt;Node363786</title>
<path fill="none" stroke="#191970" d="M62.1086,-266.6065C70.2337,-313.922 108.2943,-521.4994 157,-561 196.4688,-593.0094 256.7435,-593.5614 298.8935,-588.8137"/>
<polygon fill="#191970" stroke="#191970" points="299.4457,-592.2718 308.9281,-587.5458 298.5682,-585.327 299.4457,-592.2718"/>
</g>
<!-- Node363787 -->
<g id="node4" class="node">
<title>Node363787</title>
<g id="a_node4"><a xlink:href="quickjs_8h.html#afaa20c47565bc704c6c85f3d77254e7d" target="_top" xlink:title="JS_FreeValue">
<polygon fill="none" stroke="#000000" points="583,-152.5 583,-171.5 661,-171.5 661,-152.5 583,-152.5"/>
<text text-anchor="middle" x="622" y="-159.5" font-family="Helvetica,sans-Serif" font-size="10.00" fill="#000000">JS_FreeValue</text>
</a>
</g>
</g>
<!-- Node363784&#45;&gt;Node363787 -->
<g id="edge3" class="edge">
<title>Node363784&#45;&gt;Node363787</title>
<path fill="none" stroke="#191970" d="M66.6472,-247.2734C80.2394,-226.6169 114.9944,-178.2797 157,-154 207.5878,-124.7597 226.9562,-130.7111 285,-124 399.0113,-110.8179 430.654,-111.5328 543,-135 558.527,-138.2433 575.2158,-143.6479 589.2355,-148.7731"/>
<polygon fill="#191970" stroke="#191970" points="588.3257,-152.1704 598.9176,-152.4208 590.7937,-145.6199 588.3257,-152.1704"/>
</g>
<!-- Node363823 -->
<g id="node7" class="node">
<title>Node363823</title>
<g id="a_node7"><a xlink:href="quickjs_8c.html#a23a30fec3b10bfa38c3dc29b4cb1c99d" target="_top" xlink:title="JS_GetPrototype">
<polygon fill="none" stroke="#000000" points="157,-304.5 157,-323.5 249,-323.5 249,-304.5 157,-304.5"/>
<text text-anchor="middle" x="203" y="-311.5" font-family="Helvetica,sans-Serif" font-size="10.00" fill="#000000">JS_GetPrototype</text>
</a>
</g>
</g>
<!-- Node363784&#45;&gt;Node363823 -->
<g id="edge6" class="edge">
<title>Node363784&#45;&gt;Node363823</title>
<path fill="none" stroke="#191970" d="M84.3513,-266.5405C107.6762,-275.8705 143.404,-290.1616 169.5606,-300.6242"/>
<polygon fill="#191970" stroke="#191970" points="168.4862,-303.9641 179.0709,-304.4284 171.086,-297.4647 168.4862,-303.9641"/>
</g>
<!-- Node363830 -->
<g id="node10" class="node">
<title>Node363830</title>
<g id="a_node10"><a xlink:href="quickjs_8h.html#ad80a83d73e9b7d872b88fbf2943aebe9" target="_top" xlink:title="JS_IsException">
<polygon fill="none" stroke="#000000" points="579,-475.5 579,-494.5 665,-494.5 665,-475.5 579,-475.5"/>
<text text-anchor="middle" x="622" y="-482.5" font-family="Helvetica,sans-Serif" font-size="10.00" fill="#000000">JS_IsException</text>
</a>
</g>
</g>
<!-- Node363784&#45;&gt;Node363830 -->
<g id="edge21" class="edge">
<title>Node363784&#45;&gt;Node363830</title>
<path fill="none" stroke="#191970" d="M71.2402,-266.6705C88.5027,-281.9265 123.8529,-312.0013 157,-333 278.2275,-409.7975 307.0927,-440.962 446,-477 486.2857,-487.4517 533.4681,-489.053 568.8347,-488.2594"/>
<polygon fill="#191970" stroke="#191970" points="569.0525,-491.7546 578.9447,-487.9606 568.8456,-484.7576 569.0525,-491.7546"/>
</g>
<!-- Node363831 -->
<g id="node11" class="node">
<title>Node363831</title>
<g id="a_node11"><a xlink:href="quickjs_8h.html#a149f24b67e745bad93573b3b4c80db4c" target="_top" xlink:title="JS_IsNull">
<polygon fill="none" stroke="#000000" points="592.5,-304.5 592.5,-323.5 651.5,-323.5 651.5,-304.5 592.5,-304.5"/>
<text text-anchor="middle" x="622" y="-311.5" font-family="Helvetica,sans-Serif" font-size="10.00" fill="#000000">JS_IsNull</text>
</a>
</g>
</g>
<!-- Node363784&#45;&gt;Node363831 -->
<g id="edge22" class="edge">
<title>Node363784&#45;&gt;Node363831</title>
<path fill="none" stroke="#191970" d="M83.8117,-247.4144C156.1351,-219.2371 381.5303,-143.2696 543,-219 576.4962,-234.71 600.717,-272.3737 612.956,-295.278"/>
<polygon fill="#191970" stroke="#191970" points="609.9279,-297.0441 617.5936,-304.3576 616.1618,-293.86 609.9279,-297.0441"/>
</g>
<!-- Node364074 -->
<g id="node17" class="node">
<title>Node364074</title>
<g id="a_node17"><a xlink:href="quickjs_8h.html#a3d68fe446df2d9c7d1900b16371bff5b" target="_top" xlink:title="JS_IsObject">
<polygon fill="none" stroke="#000000" points="167.5,-38.5 167.5,-57.5 238.5,-57.5 238.5,-38.5 167.5,-38.5"/>
<text text-anchor="middle" x="203" y="-45.5" font-family="Helvetica,sans-Serif" font-size="10.00" fill="#000000">JS_IsObject</text>
</a>
</g>
</g>
<!-- Node363784&#45;&gt;Node364074 -->
<g id="edge23" class="edge">
<title>Node363784&#45;&gt;Node364074</title>
<path fill="none" stroke="#191970" d="M63.2599,-247.2961C72.1552,-217.5391 102.6989,-126.3061 157,-72 160.4791,-68.5205 164.5679,-65.4332 168.8478,-62.7292"/>
<polygon fill="#191970" stroke="#191970" points="170.7659,-65.666 177.7671,-57.714 167.3351,-59.5644 170.7659,-65.666"/>
</g>
<!-- Node364169 -->
<g id="node18" class="node">
<title>Node364169</title>
<g id="a_node18"><a xlink:href="quickjs_8h.html#a93abffa925714e249a6aa2f4ae7900f6" target="_top" xlink:title="JS_NewBool">
<polygon fill="none" stroke="#000000" points="166,-.5 166,-19.5 240,-19.5 240,-.5 166,-.5"/>
<text text-anchor="middle" x="203" y="-7.5" font-family="Helvetica,sans-Serif" font-size="10.00" fill="#000000">JS_NewBool</text>
</a>
</g>
</g>
<!-- Node363784&#45;&gt;Node364169 -->
<g id="edge24" class="edge">
<title>Node363784&#45;&gt;Node364169</title>
<path fill="none" stroke="#191970" d="M61.9245,-247.3097C67.4804,-212.8306 90.7606,-94.6667 157,-29 158.4267,-27.5857 159.9736,-26.2715 161.6073,-25.051"/>
<polygon fill="#191970" stroke="#191970" points="163.6441,-27.9078 170.342,-19.6987 159.9867,-21.9392 163.6441,-27.9078"/>
</g>
<!-- Node363994 -->
<g id="node19" class="node">
<title>Node363994</title>
<g id="a_node19"><a xlink:href="quickjs_8c.html#a6b7e8c810c238daa5ac20c70c2f22b24" target="_top" xlink:title="js_strict_eq2">
<polygon fill="none" stroke="#ff0000" points="311.5,-133.5 311.5,-152.5 383.5,-152.5 383.5,-133.5 311.5,-133.5"/>
<text text-anchor="middle" x="347.5" y="-140.5" font-family="Helvetica,sans-Serif" font-size="10.00" fill="#000000">js_strict_eq2</text>
</a>
</g>
</g>
<!-- Node363784&#45;&gt;Node363994 -->
<g id="edge25" class="edge">
<title>Node363784&#45;&gt;Node363994</title>
<path fill="none" stroke="#191970" d="M70.5731,-247.3321C87.1874,-231.9404 121.9944,-201.9764 157,-186 203.676,-164.6973 261.735,-153.5543 301.4098,-148.0034"/>
<polygon fill="#191970" stroke="#191970" points="301.8847,-151.4712 311.3332,-146.678 300.9578,-144.5328 301.8847,-151.4712"/>
</g>
<!-- Node364061 -->
<g id="node20" class="node">
<title>Node364061</title>
<g id="a_node20"><a xlink:href="quickjs_8c.html#a710289a14c2810467e5b448d3c28bd55" target="_top" xlink:title="JS_ToObject">
<polygon fill="none" stroke="#ff0000" points="166,-532.5 166,-551.5 240,-551.5 240,-532.5 166,-532.5"/>
<text text-anchor="middle" x="203" y="-539.5" font-family="Helvetica,sans-Serif" font-size="10.00" fill="#000000">JS_ToObject</text>
</a>
</g>
</g>
<!-- Node363784&#45;&gt;Node364061 -->
<g id="edge27" class="edge">
<title>Node363784&#45;&gt;Node364061</title>
<path fill="none" stroke="#191970" d="M61.5516,-266.551C66.0711,-303.4271 86.9165,-438.4193 157,-518 160.1813,-521.6124 164.0388,-524.7624 168.1515,-527.4857"/>
<polygon fill="#191970" stroke="#191970" points="166.4068,-530.5198 176.8173,-532.4877 169.9062,-524.4572 166.4068,-530.5198"/>
</g>
<!-- Node363788 -->
<g id="node5" class="node">
<title>Node363788</title>
<g id="a_node5"><a xlink:href="quickjs_8c.html#aa059f309c30fd5166d16c82a97973146" target="_top" xlink:title="__JS_FreeValue">
<polygon fill="none" stroke="#000000" points="701,-152.5 701,-171.5 790,-171.5 790,-152.5 701,-152.5"/>
<text text-anchor="middle" x="745.5" y="-159.5" font-family="Helvetica,sans-Serif" font-size="10.00" fill="#000000">__JS_FreeValue</text>
</a>
</g>
</g>
<!-- Node363787&#45;&gt;Node363788 -->
<g id="edge4" class="edge">
<title>Node363787&#45;&gt;Node363788</title>
<path fill="none" stroke="#191970" d="M661.0762,-162C670.412,-162 680.5507,-162 690.4566,-162"/>
<polygon fill="#191970" stroke="#191970" points="690.6517,-165.5001 700.6517,-162 690.6517,-158.5001 690.6517,-165.5001"/>
</g>
<!-- Node363789 -->
<g id="node6" class="node">
<title>Node363789</title>
<g id="a_node6"><a xlink:href="quickjs_8c.html#ab1ea3fad7d138be12144a38be4d36423" target="_top" xlink:title="__JS_FreeValueRT">
<polygon fill="none" stroke="#ff0000" points="826,-152.5 826,-171.5 928,-171.5 928,-152.5 826,-152.5"/>
<text text-anchor="middle" x="877" y="-159.5" font-family="Helvetica,sans-Serif" font-size="10.00" fill="#000000">__JS_FreeValueRT</text>
</a>
</g>
</g>
<!-- Node363788&#45;&gt;Node363789 -->
<g id="edge5" class="edge">
<title>Node363788&#45;&gt;Node363789</title>
<path fill="none" stroke="#191970" d="M790.0199,-162C798.2672,-162 807.0138,-162 815.6583,-162"/>
<polygon fill="#191970" stroke="#191970" points="815.7233,-165.5001 825.7233,-162 815.7232,-158.5001 815.7233,-165.5001"/>
</g>
<!-- Node363824 -->
<g id="node8" class="node">
<title>Node363824</title>
<g id="a_node8"><a xlink:href="quickjs_8c.html#abec3cc345c6b3c1be76a0dc63fd7fa2f" target="_top" xlink:title="js_proxy_getPrototypeOf">
<polygon fill="none" stroke="#000000" points="285,-304.5 285,-323.5 410,-323.5 410,-304.5 285,-304.5"/>
<text text-anchor="middle" x="347.5" y="-311.5" font-family="Helvetica,sans-Serif" font-size="10.00" fill="#000000">js_proxy_getPrototypeOf</text>
</a>
</g>
</g>
<!-- Node363823&#45;&gt;Node363824 -->
<g id="edge7" class="edge">
<title>Node363823&#45;&gt;Node363824</title>
<path fill="none" stroke="#191970" d="M249.118,-307.6588C257.3104,-307.3915 266.021,-307.2552 274.7413,-307.2501"/>
<polygon fill="#191970" stroke="#191970" points="274.9339,-310.7511 284.9524,-307.3044 274.9712,-303.7512 274.9339,-310.7511"/>
</g>
<!-- Node363824&#45;&gt;Node363787 -->
<g id="edge13" class="edge">
<title>Node363824&#45;&gt;Node363787</title>
<path fill="none" stroke="#191970" d="M410.2919,-321.7795C451.1229,-323.6725 503.8514,-319.8643 543,-295 584.5932,-268.5831 607.145,-211.719 616.5852,-181.6175"/>
<polygon fill="#191970" stroke="#191970" points="619.9958,-182.4267 619.4809,-171.8443 613.2842,-180.438 619.9958,-182.4267"/>
</g>
<!-- Node363824&#45;&gt;Node363823 -->
<g id="edge14" class="edge">
<title>Node363824&#45;&gt;Node363823</title>
<path fill="none" stroke="#191970" d="M284.9524,-320.6956C276.3961,-320.7921 267.655,-320.7602 259.2207,-320.6001"/>
<polygon fill="#191970" stroke="#191970" points="259.2044,-317.0987 249.118,-320.3412 259.025,-324.0964 259.2044,-317.0987"/>
</g>
<!-- Node363825 -->
<g id="node9" class="node">
<title>Node363825</title>
<g id="a_node9"><a xlink:href="quickjs_8c.html#a9e94551ddba8762d74eda5127445dbbd" target="_top" xlink:title="get_proxy_method">
<polygon fill="none" stroke="#ff0000" points="446,-418.5 446,-437.5 543,-437.5 543,-418.5 446,-418.5"/>
<text text-anchor="middle" x="494.5" y="-425.5" font-family="Helvetica,sans-Serif" font-size="10.00" fill="#000000">get_proxy_method</text>
</a>
</g>
</g>
<!-- Node363824&#45;&gt;Node363825 -->
<g id="edge8" class="edge">
<title>Node363824&#45;&gt;Node363825</title>
<path fill="none" stroke="#191970" d="M355.2074,-323.6386C370.6419,-342.3895 407.2045,-384.1145 446,-409 448.9436,-410.8882 452.1047,-412.6395 455.3503,-414.2522"/>
<polygon fill="#191970" stroke="#191970" points="454.0559,-417.5079 464.6107,-418.4286 456.9338,-411.1268 454.0559,-417.5079"/>
</g>
<!-- Node363824&#45;&gt;Node363830 -->
<g id="edge15" class="edge">
<title>Node363824&#45;&gt;Node363830</title>
<path fill="none" stroke="#191970" d="M351.6128,-323.5664C362.7907,-348.3445 396.2634,-414.9101 446,-447 482.7347,-470.7011 531.8586,-479.8473 568.8723,-483.2678"/>
<polygon fill="#191970" stroke="#191970" points="568.72,-486.7669 578.9706,-484.088 569.2868,-479.7898 568.72,-486.7669"/>
</g>
<!-- Node363832 -->
<g id="node12" class="node">
<title>Node363832</title>
<g id="a_node12"><a xlink:href="quickjs_8c.html#a75f6ee5e4235a7dc99889f3d2eb2c147" target="_top" xlink:title="JS_CallFree">
<polygon fill="none" stroke="#ff0000" points="459,-266.5 459,-285.5 530,-285.5 530,-266.5 459,-266.5"/>
<text text-anchor="middle" x="494.5" y="-273.5" font-family="Helvetica,sans-Serif" font-size="10.00" fill="#000000">JS_CallFree</text>
</a>
</g>
</g>
<!-- Node363824&#45;&gt;Node363832 -->
<g id="edge11" class="edge">
<title>Node363824&#45;&gt;Node363832</title>
<path fill="none" stroke="#191970" d="M384.5943,-304.411C404.1833,-299.3472 428.3878,-293.0902 449.0918,-287.7382"/>
<polygon fill="#191970" stroke="#191970" points="450.1331,-291.0841 458.9388,-285.1927 448.3811,-284.3069 450.1331,-291.0841"/>
</g>
<!-- Node363979 -->
<g id="node13" class="node">
<title>Node363979</title>
<g id="a_node13"><a xlink:href="quickjs_8c.html#a17c92ef7fbad6a6029f6aa933d669624" target="_top" xlink:title="JS_IsExtensible">
<polygon fill="none" stroke="#ff0000" points="450.5,-342.5 450.5,-361.5 538.5,-361.5 538.5,-342.5 450.5,-342.5"/>
<text text-anchor="middle" x="494.5" y="-349.5" font-family="Helvetica,sans-Serif" font-size="10.00" fill="#000000">JS_IsExtensible</text>
</a>
</g>
</g>
<!-- Node363824&#45;&gt;Node363979 -->
<g id="edge16" class="edge">
<title>Node363824&#45;&gt;Node363979</title>
<path fill="none" stroke="#191970" d="M384.5943,-323.589C403.8178,-328.5583 427.4863,-334.6767 447.9294,-339.9613"/>
<polygon fill="#191970" stroke="#191970" points="447.1147,-343.3657 457.6724,-342.4799 448.8667,-336.5885 447.1147,-343.3657"/>
</g>
<!-- Node363914 -->
<g id="node14" class="node">
<title>Node363914</title>
<g id="a_node14"><a xlink:href="quickjs_8h.html#a4e407128a9605afb77523e49e9a627fd" target="_top" xlink:title="JS_IsUndefined">
<polygon fill="none" stroke="#000000" points="451.5,-228.5 451.5,-247.5 537.5,-247.5 537.5,-228.5 451.5,-228.5"/>
<text text-anchor="middle" x="494.5" y="-235.5" font-family="Helvetica,sans-Serif" font-size="10.00" fill="#000000">JS_IsUndefined</text>
</a>
</g>
</g>
<!-- Node363824&#45;&gt;Node363914 -->
<g id="edge17" class="edge">
<title>Node363824&#45;&gt;Node363914</title>
<path fill="none" stroke="#191970" d="M362.4672,-304.3808C381.4445,-292.4107 415.3851,-271.7504 446,-257 450.0505,-255.0484 454.3571,-253.1382 458.6675,-251.327"/>
<polygon fill="#191970" stroke="#191970" points="460.0572,-254.5404 468.0118,-247.5421 457.4292,-248.0524 460.0572,-254.5404"/>
</g>
<!-- Node364087 -->
<g id="node15" class="node">
<title>Node364087</title>
<g id="a_node15"><a xlink:href="quickjs_8c.html#a246e337d6566552736209730827c0871" target="_top" xlink:title="js_poll_interrupts">
<polygon fill="none" stroke="#ff0000" points="449.5,-380.5 449.5,-399.5 539.5,-399.5 539.5,-380.5 449.5,-380.5"/>
<text text-anchor="middle" x="494.5" y="-387.5" font-family="Helvetica,sans-Serif" font-size="10.00" fill="#000000">js_poll_interrupts</text>
</a>
</g>
</g>
<!-- Node363824&#45;&gt;Node364087 -->
<g id="edge18" class="edge">
<title>Node363824&#45;&gt;Node364087</title>
<path fill="none" stroke="#191970" d="M362.4672,-323.6192C381.4445,-335.5893 415.3851,-356.2496 446,-371 450.0505,-372.9516 454.3571,-374.8618 458.6675,-376.673"/>
<polygon fill="#191970" stroke="#191970" points="457.4292,-379.9476 468.0118,-380.4579 460.0572,-373.4596 457.4292,-379.9476"/>
</g>
<!-- Node363986 -->
<g id="node16" class="node">
<title>Node363986</title>
<g id="a_node16"><a xlink:href="quickjs_8c.html#a0ec52a675282f321a6f42aa1298a53fe" target="_top" xlink:title="set_value">
<polygon fill="none" stroke="#000000" points="465,-152.5 465,-171.5 524,-171.5 524,-152.5 465,-152.5"/>
<text text-anchor="middle" x="494.5" y="-159.5" font-family="Helvetica,sans-Serif" font-size="10.00" fill="#000000">set_value</text>
</a>
</g>
</g>
<!-- Node363824&#45;&gt;Node363986 -->
<g id="edge19" class="edge">
<title>Node363824&#45;&gt;Node363986</title>
<path fill="none" stroke="#191970" d="M356.6955,-304.4917C381.0323,-279.3272 447.3681,-210.735 478.2638,-178.7884"/>
<polygon fill="#191970" stroke="#191970" points="480.872,-181.1262 485.308,-171.5047 475.8402,-176.2599 480.872,-181.1262"/>
</g>
<!-- Node363825&#45;&gt;Node363830 -->
<g id="edge9" class="edge">
<title>Node363825&#45;&gt;Node363830</title>
<path fill="none" stroke="#191970" d="M515.8406,-437.5405C536.5264,-446.7883 568.1148,-460.9102 591.4599,-471.3468"/>
<polygon fill="#191970" stroke="#191970" points="590.032,-474.5422 600.5897,-475.4284 592.889,-468.1518 590.032,-474.5422"/>
</g>
<!-- Node363825&#45;&gt;Node363831 -->
<g id="edge10" class="edge">
<title>Node363825&#45;&gt;Node363831</title>
<path fill="none" stroke="#191970" d="M525.7212,-418.4613C531.745,-415.8929 537.794,-412.7579 543,-409 572.2605,-387.8785 597.1805,-353.4903 610.8282,-332.3939"/>
<polygon fill="#191970" stroke="#191970" points="613.9156,-334.0592 616.2806,-323.7317 607.9915,-330.3303 613.9156,-334.0592"/>
</g>
<!-- Node363832&#45;&gt;Node363787 -->
<g id="edge12" class="edge">
<title>Node363832&#45;&gt;Node363787</title>
<path fill="none" stroke="#191970" d="M525.7212,-266.4613C531.745,-263.8929 537.794,-260.7579 543,-257 572.2605,-235.8785 597.1805,-201.4903 610.8282,-180.3939"/>
<polygon fill="#191970" stroke="#191970" points="613.9156,-182.0592 616.2806,-171.7317 607.9915,-178.3303 613.9156,-182.0592"/>
</g>
<!-- Node363986&#45;&gt;Node363787 -->
<g id="edge20" class="edge">
<title>Node363986&#45;&gt;Node363787</title>
<path fill="none" stroke="#191970" d="M524.0715,-162C538.5705,-162 556.4184,-162 572.8883,-162"/>
<polygon fill="#191970" stroke="#191970" points="572.9228,-165.5001 582.9228,-162 572.9227,-158.5001 572.9228,-165.5001"/>
</g>
<!-- Node363994&#45;&gt;Node363787 -->
<g id="edge26" class="edge">
<title>Node363994&#45;&gt;Node363787</title>
<path fill="none" stroke="#191970" d="M383.6823,-140.4608C423.0371,-138.2895 487.724,-136.4463 543,-143 555.2572,-144.4533 568.3647,-147.1327 580.3092,-150.0305"/>
<polygon fill="#191970" stroke="#191970" points="579.4714,-153.4287 590.0249,-152.4937 581.1917,-146.6434 579.4714,-153.4287"/>
</g>
<!-- Node364061&#45;&gt;Node363786 -->
<g id="edge28" class="edge">
<title>Node364061&#45;&gt;Node363786</title>
<path fill="none" stroke="#191970" d="M239.4635,-551.589C258.2741,-556.5358 281.4146,-562.6211 301.4472,-567.8892"/>
<polygon fill="#191970" stroke="#191970" points="300.7374,-571.3215 311.2988,-570.4799 302.5177,-564.5517 300.7374,-571.3215"/>
</g>
<!-- Node364061&#45;&gt;Node363830 -->
<g id="edge29" class="edge">
<title>Node364061&#45;&gt;Node363830</title>
<path fill="none" stroke="#191970" d="M240.0675,-543.2744C303.191,-544.5866 435.1917,-543.5932 543,-518 560.7949,-513.7756 579.7345,-505.9883 594.6074,-499.039"/>
<polygon fill="#191970" stroke="#191970" points="596.2507,-502.1324 603.7409,-494.6392 593.2127,-495.826 596.2507,-502.1324"/>
</g>
</g>
</svg>
