<?xml version="1.0" encoding="UTF-8" standalone="no"?>
<!DOCTYPE svg PUBLIC "-//W3C//DTD SVG 1.1//EN"
 "http://www.w3.org/Graphics/SVG/1.1/DTD/svg11.dtd">
<!-- Generated by graphviz version 2.40.1 (20161225.0304)
 -->
<!-- Title: js_class_has_bytecode Pages: 1 -->
<svg width="800pt" height="644pt"
 viewBox="0.00 0.00 800.00 644.00" xmlns="http://www.w3.org/2000/svg" xmlns:xlink="http://www.w3.org/1999/xlink">
<g id="graph0" class="graph" transform="scale(1 1) rotate(0) translate(4 640)">
<title>js_class_has_bytecode</title>
<!-- Node132794 -->
<g id="node1" class="node">
<title>Node132794</title>
<polygon fill="#bfbfbf" stroke="#000000" points="0,-190.5 0,-209.5 119,-209.5 119,-190.5 0,-190.5"/>
<text text-anchor="middle" x="59.5" y="-197.5" font-family="Helvetica,sans-Serif" font-size="10.00" fill="#000000">js_class_has_bytecode</text>
</g>
<!-- Node132795 -->
<g id="node2" class="node">
<title>Node132795</title>
<g id="a_node2"><a xlink:href="quickjs_8c.html#a46a8a7e155cfd0af984f6725f060f0d6" target="_top" xlink:title="__JS_EvalInternal">
<polygon fill="none" stroke="#000000" points="183,-596.5 183,-615.5 279,-615.5 279,-596.5 183,-596.5"/>
<text text-anchor="middle" x="231" y="-603.5" font-family="Helvetica,sans-Serif" font-size="10.00" fill="#000000">__JS_EvalInternal</text>
</a>
</g>
</g>
<!-- Node132794&#45;&gt;Node132795 -->
<g id="edge1" class="edge">
<title>Node132794&#45;&gt;Node132795</title>
<path fill="none" stroke="#191970" d="M62.8522,-219.7542C74.4327,-286.2822 114.2796,-501.1225 155,-557 168.2217,-575.1432 190.3864,-588.3063 207.3775,-596.3919"/>
<polygon fill="#191970" stroke="#191970" points="66.2771,-219.018 61.1315,-209.7566 59.3785,-220.2054 66.2771,-219.018"/>
</g>
<!-- Node132798 -->
<g id="node5" class="node">
<title>Node132798</title>
<g id="a_node5"><a xlink:href="quickjs_8c.html#a61c8dfb5e807af1b6ff7d8ca61576dda" target="_top" xlink:title="build_backtrace">
<polygon fill="none" stroke="#000000" points="188.5,-418.5 188.5,-437.5 273.5,-437.5 273.5,-418.5 188.5,-418.5"/>
<text text-anchor="middle" x="231" y="-425.5" font-family="Helvetica,sans-Serif" font-size="10.00" fill="#000000">build_backtrace</text>
</a>
</g>
</g>
<!-- Node132794&#45;&gt;Node132798 -->
<g id="edge4" class="edge">
<title>Node132794&#45;&gt;Node132798</title>
<path fill="none" stroke="#191970" d="M72.1425,-218.2335C90.1525,-244.062 124.4077,-292.6522 155,-333 179.1186,-364.8097 209.0491,-401.431 223.0638,-418.4211"/>
<polygon fill="#191970" stroke="#191970" points="74.8631,-216.0153 66.2792,-209.805 69.1167,-220.0128 74.8631,-216.0153"/>
</g>
<!-- Node133380 -->
<g id="node12" class="node">
<title>Node133380</title>
<g id="a_node12"><a xlink:href="quickjs_8c.html#aa71518153e2e2604f0f9caad36af8476" target="_top" xlink:title="JS_CheckBrand">
<polygon fill="none" stroke="#000000" points="187,-138.5 187,-157.5 275,-157.5 275,-138.5 187,-138.5"/>
<text text-anchor="middle" x="231" y="-145.5" font-family="Helvetica,sans-Serif" font-size="10.00" fill="#000000">JS_CheckBrand</text>
</a>
</g>
</g>
<!-- Node132794&#45;&gt;Node133380 -->
<g id="edge14" class="edge">
<title>Node132794&#45;&gt;Node133380</title>
<path fill="none" stroke="#191970" d="M100.814,-187.4733C131.1398,-178.2783 171.7113,-165.9767 199.4537,-157.565"/>
<polygon fill="#191970" stroke="#191970" points="99.5099,-184.2113 90.9557,-190.4624 101.5411,-190.9101 99.5099,-184.2113"/>
</g>
<!-- Node133381 -->
<g id="node13" class="node">
<title>Node133381</title>
<g id="a_node13"><a xlink:href="quickjs_8c.html#a315f18f552c506d05a36ab22649c8e3f" target="_top" xlink:title="JS_DumpObject">
<polygon fill="none" stroke="#000000" points="186.5,-46.5 186.5,-65.5 275.5,-65.5 275.5,-46.5 186.5,-46.5"/>
<text text-anchor="middle" x="231" y="-53.5" font-family="Helvetica,sans-Serif" font-size="10.00" fill="#000000">JS_DumpObject</text>
</a>
</g>
</g>
<!-- Node132794&#45;&gt;Node133381 -->
<g id="edge16" class="edge">
<title>Node132794&#45;&gt;Node133381</title>
<path fill="none" stroke="#191970" d="M68.4893,-181.4077C82.8274,-153.7899 113.5414,-102.2624 155,-75 164.3183,-68.8725 175.4646,-64.721 186.3119,-61.9083"/>
<polygon fill="#191970" stroke="#191970" points="65.3271,-179.9057 63.9583,-190.4117 71.58,-183.0524 65.3271,-179.9057"/>
</g>
<!-- Node133313 -->
<g id="node15" class="node">
<title>Node133313</title>
<g id="a_node15"><a xlink:href="quickjs_8c.html#a9876c37aa1b715e05e0e5fe1b46bcf3d" target="_top" xlink:title="js_function_toString">
<polygon fill="none" stroke="#000000" points="179.5,-8.5 179.5,-27.5 282.5,-27.5 282.5,-8.5 179.5,-8.5"/>
<text text-anchor="middle" x="231" y="-15.5" font-family="Helvetica,sans-Serif" font-size="10.00" fill="#000000">js_function_toString</text>
</a>
</g>
</g>
<!-- Node132794&#45;&gt;Node133313 -->
<g id="edge18" class="edge">
<title>Node132794&#45;&gt;Node133313</title>
<path fill="none" stroke="#191970" d="M65.416,-180.2561C76.8298,-145.6678 105.2579,-74.2597 155,-37 162.1843,-31.6185 170.7157,-27.749 179.4221,-24.9695"/>
<polygon fill="#191970" stroke="#191970" points="61.9804,-179.5124 62.3027,-190.1024 68.6547,-181.6229 61.9804,-179.5124"/>
</g>
<!-- Node133383 -->
<g id="node16" class="node">
<title>Node133383</title>
<g id="a_node16"><a xlink:href="quickjs_8c.html#a348e00fd4b934a113cb954052ec33a13" target="_top" xlink:title="js_get_script_or_module_name">
<polygon fill="none" stroke="#000000" points="155,-84.5 155,-103.5 307,-103.5 307,-84.5 155,-84.5"/>
<text text-anchor="middle" x="231" y="-91.5" font-family="Helvetica,sans-Serif" font-size="10.00" fill="#000000">js_get_script_or_module_name</text>
</a>
</g>
</g>
<!-- Node132794&#45;&gt;Node133383 -->
<g id="edge19" class="edge">
<title>Node132794&#45;&gt;Node133383</title>
<path fill="none" stroke="#191970" d="M78.4889,-184.0241C97.1926,-168.7463 126.9564,-145.6367 155,-129 171.7411,-119.0685 191.7794,-109.9445 207.0762,-103.5037"/>
<polygon fill="#191970" stroke="#191970" points="76.2009,-181.3744 70.7195,-190.4411 80.6586,-186.7716 76.2009,-181.3744"/>
</g>
<!-- Node133385 -->
<g id="node19" class="node">
<title>Node133385</title>
<g id="a_node19"><a xlink:href="quickjs_8c.html#a7a7b507694cc1ecc4e3b5129fed3f5f6" target="_top" xlink:title="JS_GetFunctionBytecode">
<polygon fill="none" stroke="#000000" points="167,-304.5 167,-323.5 295,-323.5 295,-304.5 167,-304.5"/>
<text text-anchor="middle" x="231" y="-311.5" font-family="Helvetica,sans-Serif" font-size="10.00" fill="#000000">JS_GetFunctionBytecode</text>
</a>
</g>
</g>
<!-- Node132794&#45;&gt;Node133385 -->
<g id="edge24" class="edge">
<title>Node132794&#45;&gt;Node133385</title>
<path fill="none" stroke="#191970" d="M82.1662,-215.0667C117.9112,-238.8273 186.3855,-284.3437 216.3502,-304.262"/>
<polygon fill="#191970" stroke="#191970" points="84.0925,-212.1445 73.827,-209.5235 80.2175,-217.9741 84.0925,-212.1445"/>
</g>
<!-- Node133389 -->
<g id="node23" class="node">
<title>Node133389</title>
<g id="a_node23"><a xlink:href="quickjs_8c.html#a2d5c3143055af5f45dab61f1006dc5c4" target="_top" xlink:title="js_method_set_home\l_object">
<polygon fill="none" stroke="#000000" points="176,-185 176,-215 286,-215 286,-185 176,-185"/>
<text text-anchor="start" x="184" y="-203" font-family="Helvetica,sans-Serif" font-size="10.00" fill="#000000">js_method_set_home</text>
<text text-anchor="middle" x="231" y="-192" font-family="Helvetica,sans-Serif" font-size="10.00" fill="#000000">_object</text>
</a>
</g>
</g>
<!-- Node132794&#45;&gt;Node133389 -->
<g id="edge30" class="edge">
<title>Node132794&#45;&gt;Node133389</title>
<path fill="none" stroke="#191970" d="M129.1136,-200C144.6984,-200 161.021,-200 175.9207,-200"/>
<polygon fill="#191970" stroke="#191970" points="129.0011,-196.5001 119.0011,-200 129.001,-203.5001 129.0011,-196.5001"/>
</g>
<!-- Node133390 -->
<g id="node26" class="node">
<title>Node133390</title>
<g id="a_node26"><a xlink:href="quickjs_8c.html#a02cfe5cb28b149c2fe5fd30951c0737a" target="_top" xlink:title="patch_function_constructor\l_source">
<polygon fill="none" stroke="#000000" points="164,-517 164,-547 298,-547 298,-517 164,-517"/>
<text text-anchor="start" x="172" y="-535" font-family="Helvetica,sans-Serif" font-size="10.00" fill="#000000">patch_function_constructor</text>
<text text-anchor="middle" x="231" y="-524" font-family="Helvetica,sans-Serif" font-size="10.00" fill="#000000">_source</text>
</a>
</g>
</g>
<!-- Node132794&#45;&gt;Node133390 -->
<g id="edge36" class="edge">
<title>Node132794&#45;&gt;Node133390</title>
<path fill="none" stroke="#191970" d="M64.3838,-219.2718C75.8283,-262.3333 107.0879,-368.721 155,-447 171.6379,-474.1831 197.4082,-500.7944 214.2434,-516.8016"/>
<polygon fill="#191970" stroke="#191970" points="67.7534,-218.3224 61.8476,-209.5263 60.979,-220.0854 67.7534,-218.3224"/>
</g>
<!-- Node132796 -->
<g id="node3" class="node">
<title>Node132796</title>
<g id="a_node3"><a xlink:href="quickjs_8c.html#acbcccb7ec58fd4a024ea1d01e5d04561" target="_top" xlink:title="JS_AddIntrinsicEval">
<polygon fill="none" stroke="#000000" points="543.5,-616.5 543.5,-635.5 648.5,-635.5 648.5,-616.5 543.5,-616.5"/>
<text text-anchor="middle" x="596" y="-623.5" font-family="Helvetica,sans-Serif" font-size="10.00" fill="#000000">JS_AddIntrinsicEval</text>
</a>
</g>
</g>
<!-- Node132795&#45;&gt;Node132796 -->
<g id="edge2" class="edge">
<title>Node132795&#45;&gt;Node132796</title>
<path fill="none" stroke="#191970" d="M289.1523,-612.4061C306.4613,-614.125 325.4816,-615.8293 343,-617 412.0694,-621.6158 491.9149,-623.9586 543.1332,-625.0782"/>
<polygon fill="#191970" stroke="#191970" points="289.4848,-608.922 279.183,-611.3962 288.7793,-615.8863 289.4848,-608.922"/>
</g>
<!-- Node132797 -->
<g id="node4" class="node">
<title>Node132797</title>
<g id="a_node4"><a xlink:href="quickjs_8c.html#ad8aedb643b8753b7a15f6cb2df61945e" target="_top" xlink:title="JS_NewContext">
<polygon fill="none" stroke="#000000" points="703,-587.5 703,-606.5 792,-606.5 792,-587.5 703,-587.5"/>
<text text-anchor="middle" x="747.5" y="-594.5" font-family="Helvetica,sans-Serif" font-size="10.00" fill="#000000">JS_NewContext</text>
</a>
</g>
</g>
<!-- Node132796&#45;&gt;Node132797 -->
<g id="edge3" class="edge">
<title>Node132796&#45;&gt;Node132797</title>
<path fill="none" stroke="#191970" d="M656.1149,-614.4929C671.7141,-611.5069 688.2382,-608.3438 702.8828,-605.5406"/>
<polygon fill="#191970" stroke="#191970" points="655.1903,-611.1062 646.0266,-616.4239 656.5064,-617.9814 655.1903,-611.1062"/>
</g>
<!-- Node132799 -->
<g id="node6" class="node">
<title>Node132799</title>
<g id="a_node6"><a xlink:href="quickjs_8c.html#aeafb37b03b5560171754f8c4505b0f6b" target="_top" xlink:title="JS_ThrowError2">
<polygon fill="none" stroke="#000000" points="372.5,-418.5 372.5,-437.5 459.5,-437.5 459.5,-418.5 372.5,-418.5"/>
<text text-anchor="middle" x="416" y="-425.5" font-family="Helvetica,sans-Serif" font-size="10.00" fill="#000000">JS_ThrowError2</text>
</a>
</g>
</g>
<!-- Node132798&#45;&gt;Node132799 -->
<g id="edge5" class="edge">
<title>Node132798&#45;&gt;Node132799</title>
<path fill="none" stroke="#191970" d="M283.9289,-428C311.929,-428 345.8904,-428 372.3626,-428"/>
<polygon fill="#191970" stroke="#191970" points="283.9077,-424.5001 273.9077,-428 283.9077,-431.5001 283.9077,-424.5001"/>
</g>
<!-- Node132822 -->
<g id="node8" class="node">
<title>Node132822</title>
<g id="a_node8"><a xlink:href="quickjs_8c.html#ac2894ff4edcdb4e6841bcce9c76081e3" target="_top" xlink:title="JS_CallInternal">
<polygon fill="none" stroke="#ff0000" points="554.5,-152.5 554.5,-171.5 637.5,-171.5 637.5,-152.5 554.5,-152.5"/>
<text text-anchor="middle" x="596" y="-159.5" font-family="Helvetica,sans-Serif" font-size="10.00" fill="#000000">JS_CallInternal</text>
</a>
</g>
</g>
<!-- Node132798&#45;&gt;Node132822 -->
<g id="edge7" class="edge">
<title>Node132798&#45;&gt;Node132822</title>
<path fill="none" stroke="#191970" d="M283.6725,-419.0928C339.6584,-407.4044 428.3145,-382.2994 489,-333 546.353,-286.4079 581.8522,-200.4534 592.5602,-171.6747"/>
<polygon fill="#191970" stroke="#191970" points="282.7234,-415.7137 273.613,-421.122 284.1076,-422.5755 282.7234,-415.7137"/>
</g>
<!-- Node133048 -->
<g id="node9" class="node">
<title>Node133048</title>
<g id="a_node9"><a xlink:href="quickjs_8c.html#acdcc62310b4f6f73fa7bc7267b18b1d4" target="_top" xlink:title="js_parse_postfix_expr">
<polygon fill="none" stroke="#ff0000" points="360,-494.5 360,-513.5 472,-513.5 472,-494.5 360,-494.5"/>
<text text-anchor="middle" x="416" y="-501.5" font-family="Helvetica,sans-Serif" font-size="10.00" fill="#000000">js_parse_postfix_expr</text>
</a>
</g>
</g>
<!-- Node132798&#45;&gt;Node133048 -->
<g id="edge9" class="edge">
<title>Node132798&#45;&gt;Node133048</title>
<path fill="none" stroke="#191970" d="M255.9736,-442.6906C278.2129,-455.2865 311.9435,-473.2146 343,-485 352.5502,-488.6241 363.0577,-491.8037 373.0525,-494.4731"/>
<polygon fill="#191970" stroke="#191970" points="257.6033,-439.5906 247.1873,-437.6523 254.1212,-445.6631 257.6033,-439.5906"/>
</g>
<!-- Node132847 -->
<g id="node10" class="node">
<title>Node132847</title>
<g id="a_node10"><a xlink:href="quickjs_8c.html#ad25358fc5ae69ab218abde24d52b7767" target="_top" xlink:title="js_error_constructor">
<polygon fill="none" stroke="#000000" points="364.5,-550.5 364.5,-569.5 467.5,-569.5 467.5,-550.5 364.5,-550.5"/>
<text text-anchor="middle" x="416" y="-557.5" font-family="Helvetica,sans-Serif" font-size="10.00" fill="#000000">js_error_constructor</text>
</a>
</g>
</g>
<!-- Node132798&#45;&gt;Node132847 -->
<g id="edge11" class="edge">
<title>Node132798&#45;&gt;Node132847</title>
<path fill="none" stroke="#191970" d="M247.1714,-445.2954C275.3683,-475.3025 331.6211,-534.4511 343,-541 349.6967,-544.8541 357.184,-547.941 364.742,-550.4094"/>
<polygon fill="#191970" stroke="#191970" points="249.4165,-442.5729 240.023,-437.6726 244.3104,-447.3612 249.4165,-442.5729"/>
</g>
<!-- Node132800 -->
<g id="node7" class="node">
<title>Node132800</title>
<g id="a_node7"><a xlink:href="quickjs_8c.html#a1b110b017211230b8b6310e853cd2b54" target="_top" xlink:title="JS_ThrowError">
<polygon fill="none" stroke="#ff0000" points="555,-399.5 555,-418.5 637,-418.5 637,-399.5 555,-399.5"/>
<text text-anchor="middle" x="596" y="-406.5" font-family="Helvetica,sans-Serif" font-size="10.00" fill="#000000">JS_ThrowError</text>
</a>
</g>
</g>
<!-- Node132799&#45;&gt;Node132800 -->
<g id="edge6" class="edge">
<title>Node132799&#45;&gt;Node132800</title>
<path fill="none" stroke="#191970" d="M469.7533,-422.326C497.0682,-419.4428 529.7312,-415.995 554.9898,-413.3288"/>
<polygon fill="#191970" stroke="#191970" points="469.1503,-418.8702 459.573,-423.4006 469.8852,-425.8315 469.1503,-418.8702"/>
</g>
<!-- Node132822&#45;&gt;Node132822 -->
<g id="edge8" class="edge">
<title>Node132822&#45;&gt;Node132822</title>
<path fill="none" stroke="#191970" d="M568.0009,-180.6539C569.1712,-185.9368 578.5043,-190 596,-190 622.6602,-190 630.3666,-180.5653 619.1194,-171.7571"/>
<polygon fill="#191970" stroke="#191970" points="571.1403,-182.208 572.8806,-171.7571 565.0029,-178.8417 571.1403,-182.208"/>
</g>
<!-- Node133048&#45;&gt;Node133048 -->
<g id="edge10" class="edge">
<title>Node133048&#45;&gt;Node133048</title>
<path fill="none" stroke="#191970" d="M382.267,-521.8913C382.761,-527.5406 394.0054,-532 416,-532 447.9922,-532 457.2399,-522.5653 443.7432,-513.7571"/>
<polygon fill="#191970" stroke="#191970" points="385.1456,-523.8848 388.2568,-513.7571 379.5089,-519.7341 385.1456,-523.8848"/>
</g>
<!-- Node132848 -->
<g id="node11" class="node">
<title>Node132848</title>
<g id="a_node11"><a xlink:href="quickjs_8c.html#a4c9489297c684663f30e517204a9ec14" target="_top" xlink:title="JS_AddIntrinsicBaseObjects">
<polygon fill="none" stroke="#000000" points="525,-559.5 525,-578.5 667,-578.5 667,-559.5 525,-559.5"/>
<text text-anchor="middle" x="596" y="-566.5" font-family="Helvetica,sans-Serif" font-size="10.00" fill="#000000">JS_AddIntrinsicBaseObjects</text>
</a>
</g>
</g>
<!-- Node132847&#45;&gt;Node132848 -->
<g id="edge12" class="edge">
<title>Node132847&#45;&gt;Node132848</title>
<path fill="none" stroke="#191970" d="M477.8698,-563.0935C493.0404,-563.852 509.3965,-564.6698 524.9602,-565.448"/>
<polygon fill="#191970" stroke="#191970" points="477.7431,-559.5829 467.5808,-562.579 477.3935,-566.5741 477.7431,-559.5829"/>
</g>
<!-- Node132848&#45;&gt;Node132797 -->
<g id="edge13" class="edge">
<title>Node132848&#45;&gt;Node132797</title>
<path fill="none" stroke="#191970" d="M657.9222,-580.4444C672.8826,-583.2093 688.5879,-586.112 702.596,-588.7009"/>
<polygon fill="#191970" stroke="#191970" points="658.1836,-576.9335 647.714,-578.5577 656.9113,-583.8169 658.1836,-576.9335"/>
</g>
<!-- Node133380&#45;&gt;Node132822 -->
<g id="edge15" class="edge">
<title>Node133380&#45;&gt;Node132822</title>
<path fill="none" stroke="#191970" d="M285.4442,-143.5679C337.7396,-140.1079 418.9213,-136.8263 489,-143 510.7073,-144.9123 534.6076,-148.9666 554.3035,-152.8409"/>
<polygon fill="#191970" stroke="#191970" points="285.1185,-140.0819 275.3821,-144.2595 285.5986,-147.0654 285.1185,-140.0819"/>
</g>
<!-- Node133382 -->
<g id="node14" class="node">
<title>Node133382</title>
<g id="a_node14"><a xlink:href="quickjs_8c.html#a9ca2f6b32f0e892e8031147aa8edf270" target="_top" xlink:title="JS_DumpGCObject">
<polygon fill="none" stroke="#000000" points="364,-.5 364,-19.5 468,-19.5 468,-.5 364,-.5"/>
<text text-anchor="middle" x="416" y="-7.5" font-family="Helvetica,sans-Serif" font-size="10.00" fill="#000000">JS_DumpGCObject</text>
</a>
</g>
</g>
<!-- Node133381&#45;&gt;Node133382 -->
<g id="edge17" class="edge">
<title>Node133381&#45;&gt;Node133382</title>
<path fill="none" stroke="#191970" d="M279.3854,-43.969C310.0667,-36.3402 349.2033,-26.6089 377.717,-19.519"/>
<polygon fill="#191970" stroke="#191970" points="278.192,-40.6591 269.3321,-46.4688 279.8812,-47.4523 278.192,-40.6591"/>
</g>
<!-- Node133384 -->
<g id="node17" class="node">
<title>Node133384</title>
<g id="a_node17"><a xlink:href="quickjs_8c.html#a2c15f4e9fa1344bb2d7caca8e21b34f4" target="_top" xlink:title="js_import_meta">
<polygon fill="none" stroke="#000000" points="374.5,-38.5 374.5,-57.5 457.5,-57.5 457.5,-38.5 374.5,-38.5"/>
<text text-anchor="middle" x="416" y="-45.5" font-family="Helvetica,sans-Serif" font-size="10.00" fill="#000000">js_import_meta</text>
</a>
</g>
</g>
<!-- Node133383&#45;&gt;Node133384 -->
<g id="edge20" class="edge">
<title>Node133383&#45;&gt;Node133384</title>
<path fill="none" stroke="#191970" d="M279.3854,-81.969C310.0667,-74.3402 349.2033,-64.6089 377.717,-57.519"/>
<polygon fill="#191970" stroke="#191970" points="278.192,-78.6591 269.3321,-84.4688 279.8812,-85.4523 278.192,-78.6591"/>
</g>
<!-- Node132872 -->
<g id="node18" class="node">
<title>Node132872</title>
<g id="a_node18"><a xlink:href="quickjs_8c.html#a50e94675d1c4cf67c88e72169ea3c21a" target="_top" xlink:title="js_dynamic_import">
<polygon fill="none" stroke="#000000" points="367,-76.5 367,-95.5 465,-95.5 465,-76.5 367,-76.5"/>
<text text-anchor="middle" x="416" y="-83.5" font-family="Helvetica,sans-Serif" font-size="10.00" fill="#000000">js_dynamic_import</text>
</a>
</g>
</g>
<!-- Node133383&#45;&gt;Node132872 -->
<g id="edge22" class="edge">
<title>Node133383&#45;&gt;Node132872</title>
<path fill="none" stroke="#191970" d="M317.0746,-90.2779C334.193,-89.5376 351.6062,-88.7846 366.9541,-88.1209"/>
<polygon fill="#191970" stroke="#191970" points="316.8869,-86.7826 307.0475,-90.7115 317.1894,-93.7761 316.8869,-86.7826"/>
</g>
<!-- Node133384&#45;&gt;Node132822 -->
<g id="edge21" class="edge">
<title>Node133384&#45;&gt;Node132822</title>
<path fill="none" stroke="#191970" d="M467.543,-58.1326C474.9617,-60.5208 482.3328,-63.4408 489,-67 531.7333,-89.8123 571.4481,-132.9919 587.9484,-152.2745"/>
<polygon fill="#191970" stroke="#191970" points="468.3983,-54.7362 457.818,-55.2904 466.4346,-61.4552 468.3983,-54.7362"/>
</g>
<!-- Node132872&#45;&gt;Node132822 -->
<g id="edge23" class="edge">
<title>Node132872&#45;&gt;Node132822</title>
<path fill="none" stroke="#191970" d="M457.9172,-98.7082C468.1814,-102.1133 479.0679,-105.9753 489,-110 521.1585,-123.0314 557.19,-141.3536 578.1617,-152.4103"/>
<polygon fill="#191970" stroke="#191970" points="458.9106,-95.351 448.3185,-95.5931 456.7497,-102.0091 458.9106,-95.351"/>
</g>
<!-- Node133385&#45;&gt;Node132800 -->
<g id="edge25" class="edge">
<title>Node133385&#45;&gt;Node132800</title>
<path fill="none" stroke="#191970" d="M277.5777,-326.123C351.1019,-345.2594 492.555,-382.076 559.3556,-399.4624"/>
<polygon fill="#191970" stroke="#191970" points="278.228,-322.6757 267.6688,-323.5439 276.4647,-329.45 278.228,-322.6757"/>
</g>
<!-- Node133386 -->
<g id="node20" class="node">
<title>Node133386</title>
<g id="a_node20"><a xlink:href="quickjs_8c.html#adaeef1b86e37da5560f25b630c2d090c" target="_top" xlink:title="js_function_proto_caller">
<polygon fill="none" stroke="#000000" points="356.5,-456.5 356.5,-475.5 475.5,-475.5 475.5,-456.5 356.5,-456.5"/>
<text text-anchor="middle" x="416" y="-463.5" font-family="Helvetica,sans-Serif" font-size="10.00" fill="#000000">js_function_proto_caller</text>
</a>
</g>
</g>
<!-- Node133385&#45;&gt;Node133386 -->
<g id="edge26" class="edge">
<title>Node133385&#45;&gt;Node133386</title>
<path fill="none" stroke="#191970" d="M245.0904,-331.9253C272.3183,-366.3821 330.5783,-439.1643 343,-447 349.2027,-450.9127 356.1849,-454.0228 363.3087,-456.4942"/>
<polygon fill="#191970" stroke="#191970" points="247.5292,-329.3656 238.5892,-323.6798 242.0323,-333.6996 247.5292,-329.3656"/>
</g>
<!-- Node133387 -->
<g id="node21" class="node">
<title>Node133387</title>
<g id="a_node21"><a xlink:href="quickjs_8c.html#a9605bd425a349d4b00391cb6f5d5cfd8" target="_top" xlink:title="js_function_proto_fileName">
<polygon fill="none" stroke="#000000" points="348.5,-304.5 348.5,-323.5 483.5,-323.5 483.5,-304.5 348.5,-304.5"/>
<text text-anchor="middle" x="416" y="-311.5" font-family="Helvetica,sans-Serif" font-size="10.00" fill="#000000">js_function_proto_fileName</text>
</a>
</g>
</g>
<!-- Node133385&#45;&gt;Node133387 -->
<g id="edge28" class="edge">
<title>Node133385&#45;&gt;Node133387</title>
<path fill="none" stroke="#191970" d="M305.4199,-314C319.648,-314 334.47,-314 348.4674,-314"/>
<polygon fill="#191970" stroke="#191970" points="305.1849,-310.5001 295.1848,-314 305.1848,-317.5001 305.1849,-310.5001"/>
</g>
<!-- Node133388 -->
<g id="node22" class="node">
<title>Node133388</title>
<g id="a_node22"><a xlink:href="quickjs_8c.html#acd4bb9514182c7152570ca80a1a0650d" target="_top" xlink:title="js_function_proto_lineNumber">
<polygon fill="none" stroke="#000000" points="343,-266.5 343,-285.5 489,-285.5 489,-266.5 343,-266.5"/>
<text text-anchor="middle" x="416" y="-273.5" font-family="Helvetica,sans-Serif" font-size="10.00" fill="#000000">js_function_proto_lineNumber</text>
</a>
</g>
</g>
<!-- Node133385&#45;&gt;Node133388 -->
<g id="edge29" class="edge">
<title>Node133385&#45;&gt;Node133388</title>
<path fill="none" stroke="#191970" d="M287.52,-302.3905C313.8312,-296.986 344.7435,-290.6365 369.6524,-285.5201"/>
<polygon fill="#191970" stroke="#191970" points="286.7746,-298.9704 277.6833,-304.411 288.183,-305.8273 286.7746,-298.9704"/>
</g>
<!-- Node133386&#45;&gt;Node132848 -->
<g id="edge27" class="edge">
<title>Node133386&#45;&gt;Node132848</title>
<path fill="none" stroke="#191970" d="M473.7064,-478.6152C478.9839,-480.4824 484.1597,-482.6013 489,-485 529.4175,-505.0294 569.0867,-541.9303 586.6256,-559.3777"/>
<polygon fill="#191970" stroke="#191970" points="474.7395,-475.2709 464.1476,-475.5204 472.5832,-481.9305 474.7395,-475.2709"/>
</g>
<!-- Node133389&#45;&gt;Node132822 -->
<g id="edge35" class="edge">
<title>Node133389&#45;&gt;Node132822</title>
<path fill="none" stroke="#191970" d="M296.1199,-215.9972C348.8757,-226.2994 424.73,-235.0509 489,-219 525.7571,-209.8202 563.7237,-185.3696 583.0268,-171.6611"/>
<polygon fill="#191970" stroke="#191970" points="296.7126,-212.5462 286.2169,-213.9922 295.3234,-219.407 296.7126,-212.5462"/>
</g>
<!-- Node133032 -->
<g id="node24" class="node">
<title>Node133032</title>
<g id="a_node24"><a xlink:href="quickjs_8c.html#a44d4e574b5bd12a89f8389ca79e587a0" target="_top" xlink:title="js_method_set_properties">
<polygon fill="none" stroke="#000000" points="352,-190.5 352,-209.5 480,-209.5 480,-190.5 352,-190.5"/>
<text text-anchor="middle" x="416" y="-197.5" font-family="Helvetica,sans-Serif" font-size="10.00" fill="#000000">js_method_set_properties</text>
</a>
</g>
</g>
<!-- Node133389&#45;&gt;Node133032 -->
<g id="edge31" class="edge">
<title>Node133389&#45;&gt;Node133032</title>
<path fill="none" stroke="#191970" d="M296.1428,-200C314.1917,-200 333.7677,-200 351.7645,-200"/>
<polygon fill="#191970" stroke="#191970" points="296.0052,-196.5001 286.0052,-200 296.0052,-203.5001 296.0052,-196.5001"/>
</g>
<!-- Node133096 -->
<g id="node25" class="node">
<title>Node133096</title>
<g id="a_node25"><a xlink:href="quickjs_8c.html#a36322a209de4ef17f939e6d128578d7f" target="_top" xlink:title="js_op_define_class">
<polygon fill="none" stroke="#000000" points="366,-152.5 366,-171.5 466,-171.5 466,-152.5 366,-152.5"/>
<text text-anchor="middle" x="416" y="-159.5" font-family="Helvetica,sans-Serif" font-size="10.00" fill="#000000">js_op_define_class</text>
</a>
</g>
</g>
<!-- Node133389&#45;&gt;Node133096 -->
<g id="edge33" class="edge">
<title>Node133389&#45;&gt;Node133096</title>
<path fill="none" stroke="#191970" d="M295.878,-186.6737C320.1986,-181.6781 347.3239,-176.1064 369.6356,-171.5235"/>
<polygon fill="#191970" stroke="#191970" points="295.0965,-183.2611 286.0052,-188.7016 296.505,-190.1179 295.0965,-183.2611"/>
</g>
<!-- Node133032&#45;&gt;Node132822 -->
<g id="edge32" class="edge">
<title>Node133032&#45;&gt;Node132822</title>
<path fill="none" stroke="#191970" d="M471.4032,-188.3038C498.1235,-182.6628 529.643,-176.0087 554.2944,-170.8045"/>
<polygon fill="#191970" stroke="#191970" points="470.483,-184.9208 461.4216,-190.411 471.9289,-191.7699 470.483,-184.9208"/>
</g>
<!-- Node133096&#45;&gt;Node132822 -->
<g id="edge34" class="edge">
<title>Node133096&#45;&gt;Node132822</title>
<path fill="none" stroke="#191970" d="M476.1432,-162C501.8043,-162 531.1175,-162 554.3316,-162"/>
<polygon fill="#191970" stroke="#191970" points="476.1401,-158.5001 466.14,-162 476.14,-165.5001 476.1401,-158.5001"/>
</g>
<!-- Node133143 -->
<g id="node27" class="node">
<title>Node133143</title>
<g id="a_node27"><a xlink:href="quickjs_8c.html#a43064473b2e303ee40f4c1c7a87e85da" target="_top" xlink:title="js_function_constructor">
<polygon fill="none" stroke="#ff0000" points="357,-588.5 357,-607.5 475,-607.5 475,-588.5 357,-588.5"/>
<text text-anchor="middle" x="416" y="-595.5" font-family="Helvetica,sans-Serif" font-size="10.00" fill="#000000">js_function_constructor</text>
</a>
</g>
</g>
<!-- Node133390&#45;&gt;Node133143 -->
<g id="edge37" class="edge">
<title>Node133390&#45;&gt;Node133143</title>
<path fill="none" stroke="#191970" d="M272.5748,-551.1154C293.4403,-560.2786 319.2668,-570.9774 343,-579 353.2972,-582.4808 364.5908,-585.7017 375.1525,-588.4654"/>
<polygon fill="#191970" stroke="#191970" points="273.9227,-547.8845 263.3624,-547.0285 271.084,-554.2831 273.9227,-547.8845"/>
</g>
<!-- Node133143&#45;&gt;Node132848 -->
<g id="edge38" class="edge">
<title>Node133143&#45;&gt;Node132848</title>
<path fill="none" stroke="#191970" d="M485.3254,-586.8309C502.3575,-584.0868 520.434,-581.1745 536.9318,-578.5165"/>
<polygon fill="#191970" stroke="#191970" points="484.7535,-583.3778 475.4376,-588.4239 485.867,-590.2887 484.7535,-583.3778"/>
</g>
</g>
</svg>
