<?xml version="1.0" encoding="UTF-8" standalone="no"?>
<!DOCTYPE svg PUBLIC "-//W3C//DTD SVG 1.1//EN"
 "http://www.w3.org/Graphics/SVG/1.1/DTD/svg11.dtd">
<!-- Generated by graphviz version 2.40.1 (20161225.0304)
 -->
<!-- Title: js_method_set_home_object Pages: 1 -->
<svg width="740pt" height="919pt"
 viewBox="0.00 0.00 740.00 919.00" xmlns="http://www.w3.org/2000/svg" xmlns:xlink="http://www.w3.org/1999/xlink">
<g id="graph0" class="graph" transform="scale(1 1) rotate(0) translate(4 915)">
<title>js_method_set_home_object</title>
<!-- Node134021 -->
<g id="node1" class="node">
<title>Node134021</title>
<polygon fill="#bfbfbf" stroke="#000000" points="0,-311 0,-341 110,-341 110,-311 0,-311"/>
<text text-anchor="start" x="8" y="-329" font-family="Helvetica,sans-Serif" font-size="10.00" fill="#000000">js_method_set_home</text>
<text text-anchor="middle" x="55" y="-318" font-family="Helvetica,sans-Serif" font-size="10.00" fill="#000000">_object</text>
</g>
<!-- Node134022 -->
<g id="node2" class="node">
<title>Node134022</title>
<g id="a_node2"><a xlink:href="quickjs_8c.html#ac2894ff4edcdb4e6841bcce9c76081e3" target="_top" xlink:title="JS_CallInternal">
<polygon fill="none" stroke="#000000" points="310,-316.5 310,-335.5 393,-335.5 393,-316.5 310,-316.5"/>
<text text-anchor="middle" x="351.5" y="-323.5" font-family="Helvetica,sans-Serif" font-size="10.00" fill="#000000">JS_CallInternal</text>
</a>
</g>
</g>
<!-- Node134021&#45;&gt;Node134022 -->
<g id="edge1" class="edge">
<title>Node134021&#45;&gt;Node134022</title>
<path fill="none" stroke="#191970" d="M120.1261,-341.283C128.7836,-342.8185 137.5767,-344.13 146,-345 202.5879,-350.8445 217.5216,-351.8221 274,-345 289.4037,-343.1394 306.1632,-339.2701 320.1437,-335.5058"/>
<polygon fill="#191970" stroke="#191970" points="120.5299,-337.7977 110.0555,-339.3907 119.2371,-344.6773 120.5299,-337.7977"/>
</g>
<!-- Node134178 -->
<g id="node29" class="node">
<title>Node134178</title>
<g id="a_node29"><a xlink:href="quickjs_8c.html#a44d4e574b5bd12a89f8389ca79e587a0" target="_top" xlink:title="js_method_set_properties">
<polygon fill="none" stroke="#000000" points="146,-316.5 146,-335.5 274,-335.5 274,-316.5 146,-316.5"/>
<text text-anchor="middle" x="210" y="-323.5" font-family="Helvetica,sans-Serif" font-size="10.00" fill="#000000">js_method_set_properties</text>
</a>
</g>
</g>
<!-- Node134021&#45;&gt;Node134178 -->
<g id="edge38" class="edge">
<title>Node134021&#45;&gt;Node134178</title>
<path fill="none" stroke="#191970" d="M120.2744,-326C128.7331,-326 137.391,-326 145.8315,-326"/>
<polygon fill="#191970" stroke="#191970" points="120.0837,-322.5001 110.0836,-326 120.0836,-329.5001 120.0837,-322.5001"/>
</g>
<!-- Node134251 -->
<g id="node30" class="node">
<title>Node134251</title>
<g id="a_node30"><a xlink:href="quickjs_8c.html#a36322a209de4ef17f939e6d128578d7f" target="_top" xlink:title="js_op_define_class">
<polygon fill="none" stroke="#000000" points="160,-278.5 160,-297.5 260,-297.5 260,-278.5 160,-278.5"/>
<text text-anchor="middle" x="210" y="-285.5" font-family="Helvetica,sans-Serif" font-size="10.00" fill="#000000">js_op_define_class</text>
</a>
</g>
</g>
<!-- Node134021&#45;&gt;Node134251 -->
<g id="edge40" class="edge">
<title>Node134021&#45;&gt;Node134251</title>
<path fill="none" stroke="#191970" d="M120.1717,-310.0224C137.5175,-305.7699 155.709,-301.3101 171.1495,-297.5246"/>
<polygon fill="#191970" stroke="#191970" points="118.9626,-306.7151 110.0836,-312.4956 120.6294,-313.5138 118.9626,-306.7151"/>
</g>
<!-- Node134022&#45;&gt;Node134022 -->
<g id="edge37" class="edge">
<title>Node134022&#45;&gt;Node134022</title>
<path fill="none" stroke="#191970" d="M325.4584,-345.0292C326.8789,-350.128 335.5594,-354 351.5,-354 376.3828,-354 383.5755,-344.5653 373.0781,-335.7571"/>
<polygon fill="#191970" stroke="#191970" points="328.738,-346.2855 329.9219,-335.7571 322.4308,-343.2493 328.738,-346.2855"/>
</g>
<!-- Node134023 -->
<g id="node3" class="node">
<title>Node134023</title>
<g id="a_node3"><a xlink:href="quickjs_8c.html#ade71a22dc56e7371392393df663b28b3" target="_top" xlink:title="async_func_resume">
<polygon fill="none" stroke="#000000" points="444,-798.5 444,-817.5 548,-817.5 548,-798.5 444,-798.5"/>
<text text-anchor="middle" x="496" y="-805.5" font-family="Helvetica,sans-Serif" font-size="10.00" fill="#000000">async_func_resume</text>
</a>
</g>
</g>
<!-- Node134022&#45;&gt;Node134023 -->
<g id="edge2" class="edge">
<title>Node134022&#45;&gt;Node134023</title>
<path fill="none" stroke="#191970" d="M357.3678,-345.5728C381.8526,-427.2454 475.4216,-739.3578 493.1067,-798.3489"/>
<polygon fill="#191970" stroke="#191970" points="360.6108,-344.2018 354.3864,-335.6281 353.9056,-346.212 360.6108,-344.2018"/>
</g>
<!-- Node134035 -->
<g id="node8" class="node">
<title>Node134035</title>
<g id="a_node8"><a xlink:href="quickjs_8c.html#a1a4c02a29525d5cb2085dd8bca3af350" target="_top" xlink:title="JS_Call">
<polygon fill="none" stroke="#ff0000" points="470.5,-354.5 470.5,-373.5 521.5,-373.5 521.5,-354.5 470.5,-354.5"/>
<text text-anchor="middle" x="496" y="-361.5" font-family="Helvetica,sans-Serif" font-size="10.00" fill="#000000">JS_Call</text>
</a>
</g>
</g>
<!-- Node134022&#45;&gt;Node134035 -->
<g id="edge7" class="edge">
<title>Node134022&#45;&gt;Node134035</title>
<path fill="none" stroke="#191970" d="M403.3524,-333.1309C429.197,-339.291 458.8346,-347.6885 477.4855,-354.4368"/>
<polygon fill="#191970" stroke="#191970" points="403.8269,-329.6484 393.2954,-330.8052 402.2497,-336.4684 403.8269,-329.6484"/>
</g>
<!-- Node134109 -->
<g id="node27" class="node">
<title>Node134109</title>
<g id="a_node27"><a xlink:href="quickjs_8c.html#ad35594576a14c10812efaf958c99af8a" target="_top" xlink:title="JS_CallConstructorInternal">
<polygon fill="none" stroke="#ff0000" points="429,-240.5 429,-259.5 563,-259.5 563,-240.5 429,-240.5"/>
<text text-anchor="middle" x="496" y="-247.5" font-family="Helvetica,sans-Serif" font-size="10.00" fill="#000000">JS_CallConstructorInternal</text>
</a>
</g>
</g>
<!-- Node134022&#45;&gt;Node134109 -->
<g id="edge32" class="edge">
<title>Node134022&#45;&gt;Node134109</title>
<path fill="none" stroke="#191970" d="M363.5491,-308.5463C378.0695,-293.2145 403.6856,-272.3922 429,-260 429.3258,-259.8405 429.6531,-259.6822 429.9819,-259.525"/>
<polygon fill="#191970" stroke="#191970" points="360.627,-306.572 356.6961,-316.4106 365.9045,-311.1708 360.627,-306.572"/>
</g>
<!-- Node134123 -->
<g id="node28" class="node">
<title>Node134123</title>
<g id="a_node28"><a xlink:href="quickjs_8c.html#a75f6ee5e4235a7dc99889f3d2eb2c147" target="_top" xlink:title="JS_CallFree">
<polygon fill="none" stroke="#ff0000" points="460.5,-278.5 460.5,-297.5 531.5,-297.5 531.5,-278.5 460.5,-278.5"/>
<text text-anchor="middle" x="496" y="-285.5" font-family="Helvetica,sans-Serif" font-size="10.00" fill="#000000">JS_CallFree</text>
</a>
</g>
</g>
<!-- Node134022&#45;&gt;Node134123 -->
<g id="edge34" class="edge">
<title>Node134022&#45;&gt;Node134123</title>
<path fill="none" stroke="#191970" d="M379.6305,-313.1263C402.6733,-305.5295 435.4179,-296.7723 460.3055,-291.4723"/>
<polygon fill="#191970" stroke="#191970" points="378.4119,-309.8441 370.095,-316.4076 380.6897,-316.4632 378.4119,-309.8441"/>
</g>
<!-- Node134024 -->
<g id="node4" class="node">
<title>Node134024</title>
<g id="a_node4"><a xlink:href="quickjs_8c.html#ac90552b1f1659acb3dae9a4c62479a30" target="_top" xlink:title="js_generator_function_call">
<polygon fill="none" stroke="#ff0000" points="600.5,-891.5 600.5,-910.5 730.5,-910.5 730.5,-891.5 600.5,-891.5"/>
<text text-anchor="middle" x="665.5" y="-898.5" font-family="Helvetica,sans-Serif" font-size="10.00" fill="#000000">js_generator_function_call</text>
</a>
</g>
</g>
<!-- Node134023&#45;&gt;Node134024 -->
<g id="edge3" class="edge">
<title>Node134023&#45;&gt;Node134024</title>
<path fill="none" stroke="#191970" d="M514.4671,-824.3133C534.1641,-840.9499 566.8865,-866.4617 599,-882 606.782,-885.7654 615.4469,-888.9157 623.8825,-891.499"/>
<polygon fill="#191970" stroke="#191970" points="516.488,-821.4351 506.6226,-817.5717 511.9255,-826.7439 516.488,-821.4351"/>
</g>
<!-- Node134028 -->
<g id="node5" class="node">
<title>Node134028</title>
<g id="a_node5"><a xlink:href="quickjs_8c.html#a1bf6b62983e8fff99c0a5d5a9f486115" target="_top" xlink:title="js_async_function_resume">
<polygon fill="none" stroke="#ff0000" points="599,-754.5 599,-773.5 732,-773.5 732,-754.5 599,-754.5"/>
<text text-anchor="middle" x="665.5" y="-761.5" font-family="Helvetica,sans-Serif" font-size="10.00" fill="#000000">js_async_function_resume</text>
</a>
</g>
</g>
<!-- Node134023&#45;&gt;Node134028 -->
<g id="edge4" class="edge">
<title>Node134023&#45;&gt;Node134028</title>
<path fill="none" stroke="#191970" d="M542.4651,-795.9383C569.6496,-788.8815 603.4877,-780.0976 628.7928,-773.5287"/>
<polygon fill="#191970" stroke="#191970" points="541.5787,-792.5523 532.779,-798.4527 543.3376,-799.3277 541.5787,-792.5523"/>
</g>
<!-- Node134033 -->
<g id="node6" class="node">
<title>Node134033</title>
<g id="a_node6"><a xlink:href="quickjs_8c.html#a89b019c704a2d2914bc30b30a72040b3" target="_top" xlink:title="js_async_generator\l_resume_next">
<polygon fill="none" stroke="#000000" points="615,-842 615,-872 716,-872 716,-842 615,-842"/>
<text text-anchor="start" x="623" y="-860" font-family="Helvetica,sans-Serif" font-size="10.00" fill="#000000">js_async_generator</text>
<text text-anchor="middle" x="665.5" y="-849" font-family="Helvetica,sans-Serif" font-size="10.00" fill="#000000">_resume_next</text>
</a>
</g>
</g>
<!-- Node134023&#45;&gt;Node134033 -->
<g id="edge5" class="edge">
<title>Node134023&#45;&gt;Node134033</title>
<path fill="none" stroke="#191970" d="M538.9372,-820.4125C562.0226,-827.0862 590.6309,-835.3564 614.805,-842.3448"/>
<polygon fill="#191970" stroke="#191970" points="539.6623,-816.9789 529.0837,-817.564 537.7183,-823.7036 539.6623,-816.9789"/>
</g>
<!-- Node134034 -->
<g id="node7" class="node">
<title>Node134034</title>
<g id="a_node7"><a xlink:href="quickjs_8c.html#ae19867da709929c072f05e90301835a4" target="_top" xlink:title="js_async_generator\l_function_call">
<polygon fill="none" stroke="#ff0000" points="615,-793 615,-823 716,-823 716,-793 615,-793"/>
<text text-anchor="start" x="623" y="-811" font-family="Helvetica,sans-Serif" font-size="10.00" fill="#000000">js_async_generator</text>
<text text-anchor="middle" x="665.5" y="-800" font-family="Helvetica,sans-Serif" font-size="10.00" fill="#000000">_function_call</text>
</a>
</g>
</g>
<!-- Node134023&#45;&gt;Node134034 -->
<g id="edge6" class="edge">
<title>Node134023&#45;&gt;Node134034</title>
<path fill="none" stroke="#191970" d="M558.388,-808C576.9885,-808 597.1368,-808 614.8866,-808"/>
<polygon fill="#191970" stroke="#191970" points="558.2387,-804.5001 548.2387,-808 558.2386,-811.5001 558.2387,-804.5001"/>
</g>
<!-- Node134035&#45;&gt;Node134022 -->
<g id="edge15" class="edge">
<title>Node134035&#45;&gt;Node134022</title>
<path fill="none" stroke="#191970" d="M460.4088,-360.5497C431.8289,-354.469 392.8374,-343.8129 370.095,-335.5924"/>
<polygon fill="#191970" stroke="#191970" points="459.923,-364.0222 470.4179,-362.57 461.3081,-357.1605 459.923,-364.0222"/>
</g>
<!-- Node134035&#45;&gt;Node134028 -->
<g id="edge16" class="edge">
<title>Node134035&#45;&gt;Node134028</title>
<path fill="none" stroke="#191970" d="M498.7529,-383.7588C508.9516,-454.2437 546.7113,-691.9598 599,-745 602.7933,-748.8478 607.3078,-751.93 612.1727,-754.3967"/>
<polygon fill="#191970" stroke="#191970" points="502.1817,-383.01 497.3081,-373.6026 495.2515,-383.9959 502.1817,-383.01"/>
</g>
<!-- Node134036 -->
<g id="node9" class="node">
<title>Node134036</title>
<g id="a_node9"><a xlink:href="structqjs_1_1js__traits_3_01std_1_1function_3_01R_07Args_8_8_8_08_4_01_4.html#abc36cacd670b6b5f1773734a0586a02b" target="_top" xlink:title="qjs::js_traits\&lt; std\l::function\&lt; R(Args...)\l\&gt; \&gt;::unwrap">
<polygon fill="none" stroke="#000000" points="611,-392.5 611,-433.5 720,-433.5 720,-392.5 611,-392.5"/>
<text text-anchor="start" x="619" y="-421.5" font-family="Helvetica,sans-Serif" font-size="10.00" fill="#000000">qjs::js_traits&lt; std</text>
<text text-anchor="start" x="619" y="-410.5" font-family="Helvetica,sans-Serif" font-size="10.00" fill="#000000">::function&lt; R(Args...)</text>
<text text-anchor="middle" x="665.5" y="-399.5" font-family="Helvetica,sans-Serif" font-size="10.00" fill="#000000">&gt; &gt;::unwrap</text>
</a>
</g>
</g>
<!-- Node134035&#45;&gt;Node134036 -->
<g id="edge8" class="edge">
<title>Node134035&#45;&gt;Node134036</title>
<path fill="none" stroke="#191970" d="M531.4025,-374.2344C554.3408,-380.8655 584.6805,-389.6363 610.6986,-397.1577"/>
<polygon fill="#191970" stroke="#191970" points="532.3221,-370.8569 521.7434,-371.442 530.378,-377.5816 532.3221,-370.8569"/>
</g>
<!-- Node134037 -->
<g id="node10" class="node">
<title>Node134037</title>
<g id="a_node10"><a xlink:href="quickjs-libc_8c.html#abb1cbe3fdf905e81f603a3a0bfce475a" target="_top" xlink:title="call_handler">
<polygon fill="none" stroke="#ff0000" points="631.5,-354.5 631.5,-373.5 699.5,-373.5 699.5,-354.5 631.5,-354.5"/>
<text text-anchor="middle" x="665.5" y="-361.5" font-family="Helvetica,sans-Serif" font-size="10.00" fill="#000000">call_handler</text>
</a>
</g>
</g>
<!-- Node134035&#45;&gt;Node134037 -->
<g id="edge9" class="edge">
<title>Node134035&#45;&gt;Node134037</title>
<path fill="none" stroke="#191970" d="M531.9702,-364C561.3013,-364 602.4516,-364 631.2948,-364"/>
<polygon fill="#191970" stroke="#191970" points="531.7434,-360.5001 521.7434,-364 531.7434,-367.5001 531.7434,-360.5001"/>
</g>
<!-- Node134042 -->
<g id="node11" class="node">
<title>Node134042</title>
<g id="a_node11"><a xlink:href="quickjs_8c.html#aa049793cc8648d35fe81876a2543ca4e" target="_top" xlink:title="JS_GetIterator2">
<polygon fill="none" stroke="#ff0000" points="622.5,-316.5 622.5,-335.5 708.5,-335.5 708.5,-316.5 622.5,-316.5"/>
<text text-anchor="middle" x="665.5" y="-323.5" font-family="Helvetica,sans-Serif" font-size="10.00" fill="#000000">JS_GetIterator2</text>
</a>
</g>
</g>
<!-- Node134035&#45;&gt;Node134042 -->
<g id="edge10" class="edge">
<title>Node134035&#45;&gt;Node134042</title>
<path fill="none" stroke="#191970" d="M531.7896,-355.9764C558.427,-350.0046 594.8858,-341.8309 623.0048,-335.5269"/>
<polygon fill="#191970" stroke="#191970" points="530.7355,-352.6257 521.7434,-358.2286 532.2669,-359.4562 530.7355,-352.6257"/>
</g>
<!-- Node134064 -->
<g id="node12" class="node">
<title>Node134064</title>
<g id="a_node12"><a xlink:href="quickjs_8c.html#ad6303fbd3add4afa0cb64b0aa6d431ce" target="_top" xlink:title="JS_IteratorNext2">
<polygon fill="none" stroke="#ff0000" points="620,-278.5 620,-297.5 711,-297.5 711,-278.5 620,-278.5"/>
<text text-anchor="middle" x="665.5" y="-285.5" font-family="Helvetica,sans-Serif" font-size="10.00" fill="#000000">JS_IteratorNext2</text>
</a>
</g>
</g>
<!-- Node134035&#45;&gt;Node134064 -->
<g id="edge11" class="edge">
<title>Node134035&#45;&gt;Node134064</title>
<path fill="none" stroke="#191970" d="M531.3829,-354.2654C541.9526,-350.5931 553.2998,-345.8537 563,-340 581.5836,-328.7856 580.0583,-317.5983 599,-307 605.811,-303.1891 613.4504,-300.0885 621.0585,-297.5833"/>
<polygon fill="#191970" stroke="#191970" points="529.9919,-351.0374 521.5664,-357.4609 532.1586,-357.6936 529.9919,-351.0374"/>
</g>
<!-- Node134068 -->
<g id="node13" class="node">
<title>Node134068</title>
<g id="a_node13"><a xlink:href="quickjs_8c.html#a62424fefab7bcc97f49c978205c7a1c1" target="_top" xlink:title="js_for_await_of_next">
<polygon fill="none" stroke="#000000" points="612,-716.5 612,-735.5 719,-735.5 719,-716.5 612,-716.5"/>
<text text-anchor="middle" x="665.5" y="-723.5" font-family="Helvetica,sans-Serif" font-size="10.00" fill="#000000">js_for_await_of_next</text>
</a>
</g>
</g>
<!-- Node134035&#45;&gt;Node134068 -->
<g id="edge12" class="edge">
<title>Node134035&#45;&gt;Node134068</title>
<path fill="none" stroke="#191970" d="M503.6972,-382.9793C517.0362,-416.35 544.7652,-487.8922 563,-550 583.1671,-618.6893 549.7356,-655.0582 599,-707 602.6356,-710.8332 606.986,-713.9101 611.698,-716.3773"/>
<polygon fill="#191970" stroke="#191970" points="506.8818,-381.5173 499.9023,-373.5462 500.3876,-384.13 506.8818,-381.5173"/>
</g>
<!-- Node134069 -->
<g id="node14" class="node">
<title>Node134069</title>
<g id="a_node14"><a xlink:href="quickjs_8c.html#afd4ef2d701fa0702f321925b61c57bbf" target="_top" xlink:title="js_call_bound_function">
<polygon fill="none" stroke="#ff0000" points="607.5,-240.5 607.5,-259.5 723.5,-259.5 723.5,-240.5 607.5,-240.5"/>
<text text-anchor="middle" x="665.5" y="-247.5" font-family="Helvetica,sans-Serif" font-size="10.00" fill="#000000">js_call_bound_function</text>
</a>
</g>
</g>
<!-- Node134035&#45;&gt;Node134069 -->
<g id="edge14" class="edge">
<title>Node134035&#45;&gt;Node134069</title>
<path fill="none" stroke="#191970" d="M531.4786,-356.7545C542.5302,-353.1492 554.1315,-347.8215 563,-340 589.5347,-316.5978 571.7113,-291.5185 599,-269 603.7232,-265.1025 609.2037,-262.0038 614.9524,-259.5404"/>
<polygon fill="#191970" stroke="#191970" points="530.2202,-353.4745 521.578,-359.6034 532.156,-360.2016 530.2202,-353.4745"/>
</g>
<!-- Node134070 -->
<g id="node15" class="node">
<title>Node134070</title>
<g id="a_node15"><a xlink:href="quickjs_8c.html#a3e852026d167fa03c673f86697dd3e67" target="_top" xlink:title="js_async_generator\l_resolve_or_reject">
<polygon fill="none" stroke="#ff0000" points="615,-191 615,-221 716,-221 716,-191 615,-191"/>
<text text-anchor="start" x="623" y="-209" font-family="Helvetica,sans-Serif" font-size="10.00" fill="#000000">js_async_generator</text>
<text text-anchor="middle" x="665.5" y="-198" font-family="Helvetica,sans-Serif" font-size="10.00" fill="#000000">_resolve_or_reject</text>
</a>
</g>
</g>
<!-- Node134035&#45;&gt;Node134070 -->
<g id="edge17" class="edge">
<title>Node134035&#45;&gt;Node134070</title>
<path fill="none" stroke="#191970" d="M531.3216,-357.7889C542.6909,-354.2427 554.526,-348.6883 563,-340 598.6221,-303.477 563.6643,-267.8002 599,-231 603.5276,-226.2847 609.0308,-222.4504 614.9116,-219.3342"/>
<polygon fill="#191970" stroke="#191970" points="530.295,-354.4405 521.5464,-360.4166 532.1122,-361.2005 530.295,-354.4405"/>
</g>
<!-- Node134073 -->
<g id="node16" class="node">
<title>Node134073</title>
<g id="a_node16"><a xlink:href="quickjs_8c.html#a2355fabf91f59212ea65baba1b0b7c1b" target="_top" xlink:title="js_async_generator_next">
<polygon fill="none" stroke="#000000" points="603,-152.5 603,-171.5 728,-171.5 728,-152.5 603,-152.5"/>
<text text-anchor="middle" x="665.5" y="-159.5" font-family="Helvetica,sans-Serif" font-size="10.00" fill="#000000">js_async_generator_next</text>
</a>
</g>
</g>
<!-- Node134035&#45;&gt;Node134073 -->
<g id="edge18" class="edge">
<title>Node134035&#45;&gt;Node134073</title>
<path fill="none" stroke="#191970" d="M531.54,-358.3248C543.0336,-354.8219 554.8908,-349.1578 563,-340 611.0338,-285.7549 549.2113,-233.6389 599,-181 602.6304,-177.1618 606.9773,-174.0817 611.6872,-171.6125"/>
<polygon fill="#191970" stroke="#191970" points="530.4448,-354.9927 521.6365,-360.8803 532.1939,-361.7707 530.4448,-354.9927"/>
</g>
<!-- Node134074 -->
<g id="node17" class="node">
<title>Node134074</title>
<g id="a_node17"><a xlink:href="quickjs_8c.html#a6357b7fdae71c70c140e78e6c20cb5c2" target="_top" xlink:title="js_dynamic_import_job">
<polygon fill="none" stroke="#ff0000" points="607.5,-114.5 607.5,-133.5 723.5,-133.5 723.5,-114.5 607.5,-114.5"/>
<text text-anchor="middle" x="665.5" y="-121.5" font-family="Helvetica,sans-Serif" font-size="10.00" fill="#000000">js_dynamic_import_job</text>
</a>
</g>
</g>
<!-- Node134035&#45;&gt;Node134074 -->
<g id="edge19" class="edge">
<title>Node134035&#45;&gt;Node134074</title>
<path fill="none" stroke="#191970" d="M531.7585,-358.5143C543.2712,-355.0278 555.0845,-349.3257 563,-340 620.5963,-272.1425 539.2071,-208.9301 599,-143 602.4685,-139.1755 606.648,-136.0997 611.2018,-133.6291"/>
<polygon fill="#191970" stroke="#191970" points="530.6518,-355.1843 521.8243,-361.0431 532.3787,-361.968 530.6518,-355.1843"/>
</g>
<!-- Node134076 -->
<g id="node18" class="node">
<title>Node134076</title>
<g id="a_node18"><a xlink:href="quickjs_8c.html#a8d4b24969540aff427939eeda47f451d" target="_top" xlink:title="js_function_apply">
<polygon fill="none" stroke="#ff0000" points="619.5,-38.5 619.5,-57.5 711.5,-57.5 711.5,-38.5 619.5,-38.5"/>
<text text-anchor="middle" x="665.5" y="-45.5" font-family="Helvetica,sans-Serif" font-size="10.00" fill="#000000">js_function_apply</text>
</a>
</g>
</g>
<!-- Node134035&#45;&gt;Node134076 -->
<g id="edge20" class="edge">
<title>Node134035&#45;&gt;Node134076</title>
<path fill="none" stroke="#191970" d="M531.7521,-358.8135C543.374,-355.3548 555.2583,-349.5937 563,-340 639.8559,-244.7585 519.0588,-159.6671 599,-67 604.3333,-60.8177 611.5253,-56.5792 619.2122,-53.688"/>
<polygon fill="#191970" stroke="#191970" points="530.5825,-355.4974 521.7172,-361.2988 532.2653,-362.2921 530.5825,-355.4974"/>
</g>
<!-- Node134079 -->
<g id="node19" class="node">
<title>Node134079</title>
<g id="a_node19"><a xlink:href="quickjs_8c.html#a677ad630a103e1f3d5129e0549112b50" target="_top" xlink:title="js_function_call">
<polygon fill="none" stroke="#000000" points="623.5,-76.5 623.5,-95.5 707.5,-95.5 707.5,-76.5 623.5,-76.5"/>
<text text-anchor="middle" x="665.5" y="-83.5" font-family="Helvetica,sans-Serif" font-size="10.00" fill="#000000">js_function_call</text>
</a>
</g>
</g>
<!-- Node134035&#45;&gt;Node134079 -->
<g id="edge22" class="edge">
<title>Node134035&#45;&gt;Node134079</title>
<path fill="none" stroke="#191970" d="M531.6406,-358.7226C543.2522,-355.2554 555.1585,-349.5123 563,-340 630.2109,-258.4688 529.1487,-184.2808 599,-105 605.3501,-97.7927 614.2255,-93.2345 623.4278,-90.3735"/>
<polygon fill="#191970" stroke="#191970" points="530.4778,-355.4053 521.6219,-361.2211 532.1717,-362.1973 530.4778,-355.4053"/>
</g>
<!-- Node134045 -->
<g id="node20" class="node">
<title>Node134045</title>
<g id="a_node20"><a xlink:href="quickjs_8c.html#a5e32da9a43002cb96dcbd62a1a340144" target="_top" xlink:title="js_array_from">
<polygon fill="none" stroke="#000000" points="627.5,-678.5 627.5,-697.5 703.5,-697.5 703.5,-678.5 627.5,-678.5"/>
<text text-anchor="middle" x="665.5" y="-685.5" font-family="Helvetica,sans-Serif" font-size="10.00" fill="#000000">js_array_from</text>
</a>
</g>
</g>
<!-- Node134035&#45;&gt;Node134045 -->
<g id="edge23" class="edge">
<title>Node134035&#45;&gt;Node134045</title>
<path fill="none" stroke="#191970" d="M503.2579,-383.1164C515.9239,-416.6973 542.6533,-488.5517 563,-550 580.369,-602.4553 559.627,-630.2314 599,-669 606.6146,-676.4977 616.9722,-681.0786 627.2452,-683.8646"/>
<polygon fill="#191970" stroke="#191970" points="506.4775,-381.7349 499.6657,-373.6201 499.9302,-384.2117 506.4775,-381.7349"/>
</g>
<!-- Node134060 -->
<g id="node21" class="node">
<title>Node134060</title>
<g id="a_node21"><a xlink:href="quickjs_8c.html#aa0bbf08a7e91459c68a312fba7016c6d" target="_top" xlink:title="js_array_every">
<polygon fill="none" stroke="#000000" points="625.5,-640.5 625.5,-659.5 705.5,-659.5 705.5,-640.5 625.5,-640.5"/>
<text text-anchor="middle" x="665.5" y="-647.5" font-family="Helvetica,sans-Serif" font-size="10.00" fill="#000000">js_array_every</text>
</a>
</g>
</g>
<!-- Node134035&#45;&gt;Node134060 -->
<g id="edge24" class="edge">
<title>Node134035&#45;&gt;Node134060</title>
<path fill="none" stroke="#191970" d="M502.9888,-383.5177C524.5626,-443.571 589.2465,-622.086 599,-631 606.2678,-637.6423 615.7026,-641.9787 625.1704,-644.8051"/>
<polygon fill="#191970" stroke="#191970" points="506.1562,-381.9815 499.4851,-373.7506 499.5673,-384.3451 506.1562,-381.9815"/>
</g>
<!-- Node134080 -->
<g id="node22" class="node">
<title>Node134080</title>
<g id="a_node22"><a xlink:href="quickjs_8c.html#a36c1692489542a86dd79a7d39ab8ff95" target="_top" xlink:title="js_array_reduce">
<polygon fill="none" stroke="#000000" points="622.5,-602.5 622.5,-621.5 708.5,-621.5 708.5,-602.5 622.5,-602.5"/>
<text text-anchor="middle" x="665.5" y="-609.5" font-family="Helvetica,sans-Serif" font-size="10.00" fill="#000000">js_array_reduce</text>
</a>
</g>
</g>
<!-- Node134035&#45;&gt;Node134080 -->
<g id="edge25" class="edge">
<title>Node134035&#45;&gt;Node134080</title>
<path fill="none" stroke="#191970" d="M502.2797,-383.1734C518.8806,-432.788 564.9838,-563.5716 599,-593 605.6288,-598.7348 613.8845,-602.7439 622.3003,-605.5452"/>
<polygon fill="#191970" stroke="#191970" points="505.5868,-382.0262 499.1184,-373.6351 498.9423,-384.2285 505.5868,-382.0262"/>
</g>
<!-- Node134081 -->
<g id="node23" class="node">
<title>Node134081</title>
<g id="a_node23"><a xlink:href="quickjs_8c.html#a9dd41b086da4e13b3487cc9c6e2af2b8" target="_top" xlink:title="js_array_find">
<polygon fill="none" stroke="#000000" points="629.5,-564.5 629.5,-583.5 701.5,-583.5 701.5,-564.5 629.5,-564.5"/>
<text text-anchor="middle" x="665.5" y="-571.5" font-family="Helvetica,sans-Serif" font-size="10.00" fill="#000000">js_array_find</text>
</a>
</g>
</g>
<!-- Node134035&#45;&gt;Node134081 -->
<g id="edge26" class="edge">
<title>Node134035&#45;&gt;Node134081</title>
<path fill="none" stroke="#191970" d="M501.044,-383.659C512.0239,-422.4406 541.8165,-509.016 599,-555 607.6085,-561.9225 618.6181,-566.3233 629.1913,-569.1208"/>
<polygon fill="#191970" stroke="#191970" points="504.3274,-382.3933 498.3342,-373.6565 497.5709,-384.2238 504.3274,-382.3933"/>
</g>
<!-- Node134082 -->
<g id="node24" class="node">
<title>Node134082</title>
<g id="a_node24"><a xlink:href="quickjs_8c.html#ad90c33b4aae1181151bda4a98ac2ef23" target="_top" xlink:title="JS_FlattenIntoArray">
<polygon fill="none" stroke="#ff0000" points="613.5,-508.5 613.5,-527.5 717.5,-527.5 717.5,-508.5 613.5,-508.5"/>
<text text-anchor="middle" x="665.5" y="-515.5" font-family="Helvetica,sans-Serif" font-size="10.00" fill="#000000">JS_FlattenIntoArray</text>
</a>
</g>
</g>
<!-- Node134035&#45;&gt;Node134082 -->
<g id="edge27" class="edge">
<title>Node134035&#45;&gt;Node134082</title>
<path fill="none" stroke="#191970" d="M505.1575,-382.6448C520.4848,-411.8962 554.1238,-468.3857 599,-499 604.6538,-502.857 611.0866,-505.9383 617.6714,-508.3982"/>
<polygon fill="#191970" stroke="#191970" points="508.1683,-380.844 500.5114,-373.5213 501.9305,-384.0206 508.1683,-380.844"/>
</g>
<!-- Node134084 -->
<g id="node25" class="node">
<title>Node134084</title>
<g id="a_node25"><a xlink:href="quickjs_8c.html#aed1bf9ce4b9e3a82388679dd6ec7635b" target="_top" xlink:title="js_string_replace">
<polygon fill="none" stroke="#000000" points="620.5,-.5 620.5,-19.5 710.5,-19.5 710.5,-.5 620.5,-.5"/>
<text text-anchor="middle" x="665.5" y="-7.5" font-family="Helvetica,sans-Serif" font-size="10.00" fill="#000000">js_string_replace</text>
</a>
</g>
</g>
<!-- Node134035&#45;&gt;Node134084 -->
<g id="edge29" class="edge">
<title>Node134035&#45;&gt;Node134084</title>
<path fill="none" stroke="#191970" d="M521.8262,-348.8521C536.3948,-338.878 553.5273,-324.4505 563,-307 622.4375,-197.505 517.7296,-123.4303 599,-29 604.561,-22.5385 612.1526,-18.1996 620.2206,-15.303"/>
<polygon fill="#191970" stroke="#191970" points="519.6546,-346.0892 513.178,-354.474 523.4698,-351.9582 519.6546,-346.0892"/>
</g>
<!-- Node134085 -->
<g id="node26" class="node">
<title>Node134085</title>
<g id="a_node26"><a xlink:href="quickjs_8c.html#a624282391413d4c5a030adbd8b77aa80" target="_top" xlink:title="internalize_json_property">
<polygon fill="none" stroke="#ff0000" points="603,-452.5 603,-471.5 728,-471.5 728,-452.5 603,-452.5"/>
<text text-anchor="middle" x="665.5" y="-459.5" font-family="Helvetica,sans-Serif" font-size="10.00" fill="#000000">internalize_json_property</text>
</a>
</g>
</g>
<!-- Node134035&#45;&gt;Node134085 -->
<g id="edge30" class="edge">
<title>Node134035&#45;&gt;Node134085</title>
<path fill="none" stroke="#191970" d="M513.3778,-380.6749C532.7993,-398.4663 565.886,-426.3333 599,-443 606.5077,-446.7787 614.8817,-449.9115 623.0869,-452.4691"/>
<polygon fill="#191970" stroke="#191970" points="515.6308,-377.9902 505.9307,-373.7289 510.8562,-383.1092 515.6308,-377.9902"/>
</g>
<!-- Node134068&#45;&gt;Node134022 -->
<g id="edge13" class="edge">
<title>Node134068&#45;&gt;Node134022</title>
<path fill="none" stroke="#191970" d="M607.0484,-712.0688C604.2294,-710.5503 601.5256,-708.8667 599,-707 455.3277,-600.8096 372.1425,-384.2757 354.8787,-335.7815"/>
<polygon fill="#191970" stroke="#191970" points="605.8222,-715.3578 616.3678,-716.3781 608.7601,-709.0041 605.8222,-715.3578"/>
</g>
<!-- Node134076&#45;&gt;Node134022 -->
<g id="edge21" class="edge">
<title>Node134076&#45;&gt;Node134022</title>
<path fill="none" stroke="#191970" d="M609.9181,-58.1705C605.8414,-60.548 602.115,-63.4534 599,-67 527.8226,-148.0404 641.4959,-233.0259 563,-307 517.3891,-349.9835 439.0881,-344.2581 391.627,-335.5606"/>
<polygon fill="#191970" stroke="#191970" points="611.7365,-61.1834 619.3008,-53.7651 608.7614,-54.8471 611.7365,-61.1834"/>
</g>
<!-- Node134082&#45;&gt;Node134082 -->
<g id="edge28" class="edge">
<title>Node134082&#45;&gt;Node134082</title>
<path fill="none" stroke="#191970" d="M634.0629,-536.2746C634.9592,-541.741 645.4382,-546 665.5,-546 695.3594,-546 703.9906,-536.5653 691.3937,-527.7571"/>
<polygon fill="#191970" stroke="#191970" points="637.085,-538.0475 639.6063,-527.7571 631.2181,-534.2291 637.085,-538.0475"/>
</g>
<!-- Node134085&#45;&gt;Node134085 -->
<g id="edge31" class="edge">
<title>Node134085&#45;&gt;Node134085</title>
<path fill="none" stroke="#191970" d="M634.0629,-480.2746C634.9592,-485.741 645.4382,-490 665.5,-490 695.3594,-490 703.9906,-480.5653 691.3937,-471.7571"/>
<polygon fill="#191970" stroke="#191970" points="637.085,-482.0475 639.6063,-471.7571 631.2181,-478.2291 637.085,-482.0475"/>
</g>
<!-- Node134109&#45;&gt;Node134022 -->
<g id="edge33" class="edge">
<title>Node134109&#45;&gt;Node134022</title>
<path fill="none" stroke="#191970" d="M471.6333,-262.6763C458.5753,-266.7533 442.4528,-271.4145 429,-278 407.3984,-288.5746 385.5771,-305.288 370.6182,-316.2863"/>
<polygon fill="#191970" stroke="#191970" points="472.9199,-265.9381 481.3391,-259.5063 470.7466,-259.284 472.9199,-265.9381"/>
</g>
<!-- Node134123&#45;&gt;Node134022 -->
<g id="edge35" class="edge">
<title>Node134123&#45;&gt;Node134022</title>
<path fill="none" stroke="#191970" d="M467.7961,-300.8979C446.5982,-307.8825 417.2201,-315.8432 393.2954,-321.1948"/>
<polygon fill="#191970" stroke="#191970" points="469.1689,-304.127 477.4855,-297.5632 466.8909,-297.508 469.1689,-304.127"/>
</g>
<!-- Node134123&#45;&gt;Node134084 -->
<g id="edge36" class="edge">
<title>Node134123&#45;&gt;Node134084</title>
<path fill="none" stroke="#191970" d="M541.459,-282.689C549.6159,-279.7945 557.3163,-275.4584 563,-269 634.2573,-188.0298 527.8226,-110.0404 599,-29 604.6257,-22.5947 612.2461,-18.2809 620.322,-15.3911"/>
<polygon fill="#191970" stroke="#191970" points="540.4166,-279.3468 531.7673,-285.4656 542.3446,-286.076 540.4166,-279.3468"/>
</g>
<!-- Node134178&#45;&gt;Node134022 -->
<g id="edge39" class="edge">
<title>Node134178&#45;&gt;Node134022</title>
<path fill="none" stroke="#191970" d="M284.3977,-326C293.1461,-326 301.8199,-326 309.8822,-326"/>
<polygon fill="#191970" stroke="#191970" points="284.1259,-322.5001 274.1258,-326 284.1258,-329.5001 284.1259,-322.5001"/>
</g>
<!-- Node134251&#45;&gt;Node134022 -->
<g id="edge41" class="edge">
<title>Node134251&#45;&gt;Node134022</title>
<path fill="none" stroke="#191970" d="M255.601,-300.2462C275.105,-305.484 297.5404,-311.5091 315.805,-316.4141"/>
<polygon fill="#191970" stroke="#191970" points="256.272,-296.8025 245.7064,-297.589 254.4564,-303.5629 256.272,-296.8025"/>
</g>
</g>
</svg>
