<?xml version="1.0" encoding="UTF-8" standalone="no"?>
<!DOCTYPE svg PUBLIC "-//W3C//DTD SVG 1.1//EN"
 "http://www.w3.org/Graphics/SVG/1.1/DTD/svg11.dtd">
<!-- Generated by graphviz version 2.40.1 (20161225.0304)
 -->
<!-- Title: js_get_fast_array Pages: 1 -->
<svg width="537pt" height="294pt"
 viewBox="0.00 0.00 537.00 294.00" xmlns="http://www.w3.org/2000/svg" xmlns:xlink="http://www.w3.org/1999/xlink">
<g id="graph0" class="graph" transform="scale(1 1) rotate(0) translate(4 290)">
<title>js_get_fast_array</title>
<!-- Node43421 -->
<g id="node1" class="node">
<title>Node43421</title>
<polygon fill="#bfbfbf" stroke="#000000" points="0,-114.5 0,-133.5 92,-133.5 92,-114.5 0,-114.5"/>
<text text-anchor="middle" x="46" y="-121.5" font-family="Helvetica,sans-Serif" font-size="10.00" fill="#000000">js_get_fast_array</text>
</g>
<!-- Node43422 -->
<g id="node2" class="node">
<title>Node43422</title>
<g id="a_node2"><a xlink:href="quickjs_8c.html#abeb62c764d89030ee284963156b33241" target="_top" xlink:title="js_aggregate_error\l_errors">
<polygon fill="none" stroke="#000000" points="135.5,-229 135.5,-259 232.5,-259 232.5,-229 135.5,-229"/>
<text text-anchor="start" x="143.5" y="-247" font-family="Helvetica,sans-Serif" font-size="10.00" fill="#000000">js_aggregate_error</text>
<text text-anchor="middle" x="184" y="-236" font-family="Helvetica,sans-Serif" font-size="10.00" fill="#000000">_errors</text>
</a>
</g>
</g>
<!-- Node43421&#45;&gt;Node43422 -->
<g id="edge1" class="edge">
<title>Node43421&#45;&gt;Node43422</title>
<path fill="none" stroke="#191970" d="M57.9333,-142.1304C72.4178,-162.9779 98.5848,-197.1312 128,-219 132.9558,-222.6844 138.5405,-225.9825 144.2147,-228.8803"/>
<polygon fill="#191970" stroke="#191970" points="60.6422,-139.8892 52.1306,-133.5801 54.8501,-143.82 60.6422,-139.8892"/>
</g>
<!-- Node43423 -->
<g id="node3" class="node">
<title>Node43423</title>
<g id="a_node3"><a xlink:href="quickjs_8c.html#a43208b0746998d2b6b9b8bd1ef8b5f99" target="_top" xlink:title="js_append_enumerate">
<polygon fill="none" stroke="#000000" points="128,-190.5 128,-209.5 240,-209.5 240,-190.5 128,-190.5"/>
<text text-anchor="middle" x="184" y="-197.5" font-family="Helvetica,sans-Serif" font-size="10.00" fill="#000000">js_append_enumerate</text>
</a>
</g>
</g>
<!-- Node43421&#45;&gt;Node43423 -->
<g id="edge2" class="edge">
<title>Node43421&#45;&gt;Node43423</title>
<path fill="none" stroke="#191970" d="M65.6242,-140.0048C81.6461,-152.4729 105.2748,-169.5343 128,-181 135.1495,-184.6072 143.141,-187.7801 150.7977,-190.4485"/>
<polygon fill="#191970" stroke="#191970" points="67.5714,-137.0822 57.5597,-133.6154 63.2243,-142.5688 67.5714,-137.0822"/>
</g>
<!-- Node43714 -->
<g id="node9" class="node">
<title>Node43714</title>
<g id="a_node9"><a xlink:href="quickjs_8c.html#a2ef89587b2e4287d4bd0417788c8e21e" target="_top" xlink:title="js_array_includes">
<polygon fill="none" stroke="#ff0000" points="138,-152.5 138,-171.5 230,-171.5 230,-152.5 138,-152.5"/>
<text text-anchor="middle" x="184" y="-159.5" font-family="Helvetica,sans-Serif" font-size="10.00" fill="#000000">js_array_includes</text>
</a>
</g>
</g>
<!-- Node43421&#45;&gt;Node43714 -->
<g id="edge12" class="edge">
<title>Node43421&#45;&gt;Node43714</title>
<path fill="none" stroke="#191970" d="M90.473,-136.2462C109.4946,-141.484 131.3751,-147.5091 149.1879,-152.4141"/>
<polygon fill="#191970" stroke="#191970" points="91.3936,-132.8695 80.8232,-133.589 89.5352,-139.6183 91.3936,-132.8695"/>
</g>
<!-- Node43685 -->
<g id="node10" class="node">
<title>Node43685</title>
<g id="a_node10"><a xlink:href="quickjs_8c.html#af4bd013e63a5d5d55e4d4700d80de12e" target="_top" xlink:title="js_array_indexOf">
<polygon fill="none" stroke="#000000" points="139,-114.5 139,-133.5 229,-133.5 229,-114.5 139,-114.5"/>
<text text-anchor="middle" x="184" y="-121.5" font-family="Helvetica,sans-Serif" font-size="10.00" fill="#000000">js_array_indexOf</text>
</a>
</g>
</g>
<!-- Node43421&#45;&gt;Node43685 -->
<g id="edge13" class="edge">
<title>Node43421&#45;&gt;Node43685</title>
<path fill="none" stroke="#191970" d="M102.3989,-124C114.5718,-124 127.2863,-124 138.9569,-124"/>
<polygon fill="#191970" stroke="#191970" points="102.3359,-120.5001 92.3359,-124 102.3359,-127.5001 102.3359,-120.5001"/>
</g>
<!-- Node43533 -->
<g id="node11" class="node">
<title>Node43533</title>
<g id="a_node11"><a xlink:href="quickjs_8c.html#a01281ea66186a034a0e9021ee8c9f945" target="_top" xlink:title="js_array_pop">
<polygon fill="none" stroke="#ff0000" points="148,-76.5 148,-95.5 220,-95.5 220,-76.5 148,-76.5"/>
<text text-anchor="middle" x="184" y="-83.5" font-family="Helvetica,sans-Serif" font-size="10.00" fill="#000000">js_array_pop</text>
</a>
</g>
</g>
<!-- Node43421&#45;&gt;Node43533 -->
<g id="edge14" class="edge">
<title>Node43421&#45;&gt;Node43533</title>
<path fill="none" stroke="#191970" d="M90.473,-111.7538C109.4946,-106.516 131.3751,-100.4909 149.1879,-95.5859"/>
<polygon fill="#191970" stroke="#191970" points="89.5352,-108.3817 80.8232,-114.411 91.3936,-115.1305 89.5352,-108.3817"/>
</g>
<!-- Node43537 -->
<g id="node12" class="node">
<title>Node43537</title>
<g id="a_node12"><a xlink:href="quickjs_8c.html#a8235fb13f196d6ef5002daed858b7eeb" target="_top" xlink:title="js_array_reverse">
<polygon fill="none" stroke="#000000" points="139.5,-38.5 139.5,-57.5 228.5,-57.5 228.5,-38.5 139.5,-38.5"/>
<text text-anchor="middle" x="184" y="-45.5" font-family="Helvetica,sans-Serif" font-size="10.00" fill="#000000">js_array_reverse</text>
</a>
</g>
</g>
<!-- Node43421&#45;&gt;Node43537 -->
<g id="edge15" class="edge">
<title>Node43421&#45;&gt;Node43537</title>
<path fill="none" stroke="#191970" d="M65.6242,-107.9952C81.6461,-95.5271 105.2748,-78.4657 128,-67 135.1495,-63.3928 143.141,-60.2199 150.7977,-57.5515"/>
<polygon fill="#191970" stroke="#191970" points="63.2243,-105.4312 57.5597,-114.3846 67.5714,-110.9178 63.2243,-105.4312"/>
</g>
<!-- Node43515 -->
<g id="node13" class="node">
<title>Node43515</title>
<g id="a_node13"><a xlink:href="quickjs_8c.html#a70b7ec8358ab99b905686d5bf80950cc" target="_top" xlink:title="js_array_slice">
<polygon fill="none" stroke="#000000" points="145.5,-.5 145.5,-19.5 222.5,-19.5 222.5,-.5 145.5,-.5"/>
<text text-anchor="middle" x="184" y="-7.5" font-family="Helvetica,sans-Serif" font-size="10.00" fill="#000000">js_array_slice</text>
</a>
</g>
</g>
<!-- Node43421&#45;&gt;Node43515 -->
<g id="edge16" class="edge">
<title>Node43421&#45;&gt;Node43515</title>
<path fill="none" stroke="#191970" d="M57.1789,-105.9955C71.2439,-84.7417 97.3079,-49.6794 128,-29 133.6194,-25.2138 140.0635,-22.117 146.5335,-19.6057"/>
<polygon fill="#191970" stroke="#191970" points="54.2176,-104.1297 51.7471,-114.4325 60.1032,-107.919 54.2176,-104.1297"/>
</g>
<!-- Node43424 -->
<g id="node4" class="node">
<title>Node43424</title>
<g id="a_node4"><a xlink:href="quickjs_8c.html#ac2894ff4edcdb4e6841bcce9c76081e3" target="_top" xlink:title="JS_CallInternal">
<polygon fill="none" stroke="#000000" points="276,-190.5 276,-209.5 359,-209.5 359,-190.5 276,-190.5"/>
<text text-anchor="middle" x="317.5" y="-197.5" font-family="Helvetica,sans-Serif" font-size="10.00" fill="#000000">JS_CallInternal</text>
</a>
</g>
</g>
<!-- Node43423&#45;&gt;Node43424 -->
<g id="edge3" class="edge">
<title>Node43423&#45;&gt;Node43424</title>
<path fill="none" stroke="#191970" d="M250.4045,-200C259.1057,-200 267.8148,-200 275.9402,-200"/>
<polygon fill="#191970" stroke="#191970" points="250.2291,-196.5001 240.2291,-200 250.2291,-203.5001 250.2291,-196.5001"/>
</g>
<!-- Node43424&#45;&gt;Node43424 -->
<g id="edge11" class="edge">
<title>Node43424&#45;&gt;Node43424</title>
<path fill="none" stroke="#191970" d="M292.9465,-219.0292C294.2858,-224.128 302.4703,-228 317.5,-228 340.9609,-228 347.7426,-218.5653 337.845,-209.7571"/>
<polygon fill="#191970" stroke="#191970" points="296.209,-220.3096 297.155,-209.7571 289.8348,-217.4164 296.209,-220.3096"/>
</g>
<!-- Node43425 -->
<g id="node5" class="node">
<title>Node43425</title>
<g id="a_node5"><a xlink:href="quickjs_8c.html#ade71a22dc56e7371392393df663b28b3" target="_top" xlink:title="async_func_resume">
<polygon fill="none" stroke="#ff0000" points="410,-266.5 410,-285.5 514,-285.5 514,-266.5 410,-266.5"/>
<text text-anchor="middle" x="462" y="-273.5" font-family="Helvetica,sans-Serif" font-size="10.00" fill="#000000">async_func_resume</text>
</a>
</g>
</g>
<!-- Node43424&#45;&gt;Node43425 -->
<g id="edge4" class="edge">
<title>Node43424&#45;&gt;Node43425</title>
<path fill="none" stroke="#191970" d="M336.1674,-216.7317C351.1367,-229.3741 373.1804,-246.3186 395,-257 402.7101,-260.7743 411.2971,-263.9165 419.6815,-266.487"/>
<polygon fill="#191970" stroke="#191970" points="338.08,-213.7585 328.2264,-209.8651 333.5014,-219.0535 338.08,-213.7585"/>
</g>
<!-- Node43437 -->
<g id="node6" class="node">
<title>Node43437</title>
<g id="a_node6"><a xlink:href="quickjs_8c.html#a1a4c02a29525d5cb2085dd8bca3af350" target="_top" xlink:title="JS_Call">
<polygon fill="none" stroke="#ff0000" points="436.5,-228.5 436.5,-247.5 487.5,-247.5 487.5,-228.5 436.5,-228.5"/>
<text text-anchor="middle" x="462" y="-235.5" font-family="Helvetica,sans-Serif" font-size="10.00" fill="#000000">JS_Call</text>
</a>
</g>
</g>
<!-- Node43424&#45;&gt;Node43437 -->
<g id="edge5" class="edge">
<title>Node43424&#45;&gt;Node43437</title>
<path fill="none" stroke="#191970" d="M369.3524,-207.1309C395.197,-213.291 424.8346,-221.6885 443.4855,-228.4368"/>
<polygon fill="#191970" stroke="#191970" points="369.8269,-203.6484 359.2954,-204.8052 368.2497,-210.4684 369.8269,-203.6484"/>
</g>
<!-- Node43510 -->
<g id="node7" class="node">
<title>Node43510</title>
<g id="a_node7"><a xlink:href="quickjs_8c.html#ad35594576a14c10812efaf958c99af8a" target="_top" xlink:title="JS_CallConstructorInternal">
<polygon fill="none" stroke="#ff0000" points="395,-190.5 395,-209.5 529,-209.5 529,-190.5 395,-190.5"/>
<text text-anchor="middle" x="462" y="-197.5" font-family="Helvetica,sans-Serif" font-size="10.00" fill="#000000">JS_CallConstructorInternal</text>
</a>
</g>
</g>
<!-- Node43424&#45;&gt;Node43510 -->
<g id="edge7" class="edge">
<title>Node43424&#45;&gt;Node43510</title>
<path fill="none" stroke="#191970" d="M369.5209,-193.4909C377.7845,-193.2892 386.4321,-193.2142 394.9815,-193.2658"/>
<polygon fill="#191970" stroke="#191970" points="369.1798,-189.9998 359.2954,-193.814 369.401,-196.9963 369.1798,-189.9998"/>
</g>
<!-- Node43524 -->
<g id="node8" class="node">
<title>Node43524</title>
<g id="a_node8"><a xlink:href="quickjs_8c.html#a75f6ee5e4235a7dc99889f3d2eb2c147" target="_top" xlink:title="JS_CallFree">
<polygon fill="none" stroke="#ff0000" points="426.5,-152.5 426.5,-171.5 497.5,-171.5 497.5,-152.5 426.5,-152.5"/>
<text text-anchor="middle" x="462" y="-159.5" font-family="Helvetica,sans-Serif" font-size="10.00" fill="#000000">JS_CallFree</text>
</a>
</g>
</g>
<!-- Node43424&#45;&gt;Node43524 -->
<g id="edge9" class="edge">
<title>Node43424&#45;&gt;Node43524</title>
<path fill="none" stroke="#191970" d="M345.6305,-187.1263C368.6733,-179.5295 401.4179,-170.7723 426.3055,-165.4723"/>
<polygon fill="#191970" stroke="#191970" points="344.4119,-183.8441 336.095,-190.4076 346.6897,-190.4632 344.4119,-183.8441"/>
</g>
<!-- Node43437&#45;&gt;Node43424 -->
<g id="edge6" class="edge">
<title>Node43437&#45;&gt;Node43424</title>
<path fill="none" stroke="#191970" d="M426.4088,-234.5497C397.8289,-228.469 358.8374,-217.8129 336.095,-209.5924"/>
<polygon fill="#191970" stroke="#191970" points="425.923,-238.0222 436.4179,-236.57 427.3081,-231.1605 425.923,-238.0222"/>
</g>
<!-- Node43510&#45;&gt;Node43424 -->
<g id="edge8" class="edge">
<title>Node43510&#45;&gt;Node43424</title>
<path fill="none" stroke="#191970" d="M384.7059,-206.7354C375.9651,-206.6845 367.3232,-206.5014 359.2954,-206.186"/>
<polygon fill="#191970" stroke="#191970" points="384.9819,-210.2354 394.9815,-206.7342 384.981,-203.2354 384.9819,-210.2354"/>
</g>
<!-- Node43524&#45;&gt;Node43424 -->
<g id="edge10" class="edge">
<title>Node43524&#45;&gt;Node43424</title>
<path fill="none" stroke="#191970" d="M433.7961,-174.8979C412.5982,-181.8825 383.2201,-189.8432 359.2954,-195.1948"/>
<polygon fill="#191970" stroke="#191970" points="435.1689,-178.127 443.4855,-171.5632 432.8909,-171.508 435.1689,-178.127"/>
</g>
</g>
</svg>
