<?xml version="1.0" encoding="UTF-8" standalone="no"?>
<!DOCTYPE svg PUBLIC "-//W3C//DTD SVG 1.1//EN"
 "http://www.w3.org/Graphics/SVG/1.1/DTD/svg11.dtd">
<!-- Generated by graphviz version 2.40.1 (20161225.0304)
 -->
<!-- Title: init_class_range Pages: 1 -->
<svg width="479pt" height="66pt"
 viewBox="0.00 0.00 479.00 66.00" xmlns="http://www.w3.org/2000/svg" xmlns:xlink="http://www.w3.org/1999/xlink">
<g id="graph0" class="graph" transform="scale(1 1) rotate(0) translate(4 62)">
<title>init_class_range</title>
<!-- Node59009 -->
<g id="node1" class="node">
<title>Node59009</title>
<polygon fill="#bfbfbf" stroke="#000000" points="0,-19.5 0,-38.5 87,-38.5 87,-19.5 0,-19.5"/>
<text text-anchor="middle" x="43.5" y="-26.5" font-family="Helvetica,sans-Serif" font-size="10.00" fill="#000000">init_class_range</text>
</g>
<!-- Node59010 -->
<g id="node2" class="node">
<title>Node59010</title>
<g id="a_node2"><a xlink:href="quickjs_8c.html#ab515cd66efd3e476d2c22d6a55f13194" target="_top" xlink:title="JS_NewClass1">
<polygon fill="none" stroke="#000000" points="123,-19.5 123,-38.5 208,-38.5 208,-19.5 123,-19.5"/>
<text text-anchor="middle" x="165.5" y="-26.5" font-family="Helvetica,sans-Serif" font-size="10.00" fill="#000000">JS_NewClass1</text>
</a>
</g>
</g>
<!-- Node59009&#45;&gt;Node59010 -->
<g id="edge1" class="edge">
<title>Node59009&#45;&gt;Node59010</title>
<path fill="none" stroke="#191970" d="M87.2002,-29C95.4636,-29 104.1888,-29 112.6973,-29"/>
<polygon fill="#191970" stroke="#191970" points="112.9227,-32.5001 122.9227,-29 112.9226,-25.5001 112.9227,-32.5001"/>
</g>
<!-- Node59011 -->
<g id="node3" class="node">
<title>Node59011</title>
<g id="a_node3"><a xlink:href="cutils_8h.html#a94f155fcce337a2b9d4719ed8042cbbe" target="_top" xlink:title="max_int">
<polygon fill="none" stroke="#000000" points="263,-38.5 263,-57.5 314,-57.5 314,-38.5 263,-38.5"/>
<text text-anchor="middle" x="288.5" y="-45.5" font-family="Helvetica,sans-Serif" font-size="10.00" fill="#000000">max_int</text>
</a>
</g>
</g>
<!-- Node59010&#45;&gt;Node59011 -->
<g id="edge2" class="edge">
<title>Node59010&#45;&gt;Node59011</title>
<path fill="none" stroke="#191970" d="M208.1742,-35.592C222.6606,-37.8297 238.6893,-40.3057 252.5936,-42.4535"/>
<polygon fill="#191970" stroke="#191970" points="252.3343,-45.9549 262.7515,-44.0226 253.403,-39.0369 252.3343,-45.9549"/>
</g>
<!-- Node59012 -->
<g id="node4" class="node">
<title>Node59012</title>
<g id="a_node4"><a xlink:href="quickjs_8c.html#aa1e14f2e125d8bad48dd20650505f4fa" target="_top" xlink:title="JS_DupAtomRT">
<polygon fill="none" stroke="#000000" points="244,-.5 244,-19.5 333,-19.5 333,-.5 244,-.5"/>
<text text-anchor="middle" x="288.5" y="-7.5" font-family="Helvetica,sans-Serif" font-size="10.00" fill="#000000">JS_DupAtomRT</text>
</a>
</g>
</g>
<!-- Node59010&#45;&gt;Node59012 -->
<g id="edge3" class="edge">
<title>Node59010&#45;&gt;Node59012</title>
<path fill="none" stroke="#191970" d="M208.1742,-22.408C216.4528,-21.1292 225.235,-19.7726 233.8366,-18.4439"/>
<polygon fill="#191970" stroke="#191970" points="234.4617,-21.889 243.8102,-16.9033 233.393,-14.971 234.4617,-21.889"/>
</g>
<!-- Node59013 -->
<g id="node5" class="node">
<title>Node59013</title>
<g id="a_node5"><a xlink:href="quickjs_8c.html#a7f6796ee7a195631366f57c713a33f65" target="_top" xlink:title="__JS_AtomIsConst">
<polygon fill="none" stroke="#000000" points="369,-.5 369,-19.5 471,-19.5 471,-.5 369,-.5"/>
<text text-anchor="middle" x="420" y="-7.5" font-family="Helvetica,sans-Serif" font-size="10.00" fill="#000000">__JS_AtomIsConst</text>
</a>
</g>
</g>
<!-- Node59012&#45;&gt;Node59013 -->
<g id="edge4" class="edge">
<title>Node59012&#45;&gt;Node59013</title>
<path fill="none" stroke="#191970" d="M333.0199,-10C341.2672,-10 350.0138,-10 358.6583,-10"/>
<polygon fill="#191970" stroke="#191970" points="358.7233,-13.5001 368.7233,-10 358.7232,-6.5001 358.7233,-13.5001"/>
</g>
</g>
</svg>
