<?xml version="1.0" encoding="UTF-8" standalone="no"?>
<!DOCTYPE svg PUBLIC "-//W3C//DTD SVG 1.1//EN"
 "http://www.w3.org/Graphics/SVG/1.1/DTD/svg11.dtd">
<!-- Generated by graphviz version 2.40.1 (20161225.0304)
 -->
<!-- Title: __JS_FreeValue Pages: 1 -->
<!--zoomable 1099 -->
<svg id="main" version="1.1" xmlns="http://www.w3.org/2000/svg" xmlns:xlink="http://www.w3.org/1999/xlink" xml:space="preserve" onload="init(evt)">
<style type="text/css"><![CDATA[
.edge:hover path { stroke: red; }
.edge:hover polygon { stroke: red; fill: red; }
]]></style>
<script type="text/javascript"><![CDATA[
var edges = document.getElementsByTagName('g');
if (edges && edges.length) {
  for (var i=0;i<edges.length;i++) {
    if (edges[i].id.substr(0,4)=='edge') {
      edges[i].setAttribute('class','edge');
    }
  }
}
]]></script>
        <defs>
                <circle id="rim" cx="0" cy="0" r="7"/>
                <circle id="rim2" cx="0" cy="0" r="3.5"/>
                <g id="zoomPlus">
                        <use xlink:href="#rim" fill="#404040">
                                <set attributeName="fill" to="#808080" begin="zoomplus.mouseover" end="zoomplus.mouseout"/>
                        </use>
                        <path d="M-4,0h8M0,-4v8" fill="none" stroke="white" stroke-width="1.5" pointer-events="none"/>
                </g>
                <g id="zoomMin">
                        <use xlink:href="#rim" fill="#404040">
                                <set attributeName="fill" to="#808080" begin="zoomminus.mouseover" end="zoomminus.mouseout"/>
                        </use>
                        <path d="M-4,0h8" fill="none" stroke="white" stroke-width="1.5" pointer-events="none"/>
                </g>
                <g id="dirArrow">
                        <path fill="none" stroke="white" stroke-width="1.5" d="M0,-3.0v7 M-2.5,-0.5L0,-3.0L2.5,-0.5"/>
                </g>
               <g id="resetDef">
                       <use xlink:href="#rim2" fill="#404040">
                               <set attributeName="fill" to="#808080" begin="reset.mouseover" end="reset.mouseout"/>
                       </use>
               </g>
        </defs>

<script type="text/javascript">
var viewWidth = 783;
var viewHeight = 1099;
var sectionId = 'dynsection-114';
</script>
<script xlink:href="svgpan.js"/>
<svg id="graph" class="graph">
<g id="viewport">
<title>__JS_FreeValue</title>
<!-- Node35635 -->
<g id="node1" class="node">
<title>Node35635</title>
<polygon fill="#bfbfbf" stroke="#000000" points="0,-536 0,-555 89,-555 89,-536 0,-536"/>
<text text-anchor="middle" x="44.5" y="-543" font-family="Helvetica,sans-Serif" font-size="10.00" fill="#000000">__JS_FreeValue</text>
</g>
<!-- Node35636 -->
<g id="node2" class="node">
<title>Node35636</title>
<g id="a_node2"><a xlink:href="quickjs_8h.html#afaa20c47565bc704c6c85f3d77254e7d" target="_top" xlink:title="JS_FreeValue">
<polygon fill="none" stroke="#ff0000" points="125,-536 125,-555 203,-555 203,-536 125,-536"/>
<text text-anchor="middle" x="164" y="-543" font-family="Helvetica,sans-Serif" font-size="10.00" fill="#000000">JS_FreeValue</text>
</a>
</g>
</g>
<!-- Node35635&#45;&gt;Node35636 -->
<g id="edge1" class="edge">
<title>Node35635&#45;&gt;Node35636</title>
<path fill="none" stroke="#191970" d="M99.6015,-545.5C108.1058,-545.5 116.7365,-545.5 124.7988,-545.5"/>
<polygon fill="#191970" stroke="#191970" points="99.3374,-542.0001 89.3374,-545.5 99.3373,-549.0001 99.3374,-542.0001"/>
</g>
<!-- Node35637 -->
<g id="node3" class="node">
<title>Node35637</title>
<g id="a_node3"><a xlink:href="namespaceqjs_1_1detail.html#a03413dce82c10c7e7680a1c64caae2c9" target="_top" xlink:title="Helper function to convert and then free JSValue. ">
<polygon fill="none" stroke="#000000" points="245.5,-1071 245.5,-1090 363.5,-1090 363.5,-1071 245.5,-1071"/>
<text text-anchor="middle" x="304.5" y="-1078" font-family="Helvetica,sans-Serif" font-size="10.00" fill="#000000">qjs::detail::unwrap_free</text>
</a>
</g>
</g>
<!-- Node35636&#45;&gt;Node35637 -->
<g id="edge2" class="edge">
<title>Node35636&#45;&gt;Node35637</title>
<path fill="none" stroke="#191970" d="M165.6215,-565.3921C173.1392,-655.5623 205.6508,-1023.1994 239,-1061.5 242.3434,-1065.3397 246.4115,-1068.4256 250.8667,-1070.9026"/>
<polygon fill="#191970" stroke="#191970" points="169.107,-565.0706 164.796,-555.3925 162.1307,-565.6466 169.107,-565.0706"/>
</g>
<!-- Node35638 -->
<g id="node4" class="node">
<title>Node35638</title>
<g id="a_node4"><a xlink:href="structqjs_1_1js__traits_3_01ctor__wrapper_3_01T_00_01Args_8_8_8_01_4_01_4.html#ac3e4ebb181720971396c1bf6008a997b" target="_top" xlink:title="qjs::js_traits\&lt; ctor\l_wrapper\&lt; T, Args...\l \&gt; \&gt;::wrap">
<polygon fill="none" stroke="#000000" points="251,-1011 251,-1052 358,-1052 358,-1011 251,-1011"/>
<text text-anchor="start" x="259" y="-1040" font-family="Helvetica,sans-Serif" font-size="10.00" fill="#000000">qjs::js_traits&lt; ctor</text>
<text text-anchor="start" x="259" y="-1029" font-family="Helvetica,sans-Serif" font-size="10.00" fill="#000000">_wrapper&lt; T, Args...</text>
<text text-anchor="middle" x="304.5" y="-1018" font-family="Helvetica,sans-Serif" font-size="10.00" fill="#000000"> &gt; &gt;::wrap</text>
</a>
</g>
</g>
<!-- Node35636&#45;&gt;Node35638 -->
<g id="edge3" class="edge">
<title>Node35636&#45;&gt;Node35638</title>
<path fill="none" stroke="#191970" d="M164.8449,-565.6439C168.5164,-644.4939 185.3912,-931.2957 239,-1001.5 242.2641,-1005.7745 246.2796,-1009.4594 250.702,-1012.6323"/>
<polygon fill="#191970" stroke="#191970" points="168.3215,-565.0368 164.3807,-555.2022 161.3284,-565.3478 168.3215,-565.0368"/>
</g>
<!-- Node35639 -->
<g id="node5" class="node">
<title>Node35639</title>
<g id="a_node5"><a xlink:href="classqjs_1_1Value.html#acffffa8a01df1832830c23631bdfcd6c" target="_top" xlink:title="qjs::Value::~Value">
<polygon fill="none" stroke="#000000" points="256,-973 256,-992 353,-992 353,-973 256,-973"/>
<text text-anchor="middle" x="304.5" y="-980" font-family="Helvetica,sans-Serif" font-size="10.00" fill="#000000">qjs::Value::~Value</text>
</a>
</g>
</g>
<!-- Node35636&#45;&gt;Node35639 -->
<g id="edge4" class="edge">
<title>Node35636&#45;&gt;Node35639</title>
<path fill="none" stroke="#191970" d="M165.0391,-565.2691C169.2946,-639.0922 187.6653,-897.5048 239,-958.5 244.3029,-964.8008 251.4101,-969.4477 258.9889,-972.8747"/>
<polygon fill="#191970" stroke="#191970" points="168.5217,-564.8556 164.4744,-555.0643 161.5324,-565.2424 168.5217,-564.8556"/>
</g>
<!-- Node35640 -->
<g id="node6" class="node">
<title>Node35640</title>
<g id="a_node6"><a xlink:href="quickjs-libc_8c.html#a5cc3e22713f1916d49867f60a7375505" target="_top" xlink:title="js_module_set_import_meta">
<polygon fill="none" stroke="#000000" points="406,-807 406,-826 545,-826 545,-807 406,-807"/>
<text text-anchor="middle" x="475.5" y="-814" font-family="Helvetica,sans-Serif" font-size="10.00" fill="#000000">js_module_set_import_meta</text>
</a>
</g>
</g>
<!-- Node35636&#45;&gt;Node35640 -->
<g id="edge5" class="edge">
<title>Node35636&#45;&gt;Node35640</title>
<path fill="none" stroke="#191970" d="M166.5317,-565.1683C174.2053,-621.3793 199.1498,-780.6641 239,-811.5 299.4125,-858.247 396.8848,-839.7042 445.673,-826.0685"/>
<polygon fill="#191970" stroke="#191970" points="169.9798,-564.5455 165.1924,-555.0939 163.0408,-565.468 169.9798,-564.5455"/>
</g>
<!-- Node35641 -->
<g id="node7" class="node">
<title>Node35641</title>
<g id="a_node7"><a xlink:href="quickjs-libc_8c.html#ad61d60681847f324c5ba4ad88c546f1e" target="_top" xlink:title="js_module_loader">
<polygon fill="none" stroke="#ff0000" points="584,-816 584,-835 676,-835 676,-816 584,-816"/>
<text text-anchor="middle" x="630" y="-823" font-family="Helvetica,sans-Serif" font-size="10.00" fill="#000000">js_module_loader</text>
</a>
</g>
</g>
<!-- Node35636&#45;&gt;Node35641 -->
<g id="edge8" class="edge">
<title>Node35636&#45;&gt;Node35641</title>
<path fill="none" stroke="#191970" d="M164.7498,-565.6495C167.8835,-637.4637 182.5318,-879.0875 239,-925.5 259.227,-942.125 525.8481,-926.4067 545,-917.5 583.8441,-899.4353 613.2399,-854.6929 624.7262,-835.029"/>
<polygon fill="#191970" stroke="#191970" points="168.2323,-565.1469 164.3283,-555.2976 161.2381,-565.4317 168.2323,-565.1469"/>
</g>
<!-- Node35643 -->
<g id="node8" class="node">
<title>Node35643</title>
<g id="a_node8"><a xlink:href="quickjs-libc_8c.html#ab1b439d304c2125490b47ef262b5df67" target="_top" xlink:title="js_std_eval_binary">
<polygon fill="none" stroke="#000000" points="581,-517 581,-536 679,-536 679,-517 581,-517"/>
<text text-anchor="middle" x="630" y="-524" font-family="Helvetica,sans-Serif" font-size="10.00" fill="#000000">js_std_eval_binary</text>
</a>
</g>
</g>
<!-- Node35636&#45;&gt;Node35643 -->
<g id="edge29" class="edge">
<title>Node35636&#45;&gt;Node35643</title>
<path fill="none" stroke="#191970" d="M213.5079,-543.4814C303.2096,-539.8241 491.5811,-532.1437 580.9476,-528.5"/>
<polygon fill="#191970" stroke="#191970" points="213.1784,-539.9919 203.3293,-543.8964 213.4636,-546.9861 213.1784,-539.9919"/>
</g>
<!-- Node35644 -->
<g id="node9" class="node">
<title>Node35644</title>
<g id="a_node9"><a xlink:href="quickjs-libc_8c.html#ad94572b16428965bd7780a285c188c77" target="_top" xlink:title="get_bool_option">
<polygon fill="none" stroke="#ff0000" points="262,-897 262,-916 347,-916 347,-897 262,-897"/>
<text text-anchor="middle" x="304.5" y="-904" font-family="Helvetica,sans-Serif" font-size="10.00" fill="#000000">get_bool_option</text>
</a>
</g>
</g>
<!-- Node35636&#45;&gt;Node35644 -->
<g id="edge9" class="edge">
<title>Node35636&#45;&gt;Node35644</title>
<path fill="none" stroke="#191970" d="M165.9242,-565.2811C172.5882,-630.0092 196.6245,-834.1147 239,-882.5 245.0642,-889.4242 253.3005,-894.3524 261.8849,-897.8594"/>
<polygon fill="#191970" stroke="#191970" points="169.3929,-564.7936 164.9115,-555.1932 162.4279,-565.4928 169.3929,-564.7936"/>
</g>
<!-- Node35646 -->
<g id="node10" class="node">
<title>Node35646</title>
<g id="a_node10"><a xlink:href="quickjs-libc_8c.html#a0b92fee4bb5dda499a0b6d86da0e8be8" target="_top" xlink:title="js_os_exec">
<polygon fill="none" stroke="#000000" points="597,-759 597,-778 663,-778 663,-759 597,-759"/>
<text text-anchor="middle" x="630" y="-766" font-family="Helvetica,sans-Serif" font-size="10.00" fill="#000000">js_os_exec</text>
</a>
</g>
</g>
<!-- Node35636&#45;&gt;Node35646 -->
<g id="edge22" class="edge">
<title>Node35636&#45;&gt;Node35646</title>
<path fill="none" stroke="#191970" d="M213.1921,-548.5526C256.0413,-552.5996 319.1046,-561.9565 370,-583.5 479.1766,-629.7134 587.5094,-727.9402 620.1174,-758.927"/>
<polygon fill="#191970" stroke="#191970" points="213.2923,-545.0479 203.0235,-547.656 212.6774,-552.0209 213.2923,-545.0479"/>
</g>
<!-- Node35647 -->
<g id="node11" class="node">
<title>Node35647</title>
<g id="a_node11"><a xlink:href="quickjs-libc_8c.html#a7aebce2172c6aa4a6645aef600a69e6b" target="_top" xlink:title="js_std_urlGet">
<polygon fill="none" stroke="#000000" points="438.5,-859 438.5,-878 512.5,-878 512.5,-859 438.5,-859"/>
<text text-anchor="middle" x="475.5" y="-866" font-family="Helvetica,sans-Serif" font-size="10.00" fill="#000000">js_std_urlGet</text>
</a>
</g>
</g>
<!-- Node35636&#45;&gt;Node35647 -->
<g id="edge13" class="edge">
<title>Node35636&#45;&gt;Node35647</title>
<path fill="none" stroke="#191970" d="M166.1387,-565.0337C173.0834,-624.6695 197.0148,-802.5633 239,-839.5 294.2836,-888.136 387.0266,-883.1579 438.4097,-875.6093"/>
<polygon fill="#191970" stroke="#191970" points="169.6107,-564.5888 165.0073,-555.0463 162.6552,-565.3768 169.6107,-564.5888"/>
</g>
<!-- Node35648 -->
<g id="node12" class="node">
<title>Node35648</title>
<g id="a_node12"><a xlink:href="quickjs-libc_8c.html#a4f611dfcb682754b3f25bb3e06f61ab5" target="_top" xlink:title="js_new_std_file">
<polygon fill="none" stroke="#ff0000" points="262.5,-707 262.5,-726 346.5,-726 346.5,-707 262.5,-707"/>
<text text-anchor="middle" x="304.5" y="-714" font-family="Helvetica,sans-Serif" font-size="10.00" fill="#000000">js_new_std_file</text>
</a>
</g>
</g>
<!-- Node35636&#45;&gt;Node35648 -->
<g id="edge12" class="edge">
<title>Node35636&#45;&gt;Node35648</title>
<path fill="none" stroke="#191970" d="M168.3374,-565.462C176.4503,-597.9943 197.0313,-662.338 239,-697.5 245.7162,-703.1269 254.0226,-707.0884 262.4386,-709.877"/>
<polygon fill="#191970" stroke="#191970" points="171.6642,-564.3182 165.9731,-555.3816 164.8491,-565.9166 171.6642,-564.3182"/>
</g>
<!-- Node35655 -->
<g id="node13" class="node">
<title>Node35655</title>
<g id="a_node13"><a xlink:href="quickjs-libc_8c.html#a786f04aebbd56e14572bc82c0920be2c" target="_top" xlink:title="js_os_setReadHandler">
<polygon fill="none" stroke="#000000" points="246.5,-669 246.5,-688 362.5,-688 362.5,-669 246.5,-669"/>
<text text-anchor="middle" x="304.5" y="-676" font-family="Helvetica,sans-Serif" font-size="10.00" fill="#000000">js_os_setReadHandler</text>
</a>
</g>
</g>
<!-- Node35636&#45;&gt;Node35655 -->
<g id="edge14" class="edge">
<title>Node35636&#45;&gt;Node35655</title>
<path fill="none" stroke="#191970" d="M171.4416,-564.4028C182.4088,-589.8114 205.3212,-634.6537 239,-659.5 244.2404,-663.3661 250.2524,-666.4479 256.4626,-668.9041"/>
<polygon fill="#191970" stroke="#191970" points="174.6528,-563.0093 167.5918,-555.1104 168.1859,-565.6886 174.6528,-563.0093"/>
</g>
<!-- Node35656 -->
<g id="node14" class="node">
<title>Node35656</title>
<g id="a_node14"><a xlink:href="quickjs-libc_8c.html#a87465e0686e72ba005afdf9f31a1cbf7" target="_top" xlink:title="js_os_signal">
<polygon fill="none" stroke="#000000" points="269,-631 269,-650 340,-650 340,-631 269,-631"/>
<text text-anchor="middle" x="304.5" y="-638" font-family="Helvetica,sans-Serif" font-size="10.00" fill="#000000">js_os_signal</text>
</a>
</g>
</g>
<!-- Node35636&#45;&gt;Node35656 -->
<g id="edge15" class="edge">
<title>Node35636&#45;&gt;Node35656</title>
<path fill="none" stroke="#191970" d="M177.1741,-563.3902C190.8085,-580.6746 213.6382,-606.3946 239,-621.5 248.0537,-626.8923 258.7289,-630.8317 268.8039,-633.6767"/>
<polygon fill="#191970" stroke="#191970" points="179.7768,-561.0322 170.9176,-555.2213 174.2194,-565.2886 179.7768,-561.0322"/>
</g>
<!-- Node35657 -->
<g id="node15" class="node">
<title>Node35657</title>
<g id="a_node15"><a xlink:href="quickjs-libc_8c.html#acd6d7f2e207ed1d263e55bed721a7288" target="_top" xlink:title="js_os_setTimeout">
<polygon fill="none" stroke="#000000" points="257.5,-593 257.5,-612 351.5,-612 351.5,-593 257.5,-593"/>
<text text-anchor="middle" x="304.5" y="-600" font-family="Helvetica,sans-Serif" font-size="10.00" fill="#000000">js_os_setTimeout</text>
</a>
</g>
</g>
<!-- Node35636&#45;&gt;Node35657 -->
<g id="edge16" class="edge">
<title>Node35636&#45;&gt;Node35657</title>
<path fill="none" stroke="#191970" d="M194.2281,-559.3214C207.8282,-565.4047 224.1344,-572.5131 239,-578.5 251.4698,-583.522 265.4401,-588.7011 277.2654,-592.9569"/>
<polygon fill="#191970" stroke="#191970" points="195.418,-556.0188 184.8628,-555.1036 192.5435,-562.4014 195.418,-556.0188"/>
</g>
<!-- Node35658 -->
<g id="node16" class="node">
<title>Node35658</title>
<g id="a_node16"><a xlink:href="quickjs-libc_8c.html#abb1cbe3fdf905e81f603a3a0bfce475a" target="_top" xlink:title="call_handler">
<polygon fill="none" stroke="#000000" points="596,-365 596,-384 664,-384 664,-365 596,-365"/>
<text text-anchor="middle" x="630" y="-372" font-family="Helvetica,sans-Serif" font-size="10.00" fill="#000000">call_handler</text>
</a>
</g>
</g>
<!-- Node35636&#45;&gt;Node35658 -->
<g id="edge17" class="edge">
<title>Node35636&#45;&gt;Node35658</title>
<path fill="none" stroke="#191970" d="M167.2008,-525.8074C173.8428,-492.0776 192.575,-423.9487 239,-393.5 297.1081,-355.3887 511.8868,-366.0417 595.9501,-371.8703"/>
<polygon fill="#191970" stroke="#191970" points="163.725,-525.36 165.3893,-535.8233 170.6132,-526.6059 163.725,-525.36"/>
</g>
<!-- Node35659 -->
<g id="node17" class="node">
<title>Node35659</title>
<g id="a_node17"><a xlink:href="quickjs-libc_8c.html#ac6c5f34cb0df6ab0d7579f0f20908a2c" target="_top" xlink:title="js_os_poll">
<polygon fill="none" stroke="#ff0000" points="715,-289 715,-308 775,-308 775,-289 715,-289"/>
<text text-anchor="middle" x="745" y="-296" font-family="Helvetica,sans-Serif" font-size="10.00" fill="#000000">js_os_poll</text>
</a>
</g>
</g>
<!-- Node35636&#45;&gt;Node35659 -->
<g id="edge19" class="edge">
<title>Node35636&#45;&gt;Node35659</title>
<path fill="none" stroke="#191970" d="M165.7603,-525.8704C171.7219,-464.3454 193.3743,-277.2374 239,-241.5 313.5539,-183.1039 617.7325,-262.3771 714.9641,-289.7869"/>
<polygon fill="#191970" stroke="#191970" points="162.2752,-525.5494 164.8275,-535.8322 169.2447,-526.2021 162.2752,-525.5494"/>
</g>
<!-- Node35662 -->
<g id="node18" class="node">
<title>Node35662</title>
<g id="a_node18"><a xlink:href="quickjs-libc_8c.html#afc77720d4d1c0b90749ce275a4a16f74" target="_top" xlink:title="build_envp">
<polygon fill="none" stroke="#000000" points="444,-759 444,-778 507,-778 507,-759 444,-759"/>
<text text-anchor="middle" x="475.5" y="-766" font-family="Helvetica,sans-Serif" font-size="10.00" fill="#000000">build_envp</text>
</a>
</g>
</g>
<!-- Node35636&#45;&gt;Node35662 -->
<g id="edge20" class="edge">
<title>Node35636&#45;&gt;Node35662</title>
<path fill="none" stroke="#191970" d="M165.5035,-565.5756C169.6209,-605.0825 184.7198,-692.7838 239,-735.5 270.194,-760.0483 387.0581,-766.336 443.9665,-767.9461"/>
<polygon fill="#191970" stroke="#191970" points="168.9673,-565.0174 164.578,-555.3745 161.9959,-565.6499 168.9673,-565.0174"/>
</g>
<!-- Node35663 -->
<g id="node19" class="node">
<title>Node35663</title>
<g id="a_node19"><a xlink:href="quickjs-libc_8c.html#ad04466feec6822a3b838baf229f6dfa0" target="_top" xlink:title="js_std_add_helpers">
<polygon fill="none" stroke="#ff0000" points="254,-441 254,-460 355,-460 355,-441 254,-441"/>
<text text-anchor="middle" x="304.5" y="-448" font-family="Helvetica,sans-Serif" font-size="10.00" fill="#000000">js_std_add_helpers</text>
</a>
</g>
</g>
<!-- Node35636&#45;&gt;Node35663 -->
<g id="edge23" class="edge">
<title>Node35636&#45;&gt;Node35663</title>
<path fill="none" stroke="#191970" d="M178.7104,-527.9765C192.7909,-512.1503 215.3363,-489.159 239,-474.5 248.5748,-468.5687 259.8372,-463.7795 270.2973,-460.0853"/>
<polygon fill="#191970" stroke="#191970" points="175.7162,-526.0867 171.8054,-535.9333 181.0031,-530.6747 175.7162,-526.0867"/>
</g>
<!-- Node35664 -->
<g id="node20" class="node">
<title>Node35664</title>
<g id="a_node20"><a xlink:href="quickjs-libc_8c.html#a410cd5dce0fb0e6a978ed313963f3962" target="_top" xlink:title="js_std_dump_error1">
<polygon fill="none" stroke="#ff0000" points="253.5,-403 253.5,-422 355.5,-422 355.5,-403 253.5,-403"/>
<text text-anchor="middle" x="304.5" y="-410" font-family="Helvetica,sans-Serif" font-size="10.00" fill="#000000">js_std_dump_error1</text>
</a>
</g>
</g>
<!-- Node35636&#45;&gt;Node35664 -->
<g id="edge24" class="edge">
<title>Node35636&#45;&gt;Node35664</title>
<path fill="none" stroke="#191970" d="M171.4416,-526.5972C182.4088,-501.1886 205.3212,-456.3463 239,-431.5 244.2404,-427.6339 250.2524,-424.5521 256.4626,-422.0959"/>
<polygon fill="#191970" stroke="#191970" points="168.1859,-525.3114 167.5918,-535.8896 174.6528,-527.9907 168.1859,-525.3114"/>
</g>
<!-- Node35665 -->
<g id="node21" class="node">
<title>Node35665</title>
<g id="a_node21"><a xlink:href="quickjs-libc_8c.html#a82bb7888d024e97e430d98653e97a7bc" target="_top" xlink:title="js_std_dump_error">
<polygon fill="none" stroke="#ff0000" points="427,-441 427,-460 524,-460 524,-441 427,-441"/>
<text text-anchor="middle" x="475.5" y="-448" font-family="Helvetica,sans-Serif" font-size="10.00" fill="#000000">js_std_dump_error</text>
</a>
</g>
</g>
<!-- Node35636&#45;&gt;Node35665 -->
<g id="edge28" class="edge">
<title>Node35636&#45;&gt;Node35665</title>
<path fill="none" stroke="#191970" d="M192.8222,-531.5398C206.5945,-525.2014 223.4349,-517.9263 239,-512.5 304.3315,-489.724 382.3471,-470.8163 430.4082,-460.0846"/>
<polygon fill="#191970" stroke="#191970" points="190.9722,-528.5413 183.3983,-535.9498 193.9391,-534.8814 190.9722,-528.5413"/>
</g>
<!-- Node35668 -->
<g id="node22" class="node">
<title>Node35668</title>
<g id="a_node22"><a xlink:href="quickjs_8c.html#a0cc5b21552a1c8bf455b480dac55ecba" target="_top" xlink:title="JS_ExecutePendingJob">
<polygon fill="none" stroke="#ff0000" points="244,-327 244,-346 365,-346 365,-327 244,-327"/>
<text text-anchor="middle" x="304.5" y="-334" font-family="Helvetica,sans-Serif" font-size="10.00" fill="#000000">JS_ExecutePendingJob</text>
</a>
</g>
</g>
<!-- Node35636&#45;&gt;Node35668 -->
<g id="edge30" class="edge">
<title>Node35636&#45;&gt;Node35668</title>
<path fill="none" stroke="#191970" d="M166.6501,-525.8668C172.6954,-488.5564 190.8995,-406.9952 239,-360.5 245.5308,-354.1872 253.8569,-349.5133 262.3658,-346.0599"/>
<polygon fill="#191970" stroke="#191970" points="163.1617,-525.5298 165.1448,-535.9374 170.0848,-526.5648 163.1617,-525.5298"/>
</g>
<!-- Node35669 -->
<g id="node23" class="node">
<title>Node35669</title>
<g id="a_node23"><a xlink:href="quickjs_8c.html#a0ec52a675282f321a6f42aa1298a53fe" target="_top" xlink:title="set_value">
<polygon fill="none" stroke="#ff0000" points="275,-289 275,-308 334,-308 334,-289 275,-289"/>
<text text-anchor="middle" x="304.5" y="-296" font-family="Helvetica,sans-Serif" font-size="10.00" fill="#000000">set_value</text>
</a>
</g>
</g>
<!-- Node35636&#45;&gt;Node35669 -->
<g id="edge31" class="edge">
<title>Node35636&#45;&gt;Node35669</title>
<path fill="none" stroke="#191970" d="M168.0087,-525.8496C178.5188,-476.1415 208.1935,-347.2327 239,-317.5 248.5419,-308.2907 262.2717,-303.5029 274.6987,-301.0304"/>
<polygon fill="#191970" stroke="#191970" points="164.5198,-525.4364 165.91,-535.9396 171.3731,-526.8619 164.5198,-525.4364"/>
</g>
<!-- Node36233 -->
<g id="node24" class="node">
<title>Node36233</title>
<g id="a_node24"><a xlink:href="quickjs_8c.html#a1b4fe6eb1b7bcaec6713bd5ac2921f1b" target="_top" xlink:title="JS_FreeContext">
<polygon fill="none" stroke="#ff0000" points="260.5,-251 260.5,-270 348.5,-270 348.5,-251 260.5,-251"/>
<text text-anchor="middle" x="304.5" y="-258" font-family="Helvetica,sans-Serif" font-size="10.00" fill="#000000">JS_FreeContext</text>
</a>
</g>
</g>
<!-- Node35636&#45;&gt;Node36233 -->
<g id="edge32" class="edge">
<title>Node35636&#45;&gt;Node36233</title>
<path fill="none" stroke="#191970" d="M167.0122,-525.9399C175.8929,-470.6953 203.5838,-315.1831 239,-279.5 244.8386,-273.6174 252.3815,-269.5313 260.2602,-266.699"/>
<polygon fill="#191970" stroke="#191970" points="163.5486,-525.435 165.4481,-535.8582 170.4632,-526.5255 163.5486,-525.435"/>
</g>
<!-- Node36085 -->
<g id="node25" class="node">
<title>Node36085</title>
<g id="a_node25"><a xlink:href="quickjs_8c.html#ab4e100a9cde5f7ec87c92f5e766dbbab" target="_top" xlink:title="JS_AtomIsNumericIndex1">
<polygon fill="none" stroke="#ff0000" points="239,-175 239,-194 370,-194 370,-175 239,-175"/>
<text text-anchor="middle" x="304.5" y="-182" font-family="Helvetica,sans-Serif" font-size="10.00" fill="#000000">JS_AtomIsNumericIndex1</text>
</a>
</g>
</g>
<!-- Node35636&#45;&gt;Node36085 -->
<g id="edge33" class="edge">
<title>Node35636&#45;&gt;Node36085</title>
<path fill="none" stroke="#191970" d="M165.9242,-525.7189C172.5882,-460.9908 196.6245,-256.8853 239,-208.5 244.5056,-202.2136 251.8017,-197.5724 259.5232,-194.1463"/>
<polygon fill="#191970" stroke="#191970" points="162.4279,-525.5072 164.9115,-535.8068 169.3929,-526.2064 162.4279,-525.5072"/>
</g>
<!-- Node36086 -->
<g id="node26" class="node">
<title>Node36086</title>
<g id="a_node26"><a xlink:href="quickjs_8c.html#add3eea1f6d626963ade3c28a1fd563d1" target="_top" xlink:title="JS_AtomIsNumericIndex">
<polygon fill="none" stroke="#ff0000" points="412.5,-156 412.5,-175 538.5,-175 538.5,-156 412.5,-156"/>
<text text-anchor="middle" x="475.5" y="-163" font-family="Helvetica,sans-Serif" font-size="10.00" fill="#000000">JS_AtomIsNumericIndex</text>
</a>
</g>
</g>
<!-- Node35636&#45;&gt;Node36086 -->
<g id="edge35" class="edge">
<title>Node35636&#45;&gt;Node36086</title>
<path fill="none" stroke="#191970" d="M164.7498,-525.3505C167.8835,-453.5363 182.5318,-211.9125 239,-165.5 299.7432,-115.5738 401.9482,-140.3419 449.5939,-155.992"/>
<polygon fill="#191970" stroke="#191970" points="161.2381,-525.5683 164.3283,-535.7024 168.2323,-525.8531 161.2381,-525.5683"/>
</g>
<!-- Node36126 -->
<g id="node27" class="node">
<title>Node36126</title>
<g id="a_node27"><a xlink:href="quickjs_8c.html#a4b66ebf3abee5d29490343fbe360ec5a" target="_top" xlink:title="JS_AtomToCString">
<polygon fill="none" stroke="#ff0000" points="254,-783 254,-802 355,-802 355,-783 254,-783"/>
<text text-anchor="middle" x="304.5" y="-790" font-family="Helvetica,sans-Serif" font-size="10.00" fill="#000000">JS_AtomToCString</text>
</a>
</g>
</g>
<!-- Node35636&#45;&gt;Node36126 -->
<g id="edge36" class="edge">
<title>Node35636&#45;&gt;Node36126</title>
<path fill="none" stroke="#191970" d="M165.0771,-565.226C168.4616,-608.0451 182.3623,-710.3248 239,-768.5 245.1672,-774.8346 253.1432,-779.5081 261.395,-782.9526"/>
<polygon fill="#191970" stroke="#191970" points="168.5543,-564.7684 164.3866,-555.0278 161.5703,-565.2414 168.5543,-564.7684"/>
</g>
<!-- Node36137 -->
<g id="node28" class="node">
<title>Node36137</title>
<g id="a_node28"><a xlink:href="quickjs_8c.html#aadfd9c31a6f69160c12e99b8d5eb5b3c" target="_top" xlink:title="js_atom_concat_str">
<polygon fill="none" stroke="#ff0000" points="253.5,-99 253.5,-118 355.5,-118 355.5,-99 253.5,-99"/>
<text text-anchor="middle" x="304.5" y="-106" font-family="Helvetica,sans-Serif" font-size="10.00" fill="#000000">js_atom_concat_str</text>
</a>
</g>
</g>
<!-- Node35636&#45;&gt;Node36137 -->
<g id="edge39" class="edge">
<title>Node35636&#45;&gt;Node36137</title>
<path fill="none" stroke="#191970" d="M165.0391,-525.7309C169.2946,-451.9078 187.6653,-193.4952 239,-132.5 244.3029,-126.1992 251.4101,-121.5523 258.9889,-118.1253"/>
<polygon fill="#191970" stroke="#191970" points="161.5324,-525.7576 164.4744,-535.9357 168.5217,-526.1444 161.5324,-525.7576"/>
</g>
<!-- Node36171 -->
<g id="node29" class="node">
<title>Node36171</title>
<g id="a_node29"><a xlink:href="quickjs_8c.html#af3ad59b9801a4ec68f41a50ab5762ccb" target="_top" xlink:title="string_buffer_concat\l_value">
<polygon fill="none" stroke="#ff0000" points="252,-49.5 252,-79.5 357,-79.5 357,-49.5 252,-49.5"/>
<text text-anchor="start" x="260" y="-67.5" font-family="Helvetica,sans-Serif" font-size="10.00" fill="#000000">string_buffer_concat</text>
<text text-anchor="middle" x="304.5" y="-56.5" font-family="Helvetica,sans-Serif" font-size="10.00" fill="#000000">_value</text>
</a>
</g>
</g>
<!-- Node35636&#45;&gt;Node36171 -->
<g id="edge40" class="edge">
<title>Node35636&#45;&gt;Node36171</title>
<path fill="none" stroke="#191970" d="M164.6935,-525.7374C167.8249,-447.1934 183.0274,-158.069 239,-89.5 242.5406,-85.1626 246.9236,-81.5768 251.732,-78.6125"/>
<polygon fill="#191970" stroke="#191970" points="161.1955,-525.6216 164.3157,-535.7465 168.1905,-525.8857 161.1955,-525.6216"/>
</g>
<!-- Node36168 -->
<g id="node30" class="node">
<title>Node36168</title>
<g id="a_node30"><a xlink:href="quickjs_8c.html#ac91bb65d1f12eadbcc97cecf2860350b" target="_top" xlink:title="string_buffer_concat\l_value_free">
<polygon fill="none" stroke="#ff0000" points="252,-.5 252,-30.5 357,-30.5 357,-.5 252,-.5"/>
<text text-anchor="start" x="260" y="-18.5" font-family="Helvetica,sans-Serif" font-size="10.00" fill="#000000">string_buffer_concat</text>
<text text-anchor="middle" x="304.5" y="-7.5" font-family="Helvetica,sans-Serif" font-size="10.00" fill="#000000">_value_free</text>
</a>
</g>
</g>
<!-- Node35636&#45;&gt;Node36168 -->
<g id="edge41" class="edge">
<title>Node35636&#45;&gt;Node36168</title>
<path fill="none" stroke="#191970" d="M164.3114,-525.7466C166.0151,-441.8834 176.6094,-116.1245 239,-39.5 242.594,-35.086 247.0761,-31.4839 251.9991,-28.5442"/>
<polygon fill="#191970" stroke="#191970" points="160.8088,-525.8613 164.1255,-535.9236 167.8076,-525.9892 160.8088,-525.8613"/>
</g>
<!-- Node35640&#45;&gt;Node35641 -->
<g id="edge6" class="edge">
<title>Node35640&#45;&gt;Node35641</title>
<path fill="none" stroke="#191970" d="M555.2592,-821.1462C565.0468,-821.7163 574.7806,-822.2833 583.8313,-822.8106"/>
<polygon fill="#191970" stroke="#191970" points="555.2531,-817.64 545.0665,-820.5524 554.846,-824.6281 555.2531,-817.64"/>
</g>
<!-- Node35640&#45;&gt;Node35643 -->
<g id="edge7" class="edge">
<title>Node35640&#45;&gt;Node35643</title>
<path fill="none" stroke="#191970" d="M523.8095,-802.7916C531.6668,-798.8605 539.1376,-793.8541 545,-787.5 615.9303,-710.6198 627.7159,-573.6972 629.6347,-536.2157"/>
<polygon fill="#191970" stroke="#191970" points="522.2039,-799.6748 514.4815,-806.9286 525.0418,-806.0738 522.2039,-799.6748"/>
</g>
<!-- Node35644&#45;&gt;Node35646 -->
<g id="edge10" class="edge">
<title>Node35644&#45;&gt;Node35646</title>
<path fill="none" stroke="#191970" d="M357.2085,-916.7741C409.7102,-923.94 490.1854,-926.2783 545,-887.5 577.1611,-864.7478 556.7001,-837.5083 581,-806.5 590.0307,-794.9762 603.2954,-784.9718 613.7468,-778.1248"/>
<polygon fill="#191970" stroke="#191970" points="357.4999,-913.2794 347.0971,-915.2874 356.4815,-920.205 357.4999,-913.2794"/>
</g>
<!-- Node35644&#45;&gt;Node35647 -->
<g id="edge11" class="edge">
<title>Node35644&#45;&gt;Node35647</title>
<path fill="none" stroke="#191970" d="M357.0153,-894.8299C383.295,-888.99 414.4851,-882.0589 438.2662,-876.7742"/>
<polygon fill="#191970" stroke="#191970" points="356.212,-891.423 347.2094,-897.009 357.7306,-898.2563 356.212,-891.423"/>
</g>
<!-- Node35658&#45;&gt;Node35659 -->
<g id="edge18" class="edge">
<title>Node35658&#45;&gt;Node35659</title>
<path fill="none" stroke="#191970" d="M653.0896,-359.2408C676.2151,-343.9578 711.0871,-320.912 730.5534,-308.0473"/>
<polygon fill="#191970" stroke="#191970" points="650.9779,-356.4411 644.5648,-364.8745 654.8373,-362.281 650.9779,-356.4411"/>
</g>
<!-- Node35662&#45;&gt;Node35646 -->
<g id="edge21" class="edge">
<title>Node35662&#45;&gt;Node35646</title>
<path fill="none" stroke="#191970" d="M517.4046,-768.5C542.3523,-768.5 573.5698,-768.5 596.8025,-768.5"/>
<polygon fill="#191970" stroke="#191970" points="517.1382,-765.0001 507.1382,-768.5 517.1382,-772.0001 517.1382,-765.0001"/>
</g>
<!-- Node35664&#45;&gt;Node35665 -->
<g id="edge25" class="edge">
<title>Node35664&#45;&gt;Node35665</title>
<path fill="none" stroke="#191970" d="M357.7092,-424.3243C381.8172,-429.6816 409.9401,-435.9311 432.6598,-440.9799"/>
<polygon fill="#191970" stroke="#191970" points="358.1717,-420.8417 347.6505,-422.089 356.6531,-427.675 358.1717,-420.8417"/>
</g>
<!-- Node35665&#45;&gt;Node35643 -->
<g id="edge27" class="edge">
<title>Node35665&#45;&gt;Node35643</title>
<path fill="none" stroke="#191970" d="M504.08,-464.5588C535.0868,-479.8113 583.7445,-503.7465 610.5913,-516.9527"/>
<polygon fill="#191970" stroke="#191970" points="505.5856,-461.3989 495.0675,-460.1255 502.4958,-467.6801 505.5856,-461.3989"/>
</g>
<!-- Node35665&#45;&gt;Node35658 -->
<g id="edge26" class="edge">
<title>Node35665&#45;&gt;Node35658</title>
<path fill="none" stroke="#191970" d="M504.08,-436.4412C535.0868,-421.1887 583.7445,-397.2535 610.5913,-384.0473"/>
<polygon fill="#191970" stroke="#191970" points="502.4958,-433.3199 495.0675,-440.8745 505.5856,-439.6011 502.4958,-433.3199"/>
</g>
<!-- Node36085&#45;&gt;Node36086 -->
<g id="edge34" class="edge">
<title>Node36085&#45;&gt;Node36086</title>
<path fill="none" stroke="#191970" d="M380.2908,-176.0788C390.9836,-174.8907 401.8816,-173.6798 412.3042,-172.5218"/>
<polygon fill="#191970" stroke="#191970" points="379.6763,-172.6254 370.124,-177.2084 380.4494,-179.5826 379.6763,-172.6254"/>
</g>
<!-- Node36126&#45;&gt;Node35640 -->
<g id="edge38" class="edge">
<title>Node36126&#45;&gt;Node35640</title>
<path fill="none" stroke="#191970" d="M365.5903,-801.0741C379.2564,-802.9921 393.8306,-805.0376 407.7484,-806.991"/>
<polygon fill="#191970" stroke="#191970" points="365.7321,-797.5598 355.3427,-799.6358 364.7591,-804.4918 365.7321,-797.5598"/>
</g>
<!-- Node36126&#45;&gt;Node35662 -->
<g id="edge37" class="edge">
<title>Node36126&#45;&gt;Node35662</title>
<path fill="none" stroke="#191970" d="M365.3304,-783.9624C391.8972,-780.2337 421.9391,-776.0173 443.9336,-772.9304"/>
<polygon fill="#191970" stroke="#191970" points="364.7591,-780.5082 355.3427,-785.3642 365.7321,-787.4402 364.7591,-780.5082"/>
</g>
</g>
</svg>
        <g id="navigator" transform="translate(0 0)" fill="#404254">
                <rect fill="#f2f5e9" fill-opacity="0.5" stroke="#606060" stroke-width=".5" x="0" y="0" width="60" height="60"/>
                <use id="zoomplus" xlink:href="#zoomPlus" x="17" y="9" onmousedown="handleZoom(evt,'in')"/>
                <use id="zoomminus" xlink:href="#zoomMin" x="42" y="9" onmousedown="handleZoom(evt,'out')"/>
                <use id="reset" xlink:href="#resetDef" x="30" y="36" onmousedown="handleReset()"/>
                <g id="arrowUp" xlink:href="#dirArrow" transform="translate(30 24)" onmousedown="handlePan(0,-1)">
                  <use xlink:href="#rim" fill="#404040">
                        <set attributeName="fill" to="#808080" begin="arrowUp.mouseover" end="arrowUp.mouseout"/>
                  </use>
                  <path fill="none" stroke="white" stroke-width="1.5" d="M0,-3.0v7 M-2.5,-0.5L0,-3.0L2.5,-0.5"/>
                </g>
                <g id="arrowRight" xlink:href="#dirArrow" transform="rotate(90) translate(36 -43)" onmousedown="handlePan(1,0)">
                  <use xlink:href="#rim" fill="#404040">
                        <set attributeName="fill" to="#808080" begin="arrowRight.mouseover" end="arrowRight.mouseout"/>
                  </use>
                  <path fill="none" stroke="white" stroke-width="1.5" d="M0,-3.0v7 M-2.5,-0.5L0,-3.0L2.5,-0.5"/>
                </g>
                <g id="arrowDown" xlink:href="#dirArrow" transform="rotate(180) translate(-30 -48)" onmousedown="handlePan(0,1)">
                  <use xlink:href="#rim" fill="#404040">
                        <set attributeName="fill" to="#808080" begin="arrowDown.mouseover" end="arrowDown.mouseout"/>
                  </use>
                  <path fill="none" stroke="white" stroke-width="1.5" d="M0,-3.0v7 M-2.5,-0.5L0,-3.0L2.5,-0.5"/>
                </g>
                <g id="arrowLeft" xlink:href="#dirArrow" transform="rotate(270) translate(-36 17)" onmousedown="handlePan(-1,0)">
                  <use xlink:href="#rim" fill="#404040">
                        <set attributeName="fill" to="#808080" begin="arrowLeft.mouseover" end="arrowLeft.mouseout"/>
                  </use>
                  <path fill="none" stroke="white" stroke-width="1.5" d="M0,-3.0v7 M-2.5,-0.5L0,-3.0L2.5,-0.5"/>
                </g>
        </g>
        <svg viewBox="0 0 15 15" width="100%" height="30px" preserveAspectRatio="xMaxYMin meet">
         <g id="arrow_out" transform="scale(0.3 0.3)">
          <a xlink:href="quickjs_8h_aa059f309c30fd5166d16c82a97973146_icgraph_org.svg" target="_base">
           <rect id="button" ry="5" rx="5" y="6" x="6" height="38" width="38"
                fill="#f2f5e9" fill-opacity="0.5" stroke="#606060" stroke-width="1.0"/>
           <path id="arrow"
             d="M 11.500037,31.436501 C 11.940474,20.09759 22.043105,11.32322 32.158766,21.979434 L 37.068811,17.246167 C 37.068811,17.246167 37.088388,32 37.088388,32 L 22.160133,31.978069 C 22.160133,31.978069 26.997745,27.140456 26.997745,27.140456 C 18.528582,18.264221 13.291696,25.230495 11.500037,31.436501 z"
             style="fill:#404040;"/>
          </a>
         </g>
        </svg>
</svg>
