<?xml version="1.0" encoding="UTF-8" standalone="no"?>
<!DOCTYPE svg PUBLIC "-//W3C//DTD SVG 1.1//EN"
 "http://www.w3.org/Graphics/SVG/1.1/DTD/svg11.dtd">
<!-- Generated by graphviz version 2.40.1 (20161225.0304)
 -->
<!-- Title: gc_decref Pages: 1 -->
<svg width="465pt" height="142pt"
 viewBox="0.00 0.00 465.00 142.00" xmlns="http://www.w3.org/2000/svg" xmlns:xlink="http://www.w3.org/1999/xlink">
<g id="graph0" class="graph" transform="scale(1 1) rotate(0) translate(4 138)">
<title>gc_decref</title>
<!-- Node148342 -->
<g id="node1" class="node">
<title>Node148342</title>
<polygon fill="#bfbfbf" stroke="#000000" points="0,-76.5 0,-95.5 59,-95.5 59,-76.5 0,-76.5"/>
<text text-anchor="middle" x="29.5" y="-83.5" font-family="Helvetica,sans-Serif" font-size="10.00" fill="#000000">gc_decref</text>
</g>
<!-- Node148343 -->
<g id="node2" class="node">
<title>Node148343</title>
<g id="a_node2"><a xlink:href="quickjs_8c.html#aeeea589ee4cec4bbc3145210f4cf6e42" target="_top" xlink:title="JS_RunGC">
<polygon fill="none" stroke="#000000" points="95,-76.5 95,-95.5 162,-95.5 162,-76.5 95,-76.5"/>
<text text-anchor="middle" x="128.5" y="-83.5" font-family="Helvetica,sans-Serif" font-size="10.00" fill="#000000">JS_RunGC</text>
</a>
</g>
</g>
<!-- Node148342&#45;&gt;Node148343 -->
<g id="edge1" class="edge">
<title>Node148342&#45;&gt;Node148343</title>
<path fill="none" stroke="#191970" d="M69.2178,-86C77.6448,-86 86.4658,-86 94.6505,-86"/>
<polygon fill="#191970" stroke="#191970" points="69.2033,-82.5001 59.2033,-86 69.2032,-89.5001 69.2033,-82.5001"/>
</g>
<!-- Node148344 -->
<g id="node3" class="node">
<title>Node148344</title>
<g id="a_node3"><a xlink:href="quickjs-libc_8c.html#a9d1d581951398643c2791e45231f87db" target="_top" xlink:title="js_std_gc">
<polygon fill="none" stroke="#000000" points="213.5,-114.5 213.5,-133.5 272.5,-133.5 272.5,-114.5 213.5,-114.5"/>
<text text-anchor="middle" x="243" y="-121.5" font-family="Helvetica,sans-Serif" font-size="10.00" fill="#000000">js_std_gc</text>
</a>
</g>
</g>
<!-- Node148343&#45;&gt;Node148344 -->
<g id="edge2" class="edge">
<title>Node148343&#45;&gt;Node148344</title>
<path fill="none" stroke="#191970" d="M167.1465,-98.8259C182.51,-103.9247 199.879,-109.6891 214.1161,-114.4141"/>
<polygon fill="#191970" stroke="#191970" points="167.9866,-95.4171 157.3932,-95.589 165.7817,-102.0608 167.9866,-95.4171"/>
</g>
<!-- Node148345 -->
<g id="node4" class="node">
<title>Node148345</title>
<g id="a_node4"><a xlink:href="quickjs_8c.html#a85321334e4bec66bfc03451897a03a3b" target="_top" xlink:title="js_trigger_gc">
<polygon fill="none" stroke="#000000" points="207,-76.5 207,-95.5 279,-95.5 279,-76.5 207,-76.5"/>
<text text-anchor="middle" x="243" y="-83.5" font-family="Helvetica,sans-Serif" font-size="10.00" fill="#000000">js_trigger_gc</text>
</a>
</g>
</g>
<!-- Node148343&#45;&gt;Node148345 -->
<g id="edge3" class="edge">
<title>Node148343&#45;&gt;Node148345</title>
<path fill="none" stroke="#191970" d="M172.3859,-86C183.7265,-86 195.8081,-86 206.7125,-86"/>
<polygon fill="#191970" stroke="#191970" points="172.2345,-82.5001 162.2345,-86 172.2345,-89.5001 172.2345,-82.5001"/>
</g>
<!-- Node148951 -->
<g id="node6" class="node">
<title>Node148951</title>
<g id="a_node6"><a xlink:href="quickjs_8c.html#ad80a65b72c3a346d8a0047858a5f0b13" target="_top" xlink:title="JS_FreeRuntime">
<polygon fill="none" stroke="#000000" points="198,-38.5 198,-57.5 288,-57.5 288,-38.5 198,-38.5"/>
<text text-anchor="middle" x="243" y="-45.5" font-family="Helvetica,sans-Serif" font-size="10.00" fill="#000000">JS_FreeRuntime</text>
</a>
</g>
</g>
<!-- Node148343&#45;&gt;Node148951 -->
<g id="edge5" class="edge">
<title>Node148343&#45;&gt;Node148951</title>
<path fill="none" stroke="#191970" d="M167.1465,-73.1741C182.51,-68.0753 199.879,-62.3109 214.1161,-57.5859"/>
<polygon fill="#191970" stroke="#191970" points="165.7817,-69.9392 157.3932,-76.411 167.9866,-76.5829 165.7817,-69.9392"/>
</g>
<!-- Node148346 -->
<g id="node5" class="node">
<title>Node148346</title>
<g id="a_node5"><a xlink:href="quickjs_8c.html#a030c2e98b1775a7e3bdd13be1400b1fe" target="_top" xlink:title="JS_NewObjectFromShape">
<polygon fill="none" stroke="#ff0000" points="324,-76.5 324,-95.5 457,-95.5 457,-76.5 324,-76.5"/>
<text text-anchor="middle" x="390.5" y="-83.5" font-family="Helvetica,sans-Serif" font-size="10.00" fill="#000000">JS_NewObjectFromShape</text>
</a>
</g>
</g>
<!-- Node148345&#45;&gt;Node148346 -->
<g id="edge4" class="edge">
<title>Node148345&#45;&gt;Node148346</title>
<path fill="none" stroke="#191970" d="M289.3049,-86C300.3116,-86 312.2697,-86 323.982,-86"/>
<polygon fill="#191970" stroke="#191970" points="289.0826,-82.5001 279.0826,-86 289.0825,-89.5001 289.0826,-82.5001"/>
</g>
<!-- Node148367 -->
<g id="node7" class="node">
<title>Node148367</title>
<g id="a_node7"><a xlink:href="quickjs_8c.html#a27966451027feb455b5da12c1578771c" target="_top" xlink:title="JS_NewRuntime2">
<polygon fill="none" stroke="#ff0000" points="342.5,-38.5 342.5,-57.5 438.5,-57.5 438.5,-38.5 342.5,-38.5"/>
<text text-anchor="middle" x="390.5" y="-45.5" font-family="Helvetica,sans-Serif" font-size="10.00" fill="#000000">JS_NewRuntime2</text>
</a>
</g>
</g>
<!-- Node148951&#45;&gt;Node148367 -->
<g id="edge6" class="edge">
<title>Node148951&#45;&gt;Node148367</title>
<path fill="none" stroke="#191970" d="M298.381,-48C312.8525,-48 328.3318,-48 342.3911,-48"/>
<polygon fill="#191970" stroke="#191970" points="298.0564,-44.5001 288.0563,-48 298.0563,-51.5001 298.0564,-44.5001"/>
</g>
<!-- Node148952 -->
<g id="node8" class="node">
<title>Node148952</title>
<g id="a_node8"><a xlink:href="classqjs_1_1Runtime.html#a44c5deb57118d67e36f2e002f393ff43" target="_top" xlink:title="qjs::Runtime::~Runtime">
<polygon fill="none" stroke="#000000" points="330,-.5 330,-19.5 451,-19.5 451,-.5 330,-.5"/>
<text text-anchor="middle" x="390.5" y="-7.5" font-family="Helvetica,sans-Serif" font-size="10.00" fill="#000000">qjs::Runtime::~Runtime</text>
</a>
</g>
</g>
<!-- Node148951&#45;&gt;Node148952 -->
<g id="edge7" class="edge">
<title>Node148951&#45;&gt;Node148952</title>
<path fill="none" stroke="#191970" d="M290.0141,-35.8879C310.5566,-30.5956 334.2998,-24.4787 353.5472,-19.5201"/>
<polygon fill="#191970" stroke="#191970" points="289.0311,-32.5268 280.2205,-38.411 290.7775,-39.3054 289.0311,-32.5268"/>
</g>
</g>
</svg>
