<?xml version="1.0" encoding="UTF-8" standalone="no"?>
<!DOCTYPE svg PUBLIC "-//W3C//DTD SVG 1.1//EN"
 "http://www.w3.org/Graphics/SVG/1.1/DTD/svg11.dtd">
<!-- Generated by graphviz version 2.40.1 (20161225.0304)
 -->
<!-- Title: js_async_generator_resume_next Pages: 1 -->
<svg width="669pt" height="1185pt"
 viewBox="0.00 0.00 669.00 1185.42" xmlns="http://www.w3.org/2000/svg" xmlns:xlink="http://www.w3.org/1999/xlink">
<g id="graph0" class="graph" transform="scale(1 1) rotate(0) translate(4 1181.4232)">
<title>js_async_generator_resume_next</title>
<!-- Node295654 -->
<g id="node1" class="node">
<title>Node295654</title>
<polygon fill="#bfbfbf" stroke="#000000" points="0,-538 0,-568 101,-568 101,-538 0,-538"/>
<text text-anchor="start" x="8" y="-556" font-family="Helvetica,sans-Serif" font-size="10.00" fill="#000000">js_async_generator</text>
<text text-anchor="middle" x="50.5" y="-545" font-family="Helvetica,sans-Serif" font-size="10.00" fill="#000000">_resume_next</text>
</g>
<!-- Node295655 -->
<g id="node2" class="node">
<title>Node295655</title>
<g id="a_node2"><a xlink:href="quickjs_8c.html#ade71a22dc56e7371392393df663b28b3" target="_top" xlink:title="async_func_resume">
<polygon fill="none" stroke="#000000" points="137,-780.5 137,-799.5 241,-799.5 241,-780.5 137,-780.5"/>
<text text-anchor="middle" x="189" y="-787.5" font-family="Helvetica,sans-Serif" font-size="10.00" fill="#000000">async_func_resume</text>
</a>
</g>
</g>
<!-- Node295654&#45;&gt;Node295655 -->
<g id="edge1" class="edge">
<title>Node295654&#45;&gt;Node295655</title>
<path fill="none" stroke="#191970" d="M58.169,-568.1588C72.7527,-596.736 105.8179,-660.3469 137,-712 149.6562,-732.9649 165.3991,-756.2316 176.2278,-771.8514"/>
<polygon fill="#191970" stroke="#191970" points="173.3829,-773.8907 181.9752,-780.0893 179.1238,-769.8854 173.3829,-773.8907"/>
</g>
<!-- Node295688 -->
<g id="node9" class="node">
<title>Node295688</title>
<g id="a_node9"><a xlink:href="quickjs_8h.html#a775522f2d084fc8fa0fcb33f390006b4" target="_top" xlink:title="JS_DupValue">
<polygon fill="none" stroke="#000000" points="579.5,-834.5 579.5,-853.5 656.5,-853.5 656.5,-834.5 579.5,-834.5"/>
<text text-anchor="middle" x="618" y="-841.5" font-family="Helvetica,sans-Serif" font-size="10.00" fill="#000000">JS_DupValue</text>
</a>
</g>
</g>
<!-- Node295654&#45;&gt;Node295688 -->
<g id="edge55" class="edge">
<title>Node295654&#45;&gt;Node295688</title>
<path fill="none" stroke="#191970" d="M53.1487,-568.1542C60.8555,-609.3888 86.0239,-726.07 137,-809 228.9999,-958.669 251.9916,-1023.0435 414,-1091 465.231,-1112.4895 494.1299,-1123.7581 539,-1091 576.8518,-1063.3658 605.3862,-917.3196 614.7238,-863.7345"/>
<polygon fill="#191970" stroke="#191970" points="618.1905,-864.2254 616.4214,-853.7793 611.2901,-863.0487 618.1905,-864.2254"/>
</g>
<!-- Node295726 -->
<g id="node10" class="node">
<title>Node295726</title>
<g id="a_node10"><a xlink:href="quickjs_8h.html#ad80a83d73e9b7d872b88fbf2943aebe9" target="_top" xlink:title="JS_IsException">
<polygon fill="none" stroke="#000000" points="575,-454.5 575,-473.5 661,-473.5 661,-454.5 575,-454.5"/>
<text text-anchor="middle" x="618" y="-461.5" font-family="Helvetica,sans-Serif" font-size="10.00" fill="#000000">JS_IsException</text>
</a>
</g>
</g>
<!-- Node295654&#45;&gt;Node295726 -->
<g id="edge58" class="edge">
<title>Node295654&#45;&gt;Node295726</title>
<path fill="none" stroke="#191970" d="M101.0053,-559.0895C209.7931,-571.332 462.5946,-594.8346 539,-559 572.4962,-543.29 596.717,-505.6263 608.956,-482.722"/>
<polygon fill="#191970" stroke="#191970" points="612.1618,-484.14 613.5936,-473.6424 605.9279,-480.9559 612.1618,-484.14"/>
</g>
<!-- Node295727 -->
<g id="node12" class="node">
<title>Node295727</title>
<g id="a_node12"><a xlink:href="quickjs_8h.html#a2050bc428da1c65ac7eb87c3fa3b0392" target="_top" xlink:title="JS_NewInt32">
<polygon fill="none" stroke="#000000" points="580,-1138.5 580,-1157.5 656,-1157.5 656,-1138.5 580,-1138.5"/>
<text text-anchor="middle" x="618" y="-1145.5" font-family="Helvetica,sans-Serif" font-size="10.00" fill="#000000">JS_NewInt32</text>
</a>
</g>
</g>
<!-- Node295654&#45;&gt;Node295727 -->
<g id="edge60" class="edge">
<title>Node295654&#45;&gt;Node295727</title>
<path fill="none" stroke="#191970" d="M51.5957,-568.2368C55.7639,-618.7177 73.7469,-783.9836 137,-902 217.4848,-1052.167 253.5294,-1109.7538 414,-1167 470.0196,-1186.9844 539.8921,-1172.756 581.6207,-1160.4827"/>
<polygon fill="#191970" stroke="#191970" points="582.8069,-1163.78 591.345,-1157.5069 580.7585,-1157.0864 582.8069,-1163.78"/>
</g>
<!-- Node295709 -->
<g id="node15" class="node">
<title>Node295709</title>
<g id="a_node15"><a xlink:href="quickjs_8h.html#afaa20c47565bc704c6c85f3d77254e7d" target="_top" xlink:title="JS_FreeValue">
<polygon fill="none" stroke="#ff0000" points="579,-271.5 579,-290.5 657,-290.5 657,-271.5 579,-271.5"/>
<text text-anchor="middle" x="618" y="-278.5" font-family="Helvetica,sans-Serif" font-size="10.00" fill="#000000">JS_FreeValue</text>
</a>
</g>
</g>
<!-- Node295654&#45;&gt;Node295709 -->
<g id="edge56" class="edge">
<title>Node295654&#45;&gt;Node295709</title>
<path fill="none" stroke="#191970" d="M51.311,-537.6186C55.3305,-467.4685 75.4506,-178.6807 137,-118 265.2509,8.4408 391.2359,35.9627 539,-67 572.3102,-90.2107 602.9377,-213.5096 613.8133,-261.6881"/>
<polygon fill="#191970" stroke="#191970" points="610.4062,-262.4907 615.9872,-271.4965 617.2404,-260.976 610.4062,-262.4907"/>
</g>
<!-- Node295778 -->
<g id="node16" class="node">
<title>Node295778</title>
<g id="a_node16"><a xlink:href="quickjs_8h.html#a4e407128a9605afb77523e49e9a627fd" target="_top" xlink:title="JS_IsUndefined">
<polygon fill="none" stroke="#000000" points="433.5,-682.5 433.5,-701.5 519.5,-701.5 519.5,-682.5 433.5,-682.5"/>
<text text-anchor="middle" x="476.5" y="-689.5" font-family="Helvetica,sans-Serif" font-size="10.00" fill="#000000">JS_IsUndefined</text>
</a>
</g>
</g>
<!-- Node295654&#45;&gt;Node295778 -->
<g id="edge59" class="edge">
<title>Node295654&#45;&gt;Node295778</title>
<path fill="none" stroke="#191970" d="M56.9215,-568.1235C68.6512,-593.6616 96.1552,-644.813 137,-668 227.1172,-719.1583 353.0924,-711.4871 423.5035,-701.5808"/>
<polygon fill="#191970" stroke="#191970" points="424.0957,-705.0314 433.478,-700.1097 423.0743,-698.1063 424.0957,-705.0314"/>
</g>
<!-- Node295833 -->
<g id="node17" class="node">
<title>Node295833</title>
<g id="a_node17"><a xlink:href="quickjs_8c.html#a3ae8a83da71ef07d6e858d172d9c5a81" target="_top" xlink:title="JS_Throw">
<polygon fill="none" stroke="#000000" points="446,-530.5 446,-549.5 507,-549.5 507,-530.5 446,-530.5"/>
<text text-anchor="middle" x="476.5" y="-537.5" font-family="Helvetica,sans-Serif" font-size="10.00" fill="#000000">JS_Throw</text>
</a>
</g>
</g>
<!-- Node295654&#45;&gt;Node295833 -->
<g id="edge61" class="edge">
<title>Node295654&#45;&gt;Node295833</title>
<path fill="none" stroke="#191970" d="M101.0407,-551.4577C186.2915,-548.8561 357.0258,-543.6459 435.4241,-541.2535"/>
<polygon fill="#191970" stroke="#191970" points="435.9666,-544.7387 445.8551,-540.9352 435.753,-537.7419 435.9666,-544.7387"/>
</g>
<!-- Node296084 -->
<g id="node18" class="node">
<title>Node296084</title>
<g id="a_node18"><a xlink:href="list_8h.html#acc8877b883e77ef12325dd5bfa4be0d3" target="_top" xlink:title="list_empty">
<polygon fill="none" stroke="#000000" points="445.5,-644.5 445.5,-663.5 507.5,-663.5 507.5,-644.5 445.5,-644.5"/>
<text text-anchor="middle" x="476.5" y="-651.5" font-family="Helvetica,sans-Serif" font-size="10.00" fill="#000000">list_empty</text>
</a>
</g>
</g>
<!-- Node295654&#45;&gt;Node296084 -->
<g id="edge62" class="edge">
<title>Node295654&#45;&gt;Node296084</title>
<path fill="none" stroke="#191970" d="M60.0336,-568.0534C74.0365,-588.6295 102.3017,-624.7228 137,-640 236.6774,-683.8866 369.1594,-671.7541 435.2868,-661.5769"/>
<polygon fill="#191970" stroke="#191970" points="435.9951,-665.0081 445.315,-659.9692 434.887,-658.0964 435.9951,-665.0081"/>
</g>
<!-- Node296085 -->
<g id="node19" class="node">
<title>Node296085</title>
<g id="a_node19"><a xlink:href="quickjs_8c.html#a0950cebccf1347ea44a3c6927d3a5fa6" target="_top" xlink:title="js_async_generator\l_await">
<polygon fill="none" stroke="#000000" points="277,-438 277,-468 378,-468 378,-438 277,-438"/>
<text text-anchor="start" x="285" y="-456" font-family="Helvetica,sans-Serif" font-size="10.00" fill="#000000">js_async_generator</text>
<text text-anchor="middle" x="327.5" y="-445" font-family="Helvetica,sans-Serif" font-size="10.00" fill="#000000">_await</text>
</a>
</g>
</g>
<!-- Node295654&#45;&gt;Node296085 -->
<g id="edge24" class="edge">
<title>Node295654&#45;&gt;Node296085</title>
<path fill="none" stroke="#191970" d="M89.1723,-537.9979C104.0864,-532.2776 121.305,-525.7527 137,-520 182.9299,-503.1652 235.3846,-484.7779 273.6069,-471.5317"/>
<polygon fill="#191970" stroke="#191970" points="275.1926,-474.6866 283.498,-468.1085 272.9032,-468.0716 275.1926,-474.6866"/>
</g>
<!-- Node296094 -->
<g id="node23" class="node">
<title>Node296094</title>
<g id="a_node23"><a xlink:href="quickjs_8c.html#ad753838f0911b2c87c2117e0d424e916" target="_top" xlink:title="js_async_generator\l_complete">
<polygon fill="none" stroke="#000000" points="138.5,-601 138.5,-631 239.5,-631 239.5,-601 138.5,-601"/>
<text text-anchor="start" x="146.5" y="-619" font-family="Helvetica,sans-Serif" font-size="10.00" fill="#000000">js_async_generator</text>
<text text-anchor="middle" x="189" y="-608" font-family="Helvetica,sans-Serif" font-size="10.00" fill="#000000">_complete</text>
</a>
</g>
</g>
<!-- Node295654&#45;&gt;Node296094 -->
<g id="edge36" class="edge">
<title>Node295654&#45;&gt;Node296094</title>
<path fill="none" stroke="#191970" d="M83.6742,-568.0901C102.4656,-576.6378 126.1741,-587.4222 146.3371,-596.5938"/>
<polygon fill="#191970" stroke="#191970" points="145.0647,-599.86 155.6165,-600.8147 147.9631,-593.4883 145.0647,-599.86"/>
</g>
<!-- Node296096 -->
<g id="node25" class="node">
<title>Node296096</title>
<g id="a_node25"><a xlink:href="quickjs_8c.html#a5d885b4633392386983e2d76c175dee7" target="_top" xlink:title="js_async_generator\l_completed_return">
<polygon fill="none" stroke="#000000" points="277,-372 277,-402 378,-402 378,-372 277,-372"/>
<text text-anchor="start" x="285" y="-390" font-family="Helvetica,sans-Serif" font-size="10.00" fill="#000000">js_async_generator</text>
<text text-anchor="middle" x="327.5" y="-379" font-family="Helvetica,sans-Serif" font-size="10.00" fill="#000000">_completed_return</text>
</a>
</g>
</g>
<!-- Node295654&#45;&gt;Node296096 -->
<g id="edge39" class="edge">
<title>Node295654&#45;&gt;Node296096</title>
<path fill="none" stroke="#191970" d="M66.1353,-537.731C82.7749,-521.9968 110.3297,-497.3806 137,-480 183.2887,-449.8345 240.7981,-423.0669 280.4505,-406.0855"/>
<polygon fill="#191970" stroke="#191970" points="282.0379,-409.2141 289.8783,-402.0882 279.3054,-402.7695 282.0379,-409.2141"/>
</g>
<!-- Node296097 -->
<g id="node26" class="node">
<title>Node296097</title>
<g id="a_node26"><a xlink:href="quickjs_8c.html#afeff65269c8c136c7b74103e389befcf" target="_top" xlink:title="js_async_generator\l_reject">
<polygon fill="none" stroke="#000000" points="138.5,-128 138.5,-158 239.5,-158 239.5,-128 138.5,-128"/>
<text text-anchor="start" x="146.5" y="-146" font-family="Helvetica,sans-Serif" font-size="10.00" fill="#000000">js_async_generator</text>
<text text-anchor="middle" x="189" y="-135" font-family="Helvetica,sans-Serif" font-size="10.00" fill="#000000">_reject</text>
</a>
</g>
</g>
<!-- Node295654&#45;&gt;Node296097 -->
<g id="edge45" class="edge">
<title>Node295654&#45;&gt;Node296097</title>
<path fill="none" stroke="#191970" d="M55.5935,-537.9216C76.3354,-476.5198 154.567,-244.9317 180.5517,-168.0093"/>
<polygon fill="#191970" stroke="#191970" points="183.9756,-168.8097 183.8601,-158.2155 177.3438,-166.5694 183.9756,-168.8097"/>
</g>
<!-- Node296099 -->
<g id="node28" class="node">
<title>Node296099</title>
<g id="a_node28"><a xlink:href="quickjs_8c.html#aceae944e32b3bc14f36a4c17f2ddd12e" target="_top" xlink:title="js_async_generator\l_resolve">
<polygon fill="none" stroke="#000000" points="277,-165 277,-195 378,-195 378,-165 277,-165"/>
<text text-anchor="start" x="285" y="-183" font-family="Helvetica,sans-Serif" font-size="10.00" fill="#000000">js_async_generator</text>
<text text-anchor="middle" x="327.5" y="-172" font-family="Helvetica,sans-Serif" font-size="10.00" fill="#000000">_resolve</text>
</a>
</g>
</g>
<!-- Node295654&#45;&gt;Node296099 -->
<g id="edge48" class="edge">
<title>Node295654&#45;&gt;Node296099</title>
<path fill="none" stroke="#191970" d="M59.9603,-537.7936C75.4582,-513.0888 107.4902,-462.8814 137,-422 196.7049,-339.2878 273.2211,-245.454 308.3327,-203.012"/>
<polygon fill="#191970" stroke="#191970" points="311.0985,-205.1598 314.7858,-195.2273 305.7093,-200.6925 311.0985,-205.1598"/>
</g>
<!-- Node296026 -->
<g id="node30" class="node">
<title>Node296026</title>
<g id="a_node30"><a xlink:href="quickjs_8c.html#a8551eaac7ef616910807cebdc515760d" target="_top" xlink:title="JS_GetException">
<polygon fill="none" stroke="#000000" points="142.5,-.5 142.5,-19.5 235.5,-19.5 235.5,-.5 142.5,-.5"/>
<text text-anchor="middle" x="189" y="-7.5" font-family="Helvetica,sans-Serif" font-size="10.00" fill="#000000">JS_GetException</text>
</a>
</g>
</g>
<!-- Node295654&#45;&gt;Node296026 -->
<g id="edge57" class="edge">
<title>Node295654&#45;&gt;Node296026</title>
<path fill="none" stroke="#191970" d="M51.1456,-537.955C54.6963,-461.5076 74.0398,-116.5168 137,-34 139.7546,-30.3898 143.1814,-27.3038 146.9529,-24.67"/>
<polygon fill="#191970" stroke="#191970" points="148.7645,-27.6652 155.6329,-19.5983 145.2329,-21.6213 148.7645,-27.6652"/>
</g>
<!-- Node295656 -->
<g id="node3" class="node">
<title>Node295656</title>
<g id="a_node3"><a xlink:href="quickjs_8c.html#ac2894ff4edcdb4e6841bcce9c76081e3" target="_top" xlink:title="JS_CallInternal">
<polygon fill="none" stroke="#ff0000" points="286,-815.5 286,-834.5 369,-834.5 369,-815.5 286,-815.5"/>
<text text-anchor="middle" x="327.5" y="-822.5" font-family="Helvetica,sans-Serif" font-size="10.00" fill="#000000">JS_CallInternal</text>
</a>
</g>
</g>
<!-- Node295655&#45;&gt;Node295656 -->
<g id="edge2" class="edge">
<title>Node295655&#45;&gt;Node295656</title>
<path fill="none" stroke="#191970" d="M226.8457,-799.5639C243.1821,-803.6922 262.4766,-808.5681 279.7797,-812.9407"/>
<polygon fill="#191970" stroke="#191970" points="279.1473,-816.3909 289.7,-815.4477 280.8624,-809.6042 279.1473,-816.3909"/>
</g>
<!-- Node295656&#45;&gt;Node295656 -->
<g id="edge15" class="edge">
<title>Node295656&#45;&gt;Node295656</title>
<path fill="none" stroke="#191970" d="M306.2302,-834.7571C295.8827,-843.5653 302.9727,-853 327.5,-853 343.2128,-853 351.7693,-849.128 353.1695,-844.0292"/>
<polygon fill="#191970" stroke="#191970" points="356.2189,-842.2911 348.7698,-834.7571 349.8948,-845.292 356.2189,-842.2911"/>
</g>
<!-- Node295657 -->
<g id="node4" class="node">
<title>Node295657</title>
<g id="a_node4"><a xlink:href="quickjs_8c.html#a853f0924d441ea4225488f37c8b69f9a" target="_top" xlink:title="__attribute__">
<polygon fill="none" stroke="#000000" points="440,-796.5 440,-815.5 513,-815.5 513,-796.5 440,-796.5"/>
<text text-anchor="middle" x="476.5" y="-803.5" font-family="Helvetica,sans-Serif" font-size="10.00" fill="#000000">__attribute__</text>
</a>
</g>
</g>
<!-- Node295656&#45;&gt;Node295657 -->
<g id="edge3" class="edge">
<title>Node295656&#45;&gt;Node295657</title>
<path fill="none" stroke="#191970" d="M369.0048,-819.7074C387.8365,-817.3061 410.1929,-814.4553 429.6272,-811.9771"/>
<polygon fill="#191970" stroke="#191970" points="430.3081,-815.4187 439.785,-810.6818 429.4226,-808.4749 430.3081,-815.4187"/>
</g>
<!-- Node295658 -->
<g id="node5" class="node">
<title>Node295658</title>
<g id="a_node5"><a xlink:href="quickjs_8c.html#a877fcb7651d95b411ce70e62b7f4a1f0" target="_top" xlink:title="__JS_AtomFromUInt32">
<polygon fill="none" stroke="#000000" points="417,-1062.5 417,-1081.5 536,-1081.5 536,-1062.5 417,-1062.5"/>
<text text-anchor="middle" x="476.5" y="-1069.5" font-family="Helvetica,sans-Serif" font-size="10.00" fill="#000000">__JS_AtomFromUInt32</text>
</a>
</g>
</g>
<!-- Node295656&#45;&gt;Node295658 -->
<g id="edge4" class="edge">
<title>Node295656&#45;&gt;Node295658</title>
<path fill="none" stroke="#191970" d="M328.2379,-834.8946C331.3984,-870.0632 346.8836,-990.2669 414,-1053 415.6829,-1054.573 417.4923,-1056.0161 419.3974,-1057.3398"/>
<polygon fill="#191970" stroke="#191970" points="417.8503,-1060.4869 428.2686,-1062.4131 421.3254,-1054.4104 417.8503,-1060.4869"/>
</g>
<!-- Node295659 -->
<g id="node6" class="node">
<title>Node295659</title>
<g id="a_node6"><a xlink:href="quickjs_8h.html#a9bf98b18de88b4199910a43e933eb97d" target="_top" xlink:title="__JS_NewFloat64">
<polygon fill="none" stroke="#000000" points="428,-1024.5 428,-1043.5 525,-1043.5 525,-1024.5 428,-1024.5"/>
<text text-anchor="middle" x="476.5" y="-1031.5" font-family="Helvetica,sans-Serif" font-size="10.00" fill="#000000">__JS_NewFloat64</text>
</a>
</g>
</g>
<!-- Node295656&#45;&gt;Node295659 -->
<g id="edge5" class="edge">
<title>Node295656&#45;&gt;Node295659</title>
<path fill="none" stroke="#191970" d="M329.3247,-834.5478C335.5557,-864.6351 358.7445,-958.5207 414,-1010 418.304,-1014.0098 423.3489,-1017.3722 428.6735,-1020.1864"/>
<polygon fill="#191970" stroke="#191970" points="427.2724,-1023.3946 437.8173,-1024.4225 430.215,-1017.0431 427.2724,-1023.3946"/>
</g>
<!-- Node295660 -->
<g id="node7" class="node">
<title>Node295660</title>
<g id="a_node7"><a xlink:href="quickjs_8c.html#a74547db03bf739a52c83a326b32db997" target="_top" xlink:title="add_property">
<polygon fill="none" stroke="#ff0000" points="440,-948.5 440,-967.5 513,-967.5 513,-948.5 440,-948.5"/>
<text text-anchor="middle" x="476.5" y="-955.5" font-family="Helvetica,sans-Serif" font-size="10.00" fill="#000000">add_property</text>
</a>
</g>
</g>
<!-- Node295656&#45;&gt;Node295660 -->
<g id="edge6" class="edge">
<title>Node295656&#45;&gt;Node295660</title>
<path fill="none" stroke="#191970" d="M332.0883,-834.5726C343.0685,-856.4582 373.0241,-910.4578 414,-939 418.8885,-942.4051 424.4025,-945.2129 430.0794,-947.5249"/>
<polygon fill="#191970" stroke="#191970" points="429.1107,-950.8955 439.7053,-950.9661 431.4671,-944.304 429.1107,-950.8955"/>
</g>
<!-- Node295716 -->
<g id="node8" class="node">
<title>Node295716</title>
<g id="a_node8"><a xlink:href="quickjs_8c.html#a4956f45ffd2849b96dc051277264f87a" target="_top" xlink:title="build_arg_list">
<polygon fill="none" stroke="#ff0000" points="439.5,-834.5 439.5,-853.5 513.5,-853.5 513.5,-834.5 439.5,-834.5"/>
<text text-anchor="middle" x="476.5" y="-841.5" font-family="Helvetica,sans-Serif" font-size="10.00" fill="#000000">build_arg_list</text>
</a>
</g>
</g>
<!-- Node295656&#45;&gt;Node295716 -->
<g id="edge7" class="edge">
<title>Node295656&#45;&gt;Node295716</title>
<path fill="none" stroke="#191970" d="M369.0048,-830.2926C387.6905,-832.6753 409.8465,-835.5006 429.1747,-837.9652"/>
<polygon fill="#191970" stroke="#191970" points="428.9229,-841.4614 439.2854,-839.2545 429.8084,-834.5176 428.9229,-841.4614"/>
</g>
<!-- Node295656&#45;&gt;Node295688 -->
<g id="edge16" class="edge">
<title>Node295656&#45;&gt;Node295688</title>
<path fill="none" stroke="#191970" d="M343.7178,-834.5732C360.6057,-843.9426 388.1554,-857.5734 414,-863 468.37,-874.416 483.8309,-869.541 539,-863 551.2572,-861.5467 564.3647,-858.8673 576.3092,-855.9695"/>
<polygon fill="#191970" stroke="#191970" points="577.1917,-859.3566 586.0249,-853.5063 575.4714,-852.5713 577.1917,-859.3566"/>
</g>
<!-- Node295656&#45;&gt;Node295726 -->
<g id="edge18" class="edge">
<title>Node295656&#45;&gt;Node295726</title>
<path fill="none" stroke="#191970" d="M347.923,-815.4573C365.3257,-807.464 391.0846,-795.9573 414,-787 468.7191,-765.6112 498.6432,-786.6964 539,-744 575.5165,-705.3665 605.3936,-540.9561 614.8608,-483.7314"/>
<polygon fill="#191970" stroke="#191970" points="618.3729,-483.9385 616.5223,-473.5065 611.4636,-482.8156 618.3729,-483.9385"/>
</g>
<!-- Node295792 -->
<g id="node11" class="node">
<title>Node295792</title>
<g id="a_node11"><a xlink:href="quickjs_8c.html#a61c8dfb5e807af1b6ff7d8ca61576dda" target="_top" xlink:title="build_backtrace">
<polygon fill="none" stroke="#ff0000" points="434,-1138.5 434,-1157.5 519,-1157.5 519,-1138.5 434,-1138.5"/>
<text text-anchor="middle" x="476.5" y="-1145.5" font-family="Helvetica,sans-Serif" font-size="10.00" fill="#000000">build_backtrace</text>
</a>
</g>
</g>
<!-- Node295656&#45;&gt;Node295792 -->
<g id="edge10" class="edge">
<title>Node295656&#45;&gt;Node295792</title>
<path fill="none" stroke="#191970" d="M328.8587,-834.9625C334.2376,-871.6977 356.6151,-1002.0398 414,-1091 424.5135,-1107.2985 440.8137,-1121.9509 454.1317,-1132.3178"/>
<polygon fill="#191970" stroke="#191970" points="452.2609,-1135.2895 462.3621,-1138.4857 456.4588,-1129.6879 452.2609,-1135.2895"/>
</g>
<!-- Node295656&#45;&gt;Node295727 -->
<g id="edge20" class="edge">
<title>Node295656&#45;&gt;Node295727</title>
<path fill="none" stroke="#191970" d="M330.2795,-834.8688C338.3963,-861.8703 364.6662,-937.5708 414,-977 459.3589,-1013.2523 493.3057,-979.1714 539,-1015 577.4175,-1045.1229 601.1084,-1099.5253 611.6166,-1128.5392"/>
<polygon fill="#191970" stroke="#191970" points="608.4215,-1130.0087 615.0017,-1138.3124 615.036,-1127.7176 608.4215,-1130.0087"/>
</g>
<!-- Node295906 -->
<g id="node13" class="node">
<title>Node295906</title>
<g id="a_node13"><a xlink:href="quickjs_8c.html#a344894112559c2ba75043fd10bcfa02f" target="_top" xlink:title="close_lexical_var">
<polygon fill="none" stroke="#ff0000" points="430.5,-910.5 430.5,-929.5 522.5,-929.5 522.5,-910.5 430.5,-910.5"/>
<text text-anchor="middle" x="476.5" y="-917.5" font-family="Helvetica,sans-Serif" font-size="10.00" fill="#000000">close_lexical_var</text>
</a>
</g>
</g>
<!-- Node295656&#45;&gt;Node295906 -->
<g id="edge12" class="edge">
<title>Node295656&#45;&gt;Node295906</title>
<path fill="none" stroke="#191970" d="M337.0932,-834.6655C352.2724,-849.5213 383.2695,-878.1194 414,-896 420.9226,-900.0279 428.6466,-903.6263 436.2391,-906.7345"/>
<polygon fill="#191970" stroke="#191970" points="435.1267,-910.0569 445.7158,-910.4049 437.6549,-903.5294 435.1267,-910.0569"/>
</g>
<!-- Node295907 -->
<g id="node14" class="node">
<title>Node295907</title>
<g id="a_node14"><a xlink:href="quickjs_8c.html#a1782043fce951bd4f0d91c7796b31e24" target="_top" xlink:title="close_var_refs">
<polygon fill="none" stroke="#ff0000" points="436.5,-606.5 436.5,-625.5 516.5,-625.5 516.5,-606.5 436.5,-606.5"/>
<text text-anchor="middle" x="476.5" y="-613.5" font-family="Helvetica,sans-Serif" font-size="10.00" fill="#000000">close_var_refs</text>
</a>
</g>
</g>
<!-- Node295656&#45;&gt;Node295907 -->
<g id="edge14" class="edge">
<title>Node295656&#45;&gt;Node295907</title>
<path fill="none" stroke="#191970" d="M329.0096,-815.4624C334.4103,-784.5392 355.6555,-686.1048 414,-635 417.847,-631.6304 422.278,-628.8583 426.9678,-626.5778"/>
<polygon fill="#191970" stroke="#191970" points="428.3045,-629.8126 436.2202,-622.7704 425.6407,-623.3393 428.3045,-629.8126"/>
</g>
<!-- Node295656&#45;&gt;Node295709 -->
<g id="edge17" class="edge">
<title>Node295656&#45;&gt;Node295709</title>
<path fill="none" stroke="#191970" d="M334.9634,-815.3979C348.7157,-798.3758 379.796,-762.9237 414,-744 464.2771,-716.1837 500.957,-754.0612 539,-711 578.4936,-666.2968 563.4142,-503.514 575,-445 585.4891,-392.0251 603.0294,-330.7476 612.1267,-300.2772"/>
<polygon fill="#191970" stroke="#191970" points="615.5335,-301.1021 615.0676,-290.5175 608.8312,-299.0824 615.5335,-301.1021"/>
</g>
<!-- Node295656&#45;&gt;Node295778 -->
<g id="edge19" class="edge">
<title>Node295656&#45;&gt;Node295778</title>
<path fill="none" stroke="#191970" d="M332.6918,-815.4266C344.4745,-794.5346 375.248,-744.4516 414,-716 419.5395,-711.9329 425.8541,-708.4643 432.2902,-705.5346"/>
<polygon fill="#191970" stroke="#191970" points="433.8333,-708.6838 441.7307,-701.621 431.1526,-702.2174 433.8333,-708.6838"/>
</g>
<!-- Node295656&#45;&gt;Node295833 -->
<g id="edge21" class="edge">
<title>Node295656&#45;&gt;Node295833</title>
<path fill="none" stroke="#191970" d="M329.508,-815.1213C336.5979,-781.9296 362.8301,-672.2784 414,-597 424.9033,-580.9596 441.1911,-566.299 454.4058,-555.8637"/>
<polygon fill="#191970" stroke="#191970" points="456.7306,-558.4924 462.5584,-549.6443 452.4849,-552.9269 456.7306,-558.4924"/>
</g>
<!-- Node295656&#45;&gt;Node296084 -->
<g id="edge23" class="edge">
<title>Node295656&#45;&gt;Node296084</title>
<path fill="none" stroke="#191970" d="M330.2795,-815.1312C338.3963,-788.1297 364.6662,-712.4292 414,-673 420.2914,-667.9717 427.9018,-664.2711 435.6154,-661.5484"/>
<polygon fill="#191970" stroke="#191970" points="436.7956,-664.848 445.3495,-658.5964 434.7641,-658.1492 436.7956,-664.848"/>
</g>
<!-- Node295716&#45;&gt;Node295688 -->
<g id="edge8" class="edge">
<title>Node295716&#45;&gt;Node295688</title>
<path fill="none" stroke="#191970" d="M513.6775,-844C530.5946,-844 550.8455,-844 568.9852,-844"/>
<polygon fill="#191970" stroke="#191970" points="569.0947,-847.5001 579.0947,-844 569.0946,-840.5001 569.0947,-847.5001"/>
</g>
<!-- Node295716&#45;&gt;Node295726 -->
<g id="edge9" class="edge">
<title>Node295716&#45;&gt;Node295726</title>
<path fill="none" stroke="#191970" d="M513.5001,-839.5693C522.9443,-836.7655 532.3066,-832.2491 539,-825 586.0054,-774.0915 609.931,-552.0824 616.2596,-483.9539"/>
<polygon fill="#191970" stroke="#191970" points="619.7685,-484.0123 617.1824,-473.7379 612.7969,-483.3825 619.7685,-484.0123"/>
</g>
<!-- Node295792&#45;&gt;Node295727 -->
<g id="edge11" class="edge">
<title>Node295792&#45;&gt;Node295727</title>
<path fill="none" stroke="#191970" d="M519.3387,-1148C535.086,-1148 553.0303,-1148 569.2588,-1148"/>
<polygon fill="#191970" stroke="#191970" points="569.6352,-1151.5001 579.6352,-1148 569.6351,-1144.5001 569.6352,-1151.5001"/>
</g>
<!-- Node295906&#45;&gt;Node295688 -->
<g id="edge13" class="edge">
<title>Node295906&#45;&gt;Node295688</title>
<path fill="none" stroke="#191970" d="M505.3767,-910.3892C516.1525,-906.4219 528.3501,-901.4687 539,-896 559.6352,-885.4038 581.5539,-870.6667 597.0552,-859.5859"/>
<polygon fill="#191970" stroke="#191970" points="599.3445,-862.2491 605.3824,-853.5431 595.2332,-856.5836 599.3445,-862.2491"/>
</g>
<!-- Node295833&#45;&gt;Node295709 -->
<g id="edge22" class="edge">
<title>Node295833&#45;&gt;Node295709</title>
<path fill="none" stroke="#191970" d="M490.4005,-530.3276C504.3411,-520.0071 525.6089,-502.486 539,-483 580.1683,-423.0943 604.1686,-338.6809 613.4846,-300.7787"/>
<polygon fill="#191970" stroke="#191970" points="616.9995,-301.1262 615.9071,-290.5879 610.1893,-299.5073 616.9995,-301.1262"/>
</g>
<!-- Node296085&#45;&gt;Node295726 -->
<g id="edge29" class="edge">
<title>Node296085&#45;&gt;Node295726</title>
<path fill="none" stroke="#191970" d="M362.5708,-468.1494C378.0289,-474.0392 396.6019,-480.0686 414,-483 468.7834,-492.2303 483.8309,-489.541 539,-483 551.2572,-481.5467 564.3647,-478.8673 576.3092,-475.9695"/>
<polygon fill="#191970" stroke="#191970" points="577.1917,-479.3566 586.0249,-473.5063 575.4714,-472.5713 577.1917,-479.3566"/>
</g>
<!-- Node296085&#45;&gt;Node295709 -->
<g id="edge28" class="edge">
<title>Node296085&#45;&gt;Node295709</title>
<path fill="none" stroke="#191970" d="M348.3536,-437.8795C357.9559,-430.3803 369.154,-420.8348 378,-411 397.2895,-389.5544 390.5317,-373.7702 414,-357 460.7495,-323.5932 485.6034,-345.2212 539,-324 558.3477,-316.3107 578.9708,-304.9672 594.2928,-295.8615"/>
<polygon fill="#191970" stroke="#191970" points="596.3489,-298.7082 603.0891,-290.5338 592.7224,-292.7208 596.3489,-298.7082"/>
</g>
<!-- Node296086 -->
<g id="node20" class="node">
<title>Node296086</title>
<g id="a_node20"><a xlink:href="quickjs_8c.html#aa4b0672b30fbf661af60cf49cfadbe8f" target="_top" xlink:title="js_async_generator\l_resolve_function_create">
<polygon fill="none" stroke="#ff0000" points="414,-367 414,-397 539,-397 539,-367 414,-367"/>
<text text-anchor="start" x="422" y="-385" font-family="Helvetica,sans-Serif" font-size="10.00" fill="#000000">js_async_generator</text>
<text text-anchor="middle" x="476.5" y="-374" font-family="Helvetica,sans-Serif" font-size="10.00" fill="#000000">_resolve_function_create</text>
</a>
</g>
</g>
<!-- Node296085&#45;&gt;Node296086 -->
<g id="edge25" class="edge">
<title>Node296085&#45;&gt;Node296086</title>
<path fill="none" stroke="#191970" d="M354.007,-437.9438C370.9356,-428.5694 393.4815,-416.5255 414,-407 418.3427,-404.984 422.8961,-402.9729 427.4816,-401.0169"/>
<polygon fill="#191970" stroke="#191970" points="429.0002,-404.1758 436.8817,-397.0952 426.305,-397.7154 429.0002,-404.1758"/>
</g>
<!-- Node296088 -->
<g id="node21" class="node">
<title>Node296088</title>
<g id="a_node21"><a xlink:href="quickjs_8c.html#a192c7bd4fc5264ccdf89e13ed5bc0dcc" target="_top" xlink:title="js_promise_resolve">
<polygon fill="none" stroke="#ff0000" points="426,-416.5 426,-435.5 527,-435.5 527,-416.5 426,-416.5"/>
<text text-anchor="middle" x="476.5" y="-423.5" font-family="Helvetica,sans-Serif" font-size="10.00" fill="#000000">js_promise_resolve</text>
</a>
</g>
</g>
<!-- Node296085&#45;&gt;Node296088 -->
<g id="edge30" class="edge">
<title>Node296085&#45;&gt;Node296088</title>
<path fill="none" stroke="#191970" d="M378.3606,-443.7836C390.4676,-441.5898 403.5038,-439.2275 415.9955,-436.9639"/>
<polygon fill="#191970" stroke="#191970" points="416.6529,-440.4019 425.8686,-435.1748 415.4048,-433.514 416.6529,-440.4019"/>
</g>
<!-- Node296090 -->
<g id="node22" class="node">
<title>Node296090</title>
<g id="a_node22"><a xlink:href="quickjs_8c.html#a944c09a3f1ce23a5760b6ed6e83e3644" target="_top" xlink:title="perform_promise_then">
<polygon fill="none" stroke="#ff0000" points="420,-454.5 420,-473.5 533,-473.5 533,-454.5 420,-454.5"/>
<text text-anchor="middle" x="476.5" y="-461.5" font-family="Helvetica,sans-Serif" font-size="10.00" fill="#000000">perform_promise_then</text>
</a>
</g>
</g>
<!-- Node296085&#45;&gt;Node296090 -->
<g id="edge34" class="edge">
<title>Node296085&#45;&gt;Node296090</title>
<path fill="none" stroke="#191970" d="M378.3606,-456.7548C388.5187,-457.5047 399.3309,-458.303 409.9268,-459.0852"/>
<polygon fill="#191970" stroke="#191970" points="409.7605,-462.5824 419.9911,-459.8282 410.2759,-455.6014 409.7605,-462.5824"/>
</g>
<!-- Node296086&#45;&gt;Node295726 -->
<g id="edge27" class="edge">
<title>Node296086&#45;&gt;Node295726</title>
<path fill="none" stroke="#191970" d="M518.1748,-397.0121C525.263,-400.0316 532.4462,-403.3961 539,-407 560.6322,-418.8955 583.2797,-435.7573 598.7517,-448.0544"/>
<polygon fill="#191970" stroke="#191970" points="596.5776,-450.7975 606.557,-454.3561 600.9749,-445.351 596.5776,-450.7975"/>
</g>
<!-- Node296086&#45;&gt;Node295709 -->
<g id="edge26" class="edge">
<title>Node296086&#45;&gt;Node295709</title>
<path fill="none" stroke="#191970" d="M512.5032,-366.8702C521.438,-362.5403 530.798,-357.4895 539,-352 562.751,-336.1037 586.6989,-313.432 601.9001,-298.0151"/>
<polygon fill="#191970" stroke="#191970" points="604.5558,-300.3041 609.0047,-290.6886 599.5305,-295.431 604.5558,-300.3041"/>
</g>
<!-- Node296088&#45;&gt;Node295688 -->
<g id="edge31" class="edge">
<title>Node296088&#45;&gt;Node295688</title>
<path fill="none" stroke="#191970" d="M526.6046,-435.5715C531.2389,-438.0405 535.4994,-441.132 539,-445 590.7242,-502.1538 611.6822,-752.0137 616.7311,-824.3275"/>
<polygon fill="#191970" stroke="#191970" points="613.2421,-824.6104 617.4071,-834.3522 620.2263,-824.1394 613.2421,-824.6104"/>
</g>
<!-- Node296088&#45;&gt;Node295726 -->
<g id="edge33" class="edge">
<title>Node296088&#45;&gt;Node295726</title>
<path fill="none" stroke="#191970" d="M512.2064,-435.589C530.4727,-440.4944 552.9084,-446.5196 572.4112,-451.7571"/>
<polygon fill="#191970" stroke="#191970" points="571.7394,-455.2006 582.305,-454.4141 573.555,-448.4401 571.7394,-455.2006"/>
</g>
<!-- Node296088&#45;&gt;Node295709 -->
<g id="edge32" class="edge">
<title>Node296088&#45;&gt;Node295709</title>
<path fill="none" stroke="#191970" d="M520.1527,-416.3972C526.8665,-413.7237 533.4132,-410.322 539,-406 575.3893,-377.8488 599.5452,-327.8542 610.7626,-300.3946"/>
<polygon fill="#191970" stroke="#191970" points="614.1506,-301.342 614.5441,-290.7544 607.634,-298.7857 614.1506,-301.342"/>
</g>
<!-- Node296090&#45;&gt;Node295688 -->
<g id="edge35" class="edge">
<title>Node296090&#45;&gt;Node295688</title>
<path fill="none" stroke="#191970" d="M491.2161,-473.5107C505.5916,-483.5798 527.0076,-500.794 539,-521 599.939,-623.676 613.9763,-771.2732 617.1206,-824.1893"/>
<polygon fill="#191970" stroke="#191970" points="613.6294,-824.4512 617.651,-834.2531 620.6197,-824.0827 613.6294,-824.4512"/>
</g>
<!-- Node296095 -->
<g id="node24" class="node">
<title>Node296095</title>
<g id="a_node24"><a xlink:href="quickjs_8c.html#ab3180b5caf3b66ac6db634e41e56a4ef" target="_top" xlink:title="async_func_free">
<polygon fill="none" stroke="#ff0000" points="283,-606.5 283,-625.5 372,-625.5 372,-606.5 283,-606.5"/>
<text text-anchor="middle" x="327.5" y="-613.5" font-family="Helvetica,sans-Serif" font-size="10.00" fill="#000000">async_func_free</text>
</a>
</g>
</g>
<!-- Node296094&#45;&gt;Node296095 -->
<g id="edge37" class="edge">
<title>Node296094&#45;&gt;Node296095</title>
<path fill="none" stroke="#191970" d="M239.7858,-616C250.4338,-616 261.7101,-616 272.5034,-616"/>
<polygon fill="#191970" stroke="#191970" points="272.6676,-619.5001 282.6675,-616 272.6675,-612.5001 272.6676,-619.5001"/>
</g>
<!-- Node296095&#45;&gt;Node295907 -->
<g id="edge38" class="edge">
<title>Node296095&#45;&gt;Node295907</title>
<path fill="none" stroke="#191970" d="M372.2049,-616C389.2593,-616 408.8077,-616 426.3367,-616"/>
<polygon fill="#191970" stroke="#191970" points="426.3901,-619.5001 436.3901,-616 426.39,-612.5001 426.3901,-619.5001"/>
</g>
<!-- Node296096&#45;&gt;Node295726 -->
<g id="edge42" class="edge">
<title>Node296096&#45;&gt;Node295726</title>
<path fill="none" stroke="#191970" d="M358.3873,-371.9007C401.281,-353.2323 480.2326,-327.3396 539,-357 575.4171,-375.38 599.1933,-419.347 610.433,-444.8342"/>
<polygon fill="#191970" stroke="#191970" points="607.2672,-446.3355 614.365,-454.2013 613.7216,-443.626 607.2672,-446.3355"/>
</g>
<!-- Node296096&#45;&gt;Node295709 -->
<g id="edge41" class="edge">
<title>Node296096&#45;&gt;Node295709</title>
<path fill="none" stroke="#191970" d="M351.7855,-371.9586C368.7508,-361.9166 392.1822,-348.9589 414,-340 465.3565,-318.9119 526.8795,-302.2186 568.8394,-292.0463"/>
<polygon fill="#191970" stroke="#191970" points="569.8908,-295.3937 578.8028,-289.6643 568.2631,-288.5855 569.8908,-295.3937"/>
</g>
<!-- Node296096&#45;&gt;Node296086 -->
<g id="edge40" class="edge">
<title>Node296096&#45;&gt;Node296086</title>
<path fill="none" stroke="#191970" d="M378.3606,-385.2933C386.5408,-385.0188 395.1452,-384.73 403.7193,-384.4423"/>
<polygon fill="#191970" stroke="#191970" points="403.8663,-387.9394 413.7433,-384.1059 403.6315,-380.9434 403.8663,-387.9394"/>
</g>
<!-- Node296096&#45;&gt;Node296088 -->
<g id="edge43" class="edge">
<title>Node296096&#45;&gt;Node296088</title>
<path fill="none" stroke="#191970" d="M378.3606,-400.3125C395.1162,-404.6982 413.6516,-409.5498 430.0602,-413.8446"/>
<polygon fill="#191970" stroke="#191970" points="429.4067,-417.2914 439.967,-416.4377 431.1792,-410.5195 429.4067,-417.2914"/>
</g>
<!-- Node296096&#45;&gt;Node296090 -->
<g id="edge44" class="edge">
<title>Node296096&#45;&gt;Node296090</title>
<path fill="none" stroke="#191970" d="M346.4342,-402.1079C363.3301,-414.9832 389.1689,-433.2221 414,-445 418.6831,-447.2213 423.6861,-449.255 428.7455,-451.0974"/>
<polygon fill="#191970" stroke="#191970" points="427.8808,-454.5001 438.4752,-454.4034 430.1329,-447.8722 427.8808,-454.5001"/>
</g>
<!-- Node296098 -->
<g id="node27" class="node">
<title>Node296098</title>
<g id="a_node27"><a xlink:href="quickjs_8c.html#a3e852026d167fa03c673f86697dd3e67" target="_top" xlink:title="js_async_generator\l_resolve_or_reject">
<polygon fill="none" stroke="#ff0000" points="426,-77 426,-107 527,-107 527,-77 426,-77"/>
<text text-anchor="start" x="434" y="-95" font-family="Helvetica,sans-Serif" font-size="10.00" fill="#000000">js_async_generator</text>
<text text-anchor="middle" x="476.5" y="-84" font-family="Helvetica,sans-Serif" font-size="10.00" fill="#000000">_resolve_or_reject</text>
</a>
</g>
</g>
<!-- Node296097&#45;&gt;Node296098 -->
<g id="edge46" class="edge">
<title>Node296097&#45;&gt;Node296098</title>
<path fill="none" stroke="#191970" d="M239.7374,-133.9996C288.8537,-125.2868 363.3585,-112.0703 415.641,-102.7959"/>
<polygon fill="#191970" stroke="#191970" points="416.5521,-106.189 425.7871,-100.996 415.3294,-99.2966 416.5521,-106.189"/>
</g>
<!-- Node296098&#45;&gt;Node295709 -->
<g id="edge47" class="edge">
<title>Node296098&#45;&gt;Node295709</title>
<path fill="none" stroke="#191970" d="M518.0378,-107.1272C525.6113,-111.1591 533.0021,-116.0832 539,-122 580.2039,-162.647 603.4651,-229.2089 612.9372,-261.8006"/>
<polygon fill="#191970" stroke="#191970" points="609.5737,-262.7693 615.6268,-271.4647 616.3174,-260.8924 609.5737,-262.7693"/>
</g>
<!-- Node296099&#45;&gt;Node295688 -->
<g id="edge53" class="edge">
<title>Node296099&#45;&gt;Node295688</title>
<path fill="none" stroke="#191970" d="M356.4119,-195.1031C403.2611,-221.2341 494.9506,-279.5988 539,-357 562.6683,-398.5887 605.2124,-738.6568 615.6435,-824.4188"/>
<polygon fill="#191970" stroke="#191970" points="612.1731,-824.8756 616.8496,-834.3825 619.1224,-824.0343 612.1731,-824.8756"/>
</g>
<!-- Node296099&#45;&gt;Node295709 -->
<g id="edge54" class="edge">
<title>Node296099&#45;&gt;Node295709</title>
<path fill="none" stroke="#191970" d="M359.8724,-164.9715C403.4459,-147.1254 482.0603,-123.4943 539,-155 580.2663,-177.8333 602.864,-232.2321 612.4246,-261.5253"/>
<polygon fill="#191970" stroke="#191970" points="609.1779,-262.8751 615.4622,-271.4049 615.8688,-260.8179 609.1779,-262.8751"/>
</g>
<!-- Node296099&#45;&gt;Node296098 -->
<g id="edge49" class="edge">
<title>Node296099&#45;&gt;Node296098</title>
<path fill="none" stroke="#191970" d="M348.29,-164.8297C365.4851,-152.5862 390.7655,-135.2752 414,-122 420.3225,-118.3876 427.1474,-114.8071 433.884,-111.4451"/>
<polygon fill="#191970" stroke="#191970" points="435.5096,-114.5464 442.9601,-107.0137 432.4383,-108.2561 435.5096,-114.5464"/>
</g>
<!-- Node296100 -->
<g id="node29" class="node">
<title>Node296100</title>
<g id="a_node29"><a xlink:href="quickjs_8c.html#a7346b86113acd072c9cfc8d238c4ff7c" target="_top" xlink:title="js_create_iterator\l_result">
<polygon fill="none" stroke="#ff0000" points="430.5,-165 430.5,-195 522.5,-195 522.5,-165 430.5,-165"/>
<text text-anchor="start" x="438.5" y="-183" font-family="Helvetica,sans-Serif" font-size="10.00" fill="#000000">js_create_iterator</text>
<text text-anchor="middle" x="476.5" y="-172" font-family="Helvetica,sans-Serif" font-size="10.00" fill="#000000">_result</text>
</a>
</g>
</g>
<!-- Node296099&#45;&gt;Node296100 -->
<g id="edge50" class="edge">
<title>Node296099&#45;&gt;Node296100</title>
<path fill="none" stroke="#191970" d="M378.3606,-180C391.7967,-180 406.3773,-180 420.0879,-180"/>
<polygon fill="#191970" stroke="#191970" points="420.3695,-183.5001 430.3695,-180 420.3695,-176.5001 420.3695,-183.5001"/>
</g>
<!-- Node296100&#45;&gt;Node295726 -->
<g id="edge52" class="edge">
<title>Node296100&#45;&gt;Node295726</title>
<path fill="none" stroke="#191970" d="M493.6163,-195.0132C507.4404,-207.9061 526.5743,-227.5939 539,-248 579.535,-314.5686 604.1839,-405.1972 613.6067,-444.496"/>
<polygon fill="#191970" stroke="#191970" points="610.2271,-445.4155 615.9071,-454.3592 617.0442,-443.8255 610.2271,-445.4155"/>
</g>
<!-- Node296100&#45;&gt;Node295709 -->
<g id="edge51" class="edge">
<title>Node296100&#45;&gt;Node295709</title>
<path fill="none" stroke="#191970" d="M512.5032,-195.1298C521.438,-199.4597 530.798,-204.5105 539,-210 562.751,-225.8963 586.6989,-248.568 601.9001,-263.9849"/>
<polygon fill="#191970" stroke="#191970" points="599.5305,-266.569 609.0047,-271.3114 604.5558,-261.6959 599.5305,-266.569"/>
</g>
</g>
</svg>
