<?xml version="1.0" encoding="UTF-8" standalone="no"?>
<!DOCTYPE svg PUBLIC "-//W3C//DTD SVG 1.1//EN"
 "http://www.w3.org/Graphics/SVG/1.1/DTD/svg11.dtd">
<!-- Generated by graphviz version 2.40.1 (20161225.0304)
 -->
<!-- Title: set_object_name Pages: 1 -->
<svg width="578pt" height="256pt"
 viewBox="0.00 0.00 578.00 256.00" xmlns="http://www.w3.org/2000/svg" xmlns:xlink="http://www.w3.org/1999/xlink">
<g id="graph0" class="graph" transform="scale(1 1) rotate(0) translate(4 252)">
<title>set_object_name</title>
<!-- Node304650 -->
<g id="node1" class="node">
<title>Node304650</title>
<polygon fill="#bfbfbf" stroke="#000000" points="0,-114.5 0,-133.5 91,-133.5 91,-114.5 0,-114.5"/>
<text text-anchor="middle" x="45.5" y="-121.5" font-family="Helvetica,sans-Serif" font-size="10.00" fill="#000000">set_object_name</text>
</g>
<!-- Node304651 -->
<g id="node2" class="node">
<title>Node304651</title>
<g id="a_node2"><a xlink:href="quickjs_8c.html#aa57b449a878287663249bb7ab23ed8e9" target="_top" xlink:title="emit_atom">
<polygon fill="none" stroke="#000000" points="141.5,-190.5 141.5,-209.5 203.5,-209.5 203.5,-190.5 141.5,-190.5"/>
<text text-anchor="middle" x="172.5" y="-197.5" font-family="Helvetica,sans-Serif" font-size="10.00" fill="#000000">emit_atom</text>
</a>
</g>
</g>
<!-- Node304650&#45;&gt;Node304651 -->
<g id="edge1" class="edge">
<title>Node304650&#45;&gt;Node304651</title>
<path fill="none" stroke="#191970" d="M59.7058,-133.5694C75.796,-144.2887 102.9139,-161.9957 127,-176 132.4407,-179.1634 138.3337,-182.4037 144.0178,-185.439"/>
<polygon fill="#191970" stroke="#191970" points="142.7898,-188.7476 153.2698,-190.3037 146.0476,-182.5519 142.7898,-188.7476"/>
</g>
<!-- Node304656 -->
<g id="node6" class="node">
<title>Node304656</title>
<g id="a_node6"><a xlink:href="quickjs_8c.html#abbf44eaeace1104a6bef718fbf5700fe" target="_top" xlink:title="JS_DupAtom">
<polygon fill="none" stroke="#000000" points="260,-152.5 260,-171.5 335,-171.5 335,-152.5 260,-152.5"/>
<text text-anchor="middle" x="297.5" y="-159.5" font-family="Helvetica,sans-Serif" font-size="10.00" fill="#000000">JS_DupAtom</text>
</a>
</g>
</g>
<!-- Node304650&#45;&gt;Node304656 -->
<g id="edge13" class="edge">
<title>Node304650&#45;&gt;Node304656</title>
<path fill="none" stroke="#191970" d="M82.2321,-133.5347C96.1773,-136.8979 112.2512,-140.4681 127,-143 168.1009,-150.0556 215.2459,-155.0769 249.5286,-158.1786"/>
<polygon fill="#191970" stroke="#191970" points="249.4651,-161.6865 259.7342,-159.0797 250.0808,-154.7137 249.4651,-161.6865"/>
</g>
<!-- Node304658 -->
<g id="node8" class="node">
<title>Node304658</title>
<g id="a_node8"><a xlink:href="quickjs_8c.html#a832fb9c17eacb588e93f333cf8b76522" target="_top" xlink:title="emit_op">
<polygon fill="none" stroke="#000000" points="272,-228.5 272,-247.5 323,-247.5 323,-228.5 272,-228.5"/>
<text text-anchor="middle" x="297.5" y="-235.5" font-family="Helvetica,sans-Serif" font-size="10.00" fill="#000000">emit_op</text>
</a>
</g>
</g>
<!-- Node304650&#45;&gt;Node304658 -->
<g id="edge7" class="edge">
<title>Node304650&#45;&gt;Node304658</title>
<path fill="none" stroke="#191970" d="M50.4609,-133.6236C61.2931,-153.5199 89.1546,-198.9904 127,-219 169.2975,-241.3635 225.6484,-243.142 261.7599,-241.364"/>
<polygon fill="#191970" stroke="#191970" points="262.0609,-244.8522 271.8293,-240.7499 261.6347,-237.8652 262.0609,-244.8522"/>
</g>
<!-- Node304660 -->
<g id="node10" class="node">
<title>Node304660</title>
<g id="a_node10"><a xlink:href="quickjs_8c.html#a54ae8eded33038911c0fde73470ed951" target="_top" xlink:title="get_prev_opcode">
<polygon fill="none" stroke="#000000" points="127,-114.5 127,-133.5 218,-133.5 218,-114.5 127,-114.5"/>
<text text-anchor="middle" x="172.5" y="-121.5" font-family="Helvetica,sans-Serif" font-size="10.00" fill="#000000">get_prev_opcode</text>
</a>
</g>
</g>
<!-- Node304650&#45;&gt;Node304660 -->
<g id="edge11" class="edge">
<title>Node304650&#45;&gt;Node304660</title>
<path fill="none" stroke="#191970" d="M91.3499,-124C99.5329,-124 108.1406,-124 116.568,-124"/>
<polygon fill="#191970" stroke="#191970" points="116.7174,-127.5001 126.7174,-124 116.7174,-120.5001 116.7174,-127.5001"/>
</g>
<!-- Node304661 -->
<g id="node11" class="node">
<title>Node304661</title>
<g id="a_node11"><a xlink:href="cutils_8h.html#a941262a5f72fda2ec43ae7911e97a0dc" target="_top" xlink:title="get_u32">
<polygon fill="none" stroke="#000000" points="147,-76.5 147,-95.5 198,-95.5 198,-76.5 147,-76.5"/>
<text text-anchor="middle" x="172.5" y="-83.5" font-family="Helvetica,sans-Serif" font-size="10.00" fill="#000000">get_u32</text>
</a>
</g>
</g>
<!-- Node304650&#45;&gt;Node304661 -->
<g id="edge12" class="edge">
<title>Node304650&#45;&gt;Node304661</title>
<path fill="none" stroke="#191970" d="M77.5475,-114.411C95.7354,-108.9689 118.5289,-102.1488 137.2245,-96.5549"/>
<polygon fill="#191970" stroke="#191970" points="138.28,-99.8925 146.857,-93.6727 136.2733,-93.1862 138.28,-99.8925"/>
</g>
<!-- Node304662 -->
<g id="node12" class="node">
<title>Node304662</title>
<g id="a_node12"><a xlink:href="quickjs_8c.html#ab7fc45a99935a1c0ba50b0216d9401a9" target="_top" xlink:title="JS_FreeAtom">
<polygon fill="none" stroke="#000000" points="134,-38.5 134,-57.5 211,-57.5 211,-38.5 134,-38.5"/>
<text text-anchor="middle" x="172.5" y="-45.5" font-family="Helvetica,sans-Serif" font-size="10.00" fill="#000000">JS_FreeAtom</text>
</a>
</g>
</g>
<!-- Node304650&#45;&gt;Node304662 -->
<g id="edge14" class="edge">
<title>Node304650&#45;&gt;Node304662</title>
<path fill="none" stroke="#191970" d="M57.3926,-114.4506C72.8097,-102.367 100.828,-81.398 127,-67 130.4455,-65.1046 134.1195,-63.2776 137.8291,-61.5555"/>
<polygon fill="#191970" stroke="#191970" points="139.2718,-64.7446 147.0137,-57.5117 136.4511,-58.338 139.2718,-64.7446"/>
</g>
<!-- Node304667 -->
<g id="node15" class="node">
<title>Node304667</title>
<g id="a_node15"><a xlink:href="cutils_8h.html#a3b6aba81e32ed70a2a851744e5a9cc9c" target="_top" xlink:title="put_u32">
<polygon fill="none" stroke="#000000" points="147,-.5 147,-19.5 198,-19.5 198,-.5 147,-.5"/>
<text text-anchor="middle" x="172.5" y="-7.5" font-family="Helvetica,sans-Serif" font-size="10.00" fill="#000000">put_u32</text>
</a>
</g>
</g>
<!-- Node304650&#45;&gt;Node304667 -->
<g id="edge18" class="edge">
<title>Node304650&#45;&gt;Node304667</title>
<path fill="none" stroke="#191970" d="M51.5256,-114.3448C63.68,-95.5647 92.9021,-53.791 127,-29 130.2563,-26.6325 133.8519,-24.4935 137.5521,-22.5792"/>
<polygon fill="#191970" stroke="#191970" points="139.2292,-25.6596 146.832,-18.2807 136.287,-19.308 139.2292,-25.6596"/>
</g>
<!-- Node304652 -->
<g id="node3" class="node">
<title>Node304652</title>
<g id="a_node3"><a xlink:href="quickjs_8c.html#aa4ce3850b0d5830d9a617fbbdaddfa79" target="_top" xlink:title="emit_u32">
<polygon fill="none" stroke="#000000" points="269.5,-190.5 269.5,-209.5 325.5,-209.5 325.5,-190.5 269.5,-190.5"/>
<text text-anchor="middle" x="297.5" y="-197.5" font-family="Helvetica,sans-Serif" font-size="10.00" fill="#000000">emit_u32</text>
</a>
</g>
</g>
<!-- Node304651&#45;&gt;Node304652 -->
<g id="edge2" class="edge">
<title>Node304651&#45;&gt;Node304652</title>
<path fill="none" stroke="#191970" d="M203.7203,-200C220.5251,-200 241.3949,-200 259.1775,-200"/>
<polygon fill="#191970" stroke="#191970" points="259.2369,-203.5001 269.2368,-200 259.2368,-196.5001 259.2369,-203.5001"/>
</g>
<!-- Node304651&#45;&gt;Node304656 -->
<g id="edge5" class="edge">
<title>Node304651&#45;&gt;Node304656</title>
<path fill="none" stroke="#191970" d="M203.7203,-190.509C219.6789,-185.6576 239.3032,-179.6918 256.4684,-174.4736"/>
<polygon fill="#191970" stroke="#191970" points="257.6948,-177.759 266.2444,-171.5017 255.6588,-171.0616 257.6948,-177.759"/>
</g>
<!-- Node304653 -->
<g id="node4" class="node">
<title>Node304653</title>
<g id="a_node4"><a xlink:href="cutils_8h.html#a8ba08f82c43549fcb3c939229498354d" target="_top" xlink:title="dbuf_put_u32">
<polygon fill="none" stroke="#000000" points="391,-190.5 391,-209.5 466,-209.5 466,-190.5 391,-190.5"/>
<text text-anchor="middle" x="428.5" y="-197.5" font-family="Helvetica,sans-Serif" font-size="10.00" fill="#000000">dbuf_put_u32</text>
</a>
</g>
</g>
<!-- Node304652&#45;&gt;Node304653 -->
<g id="edge3" class="edge">
<title>Node304652&#45;&gt;Node304653</title>
<path fill="none" stroke="#191970" d="M325.6028,-200C341.7148,-200 362.3669,-200 380.9355,-200"/>
<polygon fill="#191970" stroke="#191970" points="380.995,-203.5001 390.9949,-200 380.9949,-196.5001 380.995,-203.5001"/>
</g>
<!-- Node304654 -->
<g id="node5" class="node">
<title>Node304654</title>
<g id="a_node5"><a xlink:href="cutils_8h.html#ad1cfaae47347ae771136b5a9bbda49aa" target="_top" xlink:title="dbuf_put">
<polygon fill="none" stroke="#ff0000" points="516,-209.5 516,-228.5 570,-228.5 570,-209.5 516,-209.5"/>
<text text-anchor="middle" x="543" y="-216.5" font-family="Helvetica,sans-Serif" font-size="10.00" fill="#000000">dbuf_put</text>
</a>
</g>
</g>
<!-- Node304653&#45;&gt;Node304654 -->
<g id="edge4" class="edge">
<title>Node304653&#45;&gt;Node304654</title>
<path fill="none" stroke="#191970" d="M466.3089,-206.274C478.9296,-208.3682 492.9807,-210.6999 505.5723,-212.7893"/>
<polygon fill="#191970" stroke="#191970" points="505.3045,-216.2926 515.7426,-214.4769 506.4505,-209.3871 505.3045,-216.2926"/>
</g>
<!-- Node304657 -->
<g id="node7" class="node">
<title>Node304657</title>
<g id="a_node7"><a xlink:href="quickjs_8c.html#a7f6796ee7a195631366f57c713a33f65" target="_top" xlink:title="__JS_AtomIsConst">
<polygon fill="none" stroke="#000000" points="377.5,-124.5 377.5,-143.5 479.5,-143.5 479.5,-124.5 377.5,-124.5"/>
<text text-anchor="middle" x="428.5" y="-131.5" font-family="Helvetica,sans-Serif" font-size="10.00" fill="#000000">__JS_AtomIsConst</text>
</a>
</g>
</g>
<!-- Node304656&#45;&gt;Node304657 -->
<g id="edge6" class="edge">
<title>Node304656&#45;&gt;Node304657</title>
<path fill="none" stroke="#191970" d="M335.0393,-153.9763C347.2095,-151.3751 360.9652,-148.4349 374.1064,-145.6261"/>
<polygon fill="#191970" stroke="#191970" points="374.9519,-149.0245 383.9994,-143.5116 373.4887,-142.1791 374.9519,-149.0245"/>
</g>
<!-- Node304658&#45;&gt;Node304653 -->
<g id="edge8" class="edge">
<title>Node304658&#45;&gt;Node304653</title>
<path fill="none" stroke="#191970" d="M323.0691,-230.583C340.858,-225.4229 365.0011,-218.4195 385.6954,-212.4166"/>
<polygon fill="#191970" stroke="#191970" points="386.9053,-215.71 395.5344,-209.5626 384.9552,-208.9871 386.9053,-215.71"/>
</g>
<!-- Node304659 -->
<g id="node9" class="node">
<title>Node304659</title>
<g id="a_node9"><a xlink:href="cutils_8h.html#aeed81d4787ccdbd55baa9b5fd6717e88" target="_top" xlink:title="dbuf_putc">
<polygon fill="none" stroke="#000000" points="399,-228.5 399,-247.5 458,-247.5 458,-228.5 399,-228.5"/>
<text text-anchor="middle" x="428.5" y="-235.5" font-family="Helvetica,sans-Serif" font-size="10.00" fill="#000000">dbuf_putc</text>
</a>
</g>
</g>
<!-- Node304658&#45;&gt;Node304659 -->
<g id="edge9" class="edge">
<title>Node304658&#45;&gt;Node304659</title>
<path fill="none" stroke="#191970" d="M323.0691,-238C341.7538,-238 367.4489,-238 388.7943,-238"/>
<polygon fill="#191970" stroke="#191970" points="388.8739,-241.5001 398.8738,-238 388.8738,-234.5001 388.8739,-241.5001"/>
</g>
<!-- Node304659&#45;&gt;Node304654 -->
<g id="edge10" class="edge">
<title>Node304659&#45;&gt;Node304654</title>
<path fill="none" stroke="#191970" d="M458.2846,-233.0576C472.713,-230.6633 490.1917,-227.763 505.5163,-225.22"/>
<polygon fill="#191970" stroke="#191970" points="506.4255,-228.6171 515.7176,-223.5272 505.2795,-221.7115 506.4255,-228.6171"/>
</g>
<!-- Node304662&#45;&gt;Node304657 -->
<g id="edge15" class="edge">
<title>Node304662&#45;&gt;Node304657</title>
<path fill="none" stroke="#191970" d="M200.8746,-57.5321C247.1037,-73.0622 338.7057,-103.8347 390.5024,-121.2352"/>
<polygon fill="#191970" stroke="#191970" points="389.4043,-124.5585 399.9983,-124.4252 391.6335,-117.9229 389.4043,-124.5585"/>
</g>
<!-- Node304663 -->
<g id="node13" class="node">
<title>Node304663</title>
<g id="a_node13"><a xlink:href="quickjs_8c.html#a0bbd9e3ecd55e3ea6c9d44bfda382095" target="_top" xlink:title="__JS_FreeAtom">
<polygon fill="none" stroke="#000000" points="254,-38.5 254,-57.5 341,-57.5 341,-38.5 254,-38.5"/>
<text text-anchor="middle" x="297.5" y="-45.5" font-family="Helvetica,sans-Serif" font-size="10.00" fill="#000000">__JS_FreeAtom</text>
</a>
</g>
</g>
<!-- Node304662&#45;&gt;Node304663 -->
<g id="edge16" class="edge">
<title>Node304662&#45;&gt;Node304663</title>
<path fill="none" stroke="#191970" d="M211.0241,-48C221.244,-48 232.472,-48 243.3558,-48"/>
<polygon fill="#191970" stroke="#191970" points="243.6412,-51.5001 253.6411,-48 243.6411,-44.5001 243.6412,-51.5001"/>
</g>
<!-- Node304664 -->
<g id="node14" class="node">
<title>Node304664</title>
<g id="a_node14"><a xlink:href="quickjs_8c.html#a58c8965dad50b15b75918a09f3d9dc7c" target="_top" xlink:title="JS_FreeAtomStruct">
<polygon fill="none" stroke="#ff0000" points="377,-38.5 377,-57.5 480,-57.5 480,-38.5 377,-38.5"/>
<text text-anchor="middle" x="428.5" y="-45.5" font-family="Helvetica,sans-Serif" font-size="10.00" fill="#000000">JS_FreeAtomStruct</text>
</a>
</g>
</g>
<!-- Node304663&#45;&gt;Node304664 -->
<g id="edge17" class="edge">
<title>Node304663&#45;&gt;Node304664</title>
<path fill="none" stroke="#191970" d="M341.1211,-48C349.3595,-48 358.1197,-48 366.7909,-48"/>
<polygon fill="#191970" stroke="#191970" points="366.8929,-51.5001 376.8928,-48 366.8928,-44.5001 366.8929,-51.5001"/>
</g>
</g>
</svg>
