<?xml version="1.0" encoding="UTF-8" standalone="no"?>
<!DOCTYPE svg PUBLIC "-//W3C//DTD SVG 1.1//EN"
 "http://www.w3.org/Graphics/SVG/1.1/DTD/svg11.dtd">
<!-- Generated by graphviz version 2.40.1 (20161225.0304)
 -->
<!-- Title: get_shape_prop Pages: 1 -->
<svg width="1253pt" height="948pt"
 viewBox="0.00 0.00 1253.00 948.00" xmlns="http://www.w3.org/2000/svg" xmlns:xlink="http://www.w3.org/1999/xlink">
<g id="graph0" class="graph" transform="scale(1 1) rotate(0) translate(4 944)">
<title>get_shape_prop</title>
<!-- Node116123 -->
<g id="node1" class="node">
<title>Node116123</title>
<polygon fill="#bfbfbf" stroke="#000000" points="0,-360.5 0,-379.5 86,-379.5 86,-360.5 0,-360.5"/>
<text text-anchor="middle" x="43" y="-367.5" font-family="Helvetica,sans-Serif" font-size="10.00" fill="#000000">get_shape_prop</text>
</g>
<!-- Node116124 -->
<g id="node2" class="node">
<title>Node116124</title>
<g id="a_node2"><a xlink:href="quickjs_8c.html#adbffd820afae76d09c641b5b911e3600" target="_top" xlink:title="add_fast_array_element">
<polygon fill="none" stroke="#000000" points="470.5,-816.5 470.5,-835.5 591.5,-835.5 591.5,-816.5 470.5,-816.5"/>
<text text-anchor="middle" x="531" y="-823.5" font-family="Helvetica,sans-Serif" font-size="10.00" fill="#000000">add_fast_array_element</text>
</a>
</g>
</g>
<!-- Node116123&#45;&gt;Node116124 -->
<g id="edge1" class="edge">
<title>Node116123&#45;&gt;Node116124</title>
<path fill="none" stroke="#191970" d="M45.9691,-389.7923C55.2599,-449.4781 85.354,-626.2773 122,-670 210.7251,-775.8588 379.6217,-810.0373 470.1311,-820.9584"/>
<polygon fill="#191970" stroke="#191970" points="49.4091,-389.1335 44.4358,-379.7785 42.4898,-390.1931 49.4091,-389.1335"/>
</g>
<!-- Node116335 -->
<g id="node5" class="node">
<title>Node116335</title>
<g id="a_node5"><a xlink:href="quickjs_8c.html#ab50618f1bf78e444caa6da0e3e2785d7" target="_top" xlink:title="JS_DefineProperty">
<polygon fill="none" stroke="#ff0000" points="1146,-702.5 1146,-721.5 1245,-721.5 1245,-702.5 1146,-702.5"/>
<text text-anchor="middle" x="1195.5" y="-709.5" font-family="Helvetica,sans-Serif" font-size="10.00" fill="#000000">JS_DefineProperty</text>
</a>
</g>
</g>
<!-- Node116123&#45;&gt;Node116335 -->
<g id="edge42" class="edge">
<title>Node116123&#45;&gt;Node116335</title>
<path fill="none" stroke="#191970" d="M44.5962,-389.9325C50.8781,-464.4123 75.8445,-725.5529 122,-793 192.0002,-895.2914 235.0502,-940 359,-940 359,-940 359,-940 879,-940 1031.0333,-940 1159.8178,-764.6573 1189.2089,-721.5066"/>
<polygon fill="#191970" stroke="#191970" points="48.0575,-389.3186 43.748,-379.6399 41.0812,-389.8936 48.0575,-389.3186"/>
</g>
<!-- Node116272 -->
<g id="node6" class="node">
<title>Node116272</title>
<g id="a_node6"><a xlink:href="quickjs_8c.html#aa40a5354bee3b56e05a71244910bcc78" target="_top" xlink:title="build_for_in_iterator">
<polygon fill="none" stroke="#ff0000" points="1004.5,-360.5 1004.5,-379.5 1105.5,-379.5 1105.5,-360.5 1004.5,-360.5"/>
<text text-anchor="middle" x="1055" y="-367.5" font-family="Helvetica,sans-Serif" font-size="10.00" fill="#000000">build_for_in_iterator</text>
</a>
</g>
</g>
<!-- Node116123&#45;&gt;Node116272 -->
<g id="edge19" class="edge">
<title>Node116123&#45;&gt;Node116272</title>
<path fill="none" stroke="#191970" d="M96.2845,-359.6444C158.911,-348.3925 266.0922,-332 359,-332 359,-332 359,-332 698.5,-332 816.8018,-332 846.8333,-334.6514 964,-351 980.7837,-353.3419 999.1082,-356.959 1014.8862,-360.4113"/>
<polygon fill="#191970" stroke="#191970" points="95.4606,-356.2368 86.2496,-361.4721 96.715,-363.1235 95.4606,-356.2368"/>
</g>
<!-- Node116334 -->
<g id="node7" class="node">
<title>Node116334</title>
<g id="a_node7"><a xlink:href="quickjs_8c.html#ad5565bb5cfd5321f181573257f3b0c91" target="_top" xlink:title="JS_CreateProperty">
<polygon fill="none" stroke="#ff0000" points="648.5,-854.5 648.5,-873.5 748.5,-873.5 748.5,-854.5 648.5,-854.5"/>
<text text-anchor="middle" x="698.5" y="-861.5" font-family="Helvetica,sans-Serif" font-size="10.00" fill="#000000">JS_CreateProperty</text>
</a>
</g>
</g>
<!-- Node116123&#45;&gt;Node116334 -->
<g id="edge41" class="edge">
<title>Node116123&#45;&gt;Node116334</title>
<path fill="none" stroke="#191970" d="M44.9889,-389.7873C52.1295,-457.3794 78.3886,-677.92 122,-732 251.7143,-892.8513 533.763,-882.3783 648.4719,-870.5414"/>
<polygon fill="#191970" stroke="#191970" points="48.4512,-389.2412 43.9419,-379.6539 41.4883,-389.9607 48.4512,-389.2412"/>
</g>
<!-- Node116710 -->
<g id="node8" class="node">
<title>Node116710</title>
<g id="a_node8"><a xlink:href="quickjs_8c.html#a3cadcaa2bd1e3f9359f1c006f396cfa0" target="_top" xlink:title="add_shape_property">
<polygon fill="none" stroke="#000000" points="307,-721.5 307,-740.5 411,-740.5 411,-721.5 307,-721.5"/>
<text text-anchor="middle" x="359" y="-728.5" font-family="Helvetica,sans-Serif" font-size="10.00" fill="#000000">add_shape_property</text>
</a>
</g>
</g>
<!-- Node116123&#45;&gt;Node116710 -->
<g id="edge12" class="edge">
<title>Node116123&#45;&gt;Node116710</title>
<path fill="none" stroke="#191970" d="M44.3774,-389.6907C48.4748,-434.383 64.1932,-544.814 122,-612 174.8506,-673.4257 267.0512,-706.6371 319.5153,-721.3957"/>
<polygon fill="#191970" stroke="#191970" points="47.8546,-389.2674 43.5515,-379.5858 40.8779,-389.8377 47.8546,-389.2674"/>
</g>
<!-- Node116713 -->
<g id="node13" class="node">
<title>Node116713</title>
<g id="a_node13"><a xlink:href="quickjs_8c.html#a2b9a2014cb970af5b5b7dde00afbdffa" target="_top" xlink:title="delete_property">
<polygon fill="none" stroke="#ff0000" points="489.5,-436.5 489.5,-455.5 572.5,-455.5 572.5,-436.5 489.5,-436.5"/>
<text text-anchor="middle" x="531" y="-443.5" font-family="Helvetica,sans-Serif" font-size="10.00" fill="#000000">delete_property</text>
</a>
</g>
</g>
<!-- Node116123&#45;&gt;Node116713 -->
<g id="edge20" class="edge">
<title>Node116123&#45;&gt;Node116713</title>
<path fill="none" stroke="#191970" d="M52.044,-388.722C64.283,-411.6263 88.5038,-449.29 122,-465 253.288,-526.575 435.0547,-477.9496 503.4806,-455.655"/>
<polygon fill="#191970" stroke="#191970" points="55.0721,-386.9559 47.4064,-379.6424 48.8382,-390.14 55.0721,-386.9559"/>
</g>
<!-- Node116362 -->
<g id="node14" class="node">
<title>Node116362</title>
<g id="a_node14"><a xlink:href="quickjs_8c.html#aeb73aae9c3ad7daaf7646e3f2f89245a" target="_top" xlink:title="set_array_length">
<polygon fill="none" stroke="#000000" points="654,-436.5 654,-455.5 743,-455.5 743,-436.5 654,-436.5"/>
<text text-anchor="middle" x="698.5" y="-443.5" font-family="Helvetica,sans-Serif" font-size="10.00" fill="#000000">set_array_length</text>
</a>
</g>
</g>
<!-- Node116123&#45;&gt;Node116362 -->
<g id="edge52" class="edge">
<title>Node116123&#45;&gt;Node116362</title>
<path fill="none" stroke="#191970" d="M48.9762,-389.2406C58.9552,-417.688 81.9677,-470.0708 122,-493 188.7743,-531.2462 218.0639,-498.4441 295,-500 351.8773,-501.1502 366.3732,-505.4543 423,-500 504.1229,-492.1862 523.0339,-480.7291 603,-465 619.587,-461.7374 637.7875,-458.1245 653.8101,-454.9329"/>
<polygon fill="#191970" stroke="#191970" points="52.255,-388.0082 45.7815,-379.6211 45.6118,-390.2145 52.255,-388.0082"/>
</g>
<!-- Node116738 -->
<g id="node15" class="node">
<title>Node116738</title>
<g id="a_node15"><a xlink:href="quickjs_8c.html#a06b76f5124fd985e35f4c652fd018d6d" target="_top" xlink:title="find_own_property">
<polygon fill="none" stroke="#ff0000" points="483,-588.5 483,-607.5 579,-607.5 579,-588.5 483,-588.5"/>
<text text-anchor="middle" x="531" y="-595.5" font-family="Helvetica,sans-Serif" font-size="10.00" fill="#000000">find_own_property</text>
</a>
</g>
</g>
<!-- Node116123&#45;&gt;Node116738 -->
<g id="edge24" class="edge">
<title>Node116123&#45;&gt;Node116738</title>
<path fill="none" stroke="#191970" d="M46.292,-389.9825C53.2932,-425.6166 73.2053,-499.7818 122,-536 230.4161,-616.4726 400.1725,-612.1881 482.7061,-604.2341"/>
<polygon fill="#191970" stroke="#191970" points="49.6847,-389.0764 44.4523,-379.8638 42.7976,-390.3286 49.6847,-389.0764"/>
</g>
<!-- Node116743 -->
<g id="node20" class="node">
<title>Node116743</title>
<g id="a_node20"><a xlink:href="quickjs_8c.html#afdc6d90129958f6258bae1505495869f" target="_top" xlink:title="find_own_property1">
<polygon fill="none" stroke="#ff0000" points="140,-284.5 140,-303.5 241,-303.5 241,-284.5 140,-284.5"/>
<text text-anchor="middle" x="190.5" y="-291.5" font-family="Helvetica,sans-Serif" font-size="10.00" fill="#000000">find_own_property1</text>
</a>
</g>
</g>
<!-- Node116123&#45;&gt;Node116743 -->
<g id="edge33" class="edge">
<title>Node116123&#45;&gt;Node116743</title>
<path fill="none" stroke="#191970" d="M63.8515,-354.2292C79.3074,-343.0582 101.21,-328.2892 122,-318 133.4067,-312.3547 146.4751,-307.4282 158.1186,-303.532"/>
<polygon fill="#191970" stroke="#191970" points="61.5373,-351.5864 55.5535,-360.3297 65.6836,-357.2263 61.5373,-351.5864"/>
</g>
<!-- Node116748 -->
<g id="node21" class="node">
<title>Node116748</title>
<g id="a_node21"><a xlink:href="quickjs_8c.html#a41a4918c15192dc3489dc3ecb3fdc24d" target="_top" xlink:title="free_object">
<polygon fill="none" stroke="#ff0000" points="158,-246.5 158,-265.5 223,-265.5 223,-246.5 158,-246.5"/>
<text text-anchor="middle" x="190.5" y="-253.5" font-family="Helvetica,sans-Serif" font-size="10.00" fill="#000000">free_object</text>
</a>
</g>
</g>
<!-- Node116123&#45;&gt;Node116748 -->
<g id="edge34" class="edge">
<title>Node116123&#45;&gt;Node116748</title>
<path fill="none" stroke="#191970" d="M53.598,-351.3992C66.8485,-329.8196 91.5367,-294.6912 122,-275 132.6755,-268.0995 145.8494,-263.676 157.7831,-260.8533"/>
<polygon fill="#191970" stroke="#191970" points="50.4344,-349.8718 48.3351,-360.2566 56.4522,-353.4475 50.4344,-349.8718"/>
</g>
<!-- Node116852 -->
<g id="node22" class="node">
<title>Node116852</title>
<g id="a_node22"><a xlink:href="quickjs_8c.html#a8e34657169da77ae6a386311351ed3de" target="_top" xlink:title="js_clone_shape">
<polygon fill="none" stroke="#000000" points="148.5,-436.5 148.5,-455.5 232.5,-455.5 232.5,-436.5 148.5,-436.5"/>
<text text-anchor="middle" x="190.5" y="-443.5" font-family="Helvetica,sans-Serif" font-size="10.00" fill="#000000">js_clone_shape</text>
</a>
</g>
</g>
<!-- Node116123&#45;&gt;Node116852 -->
<g id="edge35" class="edge">
<title>Node116123&#45;&gt;Node116852</title>
<path fill="none" stroke="#191970" d="M63.8515,-385.7708C79.3074,-396.9418 101.21,-411.7108 122,-422 133.4067,-427.6453 146.4751,-432.5718 158.1186,-436.468"/>
<polygon fill="#191970" stroke="#191970" points="65.6836,-382.7737 55.5535,-379.6703 61.5373,-388.4136 65.6836,-382.7737"/>
</g>
<!-- Node116768 -->
<g id="node23" class="node">
<title>Node116768</title>
<g id="a_node23"><a xlink:href="quickjs_8c.html#a3dd8e78607dbc729614deacf55901b95" target="_top" xlink:title="js_shape_prepare_update">
<polygon fill="none" stroke="#ff0000" points="295,-417.5 295,-436.5 423,-436.5 423,-417.5 295,-417.5"/>
<text text-anchor="middle" x="359" y="-424.5" font-family="Helvetica,sans-Serif" font-size="10.00" fill="#000000">js_shape_prepare_update</text>
</a>
</g>
</g>
<!-- Node116123&#45;&gt;Node116768 -->
<g id="edge48" class="edge">
<title>Node116123&#45;&gt;Node116768</title>
<path fill="none" stroke="#191970" d="M96.418,-379.6355C154.891,-390.1829 248.0533,-406.9875 306.2574,-417.4863"/>
<polygon fill="#191970" stroke="#191970" points="96.7384,-376.1369 86.2759,-377.8061 95.4957,-383.0257 96.7384,-376.1369"/>
</g>
<!-- Node116853 -->
<g id="node24" class="node">
<title>Node116853</title>
<g id="a_node24"><a xlink:href="quickjs_8c.html#a58d5c786f2a45040f0c81149e92c2378" target="_top" xlink:title="JS_ComputeMemoryUsage">
<polygon fill="none" stroke="#000000" points="122,-208.5 122,-227.5 259,-227.5 259,-208.5 122,-208.5"/>
<text text-anchor="middle" x="190.5" y="-215.5" font-family="Helvetica,sans-Serif" font-size="10.00" fill="#000000">JS_ComputeMemoryUsage</text>
</a>
</g>
</g>
<!-- Node116123&#45;&gt;Node116853 -->
<g id="edge40" class="edge">
<title>Node116123&#45;&gt;Node116853</title>
<path fill="none" stroke="#191970" d="M49.2909,-350.4197C59.6788,-321.2505 83.2156,-266.649 122,-237 127.0984,-233.1025 132.9519,-230.0044 139.0433,-227.5418"/>
<polygon fill="#191970" stroke="#191970" points="45.8544,-349.6543 45.9491,-360.2487 52.4818,-351.9077 45.8544,-349.6543"/>
</g>
<!-- Node116854 -->
<g id="node25" class="node">
<title>Node116854</title>
<g id="a_node25"><a xlink:href="quickjs_8c.html#a315f18f552c506d05a36ab22649c8e3f" target="_top" xlink:title="JS_DumpObject">
<polygon fill="none" stroke="#ff0000" points="146,-170.5 146,-189.5 235,-189.5 235,-170.5 146,-170.5"/>
<text text-anchor="middle" x="190.5" y="-177.5" font-family="Helvetica,sans-Serif" font-size="10.00" fill="#000000">JS_DumpObject</text>
</a>
</g>
</g>
<!-- Node116123&#45;&gt;Node116854 -->
<g id="edge43" class="edge">
<title>Node116123&#45;&gt;Node116854</title>
<path fill="none" stroke="#191970" d="M46.557,-350.008C53.9827,-314.2491 74.5507,-239.3156 122,-199 128.7716,-193.2465 137.1526,-189.2264 145.7021,-186.4198"/>
<polygon fill="#191970" stroke="#191970" points="43.0585,-349.6645 44.5905,-360.1479 49.9305,-350.9973 43.0585,-349.6645"/>
</g>
<!-- Node116288 -->
<g id="node26" class="node">
<title>Node116288</title>
<g id="a_node26"><a xlink:href="quickjs_8c.html#ad4da6445b7b08b23f5464ae9b51705bc" target="_top" xlink:title="js_for_in_next">
<polygon fill="none" stroke="#ff0000" points="152,-132.5 152,-151.5 229,-151.5 229,-132.5 152,-132.5"/>
<text text-anchor="middle" x="190.5" y="-139.5" font-family="Helvetica,sans-Serif" font-size="10.00" fill="#000000">js_for_in_next</text>
</a>
</g>
</g>
<!-- Node116123&#45;&gt;Node116288 -->
<g id="edge44" class="edge">
<title>Node116123&#45;&gt;Node116288</title>
<path fill="none" stroke="#191970" d="M44.6319,-350.2997C49.1338,-308.9423 65.4426,-212.6408 122,-161 130.2024,-153.5106 141.1039,-148.9389 151.7928,-146.159"/>
<polygon fill="#191970" stroke="#191970" points="41.1316,-350.134 43.6516,-360.4248 48.099,-350.8087 41.1316,-350.134"/>
</g>
<!-- Node116759 -->
<g id="node27" class="node">
<title>Node116759</title>
<g id="a_node27"><a xlink:href="quickjs_8c.html#a6f921a6312ada5c7da7b485e24d37f54" target="_top" xlink:title="js_free_shape0">
<polygon fill="none" stroke="#ff0000" points="149,-94.5 149,-113.5 232,-113.5 232,-94.5 149,-94.5"/>
<text text-anchor="middle" x="190.5" y="-101.5" font-family="Helvetica,sans-Serif" font-size="10.00" fill="#000000">js_free_shape0</text>
</a>
</g>
</g>
<!-- Node116123&#45;&gt;Node116759 -->
<g id="edge45" class="edge">
<title>Node116123&#45;&gt;Node116759</title>
<path fill="none" stroke="#191970" d="M46.7681,-350.4439C57.2652,-297.895 88.2919,-155.419 122,-123 129.294,-115.985 138.9434,-111.5146 148.6908,-108.6783"/>
<polygon fill="#191970" stroke="#191970" points="43.2899,-349.9925 44.7961,-360.4798 50.1586,-351.3423 43.2899,-349.9925"/>
</g>
<!-- Node116270 -->
<g id="node28" class="node">
<title>Node116270</title>
<g id="a_node28"><a xlink:href="quickjs_8c.html#a176ac5ff56a118a0b1b2566798d28823" target="_top" xlink:title="JS_GetOwnPropertyNamesInternal">
<polygon fill="none" stroke="#ff0000" points="794,-360.5 794,-379.5 964,-379.5 964,-360.5 794,-360.5"/>
<text text-anchor="middle" x="879" y="-367.5" font-family="Helvetica,sans-Serif" font-size="10.00" fill="#000000">JS_GetOwnPropertyNamesInternal</text>
</a>
</g>
</g>
<!-- Node116123&#45;&gt;Node116270 -->
<g id="edge46" class="edge">
<title>Node116123&#45;&gt;Node116270</title>
<path fill="none" stroke="#191970" d="M96.254,-370C159.0647,-370 266.6268,-370 359,-370 359,-370 359,-370 531,-370 620.7188,-370 723.4485,-370 793.9049,-370"/>
<polygon fill="#191970" stroke="#191970" points="96.1905,-366.5001 86.1904,-370 96.1904,-373.5001 96.1905,-366.5001"/>
</g>
<!-- Node116302 -->
<g id="node29" class="node">
<title>Node116302</title>
<g id="a_node29"><a xlink:href="quickjs_8c.html#aa9342f7444c1c9f8743d43aa4d7f89e3" target="_top" xlink:title="JS_WriteObjectRec">
<polygon fill="none" stroke="#ff0000" points="138.5,-38.5 138.5,-57.5 242.5,-57.5 242.5,-38.5 138.5,-38.5"/>
<text text-anchor="middle" x="190.5" y="-45.5" font-family="Helvetica,sans-Serif" font-size="10.00" fill="#000000">JS_WriteObjectRec</text>
</a>
</g>
</g>
<!-- Node116123&#45;&gt;Node116302 -->
<g id="edge49" class="edge">
<title>Node116123&#45;&gt;Node116302</title>
<path fill="none" stroke="#191970" d="M46.344,-350.553C56.481,-293.4041 88.2457,-127.3458 122,-85 132.0257,-72.4225 147.5321,-63.5432 161.2575,-57.6416"/>
<polygon fill="#191970" stroke="#191970" points="42.8863,-350.0082 44.6109,-360.4617 49.7816,-351.2143 42.8863,-350.0082"/>
</g>
<!-- Node116856 -->
<g id="node30" class="node">
<title>Node116856</title>
<g id="a_node30"><a xlink:href="quickjs_8c.html#aa863a9d565bac49a2a76d10009eabd5c" target="_top" xlink:title="mark_children">
<polygon fill="none" stroke="#ff0000" points="152,-.5 152,-19.5 229,-19.5 229,-.5 152,-.5"/>
<text text-anchor="middle" x="190.5" y="-7.5" font-family="Helvetica,sans-Serif" font-size="10.00" fill="#000000">mark_children</text>
</a>
</g>
</g>
<!-- Node116123&#45;&gt;Node116856 -->
<g id="edge51" class="edge">
<title>Node116123&#45;&gt;Node116856</title>
<path fill="none" stroke="#191970" d="M44.9443,-350.2703C51.783,-284.7971 76.7905,-76.1925 122,-29 129.8544,-20.8011 140.9103,-16.0413 151.8521,-13.3076"/>
<polygon fill="#191970" stroke="#191970" points="41.4389,-350.1467 43.9085,-360.4497 48.4029,-350.8554 41.4389,-350.1467"/>
</g>
<!-- Node116125 -->
<g id="node3" class="node">
<title>Node116125</title>
<g id="a_node3"><a xlink:href="quickjs_8c.html#ad7f03358a8088ca920ab308225c6b2e6" target="_top" xlink:title="JS_SetPropertyInternal">
<polygon fill="none" stroke="#ff0000" points="820,-740.5 820,-759.5 938,-759.5 938,-740.5 820,-740.5"/>
<text text-anchor="middle" x="879" y="-747.5" font-family="Helvetica,sans-Serif" font-size="10.00" fill="#000000">JS_SetPropertyInternal</text>
</a>
</g>
</g>
<!-- Node116124&#45;&gt;Node116125 -->
<g id="edge2" class="edge">
<title>Node116124&#45;&gt;Node116125</title>
<path fill="none" stroke="#191970" d="M601.5639,-815.7045C646.5887,-808.6093 706.0413,-798.2645 758,-786 789.9962,-778.4475 826.0389,-767.386 850.4011,-759.5205"/>
<polygon fill="#191970" stroke="#191970" points="600.9462,-812.2584 591.6052,-817.258 602.0252,-819.1748 600.9462,-812.2584"/>
</g>
<!-- Node116363 -->
<g id="node4" class="node">
<title>Node116363</title>
<g id="a_node4"><a xlink:href="quickjs_8c.html#aee75cc1546e19479e3ccda58f3b50a96" target="_top" xlink:title="JS_SetPropertyValue">
<polygon fill="none" stroke="#ff0000" points="1000,-740.5 1000,-759.5 1110,-759.5 1110,-740.5 1000,-740.5"/>
<text text-anchor="middle" x="1055" y="-747.5" font-family="Helvetica,sans-Serif" font-size="10.00" fill="#000000">JS_SetPropertyValue</text>
</a>
</g>
</g>
<!-- Node116124&#45;&gt;Node116363 -->
<g id="edge8" class="edge">
<title>Node116124&#45;&gt;Node116363</title>
<path fill="none" stroke="#191970" d="M552.5479,-841.4439C573.4765,-855.4225 606.7324,-875.0074 639,-883 690.3374,-895.7162 706.2787,-894.0519 758,-883 872.9184,-858.444 997.1608,-785.9907 1039.7116,-759.684"/>
<polygon fill="#191970" stroke="#191970" points="554.3375,-838.4273 544.1098,-835.6622 550.3808,-844.2018 554.3375,-838.4273"/>
</g>
<!-- Node116124&#45;&gt;Node116334 -->
<g id="edge9" class="edge">
<title>Node116124&#45;&gt;Node116334</title>
<path fill="none" stroke="#191970" d="M583.1201,-837.8243C606.7347,-843.1816 634.282,-849.4311 656.5366,-854.4799"/>
<polygon fill="#191970" stroke="#191970" points="583.7939,-834.3883 573.2673,-835.589 582.2451,-841.2148 583.7939,-834.3883"/>
</g>
<!-- Node116125&#45;&gt;Node116363 -->
<g id="edge3" class="edge">
<title>Node116125&#45;&gt;Node116363</title>
<path fill="none" stroke="#191970" d="M948.5671,-743.3834C965.6258,-743.1332 983.652,-743.235 999.9235,-743.6887"/>
<polygon fill="#191970" stroke="#191970" points="948.0259,-739.893 938.0951,-743.5846 948.1605,-746.8917 948.0259,-739.893"/>
</g>
<!-- Node116125&#45;&gt;Node116272 -->
<g id="edge7" class="edge">
<title>Node116125&#45;&gt;Node116272</title>
<path fill="none" stroke="#191970" d="M887.7816,-731.0398C919.4484,-662.6683 1027.135,-430.163 1050.5025,-379.7105"/>
<polygon fill="#191970" stroke="#191970" points="884.5543,-729.6799 883.5275,-740.2248 890.9061,-732.6218 884.5543,-729.6799"/>
</g>
<!-- Node116363&#45;&gt;Node116125 -->
<g id="edge6" class="edge">
<title>Node116363&#45;&gt;Node116125</title>
<path fill="none" stroke="#191970" d="M989.5898,-756.5483C972.7072,-756.856 954.6349,-756.8116 938.0951,-756.4154"/>
<polygon fill="#191970" stroke="#191970" points="990.0064,-760.0398 999.9235,-756.3113 989.8458,-753.0416 990.0064,-760.0398"/>
</g>
<!-- Node116363&#45;&gt;Node116335 -->
<g id="edge4" class="edge">
<title>Node116363&#45;&gt;Node116335</title>
<path fill="none" stroke="#191970" d="M1100.2787,-737.7538C1119.6449,-732.516 1141.9218,-726.4909 1160.0573,-721.5859"/>
<polygon fill="#191970" stroke="#191970" points="1099.1934,-734.4215 1090.4541,-740.411 1101.0211,-741.1787 1099.1934,-734.4215"/>
</g>
<!-- Node116335&#45;&gt;Node116125 -->
<g id="edge5" class="edge">
<title>Node116335&#45;&gt;Node116125</title>
<path fill="none" stroke="#191970" d="M1135.9215,-716.8736C1097.1411,-720.2718 1045.4943,-725.2225 1000,-731 978.7996,-733.6923 955.5966,-737.199 935.2307,-740.4657"/>
<polygon fill="#191970" stroke="#191970" points="1136.3358,-720.3509 1145.9962,-716.0003 1135.7313,-713.3771 1136.3358,-720.3509"/>
</g>
<!-- Node116334&#45;&gt;Node116125 -->
<g id="edge11" class="edge">
<title>Node116334&#45;&gt;Node116125</title>
<path fill="none" stroke="#191970" d="M736.5618,-850.486C743.8521,-847.3887 751.2966,-843.8579 758,-840 775.5681,-829.8893 777.81,-824.1962 794,-812 819.0934,-793.0968 848.8379,-771.607 865.656,-759.5395"/>
<polygon fill="#191970" stroke="#191970" points="734.7603,-847.439 726.8001,-854.4309 737.3831,-853.9291 734.7603,-847.439"/>
</g>
<!-- Node116334&#45;&gt;Node116335 -->
<g id="edge10" class="edge">
<title>Node116334&#45;&gt;Node116335</title>
<path fill="none" stroke="#191970" d="M758.9312,-856.9876C841.0884,-845.9243 991.377,-820.1973 1110,-769 1138.828,-756.5579 1168.4296,-734.2823 1184.1154,-721.5751"/>
<polygon fill="#191970" stroke="#191970" points="758.2278,-853.55 748.7713,-858.3275 759.1431,-860.4899 758.2278,-853.55"/>
</g>
<!-- Node116711 -->
<g id="node9" class="node">
<title>Node116711</title>
<g id="a_node9"><a xlink:href="quickjs_8c.html#a74547db03bf739a52c83a326b32db997" target="_top" xlink:title="add_property">
<polygon fill="none" stroke="#ff0000" points="494.5,-721.5 494.5,-740.5 567.5,-740.5 567.5,-721.5 494.5,-721.5"/>
<text text-anchor="middle" x="531" y="-728.5" font-family="Helvetica,sans-Serif" font-size="10.00" fill="#000000">add_property</text>
</a>
</g>
</g>
<!-- Node116710&#45;&gt;Node116711 -->
<g id="edge13" class="edge">
<title>Node116710&#45;&gt;Node116711</title>
<path fill="none" stroke="#191970" d="M421.3791,-731C445.8842,-731 473.1631,-731 494.3785,-731"/>
<polygon fill="#191970" stroke="#191970" points="421.0725,-727.5001 411.0724,-731 421.0724,-734.5001 421.0725,-727.5001"/>
</g>
<!-- Node116347 -->
<g id="node12" class="node">
<title>Node116347</title>
<g id="a_node12"><a xlink:href="quickjs_8c.html#a7efb53c2f76fd5cc0e584449437ec09c" target="_top" xlink:title="JS_AddIntrinsicBasicObjects">
<polygon fill="none" stroke="#ff0000" points="459,-759.5 459,-778.5 603,-778.5 603,-759.5 459,-759.5"/>
<text text-anchor="middle" x="531" y="-766.5" font-family="Helvetica,sans-Serif" font-size="10.00" fill="#000000">JS_AddIntrinsicBasicObjects</text>
</a>
</g>
</g>
<!-- Node116710&#45;&gt;Node116347 -->
<g id="edge18" class="edge">
<title>Node116710&#45;&gt;Node116347</title>
<path fill="none" stroke="#191970" d="M412.1959,-742.7526C436.5166,-748.1258 464.9547,-754.4086 487.9092,-759.4799"/>
<polygon fill="#191970" stroke="#191970" points="412.9225,-739.3288 402.4029,-740.589 411.4123,-746.164 412.9225,-739.3288"/>
</g>
<!-- Node116711&#45;&gt;Node116125 -->
<g id="edge17" class="edge">
<title>Node116711&#45;&gt;Node116125</title>
<path fill="none" stroke="#191970" d="M577.6505,-741.6482C586.1935,-744.0651 594.949,-746.8605 603,-750 619.8555,-756.5728 621.439,-764.6502 639,-769 710.4049,-786.6869 797.0656,-771.0738 844.2553,-759.5884"/>
<polygon fill="#191970" stroke="#191970" points="578.3404,-738.2093 567.7741,-738.9868 576.519,-744.9682 578.3404,-738.2093"/>
</g>
<!-- Node116711&#45;&gt;Node116334 -->
<g id="edge15" class="edge">
<title>Node116711&#45;&gt;Node116334</title>
<path fill="none" stroke="#191970" d="M577.3189,-738.0569C586.3578,-740.8174 595.3826,-744.6576 603,-750 626.0133,-766.1403 621.2121,-780.235 639,-802 655.0493,-821.6377 676.0214,-842.5348 688.3008,-854.3588"/>
<polygon fill="#191970" stroke="#191970" points="578.1347,-734.6523 567.5711,-735.4654 576.3361,-741.4173 578.1347,-734.6523"/>
</g>
<!-- Node116714 -->
<g id="node10" class="node">
<title>Node116714</title>
<g id="a_node10"><a xlink:href="quickjs_8c.html#a6a21784a40b8684f2e779bd460dd13b2" target="_top" xlink:title="JS_AddBrand">
<polygon fill="none" stroke="#ff0000" points="660,-740.5 660,-759.5 737,-759.5 737,-740.5 660,-740.5"/>
<text text-anchor="middle" x="698.5" y="-747.5" font-family="Helvetica,sans-Serif" font-size="10.00" fill="#000000">JS_AddBrand</text>
</a>
</g>
</g>
<!-- Node116711&#45;&gt;Node116714 -->
<g id="edge14" class="edge">
<title>Node116711&#45;&gt;Node116714</title>
<path fill="none" stroke="#191970" d="M577.7134,-736.2988C603.5714,-739.232 635.328,-742.8342 659.7886,-745.6089"/>
<polygon fill="#191970" stroke="#191970" points="578.0894,-732.8191 567.7586,-735.1696 577.3003,-739.7745 578.0894,-732.8191"/>
</g>
<!-- Node116717 -->
<g id="node11" class="node">
<title>Node116717</title>
<g id="a_node11"><a xlink:href="quickjs_8c.html#a3865abec9986277dbff58ea314f3d82e" target="_top" xlink:title="JS_DefinePrivateField">
<polygon fill="none" stroke="#ff0000" points="641.5,-702.5 641.5,-721.5 755.5,-721.5 755.5,-702.5 641.5,-702.5"/>
<text text-anchor="middle" x="698.5" y="-709.5" font-family="Helvetica,sans-Serif" font-size="10.00" fill="#000000">JS_DefinePrivateField</text>
</a>
</g>
</g>
<!-- Node116711&#45;&gt;Node116717 -->
<g id="edge16" class="edge">
<title>Node116711&#45;&gt;Node116717</title>
<path fill="none" stroke="#191970" d="M577.7401,-725.6981C597.4858,-723.4583 620.6674,-720.8288 641.4122,-718.4756"/>
<polygon fill="#191970" stroke="#191970" points="577.3003,-722.2255 567.7586,-726.8304 578.0894,-729.1809 577.3003,-722.2255"/>
</g>
<!-- Node116713&#45;&gt;Node116362 -->
<g id="edge21" class="edge">
<title>Node116713&#45;&gt;Node116362</title>
<path fill="none" stroke="#191970" d="M582.9977,-446C605.7423,-446 632.1544,-446 653.9765,-446"/>
<polygon fill="#191970" stroke="#191970" points="582.8353,-442.5001 572.8352,-446 582.8352,-449.5001 582.8353,-442.5001"/>
</g>
<!-- Node116362&#45;&gt;Node116125 -->
<g id="edge22" class="edge">
<title>Node116362&#45;&gt;Node116125</title>
<path fill="none" stroke="#191970" d="M751.8936,-460.2783C754.0562,-461.705 756.1068,-463.2741 758,-465 769.2719,-475.2756 855.6925,-691.4151 875.1275,-740.2523"/>
<polygon fill="#191970" stroke="#191970" points="753.5428,-457.191 743.0917,-455.452 750.1772,-463.3289 753.5428,-457.191"/>
</g>
<!-- Node116362&#45;&gt;Node116335 -->
<g id="edge23" class="edge">
<title>Node116362&#45;&gt;Node116335</title>
<path fill="none" stroke="#191970" d="M743.4617,-458.379C822.6536,-481.6073 989.9758,-537.1647 1110,-622 1143.7907,-645.8839 1174.9891,-684.5669 1188.4764,-702.4157"/>
<polygon fill="#191970" stroke="#191970" points="744.374,-454.9994 733.7948,-455.5763 742.4246,-461.7226 744.374,-454.9994"/>
</g>
<!-- Node116738&#45;&gt;Node116125 -->
<g id="edge31" class="edge">
<title>Node116738&#45;&gt;Node116125</title>
<path fill="none" stroke="#191970" d="M558.404,-612.1521C580.0255,-623.0835 611.09,-638.2743 639,-650 690.8461,-671.7819 706.062,-671.4382 758,-693 794.6734,-708.2247 836.3415,-728.5426 859.9686,-740.3564"/>
<polygon fill="#191970" stroke="#191970" points="559.9662,-609.0201 549.4664,-607.6041 556.7915,-615.2587 559.9662,-609.0201"/>
</g>
<!-- Node116738&#45;&gt;Node116335 -->
<g id="edge32" class="edge">
<title>Node116738&#45;&gt;Node116335</title>
<path fill="none" stroke="#191970" d="M588.9798,-608.2558C605.1671,-611.104 622.7667,-614.1865 639,-617 826.1092,-649.4292 1048.76,-687.1873 1145.9778,-703.6326"/>
<polygon fill="#191970" stroke="#191970" points="589.5639,-604.8049 579.1083,-606.5172 588.3496,-611.6988 589.5639,-604.8049"/>
</g>
<!-- Node116738&#45;&gt;Node116714 -->
<g id="edge30" class="edge">
<title>Node116738&#45;&gt;Node116714</title>
<path fill="none" stroke="#191970" d="M541.2661,-616.6126C558.0234,-645.309 593.9493,-700.25 639,-731 645.2694,-735.2793 652.5589,-738.6389 659.8419,-741.2619"/>
<polygon fill="#191970" stroke="#191970" points="544.1456,-614.5963 536.1548,-607.6395 538.0632,-618.061 544.1456,-614.5963"/>
</g>
<!-- Node116738&#45;&gt;Node116717 -->
<g id="edge27" class="edge">
<title>Node116738&#45;&gt;Node116717</title>
<path fill="none" stroke="#191970" d="M547.4983,-614.6083C567.6617,-634.1936 603.4969,-666.7633 639,-688 648.5589,-693.7178 659.7289,-698.6307 669.7928,-702.4951"/>
<polygon fill="#191970" stroke="#191970" points="549.915,-612.0759 540.3345,-607.552 545.0028,-617.063 549.915,-612.0759"/>
</g>
<!-- Node116504 -->
<g id="node16" class="node">
<title>Node116504</title>
<g id="a_node16"><a xlink:href="quickjs_8c.html#adb1fc78e06c842a22d4fa3bf3fb75f70" target="_top" xlink:title="get_func_name">
<polygon fill="none" stroke="#ff0000" points="657,-550.5 657,-569.5 740,-569.5 740,-550.5 657,-550.5"/>
<text text-anchor="middle" x="698.5" y="-557.5" font-family="Helvetica,sans-Serif" font-size="10.00" fill="#000000">get_func_name</text>
</a>
</g>
</g>
<!-- Node116738&#45;&gt;Node116504 -->
<g id="edge25" class="edge">
<title>Node116738&#45;&gt;Node116504</title>
<path fill="none" stroke="#191970" d="M583.1586,-586.167C606.8672,-580.7883 634.5335,-574.5118 656.8264,-569.4543"/>
<polygon fill="#191970" stroke="#191970" points="582.2451,-582.7852 573.2673,-588.411 583.7939,-589.6117 582.2451,-582.7852"/>
</g>
<!-- Node116250 -->
<g id="node17" class="node">
<title>Node116250</title>
<g id="a_node17"><a xlink:href="quickjs_8c.html#a5762c57ae0c9937e986040c01222833a" target="_top" xlink:title="JS_GetPropertyInternal">
<polygon fill="none" stroke="#ff0000" points="639,-512.5 639,-531.5 758,-531.5 758,-512.5 639,-512.5"/>
<text text-anchor="middle" x="698.5" y="-519.5" font-family="Helvetica,sans-Serif" font-size="10.00" fill="#000000">JS_GetPropertyInternal</text>
</a>
</g>
</g>
<!-- Node116738&#45;&gt;Node116250 -->
<g id="edge26" class="edge">
<title>Node116738&#45;&gt;Node116250</title>
<path fill="none" stroke="#191970" d="M555.8326,-583.2775C577.3385,-570.9238 609.5393,-553.3641 639,-541 647.2991,-537.517 656.4712,-534.2953 665.0779,-531.5316"/>
<polygon fill="#191970" stroke="#191970" points="553.9229,-580.339 547.0313,-588.3862 557.437,-586.3931 553.9229,-580.339"/>
</g>
<!-- Node116739 -->
<g id="node18" class="node">
<title>Node116739</title>
<g id="a_node18"><a xlink:href="quickjs_8c.html#a7bf4f251e0ec8d1b895c8f02120c4987" target="_top" xlink:title="JS_GetPrivateField">
<polygon fill="none" stroke="#ff0000" points="648,-474.5 648,-493.5 749,-493.5 749,-474.5 648,-474.5"/>
<text text-anchor="middle" x="698.5" y="-481.5" font-family="Helvetica,sans-Serif" font-size="10.00" fill="#000000">JS_GetPrivateField</text>
</a>
</g>
</g>
<!-- Node116738&#45;&gt;Node116739 -->
<g id="edge28" class="edge">
<title>Node116738&#45;&gt;Node116739</title>
<path fill="none" stroke="#191970" d="M550.1551,-581.7853C564.7436,-569.3689 585.2697,-551.7535 603,-536 619.2257,-521.5834 620.2237,-513.8886 639,-503 645.4726,-499.2465 652.7785,-496.136 659.9984,-493.5947"/>
<polygon fill="#191970" stroke="#191970" points="547.674,-579.3005 542.3178,-588.4418 552.2055,-584.6359 547.674,-579.3005"/>
</g>
<!-- Node116740 -->
<g id="node19" class="node">
<title>Node116740</title>
<g id="a_node19"><a xlink:href="quickjs_8c.html#aeadd1b317a296e3b9fd4ebc0261f7559" target="_top" xlink:title="JS_SetPrivateField">
<polygon fill="none" stroke="#ff0000" points="648,-588.5 648,-607.5 749,-607.5 749,-588.5 648,-588.5"/>
<text text-anchor="middle" x="698.5" y="-595.5" font-family="Helvetica,sans-Serif" font-size="10.00" fill="#000000">JS_SetPrivateField</text>
</a>
</g>
</g>
<!-- Node116738&#45;&gt;Node116740 -->
<g id="edge29" class="edge">
<title>Node116738&#45;&gt;Node116740</title>
<path fill="none" stroke="#191970" d="M589.4885,-598C608.5031,-598 629.4344,-598 647.829,-598"/>
<polygon fill="#191970" stroke="#191970" points="589.448,-594.5001 579.4479,-598 589.4479,-601.5001 589.448,-594.5001"/>
</g>
<!-- Node116852&#45;&gt;Node116711 -->
<g id="edge36" class="edge">
<title>Node116852&#45;&gt;Node116711</title>
<path fill="none" stroke="#191970" d="M210.2209,-462.5065C273.3724,-515.3646 469.3886,-679.431 519.3285,-721.2309"/>
<polygon fill="#191970" stroke="#191970" points="212.1356,-459.5449 202.2208,-455.8103 207.6427,-464.9128 212.1356,-459.5449"/>
</g>
<!-- Node116852&#45;&gt;Node116768 -->
<g id="edge37" class="edge">
<title>Node116852&#45;&gt;Node116768</title>
<path fill="none" stroke="#191970" d="M242.5925,-440.1261C259.1129,-438.2632 277.5742,-436.1815 294.8402,-434.2346"/>
<polygon fill="#191970" stroke="#191970" points="242.1298,-436.656 232.585,-441.2545 242.9142,-443.6119 242.1298,-436.656"/>
</g>
<!-- Node116768&#45;&gt;Node116335 -->
<g id="edge39" class="edge">
<title>Node116768&#45;&gt;Node116335</title>
<path fill="none" stroke="#191970" d="M433.3706,-420.4403C502.1085,-414.9476 607.1147,-408 698.5,-408 698.5,-408 698.5,-408 879,-408 1000.6918,-408 1026.9281,-466.0734 1110,-555 1154.0689,-602.1748 1182.9692,-676.3351 1192.2575,-702.4867"/>
<polygon fill="#191970" stroke="#191970" points="432.7631,-416.978 423.0782,-421.2736 433.3281,-423.9552 432.7631,-416.978"/>
</g>
<!-- Node116768&#45;&gt;Node116713 -->
<g id="edge38" class="edge">
<title>Node116768&#45;&gt;Node116713</title>
<path fill="none" stroke="#191970" d="M433.0307,-435.1778C452.3063,-437.3071 472.4,-439.5267 489.3362,-441.3976"/>
<polygon fill="#191970" stroke="#191970" points="433.3703,-431.6941 423.0465,-434.0749 432.6017,-438.6518 433.3703,-431.6941"/>
</g>
<!-- Node116270&#45;&gt;Node116272 -->
<g id="edge47" class="edge">
<title>Node116270&#45;&gt;Node116272</title>
<path fill="none" stroke="#191970" d="M974.4269,-370C984.665,-370 994.7681,-370 1004.1766,-370"/>
<polygon fill="#191970" stroke="#191970" points="974.1645,-366.5001 964.1645,-370 974.1645,-373.5001 974.1645,-366.5001"/>
</g>
<!-- Node116302&#45;&gt;Node116302 -->
<g id="edge50" class="edge">
<title>Node116302&#45;&gt;Node116302</title>
<path fill="none" stroke="#191970" d="M163.2475,-66.6539C164.3867,-71.9368 173.4708,-76 190.5,-76 216.4492,-76 223.9502,-66.5653 213.0028,-57.7571"/>
<polygon fill="#191970" stroke="#191970" points="166.3752,-68.227 167.9972,-57.7571 160.2001,-64.9303 166.3752,-68.227"/>
</g>
</g>
</svg>
