<?xml version="1.0" encoding="UTF-8" standalone="no"?>
<!DOCTYPE svg PUBLIC "-//W3C//DTD SVG 1.1//EN"
 "http://www.w3.org/Graphics/SVG/1.1/DTD/svg11.dtd">
<!-- Generated by graphviz version 2.40.1 (20161225.0304)
 -->
<!-- Title: js_std_eval_binary Pages: 1 -->
<svg width="843pt" height="1054pt"
 viewBox="0.00 0.00 843.00 1054.16" xmlns="http://www.w3.org/2000/svg" xmlns:xlink="http://www.w3.org/1999/xlink">
<g id="graph0" class="graph" transform="scale(1 1) rotate(0) translate(4 1050.165)">
<title>js_std_eval_binary</title>
<!-- Node3162 -->
<g id="node1" class="node">
<title>Node3162</title>
<polygon fill="#bfbfbf" stroke="#000000" points="0,-488.5 0,-507.5 98,-507.5 98,-488.5 0,-488.5"/>
<text text-anchor="middle" x="49" y="-495.5" font-family="Helvetica,sans-Serif" font-size="10.00" fill="#000000">js_std_eval_binary</text>
</g>
<!-- Node3163 -->
<g id="node2" class="node">
<title>Node3163</title>
<g id="a_node2"><a xlink:href="quickjs_8c.html#af38ab3d672d41db0fa7a75b5c24149e4" target="_top" xlink:title="JS_EvalFunction">
<polygon fill="none" stroke="#000000" points="139,-858.5 139,-877.5 230,-877.5 230,-858.5 139,-858.5"/>
<text text-anchor="middle" x="184.5" y="-865.5" font-family="Helvetica,sans-Serif" font-size="10.00" fill="#000000">JS_EvalFunction</text>
</a>
</g>
</g>
<!-- Node3162&#45;&gt;Node3163 -->
<g id="edge1" class="edge">
<title>Node3162&#45;&gt;Node3163</title>
<path fill="none" stroke="#191970" d="M50.3375,-507.6788C55.9747,-546.4796 80.0418,-693.8776 134,-802 142.9842,-820.0027 157.1657,-837.9767 168.2162,-850.6112"/>
<polygon fill="#191970" stroke="#191970" points="165.6511,-852.9931 174.9397,-858.0894 170.8565,-848.313 165.6511,-852.9931"/>
</g>
<!-- Node3248 -->
<g id="node5" class="node">
<title>Node3248</title>
<g id="a_node5"><a xlink:href="quickjs_8h.html#ad80a83d73e9b7d872b88fbf2943aebe9" target="_top" xlink:title="JS_IsException">
<polygon fill="none" stroke="#000000" points="627,-735.5 627,-754.5 713,-754.5 713,-735.5 627,-735.5"/>
<text text-anchor="middle" x="670" y="-742.5" font-family="Helvetica,sans-Serif" font-size="10.00" fill="#000000">JS_IsException</text>
</a>
</g>
</g>
<!-- Node3162&#45;&gt;Node3248 -->
<g id="edge21" class="edge">
<title>Node3162&#45;&gt;Node3248</title>
<path fill="none" stroke="#191970" d="M61.0705,-507.657C107.4409,-544.1317 279.8632,-674.0674 446,-726 502.4498,-743.6456 570.5593,-747.0583 616.7443,-746.9053"/>
<polygon fill="#191970" stroke="#191970" points="616.8646,-750.4044 626.8325,-746.814 616.8012,-743.4047 616.8646,-750.4044"/>
</g>
<!-- Node3225 -->
<g id="node6" class="node">
<title>Node3225</title>
<g id="a_node6"><a xlink:href="quickjs_8h.html#afaa20c47565bc704c6c85f3d77254e7d" target="_top" xlink:title="JS_FreeValue">
<polygon fill="none" stroke="#ff0000" points="757,-431.5 757,-450.5 835,-450.5 835,-431.5 757,-431.5"/>
<text text-anchor="middle" x="796" y="-438.5" font-family="Helvetica,sans-Serif" font-size="10.00" fill="#000000">JS_FreeValue</text>
</a>
</g>
</g>
<!-- Node3162&#45;&gt;Node3225 -->
<g id="edge20" class="edge">
<title>Node3162&#45;&gt;Node3225</title>
<path fill="none" stroke="#191970" d="M53.4724,-488.307C64.616,-464.8586 95.513,-403.9857 134,-363 251.0306,-238.3714 283.3111,-190.543 446,-138 564.7789,-99.6384 637.065,-102.6151 721,-195 752.1186,-229.2514 782.0164,-369.3259 792.2673,-421.3908"/>
<polygon fill="#191970" stroke="#191970" points="788.8594,-422.2027 794.1991,-431.3535 795.7314,-420.8701 788.8594,-422.2027"/>
</g>
<!-- Node3592 -->
<g id="node11" class="node">
<title>Node3592</title>
<g id="a_node11"><a xlink:href="quickjs-libc_8c.html#a5cc3e22713f1916d49867f60a7375505" target="_top" xlink:title="js_module_set_import_meta">
<polygon fill="none" stroke="#000000" points="271,-488.5 271,-507.5 410,-507.5 410,-488.5 271,-488.5"/>
<text text-anchor="middle" x="340.5" y="-495.5" font-family="Helvetica,sans-Serif" font-size="10.00" fill="#000000">js_module_set_import_meta</text>
</a>
</g>
</g>
<!-- Node3162&#45;&gt;Node3592 -->
<g id="edge22" class="edge">
<title>Node3162&#45;&gt;Node3592</title>
<path fill="none" stroke="#191970" d="M98.1194,-498C142.5371,-498 208.7466,-498 260.7476,-498"/>
<polygon fill="#191970" stroke="#191970" points="260.9477,-501.5001 270.9476,-498 260.9476,-494.5001 260.9477,-501.5001"/>
</g>
<!-- Node3597 -->
<g id="node23" class="node">
<title>Node3597</title>
<g id="a_node23"><a xlink:href="quickjs_8c.html#a12be2ea9c010752715072489497594e9" target="_top" xlink:title="JS_ReadObject">
<polygon fill="none" stroke="#000000" points="297.5,-275.5 297.5,-294.5 383.5,-294.5 383.5,-275.5 297.5,-275.5"/>
<text text-anchor="middle" x="340.5" y="-282.5" font-family="Helvetica,sans-Serif" font-size="10.00" fill="#000000">JS_ReadObject</text>
</a>
</g>
</g>
<!-- Node3162&#45;&gt;Node3597 -->
<g id="edge42" class="edge">
<title>Node3162&#45;&gt;Node3597</title>
<path fill="none" stroke="#191970" d="M62.2826,-488.2943C108.4835,-454.5352 262.4394,-342.0391 319.2245,-300.5461"/>
<polygon fill="#191970" stroke="#191970" points="321.4633,-303.2451 327.4725,-294.5192 317.3334,-297.5931 321.4633,-303.2451"/>
</g>
<!-- Node3620 -->
<g id="node27" class="node">
<title>Node3620</title>
<g id="a_node27"><a xlink:href="quickjs_8c.html#a3178c361614999c86711f292c035a706" target="_top" xlink:title="JS_ResolveModule">
<polygon fill="none" stroke="#000000" points="134,-773.5 134,-792.5 235,-792.5 235,-773.5 134,-773.5"/>
<text text-anchor="middle" x="184.5" y="-780.5" font-family="Helvetica,sans-Serif" font-size="10.00" fill="#000000">JS_ResolveModule</text>
</a>
</g>
</g>
<!-- Node3162&#45;&gt;Node3620 -->
<g id="edge52" class="edge">
<title>Node3162&#45;&gt;Node3620</title>
<path fill="none" stroke="#191970" d="M49.4799,-507.6125C51.82,-544.7147 64.9487,-680.4277 134,-759 137.234,-762.6799 141.1556,-765.8417 145.368,-768.5465"/>
<polygon fill="#191970" stroke="#191970" points="143.8498,-771.7064 154.2957,-773.4766 147.2337,-765.5786 143.8498,-771.7064"/>
</g>
<!-- Node3621 -->
<g id="node28" class="node">
<title>Node3621</title>
<g id="a_node28"><a xlink:href="quickjs-libc_8c.html#a82bb7888d024e97e430d98653e97a7bc" target="_top" xlink:title="js_std_dump_error">
<polygon fill="none" stroke="#000000" points="466,-43.5 466,-62.5 563,-62.5 563,-43.5 466,-43.5"/>
<text text-anchor="middle" x="514.5" y="-50.5" font-family="Helvetica,sans-Serif" font-size="10.00" fill="#000000">js_std_dump_error</text>
</a>
</g>
</g>
<!-- Node3162&#45;&gt;Node3621 -->
<g id="edge54" class="edge">
<title>Node3162&#45;&gt;Node3621</title>
<path fill="none" stroke="#191970" d="M49.6292,-488.3496C53.4222,-433.3026 75.0872,-159.5326 134,-105 221.5986,-23.9144 372.7707,-30.8102 455.7533,-42.2863"/>
<polygon fill="#191970" stroke="#191970" points="455.3722,-45.7675 465.7712,-43.7401 456.3776,-38.8401 455.3722,-45.7675"/>
</g>
<!-- Node3164 -->
<g id="node3" class="node">
<title>Node3164</title>
<g id="a_node3"><a xlink:href="quickjs_8c.html#a5d217acce00892ab2b50a1dcc1eb4cc8" target="_top" xlink:title="JS_EvalFunctionInternal">
<polygon fill="none" stroke="#000000" points="279,-877.5 279,-896.5 402,-896.5 402,-877.5 279,-877.5"/>
<text text-anchor="middle" x="340.5" y="-884.5" font-family="Helvetica,sans-Serif" font-size="10.00" fill="#000000">JS_EvalFunctionInternal</text>
</a>
</g>
</g>
<!-- Node3163&#45;&gt;Node3164 -->
<g id="edge2" class="edge">
<title>Node3163&#45;&gt;Node3164</title>
<path fill="none" stroke="#191970" d="M230.041,-873.5467C242.2241,-875.0305 255.693,-876.6709 268.9145,-878.2813"/>
<polygon fill="#191970" stroke="#191970" points="268.6016,-881.7689 278.9514,-879.5037 269.4479,-874.8203 268.6016,-881.7689"/>
</g>
<!-- Node3165 -->
<g id="node4" class="node">
<title>Node3165</title>
<g id="a_node4"><a xlink:href="quickjs_8c.html#aab4130a4c3108a127681be821818528a" target="_top" xlink:title="js_closure">
<polygon fill="none" stroke="#ff0000" points="484,-905.5 484,-924.5 545,-924.5 545,-905.5 484,-905.5"/>
<text text-anchor="middle" x="514.5" y="-912.5" font-family="Helvetica,sans-Serif" font-size="10.00" fill="#000000">js_closure</text>
</a>
</g>
</g>
<!-- Node3164&#45;&gt;Node3165 -->
<g id="edge3" class="edge">
<title>Node3164&#45;&gt;Node3165</title>
<path fill="none" stroke="#191970" d="M399.8943,-896.5577C424.2014,-900.4692 451.716,-904.8968 473.6922,-908.4332"/>
<polygon fill="#191970" stroke="#191970" points="473.2528,-911.9075 483.6819,-910.0408 474.365,-904.9964 473.2528,-911.9075"/>
</g>
<!-- Node3164&#45;&gt;Node3248 -->
<g id="edge18" class="edge">
<title>Node3164&#45;&gt;Node3248</title>
<path fill="none" stroke="#191970" d="M359.5919,-877.4597C380.4587,-867.2786 415.0517,-851.1163 446,-840 505.4679,-818.6398 526.0487,-829.3722 583,-802 600.7886,-793.4504 602.5544,-786.9121 619,-776 627.1549,-770.589 636.2348,-764.9508 644.447,-759.9897"/>
<polygon fill="#191970" stroke="#191970" points="646.4673,-762.8597 653.2546,-754.7244 642.8755,-756.8515 646.4673,-762.8597"/>
</g>
<!-- Node3164&#45;&gt;Node3225 -->
<g id="edge8" class="edge">
<title>Node3164&#45;&gt;Node3225</title>
<path fill="none" stroke="#191970" d="M345.1539,-896.8316C357.4697,-921.5277 393.5993,-985.9097 446,-1010 558.1042,-1061.5379 639.5311,-1064.6625 721,-972 755.5613,-932.6901 787.2771,-552.6892 794.4769,-460.8878"/>
<polygon fill="#191970" stroke="#191970" points="797.9801,-460.9804 795.2644,-450.7395 791.0011,-460.4387 797.9801,-460.9804"/>
</g>
<!-- Node3315 -->
<g id="node7" class="node">
<title>Node3315</title>
<g id="a_node7"><a xlink:href="quickjs_8c.html#a75f6ee5e4235a7dc99889f3d2eb2c147" target="_top" xlink:title="JS_CallFree">
<polygon fill="none" stroke="#ff0000" points="634.5,-943.5 634.5,-962.5 705.5,-962.5 705.5,-943.5 634.5,-943.5"/>
<text text-anchor="middle" x="670" y="-950.5" font-family="Helvetica,sans-Serif" font-size="10.00" fill="#000000">JS_CallFree</text>
</a>
</g>
</g>
<!-- Node3164&#45;&gt;Node3315 -->
<g id="edge6" class="edge">
<title>Node3164&#45;&gt;Node3315</title>
<path fill="none" stroke="#191970" d="M346.418,-896.533C360.4869,-918.1658 398.3481,-970.5958 446,-990 502.3927,-1012.9635 523.3377,-1002.1598 583,-990 604.3762,-985.6433 627.0076,-975.8367 643.8286,-967.4137"/>
<polygon fill="#191970" stroke="#191970" points="645.7335,-970.369 653.0077,-962.6659 642.5175,-964.1514 645.7335,-970.369"/>
</g>
<!-- Node3588 -->
<g id="node8" class="node">
<title>Node3588</title>
<g id="a_node8"><a xlink:href="quickjs_8c.html#a89e4f0ec49cdd0029ab50c0509ccc445" target="_top" xlink:title="js_instantiate_module">
<polygon fill="none" stroke="#ff0000" points="459,-849.5 459,-868.5 570,-868.5 570,-849.5 459,-849.5"/>
<text text-anchor="middle" x="514.5" y="-856.5" font-family="Helvetica,sans-Serif" font-size="10.00" fill="#000000">js_instantiate_module</text>
</a>
</g>
</g>
<!-- Node3164&#45;&gt;Node3588 -->
<g id="edge9" class="edge">
<title>Node3164&#45;&gt;Node3588</title>
<path fill="none" stroke="#191970" d="M399.8943,-877.4423C415.7109,-874.8971 432.8855,-872.1334 449.0087,-869.5388"/>
<polygon fill="#191970" stroke="#191970" points="449.5733,-872.9931 458.8902,-867.9487 448.4611,-866.082 449.5733,-872.9931"/>
</g>
<!-- Node3591 -->
<g id="node9" class="node">
<title>Node3591</title>
<g id="a_node9"><a xlink:href="quickjs_8c.html#a8caed40cacf996391536c97ef916af21" target="_top" xlink:title="js_evaluate_module">
<polygon fill="none" stroke="#ff0000" points="463,-943.5 463,-962.5 566,-962.5 566,-943.5 463,-943.5"/>
<text text-anchor="middle" x="514.5" y="-950.5" font-family="Helvetica,sans-Serif" font-size="10.00" fill="#000000">js_evaluate_module</text>
</a>
</g>
</g>
<!-- Node3164&#45;&gt;Node3591 -->
<g id="edge13" class="edge">
<title>Node3164&#45;&gt;Node3591</title>
<path fill="none" stroke="#191970" d="M359.5919,-896.5403C380.4587,-906.7214 415.0517,-922.8837 446,-934 452.4771,-936.3265 459.3828,-938.541 466.2229,-940.5819"/>
<polygon fill="#191970" stroke="#191970" points="465.562,-944.0338 476.1402,-943.4407 467.5009,-937.3077 465.562,-944.0338"/>
</g>
<!-- Node3219 -->
<g id="node10" class="node">
<title>Node3219</title>
<g id="a_node10"><a xlink:href="quickjs_8c.html#adcabee55726eddca24893a78515c7ba2" target="_top" xlink:title="js_free_modules">
<polygon fill="none" stroke="#ff0000" points="470.5,-773.5 470.5,-792.5 558.5,-792.5 558.5,-773.5 470.5,-773.5"/>
<text text-anchor="middle" x="514.5" y="-780.5" font-family="Helvetica,sans-Serif" font-size="10.00" fill="#000000">js_free_modules</text>
</a>
</g>
</g>
<!-- Node3164&#45;&gt;Node3219 -->
<g id="edge19" class="edge">
<title>Node3164&#45;&gt;Node3219</title>
<path fill="none" stroke="#191970" d="M350.8183,-877.3933C368.8782,-861.0076 407.9295,-827.4481 446,-807 453.8238,-802.7978 462.5313,-799.0903 471.0432,-795.9237"/>
<polygon fill="#191970" stroke="#191970" points="472.2481,-799.2102 480.5126,-792.5808 469.9178,-792.6094 472.2481,-799.2102"/>
</g>
<!-- Node3165&#45;&gt;Node3248 -->
<g id="edge4" class="edge">
<title>Node3165&#45;&gt;Node3248</title>
<path fill="none" stroke="#191970" d="M545.1121,-911.6952C557.8561,-909.0784 572.1724,-904.3918 583,-896 594.7993,-886.8552 640.1149,-802.0617 660.255,-763.6977"/>
<polygon fill="#191970" stroke="#191970" points="663.4739,-765.0953 665.0092,-754.6123 657.2717,-761.8497 663.4739,-765.0953"/>
</g>
<!-- Node3165&#45;&gt;Node3225 -->
<g id="edge5" class="edge">
<title>Node3165&#45;&gt;Node3225</title>
<path fill="none" stroke="#191970" d="M545.0417,-909.147C591.5004,-898.4975 678.9568,-871.236 721,-811 761.5148,-752.9537 787.0551,-529.4446 794.0468,-461.0217"/>
<polygon fill="#191970" stroke="#191970" points="797.5599,-461.0647 795.0733,-450.7658 790.5947,-460.3675 797.5599,-461.0647"/>
</g>
<!-- Node3315&#45;&gt;Node3225 -->
<g id="edge7" class="edge">
<title>Node3315&#45;&gt;Node3225</title>
<path fill="none" stroke="#191970" d="M694.6591,-943.4955C704.3546,-938.5287 714.662,-931.473 721,-922 772.9612,-844.3365 791.1147,-541.9667 795.0965,-461.0241"/>
<polygon fill="#191970" stroke="#191970" points="798.6064,-460.8959 795.5835,-450.7415 791.6143,-460.5647 798.6064,-460.8959"/>
</g>
<!-- Node3588&#45;&gt;Node3248 -->
<g id="edge11" class="edge">
<title>Node3588&#45;&gt;Node3248</title>
<path fill="none" stroke="#191970" d="M556.3549,-849.4226C565.7725,-845.941 575.2591,-841.2593 583,-835 606.8862,-815.6854 597.2606,-797.7026 619,-776 625.3247,-769.6861 633.1766,-764.1078 640.8089,-759.4862"/>
<polygon fill="#191970" stroke="#191970" points="642.5965,-762.496 649.5629,-754.5135 639.139,-756.4095 642.5965,-762.496"/>
</g>
<!-- Node3588&#45;&gt;Node3225 -->
<g id="edge12" class="edge">
<title>Node3588&#45;&gt;Node3225</title>
<path fill="none" stroke="#191970" d="M565.7222,-849.4055C613.4409,-837.6879 682.8,-813.0287 721,-764 758.8054,-715.4777 785.7559,-522.889 793.6301,-460.5681"/>
<polygon fill="#191970" stroke="#191970" points="797.1199,-460.8661 794.8767,-450.5115 790.173,-460.0049 797.1199,-460.8661"/>
</g>
<!-- Node3588&#45;&gt;Node3588 -->
<g id="edge10" class="edge">
<title>Node3588&#45;&gt;Node3588</title>
<path fill="none" stroke="#191970" d="M490.7641,-868.7571C479.2169,-877.5653 487.1289,-887 514.5,-887 532.4623,-887 542.0442,-882.9368 543.2458,-877.6539"/>
<polygon fill="#191970" stroke="#191970" points="546.1923,-875.7532 538.2359,-868.7571 540.0928,-879.1879 546.1923,-875.7532"/>
</g>
<!-- Node3591&#45;&gt;Node3248 -->
<g id="edge15" class="edge">
<title>Node3591&#45;&gt;Node3248</title>
<path fill="none" stroke="#191970" d="M566.0101,-944.1017C572.1633,-941.5366 578.0183,-938.2387 583,-934 636.5847,-888.4079 658.9928,-802.7857 666.6463,-764.4378"/>
<polygon fill="#191970" stroke="#191970" points="670.0979,-765.0207 668.4972,-754.5475 663.2173,-763.7329 670.0979,-765.0207"/>
</g>
<!-- Node3591&#45;&gt;Node3225 -->
<g id="edge16" class="edge">
<title>Node3591&#45;&gt;Node3225</title>
<path fill="none" stroke="#191970" d="M566.0439,-944.897C614.3508,-934.3947 684.4428,-911.0898 721,-861 768.7696,-795.5473 789.6692,-535.1833 794.735,-460.8872"/>
<polygon fill="#191970" stroke="#191970" points="798.2465,-460.8282 795.4138,-450.6191 791.2617,-460.3664 798.2465,-460.8282"/>
</g>
<!-- Node3591&#45;&gt;Node3315 -->
<g id="edge17" class="edge">
<title>Node3591&#45;&gt;Node3315</title>
<path fill="none" stroke="#191970" d="M566.2792,-953C584.9776,-953 605.9401,-953 624.1,-953"/>
<polygon fill="#191970" stroke="#191970" points="624.1483,-956.5001 634.1482,-953 624.1482,-949.5001 624.1483,-956.5001"/>
</g>
<!-- Node3591&#45;&gt;Node3591 -->
<g id="edge14" class="edge">
<title>Node3591&#45;&gt;Node3591</title>
<path fill="none" stroke="#191970" d="M490.7641,-962.7571C479.2169,-971.5653 487.1289,-981 514.5,-981 532.4623,-981 542.0442,-976.9368 543.2458,-971.6539"/>
<polygon fill="#191970" stroke="#191970" points="546.1923,-969.7532 538.2359,-962.7571 540.0928,-973.1879 546.1923,-969.7532"/>
</g>
<!-- Node3592&#45;&gt;Node3248 -->
<g id="edge36" class="edge">
<title>Node3592&#45;&gt;Node3248</title>
<path fill="none" stroke="#191970" d="M345.5569,-507.6674C358.818,-532.1502 396.9834,-597.2572 446,-634 498.3686,-673.2554 524.8795,-657.9091 583,-688 606.6236,-700.2307 631.8693,-717.261 649.0468,-729.5165"/>
<polygon fill="#191970" stroke="#191970" points="647.0876,-732.4189 657.2427,-735.4394 651.1877,-726.7454 647.0876,-732.4189"/>
</g>
<!-- Node3592&#45;&gt;Node3225 -->
<g id="edge32" class="edge">
<title>Node3592&#45;&gt;Node3225</title>
<path fill="none" stroke="#191970" d="M342.0158,-488.4901C347.9494,-454.8136 372.9853,-340.797 446,-295 497.7787,-262.5228 669.0499,-257.7978 721,-290 767.9394,-319.0962 786.4278,-387.3231 792.9059,-421.1979"/>
<polygon fill="#191970" stroke="#191970" points="789.4957,-422.0153 794.6662,-431.2628 796.391,-420.8093 789.4957,-422.0153"/>
</g>
<!-- Node3417 -->
<g id="node12" class="node">
<title>Node3417</title>
<g id="a_node12"><a xlink:href="quickjs_8c.html#a4b66ebf3abee5d29490343fbe360ec5a" target="_top" xlink:title="JS_AtomToCString">
<polygon fill="none" stroke="#ff0000" points="464,-469.5 464,-488.5 565,-488.5 565,-469.5 464,-469.5"/>
<text text-anchor="middle" x="514.5" y="-476.5" font-family="Helvetica,sans-Serif" font-size="10.00" fill="#000000">JS_AtomToCString</text>
</a>
</g>
</g>
<!-- Node3592&#45;&gt;Node3417 -->
<g id="edge23" class="edge">
<title>Node3592&#45;&gt;Node3417</title>
<path fill="none" stroke="#191970" d="M410.0196,-490.4088C424.4921,-488.8284 439.6379,-487.1746 453.7642,-485.6321"/>
<polygon fill="#191970" stroke="#191970" points="454.285,-489.0961 463.846,-484.5312 453.5251,-482.1375 454.285,-489.0961"/>
</g>
<!-- Node3593 -->
<g id="node13" class="node">
<title>Node3593</title>
<g id="a_node13"><a xlink:href="quickjs_8c.html#a841f4cb887e4d9e03e94a0697255e578" target="_top" xlink:title="JS_DefinePropertyValueStr">
<polygon fill="none" stroke="#ff0000" points="446,-337.5 446,-356.5 583,-356.5 583,-337.5 446,-337.5"/>
<text text-anchor="middle" x="514.5" y="-344.5" font-family="Helvetica,sans-Serif" font-size="10.00" fill="#000000">JS_DefinePropertyValueStr</text>
</a>
</g>
</g>
<!-- Node3592&#45;&gt;Node3593 -->
<g id="edge26" class="edge">
<title>Node3592&#45;&gt;Node3593</title>
<path fill="none" stroke="#191970" d="M345.4174,-488.3162C358.3512,-463.8479 395.8119,-399.1365 446,-366 449.1187,-363.9409 452.458,-362.1031 455.9221,-360.463"/>
<polygon fill="#191970" stroke="#191970" points="457.4206,-363.6307 465.3175,-356.5674 454.7395,-357.1645 457.4206,-363.6307"/>
</g>
<!-- Node3221 -->
<g id="node15" class="node">
<title>Node3221</title>
<g id="a_node15"><a xlink:href="quickjs_8c.html#ab7fc45a99935a1c0ba50b0216d9401a9" target="_top" xlink:title="JS_FreeAtom">
<polygon fill="none" stroke="#ff0000" points="631.5,-299.5 631.5,-318.5 708.5,-318.5 708.5,-299.5 631.5,-299.5"/>
<text text-anchor="middle" x="670" y="-306.5" font-family="Helvetica,sans-Serif" font-size="10.00" fill="#000000">JS_FreeAtom</text>
</a>
</g>
</g>
<!-- Node3592&#45;&gt;Node3221 -->
<g id="edge29" class="edge">
<title>Node3592&#45;&gt;Node3221</title>
<path fill="none" stroke="#191970" d="M343.0909,-488.4955C351.7755,-458.6781 382.9248,-366.6715 446,-328 499.0071,-295.5012 572.7884,-296.0928 620.9602,-301.1757"/>
<polygon fill="#191970" stroke="#191970" points="620.7953,-304.68 631.1321,-302.3558 621.6021,-297.7266 620.7953,-304.68"/>
</g>
<!-- Node3378 -->
<g id="node16" class="node">
<title>Node3378</title>
<g id="a_node16"><a xlink:href="quickjs_8c.html#ae0bc4f65da64810facb2cb9e476eda2e" target="_top" xlink:title="JS_FreeCString">
<polygon fill="none" stroke="#000000" points="627,-204.5 627,-223.5 713,-223.5 713,-204.5 627,-204.5"/>
<text text-anchor="middle" x="670" y="-211.5" font-family="Helvetica,sans-Serif" font-size="10.00" fill="#000000">JS_FreeCString</text>
</a>
</g>
</g>
<!-- Node3592&#45;&gt;Node3378 -->
<g id="edge30" class="edge">
<title>Node3592&#45;&gt;Node3378</title>
<path fill="none" stroke="#191970" d="M343.9032,-488.3828C361.3155,-439.2361 439.8596,-218.2693 446,-214 500.998,-175.7605 583.3949,-188.9794 631.4217,-201.7215"/>
<polygon fill="#191970" stroke="#191970" points="630.5544,-205.1131 641.1262,-204.4146 632.4263,-198.368 630.5544,-205.1131"/>
</g>
<!-- Node3351 -->
<g id="node17" class="node">
<title>Node3351</title>
<g id="a_node17"><a xlink:href="quickjs_8c.html#a44504e6de8f6e13870e695d360d9cd3e" target="_top" xlink:title="JS_GetImportMeta">
<polygon fill="none" stroke="#ff0000" points="465,-697.5 465,-716.5 564,-716.5 564,-697.5 465,-697.5"/>
<text text-anchor="middle" x="514.5" y="-704.5" font-family="Helvetica,sans-Serif" font-size="10.00" fill="#000000">JS_GetImportMeta</text>
</a>
</g>
</g>
<!-- Node3592&#45;&gt;Node3351 -->
<g id="edge33" class="edge">
<title>Node3592&#45;&gt;Node3351</title>
<path fill="none" stroke="#191970" d="M343.309,-507.6376C352.641,-537.9915 385.5009,-632.5817 446,-683 450.9551,-687.1294 456.6673,-690.5671 462.6357,-693.4244"/>
<polygon fill="#191970" stroke="#191970" points="461.5803,-696.7782 472.1536,-697.4529 464.3088,-690.3318 461.5803,-696.7782"/>
</g>
<!-- Node3594 -->
<g id="node18" class="node">
<title>Node3594</title>
<g id="a_node18"><a xlink:href="quickjs_8c.html#a59db307289b1a0f8c16278c121fc43c1" target="_top" xlink:title="JS_GetModuleName">
<polygon fill="none" stroke="#ff0000" points="461,-545.5 461,-564.5 568,-564.5 568,-545.5 461,-545.5"/>
<text text-anchor="middle" x="514.5" y="-552.5" font-family="Helvetica,sans-Serif" font-size="10.00" fill="#000000">JS_GetModuleName</text>
</a>
</g>
</g>
<!-- Node3592&#45;&gt;Node3594 -->
<g id="edge35" class="edge">
<title>Node3592&#45;&gt;Node3594</title>
<path fill="none" stroke="#191970" d="M365.472,-507.5944C386.7358,-515.6193 418.1737,-527.1433 446,-536 453.1957,-538.2903 460.8649,-540.5712 468.3701,-542.7163"/>
<polygon fill="#191970" stroke="#191970" points="467.5145,-546.1114 478.0885,-545.4475 469.4084,-539.3724 467.5145,-546.1114"/>
</g>
<!-- Node3456 -->
<g id="node19" class="node">
<title>Node3456</title>
<g id="a_node19"><a xlink:href="quickjs_8h.html#a93abffa925714e249a6aa2f4ae7900f6" target="_top" xlink:title="JS_NewBool">
<polygon fill="none" stroke="#000000" points="633,-425.5 633,-444.5 707,-444.5 707,-425.5 633,-425.5"/>
<text text-anchor="middle" x="670" y="-432.5" font-family="Helvetica,sans-Serif" font-size="10.00" fill="#000000">JS_NewBool</text>
</a>
</g>
</g>
<!-- Node3592&#45;&gt;Node3456 -->
<g id="edge37" class="edge">
<title>Node3592&#45;&gt;Node3456</title>
<path fill="none" stroke="#191970" d="M362.2733,-488.4519C383.2943,-479.6456 416.2294,-466.9215 446,-460 505.9343,-446.0657 576.757,-439.817 622.4772,-437.0697"/>
<polygon fill="#191970" stroke="#191970" points="622.9021,-440.5513 632.6874,-436.4895 622.5049,-433.5626 622.9021,-440.5513"/>
</g>
<!-- Node3263 -->
<g id="node20" class="node">
<title>Node3263</title>
<g id="a_node20"><a xlink:href="quickjs_8c.html#a0ee6a3654a6016393fac5e1c108f403a" target="_top" xlink:title="JS_NewString">
<polygon fill="none" stroke="#ff0000" points="474.5,-507.5 474.5,-526.5 554.5,-526.5 554.5,-507.5 474.5,-507.5"/>
<text text-anchor="middle" x="514.5" y="-514.5" font-family="Helvetica,sans-Serif" font-size="10.00" fill="#000000">JS_NewString</text>
</a>
</g>
</g>
<!-- Node3592&#45;&gt;Node3263 -->
<g id="edge38" class="edge">
<title>Node3592&#45;&gt;Node3263</title>
<path fill="none" stroke="#191970" d="M410.0196,-505.5912C428.0493,-507.56 447.1237,-509.6428 463.9704,-511.4824"/>
<polygon fill="#191970" stroke="#191970" points="463.8218,-514.9869 474.1427,-512.5932 464.5817,-508.0283 463.8218,-514.9869"/>
</g>
<!-- Node3595 -->
<g id="node21" class="node">
<title>Node3595</title>
<g id="a_node21"><a xlink:href="cutils_8h.html#a2f9f8437694c53829c7d6b5f3d02ae85" target="_top" xlink:title="pstrcat">
<polygon fill="none" stroke="#000000" points="491,-583.5 491,-602.5 538,-602.5 538,-583.5 491,-583.5"/>
<text text-anchor="middle" x="514.5" y="-590.5" font-family="Helvetica,sans-Serif" font-size="10.00" fill="#000000">pstrcat</text>
</a>
</g>
</g>
<!-- Node3592&#45;&gt;Node3595 -->
<g id="edge39" class="edge">
<title>Node3592&#45;&gt;Node3595</title>
<path fill="none" stroke="#191970" d="M351.067,-507.607C369.1915,-523.6027 407.9425,-555.737 446,-574 456.904,-579.2326 469.498,-583.2434 480.8901,-586.2009"/>
<polygon fill="#191970" stroke="#191970" points="480.3893,-589.6805 490.9315,-588.6258 482.0325,-582.8761 480.3893,-589.6805"/>
</g>
<!-- Node3596 -->
<g id="node22" class="node">
<title>Node3596</title>
<g id="a_node22"><a xlink:href="cutils_8h.html#adbfc0638ae78ec4076886d7cbc03d0e4" target="_top" xlink:title="pstrcpy">
<polygon fill="none" stroke="#000000" points="645.5,-602.5 645.5,-621.5 694.5,-621.5 694.5,-602.5 645.5,-602.5"/>
<text text-anchor="middle" x="670" y="-609.5" font-family="Helvetica,sans-Serif" font-size="10.00" fill="#000000">pstrcpy</text>
</a>
</g>
</g>
<!-- Node3592&#45;&gt;Node3596 -->
<g id="edge41" class="edge">
<title>Node3592&#45;&gt;Node3596</title>
<path fill="none" stroke="#191970" d="M345.7436,-507.8165C358.8923,-531.2392 395.8401,-590.0765 446,-612 508.1506,-639.1643 589.5897,-629.3143 635.1857,-620.277"/>
<polygon fill="#191970" stroke="#191970" points="636.0868,-623.6645 645.1623,-618.1978 634.6586,-616.8117 636.0868,-623.6645"/>
</g>
<!-- Node3417&#45;&gt;Node3248 -->
<g id="edge24" class="edge">
<title>Node3417&#45;&gt;Node3248</title>
<path fill="none" stroke="#191970" d="M565.3354,-486.5484C571.8949,-489.3007 578.0413,-493.0103 583,-498 626.1669,-541.4366 598.4334,-573.3186 619,-631 631.3136,-665.5349 649.6125,-704.1872 660.6166,-726.4487"/>
<polygon fill="#191970" stroke="#191970" points="657.5126,-728.0671 665.1116,-735.45 663.7752,-724.9397 657.5126,-728.0671"/>
</g>
<!-- Node3417&#45;&gt;Node3225 -->
<g id="edge25" class="edge">
<title>Node3417&#45;&gt;Node3225</title>
<path fill="none" stroke="#191970" d="M565.0911,-473.6059C606.9559,-468.9669 667.9439,-461.8046 721,-454 729.3635,-452.7697 738.2302,-451.3426 746.8264,-449.8938"/>
<polygon fill="#191970" stroke="#191970" points="747.482,-453.3325 756.747,-448.1935 746.2995,-446.4331 747.482,-453.3325"/>
</g>
<!-- Node3421 -->
<g id="node14" class="node">
<title>Node3421</title>
<g id="a_node14"><a xlink:href="quickjs_8c.html#aa2ef5af1544a3012f91a80c98c326b8f" target="_top" xlink:title="JS_NewAtom">
<polygon fill="none" stroke="#ff0000" points="631.5,-337.5 631.5,-356.5 708.5,-356.5 708.5,-337.5 631.5,-337.5"/>
<text text-anchor="middle" x="670" y="-344.5" font-family="Helvetica,sans-Serif" font-size="10.00" fill="#000000">JS_NewAtom</text>
</a>
</g>
</g>
<!-- Node3593&#45;&gt;Node3421 -->
<g id="edge27" class="edge">
<title>Node3593&#45;&gt;Node3421</title>
<path fill="none" stroke="#191970" d="M583.1572,-347C595.8684,-347 608.9084,-347 620.8928,-347"/>
<polygon fill="#191970" stroke="#191970" points="621.1181,-350.5001 631.1181,-347 621.1181,-343.5001 621.1181,-350.5001"/>
</g>
<!-- Node3593&#45;&gt;Node3221 -->
<g id="edge28" class="edge">
<title>Node3593&#45;&gt;Node3221</title>
<path fill="none" stroke="#191970" d="M553.7392,-337.411C574.3371,-332.3774 599.7595,-326.1649 621.5735,-320.8341"/>
<polygon fill="#191970" stroke="#191970" points="622.4287,-324.2282 631.312,-318.4543 620.767,-317.4283 622.4287,-324.2282"/>
</g>
<!-- Node3378&#45;&gt;Node3225 -->
<g id="edge31" class="edge">
<title>Node3378&#45;&gt;Node3225</title>
<path fill="none" stroke="#191970" d="M685.1121,-223.7444C696.2819,-231.592 711.1927,-243.5114 721,-257 759.624,-310.1216 782.2814,-386.0034 791.3576,-421.4074"/>
<polygon fill="#191970" stroke="#191970" points="788.0306,-422.5332 793.8303,-431.3997 794.8256,-420.8517 788.0306,-422.5332"/>
</g>
<!-- Node3351&#45;&gt;Node3248 -->
<g id="edge34" class="edge">
<title>Node3351&#45;&gt;Node3248</title>
<path fill="none" stroke="#191970" d="M553.7392,-716.589C574.2591,-721.6035 599.567,-727.7881 621.3255,-733.1053"/>
<polygon fill="#191970" stroke="#191970" points="620.4979,-736.506 631.043,-735.4799 622.1597,-729.706 620.4979,-736.506"/>
</g>
<!-- Node3595&#45;&gt;Node3596 -->
<g id="edge40" class="edge">
<title>Node3595&#45;&gt;Node3596</title>
<path fill="none" stroke="#191970" d="M538.1171,-595.8857C563.9204,-599.0385 605.5153,-604.1208 635.0887,-607.7343"/>
<polygon fill="#191970" stroke="#191970" points="635.038,-611.2541 645.3887,-608.9928 635.8871,-604.3057 635.038,-611.2541"/>
</g>
<!-- Node3598 -->
<g id="node24" class="node">
<title>Node3598</title>
<g id="a_node24"><a xlink:href="quickjs_8c.html#ad54b242d774ba44b2ac39fe8161aaf9c" target="_top" xlink:title="JS_ReadObjectAtoms">
<polygon fill="none" stroke="#ff0000" points="457.5,-147.5 457.5,-166.5 571.5,-166.5 571.5,-147.5 457.5,-147.5"/>
<text text-anchor="middle" x="514.5" y="-154.5" font-family="Helvetica,sans-Serif" font-size="10.00" fill="#000000">JS_ReadObjectAtoms</text>
</a>
</g>
</g>
<!-- Node3597&#45;&gt;Node3598 -->
<g id="edge43" class="edge">
<title>Node3597&#45;&gt;Node3598</title>
<path fill="none" stroke="#191970" d="M347.8776,-275.2464C363.7087,-254.9449 403.0083,-207.8113 446,-181 452.7662,-176.7803 460.373,-173.1803 467.9912,-170.1514"/>
<polygon fill="#191970" stroke="#191970" points="469.4116,-173.3582 477.5848,-166.6166 466.9914,-166.7898 469.4116,-173.3582"/>
</g>
<!-- Node3603 -->
<g id="node25" class="node">
<title>Node3603</title>
<g id="a_node25"><a xlink:href="quickjs_8c.html#a4b8ef2bb3b35e4a5f6ed8bd837a50e7c" target="_top" xlink:title="JS_ReadObjectRec">
<polygon fill="none" stroke="#ff0000" points="462.5,-375.5 462.5,-394.5 566.5,-394.5 566.5,-375.5 462.5,-375.5"/>
<text text-anchor="middle" x="514.5" y="-382.5" font-family="Helvetica,sans-Serif" font-size="10.00" fill="#000000">JS_ReadObjectRec</text>
</a>
</g>
</g>
<!-- Node3597&#45;&gt;Node3603 -->
<g id="edge44" class="edge">
<title>Node3597&#45;&gt;Node3603</title>
<path fill="none" stroke="#191970" d="M350.3713,-294.7376C368.0535,-311.6537 406.9452,-346.5201 446,-366 450.6436,-368.3161 455.6097,-370.384 460.6671,-372.2227"/>
<polygon fill="#191970" stroke="#191970" points="459.8509,-375.6399 470.4445,-375.481 462.0641,-368.9989 459.8509,-375.6399"/>
</g>
<!-- Node3619 -->
<g id="node26" class="node">
<title>Node3619</title>
<g id="a_node26"><a xlink:href="quickjs_8c.html#a3a3b14bcdcb10fcf1a666d55a3817a8c" target="_top" xlink:title="bc_reader_free">
<polygon fill="none" stroke="#ff0000" points="474,-223.5 474,-242.5 555,-242.5 555,-223.5 474,-223.5"/>
<text text-anchor="middle" x="514.5" y="-230.5" font-family="Helvetica,sans-Serif" font-size="10.00" fill="#000000">bc_reader_free</text>
</a>
</g>
</g>
<!-- Node3597&#45;&gt;Node3619 -->
<g id="edge50" class="edge">
<title>Node3597&#45;&gt;Node3619</title>
<path fill="none" stroke="#191970" d="M372.4143,-275.4624C400.655,-267.0226 442.051,-254.6514 472.8843,-245.4369"/>
<polygon fill="#191970" stroke="#191970" points="473.9148,-248.7819 482.4939,-242.565 471.9104,-242.075 473.9148,-248.7819"/>
</g>
<!-- Node3603&#45;&gt;Node3248 -->
<g id="edge47" class="edge">
<title>Node3603&#45;&gt;Node3248</title>
<path fill="none" stroke="#191970" d="M526.5045,-394.5265C542.0793,-407.5752 568.919,-432.5396 583,-460 618.4377,-529.1098 595.0058,-557.1334 619,-631 630.2691,-665.6921 648.7521,-704.0201 660.1007,-726.2228"/>
<polygon fill="#191970" stroke="#191970" points="657.0534,-727.9495 664.7614,-735.2184 663.2687,-724.7292 657.0534,-727.9495"/>
</g>
<!-- Node3603&#45;&gt;Node3225 -->
<g id="edge49" class="edge">
<title>Node3603&#45;&gt;Node3225</title>
<path fill="none" stroke="#191970" d="M566.7454,-390.3149C608.782,-395.1951 669.1784,-403.5719 721,-416 734.3749,-419.2076 748.771,-423.7348 761.3394,-428.057"/>
<polygon fill="#191970" stroke="#191970" points="760.3779,-431.429 770.9727,-431.4502 762.7035,-424.8266 760.3779,-431.429"/>
</g>
<!-- Node3603&#45;&gt;Node3221 -->
<g id="edge48" class="edge">
<title>Node3603&#45;&gt;Node3221</title>
<path fill="none" stroke="#191970" d="M561.9563,-375.4763C569.2827,-372.99 576.5488,-369.8802 583,-366 602.9362,-354.0091 599.598,-340.8373 619,-328 621.9254,-326.0644 625.0749,-324.2906 628.322,-322.6724"/>
<polygon fill="#191970" stroke="#191970" points="629.9216,-325.7913 637.6262,-318.5188 627.0681,-319.3993 629.9216,-325.7913"/>
</g>
<!-- Node3603&#45;&gt;Node3456 -->
<g id="edge45" class="edge">
<title>Node3603&#45;&gt;Node3456</title>
<path fill="none" stroke="#191970" d="M544.1144,-394.5223C568.5712,-402.3862 603.5041,-413.6187 630.369,-422.2569"/>
<polygon fill="#191970" stroke="#191970" points="629.6401,-425.699 640.2315,-425.4281 631.7829,-419.035 629.6401,-425.699"/>
</g>
<!-- Node3603&#45;&gt;Node3603 -->
<g id="edge46" class="edge">
<title>Node3603&#45;&gt;Node3603</title>
<path fill="none" stroke="#191970" d="M490.7641,-394.7571C479.2169,-403.5653 487.1289,-413 514.5,-413 532.4623,-413 542.0442,-408.9368 543.2458,-403.6539"/>
<polygon fill="#191970" stroke="#191970" points="546.1923,-401.7532 538.2359,-394.7571 540.0928,-405.1879 546.1923,-401.7532"/>
</g>
<!-- Node3619&#45;&gt;Node3221 -->
<g id="edge51" class="edge">
<title>Node3619&#45;&gt;Node3221</title>
<path fill="none" stroke="#191970" d="M534.1942,-242.6255C561.3011,-255.8739 610.2818,-279.813 641.4192,-295.0313"/>
<polygon fill="#191970" stroke="#191970" points="639.9445,-298.2061 650.4657,-299.4527 643.0183,-291.9171 639.9445,-298.2061"/>
</g>
<!-- Node3620&#45;&gt;Node3219 -->
<g id="edge53" class="edge">
<title>Node3620&#45;&gt;Node3219</title>
<path fill="none" stroke="#191970" d="M235.3393,-783C296.3086,-783 398.0674,-783 460.4347,-783"/>
<polygon fill="#191970" stroke="#191970" points="460.4707,-786.5001 470.4706,-783 460.4706,-779.5001 460.4707,-786.5001"/>
</g>
<!-- Node3621&#45;&gt;Node3225 -->
<g id="edge55" class="edge">
<title>Node3621&#45;&gt;Node3225</title>
<path fill="none" stroke="#191970" d="M551.2066,-43.4476C596.8482,-33.9723 674.4116,-26.1149 721,-67 775.1041,-114.4807 791.4035,-351.0316 795.0889,-421.2915"/>
<polygon fill="#191970" stroke="#191970" points="791.6,-421.604 795.5915,-431.4182 798.5914,-421.257 791.6,-421.604"/>
</g>
<!-- Node3412 -->
<g id="node29" class="node">
<title>Node3412</title>
<g id="a_node29"><a xlink:href="quickjs_8c.html#a8551eaac7ef616910807cebdc515760d" target="_top" xlink:title="JS_GetException">
<polygon fill="none" stroke="#000000" points="623.5,-76.5 623.5,-95.5 716.5,-95.5 716.5,-76.5 623.5,-76.5"/>
<text text-anchor="middle" x="670" y="-83.5" font-family="Helvetica,sans-Serif" font-size="10.00" fill="#000000">JS_GetException</text>
</a>
</g>
</g>
<!-- Node3621&#45;&gt;Node3412 -->
<g id="edge56" class="edge">
<title>Node3621&#45;&gt;Node3412</title>
<path fill="none" stroke="#191970" d="M559.477,-62.545C576.8839,-66.239 596.9734,-70.5024 615.2112,-74.3728"/>
<polygon fill="#191970" stroke="#191970" points="614.6153,-77.8242 625.124,-76.4765 616.0685,-70.9767 614.6153,-77.8242"/>
</g>
<!-- Node3622 -->
<g id="node30" class="node">
<title>Node3622</title>
<g id="a_node30"><a xlink:href="quickjs-libc_8c.html#a410cd5dce0fb0e6a978ed313963f3962" target="_top" xlink:title="js_std_dump_error1">
<polygon fill="none" stroke="#ff0000" points="619,-.5 619,-19.5 721,-19.5 721,-.5 619,-.5"/>
<text text-anchor="middle" x="670" y="-7.5" font-family="Helvetica,sans-Serif" font-size="10.00" fill="#000000">js_std_dump_error1</text>
</a>
</g>
</g>
<!-- Node3621&#45;&gt;Node3622 -->
<g id="edge57" class="edge">
<title>Node3621&#45;&gt;Node3622</title>
<path fill="none" stroke="#191970" d="M549.0105,-43.4569C571.659,-37.194 601.4852,-28.9462 625.8563,-22.2069"/>
<polygon fill="#191970" stroke="#191970" points="626.8806,-25.5551 635.586,-19.5164 625.0148,-18.8083 626.8806,-25.5551"/>
</g>
<!-- Node3622&#45;&gt;Node3225 -->
<g id="edge58" class="edge">
<title>Node3622&#45;&gt;Node3225</title>
<path fill="none" stroke="#191970" d="M702.1308,-19.5109C709.2793,-23.0137 716.1616,-27.7218 721,-34 768.8759,-96.1233 789.6402,-348.2949 794.7155,-421.1815"/>
<polygon fill="#191970" stroke="#191970" points="791.2317,-421.5418 795.397,-431.2835 798.2158,-421.0705 791.2317,-421.5418"/>
</g>
</g>
</svg>
