<?xml version="1.0" encoding="UTF-8" standalone="no"?>
<!DOCTYPE svg PUBLIC "-//W3C//DTD SVG 1.1//EN"
 "http://www.w3.org/Graphics/SVG/1.1/DTD/svg11.dtd">
<!-- Generated by graphviz version 2.40.1 (20161225.0304)
 -->
<!-- Title: JS_GetPropertyStr Pages: 1 -->
<!--zoomable 338 -->
<svg id="main" version="1.1" xmlns="http://www.w3.org/2000/svg" xmlns:xlink="http://www.w3.org/1999/xlink" xml:space="preserve" onload="init(evt)">
<style type="text/css"><![CDATA[
.edge:hover path { stroke: red; }
.edge:hover polygon { stroke: red; fill: red; }
]]></style>
<script type="text/javascript"><![CDATA[
var edges = document.getElementsByTagName('g');
if (edges && edges.length) {
  for (var i=0;i<edges.length;i++) {
    if (edges[i].id.substr(0,4)=='edge') {
      edges[i].setAttribute('class','edge');
    }
  }
}
]]></script>
        <defs>
                <circle id="rim" cx="0" cy="0" r="7"/>
                <circle id="rim2" cx="0" cy="0" r="3.5"/>
                <g id="zoomPlus">
                        <use xlink:href="#rim" fill="#404040">
                                <set attributeName="fill" to="#808080" begin="zoomplus.mouseover" end="zoomplus.mouseout"/>
                        </use>
                        <path d="M-4,0h8M0,-4v8" fill="none" stroke="white" stroke-width="1.5" pointer-events="none"/>
                </g>
                <g id="zoomMin">
                        <use xlink:href="#rim" fill="#404040">
                                <set attributeName="fill" to="#808080" begin="zoomminus.mouseover" end="zoomminus.mouseout"/>
                        </use>
                        <path d="M-4,0h8" fill="none" stroke="white" stroke-width="1.5" pointer-events="none"/>
                </g>
                <g id="dirArrow">
                        <path fill="none" stroke="white" stroke-width="1.5" d="M0,-3.0v7 M-2.5,-0.5L0,-3.0L2.5,-0.5"/>
                </g>
               <g id="resetDef">
                       <use xlink:href="#rim2" fill="#404040">
                               <set attributeName="fill" to="#808080" begin="reset.mouseover" end="reset.mouseout"/>
                       </use>
               </g>
        </defs>

<script type="text/javascript">
var viewWidth = 548;
var viewHeight = 338;
var sectionId = 'dynsection-167';
</script>
<script xlink:href="svgpan.js"/>
<svg id="graph" class="graph">
<g id="viewport">
<title>JS_GetPropertyStr</title>
<!-- Node56473 -->
<g id="node1" class="node">
<title>Node56473</title>
<polygon fill="#bfbfbf" stroke="#000000" points="0,-136.5 0,-155.5 99,-155.5 99,-136.5 0,-136.5"/>
<text text-anchor="middle" x="49.5" y="-143.5" font-family="Helvetica,sans-Serif" font-size="10.00" fill="#000000">JS_GetPropertyStr</text>
</g>
<!-- Node56474 -->
<g id="node2" class="node">
<title>Node56474</title>
<g id="a_node2"><a xlink:href="quickjs-libc_8c.html#ad94572b16428965bd7780a285c188c77" target="_top" xlink:title="get_bool_option">
<polygon fill="none" stroke="#000000" points="147.5,-272.5 147.5,-291.5 232.5,-291.5 232.5,-272.5 147.5,-272.5"/>
<text text-anchor="middle" x="190" y="-279.5" font-family="Helvetica,sans-Serif" font-size="10.00" fill="#000000">get_bool_option</text>
</a>
</g>
</g>
<!-- Node56473&#45;&gt;Node56474 -->
<g id="edge1" class="edge">
<title>Node56473&#45;&gt;Node56474</title>
<path fill="none" stroke="#191970" d="M59.6691,-164.6482C73.7606,-188.991 101.3342,-231.5947 135,-258 142.6236,-263.9795 151.9667,-268.7819 160.7739,-272.4732"/>
<polygon fill="#191970" stroke="#191970" points="62.5929,-162.7074 54.6318,-155.7166 56.4957,-166.1462 62.5929,-162.7074"/>
</g>
<!-- Node56476 -->
<g id="node4" class="node">
<title>Node56476</title>
<g id="a_node4"><a xlink:href="quickjs-libc_8c.html#a0b92fee4bb5dda499a0b6d86da0e8be8" target="_top" xlink:title="js_os_exec">
<polygon fill="none" stroke="#000000" points="310.5,-234.5 310.5,-253.5 376.5,-253.5 376.5,-234.5 310.5,-234.5"/>
<text text-anchor="middle" x="343.5" y="-241.5" font-family="Helvetica,sans-Serif" font-size="10.00" fill="#000000">js_os_exec</text>
</a>
</g>
</g>
<!-- Node56473&#45;&gt;Node56476 -->
<g id="edge7" class="edge">
<title>Node56473&#45;&gt;Node56476</title>
<path fill="none" stroke="#191970" d="M62.7109,-163.753C77.8558,-182.5894 104.5507,-211.4609 135,-225 192.624,-250.6221 267.9095,-250.2414 310.4488,-247.335"/>
<polygon fill="#191970" stroke="#191970" points="65.3178,-161.4039 56.4153,-155.6595 59.7925,-165.7017 65.3178,-161.4039"/>
</g>
<!-- Node56478 -->
<g id="node6" class="node">
<title>Node56478</title>
<g id="a_node6"><a xlink:href="structqjs_1_1js__property__traits_3_01const_01char_01_5_01_4.html#a0a01071b0c80a16dbd7d0fa538534116" target="_top" xlink:title="qjs::js_property_traits\l\&lt; const char * \&gt;::get\l_property">
<polygon fill="none" stroke="#000000" points="135,-174.5 135,-215.5 245,-215.5 245,-174.5 135,-174.5"/>
<text text-anchor="start" x="143" y="-203.5" font-family="Helvetica,sans-Serif" font-size="10.00" fill="#000000">qjs::js_property_traits</text>
<text text-anchor="start" x="143" y="-192.5" font-family="Helvetica,sans-Serif" font-size="10.00" fill="#000000">&lt; const char * &gt;::get</text>
<text text-anchor="middle" x="190" y="-181.5" font-family="Helvetica,sans-Serif" font-size="10.00" fill="#000000">_property</text>
</a>
</g>
</g>
<!-- Node56473&#45;&gt;Node56478 -->
<g id="edge5" class="edge">
<title>Node56473&#45;&gt;Node56478</title>
<path fill="none" stroke="#191970" d="M86.667,-158.9622C101.3848,-164.0951 118.6133,-170.1036 134.7369,-175.7268"/>
<polygon fill="#191970" stroke="#191970" points="87.5182,-155.5523 76.9233,-155.564 85.213,-162.1619 87.5182,-155.5523"/>
</g>
<!-- Node56479 -->
<g id="node7" class="node">
<title>Node56479</title>
<g id="a_node7"><a xlink:href="quickjs_8c.html#a6afb985e2e6663773d15dc05b286922a" target="_top" xlink:title="js_date_toJSON">
<polygon fill="none" stroke="#000000" points="145.5,-136.5 145.5,-155.5 234.5,-155.5 234.5,-136.5 145.5,-136.5"/>
<text text-anchor="middle" x="190" y="-143.5" font-family="Helvetica,sans-Serif" font-size="10.00" fill="#000000">js_date_toJSON</text>
</a>
</g>
</g>
<!-- Node56473&#45;&gt;Node56479 -->
<g id="edge6" class="edge">
<title>Node56473&#45;&gt;Node56479</title>
<path fill="none" stroke="#191970" d="M109.0526,-146C121.1379,-146 133.6557,-146 145.1299,-146"/>
<polygon fill="#191970" stroke="#191970" points="109.0351,-142.5001 99.035,-146 109.035,-149.5001 109.0351,-142.5001"/>
</g>
<!-- Node56480 -->
<g id="node8" class="node">
<title>Node56480</title>
<g id="a_node8"><a xlink:href="quickjs_8c.html#a85bd252225e0864923cb62c583892de7" target="_top" xlink:title="js_regexp_get_flags">
<polygon fill="none" stroke="#000000" points="138,-98.5 138,-117.5 242,-117.5 242,-98.5 138,-98.5"/>
<text text-anchor="middle" x="190" y="-105.5" font-family="Helvetica,sans-Serif" font-size="10.00" fill="#000000">js_regexp_get_flags</text>
</a>
</g>
</g>
<!-- Node56473&#45;&gt;Node56480 -->
<g id="edge8" class="edge">
<title>Node56473&#45;&gt;Node56480</title>
<path fill="none" stroke="#191970" d="M94.7787,-133.7538C114.1449,-128.516 136.4218,-122.4909 154.5573,-117.5859"/>
<polygon fill="#191970" stroke="#191970" points="93.6934,-130.4215 84.9541,-136.411 95.5211,-137.1787 93.6934,-130.4215"/>
</g>
<!-- Node56481 -->
<g id="node9" class="node">
<title>Node56481</title>
<g id="a_node9"><a xlink:href="quickjs-libc_8c.html#a410cd5dce0fb0e6a978ed313963f3962" target="_top" xlink:title="js_std_dump_error1">
<polygon fill="none" stroke="#000000" points="139,-60.5 139,-79.5 241,-79.5 241,-60.5 139,-60.5"/>
<text text-anchor="middle" x="190" y="-67.5" font-family="Helvetica,sans-Serif" font-size="10.00" fill="#000000">js_std_dump_error1</text>
</a>
</g>
</g>
<!-- Node56473&#45;&gt;Node56481 -->
<g id="edge9" class="edge">
<title>Node56473&#45;&gt;Node56481</title>
<path fill="none" stroke="#191970" d="M70.0873,-130.0875C86.8638,-117.6714 111.5348,-100.6349 135,-89 142.2406,-85.4098 150.327,-82.208 158.0234,-79.5025"/>
<polygon fill="#191970" stroke="#191970" points="67.523,-127.6368 61.6371,-136.4463 71.732,-133.2301 67.523,-127.6368"/>
</g>
<!-- Node56491 -->
<g id="node15" class="node">
<title>Node56491</title>
<g id="a_node15"><a xlink:href="structqjs_1_1js__traits_3_01ctor__wrapper_3_01T_00_01Args_8_8_8_01_4_01_4.html#ac3e4ebb181720971396c1bf6008a997b" target="_top" xlink:title="qjs::js_traits\&lt; ctor\l_wrapper\&lt; T, Args...\l \&gt; \&gt;::wrap">
<polygon fill="none" stroke="#000000" points="136.5,-.5 136.5,-41.5 243.5,-41.5 243.5,-.5 136.5,-.5"/>
<text text-anchor="start" x="144.5" y="-29.5" font-family="Helvetica,sans-Serif" font-size="10.00" fill="#000000">qjs::js_traits&lt; ctor</text>
<text text-anchor="start" x="144.5" y="-18.5" font-family="Helvetica,sans-Serif" font-size="10.00" fill="#000000">_wrapper&lt; T, Args...</text>
<text text-anchor="middle" x="190" y="-7.5" font-family="Helvetica,sans-Serif" font-size="10.00" fill="#000000"> &gt; &gt;::wrap</text>
</a>
</g>
</g>
<!-- Node56473&#45;&gt;Node56491 -->
<g id="edge15" class="edge">
<title>Node56473&#45;&gt;Node56491</title>
<path fill="none" stroke="#191970" d="M62.4607,-128.2773C78.0289,-107.8497 105.7289,-74.1266 135,-51 139.1819,-47.696 143.7779,-44.5577 148.4762,-41.6427"/>
<polygon fill="#191970" stroke="#191970" points="59.574,-126.293 56.3805,-136.3951 65.1767,-130.4895 59.574,-126.293"/>
</g>
<!-- Node56475 -->
<g id="node3" class="node">
<title>Node56475</title>
<g id="a_node3"><a xlink:href="quickjs-libc_8c.html#a55f6cd4bbd0e676992642d066fd1d9fd" target="_top" xlink:title="js_evalScript">
<polygon fill="none" stroke="#000000" points="307,-310.5 307,-329.5 380,-329.5 380,-310.5 307,-310.5"/>
<text text-anchor="middle" x="343.5" y="-317.5" font-family="Helvetica,sans-Serif" font-size="10.00" fill="#000000">js_evalScript</text>
</a>
</g>
</g>
<!-- Node56474&#45;&gt;Node56475 -->
<g id="edge2" class="edge">
<title>Node56474&#45;&gt;Node56475</title>
<path fill="none" stroke="#191970" d="M238.6076,-294.0331C260.7196,-299.5071 286.4492,-305.8767 306.8914,-310.9373"/>
<polygon fill="#191970" stroke="#191970" points="239.2826,-290.5947 228.7345,-291.589 237.6004,-297.3896 239.2826,-290.5947"/>
</g>
<!-- Node56474&#45;&gt;Node56476 -->
<g id="edge3" class="edge">
<title>Node56474&#45;&gt;Node56476</title>
<path fill="none" stroke="#191970" d="M238.5058,-269.9921C261.9621,-264.1853 289.5086,-257.3659 310.4997,-252.1695"/>
<polygon fill="#191970" stroke="#191970" points="237.6004,-266.6104 228.7345,-272.411 239.2826,-273.4053 237.6004,-266.6104"/>
</g>
<!-- Node56477 -->
<g id="node5" class="node">
<title>Node56477</title>
<g id="a_node5"><a xlink:href="quickjs-libc_8c.html#a7aebce2172c6aa4a6645aef600a69e6b" target="_top" xlink:title="js_std_urlGet">
<polygon fill="none" stroke="#000000" points="306.5,-272.5 306.5,-291.5 380.5,-291.5 380.5,-272.5 306.5,-272.5"/>
<text text-anchor="middle" x="343.5" y="-279.5" font-family="Helvetica,sans-Serif" font-size="10.00" fill="#000000">js_std_urlGet</text>
</a>
</g>
</g>
<!-- Node56474&#45;&gt;Node56477 -->
<g id="edge4" class="edge">
<title>Node56474&#45;&gt;Node56477</title>
<path fill="none" stroke="#191970" d="M242.8015,-282C263.7571,-282 287.3597,-282 306.4444,-282"/>
<polygon fill="#191970" stroke="#191970" points="242.7583,-278.5001 232.7583,-282 242.7583,-285.5001 242.7583,-278.5001"/>
</g>
<!-- Node56482 -->
<g id="node10" class="node">
<title>Node56482</title>
<g id="a_node10"><a xlink:href="quickjs-libc_8c.html#a82bb7888d024e97e430d98653e97a7bc" target="_top" xlink:title="js_std_dump_error">
<polygon fill="none" stroke="#000000" points="295,-82.5 295,-101.5 392,-101.5 392,-82.5 295,-82.5"/>
<text text-anchor="middle" x="343.5" y="-89.5" font-family="Helvetica,sans-Serif" font-size="10.00" fill="#000000">js_std_dump_error</text>
</a>
</g>
</g>
<!-- Node56481&#45;&gt;Node56482 -->
<g id="edge10" class="edge">
<title>Node56481&#45;&gt;Node56482</title>
<path fill="none" stroke="#191970" d="M251.0567,-78.7508C265.6413,-80.8411 281.0157,-83.0446 294.9498,-85.0417"/>
<polygon fill="#191970" stroke="#191970" points="251.5087,-75.2799 241.1133,-77.3257 250.5155,-82.2091 251.5087,-75.2799"/>
</g>
<!-- Node56490 -->
<g id="node14" class="node">
<title>Node56490</title>
<g id="a_node14"><a xlink:href="quickjs-libc_8c.html#aecbca056dde897142bf11bb90347c524" target="_top" xlink:title="js_std_promise_rejection\l_tracker">
<polygon fill="none" stroke="#000000" points="281,-33 281,-63 406,-63 406,-33 281,-33"/>
<text text-anchor="start" x="289" y="-51" font-family="Helvetica,sans-Serif" font-size="10.00" fill="#000000">js_std_promise_rejection</text>
<text text-anchor="middle" x="343.5" y="-40" font-family="Helvetica,sans-Serif" font-size="10.00" fill="#000000">_tracker</text>
</a>
</g>
</g>
<!-- Node56481&#45;&gt;Node56490 -->
<g id="edge14" class="edge">
<title>Node56481&#45;&gt;Node56490</title>
<path fill="none" stroke="#191970" d="M251.1455,-61.2365C260.9219,-59.8353 271.0511,-58.3836 280.8616,-56.9775"/>
<polygon fill="#191970" stroke="#191970" points="250.5155,-57.7909 241.1133,-62.6743 251.5087,-64.7201 250.5155,-57.7909"/>
</g>
<!-- Node56483 -->
<g id="node11" class="node">
<title>Node56483</title>
<g id="a_node11"><a xlink:href="quickjs-libc_8c.html#abb1cbe3fdf905e81f603a3a0bfce475a" target="_top" xlink:title="call_handler">
<polygon fill="none" stroke="#ff0000" points="457,-120.5 457,-139.5 525,-139.5 525,-120.5 457,-120.5"/>
<text text-anchor="middle" x="491" y="-127.5" font-family="Helvetica,sans-Serif" font-size="10.00" fill="#000000">call_handler</text>
</a>
</g>
</g>
<!-- Node56482&#45;&gt;Node56483 -->
<g id="edge11" class="edge">
<title>Node56482&#45;&gt;Node56483</title>
<path fill="none" stroke="#191970" d="M390.6441,-104.1456C412.1571,-109.6879 437.1581,-116.1289 456.8246,-121.1955"/>
<polygon fill="#191970" stroke="#191970" points="391.2775,-100.6946 380.7205,-101.589 389.5311,-107.4732 391.2775,-100.6946"/>
</g>
<!-- Node56488 -->
<g id="node12" class="node">
<title>Node56488</title>
<g id="a_node12"><a xlink:href="quickjs-libc_8c.html#ab1b439d304c2125490b47ef262b5df67" target="_top" xlink:title="js_std_eval_binary">
<polygon fill="none" stroke="#000000" points="442,-82.5 442,-101.5 540,-101.5 540,-82.5 442,-82.5"/>
<text text-anchor="middle" x="491" y="-89.5" font-family="Helvetica,sans-Serif" font-size="10.00" fill="#000000">js_std_eval_binary</text>
</a>
</g>
</g>
<!-- Node56482&#45;&gt;Node56488 -->
<g id="edge12" class="edge">
<title>Node56482&#45;&gt;Node56488</title>
<path fill="none" stroke="#191970" d="M402.4986,-92C415.5456,-92 429.2348,-92 441.8414,-92"/>
<polygon fill="#191970" stroke="#191970" points="402.2058,-88.5001 392.2058,-92 402.2058,-95.5001 402.2058,-88.5001"/>
</g>
<!-- Node56489 -->
<g id="node13" class="node">
<title>Node56489</title>
<g id="a_node13"><a xlink:href="quickjs-libc_8c.html#af7480dad10e937004e36b2b409b084a4" target="_top" xlink:title="js_std_loop">
<polygon fill="none" stroke="#ff0000" points="458,-44.5 458,-63.5 524,-63.5 524,-44.5 458,-44.5"/>
<text text-anchor="middle" x="491" y="-51.5" font-family="Helvetica,sans-Serif" font-size="10.00" fill="#000000">js_std_loop</text>
</a>
</g>
</g>
<!-- Node56482&#45;&gt;Node56489 -->
<g id="edge13" class="edge">
<title>Node56482&#45;&gt;Node56489</title>
<path fill="none" stroke="#191970" d="M390.4971,-79.8923C412.4067,-74.2478 437.9603,-67.6645 457.8177,-62.5487"/>
<polygon fill="#191970" stroke="#191970" points="389.5311,-76.5268 380.7205,-82.411 391.2775,-83.3054 389.5311,-76.5268"/>
</g>
</g>
</svg>
        <g id="navigator" transform="translate(0 0)" fill="#404254">
                <rect fill="#f2f5e9" fill-opacity="0.5" stroke="#606060" stroke-width=".5" x="0" y="0" width="60" height="60"/>
                <use id="zoomplus" xlink:href="#zoomPlus" x="17" y="9" onmousedown="handleZoom(evt,'in')"/>
                <use id="zoomminus" xlink:href="#zoomMin" x="42" y="9" onmousedown="handleZoom(evt,'out')"/>
                <use id="reset" xlink:href="#resetDef" x="30" y="36" onmousedown="handleReset()"/>
                <g id="arrowUp" xlink:href="#dirArrow" transform="translate(30 24)" onmousedown="handlePan(0,-1)">
                  <use xlink:href="#rim" fill="#404040">
                        <set attributeName="fill" to="#808080" begin="arrowUp.mouseover" end="arrowUp.mouseout"/>
                  </use>
                  <path fill="none" stroke="white" stroke-width="1.5" d="M0,-3.0v7 M-2.5,-0.5L0,-3.0L2.5,-0.5"/>
                </g>
                <g id="arrowRight" xlink:href="#dirArrow" transform="rotate(90) translate(36 -43)" onmousedown="handlePan(1,0)">
                  <use xlink:href="#rim" fill="#404040">
                        <set attributeName="fill" to="#808080" begin="arrowRight.mouseover" end="arrowRight.mouseout"/>
                  </use>
                  <path fill="none" stroke="white" stroke-width="1.5" d="M0,-3.0v7 M-2.5,-0.5L0,-3.0L2.5,-0.5"/>
                </g>
                <g id="arrowDown" xlink:href="#dirArrow" transform="rotate(180) translate(-30 -48)" onmousedown="handlePan(0,1)">
                  <use xlink:href="#rim" fill="#404040">
                        <set attributeName="fill" to="#808080" begin="arrowDown.mouseover" end="arrowDown.mouseout"/>
                  </use>
                  <path fill="none" stroke="white" stroke-width="1.5" d="M0,-3.0v7 M-2.5,-0.5L0,-3.0L2.5,-0.5"/>
                </g>
                <g id="arrowLeft" xlink:href="#dirArrow" transform="rotate(270) translate(-36 17)" onmousedown="handlePan(-1,0)">
                  <use xlink:href="#rim" fill="#404040">
                        <set attributeName="fill" to="#808080" begin="arrowLeft.mouseover" end="arrowLeft.mouseout"/>
                  </use>
                  <path fill="none" stroke="white" stroke-width="1.5" d="M0,-3.0v7 M-2.5,-0.5L0,-3.0L2.5,-0.5"/>
                </g>
        </g>
        <svg viewBox="0 0 15 15" width="100%" height="30px" preserveAspectRatio="xMaxYMin meet">
         <g id="arrow_out" transform="scale(0.3 0.3)">
          <a xlink:href="quickjs_8h_a04f589361a4fbc30d997402e92a50de2_icgraph_org.svg" target="_base">
           <rect id="button" ry="5" rx="5" y="6" x="6" height="38" width="38"
                fill="#f2f5e9" fill-opacity="0.5" stroke="#606060" stroke-width="1.0"/>
           <path id="arrow"
             d="M 11.500037,31.436501 C 11.940474,20.09759 22.043105,11.32322 32.158766,21.979434 L 37.068811,17.246167 C 37.068811,17.246167 37.088388,32 37.088388,32 L 22.160133,31.978069 C 22.160133,31.978069 26.997745,27.140456 26.997745,27.140456 C 18.528582,18.264221 13.291696,25.230495 11.500037,31.436501 z"
             style="fill:#404040;"/>
          </a>
         </g>
        </svg>
</svg>
