<?xml version="1.0" encoding="UTF-8" standalone="no"?>
<!DOCTYPE svg PUBLIC "-//W3C//DTD SVG 1.1//EN"
 "http://www.w3.org/Graphics/SVG/1.1/DTD/svg11.dtd">
<!-- Generated by graphviz version 2.40.1 (20161225.0304)
 -->
<!-- Title: js_array_push Pages: 1 -->
<svg width="801pt" height="779pt"
 viewBox="0.00 0.00 801.00 779.38" xmlns="http://www.w3.org/2000/svg" xmlns:xlink="http://www.w3.org/1999/xlink">
<g id="graph0" class="graph" transform="scale(1 1) rotate(0) translate(4 775.3766)">
<title>js_array_push</title>
<!-- Node377994 -->
<g id="node1" class="node">
<title>Node377994</title>
<polygon fill="#bfbfbf" stroke="#000000" points="0,-199.5 0,-218.5 77,-218.5 77,-199.5 0,-199.5"/>
<text text-anchor="middle" x="38.5" y="-206.5" font-family="Helvetica,sans-Serif" font-size="10.00" fill="#000000">js_array_push</text>
</g>
<!-- Node377995 -->
<g id="node2" class="node">
<title>Node377995</title>
<g id="a_node2"><a xlink:href="quickjs_8c.html#a6c99d7581e100a5de07c9a24f4c7d34a" target="_top" xlink:title="JS_CopySubArray">
<polygon fill="none" stroke="#000000" points="113,-294.5 113,-313.5 211,-313.5 211,-294.5 113,-294.5"/>
<text text-anchor="middle" x="162" y="-301.5" font-family="Helvetica,sans-Serif" font-size="10.00" fill="#000000">JS_CopySubArray</text>
</a>
</g>
</g>
<!-- Node377994&#45;&gt;Node377995 -->
<g id="edge1" class="edge">
<title>Node377994&#45;&gt;Node377995</title>
<path fill="none" stroke="#191970" d="M51.2515,-218.8089C72.6242,-235.2494 115.8538,-268.5029 141.5257,-288.2505"/>
<polygon fill="#191970" stroke="#191970" points="139.4415,-291.063 149.5018,-294.386 143.7095,-285.5147 139.4415,-291.063"/>
</g>
<!-- Node378051 -->
<g id="node6" class="node">
<title>Node378051</title>
<g id="a_node6"><a xlink:href="quickjs_8h.html#afaa20c47565bc704c6c85f3d77254e7d" target="_top" xlink:title="JS_FreeValue">
<polygon fill="none" stroke="#ff0000" points="572.5,-180.5 572.5,-199.5 650.5,-199.5 650.5,-180.5 572.5,-180.5"/>
<text text-anchor="middle" x="611.5" y="-187.5" font-family="Helvetica,sans-Serif" font-size="10.00" fill="#000000">JS_FreeValue</text>
</a>
</g>
</g>
<!-- Node377994&#45;&gt;Node378051 -->
<g id="edge39" class="edge">
<title>Node377994&#45;&gt;Node378051</title>
<path fill="none" stroke="#191970" d="M48.8877,-199.3975C62.6679,-187.0649 88.1571,-165.6309 113,-152 232.6466,-86.3519 269.8935,-76.2674 405,-57 453.8392,-50.0351 472.1064,-34.4805 516,-57 562.8324,-81.0273 591.8797,-139.8791 604.3684,-170.6069"/>
<polygon fill="#191970" stroke="#191970" points="601.2119,-172.1471 608.0973,-180.1996 607.7363,-169.6109 601.2119,-172.1471"/>
</g>
<!-- Node378065 -->
<g id="node8" class="node">
<title>Node378065</title>
<g id="a_node8"><a xlink:href="quickjs_8c.html#a710289a14c2810467e5b448d3c28bd55" target="_top" xlink:title="JS_ToObject">
<polygon fill="none" stroke="#ff0000" points="574.5,-256.5 574.5,-275.5 648.5,-275.5 648.5,-256.5 574.5,-256.5"/>
<text text-anchor="middle" x="611.5" y="-263.5" font-family="Helvetica,sans-Serif" font-size="10.00" fill="#000000">JS_ToObject</text>
</a>
</g>
</g>
<!-- Node377994&#45;&gt;Node378065 -->
<g id="edge47" class="edge">
<title>Node377994&#45;&gt;Node378065</title>
<path fill="none" stroke="#191970" d="M77.2825,-211.8238C183.3246,-219.582 473.0636,-241.0412 516,-247 531.9333,-249.2113 549.2163,-252.4038 564.6442,-255.5425"/>
<polygon fill="#191970" stroke="#191970" points="563.9789,-258.979 574.4818,-257.5865 565.403,-252.1253 563.9789,-258.979"/>
</g>
<!-- Node378030 -->
<g id="node9" class="node">
<title>Node378030</title>
<g id="a_node9"><a xlink:href="quickjs_8h.html#a775522f2d084fc8fa0fcb33f390006b4" target="_top" xlink:title="JS_DupValue">
<polygon fill="none" stroke="#000000" points="711.5,-256.5 711.5,-275.5 788.5,-275.5 788.5,-256.5 711.5,-256.5"/>
<text text-anchor="middle" x="750" y="-263.5" font-family="Helvetica,sans-Serif" font-size="10.00" fill="#000000">JS_DupValue</text>
</a>
</g>
</g>
<!-- Node377994&#45;&gt;Node378030 -->
<g id="edge38" class="edge">
<title>Node377994&#45;&gt;Node378030</title>
<path fill="none" stroke="#191970" d="M42.9647,-199.2705C52.9121,-178.4886 78.7455,-129.2036 113,-99 185.9036,-34.718 210.8037,0 308,0 308,0 308,0 460.5,0 569.9942,0 594.605,-49.5603 671,-128 705.8416,-163.7742 730.8886,-217.8939 742.5868,-246.5715"/>
<polygon fill="#191970" stroke="#191970" points="739.4736,-248.2162 746.4092,-256.2254 745.982,-245.6392 739.4736,-248.2162"/>
</g>
<!-- Node378427 -->
<g id="node13" class="node">
<title>Node378427</title>
<g id="a_node13"><a xlink:href="quickjs_8c.html#a51b06daa618640e531fe808770553b96" target="_top" xlink:title="JS_SetPropertyInt64">
<polygon fill="none" stroke="#000000" points="254.5,-180.5 254.5,-199.5 361.5,-199.5 361.5,-180.5 254.5,-180.5"/>
<text text-anchor="middle" x="308" y="-187.5" font-family="Helvetica,sans-Serif" font-size="10.00" fill="#000000">JS_SetPropertyInt64</text>
</a>
</g>
</g>
<!-- Node377994&#45;&gt;Node378427 -->
<g id="edge46" class="edge">
<title>Node377994&#45;&gt;Node378427</title>
<path fill="none" stroke="#191970" d="M77.1128,-206.2778C120.6399,-203.2091 192.0923,-198.1716 243.9966,-194.5123"/>
<polygon fill="#191970" stroke="#191970" points="244.3737,-197.9945 254.1028,-193.7998 243.8814,-191.0118 244.3737,-197.9945"/>
</g>
<!-- Node378269 -->
<g id="node14" class="node">
<title>Node378269</title>
<g id="a_node14"><a xlink:href="quickjs_8h.html#af763b173e78debf2075670ca2c128a30" target="_top" xlink:title="JS_SetProperty">
<polygon fill="none" stroke="#ff0000" points="417.5,-66.5 417.5,-85.5 503.5,-85.5 503.5,-66.5 417.5,-66.5"/>
<text text-anchor="middle" x="460.5" y="-73.5" font-family="Helvetica,sans-Serif" font-size="10.00" fill="#000000">JS_SetProperty</text>
</a>
</g>
</g>
<!-- Node377994&#45;&gt;Node378269 -->
<g id="edge45" class="edge">
<title>Node377994&#45;&gt;Node378269</title>
<path fill="none" stroke="#191970" d="M68.8492,-199.435C143.5791,-175.8827 336.4875,-115.0845 420.4579,-88.6199"/>
<polygon fill="#191970" stroke="#191970" points="421.6574,-91.9116 430.1429,-85.5675 419.5532,-85.2354 421.6574,-91.9116"/>
</g>
<!-- Node378254 -->
<g id="node20" class="node">
<title>Node378254</title>
<g id="a_node20"><a xlink:href="quickjs_8c.html#a5f848f76409193212a44e6221e430919" target="_top" xlink:title="js_get_length64">
<polygon fill="none" stroke="#ff0000" points="418,-750.5 418,-769.5 503,-769.5 503,-750.5 418,-750.5"/>
<text text-anchor="middle" x="460.5" y="-757.5" font-family="Helvetica,sans-Serif" font-size="10.00" fill="#000000">js_get_length64</text>
</a>
</g>
</g>
<!-- Node377994&#45;&gt;Node378254 -->
<g id="edge40" class="edge">
<title>Node377994&#45;&gt;Node378254</title>
<path fill="none" stroke="#191970" d="M39.1553,-218.7726C42.1929,-259.2991 57.2211,-417.3815 113,-532 154.4898,-617.2562 168.0634,-645.4735 247,-698 295.8438,-730.502 361.955,-746.2654 407.6079,-753.709"/>
<polygon fill="#191970" stroke="#191970" points="407.1804,-757.1845 417.5987,-755.2588 408.2534,-750.2672 407.1804,-757.1845"/>
</g>
<!-- Node378247 -->
<g id="node21" class="node">
<title>Node378247</title>
<g id="a_node21"><a xlink:href="quickjs_8h.html#a6acbc709e59969eac6775f9b253b438f" target="_top" xlink:title="JS_NewInt64">
<polygon fill="none" stroke="#ff0000" points="124,-503.5 124,-522.5 200,-522.5 200,-503.5 124,-503.5"/>
<text text-anchor="middle" x="162" y="-510.5" font-family="Helvetica,sans-Serif" font-size="10.00" fill="#000000">JS_NewInt64</text>
</a>
</g>
</g>
<!-- Node377994&#45;&gt;Node378247 -->
<g id="edge43" class="edge">
<title>Node377994&#45;&gt;Node378247</title>
<path fill="none" stroke="#191970" d="M42.4692,-218.7703C59.9985,-261.9195 130.6509,-435.833 154.2681,-493.9676"/>
<polygon fill="#191970" stroke="#191970" points="151.1007,-495.4703 158.1072,-503.4177 157.586,-492.8356 151.1007,-495.4703"/>
</g>
<!-- Node377996 -->
<g id="node3" class="node">
<title>Node377996</title>
<g id="a_node3"><a xlink:href="quickjs_8c.html#a70e21308fe3760cd95dd1dbb1a8755e6" target="_top" xlink:title="JS_DeletePropertyInt64">
<polygon fill="none" stroke="#000000" points="247.5,-332.5 247.5,-351.5 368.5,-351.5 368.5,-332.5 247.5,-332.5"/>
<text text-anchor="middle" x="308" y="-339.5" font-family="Helvetica,sans-Serif" font-size="10.00" fill="#000000">JS_DeletePropertyInt64</text>
</a>
</g>
</g>
<!-- Node377995&#45;&gt;Node377996 -->
<g id="edge2" class="edge">
<title>Node377995&#45;&gt;Node377996</title>
<path fill="none" stroke="#191970" d="M198.842,-313.589C217.8479,-318.5358 241.2286,-324.6211 261.4692,-329.8892"/>
<polygon fill="#191970" stroke="#191970" points="260.8638,-333.3482 271.423,-332.4799 262.627,-326.5739 260.8638,-333.3482"/>
</g>
<!-- Node377995&#45;&gt;Node378427 -->
<g id="edge15" class="edge">
<title>Node377995&#45;&gt;Node378427</title>
<path fill="none" stroke="#191970" d="M174.1968,-294.4765C199.2546,-274.9108 256.7579,-230.0109 287.589,-205.9374"/>
<polygon fill="#191970" stroke="#191970" points="289.8006,-208.6511 295.5285,-199.738 285.4925,-203.1338 289.8006,-208.6511"/>
</g>
<!-- Node378428 -->
<g id="node16" class="node">
<title>Node378428</title>
<g id="a_node16"><a xlink:href="quickjs_8c.html#a14674e74168715dc5a3a391910982e5d" target="_top" xlink:title="JS_TryGetPropertyInt64">
<polygon fill="none" stroke="#000000" points="247,-522.5 247,-541.5 369,-541.5 369,-522.5 247,-522.5"/>
<text text-anchor="middle" x="308" y="-529.5" font-family="Helvetica,sans-Serif" font-size="10.00" fill="#000000">JS_TryGetPropertyInt64</text>
</a>
</g>
</g>
<!-- Node377995&#45;&gt;Node378428 -->
<g id="edge24" class="edge">
<title>Node377995&#45;&gt;Node378428</title>
<path fill="none" stroke="#191970" d="M168.0876,-313.5066C190.2566,-348.1267 266.9141,-467.8384 296.3569,-513.8176"/>
<polygon fill="#191970" stroke="#191970" points="293.5463,-515.9189 301.8865,-522.4528 299.4413,-512.144 293.5463,-515.9189"/>
</g>
<!-- Node377997 -->
<g id="node4" class="node">
<title>Node377997</title>
<g id="a_node4"><a xlink:href="quickjs_8c.html#a877fcb7651d95b411ce70e62b7f4a1f0" target="_top" xlink:title="__JS_AtomFromUInt32">
<polygon fill="none" stroke="#000000" points="552,-484.5 552,-503.5 671,-503.5 671,-484.5 552,-484.5"/>
<text text-anchor="middle" x="611.5" y="-491.5" font-family="Helvetica,sans-Serif" font-size="10.00" fill="#000000">__JS_AtomFromUInt32</text>
</a>
</g>
</g>
<!-- Node377996&#45;&gt;Node377997 -->
<g id="edge3" class="edge">
<title>Node377996&#45;&gt;Node377997</title>
<path fill="none" stroke="#191970" d="M311.646,-351.5433C321.8834,-376.8634 353.55,-445.8004 405,-475 446.0749,-498.3114 499.2782,-502.7208 541.394,-501.479"/>
<polygon fill="#191970" stroke="#191970" points="541.7235,-504.9686 551.5725,-501.064 541.4382,-497.9744 541.7235,-504.9686"/>
</g>
<!-- Node377998 -->
<g id="node5" class="node">
<title>Node377998</title>
<g id="a_node5"><a xlink:href="quickjs_8c.html#a2b88ed25233c441cbed7b0a027c9ee2f" target="_top" xlink:title="JS_DeleteProperty">
<polygon fill="none" stroke="#ff0000" points="411,-256.5 411,-275.5 510,-275.5 510,-256.5 411,-256.5"/>
<text text-anchor="middle" x="460.5" y="-263.5" font-family="Helvetica,sans-Serif" font-size="10.00" fill="#000000">JS_DeleteProperty</text>
</a>
</g>
</g>
<!-- Node377996&#45;&gt;Node377998 -->
<g id="edge4" class="edge">
<title>Node377996&#45;&gt;Node377998</title>
<path fill="none" stroke="#191970" d="M327.3142,-332.3745C353.7836,-319.1832 401.5202,-295.3932 432.0748,-280.166"/>
<polygon fill="#191970" stroke="#191970" points="433.9536,-283.1403 441.3426,-275.5473 430.8313,-276.8752 433.9536,-283.1403"/>
</g>
<!-- Node378050 -->
<g id="node11" class="node">
<title>Node378050</title>
<g id="a_node11"><a xlink:href="quickjs_8c.html#ab7fc45a99935a1c0ba50b0216d9401a9" target="_top" xlink:title="JS_FreeAtom">
<polygon fill="none" stroke="#ff0000" points="573,-332.5 573,-351.5 650,-351.5 650,-332.5 573,-332.5"/>
<text text-anchor="middle" x="611.5" y="-339.5" font-family="Helvetica,sans-Serif" font-size="10.00" fill="#000000">JS_FreeAtom</text>
</a>
</g>
</g>
<!-- Node377996&#45;&gt;Node378050 -->
<g id="edge11" class="edge">
<title>Node377996&#45;&gt;Node378050</title>
<path fill="none" stroke="#191970" d="M368.6883,-342C425.6116,-342 509.6624,-342 562.458,-342"/>
<polygon fill="#191970" stroke="#191970" points="562.5831,-345.5001 572.583,-342 562.583,-338.5001 562.5831,-345.5001"/>
</g>
<!-- Node378426 -->
<g id="node12" class="node">
<title>Node378426</title>
<g id="a_node12"><a xlink:href="quickjs_8c.html#aa641af3a921335927dab07dc83285917" target="_top" xlink:title="JS_NewAtomInt64">
<polygon fill="none" stroke="#ff0000" points="411,-446.5 411,-465.5 510,-465.5 510,-446.5 411,-446.5"/>
<text text-anchor="middle" x="460.5" y="-453.5" font-family="Helvetica,sans-Serif" font-size="10.00" fill="#000000">JS_NewAtomInt64</text>
</a>
</g>
</g>
<!-- Node377996&#45;&gt;Node378426 -->
<g id="edge12" class="edge">
<title>Node377996&#45;&gt;Node378426</title>
<path fill="none" stroke="#191970" d="M315.2329,-351.5028C330.0723,-370.3851 365.8722,-412.8806 405,-437 408.224,-438.9874 411.6825,-440.7983 415.2393,-442.442"/>
<polygon fill="#191970" stroke="#191970" points="414.2128,-445.8056 424.7905,-446.4093 416.898,-439.341 414.2128,-445.8056"/>
</g>
<!-- Node377998&#45;&gt;Node378051 -->
<g id="edge5" class="edge">
<title>Node377998&#45;&gt;Node378051</title>
<path fill="none" stroke="#191970" d="M479.6243,-256.3745C505.8333,-243.1832 553.1004,-219.3932 583.3544,-204.166"/>
<polygon fill="#191970" stroke="#191970" points="585.1721,-207.1695 592.531,-199.5473 582.0251,-200.9168 585.1721,-207.1695"/>
</g>
<!-- Node378064 -->
<g id="node7" class="node">
<title>Node378064</title>
<g id="a_node7"><a xlink:href="quickjs_8h.html#ad80a83d73e9b7d872b88fbf2943aebe9" target="_top" xlink:title="JS_IsException">
<polygon fill="none" stroke="#000000" points="707,-446.5 707,-465.5 793,-465.5 793,-446.5 707,-446.5"/>
<text text-anchor="middle" x="750" y="-453.5" font-family="Helvetica,sans-Serif" font-size="10.00" fill="#000000">JS_IsException</text>
</a>
</g>
</g>
<!-- Node377998&#45;&gt;Node378064 -->
<g id="edge6" class="edge">
<title>Node377998&#45;&gt;Node378064</title>
<path fill="none" stroke="#191970" d="M504.3207,-275.5106C562.3681,-288.4635 658.8774,-311.3676 671,-323 709.3378,-359.7876 671.5552,-397.4175 707,-437 708.1604,-438.2958 709.4256,-439.5076 710.7701,-440.6403"/>
<polygon fill="#191970" stroke="#191970" points="708.9125,-443.6091 719.1605,-446.2981 712.8262,-437.8053 708.9125,-443.6091"/>
</g>
<!-- Node377998&#45;&gt;Node378065 -->
<g id="edge7" class="edge">
<title>Node377998&#45;&gt;Node378065</title>
<path fill="none" stroke="#191970" d="M510.3615,-266C527.5773,-266 546.8112,-266 563.8457,-266"/>
<polygon fill="#191970" stroke="#191970" points="564.1303,-269.5001 574.1302,-266 564.1302,-262.5001 564.1303,-269.5001"/>
</g>
<!-- Node378065&#45;&gt;Node378064 -->
<g id="edge9" class="edge">
<title>Node378065&#45;&gt;Node378064</title>
<path fill="none" stroke="#191970" d="M648.6185,-274.7516C656.9675,-278.2733 665.0932,-283.1802 671,-290 715.0376,-340.8442 663.7986,-385.4434 707,-437 708.1172,-438.3332 709.3464,-439.5762 710.6612,-440.7346"/>
<polygon fill="#191970" stroke="#191970" points="708.7336,-443.6572 718.944,-446.4856 712.726,-437.9073 708.7336,-443.6572"/>
</g>
<!-- Node378065&#45;&gt;Node378030 -->
<g id="edge8" class="edge">
<title>Node378065&#45;&gt;Node378030</title>
<path fill="none" stroke="#191970" d="M648.6155,-266C664.6735,-266 683.6937,-266 700.8969,-266"/>
<polygon fill="#191970" stroke="#191970" points="701.3309,-269.5001 711.3309,-266 701.3308,-262.5001 701.3309,-269.5001"/>
</g>
<!-- Node378128 -->
<g id="node10" class="node">
<title>Node378128</title>
<g id="a_node10"><a xlink:href="quickjs_8h.html#a2050bc428da1c65ac7eb87c3fa3b0392" target="_top" xlink:title="JS_NewInt32">
<polygon fill="none" stroke="#000000" points="712,-408.5 712,-427.5 788,-427.5 788,-408.5 712,-408.5"/>
<text text-anchor="middle" x="750" y="-415.5" font-family="Helvetica,sans-Serif" font-size="10.00" fill="#000000">JS_NewInt32</text>
</a>
</g>
</g>
<!-- Node378065&#45;&gt;Node378128 -->
<g id="edge10" class="edge">
<title>Node378065&#45;&gt;Node378128</title>
<path fill="none" stroke="#191970" d="M645.6796,-275.5244C654.5597,-279.0896 663.6773,-283.8244 671,-290 706.9335,-320.3043 731.3925,-371.2763 742.7476,-398.8687"/>
<polygon fill="#191970" stroke="#191970" points="739.512,-400.2041 746.4546,-408.2072 746.0181,-397.6214 739.512,-400.2041"/>
</g>
<!-- Node378426&#45;&gt;Node377997 -->
<g id="edge13" class="edge">
<title>Node378426&#45;&gt;Node377997</title>
<path fill="none" stroke="#191970" d="M498.6037,-465.589C518.44,-470.5809 542.8839,-476.7324 563.9483,-482.0334"/>
<polygon fill="#191970" stroke="#191970" points="563.1185,-485.4336 573.6703,-484.4799 564.8269,-478.6452 563.1185,-485.4336"/>
</g>
<!-- Node378426&#45;&gt;Node378064 -->
<g id="edge14" class="edge">
<title>Node378426&#45;&gt;Node378064</title>
<path fill="none" stroke="#191970" d="M510.2668,-456C562.1006,-456 643.0275,-456 696.2834,-456"/>
<polygon fill="#191970" stroke="#191970" points="696.5489,-459.5001 706.5488,-456 696.5488,-452.5001 696.5489,-459.5001"/>
</g>
<!-- Node378427&#45;&gt;Node378051 -->
<g id="edge17" class="edge">
<title>Node378427&#45;&gt;Node378051</title>
<path fill="none" stroke="#191970" d="M347.3881,-180.4897C364.9127,-176.7246 385.8703,-172.8559 405,-171 454.1028,-166.2362 466.9043,-166.1635 516,-171 531.3093,-172.5081 547.8018,-175.3449 562.7019,-178.3751"/>
<polygon fill="#191970" stroke="#191970" points="562.2218,-181.8508 572.7289,-180.4899 563.6665,-175.0015 562.2218,-181.8508"/>
</g>
<!-- Node378427&#45;&gt;Node378128 -->
<g id="edge19" class="edge">
<title>Node378427&#45;&gt;Node378128</title>
<path fill="none" stroke="#191970" d="M329.2269,-180.342C389.9001,-154.3438 566.4133,-90.1239 671,-171 713.0318,-203.5029 690.8273,-234.3882 707,-285 719.9263,-325.4523 735.2739,-372.7497 743.6919,-398.6303"/>
<polygon fill="#191970" stroke="#191970" points="740.4251,-399.9024 746.8481,-408.3283 747.0815,-397.736 740.4251,-399.9024"/>
</g>
<!-- Node378427&#45;&gt;Node378050 -->
<g id="edge16" class="edge">
<title>Node378427&#45;&gt;Node378050</title>
<path fill="none" stroke="#191970" d="M315.1117,-199.7063C329.7331,-218.9545 365.1604,-262.0754 405,-285 454.5395,-313.5062 519.0179,-328.3285 562.6465,-335.6232"/>
<polygon fill="#191970" stroke="#191970" points="562.2915,-339.1109 572.719,-337.2357 563.398,-332.1989 562.2915,-339.1109"/>
</g>
<!-- Node378427&#45;&gt;Node378426 -->
<g id="edge18" class="edge">
<title>Node378427&#45;&gt;Node378426</title>
<path fill="none" stroke="#191970" d="M312.8563,-199.5031C323.7732,-221.0833 350.7249,-275.5945 369,-323 388.1121,-372.5766 367.8821,-398.982 405,-437 406.414,-438.4483 407.943,-439.7863 409.5606,-441.0223"/>
<polygon fill="#191970" stroke="#191970" points="407.9162,-444.1202 418.2647,-446.3916 411.5913,-438.1626 407.9162,-444.1202"/>
</g>
<!-- Node378427&#45;&gt;Node378269 -->
<g id="edge20" class="edge">
<title>Node378427&#45;&gt;Node378269</title>
<path fill="none" stroke="#191970" d="M317.4379,-180.459C337.8615,-159.9454 385.8562,-112.4895 405,-100 410.8481,-96.1847 417.404,-92.7317 423.9051,-89.7105"/>
<polygon fill="#191970" stroke="#191970" points="425.5423,-92.8146 433.302,-85.6009 422.7374,-86.4011 425.5423,-92.8146"/>
</g>
<!-- Node378278 -->
<g id="node15" class="node">
<title>Node378278</title>
<g id="a_node15"><a xlink:href="quickjs_8c.html#aee75cc1546e19479e3ccda58f3b50a96" target="_top" xlink:title="JS_SetPropertyValue">
<polygon fill="none" stroke="#ff0000" points="405.5,-180.5 405.5,-199.5 515.5,-199.5 515.5,-180.5 405.5,-180.5"/>
<text text-anchor="middle" x="460.5" y="-187.5" font-family="Helvetica,sans-Serif" font-size="10.00" fill="#000000">JS_SetPropertyValue</text>
</a>
</g>
</g>
<!-- Node378427&#45;&gt;Node378278 -->
<g id="edge21" class="edge">
<title>Node378427&#45;&gt;Node378278</title>
<path fill="none" stroke="#191970" d="M361.7658,-190C372.5988,-190 384.0969,-190 395.2722,-190"/>
<polygon fill="#191970" stroke="#191970" points="395.4162,-193.5001 405.4162,-190 395.4162,-186.5001 395.4162,-193.5001"/>
</g>
<!-- Node378278&#45;&gt;Node378051 -->
<g id="edge23" class="edge">
<title>Node378278&#45;&gt;Node378051</title>
<path fill="none" stroke="#191970" d="M515.8694,-190C530.9057,-190 547.0912,-190 561.7934,-190"/>
<polygon fill="#191970" stroke="#191970" points="562.1992,-193.5001 572.1992,-190 562.1992,-186.5001 562.1992,-193.5001"/>
</g>
<!-- Node378278&#45;&gt;Node378050 -->
<g id="edge22" class="edge">
<title>Node378278&#45;&gt;Node378050</title>
<path fill="none" stroke="#191970" d="M469.9677,-199.6429C481.0477,-210.9466 499.9267,-230.2646 516,-247 532.1152,-263.779 535.5954,-268.5038 552,-285 565.7687,-298.8456 581.7706,-314.1316 593.7096,-325.3855"/>
<polygon fill="#191970" stroke="#191970" points="591.5631,-328.1711 601.2486,-332.4653 596.355,-323.0683 591.5631,-328.1711"/>
</g>
<!-- Node378428&#45;&gt;Node377997 -->
<g id="edge25" class="edge">
<title>Node378428&#45;&gt;Node377997</title>
<path fill="none" stroke="#191970" d="M369.04,-525.4555C410.5235,-520.8853 466.6212,-514.4666 516,-508 524.3595,-506.9052 533.1219,-505.7 541.8059,-504.4701"/>
<polygon fill="#191970" stroke="#191970" points="542.5323,-507.9019 551.9354,-503.02 541.5403,-500.9725 542.5323,-507.9019"/>
</g>
<!-- Node378428&#45;&gt;Node378064 -->
<g id="edge35" class="edge">
<title>Node378428&#45;&gt;Node378064</title>
<path fill="none" stroke="#191970" d="M312.411,-541.661C323.8112,-565.3583 356.7716,-626.3003 405,-652 509.4581,-707.6631 573.6259,-732.2917 671,-665 703.5714,-642.4911 734.4299,-522.987 745.5968,-475.4882"/>
<polygon fill="#191970" stroke="#191970" points="749.0542,-476.0709 747.8935,-465.5398 742.2336,-474.4962 749.0542,-476.0709"/>
</g>
<!-- Node378428&#45;&gt;Node378128 -->
<g id="edge37" class="edge">
<title>Node378428&#45;&gt;Node378128</title>
<path fill="none" stroke="#191970" d="M343.6641,-541.5175C413.6096,-557.9362 570.6952,-583.471 671,-513 701.5824,-491.5138 680.2261,-463.0786 707,-437 708.447,-435.5906 710.0162,-434.2761 711.6703,-433.0513"/>
<polygon fill="#191970" stroke="#191970" points="713.7815,-435.8624 720.4772,-427.6515 710.1225,-429.8948 713.7815,-435.8624"/>
</g>
<!-- Node378428&#45;&gt;Node378050 -->
<g id="edge26" class="edge">
<title>Node378428&#45;&gt;Node378050</title>
<path fill="none" stroke="#191970" d="M312.2957,-522.2607C323.6585,-497.6489 356.962,-432.5375 405,-399 430.4256,-381.2492 510.3445,-362.4387 562.9773,-351.4805"/>
<polygon fill="#191970" stroke="#191970" points="563.7019,-354.9048 572.7918,-349.462 562.2917,-348.0483 563.7019,-354.9048"/>
</g>
<!-- Node378428&#45;&gt;Node378426 -->
<g id="edge36" class="edge">
<title>Node378428&#45;&gt;Node378426</title>
<path fill="none" stroke="#191970" d="M327.3142,-522.3745C353.7836,-509.1832 401.5202,-485.3932 432.0748,-470.166"/>
<polygon fill="#191970" stroke="#191970" points="433.9536,-473.1403 441.3426,-465.5473 430.8313,-466.8752 433.9536,-473.1403"/>
</g>
<!-- Node378124 -->
<g id="node17" class="node">
<title>Node378124</title>
<g id="a_node17"><a xlink:href="quickjs_8h.html#a89b7c8686c7eee70b86be722ee4730ad" target="_top" xlink:title="JS_GetProperty">
<polygon fill="none" stroke="#ff0000" points="568.5,-636.5 568.5,-655.5 654.5,-655.5 654.5,-636.5 568.5,-636.5"/>
<text text-anchor="middle" x="611.5" y="-643.5" font-family="Helvetica,sans-Serif" font-size="10.00" fill="#000000">JS_GetProperty</text>
</a>
</g>
</g>
<!-- Node378428&#45;&gt;Node378124 -->
<g id="edge27" class="edge">
<title>Node378428&#45;&gt;Node378124</title>
<path fill="none" stroke="#191970" d="M314.3664,-541.7049C328.1333,-561.7549 362.8568,-607.5003 405,-627 453.3983,-649.394 514.9237,-652.2342 558.1816,-650.6513"/>
<polygon fill="#191970" stroke="#191970" points="558.3871,-654.1457 568.2171,-650.1931 558.0678,-647.153 558.3871,-654.1457"/>
</g>
<!-- Node378177 -->
<g id="node18" class="node">
<title>Node378177</title>
<g id="a_node18"><a xlink:href="quickjs_8c.html#a90d6e607f6917d817c1e997bd2e6ed07" target="_top" xlink:title="JS_GetPropertyValue">
<polygon fill="none" stroke="#ff0000" points="405,-408.5 405,-427.5 516,-427.5 516,-408.5 405,-408.5"/>
<text text-anchor="middle" x="460.5" y="-415.5" font-family="Helvetica,sans-Serif" font-size="10.00" fill="#000000">JS_GetPropertyValue</text>
</a>
</g>
</g>
<!-- Node378428&#45;&gt;Node378177 -->
<g id="edge28" class="edge">
<title>Node378428&#45;&gt;Node378177</title>
<path fill="none" stroke="#191970" d="M315.2329,-522.4972C330.0723,-503.6149 365.8722,-461.1194 405,-437 408.224,-435.0126 411.6825,-433.2017 415.2393,-431.558"/>
<polygon fill="#191970" stroke="#191970" points="416.898,-434.659 424.7905,-427.5907 414.2128,-428.1944 416.898,-434.659"/>
</g>
<!-- Node378294 -->
<g id="node19" class="node">
<title>Node378294</title>
<g id="a_node19"><a xlink:href="quickjs_8c.html#a9d6d0a9704951d01c128975e0d2213f8" target="_top" xlink:title="JS_HasProperty">
<polygon fill="none" stroke="#ff0000" points="416,-598.5 416,-617.5 505,-617.5 505,-598.5 416,-598.5"/>
<text text-anchor="middle" x="460.5" y="-605.5" font-family="Helvetica,sans-Serif" font-size="10.00" fill="#000000">JS_HasProperty</text>
</a>
</g>
</g>
<!-- Node378428&#45;&gt;Node378294 -->
<g id="edge34" class="edge">
<title>Node378428&#45;&gt;Node378294</title>
<path fill="none" stroke="#191970" d="M324.9475,-541.6452C344.1337,-552.4324 376.4409,-570.2001 405,-584 412.3106,-587.5325 420.2698,-591.1212 427.8183,-594.4097"/>
<polygon fill="#191970" stroke="#191970" points="426.5108,-597.6573 437.0804,-598.3877 429.2733,-591.2254 426.5108,-597.6573"/>
</g>
<!-- Node378177&#45;&gt;Node378051 -->
<g id="edge31" class="edge">
<title>Node378177&#45;&gt;Node378051</title>
<path fill="none" stroke="#191970" d="M464.3187,-408.4937C475.3946,-381.5593 509.4635,-303.0601 552,-247 563.5219,-231.815 579.1695,-216.9949 591.5264,-206.2739"/>
<polygon fill="#191970" stroke="#191970" points="594.0944,-208.6856 599.4642,-199.5524 589.5709,-203.3435 594.0944,-208.6856"/>
</g>
<!-- Node378177&#45;&gt;Node378030 -->
<g id="edge29" class="edge">
<title>Node378177&#45;&gt;Node378030</title>
<path fill="none" stroke="#191970" d="M516.1064,-412.2899C560.8601,-405.595 623.8476,-391.2743 671,-361 701.5235,-341.4023 726.1923,-306.2438 739.4228,-284.6331"/>
<polygon fill="#191970" stroke="#191970" points="742.5924,-286.1496 744.6767,-275.7618 736.5694,-282.5825 742.5924,-286.1496"/>
</g>
<!-- Node378177&#45;&gt;Node378128 -->
<g id="edge33" class="edge">
<title>Node378177&#45;&gt;Node378128</title>
<path fill="none" stroke="#191970" d="M516.3185,-418C570.1195,-418 650.682,-418 701.7714,-418"/>
<polygon fill="#191970" stroke="#191970" points="701.8925,-421.5001 711.8925,-418 701.8925,-414.5001 701.8925,-421.5001"/>
</g>
<!-- Node378177&#45;&gt;Node378050 -->
<g id="edge30" class="edge">
<title>Node378177&#45;&gt;Node378050</title>
<path fill="none" stroke="#191970" d="M486.3065,-408.4324C495.8944,-404.4701 506.696,-399.509 516,-394 533.4416,-383.6727 534.4319,-376.1107 552,-366 558.7034,-362.1421 566.1479,-358.6113 573.4382,-355.514"/>
<polygon fill="#191970" stroke="#191970" points="575.2397,-358.561 583.1999,-351.5691 572.6169,-352.0709 575.2397,-358.561"/>
</g>
<!-- Node378177&#45;&gt;Node378124 -->
<g id="edge32" class="edge">
<title>Node378177&#45;&gt;Node378124</title>
<path fill="none" stroke="#191970" d="M501.1714,-427.5289C506.5596,-429.9991 511.6975,-433.1028 516,-437 519.8466,-440.4843 580.5792,-576.4862 603.144,-627.1961"/>
<polygon fill="#191970" stroke="#191970" points="599.9716,-628.6762 607.2332,-636.3912 606.3677,-625.8317 599.9716,-628.6762"/>
</g>
<!-- Node378254&#45;&gt;Node378064 -->
<g id="edge42" class="edge">
<title>Node378254&#45;&gt;Node378064</title>
<path fill="none" stroke="#191970" d="M503.0103,-767.8522C549.7844,-773.9013 624.4842,-775.5519 671,-736 711.5835,-701.4922 738.9233,-533.7499 747.2908,-475.7654"/>
<polygon fill="#191970" stroke="#191970" points="750.7789,-476.0947 748.7096,-465.7039 743.8474,-475.1172 750.7789,-476.0947"/>
</g>
<!-- Node378254&#45;&gt;Node378124 -->
<g id="edge41" class="edge">
<title>Node378254&#45;&gt;Node378124</title>
<path fill="none" stroke="#191970" d="M473.1145,-750.4765C499.0305,-730.9108 558.5031,-686.0109 590.3899,-661.9374"/>
<polygon fill="#191970" stroke="#191970" points="592.7293,-664.5568 598.6014,-655.738 588.5115,-658.9701 592.7293,-664.5568"/>
</g>
<!-- Node378247&#45;&gt;Node378128 -->
<g id="edge44" class="edge">
<title>Node378247&#45;&gt;Node378128</title>
<path fill="none" stroke="#191970" d="M197.2333,-522.5149C201.9375,-524.1521 206.639,-525.9846 211,-528 211.7257,-528.3354 404.2433,-651.7421 405,-652 517.0354,-690.1831 581.0142,-741.8923 671,-665 748.9932,-598.3553 644.4529,-518.3161 707,-437 707.933,-435.787 708.96,-434.6498 710.0622,-433.5838"/>
<polygon fill="#191970" stroke="#191970" points="712.2782,-436.2979 718.2293,-427.5323 708.1108,-430.6736 712.2782,-436.2979"/>
</g>
</g>
</svg>
