<?xml version="1.0" encoding="UTF-8" standalone="no"?>
<!DOCTYPE svg PUBLIC "-//W3C//DTD SVG 1.1//EN"
 "http://www.w3.org/Graphics/SVG/1.1/DTD/svg11.dtd">
<!-- Generated by graphviz version 2.40.1 (20161225.0304)
 -->
<!-- Title: emit_u16 Pages: 1 -->
<svg width="1297pt" height="1351pt"
 viewBox="0.00 0.00 1297.00 1350.99" xmlns="http://www.w3.org/2000/svg" xmlns:xlink="http://www.w3.org/1999/xlink">
<g id="graph0" class="graph" transform="scale(1 1) rotate(0) translate(4 1346.9949)">
<title>emit_u16</title>
<!-- Node298608 -->
<g id="node1" class="node">
<title>Node298608</title>
<polygon fill="#bfbfbf" stroke="#000000" points="0,-535.4949 0,-554.4949 56,-554.4949 56,-535.4949 0,-535.4949"/>
<text text-anchor="middle" x="28" y="-542.4949" font-family="Helvetica,sans-Serif" font-size="10.00" fill="#000000">emit_u16</text>
</g>
<!-- Node298609 -->
<g id="node2" class="node">
<title>Node298609</title>
<g id="a_node2"><a xlink:href="quickjs_8c.html#ae04197c3107208ce7ba5e1dab6caf81d" target="_top" xlink:title="close_scopes">
<polygon fill="none" stroke="#000000" points="661,-193.4949 661,-212.4949 738,-212.4949 738,-193.4949 661,-193.4949"/>
<text text-anchor="middle" x="699.5" y="-200.4949" font-family="Helvetica,sans-Serif" font-size="10.00" fill="#000000">close_scopes</text>
</a>
</g>
</g>
<!-- Node298608&#45;&gt;Node298609 -->
<g id="edge1" class="edge">
<title>Node298608&#45;&gt;Node298609</title>
<path fill="none" stroke="#191970" d="M29.0996,-525.2201C33.0191,-462.3174 48.4751,-268.5442 92,-226.9949 142.8999,-178.4053 178.1313,-202.9949 248.5,-202.9949 248.5,-202.9949 248.5,-202.9949 396.5,-202.9949 491.4505,-202.9949 603.1379,-202.9949 660.7574,-202.9949"/>
<polygon fill="#191970" stroke="#191970" points="25.5956,-525.1867 28.4979,-535.3762 32.5833,-525.6008 25.5956,-525.1867"/>
</g>
<!-- Node298611 -->
<g id="node4" class="node">
<title>Node298611</title>
<g id="a_node4"><a xlink:href="quickjs_8c.html#a9d844c16dcc71701436848074337d32c" target="_top" xlink:title="js_parse_statement\l_or_decl">
<polygon fill="none" stroke="#ff0000" points="1069,-301.9949 1069,-331.9949 1171,-331.9949 1171,-301.9949 1069,-301.9949"/>
<text text-anchor="start" x="1077" y="-319.9949" font-family="Helvetica,sans-Serif" font-size="10.00" fill="#000000">js_parse_statement</text>
<text text-anchor="middle" x="1120" y="-308.9949" font-family="Helvetica,sans-Serif" font-size="10.00" fill="#000000">_or_decl</text>
</a>
</g>
</g>
<!-- Node298608&#45;&gt;Node298611 -->
<g id="edge72" class="edge">
<title>Node298608&#45;&gt;Node298611</title>
<path fill="none" stroke="#191970" d="M28.72,-525.3721C31.593,-458.3988 44.4983,-240.3631 92,-192.9949 142.0344,-143.101 177.84,-164.9949 248.5,-164.9949 248.5,-164.9949 248.5,-164.9949 854,-164.9949 938.1926,-164.9949 962.0225,-181.7115 1033,-226.9949 1065.0614,-247.45 1093.944,-281.9962 1109.0115,-301.8096"/>
<polygon fill="#191970" stroke="#191970" points="25.2208,-525.2844 28.3173,-535.4166 32.2152,-525.5648 25.2208,-525.2844"/>
</g>
<!-- Node298613 -->
<g id="node6" class="node">
<title>Node298613</title>
<g id="a_node6"><a xlink:href="quickjs_8c.html#ac188b916dd086803591a67de7e7a85f6" target="_top" xlink:title="js_parse_for_in_of">
<polygon fill="none" stroke="#000000" points="806,-307.4949 806,-326.4949 902,-326.4949 902,-307.4949 806,-307.4949"/>
<text text-anchor="middle" x="854" y="-314.4949" font-family="Helvetica,sans-Serif" font-size="10.00" fill="#000000">js_parse_for_in_of</text>
</a>
</g>
</g>
<!-- Node298608&#45;&gt;Node298613 -->
<g id="edge66" class="edge">
<title>Node298608&#45;&gt;Node298613</title>
<path fill="none" stroke="#191970" d="M29.9571,-525.4308C35.9536,-469.4595 55.8927,-310.4292 92,-274.9949 142.8017,-225.14 177.3219,-240.9949 248.5,-240.9949 248.5,-240.9949 248.5,-240.9949 547.5,-240.9949 656.5983,-240.9949 781.2895,-286.9189 831.4075,-307.3694"/>
<polygon fill="#191970" stroke="#191970" points="26.4676,-525.1493 28.9155,-535.4574 33.4301,-525.8726 26.4676,-525.1493"/>
</g>
<!-- Node298642 -->
<g id="node7" class="node">
<title>Node298642</title>
<g id="a_node7"><a xlink:href="quickjs_8c.html#a1e86277b96b55991d572603e00fef94d" target="_top" xlink:title="emit_class_field_init">
<polygon fill="none" stroke="#000000" points="344,-1067.4949 344,-1086.4949 449,-1086.4949 449,-1067.4949 344,-1067.4949"/>
<text text-anchor="middle" x="396.5" y="-1074.4949" font-family="Helvetica,sans-Serif" font-size="10.00" fill="#000000">emit_class_field_init</text>
</a>
</g>
</g>
<!-- Node298608&#45;&gt;Node298642 -->
<g id="edge10" class="edge">
<title>Node298608&#45;&gt;Node298642</title>
<path fill="none" stroke="#191970" d="M29.0505,-565.0024C33.9631,-654.9014 55.9611,-1018.5998 92,-1052.9949 165.4623,-1123.1064 299.4084,-1101.7543 362.2413,-1086.5441"/>
<polygon fill="#191970" stroke="#191970" points="32.5345,-564.6077 28.5033,-554.8097 25.5445,-564.983 32.5345,-564.6077"/>
</g>
<!-- Node298619 -->
<g id="node8" class="node">
<title>Node298619</title>
<g id="a_node8"><a xlink:href="quickjs_8c.html#acdcc62310b4f6f73fa7bc7267b18b1d4" target="_top" xlink:title="js_parse_postfix_expr">
<polygon fill="none" stroke="#000000" points="491.5,-583.4949 491.5,-602.4949 603.5,-602.4949 603.5,-583.4949 491.5,-583.4949"/>
<text text-anchor="middle" x="547.5" y="-590.4949" font-family="Helvetica,sans-Serif" font-size="10.00" fill="#000000">js_parse_postfix_expr</text>
</a>
</g>
</g>
<!-- Node298608&#45;&gt;Node298619 -->
<g id="edge69" class="edge">
<title>Node298608&#45;&gt;Node298619</title>
<path fill="none" stroke="#191970" d="M66.2656,-534.6425C142.1592,-515.9652 316.2212,-482.4268 453,-525.9949 488.6427,-537.3481 522.378,-567.5725 538.162,-583.2526"/>
<polygon fill="#191970" stroke="#191970" points="65.0658,-531.3353 56.2223,-537.1698 66.7741,-538.1236 65.0658,-531.3353"/>
</g>
<!-- Node298618 -->
<g id="node9" class="node">
<title>Node298618</title>
<g id="a_node9"><a xlink:href="quickjs_8c.html#a00eb789430243c24dab4a63ad6a79653" target="_top" xlink:title="js_parse_class">
<polygon fill="none" stroke="#000000" points="951,-582.4949 951,-601.4949 1033,-601.4949 1033,-582.4949 951,-582.4949"/>
<text text-anchor="middle" x="992" y="-589.4949" font-family="Helvetica,sans-Serif" font-size="10.00" fill="#000000">js_parse_class</text>
</a>
</g>
</g>
<!-- Node298608&#45;&gt;Node298618 -->
<g id="edge63" class="edge">
<title>Node298608&#45;&gt;Node298618</title>
<path fill="none" stroke="#191970" d="M28.9884,-564.8116C34.2706,-668.2071 60.1247,-1143.2171 92,-1199.9949 133.0035,-1273.0323 164.7399,-1304.9949 248.5,-1304.9949 248.5,-1304.9949 248.5,-1304.9949 699.5,-1304.9949 821.7677,-1304.9949 854.1866,-1240.0661 915,-1133.9949 970.19,-1037.732 988.761,-666.1603 991.5991,-601.5886"/>
<polygon fill="#191970" stroke="#191970" points="32.4823,-564.6023 28.4818,-554.7918 25.4913,-564.9558 32.4823,-564.6023"/>
</g>
<!-- Node298622 -->
<g id="node10" class="node">
<title>Node298622</title>
<g id="a_node10"><a xlink:href="quickjs_8c.html#a498e1d5c7de1b59c1630e9847cde1e41" target="_top" xlink:title="js_parse_export">
<polygon fill="none" stroke="#ff0000" points="1077,-1067.4949 1077,-1086.4949 1163,-1086.4949 1163,-1067.4949 1077,-1067.4949"/>
<text text-anchor="middle" x="1120" y="-1074.4949" font-family="Helvetica,sans-Serif" font-size="10.00" fill="#000000">js_parse_export</text>
</a>
</g>
</g>
<!-- Node298608&#45;&gt;Node298622 -->
<g id="edge65" class="edge">
<title>Node298608&#45;&gt;Node298622</title>
<path fill="none" stroke="#191970" d="M28.7416,-564.7383C32.9484,-673.0876 54.9468,-1192.7787 92,-1252.9949 134.0495,-1321.3309 168.263,-1342.9949 248.5,-1342.9949 248.5,-1342.9949 248.5,-1342.9949 854,-1342.9949 1001.9253,-1342.9949 1096.3197,-1134.7674 1116.1103,-1086.7774"/>
<polygon fill="#191970" stroke="#191970" points="32.2326,-564.4338 28.3527,-554.5749 25.2377,-564.7015 32.2326,-564.4338"/>
</g>
<!-- Node298620 -->
<g id="node11" class="node">
<title>Node298620</title>
<g id="a_node11"><a xlink:href="quickjs_8c.html#a26be546cf89c4580ba9020e8fc43a759" target="_top" xlink:title="js_parse_destructuring\l_element">
<polygon fill="none" stroke="#000000" points="642,-839.9949 642,-869.9949 757,-869.9949 757,-839.9949 642,-839.9949"/>
<text text-anchor="start" x="650" y="-857.9949" font-family="Helvetica,sans-Serif" font-size="10.00" fill="#000000">js_parse_destructuring</text>
<text text-anchor="middle" x="699.5" y="-846.9949" font-family="Helvetica,sans-Serif" font-size="10.00" fill="#000000">_element</text>
</a>
</g>
</g>
<!-- Node298608&#45;&gt;Node298620 -->
<g id="edge64" class="edge">
<title>Node298608&#45;&gt;Node298620</title>
<path fill="none" stroke="#191970" d="M28.4009,-564.6503C30.3146,-640.3572 40.7013,-912.1322 92,-977.9949 121.8732,-1016.3492 145.3253,-1010.4774 193,-1019.9949 376.9542,-1056.7185 447.2389,-1032.9083 606,-932.9949 625.9645,-920.4306 624.1214,-909.3832 642,-893.9949 652.0564,-885.3392 664.0869,-876.9214 674.5382,-870.1351"/>
<polygon fill="#191970" stroke="#191970" points="31.8988,-564.512 28.1688,-554.5955 24.9007,-564.6737 31.8988,-564.512"/>
</g>
<!-- Node298621 -->
<g id="node12" class="node">
<title>Node298621</title>
<g id="a_node12"><a xlink:href="quickjs_8c.html#a42924858317b848c3aea0a0a978fab3a" target="_top" xlink:title="js_parse_var">
<polygon fill="none" stroke="#000000" points="818,-1105.4949 818,-1124.4949 890,-1124.4949 890,-1105.4949 818,-1105.4949"/>
<text text-anchor="middle" x="854" y="-1112.4949" font-family="Helvetica,sans-Serif" font-size="10.00" fill="#000000">js_parse_var</text>
</a>
</g>
</g>
<!-- Node298608&#45;&gt;Node298621 -->
<g id="edge74" class="edge">
<title>Node298608&#45;&gt;Node298621</title>
<path fill="none" stroke="#191970" d="M28.1578,-564.6078C29.1806,-655.4821 36.7459,-1035.5091 92,-1137.9949 134.7767,-1217.3374 158.3607,-1266.9949 248.5,-1266.9949 248.5,-1266.9949 248.5,-1266.9949 547.5,-1266.9949 644.3545,-1266.9949 672.8968,-1255.0308 757,-1206.9949 796.0994,-1184.6631 831.6439,-1143.3442 846.5674,-1124.6402"/>
<polygon fill="#191970" stroke="#191970" points="31.6574,-564.544 28.0592,-554.5789 24.6578,-564.6129 31.6574,-564.544"/>
</g>
<!-- Node298616 -->
<g id="node13" class="node">
<title>Node298616</title>
<g id="a_node13"><a xlink:href="quickjs_8c.html#acc9eb677cab8dfcf45f59381f8a19601" target="_top" xlink:title="js_parse_function_decl2">
<polygon fill="none" stroke="#ff0000" points="793,-802.4949 793,-821.4949 915,-821.4949 915,-802.4949 793,-802.4949"/>
<text text-anchor="middle" x="854" y="-809.4949" font-family="Helvetica,sans-Serif" font-size="10.00" fill="#000000">js_parse_function_decl2</text>
</a>
</g>
</g>
<!-- Node298608&#45;&gt;Node298616 -->
<g id="edge67" class="edge">
<title>Node298608&#45;&gt;Node298616</title>
<path fill="none" stroke="#191970" d="M28.1846,-564.8399C29.311,-651.3233 37.2172,-994.9791 92,-1084.9949 135.6745,-1156.7582 164.4915,-1190.9949 248.5,-1190.9949 248.5,-1190.9949 248.5,-1190.9949 396.5,-1190.9949 635.272,-1190.9949 816.3244,-881.0666 848.792,-821.7443"/>
<polygon fill="#191970" stroke="#191970" points="31.6817,-564.5534 28.0683,-554.5938 24.6821,-564.6329 31.6817,-564.5534"/>
</g>
<!-- Node298643 -->
<g id="node15" class="node">
<title>Node298643</title>
<g id="a_node15"><a xlink:href="quickjs_8c.html#a38e4107378b0d9abd638e4fe13541678" target="_top" xlink:title="emit_class_init_start">
<polygon fill="none" stroke="#000000" points="646,-497.4949 646,-516.4949 753,-516.4949 753,-497.4949 646,-497.4949"/>
<text text-anchor="middle" x="699.5" y="-504.4949" font-family="Helvetica,sans-Serif" font-size="10.00" fill="#000000">emit_class_init_start</text>
</a>
</g>
</g>
<!-- Node298608&#45;&gt;Node298643 -->
<g id="edge32" class="edge">
<title>Node298608&#45;&gt;Node298643</title>
<path fill="none" stroke="#191970" d="M36.2353,-526.1704C46.4404,-504.8831 65.7471,-470.5225 92,-449.9949 150.3149,-404.3974 174.4746,-392.9949 248.5,-392.9949 248.5,-392.9949 248.5,-392.9949 396.5,-392.9949 514.8098,-392.9949 643.42,-470.0727 685.3996,-497.4714"/>
<polygon fill="#191970" stroke="#191970" points="32.965,-524.9048 31.9661,-535.4524 39.3246,-527.8298 32.965,-524.9048"/>
</g>
<!-- Node298645 -->
<g id="node17" class="node">
<title>Node298645</title>
<g id="a_node17"><a xlink:href="quickjs_8c.html#acea69d5aa6481a035d0833b8bce455f5" target="_top" xlink:title="emit_return">
<polygon fill="none" stroke="#000000" points="92,-459.4949 92,-478.4949 157,-478.4949 157,-459.4949 92,-459.4949"/>
<text text-anchor="middle" x="124.5" y="-466.4949" font-family="Helvetica,sans-Serif" font-size="10.00" fill="#000000">emit_return</text>
</a>
</g>
</g>
<!-- Node298608&#45;&gt;Node298645 -->
<g id="edge36" class="edge">
<title>Node298608&#45;&gt;Node298645</title>
<path fill="none" stroke="#191970" d="M47.6313,-528.6525C60.1994,-518.288 76.9203,-504.6789 92,-492.9949 98.2099,-488.1834 105.2068,-482.9882 111.1135,-478.666"/>
<polygon fill="#191970" stroke="#191970" points="45.1369,-526.1737 39.665,-535.2461 49.6003,-531.5662 45.1369,-526.1737"/>
</g>
<!-- Node298630 -->
<g id="node19" class="node">
<title>Node298630</title>
<g id="a_node19"><a xlink:href="quickjs_8c.html#a035daca514f14aacc1e0cff81d8e423a" target="_top" xlink:title="js_parse_template">
<polygon fill="none" stroke="#000000" points="348.5,-535.4949 348.5,-554.4949 444.5,-554.4949 444.5,-535.4949 348.5,-535.4949"/>
<text text-anchor="middle" x="396.5" y="-542.4949" font-family="Helvetica,sans-Serif" font-size="10.00" fill="#000000">js_parse_template</text>
</a>
</g>
</g>
<!-- Node298608&#45;&gt;Node298630 -->
<g id="edge73" class="edge">
<title>Node298608&#45;&gt;Node298630</title>
<path fill="none" stroke="#191970" d="M66.5327,-544.9949C134.2792,-544.9949 274.5391,-544.9949 348.4794,-544.9949"/>
<polygon fill="#191970" stroke="#191970" points="66.3037,-541.495 56.3037,-544.9949 66.3037,-548.495 66.3037,-541.495"/>
</g>
<!-- Node298631 -->
<g id="node20" class="node">
<title>Node298631</title>
<g id="a_node20"><a xlink:href="quickjs_8c.html#aee6d0acd87f136d43f157ae1426436e6" target="_top" xlink:title="js_parse_object_literal">
<polygon fill="none" stroke="#000000" points="340,-725.4949 340,-744.4949 453,-744.4949 453,-725.4949 340,-725.4949"/>
<text text-anchor="middle" x="396.5" y="-732.4949" font-family="Helvetica,sans-Serif" font-size="10.00" fill="#000000">js_parse_object_literal</text>
</a>
</g>
</g>
<!-- Node298608&#45;&gt;Node298631 -->
<g id="edge68" class="edge">
<title>Node298608&#45;&gt;Node298631</title>
<path fill="none" stroke="#191970" d="M30.85,-564.8565C36.6999,-599.2838 52.9557,-670.692 92,-715.9949 125.5086,-754.8747 143.3085,-759.1408 193,-771.9949 240.7613,-784.3496 255.5568,-781.3242 304,-771.9949 331.0046,-766.7943 360.147,-753.7808 378.3544,-744.6656"/>
<polygon fill="#191970" stroke="#191970" points="34.2619,-564.0229 29.2471,-554.69 27.3473,-565.1131 34.2619,-564.0229"/>
</g>
<!-- Node298632 -->
<g id="node21" class="node">
<title>Node298632</title>
<g id="a_node21"><a xlink:href="quickjs_8c.html#a253917187cfb6b3db09d355b31edb3d5" target="_top" xlink:title="js_parse_array_literal">
<polygon fill="none" stroke="#000000" points="342,-573.4949 342,-592.4949 451,-592.4949 451,-573.4949 342,-573.4949"/>
<text text-anchor="middle" x="396.5" y="-580.4949" font-family="Helvetica,sans-Serif" font-size="10.00" fill="#000000">js_parse_array_literal</text>
</a>
</g>
</g>
<!-- Node298608&#45;&gt;Node298632 -->
<g id="edge62" class="edge">
<title>Node298608&#45;&gt;Node298632</title>
<path fill="none" stroke="#191970" d="M66.2037,-554.2456C74.6587,-556.0425 83.6012,-557.7512 92,-558.9949 178.8156,-571.8501 280.6447,-578.1145 341.7914,-580.9371"/>
<polygon fill="#191970" stroke="#191970" points="66.7213,-550.7756 56.2016,-552.0355 65.2109,-557.6107 66.7213,-550.7756"/>
</g>
<!-- Node298646 -->
<g id="node22" class="node">
<title>Node298646</title>
<g id="a_node22"><a xlink:href="quickjs_8c.html#a069baa06a1214006c4ec473875de010e" target="_top" xlink:title="get_lvalue">
<polygon fill="none" stroke="#000000" points="94,-687.4949 94,-706.4949 155,-706.4949 155,-687.4949 94,-687.4949"/>
<text text-anchor="middle" x="124.5" y="-694.4949" font-family="Helvetica,sans-Serif" font-size="10.00" fill="#000000">get_lvalue</text>
</a>
</g>
</g>
<!-- Node298608&#45;&gt;Node298646 -->
<g id="edge54" class="edge">
<title>Node298608&#45;&gt;Node298646</title>
<path fill="none" stroke="#191970" d="M39.4461,-563.0239C60.0481,-595.4748 102.6953,-662.6496 118.4658,-687.4902"/>
<polygon fill="#191970" stroke="#191970" points="42.3511,-561.0696 34.0365,-554.5032 36.4415,-564.8214 42.3511,-561.0696"/>
</g>
<!-- Node298647 -->
<g id="node23" class="node">
<title>Node298647</title>
<g id="a_node23"><a xlink:href="quickjs_8c.html#a98ab69061f85c400e0eed2c0eb47f49b" target="_top" xlink:title="js_emit_spread_code">
<polygon fill="none" stroke="#000000" points="194,-991.4949 194,-1010.4949 303,-1010.4949 303,-991.4949 194,-991.4949"/>
<text text-anchor="middle" x="248.5" y="-998.4949" font-family="Helvetica,sans-Serif" font-size="10.00" fill="#000000">js_emit_spread_code</text>
</a>
</g>
</g>
<!-- Node298608&#45;&gt;Node298647 -->
<g id="edge60" class="edge">
<title>Node298608&#45;&gt;Node298647</title>
<path fill="none" stroke="#191970" d="M28.5977,-564.9901C31.1486,-637.4448 43.3361,-885.0659 92,-943.9949 116.9488,-974.2064 159.3313,-988.405 193.7027,-995.078"/>
<polygon fill="#191970" stroke="#191970" points="32.0823,-564.4608 28.2566,-554.5808 25.0861,-564.6901 32.0823,-564.4608"/>
</g>
<!-- Node298638 -->
<g id="node24" class="node">
<title>Node298638</title>
<g id="a_node24"><a xlink:href="quickjs_8c.html#aec05caae64451720670d1a56040110b3" target="_top" xlink:title="js_parse_program">
<polygon fill="none" stroke="#000000" points="201.5,-75.4949 201.5,-94.4949 295.5,-94.4949 295.5,-75.4949 201.5,-75.4949"/>
<text text-anchor="middle" x="248.5" y="-82.4949" font-family="Helvetica,sans-Serif" font-size="10.00" fill="#000000">js_parse_program</text>
</a>
</g>
</g>
<!-- Node298608&#45;&gt;Node298638 -->
<g id="edge70" class="edge">
<title>Node298608&#45;&gt;Node298638</title>
<path fill="none" stroke="#191970" d="M29.6145,-524.8018C36.2966,-443.5042 62.81,-143.0728 92,-112.9949 119.8729,-84.2741 166.3787,-79.1057 201.4678,-80.0234"/>
<polygon fill="#191970" stroke="#191970" points="26.0953,-524.8978 28.7745,-535.1482 33.0723,-525.4643 26.0953,-524.8978"/>
</g>
<!-- Node298648 -->
<g id="node26" class="node">
<title>Node298648</title>
<g id="a_node26"><a xlink:href="quickjs_8c.html#a3376d6ef6fabfbe6070a4e13cb281974" target="_top" xlink:title="pop_scope">
<polygon fill="none" stroke="#000000" points="667.5,-383.4949 667.5,-402.4949 731.5,-402.4949 731.5,-383.4949 667.5,-383.4949"/>
<text text-anchor="middle" x="699.5" y="-390.4949" font-family="Helvetica,sans-Serif" font-size="10.00" fill="#000000">pop_scope</text>
</a>
</g>
</g>
<!-- Node298608&#45;&gt;Node298648 -->
<g id="edge75" class="edge">
<title>Node298608&#45;&gt;Node298648</title>
<path fill="none" stroke="#191970" d="M30.7737,-525.3305C36.3202,-493.9443 51.8966,-433.0127 92,-402.9949 273.9829,-266.779 580.0684,-352.8091 672.361,-383.4388"/>
<polygon fill="#191970" stroke="#191970" points="27.2793,-525.0181 29.1572,-535.4451 34.1915,-526.1228 27.2793,-525.0181"/>
</g>
<!-- Node298649 -->
<g id="node27" class="node">
<title>Node298649</title>
<g id="a_node27"><a xlink:href="quickjs_8c.html#a7d087e9b184f7e0369bab54aafb1c36d" target="_top" xlink:title="push_scope">
<polygon fill="none" stroke="#000000" points="665,-117.4949 665,-136.4949 734,-136.4949 734,-117.4949 665,-117.4949"/>
<text text-anchor="middle" x="699.5" y="-124.4949" font-family="Helvetica,sans-Serif" font-size="10.00" fill="#000000">push_scope</text>
</a>
</g>
</g>
<!-- Node298608&#45;&gt;Node298649 -->
<g id="edge80" class="edge">
<title>Node298608&#45;&gt;Node298649</title>
<path fill="none" stroke="#191970" d="M28.2595,-525.3619C29.6376,-453.2239 38.2729,-204.2481 92,-150.9949 141.9781,-101.4576 178.1313,-126.9949 248.5,-126.9949 248.5,-126.9949 248.5,-126.9949 396.5,-126.9949 493.8177,-126.9949 608.7172,-126.9949 664.9649,-126.9949"/>
<polygon fill="#191970" stroke="#191970" points="24.76,-525.3079 28.0949,-535.3642 31.7591,-525.4232 24.76,-525.3079"/>
</g>
<!-- Node298650 -->
<g id="node28" class="node">
<title>Node298650</title>
<g id="a_node28"><a xlink:href="quickjs_8c.html#ab4795d29c6811027d6efbcf1ca715b1e" target="_top" xlink:title="put_lvalue">
<polygon fill="none" stroke="#000000" points="94,-915.4949 94,-934.4949 155,-934.4949 155,-915.4949 94,-915.4949"/>
<text text-anchor="middle" x="124.5" y="-922.4949" font-family="Helvetica,sans-Serif" font-size="10.00" fill="#000000">put_lvalue</text>
</a>
</g>
</g>
<!-- Node298608&#45;&gt;Node298650 -->
<g id="edge87" class="edge">
<title>Node298608&#45;&gt;Node298650</title>
<path fill="none" stroke="#191970" d="M29.6491,-564.9732C35.4237,-631.3625 56.3394,-843.6447 92,-900.9949 95.5556,-906.7131 101.0148,-911.5176 106.4499,-915.2897"/>
<polygon fill="#191970" stroke="#191970" points="33.1067,-564.3257 28.7727,-554.6578 26.1319,-564.9183 33.1067,-564.3257"/>
</g>
<!-- Node298651 -->
<g id="node29" class="node">
<title>Node298651</title>
<g id="a_node29"><a xlink:href="quickjs_8c.html#a71a59a62d53344c84d529a0f8b9d8597" target="_top" xlink:title="put_lvalue_nokeep">
<polygon fill="none" stroke="#000000" points="498.5,-269.4949 498.5,-288.4949 596.5,-288.4949 596.5,-269.4949 498.5,-269.4949"/>
<text text-anchor="middle" x="547.5" y="-276.4949" font-family="Helvetica,sans-Serif" font-size="10.00" fill="#000000">put_lvalue_nokeep</text>
</a>
</g>
</g>
<!-- Node298608&#45;&gt;Node298651 -->
<g id="edge91" class="edge">
<title>Node298608&#45;&gt;Node298651</title>
<path fill="none" stroke="#191970" d="M30.2296,-525.484C36.645,-473.1091 56.9671,-331.4667 92,-302.9949 152.9927,-253.4251 393.2596,-266.2977 498.115,-274.581"/>
<polygon fill="#191970" stroke="#191970" points="26.7449,-525.1484 29.0417,-535.4913 33.6961,-525.9736 26.7449,-525.1484"/>
</g>
<!-- Node298652 -->
<g id="node30" class="node">
<title>Node298652</title>
<g id="a_node30"><a xlink:href="quickjs_8c.html#ad800cb2de9d84e999957b8c17fe7a90d" target="_top" xlink:title="set_eval_ret_undefined">
<polygon fill="none" stroke="#000000" points="489,-22.4949 489,-41.4949 606,-41.4949 606,-22.4949 489,-22.4949"/>
<text text-anchor="middle" x="547.5" y="-29.4949" font-family="Helvetica,sans-Serif" font-size="10.00" fill="#000000">set_eval_ret_undefined</text>
</a>
</g>
</g>
<!-- Node298608&#45;&gt;Node298652 -->
<g id="edge94" class="edge">
<title>Node298608&#45;&gt;Node298652</title>
<path fill="none" stroke="#191970" d="M29.3234,-525.0861C35.1546,-440.1546 59.7063,-111.016 92,-78.9949 206.3164,34.3566 424.7896,-2.2093 511.1119,-22.4433"/>
<polygon fill="#191970" stroke="#191970" points="25.8224,-524.9838 28.639,-535.1973 32.8064,-525.4565 25.8224,-524.9838"/>
</g>
<!-- Node298610 -->
<g id="node3" class="node">
<title>Node298610</title>
<g id="a_node3"><a xlink:href="quickjs_8c.html#abb105b8bb34f4bf0a39ade5bc0252191" target="_top" xlink:title="emit_break">
<polygon fill="none" stroke="#000000" points="959.5,-269.4949 959.5,-288.4949 1024.5,-288.4949 1024.5,-269.4949 959.5,-269.4949"/>
<text text-anchor="middle" x="992" y="-276.4949" font-family="Helvetica,sans-Serif" font-size="10.00" fill="#000000">emit_break</text>
</a>
</g>
</g>
<!-- Node298609&#45;&gt;Node298610 -->
<g id="edge2" class="edge">
<title>Node298609&#45;&gt;Node298610</title>
<path fill="none" stroke="#191970" d="M746.1461,-215.1149C805.7023,-230.5893 907.2439,-256.9728 959.2246,-270.4789"/>
<polygon fill="#191970" stroke="#191970" points="746.808,-211.6707 736.2492,-212.5434 745.0476,-218.4458 746.808,-211.6707"/>
</g>
<!-- Node298609&#45;&gt;Node298611 -->
<g id="edge9" class="edge">
<title>Node298609&#45;&gt;Node298611</title>
<path fill="none" stroke="#191970" d="M748.5646,-203.2332C815.8599,-205.3272 939.1308,-215.582 1033,-259.9949 1057.6469,-271.6562 1083.4868,-289.392 1100.5373,-301.9791"/>
<polygon fill="#191970" stroke="#191970" points="748.346,-199.7263 738.2578,-202.9632 748.1626,-206.7239 748.346,-199.7263"/>
</g>
<!-- Node298609&#45;&gt;Node298613 -->
<g id="edge7" class="edge">
<title>Node298609&#45;&gt;Node298613</title>
<path fill="none" stroke="#191970" d="M742.1652,-216.867C747.5083,-219.7002 752.6241,-223.0518 757,-226.9949 781.8221,-249.3624 767.9492,-270.8838 793,-292.9949 800.0818,-299.2456 808.9836,-303.9659 817.781,-307.4912"/>
<polygon fill="#191970" stroke="#191970" points="743.5876,-213.6682 733.0492,-212.5754 740.6059,-220.0015 743.5876,-213.6682"/>
</g>
<!-- Node298610&#45;&gt;Node298611 -->
<g id="edge3" class="edge">
<title>Node298610&#45;&gt;Node298611</title>
<path fill="none" stroke="#191970" d="M1033.9151,-291.4384C1045.2108,-294.7918 1057.5526,-298.4558 1069.2731,-301.9353"/>
<polygon fill="#191970" stroke="#191970" points="1034.8824,-288.0747 1024.2998,-288.5839 1032.8902,-294.7852 1034.8824,-288.0747"/>
</g>
<!-- Node298611&#45;&gt;Node298611 -->
<g id="edge6" class="edge">
<title>Node298611&#45;&gt;Node298611</title>
<path fill="none" stroke="#191970" d="M1097.2559,-342.4528C1100.0788,-347.1739 1107.6602,-350.4949 1120,-350.4949 1140.25,-350.4949 1147.6855,-341.5515 1142.3066,-332.1539"/>
<polygon fill="#191970" stroke="#191970" points="1100.7658,-342.2934 1097.6934,-332.1539 1093.7721,-341.9963 1100.7658,-342.2934"/>
</g>
<!-- Node298614 -->
<g id="node5" class="node">
<title>Node298614</title>
<g id="a_node5"><a xlink:href="quickjs_8c.html#acc0cac53be5317d9cab6a79afcd7da48" target="_top" xlink:title="js_parse_block">
<polygon fill="none" stroke="#000000" points="1207,-307.4949 1207,-326.4949 1289,-326.4949 1289,-307.4949 1207,-307.4949"/>
<text text-anchor="middle" x="1248" y="-314.4949" font-family="Helvetica,sans-Serif" font-size="10.00" fill="#000000">js_parse_block</text>
</a>
</g>
</g>
<!-- Node298611&#45;&gt;Node298614 -->
<g id="edge4" class="edge">
<title>Node298611&#45;&gt;Node298614</title>
<path fill="none" stroke="#191970" d="M1181.4061,-310.2498C1190.0508,-310.2169 1198.7586,-310.3485 1206.8974,-310.6445"/>
<polygon fill="#191970" stroke="#191970" points="1181.2847,-306.7509 1171.325,-310.364 1181.364,-313.7504 1181.2847,-306.7509"/>
</g>
<!-- Node298614&#45;&gt;Node298611 -->
<g id="edge5" class="edge">
<title>Node298614&#45;&gt;Node298611</title>
<path fill="none" stroke="#191970" d="M1196.8428,-323.6226C1188.4409,-323.7846 1179.731,-323.7856 1171.325,-323.6258"/>
<polygon fill="#191970" stroke="#191970" points="1196.9978,-327.1198 1206.8974,-323.3453 1196.8047,-320.1224 1196.9978,-327.1198"/>
</g>
<!-- Node298613&#45;&gt;Node298611 -->
<g id="edge8" class="edge">
<title>Node298613&#45;&gt;Node298611</title>
<path fill="none" stroke="#191970" d="M912.4303,-316.9949C959.0898,-316.9949 1023.8408,-316.9949 1068.5574,-316.9949"/>
<polygon fill="#191970" stroke="#191970" points="912.1706,-313.495 902.1706,-316.9949 912.1706,-320.495 912.1706,-313.495"/>
</g>
<!-- Node298642&#45;&gt;Node298619 -->
<g id="edge11" class="edge">
<title>Node298642&#45;&gt;Node298619</title>
<path fill="none" stroke="#191970" d="M402.5535,-1057.5917C428.0179,-975.9706 525.977,-661.9825 544.4765,-602.686"/>
<polygon fill="#191970" stroke="#191970" points="399.1534,-1056.7382 399.5163,-1067.3268 405.8358,-1058.823 399.1534,-1056.7382"/>
</g>
<!-- Node298642&#45;&gt;Node298616 -->
<g id="edge31" class="edge">
<title>Node298642&#45;&gt;Node298616</title>
<path fill="none" stroke="#191970" d="M457.3701,-1065.2748C500.4406,-1055.5015 558.7089,-1039.2239 606,-1014.9949 681.5598,-976.2828 691.6453,-952.1859 757,-897.9949 789.3974,-871.1315 826.222,-837.6256 843.7191,-821.5153"/>
<polygon fill="#191970" stroke="#191970" points="456.6003,-1061.8604 447.5943,-1067.4409 458.1147,-1068.6946 456.6003,-1061.8604"/>
</g>
<!-- Node298619&#45;&gt;Node298613 -->
<g id="edge30" class="edge">
<title>Node298619&#45;&gt;Node298613</title>
<path fill="none" stroke="#191970" d="M550.1776,-573.4042C557.0961,-530.5379 579.6085,-427.953 642,-373.9949 666.3592,-352.9282 750.9476,-334.8352 805.6279,-324.9706"/>
<polygon fill="#191970" stroke="#191970" points="546.7023,-572.9793 548.6791,-583.3881 553.6248,-574.0184 546.7023,-572.9793"/>
</g>
<!-- Node298619&#45;&gt;Node298619 -->
<g id="edge27" class="edge">
<title>Node298619&#45;&gt;Node298619</title>
<path fill="none" stroke="#191970" d="M519.5009,-611.6488C520.6712,-616.9317 530.0043,-620.9949 547.5,-620.9949 574.1602,-620.9949 581.8666,-611.5602 570.6194,-602.7519"/>
<polygon fill="#191970" stroke="#191970" points="522.6403,-613.2029 524.3806,-602.7519 516.5029,-609.8366 522.6403,-613.2029"/>
</g>
<!-- Node298619&#45;&gt;Node298618 -->
<g id="edge12" class="edge">
<title>Node298619&#45;&gt;Node298618</title>
<path fill="none" stroke="#191970" d="M613.9616,-587.8653C707.1855,-585.0354 873.9788,-584.9491 950.9777,-587.9738"/>
<polygon fill="#191970" stroke="#191970" points="613.6774,-584.3726 603.7962,-588.1951 613.9045,-591.3689 613.6774,-584.3726"/>
</g>
<!-- Node298619&#45;&gt;Node298620 -->
<g id="edge16" class="edge">
<title>Node298619&#45;&gt;Node298620</title>
<path fill="none" stroke="#191970" d="M560.3485,-611.1761C591.1881,-660.3412 668.605,-794.0846 692.4184,-839.7265"/>
<polygon fill="#191970" stroke="#191970" points="563.1583,-609.0727 554.8313,-602.522 557.2558,-612.8357 563.1583,-609.0727"/>
</g>
<!-- Node298623 -->
<g id="node14" class="node">
<title>Node298623</title>
<g id="a_node14"><a xlink:href="quickjs_8c.html#af99673e7430294cf15dc24dc5dac227f" target="_top" xlink:title="js_parse_unary">
<polygon fill="none" stroke="#ff0000" points="658,-640.4949 658,-659.4949 741,-659.4949 741,-640.4949 658,-640.4949"/>
<text text-anchor="middle" x="699.5" y="-647.4949" font-family="Helvetica,sans-Serif" font-size="10.00" fill="#000000">js_parse_unary</text>
</a>
</g>
</g>
<!-- Node298619&#45;&gt;Node298623 -->
<g id="edge28" class="edge">
<title>Node298619&#45;&gt;Node298623</title>
<path fill="none" stroke="#191970" d="M582.3413,-606.0604C610.2807,-616.5377 648.8469,-631 673.9756,-640.4232"/>
<polygon fill="#191970" stroke="#191970" points="583.5336,-602.7695 572.9414,-602.5354 581.0757,-609.3239 583.5336,-602.7695"/>
</g>
<!-- Node298618&#45;&gt;Node298611 -->
<g id="edge14" class="edge">
<title>Node298618&#45;&gt;Node298611</title>
<path fill="none" stroke="#191970" d="M1000.9144,-572.843C1025.0404,-521.0095 1091.2567,-378.748 1112.9888,-332.0581"/>
<polygon fill="#191970" stroke="#191970" points="997.6024,-571.6645 996.5556,-582.2075 1003.9486,-574.6184 997.6024,-571.6645"/>
</g>
<!-- Node298618&#45;&gt;Node298619 -->
<g id="edge13" class="edge">
<title>Node298618&#45;&gt;Node298619</title>
<path fill="none" stroke="#191970" d="M940.929,-596.6066C857.093,-599.7395 690.9202,-600.1721 603.7962,-597.5414"/>
<polygon fill="#191970" stroke="#191970" points="941.1272,-600.1015 950.9777,-596.2005 940.8445,-593.1072 941.1272,-600.1015"/>
</g>
<!-- Node298618&#45;&gt;Node298622 -->
<g id="edge15" class="edge">
<title>Node298618&#45;&gt;Node298622</title>
<path fill="none" stroke="#191970" d="M997.1314,-611.4381C1018.7172,-693.2279 1101.7554,-1007.8648 1117.4371,-1067.2838"/>
<polygon fill="#191970" stroke="#191970" points="1000.4929,-610.4587 994.5568,-601.6829 993.7246,-612.245 1000.4929,-610.4587"/>
</g>
<!-- Node298620&#45;&gt;Node298611 -->
<g id="edge23" class="edge">
<title>Node298620&#45;&gt;Node298611</title>
<path fill="none" stroke="#191970" d="M767.1635,-862.9472C812.659,-864.8042 871.9511,-860.1123 915,-830.9949 1094.0501,-709.8889 1116.7213,-404.6118 1119.5865,-332.4533"/>
<polygon fill="#191970" stroke="#191970" points="767.2597,-859.4475 757.0907,-862.4212 766.8946,-866.438 767.2597,-859.4475"/>
</g>
<!-- Node298620&#45;&gt;Node298613 -->
<g id="edge22" class="edge">
<title>Node298620&#45;&gt;Node298613</title>
<path fill="none" stroke="#191970" d="M711.9652,-830.3062C724.9347,-803.6929 744.9926,-759.7866 757,-719.9949 782.334,-636.0398 772.6894,-611.3046 793,-525.9949 811.4718,-448.4084 840.9335,-356.737 850.7204,-326.9062"/>
<polygon fill="#191970" stroke="#191970" points="708.6585,-829.098 707.3731,-839.6146 714.9362,-832.195 708.6585,-829.098"/>
</g>
<!-- Node298620&#45;&gt;Node298619 -->
<g id="edge18" class="edge">
<title>Node298620&#45;&gt;Node298619</title>
<path fill="none" stroke="#191970" d="M683.1271,-831.1551C648.7619,-775.6334 570.7153,-640.4524 551.724,-602.6973"/>
<polygon fill="#191970" stroke="#191970" points="680.3624,-833.3351 688.6329,-839.957 686.297,-829.6228 680.3624,-833.3351"/>
</g>
<!-- Node298620&#45;&gt;Node298620 -->
<g id="edge17" class="edge">
<title>Node298620&#45;&gt;Node298620</title>
<path fill="none" stroke="#191970" d="M672.4914,-880.4528C675.8436,-885.1739 684.8464,-888.4949 699.5,-888.4949 723.5469,-888.4949 732.3766,-879.5515 725.9891,-870.1539"/>
<polygon fill="#191970" stroke="#191970" points="676.0026,-880.3175 673.0109,-870.1539 669.0115,-879.9649 676.0026,-880.3175"/>
</g>
<!-- Node298620&#45;&gt;Node298621 -->
<g id="edge19" class="edge">
<title>Node298620&#45;&gt;Node298621</title>
<path fill="none" stroke="#191970" d="M713.6693,-878.8396C746.4471,-933.9997 826.3794,-1068.5137 848.3378,-1105.4663"/>
<polygon fill="#191970" stroke="#191970" points="716.5917,-876.9062 708.4744,-870.0974 710.574,-880.4821 716.5917,-876.9062"/>
</g>
<!-- Node298620&#45;&gt;Node298616 -->
<g id="edge24" class="edge">
<title>Node298620&#45;&gt;Node298616</title>
<path fill="none" stroke="#191970" d="M763.1929,-837.2681C782.4891,-831.8976 802.9504,-826.2029 819.5555,-821.5814"/>
<polygon fill="#191970" stroke="#191970" points="762.232,-833.9024 753.5366,-839.9556 764.1089,-840.6461 762.232,-833.9024"/>
</g>
<!-- Node298621&#45;&gt;Node298611 -->
<g id="edge20" class="edge">
<title>Node298621&#45;&gt;Node298611</title>
<path fill="none" stroke="#191970" d="M870.7555,-1097.9489C907.0145,-1059.9499 992.7274,-963.9067 1033,-865.9949 1074.7562,-764.4761 1111.0045,-409.8251 1118.5578,-332.1181"/>
<polygon fill="#191970" stroke="#191970" points="868.2267,-1095.5291 863.8029,-1105.1562 873.2647,-1100.389 868.2267,-1095.5291"/>
</g>
<!-- Node298621&#45;&gt;Node298622 -->
<g id="edge21" class="edge">
<title>Node298621&#45;&gt;Node298622</title>
<path fill="none" stroke="#191970" d="M900.2799,-1109.1289C936.4494,-1104.4625 987.9698,-1097.6356 1033,-1090.9949 1047.2267,-1088.8968 1062.7356,-1086.452 1076.6669,-1084.1978"/>
<polygon fill="#191970" stroke="#191970" points="899.5106,-1105.6989 890.0385,-1110.4454 900.4032,-1112.6418 899.5106,-1105.6989"/>
</g>
<!-- Node298616&#45;&gt;Node298618 -->
<g id="edge25" class="edge">
<title>Node298616&#45;&gt;Node298618</title>
<path fill="none" stroke="#191970" d="M900.1471,-797.9382C905.5937,-794.936 910.7246,-791.3257 915,-786.9949 969.7218,-731.5637 986.7626,-632.5422 990.8811,-601.5428"/>
<polygon fill="#191970" stroke="#191970" points="898.2779,-794.953 890.778,-802.4365 901.3077,-801.2634 898.2779,-794.953"/>
</g>
<!-- Node298616&#45;&gt;Node298622 -->
<g id="edge26" class="edge">
<title>Node298616&#45;&gt;Node298622</title>
<path fill="none" stroke="#191970" d="M871.0598,-828.9906C921.8663,-879.6061 1071.0829,-1028.2616 1110.409,-1067.44"/>
<polygon fill="#191970" stroke="#191970" points="873.3372,-826.3189 863.7825,-821.7407 868.3967,-831.278 873.3372,-826.3189"/>
</g>
<!-- Node298623&#45;&gt;Node298623 -->
<g id="edge29" class="edge">
<title>Node298623&#45;&gt;Node298623</title>
<path fill="none" stroke="#191970" d="M671.1275,-668.6488C672.3135,-673.9317 681.771,-677.9949 699.5,-677.9949 726.5156,-677.9949 734.3248,-668.5602 722.9276,-659.7519"/>
<polygon fill="#191970" stroke="#191970" points="674.2735,-670.193 676.0724,-659.7519 668.1551,-666.7923 674.2735,-670.193"/>
</g>
<!-- Node298643&#45;&gt;Node298618 -->
<g id="edge35" class="edge">
<title>Node298643&#45;&gt;Node298618</title>
<path fill="none" stroke="#191970" d="M763.0882,-502.588C807.3459,-501.8771 866.8247,-505.7241 915,-525.9949 944.8607,-538.5594 971.575,-567.1581 984.2397,-582.251"/>
<polygon fill="#191970" stroke="#191970" points="762.9478,-499.0903 753.0355,-502.8315 763.1174,-506.0883 762.9478,-499.0903"/>
</g>
<!-- Node298644 -->
<g id="node16" class="node">
<title>Node298644</title>
<g id="a_node16"><a xlink:href="quickjs_8c.html#ac9030f2b94f2e8292ad37ab68fc99bbd" target="_top" xlink:title="add_brand">
<polygon fill="none" stroke="#000000" points="823,-535.4949 823,-554.4949 885,-554.4949 885,-535.4949 823,-535.4949"/>
<text text-anchor="middle" x="854" y="-542.4949" font-family="Helvetica,sans-Serif" font-size="10.00" fill="#000000">add_brand</text>
</a>
</g>
</g>
<!-- Node298643&#45;&gt;Node298644 -->
<g id="edge33" class="edge">
<title>Node298643&#45;&gt;Node298644</title>
<path fill="none" stroke="#191970" d="M748.2817,-518.993C772.6594,-524.9888 801.4346,-532.0662 822.8044,-537.3222"/>
<polygon fill="#191970" stroke="#191970" points="749.0334,-515.5736 738.4869,-516.5839 747.3615,-522.371 749.0334,-515.5736"/>
</g>
<!-- Node298644&#45;&gt;Node298618 -->
<g id="edge34" class="edge">
<title>Node298644&#45;&gt;Node298618</title>
<path fill="none" stroke="#191970" d="M891.5912,-557.7977C914.3146,-565.5368 942.8156,-575.2437 963.6415,-582.3366"/>
<polygon fill="#191970" stroke="#191970" points="892.5208,-554.4169 881.9264,-554.506 890.264,-561.0432 892.5208,-554.4169"/>
</g>
<!-- Node298645&#45;&gt;Node298611 -->
<g id="edge52" class="edge">
<title>Node298645&#45;&gt;Node298611</title>
<path fill="none" stroke="#191970" d="M167.1596,-459.2977C220.4997,-448.0392 314.7511,-430.9949 396.5,-430.9949 396.5,-430.9949 396.5,-430.9949 547.5,-430.9949 765.9747,-430.9949 824.6378,-419.6942 1033,-353.9949 1051.9409,-348.0226 1072.4129,-339.43 1088.7371,-332.0284"/>
<polygon fill="#191970" stroke="#191970" points="166.4146,-455.8778 157.3705,-461.3963 167.882,-462.7223 166.4146,-455.8778"/>
</g>
<!-- Node298645&#45;&gt;Node298616 -->
<g id="edge53" class="edge">
<title>Node298645&#45;&gt;Node298616</title>
<path fill="none" stroke="#191970" d="M167.5601,-467.1037C279.7878,-464.5779 584.488,-473.4527 757,-630.9949 812.8108,-681.9626 842.7067,-772.6432 851.3347,-802.309"/>
<polygon fill="#191970" stroke="#191970" points="167.2135,-463.6116 157.3111,-467.3791 167.4016,-470.6091 167.2135,-463.6116"/>
</g>
<!-- Node298629 -->
<g id="node18" class="node">
<title>Node298629</title>
<g id="a_node18"><a xlink:href="quickjs_8c.html#a4fa2fc1719feb03edf64eaf034103fd2" target="_top" xlink:title="js_parse_assign_expr">
<polygon fill="none" stroke="#ff0000" points="193,-725.4949 193,-744.4949 304,-744.4949 304,-725.4949 193,-725.4949"/>
<text text-anchor="middle" x="248.5" y="-732.4949" font-family="Helvetica,sans-Serif" font-size="10.00" fill="#000000">js_parse_assign_expr</text>
</a>
</g>
</g>
<!-- Node298645&#45;&gt;Node298629 -->
<g id="edge37" class="edge">
<title>Node298645&#45;&gt;Node298629</title>
<path fill="none" stroke="#191970" d="M133.3507,-487.981C157.8467,-540.5288 225.9228,-686.5632 244.029,-725.4039"/>
<polygon fill="#191970" stroke="#191970" points="136.4577,-486.3622 129.0603,-478.7774 130.1132,-489.3198 136.4577,-486.3622"/>
</g>
<!-- Node298629&#45;&gt;Node298613 -->
<g id="edge49" class="edge">
<title>Node298629&#45;&gt;Node298613</title>
<path fill="none" stroke="#191970" d="M298.4037,-723.3579C311.8454,-720.5732 326.4241,-717.8677 340,-715.9949 432.019,-703.3007 686.5628,-747.5527 757,-686.9949 812.5992,-639.194 774.719,-597.002 793,-525.9949 812.979,-448.3924 841.701,-355.9887 850.984,-326.5174"/>
<polygon fill="#191970" stroke="#191970" points="297.4344,-719.9857 288.3818,-725.4904 298.8913,-726.8325 297.4344,-719.9857"/>
</g>
<!-- Node298629&#45;&gt;Node298619 -->
<g id="edge46" class="edge">
<title>Node298629&#45;&gt;Node298619</title>
<path fill="none" stroke="#191970" d="M272.8829,-720.1859C291.0967,-709.359 316.7518,-694.6007 340,-682.9949 404.8194,-650.6362 483.9859,-618.1724 523.1515,-602.5625"/>
<polygon fill="#191970" stroke="#191970" points="270.8702,-717.3115 264.0888,-725.4517 274.4664,-723.3172 270.8702,-717.3115"/>
</g>
<!-- Node298629&#45;&gt;Node298618 -->
<g id="edge42" class="edge">
<title>Node298629&#45;&gt;Node298618</title>
<path fill="none" stroke="#191970" d="M299.1944,-746.5896C312.4235,-749.3215 326.7012,-752.0118 340,-753.9949 431.5953,-767.6533 454.892,-772.9949 547.5,-772.9949 547.5,-772.9949 547.5,-772.9949 699.5,-772.9949 830.8785,-772.9949 952.4689,-639.3218 984.0681,-601.7262"/>
<polygon fill="#191970" stroke="#191970" points="299.8235,-743.1453 289.3161,-744.5035 298.3771,-749.9943 299.8235,-743.1453"/>
</g>
<!-- Node298629&#45;&gt;Node298622 -->
<g id="edge50" class="edge">
<title>Node298629&#45;&gt;Node298622</title>
<path fill="none" stroke="#191970" d="M259.6054,-753.3428C275.296,-778.2336 305.8736,-823.1298 340,-853.9949 479.447,-980.1157 511.4789,-1076.9949 699.5,-1076.9949 699.5,-1076.9949 699.5,-1076.9949 854,-1076.9949 932.5069,-1076.9949 1024.0473,-1076.9949 1076.6911,-1076.9949"/>
<polygon fill="#191970" stroke="#191970" points="262.4114,-751.2261 254.1704,-744.5676 256.4604,-754.912 262.4114,-751.2261"/>
</g>
<!-- Node298629&#45;&gt;Node298620 -->
<g id="edge45" class="edge">
<title>Node298629&#45;&gt;Node298620</title>
<path fill="none" stroke="#191970" d="M260.4738,-752.7295C276.0068,-774.0825 305.2682,-809.058 340,-824.9949 438.4777,-870.1821 568.0332,-867.9964 641.6901,-861.8291"/>
<polygon fill="#191970" stroke="#191970" points="263.302,-750.6667 254.6814,-744.5075 257.5795,-754.6983 263.302,-750.6667"/>
</g>
<!-- Node298629&#45;&gt;Node298621 -->
<g id="edge48" class="edge">
<title>Node298629&#45;&gt;Node298621</title>
<path fill="none" stroke="#191970" d="M253.6463,-754.4738C263.5531,-792.0505 285.8955,-877.1828 304,-948.9949 320.4434,-1014.218 287.8579,-1053.502 340,-1095.9949 412.856,-1155.3684 713.4241,-1129.9466 817.9652,-1119.0344"/>
<polygon fill="#191970" stroke="#191970" points="257.0279,-753.5706 251.0921,-744.7947 250.2596,-755.3567 257.0279,-753.5706"/>
</g>
<!-- Node298629&#45;&gt;Node298616 -->
<g id="edge51" class="edge">
<title>Node298629&#45;&gt;Node298616</title>
<path fill="none" stroke="#191970" d="M269.382,-750.668C287.1404,-763.026 313.852,-779.3996 340,-786.9949 498.078,-832.9124 694.8654,-825.684 792.7564,-818.0251"/>
<polygon fill="#191970" stroke="#191970" points="271.1304,-747.6152 260.962,-744.6394 267.0553,-753.3067 271.1304,-747.6152"/>
</g>
<!-- Node298629&#45;&gt;Node298629 -->
<g id="edge47" class="edge">
<title>Node298629&#45;&gt;Node298629</title>
<path fill="none" stroke="#191970" d="M225.4346,-754.0241C226.6928,-759.1229 234.3812,-762.9949 248.5,-762.9949 270.5391,-762.9949 276.9097,-753.5602 267.612,-744.7519"/>
<polygon fill="#191970" stroke="#191970" points="228.6854,-755.3235 229.388,-744.7519 222.2463,-752.578 228.6854,-755.3235"/>
</g>
<!-- Node298629&#45;&gt;Node298630 -->
<g id="edge38" class="edge">
<title>Node298629&#45;&gt;Node298630</title>
<path fill="none" stroke="#191970" d="M253.8032,-715.2152C264.2988,-679.7965 291.0488,-605.3884 340,-563.9949 344.5833,-560.1192 349.99,-557.0244 355.6117,-554.5556"/>
<polygon fill="#191970" stroke="#191970" points="250.3176,-714.6782 250.9591,-725.2536 257.0525,-716.5864 250.3176,-714.6782"/>
</g>
<!-- Node298629&#45;&gt;Node298631 -->
<g id="edge40" class="edge">
<title>Node298629&#45;&gt;Node298631</title>
<path fill="none" stroke="#191970" d="M314.2642,-734.9949C322.738,-734.9949 331.3576,-734.9949 339.6712,-734.9949"/>
<polygon fill="#191970" stroke="#191970" points="314.0308,-731.495 304.0308,-734.9949 314.0308,-738.495 314.0308,-731.495"/>
</g>
<!-- Node298629&#45;&gt;Node298632 -->
<g id="edge43" class="edge">
<title>Node298629&#45;&gt;Node298632</title>
<path fill="none" stroke="#191970" d="M257.7618,-715.9846C271.9874,-688.5429 301.6411,-637.7569 340,-606.9949 347.4826,-600.9942 356.6872,-596.2464 365.4782,-592.6123"/>
<polygon fill="#191970" stroke="#191970" points="254.4577,-714.7637 253.0792,-725.2685 260.7077,-717.9161 254.4577,-714.7637"/>
</g>
<!-- Node298630&#45;&gt;Node298619 -->
<g id="edge39" class="edge">
<title>Node298630&#45;&gt;Node298619</title>
<path fill="none" stroke="#191970" d="M436.3962,-557.6771C461.7777,-565.7454 494.122,-576.027 517.3581,-583.4134"/>
<polygon fill="#191970" stroke="#191970" points="437.2846,-554.287 426.6942,-554.593 435.164,-560.9581 437.2846,-554.287"/>
</g>
<!-- Node298631&#45;&gt;Node298619 -->
<g id="edge41" class="edge">
<title>Node298631&#45;&gt;Node298619</title>
<path fill="none" stroke="#191970" d="M414.1657,-718.3821C445.8814,-688.5567 511.5419,-626.8098 537.0485,-602.8234"/>
<polygon fill="#191970" stroke="#191970" points="411.766,-715.8343 406.8788,-725.2347 416.5614,-720.9337 411.766,-715.8343"/>
</g>
<!-- Node298632&#45;&gt;Node298619 -->
<g id="edge44" class="edge">
<title>Node298632&#45;&gt;Node298619</title>
<path fill="none" stroke="#191970" d="M461.2941,-587.2859C471.2758,-587.9469 481.5123,-588.6248 491.2866,-589.2721"/>
<polygon fill="#191970" stroke="#191970" points="461.2239,-583.7737 451.0145,-586.6051 460.7613,-590.7584 461.2239,-583.7737"/>
</g>
<!-- Node298646&#45;&gt;Node298613 -->
<g id="edge59" class="edge">
<title>Node298646&#45;&gt;Node298613</title>
<path fill="none" stroke="#191970" d="M139.4316,-679.7681C196.4519,-615.6196 409.0106,-391.2052 642,-330.9949 696.8187,-316.8284 762.1184,-314.6172 805.6211,-315.1175"/>
<polygon fill="#191970" stroke="#191970" points="136.6849,-677.5913 132.7042,-687.4099 141.939,-682.2167 136.6849,-677.5913"/>
</g>
<!-- Node298646&#45;&gt;Node298620 -->
<g id="edge55" class="edge">
<title>Node298646&#45;&gt;Node298620</title>
<path fill="none" stroke="#191970" d="M138.005,-714.8036C150.9134,-731.0344 171.5367,-754.9994 193,-771.9949 251.65,-818.4364 268.9361,-830.616 340,-853.9949 452.5872,-891.0343 488.0121,-884.2487 606,-872.9949 617.6838,-871.8805 630.0787,-869.9997 641.8916,-867.8633"/>
<polygon fill="#191970" stroke="#191970" points="140.5785,-712.412 131.6709,-706.6757 135.0571,-716.7148 140.5785,-712.412"/>
</g>
<!-- Node298646&#45;&gt;Node298621 -->
<g id="edge58" class="edge">
<title>Node298646&#45;&gt;Node298621</title>
<path fill="none" stroke="#191970" d="M134.1851,-715.6302C147.0048,-739.9958 170.6071,-783.8311 193,-819.9949 238.9488,-894.2006 268.184,-902.4022 304,-981.9949 331.0712,-1042.1543 289.8176,-1083.1729 340,-1125.9949 378.4891,-1158.8387 681.1712,-1148.2364 757,-1138.9949 779.5591,-1136.2455 804.4304,-1130.0254 823.3403,-1124.6066"/>
<polygon fill="#191970" stroke="#191970" points="137.2697,-713.9758 129.5318,-706.7388 131.0678,-717.2217 137.2697,-713.9758"/>
</g>
<!-- Node298646&#45;&gt;Node298623 -->
<g id="edge56" class="edge">
<title>Node298646&#45;&gt;Node298623</title>
<path fill="none" stroke="#191970" d="M165.2322,-693.6655C270.6245,-685.0508 551.4602,-662.0955 657.8564,-653.3988"/>
<polygon fill="#191970" stroke="#191970" points="164.6901,-690.198 155.0085,-694.5011 165.2604,-697.1747 164.6901,-690.198"/>
</g>
<!-- Node298646&#45;&gt;Node298629 -->
<g id="edge57" class="edge">
<title>Node298646&#45;&gt;Node298629</title>
<path fill="none" stroke="#191970" d="M164.8517,-709.3607C181.8949,-714.5836 201.4339,-720.5714 217.3396,-725.4457"/>
<polygon fill="#191970" stroke="#191970" points="165.7383,-705.9718 155.1517,-706.3881 163.6873,-712.6646 165.7383,-705.9718"/>
</g>
<!-- Node298647&#45;&gt;Node298620 -->
<g id="edge61" class="edge">
<title>Node298647&#45;&gt;Node298620</title>
<path fill="none" stroke="#191970" d="M302.5732,-989.1592C373.467,-972.9013 501.1359,-941.0633 606,-900.9949 628.9829,-892.2132 653.9346,-879.7796 672.2769,-870.0527"/>
<polygon fill="#191970" stroke="#191970" points="301.5088,-985.8119 292.5349,-991.444 303.0623,-992.6373 301.5088,-985.8119"/>
</g>
<!-- Node298639 -->
<g id="node25" class="node">
<title>Node298639</title>
<g id="a_node25"><a xlink:href="quickjs_8c.html#a46a8a7e155cfd0af984f6725f060f0d6" target="_top" xlink:title="__JS_EvalInternal">
<polygon fill="none" stroke="#ff0000" points="806,-41.4949 806,-60.4949 902,-60.4949 902,-41.4949 806,-41.4949"/>
<text text-anchor="middle" x="854" y="-48.4949" font-family="Helvetica,sans-Serif" font-size="10.00" fill="#000000">__JS_EvalInternal</text>
</a>
</g>
</g>
<!-- Node298638&#45;&gt;Node298639 -->
<g id="edge71" class="edge">
<title>Node298638&#45;&gt;Node298639</title>
<path fill="none" stroke="#191970" d="M305.8322,-81.7756C424.5343,-75.1102 695.3286,-59.9046 805.7641,-53.7034"/>
<polygon fill="#191970" stroke="#191970" points="305.2967,-78.3 295.5087,-82.3553 305.6893,-85.289 305.2967,-78.3"/>
</g>
<!-- Node298648&#45;&gt;Node298611 -->
<g id="edge79" class="edge">
<title>Node298648&#45;&gt;Node298611</title>
<path fill="none" stroke="#191970" d="M741.7168,-385.3647C819.4073,-371.3232 984.7454,-341.4404 1068.7366,-326.2601"/>
<polygon fill="#191970" stroke="#191970" points="741.0158,-381.9347 731.7977,-387.1575 742.2608,-388.823 741.0158,-381.9347"/>
</g>
<!-- Node298648&#45;&gt;Node298614 -->
<g id="edge77" class="edge">
<title>Node298648&#45;&gt;Node298614</title>
<path fill="none" stroke="#191970" d="M741.6794,-396.148C825.5154,-401.0995 1018.191,-405.8768 1171,-359.9949 1195.1964,-352.7297 1220.1895,-336.9667 1234.9007,-326.6782"/>
<polygon fill="#191970" stroke="#191970" points="741.7297,-392.6444 731.5314,-395.5157 741.2943,-399.6309 741.7297,-392.6444"/>
</g>
<!-- Node298648&#45;&gt;Node298613 -->
<g id="edge78" class="edge">
<title>Node298648&#45;&gt;Node298613</title>
<path fill="none" stroke="#191970" d="M736.0582,-379.4574C743.1714,-376.3476 750.4483,-372.8181 757,-368.9949 774.5071,-358.7789 775.3888,-351.0303 793,-340.9949 802.8878,-335.3605 814.3586,-330.4659 824.667,-326.5928"/>
<polygon fill="#191970" stroke="#191970" points="734.4254,-376.3461 726.5434,-383.4261 737.1202,-382.8067 734.4254,-376.3461"/>
</g>
<!-- Node298648&#45;&gt;Node298618 -->
<g id="edge76" class="edge">
<title>Node298648&#45;&gt;Node298618</title>
<path fill="none" stroke="#191970" d="M724.2028,-407.6023C742.8513,-418.4155 769.2073,-433.2456 793,-444.9949 846.007,-471.1707 867.8358,-462.3515 915,-497.9949 947.6505,-522.6699 975.0346,-563.9291 986.3837,-582.4668"/>
<polygon fill="#191970" stroke="#191970" points="725.8612,-404.5177 715.4603,-402.4998 722.3327,-410.5634 725.8612,-404.5177"/>
</g>
<!-- Node298649&#45;&gt;Node298611 -->
<g id="edge84" class="edge">
<title>Node298649&#45;&gt;Node298611</title>
<path fill="none" stroke="#191970" d="M744.1321,-117.4624C812.4447,-105.4799 944.3219,-92.9023 1033,-150.9949 1087.4348,-186.6549 1109.9158,-267.9145 1117.1465,-301.7592"/>
<polygon fill="#191970" stroke="#191970" points="743.3351,-114.05 734.1287,-119.2934 744.5955,-120.9356 743.3351,-114.05"/>
</g>
<!-- Node298649&#45;&gt;Node298614 -->
<g id="edge82" class="edge">
<title>Node298649&#45;&gt;Node298614</title>
<path fill="none" stroke="#191970" d="M739.0482,-114.6155C803.7504,-96.6681 934.8458,-70.0888 1033,-113.9949 1134.6881,-159.4817 1218.4651,-273.7139 1241.6309,-307.4634"/>
<polygon fill="#191970" stroke="#191970" points="737.9061,-111.3016 729.2492,-117.4097 739.8257,-118.0333 737.9061,-111.3016"/>
</g>
<!-- Node298649&#45;&gt;Node298613 -->
<g id="edge83" class="edge">
<title>Node298649&#45;&gt;Node298613</title>
<path fill="none" stroke="#191970" d="M718.8762,-143.3C730.8465,-154.0332 745.9726,-168.8551 757,-183.9949 777.8302,-212.5931 772.3489,-226.2671 793,-254.9949 807.8072,-275.5933 829.4505,-295.8575 842.5805,-307.3551"/>
<polygon fill="#191970" stroke="#191970" points="721.0132,-140.5192 711.1823,-136.5689 716.404,-145.7876 721.0132,-140.5192"/>
</g>
<!-- Node298649&#45;&gt;Node298618 -->
<g id="edge81" class="edge">
<title>Node298649&#45;&gt;Node298618</title>
<path fill="none" stroke="#191970" d="M727.6577,-141.4093C774.0592,-166.6477 866.2908,-223.3382 915,-297.9949 978.7169,-395.6539 989.8072,-543.8033 991.6487,-582.4875"/>
<polygon fill="#191970" stroke="#191970" points="729.2181,-138.2747 718.7493,-136.6453 725.917,-144.4475 729.2181,-138.2747"/>
</g>
<!-- Node298649&#45;&gt;Node298616 -->
<g id="edge85" class="edge">
<title>Node298649&#45;&gt;Node298616</title>
<path fill="none" stroke="#191970" d="M722.1306,-143.0158C734.6598,-153.2185 749.2307,-167.5818 757,-183.9949 829.5822,-337.3288 764.664,-396.733 793,-563.9949 808.9228,-657.9842 841.1259,-769.0246 851.0325,-802.1813"/>
<polygon fill="#191970" stroke="#191970" points="723.9428,-139.9927 713.8913,-136.6432 719.6601,-145.5298 723.9428,-139.9927"/>
</g>
<!-- Node298649&#45;&gt;Node298639 -->
<g id="edge86" class="edge">
<title>Node298649&#45;&gt;Node298639</title>
<path fill="none" stroke="#191970" d="M724.9621,-112.334C747.8631,-99.2404 779.8621,-81.1992 793,-74.9949 804.1139,-69.7464 816.7072,-64.6548 827.5535,-60.5219"/>
<polygon fill="#191970" stroke="#191970" points="723.0232,-109.4111 716.0876,-117.4204 726.5041,-115.4843 723.0232,-109.4111"/>
</g>
<!-- Node298650&#45;&gt;Node298621 -->
<g id="edge90" class="edge">
<title>Node298650&#45;&gt;Node298621</title>
<path fill="none" stroke="#191970" d="M135.7163,-943.2915C176.6166,-1008.9731 319.3812,-1228.9949 396.5,-1228.9949 396.5,-1228.9949 396.5,-1228.9949 547.5,-1228.9949 667.0078,-1228.9949 797.2123,-1151.9171 839.7207,-1124.5184"/>
<polygon fill="#191970" stroke="#191970" points="138.6788,-941.4275 130.4408,-934.7652 132.7261,-945.1107 138.6788,-941.4275"/>
</g>
<!-- Node298650&#45;&gt;Node298623 -->
<g id="edge88" class="edge">
<title>Node298650&#45;&gt;Node298623</title>
<path fill="none" stroke="#191970" d="M153.7364,-911.0123C255.6487,-862.2716 593.6847,-700.6022 679.536,-659.5429"/>
<polygon fill="#191970" stroke="#191970" points="152.1386,-907.8967 144.6274,-915.3687 155.1589,-914.2116 152.1386,-907.8967"/>
</g>
<!-- Node298650&#45;&gt;Node298629 -->
<g id="edge89" class="edge">
<title>Node298650&#45;&gt;Node298629</title>
<path fill="none" stroke="#191970" d="M136.2888,-906.9314C161.9616,-867.5941 222.2116,-775.2755 242.0444,-744.8866"/>
<polygon fill="#191970" stroke="#191970" points="133.354,-905.0243 130.8197,-915.3115 139.2161,-908.8501 133.354,-905.0243"/>
</g>
<!-- Node298651&#45;&gt;Node298613 -->
<g id="edge93" class="edge">
<title>Node298651&#45;&gt;Node298613</title>
<path fill="none" stroke="#191970" d="M606.7062,-285.3099C648.6953,-289.9028 706.353,-296.4403 757,-302.9949 772.8616,-305.0476 790.153,-307.4805 805.6857,-309.7375"/>
<polygon fill="#191970" stroke="#191970" points="606.9724,-281.8183 596.6521,-284.2146 606.2142,-288.7771 606.9724,-281.8183"/>
</g>
<!-- Node298651&#45;&gt;Node298620 -->
<g id="edge92" class="edge">
<title>Node298651&#45;&gt;Node298620</title>
<path fill="none" stroke="#191970" d="M551.2591,-298.3944C562.8341,-357.3228 599.7215,-539.2355 642,-686.9949 658.3672,-744.1968 682.7373,-810.6359 693.7407,-839.8721"/>
<polygon fill="#191970" stroke="#191970" points="554.6934,-297.7192 549.3418,-288.5753 547.8231,-299.0607 554.6934,-297.7192"/>
</g>
<!-- Node298652&#45;&gt;Node298611 -->
<g id="edge95" class="edge">
<title>Node298652&#45;&gt;Node298611</title>
<path fill="none" stroke="#191970" d="M609.3233,-20.97C683.7541,-10.1757 811.6416,.3917 915,-31.9949 975.9423,-51.0907 992.6349,-64.5047 1033,-113.9949 1082.0754,-174.1645 1107.9484,-266.1622 1116.6191,-301.9864"/>
<polygon fill="#191970" stroke="#191970" points="608.5542,-17.5461 599.1836,-22.4902 609.5921,-24.4688 608.5542,-17.5461"/>
</g>
</g>
</svg>
