<?xml version="1.0" encoding="UTF-8" standalone="no"?>
<!DOCTYPE svg PUBLIC "-//W3C//DTD SVG 1.1//EN"
 "http://www.w3.org/Graphics/SVG/1.1/DTD/svg11.dtd">
<!-- Generated by graphviz version 2.40.1 (20161225.0304)
 -->
<!-- Title: put_lvalue Pages: 1 -->
<svg width="1218pt" height="545pt"
 viewBox="0.00 0.00 1218.00 545.47" xmlns="http://www.w3.org/2000/svg" xmlns:xlink="http://www.w3.org/1999/xlink">
<g id="graph0" class="graph" transform="scale(1 1) rotate(0) translate(4 541.4727)">
<title>put_lvalue</title>
<!-- Node308604 -->
<g id="node1" class="node">
<title>Node308604</title>
<polygon fill="#bfbfbf" stroke="#000000" points="0,-489.9727 0,-508.9727 61,-508.9727 61,-489.9727 0,-489.9727"/>
<text text-anchor="middle" x="30.5" y="-496.9727" font-family="Helvetica,sans-Serif" font-size="10.00" fill="#000000">put_lvalue</text>
</g>
<!-- Node308605 -->
<g id="node2" class="node">
<title>Node308605</title>
<g id="a_node2"><a xlink:href="quickjs_8c.html#a4fa2fc1719feb03edf64eaf034103fd2" target="_top" xlink:title="js_parse_assign_expr">
<polygon fill="none" stroke="#000000" points="97,-214.9727 97,-233.9727 208,-233.9727 208,-214.9727 97,-214.9727"/>
<text text-anchor="middle" x="152.5" y="-221.9727" font-family="Helvetica,sans-Serif" font-size="10.00" fill="#000000">js_parse_assign_expr</text>
</a>
</g>
</g>
<!-- Node308604&#45;&gt;Node308605 -->
<g id="edge1" class="edge">
<title>Node308604&#45;&gt;Node308605</title>
<path fill="none" stroke="#191970" d="M39.0347,-480.2346C63.0351,-426.1353 130.5192,-274.0196 148.21,-234.1428"/>
<polygon fill="#191970" stroke="#191970" points="35.698,-479.1251 34.842,-489.6853 42.0966,-481.9638 35.698,-479.1251"/>
</g>
<!-- Node308624 -->
<g id="node9" class="node">
<title>Node308624</title>
<g id="a_node9"><a xlink:href="quickjs_8c.html#a42924858317b848c3aea0a0a978fab3a" target="_top" xlink:title="js_parse_var">
<polygon fill="none" stroke="#000000" points="857,-385.9727 857,-404.9727 929,-404.9727 929,-385.9727 857,-385.9727"/>
<text text-anchor="middle" x="893" y="-392.9727" font-family="Helvetica,sans-Serif" font-size="10.00" fill="#000000">js_parse_var</text>
</a>
</g>
</g>
<!-- Node308604&#45;&gt;Node308624 -->
<g id="edge46" class="edge">
<title>Node308604&#45;&gt;Node308624</title>
<path fill="none" stroke="#191970" d="M71.1761,-508.9637C123.0537,-520.219 215.678,-537.4727 296,-537.4727 296,-537.4727 296,-537.4727 440.5,-537.4727 603.3762,-537.4727 644.305,-507.7794 796,-448.4727 826.5624,-436.524 859.575,-416.8904 878.1281,-405.1697"/>
<polygon fill="#191970" stroke="#191970" points="71.8786,-505.5346 61.3596,-506.7995 70.3715,-512.3704 71.8786,-505.5346"/>
</g>
<!-- Node308625 -->
<g id="node12" class="node">
<title>Node308625</title>
<g id="a_node12"><a xlink:href="quickjs_8c.html#af99673e7430294cf15dc24dc5dac227f" target="_top" xlink:title="js_parse_unary">
<polygon fill="none" stroke="#ff0000" points="697,-385.9727 697,-404.9727 780,-404.9727 780,-385.9727 697,-385.9727"/>
<text text-anchor="middle" x="738.5" y="-392.9727" font-family="Helvetica,sans-Serif" font-size="10.00" fill="#000000">js_parse_unary</text>
</a>
</g>
</g>
<!-- Node308604&#45;&gt;Node308625 -->
<g id="edge45" class="edge">
<title>Node308604&#45;&gt;Node308625</title>
<path fill="none" stroke="#191970" d="M71.3364,-499.4727C123.4655,-499.4727 216.4383,-499.4727 296,-499.4727 296,-499.4727 296,-499.4727 440.5,-499.4727 554.4762,-499.4727 679.9676,-430.8165 723.0199,-405.0704"/>
<polygon fill="#191970" stroke="#191970" points="71.1617,-495.9728 61.1617,-499.4727 71.1616,-502.9728 71.1617,-495.9728"/>
</g>
<!-- Node308605&#45;&gt;Node308605 -->
<g id="edge25" class="edge">
<title>Node308605&#45;&gt;Node308605</title>
<path fill="none" stroke="#191970" d="M129.8066,-243.5019C131.0445,-248.6007 138.6089,-252.4727 152.5,-252.4727 174.1836,-252.4727 180.4515,-243.038 171.3037,-234.2298"/>
<polygon fill="#191970" stroke="#191970" points="133.0553,-244.8052 133.6963,-234.2298 126.6003,-242.0973 133.0553,-244.8052"/>
</g>
<!-- Node308606 -->
<g id="node3" class="node">
<title>Node308606</title>
<g id="a_node3"><a xlink:href="quickjs_8c.html#a253917187cfb6b3db09d355b31edb3d5" target="_top" xlink:title="js_parse_array_literal">
<polygon fill="none" stroke="#000000" points="386,-233.9727 386,-252.9727 495,-252.9727 495,-233.9727 386,-233.9727"/>
<text text-anchor="middle" x="440.5" y="-240.9727" font-family="Helvetica,sans-Serif" font-size="10.00" fill="#000000">js_parse_array_literal</text>
</a>
</g>
</g>
<!-- Node308605&#45;&gt;Node308606 -->
<g id="edge2" class="edge">
<title>Node308605&#45;&gt;Node308606</title>
<path fill="none" stroke="#191970" d="M218.212,-228.8079C268.82,-232.1466 337.9629,-236.7081 385.6303,-239.8528"/>
<polygon fill="#191970" stroke="#191970" points="218.238,-225.3021 208.0293,-228.1361 217.7772,-232.2869 218.238,-225.3021"/>
</g>
<!-- Node308607 -->
<g id="node4" class="node">
<title>Node308607</title>
<g id="a_node4"><a xlink:href="quickjs_8c.html#acdcc62310b4f6f73fa7bc7267b18b1d4" target="_top" xlink:title="js_parse_postfix_expr">
<polygon fill="none" stroke="#000000" points="533,-194.9727 533,-213.9727 645,-213.9727 645,-194.9727 533,-194.9727"/>
<text text-anchor="middle" x="589" y="-201.9727" font-family="Helvetica,sans-Serif" font-size="10.00" fill="#000000">js_parse_postfix_expr</text>
</a>
</g>
</g>
<!-- Node308605&#45;&gt;Node308607 -->
<g id="edge41" class="edge">
<title>Node308605&#45;&gt;Node308607</title>
<path fill="none" stroke="#191970" d="M218.358,-221.4552C304.0523,-217.5287 452.3234,-210.7351 532.9158,-207.0424"/>
<polygon fill="#191970" stroke="#191970" points="218.0557,-217.9652 208.2264,-221.9194 218.3761,-224.9579 218.0557,-217.9652"/>
</g>
<!-- Node308608 -->
<g id="node5" class="node">
<title>Node308608</title>
<g id="a_node5"><a xlink:href="quickjs_8c.html#a00eb789430243c24dab4a63ad6a79653" target="_top" xlink:title="js_parse_class">
<polygon fill="none" stroke="#000000" points="990,-242.9727 990,-261.9727 1072,-261.9727 1072,-242.9727 990,-242.9727"/>
<text text-anchor="middle" x="1031" y="-249.9727" font-family="Helvetica,sans-Serif" font-size="10.00" fill="#000000">js_parse_class</text>
</a>
</g>
</g>
<!-- Node308605&#45;&gt;Node308608 -->
<g id="edge26" class="edge">
<title>Node308605&#45;&gt;Node308608</title>
<path fill="none" stroke="#191970" d="M178.0415,-239.0434C227.194,-265.6693 339.0665,-319.4727 440.5,-319.4727 440.5,-319.4727 440.5,-319.4727 738.5,-319.4727 840.088,-319.4727 956.6261,-280.5983 1006.3958,-262.0722"/>
<polygon fill="#191970" stroke="#191970" points="179.5173,-235.8606 169.069,-234.1046 176.1418,-241.993 179.5173,-235.8606"/>
</g>
<!-- Node308609 -->
<g id="node6" class="node">
<title>Node308609</title>
<g id="a_node6"><a xlink:href="quickjs_8c.html#a498e1d5c7de1b59c1630e9847cde1e41" target="_top" xlink:title="js_parse_export">
<polygon fill="none" stroke="#ff0000" points="1116,-366.9727 1116,-385.9727 1202,-385.9727 1202,-366.9727 1116,-366.9727"/>
<text text-anchor="middle" x="1159" y="-373.9727" font-family="Helvetica,sans-Serif" font-size="10.00" fill="#000000">js_parse_export</text>
</a>
</g>
</g>
<!-- Node308605&#45;&gt;Node308609 -->
<g id="edge30" class="edge">
<title>Node308605&#45;&gt;Node308609</title>
<path fill="none" stroke="#191970" d="M157.2349,-243.9185C167.0499,-280.0612 193.0719,-357.6995 244,-399.4727 294.1294,-440.5908 319.9508,-430.4051 384,-440.4727 686.6048,-488.0379 772.8689,-465.4477 1072,-399.4727 1089.6974,-395.5694 1109.2196,-390.4811 1125.2792,-386.0831"/>
<polygon fill="#191970" stroke="#191970" points="160.5929,-242.9241 154.6995,-234.1196 153.8161,-244.6776 160.5929,-242.9241"/>
</g>
<!-- Node308623 -->
<g id="node8" class="node">
<title>Node308623</title>
<g id="a_node8"><a xlink:href="quickjs_8c.html#a26be546cf89c4580ba9020e8fc43a759" target="_top" xlink:title="js_parse_destructuring\l_element">
<polygon fill="none" stroke="#000000" points="681,-242.4727 681,-272.4727 796,-272.4727 796,-242.4727 681,-242.4727"/>
<text text-anchor="start" x="689" y="-260.4727" font-family="Helvetica,sans-Serif" font-size="10.00" fill="#000000">js_parse_destructuring</text>
<text text-anchor="middle" x="738.5" y="-249.4727" font-family="Helvetica,sans-Serif" font-size="10.00" fill="#000000">_element</text>
</a>
</g>
</g>
<!-- Node308605&#45;&gt;Node308623 -->
<g id="edge29" class="edge">
<title>Node308605&#45;&gt;Node308623</title>
<path fill="none" stroke="#191970" d="M195.4003,-236.5706C210.6452,-240.5194 227.9946,-244.618 244,-247.4727 399.9656,-275.2901 587.9712,-268.2054 680.8235,-262.0781"/>
<polygon fill="#191970" stroke="#191970" points="196.2838,-233.184 185.7213,-234.0119 194.4947,-239.9515 196.2838,-233.184"/>
</g>
<!-- Node308605&#45;&gt;Node308624 -->
<g id="edge44" class="edge">
<title>Node308605&#45;&gt;Node308624</title>
<path fill="none" stroke="#191970" d="M159.4555,-243.4059C171.594,-273.5618 199.6631,-331.996 244,-360.4727 409.6217,-466.848 484.815,-416.4192 681,-432.4727 731.9408,-436.6411 745.7349,-441.7339 796,-432.4727 824.3607,-427.2473 855.1612,-414.1005 874.2733,-404.9753"/>
<polygon fill="#191970" stroke="#191970" points="162.6955,-242.08 155.8258,-234.0141 156.1661,-244.6035 162.6955,-242.08"/>
</g>
<!-- Node308617 -->
<g id="node10" class="node">
<title>Node308617</title>
<g id="a_node10"><a xlink:href="quickjs_8c.html#ac188b916dd086803591a67de7e7a85f6" target="_top" xlink:title="js_parse_for_in_of">
<polygon fill="none" stroke="#000000" points="845,-109.9727 845,-128.9727 941,-128.9727 941,-109.9727 845,-109.9727"/>
<text text-anchor="middle" x="893" y="-116.9727" font-family="Helvetica,sans-Serif" font-size="10.00" fill="#000000">js_parse_for_in_of</text>
</a>
</g>
</g>
<!-- Node308605&#45;&gt;Node308617 -->
<g id="edge37" class="edge">
<title>Node308605&#45;&gt;Node308617</title>
<path fill="none" stroke="#191970" d="M155.7916,-204.5729C163.459,-165.0482 186.4356,-76.8205 244,-34.4727 315.1099,17.8399 352.2207,-5.4727 440.5,-5.4727 440.5,-5.4727 440.5,-5.4727 589,-5.4727 707.6519,-5.4727 836.7177,-82.5505 878.8485,-109.9492"/>
<polygon fill="#191970" stroke="#191970" points="152.3215,-204.0939 153.9842,-214.5574 159.2095,-205.3408 152.3215,-204.0939"/>
</g>
<!-- Node308611 -->
<g id="node11" class="node">
<title>Node308611</title>
<g id="a_node11"><a xlink:href="quickjs_8c.html#acc9eb677cab8dfcf45f59381f8a19601" target="_top" xlink:title="js_parse_function_decl2">
<polygon fill="none" stroke="#ff0000" points="832,-347.9727 832,-366.9727 954,-366.9727 954,-347.9727 832,-347.9727"/>
<text text-anchor="middle" x="893" y="-354.9727" font-family="Helvetica,sans-Serif" font-size="10.00" fill="#000000">js_parse_function_decl2</text>
</a>
</g>
</g>
<!-- Node308605&#45;&gt;Node308611 -->
<g id="edge38" class="edge">
<title>Node308605&#45;&gt;Node308611</title>
<path fill="none" stroke="#191970" d="M162.1732,-243.0594C176.3877,-268.275 205.4622,-312.5694 244,-333.4727 321.3381,-375.4216 352.5177,-357.4727 440.5,-357.4727 440.5,-357.4727 440.5,-357.4727 589,-357.4727 673.1806,-357.4727 770.4732,-357.4727 831.8612,-357.4727"/>
<polygon fill="#191970" stroke="#191970" points="165.1655,-241.2357 157.3107,-234.1257 159.0172,-244.5822 165.1655,-241.2357"/>
</g>
<!-- Node308630 -->
<g id="node13" class="node">
<title>Node308630</title>
<g id="a_node13"><a xlink:href="quickjs_8c.html#abd2cbff624ea609dbf883fb1a2f048cd" target="_top" xlink:title="js_parse_cond_expr">
<polygon fill="none" stroke="#000000" points="244,-119.9727 244,-138.9727 348,-138.9727 348,-119.9727 244,-119.9727"/>
<text text-anchor="middle" x="296" y="-126.9727" font-family="Helvetica,sans-Serif" font-size="10.00" fill="#000000">js_parse_cond_expr</text>
</a>
</g>
</g>
<!-- Node308605&#45;&gt;Node308630 -->
<g id="edge27" class="edge">
<title>Node308605&#45;&gt;Node308630</title>
<path fill="none" stroke="#191970" d="M164.8512,-207.3268C181.8377,-189.5312 213.7532,-162.8576 244,-144.4727 247.0587,-142.6135 250.2855,-140.8026 253.5726,-139.0882"/>
<polygon fill="#191970" stroke="#191970" points="162.2112,-205.0285 158.1567,-214.8168 167.4304,-209.6933 162.2112,-205.0285"/>
</g>
<!-- Node308631 -->
<g id="node14" class="node">
<title>Node308631</title>
<g id="a_node14"><a xlink:href="quickjs_8c.html#a1cef6995e7ec0c736babe92589cf441f" target="_top" xlink:title="js_parse_expr2">
<polygon fill="none" stroke="#000000" points="254.5,-43.9727 254.5,-62.9727 337.5,-62.9727 337.5,-43.9727 254.5,-43.9727"/>
<text text-anchor="middle" x="296" y="-50.9727" font-family="Helvetica,sans-Serif" font-size="10.00" fill="#000000">js_parse_expr2</text>
</a>
</g>
</g>
<!-- Node308605&#45;&gt;Node308631 -->
<g id="edge31" class="edge">
<title>Node308605&#45;&gt;Node308631</title>
<path fill="none" stroke="#191970" d="M159.198,-205.2209C171.2609,-173.2466 199.5932,-109.0949 244,-72.4727 248.6716,-68.6201 254.1931,-65.513 259.8633,-63.0178"/>
<polygon fill="#191970" stroke="#191970" points="155.863,-204.1505 155.7311,-214.7445 162.4407,-206.545 155.863,-204.1505"/>
</g>
<!-- Node308614 -->
<g id="node16" class="node">
<title>Node308614</title>
<g id="a_node16"><a xlink:href="quickjs_8c.html#aee6d0acd87f136d43f157ae1426436e6" target="_top" xlink:title="js_parse_object_literal">
<polygon fill="none" stroke="#000000" points="384,-157.9727 384,-176.9727 497,-176.9727 497,-157.9727 384,-157.9727"/>
<text text-anchor="middle" x="440.5" y="-164.9727" font-family="Helvetica,sans-Serif" font-size="10.00" fill="#000000">js_parse_object_literal</text>
</a>
</g>
</g>
<!-- Node308605&#45;&gt;Node308614 -->
<g id="edge39" class="edge">
<title>Node308605&#45;&gt;Node308614</title>
<path fill="none" stroke="#191970" d="M184.2649,-211.0229C201.6261,-204.1829 223.6762,-196.3137 244,-191.4727 290.3044,-180.4433 344.0211,-174.3233 383.5766,-171.0289"/>
<polygon fill="#191970" stroke="#191970" points="182.6026,-207.919 174.6333,-214.9005 185.2169,-214.4126 182.6026,-207.919"/>
</g>
<!-- Node308635 -->
<g id="node17" class="node">
<title>Node308635</title>
<g id="a_node17"><a xlink:href="quickjs_8c.html#a035daca514f14aacc1e0cff81d8e423a" target="_top" xlink:title="js_parse_template">
<polygon fill="none" stroke="#000000" points="248,-81.9727 248,-100.9727 344,-100.9727 344,-81.9727 248,-81.9727"/>
<text text-anchor="middle" x="296" y="-88.9727" font-family="Helvetica,sans-Serif" font-size="10.00" fill="#000000">js_parse_template</text>
</a>
</g>
</g>
<!-- Node308605&#45;&gt;Node308635 -->
<g id="edge42" class="edge">
<title>Node308605&#45;&gt;Node308635</title>
<path fill="none" stroke="#191970" d="M162.9467,-205.9003C177.881,-180.912 207.5935,-136.5949 244,-110.4727 249.3103,-106.6625 255.4685,-103.5359 261.6494,-100.9985"/>
<polygon fill="#191970" stroke="#191970" points="159.806,-204.3387 157.7996,-214.7418 165.8555,-207.8605 159.806,-204.3387"/>
</g>
<!-- Node308606&#45;&gt;Node308607 -->
<g id="edge3" class="edge">
<title>Node308606&#45;&gt;Node308607</title>
<path fill="none" stroke="#191970" d="M486.642,-231.3546C507.9454,-225.7598 532.8706,-219.2138 552.7908,-213.9822"/>
<polygon fill="#191970" stroke="#191970" points="485.6101,-228.0068 476.8272,-233.9322 487.3883,-234.7772 485.6101,-228.0068"/>
</g>
<!-- Node308607&#45;&gt;Node308607 -->
<g id="edge22" class="edge">
<title>Node308607&#45;&gt;Node308607</title>
<path fill="none" stroke="#191970" d="M561.3742,-223.1266C562.5289,-228.4095 571.7375,-232.4727 589,-232.4727 615.3047,-232.4727 622.9084,-223.038 611.8111,-214.2298"/>
<polygon fill="#191970" stroke="#191970" points="564.5076,-224.6903 566.1889,-214.2298 558.3512,-221.3587 564.5076,-224.6903"/>
</g>
<!-- Node308607&#45;&gt;Node308608 -->
<g id="edge4" class="edge">
<title>Node308607&#45;&gt;Node308608</title>
<path fill="none" stroke="#191970" d="M655.5396,-206.7059C748.2399,-214.1689 913.4622,-232.4018 989.997,-243.8977"/>
<polygon fill="#191970" stroke="#191970" points="655.6716,-203.2056 645.4286,-205.9129 655.1243,-210.1842 655.6716,-203.2056"/>
</g>
<!-- Node308607&#45;&gt;Node308623 -->
<g id="edge9" class="edge">
<title>Node308607&#45;&gt;Node308623</title>
<path fill="none" stroke="#191970" d="M643.1046,-217.1378C666.1016,-224.7563 691.9275,-234.2918 710.9024,-242.3128"/>
<polygon fill="#191970" stroke="#191970" points="644.0423,-213.7624 633.4502,-214.0002 641.8787,-220.4197 644.0423,-213.7624"/>
</g>
<!-- Node308607&#45;&gt;Node308617 -->
<g id="edge21" class="edge">
<title>Node308607&#45;&gt;Node308617</title>
<path fill="none" stroke="#191970" d="M632.7146,-192.2499C693.7599,-175.1813 803.2748,-144.5603 858.766,-129.0447"/>
<polygon fill="#191970" stroke="#191970" points="631.6759,-188.906 622.9878,-194.9695 633.5609,-195.6474 631.6759,-188.906"/>
</g>
<!-- Node308607&#45;&gt;Node308625 -->
<g id="edge23" class="edge">
<title>Node308607&#45;&gt;Node308625</title>
<path fill="none" stroke="#191970" d="M602.8235,-222.1335C633.5515,-261.3914 706.7046,-354.8512 730.7168,-385.529"/>
<polygon fill="#191970" stroke="#191970" points="605.5391,-219.9244 596.6193,-214.207 600.0268,-224.2389 605.5391,-219.9244"/>
</g>
<!-- Node308608&#45;&gt;Node308607 -->
<g id="edge6" class="edge">
<title>Node308608&#45;&gt;Node308607</title>
<path fill="none" stroke="#191970" d="M979.7848,-251.4229C893.3976,-245.0719 719.9772,-226.1917 636.3017,-213.9799"/>
<polygon fill="#191970" stroke="#191970" points="979.6552,-254.9223 989.8765,-252.134 980.1473,-247.9396 979.6552,-254.9223"/>
</g>
<!-- Node308608&#45;&gt;Node308609 -->
<g id="edge5" class="edge">
<title>Node308608&#45;&gt;Node308609</title>
<path fill="none" stroke="#191970" d="M1048.3178,-269.2493C1075.4872,-295.5696 1127.2677,-345.7321 1149.0027,-366.7878"/>
<polygon fill="#191970" stroke="#191970" points="1050.6617,-266.6469 1041.0439,-262.2028 1045.7911,-271.6746 1050.6617,-266.6469"/>
</g>
<!-- Node308615 -->
<g id="node7" class="node">
<title>Node308615</title>
<g id="a_node7"><a xlink:href="quickjs_8c.html#a9d844c16dcc71701436848074337d32c" target="_top" xlink:title="js_parse_statement\l_or_decl">
<polygon fill="none" stroke="#ff0000" points="1108,-161.4727 1108,-191.4727 1210,-191.4727 1210,-161.4727 1108,-161.4727"/>
<text text-anchor="start" x="1116" y="-179.4727" font-family="Helvetica,sans-Serif" font-size="10.00" fill="#000000">js_parse_statement</text>
<text text-anchor="middle" x="1159" y="-168.4727" font-family="Helvetica,sans-Serif" font-size="10.00" fill="#000000">_or_decl</text>
</a>
</g>
</g>
<!-- Node308608&#45;&gt;Node308615 -->
<g id="edge7" class="edge">
<title>Node308608&#45;&gt;Node308615</title>
<path fill="none" stroke="#191970" d="M1055.831,-237.7293C1078.252,-224.4169 1111.0939,-204.9169 1133.6683,-191.5134"/>
<polygon fill="#191970" stroke="#191970" points="1054.0229,-234.7323 1047.2113,-242.8472 1057.5968,-240.7513 1054.0229,-234.7323"/>
</g>
<!-- Node308615&#45;&gt;Node308615 -->
<g id="edge8" class="edge">
<title>Node308615&#45;&gt;Node308615</title>
<path fill="none" stroke="#191970" d="M1136.2559,-201.9306C1139.0788,-206.6517 1146.6602,-209.9727 1159,-209.9727 1179.25,-209.9727 1186.6855,-201.0293 1181.3066,-191.6317"/>
<polygon fill="#191970" stroke="#191970" points="1139.7658,-201.7712 1136.6934,-191.6317 1132.7721,-201.4741 1139.7658,-201.7712"/>
</g>
<!-- Node308623&#45;&gt;Node308607 -->
<g id="edge11" class="edge">
<title>Node308623&#45;&gt;Node308607</title>
<path fill="none" stroke="#191970" d="M671.3541,-240.3873C646.1569,-231.6616 619.7951,-221.4908 603.8812,-213.9918"/>
<polygon fill="#191970" stroke="#191970" points="670.3355,-243.7378 680.9299,-243.6522 672.5945,-237.1123 670.3355,-243.7378"/>
</g>
<!-- Node308623&#45;&gt;Node308615 -->
<g id="edge17" class="edge">
<title>Node308623&#45;&gt;Node308615</title>
<path fill="none" stroke="#191970" d="M806.0503,-244.4606C890.1627,-228.2582 1031.9755,-200.9412 1107.7055,-186.3535"/>
<polygon fill="#191970" stroke="#191970" points="805.2445,-241.0514 796.087,-246.3798 806.5686,-247.9251 805.2445,-241.0514"/>
</g>
<!-- Node308623&#45;&gt;Node308623 -->
<g id="edge10" class="edge">
<title>Node308623&#45;&gt;Node308623</title>
<path fill="none" stroke="#191970" d="M712.2022,-282.9306C715.4661,-287.6517 724.2321,-290.9727 738.5,-290.9727 761.9141,-290.9727 770.5114,-282.0293 764.2921,-272.6317"/>
<polygon fill="#191970" stroke="#191970" points="715.7132,-282.7914 712.7079,-272.6317 708.7216,-282.448 715.7132,-282.7914"/>
</g>
<!-- Node308623&#45;&gt;Node308624 -->
<g id="edge12" class="edge">
<title>Node308623&#45;&gt;Node308624</title>
<path fill="none" stroke="#191970" d="M751.3667,-281.459C766.994,-308.3772 795.8105,-351.5336 832,-376.4727 839.3981,-381.5709 848.2214,-385.345 856.8275,-388.1226"/>
<polygon fill="#191970" stroke="#191970" points="754.367,-279.6541 746.3988,-272.6714 748.2734,-283.0991 754.367,-279.6541"/>
</g>
<!-- Node308623&#45;&gt;Node308617 -->
<g id="edge15" class="edge">
<title>Node308623&#45;&gt;Node308617</title>
<path fill="none" stroke="#191970" d="M763.0053,-235.5845C797.1709,-205.0676 857.6813,-151.0195 882.2164,-129.1046"/>
<polygon fill="#191970" stroke="#191970" points="760.4549,-233.1696 755.3283,-242.4416 765.118,-238.3903 760.4549,-233.1696"/>
</g>
<!-- Node308623&#45;&gt;Node308611 -->
<g id="edge18" class="edge">
<title>Node308623&#45;&gt;Node308611</title>
<path fill="none" stroke="#191970" d="M770.3717,-278.1017C803.3721,-299.4611 853.4886,-331.899 878.1837,-347.8829"/>
<polygon fill="#191970" stroke="#191970" points="772.262,-275.156 761.9652,-272.6605 768.4584,-281.0325 772.262,-275.156"/>
</g>
<!-- Node308624&#45;&gt;Node308609 -->
<g id="edge14" class="edge">
<title>Node308624&#45;&gt;Node308609</title>
<path fill="none" stroke="#191970" d="M939.3061,-392.1651C989.0333,-388.6132 1067.4133,-383.0146 1115.8755,-379.553"/>
<polygon fill="#191970" stroke="#191970" points="938.876,-388.6868 929.1508,-392.8905 939.3748,-395.669 938.876,-388.6868"/>
</g>
<!-- Node308624&#45;&gt;Node308615 -->
<g id="edge13" class="edge">
<title>Node308624&#45;&gt;Node308615</title>
<path fill="none" stroke="#191970" d="M938.7503,-383.5882C944.0348,-381.5305 949.2325,-379.1681 954,-376.4727 1042.2987,-326.5521 1120.0484,-229.1905 1147.991,-191.6971"/>
<polygon fill="#191970" stroke="#191970" points="937.4733,-380.3274 929.2185,-386.9689 939.8133,-386.9248 937.4733,-380.3274"/>
</g>
<!-- Node308617&#45;&gt;Node308615 -->
<g id="edge16" class="edge">
<title>Node308617&#45;&gt;Node308615</title>
<path fill="none" stroke="#191970" d="M951.1919,-123.8735C986.5177,-127.3818 1032.3008,-133.424 1072,-143.4727 1089.8528,-147.9916 1109.0578,-155.0299 1124.8705,-161.4476"/>
<polygon fill="#191970" stroke="#191970" points="951.3392,-120.3717 941.0522,-122.9072 950.675,-127.3402 951.3392,-120.3717"/>
</g>
<!-- Node308611&#45;&gt;Node308608 -->
<g id="edge19" class="edge">
<title>Node308611&#45;&gt;Node308608</title>
<path fill="none" stroke="#191970" d="M934.3007,-344.0891C941.1447,-341.0771 947.9685,-337.5429 954,-333.4727 973.2843,-320.4592 973.9729,-312.3358 990,-295.4727 1000.9433,-283.9586 1013.5574,-270.7366 1021.872,-262.0283"/>
<polygon fill="#191970" stroke="#191970" points="932.9636,-340.8544 925.0278,-347.874 935.609,-347.3354 932.9636,-340.8544"/>
</g>
<!-- Node308611&#45;&gt;Node308609 -->
<g id="edge20" class="edge">
<title>Node308611&#45;&gt;Node308609</title>
<path fill="none" stroke="#191970" d="M964.1031,-362.5515C1012.3838,-366.0001 1074.6705,-370.4492 1115.6728,-373.3779"/>
<polygon fill="#191970" stroke="#191970" points="964.2498,-359.0531 954.0258,-361.8317 963.751,-366.0354 964.2498,-359.0531"/>
</g>
<!-- Node308625&#45;&gt;Node308625 -->
<g id="edge24" class="edge">
<title>Node308625&#45;&gt;Node308625</title>
<path fill="none" stroke="#191970" d="M710.8742,-414.1266C712.0289,-419.4095 721.2375,-423.4727 738.5,-423.4727 764.8047,-423.4727 772.4084,-414.038 761.3111,-405.2298"/>
<polygon fill="#191970" stroke="#191970" points="714.0076,-415.6903 715.6889,-405.2298 707.8512,-412.3587 714.0076,-415.6903"/>
</g>
<!-- Node308630&#45;&gt;Node308605 -->
<g id="edge28" class="edge">
<title>Node308630&#45;&gt;Node308605</title>
<path fill="none" stroke="#191970" d="M278.3558,-144.2837C268.0438,-149.7846 254.9459,-155.8195 244,-162.4727 217.1963,-178.7648 189.0822,-201.5659 171.208,-214.8567"/>
<polygon fill="#191970" stroke="#191970" points="280.3115,-147.1963 287.2278,-139.1705 276.816,-141.1315 280.3115,-147.1963"/>
</g>
<!-- Node308631&#45;&gt;Node308615 -->
<g id="edge36" class="edge">
<title>Node308631&#45;&gt;Node308615</title>
<path fill="none" stroke="#191970" d="M347.8173,-50.6355C406.3579,-47.679 504.494,-43.4727 589,-43.4727 589,-43.4727 589,-43.4727 893,-43.4727 997.2955,-43.4727 1102.6165,-126.2811 1142.4082,-161.2159"/>
<polygon fill="#191970" stroke="#191970" points="347.5202,-47.1461 337.7124,-51.1534 347.8785,-54.1369 347.5202,-47.1461"/>
</g>
<!-- Node308632 -->
<g id="node15" class="node">
<title>Node308632</title>
<g id="a_node15"><a xlink:href="quickjs_8c.html#af219bd55085ad700eb078affe3f65505" target="_top" xlink:title="js_parse_expr">
<polygon fill="none" stroke="#ff0000" points="402,-73.9727 402,-92.9727 479,-92.9727 479,-73.9727 402,-73.9727"/>
<text text-anchor="middle" x="440.5" y="-80.9727" font-family="Helvetica,sans-Serif" font-size="10.00" fill="#000000">js_parse_expr</text>
</a>
</g>
</g>
<!-- Node308631&#45;&gt;Node308632 -->
<g id="edge32" class="edge">
<title>Node308631&#45;&gt;Node308632</title>
<path fill="none" stroke="#191970" d="M348.0004,-64.2686C365.7417,-67.9519 385.2551,-72.0032 401.7677,-75.4314"/>
<polygon fill="#191970" stroke="#191970" points="348.2981,-60.7559 337.7954,-62.1499 346.8751,-67.6097 348.2981,-60.7559"/>
</g>
<!-- Node308632&#45;&gt;Node308607 -->
<g id="edge34" class="edge">
<title>Node308632&#45;&gt;Node308607</title>
<path fill="none" stroke="#191970" d="M477.9167,-97.4658C484.7308,-101.0534 491.4341,-105.373 497,-110.4727 520.2108,-131.7394 510.7328,-149.22 533,-171.4727 542.818,-181.2843 556.1291,-189.2856 567.3102,-194.9512"/>
<polygon fill="#191970" stroke="#191970" points="479.1825,-94.1913 468.6523,-93.023 476.1556,-100.503 479.1825,-94.1913"/>
</g>
<!-- Node308632&#45;&gt;Node308615 -->
<g id="edge35" class="edge">
<title>Node308632&#45;&gt;Node308615</title>
<path fill="none" stroke="#191970" d="M472.1638,-96.7471C525.9137,-118.0427 638.885,-157.4727 738.5,-157.4727 738.5,-157.4727 738.5,-157.4727 893,-157.4727 967.7716,-157.4727 1054.0661,-165.0344 1107.587,-170.617"/>
<polygon fill="#191970" stroke="#191970" points="473.4171,-93.4788 462.8333,-92.9954 470.8056,-99.9734 473.4171,-93.4788"/>
</g>
<!-- Node308632&#45;&gt;Node308617 -->
<g id="edge33" class="edge">
<title>Node308632&#45;&gt;Node308617</title>
<path fill="none" stroke="#191970" d="M489.2286,-87.3495C576.3903,-94.2839 757.9736,-108.7303 844.7722,-115.6358"/>
<polygon fill="#191970" stroke="#191970" points="489.326,-83.8462 479.0799,-86.542 488.7708,-90.8242 489.326,-83.8462"/>
</g>
<!-- Node308614&#45;&gt;Node308607 -->
<g id="edge40" class="edge">
<title>Node308614&#45;&gt;Node308607</title>
<path fill="none" stroke="#191970" d="M488.6363,-179.4663C508.7167,-184.4695 531.7172,-190.2002 550.6293,-194.9123"/>
<polygon fill="#191970" stroke="#191970" points="489.292,-176.0227 478.7424,-177.0011 487.5996,-182.815 489.292,-176.0227"/>
</g>
<!-- Node308635&#45;&gt;Node308607 -->
<g id="edge43" class="edge">
<title>Node308635&#45;&gt;Node308607</title>
<path fill="none" stroke="#191970" d="M353.9142,-103.1611C394.9438,-112.5672 450.6964,-127.6599 497,-148.4727 514.3177,-156.2568 516.8185,-161.5403 533,-171.4727 546.0798,-179.5012 561.067,-188.3129 572.2435,-194.8098"/>
<polygon fill="#191970" stroke="#191970" points="354.6032,-99.7287 344.079,-100.9503 353.068,-106.5583 354.6032,-99.7287"/>
</g>
</g>
</svg>
