<?xml version="1.0" encoding="UTF-8" standalone="no"?>
<!DOCTYPE svg PUBLIC "-//W3C//DTD SVG 1.1//EN"
 "http://www.w3.org/Graphics/SVG/1.1/DTD/svg11.dtd">
<!-- Generated by graphviz version 2.40.1 (20161225.0304)
 -->
<!-- Title: init_shape_hash Pages: 1 -->
<svg width="505pt" height="28pt"
 viewBox="0.00 0.00 505.00 28.00" xmlns="http://www.w3.org/2000/svg" xmlns:xlink="http://www.w3.org/1999/xlink">
<g id="graph0" class="graph" transform="scale(1 1) rotate(0) translate(4 24)">
<title>init_shape_hash</title>
<!-- Node39751 -->
<g id="node1" class="node">
<title>Node39751</title>
<polygon fill="#bfbfbf" stroke="#000000" points="0,-.5 0,-19.5 87,-19.5 87,-.5 0,-.5"/>
<text text-anchor="middle" x="43.5" y="-7.5" font-family="Helvetica,sans-Serif" font-size="10.00" fill="#000000">init_shape_hash</text>
</g>
<!-- Node39752 -->
<g id="node2" class="node">
<title>Node39752</title>
<g id="a_node2"><a xlink:href="quickjs_8c.html#a27966451027feb455b5da12c1578771c" target="_top" xlink:title="JS_NewRuntime2">
<polygon fill="none" stroke="#000000" points="123,-.5 123,-19.5 219,-19.5 219,-.5 123,-.5"/>
<text text-anchor="middle" x="171" y="-7.5" font-family="Helvetica,sans-Serif" font-size="10.00" fill="#000000">JS_NewRuntime2</text>
</a>
</g>
</g>
<!-- Node39751&#45;&gt;Node39752 -->
<g id="edge1" class="edge">
<title>Node39751&#45;&gt;Node39752</title>
<path fill="none" stroke="#191970" d="M97.2364,-10C105.7444,-10 114.4965,-10 122.8659,-10"/>
<polygon fill="#191970" stroke="#191970" points="97.0217,-6.5001 87.0217,-10 97.0216,-13.5001 97.0217,-6.5001"/>
</g>
<!-- Node39753 -->
<g id="node3" class="node">
<title>Node39753</title>
<g id="a_node3"><a xlink:href="quickjs_8c.html#afc1ca27a266094085ebb43e2eea0dda2" target="_top" xlink:title="JS_NewRuntime">
<polygon fill="none" stroke="#000000" points="255,-.5 255,-19.5 346,-19.5 346,-.5 255,-.5"/>
<text text-anchor="middle" x="300.5" y="-7.5" font-family="Helvetica,sans-Serif" font-size="10.00" fill="#000000">JS_NewRuntime</text>
</a>
</g>
</g>
<!-- Node39752&#45;&gt;Node39753 -->
<g id="edge2" class="edge">
<title>Node39752&#45;&gt;Node39753</title>
<path fill="none" stroke="#191970" d="M229.4754,-10C237.9739,-10 246.6181,-10 254.8147,-10"/>
<polygon fill="#191970" stroke="#191970" points="229.2211,-6.5001 219.221,-10 229.221,-13.5001 229.2211,-6.5001"/>
</g>
<!-- Node39754 -->
<g id="node4" class="node">
<title>Node39754</title>
<g id="a_node4"><a xlink:href="classqjs_1_1Runtime.html#a0860a1339ff567f9f603c7bed4d670f9" target="_top" xlink:title="qjs::Runtime::Runtime">
<polygon fill="none" stroke="#000000" points="382,-.5 382,-19.5 497,-19.5 497,-.5 382,-.5"/>
<text text-anchor="middle" x="439.5" y="-7.5" font-family="Helvetica,sans-Serif" font-size="10.00" fill="#000000">qjs::Runtime::Runtime</text>
</a>
</g>
</g>
<!-- Node39753&#45;&gt;Node39754 -->
<g id="edge3" class="edge">
<title>Node39753&#45;&gt;Node39754</title>
<path fill="none" stroke="#191970" d="M356.1119,-10C364.5346,-10 373.2411,-10 381.7088,-10"/>
<polygon fill="#191970" stroke="#191970" points="356.0138,-6.5001 346.0138,-10 356.0138,-13.5001 356.0138,-6.5001"/>
</g>
</g>
</svg>
