<?xml version="1.0" encoding="UTF-8" standalone="no"?>
<!DOCTYPE svg PUBLIC "-//W3C//DTD SVG 1.1//EN"
 "http://www.w3.org/Graphics/SVG/1.1/DTD/svg11.dtd">
<!-- Generated by graphviz version 2.40.1 (20161225.0304)
 -->
<!-- Title: bc_read_error_end Pages: 1 -->
<svg width="548pt" height="436pt"
 viewBox="0.00 0.00 548.00 436.00" xmlns="http://www.w3.org/2000/svg" xmlns:xlink="http://www.w3.org/1999/xlink">
<g id="graph0" class="graph" transform="scale(1 1) rotate(0) translate(4 432)">
<title>bc_read_error_end</title>
<!-- Node343576 -->
<g id="node1" class="node">
<title>Node343576</title>
<polygon fill="#bfbfbf" stroke="#000000" points="0,-247.5 0,-266.5 97,-266.5 97,-247.5 0,-247.5"/>
<text text-anchor="middle" x="48.5" y="-254.5" font-family="Helvetica,sans-Serif" font-size="10.00" fill="#000000">bc_read_error_end</text>
</g>
<!-- Node343577 -->
<g id="node2" class="node">
<title>Node343577</title>
<g id="a_node2"><a xlink:href="quickjs_8c.html#a5b9cc9e01f251602d29fa6ef7a058375" target="_top" xlink:title="bc_get_buf">
<polygon fill="none" stroke="#000000" points="143,-361.5 143,-380.5 208,-380.5 208,-361.5 143,-361.5"/>
<text text-anchor="middle" x="175.5" y="-368.5" font-family="Helvetica,sans-Serif" font-size="10.00" fill="#000000">bc_get_buf</text>
</a>
</g>
</g>
<!-- Node343576&#45;&gt;Node343577 -->
<g id="edge1" class="edge">
<title>Node343576&#45;&gt;Node343577</title>
<path fill="none" stroke="#191970" d="M62.2155,-274.5327C77.9128,-293.8503 105.0756,-325.0813 133,-347 139.9322,-352.4413 148.2461,-357.4224 155.675,-361.4193"/>
<polygon fill="#191970" stroke="#191970" points="64.8277,-272.1952 55.8485,-266.5716 59.361,-276.5673 64.8277,-272.1952"/>
</g>
<!-- Node343578 -->
<g id="node3" class="node">
<title>Node343578</title>
<g id="a_node3"><a xlink:href="quickjs_8c.html#ab64e04b510d4c4073aa468fc0a3ac0b1" target="_top" xlink:title="JS_ReadFunctionBytecode">
<polygon fill="none" stroke="#000000" points="254,-342.5 254,-361.5 390,-361.5 390,-342.5 254,-342.5"/>
<text text-anchor="middle" x="322" y="-349.5" font-family="Helvetica,sans-Serif" font-size="10.00" fill="#000000">JS_ReadFunctionBytecode</text>
</a>
</g>
</g>
<!-- Node343576&#45;&gt;Node343578 -->
<g id="edge28" class="edge">
<title>Node343576&#45;&gt;Node343578</title>
<path fill="none" stroke="#191970" d="M67.861,-273.3506C84.2043,-286.3086 108.7547,-303.8654 133,-314 171.2911,-330.0058 216.8307,-339.4215 253.613,-344.876"/>
<polygon fill="#191970" stroke="#191970" points="69.6475,-270.2924 59.6799,-266.7013 65.2325,-275.7245 69.6475,-270.2924"/>
</g>
<!-- Node343582 -->
<g id="node5" class="node">
<title>Node343582</title>
<g id="a_node5"><a xlink:href="quickjs_8c.html#a79e9250c5e2b097c9655cbc8a75ba923" target="_top" xlink:title="bc_get_leb128">
<polygon fill="none" stroke="#000000" points="135.5,-171.5 135.5,-190.5 215.5,-190.5 215.5,-171.5 135.5,-171.5"/>
<text text-anchor="middle" x="175.5" y="-178.5" font-family="Helvetica,sans-Serif" font-size="10.00" fill="#000000">bc_get_leb128</text>
</a>
</g>
</g>
<!-- Node343576&#45;&gt;Node343582 -->
<g id="edge6" class="edge">
<title>Node343576&#45;&gt;Node343582</title>
<path fill="none" stroke="#191970" d="M73.324,-242.1447C98.8546,-226.8665 137.8582,-203.5258 159.546,-190.5473"/>
<polygon fill="#191970" stroke="#191970" points="71.3683,-239.2362 64.5846,-247.3745 74.9628,-245.2428 71.3683,-239.2362"/>
</g>
<!-- Node343586 -->
<g id="node9" class="node">
<title>Node343586</title>
<g id="a_node9"><a xlink:href="quickjs_8c.html#a73a002c998fe7508eae9aa069fac802b" target="_top" xlink:title="JS_ReadString">
<polygon fill="none" stroke="#000000" points="280.5,-38.5 280.5,-57.5 363.5,-57.5 363.5,-38.5 280.5,-38.5"/>
<text text-anchor="middle" x="322" y="-45.5" font-family="Helvetica,sans-Serif" font-size="10.00" fill="#000000">JS_ReadString</text>
</a>
</g>
</g>
<!-- Node343576&#45;&gt;Node343586 -->
<g id="edge29" class="edge">
<title>Node343576&#45;&gt;Node343586</title>
<path fill="none" stroke="#191970" d="M61.1406,-239.1045C76.368,-218.5142 103.5945,-184.6378 133,-162 166.547,-136.1738 186.4458,-147.2263 218,-119 239.7746,-99.5219 230.0732,-80.7643 254,-64 261.7474,-58.5718 271.0865,-54.966 280.3281,-52.5761"/>
<polygon fill="#191970" stroke="#191970" points="58.2392,-237.1434 55.2006,-247.2932 63.9055,-241.2537 58.2392,-237.1434"/>
</g>
<!-- Node343588 -->
<g id="node11" class="node">
<title>Node343588</title>
<g id="a_node11"><a xlink:href="quickjs_8c.html#acd5d73f58a821266896a76426d7c110e" target="_top" xlink:title="bc_get_sleb128">
<polygon fill="none" stroke="#000000" points="133,-285.5 133,-304.5 218,-304.5 218,-285.5 133,-285.5"/>
<text text-anchor="middle" x="175.5" y="-292.5" font-family="Helvetica,sans-Serif" font-size="10.00" fill="#000000">bc_get_sleb128</text>
</a>
</g>
</g>
<!-- Node343576&#45;&gt;Node343588 -->
<g id="edge18" class="edge">
<title>Node343576&#45;&gt;Node343588</title>
<path fill="none" stroke="#191970" d="M90.3943,-269.5353C107.6712,-274.7048 127.3707,-280.5991 143.4628,-285.4141"/>
<polygon fill="#191970" stroke="#191970" points="91.1311,-266.1025 80.5475,-266.589 89.1245,-272.8088 91.1311,-266.1025"/>
</g>
<!-- Node343589 -->
<g id="node12" class="node">
<title>Node343589</title>
<g id="a_node12"><a xlink:href="quickjs_8c.html#a8454d184ad3645b2ccfcd8e4ded1a8e9" target="_top" xlink:title="bc_get_u16">
<polygon fill="none" stroke="#000000" points="142,-247.5 142,-266.5 209,-266.5 209,-247.5 142,-247.5"/>
<text text-anchor="middle" x="175.5" y="-254.5" font-family="Helvetica,sans-Serif" font-size="10.00" fill="#000000">bc_get_u16</text>
</a>
</g>
</g>
<!-- Node343576&#45;&gt;Node343589 -->
<g id="edge20" class="edge">
<title>Node343576&#45;&gt;Node343589</title>
<path fill="none" stroke="#191970" d="M107.4523,-257C119.1822,-257 131.1201,-257 141.654,-257"/>
<polygon fill="#191970" stroke="#191970" points="107.2383,-253.5001 97.2383,-257 107.2383,-260.5001 107.2383,-253.5001"/>
</g>
<!-- Node343590 -->
<g id="node13" class="node">
<title>Node343590</title>
<g id="a_node13"><a xlink:href="quickjs_8c.html#af18981d58c553d5b56799185d30005b7" target="_top" xlink:title="bc_get_u32">
<polygon fill="none" stroke="#000000" points="142,-57.5 142,-76.5 209,-76.5 209,-57.5 142,-57.5"/>
<text text-anchor="middle" x="175.5" y="-64.5" font-family="Helvetica,sans-Serif" font-size="10.00" fill="#000000">bc_get_u32</text>
</a>
</g>
</g>
<!-- Node343576&#45;&gt;Node343590 -->
<g id="edge22" class="edge">
<title>Node343576&#45;&gt;Node343590</title>
<path fill="none" stroke="#191970" d="M54.3569,-237.2577C65.1516,-203.685 91.0001,-134.8553 133,-91 138.6265,-85.125 146.0097,-80.2812 153.0408,-76.5214"/>
<polygon fill="#191970" stroke="#191970" points="50.8914,-236.6166 51.2717,-247.2046 57.5771,-238.6903 50.8914,-236.6166"/>
</g>
<!-- Node343591 -->
<g id="node14" class="node">
<title>Node343591</title>
<g id="a_node14"><a xlink:href="quickjs_8c.html#acde90ec09be2051ca056c973ac9c2a38" target="_top" xlink:title="bc_get_u64">
<polygon fill="none" stroke="#000000" points="142,-408.5 142,-427.5 209,-427.5 209,-408.5 142,-408.5"/>
<text text-anchor="middle" x="175.5" y="-415.5" font-family="Helvetica,sans-Serif" font-size="10.00" fill="#000000">bc_get_u64</text>
</a>
</g>
</g>
<!-- Node343576&#45;&gt;Node343591 -->
<g id="edge23" class="edge">
<title>Node343576&#45;&gt;Node343591</title>
<path fill="none" stroke="#191970" d="M57.2896,-275.9219C70.7213,-303.4004 98.4696,-354.8932 133,-390 140.0634,-397.1813 149.2638,-403.5192 157.2973,-408.3409"/>
<polygon fill="#191970" stroke="#191970" points="60.3286,-274.1637 52.8585,-266.6505 54.0128,-277.1823 60.3286,-274.1637"/>
</g>
<!-- Node343592 -->
<g id="node15" class="node">
<title>Node343592</title>
<g id="a_node15"><a xlink:href="quickjs_8c.html#a8ea895574dd7a1e1dc16c6fe2e84e129" target="_top" xlink:title="bc_get_u8">
<polygon fill="none" stroke="#000000" points="291,-.5 291,-19.5 353,-19.5 353,-.5 291,-.5"/>
<text text-anchor="middle" x="322" y="-7.5" font-family="Helvetica,sans-Serif" font-size="10.00" fill="#000000">bc_get_u8</text>
</a>
</g>
</g>
<!-- Node343576&#45;&gt;Node343592 -->
<g id="edge25" class="edge">
<title>Node343576&#45;&gt;Node343592</title>
<path fill="none" stroke="#191970" d="M55.6505,-237.5707C67.438,-208.0535 93.6331,-151.8797 133,-119 164.1034,-93.0221 186.717,-111.7613 218,-86 241.1297,-66.9529 229.9663,-46.893 254,-29 264.6186,-21.0944 278.3804,-16.4776 290.7433,-13.7816"/>
<polygon fill="#191970" stroke="#191970" points="52.2903,-236.5572 51.9619,-247.1469 58.8225,-239.0733 52.2903,-236.5572"/>
</g>
<!-- Node343577&#45;&gt;Node343578 -->
<g id="edge2" class="edge">
<title>Node343577&#45;&gt;Node343578</title>
<path fill="none" stroke="#191970" d="M217.9672,-365.4923C229.2111,-364.0341 241.6379,-362.4224 253.8732,-360.8356"/>
<polygon fill="#191970" stroke="#191970" points="217.4799,-362.0261 208.0131,-366.7833 218.3802,-368.968 217.4799,-362.0261"/>
</g>
<!-- Node343579 -->
<g id="node4" class="node">
<title>Node343579</title>
<g id="a_node4"><a xlink:href="quickjs_8c.html#a4b8ef2bb3b35e4a5f6ed8bd837a50e7c" target="_top" xlink:title="JS_ReadObjectRec">
<polygon fill="none" stroke="#ff0000" points="431,-228.5 431,-247.5 535,-247.5 535,-228.5 431,-228.5"/>
<text text-anchor="middle" x="483" y="-235.5" font-family="Helvetica,sans-Serif" font-size="10.00" fill="#000000">JS_ReadObjectRec</text>
</a>
</g>
</g>
<!-- Node343577&#45;&gt;Node343579 -->
<g id="edge5" class="edge">
<title>Node343577&#45;&gt;Node343579</title>
<path fill="none" stroke="#191970" d="M218.0227,-381.9971C263.3721,-391.3176 335.9606,-399.1533 390,-371 441.7244,-344.0528 470.6064,-273.7257 479.7677,-247.7909"/>
<polygon fill="#191970" stroke="#191970" points="218.7351,-378.5703 208.2205,-379.8718 217.2518,-385.4114 218.7351,-378.5703"/>
</g>
<!-- Node343578&#45;&gt;Node343579 -->
<g id="edge3" class="edge">
<title>Node343578&#45;&gt;Node343579</title>
<path fill="none" stroke="#191970" d="M367.8832,-338.8627C375.5338,-335.8226 383.1884,-332.2152 390,-328 426.8745,-305.181 461.008,-265.6151 475.5749,-247.5232"/>
<polygon fill="#191970" stroke="#191970" points="366.429,-335.6685 358.2583,-342.4131 368.8516,-342.236 366.429,-335.6685"/>
</g>
<!-- Node343579&#45;&gt;Node343579 -->
<g id="edge4" class="edge">
<title>Node343579&#45;&gt;Node343579</title>
<path fill="none" stroke="#191970" d="M453.0599,-256.2746C453.9135,-261.741 463.8936,-266 483,-266 511.4375,-266 519.6577,-256.5653 507.6606,-247.7571"/>
<polygon fill="#191970" stroke="#191970" points="456.0458,-258.1007 458.3394,-247.7571 450.096,-254.4128 456.0458,-258.1007"/>
</g>
<!-- Node343582&#45;&gt;Node343579 -->
<g id="edge16" class="edge">
<title>Node343582&#45;&gt;Node343579</title>
<path fill="none" stroke="#191970" d="M225.7129,-173.4197C269.8662,-168.5257 335.4173,-165.6039 390,-181 422.8067,-190.2538 455.4568,-214.6744 471.9513,-228.3585"/>
<polygon fill="#191970" stroke="#191970" points="225.042,-169.9746 215.523,-174.6264 225.8652,-176.9261 225.042,-169.9746"/>
</g>
<!-- Node343583 -->
<g id="node6" class="node">
<title>Node343583</title>
<g id="a_node6"><a xlink:href="quickjs_8c.html#aa592b98c1f5b7d41c8384c03b642b7ad" target="_top" xlink:title="bc_get_leb128_int">
<polygon fill="none" stroke="#000000" points="274.5,-114.5 274.5,-133.5 369.5,-133.5 369.5,-114.5 274.5,-114.5"/>
<text text-anchor="middle" x="322" y="-121.5" font-family="Helvetica,sans-Serif" font-size="10.00" fill="#000000">bc_get_leb128_int</text>
</a>
</g>
</g>
<!-- Node343582&#45;&gt;Node343583 -->
<g id="edge7" class="edge">
<title>Node343582&#45;&gt;Node343583</title>
<path fill="none" stroke="#191970" d="M206.7468,-167.3689C221.0682,-161.2494 238.3132,-154.0595 254,-148 266.9629,-142.9927 281.4688,-137.8156 293.7425,-133.5573"/>
<polygon fill="#191970" stroke="#191970" points="205.1586,-164.2419 197.3542,-171.4073 207.9236,-170.6727 205.1586,-164.2419"/>
</g>
<!-- Node343584 -->
<g id="node7" class="node">
<title>Node343584</title>
<g id="a_node7"><a xlink:href="quickjs_8c.html#ab3a28d4aac1f193d1d135b37b407a07b" target="_top" xlink:title="bc_get_leb128_u16">
<polygon fill="none" stroke="#000000" points="271.5,-228.5 271.5,-247.5 372.5,-247.5 372.5,-228.5 271.5,-228.5"/>
<text text-anchor="middle" x="322" y="-235.5" font-family="Helvetica,sans-Serif" font-size="10.00" fill="#000000">bc_get_leb128_u16</text>
</a>
</g>
</g>
<!-- Node343582&#45;&gt;Node343584 -->
<g id="edge9" class="edge">
<title>Node343582&#45;&gt;Node343584</title>
<path fill="none" stroke="#191970" d="M202.0413,-195.3138C217.0114,-203.0117 236.2257,-212.2763 254,-219 263.2865,-222.5129 273.5041,-225.705 283.1338,-228.4275"/>
<polygon fill="#191970" stroke="#191970" points="203.3584,-192.053 192.8745,-190.5238 200.1165,-198.2571 203.3584,-192.053"/>
</g>
<!-- Node343585 -->
<g id="node8" class="node">
<title>Node343585</title>
<g id="a_node8"><a xlink:href="quickjs_8c.html#a267b1caf06e54dfdf809cd51602400b4" target="_top" xlink:title="bc_get_atom">
<polygon fill="none" stroke="#000000" points="285.5,-190.5 285.5,-209.5 358.5,-209.5 358.5,-190.5 285.5,-190.5"/>
<text text-anchor="middle" x="322" y="-197.5" font-family="Helvetica,sans-Serif" font-size="10.00" fill="#000000">bc_get_atom</text>
</a>
</g>
</g>
<!-- Node343582&#45;&gt;Node343585 -->
<g id="edge11" class="edge">
<title>Node343582&#45;&gt;Node343585</title>
<path fill="none" stroke="#191970" d="M225.4817,-187.4823C245.0022,-190.0139 266.9829,-192.8647 285.0319,-195.2055"/>
<polygon fill="#191970" stroke="#191970" points="225.8989,-184.0071 215.5318,-186.1918 224.9985,-190.949 225.8989,-184.0071"/>
</g>
<!-- Node343582&#45;&gt;Node343586 -->
<g id="edge13" class="edge">
<title>Node343582&#45;&gt;Node343586</title>
<path fill="none" stroke="#191970" d="M207.3596,-166.1806C211.254,-163.494 214.9337,-160.4355 218,-157 245.3188,-126.3921 224.1142,-100.1069 254,-72 261.387,-65.0527 270.9071,-60.0991 280.4709,-56.5729"/>
<polygon fill="#191970" stroke="#191970" points="205.3778,-163.2892 198.6458,-171.4703 209.0103,-169.2729 205.3778,-163.2892"/>
</g>
<!-- Node343587 -->
<g id="node10" class="node">
<title>Node343587</title>
<g id="a_node10"><a xlink:href="quickjs_8c.html#ad54b242d774ba44b2ac39fe8161aaf9c" target="_top" xlink:title="JS_ReadObjectAtoms">
<polygon fill="none" stroke="#ff0000" points="426,-38.5 426,-57.5 540,-57.5 540,-38.5 426,-38.5"/>
<text text-anchor="middle" x="483" y="-45.5" font-family="Helvetica,sans-Serif" font-size="10.00" fill="#000000">JS_ReadObjectAtoms</text>
</a>
</g>
</g>
<!-- Node343582&#45;&gt;Node343587 -->
<g id="edge17" class="edge">
<title>Node343582&#45;&gt;Node343587</title>
<path fill="none" stroke="#191970" d="M205.6244,-166.276C210.0046,-163.5004 214.2834,-160.3912 218,-157 238.7642,-138.0535 230.8738,-120.9782 254,-105 269.084,-94.5783 375.0336,-70.863 437.4043,-57.5396"/>
<polygon fill="#191970" stroke="#191970" points="203.5325,-163.4431 196.6383,-171.488 207.0446,-169.4983 203.5325,-163.4431"/>
</g>
<!-- Node343583&#45;&gt;Node343579 -->
<g id="edge8" class="edge">
<title>Node343583&#45;&gt;Node343579</title>
<path fill="none" stroke="#191970" d="M367.8832,-137.1373C375.5338,-140.1774 383.1884,-143.7848 390,-148 426.8745,-170.819 461.008,-210.3849 475.5749,-228.4768"/>
<polygon fill="#191970" stroke="#191970" points="368.8516,-133.764 358.2583,-133.5869 366.429,-140.3315 368.8516,-133.764"/>
</g>
<!-- Node343584&#45;&gt;Node343579 -->
<g id="edge10" class="edge">
<title>Node343584&#45;&gt;Node343579</title>
<path fill="none" stroke="#191970" d="M383.0788,-238C398.7762,-238 415.5214,-238 430.7279,-238"/>
<polygon fill="#191970" stroke="#191970" points="382.9414,-234.5001 372.9414,-238 382.9414,-241.5001 382.9414,-234.5001"/>
</g>
<!-- Node343585&#45;&gt;Node343579 -->
<g id="edge12" class="edge">
<title>Node343585&#45;&gt;Node343579</title>
<path fill="none" stroke="#191970" d="M368.2806,-210.9234C391.7781,-216.4694 420.055,-223.1434 442.6553,-228.4777"/>
<polygon fill="#191970" stroke="#191970" points="369.07,-207.5136 358.5334,-208.6228 367.462,-214.3264 369.07,-207.5136"/>
</g>
<!-- Node343586&#45;&gt;Node343579 -->
<g id="edge14" class="edge">
<title>Node343586&#45;&gt;Node343579</title>
<path fill="none" stroke="#191970" d="M343.5457,-63.6939C357.591,-74.4732 375.8669,-89.5743 390,-105 428.4478,-146.9641 464.1238,-205.512 477.4639,-228.3447"/>
<polygon fill="#191970" stroke="#191970" points="345.5158,-60.7961 335.422,-57.5764 341.3049,-66.3879 345.5158,-60.7961"/>
</g>
<!-- Node343586&#45;&gt;Node343587 -->
<g id="edge15" class="edge">
<title>Node343586&#45;&gt;Node343587</title>
<path fill="none" stroke="#191970" d="M373.9332,-48C390.5122,-48 408.9487,-48 425.8754,-48"/>
<polygon fill="#191970" stroke="#191970" points="373.8806,-44.5001 363.8806,-48 373.8805,-51.5001 373.8806,-44.5001"/>
</g>
<!-- Node343588&#45;&gt;Node343579 -->
<g id="edge19" class="edge">
<title>Node343588&#45;&gt;Node343579</title>
<path fill="none" stroke="#191970" d="M228.5013,-293.3592C272.3009,-291.1019 335.8547,-285.7393 390,-273 415.6931,-266.9549 443.8938,-255.6339 462.4274,-247.5025"/>
<polygon fill="#191970" stroke="#191970" points="228.1844,-289.8702 218.3632,-293.8444 228.5191,-296.8622 228.1844,-289.8702"/>
</g>
<!-- Node343589&#45;&gt;Node343579 -->
<g id="edge21" class="edge">
<title>Node343589&#45;&gt;Node343579</title>
<path fill="none" stroke="#191970" d="M219.2597,-259.5691C262.6993,-261.5155 331.127,-262.9524 390,-257 408.3632,-255.1434 428.4594,-251.2746 445.2574,-247.5096"/>
<polygon fill="#191970" stroke="#191970" points="219.1993,-256.0624 209.0437,-259.0811 218.8652,-263.0544 219.1993,-256.0624"/>
</g>
<!-- Node343591&#45;&gt;Node343579 -->
<g id="edge24" class="edge">
<title>Node343591&#45;&gt;Node343579</title>
<path fill="none" stroke="#191970" d="M218.9978,-423.8513C265.1736,-427.7689 338.4569,-427.2062 390,-394 445.6634,-358.1393 472.5849,-276.1382 480.4626,-247.8269"/>
<polygon fill="#191970" stroke="#191970" points="219.2945,-420.3638 209.0072,-422.8977 218.6294,-427.3321 219.2945,-420.3638"/>
</g>
<!-- Node343592&#45;&gt;Node343579 -->
<g id="edge26" class="edge">
<title>Node343592&#45;&gt;Node343579</title>
<path fill="none" stroke="#191970" d="M363.123,-15.3333C372.7668,-18.1583 382.4258,-22.4595 390,-29 454.9268,-85.0661 476.4976,-195.3107 481.6534,-228.3933"/>
<polygon fill="#191970" stroke="#191970" points="363.7126,-11.8742 353.1667,-12.8918 362.0453,-18.6728 363.7126,-11.8742"/>
</g>
<!-- Node343592&#45;&gt;Node343587 -->
<g id="edge27" class="edge">
<title>Node343592&#45;&gt;Node343587</title>
<path fill="none" stroke="#191970" d="M363.0714,-19.6939C387.4778,-25.4544 418.3053,-32.7304 442.5937,-38.4631"/>
<polygon fill="#191970" stroke="#191970" points="363.579,-16.2176 353.0424,-17.3268 361.971,-23.0304 363.579,-16.2176"/>
</g>
</g>
</svg>
