<?xml version="1.0" encoding="UTF-8" standalone="no"?>
<!DOCTYPE svg PUBLIC "-//W3C//DTD SVG 1.1//EN"
 "http://www.w3.org/Graphics/SVG/1.1/DTD/svg11.dtd">
<!-- Generated by graphviz version 2.40.1 (20161225.0304)
 -->
<!-- Title: JS_NewCFunction Pages: 1 -->
<svg width="410pt" height="104pt"
 viewBox="0.00 0.00 410.00 104.00" xmlns="http://www.w3.org/2000/svg" xmlns:xlink="http://www.w3.org/1999/xlink">
<g id="graph0" class="graph" transform="scale(1 1) rotate(0) translate(4 100)">
<title>JS_NewCFunction</title>
<!-- Node83332 -->
<g id="node1" class="node">
<title>Node83332</title>
<polygon fill="#bfbfbf" stroke="#000000" points="0,-38.5 0,-57.5 99,-57.5 99,-38.5 0,-38.5"/>
<text text-anchor="middle" x="49.5" y="-45.5" font-family="Helvetica,sans-Serif" font-size="10.00" fill="#000000">JS_NewCFunction</text>
</g>
<!-- Node83333 -->
<g id="node2" class="node">
<title>Node83333</title>
<g id="a_node2"><a xlink:href="quickjs_8c.html#a4c9489297c684663f30e517204a9ec14" target="_top" xlink:title="JS_AddIntrinsicBaseObjects">
<polygon fill="none" stroke="#000000" points="135,-76.5 135,-95.5 277,-95.5 277,-76.5 135,-76.5"/>
<text text-anchor="middle" x="206" y="-83.5" font-family="Helvetica,sans-Serif" font-size="10.00" fill="#000000">JS_AddIntrinsicBaseObjects</text>
</a>
</g>
</g>
<!-- Node83332&#45;&gt;Node83333 -->
<g id="edge1" class="edge">
<title>Node83332&#45;&gt;Node83333</title>
<path fill="none" stroke="#191970" d="M98.7892,-59.968C120.7203,-65.2931 146.1849,-71.4762 166.7924,-76.4799"/>
<polygon fill="#191970" stroke="#191970" points="99.5351,-56.5475 88.9916,-57.589 97.8833,-63.3498 99.5351,-56.5475"/>
</g>
<!-- Node83335 -->
<g id="node4" class="node">
<title>Node83335</title>
<g id="a_node4"><a xlink:href="quickjs_8c.html#a177d09828596bfe6df4bd90b2e93989d" target="_top" xlink:title="JS_AddIntrinsicTypedArrays">
<polygon fill="none" stroke="#000000" points="135.5,-38.5 135.5,-57.5 276.5,-57.5 276.5,-38.5 135.5,-38.5"/>
<text text-anchor="middle" x="206" y="-45.5" font-family="Helvetica,sans-Serif" font-size="10.00" fill="#000000">JS_AddIntrinsicTypedArrays</text>
</a>
</g>
</g>
<!-- Node83332&#45;&gt;Node83335 -->
<g id="edge3" class="edge">
<title>Node83332&#45;&gt;Node83335</title>
<path fill="none" stroke="#191970" d="M109.249,-48C117.7878,-48 126.6385,-48 135.3618,-48"/>
<polygon fill="#191970" stroke="#191970" points="109.0176,-44.5001 99.0176,-48 109.0175,-51.5001 109.0176,-44.5001"/>
</g>
<!-- Node83336 -->
<g id="node5" class="node">
<title>Node83336</title>
<g id="a_node5"><a xlink:href="quickjs-libc_8c.html#ad04466feec6822a3b838baf229f6dfa0" target="_top" xlink:title="js_std_add_helpers">
<polygon fill="none" stroke="#000000" points="155.5,-.5 155.5,-19.5 256.5,-19.5 256.5,-.5 155.5,-.5"/>
<text text-anchor="middle" x="206" y="-7.5" font-family="Helvetica,sans-Serif" font-size="10.00" fill="#000000">js_std_add_helpers</text>
</a>
</g>
</g>
<!-- Node83332&#45;&gt;Node83336 -->
<g id="edge5" class="edge">
<title>Node83332&#45;&gt;Node83336</title>
<path fill="none" stroke="#191970" d="M98.7892,-36.032C120.7203,-30.7069 146.1849,-24.5238 166.7924,-19.5201"/>
<polygon fill="#191970" stroke="#191970" points="97.8833,-32.6502 88.9916,-38.411 99.5351,-39.4525 97.8833,-32.6502"/>
</g>
<!-- Node83334 -->
<g id="node3" class="node">
<title>Node83334</title>
<g id="a_node3"><a xlink:href="quickjs_8c.html#ad8aedb643b8753b7a15f6cb2df61945e" target="_top" xlink:title="JS_NewContext">
<polygon fill="none" stroke="#000000" points="313,-57.5 313,-76.5 402,-76.5 402,-57.5 313,-57.5"/>
<text text-anchor="middle" x="357.5" y="-64.5" font-family="Helvetica,sans-Serif" font-size="10.00" fill="#000000">JS_NewContext</text>
</a>
</g>
</g>
<!-- Node83333&#45;&gt;Node83334 -->
<g id="edge2" class="edge">
<title>Node83333&#45;&gt;Node83334</title>
<path fill="none" stroke="#191970" d="M287.2695,-75.8078C296.0724,-74.7038 304.7754,-73.6123 312.8995,-72.5935"/>
<polygon fill="#191970" stroke="#191970" points="286.8005,-72.3391 277.3138,-77.0564 287.6716,-79.2847 286.8005,-72.3391"/>
</g>
<!-- Node83335&#45;&gt;Node83334 -->
<g id="edge4" class="edge">
<title>Node83335&#45;&gt;Node83334</title>
<path fill="none" stroke="#191970" d="M286.864,-58.1414C295.703,-59.2499 304.4487,-60.3467 312.6168,-61.3711"/>
<polygon fill="#191970" stroke="#191970" points="287.2285,-54.6597 276.8707,-56.8881 286.3574,-61.6053 287.2285,-54.6597"/>
</g>
<!-- Node83337 -->
<g id="node6" class="node">
<title>Node83337</title>
<g id="a_node6"><a xlink:href="qjs_8cpp.html#a3c04138a5bfe5d72780bb7e82a18e627" target="_top" xlink:title="main">
<polygon fill="none" stroke="#000000" points="338.5,-.5 338.5,-19.5 376.5,-19.5 376.5,-.5 338.5,-.5"/>
<text text-anchor="middle" x="357.5" y="-7.5" font-family="Helvetica,sans-Serif" font-size="10.00" fill="#000000">main</text>
</a>
</g>
</g>
<!-- Node83336&#45;&gt;Node83337 -->
<g id="edge6" class="edge">
<title>Node83336&#45;&gt;Node83337</title>
<path fill="none" stroke="#191970" d="M266.9026,-10C292.4829,-10 320.4144,-10 338.4024,-10"/>
<polygon fill="#191970" stroke="#191970" points="266.8688,-6.5001 256.8688,-10 266.8687,-13.5001 266.8688,-6.5001"/>
</g>
</g>
</svg>
