<?xml version="1.0" encoding="UTF-8" standalone="no"?>
<!DOCTYPE svg PUBLIC "-//W3C//DTD SVG 1.1//EN"
 "http://www.w3.org/Graphics/SVG/1.1/DTD/svg11.dtd">
<!-- Generated by graphviz version 2.40.1 (20161225.0304)
 -->
<!-- Title: js_free_shape_null Pages: 1 -->
<!--zoomable 142 -->
<svg id="main" version="1.1" xmlns="http://www.w3.org/2000/svg" xmlns:xlink="http://www.w3.org/1999/xlink" xml:space="preserve" onload="init(evt)">
<style type="text/css"><![CDATA[
.edge:hover path { stroke: red; }
.edge:hover polygon { stroke: red; fill: red; }
]]></style>
<script type="text/javascript"><![CDATA[
var edges = document.getElementsByTagName('g');
if (edges && edges.length) {
  for (var i=0;i<edges.length;i++) {
    if (edges[i].id.substr(0,4)=='edge') {
      edges[i].setAttribute('class','edge');
    }
  }
}
]]></script>
        <defs>
                <circle id="rim" cx="0" cy="0" r="7"/>
                <circle id="rim2" cx="0" cy="0" r="3.5"/>
                <g id="zoomPlus">
                        <use xlink:href="#rim" fill="#404040">
                                <set attributeName="fill" to="#808080" begin="zoomplus.mouseover" end="zoomplus.mouseout"/>
                        </use>
                        <path d="M-4,0h8M0,-4v8" fill="none" stroke="white" stroke-width="1.5" pointer-events="none"/>
                </g>
                <g id="zoomMin">
                        <use xlink:href="#rim" fill="#404040">
                                <set attributeName="fill" to="#808080" begin="zoomminus.mouseover" end="zoomminus.mouseout"/>
                        </use>
                        <path d="M-4,0h8" fill="none" stroke="white" stroke-width="1.5" pointer-events="none"/>
                </g>
                <g id="dirArrow">
                        <path fill="none" stroke="white" stroke-width="1.5" d="M0,-3.0v7 M-2.5,-0.5L0,-3.0L2.5,-0.5"/>
                </g>
               <g id="resetDef">
                       <use xlink:href="#rim2" fill="#404040">
                               <set attributeName="fill" to="#808080" begin="reset.mouseover" end="reset.mouseout"/>
                       </use>
               </g>
        </defs>

<script type="text/javascript">
var viewWidth = 519;
var viewHeight = 142;
var sectionId = 'dynsection-104';
</script>
<script xlink:href="svgpan.js"/>
<svg id="graph" class="graph">
<g id="viewport">
<title>js_free_shape_null</title>
<!-- Node38394 -->
<g id="node1" class="node">
<title>Node38394</title>
<polygon fill="#bfbfbf" stroke="#000000" points="0,-57.5 0,-76.5 98,-76.5 98,-57.5 0,-57.5"/>
<text text-anchor="middle" x="49" y="-64.5" font-family="Helvetica,sans-Serif" font-size="10.00" fill="#000000">js_free_shape_null</text>
</g>
<!-- Node38395 -->
<g id="node2" class="node">
<title>Node38395</title>
<g id="a_node2"><a xlink:href="quickjs_8c.html#a1b4fe6eb1b7bcaec6713bd5ac2921f1b" target="_top" xlink:title="JS_FreeContext">
<polygon fill="none" stroke="#000000" points="134,-57.5 134,-76.5 222,-76.5 222,-57.5 134,-57.5"/>
<text text-anchor="middle" x="178" y="-64.5" font-family="Helvetica,sans-Serif" font-size="10.00" fill="#000000">JS_FreeContext</text>
</a>
</g>
</g>
<!-- Node38394&#45;&gt;Node38395 -->
<g id="edge1" class="edge">
<title>Node38394&#45;&gt;Node38395</title>
<path fill="none" stroke="#191970" d="M108.4024,-67C116.899,-67 125.5142,-67 133.6535,-67"/>
<polygon fill="#191970" stroke="#191970" points="108.1374,-63.5001 98.1374,-67 108.1373,-70.5001 108.1374,-63.5001"/>
</g>
<!-- Node38396 -->
<g id="node3" class="node">
<title>Node38396</title>
<g id="a_node3"><a xlink:href="classqjs_1_1Context.html#a5aeaa5a266944f0d9d515d2b8eac767f" target="_top" xlink:title="qjs::Context::~Context">
<polygon fill="none" stroke="#000000" points="259,-114.5 259,-133.5 375,-133.5 375,-114.5 259,-114.5"/>
<text text-anchor="middle" x="317" y="-121.5" font-family="Helvetica,sans-Serif" font-size="10.00" fill="#000000">qjs::Context::~Context</text>
</a>
</g>
</g>
<!-- Node38395&#45;&gt;Node38396 -->
<g id="edge2" class="edge">
<title>Node38395&#45;&gt;Node38396</title>
<path fill="none" stroke="#191970" d="M205.7866,-81.3092C220.9941,-88.8566 240.2951,-97.9798 258,-105 266.5029,-108.3715 275.8638,-111.5988 284.5755,-114.4059"/>
<polygon fill="#191970" stroke="#191970" points="206.9491,-77.9764 196.4421,-76.6149 203.8068,-84.2315 206.9491,-77.9764"/>
</g>
<!-- Node38397 -->
<g id="node4" class="node">
<title>Node38397</title>
<g id="a_node4"><a xlink:href="quickjs_8c.html#af2bcf1faee5b5dd948692540d9cce73e" target="_top" xlink:title="js_autoinit_free">
<polygon fill="none" stroke="#000000" points="275.5,-76.5 275.5,-95.5 358.5,-95.5 358.5,-76.5 275.5,-76.5"/>
<text text-anchor="middle" x="317" y="-83.5" font-family="Helvetica,sans-Serif" font-size="10.00" fill="#000000">js_autoinit_free</text>
</a>
</g>
</g>
<!-- Node38395&#45;&gt;Node38397 -->
<g id="edge3" class="edge">
<title>Node38395&#45;&gt;Node38397</title>
<path fill="none" stroke="#191970" d="M232.554,-74.457C246.8144,-76.4063 261.9559,-78.476 275.4205,-80.3165"/>
<polygon fill="#191970" stroke="#191970" points="232.7445,-70.9506 222.3626,-73.064 231.7965,-77.8861 232.7445,-70.9506"/>
</g>
<!-- Node39112 -->
<g id="node7" class="node">
<title>Node39112</title>
<g id="a_node7"><a xlink:href="quickjs_8c.html#a7fc69d7fe9fa0f902d0d9a3640634711" target="_top" xlink:title="js_c_function_finalizer">
<polygon fill="none" stroke="#000000" points="260.5,-38.5 260.5,-57.5 373.5,-57.5 373.5,-38.5 260.5,-38.5"/>
<text text-anchor="middle" x="317" y="-45.5" font-family="Helvetica,sans-Serif" font-size="10.00" fill="#000000">js_c_function_finalizer</text>
</a>
</g>
</g>
<!-- Node38395&#45;&gt;Node39112 -->
<g id="edge6" class="edge">
<title>Node38395&#45;&gt;Node39112</title>
<path fill="none" stroke="#191970" d="M232.4958,-59.5509C241.6397,-58.301 251.1475,-57.0014 260.3444,-55.7443"/>
<polygon fill="#191970" stroke="#191970" points="231.7965,-56.1139 222.3626,-60.936 232.7445,-63.0494 231.7965,-56.1139"/>
</g>
<!-- Node39045 -->
<g id="node8" class="node">
<title>Node39045</title>
<g id="a_node8"><a xlink:href="quickjs_8c.html#adc4a49d7eb1cc1ec4b3a8c37ab8cb075" target="_top" xlink:title="free_function_bytecode">
<polygon fill="none" stroke="#ff0000" points="258,-.5 258,-19.5 376,-19.5 376,-.5 258,-.5"/>
<text text-anchor="middle" x="317" y="-7.5" font-family="Helvetica,sans-Serif" font-size="10.00" fill="#000000">free_function_bytecode</text>
</a>
</g>
</g>
<!-- Node38395&#45;&gt;Node39045 -->
<g id="edge7" class="edge">
<title>Node38395&#45;&gt;Node39045</title>
<path fill="none" stroke="#191970" d="M205.7866,-52.6908C220.9941,-45.1434 240.2951,-36.0202 258,-29 266.5029,-25.6285 275.8638,-22.4012 284.5755,-19.5941"/>
<polygon fill="#191970" stroke="#191970" points="203.8068,-49.7685 196.4421,-57.3851 206.9491,-56.0236 203.8068,-49.7685"/>
</g>
<!-- Node38398 -->
<g id="node5" class="node">
<title>Node38398</title>
<g id="a_node5"><a xlink:href="quickjs_8c.html#af4274494e2e45f9018154ffcbb7e89e4" target="_top" xlink:title="free_property">
<polygon fill="none" stroke="#ff0000" points="424.5,-95.5 424.5,-114.5 498.5,-114.5 498.5,-95.5 424.5,-95.5"/>
<text text-anchor="middle" x="461.5" y="-102.5" font-family="Helvetica,sans-Serif" font-size="10.00" fill="#000000">free_property</text>
</a>
</g>
</g>
<!-- Node38397&#45;&gt;Node38398 -->
<g id="edge4" class="edge">
<title>Node38397&#45;&gt;Node38398</title>
<path fill="none" stroke="#191970" d="M368.7497,-92.8045C387.0835,-95.2151 407.3373,-97.8783 424.229,-100.0993"/>
<polygon fill="#191970" stroke="#191970" points="369.1664,-89.3292 358.7954,-91.4956 368.2537,-96.2695 369.1664,-89.3292"/>
</g>
<!-- Node38628 -->
<g id="node6" class="node">
<title>Node38628</title>
<g id="a_node6"><a xlink:href="quickjs_8c.html#ab50618f1bf78e444caa6da0e3e2785d7" target="_top" xlink:title="JS_DefineProperty">
<polygon fill="none" stroke="#ff0000" points="412,-57.5 412,-76.5 511,-76.5 511,-57.5 412,-57.5"/>
<text text-anchor="middle" x="461.5" y="-64.5" font-family="Helvetica,sans-Serif" font-size="10.00" fill="#000000">JS_DefineProperty</text>
</a>
</g>
</g>
<!-- Node38397&#45;&gt;Node38628 -->
<g id="edge5" class="edge">
<title>Node38397&#45;&gt;Node38628</title>
<path fill="none" stroke="#191970" d="M368.7805,-79.1915C382.8124,-77.3465 397.9671,-75.3538 411.8771,-73.5248"/>
<polygon fill="#191970" stroke="#191970" points="368.2537,-75.7305 358.7954,-80.5044 369.1664,-82.6708 368.2537,-75.7305"/>
</g>
</g>
</svg>
        <g id="navigator" transform="translate(0 0)" fill="#404254">
                <rect fill="#f2f5e9" fill-opacity="0.5" stroke="#606060" stroke-width=".5" x="0" y="0" width="60" height="60"/>
                <use id="zoomplus" xlink:href="#zoomPlus" x="17" y="9" onmousedown="handleZoom(evt,'in')"/>
                <use id="zoomminus" xlink:href="#zoomMin" x="42" y="9" onmousedown="handleZoom(evt,'out')"/>
                <use id="reset" xlink:href="#resetDef" x="30" y="36" onmousedown="handleReset()"/>
                <g id="arrowUp" xlink:href="#dirArrow" transform="translate(30 24)" onmousedown="handlePan(0,-1)">
                  <use xlink:href="#rim" fill="#404040">
                        <set attributeName="fill" to="#808080" begin="arrowUp.mouseover" end="arrowUp.mouseout"/>
                  </use>
                  <path fill="none" stroke="white" stroke-width="1.5" d="M0,-3.0v7 M-2.5,-0.5L0,-3.0L2.5,-0.5"/>
                </g>
                <g id="arrowRight" xlink:href="#dirArrow" transform="rotate(90) translate(36 -43)" onmousedown="handlePan(1,0)">
                  <use xlink:href="#rim" fill="#404040">
                        <set attributeName="fill" to="#808080" begin="arrowRight.mouseover" end="arrowRight.mouseout"/>
                  </use>
                  <path fill="none" stroke="white" stroke-width="1.5" d="M0,-3.0v7 M-2.5,-0.5L0,-3.0L2.5,-0.5"/>
                </g>
                <g id="arrowDown" xlink:href="#dirArrow" transform="rotate(180) translate(-30 -48)" onmousedown="handlePan(0,1)">
                  <use xlink:href="#rim" fill="#404040">
                        <set attributeName="fill" to="#808080" begin="arrowDown.mouseover" end="arrowDown.mouseout"/>
                  </use>
                  <path fill="none" stroke="white" stroke-width="1.5" d="M0,-3.0v7 M-2.5,-0.5L0,-3.0L2.5,-0.5"/>
                </g>
                <g id="arrowLeft" xlink:href="#dirArrow" transform="rotate(270) translate(-36 17)" onmousedown="handlePan(-1,0)">
                  <use xlink:href="#rim" fill="#404040">
                        <set attributeName="fill" to="#808080" begin="arrowLeft.mouseover" end="arrowLeft.mouseout"/>
                  </use>
                  <path fill="none" stroke="white" stroke-width="1.5" d="M0,-3.0v7 M-2.5,-0.5L0,-3.0L2.5,-0.5"/>
                </g>
        </g>
        <svg viewBox="0 0 15 15" width="100%" height="30px" preserveAspectRatio="xMaxYMin meet">
         <g id="arrow_out" transform="scale(0.3 0.3)">
          <a xlink:href="quickjs_8c_a8a02cfc587edc36995bda62a0160269c_icgraph_org.svg" target="_base">
           <rect id="button" ry="5" rx="5" y="6" x="6" height="38" width="38"
                fill="#f2f5e9" fill-opacity="0.5" stroke="#606060" stroke-width="1.0"/>
           <path id="arrow"
             d="M 11.500037,31.436501 C 11.940474,20.09759 22.043105,11.32322 32.158766,21.979434 L 37.068811,17.246167 C 37.068811,17.246167 37.088388,32 37.088388,32 L 22.160133,31.978069 C 22.160133,31.978069 26.997745,27.140456 26.997745,27.140456 C 18.528582,18.264221 13.291696,25.230495 11.500037,31.436501 z"
             style="fill:#404040;"/>
          </a>
         </g>
        </svg>
</svg>
