<?xml version="1.0" encoding="UTF-8" standalone="no"?>
<!DOCTYPE svg PUBLIC "-//W3C//DTD SVG 1.1//EN"
 "http://www.w3.org/Graphics/SVG/1.1/DTD/svg11.dtd">
<!-- Generated by graphviz version 2.40.1 (20161225.0304)
 -->
<!-- Title: __js_poll_interrupts Pages: 1 -->
<svg width="685pt" height="155pt"
 viewBox="0.00 0.00 685.00 154.62" xmlns="http://www.w3.org/2000/svg" xmlns:xlink="http://www.w3.org/1999/xlink">
<g id="graph0" class="graph" transform="scale(1 1) rotate(0) translate(4 150.6189)">
<title>__js_poll_interrupts</title>
<!-- Node284502 -->
<g id="node1" class="node">
<title>Node284502</title>
<polygon fill="#bfbfbf" stroke="#000000" points="0,-13.1189 0,-32.1189 101,-32.1189 101,-13.1189 0,-13.1189"/>
<text text-anchor="middle" x="50.5" y="-20.1189" font-family="Helvetica,sans-Serif" font-size="10.00" fill="#000000">__js_poll_interrupts</text>
</g>
<!-- Node284503 -->
<g id="node2" class="node">
<title>Node284503</title>
<g id="a_node2"><a xlink:href="quickjs_8c.html#a246e337d6566552736209730827c0871" target="_top" xlink:title="js_poll_interrupts">
<polygon fill="none" stroke="#000000" points="137,-13.1189 137,-32.1189 227,-32.1189 227,-13.1189 137,-13.1189"/>
<text text-anchor="middle" x="182" y="-20.1189" font-family="Helvetica,sans-Serif" font-size="10.00" fill="#000000">js_poll_interrupts</text>
</a>
</g>
</g>
<!-- Node284502&#45;&gt;Node284503 -->
<g id="edge1" class="edge">
<title>Node284502&#45;&gt;Node284503</title>
<path fill="none" stroke="#191970" d="M111.3428,-22.6189C119.9367,-22.6189 128.6431,-22.6189 136.8702,-22.6189"/>
<polygon fill="#191970" stroke="#191970" points="111.3414,-19.119 101.3413,-22.6189 111.3413,-26.119 111.3414,-19.119"/>
</g>
<!-- Node284504 -->
<g id="node3" class="node">
<title>Node284504</title>
<g id="a_node3"><a xlink:href="quickjs_8c.html#ac2894ff4edcdb4e6841bcce9c76081e3" target="_top" xlink:title="JS_CallInternal">
<polygon fill="none" stroke="#000000" points="263,-51.1189 263,-70.1189 346,-70.1189 346,-51.1189 263,-51.1189"/>
<text text-anchor="middle" x="304.5" y="-58.1189" font-family="Helvetica,sans-Serif" font-size="10.00" fill="#000000">JS_CallInternal</text>
</a>
</g>
</g>
<!-- Node284503&#45;&gt;Node284504 -->
<g id="edge2" class="edge">
<title>Node284503&#45;&gt;Node284504</title>
<path fill="none" stroke="#191970" d="M222.8777,-35.2994C239.4294,-40.4338 258.2211,-46.263 273.598,-51.033"/>
<polygon fill="#191970" stroke="#191970" points="223.4999,-31.8279 212.9119,-32.2079 221.426,-38.5136 223.4999,-31.8279"/>
</g>
<!-- Node284591 -->
<g id="node6" class="node">
<title>Node284591</title>
<g id="a_node6"><a xlink:href="quickjs_8c.html#ad35594576a14c10812efaf958c99af8a" target="_top" xlink:title="JS_CallConstructorInternal">
<polygon fill="none" stroke="#ff0000" points="382,-13.1189 382,-32.1189 516,-32.1189 516,-13.1189 382,-13.1189"/>
<text text-anchor="middle" x="449" y="-20.1189" font-family="Helvetica,sans-Serif" font-size="10.00" fill="#000000">JS_CallConstructorInternal</text>
</a>
</g>
</g>
<!-- Node284503&#45;&gt;Node284591 -->
<g id="edge12" class="edge">
<title>Node284503&#45;&gt;Node284591</title>
<path fill="none" stroke="#191970" d="M237.3403,-22.6189C279.3389,-22.6189 337.2685,-22.6189 381.9074,-22.6189"/>
<polygon fill="#191970" stroke="#191970" points="237.2929,-19.119 227.2929,-22.6189 237.2929,-26.119 237.2929,-19.119"/>
</g>
<!-- Node285074 -->
<g id="node8" class="node">
<title>Node285074</title>
<g id="a_node8"><a xlink:href="quickjs_8c.html#abec3cc345c6b3c1be76a0dc63fd7fa2f" target="_top" xlink:title="js_proxy_getPrototypeOf">
<polygon fill="none" stroke="#ff0000" points="552,-13.1189 552,-32.1189 677,-32.1189 677,-13.1189 552,-13.1189"/>
<text text-anchor="middle" x="614.5" y="-20.1189" font-family="Helvetica,sans-Serif" font-size="10.00" fill="#000000">js_proxy_getPrototypeOf</text>
</a>
</g>
</g>
<!-- Node284503&#45;&gt;Node285074 -->
<g id="edge13" class="edge">
<title>Node284503&#45;&gt;Node285074</title>
<path fill="none" stroke="#191970" d="M237.4179,-14.3227C303.7605,-5.579 418.1756,5.7297 516,-3.6189 535.4174,-5.4746 556.6981,-9.3432 574.4951,-13.1084"/>
<polygon fill="#191970" stroke="#191970" points="236.636,-10.8963 227.1929,-15.7004 237.5708,-17.8336 236.636,-10.8963"/>
</g>
<!-- Node284504&#45;&gt;Node284504 -->
<g id="edge11" class="edge">
<title>Node284504&#45;&gt;Node284504</title>
<path fill="none" stroke="#191970" d="M281.8066,-79.6481C283.0445,-84.7469 290.6089,-88.6189 304.5,-88.6189 326.1836,-88.6189 332.4515,-79.1842 323.3037,-70.376"/>
<polygon fill="#191970" stroke="#191970" points="285.0553,-80.9514 285.6963,-70.376 278.6003,-78.2435 285.0553,-80.9514"/>
</g>
<!-- Node284505 -->
<g id="node4" class="node">
<title>Node284505</title>
<g id="a_node4"><a xlink:href="quickjs_8c.html#ade71a22dc56e7371392393df663b28b3" target="_top" xlink:title="async_func_resume">
<polygon fill="none" stroke="#ff0000" points="397,-127.1189 397,-146.1189 501,-146.1189 501,-127.1189 397,-127.1189"/>
<text text-anchor="middle" x="449" y="-134.1189" font-family="Helvetica,sans-Serif" font-size="10.00" fill="#000000">async_func_resume</text>
</a>
</g>
</g>
<!-- Node284504&#45;&gt;Node284505 -->
<g id="edge3" class="edge">
<title>Node284504&#45;&gt;Node284505</title>
<path fill="none" stroke="#191970" d="M323.1674,-77.3507C338.1367,-89.993 360.1804,-106.9376 382,-117.6189 389.7101,-121.3933 398.2971,-124.5355 406.6815,-127.1059"/>
<polygon fill="#191970" stroke="#191970" points="325.08,-74.3774 315.2264,-70.4841 320.5014,-79.6724 325.08,-74.3774"/>
</g>
<!-- Node284517 -->
<g id="node5" class="node">
<title>Node284517</title>
<g id="a_node5"><a xlink:href="quickjs_8c.html#a1a4c02a29525d5cb2085dd8bca3af350" target="_top" xlink:title="JS_Call">
<polygon fill="none" stroke="#ff0000" points="423.5,-89.1189 423.5,-108.1189 474.5,-108.1189 474.5,-89.1189 423.5,-89.1189"/>
<text text-anchor="middle" x="449" y="-96.1189" font-family="Helvetica,sans-Serif" font-size="10.00" fill="#000000">JS_Call</text>
</a>
</g>
</g>
<!-- Node284504&#45;&gt;Node284517 -->
<g id="edge4" class="edge">
<title>Node284504&#45;&gt;Node284517</title>
<path fill="none" stroke="#191970" d="M356.3524,-67.7499C382.197,-73.9099 411.8346,-82.3074 430.4855,-89.0557"/>
<polygon fill="#191970" stroke="#191970" points="356.8269,-64.2673 346.2954,-65.4241 355.2497,-71.0873 356.8269,-64.2673"/>
</g>
<!-- Node284504&#45;&gt;Node284591 -->
<g id="edge6" class="edge">
<title>Node284504&#45;&gt;Node284591</title>
<path fill="none" stroke="#191970" d="M332.6409,-47.7418C348.2258,-42.6042 368.2462,-36.9362 387.272,-32.1659"/>
<polygon fill="#191970" stroke="#191970" points="331.412,-44.4632 323.095,-51.0266 333.6897,-51.0823 331.412,-44.4632"/>
</g>
<!-- Node284605 -->
<g id="node7" class="node">
<title>Node284605</title>
<g id="a_node7"><a xlink:href="quickjs_8c.html#a75f6ee5e4235a7dc99889f3d2eb2c147" target="_top" xlink:title="JS_CallFree">
<polygon fill="none" stroke="#ff0000" points="413.5,-51.1189 413.5,-70.1189 484.5,-70.1189 484.5,-51.1189 413.5,-51.1189"/>
<text text-anchor="middle" x="449" y="-58.1189" font-family="Helvetica,sans-Serif" font-size="10.00" fill="#000000">JS_CallFree</text>
</a>
</g>
</g>
<!-- Node284504&#45;&gt;Node284605 -->
<g id="edge8" class="edge">
<title>Node284504&#45;&gt;Node284605</title>
<path fill="none" stroke="#191970" d="M356.4963,-54.1104C375.2911,-53.6512 396.0752,-53.847 413.1736,-54.6979"/>
<polygon fill="#191970" stroke="#191970" points="356.1798,-50.6186 346.2954,-54.4329 356.401,-57.6151 356.1798,-50.6186"/>
</g>
<!-- Node284517&#45;&gt;Node284504 -->
<g id="edge5" class="edge">
<title>Node284517&#45;&gt;Node284504</title>
<path fill="none" stroke="#191970" d="M413.4088,-95.1686C384.8289,-89.088 345.8374,-78.4318 323.095,-70.2113"/>
<polygon fill="#191970" stroke="#191970" points="412.923,-98.6411 423.4179,-97.1889 414.3081,-91.7795 412.923,-98.6411"/>
</g>
<!-- Node284591&#45;&gt;Node284504 -->
<g id="edge7" class="edge">
<title>Node284591&#45;&gt;Node284504</title>
<path fill="none" stroke="#191970" d="M420.7961,-35.5168C399.5982,-42.5014 370.2201,-50.4622 346.2954,-55.8138"/>
<polygon fill="#191970" stroke="#191970" points="422.1689,-38.7459 430.4855,-32.1822 419.8909,-32.127 422.1689,-38.7459"/>
</g>
<!-- Node284605&#45;&gt;Node284504 -->
<g id="edge9" class="edge">
<title>Node284605&#45;&gt;Node284504</title>
<path fill="none" stroke="#191970" d="M403.0774,-66.9537C384.869,-67.5531 364.0761,-67.5035 346.2954,-66.8049"/>
<polygon fill="#191970" stroke="#191970" points="403.3253,-70.4466 413.1736,-66.54 403.0386,-63.4525 403.3253,-70.4466"/>
</g>
<!-- Node284605&#45;&gt;Node285074 -->
<g id="edge10" class="edge">
<title>Node284605&#45;&gt;Node285074</title>
<path fill="none" stroke="#191970" d="M494.3023,-50.2172C518.85,-44.5809 548.9694,-37.6652 572.9168,-32.1667"/>
<polygon fill="#191970" stroke="#191970" points="493.467,-46.8178 484.5039,-52.467 495.0336,-53.6403 493.467,-46.8178"/>
</g>
</g>
</svg>
