<?xml version="1.0" encoding="UTF-8" standalone="no"?>
<!DOCTYPE svg PUBLIC "-//W3C//DTD SVG 1.1//EN"
 "http://www.w3.org/Graphics/SVG/1.1/DTD/svg11.dtd">
<!-- Generated by graphviz version 2.40.1 (20161225.0304)
 -->
<!-- Title: shape_initial_hash Pages: 1 -->
<svg width="912pt" height="782pt"
 viewBox="0.00 0.00 912.00 781.73" xmlns="http://www.w3.org/2000/svg" xmlns:xlink="http://www.w3.org/1999/xlink">
<g id="graph0" class="graph" transform="scale(1 1) rotate(0) translate(4 777.7274)">
<title>shape_initial_hash</title>
<!-- Node118210 -->
<g id="node1" class="node">
<title>Node118210</title>
<polygon fill="#bfbfbf" stroke="#000000" points="0,-423 0,-442 97,-442 97,-423 0,-423"/>
<text text-anchor="middle" x="48.5" y="-430" font-family="Helvetica,sans-Serif" font-size="10.00" fill="#000000">shape_initial_hash</text>
</g>
<!-- Node118211 -->
<g id="node2" class="node">
<title>Node118211</title>
<g id="a_node2"><a xlink:href="quickjs_8c.html#aad24bdf2bcbb0ce55462fe6074dac8a5" target="_top" xlink:title="find_hashed_shape_proto">
<polygon fill="none" stroke="#000000" points="253,-404 253,-423 381,-423 381,-404 253,-404"/>
<text text-anchor="middle" x="317" y="-411" font-family="Helvetica,sans-Serif" font-size="10.00" fill="#000000">find_hashed_shape_proto</text>
</a>
</g>
</g>
<!-- Node118210&#45;&gt;Node118211 -->
<g id="edge1" class="edge">
<title>Node118210&#45;&gt;Node118211</title>
<path fill="none" stroke="#191970" d="M107.1394,-428.3505C150.0756,-425.3122 208.3228,-421.1904 252.5595,-418.06"/>
<polygon fill="#191970" stroke="#191970" points="106.8513,-424.862 97.1233,-429.0592 107.3455,-431.8446 106.8513,-424.862"/>
</g>
<!-- Node118814 -->
<g id="node24" class="node">
<title>Node118814</title>
<g id="a_node24"><a xlink:href="quickjs_8c.html#a1030d2020be7d911eb62869f21cc3b70" target="_top" xlink:title="js_new_shape2">
<polygon fill="none" stroke="#000000" points="133,-442 133,-461 217,-461 217,-442 133,-442"/>
<text text-anchor="middle" x="175" y="-449" font-family="Helvetica,sans-Serif" font-size="10.00" fill="#000000">js_new_shape2</text>
</a>
</g>
</g>
<!-- Node118210&#45;&gt;Node118814 -->
<g id="edge31" class="edge">
<title>Node118210&#45;&gt;Node118814</title>
<path fill="none" stroke="#191970" d="M107.1735,-441.3126C115.8796,-442.6203 124.702,-443.9454 132.9762,-445.1881"/>
<polygon fill="#191970" stroke="#191970" points="107.4554,-437.8158 97.0464,-439.7916 106.4156,-444.7381 107.4554,-437.8158"/>
</g>
<!-- Node118212 -->
<g id="node3" class="node">
<title>Node118212</title>
<g id="a_node3"><a xlink:href="quickjs_8c.html#a73738c650f11459db0d7af3dcdf8316b" target="_top" xlink:title="JS_NewObjectProtoClass">
<polygon fill="none" stroke="#000000" points="417,-404 417,-423 548,-423 548,-404 417,-404"/>
<text text-anchor="middle" x="482.5" y="-411" font-family="Helvetica,sans-Serif" font-size="10.00" fill="#000000">JS_NewObjectProtoClass</text>
</a>
</g>
</g>
<!-- Node118211&#45;&gt;Node118212 -->
<g id="edge2" class="edge">
<title>Node118211&#45;&gt;Node118212</title>
<path fill="none" stroke="#191970" d="M391.6382,-413.5C400.0474,-413.5 408.5694,-413.5 416.8523,-413.5"/>
<polygon fill="#191970" stroke="#191970" points="391.4606,-410.0001 381.4605,-413.5 391.4605,-417.0001 391.4606,-410.0001"/>
</g>
<!-- Node118213 -->
<g id="node4" class="node">
<title>Node118213</title>
<g id="a_node4"><a xlink:href="quickjs_8c.html#a659dc0db7e440fd6eb012d613627faa3" target="_top" xlink:title="JS_NewObjectClass">
<polygon fill="none" stroke="#ff0000" points="600,-556 600,-575 708,-575 708,-556 600,-556"/>
<text text-anchor="middle" x="654" y="-563" font-family="Helvetica,sans-Serif" font-size="10.00" fill="#000000">JS_NewObjectClass</text>
</a>
</g>
</g>
<!-- Node118212&#45;&gt;Node118213 -->
<g id="edge3" class="edge">
<title>Node118212&#45;&gt;Node118213</title>
<path fill="none" stroke="#191970" d="M491.6989,-432.3607C506.8409,-461.3922 539.7993,-516.7779 584,-546.5 589.7473,-550.3647 596.2561,-553.4458 602.934,-555.9016"/>
<polygon fill="#191970" stroke="#191970" points="494.7382,-430.6152 487.0968,-423.2763 488.4937,-433.7787 494.7382,-430.6152"/>
</g>
<!-- Node118804 -->
<g id="node5" class="node">
<title>Node118804</title>
<g id="a_node5"><a xlink:href="quickjs_8c.html#a884d294acbf5be675ffc760e38bd0521" target="_top" xlink:title="JS_NewObjectProto">
<polygon fill="none" stroke="#ff0000" points="601,-644 601,-663 707,-663 707,-644 601,-644"/>
<text text-anchor="middle" x="654" y="-651" font-family="Helvetica,sans-Serif" font-size="10.00" fill="#000000">JS_NewObjectProto</text>
</a>
</g>
</g>
<!-- Node118212&#45;&gt;Node118804 -->
<g id="edge4" class="edge">
<title>Node118212&#45;&gt;Node118804</title>
<path fill="none" stroke="#191970" d="M485.794,-433.2843C494.063,-476.5714 519.8173,-580.1484 584,-634.5 588.901,-638.6503 594.6274,-641.901 600.6558,-644.4459"/>
<polygon fill="#191970" stroke="#191970" points="489.1957,-432.4248 483.9812,-423.2021 482.3062,-433.6637 489.1957,-432.4248"/>
</g>
<!-- Node118452 -->
<g id="node6" class="node">
<title>Node118452</title>
<g id="a_node6"><a xlink:href="quickjs_8c.html#a36322a209de4ef17f939e6d128578d7f" target="_top" xlink:title="js_op_define_class">
<polygon fill="none" stroke="#ff0000" points="782,-720 782,-739 882,-739 882,-720 782,-720"/>
<text text-anchor="middle" x="832" y="-727" font-family="Helvetica,sans-Serif" font-size="10.00" fill="#000000">js_op_define_class</text>
</a>
</g>
</g>
<!-- Node118212&#45;&gt;Node118452 -->
<g id="edge19" class="edge">
<title>Node118212&#45;&gt;Node118452</title>
<path fill="none" stroke="#191970" d="M485.4271,-433.4513C495.5741,-499.5761 531.5132,-709.5596 584,-748.5 653.5327,-800.0868 766.2739,-759.213 811.8897,-739.0657"/>
<polygon fill="#191970" stroke="#191970" points="488.8284,-432.533 483.8803,-423.1646 481.9062,-433.5739 488.8284,-432.533"/>
</g>
<!-- Node118367 -->
<g id="node7" class="node">
<title>Node118367</title>
<g id="a_node7"><a xlink:href="quickjs_8c.html#a7efb53c2f76fd5cc0e584449437ec09c" target="_top" xlink:title="JS_AddIntrinsicBasicObjects">
<polygon fill="none" stroke="#ff0000" points="760,-644 760,-663 904,-663 904,-644 760,-644"/>
<text text-anchor="middle" x="832" y="-651" font-family="Helvetica,sans-Serif" font-size="10.00" fill="#000000">JS_AddIntrinsicBasicObjects</text>
</a>
</g>
</g>
<!-- Node118212&#45;&gt;Node118367 -->
<g id="edge29" class="edge">
<title>Node118212&#45;&gt;Node118367</title>
<path fill="none" stroke="#191970" d="M487.1812,-433.1601C500.8175,-488.5954 542.1962,-643.9833 584,-672.5 654.9879,-720.9248 765.4691,-682.5832 811.1485,-663.1085"/>
<polygon fill="#191970" stroke="#191970" points="490.5242,-432.094 484.7668,-423.2001 483.7212,-433.7432 490.5242,-432.094"/>
</g>
<!-- Node118255 -->
<g id="node8" class="node">
<title>Node118255</title>
<g id="a_node8"><a xlink:href="quickjs_8c.html#a4c9489297c684663f30e517204a9ec14" target="_top" xlink:title="JS_AddIntrinsicBaseObjects">
<polygon fill="none" stroke="#ff0000" points="761,-480 761,-499 903,-499 903,-480 761,-480"/>
<text text-anchor="middle" x="832" y="-487" font-family="Helvetica,sans-Serif" font-size="10.00" fill="#000000">JS_AddIntrinsicBaseObjects</text>
</a>
</g>
</g>
<!-- Node118212&#45;&gt;Node118255 -->
<g id="edge30" class="edge">
<title>Node118212&#45;&gt;Node118255</title>
<path fill="none" stroke="#191970" d="M558.1707,-411.6491C606.4901,-412.3609 669.9773,-416.8445 724,-432.5 760.4504,-443.0631 798.7291,-466.7221 818.4585,-479.9988"/>
<polygon fill="#191970" stroke="#191970" points="558.1323,-408.1487 548.0989,-411.5518 558.0646,-415.1483 558.1323,-408.1487"/>
</g>
<!-- Node118807 -->
<g id="node9" class="node">
<title>Node118807</title>
<g id="a_node9"><a xlink:href="quickjs_8c.html#afc0d8ea75588216ec132a6e1655524a7" target="_top" xlink:title="JS_NewObject">
<polygon fill="none" stroke="#ff0000" points="612.5,-480 612.5,-499 695.5,-499 695.5,-480 612.5,-480"/>
<text text-anchor="middle" x="654" y="-487" font-family="Helvetica,sans-Serif" font-size="10.00" fill="#000000">JS_NewObject</text>
</a>
</g>
</g>
<!-- Node118212&#45;&gt;Node118807 -->
<g id="edge8" class="edge">
<title>Node118212&#45;&gt;Node118807</title>
<path fill="none" stroke="#191970" d="M505.5075,-428.5963C525.561,-441.2149 555.7759,-458.9523 584,-470.5 592.9741,-474.1717 602.8826,-477.3536 612.3515,-480.0081"/>
<polygon fill="#191970" stroke="#191970" points="507.3648,-425.6296 497.0524,-423.1993 503.5985,-431.53 507.3648,-425.6296"/>
</g>
<!-- Node118358 -->
<g id="node10" class="node">
<title>Node118358</title>
<g id="a_node10"><a xlink:href="quickjs_8c.html#a21cfe4c4fc9372dc0b95b37667cff0c9" target="_top" xlink:title="JS_NewCFunction3">
<polygon fill="none" stroke="#ff0000" points="602,-518 602,-537 706,-537 706,-518 602,-518"/>
<text text-anchor="middle" x="654" y="-525" font-family="Helvetica,sans-Serif" font-size="10.00" fill="#000000">JS_NewCFunction3</text>
</a>
</g>
</g>
<!-- Node118212&#45;&gt;Node118358 -->
<g id="edge11" class="edge">
<title>Node118212&#45;&gt;Node118358</title>
<path fill="none" stroke="#191970" d="M496.5946,-431.1715C514.6253,-452.6032 547.8719,-488.3537 584,-508.5 590.9288,-512.3637 598.6867,-515.4765 606.4459,-517.9739"/>
<polygon fill="#191970" stroke="#191970" points="499.0975,-428.7047 490.0408,-423.2068 493.6922,-433.1525 499.0975,-428.7047"/>
</g>
<!-- Node118369 -->
<g id="node11" class="node">
<title>Node118369</title>
<g id="a_node11"><a xlink:href="quickjs_8c.html#ac048b0ff95f3f0cb7c189e87f74df753" target="_top" xlink:title="JS_NewCFunctionData">
<polygon fill="none" stroke="#ff0000" points="594,-366 594,-385 714,-385 714,-366 594,-366"/>
<text text-anchor="middle" x="654" y="-373" font-family="Helvetica,sans-Serif" font-size="10.00" fill="#000000">JS_NewCFunctionData</text>
</a>
</g>
</g>
<!-- Node118212&#45;&gt;Node118369 -->
<g id="edge14" class="edge">
<title>Node118212&#45;&gt;Node118369</title>
<path fill="none" stroke="#191970" d="M535.5412,-401.7474C559.7913,-396.3742 588.1467,-390.0914 611.0345,-385.0201"/>
<polygon fill="#191970" stroke="#191970" points="534.7827,-398.3305 525.7767,-403.911 536.2971,-405.1648 534.7827,-398.3305"/>
</g>
<!-- Node118378 -->
<g id="node12" class="node">
<title>Node118378</title>
<g id="a_node12"><a xlink:href="quickjs_8c.html#aeafb37b03b5560171754f8c4505b0f6b" target="_top" xlink:title="JS_ThrowError2">
<polygon fill="none" stroke="#ff0000" points="610.5,-328 610.5,-347 697.5,-347 697.5,-328 610.5,-328"/>
<text text-anchor="middle" x="654" y="-335" font-family="Helvetica,sans-Serif" font-size="10.00" fill="#000000">JS_ThrowError2</text>
</a>
</g>
</g>
<!-- Node118212&#45;&gt;Node118378 -->
<g id="edge15" class="edge">
<title>Node118212&#45;&gt;Node118378</title>
<path fill="none" stroke="#191970" d="M505.5075,-398.4037C525.561,-385.7851 555.7759,-368.0477 584,-356.5 592.8576,-352.876 602.6254,-349.7291 611.9824,-347.0956"/>
<polygon fill="#191970" stroke="#191970" points="503.5985,-395.47 497.0524,-403.8007 507.3648,-401.3704 503.5985,-395.47"/>
</g>
<!-- Node118454 -->
<g id="node13" class="node">
<title>Node118454</title>
<g id="a_node13"><a xlink:href="quickjs_8c.html#a04d312757919ff6b4d79cd0c2c3e5bb2" target="_top" xlink:title="js_build_arguments">
<polygon fill="none" stroke="#ff0000" points="603.5,-290 603.5,-309 704.5,-309 704.5,-290 603.5,-290"/>
<text text-anchor="middle" x="654" y="-297" font-family="Helvetica,sans-Serif" font-size="10.00" fill="#000000">js_build_arguments</text>
</a>
</g>
</g>
<!-- Node118212&#45;&gt;Node118454 -->
<g id="edge16" class="edge">
<title>Node118212&#45;&gt;Node118454</title>
<path fill="none" stroke="#191970" d="M496.5946,-395.8285C514.6253,-374.3968 547.8719,-338.6463 584,-318.5 590.9288,-314.6363 598.6867,-311.5235 606.4459,-309.0261"/>
<polygon fill="#191970" stroke="#191970" points="493.6922,-393.8475 490.0408,-403.7932 499.0975,-398.2953 493.6922,-393.8475"/>
</g>
<!-- Node118426 -->
<g id="node14" class="node">
<title>Node118426</title>
<g id="a_node14"><a xlink:href="quickjs_8c.html#a1c459034f2971c4abc3a8d6d4693ef5f" target="_top" xlink:title="js_build_mapped_arguments">
<polygon fill="none" stroke="#ff0000" points="584,-252 584,-271 724,-271 724,-252 584,-252"/>
<text text-anchor="middle" x="654" y="-259" font-family="Helvetica,sans-Serif" font-size="10.00" fill="#000000">js_build_mapped_arguments</text>
</a>
</g>
</g>
<!-- Node118212&#45;&gt;Node118426 -->
<g id="edge17" class="edge">
<title>Node118212&#45;&gt;Node118426</title>
<path fill="none" stroke="#191970" d="M491.6989,-394.6393C506.8409,-365.6078 539.7993,-310.2221 584,-280.5 589.7473,-276.6353 596.2561,-273.5542 602.934,-271.0984"/>
<polygon fill="#191970" stroke="#191970" points="488.4937,-393.2213 487.0968,-403.7237 494.7382,-396.3848 488.4937,-393.2213"/>
</g>
<!-- Node118455 -->
<g id="node15" class="node">
<title>Node118455</title>
<g id="a_node15"><a xlink:href="quickjs_8c.html#aa40a5354bee3b56e05a71244910bcc78" target="_top" xlink:title="build_for_in_iterator">
<polygon fill="none" stroke="#ff0000" points="603.5,-214 603.5,-233 704.5,-233 704.5,-214 603.5,-214"/>
<text text-anchor="middle" x="654" y="-221" font-family="Helvetica,sans-Serif" font-size="10.00" fill="#000000">build_for_in_iterator</text>
</a>
</g>
</g>
<!-- Node118212&#45;&gt;Node118455 -->
<g id="edge18" class="edge">
<title>Node118212&#45;&gt;Node118455</title>
<path fill="none" stroke="#191970" d="M488.614,-393.8675C500.774,-358.1281 531.4496,-282.4558 584,-242.5 589.7137,-238.1557 596.3533,-234.804 603.2233,-232.2183"/>
<polygon fill="#191970" stroke="#191970" points="485.2151,-393.0007 485.431,-403.5933 491.8679,-395.178 485.2151,-393.0007"/>
</g>
<!-- Node118738 -->
<g id="node16" class="node">
<title>Node118738</title>
<g id="a_node16"><a xlink:href="quickjs_8c.html#a93dbf502b17d1328c524401335f60499" target="_top" xlink:title="js_create_from_ctor">
<polygon fill="none" stroke="#ff0000" points="602.5,-176 602.5,-195 705.5,-195 705.5,-176 602.5,-176"/>
<text text-anchor="middle" x="654" y="-183" font-family="Helvetica,sans-Serif" font-size="10.00" fill="#000000">js_create_from_ctor</text>
</a>
</g>
</g>
<!-- Node118212&#45;&gt;Node118738 -->
<g id="edge20" class="edge">
<title>Node118212&#45;&gt;Node118738</title>
<path fill="none" stroke="#191970" d="M486.3179,-393.9351C495.4523,-352.4755 522.5411,-255.4178 584,-204.5 589.3333,-200.0814 595.606,-196.6845 602.1683,-194.0741"/>
<polygon fill="#191970" stroke="#191970" points="482.8639,-393.3538 484.2456,-403.8582 489.716,-394.7849 482.8639,-393.3538"/>
</g>
<!-- Node118810 -->
<g id="node17" class="node">
<title>Node118810</title>
<g id="a_node17"><a xlink:href="quickjs_8c.html#a7068f4cd630e0bb554ea300ddb389715" target="_top" xlink:title="js_async_function_resolve\l_create">
<polygon fill="none" stroke="#ff0000" points="588,-126.5 588,-156.5 720,-156.5 720,-126.5 588,-126.5"/>
<text text-anchor="start" x="596" y="-144.5" font-family="Helvetica,sans-Serif" font-size="10.00" fill="#000000">js_async_function_resolve</text>
<text text-anchor="middle" x="654" y="-133.5" font-family="Helvetica,sans-Serif" font-size="10.00" fill="#000000">_create</text>
</a>
</g>
</g>
<!-- Node118212&#45;&gt;Node118810 -->
<g id="edge21" class="edge">
<title>Node118212&#45;&gt;Node118810</title>
<path fill="none" stroke="#191970" d="M485.1108,-393.7206C492.2464,-347.4355 516.2826,-231.1156 584,-166.5 588.0146,-162.6693 592.6555,-159.4202 597.599,-156.6653"/>
<polygon fill="#191970" stroke="#191970" points="481.6054,-393.5083 483.6446,-403.905 488.534,-394.5058 481.6054,-393.5083"/>
</g>
<!-- Node118811 -->
<g id="node18" class="node">
<title>Node118811</title>
<g id="a_node18"><a xlink:href="quickjs_8c.html#a2d91a9da16cf07ff3b9ec053b870c335" target="_top" xlink:title="js_create_module_function">
<polygon fill="none" stroke="#ff0000" points="587.5,-88 587.5,-107 720.5,-107 720.5,-88 587.5,-88"/>
<text text-anchor="middle" x="654" y="-95" font-family="Helvetica,sans-Serif" font-size="10.00" fill="#000000">js_create_module_function</text>
</a>
</g>
</g>
<!-- Node118212&#45;&gt;Node118811 -->
<g id="edge22" class="edge">
<title>Node118212&#45;&gt;Node118811</title>
<path fill="none" stroke="#191970" d="M486.6717,-393.9639C499.7836,-334.2921 541.8037,-156.0682 584,-116.5 588.1336,-112.6239 592.9769,-109.5234 598.1526,-107.0456"/>
<polygon fill="#191970" stroke="#191970" points="483.204,-393.4404 484.5045,-403.9551 490.0449,-394.9244 483.204,-393.4404"/>
</g>
<!-- Node118647 -->
<g id="node19" class="node">
<title>Node118647</title>
<g id="a_node19"><a xlink:href="quickjs_8c.html#ac6d5606ba25525b3a03981eefbe98e13" target="_top" xlink:title="js_function_bind">
<polygon fill="none" stroke="#000000" points="610.5,-50 610.5,-69 697.5,-69 697.5,-50 610.5,-50"/>
<text text-anchor="middle" x="654" y="-57" font-family="Helvetica,sans-Serif" font-size="10.00" fill="#000000">js_function_bind</text>
</a>
</g>
</g>
<!-- Node118212&#45;&gt;Node118647 -->
<g id="edge23" class="edge">
<title>Node118212&#45;&gt;Node118647</title>
<path fill="none" stroke="#191970" d="M485.9327,-393.6274C497.5402,-328.6311 537.2215,-123.9344 584,-78.5 591.2265,-71.4812 600.7723,-66.9937 610.4822,-64.1408"/>
<polygon fill="#191970" stroke="#191970" points="482.436,-393.3041 484.1501,-403.7593 489.3301,-394.5171 482.436,-393.3041"/>
</g>
<!-- Node118254 -->
<g id="node20" class="node">
<title>Node118254</title>
<g id="a_node20"><a xlink:href="quickjs_8c.html#ad25358fc5ae69ab218abde24d52b7767" target="_top" xlink:title="js_error_constructor">
<polygon fill="none" stroke="#000000" points="602.5,-442 602.5,-461 705.5,-461 705.5,-442 602.5,-442"/>
<text text-anchor="middle" x="654" y="-449" font-family="Helvetica,sans-Serif" font-size="10.00" fill="#000000">js_error_constructor</text>
</a>
</g>
</g>
<!-- Node118212&#45;&gt;Node118254 -->
<g id="edge24" class="edge">
<title>Node118212&#45;&gt;Node118254</title>
<path fill="none" stroke="#191970" d="M535.5412,-425.2526C559.7913,-430.6258 588.1467,-436.9086 611.0345,-441.9799"/>
<polygon fill="#191970" stroke="#191970" points="536.2971,-421.8352 525.7767,-423.089 534.7827,-428.6695 536.2971,-421.8352"/>
</g>
<!-- Node118812 -->
<g id="node21" class="node">
<title>Node118812</title>
<g id="a_node21"><a xlink:href="quickjs_8c.html#a57af8ddae60fbd0080e34d23ce2a04a6" target="_top" xlink:title="js_aggregate_error\l_constructor">
<polygon fill="none" stroke="#ff0000" points="605.5,-.5 605.5,-30.5 702.5,-30.5 702.5,-.5 605.5,-.5"/>
<text text-anchor="start" x="613.5" y="-18.5" font-family="Helvetica,sans-Serif" font-size="10.00" fill="#000000">js_aggregate_error</text>
<text text-anchor="middle" x="654" y="-7.5" font-family="Helvetica,sans-Serif" font-size="10.00" fill="#000000">_constructor</text>
</a>
</g>
</g>
<!-- Node118212&#45;&gt;Node118812 -->
<g id="edge26" class="edge">
<title>Node118212&#45;&gt;Node118812</title>
<path fill="none" stroke="#191970" d="M485.4168,-393.8152C496.0274,-324.6291 534.5576,-93.9221 584,-40.5 589.8728,-34.1545 597.4663,-29.4181 605.4776,-25.8831"/>
<polygon fill="#191970" stroke="#191970" points="481.94,-393.3992 483.9072,-403.8098 488.8615,-394.4447 481.94,-393.3992"/>
</g>
<!-- Node118813 -->
<g id="node22" class="node">
<title>Node118813</title>
<g id="a_node22"><a xlink:href="quickjs_8c.html#aabd74747b51e480d80dc19914e74a3a5" target="_top" xlink:title="js_proxy_constructor">
<polygon fill="none" stroke="#ff0000" points="600.5,-720 600.5,-739 707.5,-739 707.5,-720 600.5,-720"/>
<text text-anchor="middle" x="654" y="-727" font-family="Helvetica,sans-Serif" font-size="10.00" fill="#000000">js_proxy_constructor</text>
</a>
</g>
</g>
<!-- Node118212&#45;&gt;Node118813 -->
<g id="edge27" class="edge">
<title>Node118212&#45;&gt;Node118813</title>
<path fill="none" stroke="#191970" d="M483.6148,-433.3413C487.6058,-485.4133 505.5083,-627.3405 584,-705.5 590.3725,-711.8456 598.4938,-716.5153 606.9311,-719.9513"/>
<polygon fill="#191970" stroke="#191970" points="487.0916,-432.8773 482.9278,-423.135 480.1074,-433.3475 487.0916,-432.8773"/>
</g>
<!-- Node118375 -->
<g id="node23" class="node">
<title>Node118375</title>
<g id="a_node23"><a xlink:href="quickjs_8c.html#a37cac335cb6abd3c24e162ad57f418f1" target="_top" xlink:title="js_create_resolving\l_functions">
<polygon fill="none" stroke="#ff0000" points="603.5,-594.5 603.5,-624.5 704.5,-624.5 704.5,-594.5 603.5,-594.5"/>
<text text-anchor="start" x="611.5" y="-612.5" font-family="Helvetica,sans-Serif" font-size="10.00" fill="#000000">js_create_resolving</text>
<text text-anchor="middle" x="654" y="-601.5" font-family="Helvetica,sans-Serif" font-size="10.00" fill="#000000">_functions</text>
</a>
</g>
</g>
<!-- Node118212&#45;&gt;Node118375 -->
<g id="edge28" class="edge">
<title>Node118212&#45;&gt;Node118375</title>
<path fill="none" stroke="#191970" d="M488.9209,-432.7448C501.5825,-467.8506 533.047,-542.5261 584,-584.5 589.6773,-589.1769 596.2968,-593.0104 603.1573,-596.1444"/>
<polygon fill="#191970" stroke="#191970" points="492.1906,-431.4913 485.5944,-423.2003 485.5805,-433.7951 492.1906,-431.4913"/>
</g>
<!-- Node118804&#45;&gt;Node118452 -->
<g id="edge5" class="edge">
<title>Node118804&#45;&gt;Node118452</title>
<path fill="none" stroke="#191970" d="M686.0078,-667.1662C721.6818,-682.3978 778.4422,-706.6326 809.6392,-719.9527"/>
<polygon fill="#191970" stroke="#191970" points="687.115,-663.8334 676.5438,-663.1255 684.3662,-670.2711 687.115,-663.8334"/>
</g>
<!-- Node118804&#45;&gt;Node118367 -->
<g id="edge6" class="edge">
<title>Node118804&#45;&gt;Node118367</title>
<path fill="none" stroke="#191970" d="M717.6703,-653.5C731.3461,-653.5 745.8924,-653.5 759.8632,-653.5"/>
<polygon fill="#191970" stroke="#191970" points="717.4059,-650.0001 707.4059,-653.5 717.4058,-657.0001 717.4059,-650.0001"/>
</g>
<!-- Node118804&#45;&gt;Node118255 -->
<g id="edge7" class="edge">
<title>Node118804&#45;&gt;Node118255</title>
<path fill="none" stroke="#191970" d="M714.6112,-639.9159C717.8914,-638.3079 721.0482,-636.51 724,-634.5 777.9655,-597.752 815.5339,-524.9969 827.7249,-499.0056"/>
<polygon fill="#191970" stroke="#191970" points="712.9367,-636.8248 705.108,-643.9636 715.6798,-643.265 712.9367,-636.8248"/>
</g>
<!-- Node118807&#45;&gt;Node118367 -->
<g id="edge9" class="edge">
<title>Node118807&#45;&gt;Node118367</title>
<path fill="none" stroke="#191970" d="M705.3183,-499.1144C711.9159,-501.5668 718.3355,-504.6428 724,-508.5 777.9655,-545.248 815.5339,-618.0031 827.7249,-643.9944"/>
<polygon fill="#191970" stroke="#191970" points="706.184,-495.7155 695.5918,-495.9489 704.0177,-502.3719 706.184,-495.7155"/>
</g>
<!-- Node118807&#45;&gt;Node118255 -->
<g id="edge10" class="edge">
<title>Node118807&#45;&gt;Node118255</title>
<path fill="none" stroke="#191970" d="M706.0927,-489.5C723.2388,-489.5 742.6058,-489.5 760.9173,-489.5"/>
<polygon fill="#191970" stroke="#191970" points="705.7331,-486.0001 695.7331,-489.5 705.7331,-493.0001 705.7331,-486.0001"/>
</g>
<!-- Node118358&#45;&gt;Node118367 -->
<g id="edge12" class="edge">
<title>Node118358&#45;&gt;Node118367</title>
<path fill="none" stroke="#191970" d="M711.7996,-540.5713C716.0368,-542.315 720.1526,-544.2823 724,-546.5 769.5057,-572.73 809.5247,-622.8367 825.0897,-643.8495"/>
<polygon fill="#191970" stroke="#191970" points="712.9801,-537.2763 702.3867,-537.1006 710.5584,-543.8441 712.9801,-537.2763"/>
</g>
<!-- Node118358&#45;&gt;Node118255 -->
<g id="edge13" class="edge">
<title>Node118358&#45;&gt;Node118255</title>
<path fill="none" stroke="#191970" d="M708.7162,-515.819C733.959,-510.4301 763.5452,-504.1139 787.4061,-499.0201"/>
<polygon fill="#191970" stroke="#191970" points="707.9658,-512.4003 698.9169,-517.911 709.4273,-519.246 707.9658,-512.4003"/>
</g>
<!-- Node118254&#45;&gt;Node118255 -->
<g id="edge25" class="edge">
<title>Node118254&#45;&gt;Node118255</title>
<path fill="none" stroke="#191970" d="M708.7162,-463.181C733.959,-468.5699 763.5452,-474.8861 787.4061,-479.9799"/>
<polygon fill="#191970" stroke="#191970" points="709.4273,-459.754 698.9169,-461.089 707.9658,-466.5997 709.4273,-459.754"/>
</g>
<!-- Node118814&#45;&gt;Node118367 -->
<g id="edge34" class="edge">
<title>Node118814&#45;&gt;Node118367</title>
<path fill="none" stroke="#191970" d="M190.3145,-468.525C240.3042,-522.652 405.777,-690.6164 584,-748.5 643.1792,-767.7203 666.8411,-773.0859 724,-748.5 745.3713,-739.3075 742.8361,-726.2046 760,-710.5 779.5254,-692.6347 804.0027,-673.9716 818.8001,-663.0572"/>
<polygon fill="#191970" stroke="#191970" points="192.874,-466.1374 183.5428,-461.1195 187.7081,-470.8612 192.874,-466.1374"/>
</g>
<!-- Node118815 -->
<g id="node25" class="node">
<title>Node118815</title>
<g id="a_node25"><a xlink:href="quickjs_8c.html#ad6926e49955be5e10423f6df8d8cff3e" target="_top" xlink:title="js_new_shape">
<polygon fill="none" stroke="#000000" points="277.5,-442 277.5,-461 356.5,-461 356.5,-442 277.5,-442"/>
<text text-anchor="middle" x="317" y="-449" font-family="Helvetica,sans-Serif" font-size="10.00" fill="#000000">js_new_shape</text>
</a>
</g>
</g>
<!-- Node118814&#45;&gt;Node118815 -->
<g id="edge32" class="edge">
<title>Node118814&#45;&gt;Node118815</title>
<path fill="none" stroke="#191970" d="M227.2573,-451.5C243.7347,-451.5 261.6628,-451.5 277.1322,-451.5"/>
<polygon fill="#191970" stroke="#191970" points="227.2203,-448.0001 217.2202,-451.5 227.2202,-455.0001 227.2203,-448.0001"/>
</g>
<!-- Node118815&#45;&gt;Node118212 -->
<g id="edge33" class="edge">
<title>Node118815&#45;&gt;Node118212</title>
<path fill="none" stroke="#191970" d="M366.505,-440.1333C390.2109,-434.6902 418.2828,-428.2447 440.8726,-423.058"/>
<polygon fill="#191970" stroke="#191970" points="365.6045,-436.7489 356.6414,-442.3981 367.171,-443.5714 365.6045,-436.7489"/>
</g>
</g>
</svg>
