<?xml version="1.0" encoding="UTF-8" standalone="no"?>
<!DOCTYPE svg PUBLIC "-//W3C//DTD SVG 1.1//EN"
 "http://www.w3.org/Graphics/SVG/1.1/DTD/svg11.dtd">
<!-- Generated by graphviz version 2.40.1 (20161225.0304)
 -->
<!-- Title: js_random_init Pages: 1 -->
<svg width="391pt" height="28pt"
 viewBox="0.00 0.00 391.00 28.00" xmlns="http://www.w3.org/2000/svg" xmlns:xlink="http://www.w3.org/1999/xlink">
<g id="graph0" class="graph" transform="scale(1 1) rotate(0) translate(4 24)">
<title>js_random_init</title>
<!-- Node402376 -->
<g id="node1" class="node">
<title>Node402376</title>
<polygon fill="#bfbfbf" stroke="#000000" points="0,-.5 0,-19.5 80,-19.5 80,-.5 0,-.5"/>
<text text-anchor="middle" x="40" y="-7.5" font-family="Helvetica,sans-Serif" font-size="10.00" fill="#000000">js_random_init</text>
</g>
<!-- Node402377 -->
<g id="node2" class="node">
<title>Node402377</title>
<g id="a_node2"><a xlink:href="quickjs_8c.html#a4c9489297c684663f30e517204a9ec14" target="_top" xlink:title="JS_AddIntrinsicBaseObjects">
<polygon fill="none" stroke="#000000" points="116,-.5 116,-19.5 258,-19.5 258,-.5 116,-.5"/>
<text text-anchor="middle" x="187" y="-7.5" font-family="Helvetica,sans-Serif" font-size="10.00" fill="#000000">JS_AddIntrinsicBaseObjects</text>
</a>
</g>
</g>
<!-- Node402376&#45;&gt;Node402377 -->
<g id="edge1" class="edge">
<title>Node402376&#45;&gt;Node402377</title>
<path fill="none" stroke="#191970" d="M90.3123,-10C98.5308,-10 107.1801,-10 115.7876,-10"/>
<polygon fill="#191970" stroke="#191970" points="90.1684,-6.5001 80.1684,-10 90.1684,-13.5001 90.1684,-6.5001"/>
</g>
<!-- Node402378 -->
<g id="node3" class="node">
<title>Node402378</title>
<g id="a_node3"><a xlink:href="quickjs_8c.html#ad8aedb643b8753b7a15f6cb2df61945e" target="_top" xlink:title="JS_NewContext">
<polygon fill="none" stroke="#000000" points="294,-.5 294,-19.5 383,-19.5 383,-.5 294,-.5"/>
<text text-anchor="middle" x="338.5" y="-7.5" font-family="Helvetica,sans-Serif" font-size="10.00" fill="#000000">JS_NewContext</text>
</a>
</g>
</g>
<!-- Node402377&#45;&gt;Node402378 -->
<g id="edge2" class="edge">
<title>Node402377&#45;&gt;Node402378</title>
<path fill="none" stroke="#191970" d="M268.5534,-10C277.2595,-10 285.8628,-10 293.8995,-10"/>
<polygon fill="#191970" stroke="#191970" points="268.3138,-6.5001 258.3138,-10 268.3137,-13.5001 268.3138,-6.5001"/>
</g>
</g>
</svg>
