<?xml version="1.0" encoding="UTF-8" standalone="no"?>
<!DOCTYPE svg PUBLIC "-//W3C//DTD SVG 1.1//EN"
 "http://www.w3.org/Graphics/SVG/1.1/DTD/svg11.dtd">
<!-- Generated by graphviz version 2.40.1 (20161225.0304)
 -->
<!-- Title: js_function_constructor Pages: 1 -->
<svg width="429pt" height="66pt"
 viewBox="0.00 0.00 429.00 66.00" xmlns="http://www.w3.org/2000/svg" xmlns:xlink="http://www.w3.org/1999/xlink">
<g id="graph0" class="graph" transform="scale(1 1) rotate(0) translate(4 62)">
<title>js_function_constructor</title>
<!-- Node365523 -->
<g id="node1" class="node">
<title>Node365523</title>
<polygon fill="#bfbfbf" stroke="#000000" points="0,-19.5 0,-38.5 118,-38.5 118,-19.5 0,-19.5"/>
<text text-anchor="middle" x="59" y="-26.5" font-family="Helvetica,sans-Serif" font-size="10.00" fill="#000000">js_function_constructor</text>
</g>
<!-- Node365524 -->
<g id="node2" class="node">
<title>Node365524</title>
<g id="a_node2"><a xlink:href="quickjs_8c.html#a4c9489297c684663f30e517204a9ec14" target="_top" xlink:title="JS_AddIntrinsicBaseObjects">
<polygon fill="none" stroke="#000000" points="154,-38.5 154,-57.5 296,-57.5 296,-38.5 154,-38.5"/>
<text text-anchor="middle" x="225" y="-45.5" font-family="Helvetica,sans-Serif" font-size="10.00" fill="#000000">JS_AddIntrinsicBaseObjects</text>
</a>
</g>
</g>
<!-- Node365523&#45;&gt;Node365524 -->
<g id="edge1" class="edge">
<title>Node365523&#45;&gt;Node365524</title>
<path fill="none" stroke="#191970" d="M128.5236,-36.9575C136.8684,-37.9126 145.3999,-38.8891 153.7685,-39.847"/>
<polygon fill="#191970" stroke="#191970" points="128.7941,-33.4657 118.4609,-35.8058 127.998,-40.4203 128.7941,-33.4657"/>
</g>
<!-- Node365526 -->
<g id="node4" class="node">
<title>Node365526</title>
<g id="a_node4"><a xlink:href="quickjs_8c.html#a2e66fcf1bc1d19f346317f10ee590621" target="_top" xlink:title="JS_AddIntrinsicPromise">
<polygon fill="none" stroke="#000000" points="164,-.5 164,-19.5 286,-19.5 286,-.5 164,-.5"/>
<text text-anchor="middle" x="225" y="-7.5" font-family="Helvetica,sans-Serif" font-size="10.00" fill="#000000">JS_AddIntrinsicPromise</text>
</a>
</g>
</g>
<!-- Node365523&#45;&gt;Node365526 -->
<g id="edge3" class="edge">
<title>Node365523&#45;&gt;Node365526</title>
<path fill="none" stroke="#191970" d="M128.6578,-21.0271C140.3961,-19.6836 152.5,-18.2982 163.997,-16.9823"/>
<polygon fill="#191970" stroke="#191970" points="127.998,-17.5797 118.4609,-22.1942 128.7941,-24.5343 127.998,-17.5797"/>
</g>
<!-- Node365525 -->
<g id="node3" class="node">
<title>Node365525</title>
<g id="a_node3"><a xlink:href="quickjs_8c.html#ad8aedb643b8753b7a15f6cb2df61945e" target="_top" xlink:title="JS_NewContext">
<polygon fill="none" stroke="#000000" points="332,-19.5 332,-38.5 421,-38.5 421,-19.5 332,-19.5"/>
<text text-anchor="middle" x="376.5" y="-26.5" font-family="Helvetica,sans-Serif" font-size="10.00" fill="#000000">JS_NewContext</text>
</a>
</g>
</g>
<!-- Node365524&#45;&gt;Node365525 -->
<g id="edge2" class="edge">
<title>Node365524&#45;&gt;Node365525</title>
<path fill="none" stroke="#191970" d="M306.2695,-37.8078C315.0724,-36.7038 323.7754,-35.6123 331.8995,-34.5935"/>
<polygon fill="#191970" stroke="#191970" points="305.8005,-34.3391 296.3138,-39.0564 306.6716,-41.2847 305.8005,-34.3391"/>
</g>
<!-- Node365526&#45;&gt;Node365525 -->
<g id="edge4" class="edge">
<title>Node365526&#45;&gt;Node365525</title>
<path fill="none" stroke="#191970" d="M296.2988,-18.9418C308.4153,-20.4613 320.6841,-22 331.8596,-23.4015"/>
<polygon fill="#191970" stroke="#191970" points="296.542,-15.4449 286.1842,-17.6733 295.6709,-22.3905 296.542,-15.4449"/>
</g>
</g>
</svg>
