<?xml version="1.0" encoding="UTF-8" standalone="no"?>
<!DOCTYPE svg PUBLIC "-//W3C//DTD SVG 1.1//EN"
 "http://www.w3.org/Graphics/SVG/1.1/DTD/svg11.dtd">
<!-- Generated by graphviz version 2.40.1 (20161225.0304)
 -->
<!-- Title: add_var Pages: 1 -->
<svg width="308pt" height="104pt"
 viewBox="0.00 0.00 308.00 104.00" xmlns="http://www.w3.org/2000/svg" xmlns:xlink="http://www.w3.org/1999/xlink">
<g id="graph0" class="graph" transform="scale(1 1) rotate(0) translate(4 100)">
<title>add_var</title>
<!-- Node299549 -->
<g id="node1" class="node">
<title>Node299549</title>
<polygon fill="#bfbfbf" stroke="#000000" points="0,-38.5 0,-57.5 51,-57.5 51,-38.5 0,-38.5"/>
<text text-anchor="middle" x="25.5" y="-45.5" font-family="Helvetica,sans-Serif" font-size="10.00" fill="#000000">add_var</text>
</g>
<!-- Node299550 -->
<g id="node2" class="node">
<title>Node299550</title>
<g id="a_node2"><a xlink:href="quickjs_8c.html#a853f0924d441ea4225488f37c8b69f9a" target="_top" xlink:title="__attribute__">
<polygon fill="none" stroke="#000000" points="88,-76.5 88,-95.5 161,-95.5 161,-76.5 88,-76.5"/>
<text text-anchor="middle" x="124.5" y="-83.5" font-family="Helvetica,sans-Serif" font-size="10.00" fill="#000000">__attribute__</text>
</a>
</g>
</g>
<!-- Node299549&#45;&gt;Node299550 -->
<g id="edge1" class="edge">
<title>Node299549&#45;&gt;Node299550</title>
<path fill="none" stroke="#191970" d="M50.4819,-57.589C62.4411,-62.1794 76.9548,-67.7503 89.951,-72.7388"/>
<polygon fill="#191970" stroke="#191970" points="88.936,-76.0981 99.5261,-76.4141 91.4445,-69.563 88.936,-76.0981"/>
</g>
<!-- Node299551 -->
<g id="node3" class="node">
<title>Node299551</title>
<g id="a_node3"><a xlink:href="quickjs_8c.html#abbf44eaeace1104a6bef718fbf5700fe" target="_top" xlink:title="JS_DupAtom">
<polygon fill="none" stroke="#000000" points="87,-38.5 87,-57.5 162,-57.5 162,-38.5 87,-38.5"/>
<text text-anchor="middle" x="124.5" y="-45.5" font-family="Helvetica,sans-Serif" font-size="10.00" fill="#000000">JS_DupAtom</text>
</a>
</g>
</g>
<!-- Node299549&#45;&gt;Node299551 -->
<g id="edge2" class="edge">
<title>Node299549&#45;&gt;Node299551</title>
<path fill="none" stroke="#191970" d="M51.2526,-48C59.0765,-48 67.9377,-48 76.7262,-48"/>
<polygon fill="#191970" stroke="#191970" points="76.9434,-51.5001 86.9433,-48 76.9433,-44.5001 76.9434,-51.5001"/>
</g>
<!-- Node299553 -->
<g id="node5" class="node">
<title>Node299553</title>
<g id="a_node5"><a xlink:href="cutils_8h.html#a94f155fcce337a2b9d4719ed8042cbbe" target="_top" xlink:title="max_int">
<polygon fill="none" stroke="#000000" points="99,-.5 99,-19.5 150,-19.5 150,-.5 99,-.5"/>
<text text-anchor="middle" x="124.5" y="-7.5" font-family="Helvetica,sans-Serif" font-size="10.00" fill="#000000">max_int</text>
</a>
</g>
</g>
<!-- Node299549&#45;&gt;Node299553 -->
<g id="edge4" class="edge">
<title>Node299549&#45;&gt;Node299553</title>
<path fill="none" stroke="#191970" d="M50.4819,-38.411C62.4411,-33.8206 76.9548,-28.2497 89.951,-23.2612"/>
<polygon fill="#191970" stroke="#191970" points="91.4445,-26.437 99.5261,-19.5859 88.936,-19.9019 91.4445,-26.437"/>
</g>
<!-- Node299552 -->
<g id="node4" class="node">
<title>Node299552</title>
<g id="a_node4"><a xlink:href="quickjs_8c.html#a7f6796ee7a195631366f57c713a33f65" target="_top" xlink:title="__JS_AtomIsConst">
<polygon fill="none" stroke="#000000" points="198,-38.5 198,-57.5 300,-57.5 300,-38.5 198,-38.5"/>
<text text-anchor="middle" x="249" y="-45.5" font-family="Helvetica,sans-Serif" font-size="10.00" fill="#000000">__JS_AtomIsConst</text>
</a>
</g>
</g>
<!-- Node299551&#45;&gt;Node299552 -->
<g id="edge3" class="edge">
<title>Node299551&#45;&gt;Node299552</title>
<path fill="none" stroke="#191970" d="M162.192,-48C170.2167,-48 178.8899,-48 187.5426,-48"/>
<polygon fill="#191970" stroke="#191970" points="187.6508,-51.5001 197.6507,-48 187.6507,-44.5001 187.6508,-51.5001"/>
</g>
</g>
</svg>
