<?xml version="1.0" encoding="UTF-8" standalone="no"?>
<!DOCTYPE svg PUBLIC "-//W3C//DTD SVG 1.1//EN"
 "http://www.w3.org/Graphics/SVG/1.1/DTD/svg11.dtd">
<!-- Generated by graphviz version 2.40.1 (20161225.0304)
 -->
<!-- Title: bc_get_buf Pages: 1 -->
<!--zoomable 47 -->
<svg id="main" version="1.1" xmlns="http://www.w3.org/2000/svg" xmlns:xlink="http://www.w3.org/1999/xlink" xml:space="preserve" onload="init(evt)">
<style type="text/css"><![CDATA[
.edge:hover path { stroke: red; }
.edge:hover polygon { stroke: red; fill: red; }
]]></style>
<script type="text/javascript"><![CDATA[
var edges = document.getElementsByTagName('g');
if (edges && edges.length) {
  for (var i=0;i<edges.length;i++) {
    if (edges[i].id.substr(0,4)=='edge') {
      edges[i].setAttribute('class','edge');
    }
  }
}
]]></script>
        <defs>
                <circle id="rim" cx="0" cy="0" r="7"/>
                <circle id="rim2" cx="0" cy="0" r="3.5"/>
                <g id="zoomPlus">
                        <use xlink:href="#rim" fill="#404040">
                                <set attributeName="fill" to="#808080" begin="zoomplus.mouseover" end="zoomplus.mouseout"/>
                        </use>
                        <path d="M-4,0h8M0,-4v8" fill="none" stroke="white" stroke-width="1.5" pointer-events="none"/>
                </g>
                <g id="zoomMin">
                        <use xlink:href="#rim" fill="#404040">
                                <set attributeName="fill" to="#808080" begin="zoomminus.mouseover" end="zoomminus.mouseout"/>
                        </use>
                        <path d="M-4,0h8" fill="none" stroke="white" stroke-width="1.5" pointer-events="none"/>
                </g>
                <g id="dirArrow">
                        <path fill="none" stroke="white" stroke-width="1.5" d="M0,-3.0v7 M-2.5,-0.5L0,-3.0L2.5,-0.5"/>
                </g>
               <g id="resetDef">
                       <use xlink:href="#rim2" fill="#404040">
                               <set attributeName="fill" to="#808080" begin="reset.mouseover" end="reset.mouseout"/>
                       </use>
               </g>
        </defs>

<script type="text/javascript">
var viewWidth = 507;
var viewHeight = 47;
var sectionId = 'dynsection-1269';
</script>
<script xlink:href="svgpan.js"/>
<svg id="graph" class="graph">
<g id="viewport">
<title>bc_get_buf</title>
<!-- Node343656 -->
<g id="node1" class="node">
<title>Node343656</title>
<polygon fill="#bfbfbf" stroke="#000000" points="0,-.5 0,-19.5 65,-19.5 65,-.5 0,-.5"/>
<text text-anchor="middle" x="32.5" y="-7.5" font-family="Helvetica,sans-Serif" font-size="10.00" fill="#000000">bc_get_buf</text>
</g>
<!-- Node343657 -->
<g id="node2" class="node">
<title>Node343657</title>
<g id="a_node2"><a xlink:href="quickjs_8c.html#ab64e04b510d4c4073aa468fc0a3ac0b1" target="_top" xlink:title="JS_ReadFunctionBytecode">
<polygon fill="none" stroke="#000000" points="101,-19.5 101,-38.5 237,-38.5 237,-19.5 101,-19.5"/>
<text text-anchor="middle" x="169" y="-26.5" font-family="Helvetica,sans-Serif" font-size="10.00" fill="#000000">JS_ReadFunctionBytecode</text>
</a>
</g>
</g>
<!-- Node343656&#45;&gt;Node343657 -->
<g id="edge1" class="edge">
<title>Node343656&#45;&gt;Node343657</title>
<path fill="none" stroke="#191970" d="M75.2116,-15.9452C83.3952,-17.0843 92.1512,-18.3031 100.9039,-19.5214"/>
<polygon fill="#191970" stroke="#191970" points="75.5822,-12.4631 65.1952,-14.551 74.6171,-19.3963 75.5822,-12.4631"/>
</g>
<!-- Node343658 -->
<g id="node3" class="node">
<title>Node343658</title>
<g id="a_node3"><a xlink:href="quickjs_8c.html#a4b8ef2bb3b35e4a5f6ed8bd837a50e7c" target="_top" xlink:title="JS_ReadObjectRec">
<polygon fill="none" stroke="#000000" points="273,-.5 273,-19.5 377,-19.5 377,-.5 273,-.5"/>
<text text-anchor="middle" x="325" y="-7.5" font-family="Helvetica,sans-Serif" font-size="10.00" fill="#000000">JS_ReadObjectRec</text>
</a>
</g>
</g>
<!-- Node343656&#45;&gt;Node343658 -->
<g id="edge5" class="edge">
<title>Node343656&#45;&gt;Node343658</title>
<path fill="none" stroke="#191970" d="M75.5045,-10C127.9508,-10 216.5494,-10 272.8373,-10"/>
<polygon fill="#191970" stroke="#191970" points="75.2021,-6.5001 65.2021,-10 75.202,-13.5001 75.2021,-6.5001"/>
</g>
<!-- Node343657&#45;&gt;Node343658 -->
<g id="edge2" class="edge">
<title>Node343657&#45;&gt;Node343658</title>
<path fill="none" stroke="#191970" d="M247.4164,-19.4493C255.9468,-18.4103 264.4706,-17.3722 272.5796,-16.3845"/>
<polygon fill="#191970" stroke="#191970" points="246.9273,-15.9829 237.4239,-20.6663 247.7737,-22.9315 246.9273,-15.9829"/>
</g>
<!-- Node343658&#45;&gt;Node343658 -->
<g id="edge3" class="edge">
<title>Node343658&#45;&gt;Node343658</title>
<path fill="none" stroke="#191970" d="M300.8186,-29.0292C302.1376,-34.128 310.1981,-38 325,-38 348.1055,-38 354.7844,-28.5653 345.0368,-19.7571"/>
<polygon fill="#191970" stroke="#191970" points="304.0776,-30.3148 304.9632,-19.7571 297.687,-27.4582 304.0776,-30.3148"/>
</g>
<!-- Node343659 -->
<g id="node4" class="node">
<title>Node343659</title>
<g id="a_node4"><a xlink:href="quickjs_8c.html#a12be2ea9c010752715072489497594e9" target="_top" xlink:title="JS_ReadObject">
<polygon fill="none" stroke="#ff0000" points="413,-.5 413,-19.5 499,-19.5 499,-.5 413,-.5"/>
<text text-anchor="middle" x="456" y="-7.5" font-family="Helvetica,sans-Serif" font-size="10.00" fill="#000000">JS_ReadObject</text>
</a>
</g>
</g>
<!-- Node343658&#45;&gt;Node343659 -->
<g id="edge4" class="edge">
<title>Node343658&#45;&gt;Node343659</title>
<path fill="none" stroke="#191970" d="M387.2525,-10C395.9182,-10 404.66,-10 412.8689,-10"/>
<polygon fill="#191970" stroke="#191970" points="387.1511,-6.5001 377.1511,-10 387.151,-13.5001 387.1511,-6.5001"/>
</g>
</g>
</svg>
        <g id="navigator" transform="translate(0 0)" fill="#404254">
                <rect fill="#f2f5e9" fill-opacity="0.5" stroke="#606060" stroke-width=".5" x="0" y="0" width="60" height="60"/>
                <use id="zoomplus" xlink:href="#zoomPlus" x="17" y="9" onmousedown="handleZoom(evt,'in')"/>
                <use id="zoomminus" xlink:href="#zoomMin" x="42" y="9" onmousedown="handleZoom(evt,'out')"/>
                <use id="reset" xlink:href="#resetDef" x="30" y="36" onmousedown="handleReset()"/>
                <g id="arrowUp" xlink:href="#dirArrow" transform="translate(30 24)" onmousedown="handlePan(0,-1)">
                  <use xlink:href="#rim" fill="#404040">
                        <set attributeName="fill" to="#808080" begin="arrowUp.mouseover" end="arrowUp.mouseout"/>
                  </use>
                  <path fill="none" stroke="white" stroke-width="1.5" d="M0,-3.0v7 M-2.5,-0.5L0,-3.0L2.5,-0.5"/>
                </g>
                <g id="arrowRight" xlink:href="#dirArrow" transform="rotate(90) translate(36 -43)" onmousedown="handlePan(1,0)">
                  <use xlink:href="#rim" fill="#404040">
                        <set attributeName="fill" to="#808080" begin="arrowRight.mouseover" end="arrowRight.mouseout"/>
                  </use>
                  <path fill="none" stroke="white" stroke-width="1.5" d="M0,-3.0v7 M-2.5,-0.5L0,-3.0L2.5,-0.5"/>
                </g>
                <g id="arrowDown" xlink:href="#dirArrow" transform="rotate(180) translate(-30 -48)" onmousedown="handlePan(0,1)">
                  <use xlink:href="#rim" fill="#404040">
                        <set attributeName="fill" to="#808080" begin="arrowDown.mouseover" end="arrowDown.mouseout"/>
                  </use>
                  <path fill="none" stroke="white" stroke-width="1.5" d="M0,-3.0v7 M-2.5,-0.5L0,-3.0L2.5,-0.5"/>
                </g>
                <g id="arrowLeft" xlink:href="#dirArrow" transform="rotate(270) translate(-36 17)" onmousedown="handlePan(-1,0)">
                  <use xlink:href="#rim" fill="#404040">
                        <set attributeName="fill" to="#808080" begin="arrowLeft.mouseover" end="arrowLeft.mouseout"/>
                  </use>
                  <path fill="none" stroke="white" stroke-width="1.5" d="M0,-3.0v7 M-2.5,-0.5L0,-3.0L2.5,-0.5"/>
                </g>
        </g>
        <svg viewBox="0 0 15 15" width="100%" height="30px" preserveAspectRatio="xMaxYMin meet">
         <g id="arrow_out" transform="scale(0.3 0.3)">
          <a xlink:href="quickjs_8c_a5b9cc9e01f251602d29fa6ef7a058375_icgraph_org.svg" target="_base">
           <rect id="button" ry="5" rx="5" y="6" x="6" height="38" width="38"
                fill="#f2f5e9" fill-opacity="0.5" stroke="#606060" stroke-width="1.0"/>
           <path id="arrow"
             d="M 11.500037,31.436501 C 11.940474,20.09759 22.043105,11.32322 32.158766,21.979434 L 37.068811,17.246167 C 37.068811,17.246167 37.088388,32 37.088388,32 L 22.160133,31.978069 C 22.160133,31.978069 26.997745,27.140456 26.997745,27.140456 C 18.528582,18.264221 13.291696,25.230495 11.500037,31.436501 z"
             style="fill:#404040;"/>
          </a>
         </g>
        </svg>
</svg>
