<?xml version="1.0" encoding="UTF-8" standalone="no"?>
<!DOCTYPE svg PUBLIC "-//W3C//DTD SVG 1.1//EN"
 "http://www.w3.org/Graphics/SVG/1.1/DTD/svg11.dtd">
<!-- Generated by graphviz version 2.40.1 (20161225.0304)
 -->
<!-- Title: JS_GetPropertyInternal Pages: 1 -->
<svg width="1207pt" height="957pt"
 viewBox="0.00 0.00 1207.00 956.87" xmlns="http://www.w3.org/2000/svg" xmlns:xlink="http://www.w3.org/1999/xlink">
<g id="graph0" class="graph" transform="scale(1 1) rotate(0) translate(4 952.8728)">
<title>JS_GetPropertyInternal</title>
<!-- Node170451 -->
<g id="node1" class="node">
<title>Node170451</title>
<polygon fill="#bfbfbf" stroke="#000000" points="0,-806.3728 0,-825.3728 119,-825.3728 119,-806.3728 0,-806.3728"/>
<text text-anchor="middle" x="59.5" y="-813.3728" font-family="Helvetica,sans-Serif" font-size="10.00" fill="#000000">JS_GetPropertyInternal</text>
</g>
<!-- Node170452 -->
<g id="node2" class="node">
<title>Node170452</title>
<g id="a_node2"><a xlink:href="quickjs_8c.html#ac2894ff4edcdb4e6841bcce9c76081e3" target="_top" xlink:title="JS_CallInternal">
<polygon fill="none" stroke="#000000" points="634,-588.3728 634,-607.3728 717,-607.3728 717,-588.3728 634,-588.3728"/>
<text text-anchor="middle" x="675.5" y="-595.3728" font-family="Helvetica,sans-Serif" font-size="10.00" fill="#000000">JS_CallInternal</text>
</a>
</g>
</g>
<!-- Node170451&#45;&gt;Node170452 -->
<g id="edge1" class="edge">
<title>Node170451&#45;&gt;Node170452</title>
<path fill="none" stroke="#191970" d="M129.6471,-821.1005C165.0456,-822.418 208.5277,-822.0188 247,-815.8728 407.1646,-790.2864 454.3773,-777.8094 588,-685.8728 621.9013,-662.5476 653.9229,-625.0423 667.9983,-607.5003"/>
<polygon fill="#191970" stroke="#191970" points="129.5533,-817.5935 119.4133,-820.6641 129.255,-824.5871 129.5533,-817.5935"/>
</g>
<!-- Node170724 -->
<g id="node12" class="node">
<title>Node170724</title>
<g id="a_node12"><a xlink:href="quickjs_8c.html#a45df491949e8e055e732eb13c446d47b" target="_top" xlink:title="js_proxy_get">
<polygon fill="none" stroke="#000000" points="948.5,-863.3728 948.5,-882.3728 1020.5,-882.3728 1020.5,-863.3728 948.5,-863.3728"/>
<text text-anchor="middle" x="984.5" y="-870.3728" font-family="Helvetica,sans-Serif" font-size="10.00" fill="#000000">js_proxy_get</text>
</a>
</g>
</g>
<!-- Node170451&#45;&gt;Node170724 -->
<g id="edge58" class="edge">
<title>Node170451&#45;&gt;Node170724</title>
<path fill="none" stroke="#191970" d="M78.9821,-831.6293C124.5633,-866.8472 242.9178,-948.8728 356.5,-948.8728 356.5,-948.8728 356.5,-948.8728 675.5,-948.8728 785.4368,-948.8728 911.1736,-902.9488 961.7156,-882.4982"/>
<polygon fill="#191970" stroke="#191970" points="81.1234,-828.8607 71.0967,-825.4378 76.8004,-834.3663 81.1234,-828.8607"/>
</g>
<!-- Node171015 -->
<g id="node14" class="node">
<title>Node171015</title>
<g id="a_node14"><a xlink:href="quickjs_8c.html#a0e8d8152892d3235c94ec6df17c87d13" target="_top" xlink:title="JS_GetGlobalVar">
<polygon fill="none" stroke="#000000" points="155,-787.3728 155,-806.3728 247,-806.3728 247,-787.3728 155,-787.3728"/>
<text text-anchor="middle" x="201" y="-794.3728" font-family="Helvetica,sans-Serif" font-size="10.00" fill="#000000">JS_GetGlobalVar</text>
</a>
</g>
</g>
<!-- Node170451&#45;&gt;Node171015 -->
<g id="edge22" class="edge">
<title>Node170451&#45;&gt;Node171015</title>
<path fill="none" stroke="#191970" d="M129.2394,-806.5085C137.9124,-805.3439 146.6056,-804.1766 154.7976,-803.0766"/>
<polygon fill="#191970" stroke="#191970" points="128.5439,-803.0704 119.0986,-807.8701 129.4755,-810.0081 128.5439,-803.0704"/>
</g>
<!-- Node171016 -->
<g id="node15" class="node">
<title>Node171016</title>
<g id="a_node15"><a xlink:href="quickjs_8h.html#a89b7c8686c7eee70b86be722ee4730ad" target="_top" xlink:title="JS_GetProperty">
<polygon fill="none" stroke="#ff0000" points="158,-408.3728 158,-427.3728 244,-427.3728 244,-408.3728 158,-408.3728"/>
<text text-anchor="middle" x="201" y="-415.3728" font-family="Helvetica,sans-Serif" font-size="10.00" fill="#000000">JS_GetProperty</text>
</a>
</g>
</g>
<!-- Node170451&#45;&gt;Node171016 -->
<g id="edge24" class="edge">
<title>Node170451&#45;&gt;Node171016</title>
<path fill="none" stroke="#191970" d="M66.3843,-796.509C91.6695,-725.389 178.9066,-480.0155 197.4978,-427.7234"/>
<polygon fill="#191970" stroke="#191970" points="63.0499,-795.4398 62.9978,-806.0345 69.6455,-797.7848 63.0499,-795.4398"/>
</g>
<!-- Node171013 -->
<g id="node30" class="node">
<title>Node171013</title>
<g id="a_node30"><a xlink:href="quickjs_8c.html#a6730c3163c357445c0182c52d5a53ca4" target="_top" xlink:title="js_reflect_get">
<polygon fill="none" stroke="#000000" points="163.5,-749.3728 163.5,-768.3728 238.5,-768.3728 238.5,-749.3728 163.5,-749.3728"/>
<text text-anchor="middle" x="201" y="-756.3728" font-family="Helvetica,sans-Serif" font-size="10.00" fill="#000000">js_reflect_get</text>
</a>
</g>
</g>
<!-- Node170451&#45;&gt;Node171013 -->
<g id="edge59" class="edge">
<title>Node170451&#45;&gt;Node171013</title>
<path fill="none" stroke="#191970" d="M92.6182,-802.5319C118.5701,-792.0778 154.0503,-777.7854 177.2388,-768.4444"/>
<polygon fill="#191970" stroke="#191970" points="91.1518,-799.3492 83.1839,-806.3323 93.7674,-805.8422 91.1518,-799.3492"/>
</g>
<!-- Node170452&#45;&gt;Node170452 -->
<g id="edge21" class="edge">
<title>Node170452&#45;&gt;Node170452</title>
<path fill="none" stroke="#191970" d="M647.8742,-616.5267C649.0289,-621.8096 658.2375,-625.8728 675.5,-625.8728 701.8047,-625.8728 709.4084,-616.438 698.3111,-607.6298"/>
<polygon fill="#191970" stroke="#191970" points="651.0076,-618.0904 652.6889,-607.6298 644.8512,-614.7588 651.0076,-618.0904"/>
</g>
<!-- Node170453 -->
<g id="node3" class="node">
<title>Node170453</title>
<g id="a_node3"><a xlink:href="quickjs_8c.html#ade71a22dc56e7371392393df663b28b3" target="_top" xlink:title="async_func_resume">
<polygon fill="none" stroke="#ff0000" points="778,-626.3728 778,-645.3728 882,-645.3728 882,-626.3728 778,-626.3728"/>
<text text-anchor="middle" x="830" y="-633.3728" font-family="Helvetica,sans-Serif" font-size="10.00" fill="#000000">async_func_resume</text>
</a>
</g>
</g>
<!-- Node170452&#45;&gt;Node170453 -->
<g id="edge2" class="edge">
<title>Node170452&#45;&gt;Node170453</title>
<path fill="none" stroke="#191970" d="M724.4521,-609.9128C746.0365,-615.2216 771.041,-621.3715 791.2935,-626.3527"/>
<polygon fill="#191970" stroke="#191970" points="725.0334,-606.4515 714.4869,-607.4618 723.3615,-613.2489 725.0334,-606.4515"/>
</g>
<!-- Node170465 -->
<g id="node4" class="node">
<title>Node170465</title>
<g id="a_node4"><a xlink:href="quickjs_8c.html#a1a4c02a29525d5cb2085dd8bca3af350" target="_top" xlink:title="JS_Call">
<polygon fill="none" stroke="#ff0000" points="804.5,-588.3728 804.5,-607.3728 855.5,-607.3728 855.5,-588.3728 804.5,-588.3728"/>
<text text-anchor="middle" x="830" y="-595.3728" font-family="Helvetica,sans-Serif" font-size="10.00" fill="#000000">JS_Call</text>
</a>
</g>
</g>
<!-- Node170452&#45;&gt;Node170465 -->
<g id="edge3" class="edge">
<title>Node170452&#45;&gt;Node170465</title>
<path fill="none" stroke="#191970" d="M727.3379,-591.4585C753.1644,-590.7523 783.2555,-591.1602 804.1551,-592.6821"/>
<polygon fill="#191970" stroke="#191970" points="727.1855,-587.9615 717.3099,-591.7985 727.4228,-594.9575 727.1855,-587.9615"/>
</g>
<!-- Node170539 -->
<g id="node5" class="node">
<title>Node170539</title>
<g id="a_node5"><a xlink:href="quickjs_8c.html#ad35594576a14c10812efaf958c99af8a" target="_top" xlink:title="JS_CallConstructorInternal">
<polygon fill="none" stroke="#ff0000" points="763,-664.3728 763,-683.3728 897,-683.3728 897,-664.3728 763,-664.3728"/>
<text text-anchor="middle" x="830" y="-671.3728" font-family="Helvetica,sans-Serif" font-size="10.00" fill="#000000">JS_CallConstructorInternal</text>
</a>
</g>
</g>
<!-- Node170452&#45;&gt;Node170539 -->
<g id="edge5" class="edge">
<title>Node170452&#45;&gt;Node170539</title>
<path fill="none" stroke="#191970" d="M705.975,-612.9519C722.2207,-623.4505 742.9487,-636.7531 763,-645.8728 780.4992,-653.8317 802.1068,-659.2335 815.969,-664.3408"/>
<polygon fill="#191970" stroke="#191970" points="707.7449,-609.9287 697.4436,-607.4522 703.9522,-615.8121 707.7449,-609.9287"/>
</g>
<!-- Node170553 -->
<g id="node6" class="node">
<title>Node170553</title>
<g id="a_node6"><a xlink:href="quickjs_8c.html#a75f6ee5e4235a7dc99889f3d2eb2c147" target="_top" xlink:title="JS_CallFree">
<polygon fill="none" stroke="#ff0000" points="794.5,-702.3728 794.5,-721.3728 865.5,-721.3728 865.5,-702.3728 794.5,-702.3728"/>
<text text-anchor="middle" x="830" y="-709.3728" font-family="Helvetica,sans-Serif" font-size="10.00" fill="#000000">JS_CallFree</text>
</a>
</g>
</g>
<!-- Node170452&#45;&gt;Node170553 -->
<g id="edge7" class="edge">
<title>Node170452&#45;&gt;Node170553</title>
<path fill="none" stroke="#191970" d="M692.0384,-615.3726C707.8356,-635.0055 733.5515,-665.761 763,-683.8728 778.2421,-693.2471 798.2538,-698.1327 812.4259,-702.3256"/>
<polygon fill="#191970" stroke="#191970" points="694.6834,-613.0763 685.6969,-607.4644 689.2223,-617.4555 694.6834,-613.0763"/>
</g>
<!-- Node170465&#45;&gt;Node170452 -->
<g id="edge4" class="edge">
<title>Node170465&#45;&gt;Node170452</title>
<path fill="none" stroke="#191970" d="M794.1443,-603.6747C771.1971,-604.8404 741.3342,-604.9311 717.3099,-603.947"/>
<polygon fill="#191970" stroke="#191970" points="794.3871,-607.1665 804.1551,-603.0634 793.9604,-600.1795 794.3871,-607.1665"/>
</g>
<!-- Node170539&#45;&gt;Node170452 -->
<g id="edge6" class="edge">
<title>Node170539&#45;&gt;Node170452</title>
<path fill="none" stroke="#191970" d="M754.8261,-659.9061C723.9044,-644.2177 693.9264,-621.1585 681.491,-607.4155"/>
<polygon fill="#191970" stroke="#191970" points="753.4664,-663.136 763.9948,-664.3205 756.5031,-656.8289 753.4664,-663.136"/>
</g>
<!-- Node170553&#45;&gt;Node170451 -->
<g id="edge9" class="edge">
<title>Node170553&#45;&gt;Node170451</title>
<path fill="none" stroke="#191970" d="M813.1282,-728.6163C769.7199,-769.832 648.998,-872.8728 527,-872.8728 356.5,-872.8728 356.5,-872.8728 356.5,-872.8728 257.0058,-872.8728 142.0694,-841.6398 89.0701,-825.4133"/>
<polygon fill="#191970" stroke="#191970" points="815.7749,-730.9261 820.5373,-721.4619 810.9124,-725.8905 815.7749,-730.9261"/>
</g>
<!-- Node170553&#45;&gt;Node170452 -->
<g id="edge8" class="edge">
<title>Node170553&#45;&gt;Node170452</title>
<path fill="none" stroke="#191970" d="M784.5803,-711.5381C777.0669,-709.1378 769.5879,-705.9246 763,-701.8728 722.8907,-677.2043 689.7059,-629.0808 679.0751,-607.615"/>
<polygon fill="#191970" stroke="#191970" points="783.8359,-714.9631 794.4052,-714.2275 785.6841,-708.2114 783.8359,-714.9631"/>
</g>
<!-- Node170782 -->
<g id="node7" class="node">
<title>Node170782</title>
<g id="a_node7"><a xlink:href="quickjs_8c.html#ad09ec172570d05d2166ed3069f85c7b5" target="_top" xlink:title="JS_Invoke">
<polygon fill="none" stroke="#ff0000" points="953,-702.3728 953,-721.3728 1016,-721.3728 1016,-702.3728 953,-702.3728"/>
<text text-anchor="middle" x="984.5" y="-709.3728" font-family="Helvetica,sans-Serif" font-size="10.00" fill="#000000">JS_Invoke</text>
</a>
</g>
</g>
<!-- Node170553&#45;&gt;Node170782 -->
<g id="edge10" class="edge">
<title>Node170553&#45;&gt;Node170782</title>
<path fill="none" stroke="#191970" d="M876.0837,-711.8728C900.8197,-711.8728 930.6778,-711.8728 952.7917,-711.8728"/>
<polygon fill="#191970" stroke="#191970" points="875.8338,-708.3729 865.8337,-711.8728 875.8337,-715.3729 875.8338,-708.3729"/>
</g>
<!-- Node170788 -->
<g id="node8" class="node">
<title>Node170788</title>
<g id="a_node8"><a xlink:href="quickjs_8c.html#af4cd70eee97bbcab2d0f2e46cf53ccd7" target="_top" xlink:title="JS_IsInstanceOf">
<polygon fill="none" stroke="#ff0000" points="939.5,-740.3728 939.5,-759.3728 1029.5,-759.3728 1029.5,-740.3728 939.5,-740.3728"/>
<text text-anchor="middle" x="984.5" y="-747.3728" font-family="Helvetica,sans-Serif" font-size="10.00" fill="#000000">JS_IsInstanceOf</text>
</a>
</g>
</g>
<!-- Node170553&#45;&gt;Node170788 -->
<g id="edge11" class="edge">
<title>Node170553&#45;&gt;Node170788</title>
<path fill="none" stroke="#191970" d="M875.7158,-723.1168C897.941,-728.5832 924.3704,-735.0836 945.6129,-740.3083"/>
<polygon fill="#191970" stroke="#191970" points="876.3803,-719.676 865.8337,-720.6863 874.7084,-726.4734 876.3803,-719.676"/>
</g>
<!-- Node170792 -->
<g id="node10" class="node">
<title>Node170792</title>
<g id="a_node10"><a xlink:href="quickjs_8c.html#abb88b24dc63d82fcc312bba0cf93c3d7" target="_top" xlink:title="JS_IteratorClose">
<polygon fill="none" stroke="#ff0000" points="939.5,-503.3728 939.5,-522.3728 1029.5,-522.3728 1029.5,-503.3728 939.5,-503.3728"/>
<text text-anchor="middle" x="984.5" y="-510.3728" font-family="Helvetica,sans-Serif" font-size="10.00" fill="#000000">JS_IteratorClose</text>
</a>
</g>
</g>
<!-- Node170553&#45;&gt;Node170792 -->
<g id="edge14" class="edge">
<title>Node170553&#45;&gt;Node170792</title>
<path fill="none" stroke="#191970" d="M875.5563,-706.0001C883.5584,-703.1386 891.1753,-698.9582 897,-692.8728 945.0045,-642.7198 890.8371,-596.0275 933,-540.8728 939.1807,-532.7876 948.391,-526.7465 957.3209,-522.3862"/>
<polygon fill="#191970" stroke="#191970" points="874.3186,-702.7152 865.699,-708.8758 876.2791,-709.435 874.3186,-702.7152"/>
</g>
<!-- Node170553&#45;&gt;Node170724 -->
<g id="edge18" class="edge">
<title>Node170553&#45;&gt;Node170724</title>
<path fill="none" stroke="#191970" d="M846.1466,-728.6987C878.3356,-762.2419 949.5949,-836.4992 975.1509,-863.1303"/>
<polygon fill="#191970" stroke="#191970" points="848.6513,-726.2538 839.202,-721.4619 843.6006,-731.1005 848.6513,-726.2538"/>
</g>
<!-- Node170809 -->
<g id="node13" class="node">
<title>Node170809</title>
<g id="a_node13"><a xlink:href="quickjs_8c.html#abac33881bb91f8c31106f616d81b67e8" target="_top" xlink:title="JS_ToPrimitiveFree">
<polygon fill="none" stroke="#ff0000" points="933,-550.3728 933,-569.3728 1036,-569.3728 1036,-550.3728 933,-550.3728"/>
<text text-anchor="middle" x="984.5" y="-557.3728" font-family="Helvetica,sans-Serif" font-size="10.00" fill="#000000">JS_ToPrimitiveFree</text>
</a>
</g>
</g>
<!-- Node170553&#45;&gt;Node170809 -->
<g id="edge19" class="edge">
<title>Node170553&#45;&gt;Node170809</title>
<path fill="none" stroke="#191970" d="M875.2685,-703.8183C882.9723,-701.1491 890.5552,-697.5975 897,-692.8728 942.6959,-659.3723 971.3164,-594.2386 980.9063,-569.6165"/>
<polygon fill="#191970" stroke="#191970" points="874.0906,-700.5177 865.5223,-706.7494 876.1066,-707.2211 874.0906,-700.5177"/>
</g>
<!-- Node170790 -->
<g id="node9" class="node">
<title>Node170790</title>
<g id="a_node9"><a xlink:href="quickjs_8c.html#aa0b5c1a59ff4832154e2a98d7c63a4b2" target="_top" xlink:title="JS_OrdinaryIsInstanceOf">
<polygon fill="none" stroke="#ff0000" points="1072,-740.3728 1072,-759.3728 1199,-759.3728 1199,-740.3728 1072,-740.3728"/>
<text text-anchor="middle" x="1135.5" y="-747.3728" font-family="Helvetica,sans-Serif" font-size="10.00" fill="#000000">JS_OrdinaryIsInstanceOf</text>
</a>
</g>
</g>
<!-- Node170788&#45;&gt;Node170790 -->
<g id="edge12" class="edge">
<title>Node170788&#45;&gt;Node170790</title>
<path fill="none" stroke="#191970" d="M1039.953,-743.3389C1050.314,-743.1106 1061.2179,-743.0632 1071.8043,-743.1966"/>
<polygon fill="#191970" stroke="#191970" points="1039.7014,-739.8445 1029.805,-743.6275 1039.9005,-746.8417 1039.7014,-739.8445"/>
</g>
<!-- Node170790&#45;&gt;Node170788 -->
<g id="edge13" class="edge">
<title>Node170790&#45;&gt;Node170788</title>
<path fill="none" stroke="#191970" d="M1061.4784,-756.6216C1050.6651,-756.6385 1039.8114,-756.4706 1029.805,-756.1181"/>
<polygon fill="#191970" stroke="#191970" points="1061.8293,-760.1193 1071.8043,-756.5489 1061.7799,-753.1195 1061.8293,-760.1193"/>
</g>
<!-- Node170792&#45;&gt;Node170452 -->
<g id="edge17" class="edge">
<title>Node170792&#45;&gt;Node170452</title>
<path fill="none" stroke="#191970" d="M929.4525,-522.312C884.2096,-530.7203 818.7233,-544.39 763,-561.8728 739.4903,-569.2488 713.4903,-580.3406 695.9897,-588.2615"/>
<polygon fill="#191970" stroke="#191970" points="930.1529,-525.742 939.3573,-520.4952 928.8899,-518.8569 930.1529,-525.742"/>
</g>
<!-- Node170477 -->
<g id="node11" class="node">
<title>Node170477</title>
<g id="a_node11"><a xlink:href="quickjs_8c.html#a43208b0746998d2b6b9b8bd1ef8b5f99" target="_top" xlink:title="js_append_enumerate">
<polygon fill="none" stroke="#000000" points="1079.5,-351.3728 1079.5,-370.3728 1191.5,-370.3728 1191.5,-351.3728 1079.5,-351.3728"/>
<text text-anchor="middle" x="1135.5" y="-358.3728" font-family="Helvetica,sans-Serif" font-size="10.00" fill="#000000">js_append_enumerate</text>
</a>
</g>
</g>
<!-- Node170792&#45;&gt;Node170477 -->
<g id="edge15" class="edge">
<title>Node170792&#45;&gt;Node170477</title>
<path fill="none" stroke="#191970" d="M1001.1825,-496.0798C1032.9224,-464.1297 1101.063,-395.5379 1126.0578,-370.3775"/>
<polygon fill="#191970" stroke="#191970" points="998.5104,-493.8034 993.9457,-503.3645 1003.4765,-498.7368 998.5104,-493.8034"/>
</g>
<!-- Node170477&#45;&gt;Node170452 -->
<g id="edge16" class="edge">
<title>Node170477&#45;&gt;Node170452</title>
<path fill="none" stroke="#191970" d="M1097.4804,-373.8086C1028.1494,-398.2295 877.7517,-455.0829 763,-525.8728 732.3601,-544.7744 700.813,-573.4447 685.3128,-588.2588"/>
<polygon fill="#191970" stroke="#191970" points="1098.8227,-377.0471 1107.1075,-370.443 1096.5126,-370.4392 1098.8227,-377.0471"/>
</g>
<!-- Node170809&#45;&gt;Node170452 -->
<g id="edge20" class="edge">
<title>Node170809&#45;&gt;Node170452</title>
<path fill="none" stroke="#191970" d="M922.7155,-563.0438C878.1484,-565.8485 816.6408,-570.7824 763,-578.8728 747.014,-581.2839 729.5757,-584.8717 714.5034,-588.2822"/>
<polygon fill="#191970" stroke="#191970" points="923.0422,-566.5304 932.81,-562.4267 922.615,-559.5435 923.0422,-566.5304"/>
</g>
<!-- Node171015&#45;&gt;Node170452 -->
<g id="edge23" class="edge">
<title>Node171015&#45;&gt;Node170452</title>
<path fill="none" stroke="#191970" d="M238.927,-783.9233C309.029,-759.5842 463.121,-704.188 588,-645.8728 613.5897,-633.9231 642.066,-617.7308 659.3786,-607.5432"/>
<polygon fill="#191970" stroke="#191970" points="237.5133,-780.7088 229.207,-787.2856 239.8018,-787.3242 237.5133,-780.7088"/>
</g>
<!-- Node171016&#45;&gt;Node170452 -->
<g id="edge52" class="edge">
<title>Node171016&#45;&gt;Node170452</title>
<path fill="none" stroke="#191970" d="M212.4588,-435.9437C226.495,-456.4998 252.2389,-489.4637 283,-506.8728 403.4633,-575.0483 454.1183,-534.7303 588,-569.8728 608.3639,-575.2181 630.9911,-582.4954 648.1334,-588.2911"/>
<polygon fill="#191970" stroke="#191970" points="215.2925,-433.8835 206.8575,-427.4725 209.4535,-437.7444 215.2925,-433.8835"/>
</g>
<!-- Node171016&#45;&gt;Node170782 -->
<g id="edge55" class="edge">
<title>Node171016&#45;&gt;Node170782</title>
<path fill="none" stroke="#191970" d="M203.363,-437.6669C211.1918,-499.7397 238.3505,-688.7684 283,-727.8728 365.2359,-799.8956 417.6838,-758.8728 527,-758.8728 527,-758.8728 527,-758.8728 675.5,-758.8728 777.7855,-758.8728 896.9729,-733.3904 952.7145,-719.9524"/>
<polygon fill="#191970" stroke="#191970" points="206.8217,-437.1163 202.1263,-427.6187 199.8741,-437.9714 206.8217,-437.1163"/>
</g>
<!-- Node171016&#45;&gt;Node170788 -->
<g id="edge27" class="edge">
<title>Node171016&#45;&gt;Node170788</title>
<path fill="none" stroke="#191970" d="M203.687,-437.8202C212.7949,-503.1376 244.1081,-709.471 283,-762.8728 357.6684,-865.3986 400.1658,-910.8728 527,-910.8728 527,-910.8728 527,-910.8728 675.5,-910.8728 807.3703,-910.8728 938.723,-794.1222 974.8128,-759.4619"/>
<polygon fill="#191970" stroke="#191970" points="207.1175,-437.0746 202.2897,-427.6437 200.1826,-438.0268 207.1175,-437.0746"/>
</g>
<!-- Node171016&#45;&gt;Node170790 -->
<g id="edge26" class="edge">
<title>Node171016&#45;&gt;Node170790</title>
<path fill="none" stroke="#191970" d="M254.2186,-419.4958C428.353,-425.2442 973.5741,-446.8648 1036,-493.8728 1119.9917,-557.1202 1133.1122,-701.3369 1135.136,-740.1183"/>
<polygon fill="#191970" stroke="#191970" points="254.1273,-415.9911 244.0185,-419.1633 253.8992,-422.9874 254.1273,-415.9911"/>
</g>
<!-- Node171016&#45;&gt;Node170792 -->
<g id="edge44" class="edge">
<title>Node171016&#45;&gt;Node170792</title>
<path fill="none" stroke="#191970" d="M204.3025,-398.3217C214.0368,-343.156 244.3719,-188.2516 283,-156.8728 367.5784,-88.1671 418.0322,-132.8728 527,-132.8728 527,-132.8728 527,-132.8728 675.5,-132.8728 872.3459,-132.8728 965.8632,-443.6189 981.96,-503.0976"/>
<polygon fill="#191970" stroke="#191970" points="200.8444,-397.7798 202.588,-408.2302 207.7419,-398.9734 200.8444,-397.7798"/>
</g>
<!-- Node171016&#45;&gt;Node170477 -->
<g id="edge47" class="edge">
<title>Node171016&#45;&gt;Node170477</title>
<path fill="none" stroke="#191970" d="M202.2624,-397.8495C207.2026,-326.467 227.7492,-86.1353 283,-37.8728 364.92,33.6857 418.2273,-18.8728 527,-18.8728 527,-18.8728 527,-18.8728 830,-18.8728 935.7339,-18.8728 965.2282,-59.317 1036,-137.8728 1097.2925,-205.9066 1125.9893,-317.8902 1133.4607,-351.2241"/>
<polygon fill="#191970" stroke="#191970" points="198.7495,-397.928 201.5791,-408.138 205.7341,-398.3919 198.7495,-397.928"/>
</g>
<!-- Node171016&#45;&gt;Node170809 -->
<g id="edge35" class="edge">
<title>Node171016&#45;&gt;Node170809</title>
<path fill="none" stroke="#191970" d="M205.4042,-398.1939C216.8302,-349.1008 248.9169,-223.467 283,-199.8728 394.6714,-122.5675 464.4464,-162.4713 588,-218.8728 776.3382,-304.8481 764.1868,-412.0182 933,-531.8728 942.7919,-538.8249 954.4988,-545.317 964.2748,-550.2961"/>
<polygon fill="#191970" stroke="#191970" points="201.936,-397.66 203.119,-408.1886 208.7599,-399.2203 201.936,-397.66"/>
</g>
<!-- Node170695 -->
<g id="node16" class="node">
<title>Node170695</title>
<g id="a_node16"><a xlink:href="quickjs-libc_8c.html#afc77720d4d1c0b90749ce275a4a16f74" target="_top" xlink:title="build_envp">
<polygon fill="none" stroke="#ff0000" points="325,-389.3728 325,-408.3728 388,-408.3728 388,-389.3728 325,-389.3728"/>
<text text-anchor="middle" x="356.5" y="-396.3728" font-family="Helvetica,sans-Serif" font-size="10.00" fill="#000000">build_envp</text>
</a>
</g>
</g>
<!-- Node171016&#45;&gt;Node170695 -->
<g id="edge25" class="edge">
<title>Node171016&#45;&gt;Node170695</title>
<path fill="none" stroke="#191970" d="M254.4629,-411.3403C277.8747,-408.4797 304.5524,-405.2201 324.7568,-402.7514"/>
<polygon fill="#191970" stroke="#191970" points="253.8171,-407.8931 244.3154,-412.5802 254.6661,-414.8414 253.8171,-407.8931"/>
</g>
<!-- Node171007 -->
<g id="node17" class="node">
<title>Node171007</title>
<g id="a_node17"><a xlink:href="quickjs_8c.html#a90d6e607f6917d817c1e997bd2e6ed07" target="_top" xlink:title="JS_GetPropertyValue">
<polygon fill="none" stroke="#ff0000" points="301,-275.3728 301,-294.3728 412,-294.3728 412,-275.3728 301,-275.3728"/>
<text text-anchor="middle" x="356.5" y="-282.3728" font-family="Helvetica,sans-Serif" font-size="10.00" fill="#000000">JS_GetPropertyValue</text>
</a>
</g>
</g>
<!-- Node171016&#45;&gt;Node171007 -->
<g id="edge28" class="edge">
<title>Node171016&#45;&gt;Node171007</title>
<path fill="none" stroke="#191970" d="M210.3301,-399.2398C223.3779,-375.0143 249.3083,-332.9624 283,-308.8728 291.7355,-302.6269 302.1891,-297.9409 312.4338,-294.4499"/>
<polygon fill="#191970" stroke="#191970" points="207.207,-397.6594 205.6841,-408.1443 213.413,-400.8976 207.207,-397.6594"/>
</g>
<!-- Node170705 -->
<g id="node18" class="node">
<title>Node170705</title>
<g id="a_node18"><a xlink:href="quickjs_8c.html#a14674e74168715dc5a3a391910982e5d" target="_top" xlink:title="JS_TryGetPropertyInt64">
<polygon fill="none" stroke="#ff0000" points="466,-313.3728 466,-332.3728 588,-332.3728 588,-313.3728 466,-313.3728"/>
<text text-anchor="middle" x="527" y="-320.3728" font-family="Helvetica,sans-Serif" font-size="10.00" fill="#000000">JS_TryGetPropertyInt64</text>
</a>
</g>
</g>
<!-- Node171016&#45;&gt;Node170705 -->
<g id="edge32" class="edge">
<title>Node171016&#45;&gt;Node170705</title>
<path fill="none" stroke="#191970" d="M214.052,-400.1871C228.6103,-381.9958 253.966,-354.5809 283,-341.8728 341.2888,-316.3599 414.876,-314.1937 465.9185,-316.7903"/>
<polygon fill="#191970" stroke="#191970" points="211.1497,-398.2189 207.8038,-408.2716 216.6883,-402.4996 211.1497,-398.2189"/>
</g>
<!-- Node171010 -->
<g id="node19" class="node">
<title>Node171010</title>
<g id="a_node19"><a xlink:href="quickjs_8c.html#a7bb763b31e1c40a04aa0c1d5db0f1191" target="_top" xlink:title="JS_GetPropertyInt64">
<polygon fill="none" stroke="#ff0000" points="473,-228.3728 473,-247.3728 581,-247.3728 581,-228.3728 473,-228.3728"/>
<text text-anchor="middle" x="527" y="-235.3728" font-family="Helvetica,sans-Serif" font-size="10.00" fill="#000000">JS_GetPropertyInt64</text>
</a>
</g>
</g>
<!-- Node171016&#45;&gt;Node171010 -->
<g id="edge33" class="edge">
<title>Node171016&#45;&gt;Node171010</title>
<path fill="none" stroke="#191970" d="M202.6985,-397.8939C207.3359,-357.4788 224.1328,-266.5825 283,-227.8728 351.5456,-182.7988 455.8724,-211.5772 502.7276,-228.3158"/>
<polygon fill="#191970" stroke="#191970" points="199.1925,-397.7779 201.6699,-408.079 206.1571,-398.4814 199.1925,-397.7779"/>
</g>
<!-- Node171017 -->
<g id="node20" class="node">
<title>Node171017</title>
<g id="a_node20"><a xlink:href="quickjs_8c.html#a04f589361a4fbc30d997402e92a50de2" target="_top" xlink:title="JS_GetPropertyStr">
<polygon fill="none" stroke="#ff0000" points="307,-237.3728 307,-256.3728 406,-256.3728 406,-237.3728 307,-237.3728"/>
<text text-anchor="middle" x="356.5" y="-244.3728" font-family="Helvetica,sans-Serif" font-size="10.00" fill="#000000">JS_GetPropertyStr</text>
</a>
</g>
</g>
<!-- Node171016&#45;&gt;Node171017 -->
<g id="edge34" class="edge">
<title>Node171016&#45;&gt;Node171017</title>
<path fill="none" stroke="#191970" d="M205.9241,-398.6371C215.259,-366.1565 238.6783,-300.5931 283,-265.8728 289.9515,-260.4272 298.2988,-256.5306 306.8352,-253.7452"/>
<polygon fill="#191970" stroke="#191970" points="202.5457,-397.7228 203.2885,-408.2916 209.2986,-399.5664 202.5457,-397.7228"/>
</g>
<!-- Node171022 -->
<g id="node21" class="node">
<title>Node171022</title>
<g id="a_node21"><a xlink:href="quickjs_8c.html#a4bc21a37de9a904eb78a57afc1067eb9" target="_top" xlink:title="js_has_unscopable">
<polygon fill="none" stroke="#000000" points="477,-503.3728 477,-522.3728 577,-522.3728 577,-503.3728 477,-503.3728"/>
<text text-anchor="middle" x="527" y="-510.3728" font-family="Helvetica,sans-Serif" font-size="10.00" fill="#000000">js_has_unscopable</text>
</a>
</g>
</g>
<!-- Node171016&#45;&gt;Node171022 -->
<g id="edge36" class="edge">
<title>Node171016&#45;&gt;Node171022</title>
<path fill="none" stroke="#191970" d="M218.9968,-434.3913C234.6969,-447.8187 258.7093,-466.0846 283,-475.8728 346.5844,-501.4948 426.0008,-509.5424 476.6215,-511.975"/>
<polygon fill="#191970" stroke="#191970" points="221.0002,-431.4922 211.1806,-427.514 216.3762,-436.7475 221.0002,-431.4922"/>
</g>
<!-- Node170473 -->
<g id="node22" class="node">
<title>Node170473</title>
<g id="a_node22"><a xlink:href="quickjs_8c.html#a5ec5d4521881c24fd8de4e8a4f602fba" target="_top" xlink:title="JS_GetIterator">
<polygon fill="none" stroke="#ff0000" points="316.5,-351.3728 316.5,-370.3728 396.5,-370.3728 396.5,-351.3728 316.5,-351.3728"/>
<text text-anchor="middle" x="356.5" y="-358.3728" font-family="Helvetica,sans-Serif" font-size="10.00" fill="#000000">JS_GetIterator</text>
</a>
</g>
</g>
<!-- Node171016&#45;&gt;Node170473 -->
<g id="edge38" class="edge">
<title>Node171016&#45;&gt;Node170473</title>
<path fill="none" stroke="#191970" d="M228.2978,-403.7073C244.0045,-395.9437 264.2808,-386.5674 283,-379.8728 293.6727,-376.0559 305.4694,-372.6592 316.4306,-369.8312"/>
<polygon fill="#191970" stroke="#191970" points="226.5292,-400.6788 219.1634,-408.2944 229.6706,-406.9343 226.5292,-400.6788"/>
</g>
<!-- Node170474 -->
<g id="node23" class="node">
<title>Node170474</title>
<g id="a_node23"><a xlink:href="quickjs_8c.html#ac71df7cd121a3af9abf57897c58e75c2" target="_top" xlink:title="js_for_of_start">
<polygon fill="none" stroke="#ff0000" points="487.5,-465.3728 487.5,-484.3728 566.5,-484.3728 566.5,-465.3728 487.5,-465.3728"/>
<text text-anchor="middle" x="527" y="-472.3728" font-family="Helvetica,sans-Serif" font-size="10.00" fill="#000000">js_for_of_start</text>
</a>
</g>
</g>
<!-- Node171016&#45;&gt;Node170474 -->
<g id="edge45" class="edge">
<title>Node171016&#45;&gt;Node170474</title>
<path fill="none" stroke="#191970" d="M229.8486,-431.8312C245.2684,-438.6844 264.7825,-446.4084 283,-450.8728 353.4885,-468.1469 438.3168,-473.0572 487.1169,-474.4103"/>
<polygon fill="#191970" stroke="#191970" points="230.9118,-428.4689 220.3616,-427.4964 228.0026,-434.8358 230.9118,-428.4689"/>
</g>
<!-- Node170495 -->
<g id="node24" class="node">
<title>Node170495</title>
<g id="a_node24"><a xlink:href="quickjs_8c.html#a44f6eee98516c994a594533cfa8618ed" target="_top" xlink:title="JS_IteratorNext">
<polygon fill="none" stroke="#ff0000" points="632.5,-85.3728 632.5,-104.3728 718.5,-104.3728 718.5,-85.3728 632.5,-85.3728"/>
<text text-anchor="middle" x="675.5" y="-92.3728" font-family="Helvetica,sans-Serif" font-size="10.00" fill="#000000">JS_IteratorNext</text>
</a>
</g>
</g>
<!-- Node171016&#45;&gt;Node170495 -->
<g id="edge42" class="edge">
<title>Node171016&#45;&gt;Node170495</title>
<path fill="none" stroke="#191970" d="M203.4735,-397.8722C211.4595,-336.8308 238.6441,-154.896 283,-118.8728 335.4644,-76.2643 541.5686,-85.2089 632.2666,-91.449"/>
<polygon fill="#191970" stroke="#191970" points="199.9628,-397.734 202.1692,-408.0965 206.9066,-398.6198 199.9628,-397.734"/>
</g>
<!-- Node171023 -->
<g id="node25" class="node">
<title>Node171023</title>
<g id="a_node25"><a xlink:href="quickjs_8c.html#af06df4433030f12453c5980514fa461d" target="_top" xlink:title="JS_IteratorGetCompleteValue">
<polygon fill="none" stroke="#ff0000" points="283,-47.3728 283,-66.3728 430,-66.3728 430,-47.3728 283,-47.3728"/>
<text text-anchor="middle" x="356.5" y="-54.3728" font-family="Helvetica,sans-Serif" font-size="10.00" fill="#000000">JS_IteratorGetCompleteValue</text>
</a>
</g>
</g>
<!-- Node171016&#45;&gt;Node171023 -->
<g id="edge46" class="edge">
<title>Node171016&#45;&gt;Node171023</title>
<path fill="none" stroke="#191970" d="M203.2945,-398.0154C211.1763,-333.0489 239.1018,-128.2849 283,-80.8728 288.8367,-74.5689 296.3487,-69.917 304.3337,-66.485"/>
<polygon fill="#191970" stroke="#191970" points="199.7957,-397.7983 202.0924,-408.1412 206.7469,-398.6235 199.7957,-397.7983"/>
</g>
<!-- Node170569 -->
<g id="node26" class="node">
<title>Node170569</title>
<g id="a_node26"><a xlink:href="quickjs_8c.html#a3b754d750c7f3123e85f4a2e748de023" target="_top" xlink:title="JS_CopyDataProperties">
<polygon fill="none" stroke="#ff0000" points="466,-617.3728 466,-636.3728 588,-636.3728 588,-617.3728 466,-617.3728"/>
<text text-anchor="middle" x="527" y="-624.3728" font-family="Helvetica,sans-Serif" font-size="10.00" fill="#000000">JS_CopyDataProperties</text>
</a>
</g>
</g>
<!-- Node171016&#45;&gt;Node170569 -->
<g id="edge48" class="edge">
<title>Node171016&#45;&gt;Node170569</title>
<path fill="none" stroke="#191970" d="M203.7784,-437.9618C210.1842,-475.9308 229.7541,-557.9049 283,-596.8728 335.696,-635.4382 412.5589,-638.6217 465.8791,-634.9404"/>
<polygon fill="#191970" stroke="#191970" points="207.1769,-437.0354 202.1904,-427.6874 200.259,-438.1047 207.1769,-437.0354"/>
</g>
<!-- Node170681 -->
<g id="node27" class="node">
<title>Node170681</title>
<g id="a_node27"><a xlink:href="quickjs_8c.html#a36322a209de4ef17f939e6d128578d7f" target="_top" xlink:title="js_op_define_class">
<polygon fill="none" stroke="#000000" points="477,-579.3728 477,-598.3728 577,-598.3728 577,-579.3728 477,-579.3728"/>
<text text-anchor="middle" x="527" y="-586.3728" font-family="Helvetica,sans-Serif" font-size="10.00" fill="#000000">js_op_define_class</text>
</a>
</g>
</g>
<!-- Node171016&#45;&gt;Node170681 -->
<g id="edge50" class="edge">
<title>Node171016&#45;&gt;Node170681</title>
<path fill="none" stroke="#191970" d="M205.5881,-437.2228C214.4183,-469.7567 237.101,-534.8008 283,-564.8728 341.0351,-602.896 424.0863,-602.2289 476.7692,-596.7261"/>
<polygon fill="#191970" stroke="#191970" points="208.9788,-436.3549 203.111,-427.5334 202.1969,-438.0888 208.9788,-436.3549"/>
</g>
<!-- Node171025 -->
<g id="node28" class="node">
<title>Node171025</title>
<g id="a_node28"><a xlink:href="quickjs_8c.html#a93dbf502b17d1328c524401335f60499" target="_top" xlink:title="js_create_from_ctor">
<polygon fill="none" stroke="#ff0000" points="624,-687.3728 624,-706.3728 727,-706.3728 727,-687.3728 624,-687.3728"/>
<text text-anchor="middle" x="675.5" y="-694.3728" font-family="Helvetica,sans-Serif" font-size="10.00" fill="#000000">js_create_from_ctor</text>
</a>
</g>
</g>
<!-- Node171016&#45;&gt;Node171025 -->
<g id="edge53" class="edge">
<title>Node171016&#45;&gt;Node171025</title>
<path fill="none" stroke="#191970" d="M203.6512,-437.7551C211.976,-496.8378 239.6469,-669.2662 283,-701.8728 335.2844,-741.1967 529.9235,-718.7223 623.9752,-705.0273"/>
<polygon fill="#191970" stroke="#191970" points="207.0743,-436.9552 202.2453,-427.5248 200.1394,-437.9083 207.0743,-436.9552"/>
</g>
<!-- Node170932 -->
<g id="node29" class="node">
<title>Node170932</title>
<g id="a_node29"><a xlink:href="quickjs_8c.html#aa9342f7444c1c9f8743d43aa4d7f89e3" target="_top" xlink:title="JS_WriteObjectRec">
<polygon fill="none" stroke="#ff0000" points="304.5,-655.3728 304.5,-674.3728 408.5,-674.3728 408.5,-655.3728 304.5,-655.3728"/>
<text text-anchor="middle" x="356.5" y="-662.3728" font-family="Helvetica,sans-Serif" font-size="10.00" fill="#000000">JS_WriteObjectRec</text>
</a>
</g>
</g>
<!-- Node171016&#45;&gt;Node170932 -->
<g id="edge56" class="edge">
<title>Node171016&#45;&gt;Node170932</title>
<path fill="none" stroke="#191970" d="M202.5818,-437.5139C207.0985,-480.547 223.8399,-583.8478 283,-640.8728 289.5719,-647.2075 297.8385,-651.8703 306.4356,-655.3024"/>
<polygon fill="#191970" stroke="#191970" points="206.061,-437.1266 201.6423,-427.4972 199.0916,-437.7804 206.061,-437.1266"/>
</g>
<!-- Node171007&#45;&gt;Node170452 -->
<g id="edge31" class="edge">
<title>Node171007&#45;&gt;Node170452</title>
<path fill="none" stroke="#191970" d="M405.1113,-273.4658C457.0526,-264.3976 538.5693,-259.6144 588,-303.8728 650.4054,-359.7482 597.9058,-409.2764 624,-488.8728 636.5834,-527.2567 659.4647,-569.7177 669.9645,-588.2919"/>
<polygon fill="#191970" stroke="#191970" points="404.326,-270.0517 395.1357,-275.3233 405.6074,-276.9335 404.326,-270.0517"/>
</g>
<!-- Node171007&#45;&gt;Node170705 -->
<g id="edge29" class="edge">
<title>Node171007&#45;&gt;Node170705</title>
<path fill="none" stroke="#191970" d="M409.5536,-296.697C433.5911,-302.0544 461.6318,-308.3039 484.285,-313.3527"/>
<polygon fill="#191970" stroke="#191970" points="410.0463,-293.221 399.5243,-294.4618 408.5235,-300.0534 410.0463,-293.221"/>
</g>
<!-- Node171007&#45;&gt;Node171010 -->
<g id="edge30" class="edge">
<title>Node171007&#45;&gt;Node171010</title>
<path fill="none" stroke="#191970" d="M404.2313,-272.7418C412.821,-270.4996 421.685,-268.1471 430,-265.8728 451.6407,-259.9535 475.8907,-252.9535 494.7305,-247.4333"/>
<polygon fill="#191970" stroke="#191970" points="403.1239,-269.4131 394.3231,-275.3119 404.8816,-276.1888 403.1239,-269.4131"/>
</g>
<!-- Node171022&#45;&gt;Node170452 -->
<g id="edge37" class="edge">
<title>Node171022&#45;&gt;Node170452</title>
<path fill="none" stroke="#191970" d="M564.649,-526.0871C572.5198,-529.2897 580.6542,-532.9374 588,-536.8728 616.7288,-552.2637 647.3129,-575.3242 663.6225,-588.2339"/>
<polygon fill="#191970" stroke="#191970" points="565.8378,-522.7939 555.2498,-522.412 563.2886,-529.3133 565.8378,-522.7939"/>
</g>
<!-- Node170473&#45;&gt;Node170477 -->
<g id="edge41" class="edge">
<title>Node170473&#45;&gt;Node170477</title>
<path fill="none" stroke="#191970" d="M406.5671,-360.8728C469.3845,-360.8728 580.4137,-360.8728 675.5,-360.8728 675.5,-360.8728 675.5,-360.8728 830,-360.8728 917.1152,-360.8728 1018.2038,-360.8728 1079.4738,-360.8728"/>
<polygon fill="#191970" stroke="#191970" points="406.5353,-357.3729 396.5352,-360.8728 406.5352,-364.3729 406.5353,-357.3729"/>
</g>
<!-- Node170473&#45;&gt;Node170474 -->
<g id="edge39" class="edge">
<title>Node170473&#45;&gt;Node170474</title>
<path fill="none" stroke="#191970" d="M406.6776,-370.0794C414.7592,-372.6116 422.8197,-375.8189 430,-379.8728 470.0257,-402.4708 505.3557,-445.7626 519.92,-465.1108"/>
<polygon fill="#191970" stroke="#191970" points="407.4415,-366.6584 396.867,-367.3137 405.5422,-373.3958 407.4415,-366.6584"/>
</g>
<!-- Node170474&#45;&gt;Node170452 -->
<g id="edge40" class="edge">
<title>Node170474&#45;&gt;Node170452</title>
<path fill="none" stroke="#191970" d="M575.9594,-487.3144C580.1809,-489.2138 584.2617,-491.3879 588,-493.8728 626.9084,-519.7357 657.9734,-567.8053 670.0525,-588.2593"/>
<polygon fill="#191970" stroke="#191970" points="577.1568,-484.024 566.5712,-483.5809 574.57,-490.5285 577.1568,-484.024"/>
</g>
<!-- Node170495&#45;&gt;Node170477 -->
<g id="edge43" class="edge">
<title>Node170495&#45;&gt;Node170477</title>
<path fill="none" stroke="#191970" d="M728.8278,-90.8793C775.4843,-89.5981 843.9042,-93.2045 897,-118.8728 1013.838,-175.3561 1105.999,-313.4819 1129.6088,-351.2127"/>
<polygon fill="#191970" stroke="#191970" points="728.4989,-87.3887 718.6314,-91.2464 728.7509,-94.3842 728.4989,-87.3887"/>
</g>
<!-- Node170569&#45;&gt;Node170452 -->
<g id="edge49" class="edge">
<title>Node170569&#45;&gt;Node170452</title>
<path fill="none" stroke="#191970" d="M585.8938,-615.3716C601.9806,-612.2301 619.0732,-608.8922 633.9694,-605.9831"/>
<polygon fill="#191970" stroke="#191970" points="585.1798,-611.9449 576.036,-617.2967 586.5215,-618.8151 585.1798,-611.9449"/>
</g>
<!-- Node170681&#45;&gt;Node170452 -->
<g id="edge51" class="edge">
<title>Node170681&#45;&gt;Node170452</title>
<path fill="none" stroke="#191970" d="M587.3451,-592.5301C602.8995,-593.4727 619.2981,-594.4666 633.6774,-595.3381"/>
<polygon fill="#191970" stroke="#191970" points="587.4688,-589.0312 577.2753,-591.9198 587.0452,-596.0184 587.4688,-589.0312"/>
</g>
<!-- Node171025&#45;&gt;Node170539 -->
<g id="edge54" class="edge">
<title>Node171025&#45;&gt;Node170539</title>
<path fill="none" stroke="#191970" d="M737.4769,-687.6464C746.9263,-686.2397 756.6934,-684.7857 766.1815,-683.3733"/>
<polygon fill="#191970" stroke="#191970" points="736.7517,-684.2157 727.3761,-689.1501 737.7825,-691.1394 736.7517,-684.2157"/>
</g>
<!-- Node170932&#45;&gt;Node170932 -->
<g id="edge57" class="edge">
<title>Node170932&#45;&gt;Node170932</title>
<path fill="none" stroke="#191970" d="M327.7542,-683.5267C328.9558,-688.8096 338.5377,-692.8728 356.5,-692.8728 383.8711,-692.8728 391.7831,-683.438 380.2359,-674.6298"/>
<polygon fill="#191970" stroke="#191970" points="330.9072,-685.0607 332.7641,-674.6298 324.8077,-681.626 330.9072,-685.0607"/>
</g>
</g>
</svg>
