<?xml version="1.0" encoding="UTF-8" standalone="no"?>
<!DOCTYPE svg PUBLIC "-//W3C//DTD SVG 1.1//EN"
 "http://www.w3.org/Graphics/SVG/1.1/DTD/svg11.dtd">
<!-- Generated by graphviz version 2.40.1 (20161225.0304)
 -->
<!-- Title: JS_DupContext Pages: 1 -->
<!--zoomable 215 -->
<svg id="main" version="1.1" xmlns="http://www.w3.org/2000/svg" xmlns:xlink="http://www.w3.org/1999/xlink" xml:space="preserve" onload="init(evt)">
<style type="text/css"><![CDATA[
.edge:hover path { stroke: red; }
.edge:hover polygon { stroke: red; fill: red; }
]]></style>
<script type="text/javascript"><![CDATA[
var edges = document.getElementsByTagName('g');
if (edges && edges.length) {
  for (var i=0;i<edges.length;i++) {
    if (edges[i].id.substr(0,4)=='edge') {
      edges[i].setAttribute('class','edge');
    }
  }
}
]]></script>
        <defs>
                <circle id="rim" cx="0" cy="0" r="7"/>
                <circle id="rim2" cx="0" cy="0" r="3.5"/>
                <g id="zoomPlus">
                        <use xlink:href="#rim" fill="#404040">
                                <set attributeName="fill" to="#808080" begin="zoomplus.mouseover" end="zoomplus.mouseout"/>
                        </use>
                        <path d="M-4,0h8M0,-4v8" fill="none" stroke="white" stroke-width="1.5" pointer-events="none"/>
                </g>
                <g id="zoomMin">
                        <use xlink:href="#rim" fill="#404040">
                                <set attributeName="fill" to="#808080" begin="zoomminus.mouseover" end="zoomminus.mouseout"/>
                        </use>
                        <path d="M-4,0h8" fill="none" stroke="white" stroke-width="1.5" pointer-events="none"/>
                </g>
                <g id="dirArrow">
                        <path fill="none" stroke="white" stroke-width="1.5" d="M0,-3.0v7 M-2.5,-0.5L0,-3.0L2.5,-0.5"/>
                </g>
               <g id="resetDef">
                       <use xlink:href="#rim2" fill="#404040">
                               <set attributeName="fill" to="#808080" begin="reset.mouseover" end="reset.mouseout"/>
                       </use>
               </g>
        </defs>

<script type="text/javascript">
var viewWidth = 870;
var viewHeight = 215;
var sectionId = 'dynsection-198';
</script>
<script xlink:href="svgpan.js"/>
<svg id="graph" class="graph">
<g id="viewport">
<title>JS_DupContext</title>
<!-- Node68464 -->
<g id="node1" class="node">
<title>Node68464</title>
<polygon fill="#bfbfbf" stroke="#000000" points="0,-75.5 0,-94.5 86,-94.5 86,-75.5 0,-75.5"/>
<text text-anchor="middle" x="43" y="-82.5" font-family="Helvetica,sans-Serif" font-size="10.00" fill="#000000">JS_DupContext</text>
</g>
<!-- Node68465 -->
<g id="node2" class="node">
<title>Node68465</title>
<g id="a_node2"><a xlink:href="quickjs_8c.html#a97fcc747d8b1c3644174745d2e2739be" target="_top" xlink:title="js_create_function">
<polygon fill="none" stroke="#000000" points="479.5,-169.5 479.5,-188.5 575.5,-188.5 575.5,-169.5 479.5,-169.5"/>
<text text-anchor="middle" x="527.5" y="-176.5" font-family="Helvetica,sans-Serif" font-size="10.00" fill="#000000">js_create_function</text>
</a>
</g>
</g>
<!-- Node68464&#45;&gt;Node68465 -->
<g id="edge1" class="edge">
<title>Node68464&#45;&gt;Node68465</title>
<path fill="none" stroke="#191970" d="M67.8019,-99.4017C82.9759,-107.5772 103.0544,-117.2888 122,-123 247.3693,-160.7928 402.3269,-173.193 479.3398,-177.1751"/>
<polygon fill="#191970" stroke="#191970" points="69.4868,-96.334 59.0417,-94.5593 66.1003,-102.4603 69.4868,-96.334"/>
</g>
<!-- Node68469 -->
<g id="node5" class="node">
<title>Node68469</title>
<g id="a_node5"><a xlink:href="quickjs_8c.html#a7128998511654840928b9df9d4c55b3c" target="_top" xlink:title="JS_DefineAutoInitProperty">
<polygon fill="none" stroke="#000000" points="122,-94.5 122,-113.5 255,-113.5 255,-94.5 122,-94.5"/>
<text text-anchor="middle" x="188.5" y="-101.5" font-family="Helvetica,sans-Serif" font-size="10.00" fill="#000000">JS_DefineAutoInitProperty</text>
</a>
</g>
</g>
<!-- Node68464&#45;&gt;Node68469 -->
<g id="edge5" class="edge">
<title>Node68464&#45;&gt;Node68469</title>
<path fill="none" stroke="#191970" d="M96.2448,-91.9529C104.6077,-93.045 113.342,-94.1855 121.9592,-95.3108"/>
<polygon fill="#191970" stroke="#191970" points="96.6299,-88.4736 86.2609,-90.6492 95.7234,-95.4147 96.6299,-88.4736"/>
</g>
<!-- Node68602 -->
<g id="node11" class="node">
<title>Node68602</title>
<g id="a_node11"><a xlink:href="quickjs_8c.html#a21cfe4c4fc9372dc0b95b37667cff0c9" target="_top" xlink:title="JS_NewCFunction3">
<polygon fill="none" stroke="#ff0000" points="136.5,-56.5 136.5,-75.5 240.5,-75.5 240.5,-56.5 136.5,-56.5"/>
<text text-anchor="middle" x="188.5" y="-63.5" font-family="Helvetica,sans-Serif" font-size="10.00" fill="#000000">JS_NewCFunction3</text>
</a>
</g>
</g>
<!-- Node68464&#45;&gt;Node68602 -->
<g id="edge13" class="edge">
<title>Node68464&#45;&gt;Node68602</title>
<path fill="none" stroke="#191970" d="M96.4877,-78.0154C109.5212,-76.3134 123.4436,-74.4953 136.411,-72.802"/>
<polygon fill="#191970" stroke="#191970" points="95.7234,-74.5853 86.2609,-79.3508 96.6299,-81.5264 95.7234,-74.5853"/>
</g>
<!-- Node68670 -->
<g id="node12" class="node">
<title>Node68670</title>
<g id="a_node12"><a xlink:href="quickjs_8c.html#a4b8ef2bb3b35e4a5f6ed8bd837a50e7c" target="_top" xlink:title="JS_ReadObjectRec">
<polygon fill="none" stroke="#ff0000" points="136.5,-.5 136.5,-19.5 240.5,-19.5 240.5,-.5 136.5,-.5"/>
<text text-anchor="middle" x="188.5" y="-7.5" font-family="Helvetica,sans-Serif" font-size="10.00" fill="#000000">JS_ReadObjectRec</text>
</a>
</g>
</g>
<!-- Node68464&#45;&gt;Node68670 -->
<g id="edge14" class="edge">
<title>Node68464&#45;&gt;Node68670</title>
<path fill="none" stroke="#191970" d="M70.9386,-70.5987C100.0315,-55.6023 144.7853,-32.5334 169.8482,-19.6144"/>
<polygon fill="#191970" stroke="#191970" points="69.0087,-67.6558 61.7237,-75.3486 72.216,-73.8778 69.0087,-67.6558"/>
</g>
<!-- Node68465&#45;&gt;Node68465 -->
<g id="edge2" class="edge">
<title>Node68465&#45;&gt;Node68465</title>
<path fill="none" stroke="#191970" d="M500.6208,-197.6539C501.7444,-202.9368 510.7041,-207 527.5,-207 553.0938,-207 560.4919,-197.5653 549.6946,-188.7571"/>
<polygon fill="#191970" stroke="#191970" points="503.7433,-199.2361 505.3054,-188.7571 497.5494,-195.9747 503.7433,-199.2361"/>
</g>
<!-- Node68466 -->
<g id="node3" class="node">
<title>Node68466</title>
<g id="a_node3"><a xlink:href="quickjs_8c.html#a46a8a7e155cfd0af984f6725f060f0d6" target="_top" xlink:title="__JS_EvalInternal">
<polygon fill="none" stroke="#000000" points="625,-122.5 625,-141.5 721,-141.5 721,-122.5 625,-122.5"/>
<text text-anchor="middle" x="673" y="-129.5" font-family="Helvetica,sans-Serif" font-size="10.00" fill="#000000">__JS_EvalInternal</text>
</a>
</g>
</g>
<!-- Node68465&#45;&gt;Node68466 -->
<g id="edge3" class="edge">
<title>Node68465&#45;&gt;Node68466</title>
<path fill="none" stroke="#191970" d="M568.6223,-166.4335C575.4369,-164.3115 582.4232,-162.1118 589,-160 607.5879,-154.0315 628.4063,-147.0938 644.6675,-141.6175"/>
<polygon fill="#191970" stroke="#191970" points="567.345,-163.165 558.8287,-169.4677 569.4165,-169.8515 567.345,-163.165"/>
</g>
<!-- Node68467 -->
<g id="node4" class="node">
<title>Node68467</title>
<g id="a_node4"><a xlink:href="quickjs_8c.html#acbcccb7ec58fd4a024ea1d01e5d04561" target="_top" xlink:title="JS_AddIntrinsicEval">
<polygon fill="none" stroke="#ff0000" points="757,-122.5 757,-141.5 862,-141.5 862,-122.5 757,-122.5"/>
<text text-anchor="middle" x="809.5" y="-129.5" font-family="Helvetica,sans-Serif" font-size="10.00" fill="#000000">JS_AddIntrinsicEval</text>
</a>
</g>
</g>
<!-- Node68466&#45;&gt;Node68467 -->
<g id="edge4" class="edge">
<title>Node68466&#45;&gt;Node68467</title>
<path fill="none" stroke="#191970" d="M731.2837,-132C739.726,-132 748.3763,-132 756.7026,-132"/>
<polygon fill="#191970" stroke="#191970" points="731.1248,-128.5001 721.1248,-132 731.1248,-135.5001 731.1248,-128.5001"/>
</g>
<!-- Node68470 -->
<g id="node6" class="node">
<title>Node68470</title>
<g id="a_node6"><a xlink:href="quickjs_8c.html#aab4130a4c3108a127681be821818528a" target="_top" xlink:title="js_closure">
<polygon fill="none" stroke="#000000" points="330,-113.5 330,-132.5 391,-132.5 391,-113.5 330,-113.5"/>
<text text-anchor="middle" x="360.5" y="-120.5" font-family="Helvetica,sans-Serif" font-size="10.00" fill="#000000">js_closure</text>
</a>
</g>
</g>
<!-- Node68469&#45;&gt;Node68470 -->
<g id="edge6" class="edge">
<title>Node68469&#45;&gt;Node68470</title>
<path fill="none" stroke="#191970" d="M265.5116,-112.5071C288.2531,-115.0192 311.8422,-117.625 329.8242,-119.6114"/>
<polygon fill="#191970" stroke="#191970" points="265.8161,-109.0195 255.4922,-111.4003 265.0474,-115.9772 265.8161,-109.0195"/>
</g>
<!-- Node69002 -->
<g id="node9" class="node">
<title>Node69002</title>
<g id="a_node9"><a xlink:href="quickjs_8c.html#ad12b6863ca31850fc39d208bb865420e" target="_top" xlink:title="js_build_module_ns">
<polygon fill="none" stroke="#ff0000" points="309.5,-75.5 309.5,-94.5 411.5,-94.5 411.5,-75.5 309.5,-75.5"/>
<text text-anchor="middle" x="360.5" y="-82.5" font-family="Helvetica,sans-Serif" font-size="10.00" fill="#000000">js_build_module_ns</text>
</a>
</g>
</g>
<!-- Node68469&#45;&gt;Node69002 -->
<g id="edge11" class="edge">
<title>Node68469&#45;&gt;Node69002</title>
<path fill="none" stroke="#191970" d="M265.6736,-95.475C280.4932,-93.838 295.6662,-92.1619 309.4073,-90.644"/>
<polygon fill="#191970" stroke="#191970" points="265.0474,-92.0228 255.4922,-96.5997 265.8161,-98.9805 265.0474,-92.0228"/>
</g>
<!-- Node69008 -->
<g id="node10" class="node">
<title>Node69008</title>
<g id="a_node10"><a xlink:href="quickjs_8c.html#ac00854b7f1f0f8567af964a2f8f2adb0" target="_top" xlink:title="JS_SetPropertyFunctionList">
<polygon fill="none" stroke="#ff0000" points="291,-37.5 291,-56.5 430,-56.5 430,-37.5 291,-37.5"/>
<text text-anchor="middle" x="360.5" y="-44.5" font-family="Helvetica,sans-Serif" font-size="10.00" fill="#000000">JS_SetPropertyFunctionList</text>
</a>
</g>
</g>
<!-- Node68469&#45;&gt;Node69008 -->
<g id="edge12" class="edge">
<title>Node68469&#45;&gt;Node69008</title>
<path fill="none" stroke="#191970" d="M236.6679,-91.5238C242.9035,-89.5347 249.1505,-87.3497 255,-85 271.7879,-78.2565 274.1738,-72.6474 291,-66 300.0743,-62.4151 310.071,-59.2509 319.5855,-56.5838"/>
<polygon fill="#191970" stroke="#191970" points="235.4859,-88.2249 226.9374,-94.4837 237.5232,-94.9219 235.4859,-88.2249"/>
</g>
<!-- Node68471 -->
<g id="node7" class="node">
<title>Node68471</title>
<g id="a_node7"><a xlink:href="quickjs_8c.html#ac2894ff4edcdb4e6841bcce9c76081e3" target="_top" xlink:title="JS_CallInternal">
<polygon fill="none" stroke="#ff0000" points="486,-113.5 486,-132.5 569,-132.5 569,-113.5 486,-113.5"/>
<text text-anchor="middle" x="527.5" y="-120.5" font-family="Helvetica,sans-Serif" font-size="10.00" fill="#000000">JS_CallInternal</text>
</a>
</g>
</g>
<!-- Node68470&#45;&gt;Node68471 -->
<g id="edge7" class="edge">
<title>Node68470&#45;&gt;Node68471</title>
<path fill="none" stroke="#191970" d="M401.272,-123C426.9141,-123 459.915,-123 485.7426,-123"/>
<polygon fill="#191970" stroke="#191970" points="401.1304,-119.5001 391.1304,-123 401.1303,-126.5001 401.1304,-119.5001"/>
</g>
<!-- Node69005 -->
<g id="node8" class="node">
<title>Node69005</title>
<g id="a_node8"><a xlink:href="quickjs_8c.html#a5d217acce00892ab2b50a1dcc1eb4cc8" target="_top" xlink:title="JS_EvalFunctionInternal">
<polygon fill="none" stroke="#ff0000" points="466,-75.5 466,-94.5 589,-94.5 589,-75.5 466,-75.5"/>
<text text-anchor="middle" x="527.5" y="-82.5" font-family="Helvetica,sans-Serif" font-size="10.00" fill="#000000">JS_EvalFunctionInternal</text>
</a>
</g>
</g>
<!-- Node68470&#45;&gt;Node69005 -->
<g id="edge9" class="edge">
<title>Node68470&#45;&gt;Node69005</title>
<path fill="none" stroke="#191970" d="M400.9306,-113.8002C426.6206,-107.9546 459.8002,-100.4047 485.7426,-94.5017"/>
<polygon fill="#191970" stroke="#191970" points="400.1045,-110.3986 391.1304,-116.0302 401.6577,-117.2242 400.1045,-110.3986"/>
</g>
<!-- Node68471&#45;&gt;Node68471 -->
<g id="edge8" class="edge">
<title>Node68471&#45;&gt;Node68471</title>
<path fill="none" stroke="#191970" d="M500.6208,-141.6539C501.7444,-146.9368 510.7041,-151 527.5,-151 553.0938,-151 560.4919,-141.5653 549.6946,-132.7571"/>
<polygon fill="#191970" stroke="#191970" points="503.7433,-143.2361 505.3054,-132.7571 497.5494,-139.9747 503.7433,-143.2361"/>
</g>
<!-- Node69005&#45;&gt;Node68466 -->
<g id="edge10" class="edge">
<title>Node69005&#45;&gt;Node68466</title>
<path fill="none" stroke="#191970" d="M568.6223,-97.5665C575.4369,-99.6885 582.4232,-101.8882 589,-104 607.5879,-109.9685 628.4063,-116.9062 644.6675,-122.3825"/>
<polygon fill="#191970" stroke="#191970" points="569.4165,-94.1485 558.8287,-94.5323 567.345,-100.835 569.4165,-94.1485"/>
</g>
<!-- Node68670&#45;&gt;Node68670 -->
<g id="edge15" class="edge">
<title>Node68670&#45;&gt;Node68670</title>
<path fill="none" stroke="#191970" d="M161.6208,-28.6539C162.7444,-33.9368 171.7041,-38 188.5,-38 214.0938,-38 221.4919,-28.5653 210.6946,-19.7571"/>
<polygon fill="#191970" stroke="#191970" points="164.7433,-30.2361 166.3054,-19.7571 158.5494,-26.9747 164.7433,-30.2361"/>
</g>
</g>
</svg>
        <g id="navigator" transform="translate(0 0)" fill="#404254">
                <rect fill="#f2f5e9" fill-opacity="0.5" stroke="#606060" stroke-width=".5" x="0" y="0" width="60" height="60"/>
                <use id="zoomplus" xlink:href="#zoomPlus" x="17" y="9" onmousedown="handleZoom(evt,'in')"/>
                <use id="zoomminus" xlink:href="#zoomMin" x="42" y="9" onmousedown="handleZoom(evt,'out')"/>
                <use id="reset" xlink:href="#resetDef" x="30" y="36" onmousedown="handleReset()"/>
                <g id="arrowUp" xlink:href="#dirArrow" transform="translate(30 24)" onmousedown="handlePan(0,-1)">
                  <use xlink:href="#rim" fill="#404040">
                        <set attributeName="fill" to="#808080" begin="arrowUp.mouseover" end="arrowUp.mouseout"/>
                  </use>
                  <path fill="none" stroke="white" stroke-width="1.5" d="M0,-3.0v7 M-2.5,-0.5L0,-3.0L2.5,-0.5"/>
                </g>
                <g id="arrowRight" xlink:href="#dirArrow" transform="rotate(90) translate(36 -43)" onmousedown="handlePan(1,0)">
                  <use xlink:href="#rim" fill="#404040">
                        <set attributeName="fill" to="#808080" begin="arrowRight.mouseover" end="arrowRight.mouseout"/>
                  </use>
                  <path fill="none" stroke="white" stroke-width="1.5" d="M0,-3.0v7 M-2.5,-0.5L0,-3.0L2.5,-0.5"/>
                </g>
                <g id="arrowDown" xlink:href="#dirArrow" transform="rotate(180) translate(-30 -48)" onmousedown="handlePan(0,1)">
                  <use xlink:href="#rim" fill="#404040">
                        <set attributeName="fill" to="#808080" begin="arrowDown.mouseover" end="arrowDown.mouseout"/>
                  </use>
                  <path fill="none" stroke="white" stroke-width="1.5" d="M0,-3.0v7 M-2.5,-0.5L0,-3.0L2.5,-0.5"/>
                </g>
                <g id="arrowLeft" xlink:href="#dirArrow" transform="rotate(270) translate(-36 17)" onmousedown="handlePan(-1,0)">
                  <use xlink:href="#rim" fill="#404040">
                        <set attributeName="fill" to="#808080" begin="arrowLeft.mouseover" end="arrowLeft.mouseout"/>
                  </use>
                  <path fill="none" stroke="white" stroke-width="1.5" d="M0,-3.0v7 M-2.5,-0.5L0,-3.0L2.5,-0.5"/>
                </g>
        </g>
        <svg viewBox="0 0 15 15" width="100%" height="30px" preserveAspectRatio="xMaxYMin meet">
         <g id="arrow_out" transform="scale(0.3 0.3)">
          <a xlink:href="quickjs_8c_a2814982d965920b44b14bef36ba18bba_icgraph_org.svg" target="_base">
           <rect id="button" ry="5" rx="5" y="6" x="6" height="38" width="38"
                fill="#f2f5e9" fill-opacity="0.5" stroke="#606060" stroke-width="1.0"/>
           <path id="arrow"
             d="M 11.500037,31.436501 C 11.940474,20.09759 22.043105,11.32322 32.158766,21.979434 L 37.068811,17.246167 C 37.068811,17.246167 37.088388,32 37.088388,32 L 22.160133,31.978069 C 22.160133,31.978069 26.997745,27.140456 26.997745,27.140456 C 18.528582,18.264221 13.291696,25.230495 11.500037,31.436501 z"
             style="fill:#404040;"/>
          </a>
         </g>
        </svg>
</svg>
