<?xml version="1.0" encoding="UTF-8" standalone="no"?>
<!DOCTYPE svg PUBLIC "-//W3C//DTD SVG 1.1//EN"
 "http://www.w3.org/Graphics/SVG/1.1/DTD/svg11.dtd">
<!-- Generated by graphviz version 2.40.1 (20161225.0304)
 -->
<!-- Title: is_digit Pages: 1 -->
<svg width="1987pt" height="1140pt"
 viewBox="0.00 0.00 1987.00 1139.57" xmlns="http://www.w3.org/2000/svg" xmlns:xlink="http://www.w3.org/1999/xlink">
<g id="graph0" class="graph" transform="scale(1 1) rotate(0) translate(4 1135.5716)">
<title>is_digit</title>
<!-- Node58398 -->
<g id="node1" class="node">
<title>Node58398</title>
<polygon fill="#bfbfbf" stroke="#000000" points="0,-571.0692 0,-590.0692 47,-590.0692 47,-571.0692 0,-571.0692"/>
<text text-anchor="middle" x="23.5" y="-578.0692" font-family="Helvetica,sans-Serif" font-size="10.00" fill="#000000">is_digit</text>
</g>
<!-- Node58399 -->
<g id="node2" class="node">
<title>Node58399</title>
<g id="a_node2"><a xlink:href="quickjs_8c.html#a40bcef4994dba57dfb34b6eed66daef0" target="_top" xlink:title="js_atof">
<polygon fill="none" stroke="#000000" points="106.5,-685.0692 106.5,-704.0692 152.5,-704.0692 152.5,-685.0692 106.5,-685.0692"/>
<text text-anchor="middle" x="129.5" y="-692.0692" font-family="Helvetica,sans-Serif" font-size="10.00" fill="#000000">js_atof</text>
</a>
</g>
</g>
<!-- Node58398&#45;&gt;Node58399 -->
<g id="edge1" class="edge">
<title>Node58398&#45;&gt;Node58399</title>
<path fill="none" stroke="#191970" d="M39.4439,-597.7164C62.009,-621.9845 102.512,-665.5444 120.4854,-684.8742"/>
<polygon fill="#191970" stroke="#191970" points="41.9102,-595.2289 32.5375,-590.2888 36.7838,-599.9955 41.9102,-595.2289"/>
</g>
<!-- Node58985 -->
<g id="node4" class="node">
<title>Node58985</title>
<g id="a_node4"><a xlink:href="quickjs_8c.html#a75a3798e2045f6e403c1ef467126d1fb" target="_top" xlink:title="next_token">
<polygon fill="none" stroke="#ff0000" points="365,-609.0692 365,-628.0692 430,-628.0692 430,-609.0692 365,-609.0692"/>
<text text-anchor="middle" x="397.5" y="-616.0692" font-family="Helvetica,sans-Serif" font-size="10.00" fill="#000000">next_token</text>
</a>
</g>
</g>
<!-- Node58398&#45;&gt;Node58985 -->
<g id="edge78" class="edge">
<title>Node58398&#45;&gt;Node58985</title>
<path fill="none" stroke="#191970" d="M48.3212,-565.8843C102.3949,-535.9681 233.626,-474.7571 329,-523.5692 364.8391,-541.9116 386.2167,-588.7101 394.0638,-608.9742"/>
<polygon fill="#191970" stroke="#191970" points="46.4237,-562.9364 39.4402,-570.9039 49.868,-569.0304 46.4237,-562.9364"/>
</g>
<!-- Node58993 -->
<g id="node27" class="node">
<title>Node58993</title>
<g id="a_node27"><a xlink:href="quickjs_8c.html#a522741f41afb1d0da0aa55968cd8579e" target="_top" xlink:title="JS_NewAtomLen">
<polygon fill="none" stroke="#000000" points="83,-571.0692 83,-590.0692 176,-590.0692 176,-571.0692 83,-571.0692"/>
<text text-anchor="middle" x="129.5" y="-578.0692" font-family="Helvetica,sans-Serif" font-size="10.00" fill="#000000">JS_NewAtomLen</text>
</a>
</g>
</g>
<!-- Node58398&#45;&gt;Node58993 -->
<g id="edge73" class="edge">
<title>Node58398&#45;&gt;Node58993</title>
<path fill="none" stroke="#191970" d="M57.1668,-580.5692C65.2441,-580.5692 74.0155,-580.5692 82.5729,-580.5692"/>
<polygon fill="#191970" stroke="#191970" points="57.0249,-577.0693 47.0248,-580.5692 57.0248,-584.0693 57.0249,-577.0693"/>
</g>
<!-- Node58400 -->
<g id="node3" class="node">
<title>Node58400</title>
<g id="a_node3"><a xlink:href="quickjs_8c.html#a0315f23b9804563f376c47edef2967fd" target="_top" xlink:title="JS_ToNumberHintFree">
<polygon fill="none" stroke="#ff0000" points="212,-723.0692 212,-742.0692 329,-742.0692 329,-723.0692 212,-723.0692"/>
<text text-anchor="middle" x="270.5" y="-730.0692" font-family="Helvetica,sans-Serif" font-size="10.00" fill="#000000">JS_ToNumberHintFree</text>
</a>
</g>
</g>
<!-- Node58399&#45;&gt;Node58400 -->
<g id="edge2" class="edge">
<title>Node58399&#45;&gt;Node58400</title>
<path fill="none" stroke="#191970" d="M162.5656,-703.4805C184.3244,-709.3446 212.784,-717.0146 235.0165,-723.0063"/>
<polygon fill="#191970" stroke="#191970" points="163.3496,-700.067 152.7833,-700.8441 161.528,-706.8258 163.3496,-700.067"/>
</g>
<!-- Node58399&#45;&gt;Node58985 -->
<g id="edge3" class="edge">
<title>Node58399&#45;&gt;Node58985</title>
<path fill="none" stroke="#191970" d="M146.8154,-711.2811C162.4304,-725.1042 186.759,-743.6976 212,-751.5692 261.642,-767.0505 284.6035,-778.6423 329,-751.5692 374.9024,-723.5779 391.3589,-653.8952 395.977,-628.2453"/>
<polygon fill="#191970" stroke="#191970" points="148.8214,-708.3717 139.0864,-704.1908 144.0894,-713.53 148.8214,-708.3717"/>
</g>
<!-- Node58804 -->
<g id="node25" class="node">
<title>Node58804</title>
<g id="a_node25"><a xlink:href="quickjs_8c.html#aed39bc2ad38569d153500dc6ae23cd6c" target="_top" xlink:title="js_parseInt">
<polygon fill="none" stroke="#000000" points="238,-685.0692 238,-704.0692 303,-704.0692 303,-685.0692 238,-685.0692"/>
<text text-anchor="middle" x="270.5" y="-692.0692" font-family="Helvetica,sans-Serif" font-size="10.00" fill="#000000">js_parseInt</text>
</a>
</g>
</g>
<!-- Node58399&#45;&gt;Node58804 -->
<g id="edge71" class="edge">
<title>Node58399&#45;&gt;Node58804</title>
<path fill="none" stroke="#191970" d="M162.964,-694.5692C185.6439,-694.5692 215.4651,-694.5692 237.9498,-694.5692"/>
<polygon fill="#191970" stroke="#191970" points="162.7833,-691.0693 152.7833,-694.5692 162.7832,-698.0693 162.7833,-691.0693"/>
</g>
<!-- Node58805 -->
<g id="node26" class="node">
<title>Node58805</title>
<g id="a_node26"><a xlink:href="quickjs_8c.html#abb21478f7d3d0ff964efbe82a673daef" target="_top" xlink:title="js_parseFloat">
<polygon fill="none" stroke="#000000" points="233,-647.0692 233,-666.0692 308,-666.0692 308,-647.0692 233,-647.0692"/>
<text text-anchor="middle" x="270.5" y="-654.0692" font-family="Helvetica,sans-Serif" font-size="10.00" fill="#000000">js_parseFloat</text>
</a>
</g>
</g>
<!-- Node58399&#45;&gt;Node58805 -->
<g id="edge72" class="edge">
<title>Node58399&#45;&gt;Node58805</title>
<path fill="none" stroke="#191970" d="M162.5656,-685.6579C184.3244,-679.7939 212.784,-672.1239 235.0165,-666.1322"/>
<polygon fill="#191970" stroke="#191970" points="161.528,-682.3126 152.7833,-688.2943 163.3496,-689.0715 161.528,-682.3126"/>
</g>
<!-- Node58986 -->
<g id="node5" class="node">
<title>Node58986</title>
<g id="a_node5"><a xlink:href="quickjs_8c.html#aeca8ed71e1eef8ec809afab744958c28" target="_top" xlink:title="js_parse_expect">
<polygon fill="none" stroke="#ff0000" points="476.5,-456.0692 476.5,-475.0692 564.5,-475.0692 564.5,-456.0692 476.5,-456.0692"/>
<text text-anchor="middle" x="520.5" y="-463.0692" font-family="Helvetica,sans-Serif" font-size="10.00" fill="#000000">js_parse_expect</text>
</a>
</g>
</g>
<!-- Node58985&#45;&gt;Node58986 -->
<g id="edge4" class="edge">
<title>Node58985&#45;&gt;Node58986</title>
<path fill="none" stroke="#191970" d="M411.7527,-600.8402C437.8816,-568.3384 492.6212,-500.2478 512.8087,-475.1364"/>
<polygon fill="#191970" stroke="#191970" points="408.732,-599.0116 405.1942,-608.9984 414.1876,-603.3976 408.732,-599.0116"/>
</g>
<!-- Node58682 -->
<g id="node6" class="node">
<title>Node58682</title>
<g id="a_node6"><a xlink:href="quickjs_8c.html#a035daca514f14aacc1e0cff81d8e423a" target="_top" xlink:title="js_parse_template">
<polygon fill="none" stroke="#000000" points="632,-590.0692 632,-609.0692 728,-609.0692 728,-590.0692 632,-590.0692"/>
<text text-anchor="middle" x="680" y="-597.0692" font-family="Helvetica,sans-Serif" font-size="10.00" fill="#000000">js_parse_template</text>
</a>
</g>
</g>
<!-- Node58985&#45;&gt;Node58682 -->
<g id="edge47" class="edge">
<title>Node58985&#45;&gt;Node58682</title>
<path fill="none" stroke="#191970" d="M440.3113,-615.6899C491.8187,-612.2257 578.06,-606.4254 631.8417,-602.8082"/>
<polygon fill="#191970" stroke="#191970" points="439.9249,-612.2079 430.1823,-616.3711 440.3947,-619.1921 439.9249,-612.2079"/>
</g>
<!-- Node58660 -->
<g id="node7" class="node">
<title>Node58660</title>
<g id="a_node7"><a xlink:href="quickjs_8c.html#acdcc62310b4f6f73fa7bc7267b18b1d4" target="_top" xlink:title="js_parse_postfix_expr">
<polygon fill="none" stroke="#ff0000" points="796,-597.0692 796,-616.0692 908,-616.0692 908,-597.0692 796,-597.0692"/>
<text text-anchor="middle" x="852" y="-604.0692" font-family="Helvetica,sans-Serif" font-size="10.00" fill="#000000">js_parse_postfix_expr</text>
</a>
</g>
</g>
<!-- Node58985&#45;&gt;Node58660 -->
<g id="edge63" class="edge">
<title>Node58985&#45;&gt;Node58660</title>
<path fill="none" stroke="#191970" d="M440.3462,-622.1789C448.8409,-622.7584 457.6978,-623.2666 466,-623.5692 591.7139,-628.1512 623.5317,-627.6633 749,-618.5692 764.2624,-617.463 780.7449,-615.7684 795.9545,-613.9982"/>
<polygon fill="#191970" stroke="#191970" points="440.4524,-618.6775 430.2256,-621.4456 439.9466,-625.6592 440.4524,-618.6775"/>
</g>
<!-- Node58661 -->
<g id="node8" class="node">
<title>Node58661</title>
<g id="a_node8"><a xlink:href="quickjs_8c.html#a00eb789430243c24dab4a63ad6a79653" target="_top" xlink:title="js_parse_class">
<polygon fill="none" stroke="#ff0000" points="1880.5,-367.0692 1880.5,-386.0692 1962.5,-386.0692 1962.5,-367.0692 1880.5,-367.0692"/>
<text text-anchor="middle" x="1921.5" y="-374.0692" font-family="Helvetica,sans-Serif" font-size="10.00" fill="#000000">js_parse_class</text>
</a>
</g>
</g>
<!-- Node58985&#45;&gt;Node58661 -->
<g id="edge58" class="edge">
<title>Node58985&#45;&gt;Node58661</title>
<path fill="none" stroke="#191970" d="M398.8864,-598.7029C405.1415,-511.7465 431.9178,-167.5274 466,-134.5692 534.7655,-68.0716 584.3411,-111.5692 680,-111.5692 680,-111.5692 680,-111.5692 1310.5,-111.5692 1543.8017,-111.5692 1655.0114,-43.0297 1828,-199.5692 1872.7711,-240.0831 1830.8028,-280.1334 1864,-330.5692 1874.2618,-346.1598 1891.521,-358.9291 1904.4584,-367.0243"/>
<polygon fill="#191970" stroke="#191970" points="395.386,-598.5854 398.1691,-608.8081 402.3684,-599.0811 395.386,-598.5854"/>
</g>
<!-- Node58673 -->
<g id="node9" class="node">
<title>Node58673</title>
<g id="a_node9"><a xlink:href="quickjs_8c.html#a26be546cf89c4580ba9020e8fc43a759" target="_top" xlink:title="js_parse_destructuring\l_element">
<polygon fill="none" stroke="#ff0000" points="1864,-273.5692 1864,-303.5692 1979,-303.5692 1979,-273.5692 1864,-273.5692"/>
<text text-anchor="start" x="1872" y="-291.5692" font-family="Helvetica,sans-Serif" font-size="10.00" fill="#000000">js_parse_destructuring</text>
<text text-anchor="middle" x="1921.5" y="-280.5692" font-family="Helvetica,sans-Serif" font-size="10.00" fill="#000000">_element</text>
</a>
</g>
</g>
<!-- Node58985&#45;&gt;Node58673 -->
<g id="edge62" class="edge">
<title>Node58985&#45;&gt;Node58673</title>
<path fill="none" stroke="#191970" d="M398.6478,-598.8146C404.1326,-507.6448 428.9454,-130.4505 466,-94.5692 534.6549,-28.0882 584.432,-73.5692 680,-73.5692 680,-73.5692 680,-73.5692 1617,-73.5692 1718.268,-73.5692 1748.3305,-97.0553 1828,-159.5692 1869.1275,-191.8406 1900.4907,-246.7739 1914.0903,-273.3176"/>
<polygon fill="#191970" stroke="#191970" points="395.1483,-598.7043 398.0507,-608.8938 402.1361,-599.1184 395.1483,-598.7043"/>
</g>
<!-- Node58675 -->
<g id="node10" class="node">
<title>Node58675</title>
<g id="a_node10"><a xlink:href="quickjs_8c.html#af99673e7430294cf15dc24dc5dac227f" target="_top" xlink:title="js_parse_unary">
<polygon fill="none" stroke="#000000" points="970.5,-872.0692 970.5,-891.0692 1053.5,-891.0692 1053.5,-872.0692 970.5,-872.0692"/>
<text text-anchor="middle" x="1012" y="-879.0692" font-family="Helvetica,sans-Serif" font-size="10.00" fill="#000000">js_parse_unary</text>
</a>
</g>
</g>
<!-- Node58985&#45;&gt;Node58675 -->
<g id="edge65" class="edge">
<title>Node58985&#45;&gt;Node58675</title>
<path fill="none" stroke="#191970" d="M401.375,-637.9792C410.9134,-683.7094 436.8812,-796.1322 466,-819.5692 616.4949,-940.6989 870.5375,-908.9914 970.1466,-890.4484"/>
<polygon fill="#191970" stroke="#191970" points="404.7905,-637.2112 399.3582,-628.115 397.9324,-638.6134 404.7905,-637.2112"/>
</g>
<!-- Node58676 -->
<g id="node11" class="node">
<title>Node58676</title>
<g id="a_node11"><a xlink:href="quickjs_8c.html#a2ecfb6abb190101748202a8aa5821fba" target="_top" xlink:title="js_parse_delete">
<polygon fill="none" stroke="#000000" points="1117,-928.0692 1117,-947.0692 1202,-947.0692 1202,-928.0692 1117,-928.0692"/>
<text text-anchor="middle" x="1159.5" y="-935.0692" font-family="Helvetica,sans-Serif" font-size="10.00" fill="#000000">js_parse_delete</text>
</a>
</g>
</g>
<!-- Node58985&#45;&gt;Node58676 -->
<g id="edge64" class="edge">
<title>Node58985&#45;&gt;Node58676</title>
<path fill="none" stroke="#191970" d="M400.5881,-638.1837C409.1467,-690.2498 434.622,-830.2399 466,-863.5692 534.9838,-936.8429 579.363,-937.5692 680,-937.5692 680,-937.5692 680,-937.5692 852,-937.5692 946.6257,-937.5692 1057.6306,-937.5692 1116.9704,-937.5692"/>
<polygon fill="#191970" stroke="#191970" points="404.0288,-637.5351 398.9818,-628.2196 397.1181,-638.6492 404.0288,-637.5351"/>
</g>
<!-- Node58677 -->
<g id="node12" class="node">
<title>Node58677</title>
<g id="a_node12"><a xlink:href="quickjs_8c.html#ab1c84e1eb8a5f06b9257c3c9b5a6f024" target="_top" xlink:title="js_parse_expr_binary">
<polygon fill="none" stroke="#000000" points="1105,-872.0692 1105,-891.0692 1214,-891.0692 1214,-872.0692 1105,-872.0692"/>
<text text-anchor="middle" x="1159.5" y="-879.0692" font-family="Helvetica,sans-Serif" font-size="10.00" fill="#000000">js_parse_expr_binary</text>
</a>
</g>
</g>
<!-- Node58985&#45;&gt;Node58677 -->
<g id="edge66" class="edge">
<title>Node58985&#45;&gt;Node58677</title>
<path fill="none" stroke="#191970" d="M401.3123,-638.0589C410.7121,-683.965 436.3969,-796.747 466,-819.5692 678.787,-983.6147 802.9133,-825.3256 1069,-862.5692 1085.6943,-864.9059 1103.9187,-868.5221 1119.6096,-871.9751"/>
<polygon fill="#191970" stroke="#191970" points="404.7242,-637.2721 399.3262,-628.1556 397.8609,-638.6486 404.7242,-637.2721"/>
</g>
<!-- Node58678 -->
<g id="node13" class="node">
<title>Node58678</title>
<g id="a_node13"><a xlink:href="quickjs_8c.html#a2af8c0e05d949d0ae23d94c8e73e5494" target="_top" xlink:title="js_parse_logical_and_or">
<polygon fill="none" stroke="#000000" points="1250,-910.0692 1250,-929.0692 1371,-929.0692 1371,-910.0692 1250,-910.0692"/>
<text text-anchor="middle" x="1310.5" y="-917.0692" font-family="Helvetica,sans-Serif" font-size="10.00" fill="#000000">js_parse_logical_and_or</text>
</a>
</g>
</g>
<!-- Node58985&#45;&gt;Node58678 -->
<g id="edge67" class="edge">
<title>Node58985&#45;&gt;Node58678</title>
<path fill="none" stroke="#191970" d="M399.5846,-638.4082C406.171,-697.4494 428.355,-870.4159 466,-910.5692 533.9861,-983.0853 580.5983,-975.5692 680,-975.5692 680,-975.5692 680,-975.5692 1012,-975.5692 1102.174,-975.5692 1126.1997,-977.1232 1214,-956.5692 1241.2538,-950.1891 1271.1262,-937.8453 1290.3053,-929.1752"/>
<polygon fill="#191970" stroke="#191970" points="403.0344,-637.7558 398.4754,-628.1921 396.0753,-638.5115 403.0344,-637.7558"/>
</g>
<!-- Node58679 -->
<g id="node14" class="node">
<title>Node58679</title>
<g id="a_node14"><a xlink:href="quickjs_8c.html#a2a6a8f6738ae03f046617522b9781245" target="_top" xlink:title="js_parse_coalesce_expr">
<polygon fill="none" stroke="#000000" points="1407,-853.0692 1407,-872.0692 1529,-872.0692 1529,-853.0692 1407,-853.0692"/>
<text text-anchor="middle" x="1468" y="-860.0692" font-family="Helvetica,sans-Serif" font-size="10.00" fill="#000000">js_parse_coalesce_expr</text>
</a>
</g>
</g>
<!-- Node58985&#45;&gt;Node58679 -->
<g id="edge68" class="edge">
<title>Node58985&#45;&gt;Node58679</title>
<path fill="none" stroke="#191970" d="M410.8714,-636.0816C448.0317,-682.5717 557.885,-805.5692 680,-805.5692 680,-805.5692 680,-805.5692 852,-805.5692 1056.0625,-805.5692 1296.5386,-836.9672 1406.9706,-853.1568"/>
<polygon fill="#191970" stroke="#191970" points="413.5351,-633.8065 404.6085,-628.0997 408.0279,-638.1276 413.5351,-633.8065"/>
</g>
<!-- Node58680 -->
<g id="node15" class="node">
<title>Node58680</title>
<g id="a_node15"><a xlink:href="quickjs_8c.html#abd2cbff624ea609dbf883fb1a2f048cd" target="_top" xlink:title="js_parse_cond_expr">
<polygon fill="none" stroke="#000000" points="1565,-796.0692 1565,-815.0692 1669,-815.0692 1669,-796.0692 1565,-796.0692"/>
<text text-anchor="middle" x="1617" y="-803.0692" font-family="Helvetica,sans-Serif" font-size="10.00" fill="#000000">js_parse_cond_expr</text>
</a>
</g>
</g>
<!-- Node58985&#45;&gt;Node58680 -->
<g id="edge69" class="edge">
<title>Node58985&#45;&gt;Node58680</title>
<path fill="none" stroke="#191970" d="M398.8724,-638.4141C403.7564,-703.3327 422.3871,-907.8895 466,-954.5692 533.3545,-1026.6601 581.3403,-1013.5692 680,-1013.5692 680,-1013.5692 680,-1013.5692 1310.5,-1013.5692 1453.5851,-1013.5692 1579.4798,-856.4449 1609.9786,-815.3225"/>
<polygon fill="#191970" stroke="#191970" points="402.3529,-638.016 398.139,-628.2953 395.3712,-638.5222 402.3529,-638.016"/>
</g>
<!-- Node58681 -->
<g id="node16" class="node">
<title>Node58681</title>
<g id="a_node16"><a xlink:href="quickjs_8c.html#a4fa2fc1719feb03edf64eaf034103fd2" target="_top" xlink:title="js_parse_assign_expr">
<polygon fill="none" stroke="#ff0000" points="1711,-720.0692 1711,-739.0692 1822,-739.0692 1822,-720.0692 1711,-720.0692"/>
<text text-anchor="middle" x="1766.5" y="-727.0692" font-family="Helvetica,sans-Serif" font-size="10.00" fill="#000000">js_parse_assign_expr</text>
</a>
</g>
</g>
<!-- Node58985&#45;&gt;Node58681 -->
<g id="edge70" class="edge">
<title>Node58985&#45;&gt;Node58681</title>
<path fill="none" stroke="#191970" d="M398.3191,-638.1999C401.6403,-708.2313 416.3932,-944.4495 466,-997.5692 532.9507,-1069.2611 581.9076,-1051.5692 680,-1051.5692 680,-1051.5692 680,-1051.5692 1468,-1051.5692 1642.9437,-1051.5692 1744.1186,-792.7829 1763.1903,-739.206"/>
<polygon fill="#191970" stroke="#191970" points="401.8111,-637.9424 397.8666,-628.1093 394.8181,-638.256 401.8111,-637.9424"/>
</g>
<!-- Node58671 -->
<g id="node17" class="node">
<title>Node58671</title>
<g id="a_node17"><a xlink:href="quickjs_8c.html#aee6d0acd87f136d43f157ae1426436e6" target="_top" xlink:title="js_parse_object_literal">
<polygon fill="none" stroke="#000000" points="1865,-606.0692 1865,-625.0692 1978,-625.0692 1978,-606.0692 1865,-606.0692"/>
<text text-anchor="middle" x="1921.5" y="-613.0692" font-family="Helvetica,sans-Serif" font-size="10.00" fill="#000000">js_parse_object_literal</text>
</a>
</g>
</g>
<!-- Node58985&#45;&gt;Node58671 -->
<g id="edge56" class="edge">
<title>Node58985&#45;&gt;Node58671</title>
<path fill="none" stroke="#191970" d="M397.9194,-638.389C399.9181,-713.4857 410.8386,-979.2693 466,-1038.5692 532.5939,-1110.1594 582.2253,-1089.5692 680,-1089.5692 680,-1089.5692 680,-1089.5692 1617,-1089.5692 1825.1846,-1089.5692 1755.6092,-869.3114 1864,-691.5692 1879.3334,-666.4251 1901.1427,-639.5041 1913.0093,-625.4334"/>
<polygon fill="#191970" stroke="#191970" points="401.4183,-638.2974 397.6773,-628.385 394.4204,-638.4668 401.4183,-638.2974"/>
</g>
<!-- Node58683 -->
<g id="node18" class="node">
<title>Node58683</title>
<g id="a_node18"><a xlink:href="quickjs_8c.html#a253917187cfb6b3db09d355b31edb3d5" target="_top" xlink:title="js_parse_array_literal">
<polygon fill="none" stroke="#000000" points="1867,-701.0692 1867,-720.0692 1976,-720.0692 1976,-701.0692 1867,-701.0692"/>
<text text-anchor="middle" x="1921.5" y="-708.0692" font-family="Helvetica,sans-Serif" font-size="10.00" fill="#000000">js_parse_array_literal</text>
</a>
</g>
</g>
<!-- Node58985&#45;&gt;Node58683 -->
<g id="edge59" class="edge">
<title>Node58985&#45;&gt;Node58683</title>
<path fill="none" stroke="#191970" d="M399.1416,-638.4081C406.2616,-722.3598 435.4877,-1045.6034 466,-1078.5692 532.2779,-1150.1767 582.4275,-1127.5692 680,-1127.5692 680,-1127.5692 680,-1127.5692 1617,-1127.5692 1825.4194,-1127.5692 1906.4261,-783.6139 1919.5422,-720.4658"/>
<polygon fill="#191970" stroke="#191970" points="402.6095,-637.8778 398.2858,-628.2054 395.634,-638.463 402.6095,-637.8778"/>
</g>
<!-- Node58686 -->
<g id="node19" class="node">
<title>Node58686</title>
<g id="a_node19"><a xlink:href="quickjs_8c.html#a42234753f3193f37ce45b3c0ca4c25cd" target="_top" xlink:title="js_parse_property_name">
<polygon fill="none" stroke="#000000" points="1705,-342.0692 1705,-361.0692 1828,-361.0692 1828,-342.0692 1705,-342.0692"/>
<text text-anchor="middle" x="1766.5" y="-349.0692" font-family="Helvetica,sans-Serif" font-size="10.00" fill="#000000">js_parse_property_name</text>
</a>
</g>
</g>
<!-- Node58985&#45;&gt;Node58686 -->
<g id="edge48" class="edge">
<title>Node58985&#45;&gt;Node58686</title>
<path fill="none" stroke="#191970" d="M399.1633,-598.9019C406.2644,-517.0947 435.0907,-206.6174 466,-176.5692 534.7376,-109.7465 584.1349,-149.5692 680,-149.5692 680,-149.5692 680,-149.5692 1159.5,-149.5692 1406.0622,-149.5692 1681.4657,-301.4761 1750.2706,-341.8263"/>
<polygon fill="#191970" stroke="#191970" points="395.6754,-598.612 398.3076,-608.8746 402.6498,-599.2105 395.6754,-598.612"/>
</g>
<!-- Node58987 -->
<g id="node20" class="node">
<title>Node58987</title>
<g id="a_node20"><a xlink:href="quickjs_8c.html#a02cbd69384985a4e904190810cf45641" target="_top" xlink:title="js_parse_expect_semi">
<polygon fill="none" stroke="#ff0000" points="955,-178.0692 955,-197.0692 1069,-197.0692 1069,-178.0692 955,-178.0692"/>
<text text-anchor="middle" x="1012" y="-185.0692" font-family="Helvetica,sans-Serif" font-size="10.00" fill="#000000">js_parse_expect_semi</text>
</a>
</g>
</g>
<!-- Node58985&#45;&gt;Node58987 -->
<g id="edge45" class="edge">
<title>Node58985&#45;&gt;Node58987</title>
<path fill="none" stroke="#191970" d="M397.7807,-598.8573C399.2701,-525.3166 408.5674,-268.5319 466,-216.5692 536.3026,-152.9623 829.314,-170.961 954.6846,-181.9415"/>
<polygon fill="#191970" stroke="#191970" points="394.2784,-598.9675 397.6026,-609.0273 401.2773,-599.0902 394.2784,-598.9675"/>
</g>
<!-- Node58988 -->
<g id="node21" class="node">
<title>Node58988</title>
<g id="a_node21"><a xlink:href="quickjs_8c.html#aba7eb7aae2eb61bfccb4565ee626cd18" target="_top" xlink:title="js_parse_seek_token">
<polygon fill="none" stroke="#ff0000" points="466,-266.0692 466,-285.0692 575,-285.0692 575,-266.0692 466,-266.0692"/>
<text text-anchor="middle" x="520.5" y="-273.0692" font-family="Helvetica,sans-Serif" font-size="10.00" fill="#000000">js_parse_seek_token</text>
</a>
</g>
</g>
<!-- Node58985&#45;&gt;Node58988 -->
<g id="edge49" class="edge">
<title>Node58985&#45;&gt;Node58988</title>
<path fill="none" stroke="#191970" d="M400.3854,-598.4922C407.3421,-553.5558 427.3885,-442.1117 466,-356.5692 478.5515,-328.7619 500.3964,-300.0135 512.2606,-285.3949"/>
<polygon fill="#191970" stroke="#191970" points="396.8833,-598.2461 398.8626,-608.6544 403.806,-599.2835 396.8833,-598.2461"/>
</g>
<!-- Node58989 -->
<g id="node22" class="node">
<title>Node58989</title>
<g id="a_node22"><a xlink:href="quickjs_8c.html#ac00298085baf11a4a7bd600cf5de2e6d" target="_top" xlink:title="js_parse_skip_parens\l_token">
<polygon fill="none" stroke="#ff0000" points="624.5,-216.5692 624.5,-246.5692 735.5,-246.5692 735.5,-216.5692 624.5,-216.5692"/>
<text text-anchor="start" x="632.5" y="-234.5692" font-family="Helvetica,sans-Serif" font-size="10.00" fill="#000000">js_parse_skip_parens</text>
<text text-anchor="middle" x="680" y="-223.5692" font-family="Helvetica,sans-Serif" font-size="10.00" fill="#000000">_token</text>
</a>
</g>
</g>
<!-- Node58985&#45;&gt;Node58989 -->
<g id="edge55" class="edge">
<title>Node58985&#45;&gt;Node58989</title>
<path fill="none" stroke="#191970" d="M398.2719,-598.7225C401.3776,-529.9927 415.3456,-303.7623 466,-256.5692 507.8733,-217.5572 576.1342,-216.2469 624.2845,-221.5078"/>
<polygon fill="#191970" stroke="#191970" points="394.7629,-598.8653 397.837,-609.0043 401.7566,-599.1612 394.7629,-598.8653"/>
</g>
<!-- Node58668 -->
<g id="node23" class="node">
<title>Node58668</title>
<g id="a_node23"><a xlink:href="quickjs_8c.html#adf95ddf430ef93fd9efea1cc2f8a2fbe" target="_top" xlink:title="js_parse_class_default_ctor">
<polygon fill="none" stroke="#000000" points="611,-266.0692 611,-285.0692 749,-285.0692 749,-266.0692 611,-266.0692"/>
<text text-anchor="middle" x="680" y="-273.0692" font-family="Helvetica,sans-Serif" font-size="10.00" fill="#000000">js_parse_class_default_ctor</text>
</a>
</g>
</g>
<!-- Node58985&#45;&gt;Node58668 -->
<g id="edge57" class="edge">
<title>Node58985&#45;&gt;Node58668</title>
<path fill="none" stroke="#191970" d="M402.4682,-599.1967C411.5495,-566.0371 432.9862,-497.0938 466,-446.5692 516.1975,-369.7464 533.419,-348.5868 611,-299.5692 620.5428,-293.5398 631.79,-288.802 642.4032,-285.1864"/>
<polygon fill="#191970" stroke="#191970" points="399.0509,-598.4283 399.8632,-608.992 405.8158,-600.2274 399.0509,-598.4283"/>
</g>
<!-- Node58992 -->
<g id="node24" class="node">
<title>Node58992</title>
<g id="a_node24"><a xlink:href="quickjs_8c.html#ab10609a91c359ea5d3051f7bb646af83" target="_top" xlink:title="js_parse_destructuring_var">
<polygon fill="none" stroke="#000000" points="785,-26.0692 785,-45.0692 919,-45.0692 919,-26.0692 785,-26.0692"/>
<text text-anchor="middle" x="852" y="-33.0692" font-family="Helvetica,sans-Serif" font-size="10.00" fill="#000000">js_parse_destructuring_var</text>
</a>
</g>
</g>
<!-- Node58985&#45;&gt;Node58992 -->
<g id="edge60" class="edge">
<title>Node58985&#45;&gt;Node58992</title>
<path fill="none" stroke="#191970" d="M398.4562,-598.6721C403.2249,-503.4612 425.8185,-97.4156 466,-59.5692 564.9748,33.6537 748.8908,-5.588 821.4392,-26.0613"/>
<polygon fill="#191970" stroke="#191970" points="394.9588,-598.5368 397.9631,-608.6967 401.9503,-598.8808 394.9588,-598.5368"/>
</g>
<!-- Node58986&#45;&gt;Node58682 -->
<g id="edge5" class="edge">
<title>Node58986&#45;&gt;Node58682</title>
<path fill="none" stroke="#191970" d="M533.8471,-483.0597C550.3347,-503.8486 580.0218,-538.7184 611,-562.5692 625.4323,-573.681 643.6608,-583.2976 657.7572,-589.9399"/>
<polygon fill="#191970" stroke="#191970" points="536.5354,-480.8155 527.6238,-475.0854 531.017,-485.1222 536.5354,-480.8155"/>
</g>
<!-- Node58986&#45;&gt;Node58660 -->
<g id="edge43" class="edge">
<title>Node58986&#45;&gt;Node58660</title>
<path fill="none" stroke="#191970" d="M544.0899,-480.5862C562.0192,-491.6358 587.5192,-506.5825 611,-517.5692 684.3235,-551.8774 774.8173,-582.2743 821.2778,-597.0607"/>
<polygon fill="#191970" stroke="#191970" points="545.7929,-477.5235 535.4548,-475.2049 542.0905,-483.4643 545.7929,-477.5235"/>
</g>
<!-- Node58986&#45;&gt;Node58661 -->
<g id="edge40" class="edge">
<title>Node58986&#45;&gt;Node58661</title>
<path fill="none" stroke="#191970" d="M550.4953,-451.757C567.8555,-444.2427 590.3019,-435.3319 611,-429.5692 715.5981,-400.4476 743.4236,-389.5692 852,-389.5692 852,-389.5692 852,-389.5692 1617,-389.5692 1711.1847,-389.5692 1821.6072,-383.2842 1880.1523,-379.4543"/>
<polygon fill="#191970" stroke="#191970" points="548.649,-448.7461 540.9133,-455.9856 551.4752,-455.1502 548.649,-448.7461"/>
</g>
<!-- Node58986&#45;&gt;Node58673 -->
<g id="edge42" class="edge">
<title>Node58986&#45;&gt;Node58673</title>
<path fill="none" stroke="#191970" d="M535.7595,-448.3306C547.049,-435.2877 562.5592,-416.7478 575,-399.5692 592.5745,-375.3017 585.6715,-358.5769 611,-342.5692 702.1972,-284.9325 744.1162,-313.5692 852,-313.5692 852,-313.5692 852,-313.5692 1468,-313.5692 1610.5253,-313.5692 1777.865,-301.1064 1863.9278,-293.7796"/>
<polygon fill="#191970" stroke="#191970" points="532.969,-446.2049 529.0249,-456.0383 538.2403,-450.8108 532.969,-446.2049"/>
</g>
<!-- Node58986&#45;&gt;Node58680 -->
<g id="edge44" class="edge">
<title>Node58986&#45;&gt;Node58680</title>
<path fill="none" stroke="#191970" d="M574.6345,-455.5201C640.0879,-444.262 753.7103,-427.5692 852,-427.5692 852,-427.5692 852,-427.5692 1012,-427.5692 1083.7559,-427.5692 1521.404,-737.3478 1603.6739,-796.0363"/>
<polygon fill="#191970" stroke="#191970" points="573.8035,-452.1121 564.5529,-457.2769 575.0053,-459.0082 573.8035,-452.1121"/>
</g>
<!-- Node58986&#45;&gt;Node58671 -->
<g id="edge39" class="edge">
<title>Node58986&#45;&gt;Node58671</title>
<path fill="none" stroke="#191970" d="M574.8526,-465.5692C640.5192,-465.5692 754.3497,-465.5692 852,-465.5692 852,-465.5692 852,-465.5692 1468,-465.5692 1647.5384,-465.5692 1847.7539,-572.8513 1905.2648,-605.9579"/>
<polygon fill="#191970" stroke="#191970" points="574.737,-462.0693 564.7369,-465.5692 574.7369,-469.0693 574.737,-462.0693"/>
</g>
<!-- Node58986&#45;&gt;Node58683 -->
<g id="edge41" class="edge">
<title>Node58986&#45;&gt;Node58683</title>
<path fill="none" stroke="#191970" d="M574.6345,-475.6183C640.0879,-486.8765 753.7103,-503.5692 852,-503.5692 852,-503.5692 852,-503.5692 1310.5,-503.5692 1559.6971,-503.5692 1837.2723,-659.9381 1905.6516,-700.8628"/>
<polygon fill="#191970" stroke="#191970" points="575.0053,-472.1303 564.5529,-473.8615 573.8035,-479.0264 575.0053,-472.1303"/>
</g>
<!-- Node58986&#45;&gt;Node58686 -->
<g id="edge35" class="edge">
<title>Node58986&#45;&gt;Node58686</title>
<path fill="none" stroke="#191970" d="M532.5742,-447.6003C547.9918,-426.3124 576.8083,-391.7054 611,-375.5692 708.345,-329.6289 744.3591,-351.5692 852,-351.5692 852,-351.5692 852,-351.5692 1468,-351.5692 1549.8802,-351.5692 1644.3943,-351.5692 1704.7574,-351.5692"/>
<polygon fill="#191970" stroke="#191970" points="529.6887,-445.6192 526.8104,-455.8156 535.419,-449.6396 529.6887,-445.6192"/>
</g>
<!-- Node58682&#45;&gt;Node58660 -->
<g id="edge6" class="edge">
<title>Node58682&#45;&gt;Node58660</title>
<path fill="none" stroke="#191970" d="M738.4438,-601.9477C756.9768,-602.702 777.419,-603.5339 795.7914,-604.2817"/>
<polygon fill="#191970" stroke="#191970" points="738.5034,-598.4474 728.3693,-601.5377 738.2187,-605.4416 738.5034,-598.4474"/>
</g>
<!-- Node58660&#45;&gt;Node58660 -->
<g id="edge12" class="edge">
<title>Node58660&#45;&gt;Node58660</title>
<path fill="none" stroke="#191970" d="M822.0599,-624.8438C822.9135,-630.3102 832.8936,-634.5692 852,-634.5692 880.4375,-634.5692 888.6577,-625.1345 876.6606,-616.3263"/>
<polygon fill="#191970" stroke="#191970" points="825.0458,-626.6699 827.3394,-616.3263 819.096,-622.982 825.0458,-626.6699"/>
</g>
<!-- Node58660&#45;&gt;Node58661 -->
<g id="edge7" class="edge">
<title>Node58660&#45;&gt;Node58661</title>
<path fill="none" stroke="#191970" d="M918.1918,-599.5989C980.4652,-597.5692 1076.3121,-597.5692 1159.5,-597.5692 1159.5,-597.5692 1159.5,-597.5692 1310.5,-597.5692 1545.5465,-597.5692 1631.5095,-617.5589 1828,-488.5692 1869.723,-461.1794 1900.5905,-408.7623 1914.045,-386.4127"/>
<polygon fill="#191970" stroke="#191970" points="917.981,-596.1041 908.1116,-599.9571 918.2296,-603.0997 917.981,-596.1041"/>
</g>
<!-- Node58660&#45;&gt;Node58673 -->
<g id="edge9" class="edge">
<title>Node58660&#45;&gt;Node58673</title>
<path fill="none" stroke="#191970" d="M878.7974,-593.2418C931.8395,-573.7496 1054.195,-541.5692 1159.5,-541.5692 1159.5,-541.5692 1159.5,-541.5692 1310.5,-541.5692 1554.0159,-541.5692 1617.5673,-484.1176 1828,-361.5692 1855.7998,-345.3796 1882.913,-320.2574 1900.7214,-303.8596"/>
<polygon fill="#191970" stroke="#191970" points="877.2151,-590.1004 869.1388,-596.9578 879.7287,-596.6336 877.2151,-590.1004"/>
</g>
<!-- Node58660&#45;&gt;Node58675 -->
<g id="edge13" class="edge">
<title>Node58660&#45;&gt;Node58675</title>
<path fill="none" stroke="#191970" d="M862.8026,-625.1362C893.9304,-678.6371 983.076,-831.8562 1006.3737,-871.8991"/>
<polygon fill="#191970" stroke="#191970" points="865.7487,-623.24 857.6945,-616.3566 859.6982,-626.7603 865.7487,-623.24"/>
</g>
<!-- Node58661&#45;&gt;Node58660 -->
<g id="edge8" class="edge">
<title>Node58661&#45;&gt;Node58660</title>
<path fill="none" stroke="#191970" d="M1914.7752,-395.6686C1901.731,-424.8107 1870.4963,-478.6718 1828,-506.5692 1631.5095,-635.5589 1545.5465,-615.5692 1310.5,-615.5692 1159.5,-615.5692 1159.5,-615.5692 1159.5,-615.5692 1071.681,-615.5692 969.7543,-615.5692 908.1116,-613.1813"/>
<polygon fill="#191970" stroke="#191970" points="1918.1282,-396.7212 1918.745,-386.1443 1911.667,-394.028 1918.1282,-396.7212"/>
</g>
<!-- Node58673&#45;&gt;Node58660 -->
<g id="edge11" class="edge">
<title>Node58673&#45;&gt;Node58660</title>
<path fill="none" stroke="#191970" d="M1906.4762,-311.6638C1889.1321,-332.3687 1858.9928,-361.5202 1828,-379.5692 1617.5673,-502.1176 1554.0159,-559.5692 1310.5,-559.5692 1159.5,-559.5692 1159.5,-559.5692 1159.5,-559.5692 1069.8296,-559.5692 967.7959,-582.9033 906.724,-597.0261"/>
<polygon fill="#191970" stroke="#191970" points="1909.3802,-313.6361 1912.8852,-303.6378 1903.9102,-309.2681 1909.3802,-313.6361"/>
</g>
<!-- Node58673&#45;&gt;Node58673 -->
<g id="edge10" class="edge">
<title>Node58673&#45;&gt;Node58673</title>
<path fill="none" stroke="#191970" d="M1894.1361,-314.0271C1897.5323,-318.7482 1906.6536,-322.0692 1921.5,-322.0692 1945.8633,-322.0692 1954.8092,-313.1258 1948.3377,-303.7282"/>
<polygon fill="#191970" stroke="#191970" points="1897.6473,-313.8938 1894.6623,-303.7282 1890.6565,-313.5365 1897.6473,-313.8938"/>
</g>
<!-- Node58675&#45;&gt;Node58675 -->
<g id="edge16" class="edge">
<title>Node58675&#45;&gt;Node58675</title>
<path fill="none" stroke="#191970" d="M984.7475,-900.2232C985.8867,-905.506 994.9708,-909.5692 1012,-909.5692 1037.9492,-909.5692 1045.4502,-900.1345 1034.5028,-891.3263"/>
<polygon fill="#191970" stroke="#191970" points="987.8752,-901.7962 989.4972,-891.3263 981.7001,-898.4996 987.8752,-901.7962"/>
</g>
<!-- Node58675&#45;&gt;Node58676 -->
<g id="edge14" class="edge">
<title>Node58675&#45;&gt;Node58676</title>
<path fill="none" stroke="#191970" d="M1063.1634,-893.6985C1076.7196,-898.7729 1091.375,-904.4866 1105,-909.5692 1120.7724,-915.4529 1139.3147,-921.7969 1150.1988,-928.0067"/>
<polygon fill="#191970" stroke="#191970" points="1064.1105,-890.3172 1053.5172,-890.1346 1061.6845,-896.8834 1064.1105,-890.3172"/>
</g>
<!-- Node58675&#45;&gt;Node58677 -->
<g id="edge17" class="edge">
<title>Node58675&#45;&gt;Node58677</title>
<path fill="none" stroke="#191970" d="M1064.1861,-881.5692C1077.3597,-881.5692 1091.5398,-881.5692 1104.8319,-881.5692"/>
<polygon fill="#191970" stroke="#191970" points="1063.8731,-878.0693 1053.873,-881.5692 1063.873,-885.0693 1063.8731,-878.0693"/>
</g>
<!-- Node58676&#45;&gt;Node58675 -->
<g id="edge15" class="edge">
<title>Node58676&#45;&gt;Node58675</title>
<path fill="none" stroke="#191970" d="M1107.1816,-928.3793C1106.4493,-928.1087 1105.7217,-927.8385 1105,-927.5692 1074.5549,-916.212 1038.9648,-901.7044 1021.9913,-891.201"/>
<polygon fill="#191970" stroke="#191970" points="1106.2966,-931.7806 1116.891,-931.8766 1108.6689,-925.1948 1106.2966,-931.7806"/>
</g>
<!-- Node58677&#45;&gt;Node58677 -->
<g id="edge18" class="edge">
<title>Node58677&#45;&gt;Node58677</title>
<path fill="none" stroke="#191970" d="M1132.2475,-900.2232C1133.3867,-905.506 1142.4708,-909.5692 1159.5,-909.5692 1185.4492,-909.5692 1192.9502,-900.1345 1182.0028,-891.3263"/>
<polygon fill="#191970" stroke="#191970" points="1135.3752,-901.7962 1136.9972,-891.3263 1129.2001,-898.4996 1135.3752,-901.7962"/>
</g>
<!-- Node58677&#45;&gt;Node58678 -->
<g id="edge19" class="edge">
<title>Node58677&#45;&gt;Node58678</title>
<path fill="none" stroke="#191970" d="M1207.3431,-893.6092C1228.4386,-898.918 1252.8766,-905.068 1272.6703,-910.0492"/>
<polygon fill="#191970" stroke="#191970" points="1208.1555,-890.2046 1197.6037,-891.1582 1206.4471,-896.9929 1208.1555,-890.2046"/>
</g>
<!-- Node58677&#45;&gt;Node58679 -->
<g id="edge34" class="edge">
<title>Node58677&#45;&gt;Node58679</title>
<path fill="none" stroke="#191970" d="M1224.4105,-877.5715C1278.2004,-874.2587 1354.1097,-869.5835 1406.8372,-866.3361"/>
<polygon fill="#191970" stroke="#191970" points="1224.064,-874.0861 1214.2981,-878.1943 1224.4944,-881.0729 1224.064,-874.0861"/>
</g>
<!-- Node58678&#45;&gt;Node58678 -->
<g id="edge20" class="edge">
<title>Node58678&#45;&gt;Node58678</title>
<path fill="none" stroke="#191970" d="M1282.5009,-938.2232C1283.6712,-943.506 1293.0043,-947.5692 1310.5,-947.5692 1337.1602,-947.5692 1344.8666,-938.1345 1333.6194,-929.3263"/>
<polygon fill="#191970" stroke="#191970" points="1285.6403,-939.7772 1287.3806,-929.3263 1279.5029,-936.4109 1285.6403,-939.7772"/>
</g>
<!-- Node58678&#45;&gt;Node58679 -->
<g id="edge21" class="edge">
<title>Node58678&#45;&gt;Node58679</title>
<path fill="none" stroke="#191970" d="M1346.602,-906.5037C1375.5524,-896.0264 1415.5141,-881.5641 1441.552,-872.1409"/>
<polygon fill="#191970" stroke="#191970" points="1345.074,-903.3345 1336.862,-910.0287 1347.4562,-909.9167 1345.074,-903.3345"/>
</g>
<!-- Node58679&#45;&gt;Node58680 -->
<g id="edge22" class="edge">
<title>Node58679&#45;&gt;Node58680</title>
<path fill="none" stroke="#191970" d="M1502.513,-849.3663C1529.8716,-838.9002 1567.4542,-824.523 1591.9794,-815.1409"/>
<polygon fill="#191970" stroke="#191970" points="1501.0286,-846.1867 1492.9392,-853.0287 1503.5297,-852.7246 1501.0286,-846.1867"/>
</g>
<!-- Node58680&#45;&gt;Node58681 -->
<g id="edge23" class="edge">
<title>Node58680&#45;&gt;Node58681</title>
<path fill="none" stroke="#191970" d="M1633.5417,-790.4575C1643.8173,-784.5949 1657.259,-778.4036 1669,-772.5692 1691.3338,-761.4711 1716.1275,-748.2351 1735.1234,-739.0729"/>
<polygon fill="#191970" stroke="#191970" points="1631.4126,-787.6622 1624.8189,-795.9552 1635.145,-793.5841 1631.4126,-787.6622"/>
</g>
<!-- Node58681&#45;&gt;Node58682 -->
<g id="edge24" class="edge">
<title>Node58681&#45;&gt;Node58682</title>
<path fill="none" stroke="#191970" d="M1710.4669,-741.0055C1650.6804,-752.1957 1553.0643,-767.5692 1468,-767.5692 1012,-767.5692 1012,-767.5692 1012,-767.5692 870.5298,-767.5692 728.1398,-644.6223 689.9354,-609.083"/>
<polygon fill="#191970" stroke="#191970" points="1711.282,-744.4133 1720.4535,-739.1092 1709.9761,-737.5362 1711.282,-744.4133"/>
</g>
<!-- Node58681&#45;&gt;Node58660 -->
<g id="edge31" class="edge">
<title>Node58681&#45;&gt;Node58660</title>
<path fill="none" stroke="#191970" d="M1700.5965,-723.6377C1561.976,-710.6811 1230.3122,-677.1555 955,-629.5692 933.515,-625.8557 909.7481,-620.6247 890.4633,-616.0895"/>
<polygon fill="#191970" stroke="#191970" points="1700.3557,-727.1303 1710.6369,-724.5716 1701.0041,-720.1604 1700.3557,-727.1303"/>
</g>
<!-- Node58681&#45;&gt;Node58661 -->
<g id="edge27" class="edge">
<title>Node58681&#45;&gt;Node58661</title>
<path fill="none" stroke="#191970" d="M1774.977,-710.2634C1803.6501,-644.9629 1896.3797,-433.7786 1917.2863,-386.1655"/>
<polygon fill="#191970" stroke="#191970" points="1771.6232,-709.1962 1770.8074,-719.7596 1778.0325,-712.0105 1771.6232,-709.1962"/>
</g>
<!-- Node58681&#45;&gt;Node58673 -->
<g id="edge30" class="edge">
<title>Node58681&#45;&gt;Node58673</title>
<path fill="none" stroke="#191970" d="M1771.7147,-710.0948C1782.3779,-670.2301 1807.4077,-576.4334 1828,-497.5692 1844.2312,-435.4069 1834.7197,-414.7555 1864,-357.5692 1874.5889,-336.8883 1892.3304,-316.9068 1905.3113,-303.8164"/>
<polygon fill="#191970" stroke="#191970" points="1768.308,-709.2864 1769.1038,-719.8513 1775.07,-711.0961 1768.308,-709.2864"/>
</g>
<!-- Node58681&#45;&gt;Node58680 -->
<g id="edge32" class="edge">
<title>Node58681&#45;&gt;Node58680</title>
<path fill="none" stroke="#191970" d="M1749.9438,-745.2499C1730.6669,-758.4044 1697.7896,-776.263 1669,-790.5692 1665.3493,-792.3833 1661.5342,-794.232 1657.7009,-796.0206"/>
<polygon fill="#191970" stroke="#191970" points="1752.2165,-747.9244 1758.2369,-739.2063 1748.0939,-742.2672 1752.2165,-747.9244"/>
</g>
<!-- Node58681&#45;&gt;Node58681 -->
<g id="edge33" class="edge">
<title>Node58681&#45;&gt;Node58681</title>
<path fill="none" stroke="#191970" d="M1738.8742,-748.2232C1740.0289,-753.506 1749.2375,-757.5692 1766.5,-757.5692 1792.8047,-757.5692 1800.4084,-748.1345 1789.3111,-739.3263"/>
<polygon fill="#191970" stroke="#191970" points="1742.0076,-749.7869 1743.6889,-739.3263 1735.8512,-746.4552 1742.0076,-749.7869"/>
</g>
<!-- Node58681&#45;&gt;Node58671 -->
<g id="edge25" class="edge">
<title>Node58681&#45;&gt;Node58671</title>
<path fill="none" stroke="#191970" d="M1787.8132,-713.8937C1820.3379,-689.9723 1881.4073,-645.0567 1908.2597,-625.3073"/>
<polygon fill="#191970" stroke="#191970" points="1785.4307,-711.3013 1779.4486,-720.0457 1789.5781,-716.9403 1785.4307,-711.3013"/>
</g>
<!-- Node58681&#45;&gt;Node58683 -->
<g id="edge28" class="edge">
<title>Node58681&#45;&gt;Node58683</title>
<path fill="none" stroke="#191970" d="M1832.0874,-721.5295C1843.68,-720.1084 1855.6368,-718.6428 1866.8869,-717.2637"/>
<polygon fill="#191970" stroke="#191970" points="1831.5206,-718.0727 1822.0208,-722.7635 1832.3723,-725.0207 1831.5206,-718.0727"/>
</g>
<!-- Node58671&#45;&gt;Node58660 -->
<g id="edge26" class="edge">
<title>Node58671&#45;&gt;Node58660</title>
<path fill="none" stroke="#191970" d="M1854.5066,-619.3612C1710.7093,-627.2885 1361.766,-645.3904 1069,-651.5692 1018.3446,-652.6383 1004.5959,-661.9304 955,-651.5692 922.5271,-644.7852 887.7615,-627.1672 868.068,-616.0956"/>
<polygon fill="#191970" stroke="#191970" points="1855.1213,-622.8326 1864.9127,-618.7855 1854.7346,-615.8433 1855.1213,-622.8326"/>
</g>
<!-- Node58683&#45;&gt;Node58660 -->
<g id="edge29" class="edge">
<title>Node58683&#45;&gt;Node58660</title>
<path fill="none" stroke="#191970" d="M1856.5924,-709.5074C1653.8495,-705.9369 1040.7834,-693.1284 955,-667.5692 918.7504,-656.7687 881.9837,-630.4938 863.7569,-616.2061"/>
<polygon fill="#191970" stroke="#191970" points="1856.731,-713.0102 1866.7906,-709.6852 1856.8532,-706.0113 1856.731,-713.0102"/>
</g>
<!-- Node58686&#45;&gt;Node58661 -->
<g id="edge37" class="edge">
<title>Node58686&#45;&gt;Node58661</title>
<path fill="none" stroke="#191970" d="M1835.526,-362.7025C1850.8577,-365.1753 1866.6371,-367.7204 1880.4253,-369.9443"/>
<polygon fill="#191970" stroke="#191970" points="1835.9708,-359.229 1825.541,-361.092 1834.8561,-366.1397 1835.9708,-359.229"/>
</g>
<!-- Node58686&#45;&gt;Node58673 -->
<g id="edge38" class="edge">
<title>Node58686&#45;&gt;Node58673</title>
<path fill="none" stroke="#191970" d="M1799.4288,-338.1852C1824.3418,-328.0593 1858.5638,-314.1497 1884.4352,-303.6343"/>
<polygon fill="#191970" stroke="#191970" points="1797.9873,-334.993 1790.0412,-342.0009 1800.6231,-341.4778 1797.9873,-334.993"/>
</g>
<!-- Node58686&#45;&gt;Node58671 -->
<g id="edge36" class="edge">
<title>Node58686&#45;&gt;Node58671</title>
<path fill="none" stroke="#191970" d="M1777.3727,-370.0879C1807.8285,-421.961 1893.2314,-567.4214 1915.9113,-606.0504"/>
<polygon fill="#191970" stroke="#191970" points="1780.2817,-368.1297 1772.2004,-361.2782 1774.2452,-371.6739 1780.2817,-368.1297"/>
</g>
<!-- Node58987&#45;&gt;Node58661 -->
<g id="edge46" class="edge">
<title>Node58987&#45;&gt;Node58661</title>
<path fill="none" stroke="#191970" d="M1079.4076,-187.5692C1139.9074,-187.5692 1231.1381,-187.5692 1310.5,-187.5692 1310.5,-187.5692 1310.5,-187.5692 1617,-187.5692 1743.8482,-187.5692 1766.3973,-249.5496 1864,-330.5692 1879.3451,-343.3071 1897.3403,-357.6023 1909.0575,-366.8267"/>
<polygon fill="#191970" stroke="#191970" points="1079.2245,-184.0693 1069.2244,-187.5692 1079.2244,-191.0693 1079.2245,-184.0693"/>
</g>
<!-- Node58988&#45;&gt;Node58989 -->
<g id="edge50" class="edge">
<title>Node58988&#45;&gt;Node58989</title>
<path fill="none" stroke="#191970" d="M564.8707,-263.329C583.6236,-258.1558 605.65,-252.0796 625.3881,-246.6346"/>
<polygon fill="#191970" stroke="#191970" points="563.8183,-259.9885 555.1091,-266.0219 565.6798,-266.7365 563.8183,-259.9885"/>
</g>
<!-- Node58988&#45;&gt;Node58668 -->
<g id="edge53" class="edge">
<title>Node58988&#45;&gt;Node58668</title>
<path fill="none" stroke="#191970" d="M585.4793,-275.5692C593.8632,-275.5692 602.4728,-275.5692 610.9198,-275.5692"/>
<polygon fill="#191970" stroke="#191970" points="585.3909,-272.0693 575.3909,-275.5692 585.3908,-279.0693 585.3909,-272.0693"/>
</g>
<!-- Node58989&#45;&gt;Node58660 -->
<g id="edge52" class="edge">
<title>Node58989&#45;&gt;Node58660</title>
<path fill="none" stroke="#191970" d="M743.9879,-251.9141C745.761,-253.3608 747.4398,-254.9101 749,-256.5692 798.4675,-309.1713 841.5219,-545.7004 850.3483,-596.8119"/>
<polygon fill="#191970" stroke="#191970" points="745.9075,-248.9865 735.6842,-246.2053 741.9418,-254.7548 745.9075,-248.9865"/>
</g>
<!-- Node58989&#45;&gt;Node58673 -->
<g id="edge51" class="edge">
<title>Node58989&#45;&gt;Node58673</title>
<path fill="none" stroke="#191970" d="M745.9075,-229.6767C812.8937,-227.9183 919.6586,-225.5692 1012,-225.5692 1012,-225.5692 1012,-225.5692 1159.5,-225.5692 1456.8357,-225.5692 1551.9159,-89.1784 1828,-199.5692 1865.2481,-214.4627 1896.1199,-252.0413 1911.3213,-273.2998"/>
<polygon fill="#191970" stroke="#191970" points="745.4098,-226.1886 735.5064,-229.9534 745.596,-233.1862 745.4098,-226.1886"/>
</g>
<!-- Node58668&#45;&gt;Node58661 -->
<g id="edge54" class="edge">
<title>Node58668&#45;&gt;Node58661</title>
<path fill="none" stroke="#191970" d="M759.3825,-271.0879C826.6234,-267.6786 925.595,-263.5692 1012,-263.5692 1012,-263.5692 1012,-263.5692 1310.5,-263.5692 1542.5354,-263.5692 1605.4027,-267.0642 1828,-332.5692 1856.3973,-340.9259 1887.0305,-356.7888 1905.2206,-367.0104"/>
<polygon fill="#191970" stroke="#191970" points="759.0912,-267.5981 749.284,-271.6067 759.4504,-274.5889 759.0912,-267.5981"/>
</g>
<!-- Node58992&#45;&gt;Node58673 -->
<g id="edge61" class="edge">
<title>Node58992&#45;&gt;Node58673</title>
<path fill="none" stroke="#191970" d="M929.3078,-35.5692C991.4934,-35.5692 1081.1162,-35.5692 1159.5,-35.5692 1159.5,-35.5692 1159.5,-35.5692 1617,-35.5692 1711.3825,-35.5692 1752.7614,-2.585 1828,-59.5692 1899.3755,-113.6276 1916.5087,-231.5334 1920.4095,-273.4264"/>
<polygon fill="#191970" stroke="#191970" points="929.184,-32.0693 919.1839,-35.5692 929.1839,-39.0693 929.184,-32.0693"/>
</g>
<!-- Node58994 -->
<g id="node28" class="node">
<title>Node58994</title>
<g id="a_node28"><a xlink:href="quickjs_8c.html#aa2ef5af1544a3012f91a80c98c326b8f" target="_top" xlink:title="JS_NewAtom">
<polygon fill="none" stroke="#ff0000" points="232,-533.0692 232,-552.0692 309,-552.0692 309,-533.0692 232,-533.0692"/>
<text text-anchor="middle" x="270.5" y="-540.0692" font-family="Helvetica,sans-Serif" font-size="10.00" fill="#000000">JS_NewAtom</text>
</a>
</g>
</g>
<!-- Node58993&#45;&gt;Node58994 -->
<g id="edge74" class="edge">
<title>Node58993&#45;&gt;Node58994</title>
<path fill="none" stroke="#191970" d="M174.9398,-568.323C194.375,-563.0852 216.7311,-557.0601 234.9311,-552.1552"/>
<polygon fill="#191970" stroke="#191970" points="173.825,-564.9985 165.0803,-570.9802 175.6465,-571.7574 173.825,-564.9985"/>
</g>
<!-- Node58776 -->
<g id="node29" class="node">
<title>Node58776</title>
<g id="a_node29"><a xlink:href="quickjs_8c.html#aadfd9c31a6f69160c12e99b8d5eb5b3c" target="_top" xlink:title="js_atom_concat_str">
<polygon fill="none" stroke="#ff0000" points="219.5,-571.0692 219.5,-590.0692 321.5,-590.0692 321.5,-571.0692 219.5,-571.0692"/>
<text text-anchor="middle" x="270.5" y="-578.0692" font-family="Helvetica,sans-Serif" font-size="10.00" fill="#000000">js_atom_concat_str</text>
</a>
</g>
</g>
<!-- Node58993&#45;&gt;Node58776 -->
<g id="edge75" class="edge">
<title>Node58993&#45;&gt;Node58776</title>
<path fill="none" stroke="#191970" d="M186.2927,-580.5692C197.1471,-580.5692 208.4525,-580.5692 219.1252,-580.5692"/>
<polygon fill="#191970" stroke="#191970" points="186.0595,-577.0693 176.0594,-580.5692 186.0594,-584.0693 186.0595,-577.0693"/>
</g>
<!-- Node59008 -->
<g id="node30" class="node">
<title>Node59008</title>
<g id="a_node30"><a xlink:href="quickjs_8c.html#ad91865d0889d1420e3e70d5d497a9bdb" target="_top" xlink:title="parse_ident">
<polygon fill="none" stroke="#000000" points="237,-609.0692 237,-628.0692 304,-628.0692 304,-609.0692 237,-609.0692"/>
<text text-anchor="middle" x="270.5" y="-616.0692" font-family="Helvetica,sans-Serif" font-size="10.00" fill="#000000">parse_ident</text>
</a>
</g>
</g>
<!-- Node58993&#45;&gt;Node59008 -->
<g id="edge76" class="edge">
<title>Node58993&#45;&gt;Node59008</title>
<path fill="none" stroke="#191970" d="M174.9745,-592.8248C195.0986,-598.2483 218.3488,-604.5143 236.8726,-609.5065"/>
<polygon fill="#191970" stroke="#191970" points="175.6465,-589.3811 165.0803,-590.1582 173.825,-596.1399 175.6465,-589.3811"/>
</g>
<!-- Node59008&#45;&gt;Node58985 -->
<g id="edge77" class="edge">
<title>Node59008&#45;&gt;Node58985</title>
<path fill="none" stroke="#191970" d="M314.2534,-618.5692C330.8914,-618.5692 349.538,-618.5692 364.9593,-618.5692"/>
<polygon fill="#191970" stroke="#191970" points="314.2003,-615.0693 304.2002,-618.5692 314.2002,-622.0693 314.2003,-615.0693"/>
</g>
</g>
</svg>
