<?xml version="1.0" encoding="UTF-8" standalone="no"?>
<!DOCTYPE svg PUBLIC "-//W3C//DTD SVG 1.1//EN"
 "http://www.w3.org/Graphics/SVG/1.1/DTD/svg11.dtd">
<!-- Generated by graphviz version 2.40.1 (20161225.0304)
 -->
<!-- Title: free_timer Pages: 1 -->
<!--zoomable 66 -->
<svg id="main" version="1.1" xmlns="http://www.w3.org/2000/svg" xmlns:xlink="http://www.w3.org/1999/xlink" xml:space="preserve" onload="init(evt)">
<style type="text/css"><![CDATA[
.edge:hover path { stroke: red; }
.edge:hover polygon { stroke: red; fill: red; }
]]></style>
<script type="text/javascript"><![CDATA[
var edges = document.getElementsByTagName('g');
if (edges && edges.length) {
  for (var i=0;i<edges.length;i++) {
    if (edges[i].id.substr(0,4)=='edge') {
      edges[i].setAttribute('class','edge');
    }
  }
}
]]></script>
        <defs>
                <circle id="rim" cx="0" cy="0" r="7"/>
                <circle id="rim2" cx="0" cy="0" r="3.5"/>
                <g id="zoomPlus">
                        <use xlink:href="#rim" fill="#404040">
                                <set attributeName="fill" to="#808080" begin="zoomplus.mouseover" end="zoomplus.mouseout"/>
                        </use>
                        <path d="M-4,0h8M0,-4v8" fill="none" stroke="white" stroke-width="1.5" pointer-events="none"/>
                </g>
                <g id="zoomMin">
                        <use xlink:href="#rim" fill="#404040">
                                <set attributeName="fill" to="#808080" begin="zoomminus.mouseover" end="zoomminus.mouseout"/>
                        </use>
                        <path d="M-4,0h8" fill="none" stroke="white" stroke-width="1.5" pointer-events="none"/>
                </g>
                <g id="dirArrow">
                        <path fill="none" stroke="white" stroke-width="1.5" d="M0,-3.0v7 M-2.5,-0.5L0,-3.0L2.5,-0.5"/>
                </g>
               <g id="resetDef">
                       <use xlink:href="#rim2" fill="#404040">
                               <set attributeName="fill" to="#808080" begin="reset.mouseover" end="reset.mouseout"/>
                       </use>
               </g>
        </defs>

<script type="text/javascript">
var viewWidth = 512;
var viewHeight = 66;
var sectionId = 'dynsection-81';
</script>
<script xlink:href="svgpan.js"/>
<svg id="graph" class="graph">
<g id="viewport">
<title>free_timer</title>
<!-- Node16562 -->
<g id="node1" class="node">
<title>Node16562</title>
<polygon fill="#bfbfbf" stroke="#000000" points="0,-19.5 0,-38.5 60,-38.5 60,-19.5 0,-19.5"/>
<text text-anchor="middle" x="30" y="-26.5" font-family="Helvetica,sans-Serif" font-size="10.00" fill="#000000">free_timer</text>
</g>
<!-- Node16563 -->
<g id="node2" class="node">
<title>Node16563</title>
<g id="a_node2"><a xlink:href="quickjs-libc_8c.html#ac6c5f34cb0df6ab0d7579f0f20908a2c" target="_top" xlink:title="js_os_poll">
<polygon fill="none" stroke="#000000" points="96,-38.5 96,-57.5 156,-57.5 156,-38.5 96,-38.5"/>
<text text-anchor="middle" x="126" y="-45.5" font-family="Helvetica,sans-Serif" font-size="10.00" fill="#000000">js_os_poll</text>
</a>
</g>
</g>
<!-- Node16562&#45;&gt;Node16563 -->
<g id="edge1" class="edge">
<title>Node16562&#45;&gt;Node16563</title>
<path fill="none" stroke="#191970" d="M70.0666,-36.9298C78.7462,-38.6477 87.7817,-40.436 95.9952,-42.0616"/>
<polygon fill="#191970" stroke="#191970" points="70.6009,-33.4678 60.1116,-34.9596 69.2418,-40.3346 70.6009,-33.4678"/>
</g>
<!-- Node16567 -->
<g id="node6" class="node">
<title>Node16567</title>
<g id="a_node6"><a xlink:href="quickjs-libc_8c.html#a090f31285f348ef3b91004b9a9a294d0" target="_top" xlink:title="js_std_free_handlers">
<polygon fill="none" stroke="#000000" points="192,-.5 192,-19.5 299,-19.5 299,-.5 192,-.5"/>
<text text-anchor="middle" x="245.5" y="-7.5" font-family="Helvetica,sans-Serif" font-size="10.00" fill="#000000">js_std_free_handlers</text>
</a>
</g>
</g>
<!-- Node16562&#45;&gt;Node16567 -->
<g id="edge5" class="edge">
<title>Node16562&#45;&gt;Node16567</title>
<path fill="none" stroke="#191970" d="M70.5586,-25.4241C104.8947,-22.3968 154.3801,-18.0338 191.9643,-14.7201"/>
<polygon fill="#191970" stroke="#191970" points="70.0728,-21.9532 60.4188,-26.3181 70.6876,-28.9262 70.0728,-21.9532"/>
</g>
<!-- Node16564 -->
<g id="node3" class="node">
<title>Node16564</title>
<g id="a_node3"><a xlink:href="quickjs-libc_8c.html#a066e7962ce24f22d5df20968a8baa346" target="_top" xlink:title="js_os_init">
<polygon fill="none" stroke="#000000" points="216.5,-38.5 216.5,-57.5 274.5,-57.5 274.5,-38.5 216.5,-38.5"/>
<text text-anchor="middle" x="245.5" y="-45.5" font-family="Helvetica,sans-Serif" font-size="10.00" fill="#000000">js_os_init</text>
</a>
</g>
</g>
<!-- Node16563&#45;&gt;Node16564 -->
<g id="edge2" class="edge">
<title>Node16563&#45;&gt;Node16564</title>
<path fill="none" stroke="#191970" d="M166.4951,-48C182.7884,-48 201.2207,-48 216.1809,-48"/>
<polygon fill="#191970" stroke="#191970" points="166.1549,-44.5001 156.1549,-48 166.1549,-51.5001 166.1549,-44.5001"/>
</g>
<!-- Node16565 -->
<g id="node4" class="node">
<title>Node16565</title>
<g id="a_node4"><a xlink:href="quickjs-libc_8c.html#adcca2b4a661355e6ff87a0def2339894" target="_top" xlink:title="js_init_module_os">
<polygon fill="none" stroke="#000000" points="335,-38.5 335,-57.5 430,-57.5 430,-38.5 335,-38.5"/>
<text text-anchor="middle" x="382.5" y="-45.5" font-family="Helvetica,sans-Serif" font-size="10.00" fill="#000000">js_init_module_os</text>
</a>
</g>
</g>
<!-- Node16564&#45;&gt;Node16565 -->
<g id="edge3" class="edge">
<title>Node16564&#45;&gt;Node16565</title>
<path fill="none" stroke="#191970" d="M284.9053,-48C300.5023,-48 318.5711,-48 334.8905,-48"/>
<polygon fill="#191970" stroke="#191970" points="284.5542,-44.5001 274.5542,-48 284.5541,-51.5001 284.5542,-44.5001"/>
</g>
<!-- Node16566 -->
<g id="node5" class="node">
<title>Node16566</title>
<g id="a_node5"><a xlink:href="qjs_8cpp.html#a3c04138a5bfe5d72780bb7e82a18e627" target="_top" xlink:title="main">
<polygon fill="none" stroke="#000000" points="466,-19.5 466,-38.5 504,-38.5 504,-19.5 466,-19.5"/>
<text text-anchor="middle" x="485" y="-26.5" font-family="Helvetica,sans-Serif" font-size="10.00" fill="#000000">main</text>
</a>
</g>
</g>
<!-- Node16565&#45;&gt;Node16566 -->
<g id="edge4" class="edge">
<title>Node16565&#45;&gt;Node16566</title>
<path fill="none" stroke="#191970" d="M440.1521,-37.3133C449.3223,-35.6134 458.2148,-33.9651 465.6302,-32.5905"/>
<polygon fill="#191970" stroke="#191970" points="439.3437,-33.9034 430.1491,-39.1675 440.6196,-40.7862 439.3437,-33.9034"/>
</g>
<!-- Node16567&#45;&gt;Node16566 -->
<g id="edge6" class="edge">
<title>Node16567&#45;&gt;Node16566</title>
<path fill="none" stroke="#191970" d="M309.4554,-15.0737C361.7933,-19.2258 432.4442,-24.8306 465.9062,-27.4853"/>
<polygon fill="#191970" stroke="#191970" points="309.494,-11.5659 299.2485,-14.264 308.9403,-18.5439 309.494,-11.5659"/>
</g>
</g>
</svg>
        <g id="navigator" transform="translate(0 0)" fill="#404254">
                <rect fill="#f2f5e9" fill-opacity="0.5" stroke="#606060" stroke-width=".5" x="0" y="0" width="60" height="60"/>
                <use id="zoomplus" xlink:href="#zoomPlus" x="17" y="9" onmousedown="handleZoom(evt,'in')"/>
                <use id="zoomminus" xlink:href="#zoomMin" x="42" y="9" onmousedown="handleZoom(evt,'out')"/>
                <use id="reset" xlink:href="#resetDef" x="30" y="36" onmousedown="handleReset()"/>
                <g id="arrowUp" xlink:href="#dirArrow" transform="translate(30 24)" onmousedown="handlePan(0,-1)">
                  <use xlink:href="#rim" fill="#404040">
                        <set attributeName="fill" to="#808080" begin="arrowUp.mouseover" end="arrowUp.mouseout"/>
                  </use>
                  <path fill="none" stroke="white" stroke-width="1.5" d="M0,-3.0v7 M-2.5,-0.5L0,-3.0L2.5,-0.5"/>
                </g>
                <g id="arrowRight" xlink:href="#dirArrow" transform="rotate(90) translate(36 -43)" onmousedown="handlePan(1,0)">
                  <use xlink:href="#rim" fill="#404040">
                        <set attributeName="fill" to="#808080" begin="arrowRight.mouseover" end="arrowRight.mouseout"/>
                  </use>
                  <path fill="none" stroke="white" stroke-width="1.5" d="M0,-3.0v7 M-2.5,-0.5L0,-3.0L2.5,-0.5"/>
                </g>
                <g id="arrowDown" xlink:href="#dirArrow" transform="rotate(180) translate(-30 -48)" onmousedown="handlePan(0,1)">
                  <use xlink:href="#rim" fill="#404040">
                        <set attributeName="fill" to="#808080" begin="arrowDown.mouseover" end="arrowDown.mouseout"/>
                  </use>
                  <path fill="none" stroke="white" stroke-width="1.5" d="M0,-3.0v7 M-2.5,-0.5L0,-3.0L2.5,-0.5"/>
                </g>
                <g id="arrowLeft" xlink:href="#dirArrow" transform="rotate(270) translate(-36 17)" onmousedown="handlePan(-1,0)">
                  <use xlink:href="#rim" fill="#404040">
                        <set attributeName="fill" to="#808080" begin="arrowLeft.mouseover" end="arrowLeft.mouseout"/>
                  </use>
                  <path fill="none" stroke="white" stroke-width="1.5" d="M0,-3.0v7 M-2.5,-0.5L0,-3.0L2.5,-0.5"/>
                </g>
        </g>
        <svg viewBox="0 0 15 15" width="100%" height="30px" preserveAspectRatio="xMaxYMin meet">
         <g id="arrow_out" transform="scale(0.3 0.3)">
          <a xlink:href="quickjs-libc_8c_af489c834058ffaebb737bb9e837619aa_icgraph_org.svg" target="_base">
           <rect id="button" ry="5" rx="5" y="6" x="6" height="38" width="38"
                fill="#f2f5e9" fill-opacity="0.5" stroke="#606060" stroke-width="1.0"/>
           <path id="arrow"
             d="M 11.500037,31.436501 C 11.940474,20.09759 22.043105,11.32322 32.158766,21.979434 L 37.068811,17.246167 C 37.068811,17.246167 37.088388,32 37.088388,32 L 22.160133,31.978069 C 22.160133,31.978069 26.997745,27.140456 26.997745,27.140456 C 18.528582,18.264221 13.291696,25.230495 11.500037,31.436501 z"
             style="fill:#404040;"/>
          </a>
         </g>
        </svg>
</svg>
