<?xml version="1.0" encoding="UTF-8" standalone="no"?>
<!DOCTYPE svg PUBLIC "-//W3C//DTD SVG 1.1//EN"
 "http://www.w3.org/Graphics/SVG/1.1/DTD/svg11.dtd">
<!-- Generated by graphviz version 2.40.1 (20161225.0304)
 -->
<!-- Title: js_proxy_preventExtensions Pages: 1 -->
<!--zoomable 122 -->
<svg id="main" version="1.1" xmlns="http://www.w3.org/2000/svg" xmlns:xlink="http://www.w3.org/1999/xlink" xml:space="preserve" onload="init(evt)">
<style type="text/css"><![CDATA[
.edge:hover path { stroke: red; }
.edge:hover polygon { stroke: red; fill: red; }
]]></style>
<script type="text/javascript"><![CDATA[
var edges = document.getElementsByTagName('g');
if (edges && edges.length) {
  for (var i=0;i<edges.length;i++) {
    if (edges[i].id.substr(0,4)=='edge') {
      edges[i].setAttribute('class','edge');
    }
  }
}
]]></script>
        <defs>
                <circle id="rim" cx="0" cy="0" r="7"/>
                <circle id="rim2" cx="0" cy="0" r="3.5"/>
                <g id="zoomPlus">
                        <use xlink:href="#rim" fill="#404040">
                                <set attributeName="fill" to="#808080" begin="zoomplus.mouseover" end="zoomplus.mouseout"/>
                        </use>
                        <path d="M-4,0h8M0,-4v8" fill="none" stroke="white" stroke-width="1.5" pointer-events="none"/>
                </g>
                <g id="zoomMin">
                        <use xlink:href="#rim" fill="#404040">
                                <set attributeName="fill" to="#808080" begin="zoomminus.mouseover" end="zoomminus.mouseout"/>
                        </use>
                        <path d="M-4,0h8" fill="none" stroke="white" stroke-width="1.5" pointer-events="none"/>
                </g>
                <g id="dirArrow">
                        <path fill="none" stroke="white" stroke-width="1.5" d="M0,-3.0v7 M-2.5,-0.5L0,-3.0L2.5,-0.5"/>
                </g>
               <g id="resetDef">
                       <use xlink:href="#rim2" fill="#404040">
                               <set attributeName="fill" to="#808080" begin="reset.mouseover" end="reset.mouseout"/>
                       </use>
               </g>
        </defs>

<script type="text/javascript">
var viewWidth = 656;
var viewHeight = 122;
var sectionId = 'dynsection-48';
</script>
<script xlink:href="svgpan.js"/>
<svg id="graph" class="graph">
<g id="viewport">
<title>js_proxy_preventExtensions</title>
<!-- Node18076 -->
<g id="node1" class="node">
<title>Node18076</title>
<polygon fill="#bfbfbf" stroke="#000000" points="0,-38.5 0,-57.5 140,-57.5 140,-38.5 0,-38.5"/>
<text text-anchor="middle" x="70" y="-45.5" font-family="Helvetica,sans-Serif" font-size="10.00" fill="#000000">js_proxy_preventExtensions</text>
</g>
<!-- Node18077 -->
<g id="node2" class="node">
<title>Node18077</title>
<g id="a_node2"><a xlink:href="quickjs_8c.html#a12a827f44f5bca80c6eb2c7d890460f4" target="_top" xlink:title="JS_PreventExtensions">
<polygon fill="none" stroke="#000000" points="176,-38.5 176,-57.5 292,-57.5 292,-38.5 176,-38.5"/>
<text text-anchor="middle" x="234" y="-45.5" font-family="Helvetica,sans-Serif" font-size="10.00" fill="#000000">JS_PreventExtensions</text>
</a>
</g>
</g>
<!-- Node18076&#45;&gt;Node18077 -->
<g id="edge1" class="edge">
<title>Node18076&#45;&gt;Node18077</title>
<path fill="none" stroke="#191970" d="M150.1489,-41.2515C158.8022,-41.2372 167.483,-41.3232 175.8055,-41.5094"/>
<polygon fill="#191970" stroke="#191970" points="150.0045,-37.7523 140.0265,-41.3144 150.048,-44.7521 150.0045,-37.7523"/>
</g>
<!-- Node18077&#45;&gt;Node18076 -->
<g id="edge8" class="edge">
<title>Node18077&#45;&gt;Node18076</title>
<path fill="none" stroke="#191970" d="M165.6154,-54.6666C157.1601,-54.771 148.506,-54.7774 140.0265,-54.6856"/>
<polygon fill="#191970" stroke="#191970" points="165.8675,-58.1629 175.8055,-54.4906 165.7465,-51.1639 165.8675,-58.1629"/>
</g>
<!-- Node18078 -->
<g id="node3" class="node">
<title>Node18078</title>
<g id="a_node3"><a xlink:href="quickjs_8c.html#a4b8ef2bb3b35e4a5f6ed8bd837a50e7c" target="_top" xlink:title="JS_ReadObjectRec">
<polygon fill="none" stroke="#000000" points="347,-76.5 347,-95.5 451,-95.5 451,-76.5 347,-76.5"/>
<text text-anchor="middle" x="399" y="-83.5" font-family="Helvetica,sans-Serif" font-size="10.00" fill="#000000">JS_ReadObjectRec</text>
</a>
</g>
</g>
<!-- Node18077&#45;&gt;Node18078 -->
<g id="edge2" class="edge">
<title>Node18077&#45;&gt;Node18078</title>
<path fill="none" stroke="#191970" d="M285.654,-59.8961C308.8465,-65.2374 335.8383,-71.4537 357.6629,-76.4799"/>
<polygon fill="#191970" stroke="#191970" points="286.1669,-56.4226 275.6365,-57.589 284.5959,-63.2441 286.1669,-56.4226"/>
</g>
<!-- Node18081 -->
<g id="node5" class="node">
<title>Node18081</title>
<g id="a_node5"><a xlink:href="quickjs_8c.html#a89ecb206ef0659403b7c502f272bdb01" target="_top" xlink:title="js_object_preventExtensions">
<polygon fill="none" stroke="#000000" points="328,-38.5 328,-57.5 470,-57.5 470,-38.5 328,-38.5"/>
<text text-anchor="middle" x="399" y="-45.5" font-family="Helvetica,sans-Serif" font-size="10.00" fill="#000000">js_object_preventExtensions</text>
</a>
</g>
</g>
<!-- Node18077&#45;&gt;Node18081 -->
<g id="edge5" class="edge">
<title>Node18077&#45;&gt;Node18081</title>
<path fill="none" stroke="#191970" d="M302.2992,-48C310.7034,-48 319.3103,-48 327.7568,-48"/>
<polygon fill="#191970" stroke="#191970" points="302.1729,-44.5001 292.1728,-48 302.1728,-51.5001 302.1729,-44.5001"/>
</g>
<!-- Node18082 -->
<g id="node6" class="node">
<title>Node18082</title>
<g id="a_node6"><a xlink:href="quickjs_8c.html#a3b1f61e0c2e39eb52d8b1c5c8713873e" target="_top" xlink:title="js_object_seal">
<polygon fill="none" stroke="#000000" points="359.5,-.5 359.5,-19.5 438.5,-19.5 438.5,-.5 359.5,-.5"/>
<text text-anchor="middle" x="399" y="-7.5" font-family="Helvetica,sans-Serif" font-size="10.00" fill="#000000">js_object_seal</text>
</a>
</g>
</g>
<!-- Node18077&#45;&gt;Node18082 -->
<g id="edge6" class="edge">
<title>Node18077&#45;&gt;Node18082</title>
<path fill="none" stroke="#191970" d="M285.5698,-36.1233C309.3883,-30.6379 337.2287,-24.2261 359.3669,-19.1276"/>
<polygon fill="#191970" stroke="#191970" points="284.5959,-32.7559 275.6365,-38.411 286.1669,-39.5774 284.5959,-32.7559"/>
</g>
<!-- Node18078&#45;&gt;Node18078 -->
<g id="edge3" class="edge">
<title>Node18078&#45;&gt;Node18078</title>
<path fill="none" stroke="#191970" d="M368.3114,-104.2746C369.1864,-109.741 379.4159,-114 399,-114 428.1484,-114 436.5742,-104.5653 424.2772,-95.7571"/>
<polygon fill="#191970" stroke="#191970" points="371.3144,-106.0745 373.7228,-95.7571 365.406,-102.3207 371.3144,-106.0745"/>
</g>
<!-- Node18079 -->
<g id="node4" class="node">
<title>Node18079</title>
<g id="a_node4"><a xlink:href="quickjs_8c.html#a12be2ea9c010752715072489497594e9" target="_top" xlink:title="JS_ReadObject">
<polygon fill="none" stroke="#ff0000" points="534,-76.5 534,-95.5 620,-95.5 620,-76.5 534,-76.5"/>
<text text-anchor="middle" x="577" y="-83.5" font-family="Helvetica,sans-Serif" font-size="10.00" fill="#000000">JS_ReadObject</text>
</a>
</g>
</g>
<!-- Node18078&#45;&gt;Node18079 -->
<g id="edge4" class="edge">
<title>Node18078&#45;&gt;Node18079</title>
<path fill="none" stroke="#191970" d="M461.5058,-86C485.4407,-86 512.1884,-86 533.9112,-86"/>
<polygon fill="#191970" stroke="#191970" points="461.4432,-82.5001 451.4431,-86 461.4431,-89.5001 461.4432,-82.5001"/>
</g>
<!-- Node18083 -->
<g id="node7" class="node">
<title>Node18083</title>
<g id="a_node7"><a xlink:href="quickjs_8c.html#a4c9489297c684663f30e517204a9ec14" target="_top" xlink:title="JS_AddIntrinsicBaseObjects">
<polygon fill="none" stroke="#ff0000" points="506,-.5 506,-19.5 648,-19.5 648,-.5 506,-.5"/>
<text text-anchor="middle" x="577" y="-7.5" font-family="Helvetica,sans-Serif" font-size="10.00" fill="#000000">JS_AddIntrinsicBaseObjects</text>
</a>
</g>
</g>
<!-- Node18082&#45;&gt;Node18083 -->
<g id="edge7" class="edge">
<title>Node18082&#45;&gt;Node18083</title>
<path fill="none" stroke="#191970" d="M448.5907,-10C466.281,-10 486.5743,-10 505.7263,-10"/>
<polygon fill="#191970" stroke="#191970" points="448.504,-6.5001 438.504,-10 448.5039,-13.5001 448.504,-6.5001"/>
</g>
</g>
</svg>
        <g id="navigator" transform="translate(0 0)" fill="#404254">
                <rect fill="#f2f5e9" fill-opacity="0.5" stroke="#606060" stroke-width=".5" x="0" y="0" width="60" height="60"/>
                <use id="zoomplus" xlink:href="#zoomPlus" x="17" y="9" onmousedown="handleZoom(evt,'in')"/>
                <use id="zoomminus" xlink:href="#zoomMin" x="42" y="9" onmousedown="handleZoom(evt,'out')"/>
                <use id="reset" xlink:href="#resetDef" x="30" y="36" onmousedown="handleReset()"/>
                <g id="arrowUp" xlink:href="#dirArrow" transform="translate(30 24)" onmousedown="handlePan(0,-1)">
                  <use xlink:href="#rim" fill="#404040">
                        <set attributeName="fill" to="#808080" begin="arrowUp.mouseover" end="arrowUp.mouseout"/>
                  </use>
                  <path fill="none" stroke="white" stroke-width="1.5" d="M0,-3.0v7 M-2.5,-0.5L0,-3.0L2.5,-0.5"/>
                </g>
                <g id="arrowRight" xlink:href="#dirArrow" transform="rotate(90) translate(36 -43)" onmousedown="handlePan(1,0)">
                  <use xlink:href="#rim" fill="#404040">
                        <set attributeName="fill" to="#808080" begin="arrowRight.mouseover" end="arrowRight.mouseout"/>
                  </use>
                  <path fill="none" stroke="white" stroke-width="1.5" d="M0,-3.0v7 M-2.5,-0.5L0,-3.0L2.5,-0.5"/>
                </g>
                <g id="arrowDown" xlink:href="#dirArrow" transform="rotate(180) translate(-30 -48)" onmousedown="handlePan(0,1)">
                  <use xlink:href="#rim" fill="#404040">
                        <set attributeName="fill" to="#808080" begin="arrowDown.mouseover" end="arrowDown.mouseout"/>
                  </use>
                  <path fill="none" stroke="white" stroke-width="1.5" d="M0,-3.0v7 M-2.5,-0.5L0,-3.0L2.5,-0.5"/>
                </g>
                <g id="arrowLeft" xlink:href="#dirArrow" transform="rotate(270) translate(-36 17)" onmousedown="handlePan(-1,0)">
                  <use xlink:href="#rim" fill="#404040">
                        <set attributeName="fill" to="#808080" begin="arrowLeft.mouseover" end="arrowLeft.mouseout"/>
                  </use>
                  <path fill="none" stroke="white" stroke-width="1.5" d="M0,-3.0v7 M-2.5,-0.5L0,-3.0L2.5,-0.5"/>
                </g>
        </g>
        <svg viewBox="0 0 15 15" width="100%" height="30px" preserveAspectRatio="xMaxYMin meet">
         <g id="arrow_out" transform="scale(0.3 0.3)">
          <a xlink:href="quickjs_8c_a7be64afafb067c71764032c0708d7aa3_icgraph_org.svg" target="_base">
           <rect id="button" ry="5" rx="5" y="6" x="6" height="38" width="38"
                fill="#f2f5e9" fill-opacity="0.5" stroke="#606060" stroke-width="1.0"/>
           <path id="arrow"
             d="M 11.500037,31.436501 C 11.940474,20.09759 22.043105,11.32322 32.158766,21.979434 L 37.068811,17.246167 C 37.068811,17.246167 37.088388,32 37.088388,32 L 22.160133,31.978069 C 22.160133,31.978069 26.997745,27.140456 26.997745,27.140456 C 18.528582,18.264221 13.291696,25.230495 11.500037,31.436501 z"
             style="fill:#404040;"/>
          </a>
         </g>
        </svg>
</svg>
