<?xml version="1.0" encoding="UTF-8" standalone="no"?>
<!DOCTYPE svg PUBLIC "-//W3C//DTD SVG 1.1//EN"
 "http://www.w3.org/Graphics/SVG/1.1/DTD/svg11.dtd">
<!-- Generated by graphviz version 2.40.1 (20161225.0304)
 -->
<!-- Title: JS_HasProperty Pages: 1 -->
<!--zoomable 758 -->
<svg id="main" version="1.1" xmlns="http://www.w3.org/2000/svg" xmlns:xlink="http://www.w3.org/1999/xlink" xml:space="preserve" onload="init(evt)">
<style type="text/css"><![CDATA[
.edge:hover path { stroke: red; }
.edge:hover polygon { stroke: red; fill: red; }
]]></style>
<script type="text/javascript"><![CDATA[
var edges = document.getElementsByTagName('g');
if (edges && edges.length) {
  for (var i=0;i<edges.length;i++) {
    if (edges[i].id.substr(0,4)=='edge') {
      edges[i].setAttribute('class','edge');
    }
  }
}
]]></script>
        <defs>
                <circle id="rim" cx="0" cy="0" r="7"/>
                <circle id="rim2" cx="0" cy="0" r="3.5"/>
                <g id="zoomPlus">
                        <use xlink:href="#rim" fill="#404040">
                                <set attributeName="fill" to="#808080" begin="zoomplus.mouseover" end="zoomplus.mouseout"/>
                        </use>
                        <path d="M-4,0h8M0,-4v8" fill="none" stroke="white" stroke-width="1.5" pointer-events="none"/>
                </g>
                <g id="zoomMin">
                        <use xlink:href="#rim" fill="#404040">
                                <set attributeName="fill" to="#808080" begin="zoomminus.mouseover" end="zoomminus.mouseout"/>
                        </use>
                        <path d="M-4,0h8" fill="none" stroke="white" stroke-width="1.5" pointer-events="none"/>
                </g>
                <g id="dirArrow">
                        <path fill="none" stroke="white" stroke-width="1.5" d="M0,-3.0v7 M-2.5,-0.5L0,-3.0L2.5,-0.5"/>
                </g>
               <g id="resetDef">
                       <use xlink:href="#rim2" fill="#404040">
                               <set attributeName="fill" to="#808080" begin="reset.mouseover" end="reset.mouseout"/>
                       </use>
               </g>
        </defs>

<script type="text/javascript">
var viewWidth = 702;
var viewHeight = 758;
var sectionId = 'dynsection-181';
</script>
<script xlink:href="svgpan.js"/>
<svg id="graph" class="graph">
<g id="viewport">
<title>JS_HasProperty</title>
<!-- Node61310 -->
<g id="node1" class="node">
<title>Node61310</title>
<polygon fill="#bfbfbf" stroke="#000000" points="0,-170.5 0,-189.5 89,-189.5 89,-170.5 0,-170.5"/>
<text text-anchor="middle" x="44.5" y="-177.5" font-family="Helvetica,sans-Serif" font-size="10.00" fill="#000000">JS_HasProperty</text>
</g>
<!-- Node61311 -->
<g id="node2" class="node">
<title>Node61311</title>
<g id="a_node2"><a xlink:href="quickjs_8c.html#ac2894ff4edcdb4e6841bcce9c76081e3" target="_top" xlink:title="JS_CallInternal">
<polygon fill="none" stroke="#000000" points="269,-284.5 269,-303.5 352,-303.5 352,-284.5 269,-284.5"/>
<text text-anchor="middle" x="310.5" y="-291.5" font-family="Helvetica,sans-Serif" font-size="10.00" fill="#000000">JS_CallInternal</text>
</a>
</g>
</g>
<!-- Node61310&#45;&gt;Node61311 -->
<g id="edge1" class="edge">
<title>Node61310&#45;&gt;Node61311</title>
<path fill="none" stroke="#191970" d="M99.4069,-174.7681C138.8447,-173.4806 192.0498,-176.9743 233,-199 269.9287,-218.8627 295.9157,-264.4124 305.9325,-284.3529"/>
<polygon fill="#191970" stroke="#191970" points="99.019,-171.2817 89.1825,-175.218 99.3268,-178.2749 99.019,-171.2817"/>
</g>
<!-- Node61588 -->
<g id="node23" class="node">
<title>Node61588</title>
<g id="a_node23"><a xlink:href="quickjs_8c.html#a1bddfeab11a7cfee6bd88781073b5972" target="_top" xlink:title="js_proxy_has">
<polygon fill="none" stroke="#000000" points="589,-38.5 589,-57.5 663,-57.5 663,-38.5 589,-38.5"/>
<text text-anchor="middle" x="626" y="-45.5" font-family="Helvetica,sans-Serif" font-size="10.00" fill="#000000">js_proxy_has</text>
</a>
</g>
</g>
<!-- Node61310&#45;&gt;Node61588 -->
<g id="edge40" class="edge">
<title>Node61310&#45;&gt;Node61588</title>
<path fill="none" stroke="#191970" d="M56.5124,-162.1613C70.5509,-142.8277 95.6373,-112.6489 125,-97 280.4064,-14.1761 501.5593,-31.3776 588.6786,-42.4555"/>
<polygon fill="#191970" stroke="#191970" points="53.5875,-160.2361 50.7007,-170.4301 59.3145,-164.2613 53.5875,-160.2361"/>
</g>
<!-- Node61582 -->
<g id="node24" class="node">
<title>Node61582</title>
<g id="a_node24"><a xlink:href="quickjs_8c.html#aa4c729f8538eb4637d69f8c64138cfee" target="_top" xlink:title="JS_CheckGlobalVar">
<polygon fill="none" stroke="#000000" points="126.5,-322.5 126.5,-341.5 231.5,-341.5 231.5,-322.5 126.5,-322.5"/>
<text text-anchor="middle" x="179" y="-329.5" font-family="Helvetica,sans-Serif" font-size="10.00" fill="#000000">JS_CheckGlobalVar</text>
</a>
</g>
</g>
<!-- Node61310&#45;&gt;Node61582 -->
<g id="edge30" class="edge">
<title>Node61310&#45;&gt;Node61582</title>
<path fill="none" stroke="#191970" d="M51.275,-199.2542C62.334,-227.9996 86.9252,-282.0577 125,-313 129.7819,-316.8861 135.4149,-320.0043 141.2063,-322.4986"/>
<polygon fill="#191970" stroke="#191970" points="54.4485,-197.7445 47.6992,-189.5776 47.8825,-200.1709 54.4485,-197.7445"/>
</g>
<!-- Node61583 -->
<g id="node25" class="node">
<title>Node61583</title>
<g id="a_node25"><a xlink:href="quickjs_8c.html#ad4da6445b7b08b23f5464ae9b51705bc" target="_top" xlink:title="js_for_in_next">
<polygon fill="none" stroke="#000000" points="140.5,-284.5 140.5,-303.5 217.5,-303.5 217.5,-284.5 140.5,-284.5"/>
<text text-anchor="middle" x="179" y="-291.5" font-family="Helvetica,sans-Serif" font-size="10.00" fill="#000000">js_for_in_next</text>
</a>
</g>
</g>
<!-- Node61310&#45;&gt;Node61583 -->
<g id="edge32" class="edge">
<title>Node61310&#45;&gt;Node61583</title>
<path fill="none" stroke="#191970" d="M55.6221,-198.2403C69.4355,-219.4724 94.8923,-254.2659 125,-275 130.4841,-278.7767 136.7964,-281.878 143.1278,-284.3987"/>
<polygon fill="#191970" stroke="#191970" points="58.4225,-196.1201 50.1199,-189.5386 52.5061,-199.8612 58.4225,-196.1201"/>
</g>
<!-- Node61584 -->
<g id="node26" class="node">
<title>Node61584</title>
<g id="a_node26"><a xlink:href="quickjs_8c.html#a541a07ee8f5d72f230f97472ec9e42dd" target="_top" xlink:title="JS_GetGlobalVarRef">
<polygon fill="none" stroke="#000000" points="125,-246.5 125,-265.5 233,-265.5 233,-246.5 125,-246.5"/>
<text text-anchor="middle" x="179" y="-253.5" font-family="Helvetica,sans-Serif" font-size="10.00" fill="#000000">JS_GetGlobalVarRef</text>
</a>
</g>
</g>
<!-- Node61310&#45;&gt;Node61584 -->
<g id="edge34" class="edge">
<title>Node61310&#45;&gt;Node61584</title>
<path fill="none" stroke="#191970" d="M63.7529,-195.9602C79.4749,-208.4031 102.668,-225.4524 125,-237 131.9741,-240.6062 139.7863,-243.7961 147.2552,-246.4832"/>
<polygon fill="#191970" stroke="#191970" points="65.8232,-193.1335 55.8401,-189.5855 61.4317,-198.5847 65.8232,-193.1335"/>
</g>
<!-- Node61585 -->
<g id="node27" class="node">
<title>Node61585</title>
<g id="a_node27"><a xlink:href="quickjs_8c.html#a26ceb6b90296d2572803b252df73cded" target="_top" xlink:title="js_obj_to_desc">
<polygon fill="none" stroke="#ff0000" points="269.5,-80.5 269.5,-99.5 351.5,-99.5 351.5,-80.5 269.5,-80.5"/>
<text text-anchor="middle" x="310.5" y="-87.5" font-family="Helvetica,sans-Serif" font-size="10.00" fill="#000000">js_obj_to_desc</text>
</a>
</g>
</g>
<!-- Node61310&#45;&gt;Node61585 -->
<g id="edge36" class="edge">
<title>Node61310&#45;&gt;Node61585</title>
<path fill="none" stroke="#191970" d="M64.5777,-163.9988C80.1911,-152.334 102.8541,-137.0461 125,-128 172.4749,-108.6075 230.9729,-98.7388 269.4304,-93.9879"/>
<polygon fill="#191970" stroke="#191970" points="62.0663,-161.5136 56.2566,-170.3735 66.3234,-167.0704 62.0663,-161.5136"/>
</g>
<!-- Node61587 -->
<g id="node28" class="node">
<title>Node61587</title>
<g id="a_node28"><a xlink:href="quickjs_8c.html#a3756e0f1dc63bd8e463e6d4febc6e503" target="_top" xlink:title="js_operator_in">
<polygon fill="none" stroke="#000000" points="140.5,-208.5 140.5,-227.5 217.5,-227.5 217.5,-208.5 140.5,-208.5"/>
<text text-anchor="middle" x="179" y="-215.5" font-family="Helvetica,sans-Serif" font-size="10.00" fill="#000000">js_operator_in</text>
</a>
</g>
</g>
<!-- Node61310&#45;&gt;Node61587 -->
<g id="edge38" class="edge">
<title>Node61310&#45;&gt;Node61587</title>
<path fill="none" stroke="#191970" d="M88.1004,-192.3183C106.5798,-197.5393 127.7895,-203.5316 145.0708,-208.4141"/>
<polygon fill="#191970" stroke="#191970" points="89.015,-188.9398 78.44,-189.589 87.1117,-195.6761 89.015,-188.9398"/>
</g>
<!-- Node61589 -->
<g id="node29" class="node">
<title>Node61589</title>
<g id="a_node29"><a xlink:href="quickjs_8c.html#ab34237416a7483c22a564155a240224b" target="_top" xlink:title="js_reflect_has">
<polygon fill="none" stroke="#000000" points="140.5,-.5 140.5,-19.5 217.5,-19.5 217.5,-.5 140.5,-.5"/>
<text text-anchor="middle" x="179" y="-7.5" font-family="Helvetica,sans-Serif" font-size="10.00" fill="#000000">js_reflect_has</text>
</a>
</g>
</g>
<!-- Node61310&#45;&gt;Node61589 -->
<g id="edge41" class="edge">
<title>Node61310&#45;&gt;Node61589</title>
<path fill="none" stroke="#191970" d="M50.6478,-160.5752C61.2471,-129.9139 85.6859,-70.0825 125,-34 131.6514,-27.8954 140.1108,-23.1517 148.3492,-19.5548"/>
<polygon fill="#191970" stroke="#191970" points="47.1974,-159.8603 47.3671,-170.4537 53.8406,-162.0666 47.1974,-159.8603"/>
</g>
<!-- Node61590 -->
<g id="node30" class="node">
<title>Node61590</title>
<g id="a_node30"><a xlink:href="quickjs_8c.html#a14674e74168715dc5a3a391910982e5d" target="_top" xlink:title="JS_TryGetPropertyInt64">
<polygon fill="none" stroke="#ff0000" points="394,-152.5 394,-171.5 516,-171.5 516,-152.5 394,-152.5"/>
<text text-anchor="middle" x="455" y="-159.5" font-family="Helvetica,sans-Serif" font-size="10.00" fill="#000000">JS_TryGetPropertyInt64</text>
</a>
</g>
</g>
<!-- Node61310&#45;&gt;Node61590 -->
<g id="edge42" class="edge">
<title>Node61310&#45;&gt;Node61590</title>
<path fill="none" stroke="#191970" d="M99.1537,-173.2636C107.7907,-172.3799 116.6308,-171.5809 125,-171 218.6247,-164.5012 327.4952,-162.6339 393.801,-162.1321"/>
<polygon fill="#191970" stroke="#191970" points="98.72,-169.7899 89.1483,-174.3321 99.4634,-176.7504 98.72,-169.7899"/>
</g>
<!-- Node61311&#45;&gt;Node61311 -->
<g id="edge29" class="edge">
<title>Node61311&#45;&gt;Node61311</title>
<path fill="none" stroke="#191970" d="M286.3186,-313.0292C287.6376,-318.128 295.6981,-322 310.5,-322 333.6055,-322 340.2844,-312.5653 330.5368,-303.7571"/>
<polygon fill="#191970" stroke="#191970" points="289.5776,-314.3148 290.4632,-303.7571 283.187,-311.4582 289.5776,-314.3148"/>
</g>
<!-- Node61312 -->
<g id="node3" class="node">
<title>Node61312</title>
<g id="a_node3"><a xlink:href="quickjs_8c.html#ade71a22dc56e7371392393df663b28b3" target="_top" xlink:title="async_func_resume">
<polygon fill="none" stroke="#000000" points="403,-636.5 403,-655.5 507,-655.5 507,-636.5 403,-636.5"/>
<text text-anchor="middle" x="455" y="-643.5" font-family="Helvetica,sans-Serif" font-size="10.00" fill="#000000">async_func_resume</text>
</a>
</g>
</g>
<!-- Node61311&#45;&gt;Node61312 -->
<g id="edge2" class="edge">
<title>Node61311&#45;&gt;Node61312</title>
<path fill="none" stroke="#191970" d="M318.4028,-313.2511C345.1335,-378.3666 431.5814,-588.9527 451.0718,-636.4309"/>
<polygon fill="#191970" stroke="#191970" points="321.551,-311.7036 314.5156,-303.7819 315.0754,-314.3619 321.551,-311.7036"/>
</g>
<!-- Node61324 -->
<g id="node8" class="node">
<title>Node61324</title>
<g id="a_node8"><a xlink:href="quickjs_8c.html#a1a4c02a29525d5cb2085dd8bca3af350" target="_top" xlink:title="JS_Call">
<polygon fill="none" stroke="#ff0000" points="429.5,-284.5 429.5,-303.5 480.5,-303.5 480.5,-284.5 429.5,-284.5"/>
<text text-anchor="middle" x="455" y="-291.5" font-family="Helvetica,sans-Serif" font-size="10.00" fill="#000000">JS_Call</text>
</a>
</g>
</g>
<!-- Node61311&#45;&gt;Node61324 -->
<g id="edge7" class="edge">
<title>Node61311&#45;&gt;Node61324</title>
<path fill="none" stroke="#191970" d="M362.4675,-287.4922C385.1282,-286.9376 410.6855,-287.3355 429.1897,-288.6858"/>
<polygon fill="#191970" stroke="#191970" points="362.1797,-283.9994 352.2954,-287.814 362.4011,-290.9959 362.1797,-283.9994"/>
</g>
<!-- Node61398 -->
<g id="node20" class="node">
<title>Node61398</title>
<g id="a_node20"><a xlink:href="quickjs_8c.html#ad35594576a14c10812efaf958c99af8a" target="_top" xlink:title="JS_CallConstructorInternal">
<polygon fill="none" stroke="#ff0000" points="388,-322.5 388,-341.5 522,-341.5 522,-322.5 388,-322.5"/>
<text text-anchor="middle" x="455" y="-329.5" font-family="Helvetica,sans-Serif" font-size="10.00" fill="#000000">JS_CallConstructorInternal</text>
</a>
</g>
</g>
<!-- Node61311&#45;&gt;Node61398 -->
<g id="edge23" class="edge">
<title>Node61311&#45;&gt;Node61398</title>
<path fill="none" stroke="#191970" d="M362.3524,-301.1309C388.197,-307.291 417.8346,-315.6885 436.4855,-322.4368"/>
<polygon fill="#191970" stroke="#191970" points="362.8269,-297.6484 352.2954,-298.8052 361.2497,-304.4684 362.8269,-297.6484"/>
</g>
<!-- Node61412 -->
<g id="node21" class="node">
<title>Node61412</title>
<g id="a_node21"><a xlink:href="quickjs_8c.html#a75f6ee5e4235a7dc99889f3d2eb2c147" target="_top" xlink:title="JS_CallFree">
<polygon fill="none" stroke="#ff0000" points="419.5,-114.5 419.5,-133.5 490.5,-133.5 490.5,-114.5 419.5,-114.5"/>
<text text-anchor="middle" x="455" y="-121.5" font-family="Helvetica,sans-Serif" font-size="10.00" fill="#000000">JS_CallFree</text>
</a>
</g>
</g>
<!-- Node61311&#45;&gt;Node61412 -->
<g id="edge25" class="edge">
<title>Node61311&#45;&gt;Node61412</title>
<path fill="none" stroke="#191970" d="M313.8308,-274.4486C321.4737,-240.1736 343.1656,-170.738 388,-134 396.8844,-126.72 408.4015,-122.2266 419.3739,-119.9142"/>
<polygon fill="#191970" stroke="#191970" points="310.3998,-273.7577 311.8315,-284.2554 317.2587,-275.1561 310.3998,-273.7577"/>
</g>
<!-- Node61313 -->
<g id="node4" class="node">
<title>Node61313</title>
<g id="a_node4"><a xlink:href="quickjs_8c.html#a1bf6b62983e8fff99c0a5d5a9f486115" target="_top" xlink:title="js_async_function_resume">
<polygon fill="none" stroke="#ff0000" points="559.5,-592.5 559.5,-611.5 692.5,-611.5 692.5,-592.5 559.5,-592.5"/>
<text text-anchor="middle" x="626" y="-599.5" font-family="Helvetica,sans-Serif" font-size="10.00" fill="#000000">js_async_function_resume</text>
</a>
</g>
</g>
<!-- Node61312&#45;&gt;Node61313 -->
<g id="edge3" class="edge">
<title>Node61312&#45;&gt;Node61313</title>
<path fill="none" stroke="#191970" d="M501.8763,-633.9383C529.3014,-626.8815 563.4389,-618.0976 588.968,-611.5287"/>
<polygon fill="#191970" stroke="#191970" points="500.9168,-630.5711 492.1045,-636.4527 502.6612,-637.3502 500.9168,-630.5711"/>
</g>
<!-- Node61318 -->
<g id="node5" class="node">
<title>Node61318</title>
<g id="a_node5"><a xlink:href="quickjs_8c.html#ae19867da709929c072f05e90301835a4" target="_top" xlink:title="js_async_generator\l_function_call">
<polygon fill="none" stroke="#ff0000" points="575.5,-631 575.5,-661 676.5,-661 676.5,-631 575.5,-631"/>
<text text-anchor="start" x="583.5" y="-649" font-family="Helvetica,sans-Serif" font-size="10.00" fill="#000000">js_async_generator</text>
<text text-anchor="middle" x="626" y="-638" font-family="Helvetica,sans-Serif" font-size="10.00" fill="#000000">_function_call</text>
</a>
</g>
</g>
<!-- Node61312&#45;&gt;Node61318 -->
<g id="edge4" class="edge">
<title>Node61312&#45;&gt;Node61318</title>
<path fill="none" stroke="#191970" d="M517.3199,-646C536.3682,-646 557.077,-646 575.2585,-646"/>
<polygon fill="#191970" stroke="#191970" points="517.2348,-642.5001 507.2348,-646 517.2348,-649.5001 517.2348,-642.5001"/>
</g>
<!-- Node61319 -->
<g id="node6" class="node">
<title>Node61319</title>
<g id="a_node6"><a xlink:href="quickjs_8c.html#a89b019c704a2d2914bc30b30a72040b3" target="_top" xlink:title="js_async_generator\l_resume_next">
<polygon fill="none" stroke="#000000" points="575.5,-719 575.5,-749 676.5,-749 676.5,-719 575.5,-719"/>
<text text-anchor="start" x="583.5" y="-737" font-family="Helvetica,sans-Serif" font-size="10.00" fill="#000000">js_async_generator</text>
<text text-anchor="middle" x="626" y="-726" font-family="Helvetica,sans-Serif" font-size="10.00" fill="#000000">_resume_next</text>
</a>
</g>
</g>
<!-- Node61312&#45;&gt;Node61319 -->
<g id="edge5" class="edge">
<title>Node61312&#45;&gt;Node61319</title>
<path fill="none" stroke="#191970" d="M477.1122,-661.2897C497.4958,-674.9507 528.9068,-694.9239 558,-709 565.3596,-712.5608 573.3658,-715.9251 581.2157,-718.9631"/>
<polygon fill="#191970" stroke="#191970" points="479.0728,-658.3904 468.8307,-655.6792 475.1466,-664.1857 479.0728,-658.3904"/>
</g>
<!-- Node61320 -->
<g id="node7" class="node">
<title>Node61320</title>
<g id="a_node7"><a xlink:href="quickjs_8c.html#ac90552b1f1659acb3dae9a4c62479a30" target="_top" xlink:title="js_generator_function_call">
<polygon fill="none" stroke="#ff0000" points="561,-680.5 561,-699.5 691,-699.5 691,-680.5 561,-680.5"/>
<text text-anchor="middle" x="626" y="-687.5" font-family="Helvetica,sans-Serif" font-size="10.00" fill="#000000">js_generator_function_call</text>
</a>
</g>
</g>
<!-- Node61312&#45;&gt;Node61320 -->
<g id="edge6" class="edge">
<title>Node61312&#45;&gt;Node61320</title>
<path fill="none" stroke="#191970" d="M501.8763,-658.0617C529.3014,-665.1185 563.4389,-673.9024 588.968,-680.4713"/>
<polygon fill="#191970" stroke="#191970" points="502.6612,-654.6498 492.1045,-655.5473 500.9168,-661.4289 502.6612,-654.6498"/>
</g>
<!-- Node61324&#45;&gt;Node61311 -->
<g id="edge20" class="edge">
<title>Node61324&#45;&gt;Node61311</title>
<path fill="none" stroke="#191970" d="M419.1175,-299.9239C398.8618,-300.9297 373.4473,-301.0171 352.2954,-300.186"/>
<polygon fill="#191970" stroke="#191970" points="419.4195,-303.4121 429.1897,-299.3142 418.9965,-296.4249 419.4195,-303.4121"/>
</g>
<!-- Node61324&#45;&gt;Node61313 -->
<g id="edge16" class="edge">
<title>Node61324&#45;&gt;Node61313</title>
<path fill="none" stroke="#191970" d="M490.5805,-296.4014C502.1865,-298.982 514.1047,-303.8794 522,-313 601.2341,-404.5312 478.5892,-491.622 558,-583 561.2966,-586.7934 565.2815,-589.8591 569.6496,-592.3328"/>
<polygon fill="#191970" stroke="#191970" points="491.0188,-292.9255 480.5706,-294.6821 489.8337,-299.8245 491.0188,-292.9255"/>
</g>
<!-- Node61325 -->
<g id="node9" class="node">
<title>Node61325</title>
<g id="a_node9"><a xlink:href="quickjs-libc_8c.html#abb1cbe3fdf905e81f603a3a0bfce475a" target="_top" xlink:title="call_handler">
<polygon fill="none" stroke="#ff0000" points="592,-340.5 592,-359.5 660,-359.5 660,-340.5 592,-340.5"/>
<text text-anchor="middle" x="626" y="-347.5" font-family="Helvetica,sans-Serif" font-size="10.00" fill="#000000">call_handler</text>
</a>
</g>
</g>
<!-- Node61324&#45;&gt;Node61325 -->
<g id="edge8" class="edge">
<title>Node61324&#45;&gt;Node61325</title>
<path fill="none" stroke="#191970" d="M490.4421,-302.7155C500.7501,-305.6074 511.9393,-309.098 522,-313 538.6781,-319.4686 541.3095,-324.5637 558,-331 568.7506,-335.1457 580.7745,-338.8086 591.687,-341.7844"/>
<polygon fill="#191970" stroke="#191970" points="491.0689,-299.2595 480.5022,-300.0303 489.2433,-306.0172 491.0689,-299.2595"/>
</g>
<!-- Node61330 -->
<g id="node10" class="node">
<title>Node61330</title>
<g id="a_node10"><a xlink:href="quickjs_8c.html#a624282391413d4c5a030adbd8b77aa80" target="_top" xlink:title="internalize_json_property">
<polygon fill="none" stroke="#ff0000" points="563.5,-284.5 563.5,-303.5 688.5,-303.5 688.5,-284.5 563.5,-284.5"/>
<text text-anchor="middle" x="626" y="-291.5" font-family="Helvetica,sans-Serif" font-size="10.00" fill="#000000">internalize_json_property</text>
</a>
</g>
</g>
<!-- Node61324&#45;&gt;Node61330 -->
<g id="edge9" class="edge">
<title>Node61324&#45;&gt;Node61330</title>
<path fill="none" stroke="#191970" d="M490.6654,-294C511.6466,-294 538.7784,-294 563.2344,-294"/>
<polygon fill="#191970" stroke="#191970" points="490.6005,-290.5001 480.6004,-294 490.6004,-297.5001 490.6005,-290.5001"/>
</g>
<!-- Node61332 -->
<g id="node11" class="node">
<title>Node61332</title>
<g id="a_node11"><a xlink:href="quickjs_8c.html#aa0bbf08a7e91459c68a312fba7016c6d" target="_top" xlink:title="js_array_every">
<polygon fill="none" stroke="#000000" points="586,-114.5 586,-133.5 666,-133.5 666,-114.5 586,-114.5"/>
<text text-anchor="middle" x="626" y="-121.5" font-family="Helvetica,sans-Serif" font-size="10.00" fill="#000000">js_array_every</text>
</a>
</g>
</g>
<!-- Node61324&#45;&gt;Node61332 -->
<g id="edge11" class="edge">
<title>Node61324&#45;&gt;Node61332</title>
<path fill="none" stroke="#191970" d="M465.5729,-275.2673C486.4028,-238.9635 532.8996,-161.0074 558,-143 566.167,-137.1409 576.0788,-133.0859 585.7798,-130.2803"/>
<polygon fill="#191970" stroke="#191970" points="462.3258,-273.8963 460.4175,-284.3179 468.4083,-277.361 462.3258,-273.8963"/>
</g>
<!-- Node61333 -->
<g id="node12" class="node">
<title>Node61333</title>
<g id="a_node12"><a xlink:href="quickjs_8c.html#a9dd41b086da4e13b3487cc9c6e2af2b8" target="_top" xlink:title="js_array_find">
<polygon fill="none" stroke="#000000" points="590,-246.5 590,-265.5 662,-265.5 662,-246.5 590,-246.5"/>
<text text-anchor="middle" x="626" y="-253.5" font-family="Helvetica,sans-Serif" font-size="10.00" fill="#000000">js_array_find</text>
</a>
</g>
</g>
<!-- Node61324&#45;&gt;Node61333 -->
<g id="edge12" class="edge">
<title>Node61324&#45;&gt;Node61333</title>
<path fill="none" stroke="#191970" d="M490.7269,-286.0607C519.7746,-279.6056 560.5819,-270.5374 589.7655,-264.0521"/>
<polygon fill="#191970" stroke="#191970" points="489.603,-282.725 480.6004,-288.311 491.1216,-289.5583 489.603,-282.725"/>
</g>
<!-- Node61334 -->
<g id="node13" class="node">
<title>Node61334</title>
<g id="a_node13"><a xlink:href="quickjs_8c.html#a5e32da9a43002cb96dcbd62a1a340144" target="_top" xlink:title="js_array_from">
<polygon fill="none" stroke="#000000" points="588,-554.5 588,-573.5 664,-573.5 664,-554.5 588,-554.5"/>
<text text-anchor="middle" x="626" y="-561.5" font-family="Helvetica,sans-Serif" font-size="10.00" fill="#000000">js_array_from</text>
</a>
</g>
</g>
<!-- Node61324&#45;&gt;Node61334 -->
<g id="edge13" class="edge">
<title>Node61324&#45;&gt;Node61334</title>
<path fill="none" stroke="#191970" d="M490.7417,-296.557C502.2529,-299.1616 514.0696,-304.0344 522,-313 591.133,-391.1571 488.7162,-466.9766 558,-545 565.6506,-553.6157 576.8511,-558.466 587.9629,-561.1544"/>
<polygon fill="#191970" stroke="#191970" points="491.2657,-293.0955 480.8099,-294.8061 490.0503,-299.9892 491.2657,-293.0955"/>
</g>
<!-- Node61335 -->
<g id="node14" class="node">
<title>Node61335</title>
<g id="a_node14"><a xlink:href="quickjs_8c.html#a36c1692489542a86dd79a7d39ab8ff95" target="_top" xlink:title="js_array_reduce">
<polygon fill="none" stroke="#000000" points="583,-208.5 583,-227.5 669,-227.5 669,-208.5 583,-208.5"/>
<text text-anchor="middle" x="626" y="-215.5" font-family="Helvetica,sans-Serif" font-size="10.00" fill="#000000">js_array_reduce</text>
</a>
</g>
</g>
<!-- Node61324&#45;&gt;Node61335 -->
<g id="edge14" class="edge">
<title>Node61324&#45;&gt;Node61335</title>
<path fill="none" stroke="#191970" d="M478.4013,-278.978C498.7847,-266.4057 529.4652,-248.6946 558,-237 566.8469,-233.3742 576.6154,-230.1941 585.9227,-227.5246"/>
<polygon fill="#191970" stroke="#191970" points="476.4287,-276.0835 469.8053,-284.3528 480.1398,-282.0188 476.4287,-276.0835"/>
</g>
<!-- Node61336 -->
<g id="node15" class="node">
<title>Node61336</title>
<g id="a_node15"><a xlink:href="quickjs_8c.html#aa45afa6d2861615f29444c9614ce766a" target="_top" xlink:title="js_async_from_sync\l_iterator_next">
<polygon fill="none" stroke="#000000" points="572.5,-505 572.5,-535 679.5,-535 679.5,-505 572.5,-505"/>
<text text-anchor="start" x="580.5" y="-523" font-family="Helvetica,sans-Serif" font-size="10.00" fill="#000000">js_async_from_sync</text>
<text text-anchor="middle" x="626" y="-512" font-family="Helvetica,sans-Serif" font-size="10.00" fill="#000000">_iterator_next</text>
</a>
</g>
</g>
<!-- Node61324&#45;&gt;Node61336 -->
<g id="edge15" class="edge">
<title>Node61324&#45;&gt;Node61336</title>
<path fill="none" stroke="#191970" d="M490.5346,-296.7441C502.0277,-299.365 513.886,-304.2002 522,-313 577.8954,-373.6195 504.4474,-432.3013 558,-495 562.0029,-499.6865 566.9646,-503.4948 572.3716,-506.5895"/>
<polygon fill="#191970" stroke="#191970" points="491.0929,-293.2885 480.6319,-294.9669 489.8563,-300.1784 491.0929,-293.2885"/>
</g>
<!-- Node61337 -->
<g id="node16" class="node">
<title>Node61337</title>
<g id="a_node16"><a xlink:href="quickjs_8c.html#a2355fabf91f59212ea65baba1b0b7c1b" target="_top" xlink:title="js_async_generator_next">
<polygon fill="none" stroke="#000000" points="563.5,-466.5 563.5,-485.5 688.5,-485.5 688.5,-466.5 563.5,-466.5"/>
<text text-anchor="middle" x="626" y="-473.5" font-family="Helvetica,sans-Serif" font-size="10.00" fill="#000000">js_async_generator_next</text>
</a>
</g>
</g>
<!-- Node61324&#45;&gt;Node61337 -->
<g id="edge17" class="edge">
<title>Node61324&#45;&gt;Node61337</title>
<path fill="none" stroke="#191970" d="M490.9049,-297.118C502.1862,-299.7877 513.8184,-304.5578 522,-313 567.9107,-360.373 511.9978,-409.7158 558,-457 561.7609,-460.8658 566.2379,-463.9639 571.0735,-466.4442"/>
<polygon fill="#191970" stroke="#191970" points="491.2264,-293.6173 480.7522,-295.2117 489.9346,-300.4971 491.2264,-293.6173"/>
</g>
<!-- Node61338 -->
<g id="node17" class="node">
<title>Node61338</title>
<g id="a_node17"><a xlink:href="quickjs_8c.html#a3e852026d167fa03c673f86697dd3e67" target="_top" xlink:title="js_async_generator\l_resolve_or_reject">
<polygon fill="none" stroke="#ff0000" points="575.5,-417 575.5,-447 676.5,-447 676.5,-417 575.5,-417"/>
<text text-anchor="start" x="583.5" y="-435" font-family="Helvetica,sans-Serif" font-size="10.00" fill="#000000">js_async_generator</text>
<text text-anchor="middle" x="626" y="-424" font-family="Helvetica,sans-Serif" font-size="10.00" fill="#000000">_resolve_or_reject</text>
</a>
</g>
</g>
<!-- Node61324&#45;&gt;Node61338 -->
<g id="edge18" class="edge">
<title>Node61324&#45;&gt;Node61338</title>
<path fill="none" stroke="#191970" d="M490.5998,-297.7699C501.7576,-300.4925 513.3922,-305.1294 522,-313 555.016,-343.1882 526.1545,-375.5796 558,-407 562.9245,-411.8588 568.8717,-415.7837 575.1749,-418.9519"/>
<polygon fill="#191970" stroke="#191970" points="491.0793,-294.2966 480.5874,-295.7698 489.708,-301.161 491.0793,-294.2966"/>
</g>
<!-- Node61341 -->
<g id="node18" class="node">
<title>Node61341</title>
<g id="a_node18"><a xlink:href="quickjs_8c.html#afd4ef2d701fa0702f321925b61c57bbf" target="_top" xlink:title="js_call_bound_function">
<polygon fill="none" stroke="#ff0000" points="568,-378.5 568,-397.5 684,-397.5 684,-378.5 568,-378.5"/>
<text text-anchor="middle" x="626" y="-385.5" font-family="Helvetica,sans-Serif" font-size="10.00" fill="#000000">js_call_bound_function</text>
</a>
</g>
</g>
<!-- Node61324&#45;&gt;Node61341 -->
<g id="edge19" class="edge">
<title>Node61324&#45;&gt;Node61341</title>
<path fill="none" stroke="#191970" d="M490.8383,-299.1364C501.6034,-301.9459 512.9464,-306.2888 522,-313 545.7697,-330.6198 534.1963,-351.4261 558,-369 563.2265,-372.8587 569.2035,-375.934 575.3963,-378.3849"/>
<polygon fill="#191970" stroke="#191970" points="491.3112,-295.6556 480.7879,-296.8853 489.7812,-302.4864 491.3112,-295.6556"/>
</g>
<!-- Node61344 -->
<g id="node19" class="node">
<title>Node61344</title>
<g id="a_node19"><a xlink:href="quickjs_8c.html#ad90c33b4aae1181151bda4a98ac2ef23" target="_top" xlink:title="JS_FlattenIntoArray">
<polygon fill="none" stroke="#ff0000" points="574,-152.5 574,-171.5 678,-171.5 678,-152.5 574,-152.5"/>
<text text-anchor="middle" x="626" y="-159.5" font-family="Helvetica,sans-Serif" font-size="10.00" fill="#000000">JS_FlattenIntoArray</text>
</a>
</g>
</g>
<!-- Node61324&#45;&gt;Node61344 -->
<g id="edge21" class="edge">
<title>Node61324&#45;&gt;Node61344</title>
<path fill="none" stroke="#191970" d="M471.1087,-276.7481C490.4977,-256.5757 524.6291,-222.9078 558,-199 572.968,-188.2766 591.3902,-178.434 605.2828,-171.6007"/>
<polygon fill="#191970" stroke="#191970" points="468.3253,-274.5962 463.9746,-284.2566 473.4,-279.4178 468.3253,-274.5962"/>
</g>
<!-- Node61330&#45;&gt;Node61330 -->
<g id="edge10" class="edge">
<title>Node61330&#45;&gt;Node61330</title>
<path fill="none" stroke="#191970" d="M594.1886,-312.2746C595.0956,-317.741 605.6994,-322 626,-322 656.2148,-322 664.9488,-312.5653 652.2019,-303.7571"/>
<polygon fill="#191970" stroke="#191970" points="597.2209,-314.0337 599.7981,-303.7571 591.3748,-310.1836 597.2209,-314.0337"/>
</g>
<!-- Node61344&#45;&gt;Node61344 -->
<g id="edge22" class="edge">
<title>Node61344&#45;&gt;Node61344</title>
<path fill="none" stroke="#191970" d="M594.1886,-180.2746C595.0956,-185.741 605.6994,-190 626,-190 656.2148,-190 664.9488,-180.5653 652.2019,-171.7571"/>
<polygon fill="#191970" stroke="#191970" points="597.2209,-182.0337 599.7981,-171.7571 591.3748,-178.1836 597.2209,-182.0337"/>
</g>
<!-- Node61398&#45;&gt;Node61311 -->
<g id="edge24" class="edge">
<title>Node61398&#45;&gt;Node61311</title>
<path fill="none" stroke="#191970" d="M383.427,-319.9278C363.3051,-314.6519 343.1133,-308.6594 329.095,-303.5924"/>
<polygon fill="#191970" stroke="#191970" points="382.716,-323.3586 393.272,-322.453 384.4552,-316.5781 382.716,-323.3586"/>
</g>
<!-- Node61412&#45;&gt;Node61311 -->
<g id="edge26" class="edge">
<title>Node61412&#45;&gt;Node61311</title>
<path fill="none" stroke="#191970" d="M422.3519,-136.1425C410.5183,-139.4323 397.6924,-144.0579 388,-152 343.0997,-188.792 321.41,-258.3777 313.7972,-284.3969"/>
<polygon fill="#191970" stroke="#191970" points="423.5871,-139.4382 432.392,-133.5454 421.8341,-132.6613 423.5871,-139.4382"/>
</g>
<!-- Node61586 -->
<g id="node22" class="node">
<title>Node61586</title>
<g id="a_node22"><a xlink:href="quickjs_8c.html#ab9c2e9c8dab72f3c057efe4ffcced332" target="_top" xlink:title="js_proxy_get_own_property">
<polygon fill="none" stroke="#000000" points="558,-76.5 558,-95.5 694,-95.5 694,-76.5 558,-76.5"/>
<text text-anchor="middle" x="626" y="-83.5" font-family="Helvetica,sans-Serif" font-size="10.00" fill="#000000">js_proxy_get_own_property</text>
</a>
</g>
</g>
<!-- Node61412&#45;&gt;Node61586 -->
<g id="edge27" class="edge">
<title>Node61412&#45;&gt;Node61586</title>
<path fill="none" stroke="#191970" d="M500.7,-113.8444C526.3321,-108.1484 558.1071,-101.0873 583.245,-95.5011"/>
<polygon fill="#191970" stroke="#191970" points="499.8498,-110.4479 490.8472,-116.034 501.3684,-117.2812 499.8498,-110.4479"/>
</g>
<!-- Node61412&#45;&gt;Node61588 -->
<g id="edge28" class="edge">
<title>Node61412&#45;&gt;Node61588</title>
<path fill="none" stroke="#191970" d="M478.4013,-108.978C498.7847,-96.4057 529.4652,-78.6946 558,-67 567.7542,-63.0024 578.6289,-59.5464 588.7705,-56.7194"/>
<polygon fill="#191970" stroke="#191970" points="476.4287,-106.0835 469.8053,-114.3528 480.1398,-112.0188 476.4287,-106.0835"/>
</g>
<!-- Node61582&#45;&gt;Node61311 -->
<g id="edge31" class="edge">
<title>Node61582&#45;&gt;Node61311</title>
<path fill="none" stroke="#191970" d="M221.8778,-319.6094C239.8862,-314.4055 260.5096,-308.4459 277.3276,-303.5859"/>
<polygon fill="#191970" stroke="#191970" points="220.8183,-316.2724 212.183,-322.411 222.7616,-322.9972 220.8183,-316.2724"/>
</g>
<!-- Node61583&#45;&gt;Node61311 -->
<g id="edge33" class="edge">
<title>Node61583&#45;&gt;Node61311</title>
<path fill="none" stroke="#191970" d="M227.8113,-294C241.2911,-294 255.7903,-294 268.8248,-294"/>
<polygon fill="#191970" stroke="#191970" points="227.7431,-290.5001 217.7431,-294 227.7431,-297.5001 227.7431,-290.5001"/>
</g>
<!-- Node61584&#45;&gt;Node61311 -->
<g id="edge35" class="edge">
<title>Node61584&#45;&gt;Node61311</title>
<path fill="none" stroke="#191970" d="M221.8778,-268.3906C239.8862,-273.5945 260.5096,-279.5541 277.3276,-284.4141"/>
<polygon fill="#191970" stroke="#191970" points="222.7616,-265.0028 212.183,-265.589 220.8183,-271.7276 222.7616,-265.0028"/>
</g>
<!-- Node61585&#45;&gt;Node61586 -->
<g id="edge37" class="edge">
<title>Node61585&#45;&gt;Node61586</title>
<path fill="none" stroke="#191970" d="M362.0015,-89.347C415.3824,-88.6703 499.0924,-87.609 557.9084,-86.8633"/>
<polygon fill="#191970" stroke="#191970" points="361.7009,-85.8505 351.7461,-89.4771 361.7897,-92.8499 361.7009,-85.8505"/>
</g>
<!-- Node61587&#45;&gt;Node61311 -->
<g id="edge39" class="edge">
<title>Node61587&#45;&gt;Node61311</title>
<path fill="none" stroke="#191970" d="M220.496,-231.1748C224.796,-232.9598 229.0378,-234.9058 233,-237 258.6934,-250.5805 285.2629,-272.0326 299.6478,-284.382"/>
<polygon fill="#191970" stroke="#191970" points="221.6647,-227.8742 211.0755,-227.5293 219.1384,-234.4024 221.6647,-227.8742"/>
</g>
<!-- Node61590&#45;&gt;Node61332 -->
<g id="edge43" class="edge">
<title>Node61590&#45;&gt;Node61332</title>
<path fill="none" stroke="#191970" d="M508.2289,-150.1714C533.2754,-144.6055 562.6521,-138.0773 585.8001,-132.9333"/>
<polygon fill="#191970" stroke="#191970" points="507.1531,-146.825 498.1505,-152.411 508.6717,-153.6583 507.1531,-146.825"/>
</g>
<!-- Node61590&#45;&gt;Node61335 -->
<g id="edge44" class="edge">
<title>Node61590&#45;&gt;Node61335</title>
<path fill="none" stroke="#191970" d="M489.7739,-175.2006C509.6377,-182.5624 535.0803,-191.6919 558,-199 568.277,-202.2769 579.5237,-205.546 589.8591,-208.4256"/>
<polygon fill="#191970" stroke="#191970" points="490.8153,-171.8536 480.2227,-171.638 488.3689,-178.4122 490.8153,-171.8536"/>
</g>
<!-- Node61590&#45;&gt;Node61344 -->
<g id="edge45" class="edge">
<title>Node61590&#45;&gt;Node61344</title>
<path fill="none" stroke="#191970" d="M526.5716,-162C542.4563,-162 559.0001,-162 573.9297,-162"/>
<polygon fill="#191970" stroke="#191970" points="526.252,-158.5001 516.2519,-162 526.2519,-165.5001 526.252,-158.5001"/>
</g>
</g>
</svg>
        <g id="navigator" transform="translate(0 0)" fill="#404254">
                <rect fill="#f2f5e9" fill-opacity="0.5" stroke="#606060" stroke-width=".5" x="0" y="0" width="60" height="60"/>
                <use id="zoomplus" xlink:href="#zoomPlus" x="17" y="9" onmousedown="handleZoom(evt,'in')"/>
                <use id="zoomminus" xlink:href="#zoomMin" x="42" y="9" onmousedown="handleZoom(evt,'out')"/>
                <use id="reset" xlink:href="#resetDef" x="30" y="36" onmousedown="handleReset()"/>
                <g id="arrowUp" xlink:href="#dirArrow" transform="translate(30 24)" onmousedown="handlePan(0,-1)">
                  <use xlink:href="#rim" fill="#404040">
                        <set attributeName="fill" to="#808080" begin="arrowUp.mouseover" end="arrowUp.mouseout"/>
                  </use>
                  <path fill="none" stroke="white" stroke-width="1.5" d="M0,-3.0v7 M-2.5,-0.5L0,-3.0L2.5,-0.5"/>
                </g>
                <g id="arrowRight" xlink:href="#dirArrow" transform="rotate(90) translate(36 -43)" onmousedown="handlePan(1,0)">
                  <use xlink:href="#rim" fill="#404040">
                        <set attributeName="fill" to="#808080" begin="arrowRight.mouseover" end="arrowRight.mouseout"/>
                  </use>
                  <path fill="none" stroke="white" stroke-width="1.5" d="M0,-3.0v7 M-2.5,-0.5L0,-3.0L2.5,-0.5"/>
                </g>
                <g id="arrowDown" xlink:href="#dirArrow" transform="rotate(180) translate(-30 -48)" onmousedown="handlePan(0,1)">
                  <use xlink:href="#rim" fill="#404040">
                        <set attributeName="fill" to="#808080" begin="arrowDown.mouseover" end="arrowDown.mouseout"/>
                  </use>
                  <path fill="none" stroke="white" stroke-width="1.5" d="M0,-3.0v7 M-2.5,-0.5L0,-3.0L2.5,-0.5"/>
                </g>
                <g id="arrowLeft" xlink:href="#dirArrow" transform="rotate(270) translate(-36 17)" onmousedown="handlePan(-1,0)">
                  <use xlink:href="#rim" fill="#404040">
                        <set attributeName="fill" to="#808080" begin="arrowLeft.mouseover" end="arrowLeft.mouseout"/>
                  </use>
                  <path fill="none" stroke="white" stroke-width="1.5" d="M0,-3.0v7 M-2.5,-0.5L0,-3.0L2.5,-0.5"/>
                </g>
        </g>
        <svg viewBox="0 0 15 15" width="100%" height="30px" preserveAspectRatio="xMaxYMin meet">
         <g id="arrow_out" transform="scale(0.3 0.3)">
          <a xlink:href="quickjs_8h_a665c8e793d5b2a2fe7282fa566f8a63b_icgraph_org.svg" target="_base">
           <rect id="button" ry="5" rx="5" y="6" x="6" height="38" width="38"
                fill="#f2f5e9" fill-opacity="0.5" stroke="#606060" stroke-width="1.0"/>
           <path id="arrow"
             d="M 11.500037,31.436501 C 11.940474,20.09759 22.043105,11.32322 32.158766,21.979434 L 37.068811,17.246167 C 37.068811,17.246167 37.088388,32 37.088388,32 L 22.160133,31.978069 C 22.160133,31.978069 26.997745,27.140456 26.997745,27.140456 C 18.528582,18.264221 13.291696,25.230495 11.500037,31.436501 z"
             style="fill:#404040;"/>
          </a>
         </g>
        </svg>
</svg>
