<?xml version="1.0" encoding="UTF-8" standalone="no"?>
<!DOCTYPE svg PUBLIC "-//W3C//DTD SVG 1.1//EN"
 "http://www.w3.org/Graphics/SVG/1.1/DTD/svg11.dtd">
<!-- Generated by graphviz version 2.40.1 (20161225.0304)
 -->
<!-- Title: JS_GetPropertyUint32 Pages: 1 -->
<svg width="793pt" height="296pt"
 viewBox="0.00 0.00 793.00 296.32" xmlns="http://www.w3.org/2000/svg" xmlns:xlink="http://www.w3.org/1999/xlink">
<g id="graph0" class="graph" transform="scale(1 1) rotate(0) translate(4 292.3166)">
<title>JS_GetPropertyUint32</title>
<!-- Node182327 -->
<g id="node1" class="node">
<title>Node182327</title>
<polygon fill="#bfbfbf" stroke="#000000" points="0,-135.8166 0,-154.8166 115,-154.8166 115,-135.8166 0,-135.8166"/>
<text text-anchor="middle" x="57.5" y="-142.8166" font-family="Helvetica,sans-Serif" font-size="10.00" fill="#000000">JS_GetPropertyUint32</text>
</g>
<!-- Node182328 -->
<g id="node2" class="node">
<title>Node182328</title>
<g id="a_node2"><a xlink:href="quickjs_8c.html#a90d6e607f6917d817c1e997bd2e6ed07" target="_top" xlink:title="JS_GetPropertyValue">
<polygon fill="none" stroke="#000000" points="151,-135.8166 151,-154.8166 262,-154.8166 262,-135.8166 151,-135.8166"/>
<text text-anchor="middle" x="206.5" y="-142.8166" font-family="Helvetica,sans-Serif" font-size="10.00" fill="#000000">JS_GetPropertyValue</text>
</a>
</g>
</g>
<!-- Node182327&#45;&gt;Node182328 -->
<g id="edge1" class="edge">
<title>Node182327&#45;&gt;Node182328</title>
<path fill="none" stroke="#191970" d="M115.1073,-145.3166C123.3745,-145.3166 131.9347,-145.3166 140.3509,-145.3166"/>
<polygon fill="#191970" stroke="#191970" points="140.5161,-148.8167 150.5161,-145.3166 140.5161,-141.8167 140.5161,-148.8167"/>
</g>
<!-- Node182504 -->
<g id="node13" class="node">
<title>Node182504</title>
<g id="a_node13"><a xlink:href="quickjs_8h.html#a88259aa0da61ac754402c64ccecee116" target="_top" xlink:title="JS_NewUint32">
<polygon fill="none" stroke="#000000" points="303,-268.8166 303,-287.8166 386,-287.8166 386,-268.8166 303,-268.8166"/>
<text text-anchor="middle" x="344.5" y="-275.8166" font-family="Helvetica,sans-Serif" font-size="10.00" fill="#000000">JS_NewUint32</text>
</a>
</g>
</g>
<!-- Node182327&#45;&gt;Node182504 -->
<g id="edge20" class="edge">
<title>Node182327&#45;&gt;Node182504</title>
<path fill="none" stroke="#191970" d="M78.1403,-154.8817C128.1798,-178.0707 256.1314,-237.3653 314.5725,-264.4478"/>
<polygon fill="#191970" stroke="#191970" points="313.1163,-267.6305 323.6611,-268.6596 316.0596,-261.2793 313.1163,-267.6305"/>
</g>
<!-- Node182329 -->
<g id="node3" class="node">
<title>Node182329</title>
<g id="a_node3"><a xlink:href="quickjs_8h.html#a9bf98b18de88b4199910a43e933eb97d" target="_top" xlink:title="__JS_NewFloat64">
<polygon fill="none" stroke="#000000" points="438,-230.8166 438,-249.8166 535,-249.8166 535,-230.8166 438,-230.8166"/>
<text text-anchor="middle" x="486.5" y="-237.8166" font-family="Helvetica,sans-Serif" font-size="10.00" fill="#000000">__JS_NewFloat64</text>
</a>
</g>
</g>
<!-- Node182328&#45;&gt;Node182329 -->
<g id="edge2" class="edge">
<title>Node182328&#45;&gt;Node182329</title>
<path fill="none" stroke="#191970" d="M214.3935,-154.8429C228.9388,-171.6342 261.8126,-206.1536 298,-221.3166 338.9003,-238.4545 389.0036,-242.8108 427.2718,-243.095"/>
<polygon fill="#191970" stroke="#191970" points="427.7409,-246.5942 437.734,-243.0744 427.7271,-239.5942 427.7409,-246.5942"/>
</g>
<!-- Node182330 -->
<g id="node4" class="node">
<title>Node182330</title>
<g id="a_node4"><a xlink:href="quickjs_8h.html#a775522f2d084fc8fa0fcb33f390006b4" target="_top" xlink:title="JS_DupValue">
<polygon fill="none" stroke="#000000" points="582.5,-69.8166 582.5,-88.8166 659.5,-88.8166 659.5,-69.8166 582.5,-69.8166"/>
<text text-anchor="middle" x="621" y="-76.8166" font-family="Helvetica,sans-Serif" font-size="10.00" fill="#000000">JS_DupValue</text>
</a>
</g>
</g>
<!-- Node182328&#45;&gt;Node182330 -->
<g id="edge3" class="edge">
<title>Node182328&#45;&gt;Node182330</title>
<path fill="none" stroke="#191970" d="M262.4013,-136.4156C344.1395,-123.4006 494.9377,-99.3893 572.3502,-87.063"/>
<polygon fill="#191970" stroke="#191970" points="572.9953,-90.5045 582.3205,-85.4755 571.8945,-83.5916 572.9953,-90.5045"/>
</g>
<!-- Node182331 -->
<g id="node5" class="node">
<title>Node182331</title>
<g id="a_node5"><a xlink:href="quickjs_8c.html#ab7fc45a99935a1c0ba50b0216d9401a9" target="_top" xlink:title="JS_FreeAtom">
<polygon fill="none" stroke="#000000" points="306,-192.8166 306,-211.8166 383,-211.8166 383,-192.8166 306,-192.8166"/>
<text text-anchor="middle" x="344.5" y="-199.8166" font-family="Helvetica,sans-Serif" font-size="10.00" fill="#000000">JS_FreeAtom</text>
</a>
</g>
</g>
<!-- Node182328&#45;&gt;Node182331 -->
<g id="edge4" class="edge">
<title>Node182328&#45;&gt;Node182331</title>
<path fill="none" stroke="#191970" d="M229.4231,-154.8792C247.9211,-162.5856 274.6208,-173.6856 298,-183.3166 302.2887,-185.0834 306.8026,-186.9361 311.2629,-188.7629"/>
<polygon fill="#191970" stroke="#191970" points="310.2528,-192.1311 320.8335,-192.677 312.9026,-185.652 310.2528,-192.1311"/>
</g>
<!-- Node182337 -->
<g id="node8" class="node">
<title>Node182337</title>
<g id="a_node8"><a xlink:href="quickjs_8h.html#afaa20c47565bc704c6c85f3d77254e7d" target="_top" xlink:title="JS_FreeValue">
<polygon fill="none" stroke="#000000" points="582,-12.8166 582,-31.8166 660,-31.8166 660,-12.8166 582,-12.8166"/>
<text text-anchor="middle" x="621" y="-19.8166" font-family="Helvetica,sans-Serif" font-size="10.00" fill="#000000">JS_FreeValue</text>
</a>
</g>
</g>
<!-- Node182328&#45;&gt;Node182337 -->
<g id="edge7" class="edge">
<title>Node182328&#45;&gt;Node182337</title>
<path fill="none" stroke="#191970" d="M210.7092,-135.6288C221.3615,-112.492 251.8637,-54.2412 298,-31.3166 386.3401,12.5785 505.7164,.418 571.8123,-11.5007"/>
<polygon fill="#191970" stroke="#191970" points="571.4759,-14.9986 581.9499,-13.4028 572.7669,-8.1186 571.4759,-14.9986"/>
</g>
<!-- Node182367 -->
<g id="node10" class="node">
<title>Node182367</title>
<g id="a_node10"><a xlink:href="quickjs_8h.html#a89b7c8686c7eee70b86be722ee4730ad" target="_top" xlink:title="JS_GetProperty">
<polygon fill="none" stroke="#000000" points="301.5,-40.8166 301.5,-59.8166 387.5,-59.8166 387.5,-40.8166 301.5,-40.8166"/>
<text text-anchor="middle" x="344.5" y="-47.8166" font-family="Helvetica,sans-Serif" font-size="10.00" fill="#000000">JS_GetProperty</text>
</a>
</g>
</g>
<!-- Node182328&#45;&gt;Node182367 -->
<g id="edge9" class="edge">
<title>Node182328&#45;&gt;Node182367</title>
<path fill="none" stroke="#191970" d="M217.5602,-135.648C234.286,-121.2837 267.3248,-93.9001 298,-74.3166 303.1998,-70.997 308.9129,-67.7498 314.501,-64.7702"/>
<polygon fill="#191970" stroke="#191970" points="316.389,-67.7347 323.6749,-60.0427 313.1825,-61.5123 316.389,-67.7347"/>
</g>
<!-- Node182376 -->
<g id="node12" class="node">
<title>Node182376</title>
<g id="a_node12"><a xlink:href="quickjs_8h.html#a2050bc428da1c65ac7eb87c3fa3b0392" target="_top" xlink:title="JS_NewInt32">
<polygon fill="none" stroke="#000000" points="583,-116.8166 583,-135.8166 659,-135.8166 659,-116.8166 583,-116.8166"/>
<text text-anchor="middle" x="621" y="-123.8166" font-family="Helvetica,sans-Serif" font-size="10.00" fill="#000000">JS_NewInt32</text>
</a>
</g>
</g>
<!-- Node182328&#45;&gt;Node182376 -->
<g id="edge15" class="edge">
<title>Node182328&#45;&gt;Node182376</title>
<path fill="none" stroke="#191970" d="M262.4013,-142.7542C344.1837,-139.0054 495.101,-132.0876 572.4758,-128.5409"/>
<polygon fill="#191970" stroke="#191970" points="573.0616,-132.0178 582.8908,-128.0635 572.741,-125.0252 573.0616,-132.0178"/>
</g>
<!-- Node182328&#45;&gt;Node182504 -->
<g id="edge16" class="edge">
<title>Node182328&#45;&gt;Node182504</title>
<path fill="none" stroke="#191970" d="M212.5782,-154.8621C225.9508,-175.2694 259.7911,-223.7669 298,-254.3166 302.4347,-257.8624 307.4757,-261.1074 312.5625,-263.987"/>
<polygon fill="#191970" stroke="#191970" points="311.1672,-267.2076 321.6474,-268.762 314.4239,-261.0113 311.1672,-267.2076"/>
</g>
<!-- Node182559 -->
<g id="node14" class="node">
<title>Node182559</title>
<g id="a_node14"><a xlink:href="quickjs_8c.html#a859d5c989a2aaecef1653b3ac279e108" target="_top" xlink:title="JS_ValueToAtom">
<polygon fill="none" stroke="#ff0000" points="298,-154.8166 298,-173.8166 391,-173.8166 391,-154.8166 298,-154.8166"/>
<text text-anchor="middle" x="344.5" y="-161.8166" font-family="Helvetica,sans-Serif" font-size="10.00" fill="#000000">JS_ValueToAtom</text>
</a>
</g>
</g>
<!-- Node182328&#45;&gt;Node182559 -->
<g id="edge19" class="edge">
<title>Node182328&#45;&gt;Node182559</title>
<path fill="none" stroke="#191970" d="M262.2321,-152.9899C270.6348,-154.1468 279.3103,-155.3412 287.7344,-156.5011"/>
<polygon fill="#191970" stroke="#191970" points="287.4662,-159.9971 297.8502,-157.8938 288.421,-153.0625 287.4662,-159.9971"/>
</g>
<!-- Node182332 -->
<g id="node6" class="node">
<title>Node182332</title>
<g id="a_node6"><a xlink:href="quickjs_8c.html#a7f6796ee7a195631366f57c713a33f65" target="_top" xlink:title="__JS_AtomIsConst">
<polygon fill="none" stroke="#000000" points="435.5,-192.8166 435.5,-211.8166 537.5,-211.8166 537.5,-192.8166 435.5,-192.8166"/>
<text text-anchor="middle" x="486.5" y="-199.8166" font-family="Helvetica,sans-Serif" font-size="10.00" fill="#000000">__JS_AtomIsConst</text>
</a>
</g>
</g>
<!-- Node182331&#45;&gt;Node182332 -->
<g id="edge5" class="edge">
<title>Node182331&#45;&gt;Node182332</title>
<path fill="none" stroke="#191970" d="M383.3021,-202.3166C396.2534,-202.3166 411.0181,-202.3166 425.2501,-202.3166"/>
<polygon fill="#191970" stroke="#191970" points="425.4855,-205.8167 435.4855,-202.3166 425.4855,-198.8167 425.4855,-205.8167"/>
</g>
<!-- Node182333 -->
<g id="node7" class="node">
<title>Node182333</title>
<g id="a_node7"><a xlink:href="quickjs_8c.html#a0bbd9e3ecd55e3ea6c9d44bfda382095" target="_top" xlink:title="__JS_FreeAtom">
<polygon fill="none" stroke="#ff0000" points="443,-154.8166 443,-173.8166 530,-173.8166 530,-154.8166 443,-154.8166"/>
<text text-anchor="middle" x="486.5" y="-161.8166" font-family="Helvetica,sans-Serif" font-size="10.00" fill="#000000">__JS_FreeAtom</text>
</a>
</g>
</g>
<!-- Node182331&#45;&gt;Node182333 -->
<g id="edge6" class="edge">
<title>Node182331&#45;&gt;Node182333</title>
<path fill="none" stroke="#191970" d="M380.3326,-192.7276C398.6634,-187.8222 421.1784,-181.7971 440.7501,-176.5595"/>
<polygon fill="#191970" stroke="#191970" points="441.9236,-179.8688 450.6789,-173.9026 440.114,-173.1067 441.9236,-179.8688"/>
</g>
<!-- Node182338 -->
<g id="node9" class="node">
<title>Node182338</title>
<g id="a_node9"><a xlink:href="quickjs_8c.html#aa059f309c30fd5166d16c82a97973146" target="_top" xlink:title="__JS_FreeValue">
<polygon fill="none" stroke="#ff0000" points="696,-12.8166 696,-31.8166 785,-31.8166 785,-12.8166 696,-12.8166"/>
<text text-anchor="middle" x="740.5" y="-19.8166" font-family="Helvetica,sans-Serif" font-size="10.00" fill="#000000">__JS_FreeValue</text>
</a>
</g>
</g>
<!-- Node182337&#45;&gt;Node182338 -->
<g id="edge8" class="edge">
<title>Node182337&#45;&gt;Node182338</title>
<path fill="none" stroke="#191970" d="M660.1288,-22.3166C668.3481,-22.3166 677.1608,-22.3166 685.8298,-22.3166"/>
<polygon fill="#191970" stroke="#191970" points="685.8964,-25.8167 695.8964,-22.3166 685.8964,-18.8167 685.8964,-25.8167"/>
</g>
<!-- Node182368 -->
<g id="node11" class="node">
<title>Node182368</title>
<g id="a_node11"><a xlink:href="quickjs_8c.html#a5762c57ae0c9937e986040c01222833a" target="_top" xlink:title="JS_GetPropertyInternal">
<polygon fill="none" stroke="#ff0000" points="427,-40.8166 427,-59.8166 546,-59.8166 546,-40.8166 427,-40.8166"/>
<text text-anchor="middle" x="486.5" y="-47.8166" font-family="Helvetica,sans-Serif" font-size="10.00" fill="#000000">JS_GetPropertyInternal</text>
</a>
</g>
</g>
<!-- Node182367&#45;&gt;Node182368 -->
<g id="edge10" class="edge">
<title>Node182367&#45;&gt;Node182368</title>
<path fill="none" stroke="#191970" d="M387.8763,-50.3166C397.0169,-50.3166 406.8812,-50.3166 416.7145,-50.3166"/>
<polygon fill="#191970" stroke="#191970" points="416.9189,-53.8167 426.9189,-50.3166 416.9189,-46.8167 416.9189,-53.8167"/>
</g>
<!-- Node182368&#45;&gt;Node182327 -->
<g id="edge13" class="edge">
<title>Node182368&#45;&gt;Node182327</title>
<path fill="none" stroke="#191970" d="M453.7635,-40.7384C415.8604,-31.0887 351.7495,-19.2226 298,-31.3166 212.5036,-50.5539 121.6877,-103.8565 80.3589,-130.1918"/>
<polygon fill="#191970" stroke="#191970" points="78.3605,-127.3158 71.8547,-135.6779 82.1552,-133.1981 78.3605,-127.3158"/>
</g>
<!-- Node182368&#45;&gt;Node182330 -->
<g id="edge11" class="edge">
<title>Node182368&#45;&gt;Node182330</title>
<path fill="none" stroke="#191970" d="M530.9131,-59.8927C544.0836,-62.7324 558.5802,-65.8581 572.0228,-68.7565"/>
<polygon fill="#191970" stroke="#191970" points="571.5444,-72.2337 582.0575,-70.9201 573.0199,-65.391 571.5444,-72.2337"/>
</g>
<!-- Node182368&#45;&gt;Node182337 -->
<g id="edge12" class="edge">
<title>Node182368&#45;&gt;Node182337</title>
<path fill="none" stroke="#191970" d="M532.4111,-40.7589C545.0212,-38.1338 558.7481,-35.2761 571.548,-32.6115"/>
<polygon fill="#191970" stroke="#191970" points="572.4988,-35.9886 581.5756,-30.5239 571.0721,-29.1356 572.4988,-35.9886"/>
</g>
<!-- Node182368&#45;&gt;Node182376 -->
<g id="edge14" class="edge">
<title>Node182368&#45;&gt;Node182376</title>
<path fill="none" stroke="#191970" d="M503.5345,-59.9421C526.6775,-73.0192 568.2542,-96.5123 595.2265,-111.7532"/>
<polygon fill="#191970" stroke="#191970" points="593.6757,-114.897 604.1038,-116.7693 597.1194,-108.8026 593.6757,-114.897"/>
</g>
<!-- Node182504&#45;&gt;Node182329 -->
<g id="edge18" class="edge">
<title>Node182504&#45;&gt;Node182329</title>
<path fill="none" stroke="#191970" d="M380.3326,-268.7276C398.6634,-263.8222 421.1784,-257.7971 440.7501,-252.5595"/>
<polygon fill="#191970" stroke="#191970" points="441.9236,-255.8688 450.6789,-249.9026 440.114,-249.1067 441.9236,-255.8688"/>
</g>
<!-- Node182504&#45;&gt;Node182376 -->
<g id="edge17" class="edge">
<title>Node182504&#45;&gt;Node182376</title>
<path fill="none" stroke="#191970" d="M386.336,-285.0042C429.8236,-289.6787 498.104,-290.4014 546,-259.3166 586.7962,-232.8397 607.6389,-176.0016 616.1746,-145.9197"/>
<polygon fill="#191970" stroke="#191970" points="619.5841,-146.7173 618.7766,-136.1533 612.82,-144.9151 619.5841,-146.7173"/>
</g>
</g>
</svg>
