<?xml version="1.0" encoding="UTF-8" standalone="no"?>
<!DOCTYPE svg PUBLIC "-//W3C//DTD SVG 1.1//EN"
 "http://www.w3.org/Graphics/SVG/1.1/DTD/svg11.dtd">
<!-- Generated by graphviz version 2.40.1 (20161225.0304)
 -->
<!-- Title: js_reflect_has Pages: 1 -->
<svg width="907pt" height="225pt"
 viewBox="0.00 0.00 907.00 224.74" xmlns="http://www.w3.org/2000/svg" xmlns:xlink="http://www.w3.org/1999/xlink">
<g id="graph0" class="graph" transform="scale(1 1) rotate(0) translate(4 220.7422)">
<title>js_reflect_has</title>
<!-- Node418304 -->
<g id="node1" class="node">
<title>Node418304</title>
<polygon fill="#bfbfbf" stroke="#000000" points="0,-83.2422 0,-102.2422 77,-102.2422 77,-83.2422 0,-83.2422"/>
<text text-anchor="middle" x="38.5" y="-90.2422" font-family="Helvetica,sans-Serif" font-size="10.00" fill="#000000">js_reflect_has</text>
</g>
<!-- Node418305 -->
<g id="node2" class="node">
<title>Node418305</title>
<g id="a_node2"><a xlink:href="quickjs_8c.html#ab7fc45a99935a1c0ba50b0216d9401a9" target="_top" xlink:title="JS_FreeAtom">
<polygon fill="none" stroke="#000000" points="154.5,-159.2422 154.5,-178.2422 231.5,-178.2422 231.5,-159.2422 154.5,-159.2422"/>
<text text-anchor="middle" x="193" y="-166.2422" font-family="Helvetica,sans-Serif" font-size="10.00" fill="#000000">JS_FreeAtom</text>
</a>
</g>
</g>
<!-- Node418304&#45;&gt;Node418305 -->
<g id="edge1" class="edge">
<title>Node418304&#45;&gt;Node418305</title>
<path fill="none" stroke="#191970" d="M48.1929,-102.3619C61.6034,-115.1197 87.1061,-137.4524 113,-149.7422 122.773,-154.3807 133.7703,-157.9379 144.4106,-160.6476"/>
<polygon fill="#191970" stroke="#191970" points="143.917,-164.1265 154.4511,-162.9935 145.5097,-157.31 143.917,-164.1265"/>
</g>
<!-- Node418311 -->
<g id="node6" class="node">
<title>Node418311</title>
<g id="a_node6"><a xlink:href="quickjs_8c.html#a9d6d0a9704951d01c128975e0d2213f8" target="_top" xlink:title="JS_HasProperty">
<polygon fill="none" stroke="#000000" points="148.5,-121.2422 148.5,-140.2422 237.5,-140.2422 237.5,-121.2422 148.5,-121.2422"/>
<text text-anchor="middle" x="193" y="-128.2422" font-family="Helvetica,sans-Serif" font-size="10.00" fill="#000000">JS_HasProperty</text>
</a>
</g>
</g>
<!-- Node418304&#45;&gt;Node418311 -->
<g id="edge5" class="edge">
<title>Node418304&#45;&gt;Node418311</title>
<path fill="none" stroke="#191970" d="M75.6064,-102.3341C87.5361,-105.3835 100.8168,-108.7421 113,-111.7422 122.4646,-114.0728 132.5716,-116.5119 142.3051,-118.8357"/>
<polygon fill="#191970" stroke="#191970" points="141.732,-122.297 152.2705,-121.2063 143.352,-115.487 141.732,-122.297"/>
</g>
<!-- Node418687 -->
<g id="node13" class="node">
<title>Node418687</title>
<g id="a_node13"><a xlink:href="quickjs_8h.html#a93abffa925714e249a6aa2f4ae7900f6" target="_top" xlink:title="JS_NewBool">
<polygon fill="none" stroke="#000000" points="156,-83.2422 156,-102.2422 230,-102.2422 230,-83.2422 156,-83.2422"/>
<text text-anchor="middle" x="193" y="-90.2422" font-family="Helvetica,sans-Serif" font-size="10.00" fill="#000000">JS_NewBool</text>
</a>
</g>
</g>
<!-- Node418304&#45;&gt;Node418687 -->
<g id="edge15" class="edge">
<title>Node418304&#45;&gt;Node418687</title>
<path fill="none" stroke="#191970" d="M77.0883,-92.7422C97.9212,-92.7422 123.8085,-92.7422 145.8306,-92.7422"/>
<polygon fill="#191970" stroke="#191970" points="145.9673,-96.2423 155.9673,-92.7422 145.9673,-89.2423 145.9673,-96.2423"/>
</g>
<!-- Node418540 -->
<g id="node14" class="node">
<title>Node418540</title>
<g id="a_node14"><a xlink:href="quickjs_8c.html#a726b00d108e0a0f4d958c36c2e426a64" target="_top" xlink:title="JS_ThrowTypeErrorNotAnObject">
<polygon fill="none" stroke="#000000" points="113,-45.2422 113,-64.2422 273,-64.2422 273,-45.2422 113,-45.2422"/>
<text text-anchor="middle" x="193" y="-52.2422" font-family="Helvetica,sans-Serif" font-size="10.00" fill="#000000">JS_ThrowTypeErrorNotAnObject</text>
</a>
</g>
</g>
<!-- Node418304&#45;&gt;Node418540 -->
<g id="edge16" class="edge">
<title>Node418304&#45;&gt;Node418540</title>
<path fill="none" stroke="#191970" d="M75.6064,-83.1502C87.5361,-80.1009 100.8168,-76.7423 113,-73.7422 122.4646,-71.4115 132.5716,-68.9725 142.3051,-66.6487"/>
<polygon fill="#191970" stroke="#191970" points="143.352,-69.9974 152.2705,-64.2781 141.732,-63.1874 143.352,-69.9974"/>
</g>
<!-- Node418536 -->
<g id="node15" class="node">
<title>Node418536</title>
<g id="a_node15"><a xlink:href="quickjs_8c.html#a859d5c989a2aaecef1653b3ac279e108" target="_top" xlink:title="JS_ValueToAtom">
<polygon fill="none" stroke="#ff0000" points="500.5,-7.2422 500.5,-26.2422 593.5,-26.2422 593.5,-7.2422 500.5,-7.2422"/>
<text text-anchor="middle" x="547" y="-14.2422" font-family="Helvetica,sans-Serif" font-size="10.00" fill="#000000">JS_ValueToAtom</text>
</a>
</g>
</g>
<!-- Node418304&#45;&gt;Node418536 -->
<g id="edge17" class="edge">
<title>Node418304&#45;&gt;Node418536</title>
<path fill="none" stroke="#191970" d="M47.4458,-82.8484C60.3791,-69.3304 85.7537,-45.6392 113,-35.7422 241.4035,10.8994 405.3808,1.0494 490.3053,-8.7003"/>
<polygon fill="#191970" stroke="#191970" points="489.9188,-12.1789 500.2623,-9.885 490.7459,-5.2279 489.9188,-12.1789"/>
</g>
<!-- Node418306 -->
<g id="node3" class="node">
<title>Node418306</title>
<g id="a_node3"><a xlink:href="quickjs_8c.html#a7f6796ee7a195631366f57c713a33f65" target="_top" xlink:title="__JS_AtomIsConst">
<polygon fill="none" stroke="#000000" points="327.5,-197.2422 327.5,-216.2422 429.5,-216.2422 429.5,-197.2422 327.5,-197.2422"/>
<text text-anchor="middle" x="378.5" y="-204.2422" font-family="Helvetica,sans-Serif" font-size="10.00" fill="#000000">__JS_AtomIsConst</text>
</a>
</g>
</g>
<!-- Node418305&#45;&gt;Node418306 -->
<g id="edge2" class="edge">
<title>Node418305&#45;&gt;Node418306</title>
<path fill="none" stroke="#191970" d="M231.8869,-176.7082C258.0213,-182.0619 292.8872,-189.2043 322.0613,-195.1806"/>
<polygon fill="#191970" stroke="#191970" points="321.6206,-198.6629 332.1196,-197.2411 323.0254,-191.8054 321.6206,-198.6629"/>
</g>
<!-- Node418307 -->
<g id="node4" class="node">
<title>Node418307</title>
<g id="a_node4"><a xlink:href="quickjs_8c.html#a0bbd9e3ecd55e3ea6c9d44bfda382095" target="_top" xlink:title="__JS_FreeAtom">
<polygon fill="none" stroke="#000000" points="335,-159.2422 335,-178.2422 422,-178.2422 422,-159.2422 335,-159.2422"/>
<text text-anchor="middle" x="378.5" y="-166.2422" font-family="Helvetica,sans-Serif" font-size="10.00" fill="#000000">__JS_FreeAtom</text>
</a>
</g>
</g>
<!-- Node418305&#45;&gt;Node418307 -->
<g id="edge3" class="edge">
<title>Node418305&#45;&gt;Node418307</title>
<path fill="none" stroke="#191970" d="M231.8869,-168.7422C258.7816,-168.7422 294.9232,-168.7422 324.5926,-168.7422"/>
<polygon fill="#191970" stroke="#191970" points="324.7914,-172.2423 334.7914,-168.7422 324.7914,-165.2423 324.7914,-172.2423"/>
</g>
<!-- Node418308 -->
<g id="node5" class="node">
<title>Node418308</title>
<g id="a_node5"><a xlink:href="quickjs_8c.html#a58c8965dad50b15b75918a09f3d9dc7c" target="_top" xlink:title="JS_FreeAtomStruct">
<polygon fill="none" stroke="#ff0000" points="495.5,-159.2422 495.5,-178.2422 598.5,-178.2422 598.5,-159.2422 495.5,-159.2422"/>
<text text-anchor="middle" x="547" y="-166.2422" font-family="Helvetica,sans-Serif" font-size="10.00" fill="#000000">JS_FreeAtomStruct</text>
</a>
</g>
</g>
<!-- Node418307&#45;&gt;Node418308 -->
<g id="edge4" class="edge">
<title>Node418307&#45;&gt;Node418308</title>
<path fill="none" stroke="#191970" d="M422.3315,-168.7422C441.5214,-168.7422 464.3778,-168.7422 485.247,-168.7422"/>
<polygon fill="#191970" stroke="#191970" points="485.3074,-172.2423 495.3074,-168.7422 485.3074,-165.2423 485.3074,-172.2423"/>
</g>
<!-- Node418312 -->
<g id="node7" class="node">
<title>Node418312</title>
<g id="a_node7"><a xlink:href="quickjs_8c.html#add3eea1f6d626963ade3c28a1fd563d1" target="_top" xlink:title="JS_AtomIsNumericIndex">
<polygon fill="none" stroke="#000000" points="484,-102.2422 484,-121.2422 610,-121.2422 610,-102.2422 484,-102.2422"/>
<text text-anchor="middle" x="547" y="-109.2422" font-family="Helvetica,sans-Serif" font-size="10.00" fill="#000000">JS_AtomIsNumericIndex</text>
</a>
</g>
</g>
<!-- Node418311&#45;&gt;Node418312 -->
<g id="edge6" class="edge">
<title>Node418311&#45;&gt;Node418312</title>
<path fill="none" stroke="#191970" d="M237.8343,-128.3358C297.1501,-125.1522 402.4736,-119.4993 473.5074,-115.6867"/>
<polygon fill="#191970" stroke="#191970" points="473.9314,-119.1691 483.7294,-115.1381 473.5562,-112.1791 473.9314,-119.1691"/>
</g>
<!-- Node418622 -->
<g id="node12" class="node">
<title>Node418622</title>
<g id="a_node12"><a xlink:href="quickjs_8c.html#ad13892c0a0f11781b566808876658099" target="_top" xlink:title="JS_GetOwnPropertyInternal">
<polygon fill="none" stroke="#ff0000" points="309,-83.2422 309,-102.2422 448,-102.2422 448,-83.2422 309,-83.2422"/>
<text text-anchor="middle" x="378.5" y="-90.2422" font-family="Helvetica,sans-Serif" font-size="10.00" fill="#000000">JS_GetOwnPropertyInternal</text>
</a>
</g>
</g>
<!-- Node418311&#45;&gt;Node418622 -->
<g id="edge13" class="edge">
<title>Node418311&#45;&gt;Node418622</title>
<path fill="none" stroke="#191970" d="M237.9044,-121.5434C263.1953,-116.3626 295.022,-109.8428 321.9955,-104.3172"/>
<polygon fill="#191970" stroke="#191970" points="322.9778,-107.6888 332.0719,-102.2531 321.573,-100.8312 322.9778,-107.6888"/>
</g>
<!-- Node418313 -->
<g id="node8" class="node">
<title>Node418313</title>
<g id="a_node8"><a xlink:href="quickjs_8c.html#ab4e100a9cde5f7ec87c92f5e766dbbab" target="_top" xlink:title="JS_AtomIsNumericIndex1">
<polygon fill="none" stroke="#ff0000" points="646,-121.2422 646,-140.2422 777,-140.2422 777,-121.2422 646,-121.2422"/>
<text text-anchor="middle" x="711.5" y="-128.2422" font-family="Helvetica,sans-Serif" font-size="10.00" fill="#000000">JS_AtomIsNumericIndex1</text>
</a>
</g>
</g>
<!-- Node418312&#45;&gt;Node418313 -->
<g id="edge7" class="edge">
<title>Node418312&#45;&gt;Node418313</title>
<path fill="none" stroke="#191970" d="M610.1295,-119.0337C618.5303,-120.004 627.2129,-121.0069 635.7996,-121.9987"/>
<polygon fill="#191970" stroke="#191970" points="635.4774,-125.4846 645.813,-123.1552 636.2807,-118.5309 635.4774,-125.4846"/>
</g>
<!-- Node418318 -->
<g id="node9" class="node">
<title>Node418318</title>
<g id="a_node9"><a xlink:href="quickjs_8h.html#afaa20c47565bc704c6c85f3d77254e7d" target="_top" xlink:title="JS_FreeValue">
<polygon fill="none" stroke="#ff0000" points="817,-140.2422 817,-159.2422 895,-159.2422 895,-140.2422 817,-140.2422"/>
<text text-anchor="middle" x="856" y="-147.2422" font-family="Helvetica,sans-Serif" font-size="10.00" fill="#000000">JS_FreeValue</text>
</a>
</g>
</g>
<!-- Node418312&#45;&gt;Node418318 -->
<g id="edge10" class="edge">
<title>Node418312&#45;&gt;Node418318</title>
<path fill="none" stroke="#191970" d="M565.7412,-121.3259C585.2129,-130.7036 616.8559,-144.341 646,-149.7422 700.3124,-159.8078 763.8922,-157.9592 806.7465,-154.7731"/>
<polygon fill="#191970" stroke="#191970" points="807.2169,-158.2468 816.9074,-153.9637 806.661,-151.2689 807.2169,-158.2468"/>
</g>
<!-- Node418348 -->
<g id="node10" class="node">
<title>Node418348</title>
<g id="a_node10"><a xlink:href="quickjs_8h.html#ad80a83d73e9b7d872b88fbf2943aebe9" target="_top" xlink:title="JS_IsException">
<polygon fill="none" stroke="#000000" points="813,-83.2422 813,-102.2422 899,-102.2422 899,-83.2422 813,-83.2422"/>
<text text-anchor="middle" x="856" y="-90.2422" font-family="Helvetica,sans-Serif" font-size="10.00" fill="#000000">JS_IsException</text>
</a>
</g>
</g>
<!-- Node418312&#45;&gt;Node418348 -->
<g id="edge11" class="edge">
<title>Node418312&#45;&gt;Node418348</title>
<path fill="none" stroke="#191970" d="M610.2764,-107.8514C666.888,-104.3704 748.958,-99.3241 802.4008,-96.0379"/>
<polygon fill="#191970" stroke="#191970" points="802.9254,-99.5124 812.6917,-95.4052 802.4957,-92.5256 802.9254,-99.5124"/>
</g>
<!-- Node418496 -->
<g id="node11" class="node">
<title>Node418496</title>
<g id="a_node11"><a xlink:href="quickjs_8h.html#a4e407128a9605afb77523e49e9a627fd" target="_top" xlink:title="JS_IsUndefined">
<polygon fill="none" stroke="#000000" points="668.5,-45.2422 668.5,-64.2422 754.5,-64.2422 754.5,-45.2422 668.5,-45.2422"/>
<text text-anchor="middle" x="711.5" y="-52.2422" font-family="Helvetica,sans-Serif" font-size="10.00" fill="#000000">JS_IsUndefined</text>
</a>
</g>
</g>
<!-- Node418312&#45;&gt;Node418496 -->
<g id="edge12" class="edge">
<title>Node418312&#45;&gt;Node418496</title>
<path fill="none" stroke="#191970" d="M574.5336,-102.2017C601.8153,-92.7484 643.7959,-78.202 674.0893,-67.7052"/>
<polygon fill="#191970" stroke="#191970" points="675.5737,-70.8951 683.8766,-64.3138 673.2818,-64.2809 675.5737,-70.8951"/>
</g>
<!-- Node418313&#45;&gt;Node418318 -->
<g id="edge8" class="edge">
<title>Node418313&#45;&gt;Node418318</title>
<path fill="none" stroke="#191970" d="M777.4072,-139.4082C787.2465,-140.7019 797.2439,-142.0165 806.6619,-143.2548"/>
<polygon fill="#191970" stroke="#191970" points="806.2482,-146.7305 816.6192,-144.5641 807.1608,-139.7902 806.2482,-146.7305"/>
</g>
<!-- Node418313&#45;&gt;Node418348 -->
<g id="edge9" class="edge">
<title>Node418313&#45;&gt;Node418348</title>
<path fill="none" stroke="#191970" d="M747.9635,-121.1532C766.7741,-116.2064 789.9146,-110.1211 809.9472,-104.853"/>
<polygon fill="#191970" stroke="#191970" points="811.0177,-108.1905 819.7988,-102.2622 809.2374,-101.4207 811.0177,-108.1905"/>
</g>
<!-- Node418622&#45;&gt;Node418312 -->
<g id="edge14" class="edge">
<title>Node418622&#45;&gt;Node418312</title>
<path fill="none" stroke="#191970" d="M448.0082,-100.5799C456.5439,-101.5424 465.288,-102.5284 473.8752,-103.4967"/>
<polygon fill="#191970" stroke="#191970" points="473.5325,-106.9801 483.8617,-104.6227 474.3169,-100.0242 473.5325,-106.9801"/>
</g>
<!-- Node418536&#45;&gt;Node418348 -->
<g id="edge18" class="edge">
<title>Node418536&#45;&gt;Node418348</title>
<path fill="none" stroke="#191970" d="M593.5126,-13.4184C641.1173,-11.6432 716.4865,-13.3974 777,-35.7422 800.8281,-44.5408 823.8881,-62.634 838.88,-76.0877"/>
<polygon fill="#191970" stroke="#191970" points="836.6194,-78.7646 846.3325,-82.9963 841.3782,-73.6311 836.6194,-78.7646"/>
</g>
</g>
</svg>
