<?xml version="1.0" encoding="UTF-8" standalone="no"?>
<!DOCTYPE svg PUBLIC "-//W3C//DTD SVG 1.1//EN"
 "http://www.w3.org/Graphics/SVG/1.1/DTD/svg11.dtd">
<!-- Generated by graphviz version 2.40.1 (20161225.0304)
 -->
<!-- Title: js_string_compare Pages: 1 -->
<!--zoomable 579 -->
<svg id="main" version="1.1" xmlns="http://www.w3.org/2000/svg" xmlns:xlink="http://www.w3.org/1999/xlink" xml:space="preserve" onload="init(evt)">
<style type="text/css"><![CDATA[
.edge:hover path { stroke: red; }
.edge:hover polygon { stroke: red; fill: red; }
]]></style>
<script type="text/javascript"><![CDATA[
var edges = document.getElementsByTagName('g');
if (edges && edges.length) {
  for (var i=0;i<edges.length;i++) {
    if (edges[i].id.substr(0,4)=='edge') {
      edges[i].setAttribute('class','edge');
    }
  }
}
]]></script>
        <defs>
                <circle id="rim" cx="0" cy="0" r="7"/>
                <circle id="rim2" cx="0" cy="0" r="3.5"/>
                <g id="zoomPlus">
                        <use xlink:href="#rim" fill="#404040">
                                <set attributeName="fill" to="#808080" begin="zoomplus.mouseover" end="zoomplus.mouseout"/>
                        </use>
                        <path d="M-4,0h8M0,-4v8" fill="none" stroke="white" stroke-width="1.5" pointer-events="none"/>
                </g>
                <g id="zoomMin">
                        <use xlink:href="#rim" fill="#404040">
                                <set attributeName="fill" to="#808080" begin="zoomminus.mouseover" end="zoomminus.mouseout"/>
                        </use>
                        <path d="M-4,0h8" fill="none" stroke="white" stroke-width="1.5" pointer-events="none"/>
                </g>
                <g id="dirArrow">
                        <path fill="none" stroke="white" stroke-width="1.5" d="M0,-3.0v7 M-2.5,-0.5L0,-3.0L2.5,-0.5"/>
                </g>
               <g id="resetDef">
                       <use xlink:href="#rim2" fill="#404040">
                               <set attributeName="fill" to="#808080" begin="reset.mouseover" end="reset.mouseout"/>
                       </use>
               </g>
        </defs>

<script type="text/javascript">
var viewWidth = 1040;
var viewHeight = 579;
var sectionId = 'dynsection-83';
</script>
<script xlink:href="svgpan.js"/>
<svg id="graph" class="graph">
<g id="viewport">
<title>js_string_compare</title>
<!-- Node29673 -->
<g id="node1" class="node">
<title>Node29673</title>
<polygon fill="#bfbfbf" stroke="#000000" points="0,-354 0,-373 96,-373 96,-354 0,-354"/>
<text text-anchor="middle" x="48" y="-361" font-family="Helvetica,sans-Serif" font-size="10.00" fill="#000000">js_string_compare</text>
</g>
<!-- Node29674 -->
<g id="node2" class="node">
<title>Node29674</title>
<g id="a_node2"><a xlink:href="quickjs_8c.html#a341f4d5925a607eeaad8d3cbb03e9de1" target="_top" xlink:title="js_array_cmp_generic">
<polygon fill="none" stroke="#000000" points="141.5,-449 141.5,-468 253.5,-468 253.5,-449 141.5,-449"/>
<text text-anchor="middle" x="197.5" y="-456" font-family="Helvetica,sans-Serif" font-size="10.00" fill="#000000">js_array_cmp_generic</text>
</a>
</g>
</g>
<!-- Node29673&#45;&gt;Node29674 -->
<g id="edge1" class="edge">
<title>Node29673&#45;&gt;Node29674</title>
<path fill="none" stroke="#191970" d="M70.0236,-379.0691C86.8055,-390.7791 110.5948,-407.0517 132,-420.5 148.1413,-430.6411 167.011,-441.4853 180.3399,-448.9826"/>
<polygon fill="#191970" stroke="#191970" points="71.6783,-375.9547 61.481,-373.0798 67.6598,-381.6864 71.6783,-375.9547"/>
</g>
<!-- Node29676 -->
<g id="node4" class="node">
<title>Node29676</title>
<g id="a_node4"><a xlink:href="quickjs_8c.html#ab4e100a9cde5f7ec87c92f5e766dbbab" target="_top" xlink:title="JS_AtomIsNumericIndex1">
<polygon fill="none" stroke="#000000" points="132,-392 132,-411 263,-411 263,-392 132,-392"/>
<text text-anchor="middle" x="197.5" y="-399" font-family="Helvetica,sans-Serif" font-size="10.00" fill="#000000">JS_AtomIsNumericIndex1</text>
</a>
</g>
</g>
<!-- Node29673&#45;&gt;Node29676 -->
<g id="edge3" class="edge">
<title>Node29673&#45;&gt;Node29676</title>
<path fill="none" stroke="#191970" d="M95.6516,-375.6121C116.4726,-380.9044 140.5377,-387.0213 160.0461,-391.9799"/>
<polygon fill="#191970" stroke="#191970" points="96.2792,-372.1604 85.7252,-373.089 94.5547,-378.9447 96.2792,-372.1604"/>
</g>
<!-- Node30095 -->
<g id="node14" class="node">
<title>Node30095</title>
<g id="a_node14"><a xlink:href="quickjs_8c.html#ad48277f7656d161f492b5f1ff5d8c388" target="_top" xlink:title="js_relational_slow">
<polygon fill="none" stroke="#000000" points="150.5,-354 150.5,-373 244.5,-373 244.5,-354 150.5,-354"/>
<text text-anchor="middle" x="197.5" y="-361" font-family="Helvetica,sans-Serif" font-size="10.00" fill="#000000">js_relational_slow</text>
</a>
</g>
</g>
<!-- Node29673&#45;&gt;Node30095 -->
<g id="edge22" class="edge">
<title>Node29673&#45;&gt;Node30095</title>
<path fill="none" stroke="#191970" d="M106.5487,-363.5C121.1187,-363.5 136.5514,-363.5 150.4858,-363.5"/>
<polygon fill="#191970" stroke="#191970" points="106.1257,-360.0001 96.1257,-363.5 106.1256,-367.0001 106.1257,-360.0001"/>
</g>
<!-- Node30259 -->
<g id="node15" class="node">
<title>Node30259</title>
<g id="a_node15"><a xlink:href="quickjs_8c.html#a6b7e8c810c238daa5ac20c70c2f22b24" target="_top" xlink:title="js_strict_eq2">
<polygon fill="none" stroke="#000000" points="326,-221 326,-240 398,-240 398,-221 326,-221"/>
<text text-anchor="middle" x="362" y="-228" font-family="Helvetica,sans-Serif" font-size="10.00" fill="#000000">js_strict_eq2</text>
</a>
</g>
</g>
<!-- Node29673&#45;&gt;Node30259 -->
<g id="edge23" class="edge">
<title>Node29673&#45;&gt;Node30259</title>
<path fill="none" stroke="#191970" d="M97.3925,-351.4946C156.1165,-337.0511 248.0946,-313.8281 263,-306.5 299.3623,-288.6229 335.4264,-256.3107 352.2256,-240.1911"/>
<polygon fill="#191970" stroke="#191970" points="96.4337,-348.126 87.556,-353.9084 98.102,-354.9243 96.4337,-348.126"/>
</g>
<!-- Node30218 -->
<g id="node30" class="node">
<title>Node30218</title>
<g id="a_node30"><a xlink:href="quickjs_8c.html#a96177f318d170980abe8c9c41cdb52d5" target="_top" xlink:title="js_string_localeCompare">
<polygon fill="none" stroke="#000000" points="135.5,-278 135.5,-297 259.5,-297 259.5,-278 135.5,-278"/>
<text text-anchor="middle" x="197.5" y="-285" font-family="Helvetica,sans-Serif" font-size="10.00" fill="#000000">js_string_localeCompare</text>
</a>
</g>
</g>
<!-- Node29673&#45;&gt;Node30218 -->
<g id="edge41" class="edge">
<title>Node29673&#45;&gt;Node30218</title>
<path fill="none" stroke="#191970" d="M69.9005,-348.2259C86.4532,-337.1123 110.0073,-322.1988 132,-311.5 143.3262,-305.9902 156.2599,-300.9961 167.6258,-297.0081"/>
<polygon fill="#191970" stroke="#191970" points="67.7763,-345.4379 61.4793,-353.9583 71.7153,-351.2245 67.7763,-345.4379"/>
</g>
<!-- Node29675 -->
<g id="node3" class="node">
<title>Node29675</title>
<g id="a_node3"><a xlink:href="quickjs_8c.html#a874518d6b2fb6ff79531c4a9652202f3" target="_top" xlink:title="js_array_sort">
<polygon fill="none" stroke="#000000" points="325.5,-468 325.5,-487 398.5,-487 398.5,-468 325.5,-468"/>
<text text-anchor="middle" x="362" y="-475" font-family="Helvetica,sans-Serif" font-size="10.00" fill="#000000">js_array_sort</text>
</a>
</g>
</g>
<!-- Node29674&#45;&gt;Node29675 -->
<g id="edge2" class="edge">
<title>Node29674&#45;&gt;Node29675</title>
<path fill="none" stroke="#191970" d="M263.7904,-466.1566C284.7296,-468.5751 307.1039,-471.1594 325.1998,-473.2495"/>
<polygon fill="#191970" stroke="#191970" points="263.9871,-462.6562 253.6515,-464.9856 263.1838,-469.6099 263.9871,-462.6562"/>
</g>
<!-- Node29677 -->
<g id="node5" class="node">
<title>Node29677</title>
<g id="a_node5"><a xlink:href="quickjs_8c.html#add3eea1f6d626963ade3c28a1fd563d1" target="_top" xlink:title="JS_AtomIsNumericIndex">
<polygon fill="none" stroke="#000000" points="299,-430 299,-449 425,-449 425,-430 299,-430"/>
<text text-anchor="middle" x="362" y="-437" font-family="Helvetica,sans-Serif" font-size="10.00" fill="#000000">JS_AtomIsNumericIndex</text>
</a>
</g>
</g>
<!-- Node29676&#45;&gt;Node29677 -->
<g id="edge4" class="edge">
<title>Node29676&#45;&gt;Node29677</title>
<path fill="none" stroke="#191970" d="M248.9975,-413.3961C272.1197,-418.7374 299.0297,-424.9537 320.7882,-429.9799"/>
<polygon fill="#191970" stroke="#191970" points="249.5415,-409.9296 239.0103,-411.089 247.9659,-416.75 249.5415,-409.9296"/>
</g>
<!-- Node29820 -->
<g id="node13" class="node">
<title>Node29820</title>
<g id="a_node13"><a xlink:href="quickjs_8c.html#ab50618f1bf78e444caa6da0e3e2785d7" target="_top" xlink:title="JS_DefineProperty">
<polygon fill="none" stroke="#ff0000" points="647.5,-354 647.5,-373 746.5,-373 746.5,-354 647.5,-354"/>
<text text-anchor="middle" x="697" y="-361" font-family="Helvetica,sans-Serif" font-size="10.00" fill="#000000">JS_DefineProperty</text>
</a>
</g>
</g>
<!-- Node29676&#45;&gt;Node29820 -->
<g id="edge21" class="edge">
<title>Node29676&#45;&gt;Node29820</title>
<path fill="none" stroke="#191970" d="M273.1222,-395.747C376.5776,-387.8765 559.384,-373.9693 647.1907,-367.2893"/>
<polygon fill="#191970" stroke="#191970" points="272.7632,-392.2641 263.0575,-396.5126 273.2942,-399.2439 272.7632,-392.2641"/>
</g>
<!-- Node29678 -->
<g id="node6" class="node">
<title>Node29678</title>
<g id="a_node6"><a xlink:href="quickjs_8c.html#a5762c57ae0c9937e986040c01222833a" target="_top" xlink:title="JS_GetPropertyInternal">
<polygon fill="none" stroke="#ff0000" points="794,-531 794,-550 913,-550 913,-531 794,-531"/>
<text text-anchor="middle" x="853.5" y="-538" font-family="Helvetica,sans-Serif" font-size="10.00" fill="#000000">JS_GetPropertyInternal</text>
</a>
</g>
</g>
<!-- Node29677&#45;&gt;Node29678 -->
<g id="edge5" class="edge">
<title>Node29677&#45;&gt;Node29678</title>
<path fill="none" stroke="#191970" d="M417.8061,-453.538C420.3388,-455.0284 422.7554,-456.6768 425,-458.5 450.9353,-479.5666 432.7664,-506.6308 461,-524.5 573.9487,-595.986 744.021,-567.388 817.5379,-550.0558"/>
<polygon fill="#191970" stroke="#191970" points="419.3393,-450.3916 408.8291,-449.0555 416.2121,-456.6542 419.3393,-450.3916"/>
</g>
<!-- Node29929 -->
<g id="node8" class="node">
<title>Node29929</title>
<g id="a_node8"><a xlink:href="quickjs_8c.html#ad13892c0a0f11781b566808876658099" target="_top" xlink:title="JS_GetOwnPropertyInternal">
<polygon fill="none" stroke="#ff0000" points="461,-468 461,-487 600,-487 600,-468 461,-468"/>
<text text-anchor="middle" x="530.5" y="-475" font-family="Helvetica,sans-Serif" font-size="10.00" fill="#000000">JS_GetOwnPropertyInternal</text>
</a>
</g>
</g>
<!-- Node29677&#45;&gt;Node29929 -->
<g id="edge8" class="edge">
<title>Node29677&#45;&gt;Node29929</title>
<path fill="none" stroke="#191970" d="M414.4313,-451.3243C438.1868,-456.6816 465.8986,-462.9311 488.2861,-467.9799"/>
<polygon fill="#191970" stroke="#191970" points="415.0447,-447.8748 404.5197,-449.089 413.5047,-454.7033 415.0447,-447.8748"/>
</g>
<!-- Node29940 -->
<g id="node9" class="node">
<title>Node29940</title>
<g id="a_node9"><a xlink:href="quickjs_8c.html#a9d6d0a9704951d01c128975e0d2213f8" target="_top" xlink:title="JS_HasProperty">
<polygon fill="none" stroke="#ff0000" points="652.5,-506 652.5,-525 741.5,-525 741.5,-506 652.5,-506"/>
<text text-anchor="middle" x="697" y="-513" font-family="Helvetica,sans-Serif" font-size="10.00" fill="#000000">JS_HasProperty</text>
</a>
</g>
</g>
<!-- Node29677&#45;&gt;Node29940 -->
<g id="edge12" class="edge">
<title>Node29677&#45;&gt;Node29940</title>
<path fill="none" stroke="#191970" d="M414.1805,-452.8388C417.9466,-454.5208 421.5968,-456.401 425,-458.5 444.801,-470.7129 440.0151,-486.4567 461,-496.5 522.3628,-525.8679 603.0197,-525.2049 652.378,-521.066"/>
<polygon fill="#191970" stroke="#191970" points="415.2407,-449.4939 404.655,-449.0543 412.6561,-455.9993 415.2407,-449.4939"/>
</g>
<!-- Node29791 -->
<g id="node11" class="node">
<title>Node29791</title>
<g id="a_node11"><a xlink:href="quickjs_8c.html#ad7f03358a8088ca920ab308225c6b2e6" target="_top" xlink:title="JS_SetPropertyInternal">
<polygon fill="none" stroke="#ff0000" points="794.5,-417 794.5,-436 912.5,-436 912.5,-417 794.5,-417"/>
<text text-anchor="middle" x="853.5" y="-424" font-family="Helvetica,sans-Serif" font-size="10.00" fill="#000000">JS_SetPropertyInternal</text>
</a>
</g>
</g>
<!-- Node29677&#45;&gt;Node29791 -->
<g id="edge13" class="edge">
<title>Node29677&#45;&gt;Node29791</title>
<path fill="none" stroke="#191970" d="M435.3483,-437.56C533.1369,-434.9735 704.3147,-430.4459 794.3301,-428.065"/>
<polygon fill="#191970" stroke="#191970" points="435.1528,-434.0638 425.2488,-437.8271 435.3379,-441.0614 435.1528,-434.0638"/>
</g>
<!-- Node29852 -->
<g id="node12" class="node">
<title>Node29852</title>
<g id="a_node12"><a xlink:href="quickjs_8c.html#ad5565bb5cfd5321f181573257f3b0c91" target="_top" xlink:title="JS_CreateProperty">
<polygon fill="none" stroke="#ff0000" points="480.5,-392 480.5,-411 580.5,-411 580.5,-392 480.5,-392"/>
<text text-anchor="middle" x="530.5" y="-399" font-family="Helvetica,sans-Serif" font-size="10.00" fill="#000000">JS_CreateProperty</text>
</a>
</g>
</g>
<!-- Node29677&#45;&gt;Node29852 -->
<g id="edge15" class="edge">
<title>Node29677&#45;&gt;Node29852</title>
<path fill="none" stroke="#191970" d="M414.4313,-427.6757C438.1868,-422.3184 465.8986,-416.0689 488.2861,-411.0201"/>
<polygon fill="#191970" stroke="#191970" points="413.5047,-424.2967 404.5197,-429.911 415.0447,-431.1252 413.5047,-424.2967"/>
</g>
<!-- Node29685 -->
<g id="node7" class="node">
<title>Node29685</title>
<g id="a_node7"><a xlink:href="quickjs_8c.html#ac2894ff4edcdb4e6841bcce9c76081e3" target="_top" xlink:title="JS_CallInternal">
<polygon fill="none" stroke="#ff0000" points="949,-417 949,-436 1032,-436 1032,-417 949,-417"/>
<text text-anchor="middle" x="990.5" y="-424" font-family="Helvetica,sans-Serif" font-size="10.00" fill="#000000">JS_CallInternal</text>
</a>
</g>
</g>
<!-- Node29678&#45;&gt;Node29685 -->
<g id="edge6" class="edge">
<title>Node29678&#45;&gt;Node29685</title>
<path fill="none" stroke="#191970" d="M879.9806,-525.7845C890.608,-519.4374 902.7434,-511.6132 913,-503.5 940.3708,-481.8489 968.4327,-451.543 982.0524,-436.2085"/>
<polygon fill="#191970" stroke="#191970" points="877.9917,-522.8926 871.1147,-530.9522 881.5168,-528.9402 877.9917,-522.8926"/>
</g>
<!-- Node29685&#45;&gt;Node29685 -->
<g id="edge7" class="edge">
<title>Node29685&#45;&gt;Node29685</title>
<path fill="none" stroke="#191970" d="M965.2025,-445.5292C966.5824,-450.628 975.0149,-454.5 990.5,-454.5 1014.6719,-454.5 1021.6591,-445.0653 1011.4615,-436.2571"/>
<polygon fill="#191970" stroke="#191970" points="968.4728,-446.7982 969.5385,-436.2571 962.1319,-443.8329 968.4728,-446.7982"/>
</g>
<!-- Node29929&#45;&gt;Node29940 -->
<g id="edge9" class="edge">
<title>Node29929&#45;&gt;Node29940</title>
<path fill="none" stroke="#191970" d="M582.309,-489.3243C605.7825,-494.6816 633.1654,-500.9311 655.2871,-505.9799"/>
<polygon fill="#191970" stroke="#191970" points="583.0431,-485.9019 572.515,-487.089 581.4855,-492.7264 583.0431,-485.9019"/>
</g>
<!-- Node29959 -->
<g id="node10" class="node">
<title>Node29959</title>
<g id="a_node10"><a xlink:href="quickjs_8c.html#a7e5b77a4851eee6f666581d051979392" target="_top" xlink:title="js_proxy_define_own\l_property">
<polygon fill="none" stroke="#000000" points="799.5,-367.5 799.5,-397.5 907.5,-397.5 907.5,-367.5 799.5,-367.5"/>
<text text-anchor="start" x="807.5" y="-385.5" font-family="Helvetica,sans-Serif" font-size="10.00" fill="#000000">js_proxy_define_own</text>
<text text-anchor="middle" x="853.5" y="-374.5" font-family="Helvetica,sans-Serif" font-size="10.00" fill="#000000">_property</text>
</a>
</g>
</g>
<!-- Node29929&#45;&gt;Node29959 -->
<g id="edge11" class="edge">
<title>Node29929&#45;&gt;Node29959</title>
<path fill="none" stroke="#191970" d="M572.6931,-465.0903C631.719,-447.7297 738.8187,-416.2298 802.3228,-397.5521"/>
<polygon fill="#191970" stroke="#191970" points="571.5554,-461.7766 562.9494,-467.9561 573.5306,-468.4921 571.5554,-461.7766"/>
</g>
<!-- Node29940&#45;&gt;Node29685 -->
<g id="edge10" class="edge">
<title>Node29940&#45;&gt;Node29685</title>
<path fill="none" stroke="#191970" d="M738.1831,-503.0118C797.4342,-485.0447 905.4624,-452.2865 958.8726,-436.0906"/>
<polygon fill="#191970" stroke="#191970" points="736.9637,-499.7241 728.4096,-505.9754 738.995,-506.4229 736.9637,-499.7241"/>
</g>
<!-- Node29791&#45;&gt;Node29685 -->
<g id="edge14" class="edge">
<title>Node29791&#45;&gt;Node29685</title>
<path fill="none" stroke="#191970" d="M922.8157,-426.5C931.7141,-426.5 940.5941,-426.5 948.855,-426.5"/>
<polygon fill="#191970" stroke="#191970" points="922.7934,-423.0001 912.7934,-426.5 922.7934,-430.0001 922.7934,-423.0001"/>
</g>
<!-- Node29852&#45;&gt;Node29791 -->
<g id="edge20" class="edge">
<title>Node29852&#45;&gt;Node29791</title>
<path fill="none" stroke="#191970" d="M590.774,-406.1652C649.0159,-410.6731 736.6868,-417.4587 794.4961,-421.9331"/>
<polygon fill="#191970" stroke="#191970" points="590.8547,-402.661 580.6144,-405.3788 590.3144,-409.6402 590.8547,-402.661"/>
</g>
<!-- Node29852&#45;&gt;Node29820 -->
<g id="edge16" class="edge">
<title>Node29852&#45;&gt;Node29820</title>
<path fill="none" stroke="#191970" d="M582.309,-389.6757C605.7825,-384.3184 633.1654,-378.0689 655.2871,-373.0201"/>
<polygon fill="#191970" stroke="#191970" points="581.4855,-386.2736 572.515,-391.911 583.0431,-393.0981 581.4855,-386.2736"/>
</g>
<!-- Node29820&#45;&gt;Node29685 -->
<g id="edge18" class="edge">
<title>Node29820&#45;&gt;Node29685</title>
<path fill="none" stroke="#191970" d="M744.8116,-351.9909C789.7785,-343.4909 858.1927,-336.6372 913,-357.5 944.4838,-369.4846 971.3246,-400.7778 983.5062,-416.7761"/>
<polygon fill="#191970" stroke="#191970" points="743.8717,-348.6092 734.7479,-353.9949 745.2389,-355.4745 743.8717,-348.6092"/>
</g>
<!-- Node29820&#45;&gt;Node29959 -->
<g id="edge19" class="edge">
<title>Node29820&#45;&gt;Node29959</title>
<path fill="none" stroke="#191970" d="M756.5897,-370.7345C770.6685,-372.4438 785.6032,-374.2569 799.4224,-375.9347"/>
<polygon fill="#191970" stroke="#191970" points="756.8665,-367.2425 746.5176,-369.5117 756.0228,-374.1915 756.8665,-367.2425"/>
</g>
<!-- Node29820&#45;&gt;Node29791 -->
<g id="edge17" class="edge">
<title>Node29820&#45;&gt;Node29791</title>
<path fill="none" stroke="#191970" d="M732.6503,-376.76C741.0401,-380.091 749.8966,-383.7814 758,-387.5 774.443,-395.0457 777.3715,-399.3724 794,-406.5 802.9146,-410.3211 812.8223,-413.9027 821.955,-416.9494"/>
<polygon fill="#191970" stroke="#191970" points="733.6772,-373.4039 723.0888,-373.0345 731.1358,-379.9263 733.6772,-373.4039"/>
</g>
<!-- Node29976 -->
<g id="node16" class="node">
<title>Node29976</title>
<g id="a_node16"><a xlink:href="quickjs_8c.html#a2ef89587b2e4287d4bd0417788c8e21e" target="_top" xlink:title="js_array_includes">
<polygon fill="none" stroke="#ff0000" points="484.5,-316 484.5,-335 576.5,-335 576.5,-316 484.5,-316"/>
<text text-anchor="middle" x="530.5" y="-323" font-family="Helvetica,sans-Serif" font-size="10.00" fill="#000000">js_array_includes</text>
</a>
</g>
</g>
<!-- Node30259&#45;&gt;Node29976 -->
<g id="edge24" class="edge">
<title>Node30259&#45;&gt;Node29976</title>
<path fill="none" stroke="#191970" d="M379.2146,-247.1181C397.9201,-264.3126 429.3853,-290.8054 461,-306.5 468.6188,-310.2822 477.0938,-313.3957 485.4326,-315.9289"/>
<polygon fill="#191970" stroke="#191970" points="381.4798,-244.4442 371.7894,-240.1606 376.6935,-249.5522 381.4798,-244.4442"/>
</g>
<!-- Node29942 -->
<g id="node17" class="node">
<title>Node29942</title>
<g id="a_node17"><a xlink:href="quickjs_8c.html#af4bd013e63a5d5d55e4d4700d80de12e" target="_top" xlink:title="js_array_indexOf">
<polygon fill="none" stroke="#000000" points="485.5,-278 485.5,-297 575.5,-297 575.5,-278 485.5,-278"/>
<text text-anchor="middle" x="530.5" y="-285" font-family="Helvetica,sans-Serif" font-size="10.00" fill="#000000">js_array_indexOf</text>
</a>
</g>
</g>
<!-- Node30259&#45;&gt;Node29942 -->
<g id="edge25" class="edge">
<title>Node30259&#45;&gt;Node29942</title>
<path fill="none" stroke="#191970" d="M394.4424,-243.891C413.6301,-251.5746 438.5043,-261.128 461,-268.5 471.2226,-271.85 482.4202,-275.0935 492.7842,-277.9239"/>
<polygon fill="#191970" stroke="#191970" points="395.5526,-240.5648 384.9695,-240.0649 392.931,-247.0553 395.5526,-240.5648"/>
</g>
<!-- Node29943 -->
<g id="node18" class="node">
<title>Node29943</title>
<g id="a_node18"><a xlink:href="quickjs_8c.html#acb566d2d7d0ce8fed7bb7f73d3baa508" target="_top" xlink:title="js_array_lastIndexOf">
<polygon fill="none" stroke="#000000" points="477,-240 477,-259 584,-259 584,-240 477,-240"/>
<text text-anchor="middle" x="530.5" y="-247" font-family="Helvetica,sans-Serif" font-size="10.00" fill="#000000">js_array_lastIndexOf</text>
</a>
</g>
</g>
<!-- Node30259&#45;&gt;Node29943 -->
<g id="edge26" class="edge">
<title>Node30259&#45;&gt;Node29943</title>
<path fill="none" stroke="#191970" d="M408.2077,-235.7104C429.4333,-238.1038 454.7366,-240.9569 476.8047,-243.4453"/>
<polygon fill="#191970" stroke="#191970" points="408.4767,-232.2186 398.1475,-234.576 407.6923,-239.1745 408.4767,-232.2186"/>
</g>
<!-- Node29989 -->
<g id="node19" class="node">
<title>Node29989</title>
<g id="a_node19"><a xlink:href="quickjs_8c.html#a04be55d1144f71bce472514bd31f0796" target="_top" xlink:title="js_object_isPrototypeOf">
<polygon fill="none" stroke="#000000" points="470,-202 470,-221 591,-221 591,-202 470,-202"/>
<text text-anchor="middle" x="530.5" y="-209" font-family="Helvetica,sans-Serif" font-size="10.00" fill="#000000">js_object_isPrototypeOf</text>
</a>
</g>
</g>
<!-- Node30259&#45;&gt;Node29989 -->
<g id="edge27" class="edge">
<title>Node30259&#45;&gt;Node29989</title>
<path fill="none" stroke="#191970" d="M408.3397,-225.2748C427.3478,-223.1314 449.6089,-220.6212 469.8834,-218.3351"/>
<polygon fill="#191970" stroke="#191970" points="407.6923,-221.8255 398.1475,-226.424 408.4767,-228.7814 407.6923,-221.8255"/>
</g>
<!-- Node30260 -->
<g id="node20" class="node">
<title>Node30260</title>
<g id="a_node20"><a xlink:href="quickjs_8c.html#a24be89a128d1cd7c0908604815b2b854" target="_top" xlink:title="js_same_value">
<polygon fill="none" stroke="#ff0000" points="489.5,-164 489.5,-183 571.5,-183 571.5,-164 489.5,-164"/>
<text text-anchor="middle" x="530.5" y="-171" font-family="Helvetica,sans-Serif" font-size="10.00" fill="#000000">js_same_value</text>
</a>
</g>
</g>
<!-- Node30259&#45;&gt;Node30260 -->
<g id="edge28" class="edge">
<title>Node30259&#45;&gt;Node30260</title>
<path fill="none" stroke="#191970" d="M394.4424,-217.109C413.6301,-209.4254 438.5043,-199.872 461,-192.5 471.2226,-189.15 482.4202,-185.9065 492.7842,-183.0761"/>
<polygon fill="#191970" stroke="#191970" points="392.931,-213.9447 384.9695,-220.9351 395.5526,-220.4352 392.931,-213.9447"/>
</g>
<!-- Node30264 -->
<g id="node28" class="node">
<title>Node30264</title>
<g id="a_node28"><a xlink:href="quickjs_8c.html#a28a2815f15eb2c3477a05e9c7e4394b8" target="_top" xlink:title="js_same_value_zero">
<polygon fill="none" stroke="#ff0000" points="477.5,-126 477.5,-145 583.5,-145 583.5,-126 477.5,-126"/>
<text text-anchor="middle" x="530.5" y="-133" font-family="Helvetica,sans-Serif" font-size="10.00" fill="#000000">js_same_value_zero</text>
</a>
</g>
</g>
<!-- Node30259&#45;&gt;Node30264 -->
<g id="edge39" class="edge">
<title>Node30259&#45;&gt;Node30264</title>
<path fill="none" stroke="#191970" d="M379.2146,-213.8819C397.9201,-196.6874 429.3853,-170.1946 461,-154.5 468.6188,-150.7178 477.0938,-147.6043 485.4326,-145.0711"/>
<polygon fill="#191970" stroke="#191970" points="376.6935,-211.4478 371.7894,-220.8394 381.4798,-216.5558 376.6935,-211.4478"/>
</g>
<!-- Node30266 -->
<g id="node29" class="node">
<title>Node30266</title>
<g id="a_node29"><a xlink:href="quickjs_8c.html#a2c7ed6633056510dfefd7919259f189d" target="_top" xlink:title="js_strict_eq">
<polygon fill="none" stroke="#ff0000" points="497,-88 497,-107 564,-107 564,-88 497,-88"/>
<text text-anchor="middle" x="530.5" y="-95" font-family="Helvetica,sans-Serif" font-size="10.00" fill="#000000">js_strict_eq</text>
</a>
</g>
</g>
<!-- Node30259&#45;&gt;Node30266 -->
<g id="edge40" class="edge">
<title>Node30259&#45;&gt;Node30266</title>
<path fill="none" stroke="#191970" d="M372.9079,-212.2149C388.983,-186.8661 421.4485,-141.3675 461,-116.5 471.6955,-109.7754 484.7695,-105.3994 496.6806,-102.5657"/>
<polygon fill="#191970" stroke="#191970" points="369.8463,-210.5113 367.5689,-220.8584 375.8018,-214.1899 369.8463,-210.5113"/>
</g>
<!-- Node30260&#45;&gt;Node29685 -->
<g id="edge32" class="edge">
<title>Node30260&#45;&gt;Node29685</title>
<path fill="none" stroke="#191970" d="M581.4927,-181.869C588.1872,-184.5058 594.5898,-187.9648 600,-192.5 628.6432,-216.5106 607.2066,-244.6698 636,-268.5 648.2492,-278.6378 899.41,-332.2459 913,-340.5 945.9824,-360.5325 973.085,-398.8912 984.5748,-416.8186"/>
<polygon fill="#191970" stroke="#191970" points="582.1508,-178.3994 571.5573,-178.5643 579.9415,-185.0416 582.1508,-178.3994"/>
</g>
<!-- Node30260&#45;&gt;Node29959 -->
<g id="edge38" class="edge">
<title>Node30260&#45;&gt;Node29959</title>
<path fill="none" stroke="#191970" d="M581.3162,-180.9906C588.1954,-183.7428 594.6982,-187.4677 600,-192.5 637.0034,-227.6228 600.2848,-265.068 636,-301.5 676.2469,-342.5545 704.1692,-324.3128 758,-344.5 777.3812,-351.7682 798.8065,-360.2519 816.444,-367.3571"/>
<polygon fill="#191970" stroke="#191970" points="582.3733,-177.6537 571.7796,-177.8092 580.1581,-184.294 582.3733,-177.6537"/>
</g>
<!-- Node30260&#45;&gt;Node29820 -->
<g id="edge33" class="edge">
<title>Node30260&#45;&gt;Node29820</title>
<path fill="none" stroke="#191970" d="M581.4366,-180.5259C588.3572,-183.3363 594.8406,-187.2011 600,-192.5 646.9239,-240.6933 591.7452,-288.8447 636,-339.5 641.5408,-345.8421 648.9753,-350.5231 656.7457,-353.9733"/>
<polygon fill="#191970" stroke="#191970" points="582.4054,-177.1595 571.8117,-177.3114 580.1879,-183.799 582.4054,-177.1595"/>
</g>
<!-- Node29781 -->
<g id="node21" class="node">
<title>Node29781</title>
<g id="a_node21"><a xlink:href="quickjs_8c.html#a8160f52fd4197ade647faa287b34862e" target="_top" xlink:title="js_array_buffer_slice">
<polygon fill="none" stroke="#000000" points="643.5,-240 643.5,-259 750.5,-259 750.5,-240 643.5,-240"/>
<text text-anchor="middle" x="697" y="-247" font-family="Helvetica,sans-Serif" font-size="10.00" fill="#000000">js_array_buffer_slice</text>
</a>
</g>
</g>
<!-- Node30260&#45;&gt;Node29781 -->
<g id="edge29" class="edge">
<title>Node30260&#45;&gt;Node29781</title>
<path fill="none" stroke="#191970" d="M581.2946,-183.8701C587.8223,-186.2037 594.232,-189.0453 600,-192.5 619.9584,-204.4539 616.2544,-218.1978 636,-230.5 642.1194,-234.3126 649.0638,-237.414 656.0198,-239.9195"/>
<polygon fill="#191970" stroke="#191970" points="582.2984,-180.5165 571.7074,-180.8023 580.165,-187.1835 582.2984,-180.5165"/>
</g>
<!-- Node29775 -->
<g id="node22" class="node">
<title>Node29775</title>
<g id="a_node22"><a xlink:href="quickjs_8c.html#a3b818b1ca9d2d4aaa9b55b1cc54c1bc4" target="_top" xlink:title="JS_ArraySpeciesCreate">
<polygon fill="none" stroke="#ff0000" points="636,-202 636,-221 758,-221 758,-202 636,-202"/>
<text text-anchor="middle" x="697" y="-209" font-family="Helvetica,sans-Serif" font-size="10.00" fill="#000000">JS_ArraySpeciesCreate</text>
</a>
</g>
</g>
<!-- Node30260&#45;&gt;Node29775 -->
<g id="edge30" class="edge">
<title>Node30260&#45;&gt;Node29775</title>
<path fill="none" stroke="#191970" d="M581.4966,-185.1389C605.1039,-190.5267 632.8043,-196.8487 655.1597,-201.9509"/>
<polygon fill="#191970" stroke="#191970" points="582.1854,-181.7061 571.6573,-182.8933 580.6278,-188.5307 582.1854,-181.7061"/>
</g>
<!-- Node29732 -->
<g id="node23" class="node">
<title>Node29732</title>
<g id="a_node23"><a xlink:href="quickjs_8c.html#afd4ef2d701fa0702f321925b61c57bbf" target="_top" xlink:title="js_call_bound_function">
<polygon fill="none" stroke="#ff0000" points="639,-164 639,-183 755,-183 755,-164 639,-164"/>
<text text-anchor="middle" x="697" y="-171" font-family="Helvetica,sans-Serif" font-size="10.00" fill="#000000">js_call_bound_function</text>
</a>
</g>
</g>
<!-- Node30260&#45;&gt;Node29732 -->
<g id="edge31" class="edge">
<title>Node30260&#45;&gt;Node29732</title>
<path fill="none" stroke="#191970" d="M581.6907,-173.5C599.7318,-173.5 620.1438,-173.5 638.7262,-173.5"/>
<polygon fill="#191970" stroke="#191970" points="581.6573,-170.0001 571.6573,-173.5 581.6573,-177.0001 581.6573,-170.0001"/>
</g>
<!-- Node29810 -->
<g id="node24" class="node">
<title>Node29810</title>
<g id="a_node24"><a xlink:href="quickjs_8c.html#a55de0909f8b4c06625f67b2fdb670279" target="_top" xlink:title="js_is_standard_regexp">
<polygon fill="none" stroke="#ff0000" points="640,-126 640,-145 754,-145 754,-126 640,-126"/>
<text text-anchor="middle" x="697" y="-133" font-family="Helvetica,sans-Serif" font-size="10.00" fill="#000000">js_is_standard_regexp</text>
</a>
</g>
</g>
<!-- Node30260&#45;&gt;Node29810 -->
<g id="edge34" class="edge">
<title>Node30260&#45;&gt;Node29810</title>
<path fill="none" stroke="#191970" d="M581.4966,-161.8611C605.1039,-156.4733 632.8043,-150.1513 655.1597,-145.0491"/>
<polygon fill="#191970" stroke="#191970" points="580.6278,-158.4693 571.6573,-164.1067 582.1854,-165.2939 580.6278,-158.4693"/>
</g>
<!-- Node30261 -->
<g id="node25" class="node">
<title>Node30261</title>
<g id="a_node25"><a xlink:href="quickjs_8c.html#a92da278473611d4f0b73382fe0db113b" target="_top" xlink:title="js_object_is">
<polygon fill="none" stroke="#000000" points="663,-88 663,-107 731,-107 731,-88 663,-88"/>
<text text-anchor="middle" x="697" y="-95" font-family="Helvetica,sans-Serif" font-size="10.00" fill="#000000">js_object_is</text>
</a>
</g>
</g>
<!-- Node30260&#45;&gt;Node30261 -->
<g id="edge35" class="edge">
<title>Node30260&#45;&gt;Node30261</title>
<path fill="none" stroke="#191970" d="M581.2946,-163.1299C587.8223,-160.7963 594.232,-157.9547 600,-154.5 619.9584,-142.5461 616.2544,-128.8022 636,-116.5 644.0964,-111.4557 653.6371,-107.6563 662.738,-104.8346"/>
<polygon fill="#191970" stroke="#191970" points="580.165,-159.8165 571.7074,-166.1977 582.2984,-166.4835 580.165,-159.8165"/>
</g>
<!-- Node29767 -->
<g id="node26" class="node">
<title>Node29767</title>
<g id="a_node26"><a xlink:href="quickjs_8c.html#a192c7bd4fc5264ccdf89e13ed5bc0dcc" target="_top" xlink:title="js_promise_resolve">
<polygon fill="none" stroke="#ff0000" points="646.5,-50 646.5,-69 747.5,-69 747.5,-50 646.5,-50"/>
<text text-anchor="middle" x="697" y="-57" font-family="Helvetica,sans-Serif" font-size="10.00" fill="#000000">js_promise_resolve</text>
</a>
</g>
</g>
<!-- Node30260&#45;&gt;Node29767 -->
<g id="edge36" class="edge">
<title>Node30260&#45;&gt;Node29767</title>
<path fill="none" stroke="#191970" d="M581.4927,-165.131C588.1872,-162.4942 594.5898,-159.0352 600,-154.5 628.6432,-130.4894 607.7825,-103.0094 636,-78.5 640.4383,-74.6449 645.6535,-71.5717 651.1336,-69.1219"/>
<polygon fill="#191970" stroke="#191970" points="579.9415,-161.9584 571.5573,-168.4357 582.1508,-168.6006 579.9415,-161.9584"/>
</g>
<!-- Node29763 -->
<g id="node27" class="node">
<title>Node29763</title>
<g id="a_node27"><a xlink:href="quickjs_8c.html#ac13d124ad5c7f1234cae3076077e782e" target="_top" xlink:title="js_promise_resolve\l_function_call">
<polygon fill="none" stroke="#ff0000" points="646.5,-.5 646.5,-30.5 747.5,-30.5 747.5,-.5 646.5,-.5"/>
<text text-anchor="start" x="654.5" y="-18.5" font-family="Helvetica,sans-Serif" font-size="10.00" fill="#000000">js_promise_resolve</text>
<text text-anchor="middle" x="697" y="-7.5" font-family="Helvetica,sans-Serif" font-size="10.00" fill="#000000">_function_call</text>
</a>
</g>
</g>
<!-- Node30260&#45;&gt;Node29763 -->
<g id="edge37" class="edge">
<title>Node30260&#45;&gt;Node29763</title>
<path fill="none" stroke="#191970" d="M581.3754,-166.0713C588.2466,-163.3107 594.7313,-159.567 600,-154.5 638.2964,-117.6694 600.0219,-79.5985 636,-40.5 639.565,-36.6259 643.8183,-33.3368 648.3975,-30.5476"/>
<polygon fill="#191970" stroke="#191970" points="580.2181,-162.7677 571.8441,-169.2583 582.4379,-169.4065 580.2181,-162.7677"/>
</g>
</g>
</svg>
        <g id="navigator" transform="translate(0 0)" fill="#404254">
                <rect fill="#f2f5e9" fill-opacity="0.5" stroke="#606060" stroke-width=".5" x="0" y="0" width="60" height="60"/>
                <use id="zoomplus" xlink:href="#zoomPlus" x="17" y="9" onmousedown="handleZoom(evt,'in')"/>
                <use id="zoomminus" xlink:href="#zoomMin" x="42" y="9" onmousedown="handleZoom(evt,'out')"/>
                <use id="reset" xlink:href="#resetDef" x="30" y="36" onmousedown="handleReset()"/>
                <g id="arrowUp" xlink:href="#dirArrow" transform="translate(30 24)" onmousedown="handlePan(0,-1)">
                  <use xlink:href="#rim" fill="#404040">
                        <set attributeName="fill" to="#808080" begin="arrowUp.mouseover" end="arrowUp.mouseout"/>
                  </use>
                  <path fill="none" stroke="white" stroke-width="1.5" d="M0,-3.0v7 M-2.5,-0.5L0,-3.0L2.5,-0.5"/>
                </g>
                <g id="arrowRight" xlink:href="#dirArrow" transform="rotate(90) translate(36 -43)" onmousedown="handlePan(1,0)">
                  <use xlink:href="#rim" fill="#404040">
                        <set attributeName="fill" to="#808080" begin="arrowRight.mouseover" end="arrowRight.mouseout"/>
                  </use>
                  <path fill="none" stroke="white" stroke-width="1.5" d="M0,-3.0v7 M-2.5,-0.5L0,-3.0L2.5,-0.5"/>
                </g>
                <g id="arrowDown" xlink:href="#dirArrow" transform="rotate(180) translate(-30 -48)" onmousedown="handlePan(0,1)">
                  <use xlink:href="#rim" fill="#404040">
                        <set attributeName="fill" to="#808080" begin="arrowDown.mouseover" end="arrowDown.mouseout"/>
                  </use>
                  <path fill="none" stroke="white" stroke-width="1.5" d="M0,-3.0v7 M-2.5,-0.5L0,-3.0L2.5,-0.5"/>
                </g>
                <g id="arrowLeft" xlink:href="#dirArrow" transform="rotate(270) translate(-36 17)" onmousedown="handlePan(-1,0)">
                  <use xlink:href="#rim" fill="#404040">
                        <set attributeName="fill" to="#808080" begin="arrowLeft.mouseover" end="arrowLeft.mouseout"/>
                  </use>
                  <path fill="none" stroke="white" stroke-width="1.5" d="M0,-3.0v7 M-2.5,-0.5L0,-3.0L2.5,-0.5"/>
                </g>
        </g>
        <svg viewBox="0 0 15 15" width="100%" height="30px" preserveAspectRatio="xMaxYMin meet">
         <g id="arrow_out" transform="scale(0.3 0.3)">
          <a xlink:href="quickjs_8c_a3d9b165d4274aa43e051caba9bcbbe9f_icgraph_org.svg" target="_base">
           <rect id="button" ry="5" rx="5" y="6" x="6" height="38" width="38"
                fill="#f2f5e9" fill-opacity="0.5" stroke="#606060" stroke-width="1.0"/>
           <path id="arrow"
             d="M 11.500037,31.436501 C 11.940474,20.09759 22.043105,11.32322 32.158766,21.979434 L 37.068811,17.246167 C 37.068811,17.246167 37.088388,32 37.088388,32 L 22.160133,31.978069 C 22.160133,31.978069 26.997745,27.140456 26.997745,27.140456 C 18.528582,18.264221 13.291696,25.230495 11.500037,31.436501 z"
             style="fill:#404040;"/>
          </a>
         </g>
        </svg>
</svg>
