<?xml version="1.0" encoding="UTF-8" standalone="no"?>
<!DOCTYPE svg PUBLIC "-//W3C//DTD SVG 1.1//EN"
 "http://www.w3.org/Graphics/SVG/1.1/DTD/svg11.dtd">
<!-- Generated by graphviz version 2.40.1 (20161225.0304)
 -->
<!-- Title: set_object_name Pages: 1 -->
<svg width="1253pt" height="663pt"
 viewBox="0.00 0.00 1253.00 663.00" xmlns="http://www.w3.org/2000/svg" xmlns:xlink="http://www.w3.org/1999/xlink">
<g id="graph0" class="graph" transform="scale(1 1) rotate(0) translate(4 659)">
<title>set_object_name</title>
<!-- Node304668 -->
<g id="node1" class="node">
<title>Node304668</title>
<polygon fill="#bfbfbf" stroke="#000000" points="0,-531.5 0,-550.5 91,-550.5 91,-531.5 0,-531.5"/>
<text text-anchor="middle" x="45.5" y="-538.5" font-family="Helvetica,sans-Serif" font-size="10.00" fill="#000000">set_object_name</text>
</g>
<!-- Node304669 -->
<g id="node2" class="node">
<title>Node304669</title>
<g id="a_node2"><a xlink:href="quickjs_8c.html#a4fa2fc1719feb03edf64eaf034103fd2" target="_top" xlink:title="js_parse_assign_expr">
<polygon fill="none" stroke="#000000" points="127,-284.5 127,-303.5 238,-303.5 238,-284.5 127,-284.5"/>
<text text-anchor="middle" x="182.5" y="-291.5" font-family="Helvetica,sans-Serif" font-size="10.00" fill="#000000">js_parse_assign_expr</text>
</a>
</g>
</g>
<!-- Node304668&#45;&gt;Node304669 -->
<g id="edge1" class="edge">
<title>Node304668&#45;&gt;Node304669</title>
<path fill="none" stroke="#191970" d="M55.8312,-522.3738C83.1733,-473.0781 156.7275,-340.4658 177.1666,-303.6158"/>
<polygon fill="#191970" stroke="#191970" points="52.6603,-520.8747 50.8706,-531.3173 58.7818,-524.27 52.6603,-520.8747"/>
</g>
<!-- Node304672 -->
<g id="node5" class="node">
<title>Node304672</title>
<g id="a_node5"><a xlink:href="quickjs_8c.html#a00eb789430243c24dab4a63ad6a79653" target="_top" xlink:title="js_parse_class">
<polygon fill="none" stroke="#000000" points="1025,-379.5 1025,-398.5 1107,-398.5 1107,-379.5 1025,-379.5"/>
<text text-anchor="middle" x="1066" y="-386.5" font-family="Helvetica,sans-Serif" font-size="10.00" fill="#000000">js_parse_class</text>
</a>
</g>
</g>
<!-- Node304668&#45;&gt;Node304672 -->
<g id="edge43" class="edge">
<title>Node304668&#45;&gt;Node304672</title>
<path fill="none" stroke="#191970" d="M99.577,-552.5544C156.6907,-563.7344 249.5057,-579 330.5,-579 330.5,-579 330.5,-579 624,-579 793.9505,-579 843.3016,-552.4936 989,-465 1019.1118,-446.9175 1046.3182,-414.7 1058.7966,-398.6464"/>
<polygon fill="#191970" stroke="#191970" points="100.1762,-549.1051 89.6858,-550.589 98.8119,-555.9709 100.1762,-549.1051"/>
</g>
<!-- Node304680 -->
<g id="node7" class="node">
<title>Node304680</title>
<g id="a_node7"><a xlink:href="quickjs_8c.html#a498e1d5c7de1b59c1630e9847cde1e41" target="_top" xlink:title="js_parse_export">
<polygon fill="none" stroke="#ff0000" points="1151,-436.5 1151,-455.5 1237,-455.5 1237,-436.5 1151,-436.5"/>
<text text-anchor="middle" x="1194" y="-443.5" font-family="Helvetica,sans-Serif" font-size="10.00" fill="#000000">js_parse_export</text>
</a>
</g>
</g>
<!-- Node304668&#45;&gt;Node304680 -->
<g id="edge45" class="edge">
<title>Node304668&#45;&gt;Node304680</title>
<path fill="none" stroke="#191970" d="M61.0285,-558.2725C76.274,-574.1439 100.9719,-597.1018 127,-610 209.9975,-651.1293 237.8706,-655 330.5,-655 330.5,-655 330.5,-655 928,-655 1058.9681,-655 1163.6072,-496.4099 1188.4081,-455.5234"/>
<polygon fill="#191970" stroke="#191970" points="63.3458,-555.6261 53.9608,-550.7096 58.2314,-560.4056 63.3458,-555.6261"/>
</g>
<!-- Node304687 -->
<g id="node8" class="node">
<title>Node304687</title>
<g id="a_node8"><a xlink:href="quickjs_8c.html#a26be546cf89c4580ba9020e8fc43a759" target="_top" xlink:title="js_parse_destructuring\l_element">
<polygon fill="none" stroke="#000000" points="716,-237 716,-267 831,-267 831,-237 716,-237"/>
<text text-anchor="start" x="724" y="-255" font-family="Helvetica,sans-Serif" font-size="10.00" fill="#000000">js_parse_destructuring</text>
<text text-anchor="middle" x="773.5" y="-244" font-family="Helvetica,sans-Serif" font-size="10.00" fill="#000000">_element</text>
</a>
</g>
</g>
<!-- Node304668&#45;&gt;Node304687 -->
<g id="edge44" class="edge">
<title>Node304668&#45;&gt;Node304687</title>
<path fill="none" stroke="#191970" d="M79.1844,-527.628C199.6444,-479.8081 608.6181,-317.4545 735.5833,-267.0521"/>
<polygon fill="#191970" stroke="#191970" points="77.7249,-524.4417 69.7219,-531.3845 80.3077,-530.9478 77.7249,-524.4417"/>
</g>
<!-- Node304688 -->
<g id="node9" class="node">
<title>Node304688</title>
<g id="a_node9"><a xlink:href="quickjs_8c.html#a42924858317b848c3aea0a0a978fab3a" target="_top" xlink:title="js_parse_var">
<polygon fill="none" stroke="#000000" points="892,-304.5 892,-323.5 964,-323.5 964,-304.5 892,-304.5"/>
<text text-anchor="middle" x="928" y="-311.5" font-family="Helvetica,sans-Serif" font-size="10.00" fill="#000000">js_parse_var</text>
</a>
</g>
</g>
<!-- Node304668&#45;&gt;Node304688 -->
<g id="edge48" class="edge">
<title>Node304668&#45;&gt;Node304688</title>
<path fill="none" stroke="#191970" d="M101.146,-529.9681C139.6852,-522.1273 192.1079,-511.0643 238,-500 492.491,-438.6438 796.2117,-352.0729 895.125,-323.5336"/>
<polygon fill="#191970" stroke="#191970" points="100.2675,-526.5749 91.1614,-531.9906 101.6572,-533.4356 100.2675,-526.5749"/>
</g>
<!-- Node304678 -->
<g id="node11" class="node">
<title>Node304678</title>
<g id="a_node11"><a xlink:href="quickjs_8c.html#acc9eb677cab8dfcf45f59381f8a19601" target="_top" xlink:title="js_parse_function_decl2">
<polygon fill="none" stroke="#ff0000" points="867,-436.5 867,-455.5 989,-455.5 989,-436.5 867,-436.5"/>
<text text-anchor="middle" x="928" y="-443.5" font-family="Helvetica,sans-Serif" font-size="10.00" fill="#000000">js_parse_function_decl2</text>
</a>
</g>
</g>
<!-- Node304668&#45;&gt;Node304678 -->
<g id="edge46" class="edge">
<title>Node304668&#45;&gt;Node304678</title>
<path fill="none" stroke="#191970" d="M63.8871,-557.1134C79.4818,-569.6381 103.0738,-586.0172 127,-593 174.3577,-606.8212 188.7685,-596.1684 238,-593 505.6614,-575.7738 574.3284,-558.8399 831,-481 856.0134,-473.4143 884.0458,-463.097 903.5178,-455.6312"/>
<polygon fill="#191970" stroke="#191970" points="66.0223,-554.337 56.0949,-550.636 61.5476,-559.72 66.0223,-554.337"/>
</g>
<!-- Node304682 -->
<g id="node15" class="node">
<title>Node304682</title>
<g id="a_node15"><a xlink:href="quickjs_8c.html#aee6d0acd87f136d43f157ae1426436e6" target="_top" xlink:title="js_parse_object_literal">
<polygon fill="none" stroke="#000000" points="274,-113.5 274,-132.5 387,-132.5 387,-113.5 274,-113.5"/>
<text text-anchor="middle" x="330.5" y="-120.5" font-family="Helvetica,sans-Serif" font-size="10.00" fill="#000000">js_parse_object_literal</text>
</a>
</g>
</g>
<!-- Node304668&#45;&gt;Node304682 -->
<g id="edge47" class="edge">
<title>Node304668&#45;&gt;Node304682</title>
<path fill="none" stroke="#191970" d="M47.447,-521.4396C52.8845,-474.9141 71.6528,-355.5336 127,-275 175.8288,-203.9511 268.7594,-152.7727 309.9564,-132.551"/>
<polygon fill="#191970" stroke="#191970" points="43.9656,-521.079 46.3608,-531.3995 50.9244,-521.8379 43.9656,-521.079"/>
</g>
<!-- Node304669&#45;&gt;Node304669 -->
<g id="edge23" class="edge">
<title>Node304669&#45;&gt;Node304669</title>
<path fill="none" stroke="#191970" d="M157.2025,-313.0292C158.5824,-318.128 167.0149,-322 182.5,-322 206.6719,-322 213.6591,-312.5653 203.4615,-303.7571"/>
<polygon fill="#191970" stroke="#191970" points="160.4728,-314.2982 161.5385,-303.7571 154.1319,-311.3329 160.4728,-314.2982"/>
</g>
<!-- Node304670 -->
<g id="node3" class="node">
<title>Node304670</title>
<g id="a_node3"><a xlink:href="quickjs_8c.html#a253917187cfb6b3db09d355b31edb3d5" target="_top" xlink:title="js_parse_array_literal">
<polygon fill="none" stroke="#000000" points="423,-189.5 423,-208.5 532,-208.5 532,-189.5 423,-189.5"/>
<text text-anchor="middle" x="477.5" y="-196.5" font-family="Helvetica,sans-Serif" font-size="10.00" fill="#000000">js_parse_array_literal</text>
</a>
</g>
</g>
<!-- Node304669&#45;&gt;Node304670 -->
<g id="edge2" class="edge">
<title>Node304669&#45;&gt;Node304670</title>
<path fill="none" stroke="#191970" d="M198.6673,-276.8992C215.6803,-260.0947 244.0974,-235.2444 274,-223 321.7363,-203.453 380.6824,-198.3495 422.8251,-197.5987"/>
<polygon fill="#191970" stroke="#191970" points="195.7939,-274.8291 191.2749,-284.4119 200.7835,-279.7387 195.7939,-274.8291"/>
</g>
<!-- Node304671 -->
<g id="node4" class="node">
<title>Node304671</title>
<g id="a_node4"><a xlink:href="quickjs_8c.html#acdcc62310b4f6f73fa7bc7267b18b1d4" target="_top" xlink:title="js_parse_postfix_expr">
<polygon fill="none" stroke="#ff0000" points="568,-189.5 568,-208.5 680,-208.5 680,-189.5 568,-189.5"/>
<text text-anchor="middle" x="624" y="-196.5" font-family="Helvetica,sans-Serif" font-size="10.00" fill="#000000">js_parse_postfix_expr</text>
</a>
</g>
</g>
<!-- Node304669&#45;&gt;Node304671 -->
<g id="edge39" class="edge">
<title>Node304669&#45;&gt;Node304671</title>
<path fill="none" stroke="#191970" d="M215.0608,-280.6305C232.3357,-273.9544 254.0598,-266.2116 274,-261 386.4704,-231.6046 417.7225,-239.3153 532,-218 547.5518,-215.0992 564.5267,-211.6689 579.6134,-208.5267"/>
<polygon fill="#191970" stroke="#191970" points="213.4754,-277.493 205.4508,-284.4107 216.0379,-284.0071 213.4754,-277.493"/>
</g>
<!-- Node304669&#45;&gt;Node304672 -->
<g id="edge24" class="edge">
<title>Node304669&#45;&gt;Node304672</title>
<path fill="none" stroke="#191970" d="M197.1053,-311.1119C213.695,-329.2277 242.5705,-356.9664 274,-370 357.9089,-404.7966 386.6622,-389 477.5,-389 477.5,-389 477.5,-389 773.5,-389 863.1289,-389 968.2065,-389 1024.8259,-389"/>
<polygon fill="#191970" stroke="#191970" points="199.6435,-308.6992 190.3824,-303.5529 194.4129,-313.3512 199.6435,-308.6992"/>
</g>
<!-- Node304669&#45;&gt;Node304680 -->
<g id="edge28" class="edge">
<title>Node304669&#45;&gt;Node304680</title>
<path fill="none" stroke="#191970" d="M189.4394,-313.5788C201.5551,-344.849 229.5928,-405.8103 274,-438 329.3336,-478.1099 355.5991,-464.6978 423,-476 697.1302,-521.9678 1033.406,-473.7079 1150.9838,-453.772"/>
<polygon fill="#191970" stroke="#191970" points="192.5871,-312.0021 185.8172,-303.8523 186.0272,-314.445 192.5871,-312.0021"/>
</g>
<!-- Node304669&#45;&gt;Node304687 -->
<g id="edge27" class="edge">
<title>Node304669&#45;&gt;Node304687</title>
<path fill="none" stroke="#191970" d="M248.3026,-289.3237C364.8112,-281.0439 605.4851,-263.9401 715.8787,-256.0949"/>
<polygon fill="#191970" stroke="#191970" points="247.8266,-285.8486 238.0998,-290.0487 248.3228,-292.831 247.8266,-285.8486"/>
</g>
<!-- Node304669&#45;&gt;Node304688 -->
<g id="edge42" class="edge">
<title>Node304669&#45;&gt;Node304688</title>
<path fill="none" stroke="#191970" d="M248.2377,-296.209C256.9018,-296.4844 265.6642,-296.755 274,-297 509.5768,-303.9236 792.9305,-310.7922 891.8396,-313.1462"/>
<polygon fill="#191970" stroke="#191970" points="248.2507,-292.7077 238.1434,-295.8848 248.0258,-299.7041 248.2507,-292.7077"/>
</g>
<!-- Node304675 -->
<g id="node10" class="node">
<title>Node304675</title>
<g id="a_node10"><a xlink:href="quickjs_8c.html#ac188b916dd086803591a67de7e7a85f6" target="_top" xlink:title="js_parse_for_in_of">
<polygon fill="none" stroke="#000000" points="880,-142.5 880,-161.5 976,-161.5 976,-142.5 880,-142.5"/>
<text text-anchor="middle" x="928" y="-149.5" font-family="Helvetica,sans-Serif" font-size="10.00" fill="#000000">js_parse_for_in_of</text>
</a>
</g>
</g>
<!-- Node304669&#45;&gt;Node304675 -->
<g id="edge35" class="edge">
<title>Node304669&#45;&gt;Node304675</title>
<path fill="none" stroke="#191970" d="M185.1565,-274.1971C191.7692,-233.7574 213.0773,-142.2801 274,-104 376.0605,-39.8714 756.7328,-114.6709 885.2831,-142.4454"/>
<polygon fill="#191970" stroke="#191970" points="181.6839,-273.7543 183.6604,-284.1631 188.6063,-274.7936 181.6839,-273.7543"/>
</g>
<!-- Node304669&#45;&gt;Node304678 -->
<g id="edge36" class="edge">
<title>Node304669&#45;&gt;Node304678</title>
<path fill="none" stroke="#191970" d="M192.0125,-312.8931C206.0386,-338.468 234.8932,-383.1815 274,-403 476.7408,-505.745 761.2677,-474.3312 876.5157,-455.5657"/>
<polygon fill="#191970" stroke="#191970" points="194.987,-311.0306 187.2215,-303.8231 188.7975,-314.3001 194.987,-311.0306"/>
</g>
<!-- Node304694 -->
<g id="node12" class="node">
<title>Node304694</title>
<g id="a_node12"><a xlink:href="quickjs_8c.html#abd2cbff624ea609dbf883fb1a2f048cd" target="_top" xlink:title="js_parse_cond_expr">
<polygon fill="none" stroke="#000000" points="278.5,-341.5 278.5,-360.5 382.5,-360.5 382.5,-341.5 278.5,-341.5"/>
<text text-anchor="middle" x="330.5" y="-348.5" font-family="Helvetica,sans-Serif" font-size="10.00" fill="#000000">js_parse_cond_expr</text>
</a>
</g>
</g>
<!-- Node304669&#45;&gt;Node304694 -->
<g id="edge25" class="edge">
<title>Node304669&#45;&gt;Node304694</title>
<path fill="none" stroke="#191970" d="M233.0423,-307.0265C262.3817,-317.5234 297.2083,-331.6882 316.2703,-341.3362"/>
<polygon fill="#191970" stroke="#191970" points="233.9283,-303.6282 223.3334,-303.6192 231.6102,-310.2333 233.9283,-303.6282"/>
</g>
<!-- Node304695 -->
<g id="node13" class="node">
<title>Node304695</title>
<g id="a_node13"><a xlink:href="quickjs_8c.html#a1cef6995e7ec0c736babe92589cf441f" target="_top" xlink:title="js_parse_expr2">
<polygon fill="none" stroke="#000000" points="289,-37.5 289,-56.5 372,-56.5 372,-37.5 289,-37.5"/>
<text text-anchor="middle" x="330.5" y="-44.5" font-family="Helvetica,sans-Serif" font-size="10.00" fill="#000000">js_parse_expr2</text>
</a>
</g>
</g>
<!-- Node304669&#45;&gt;Node304695 -->
<g id="edge29" class="edge">
<title>Node304669&#45;&gt;Node304695</title>
<path fill="none" stroke="#191970" d="M185.4641,-274.1064C192.8148,-231.3987 215.6896,-130.033 274,-71 280.1412,-64.7827 288.1451,-60.0859 296.1884,-56.5735"/>
<polygon fill="#191970" stroke="#191970" points="181.9928,-273.6478 183.8511,-284.0784 188.903,-274.7656 181.9928,-273.6478"/>
</g>
<!-- Node304669&#45;&gt;Node304682 -->
<g id="edge37" class="edge">
<title>Node304669&#45;&gt;Node304682</title>
<path fill="none" stroke="#191970" d="M192.4063,-275.0751C211.1659,-239.7987 251.9657,-165.8572 274,-147 281.1253,-140.9021 290.0282,-136.1605 298.6447,-132.5634"/>
<polygon fill="#191970" stroke="#191970" points="189.1089,-273.8241 187.5343,-284.3013 195.2989,-277.0928 189.1089,-273.8241"/>
</g>
<!-- Node304699 -->
<g id="node16" class="node">
<title>Node304699</title>
<g id="a_node16"><a xlink:href="quickjs_8c.html#a035daca514f14aacc1e0cff81d8e423a" target="_top" xlink:title="js_parse_template">
<polygon fill="none" stroke="#000000" points="429.5,-151.5 429.5,-170.5 525.5,-170.5 525.5,-151.5 429.5,-151.5"/>
<text text-anchor="middle" x="477.5" y="-158.5" font-family="Helvetica,sans-Serif" font-size="10.00" fill="#000000">js_parse_template</text>
</a>
</g>
</g>
<!-- Node304669&#45;&gt;Node304699 -->
<g id="edge40" class="edge">
<title>Node304669&#45;&gt;Node304699</title>
<path fill="none" stroke="#191970" d="M193.6143,-276.0001C208.7662,-253.1422 238.1628,-214.3528 274,-195 322.5371,-168.7891 386.3201,-161.8093 429.4417,-160.4084"/>
<polygon fill="#191970" stroke="#191970" points="190.6468,-274.1438 188.183,-284.4482 196.5349,-277.9293 190.6468,-274.1438"/>
</g>
<!-- Node304670&#45;&gt;Node304671 -->
<g id="edge3" class="edge">
<title>Node304670&#45;&gt;Node304671</title>
<path fill="none" stroke="#191970" d="M542.0685,-199C550.6903,-199 559.4749,-199 567.9352,-199"/>
<polygon fill="#191970" stroke="#191970" points="542.0512,-195.5001 532.0512,-199 542.0512,-202.5001 542.0512,-195.5001"/>
</g>
<!-- Node304671&#45;&gt;Node304671 -->
<g id="edge21" class="edge">
<title>Node304671&#45;&gt;Node304671</title>
<path fill="none" stroke="#191970" d="M596.7475,-217.6539C597.8867,-222.9368 606.9708,-227 624,-227 649.9492,-227 657.4502,-217.5653 646.5028,-208.7571"/>
<polygon fill="#191970" stroke="#191970" points="599.8752,-219.227 601.4972,-208.7571 593.7001,-215.9303 599.8752,-219.227"/>
</g>
<!-- Node304671&#45;&gt;Node304672 -->
<g id="edge4" class="edge">
<title>Node304671&#45;&gt;Node304672</title>
<path fill="none" stroke="#191970" d="M690.5533,-195.2915C769.0759,-198.9516 900.1576,-219.4687 989,-286 1024.2912,-312.4285 1053.2805,-358.357 1062.7354,-379.2279"/>
<polygon fill="#191970" stroke="#191970" points="690.4302,-191.7843 680.3032,-194.8978 690.1614,-198.7792 690.4302,-191.7843"/>
</g>
<!-- Node304671&#45;&gt;Node304687 -->
<g id="edge9" class="edge">
<title>Node304671&#45;&gt;Node304687</title>
<path fill="none" stroke="#191970" d="M678.1046,-211.6651C701.1016,-219.2836 726.9275,-228.8191 745.9024,-236.8401"/>
<polygon fill="#191970" stroke="#191970" points="679.0423,-208.2897 668.4502,-208.5275 676.8787,-214.947 679.0423,-208.2897"/>
</g>
<!-- Node304671&#45;&gt;Node304675 -->
<g id="edge22" class="edge">
<title>Node304671&#45;&gt;Node304675</title>
<path fill="none" stroke="#191970" d="M667.5287,-186.8634C682.7658,-182.9498 700.052,-178.8832 716,-176 771.7682,-165.918 836.6009,-159.3145 879.7432,-155.6328"/>
<polygon fill="#191970" stroke="#191970" points="666.6333,-183.4798 657.8462,-189.3991 668.4067,-190.2514 666.6333,-183.4798"/>
</g>
<!-- Node304672&#45;&gt;Node304671 -->
<g id="edge5" class="edge">
<title>Node304672&#45;&gt;Node304671</title>
<path fill="none" stroke="#191970" d="M1050.654,-371.3492C1036.7272,-352.3961 1014.51,-323.1036 989,-304 896.1688,-234.4816 757.2202,-215.202 680.3032,-206.9485"/>
<polygon fill="#191970" stroke="#191970" points="1047.8911,-373.5002 1056.6271,-379.4945 1053.5359,-369.3607 1047.8911,-373.5002"/>
</g>
<!-- Node304673 -->
<g id="node6" class="node">
<title>Node304673</title>
<g id="a_node6"><a xlink:href="quickjs_8c.html#a9d844c16dcc71701436848074337d32c" target="_top" xlink:title="js_parse_statement\l_or_decl">
<polygon fill="none" stroke="#ff0000" points="1143,-201 1143,-231 1245,-231 1245,-201 1143,-201"/>
<text text-anchor="start" x="1151" y="-219" font-family="Helvetica,sans-Serif" font-size="10.00" fill="#000000">js_parse_statement</text>
<text text-anchor="middle" x="1194" y="-208" font-family="Helvetica,sans-Serif" font-size="10.00" fill="#000000">_or_decl</text>
</a>
</g>
</g>
<!-- Node304672&#45;&gt;Node304673 -->
<g id="edge6" class="edge">
<title>Node304672&#45;&gt;Node304673</title>
<path fill="none" stroke="#191970" d="M1079.0598,-371.3488C1104.2388,-337.3179 1159.0967,-263.174 1182.7622,-231.1886"/>
<polygon fill="#191970" stroke="#191970" points="1076.1984,-369.3317 1073.0642,-379.4523 1081.8256,-373.4952 1076.1984,-369.3317"/>
</g>
<!-- Node304672&#45;&gt;Node304680 -->
<g id="edge8" class="edge">
<title>Node304672&#45;&gt;Node304680</title>
<path fill="none" stroke="#191970" d="M1096.581,-402.6181C1119.9991,-413.0465 1151.7144,-427.1697 1172.5058,-436.4284"/>
<polygon fill="#191970" stroke="#191970" points="1097.9833,-399.4113 1087.4243,-398.5405 1095.1357,-405.8059 1097.9833,-399.4113"/>
</g>
<!-- Node304673&#45;&gt;Node304673 -->
<g id="edge7" class="edge">
<title>Node304673&#45;&gt;Node304673</title>
<path fill="none" stroke="#191970" d="M1171.2559,-241.4579C1174.0788,-246.179 1181.6602,-249.5 1194,-249.5 1214.25,-249.5 1221.6855,-240.5566 1216.3066,-231.159"/>
<polygon fill="#191970" stroke="#191970" points="1174.7658,-241.2985 1171.6934,-231.159 1167.7721,-241.0014 1174.7658,-241.2985"/>
</g>
<!-- Node304687&#45;&gt;Node304671 -->
<g id="edge11" class="edge">
<title>Node304687&#45;&gt;Node304671</title>
<path fill="none" stroke="#191970" d="M706.3541,-234.9146C681.1569,-226.1889 654.7951,-216.0181 638.8812,-208.5191"/>
<polygon fill="#191970" stroke="#191970" points="705.3355,-238.2651 715.9299,-238.1795 707.5945,-231.6396 705.3355,-238.2651"/>
</g>
<!-- Node304687&#45;&gt;Node304673 -->
<g id="edge17" class="edge">
<title>Node304687&#45;&gt;Node304673</title>
<path fill="none" stroke="#191970" d="M841.3069,-246.1949C925.4509,-238.9911 1067.0524,-226.8683 1142.7055,-220.3914"/>
<polygon fill="#191970" stroke="#191970" points="840.752,-242.7295 831.087,-247.0698 841.3492,-249.704 840.752,-242.7295"/>
</g>
<!-- Node304687&#45;&gt;Node304687 -->
<g id="edge10" class="edge">
<title>Node304687&#45;&gt;Node304687</title>
<path fill="none" stroke="#191970" d="M747.2022,-277.4579C750.4661,-282.179 759.2321,-285.5 773.5,-285.5 796.9141,-285.5 805.5114,-276.5566 799.2921,-267.159"/>
<polygon fill="#191970" stroke="#191970" points="750.7132,-277.3187 747.7079,-267.159 743.7216,-276.9753 750.7132,-277.3187"/>
</g>
<!-- Node304687&#45;&gt;Node304688 -->
<g id="edge12" class="edge">
<title>Node304687&#45;&gt;Node304688</title>
<path fill="none" stroke="#191970" d="M820.3693,-270.8084C847.9463,-281.8749 881.6675,-295.407 903.9336,-304.3423"/>
<polygon fill="#191970" stroke="#191970" points="821.4843,-267.4846 810.9001,-267.0085 818.8773,-273.981 821.4843,-267.4846"/>
</g>
<!-- Node304687&#45;&gt;Node304675 -->
<g id="edge15" class="edge">
<title>Node304687&#45;&gt;Node304675</title>
<path fill="none" stroke="#191970" d="M805.3717,-231.3711C838.3721,-210.0116 888.4886,-177.5737 913.1837,-161.5898"/>
<polygon fill="#191970" stroke="#191970" points="803.4584,-228.4402 796.9652,-236.8122 807.262,-234.3167 803.4584,-228.4402"/>
</g>
<!-- Node304687&#45;&gt;Node304678 -->
<g id="edge18" class="edge">
<title>Node304687&#45;&gt;Node304678</title>
<path fill="none" stroke="#191970" d="M791.8764,-275.0746C825.7386,-317.5941 896.6748,-406.6661 920.2192,-436.2299"/>
<polygon fill="#191970" stroke="#191970" points="794.591,-272.8649 785.6234,-267.2229 789.1153,-277.2257 794.591,-272.8649"/>
</g>
<!-- Node304688&#45;&gt;Node304673 -->
<g id="edge13" class="edge">
<title>Node304688&#45;&gt;Node304673</title>
<path fill="none" stroke="#191970" d="M974.0095,-303.8198C1010.7214,-295.0046 1063.0902,-280.8667 1107,-263 1128.9439,-254.0711 1152.5107,-241.111 1169.5741,-231.0605"/>
<polygon fill="#191970" stroke="#191970" points="973.0172,-300.4578 964.0901,-306.1637 974.627,-307.2703 973.0172,-300.4578"/>
</g>
<!-- Node304688&#45;&gt;Node304680 -->
<g id="edge14" class="edge">
<title>Node304688&#45;&gt;Node304680</title>
<path fill="none" stroke="#191970" d="M974.1859,-322.9025C1011.6419,-331.3957 1064.9335,-346.4361 1107,-370 1139.7203,-388.3286 1171.0602,-420.4327 1185.5772,-436.4073"/>
<polygon fill="#191970" stroke="#191970" points="974.5818,-319.4061 964.0637,-320.6789 973.0799,-326.243 974.5818,-319.4061"/>
</g>
<!-- Node304675&#45;&gt;Node304673 -->
<g id="edge16" class="edge">
<title>Node304675&#45;&gt;Node304673</title>
<path fill="none" stroke="#191970" d="M977.5083,-163.9118C1024.6173,-175.2463 1095.1908,-192.2264 1142.8392,-203.6906"/>
<polygon fill="#191970" stroke="#191970" points="978.077,-160.4488 967.5357,-161.5123 976.4394,-167.2546 978.077,-160.4488"/>
</g>
<!-- Node304678&#45;&gt;Node304672 -->
<g id="edge19" class="edge">
<title>Node304678&#45;&gt;Node304672</title>
<path fill="none" stroke="#191970" d="M960.634,-432.5207C985.9136,-422.0792 1020.3112,-407.8715 1042.8265,-398.5716"/>
<polygon fill="#191970" stroke="#191970" points="959.0045,-429.4069 951.0981,-436.4595 961.6769,-435.8767 959.0045,-429.4069"/>
</g>
<!-- Node304678&#45;&gt;Node304680 -->
<g id="edge20" class="edge">
<title>Node304678&#45;&gt;Node304680</title>
<path fill="none" stroke="#191970" d="M999.1031,-446C1047.3838,-446 1109.6705,-446 1150.6728,-446"/>
<polygon fill="#191970" stroke="#191970" points="999.0258,-442.5001 989.0258,-446 999.0257,-449.5001 999.0258,-442.5001"/>
</g>
<!-- Node304694&#45;&gt;Node304669 -->
<g id="edge26" class="edge">
<title>Node304694&#45;&gt;Node304669</title>
<path fill="none" stroke="#191970" d="M280.0214,-337.9962C250.5109,-327.4407 215.4305,-313.1663 196.4235,-303.5086"/>
<polygon fill="#191970" stroke="#191970" points="279.1897,-341.4135 289.7845,-341.4213 281.507,-334.8082 279.1897,-341.4135"/>
</g>
<!-- Node304695&#45;&gt;Node304673 -->
<g id="edge34" class="edge">
<title>Node304695&#45;&gt;Node304673</title>
<path fill="none" stroke="#191970" d="M376.2027,-35.0649C433.6272,-21.1405 535.4003,0 624,0 624,0 624,0 928,0 1011.9059,0 1042.4348,-6.4133 1107,-60 1153.7702,-98.8175 1179.9213,-169.64 1189.6105,-200.7058"/>
<polygon fill="#191970" stroke="#191970" points="375.2253,-31.7009 366.3512,-37.4888 376.8978,-38.4982 375.2253,-31.7009"/>
</g>
<!-- Node304696 -->
<g id="node14" class="node">
<title>Node304696</title>
<g id="a_node14"><a xlink:href="quickjs_8c.html#af219bd55085ad700eb078affe3f65505" target="_top" xlink:title="js_parse_expr">
<polygon fill="none" stroke="#ff0000" points="439,-37.5 439,-56.5 516,-56.5 516,-37.5 439,-37.5"/>
<text text-anchor="middle" x="477.5" y="-44.5" font-family="Helvetica,sans-Serif" font-size="10.00" fill="#000000">js_parse_expr</text>
</a>
</g>
</g>
<!-- Node304695&#45;&gt;Node304696 -->
<g id="edge30" class="edge">
<title>Node304695&#45;&gt;Node304696</title>
<path fill="none" stroke="#191970" d="M382.2954,-47C400.8475,-47 421.4263,-47 438.6912,-47"/>
<polygon fill="#191970" stroke="#191970" points="382.2311,-43.5001 372.2311,-47 382.2311,-50.5001 382.2311,-43.5001"/>
</g>
<!-- Node304696&#45;&gt;Node304671 -->
<g id="edge32" class="edge">
<title>Node304696&#45;&gt;Node304671</title>
<path fill="none" stroke="#191970" d="M493.6853,-63.793C524.4793,-95.7431 590.5892,-164.3349 614.8392,-189.4953"/>
<polygon fill="#191970" stroke="#191970" points="496.1239,-61.2796 486.6642,-56.5083 491.0838,-66.1373 496.1239,-61.2796"/>
</g>
<!-- Node304696&#45;&gt;Node304673 -->
<g id="edge33" class="edge">
<title>Node304696&#45;&gt;Node304673</title>
<path fill="none" stroke="#191970" d="M526.3711,-44.6039C585.0463,-41.9377 686.4414,-38 773.5,-38 773.5,-38 773.5,-38 928,-38 1044.6895,-38 1148.93,-157.7784 1182.6239,-200.8238"/>
<polygon fill="#191970" stroke="#191970" points="526.1048,-41.1124 516.2766,-45.0693 526.4272,-48.1049 526.1048,-41.1124"/>
</g>
<!-- Node304696&#45;&gt;Node304675 -->
<g id="edge31" class="edge">
<title>Node304696&#45;&gt;Node304675</title>
<path fill="none" stroke="#191970" d="M526.3523,-49.0479C595.7075,-53.1265 725.9582,-65.1368 831,-100 862.3731,-110.4127 895.6415,-130.4993 913.9161,-142.4297"/>
<polygon fill="#191970" stroke="#191970" points="526.3436,-45.5421 516.1644,-48.4805 525.9542,-52.5313 526.3436,-45.5421"/>
</g>
<!-- Node304682&#45;&gt;Node304671 -->
<g id="edge38" class="edge">
<title>Node304682&#45;&gt;Node304671</title>
<path fill="none" stroke="#191970" d="M397.2668,-121.6936C437.2843,-122.7582 488.6463,-127.4235 532,-142 563.7012,-152.6586 595.7962,-176.0523 612.4111,-189.3183"/>
<polygon fill="#191970" stroke="#191970" points="397.154,-118.1908 387.087,-121.4932 397.0162,-125.1894 397.154,-118.1908"/>
</g>
<!-- Node304699&#45;&gt;Node304671 -->
<g id="edge41" class="edge">
<title>Node304699&#45;&gt;Node304671</title>
<path fill="none" stroke="#191970" d="M524.1954,-173.1121C544.5986,-178.4044 568.1808,-184.5213 587.2977,-189.4799"/>
<polygon fill="#191970" stroke="#191970" points="525.0266,-169.712 514.4681,-170.589 523.269,-176.4877 525.0266,-169.712"/>
</g>
</g>
</svg>
