<?xml version="1.0" encoding="UTF-8" standalone="no"?>
<!DOCTYPE svg PUBLIC "-//W3C//DTD SVG 1.1//EN"
 "http://www.w3.org/Graphics/SVG/1.1/DTD/svg11.dtd">
<!-- Generated by graphviz version 2.40.1 (20161225.0304)
 -->
<!-- Title: JS_RunGC Pages: 1 -->
<svg width="537pt" height="142pt"
 viewBox="0.00 0.00 537.00 142.00" xmlns="http://www.w3.org/2000/svg" xmlns:xlink="http://www.w3.org/1999/xlink">
<g id="graph0" class="graph" transform="scale(1 1) rotate(0) translate(4 138)">
<title>JS_RunGC</title>
<!-- Node151505 -->
<g id="node1" class="node">
<title>Node151505</title>
<polygon fill="#bfbfbf" stroke="#000000" points="0,-57.5 0,-76.5 67,-76.5 67,-57.5 0,-57.5"/>
<text text-anchor="middle" x="33.5" y="-64.5" font-family="Helvetica,sans-Serif" font-size="10.00" fill="#000000">JS_RunGC</text>
</g>
<!-- Node151506 -->
<g id="node2" class="node">
<title>Node151506</title>
<g id="a_node2"><a xlink:href="quickjs_8c.html#ad80a65b72c3a346d8a0047858a5f0b13" target="_top" xlink:title="JS_FreeRuntime">
<polygon fill="none" stroke="#000000" points="103,-95.5 103,-114.5 193,-114.5 193,-95.5 103,-95.5"/>
<text text-anchor="middle" x="148" y="-102.5" font-family="Helvetica,sans-Serif" font-size="10.00" fill="#000000">JS_FreeRuntime</text>
</a>
</g>
</g>
<!-- Node151505&#45;&gt;Node151506 -->
<g id="edge1" class="edge">
<title>Node151505&#45;&gt;Node151506</title>
<path fill="none" stroke="#191970" d="M72.1465,-79.8259C87.51,-84.9247 104.879,-90.6891 119.1161,-95.4141"/>
<polygon fill="#191970" stroke="#191970" points="72.9866,-76.4171 62.3932,-76.589 70.7817,-83.0608 72.9866,-76.4171"/>
</g>
<!-- Node151511 -->
<g id="node6" class="node">
<title>Node151511</title>
<g id="a_node6"><a xlink:href="quickjs-libc_8c.html#a9d1d581951398643c2791e45231f87db" target="_top" xlink:title="js_std_gc">
<polygon fill="none" stroke="#000000" points="118.5,-57.5 118.5,-76.5 177.5,-76.5 177.5,-57.5 118.5,-57.5"/>
<text text-anchor="middle" x="148" y="-64.5" font-family="Helvetica,sans-Serif" font-size="10.00" fill="#000000">js_std_gc</text>
</a>
</g>
</g>
<!-- Node151505&#45;&gt;Node151511 -->
<g id="edge5" class="edge">
<title>Node151505&#45;&gt;Node151511</title>
<path fill="none" stroke="#191970" d="M77.4449,-67C91.1445,-67 105.92,-67 118.3924,-67"/>
<polygon fill="#191970" stroke="#191970" points="77.2345,-63.5001 67.2345,-67 77.2345,-70.5001 77.2345,-63.5001"/>
</g>
<!-- Node151512 -->
<g id="node7" class="node">
<title>Node151512</title>
<g id="a_node7"><a xlink:href="quickjs_8c.html#a85321334e4bec66bfc03451897a03a3b" target="_top" xlink:title="js_trigger_gc">
<polygon fill="none" stroke="#000000" points="112,-19.5 112,-38.5 184,-38.5 184,-19.5 112,-19.5"/>
<text text-anchor="middle" x="148" y="-26.5" font-family="Helvetica,sans-Serif" font-size="10.00" fill="#000000">js_trigger_gc</text>
</a>
</g>
</g>
<!-- Node151505&#45;&gt;Node151512 -->
<g id="edge6" class="edge">
<title>Node151505&#45;&gt;Node151512</title>
<path fill="none" stroke="#191970" d="M72.1465,-54.1741C87.51,-49.0753 104.879,-43.3109 119.1161,-38.5859"/>
<polygon fill="#191970" stroke="#191970" points="70.7817,-50.9392 62.3932,-57.411 72.9866,-57.5829 70.7817,-50.9392"/>
</g>
<!-- Node151507 -->
<g id="node3" class="node">
<title>Node151507</title>
<g id="a_node3"><a xlink:href="quickjs_8c.html#a27966451027feb455b5da12c1578771c" target="_top" xlink:title="JS_NewRuntime2">
<polygon fill="none" stroke="#000000" points="247.5,-114.5 247.5,-133.5 343.5,-133.5 343.5,-114.5 247.5,-114.5"/>
<text text-anchor="middle" x="295.5" y="-121.5" font-family="Helvetica,sans-Serif" font-size="10.00" fill="#000000">JS_NewRuntime2</text>
</a>
</g>
</g>
<!-- Node151506&#45;&gt;Node151507 -->
<g id="edge2" class="edge">
<title>Node151506&#45;&gt;Node151507</title>
<path fill="none" stroke="#191970" d="M203.381,-112.1338C217.8525,-113.998 233.3318,-115.9919 247.3911,-117.8029"/>
<polygon fill="#191970" stroke="#191970" points="203.4216,-108.6102 193.0563,-110.8039 202.5272,-115.5528 203.4216,-108.6102"/>
</g>
<!-- Node151510 -->
<g id="node5" class="node">
<title>Node151510</title>
<g id="a_node5"><a xlink:href="classqjs_1_1Runtime.html#a44c5deb57118d67e36f2e002f393ff43" target="_top" xlink:title="qjs::Runtime::~Runtime">
<polygon fill="none" stroke="#000000" points="235,-76.5 235,-95.5 356,-95.5 356,-76.5 235,-76.5"/>
<text text-anchor="middle" x="295.5" y="-83.5" font-family="Helvetica,sans-Serif" font-size="10.00" fill="#000000">qjs::Runtime::~Runtime</text>
</a>
</g>
</g>
<!-- Node151506&#45;&gt;Node151510 -->
<g id="edge4" class="edge">
<title>Node151506&#45;&gt;Node151510</title>
<path fill="none" stroke="#191970" d="M203.2087,-97.8884C213.5681,-96.5539 224.4495,-95.1523 234.9607,-93.7983"/>
<polygon fill="#191970" stroke="#191970" points="202.5272,-94.4471 193.0563,-99.1961 203.4216,-101.3898 202.5272,-94.4471"/>
</g>
<!-- Node151508 -->
<g id="node4" class="node">
<title>Node151508</title>
<g id="a_node4"><a xlink:href="quickjs_8c.html#afc1ca27a266094085ebb43e2eea0dda2" target="_top" xlink:title="JS_NewRuntime">
<polygon fill="none" stroke="#ff0000" points="418,-114.5 418,-133.5 509,-133.5 509,-114.5 418,-114.5"/>
<text text-anchor="middle" x="463.5" y="-121.5" font-family="Helvetica,sans-Serif" font-size="10.00" fill="#000000">JS_NewRuntime</text>
</a>
</g>
</g>
<!-- Node151507&#45;&gt;Node151508 -->
<g id="edge3" class="edge">
<title>Node151507&#45;&gt;Node151508</title>
<path fill="none" stroke="#191970" d="M353.7443,-124C374.7663,-124 398.171,-124 417.9494,-124"/>
<polygon fill="#191970" stroke="#191970" points="353.6421,-120.5001 343.6421,-124 353.642,-127.5001 353.6421,-120.5001"/>
</g>
<!-- Node151513 -->
<g id="node8" class="node">
<title>Node151513</title>
<g id="a_node8"><a xlink:href="quickjs_8c.html#a030c2e98b1775a7e3bdd13be1400b1fe" target="_top" xlink:title="JS_NewObjectFromShape">
<polygon fill="none" stroke="#000000" points="229,-19.5 229,-38.5 362,-38.5 362,-19.5 229,-19.5"/>
<text text-anchor="middle" x="295.5" y="-26.5" font-family="Helvetica,sans-Serif" font-size="10.00" fill="#000000">JS_NewObjectFromShape</text>
</a>
</g>
</g>
<!-- Node151512&#45;&gt;Node151513 -->
<g id="edge7" class="edge">
<title>Node151512&#45;&gt;Node151513</title>
<path fill="none" stroke="#191970" d="M194.3049,-29C205.3116,-29 217.2697,-29 228.982,-29"/>
<polygon fill="#191970" stroke="#191970" points="194.0826,-25.5001 184.0826,-29 194.0825,-32.5001 194.0826,-25.5001"/>
</g>
<!-- Node151514 -->
<g id="node9" class="node">
<title>Node151514</title>
<g id="a_node9"><a xlink:href="quickjs_8c.html#ad4ba09e4c7ab9f28c144182e1aacf1f6" target="_top" xlink:title="JS_NewArray">
<polygon fill="none" stroke="#ff0000" points="425,-38.5 425,-57.5 502,-57.5 502,-38.5 425,-38.5"/>
<text text-anchor="middle" x="463.5" y="-45.5" font-family="Helvetica,sans-Serif" font-size="10.00" fill="#000000">JS_NewArray</text>
</a>
</g>
</g>
<!-- Node151513&#45;&gt;Node151514 -->
<g id="edge8" class="edge">
<title>Node151513&#45;&gt;Node151514</title>
<path fill="none" stroke="#191970" d="M372.4215,-37.6995C390.6167,-39.7572 409.2581,-41.8655 424.8981,-43.6343"/>
<polygon fill="#191970" stroke="#191970" points="372.7108,-34.2099 362.3808,-36.5639 371.9241,-41.1656 372.7108,-34.2099"/>
</g>
<!-- Node152098 -->
<g id="node10" class="node">
<title>Node152098</title>
<g id="a_node10"><a xlink:href="quickjs_8c.html#a73738c650f11459db0d7af3dcdf8316b" target="_top" xlink:title="JS_NewObjectProtoClass">
<polygon fill="none" stroke="#ff0000" points="398,-.5 398,-19.5 529,-19.5 529,-.5 398,-.5"/>
<text text-anchor="middle" x="463.5" y="-7.5" font-family="Helvetica,sans-Serif" font-size="10.00" fill="#000000">JS_NewObjectProtoClass</text>
</a>
</g>
</g>
<!-- Node151513&#45;&gt;Node152098 -->
<g id="edge9" class="edge">
<title>Node151513&#45;&gt;Node152098</title>
<path fill="none" stroke="#191970" d="M372.3517,-20.3084C380.9028,-19.3414 389.5533,-18.363 397.9454,-17.4139"/>
<polygon fill="#191970" stroke="#191970" points="371.9241,-16.8344 362.3808,-21.4361 372.7108,-23.7901 371.9241,-16.8344"/>
</g>
</g>
</svg>
