<?xml version="1.0" encoding="UTF-8" standalone="no"?>
<!DOCTYPE svg PUBLIC "-//W3C//DTD SVG 1.1//EN"
 "http://www.w3.org/Graphics/SVG/1.1/DTD/svg11.dtd">
<!-- Generated by graphviz version 2.40.1 (20161225.0304)
 -->
<!-- Title: JS_ReadObject Pages: 1 -->
<!--zoomable 1016 -->
<svg id="main" version="1.1" xmlns="http://www.w3.org/2000/svg" xmlns:xlink="http://www.w3.org/1999/xlink" xml:space="preserve" onload="init(evt)">
<style type="text/css"><![CDATA[
.edge:hover path { stroke: red; }
.edge:hover polygon { stroke: red; fill: red; }
]]></style>
<script type="text/javascript"><![CDATA[
var edges = document.getElementsByTagName('g');
if (edges && edges.length) {
  for (var i=0;i<edges.length;i++) {
    if (edges[i].id.substr(0,4)=='edge') {
      edges[i].setAttribute('class','edge');
    }
  }
}
]]></script>
        <defs>
                <circle id="rim" cx="0" cy="0" r="7"/>
                <circle id="rim2" cx="0" cy="0" r="3.5"/>
                <g id="zoomPlus">
                        <use xlink:href="#rim" fill="#404040">
                                <set attributeName="fill" to="#808080" begin="zoomplus.mouseover" end="zoomplus.mouseout"/>
                        </use>
                        <path d="M-4,0h8M0,-4v8" fill="none" stroke="white" stroke-width="1.5" pointer-events="none"/>
                </g>
                <g id="zoomMin">
                        <use xlink:href="#rim" fill="#404040">
                                <set attributeName="fill" to="#808080" begin="zoomminus.mouseover" end="zoomminus.mouseout"/>
                        </use>
                        <path d="M-4,0h8" fill="none" stroke="white" stroke-width="1.5" pointer-events="none"/>
                </g>
                <g id="dirArrow">
                        <path fill="none" stroke="white" stroke-width="1.5" d="M0,-3.0v7 M-2.5,-0.5L0,-3.0L2.5,-0.5"/>
                </g>
               <g id="resetDef">
                       <use xlink:href="#rim2" fill="#404040">
                               <set attributeName="fill" to="#808080" begin="reset.mouseover" end="reset.mouseout"/>
                       </use>
               </g>
        </defs>

<script type="text/javascript">
var viewWidth = 548;
var viewHeight = 1016;
var sectionId = 'dynsection-245';
</script>
<script xlink:href="svgpan.js"/>
<svg id="graph" class="graph">
<g id="viewport">
<title>JS_ReadObject</title>
<!-- Node80945 -->
<g id="node1" class="node">
<title>Node80945</title>
<polygon fill="#bfbfbf" stroke="#000000" points="0,-513.5 0,-532.5 86,-532.5 86,-513.5 0,-513.5"/>
<text text-anchor="middle" x="43" y="-520.5" font-family="Helvetica,sans-Serif" font-size="10.00" fill="#000000">JS_ReadObject</text>
</g>
<!-- Node80946 -->
<g id="node2" class="node">
<title>Node80946</title>
<g id="a_node2"><a xlink:href="quickjs_8c.html#a3a3b14bcdcb10fcf1a666d55a3817a8c" target="_top" xlink:title="bc_reader_free">
<polygon fill="none" stroke="#000000" points="307.5,-988.5 307.5,-1007.5 388.5,-1007.5 388.5,-988.5 307.5,-988.5"/>
<text text-anchor="middle" x="348" y="-995.5" font-family="Helvetica,sans-Serif" font-size="10.00" fill="#000000">bc_reader_free</text>
</a>
</g>
</g>
<!-- Node80945&#45;&gt;Node80946 -->
<g id="edge1" class="edge">
<title>Node80945&#45;&gt;Node80946</title>
<path fill="none" stroke="#191970" d="M44.7518,-532.5621C55.0999,-586.2108 113.2973,-851.9216 272,-979 279.3287,-984.8683 288.2311,-988.9533 297.3257,-991.7901"/>
<polygon fill="#191970" stroke="#191970" points="296.6417,-995.2295 307.2043,-994.4037 298.4322,-988.4623 296.6417,-995.2295"/>
</g>
<!-- Node80954 -->
<g id="node5" class="node">
<title>Node80954</title>
<g id="a_node5"><a xlink:href="quickjs_8c.html#ad54b242d774ba44b2ac39fe8161aaf9c" target="_top" xlink:title="JS_ReadObjectAtoms">
<polygon fill="none" stroke="#000000" points="122,-76.5 122,-95.5 236,-95.5 236,-76.5 122,-76.5"/>
<text text-anchor="middle" x="179" y="-83.5" font-family="Helvetica,sans-Serif" font-size="10.00" fill="#000000">JS_ReadObjectAtoms</text>
</a>
</g>
</g>
<!-- Node80945&#45;&gt;Node80954 -->
<g id="edge4" class="edge">
<title>Node80945&#45;&gt;Node80954</title>
<path fill="none" stroke="#191970" d="M45.967,-513.4662C63.0722,-458.5033 149.1567,-181.8936 172.9173,-105.5451"/>
<polygon fill="#191970" stroke="#191970" points="176.3254,-106.3722 175.9551,-95.7839 169.6416,-104.2921 176.3254,-106.3722"/>
</g>
<!-- Node80980 -->
<g id="node10" class="node">
<title>Node80980</title>
<g id="a_node10"><a xlink:href="quickjs_8c.html#a4b8ef2bb3b35e4a5f6ed8bd837a50e7c" target="_top" xlink:title="JS_ReadObjectRec">
<polygon fill="none" stroke="#ff0000" points="127,-513.5 127,-532.5 231,-532.5 231,-513.5 127,-513.5"/>
<text text-anchor="middle" x="179" y="-520.5" font-family="Helvetica,sans-Serif" font-size="10.00" fill="#000000">JS_ReadObjectRec</text>
</a>
</g>
</g>
<!-- Node80945&#45;&gt;Node80980 -->
<g id="edge10" class="edge">
<title>Node80945&#45;&gt;Node80980</title>
<path fill="none" stroke="#191970" d="M86.0313,-523C95.7198,-523 106.1937,-523 116.4981,-523"/>
<polygon fill="#191970" stroke="#191970" points="116.7106,-526.5001 126.7106,-523 116.7106,-519.5001 116.7106,-526.5001"/>
</g>
<!-- Node80947 -->
<g id="node3" class="node">
<title>Node80947</title>
<g id="a_node3"><a xlink:href="quickjs_8c.html#a80e54dcf9ac687d4ccc2f90273565f30" target="_top" xlink:title="js_free">
<polygon fill="none" stroke="#ff0000" points="477,-969.5 477,-988.5 523,-988.5 523,-969.5 477,-969.5"/>
<text text-anchor="middle" x="500" y="-976.5" font-family="Helvetica,sans-Serif" font-size="10.00" fill="#000000">js_free</text>
</a>
</g>
</g>
<!-- Node80946&#45;&gt;Node80947 -->
<g id="edge2" class="edge">
<title>Node80946&#45;&gt;Node80947</title>
<path fill="none" stroke="#191970" d="M388.7332,-992.9083C413.136,-989.858 443.7718,-986.0285 466.7156,-983.1605"/>
<polygon fill="#191970" stroke="#191970" points="467.1775,-986.6301 476.6661,-981.9167 466.3092,-979.6842 467.1775,-986.6301"/>
</g>
<!-- Node80949 -->
<g id="node4" class="node">
<title>Node80949</title>
<g id="a_node4"><a xlink:href="quickjs_8c.html#ab7fc45a99935a1c0ba50b0216d9401a9" target="_top" xlink:title="JS_FreeAtom">
<polygon fill="none" stroke="#ff0000" points="461.5,-741.5 461.5,-760.5 538.5,-760.5 538.5,-741.5 461.5,-741.5"/>
<text text-anchor="middle" x="500" y="-748.5" font-family="Helvetica,sans-Serif" font-size="10.00" fill="#000000">JS_FreeAtom</text>
</a>
</g>
</g>
<!-- Node80946&#45;&gt;Node80949 -->
<g id="edge3" class="edge">
<title>Node80946&#45;&gt;Node80949</title>
<path fill="none" stroke="#191970" d="M388.6599,-996.2978C401.5695,-993.7488 414.8512,-988.6927 424,-979 482.9945,-916.4979 418.8595,-864.4607 460,-789 464.4818,-780.7793 471.373,-773.2962 478.18,-767.1859"/>
<polygon fill="#191970" stroke="#191970" points="480.5426,-769.7731 485.9829,-760.6817 476.0606,-764.3962 480.5426,-769.7731"/>
</g>
<!-- Node80955 -->
<g id="node6" class="node">
<title>Node80955</title>
<g id="a_node6"><a xlink:href="quickjs_8c.html#a79e9250c5e2b097c9655cbc8a75ba923" target="_top" xlink:title="bc_get_leb128">
<polygon fill="none" stroke="#ff0000" points="460,-228.5 460,-247.5 540,-247.5 540,-228.5 460,-228.5"/>
<text text-anchor="middle" x="500" y="-235.5" font-family="Helvetica,sans-Serif" font-size="10.00" fill="#000000">bc_get_leb128</text>
</a>
</g>
</g>
<!-- Node80954&#45;&gt;Node80955 -->
<g id="edge5" class="edge">
<title>Node80954&#45;&gt;Node80955</title>
<path fill="none" stroke="#191970" d="M200.1224,-76.4279C245.3453,-57.5087 353.1712,-20.9703 424,-67 476.5828,-101.1721 493.0782,-181.0343 498.0117,-218.2545"/>
<polygon fill="#191970" stroke="#191970" points="494.5536,-218.8165 499.1987,-228.3388 501.5056,-217.9981 494.5536,-218.8165"/>
</g>
<!-- Node80958 -->
<g id="node7" class="node">
<title>Node80958</title>
<g id="a_node7"><a xlink:href="quickjs_8c.html#a8ea895574dd7a1e1dc16c6fe2e84e129" target="_top" xlink:title="bc_get_u8">
<polygon fill="none" stroke="#ff0000" points="317,-76.5 317,-95.5 379,-95.5 379,-76.5 317,-76.5"/>
<text text-anchor="middle" x="348" y="-83.5" font-family="Helvetica,sans-Serif" font-size="10.00" fill="#000000">bc_get_u8</text>
</a>
</g>
</g>
<!-- Node80954&#45;&gt;Node80958 -->
<g id="edge6" class="edge">
<title>Node80954&#45;&gt;Node80958</title>
<path fill="none" stroke="#191970" d="M236.2157,-86C259.3166,-86 285.4652,-86 306.661,-86"/>
<polygon fill="#191970" stroke="#191970" points="306.9413,-89.5001 316.9413,-86 306.9413,-82.5001 306.9413,-89.5001"/>
</g>
<!-- Node80959 -->
<g id="node8" class="node">
<title>Node80959</title>
<g id="a_node8"><a xlink:href="quickjs_8c.html#a33fd643aff7f70e649d246385cd99b00" target="_top" xlink:title="JS_NewAtomStr">
<polygon fill="none" stroke="#ff0000" points="303,-.5 303,-19.5 393,-19.5 393,-.5 303,-.5"/>
<text text-anchor="middle" x="348" y="-7.5" font-family="Helvetica,sans-Serif" font-size="10.00" fill="#000000">JS_NewAtomStr</text>
</a>
</g>
</g>
<!-- Node80954&#45;&gt;Node80959 -->
<g id="edge7" class="edge">
<title>Node80954&#45;&gt;Node80959</title>
<path fill="none" stroke="#191970" d="M193.979,-76.3613C211.9644,-65.09 243.3021,-46.3999 272,-34 281.818,-29.7578 292.6359,-25.8893 302.9548,-22.5557"/>
<polygon fill="#191970" stroke="#191970" points="304.1446,-25.8509 312.6463,-19.5286 302.0576,-19.1692 304.1446,-25.8509"/>
</g>
<!-- Node80975 -->
<g id="node9" class="node">
<title>Node80975</title>
<g id="a_node9"><a xlink:href="quickjs_8c.html#a73a002c998fe7508eae9aa069fac802b" target="_top" xlink:title="JS_ReadString">
<polygon fill="none" stroke="#ff0000" points="306.5,-114.5 306.5,-133.5 389.5,-133.5 389.5,-114.5 306.5,-114.5"/>
<text text-anchor="middle" x="348" y="-121.5" font-family="Helvetica,sans-Serif" font-size="10.00" fill="#000000">JS_ReadString</text>
</a>
</g>
</g>
<!-- Node80954&#45;&gt;Node80975 -->
<g id="edge8" class="edge">
<title>Node80954&#45;&gt;Node80975</title>
<path fill="none" stroke="#191970" d="M221.6458,-95.589C244.3193,-100.6872 272.3713,-106.9947 296.2799,-112.3706"/>
<polygon fill="#191970" stroke="#191970" points="295.7208,-115.8322 306.245,-114.6113 297.2565,-109.0027 295.7208,-115.8322"/>
</g>
<!-- Node80975&#45;&gt;Node80955 -->
<g id="edge9" class="edge">
<title>Node80975&#45;&gt;Node80955</title>
<path fill="none" stroke="#191970" d="M389.746,-132.5977C401.4433,-136.1909 413.7516,-141.1721 424,-148 452.3566,-166.8923 475.9947,-199.3157 489.0449,-219.6547"/>
<polygon fill="#191970" stroke="#191970" points="486.1723,-221.6632 494.4252,-228.307 492.1167,-217.9667 486.1723,-221.6632"/>
</g>
<!-- Node80980&#45;&gt;Node80949 -->
<g id="edge35" class="edge">
<title>Node80980&#45;&gt;Node80949</title>
<path fill="none" stroke="#191970" d="M231.1934,-525.1291C294.1008,-528.6944 394.9909,-537.9189 424,-561 478.1488,-604.0835 493.8951,-691.5932 498.3297,-730.9875"/>
<polygon fill="#191970" stroke="#191970" points="494.8685,-731.5523 499.3384,-741.1581 501.8343,-730.8614 494.8685,-731.5523"/>
</g>
<!-- Node80980&#45;&gt;Node80955 -->
<g id="edge17" class="edge">
<title>Node80980&#45;&gt;Node80955</title>
<path fill="none" stroke="#191970" d="M180.0555,-513.4863C185.908,-462.642 216.1485,-223.692 272,-181 325.6716,-139.9743 359.9112,-159.6371 424,-181 447.5434,-188.8478 469.6665,-207.1621 483.9054,-220.928"/>
<polygon fill="#191970" stroke="#191970" points="481.7962,-223.7707 491.329,-228.394 486.76,-218.835 481.7962,-223.7707"/>
</g>
<!-- Node80980&#45;&gt;Node80958 -->
<g id="edge25" class="edge">
<title>Node80980&#45;&gt;Node80958</title>
<path fill="none" stroke="#191970" d="M179.8047,-513.2108C184.693,-456.1 212.2086,-166.37 272,-105 281.1365,-95.6223 294.1484,-90.6106 306.8291,-88.0075"/>
<polygon fill="#191970" stroke="#191970" points="307.5289,-91.4401 316.8475,-86.3988 306.419,-84.5286 307.5289,-91.4401"/>
</g>
<!-- Node80980&#45;&gt;Node80975 -->
<g id="edge43" class="edge">
<title>Node80980&#45;&gt;Node80975</title>
<path fill="none" stroke="#191970" d="M180.1308,-513.2341C186.4924,-459.8792 219.4237,-203.9853 272,-148 278.6786,-140.8884 287.4434,-135.8736 296.6387,-132.34"/>
<polygon fill="#191970" stroke="#191970" points="297.8969,-135.6109 306.3076,-129.1681 295.7148,-128.9597 297.8969,-135.6109"/>
</g>
<!-- Node80980&#45;&gt;Node80980 -->
<g id="edge42" class="edge">
<title>Node80980&#45;&gt;Node80980</title>
<path fill="none" stroke="#191970" d="M158.0385,-532.7571C147.8409,-541.5653 154.8281,-551 179,-551 194.4851,-551 202.9176,-547.128 204.2975,-542.0292"/>
<polygon fill="#191970" stroke="#191970" points="207.3681,-540.3329 199.9615,-532.7571 201.0272,-543.2982 207.3681,-540.3329"/>
</g>
<!-- Node80981 -->
<g id="node11" class="node">
<title>Node80981</title>
<g id="a_node11"><a xlink:href="quickjs_8h.html#a9bf98b18de88b4199910a43e933eb97d" target="_top" xlink:title="__JS_NewFloat64">
<polygon fill="none" stroke="#000000" points="299.5,-456.5 299.5,-475.5 396.5,-475.5 396.5,-456.5 299.5,-456.5"/>
<text text-anchor="middle" x="348" y="-463.5" font-family="Helvetica,sans-Serif" font-size="10.00" fill="#000000">__JS_NewFloat64</text>
</a>
</g>
</g>
<!-- Node80980&#45;&gt;Node80981 -->
<g id="edge11" class="edge">
<title>Node80980&#45;&gt;Node80981</title>
<path fill="none" stroke="#191970" d="M200.1007,-513.3658C218.7429,-505.0995 246.805,-493.2499 272,-485 279.4522,-482.5598 287.4027,-480.2551 295.2489,-478.1485"/>
<polygon fill="#191970" stroke="#191970" points="296.2889,-481.4945 305.0865,-475.5908 294.5275,-474.7197 296.2889,-481.4945"/>
</g>
<!-- Node80982 -->
<g id="node12" class="node">
<title>Node80982</title>
<g id="a_node12"><a xlink:href="quickjs_8c.html#a9780456a71703c53244b88831bc8fb7a" target="_top" xlink:title="add_gc_object">
<polygon fill="none" stroke="#ff0000" points="308,-418.5 308,-437.5 388,-437.5 388,-418.5 308,-418.5"/>
<text text-anchor="middle" x="348" y="-425.5" font-family="Helvetica,sans-Serif" font-size="10.00" fill="#000000">add_gc_object</text>
</a>
</g>
</g>
<!-- Node80980&#45;&gt;Node80982 -->
<g id="edge12" class="edge">
<title>Node80980&#45;&gt;Node80982</title>
<path fill="none" stroke="#191970" d="M187.783,-513.4831C203.2309,-497.327 236.9627,-464.5806 272,-447 280.0372,-442.9672 288.9924,-439.7501 297.8552,-437.1964"/>
<polygon fill="#191970" stroke="#191970" points="298.9889,-440.5173 307.7685,-434.587 297.207,-433.7479 298.9889,-440.5173"/>
</g>
<!-- Node80985 -->
<g id="node13" class="node">
<title>Node80985</title>
<g id="a_node13"><a xlink:href="quickjs_8c.html#a267b1caf06e54dfdf809cd51602400b4" target="_top" xlink:title="bc_get_atom">
<polygon fill="none" stroke="#ff0000" points="311.5,-304.5 311.5,-323.5 384.5,-323.5 384.5,-304.5 311.5,-304.5"/>
<text text-anchor="middle" x="348" y="-311.5" font-family="Helvetica,sans-Serif" font-size="10.00" fill="#000000">bc_get_atom</text>
</a>
</g>
</g>
<!-- Node80980&#45;&gt;Node80985 -->
<g id="edge13" class="edge">
<title>Node80980&#45;&gt;Node80985</title>
<path fill="none" stroke="#191970" d="M180.7548,-513.3276C186.9649,-481.9917 210.9028,-382.4365 272,-333 280.4129,-326.1928 290.9383,-321.7816 301.4503,-318.9347"/>
<polygon fill="#191970" stroke="#191970" points="302.4815,-322.2895 311.4552,-316.6573 300.9278,-315.4641 302.4815,-322.2895"/>
</g>
<!-- Node80989 -->
<g id="node14" class="node">
<title>Node80989</title>
<g id="a_node14"><a xlink:href="quickjs_8c.html#a5b9cc9e01f251602d29fa6ef7a058375" target="_top" xlink:title="bc_get_buf">
<polygon fill="none" stroke="#ff0000" points="315.5,-380.5 315.5,-399.5 380.5,-399.5 380.5,-380.5 315.5,-380.5"/>
<text text-anchor="middle" x="348" y="-387.5" font-family="Helvetica,sans-Serif" font-size="10.00" fill="#000000">bc_get_buf</text>
</a>
</g>
</g>
<!-- Node80980&#45;&gt;Node80989 -->
<g id="edge15" class="edge">
<title>Node80980&#45;&gt;Node80989</title>
<path fill="none" stroke="#191970" d="M184.032,-513.2858C196.0454,-491.1027 228.6595,-436.5201 272,-409 282.0346,-402.6283 294.0757,-398.3926 305.5837,-395.5772"/>
<polygon fill="#191970" stroke="#191970" points="306.4524,-398.9706 315.4956,-393.4507 304.9839,-392.1263 306.4524,-398.9706"/>
</g>
<!-- Node80990 -->
<g id="node15" class="node">
<title>Node80990</title>
<g id="a_node15"><a xlink:href="quickjs_8c.html#ae570553dda5a5d71df3fb0466f1bef01" target="_top" xlink:title="bc_get_flags">
<polygon fill="none" stroke="#000000" points="312,-266.5 312,-285.5 384,-285.5 384,-266.5 312,-266.5"/>
<text text-anchor="middle" x="348" y="-273.5" font-family="Helvetica,sans-Serif" font-size="10.00" fill="#000000">bc_get_flags</text>
</a>
</g>
</g>
<!-- Node80980&#45;&gt;Node80990 -->
<g id="edge16" class="edge">
<title>Node80980&#45;&gt;Node80990</title>
<path fill="none" stroke="#191970" d="M179.8844,-513.4556C183.6553,-478.4593 201.5834,-356.0462 272,-295 280.4186,-287.7016 291.232,-283.1286 302.0453,-280.2841"/>
<polygon fill="#191970" stroke="#191970" points="302.8849,-283.6833 311.9071,-278.1291 301.3905,-276.8447 302.8849,-283.6833"/>
</g>
<!-- Node80991 -->
<g id="node16" class="node">
<title>Node80991</title>
<g id="a_node16"><a xlink:href="quickjs_8c.html#aa592b98c1f5b7d41c8384c03b642b7ad" target="_top" xlink:title="bc_get_leb128_int">
<polygon fill="none" stroke="#000000" points="300.5,-494.5 300.5,-513.5 395.5,-513.5 395.5,-494.5 300.5,-494.5"/>
<text text-anchor="middle" x="348" y="-501.5" font-family="Helvetica,sans-Serif" font-size="10.00" fill="#000000">bc_get_leb128_int</text>
</a>
</g>
</g>
<!-- Node80980&#45;&gt;Node80991 -->
<g id="edge18" class="edge">
<title>Node80980&#45;&gt;Node80991</title>
<path fill="none" stroke="#191970" d="M231.0846,-517.1443C249.8284,-515.037 271.0804,-512.6478 290.2763,-510.4896"/>
<polygon fill="#191970" stroke="#191970" points="290.8541,-513.9468 300.4004,-509.3514 290.072,-506.9907 290.8541,-513.9468"/>
</g>
<!-- Node80992 -->
<g id="node17" class="node">
<title>Node80992</title>
<g id="a_node17"><a xlink:href="quickjs_8c.html#ab3a28d4aac1f193d1d135b37b407a07b" target="_top" xlink:title="bc_get_leb128_u16">
<polygon fill="none" stroke="#000000" points="297.5,-342.5 297.5,-361.5 398.5,-361.5 398.5,-342.5 297.5,-342.5"/>
<text text-anchor="middle" x="348" y="-349.5" font-family="Helvetica,sans-Serif" font-size="10.00" fill="#000000">bc_get_leb128_u16</text>
</a>
</g>
</g>
<!-- Node80980&#45;&gt;Node80992 -->
<g id="edge20" class="edge">
<title>Node80980&#45;&gt;Node80992</title>
<path fill="none" stroke="#191970" d="M181.9831,-513.3806C190.877,-486.3621 219.8831,-409.267 272,-371 276.7756,-367.4935 282.1267,-364.6302 287.719,-362.2927"/>
<polygon fill="#191970" stroke="#191970" points="289.0815,-365.522 297.2992,-358.8346 286.7049,-358.9378 289.0815,-365.522"/>
</g>
<!-- Node80993 -->
<g id="node18" class="node">
<title>Node80993</title>
<g id="a_node18"><a xlink:href="quickjs_8c.html#acd5d73f58a821266896a76426d7c110e" target="_top" xlink:title="bc_get_sleb128">
<polygon fill="none" stroke="#ff0000" points="305.5,-228.5 305.5,-247.5 390.5,-247.5 390.5,-228.5 305.5,-228.5"/>
<text text-anchor="middle" x="348" y="-235.5" font-family="Helvetica,sans-Serif" font-size="10.00" fill="#000000">bc_get_sleb128</text>
</a>
</g>
</g>
<!-- Node80980&#45;&gt;Node80993 -->
<g id="edge22" class="edge">
<title>Node80980&#45;&gt;Node80993</title>
<path fill="none" stroke="#191970" d="M179.2724,-513.2681C180.9056,-474.5086 192.3191,-329.7145 272,-257 278.6422,-250.9385 286.9229,-246.7406 295.5527,-243.8481"/>
<polygon fill="#191970" stroke="#191970" points="296.6843,-247.1661 305.3757,-241.1072 294.8029,-240.4237 296.6843,-247.1661"/>
</g>
<!-- Node80995 -->
<g id="node19" class="node">
<title>Node80995</title>
<g id="a_node19"><a xlink:href="quickjs_8c.html#a8454d184ad3645b2ccfcd8e4ded1a8e9" target="_top" xlink:title="bc_get_u16">
<polygon fill="none" stroke="#ff0000" points="314.5,-190.5 314.5,-209.5 381.5,-209.5 381.5,-190.5 314.5,-190.5"/>
<text text-anchor="middle" x="348" y="-197.5" font-family="Helvetica,sans-Serif" font-size="10.00" fill="#000000">bc_get_u16</text>
</a>
</g>
</g>
<!-- Node80980&#45;&gt;Node80995 -->
<g id="edge23" class="edge">
<title>Node80980&#45;&gt;Node80995</title>
<path fill="none" stroke="#191970" d="M180.6687,-513.2232C188.919,-465.9891 226.7703,-261.9411 272,-219 280.6967,-210.7434 292.4183,-205.9204 304.0495,-203.1452"/>
<polygon fill="#191970" stroke="#191970" points="305.0104,-206.5246 314.1693,-201.1988 303.6882,-199.6506 305.0104,-206.5246"/>
</g>
<!-- Node80997 -->
<g id="node20" class="node">
<title>Node80997</title>
<g id="a_node20"><a xlink:href="quickjs_8c.html#acde90ec09be2051ca056c973ac9c2a38" target="_top" xlink:title="bc_get_u64">
<polygon fill="none" stroke="#ff0000" points="314.5,-912.5 314.5,-931.5 381.5,-931.5 381.5,-912.5 314.5,-912.5"/>
<text text-anchor="middle" x="348" y="-919.5" font-family="Helvetica,sans-Serif" font-size="10.00" fill="#000000">bc_get_u64</text>
</a>
</g>
</g>
<!-- Node80980&#45;&gt;Node80997 -->
<g id="edge24" class="edge">
<title>Node80980&#45;&gt;Node80997</title>
<path fill="none" stroke="#191970" d="M181.2019,-532.5838C194.6222,-590.9206 265.0685,-896.034 272,-903 280.6188,-911.6617 292.5488,-916.5839 304.4042,-919.3245"/>
<polygon fill="#191970" stroke="#191970" points="303.8014,-922.7723 314.2709,-921.1477 305.0734,-915.8888 303.8014,-922.7723"/>
</g>
<!-- Node80999 -->
<g id="node21" class="node">
<title>Node80999</title>
<g id="a_node21"><a xlink:href="quickjs_8c.html#a0a8765bd4012467d9139bc24aabcb3ca" target="_top" xlink:title="JS_DefinePropertyValue">
<polygon fill="none" stroke="#ff0000" points="286,-798.5 286,-817.5 410,-817.5 410,-798.5 286,-798.5"/>
<text text-anchor="middle" x="348" y="-805.5" font-family="Helvetica,sans-Serif" font-size="10.00" fill="#000000">JS_DefinePropertyValue</text>
</a>
</g>
</g>
<!-- Node80980&#45;&gt;Node80999 -->
<g id="edge26" class="edge">
<title>Node80980&#45;&gt;Node80999</title>
<path fill="none" stroke="#191970" d="M179.4806,-532.6746C181.8912,-570.5854 195.819,-710.544 272,-784 276.1087,-787.9618 280.8666,-791.2699 285.9577,-794.0322"/>
<polygon fill="#191970" stroke="#191970" points="284.8709,-797.3871 295.4135,-798.4382 287.8274,-791.0421 284.8709,-797.3871"/>
</g>
<!-- Node81021 -->
<g id="node22" class="node">
<title>Node81021</title>
<g id="a_node22"><a xlink:href="quickjs_8h.html#afaa20c47565bc704c6c85f3d77254e7d" target="_top" xlink:title="JS_FreeValue">
<polygon fill="none" stroke="#ff0000" points="461,-798.5 461,-817.5 539,-817.5 539,-798.5 461,-798.5"/>
<text text-anchor="middle" x="500" y="-805.5" font-family="Helvetica,sans-Serif" font-size="10.00" fill="#000000">JS_FreeValue</text>
</a>
</g>
</g>
<!-- Node80980&#45;&gt;Node81021 -->
<g id="edge36" class="edge">
<title>Node80980&#45;&gt;Node81021</title>
<path fill="none" stroke="#191970" d="M179.8844,-532.5444C183.6553,-567.5407 201.5834,-689.9538 272,-751 272,-751 385.0294,-779.2573 451.9224,-795.9806"/>
<polygon fill="#191970" stroke="#191970" points="451.2876,-799.4296 461.8379,-798.4595 452.9854,-792.6386 451.2876,-799.4296"/>
</g>
<!-- Node81214 -->
<g id="node23" class="node">
<title>Node81214</title>
<g id="a_node23"><a xlink:href="quickjs_8c.html#a12aed667595f49667e0095f0a028e0d4" target="_top" xlink:title="JS_DefinePropertyValueUint32">
<polygon fill="none" stroke="#ff0000" points="272,-874.5 272,-893.5 424,-893.5 424,-874.5 272,-874.5"/>
<text text-anchor="middle" x="348" y="-881.5" font-family="Helvetica,sans-Serif" font-size="10.00" fill="#000000">JS_DefinePropertyValueUint32</text>
</a>
</g>
</g>
<!-- Node80980&#45;&gt;Node81214 -->
<g id="edge28" class="edge">
<title>Node80980&#45;&gt;Node81214</title>
<path fill="none" stroke="#191970" d="M181.0456,-532.7877C192.2748,-586.1363 246.8367,-840.3481 272,-865 273.4573,-866.4277 275.0047,-867.7533 276.6267,-868.9838"/>
<polygon fill="#191970" stroke="#191970" points="274.9477,-872.0614 285.2863,-874.3777 278.6487,-866.1198 274.9477,-872.0614"/>
</g>
<!-- Node81265 -->
<g id="node24" class="node">
<title>Node81265</title>
<g id="a_node24"><a xlink:href="quickjs_8c.html#a2814982d965920b44b14bef36ba18bba" target="_top" xlink:title="JS_DupContext">
<polygon fill="none" stroke="#000000" points="305,-836.5 305,-855.5 391,-855.5 391,-836.5 305,-836.5"/>
<text text-anchor="middle" x="348" y="-843.5" font-family="Helvetica,sans-Serif" font-size="10.00" fill="#000000">JS_DupContext</text>
</a>
</g>
</g>
<!-- Node80980&#45;&gt;Node81265 -->
<g id="edge29" class="edge">
<title>Node80980&#45;&gt;Node81265</title>
<path fill="none" stroke="#191970" d="M180.6687,-532.7768C188.919,-580.0109 226.7703,-784.0589 272,-827 278.4497,-833.1233 286.5631,-837.3581 295.0695,-840.2697"/>
<polygon fill="#191970" stroke="#191970" points="294.1971,-843.6602 304.7728,-843.0248 296.1091,-836.9264 294.1971,-843.6602"/>
</g>
<!-- Node81020 -->
<g id="node25" class="node">
<title>Node81020</title>
<g id="a_node25"><a xlink:href="quickjs_8h.html#a775522f2d084fc8fa0fcb33f390006b4" target="_top" xlink:title="JS_DupValue">
<polygon fill="none" stroke="#000000" points="309.5,-684.5 309.5,-703.5 386.5,-703.5 386.5,-684.5 309.5,-684.5"/>
<text text-anchor="middle" x="348" y="-691.5" font-family="Helvetica,sans-Serif" font-size="10.00" fill="#000000">JS_DupValue</text>
</a>
</g>
</g>
<!-- Node80980&#45;&gt;Node81020 -->
<g id="edge30" class="edge">
<title>Node80980&#45;&gt;Node81020</title>
<path fill="none" stroke="#191970" d="M181.9831,-532.6194C190.877,-559.6379 219.8831,-636.733 272,-675 279.9737,-680.8547 289.5514,-684.9163 299.178,-687.731"/>
<polygon fill="#191970" stroke="#191970" points="298.6113,-691.1973 309.1625,-690.2359 300.3147,-684.4077 298.6113,-691.1973"/>
</g>
<!-- Node81032 -->
<g id="node26" class="node">
<title>Node81032</title>
<g id="a_node26"><a xlink:href="quickjs_8c.html#a05db980a30860573f912cbeb64e99c3c" target="_top" xlink:title="js_free_module_def">
<polygon fill="none" stroke="#ff0000" points="297.5,-950.5 297.5,-969.5 398.5,-969.5 398.5,-950.5 297.5,-950.5"/>
<text text-anchor="middle" x="348" y="-957.5" font-family="Helvetica,sans-Serif" font-size="10.00" fill="#000000">js_free_module_def</text>
</a>
</g>
</g>
<!-- Node80980&#45;&gt;Node81032 -->
<g id="edge31" class="edge">
<title>Node80980&#45;&gt;Node81032</title>
<path fill="none" stroke="#191970" d="M181.2123,-532.5664C188.9029,-565.8593 215.1423,-679.759 236,-774 252.4074,-848.1332 219.1952,-886.4419 272,-941 276.4692,-945.6176 281.8777,-949.178 287.7265,-951.914"/>
<polygon fill="#191970" stroke="#191970" points="286.6185,-955.2378 297.2081,-955.5684 289.136,-948.7062 286.6185,-955.2378"/>
</g>
<!-- Node81047 -->
<g id="node27" class="node">
<title>Node81047</title>
<g id="a_node27"><a xlink:href="quickjs_8h.html#ad80a83d73e9b7d872b88fbf2943aebe9" target="_top" xlink:title="JS_IsException">
<polygon fill="none" stroke="#000000" points="305,-646.5 305,-665.5 391,-665.5 391,-646.5 305,-646.5"/>
<text text-anchor="middle" x="348" y="-653.5" font-family="Helvetica,sans-Serif" font-size="10.00" fill="#000000">JS_IsException</text>
</a>
</g>
</g>
<!-- Node80980&#45;&gt;Node81047 -->
<g id="edge37" class="edge">
<title>Node80980&#45;&gt;Node81047</title>
<path fill="none" stroke="#191970" d="M184.032,-532.7142C196.0454,-554.8973 228.6595,-609.4799 272,-637 278.9382,-641.4056 286.8357,-644.79 294.8529,-647.3898"/>
<polygon fill="#191970" stroke="#191970" points="294.0581,-650.8028 304.6351,-650.1878 295.9832,-644.0726 294.0581,-650.8028"/>
</g>
<!-- Node81116 -->
<g id="node28" class="node">
<title>Node81116</title>
<g id="a_node28"><a xlink:href="quickjs_8h.html#a4e407128a9605afb77523e49e9a627fd" target="_top" xlink:title="JS_IsUndefined">
<polygon fill="none" stroke="#000000" points="305,-608.5 305,-627.5 391,-627.5 391,-608.5 305,-608.5"/>
<text text-anchor="middle" x="348" y="-615.5" font-family="Helvetica,sans-Serif" font-size="10.00" fill="#000000">JS_IsUndefined</text>
</a>
</g>
</g>
<!-- Node80980&#45;&gt;Node81116 -->
<g id="edge38" class="edge">
<title>Node80980&#45;&gt;Node81116</title>
<path fill="none" stroke="#191970" d="M187.783,-532.5169C203.2309,-548.673 236.9627,-581.4194 272,-599 279.0942,-602.5596 286.9035,-605.4837 294.7333,-607.8771"/>
<polygon fill="#191970" stroke="#191970" points="294.0368,-611.3164 304.6096,-610.6326 295.9181,-604.5739 294.0368,-611.3164"/>
</g>
<!-- Node81392 -->
<g id="node29" class="node">
<title>Node81392</title>
<g id="a_node29"><a xlink:href="quickjs_8c.html#a882c4281596de628ebd966718888e30a" target="_top" xlink:title="js_new_module_def">
<polygon fill="none" stroke="#ff0000" points="296.5,-722.5 296.5,-741.5 399.5,-741.5 399.5,-722.5 296.5,-722.5"/>
<text text-anchor="middle" x="348" y="-729.5" font-family="Helvetica,sans-Serif" font-size="10.00" fill="#000000">js_new_module_def</text>
</a>
</g>
</g>
<!-- Node80980&#45;&gt;Node81392 -->
<g id="edge39" class="edge">
<title>Node80980&#45;&gt;Node81392</title>
<path fill="none" stroke="#191970" d="M180.7548,-532.6724C186.9649,-564.0083 210.9028,-663.5635 272,-713 276.4274,-716.5824 281.4399,-719.5012 286.7276,-721.8776"/>
<polygon fill="#191970" stroke="#191970" points="285.8849,-725.3021 296.4757,-725.5957 288.3796,-718.7617 285.8849,-725.3021"/>
</g>
<!-- Node81207 -->
<g id="node30" class="node">
<title>Node81207</title>
<g id="a_node30"><a xlink:href="quickjs_8c.html#ad4ba09e4c7ab9f28c144182e1aacf1f6" target="_top" xlink:title="JS_NewArray">
<polygon fill="none" stroke="#ff0000" points="309.5,-570.5 309.5,-589.5 386.5,-589.5 386.5,-570.5 309.5,-570.5"/>
<text text-anchor="middle" x="348" y="-577.5" font-family="Helvetica,sans-Serif" font-size="10.00" fill="#000000">JS_NewArray</text>
</a>
</g>
</g>
<!-- Node80980&#45;&gt;Node81207 -->
<g id="edge41" class="edge">
<title>Node80980&#45;&gt;Node81207</title>
<path fill="none" stroke="#191970" d="M205.3719,-532.6356C223.9436,-539.3531 249.421,-548.4315 272,-556 283.3646,-559.8094 295.7401,-563.7888 307.1412,-567.3869"/>
<polygon fill="#191970" stroke="#191970" points="306.2703,-570.7818 316.8596,-570.4369 308.3665,-564.103 306.2703,-570.7818"/>
</g>
<!-- Node80985&#45;&gt;Node80955 -->
<g id="edge14" class="edge">
<title>Node80985&#45;&gt;Node80955</title>
<path fill="none" stroke="#191970" d="M384.5893,-307.9441C397.4366,-305.0229 411.7196,-300.8451 424,-295 445.9101,-284.5714 467.7384,-267.3032 482.3422,-254.5013"/>
<polygon fill="#191970" stroke="#191970" points="484.9584,-256.8556 490.0518,-247.5653 480.2767,-251.6516 484.9584,-256.8556"/>
</g>
<!-- Node80991&#45;&gt;Node80955 -->
<g id="edge19" class="edge">
<title>Node80991&#45;&gt;Node80955</title>
<path fill="none" stroke="#191970" d="M395.5711,-499.9117C405.9793,-497.0304 416.202,-492.3914 424,-485 457.8253,-452.9383 486.8032,-310.2397 496.5238,-257.5942"/>
<polygon fill="#191970" stroke="#191970" points="500.0066,-258.0034 498.3469,-247.5393 493.1189,-256.7545 500.0066,-258.0034"/>
</g>
<!-- Node80992&#45;&gt;Node80955 -->
<g id="edge21" class="edge">
<title>Node80992&#45;&gt;Node80955</title>
<path fill="none" stroke="#191970" d="M398.5672,-344.2703C407.4703,-341.568 416.3308,-337.9213 424,-333 454.2141,-313.6117 477.8095,-278.0911 490.2562,-256.4067"/>
<polygon fill="#191970" stroke="#191970" points="493.392,-257.9688 495.1742,-247.5249 487.2681,-254.5779 493.392,-257.9688"/>
</g>
<!-- Node80999&#45;&gt;Node81021 -->
<g id="edge27" class="edge">
<title>Node80999&#45;&gt;Node81021</title>
<path fill="none" stroke="#191970" d="M410.2628,-808C423.7188,-808 437.769,-808 450.6499,-808"/>
<polygon fill="#191970" stroke="#191970" points="450.6957,-811.5001 460.6956,-808 450.6956,-804.5001 450.6957,-811.5001"/>
</g>
<!-- Node81032&#45;&gt;Node80947 -->
<g id="edge32" class="edge">
<title>Node81032&#45;&gt;Node80947</title>
<path fill="none" stroke="#191970" d="M398.6138,-966.3267C421.0144,-969.1268 446.7392,-972.3424 466.671,-974.8339"/>
<polygon fill="#191970" stroke="#191970" points="466.4464,-978.333 476.8034,-976.1004 467.3147,-971.387 466.4464,-978.333"/>
</g>
<!-- Node81032&#45;&gt;Node80949 -->
<g id="edge33" class="edge">
<title>Node81032&#45;&gt;Node80949</title>
<path fill="none" stroke="#191970" d="M398.682,-955.4611C408.0967,-952.5182 417.1189,-947.9671 424,-941 472.7847,-891.6056 425.3963,-849.1858 460,-789 464.6669,-780.8829 471.6017,-773.4243 478.3922,-767.3047"/>
<polygon fill="#191970" stroke="#191970" points="480.7531,-769.8924 486.1527,-760.7768 476.247,-764.5356 480.7531,-769.8924"/>
</g>
<!-- Node81032&#45;&gt;Node81021 -->
<g id="edge34" class="edge">
<title>Node81032&#45;&gt;Node81021</title>
<path fill="none" stroke="#191970" d="M398.8347,-953.3449C407.8102,-950.5429 416.6281,-946.5846 424,-941 462.5338,-911.8088 484.6633,-857.015 494.2562,-827.6958"/>
<polygon fill="#191970" stroke="#191970" points="497.7021,-828.4009 497.3271,-817.8127 491.0174,-826.3238 497.7021,-828.4009"/>
</g>
<!-- Node81392&#45;&gt;Node80949 -->
<g id="edge40" class="edge">
<title>Node81392&#45;&gt;Node80949</title>
<path fill="none" stroke="#191970" d="M399.8846,-738.4856C416.5503,-740.5688 434.9419,-742.8677 451.3657,-744.9207"/>
<polygon fill="#191970" stroke="#191970" points="450.9476,-748.3956 461.3045,-746.1631 451.8159,-741.4497 450.9476,-748.3956"/>
</g>
</g>
</svg>
        <g id="navigator" transform="translate(0 0)" fill="#404254">
                <rect fill="#f2f5e9" fill-opacity="0.5" stroke="#606060" stroke-width=".5" x="0" y="0" width="60" height="60"/>
                <use id="zoomplus" xlink:href="#zoomPlus" x="17" y="9" onmousedown="handleZoom(evt,'in')"/>
                <use id="zoomminus" xlink:href="#zoomMin" x="42" y="9" onmousedown="handleZoom(evt,'out')"/>
                <use id="reset" xlink:href="#resetDef" x="30" y="36" onmousedown="handleReset()"/>
                <g id="arrowUp" xlink:href="#dirArrow" transform="translate(30 24)" onmousedown="handlePan(0,-1)">
                  <use xlink:href="#rim" fill="#404040">
                        <set attributeName="fill" to="#808080" begin="arrowUp.mouseover" end="arrowUp.mouseout"/>
                  </use>
                  <path fill="none" stroke="white" stroke-width="1.5" d="M0,-3.0v7 M-2.5,-0.5L0,-3.0L2.5,-0.5"/>
                </g>
                <g id="arrowRight" xlink:href="#dirArrow" transform="rotate(90) translate(36 -43)" onmousedown="handlePan(1,0)">
                  <use xlink:href="#rim" fill="#404040">
                        <set attributeName="fill" to="#808080" begin="arrowRight.mouseover" end="arrowRight.mouseout"/>
                  </use>
                  <path fill="none" stroke="white" stroke-width="1.5" d="M0,-3.0v7 M-2.5,-0.5L0,-3.0L2.5,-0.5"/>
                </g>
                <g id="arrowDown" xlink:href="#dirArrow" transform="rotate(180) translate(-30 -48)" onmousedown="handlePan(0,1)">
                  <use xlink:href="#rim" fill="#404040">
                        <set attributeName="fill" to="#808080" begin="arrowDown.mouseover" end="arrowDown.mouseout"/>
                  </use>
                  <path fill="none" stroke="white" stroke-width="1.5" d="M0,-3.0v7 M-2.5,-0.5L0,-3.0L2.5,-0.5"/>
                </g>
                <g id="arrowLeft" xlink:href="#dirArrow" transform="rotate(270) translate(-36 17)" onmousedown="handlePan(-1,0)">
                  <use xlink:href="#rim" fill="#404040">
                        <set attributeName="fill" to="#808080" begin="arrowLeft.mouseover" end="arrowLeft.mouseout"/>
                  </use>
                  <path fill="none" stroke="white" stroke-width="1.5" d="M0,-3.0v7 M-2.5,-0.5L0,-3.0L2.5,-0.5"/>
                </g>
        </g>
        <svg viewBox="0 0 15 15" width="100%" height="30px" preserveAspectRatio="xMaxYMin meet">
         <g id="arrow_out" transform="scale(0.3 0.3)">
          <a xlink:href="quickjs_8h_a12be2ea9c010752715072489497594e9_cgraph_org.svg" target="_base">
           <rect id="button" ry="5" rx="5" y="6" x="6" height="38" width="38"
                fill="#f2f5e9" fill-opacity="0.5" stroke="#606060" stroke-width="1.0"/>
           <path id="arrow"
             d="M 11.500037,31.436501 C 11.940474,20.09759 22.043105,11.32322 32.158766,21.979434 L 37.068811,17.246167 C 37.068811,17.246167 37.088388,32 37.088388,32 L 22.160133,31.978069 C 22.160133,31.978069 26.997745,27.140456 26.997745,27.140456 C 18.528582,18.264221 13.291696,25.230495 11.500037,31.436501 z"
             style="fill:#404040;"/>
          </a>
         </g>
        </svg>
</svg>
