<?xml version="1.0" encoding="UTF-8" standalone="no"?>
<!DOCTYPE svg PUBLIC "-//W3C//DTD SVG 1.1//EN"
 "http://www.w3.org/Graphics/SVG/1.1/DTD/svg11.dtd">
<!-- Generated by graphviz version 2.40.1 (20161225.0304)
 -->
<!-- Title: js_os_poll Pages: 1 -->
<!--zoomable 525 -->
<svg id="main" version="1.1" xmlns="http://www.w3.org/2000/svg" xmlns:xlink="http://www.w3.org/1999/xlink" xml:space="preserve" onload="init(evt)">
<style type="text/css"><![CDATA[
.edge:hover path { stroke: red; }
.edge:hover polygon { stroke: red; fill: red; }
]]></style>
<script type="text/javascript"><![CDATA[
var edges = document.getElementsByTagName('g');
if (edges && edges.length) {
  for (var i=0;i<edges.length;i++) {
    if (edges[i].id.substr(0,4)=='edge') {
      edges[i].setAttribute('class','edge');
    }
  }
}
]]></script>
        <defs>
                <circle id="rim" cx="0" cy="0" r="7"/>
                <circle id="rim2" cx="0" cy="0" r="3.5"/>
                <g id="zoomPlus">
                        <use xlink:href="#rim" fill="#404040">
                                <set attributeName="fill" to="#808080" begin="zoomplus.mouseover" end="zoomplus.mouseout"/>
                        </use>
                        <path d="M-4,0h8M0,-4v8" fill="none" stroke="white" stroke-width="1.5" pointer-events="none"/>
                </g>
                <g id="zoomMin">
                        <use xlink:href="#rim" fill="#404040">
                                <set attributeName="fill" to="#808080" begin="zoomminus.mouseover" end="zoomminus.mouseout"/>
                        </use>
                        <path d="M-4,0h8" fill="none" stroke="white" stroke-width="1.5" pointer-events="none"/>
                </g>
                <g id="dirArrow">
                        <path fill="none" stroke="white" stroke-width="1.5" d="M0,-3.0v7 M-2.5,-0.5L0,-3.0L2.5,-0.5"/>
                </g>
               <g id="resetDef">
                       <use xlink:href="#rim2" fill="#404040">
                               <set attributeName="fill" to="#808080" begin="reset.mouseover" end="reset.mouseout"/>
                       </use>
               </g>
        </defs>

<script type="text/javascript">
var viewWidth = 583;
var viewHeight = 525;
var sectionId = 'dynsection-85';
</script>
<script xlink:href="svgpan.js"/>
<svg id="graph" class="graph">
<g id="viewport">
<title>js_os_poll</title>
<!-- Node17447 -->
<g id="node1" class="node">
<title>Node17447</title>
<polygon fill="#bfbfbf" stroke="#000000" points="0,-133.5 0,-152.5 60,-152.5 60,-133.5 0,-133.5"/>
<text text-anchor="middle" x="30" y="-140.5" font-family="Helvetica,sans-Serif" font-size="10.00" fill="#000000">js_os_poll</text>
</g>
<!-- Node17448 -->
<g id="node2" class="node">
<title>Node17448</title>
<g id="a_node2"><a xlink:href="quickjs-libc_8c.html#abb1cbe3fdf905e81f603a3a0bfce475a" target="_top" xlink:title="call_handler">
<polygon fill="none" stroke="#000000" points="105,-294.5 105,-313.5 173,-313.5 173,-294.5 105,-294.5"/>
<text text-anchor="middle" x="139" y="-301.5" font-family="Helvetica,sans-Serif" font-size="10.00" fill="#000000">call_handler</text>
</a>
</g>
</g>
<!-- Node17447&#45;&gt;Node17448 -->
<g id="edge1" class="edge">
<title>Node17447&#45;&gt;Node17448</title>
<path fill="none" stroke="#191970" d="M36.492,-152.5891C54.1708,-178.7018 103.3944,-251.4082 126.5975,-285.6808"/>
<polygon fill="#191970" stroke="#191970" points="123.8997,-287.939 132.4042,-294.2576 129.6962,-284.0146 123.8997,-287.939"/>
</g>
<!-- Node17522 -->
<g id="node7" class="node">
<title>Node17522</title>
<g id="a_node7"><a xlink:href="quickjs_8h.html#afaa20c47565bc704c6c85f3d77254e7d" target="_top" xlink:title="JS_FreeValue">
<polygon fill="none" stroke="#ff0000" points="493,-436.5 493,-455.5 571,-455.5 571,-436.5 493,-436.5"/>
<text text-anchor="middle" x="532" y="-443.5" font-family="Helvetica,sans-Serif" font-size="10.00" fill="#000000">JS_FreeValue</text>
</a>
</g>
</g>
<!-- Node17447&#45;&gt;Node17522 -->
<g id="edge22" class="edge">
<title>Node17447&#45;&gt;Node17522</title>
<path fill="none" stroke="#191970" d="M31.9942,-152.6335C38.1092,-180.6788 58.4944,-264.0172 96,-323 137.315,-387.9736 154.3298,-402.7034 218,-446 306.8716,-506.4339 350.7326,-536.0425 453,-503 477.4419,-495.1028 500.6877,-476.5142 515.5541,-462.6992"/>
<polygon fill="#191970" stroke="#191970" points="518.1343,-465.0733 522.9054,-455.6135 513.2765,-460.0333 518.1343,-465.0733"/>
</g>
<!-- Node17601 -->
<g id="node8" class="node">
<title>Node17601</title>
<g id="a_node8"><a xlink:href="quickjs_8h.html#a149f24b67e745bad93573b3b4c80db4c" target="_top" xlink:title="JS_IsNull">
<polygon fill="none" stroke="#000000" points="502.5,-209.5 502.5,-228.5 561.5,-228.5 561.5,-209.5 502.5,-209.5"/>
<text text-anchor="middle" x="532" y="-216.5" font-family="Helvetica,sans-Serif" font-size="10.00" fill="#000000">JS_IsNull</text>
</a>
</g>
</g>
<!-- Node17447&#45;&gt;Node17601 -->
<g id="edge24" class="edge">
<title>Node17447&#45;&gt;Node17601</title>
<path fill="none" stroke="#191970" d="M54.741,-152.5449C66.9905,-156.9353 82.0991,-161.8551 96,-165 239.7005,-197.5099 414.7769,-211.7037 492.0649,-216.713"/>
<polygon fill="#191970" stroke="#191970" points="492.1074,-220.2225 502.3081,-217.3598 492.5486,-213.2364 492.1074,-220.2225"/>
</g>
<!-- Node17875 -->
<g id="node9" class="node">
<title>Node17875</title>
<g id="a_node9"><a xlink:href="list_8h.html#acc8877b883e77ef12325dd5bfa4be0d3" target="_top" xlink:title="list_empty">
<polygon fill="none" stroke="#000000" points="501,-171.5 501,-190.5 563,-190.5 563,-171.5 501,-171.5"/>
<text text-anchor="middle" x="532" y="-178.5" font-family="Helvetica,sans-Serif" font-size="10.00" fill="#000000">list_empty</text>
</a>
</g>
</g>
<!-- Node17447&#45;&gt;Node17875 -->
<g id="edge25" class="edge">
<title>Node17447&#45;&gt;Node17875</title>
<path fill="none" stroke="#191970" d="M60.2718,-145.2915C146.275,-151.8017 392.1864,-170.4165 490.5751,-177.8643"/>
<polygon fill="#191970" stroke="#191970" points="490.492,-181.3679 500.7277,-178.6328 491.0205,-174.3879 490.492,-181.3679"/>
</g>
<!-- Node17883 -->
<g id="node13" class="node">
<title>Node17883</title>
<g id="a_node13"><a xlink:href="quickjs-libc_8c.html#af489c834058ffaebb737bb9e837619aa" target="_top" xlink:title="free_timer">
<polygon fill="none" stroke="#000000" points="109,-114.5 109,-133.5 169,-133.5 169,-114.5 109,-114.5"/>
<text text-anchor="middle" x="139" y="-121.5" font-family="Helvetica,sans-Serif" font-size="10.00" fill="#000000">free_timer</text>
</a>
</g>
</g>
<!-- Node17447&#45;&gt;Node17883 -->
<g id="edge19" class="edge">
<title>Node17447&#45;&gt;Node17883</title>
<path fill="none" stroke="#191970" d="M60.0733,-137.7579C72.0066,-135.6777 85.91,-133.2542 98.6935,-131.0259"/>
<polygon fill="#191970" stroke="#191970" points="99.3961,-134.4563 108.6465,-129.291 98.194,-127.5603 99.3961,-134.4563"/>
</g>
<!-- Node17884 -->
<g id="node16" class="node">
<title>Node17884</title>
<g id="a_node16"><a xlink:href="quickjs_8c.html#af1866c7f8a91153f11602a2b521d9399" target="_top" xlink:title="JS_GetRuntime">
<polygon fill="none" stroke="#000000" points="96,-76.5 96,-95.5 182,-95.5 182,-76.5 96,-76.5"/>
<text text-anchor="middle" x="139" y="-83.5" font-family="Helvetica,sans-Serif" font-size="10.00" fill="#000000">JS_GetRuntime</text>
</a>
</g>
</g>
<!-- Node17447&#45;&gt;Node17884 -->
<g id="edge23" class="edge">
<title>Node17447&#45;&gt;Node17884</title>
<path fill="none" stroke="#191970" d="M45.4777,-133.4631C58.6919,-125.4732 78.3109,-113.9684 96,-105 99.4031,-103.2746 102.9973,-101.5457 106.5993,-99.8722"/>
<polygon fill="#191970" stroke="#191970" points="108.355,-102.9197 116.0263,-95.612 105.4723,-96.5408 108.355,-102.9197"/>
</g>
<!-- Node17539 -->
<g id="node17" class="node">
<title>Node17539</title>
<g id="a_node17"><a xlink:href="cutils_8h.html#a94f155fcce337a2b9d4719ed8042cbbe" target="_top" xlink:title="max_int">
<polygon fill="none" stroke="#000000" points="113.5,-38.5 113.5,-57.5 164.5,-57.5 164.5,-38.5 113.5,-38.5"/>
<text text-anchor="middle" x="139" y="-45.5" font-family="Helvetica,sans-Serif" font-size="10.00" fill="#000000">max_int</text>
</a>
</g>
</g>
<!-- Node17447&#45;&gt;Node17539 -->
<g id="edge26" class="edge">
<title>Node17447&#45;&gt;Node17539</title>
<path fill="none" stroke="#191970" d="M36.2396,-133.3904C46.8577,-117.6767 69.8489,-86.3038 96,-67 98.6265,-65.0612 101.4821,-63.2644 104.431,-61.6125"/>
<polygon fill="#191970" stroke="#191970" points="106.0579,-64.7121 113.4219,-57.0949 102.915,-58.4573 106.0579,-64.7121"/>
</g>
<!-- Node17885 -->
<g id="node18" class="node">
<title>Node17885</title>
<g id="a_node18"><a xlink:href="quickjs-libc_8c.html#ab9f82007cb6f3e424787919c6740647e" target="_top" xlink:title="unlink_timer">
<polygon fill="none" stroke="#000000" points="104.5,-.5 104.5,-19.5 173.5,-19.5 173.5,-.5 104.5,-.5"/>
<text text-anchor="middle" x="139" y="-7.5" font-family="Helvetica,sans-Serif" font-size="10.00" fill="#000000">unlink_timer</text>
</a>
</g>
</g>
<!-- Node17447&#45;&gt;Node17885 -->
<g id="edge27" class="edge">
<title>Node17447&#45;&gt;Node17885</title>
<path fill="none" stroke="#191970" d="M33.2046,-133.4051C40.8192,-111.9399 61.9483,-59.5368 96,-29 97.6785,-27.4947 99.4955,-26.0931 101.4016,-24.7902"/>
<polygon fill="#191970" stroke="#191970" points="103.2848,-27.744 110.1749,-19.6956 99.7696,-21.6906 103.2848,-27.744"/>
</g>
<!-- Node17449 -->
<g id="node3" class="node">
<title>Node17449</title>
<g id="a_node3"><a xlink:href="quickjs_8c.html#a1a4c02a29525d5cb2085dd8bca3af350" target="_top" xlink:title="JS_Call">
<polygon fill="none" stroke="#000000" points="241,-266.5 241,-285.5 292,-285.5 292,-266.5 241,-266.5"/>
<text text-anchor="middle" x="266.5" y="-273.5" font-family="Helvetica,sans-Serif" font-size="10.00" fill="#000000">JS_Call</text>
</a>
</g>
</g>
<!-- Node17448&#45;&gt;Node17449 -->
<g id="edge2" class="edge">
<title>Node17448&#45;&gt;Node17449</title>
<path fill="none" stroke="#191970" d="M173.1677,-296.4965C191.0093,-292.5784 212.823,-287.7879 230.8741,-283.8237"/>
<polygon fill="#191970" stroke="#191970" points="231.7204,-287.2214 240.7368,-281.6578 230.2188,-280.3843 231.7204,-287.2214"/>
</g>
<!-- Node17460 -->
<g id="node5" class="node">
<title>Node17460</title>
<g id="a_node5"><a xlink:href="quickjs_8h.html#a775522f2d084fc8fa0fcb33f390006b4" target="_top" xlink:title="JS_DupValue">
<polygon fill="none" stroke="#000000" points="493.5,-257.5 493.5,-276.5 570.5,-276.5 570.5,-257.5 493.5,-257.5"/>
<text text-anchor="middle" x="532" y="-264.5" font-family="Helvetica,sans-Serif" font-size="10.00" fill="#000000">JS_DupValue</text>
</a>
</g>
</g>
<!-- Node17448&#45;&gt;Node17460 -->
<g id="edge11" class="edge">
<title>Node17448&#45;&gt;Node17460</title>
<path fill="none" stroke="#191970" d="M150.3862,-294.4906C164.9691,-282.9926 191.5329,-264.2778 218,-257 309.1638,-231.9321 420.8428,-245.3988 483.4522,-256.7072"/>
<polygon fill="#191970" stroke="#191970" points="482.9684,-260.1773 493.4404,-258.5688 484.251,-253.2958 482.9684,-260.1773"/>
</g>
<!-- Node17543 -->
<g id="node6" class="node">
<title>Node17543</title>
<g id="a_node6"><a xlink:href="quickjs_8h.html#ad80a83d73e9b7d872b88fbf2943aebe9" target="_top" xlink:title="JS_IsException">
<polygon fill="none" stroke="#000000" points="489,-309.5 489,-328.5 575,-328.5 575,-309.5 489,-309.5"/>
<text text-anchor="middle" x="532" y="-316.5" font-family="Helvetica,sans-Serif" font-size="10.00" fill="#000000">JS_IsException</text>
</a>
</g>
</g>
<!-- Node17448&#45;&gt;Node17543 -->
<g id="edge13" class="edge">
<title>Node17448&#45;&gt;Node17543</title>
<path fill="none" stroke="#191970" d="M173.1436,-305.5472C215.0365,-307.423 288.2348,-310.6275 351,-313 393.8935,-314.6214 442.5143,-316.2198 478.5546,-317.3587"/>
<polygon fill="#191970" stroke="#191970" points="478.737,-320.8661 488.8421,-317.6821 478.957,-313.8695 478.737,-320.8661"/>
</g>
<!-- Node17448&#45;&gt;Node17522 -->
<g id="edge12" class="edge">
<title>Node17448&#45;&gt;Node17522</title>
<path fill="none" stroke="#191970" d="M173.2724,-312.5359C249.3095,-331.5802 427.4447,-376.8222 453,-389 475.5438,-399.7427 498.3634,-417.0556 513.6408,-429.7858"/>
<polygon fill="#191970" stroke="#191970" points="511.4215,-432.493 521.3027,-436.3157 515.9621,-427.1654 511.4215,-432.493"/>
</g>
<!-- Node17878 -->
<g id="node10" class="node">
<title>Node17878</title>
<g id="a_node10"><a xlink:href="quickjs-libc_8c.html#a82bb7888d024e97e430d98653e97a7bc" target="_top" xlink:title="js_std_dump_error">
<polygon fill="none" stroke="#000000" points="218,-417.5 218,-436.5 315,-436.5 315,-417.5 218,-417.5"/>
<text text-anchor="middle" x="266.5" y="-424.5" font-family="Helvetica,sans-Serif" font-size="10.00" fill="#000000">js_std_dump_error</text>
</a>
</g>
</g>
<!-- Node17448&#45;&gt;Node17878 -->
<g id="edge14" class="edge">
<title>Node17448&#45;&gt;Node17878</title>
<path fill="none" stroke="#191970" d="M148.0456,-313.5623C162.5243,-328.7755 191.9304,-359.2953 218,-384 227.5055,-393.0078 238.3914,-402.712 247.4384,-410.6178"/>
<polygon fill="#191970" stroke="#191970" points="245.2914,-413.3889 255.1374,-417.3012 249.8802,-408.1027 245.2914,-413.3889"/>
</g>
<!-- Node17450 -->
<g id="node4" class="node">
<title>Node17450</title>
<g id="a_node4"><a xlink:href="quickjs_8c.html#ac2894ff4edcdb4e6841bcce9c76081e3" target="_top" xlink:title="JS_CallInternal">
<polygon fill="none" stroke="#ff0000" points="360.5,-266.5 360.5,-285.5 443.5,-285.5 443.5,-266.5 360.5,-266.5"/>
<text text-anchor="middle" x="402" y="-273.5" font-family="Helvetica,sans-Serif" font-size="10.00" fill="#000000">JS_CallInternal</text>
</a>
</g>
</g>
<!-- Node17449&#45;&gt;Node17450 -->
<g id="edge3" class="edge">
<title>Node17449&#45;&gt;Node17450</title>
<path fill="none" stroke="#191970" d="M292.3055,-270.5652C308.6523,-269.3747 330.3703,-268.9924 350.1665,-269.4184"/>
<polygon fill="#191970" stroke="#191970" points="350.2068,-272.9209 360.3049,-269.7148 350.4115,-265.9239 350.2068,-272.9209"/>
</g>
<!-- Node17450&#45;&gt;Node17449 -->
<g id="edge8" class="edge">
<title>Node17450&#45;&gt;Node17449</title>
<path fill="none" stroke="#191970" d="M360.3049,-282.2852C341.7471,-282.9799 320.1124,-282.8958 302.2996,-282.0329"/>
<polygon fill="#191970" stroke="#191970" points="302.4967,-278.5385 292.3055,-281.4348 302.0785,-285.526 302.4967,-278.5385"/>
</g>
<!-- Node17450&#45;&gt;Node17450 -->
<g id="edge7" class="edge">
<title>Node17450&#45;&gt;Node17450</title>
<path fill="none" stroke="#191970" d="M381.9632,-285.7571C372.2156,-294.5653 378.8945,-304 402,-304 416.8019,-304 424.8624,-300.128 426.1814,-295.0292"/>
<polygon fill="#191970" stroke="#191970" points="429.313,-293.4582 422.0368,-285.7571 422.9224,-296.3148 429.313,-293.4582"/>
</g>
<!-- Node17450&#45;&gt;Node17460 -->
<g id="edge4" class="edge">
<title>Node17450&#45;&gt;Node17460</title>
<path fill="none" stroke="#191970" d="M443.8484,-273.1028C456.382,-272.2351 470.2366,-271.2759 483.1776,-270.38"/>
<polygon fill="#191970" stroke="#191970" points="483.5831,-273.8604 493.3175,-269.678 483.0996,-266.8771 483.5831,-273.8604"/>
</g>
<!-- Node17450&#45;&gt;Node17543 -->
<g id="edge5" class="edge">
<title>Node17450&#45;&gt;Node17543</title>
<path fill="none" stroke="#191970" d="M430.8512,-285.5431C449.3649,-291.6669 473.6155,-299.6882 493.7303,-306.3416"/>
<polygon fill="#191970" stroke="#191970" points="492.6362,-309.6661 503.2294,-309.4836 494.8345,-303.0202 492.6362,-309.6661"/>
</g>
<!-- Node17450&#45;&gt;Node17522 -->
<g id="edge6" class="edge">
<title>Node17450&#45;&gt;Node17522</title>
<path fill="none" stroke="#191970" d="M409.3618,-285.627C430.4557,-313.2112 491.3424,-392.8324 518.5673,-428.4342"/>
<polygon fill="#191970" stroke="#191970" points="515.8641,-430.6611 524.7189,-436.4786 521.4246,-426.4089 515.8641,-430.6611"/>
</g>
<!-- Node17450&#45;&gt;Node17601 -->
<g id="edge9" class="edge">
<title>Node17450&#45;&gt;Node17601</title>
<path fill="none" stroke="#191970" d="M423.7591,-266.4595C444.8504,-257.2117 477.0583,-243.0898 500.8611,-232.6532"/>
<polygon fill="#191970" stroke="#191970" points="502.4171,-235.7927 510.1699,-228.5716 499.6061,-229.3819 502.4171,-235.7927"/>
</g>
<!-- Node17450&#45;&gt;Node17875 -->
<g id="edge10" class="edge">
<title>Node17450&#45;&gt;Node17875</title>
<path fill="none" stroke="#191970" d="M411.3879,-266.0502C426.5467,-250.4114 457.873,-219.8217 489,-200 491.7537,-198.2464 494.6967,-196.577 497.7025,-195.0082"/>
<polygon fill="#191970" stroke="#191970" points="499.3016,-198.1228 506.7825,-190.6203 496.2558,-191.8201 499.3016,-198.1228"/>
</g>
<!-- Node17878&#45;&gt;Node17522 -->
<g id="edge18" class="edge">
<title>Node17878&#45;&gt;Node17522</title>
<path fill="none" stroke="#191970" d="M315.1968,-430.4849C362.7556,-433.8884 434.7654,-439.0416 482.5727,-442.4628"/>
<polygon fill="#191970" stroke="#191970" points="482.4618,-445.9638 492.6862,-443.1866 482.9615,-438.9816 482.4618,-445.9638"/>
</g>
<!-- Node17751 -->
<g id="node11" class="node">
<title>Node17751</title>
<g id="a_node11"><a xlink:href="quickjs_8c.html#a8551eaac7ef616910807cebdc515760d" target="_top" xlink:title="JS_GetException">
<polygon fill="none" stroke="#000000" points="355.5,-398.5 355.5,-417.5 448.5,-417.5 448.5,-398.5 355.5,-398.5"/>
<text text-anchor="middle" x="402" y="-405.5" font-family="Helvetica,sans-Serif" font-size="10.00" fill="#000000">JS_GetException</text>
</a>
</g>
</g>
<!-- Node17878&#45;&gt;Node17751 -->
<g id="edge15" class="edge">
<title>Node17878&#45;&gt;Node17751</title>
<path fill="none" stroke="#191970" d="M315.0359,-420.1942C324.8319,-418.8206 335.2121,-417.3651 345.2604,-415.9561"/>
<polygon fill="#191970" stroke="#191970" points="345.747,-419.4222 355.164,-414.5674 344.7749,-412.49 345.747,-419.4222"/>
</g>
<!-- Node17879 -->
<g id="node12" class="node">
<title>Node17879</title>
<g id="a_node12"><a xlink:href="quickjs-libc_8c.html#a410cd5dce0fb0e6a978ed313963f3962" target="_top" xlink:title="js_std_dump_error1">
<polygon fill="none" stroke="#ff0000" points="351,-474.5 351,-493.5 453,-493.5 453,-474.5 351,-474.5"/>
<text text-anchor="middle" x="402" y="-481.5" font-family="Helvetica,sans-Serif" font-size="10.00" fill="#000000">js_std_dump_error1</text>
</a>
</g>
</g>
<!-- Node17878&#45;&gt;Node17879 -->
<g id="edge16" class="edge">
<title>Node17878&#45;&gt;Node17879</title>
<path fill="none" stroke="#191970" d="M289.1797,-436.5405C311.261,-445.8294 345.0324,-460.0358 369.874,-470.4857"/>
<polygon fill="#191970" stroke="#191970" points="368.6716,-473.7769 379.2464,-474.4284 371.3859,-467.3246 368.6716,-473.7769"/>
</g>
<!-- Node17879&#45;&gt;Node17522 -->
<g id="edge17" class="edge">
<title>Node17879&#45;&gt;Node17522</title>
<path fill="none" stroke="#191970" d="M434.8045,-474.411C451.2783,-469.5956 471.4434,-463.7012 489.1273,-458.532"/>
<polygon fill="#191970" stroke="#191970" points="490.5897,-461.7511 499.206,-455.5859 488.6256,-455.0323 490.5897,-461.7511"/>
</g>
<!-- Node17477 -->
<g id="node14" class="node">
<title>Node17477</title>
<g id="a_node14"><a xlink:href="quickjs_8c.html#a69e19dda8a93d613203e0baa06f0ed8d" target="_top" xlink:title="js_free_rt">
<polygon fill="none" stroke="#000000" points="238,-114.5 238,-133.5 295,-133.5 295,-114.5 238,-114.5"/>
<text text-anchor="middle" x="266.5" y="-121.5" font-family="Helvetica,sans-Serif" font-size="10.00" fill="#000000">js_free_rt</text>
</a>
</g>
</g>
<!-- Node17883&#45;&gt;Node17477 -->
<g id="edge20" class="edge">
<title>Node17883&#45;&gt;Node17477</title>
<path fill="none" stroke="#191970" d="M169.2157,-124C186.7373,-124 208.9837,-124 227.7794,-124"/>
<polygon fill="#191970" stroke="#191970" points="227.8145,-127.5001 237.8145,-124 227.8145,-120.5001 227.8145,-127.5001"/>
</g>
<!-- Node17507 -->
<g id="node15" class="node">
<title>Node17507</title>
<g id="a_node15"><a xlink:href="quickjs_8h.html#ab8db583fa5e7c2b1935854a42859daed" target="_top" xlink:title="JS_FreeValueRT">
<polygon fill="none" stroke="#ff0000" points="220.5,-76.5 220.5,-95.5 312.5,-95.5 312.5,-76.5 220.5,-76.5"/>
<text text-anchor="middle" x="266.5" y="-83.5" font-family="Helvetica,sans-Serif" font-size="10.00" fill="#000000">JS_FreeValueRT</text>
</a>
</g>
</g>
<!-- Node17883&#45;&gt;Node17507 -->
<g id="edge21" class="edge">
<title>Node17883&#45;&gt;Node17507</title>
<path fill="none" stroke="#191970" d="M169.2157,-114.9945C185.7432,-110.0687 206.4745,-103.8899 224.5483,-98.5032"/>
<polygon fill="#191970" stroke="#191970" points="225.6886,-101.8156 234.2723,-95.6051 223.6892,-95.1072 225.6886,-101.8156"/>
</g>
<!-- Node17499 -->
<g id="node19" class="node">
<title>Node17499</title>
<g id="a_node19"><a xlink:href="list_8h.html#ab60d5d18869ebeb5d6ab694289576fa7" target="_top" xlink:title="list_del">
<polygon fill="none" stroke="#000000" points="243,-.5 243,-19.5 290,-19.5 290,-.5 243,-.5"/>
<text text-anchor="middle" x="266.5" y="-7.5" font-family="Helvetica,sans-Serif" font-size="10.00" fill="#000000">list_del</text>
</a>
</g>
</g>
<!-- Node17885&#45;&gt;Node17499 -->
<g id="edge28" class="edge">
<title>Node17885&#45;&gt;Node17499</title>
<path fill="none" stroke="#191970" d="M173.5033,-10C191.875,-10 214.3839,-10 232.6552,-10"/>
<polygon fill="#191970" stroke="#191970" points="232.8601,-13.5001 242.8601,-10 232.8601,-6.5001 232.8601,-13.5001"/>
</g>
</g>
</svg>
        <g id="navigator" transform="translate(0 0)" fill="#404254">
                <rect fill="#f2f5e9" fill-opacity="0.5" stroke="#606060" stroke-width=".5" x="0" y="0" width="60" height="60"/>
                <use id="zoomplus" xlink:href="#zoomPlus" x="17" y="9" onmousedown="handleZoom(evt,'in')"/>
                <use id="zoomminus" xlink:href="#zoomMin" x="42" y="9" onmousedown="handleZoom(evt,'out')"/>
                <use id="reset" xlink:href="#resetDef" x="30" y="36" onmousedown="handleReset()"/>
                <g id="arrowUp" xlink:href="#dirArrow" transform="translate(30 24)" onmousedown="handlePan(0,-1)">
                  <use xlink:href="#rim" fill="#404040">
                        <set attributeName="fill" to="#808080" begin="arrowUp.mouseover" end="arrowUp.mouseout"/>
                  </use>
                  <path fill="none" stroke="white" stroke-width="1.5" d="M0,-3.0v7 M-2.5,-0.5L0,-3.0L2.5,-0.5"/>
                </g>
                <g id="arrowRight" xlink:href="#dirArrow" transform="rotate(90) translate(36 -43)" onmousedown="handlePan(1,0)">
                  <use xlink:href="#rim" fill="#404040">
                        <set attributeName="fill" to="#808080" begin="arrowRight.mouseover" end="arrowRight.mouseout"/>
                  </use>
                  <path fill="none" stroke="white" stroke-width="1.5" d="M0,-3.0v7 M-2.5,-0.5L0,-3.0L2.5,-0.5"/>
                </g>
                <g id="arrowDown" xlink:href="#dirArrow" transform="rotate(180) translate(-30 -48)" onmousedown="handlePan(0,1)">
                  <use xlink:href="#rim" fill="#404040">
                        <set attributeName="fill" to="#808080" begin="arrowDown.mouseover" end="arrowDown.mouseout"/>
                  </use>
                  <path fill="none" stroke="white" stroke-width="1.5" d="M0,-3.0v7 M-2.5,-0.5L0,-3.0L2.5,-0.5"/>
                </g>
                <g id="arrowLeft" xlink:href="#dirArrow" transform="rotate(270) translate(-36 17)" onmousedown="handlePan(-1,0)">
                  <use xlink:href="#rim" fill="#404040">
                        <set attributeName="fill" to="#808080" begin="arrowLeft.mouseover" end="arrowLeft.mouseout"/>
                  </use>
                  <path fill="none" stroke="white" stroke-width="1.5" d="M0,-3.0v7 M-2.5,-0.5L0,-3.0L2.5,-0.5"/>
                </g>
        </g>
        <svg viewBox="0 0 15 15" width="100%" height="30px" preserveAspectRatio="xMaxYMin meet">
         <g id="arrow_out" transform="scale(0.3 0.3)">
          <a xlink:href="quickjs-libc_8c_ac6c5f34cb0df6ab0d7579f0f20908a2c_cgraph_org.svg" target="_base">
           <rect id="button" ry="5" rx="5" y="6" x="6" height="38" width="38"
                fill="#f2f5e9" fill-opacity="0.5" stroke="#606060" stroke-width="1.0"/>
           <path id="arrow"
             d="M 11.500037,31.436501 C 11.940474,20.09759 22.043105,11.32322 32.158766,21.979434 L 37.068811,17.246167 C 37.068811,17.246167 37.088388,32 37.088388,32 L 22.160133,31.978069 C 22.160133,31.978069 26.997745,27.140456 26.997745,27.140456 C 18.528582,18.264221 13.291696,25.230495 11.500037,31.436501 z"
             style="fill:#404040;"/>
          </a>
         </g>
        </svg>
</svg>
