<?xml version="1.0" encoding="UTF-8" standalone="no"?>
<!DOCTYPE svg PUBLIC "-//W3C//DTD SVG 1.1//EN"
 "http://www.w3.org/Graphics/SVG/1.1/DTD/svg11.dtd">
<!-- Generated by graphviz version 2.40.1 (20161225.0304)
 -->
<!-- Title: JS_FlattenIntoArray Pages: 1 -->
<!--zoomable 1120 -->
<svg id="main" version="1.1" xmlns="http://www.w3.org/2000/svg" xmlns:xlink="http://www.w3.org/1999/xlink" xml:space="preserve" onload="init(evt)">
<style type="text/css"><![CDATA[
.edge:hover path { stroke: red; }
.edge:hover polygon { stroke: red; fill: red; }
]]></style>
<script type="text/javascript"><![CDATA[
var edges = document.getElementsByTagName('g');
if (edges && edges.length) {
  for (var i=0;i<edges.length;i++) {
    if (edges[i].id.substr(0,4)=='edge') {
      edges[i].setAttribute('class','edge');
    }
  }
}
]]></script>
        <defs>
                <circle id="rim" cx="0" cy="0" r="7"/>
                <circle id="rim2" cx="0" cy="0" r="3.5"/>
                <g id="zoomPlus">
                        <use xlink:href="#rim" fill="#404040">
                                <set attributeName="fill" to="#808080" begin="zoomplus.mouseover" end="zoomplus.mouseout"/>
                        </use>
                        <path d="M-4,0h8M0,-4v8" fill="none" stroke="white" stroke-width="1.5" pointer-events="none"/>
                </g>
                <g id="zoomMin">
                        <use xlink:href="#rim" fill="#404040">
                                <set attributeName="fill" to="#808080" begin="zoomminus.mouseover" end="zoomminus.mouseout"/>
                        </use>
                        <path d="M-4,0h8" fill="none" stroke="white" stroke-width="1.5" pointer-events="none"/>
                </g>
                <g id="dirArrow">
                        <path fill="none" stroke="white" stroke-width="1.5" d="M0,-3.0v7 M-2.5,-0.5L0,-3.0L2.5,-0.5"/>
                </g>
               <g id="resetDef">
                       <use xlink:href="#rim2" fill="#404040">
                               <set attributeName="fill" to="#808080" begin="reset.mouseover" end="reset.mouseout"/>
                       </use>
               </g>
        </defs>

<script type="text/javascript">
var viewWidth = 849;
var viewHeight = 1120;
var sectionId = 'dynsection-1417';
</script>
<script xlink:href="svgpan.js"/>
<svg id="graph" class="graph">
<g id="viewport">
<title>JS_FlattenIntoArray</title>
<!-- Node379748 -->
<g id="node1" class="node">
<title>Node379748</title>
<polygon fill="#bfbfbf" stroke="#000000" points="0,-399.5 0,-418.5 104,-418.5 104,-399.5 0,-399.5"/>
<text text-anchor="middle" x="52" y="-406.5" font-family="Helvetica,sans-Serif" font-size="10.00" fill="#000000">JS_FlattenIntoArray</text>
</g>
<!-- Node379748&#45;&gt;Node379748 -->
<g id="edge41" class="edge">
<title>Node379748&#45;&gt;Node379748</title>
<path fill="none" stroke="#191970" d="M33.5045,-418.7571C24.5067,-427.5653 30.6719,-437 52,-437 65.6633,-437 73.1038,-433.128 74.3213,-428.0292"/>
<polygon fill="#191970" stroke="#191970" points="77.5452,-426.6661 70.4955,-418.7571 71.0744,-429.3361 77.5452,-426.6661"/>
</g>
<!-- Node379749 -->
<g id="node2" class="node">
<title>Node379749</title>
<g id="a_node2"><a xlink:href="quickjs_8c.html#a1a4c02a29525d5cb2085dd8bca3af350" target="_top" xlink:title="JS_Call">
<polygon fill="none" stroke="#000000" points="147,-399.5 147,-418.5 198,-418.5 198,-399.5 147,-399.5"/>
<text text-anchor="middle" x="172.5" y="-406.5" font-family="Helvetica,sans-Serif" font-size="10.00" fill="#000000">JS_Call</text>
</a>
</g>
</g>
<!-- Node379748&#45;&gt;Node379749 -->
<g id="edge1" class="edge">
<title>Node379748&#45;&gt;Node379749</title>
<path fill="none" stroke="#191970" d="M104.1522,-409C115.1045,-409 126.4203,-409 136.6165,-409"/>
<polygon fill="#191970" stroke="#191970" points="136.7745,-412.5001 146.7745,-409 136.7744,-405.5001 136.7745,-412.5001"/>
</g>
<!-- Node379803 -->
<g id="node10" class="node">
<title>Node379803</title>
<g id="a_node10"><a xlink:href="quickjs_8h.html#afaa20c47565bc704c6c85f3d77254e7d" target="_top" xlink:title="JS_FreeValue">
<polygon fill="none" stroke="#ff0000" points="763,-570.5 763,-589.5 841,-589.5 841,-570.5 763,-570.5"/>
<text text-anchor="middle" x="802" y="-577.5" font-family="Helvetica,sans-Serif" font-size="10.00" fill="#000000">JS_FreeValue</text>
</a>
</g>
</g>
<!-- Node379748&#45;&gt;Node379803 -->
<g id="edge42" class="edge">
<title>Node379748&#45;&gt;Node379803</title>
<path fill="none" stroke="#191970" d="M52.5679,-418.6586C55.6751,-466.821 73.0167,-685.1781 140,-848 193.4636,-977.9585 173.474,-1112 314,-1112 314,-1112 314,-1112 497.5,-1112 611.3908,-1112 658.6518,-1089.1023 727,-998 775.4039,-933.4817 795.8536,-673.9159 800.7752,-599.832"/>
<polygon fill="#191970" stroke="#191970" points="804.2846,-599.7968 801.4337,-589.5928 797.299,-599.3475 804.2846,-599.7968"/>
</g>
<!-- Node379820 -->
<g id="node11" class="node">
<title>Node379820</title>
<g id="a_node11"><a xlink:href="quickjs_8h.html#ad80a83d73e9b7d872b88fbf2943aebe9" target="_top" xlink:title="JS_IsException">
<polygon fill="none" stroke="#000000" points="624.5,-969.5 624.5,-988.5 710.5,-988.5 710.5,-969.5 624.5,-969.5"/>
<text text-anchor="middle" x="667.5" y="-976.5" font-family="Helvetica,sans-Serif" font-size="10.00" fill="#000000">JS_IsException</text>
</a>
</g>
</g>
<!-- Node379748&#45;&gt;Node379820 -->
<g id="edge48" class="edge">
<title>Node379748&#45;&gt;Node379820</title>
<path fill="none" stroke="#191970" d="M52.685,-418.5946C56.1553,-462.8961 74.2993,-651.3238 140,-788 171.3957,-853.3121 187.9051,-866.6818 241,-916 312.5314,-982.4433 329.6497,-1010.4138 423,-1039 486.3199,-1058.3901 508.3655,-1057.3311 572,-1039 601.4285,-1030.5226 630.5453,-1010.0075 648.7464,-995.3282"/>
<polygon fill="#191970" stroke="#191970" points="651.3049,-997.7528 656.7582,-988.6691 646.8305,-992.3695 651.3049,-997.7528"/>
</g>
<!-- Node379872 -->
<g id="node23" class="node">
<title>Node379872</title>
<g id="a_node23"><a xlink:href="quickjs_8h.html#a4e407128a9605afb77523e49e9a627fd" target="_top" xlink:title="JS_IsUndefined">
<polygon fill="none" stroke="#000000" points="454.5,-38.5 454.5,-57.5 540.5,-57.5 540.5,-38.5 454.5,-38.5"/>
<text text-anchor="middle" x="497.5" y="-45.5" font-family="Helvetica,sans-Serif" font-size="10.00" fill="#000000">JS_IsUndefined</text>
</a>
</g>
</g>
<!-- Node379748&#45;&gt;Node379872 -->
<g id="edge49" class="edge">
<title>Node379748&#45;&gt;Node379872</title>
<path fill="none" stroke="#191970" d="M63.7116,-399.4299C80.3485,-385.956 111.9269,-360.8247 140,-341 183.6048,-310.2071 192.4587,-298.2109 241,-276 302.5112,-247.8544 340.9419,-282.5425 387,-233 438.4017,-177.7097 370.5921,-121.3376 423,-67 428.9276,-60.8542 436.5445,-56.5934 444.6364,-53.6594"/>
<polygon fill="#191970" stroke="#191970" points="445.6937,-56.9966 454.2811,-50.7911 443.6982,-50.287 445.6937,-56.9966"/>
</g>
<!-- Node380178 -->
<g id="node24" class="node">
<title>Node380178</title>
<g id="a_node24"><a xlink:href="quickjs_8c.html#a57a83f0615206965524d78bf89bbf777" target="_top" xlink:title="JS_DefinePropertyValueInt64">
<polygon fill="none" stroke="#000000" points="241,-285.5 241,-304.5 387,-304.5 387,-285.5 241,-285.5"/>
<text text-anchor="middle" x="314" y="-292.5" font-family="Helvetica,sans-Serif" font-size="10.00" fill="#000000">JS_DefinePropertyValueInt64</text>
</a>
</g>
</g>
<!-- Node379748&#45;&gt;Node380178 -->
<g id="edge36" class="edge">
<title>Node379748&#45;&gt;Node380178</title>
<path fill="none" stroke="#191970" d="M73.8873,-399.4765C120.3152,-379.2751 228.8117,-332.0667 282.6093,-308.6585"/>
<polygon fill="#191970" stroke="#191970" points="284.2176,-311.7758 291.9907,-304.5766 281.4247,-305.3571 284.2176,-311.7758"/>
</g>
<!-- Node380025 -->
<g id="node25" class="node">
<title>Node380025</title>
<g id="a_node25"><a xlink:href="quickjs_8h.html#a6acbc709e59969eac6775f9b253b438f" target="_top" xlink:title="JS_NewInt64">
<polygon fill="none" stroke="#000000" points="459.5,-.5 459.5,-19.5 535.5,-19.5 535.5,-.5 459.5,-.5"/>
<text text-anchor="middle" x="497.5" y="-7.5" font-family="Helvetica,sans-Serif" font-size="10.00" fill="#000000">JS_NewInt64</text>
</a>
</g>
</g>
<!-- Node379748&#45;&gt;Node380025 -->
<g id="edge50" class="edge">
<title>Node379748&#45;&gt;Node380025</title>
<path fill="none" stroke="#191970" d="M57.2634,-399.2945C69.4444,-377.5231 101.498,-324.0372 140,-290 178.6174,-255.8608 192.9077,-251.5452 241,-233 303.0707,-209.0645 340.3085,-247.3875 387,-200 441.5103,-144.6771 369.2532,-85.065 423,-29 430.0664,-21.6288 439.5623,-16.9663 449.4046,-14.052"/>
<polygon fill="#191970" stroke="#191970" points="450.3759,-17.4184 459.2852,-11.6848 448.7449,-10.6111 450.3759,-17.4184"/>
</g>
<!-- Node380034 -->
<g id="node26" class="node">
<title>Node380034</title>
<g id="a_node26"><a xlink:href="quickjs_8c.html#a5f848f76409193212a44e6221e430919" target="_top" xlink:title="js_get_length64">
<polygon fill="none" stroke="#ff0000" points="455,-950.5 455,-969.5 540,-969.5 540,-950.5 455,-950.5"/>
<text text-anchor="middle" x="497.5" y="-957.5" font-family="Helvetica,sans-Serif" font-size="10.00" fill="#000000">js_get_length64</text>
</a>
</g>
</g>
<!-- Node379748&#45;&gt;Node380034 -->
<g id="edge43" class="edge">
<title>Node379748&#45;&gt;Node380034</title>
<path fill="none" stroke="#191970" d="M53.143,-418.6081C59.9254,-471.4233 99.539,-728.9795 241,-865 297.5103,-919.337 387.8054,-943.0999 444.8108,-953.1249"/>
<polygon fill="#191970" stroke="#191970" points="444.2629,-956.5818 454.7044,-954.7857 445.4218,-949.6784 444.2629,-956.5818"/>
</g>
<!-- Node380179 -->
<g id="node27" class="node">
<title>Node380179</title>
<g id="a_node27"><a xlink:href="quickjs_8c.html#a1fc2c29e89230a9792fd36ae50b270e4" target="_top" xlink:title="JS_IsArray">
<polygon fill="none" stroke="#000000" points="140,-171.5 140,-190.5 205,-190.5 205,-171.5 140,-171.5"/>
<text text-anchor="middle" x="172.5" y="-178.5" font-family="Helvetica,sans-Serif" font-size="10.00" fill="#000000">JS_IsArray</text>
</a>
</g>
</g>
<!-- Node379748&#45;&gt;Node380179 -->
<g id="edge46" class="edge">
<title>Node379748&#45;&gt;Node380179</title>
<path fill="none" stroke="#191970" d="M54.2907,-399.1131C61.9194,-367.8405 88.918,-269.346 140,-205 142.3632,-202.0232 145.182,-199.2313 148.1578,-196.6794"/>
<polygon fill="#191970" stroke="#191970" points="150.3854,-199.382 156.1961,-190.5228 146.129,-193.8247 150.3854,-199.382"/>
</g>
<!-- Node380181 -->
<g id="node29" class="node">
<title>Node380181</title>
<g id="a_node29"><a xlink:href="quickjs_8c.html#a14674e74168715dc5a3a391910982e5d" target="_top" xlink:title="JS_TryGetPropertyInt64">
<polygon fill="none" stroke="#000000" points="253,-836.5 253,-855.5 375,-855.5 375,-836.5 253,-836.5"/>
<text text-anchor="middle" x="314" y="-843.5" font-family="Helvetica,sans-Serif" font-size="10.00" fill="#000000">JS_TryGetPropertyInt64</text>
</a>
</g>
</g>
<!-- Node379748&#45;&gt;Node380181 -->
<g id="edge51" class="edge">
<title>Node379748&#45;&gt;Node380181</title>
<path fill="none" stroke="#191970" d="M57.7159,-418.5338C90.8035,-473.7219 257.8693,-752.3774 302.8386,-827.3835"/>
<polygon fill="#191970" stroke="#191970" points="299.9902,-829.4392 308.1342,-836.2161 305.9939,-825.8397 299.9902,-829.4392"/>
</g>
<!-- Node379750 -->
<g id="node3" class="node">
<title>Node379750</title>
<g id="a_node3"><a xlink:href="quickjs_8c.html#ac2894ff4edcdb4e6841bcce9c76081e3" target="_top" xlink:title="JS_CallInternal">
<polygon fill="none" stroke="#ff0000" points="272.5,-399.5 272.5,-418.5 355.5,-418.5 355.5,-399.5 272.5,-399.5"/>
<text text-anchor="middle" x="314" y="-406.5" font-family="Helvetica,sans-Serif" font-size="10.00" fill="#000000">JS_CallInternal</text>
</a>
</g>
</g>
<!-- Node379749&#45;&gt;Node379750 -->
<g id="edge2" class="edge">
<title>Node379749&#45;&gt;Node379750</title>
<path fill="none" stroke="#191970" d="M198.1246,-403.6599C216.0004,-402.3463 240.4723,-401.9506 262.3217,-402.4729"/>
<polygon fill="#191970" stroke="#191970" points="262.3641,-405.9758 272.4687,-402.7901 262.5829,-398.9792 262.3641,-405.9758"/>
</g>
<!-- Node379750&#45;&gt;Node379749 -->
<g id="edge18" class="edge">
<title>Node379750&#45;&gt;Node379749</title>
<path fill="none" stroke="#191970" d="M272.4687,-415.2099C252.0574,-416.0082 227.7101,-415.9215 208.1538,-414.9498"/>
<polygon fill="#191970" stroke="#191970" points="208.3186,-411.4534 198.1246,-414.3401 207.8937,-418.4405 208.3186,-411.4534"/>
</g>
<!-- Node379750&#45;&gt;Node379750 -->
<g id="edge19" class="edge">
<title>Node379750&#45;&gt;Node379750</title>
<path fill="none" stroke="#191970" d="M292.4219,-418.7571C281.9245,-427.5653 289.1172,-437 314,-437 329.9406,-437 338.6211,-433.128 340.0416,-428.0292"/>
<polygon fill="#191970" stroke="#191970" points="343.0692,-426.2493 335.5781,-418.7571 336.762,-429.2855 343.0692,-426.2493"/>
</g>
<!-- Node379751 -->
<g id="node4" class="node">
<title>Node379751</title>
<g id="a_node4"><a xlink:href="quickjs_8c.html#a853f0924d441ea4225488f37c8b69f9a" target="_top" xlink:title="__attribute__">
<polygon fill="none" stroke="#000000" points="461,-418.5 461,-437.5 534,-437.5 534,-418.5 461,-418.5"/>
<text text-anchor="middle" x="497.5" y="-425.5" font-family="Helvetica,sans-Serif" font-size="10.00" fill="#000000">__attribute__</text>
</a>
</g>
</g>
<!-- Node379750&#45;&gt;Node379751 -->
<g id="edge3" class="edge">
<title>Node379750&#45;&gt;Node379751</title>
<path fill="none" stroke="#191970" d="M355.639,-413.3114C384.016,-416.2496 421.6183,-420.143 450.9795,-423.1832"/>
<polygon fill="#191970" stroke="#191970" points="450.6853,-426.6713 460.9926,-424.2199 451.4063,-419.7085 450.6853,-426.6713"/>
</g>
<!-- Node379752 -->
<g id="node5" class="node">
<title>Node379752</title>
<g id="a_node5"><a xlink:href="quickjs_8c.html#a877fcb7651d95b411ce70e62b7f4a1f0" target="_top" xlink:title="__JS_AtomFromUInt32">
<polygon fill="none" stroke="#000000" points="608,-912.5 608,-931.5 727,-931.5 727,-912.5 608,-912.5"/>
<text text-anchor="middle" x="667.5" y="-919.5" font-family="Helvetica,sans-Serif" font-size="10.00" fill="#000000">__JS_AtomFromUInt32</text>
</a>
</g>
</g>
<!-- Node379750&#45;&gt;Node379752 -->
<g id="edge4" class="edge">
<title>Node379750&#45;&gt;Node379752</title>
<path fill="none" stroke="#191970" d="M314.9934,-418.6089C319.4744,-456.8805 341.2963,-599.8751 423,-672 474.4911,-717.4544 519.7056,-668.4722 572,-713 575.9516,-716.3648 636.6184,-852.4415 659.155,-903.1836"/>
<polygon fill="#191970" stroke="#191970" points="655.9829,-904.6644 663.2389,-912.3846 662.381,-901.8245 655.9829,-904.6644"/>
</g>
<!-- Node379753 -->
<g id="node6" class="node">
<title>Node379753</title>
<g id="a_node6"><a xlink:href="quickjs_8h.html#a9bf98b18de88b4199910a43e933eb97d" target="_top" xlink:title="__JS_NewFloat64">
<polygon fill="none" stroke="#000000" points="619,-114.5 619,-133.5 716,-133.5 716,-114.5 619,-114.5"/>
<text text-anchor="middle" x="667.5" y="-121.5" font-family="Helvetica,sans-Serif" font-size="10.00" fill="#000000">__JS_NewFloat64</text>
</a>
</g>
</g>
<!-- Node379750&#45;&gt;Node379753 -->
<g id="edge5" class="edge">
<title>Node379750&#45;&gt;Node379753</title>
<path fill="none" stroke="#191970" d="M323.7612,-399.4586C339.6181,-383.3695 370.8249,-349.1445 387,-314 419.4713,-243.4478 364.6322,-194.2367 423,-143 476.8065,-95.7674 565.4245,-102.389 619.9025,-112.4936"/>
<polygon fill="#191970" stroke="#191970" points="619.5045,-115.9823 629.9918,-114.4772 620.8549,-109.1137 619.5045,-115.9823"/>
</g>
<!-- Node379754 -->
<g id="node7" class="node">
<title>Node379754</title>
<g id="a_node7"><a xlink:href="quickjs_8c.html#a74547db03bf739a52c83a326b32db997" target="_top" xlink:title="add_property">
<polygon fill="none" stroke="#ff0000" points="461,-304.5 461,-323.5 534,-323.5 534,-304.5 461,-304.5"/>
<text text-anchor="middle" x="497.5" y="-311.5" font-family="Helvetica,sans-Serif" font-size="10.00" fill="#000000">add_property</text>
</a>
</g>
</g>
<!-- Node379750&#45;&gt;Node379754 -->
<g id="edge6" class="edge">
<title>Node379750&#45;&gt;Node379754</title>
<path fill="none" stroke="#191970" d="M324.9382,-399.3261C343.6944,-383.2318 383.7748,-350.956 423,-333 431.8276,-328.959 441.653,-325.6805 451.1965,-323.0574"/>
<polygon fill="#191970" stroke="#191970" points="452.1636,-326.4229 460.9862,-320.5567 450.431,-319.6406 452.1636,-326.4229"/>
</g>
<!-- Node379810 -->
<g id="node8" class="node">
<title>Node379810</title>
<g id="a_node8"><a xlink:href="quickjs_8c.html#a4956f45ffd2849b96dc051277264f87a" target="_top" xlink:title="build_arg_list">
<polygon fill="none" stroke="#ff0000" points="460.5,-722.5 460.5,-741.5 534.5,-741.5 534.5,-722.5 460.5,-722.5"/>
<text text-anchor="middle" x="497.5" y="-729.5" font-family="Helvetica,sans-Serif" font-size="10.00" fill="#000000">build_arg_list</text>
</a>
</g>
</g>
<!-- Node379750&#45;&gt;Node379810 -->
<g id="edge7" class="edge">
<title>Node379750&#45;&gt;Node379810</title>
<path fill="none" stroke="#191970" d="M314.5615,-418.6401C317.4829,-459.8186 334.4395,-622.7362 423,-708 430.6408,-715.3564 440.5481,-720.458 450.6295,-723.9959"/>
<polygon fill="#191970" stroke="#191970" points="449.6944,-727.3697 460.2801,-726.9313 451.7315,-720.6727 449.6944,-727.3697"/>
</g>
<!-- Node379811 -->
<g id="node9" class="node">
<title>Node379811</title>
<g id="a_node9"><a xlink:href="quickjs_8c.html#ac864482356b3efc2d0b0a509fcfa4c7c" target="_top" xlink:title="free_arg_list">
<polygon fill="none" stroke="#ff0000" points="632.5,-570.5 632.5,-589.5 702.5,-589.5 702.5,-570.5 632.5,-570.5"/>
<text text-anchor="middle" x="667.5" y="-577.5" font-family="Helvetica,sans-Serif" font-size="10.00" fill="#000000">free_arg_list</text>
</a>
</g>
</g>
<!-- Node379750&#45;&gt;Node379811 -->
<g id="edge15" class="edge">
<title>Node379750&#45;&gt;Node379811</title>
<path fill="none" stroke="#191970" d="M319.5088,-399.1736C333.2965,-375.7289 371.886,-316.8465 423,-295 483.8935,-268.9737 522.1325,-251.4269 572,-295 661.8368,-373.4974 531.3172,-469.6094 608,-561 611.974,-565.7362 617.1293,-569.3053 622.7424,-571.992"/>
<polygon fill="#191970" stroke="#191970" points="621.9034,-575.4188 632.4936,-575.7311 624.4096,-568.8828 621.9034,-575.4188"/>
</g>
<!-- Node379750&#45;&gt;Node379803 -->
<g id="edge24" class="edge">
<title>Node379750&#45;&gt;Node379803</title>
<path fill="none" stroke="#191970" d="M324.1774,-399.2689C340.3358,-383.173 371.6016,-349.2648 387,-314 425.2442,-226.4146 349.983,-163.6632 423,-102 474.6155,-58.4105 676.0654,-60.6168 727,-105 762.1284,-135.61 793.0233,-474.0389 800.3554,-560.1574"/>
<polygon fill="#191970" stroke="#191970" points="796.8893,-560.7078 801.2153,-570.3792 803.8646,-560.121 796.8893,-560.7078"/>
</g>
<!-- Node379750&#45;&gt;Node379820 -->
<g id="edge33" class="edge">
<title>Node379750&#45;&gt;Node379820</title>
<path fill="none" stroke="#191970" d="M315.7715,-418.6299C325.2326,-469.0603 371.31,-702.2646 423,-751 472.7253,-797.883 524.0912,-740.2623 572,-789 620.6677,-838.5097 567.8035,-884.3962 608,-941 614.9004,-950.717 625.1427,-958.5346 635.1927,-964.4938"/>
<polygon fill="#191970" stroke="#191970" points="633.8123,-967.7277 644.267,-969.4453 637.1653,-961.5829 633.8123,-967.7277"/>
</g>
<!-- Node379886 -->
<g id="node12" class="node">
<title>Node379886</title>
<g id="a_node12"><a xlink:href="quickjs_8c.html#a61c8dfb5e807af1b6ff7d8ca61576dda" target="_top" xlink:title="build_backtrace">
<polygon fill="none" stroke="#ff0000" points="455,-152.5 455,-171.5 540,-171.5 540,-152.5 455,-152.5"/>
<text text-anchor="middle" x="497.5" y="-159.5" font-family="Helvetica,sans-Serif" font-size="10.00" fill="#000000">build_backtrace</text>
</a>
</g>
</g>
<!-- Node379750&#45;&gt;Node379886 -->
<g id="edge11" class="edge">
<title>Node379750&#45;&gt;Node379886</title>
<path fill="none" stroke="#191970" d="M323.5005,-399.3333C338.9824,-383.064 369.6626,-348.5858 387,-314 413.483,-261.1701 382.0032,-228.563 423,-186 429.1643,-179.6002 437.0402,-174.904 445.3512,-171.4586"/>
<polygon fill="#191970" stroke="#191970" points="446.6049,-174.7275 454.8515,-168.0759 444.2568,-168.1331 446.6049,-174.7275"/>
</g>
<!-- Node379821 -->
<g id="node13" class="node">
<title>Node379821</title>
<g id="a_node13"><a xlink:href="quickjs_8h.html#a2050bc428da1c65ac7eb87c3fa3b0392" target="_top" xlink:title="JS_NewInt32">
<polygon fill="none" stroke="#000000" points="629.5,-190.5 629.5,-209.5 705.5,-209.5 705.5,-190.5 629.5,-190.5"/>
<text text-anchor="middle" x="667.5" y="-197.5" font-family="Helvetica,sans-Serif" font-size="10.00" fill="#000000">JS_NewInt32</text>
</a>
</g>
</g>
<!-- Node379750&#45;&gt;Node379821 -->
<g id="edge35" class="edge">
<title>Node379750&#45;&gt;Node379821</title>
<path fill="none" stroke="#191970" d="M322.9222,-399.4196C337.8362,-383.0029 368.0557,-347.9708 387,-314 408.9913,-274.5652 386.8664,-246.0754 423,-219 479.6559,-176.547 565.8671,-181.2279 619.3352,-189.7229"/>
<polygon fill="#191970" stroke="#191970" points="618.8044,-193.1828 629.2484,-191.4013 619.973,-186.281 618.8044,-193.1828"/>
</g>
<!-- Node380000 -->
<g id="node14" class="node">
<title>Node380000</title>
<g id="a_node14"><a xlink:href="quickjs_8c.html#a344894112559c2ba75043fd10bcfa02f" target="_top" xlink:title="close_lexical_var">
<polygon fill="none" stroke="#ff0000" points="451.5,-494.5 451.5,-513.5 543.5,-513.5 543.5,-494.5 451.5,-494.5"/>
<text text-anchor="middle" x="497.5" y="-501.5" font-family="Helvetica,sans-Serif" font-size="10.00" fill="#000000">close_lexical_var</text>
</a>
</g>
</g>
<!-- Node379750&#45;&gt;Node380000 -->
<g id="edge13" class="edge">
<title>Node379750&#45;&gt;Node380000</title>
<path fill="none" stroke="#191970" d="M324.9382,-418.6739C343.6944,-434.7682 383.7748,-467.044 423,-485 428.8143,-487.6616 435.0614,-489.9924 441.3757,-492.023"/>
<polygon fill="#191970" stroke="#191970" points="440.7184,-495.4788 451.3011,-494.9713 442.7117,-488.7686 440.7184,-495.4788"/>
</g>
<!-- Node380001 -->
<g id="node15" class="node">
<title>Node380001</title>
<g id="a_node15"><a xlink:href="quickjs_8c.html#a1782043fce951bd4f0d91c7796b31e24" target="_top" xlink:title="close_var_refs">
<polygon fill="none" stroke="#ff0000" points="457.5,-456.5 457.5,-475.5 537.5,-475.5 537.5,-456.5 457.5,-456.5"/>
<text text-anchor="middle" x="497.5" y="-463.5" font-family="Helvetica,sans-Serif" font-size="10.00" fill="#000000">close_var_refs</text>
</a>
</g>
</g>
<!-- Node379750&#45;&gt;Node380001 -->
<g id="edge14" class="edge">
<title>Node379750&#45;&gt;Node380001</title>
<path fill="none" stroke="#191970" d="M339.3452,-418.5291C361.3084,-426.6195 394.0247,-438.2719 423,-447 430.9051,-449.3812 439.3392,-451.7209 447.5853,-453.9001"/>
<polygon fill="#191970" stroke="#191970" points="446.9439,-457.3495 457.5022,-456.4707 448.7004,-450.5734 446.9439,-457.3495"/>
</g>
<!-- Node379800 -->
<g id="node16" class="node">
<title>Node379800</title>
<g id="a_node16"><a xlink:href="quickjs_8c.html#a9e7b4bccf927d811b0f99b40b08c0472" target="_top" xlink:title="free_var_ref">
<polygon fill="none" stroke="#ff0000" points="463.5,-380.5 463.5,-399.5 531.5,-399.5 531.5,-380.5 463.5,-380.5"/>
<text text-anchor="middle" x="497.5" y="-387.5" font-family="Helvetica,sans-Serif" font-size="10.00" fill="#000000">free_var_ref</text>
</a>
</g>
</g>
<!-- Node379750&#45;&gt;Node379800 -->
<g id="edge16" class="edge">
<title>Node379750&#45;&gt;Node379800</title>
<path fill="none" stroke="#191970" d="M355.639,-404.6886C384.7727,-401.672 423.6304,-397.6486 453.3105,-394.5755"/>
<polygon fill="#191970" stroke="#191970" points="453.8087,-398.0427 463.395,-393.5313 453.0877,-391.0799 453.8087,-398.0427"/>
</g>
<!-- Node380003 -->
<g id="node17" class="node">
<title>Node380003</title>
<g id="a_node17"><a xlink:href="cutils_8h.html#a7c82a3ee025fee89db5b11ff5b7691b8" target="_top" xlink:title="get_i16">
<polygon fill="none" stroke="#000000" points="473.5,-342.5 473.5,-361.5 521.5,-361.5 521.5,-342.5 473.5,-342.5"/>
<text text-anchor="middle" x="497.5" y="-349.5" font-family="Helvetica,sans-Serif" font-size="10.00" fill="#000000">get_i16</text>
</a>
</g>
</g>
<!-- Node379750&#45;&gt;Node380003 -->
<g id="edge17" class="edge">
<title>Node379750&#45;&gt;Node380003</title>
<path fill="none" stroke="#191970" d="M339.3452,-399.4709C361.3084,-391.3805 394.0247,-379.7281 423,-371 436.1103,-367.0509 450.6756,-363.216 463.425,-360.0378"/>
<polygon fill="#191970" stroke="#191970" points="464.3199,-363.4221 473.1979,-357.6401 462.6519,-356.6237 464.3199,-363.4221"/>
</g>
<!-- Node380024 -->
<g id="node18" class="node">
<title>Node380024</title>
<g id="a_node18"><a xlink:href="quickjs_8c.html#a0c61bd5a64c743e81188bb528b78e715" target="_top" xlink:title="JS_DefinePropertyValueValue">
<polygon fill="none" stroke="#ff0000" points="423,-228.5 423,-247.5 572,-247.5 572,-228.5 423,-228.5"/>
<text text-anchor="middle" x="497.5" y="-235.5" font-family="Helvetica,sans-Serif" font-size="10.00" fill="#000000">JS_DefinePropertyValueValue</text>
</a>
</g>
</g>
<!-- Node379750&#45;&gt;Node380024 -->
<g id="edge20" class="edge">
<title>Node379750&#45;&gt;Node380024</title>
<path fill="none" stroke="#191970" d="M321.6218,-399.4102C335.0815,-382.4033 363.8279,-345.7568 387,-314 403.5687,-291.2931 400.4278,-278.7517 423,-262 428.8515,-257.6574 435.5205,-254.081 442.4078,-251.1403"/>
<polygon fill="#191970" stroke="#191970" points="443.7924,-254.358 451.8786,-247.5122 441.2882,-247.8213 443.7924,-254.358"/>
</g>
<!-- Node379802 -->
<g id="node19" class="node">
<title>Node379802</title>
<g id="a_node19"><a xlink:href="quickjs_8c.html#ab7fc45a99935a1c0ba50b0216d9401a9" target="_top" xlink:title="JS_FreeAtom">
<polygon fill="none" stroke="#ff0000" points="629,-532.5 629,-551.5 706,-551.5 706,-532.5 629,-532.5"/>
<text text-anchor="middle" x="667.5" y="-539.5" font-family="Helvetica,sans-Serif" font-size="10.00" fill="#000000">JS_FreeAtom</text>
</a>
</g>
</g>
<!-- Node379750&#45;&gt;Node379802 -->
<g id="edge23" class="edge">
<title>Node379750&#45;&gt;Node379802</title>
<path fill="none" stroke="#191970" d="M319.6227,-418.5737C333.6631,-441.4574 372.7714,-499.1884 423,-523 485.6263,-552.6889 567.4689,-552.3032 618.7667,-548.086"/>
<polygon fill="#191970" stroke="#191970" points="619.2735,-551.5546 628.9178,-547.1685 618.6433,-544.583 619.2735,-551.5546"/>
</g>
<!-- Node379813 -->
<g id="node20" class="node">
<title>Node379813</title>
<g id="a_node20"><a xlink:href="quickjs_8h.html#a89b7c8686c7eee70b86be722ee4730ad" target="_top" xlink:title="JS_GetProperty">
<polygon fill="none" stroke="#ff0000" points="624.5,-760.5 624.5,-779.5 710.5,-779.5 710.5,-760.5 624.5,-760.5"/>
<text text-anchor="middle" x="667.5" y="-767.5" font-family="Helvetica,sans-Serif" font-size="10.00" fill="#000000">JS_GetProperty</text>
</a>
</g>
</g>
<!-- Node379750&#45;&gt;Node379813 -->
<g id="edge25" class="edge">
<title>Node379750&#45;&gt;Node379813</title>
<path fill="none" stroke="#191970" d="M315.7608,-418.9773C322.5487,-454.4252 350.36,-575.455 423,-637 475.5875,-681.5553 512.1296,-645.851 572,-680 605.4195,-699.0619 636.3054,-732.1393 653.4575,-752.4461"/>
<polygon fill="#191970" stroke="#191970" points="650.8683,-754.8074 659.9349,-760.289 656.2656,-750.3498 650.8683,-754.8074"/>
</g>
<!-- Node379994 -->
<g id="node21" class="node">
<title>Node379994</title>
<g id="a_node21"><a xlink:href="quickjs_8c.html#a90d6e607f6917d817c1e997bd2e6ed07" target="_top" xlink:title="JS_GetPropertyValue">
<polygon fill="none" stroke="#ff0000" points="442,-608.5 442,-627.5 553,-627.5 553,-608.5 442,-608.5"/>
<text text-anchor="middle" x="497.5" y="-615.5" font-family="Helvetica,sans-Serif" font-size="10.00" fill="#000000">JS_GetPropertyValue</text>
</a>
</g>
</g>
<!-- Node379750&#45;&gt;Node379994 -->
<g id="edge26" class="edge">
<title>Node379750&#45;&gt;Node379994</title>
<path fill="none" stroke="#191970" d="M319.9267,-418.543C335.2751,-442.8793 378.2537,-508.6731 423,-556 439.387,-573.3321 460.4681,-590.4792 476.0207,-602.3322"/>
<polygon fill="#191970" stroke="#191970" points="473.9281,-605.1377 484.0274,-608.3401 478.1294,-599.5387 473.9281,-605.1377"/>
</g>
<!-- Node380058 -->
<g id="node22" class="node">
<title>Node380058</title>
<g id="a_node22"><a xlink:href="quickjs_8c.html#a9d6d0a9704951d01c128975e0d2213f8" target="_top" xlink:title="JS_HasProperty">
<polygon fill="none" stroke="#ff0000" points="453,-798.5 453,-817.5 542,-817.5 542,-798.5 453,-798.5"/>
<text text-anchor="middle" x="497.5" y="-805.5" font-family="Helvetica,sans-Serif" font-size="10.00" fill="#000000">JS_HasProperty</text>
</a>
</g>
</g>
<!-- Node379750&#45;&gt;Node380058 -->
<g id="edge32" class="edge">
<title>Node379750&#45;&gt;Node380058</title>
<path fill="none" stroke="#191970" d="M315.5764,-418.7762C324.3687,-472.1859 368.9032,-728.3236 423,-784 428.7223,-789.8894 435.8943,-794.3357 443.5127,-797.692"/>
<polygon fill="#191970" stroke="#191970" points="442.368,-801.001 452.9595,-801.2691 444.8469,-794.4546 442.368,-801.001"/>
</g>
<!-- Node379750&#45;&gt;Node379872 -->
<g id="edge34" class="edge">
<title>Node379750&#45;&gt;Node379872</title>
<path fill="none" stroke="#191970" d="M324.2612,-399.3049C340.537,-383.2596 371.9644,-349.421 387,-314 429.4884,-213.9054 352.665,-154.9288 423,-72 428.7475,-65.2234 436.4195,-60.3429 444.658,-56.8319"/>
<polygon fill="#191970" stroke="#191970" points="445.9051,-60.1029 454.1278,-53.4217 443.5334,-53.5169 445.9051,-60.1029"/>
</g>
<!-- Node379810&#45;&gt;Node379811 -->
<g id="edge8" class="edge">
<title>Node379810&#45;&gt;Node379811</title>
<path fill="none" stroke="#191970" d="M508.1343,-722.4917C536.3981,-697.2205 613.6447,-628.1529 649.1755,-596.3843"/>
<polygon fill="#191970" stroke="#191970" points="651.7479,-598.7793 656.8698,-589.5047 647.0821,-593.5609 651.7479,-598.7793"/>
</g>
<!-- Node379810&#45;&gt;Node379820 -->
<g id="edge10" class="edge">
<title>Node379810&#45;&gt;Node379820</title>
<path fill="none" stroke="#191970" d="M534.799,-736.0594C548.2968,-739.3714 562.5312,-745.3267 572,-756 627.5892,-818.6605 560.8888,-871.7394 608,-941 614.6501,-950.7767 624.7374,-958.5811 634.727,-964.5114"/>
<polygon fill="#191970" stroke="#191970" points="633.3157,-967.728 643.7723,-969.4335 636.6615,-961.5793 633.3157,-967.728"/>
</g>
<!-- Node379811&#45;&gt;Node379803 -->
<g id="edge9" class="edge">
<title>Node379811&#45;&gt;Node379803</title>
<path fill="none" stroke="#191970" d="M702.8383,-580C718.0496,-580 736.0966,-580 752.598,-580"/>
<polygon fill="#191970" stroke="#191970" points="752.6337,-583.5001 762.6336,-580 752.6336,-576.5001 752.6337,-583.5001"/>
</g>
<!-- Node379886&#45;&gt;Node379821 -->
<g id="edge12" class="edge">
<title>Node379886&#45;&gt;Node379821</title>
<path fill="none" stroke="#191970" d="M540.3982,-171.589C564.4314,-176.9611 594.4723,-183.6762 619.3137,-189.2289"/>
<polygon fill="#191970" stroke="#191970" points="618.7333,-192.6855 629.256,-191.4513 620.2604,-185.8541 618.7333,-192.6855"/>
</g>
<!-- Node380024&#45;&gt;Node379803 -->
<g id="edge22" class="edge">
<title>Node380024&#45;&gt;Node379803</title>
<path fill="none" stroke="#191970" d="M539.1377,-247.6102C550.4934,-251.4952 562.3213,-256.8133 572,-264 686.3866,-348.935 767.8589,-507.12 793.46,-561.2614"/>
<polygon fill="#191970" stroke="#191970" points="790.3141,-562.7969 797.7076,-570.3855 796.6602,-559.8426 790.3141,-562.7969"/>
</g>
<!-- Node380024&#45;&gt;Node379802 -->
<g id="edge21" class="edge">
<title>Node380024&#45;&gt;Node379802</title>
<path fill="none" stroke="#191970" d="M549.7417,-247.5746C558.0038,-251.0086 565.839,-255.6709 572,-262 611.7311,-302.8153 589.8935,-330.9944 608,-385 624.8348,-435.2126 647.7438,-493.2323 659.6253,-522.6855"/>
<polygon fill="#191970" stroke="#191970" points="656.4722,-524.2238 663.4722,-532.1768 662.9596,-521.5944 656.4722,-524.2238"/>
</g>
<!-- Node379994&#45;&gt;Node379753 -->
<g id="edge27" class="edge">
<title>Node379994&#45;&gt;Node379753</title>
<path fill="none" stroke="#191970" d="M508.1528,-608.4242C525.0169,-592.5462 557.439,-558.9377 572,-523 629.3944,-381.3459 540.7139,-318.2318 608,-181 616.214,-164.2474 631.5031,-149.7692 644.5258,-139.5966"/>
<polygon fill="#191970" stroke="#191970" points="646.7201,-142.3266 652.6591,-133.5528 642.545,-136.708 646.7201,-142.3266"/>
</g>
<!-- Node379994&#45;&gt;Node379803 -->
<g id="edge29" class="edge">
<title>Node379994&#45;&gt;Node379803</title>
<path fill="none" stroke="#191970" d="M553.0005,-615.9792C599.6795,-613.6656 668.0451,-608.8384 727,-599 737.6426,-597.224 748.9908,-594.6918 759.5538,-592.0528"/>
<polygon fill="#191970" stroke="#191970" points="760.5853,-595.4013 769.392,-589.5112 758.8344,-588.6238 760.5853,-595.4013"/>
</g>
<!-- Node379994&#45;&gt;Node379821 -->
<g id="edge31" class="edge">
<title>Node379994&#45;&gt;Node379821</title>
<path fill="none" stroke="#191970" d="M550.7513,-608.3409C558.7039,-604.9116 566.1742,-600.2728 572,-594 624.1773,-537.8198 656.7135,-291.8902 665.2479,-219.8784"/>
<polygon fill="#191970" stroke="#191970" points="668.7725,-219.8685 666.4494,-209.5315 661.8192,-219.061 668.7725,-219.8685"/>
</g>
<!-- Node379994&#45;&gt;Node379802 -->
<g id="edge28" class="edge">
<title>Node379994&#45;&gt;Node379802</title>
<path fill="none" stroke="#191970" d="M537.9012,-608.4479C549.3561,-604.8338 561.5458,-600.0804 572,-594 590.7623,-583.0874 589.2237,-571.8886 608,-561 611.6408,-558.8886 615.5453,-556.9808 619.5499,-555.2632"/>
<polygon fill="#191970" stroke="#191970" points="620.9432,-558.4768 628.9984,-551.5947 618.4096,-551.9514 620.9432,-558.4768"/>
</g>
<!-- Node379994&#45;&gt;Node379813 -->
<g id="edge30" class="edge">
<title>Node379994&#45;&gt;Node379813</title>
<path fill="none" stroke="#191970" d="M542.5713,-627.5997C552.83,-631.0806 563.2675,-635.7563 572,-642 612.9773,-671.2989 643.8932,-723.4833 658.389,-751.311"/>
<polygon fill="#191970" stroke="#191970" points="655.3369,-753.0313 662.9749,-760.3737 661.5828,-749.8707 655.3369,-753.0313"/>
</g>
<!-- Node380178&#45;&gt;Node380024 -->
<g id="edge37" class="edge">
<title>Node380178&#45;&gt;Node380024</title>
<path fill="none" stroke="#191970" d="M344.7138,-285.4595C375.5435,-275.8829 423.2004,-261.0795 457.0839,-250.5543"/>
<polygon fill="#191970" stroke="#191970" points="458.1744,-253.8806 466.686,-247.5716 456.0979,-247.1957 458.1744,-253.8806"/>
</g>
<!-- Node380178&#45;&gt;Node380025 -->
<g id="edge38" class="edge">
<title>Node380178&#45;&gt;Node380025</title>
<path fill="none" stroke="#191970" d="M331.1955,-285.3168C348.2426,-274.7582 373.6823,-256.223 387,-233 432.8014,-153.1334 360.3862,-96.4978 423,-29 430.0126,-21.4404 439.5768,-16.713 449.5141,-13.797"/>
<polygon fill="#191970" stroke="#191970" points="450.5635,-17.1457 459.4951,-11.4469 448.9591,-10.332 450.5635,-17.1457"/>
</g>
<!-- Node380025&#45;&gt;Node379753 -->
<g id="edge40" class="edge">
<title>Node380025&#45;&gt;Node379753</title>
<path fill="none" stroke="#191970" d="M535.7505,-15.6653C547.8693,-18.5104 560.9719,-22.7406 572,-29 606.8575,-48.7845 637.8456,-84.6576 654.522,-106.2099"/>
<polygon fill="#191970" stroke="#191970" points="651.7535,-108.3517 660.5726,-114.2231 657.3399,-104.1335 651.7535,-108.3517"/>
</g>
<!-- Node380025&#45;&gt;Node379821 -->
<g id="edge39" class="edge">
<title>Node380025&#45;&gt;Node379821</title>
<path fill="none" stroke="#191970" d="M535.587,-12.2758C548.5404,-14.8276 562.2032,-19.7386 572,-29 610.6109,-65.5009 579.9403,-97.8806 608,-143 617.8209,-158.7918 633.0109,-173.2438 645.5845,-183.6445"/>
<polygon fill="#191970" stroke="#191970" points="643.7699,-186.6736 653.7731,-190.1644 648.1301,-181.1974 643.7699,-186.6736"/>
</g>
<!-- Node380034&#45;&gt;Node379820 -->
<g id="edge45" class="edge">
<title>Node380034&#45;&gt;Node379820</title>
<path fill="none" stroke="#191970" d="M540.3982,-964.7945C562.8615,-967.3051 590.5732,-970.4023 614.382,-973.0633"/>
<polygon fill="#191970" stroke="#191970" points="613.9933,-976.5415 624.3202,-974.174 614.7709,-969.5849 613.9933,-976.5415"/>
</g>
<!-- Node380034&#45;&gt;Node379813 -->
<g id="edge44" class="edge">
<title>Node380034&#45;&gt;Node379813</title>
<path fill="none" stroke="#191970" d="M510.9619,-950.3299C526.5423,-938.8038 552.548,-918.513 572,-898 606.1524,-861.9848 639.2394,-813.748 656.0508,-787.9934"/>
<polygon fill="#191970" stroke="#191970" points="658.9951,-789.8857 661.4799,-779.5863 653.1147,-786.0882 658.9951,-789.8857"/>
</g>
<!-- Node380180 -->
<g id="node28" class="node">
<title>Node380180</title>
<g id="a_node28"><a xlink:href="quickjs_8c.html#a91b2b06caf6cc28b1edf48334b95b51a" target="_top" xlink:title="js_proxy_isArray">
<polygon fill="none" stroke="#ff0000" points="269.5,-171.5 269.5,-190.5 358.5,-190.5 358.5,-171.5 269.5,-171.5"/>
<text text-anchor="middle" x="314" y="-178.5" font-family="Helvetica,sans-Serif" font-size="10.00" fill="#000000">js_proxy_isArray</text>
</a>
</g>
</g>
<!-- Node380179&#45;&gt;Node380180 -->
<g id="edge47" class="edge">
<title>Node380179&#45;&gt;Node380180</title>
<path fill="none" stroke="#191970" d="M205.3186,-181C221.2945,-181 240.934,-181 259.103,-181"/>
<polygon fill="#191970" stroke="#191970" points="259.3014,-184.5001 269.3014,-181 259.3013,-177.5001 259.3014,-184.5001"/>
</g>
<!-- Node380181&#45;&gt;Node379752 -->
<g id="edge52" class="edge">
<title>Node380181&#45;&gt;Node379752</title>
<path fill="none" stroke="#191970" d="M329.5679,-855.5765C350.1294,-867.7099 387.8541,-888.2167 423,-898 480.4457,-913.9907 548.0677,-919.6737 597.6184,-921.5382"/>
<polygon fill="#191970" stroke="#191970" points="597.7966,-925.046 607.9075,-921.8805 598.0294,-918.0499 597.7966,-925.046"/>
</g>
<!-- Node380181&#45;&gt;Node379820 -->
<g id="edge57" class="edge">
<title>Node380181&#45;&gt;Node379820</title>
<path fill="none" stroke="#191970" d="M316.6277,-855.8006C325.4544,-886.5068 357.2511,-980.9397 423,-1017 494.3818,-1056.1496 594.0748,-1016.5072 641.0394,-993.2776"/>
<polygon fill="#191970" stroke="#191970" points="642.9038,-996.2561 650.2316,-988.604 639.7313,-990.0163 642.9038,-996.2561"/>
</g>
<!-- Node380181&#45;&gt;Node379821 -->
<g id="edge61" class="edge">
<title>Node380181&#45;&gt;Node379821</title>
<path fill="none" stroke="#191970" d="M315.8518,-836.1967C323.1175,-800.1571 352.8015,-673.2497 423,-599 474.0714,-544.9812 524.4913,-580.1773 572,-523 611.9307,-474.943 651.7432,-282.0427 663.81,-219.6062"/>
<polygon fill="#191970" stroke="#191970" points="667.2962,-220.0095 665.734,-209.5305 660.4204,-218.6965 667.2962,-220.0095"/>
</g>
<!-- Node380181&#45;&gt;Node379802 -->
<g id="edge53" class="edge">
<title>Node380181&#45;&gt;Node379802</title>
<path fill="none" stroke="#191970" d="M375.0592,-849.9854C442.3024,-852.9547 544.5627,-852.8124 572,-827 658.8916,-745.2543 531.3172,-652.3906 608,-561 611.1866,-557.2022 615.1328,-554.1549 619.4655,-551.7111"/>
<polygon fill="#191970" stroke="#191970" points="621.1144,-554.8067 628.7824,-547.4956 618.2288,-548.4291 621.1144,-554.8067"/>
</g>
<!-- Node380181&#45;&gt;Node379813 -->
<g id="edge54" class="edge">
<title>Node380181&#45;&gt;Node379813</title>
<path fill="none" stroke="#191970" d="M344.3267,-855.5855C393.9373,-869.5585 494.6598,-890.7006 572,-860 608.4772,-845.5202 639.106,-809.7746 655.24,-787.94"/>
<polygon fill="#191970" stroke="#191970" points="658.0915,-789.9695 661.0606,-779.7991 652.3972,-785.8981 658.0915,-789.9695"/>
</g>
<!-- Node380181&#45;&gt;Node379994 -->
<g id="edge55" class="edge">
<title>Node380181&#45;&gt;Node379994</title>
<path fill="none" stroke="#191970" d="M321.6511,-836.4934C349.6309,-801.7284 446.6686,-681.1583 483.3278,-635.6091"/>
<polygon fill="#191970" stroke="#191970" points="486.2729,-637.532 489.8162,-627.5472 480.8197,-633.1431 486.2729,-637.532"/>
</g>
<!-- Node380181&#45;&gt;Node380058 -->
<g id="edge56" class="edge">
<title>Node380181&#45;&gt;Node380058</title>
<path fill="none" stroke="#191970" d="M360.3048,-836.411C385.4416,-831.2056 416.6668,-824.7393 442.975,-819.2913"/>
<polygon fill="#191970" stroke="#191970" points="443.7117,-822.7131 452.7942,-817.2579 442.2922,-815.8585 443.7117,-822.7131"/>
</g>
<!-- Node380182 -->
<g id="node30" class="node">
<title>Node380182</title>
<g id="a_node30"><a xlink:href="quickjs_8c.html#aa641af3a921335927dab07dc83285917" target="_top" xlink:title="JS_NewAtomInt64">
<polygon fill="none" stroke="#ff0000" points="448,-988.5 448,-1007.5 547,-1007.5 547,-988.5 448,-988.5"/>
<text text-anchor="middle" x="497.5" y="-995.5" font-family="Helvetica,sans-Serif" font-size="10.00" fill="#000000">JS_NewAtomInt64</text>
</a>
</g>
</g>
<!-- Node380181&#45;&gt;Node380182 -->
<g id="edge58" class="edge">
<title>Node380181&#45;&gt;Node380182</title>
<path fill="none" stroke="#191970" d="M319.1077,-855.8187C332.5345,-880.617 371.3755,-946.1299 423,-979 427.7149,-982.002 432.8807,-984.5303 438.2237,-986.6596"/>
<polygon fill="#191970" stroke="#191970" points="437.3785,-990.0721 447.9734,-990.0773 439.6943,-983.4662 437.3785,-990.0721"/>
</g>
<!-- Node380182&#45;&gt;Node379752 -->
<g id="edge59" class="edge">
<title>Node380182&#45;&gt;Node379752</title>
<path fill="none" stroke="#191970" d="M543.4875,-988.4869C553.078,-985.8917 563.0022,-982.7398 572,-979 586.4024,-973.0139 620.6601,-951.8827 643.9769,-937.1057"/>
<polygon fill="#191970" stroke="#191970" points="646.0568,-939.9307 652.612,-931.6073 642.297,-934.0261 646.0568,-939.9307"/>
</g>
<!-- Node380182&#45;&gt;Node379820 -->
<g id="edge60" class="edge">
<title>Node380182&#45;&gt;Node379820</title>
<path fill="none" stroke="#191970" d="M547.128,-992.4533C568.2792,-990.0894 592.9869,-987.3279 614.4946,-984.9241"/>
<polygon fill="#191970" stroke="#191970" points="614.8963,-988.4011 624.4456,-983.812 614.1187,-981.4444 614.8963,-988.4011"/>
</g>
</g>
</svg>
        <g id="navigator" transform="translate(0 0)" fill="#404254">
                <rect fill="#f2f5e9" fill-opacity="0.5" stroke="#606060" stroke-width=".5" x="0" y="0" width="60" height="60"/>
                <use id="zoomplus" xlink:href="#zoomPlus" x="17" y="9" onmousedown="handleZoom(evt,'in')"/>
                <use id="zoomminus" xlink:href="#zoomMin" x="42" y="9" onmousedown="handleZoom(evt,'out')"/>
                <use id="reset" xlink:href="#resetDef" x="30" y="36" onmousedown="handleReset()"/>
                <g id="arrowUp" xlink:href="#dirArrow" transform="translate(30 24)" onmousedown="handlePan(0,-1)">
                  <use xlink:href="#rim" fill="#404040">
                        <set attributeName="fill" to="#808080" begin="arrowUp.mouseover" end="arrowUp.mouseout"/>
                  </use>
                  <path fill="none" stroke="white" stroke-width="1.5" d="M0,-3.0v7 M-2.5,-0.5L0,-3.0L2.5,-0.5"/>
                </g>
                <g id="arrowRight" xlink:href="#dirArrow" transform="rotate(90) translate(36 -43)" onmousedown="handlePan(1,0)">
                  <use xlink:href="#rim" fill="#404040">
                        <set attributeName="fill" to="#808080" begin="arrowRight.mouseover" end="arrowRight.mouseout"/>
                  </use>
                  <path fill="none" stroke="white" stroke-width="1.5" d="M0,-3.0v7 M-2.5,-0.5L0,-3.0L2.5,-0.5"/>
                </g>
                <g id="arrowDown" xlink:href="#dirArrow" transform="rotate(180) translate(-30 -48)" onmousedown="handlePan(0,1)">
                  <use xlink:href="#rim" fill="#404040">
                        <set attributeName="fill" to="#808080" begin="arrowDown.mouseover" end="arrowDown.mouseout"/>
                  </use>
                  <path fill="none" stroke="white" stroke-width="1.5" d="M0,-3.0v7 M-2.5,-0.5L0,-3.0L2.5,-0.5"/>
                </g>
                <g id="arrowLeft" xlink:href="#dirArrow" transform="rotate(270) translate(-36 17)" onmousedown="handlePan(-1,0)">
                  <use xlink:href="#rim" fill="#404040">
                        <set attributeName="fill" to="#808080" begin="arrowLeft.mouseover" end="arrowLeft.mouseout"/>
                  </use>
                  <path fill="none" stroke="white" stroke-width="1.5" d="M0,-3.0v7 M-2.5,-0.5L0,-3.0L2.5,-0.5"/>
                </g>
        </g>
        <svg viewBox="0 0 15 15" width="100%" height="30px" preserveAspectRatio="xMaxYMin meet">
         <g id="arrow_out" transform="scale(0.3 0.3)">
          <a xlink:href="quickjs_8c_ad90c33b4aae1181151bda4a98ac2ef23_cgraph_org.svg" target="_base">
           <rect id="button" ry="5" rx="5" y="6" x="6" height="38" width="38"
                fill="#f2f5e9" fill-opacity="0.5" stroke="#606060" stroke-width="1.0"/>
           <path id="arrow"
             d="M 11.500037,31.436501 C 11.940474,20.09759 22.043105,11.32322 32.158766,21.979434 L 37.068811,17.246167 C 37.068811,17.246167 37.088388,32 37.088388,32 L 22.160133,31.978069 C 22.160133,31.978069 26.997745,27.140456 26.997745,27.140456 C 18.528582,18.264221 13.291696,25.230495 11.500037,31.436501 z"
             style="fill:#404040;"/>
          </a>
         </g>
        </svg>
</svg>
