<?xml version="1.0" encoding="UTF-8" standalone="no"?>
<!DOCTYPE svg PUBLIC "-//W3C//DTD SVG 1.1//EN"
 "http://www.w3.org/Graphics/SVG/1.1/DTD/svg11.dtd">
<!-- Generated by graphviz version 2.40.1 (20161225.0304)
 -->
<!-- Title: JS_AtomToCString Pages: 1 -->
<svg width="704pt" height="125pt"
 viewBox="0.00 0.00 704.00 125.00" xmlns="http://www.w3.org/2000/svg" xmlns:xlink="http://www.w3.org/1999/xlink">
<g id="graph0" class="graph" transform="scale(1 1) rotate(0) translate(4 121)">
<title>JS_AtomToCString</title>
<!-- Node24140 -->
<g id="node1" class="node">
<title>Node24140</title>
<polygon fill="#bfbfbf" stroke="#000000" points="0,-53.5 0,-72.5 101,-72.5 101,-53.5 0,-53.5"/>
<text text-anchor="middle" x="50.5" y="-60.5" font-family="Helvetica,sans-Serif" font-size="10.00" fill="#000000">JS_AtomToCString</text>
</g>
<!-- Node24141 -->
<g id="node2" class="node">
<title>Node24141</title>
<g id="a_node2"><a xlink:href="quickjs-libc_8c.html#afc77720d4d1c0b90749ce275a4a16f74" target="_top" xlink:title="build_envp">
<polygon fill="none" stroke="#000000" points="175,-97.5 175,-116.5 238,-116.5 238,-97.5 175,-97.5"/>
<text text-anchor="middle" x="206.5" y="-104.5" font-family="Helvetica,sans-Serif" font-size="10.00" fill="#000000">build_envp</text>
</a>
</g>
</g>
<!-- Node24140&#45;&gt;Node24141 -->
<g id="edge1" class="edge">
<title>Node24140&#45;&gt;Node24141</title>
<path fill="none" stroke="#191970" d="M93.1625,-75.4631C107.1218,-79.5055 122.7111,-83.9822 137,-88 149.403,-91.4875 163.0762,-95.2444 174.9896,-98.4893"/>
<polygon fill="#191970" stroke="#191970" points="93.9073,-72.0349 83.328,-72.6091 91.9563,-78.7575 93.9073,-72.0349"/>
</g>
<!-- Node24143 -->
<g id="node4" class="node">
<title>Node24143</title>
<g id="a_node4"><a xlink:href="quickjs_8c.html#a23b6e7c4e6a3bddc1cdd2139dcdf1283" target="_top" xlink:title="js_host_resolve_imported\l_module">
<polygon fill="none" stroke="#000000" points="142.5,-48 142.5,-78 270.5,-78 270.5,-48 142.5,-48"/>
<text text-anchor="start" x="150.5" y="-66" font-family="Helvetica,sans-Serif" font-size="10.00" fill="#000000">js_host_resolve_imported</text>
<text text-anchor="middle" x="206.5" y="-55" font-family="Helvetica,sans-Serif" font-size="10.00" fill="#000000">_module</text>
</a>
</g>
</g>
<!-- Node24140&#45;&gt;Node24143 -->
<g id="edge3" class="edge">
<title>Node24140&#45;&gt;Node24143</title>
<path fill="none" stroke="#191970" d="M111.2193,-63C121.4573,-63 132.1135,-63 142.4333,-63"/>
<polygon fill="#191970" stroke="#191970" points="111.1488,-59.5001 101.1487,-63 111.1487,-66.5001 111.1488,-59.5001"/>
</g>
<!-- Node24352 -->
<g id="node9" class="node">
<title>Node24352</title>
<g id="a_node9"><a xlink:href="quickjs-libc_8c.html#a5cc3e22713f1916d49867f60a7375505" target="_top" xlink:title="js_module_set_import_meta">
<polygon fill="none" stroke="#ff0000" points="137,-9.5 137,-28.5 276,-28.5 276,-9.5 137,-9.5"/>
<text text-anchor="middle" x="206.5" y="-16.5" font-family="Helvetica,sans-Serif" font-size="10.00" fill="#000000">js_module_set_import_meta</text>
</a>
</g>
</g>
<!-- Node24140&#45;&gt;Node24352 -->
<g id="edge10" class="edge">
<title>Node24140&#45;&gt;Node24352</title>
<path fill="none" stroke="#191970" d="M94.2551,-50.6588C119.1019,-43.6507 149.7332,-35.0112 172.7164,-28.5287"/>
<polygon fill="#191970" stroke="#191970" points="93.024,-47.3694 84.3497,-53.4527 94.9243,-54.1066 93.024,-47.3694"/>
</g>
<!-- Node24142 -->
<g id="node3" class="node">
<title>Node24142</title>
<g id="a_node3"><a xlink:href="quickjs-libc_8c.html#a0b92fee4bb5dda499a0b6d86da0e8be8" target="_top" xlink:title="js_os_exec">
<polygon fill="none" stroke="#000000" points="328,-97.5 328,-116.5 394,-116.5 394,-97.5 328,-97.5"/>
<text text-anchor="middle" x="361" y="-104.5" font-family="Helvetica,sans-Serif" font-size="10.00" fill="#000000">js_os_exec</text>
</a>
</g>
</g>
<!-- Node24141&#45;&gt;Node24142 -->
<g id="edge2" class="edge">
<title>Node24141&#45;&gt;Node24142</title>
<path fill="none" stroke="#191970" d="M248.4046,-107C273.3523,-107 304.5698,-107 327.8025,-107"/>
<polygon fill="#191970" stroke="#191970" points="248.1382,-103.5001 238.1382,-107 248.1382,-110.5001 248.1382,-103.5001"/>
</g>
<!-- Node24144 -->
<g id="node5" class="node">
<title>Node24144</title>
<g id="a_node5"><a xlink:href="quickjs_8c.html#a6357b7fdae71c70c140e78e6c20cb5c2" target="_top" xlink:title="js_dynamic_import_job">
<polygon fill="none" stroke="#000000" points="446,-47.5 446,-66.5 562,-66.5 562,-47.5 446,-47.5"/>
<text text-anchor="middle" x="504" y="-54.5" font-family="Helvetica,sans-Serif" font-size="10.00" fill="#000000">js_dynamic_import_job</text>
</a>
</g>
</g>
<!-- Node24143&#45;&gt;Node24144 -->
<g id="edge4" class="edge">
<title>Node24143&#45;&gt;Node24144</title>
<path fill="none" stroke="#191970" d="M280.6875,-61.5038C331.8002,-60.4729 398.7552,-59.1226 445.9749,-58.1703"/>
<polygon fill="#191970" stroke="#191970" points="280.6142,-58.0045 270.6868,-61.7055 280.7554,-65.003 280.6142,-58.0045"/>
</g>
<!-- Node24725 -->
<g id="node7" class="node">
<title>Node24725</title>
<g id="a_node7"><a xlink:href="quickjs_8c.html#a041f16b68daf31525cd76aa4794073ef" target="_top" xlink:title="js_resolve_module">
<polygon fill="none" stroke="#000000" points="312,-.5 312,-19.5 410,-19.5 410,-.5 312,-.5"/>
<text text-anchor="middle" x="361" y="-7.5" font-family="Helvetica,sans-Serif" font-size="10.00" fill="#000000">js_resolve_module</text>
</a>
</g>
</g>
<!-- Node24143&#45;&gt;Node24725 -->
<g id="edge6" class="edge">
<title>Node24143&#45;&gt;Node24725</title>
<path fill="none" stroke="#191970" d="M259.9491,-44.6647C284.5695,-36.2189 312.7644,-26.5468 333.1051,-19.5691"/>
<polygon fill="#191970" stroke="#191970" points="258.6835,-41.3986 250.3602,-47.9541 260.9549,-48.0198 258.6835,-41.3986"/>
</g>
<!-- Node24145 -->
<g id="node6" class="node">
<title>Node24145</title>
<g id="a_node6"><a xlink:href="quickjs_8c.html#a50e94675d1c4cf67c88e72169ea3c21a" target="_top" xlink:title="js_dynamic_import">
<polygon fill="none" stroke="#ff0000" points="598,-47.5 598,-66.5 696,-66.5 696,-47.5 598,-47.5"/>
<text text-anchor="middle" x="647" y="-54.5" font-family="Helvetica,sans-Serif" font-size="10.00" fill="#000000">js_dynamic_import</text>
</a>
</g>
</g>
<!-- Node24144&#45;&gt;Node24145 -->
<g id="edge5" class="edge">
<title>Node24144&#45;&gt;Node24145</title>
<path fill="none" stroke="#191970" d="M572.1691,-57C580.7427,-57 589.3802,-57 597.5873,-57"/>
<polygon fill="#191970" stroke="#191970" points="572.1636,-53.5001 562.1636,-57 572.1635,-60.5001 572.1636,-53.5001"/>
</g>
<!-- Node24725&#45;&gt;Node24144 -->
<g id="edge8" class="edge">
<title>Node24725&#45;&gt;Node24144</title>
<path fill="none" stroke="#191970" d="M399.6368,-22.6988C423.2348,-30.4548 452.9368,-40.217 474.614,-47.3417"/>
<polygon fill="#191970" stroke="#191970" points="400.5311,-19.3086 389.9382,-19.5112 398.3454,-25.9586 400.5311,-19.3086"/>
</g>
<!-- Node24725&#45;&gt;Node24725 -->
<g id="edge9" class="edge">
<title>Node24725&#45;&gt;Node24725</title>
<path fill="none" stroke="#191970" d="M334.4941,-28.6539C335.6021,-33.9368 344.4374,-38 361,-38 386.2383,-38 393.5337,-28.5653 382.8863,-19.7571"/>
<polygon fill="#191970" stroke="#191970" points="337.6117,-30.2449 339.1137,-19.7571 331.3992,-27.0192 337.6117,-30.2449"/>
</g>
<!-- Node24309 -->
<g id="node8" class="node">
<title>Node24309</title>
<g id="a_node8"><a xlink:href="quickjs_8c.html#a46a8a7e155cfd0af984f6725f060f0d6" target="_top" xlink:title="__JS_EvalInternal">
<polygon fill="none" stroke="#ff0000" points="456,-.5 456,-19.5 552,-19.5 552,-.5 456,-.5"/>
<text text-anchor="middle" x="504" y="-7.5" font-family="Helvetica,sans-Serif" font-size="10.00" fill="#000000">__JS_EvalInternal</text>
</a>
</g>
</g>
<!-- Node24725&#45;&gt;Node24309 -->
<g id="edge7" class="edge">
<title>Node24725&#45;&gt;Node24309</title>
<path fill="none" stroke="#191970" d="M420.3885,-10C432.1376,-10 444.336,-10 455.6646,-10"/>
<polygon fill="#191970" stroke="#191970" points="420.2125,-6.5001 410.2125,-10 420.2125,-13.5001 420.2125,-6.5001"/>
</g>
</g>
</svg>
