<?xml version="1.0" encoding="UTF-8" standalone="no"?>
<!DOCTYPE svg PUBLIC "-//W3C//DTD SVG 1.1//EN"
 "http://www.w3.org/Graphics/SVG/1.1/DTD/svg11.dtd">
<!-- Generated by graphviz version 2.40.1 (20161225.0304)
 -->
<!-- Title: js_async_function_resolve_call Pages: 1 -->
<!--zoomable 1069 -->
<svg id="main" version="1.1" xmlns="http://www.w3.org/2000/svg" xmlns:xlink="http://www.w3.org/1999/xlink" xml:space="preserve" onload="init(evt)">
<style type="text/css"><![CDATA[
.edge:hover path { stroke: red; }
.edge:hover polygon { stroke: red; fill: red; }
]]></style>
<script type="text/javascript"><![CDATA[
var edges = document.getElementsByTagName('g');
if (edges && edges.length) {
  for (var i=0;i<edges.length;i++) {
    if (edges[i].id.substr(0,4)=='edge') {
      edges[i].setAttribute('class','edge');
    }
  }
}
]]></script>
        <defs>
                <circle id="rim" cx="0" cy="0" r="7"/>
                <circle id="rim2" cx="0" cy="0" r="3.5"/>
                <g id="zoomPlus">
                        <use xlink:href="#rim" fill="#404040">
                                <set attributeName="fill" to="#808080" begin="zoomplus.mouseover" end="zoomplus.mouseout"/>
                        </use>
                        <path d="M-4,0h8M0,-4v8" fill="none" stroke="white" stroke-width="1.5" pointer-events="none"/>
                </g>
                <g id="zoomMin">
                        <use xlink:href="#rim" fill="#404040">
                                <set attributeName="fill" to="#808080" begin="zoomminus.mouseover" end="zoomminus.mouseout"/>
                        </use>
                        <path d="M-4,0h8" fill="none" stroke="white" stroke-width="1.5" pointer-events="none"/>
                </g>
                <g id="dirArrow">
                        <path fill="none" stroke="white" stroke-width="1.5" d="M0,-3.0v7 M-2.5,-0.5L0,-3.0L2.5,-0.5"/>
                </g>
               <g id="resetDef">
                       <use xlink:href="#rim2" fill="#404040">
                               <set attributeName="fill" to="#808080" begin="reset.mouseover" end="reset.mouseout"/>
                       </use>
               </g>
        </defs>

<script type="text/javascript">
var viewWidth = 1042;
var viewHeight = 1069;
var sectionId = 'dynsection-856';
</script>
<script xlink:href="svgpan.js"/>
<svg id="graph" class="graph">
<g id="viewport">
<title>js_async_function_resolve_call</title>
<!-- Node292011 -->
<g id="node1" class="node">
<title>Node292011</title>
<polygon fill="#bfbfbf" stroke="#000000" points="0,-295.4774 0,-314.4774 152,-314.4774 152,-295.4774 0,-295.4774"/>
<text text-anchor="middle" x="76" y="-302.4774" font-family="Helvetica,sans-Serif" font-size="10.00" fill="#000000">js_async_function_resolve_call</text>
</g>
<!-- Node292012 -->
<g id="node2" class="node">
<title>Node292012</title>
<g id="a_node2"><a xlink:href="quickjs_8c.html#a1bf6b62983e8fff99c0a5d5a9f486115" target="_top" xlink:title="js_async_function_resume">
<polygon fill="none" stroke="#000000" points="188,-295.4774 188,-314.4774 321,-314.4774 321,-295.4774 188,-295.4774"/>
<text text-anchor="middle" x="254.5" y="-302.4774" font-family="Helvetica,sans-Serif" font-size="10.00" fill="#000000">js_async_function_resume</text>
</a>
</g>
</g>
<!-- Node292011&#45;&gt;Node292012 -->
<g id="edge1" class="edge">
<title>Node292011&#45;&gt;Node292012</title>
<path fill="none" stroke="#191970" d="M152.2178,-304.9774C160.6387,-304.9774 169.2177,-304.9774 177.6462,-304.9774"/>
<polygon fill="#191970" stroke="#191970" points="177.832,-308.4775 187.8319,-304.9774 177.8319,-301.4775 177.832,-308.4775"/>
</g>
<!-- Node292046 -->
<g id="node6" class="node">
<title>Node292046</title>
<g id="a_node6"><a xlink:href="quickjs_8h.html#a775522f2d084fc8fa0fcb33f390006b4" target="_top" xlink:title="JS_DupValue">
<polygon fill="none" stroke="#000000" points="930,-861.4774 930,-880.4774 1007,-880.4774 1007,-861.4774 930,-861.4774"/>
<text text-anchor="middle" x="968.5" y="-868.4774" font-family="Helvetica,sans-Serif" font-size="10.00" fill="#000000">JS_DupValue</text>
</a>
</g>
</g>
<!-- Node292011&#45;&gt;Node292046 -->
<g id="edge60" class="edge">
<title>Node292011&#45;&gt;Node292046</title>
<path fill="none" stroke="#191970" d="M78.156,-314.536C98.1613,-402.0499 254.5321,-1060.9774 427.5,-1060.9774 427.5,-1060.9774 427.5,-1060.9774 602.5,-1060.9774 727.559,-1060.9774 760.2281,-1030.089 867,-964.9774 901.9635,-943.656 935.3796,-909.0366 953.7991,-888.292"/>
<polygon fill="#191970" stroke="#191970" points="956.5903,-890.4165 960.5233,-880.5787 951.3138,-885.8166 956.5903,-890.4165"/>
</g>
<!-- Node292191 -->
<g id="node14" class="node">
<title>Node292191</title>
<g id="a_node14"><a xlink:href="quickjs_8c.html#a3ae8a83da71ef07d6e858d172d9c5a81" target="_top" xlink:title="JS_Throw">
<polygon fill="none" stroke="#000000" points="756.5,-215.4774 756.5,-234.4774 817.5,-234.4774 817.5,-215.4774 756.5,-215.4774"/>
<text text-anchor="middle" x="787" y="-222.4774" font-family="Helvetica,sans-Serif" font-size="10.00" fill="#000000">JS_Throw</text>
</a>
</g>
</g>
<!-- Node292011&#45;&gt;Node292191 -->
<g id="edge61" class="edge">
<title>Node292011&#45;&gt;Node292191</title>
<path fill="none" stroke="#191970" d="M86.6601,-295.1221C121.8385,-263.3603 238.7492,-163.7889 357,-129.9774 491.1784,-91.6118 542.8007,-74.8348 671,-129.9774 692.3713,-139.1699 689.4445,-152.7118 707,-167.9774 724.8072,-183.4619 746.7375,-198.8605 763.1308,-209.742"/>
<polygon fill="#191970" stroke="#191970" points="761.3242,-212.7426 771.6072,-215.2943 765.1599,-206.887 761.3242,-212.7426"/>
</g>
<!-- Node292013 -->
<g id="node3" class="node">
<title>Node292013</title>
<g id="a_node3"><a xlink:href="quickjs_8c.html#ade71a22dc56e7371392393df663b28b3" target="_top" xlink:title="async_func_resume">
<polygon fill="none" stroke="#000000" points="375.5,-424.4774 375.5,-443.4774 479.5,-443.4774 479.5,-424.4774 375.5,-424.4774"/>
<text text-anchor="middle" x="427.5" y="-431.4774" font-family="Helvetica,sans-Serif" font-size="10.00" fill="#000000">async_func_resume</text>
</a>
</g>
</g>
<!-- Node292012&#45;&gt;Node292013 -->
<g id="edge2" class="edge">
<title>Node292012&#45;&gt;Node292013</title>
<path fill="none" stroke="#191970" d="M264.8464,-314.5648C282.8781,-331.0625 321.5309,-365.5007 357,-390.9774 371.1913,-401.1707 387.849,-411.4043 401.4082,-419.3295"/>
<polygon fill="#191970" stroke="#191970" points="399.8208,-422.4543 410.232,-424.4185 403.3181,-416.3906 399.8208,-422.4543"/>
</g>
<!-- Node292305 -->
<g id="node5" class="node">
<title>Node292305</title>
<g id="a_node5"><a xlink:href="quickjs_8c.html#a1a4c02a29525d5cb2085dd8bca3af350" target="_top" xlink:title="JS_Call">
<polygon fill="none" stroke="#000000" points="761.5,-367.4774 761.5,-386.4774 812.5,-386.4774 812.5,-367.4774 761.5,-367.4774"/>
<text text-anchor="middle" x="787" y="-374.4774" font-family="Helvetica,sans-Serif" font-size="10.00" fill="#000000">JS_Call</text>
</a>
</g>
</g>
<!-- Node292012&#45;&gt;Node292305 -->
<g id="edge25" class="edge">
<title>Node292012&#45;&gt;Node292305</title>
<path fill="none" stroke="#191970" d="M321.1334,-313.987C435.1041,-329.3971 663.6645,-360.3011 751.495,-372.1767"/>
<polygon fill="#191970" stroke="#191970" points="751.1124,-375.6568 761.4913,-373.5283 752.0504,-368.7199 751.1124,-375.6568"/>
</g>
<!-- Node292067 -->
<g id="node7" class="node">
<title>Node292067</title>
<g id="a_node7"><a xlink:href="quickjs_8h.html#afaa20c47565bc704c6c85f3d77254e7d" target="_top" xlink:title="JS_FreeValue">
<polygon fill="none" stroke="#ff0000" points="929.5,-215.4774 929.5,-234.4774 1007.5,-234.4774 1007.5,-215.4774 929.5,-215.4774"/>
<text text-anchor="middle" x="968.5" y="-222.4774" font-family="Helvetica,sans-Serif" font-size="10.00" fill="#000000">JS_FreeValue</text>
</a>
</g>
</g>
<!-- Node292012&#45;&gt;Node292067 -->
<g id="edge26" class="edge">
<title>Node292012&#45;&gt;Node292067</title>
<path fill="none" stroke="#191970" d="M256.8369,-295.2132C264.739,-264.5774 293.5874,-170.0195 357,-129.9774 452.9932,-69.3622 764.4975,-51.1703 867,-99.9774 913.5099,-122.1233 945.6535,-177.1544 960.0145,-206.2534"/>
<polygon fill="#191970" stroke="#191970" points="956.8928,-207.839 964.3469,-215.3682 963.215,-204.834 956.8928,-207.839"/>
</g>
<!-- Node292084 -->
<g id="node9" class="node">
<title>Node292084</title>
<g id="a_node9"><a xlink:href="quickjs_8h.html#ad80a83d73e9b7d872b88fbf2943aebe9" target="_top" xlink:title="JS_IsException">
<polygon fill="none" stroke="#000000" points="925.5,-576.4774 925.5,-595.4774 1011.5,-595.4774 1011.5,-576.4774 925.5,-576.4774"/>
<text text-anchor="middle" x="968.5" y="-583.4774" font-family="Helvetica,sans-Serif" font-size="10.00" fill="#000000">JS_IsException</text>
</a>
</g>
</g>
<!-- Node292012&#45;&gt;Node292084 -->
<g id="edge28" class="edge">
<title>Node292012&#45;&gt;Node292084</title>
<path fill="none" stroke="#191970" d="M255.2598,-314.7175C259.1341,-359.6467 279.6369,-550.2584 357,-680.9774 412.71,-775.1095 437.6015,-800.2882 534,-851.9774 665.279,-922.3696 746.1355,-977.0463 867,-889.9774 915.1332,-855.303 953.5007,-667.4872 964.9776,-605.696"/>
<polygon fill="#191970" stroke="#191970" points="968.4514,-606.1561 966.804,-595.6902 961.5652,-604.8991 968.4514,-606.1561"/>
</g>
<!-- Node292136 -->
<g id="node11" class="node">
<title>Node292136</title>
<g id="a_node11"><a xlink:href="quickjs_8h.html#a4e407128a9605afb77523e49e9a627fd" target="_top" xlink:title="JS_IsUndefined">
<polygon fill="none" stroke="#000000" points="925.5,-348.4774 925.5,-367.4774 1011.5,-367.4774 1011.5,-348.4774 925.5,-348.4774"/>
<text text-anchor="middle" x="968.5" y="-355.4774" font-family="Helvetica,sans-Serif" font-size="10.00" fill="#000000">JS_IsUndefined</text>
</a>
</g>
</g>
<!-- Node292012&#45;&gt;Node292136 -->
<g id="edge29" class="edge">
<title>Node292012&#45;&gt;Node292136</title>
<path fill="none" stroke="#191970" d="M269.9512,-295.2735C289.5716,-283.2876 324.7588,-262.9028 357,-249.9774 432.7639,-219.6039 454.9776,-221.4266 534,-200.9774 594.6331,-185.2869 616.7855,-199.3358 671,-167.9774 691.1383,-156.3291 685.6287,-139.1699 707,-129.9774 772.3245,-101.8793 809.6434,-87.9415 867,-129.9774 909.8558,-161.3859 881.641,-195.3266 903,-243.9774 918.5064,-279.2974 942.0832,-317.6635 956.3182,-339.6627"/>
<polygon fill="#191970" stroke="#191970" points="953.5616,-341.8421 961.9676,-348.2911 959.4179,-338.0076 953.5616,-341.8421"/>
</g>
<!-- Node292443 -->
<g id="node16" class="node">
<title>Node292443</title>
<g id="a_node16"><a xlink:href="quickjs_8c.html#a7068f4cd630e0bb554ea300ddb389715" target="_top" xlink:title="js_async_function_resolve\l_create">
<polygon fill="none" stroke="#000000" points="721,-13.9774 721,-43.9774 853,-43.9774 853,-13.9774 721,-13.9774"/>
<text text-anchor="start" x="729" y="-31.9774" font-family="Helvetica,sans-Serif" font-size="10.00" fill="#000000">js_async_function_resolve</text>
<text text-anchor="middle" x="787" y="-20.9774" font-family="Helvetica,sans-Serif" font-size="10.00" fill="#000000">_create</text>
</a>
</g>
</g>
<!-- Node292012&#45;&gt;Node292443 -->
<g id="edge19" class="edge">
<title>Node292012&#45;&gt;Node292443</title>
<path fill="none" stroke="#191970" d="M255.106,-295.274C258.0487,-257.3544 274.3245,-118.3541 357,-58.9774 461.2429,15.8888 618.8,3.9094 711.4539,-12.1553"/>
<polygon fill="#191970" stroke="#191970" points="710.8571,-15.6041 721.3179,-13.9237 712.0924,-8.7139 710.8571,-15.6041"/>
</g>
<!-- Node292444 -->
<g id="node18" class="node">
<title>Node292444</title>
<g id="a_node18"><a xlink:href="quickjs_8c.html#a4b282353917b10409ca38b279b0b1dce" target="_top" xlink:title="js_async_function_terminate">
<polygon fill="none" stroke="#000000" points="357,-139.4774 357,-158.4774 498,-158.4774 498,-139.4774 357,-139.4774"/>
<text text-anchor="middle" x="427.5" y="-146.4774" font-family="Helvetica,sans-Serif" font-size="10.00" fill="#000000">js_async_function_terminate</text>
</a>
</g>
</g>
<!-- Node292012&#45;&gt;Node292444 -->
<g id="edge23" class="edge">
<title>Node292012&#45;&gt;Node292444</title>
<path fill="none" stroke="#191970" d="M259.3167,-295.4592C271.9745,-271.3795 308.5676,-207.5048 357,-172.9774 363.0075,-168.6947 369.8396,-165.1287 376.8303,-162.1729"/>
<polygon fill="#191970" stroke="#191970" points="378.3107,-165.3539 386.3987,-158.5102 375.8083,-158.8165 378.3107,-165.3539"/>
</g>
<!-- Node292384 -->
<g id="node20" class="node">
<title>Node292384</title>
<g id="a_node20"><a xlink:href="quickjs_8c.html#a8551eaac7ef616910807cebdc515760d" target="_top" xlink:title="JS_GetException">
<polygon fill="none" stroke="#000000" points="740.5,-139.4774 740.5,-158.4774 833.5,-158.4774 833.5,-139.4774 740.5,-139.4774"/>
<text text-anchor="middle" x="787" y="-146.4774" font-family="Helvetica,sans-Serif" font-size="10.00" fill="#000000">JS_GetException</text>
</a>
</g>
</g>
<!-- Node292012&#45;&gt;Node292384 -->
<g id="edge27" class="edge">
<title>Node292012&#45;&gt;Node292384</title>
<path fill="none" stroke="#191970" d="M304.6961,-295.4365C383.7977,-279.7375 541.7544,-245.6893 671,-200.9774 673.1949,-200.2181 722.6851,-177.962 756.306,-162.8157"/>
<polygon fill="#191970" stroke="#191970" points="758.0585,-165.865 765.7378,-158.5657 755.1827,-159.483 758.0585,-165.865"/>
</g>
<!-- Node292446 -->
<g id="node21" class="node">
<title>Node292446</title>
<g id="a_node21"><a xlink:href="quickjs_8c.html#a192c7bd4fc5264ccdf89e13ed5bc0dcc" target="_top" xlink:title="js_promise_resolve">
<polygon fill="none" stroke="#000000" points="552,-614.4774 552,-633.4774 653,-633.4774 653,-614.4774 552,-614.4774"/>
<text text-anchor="middle" x="602.5" y="-621.4774" font-family="Helvetica,sans-Serif" font-size="10.00" fill="#000000">js_promise_resolve</text>
</a>
</g>
</g>
<!-- Node292012&#45;&gt;Node292446 -->
<g id="edge30" class="edge">
<title>Node292012&#45;&gt;Node292446</title>
<path fill="none" stroke="#191970" d="M259.4996,-314.4921C272.8688,-339.3363 311.5338,-407.3893 357,-452.9774 426.633,-522.7972 527.999,-583.1026 575.7393,-609.6085"/>
<polygon fill="#191970" stroke="#191970" points="574.098,-612.7002 584.547,-614.4518 577.471,-606.5664 574.098,-612.7002"/>
</g>
<!-- Node292448 -->
<g id="node24" class="node">
<title>Node292448</title>
<g id="a_node24"><a xlink:href="quickjs_8c.html#a944c09a3f1ce23a5760b6ed6e83e3644" target="_top" xlink:title="perform_promise_then">
<polygon fill="none" stroke="#000000" points="371,-652.4774 371,-671.4774 484,-671.4774 484,-652.4774 371,-652.4774"/>
<text text-anchor="middle" x="427.5" y="-659.4774" font-family="Helvetica,sans-Serif" font-size="10.00" fill="#000000">perform_promise_then</text>
</a>
</g>
</g>
<!-- Node292012&#45;&gt;Node292448 -->
<g id="edge45" class="edge">
<title>Node292012&#45;&gt;Node292448</title>
<path fill="none" stroke="#191970" d="M257.4528,-314.6736C268.2147,-349.3968 307.32,-470.3401 357,-561.9774 373.593,-592.584 397.8368,-624.9894 413.1335,-644.3449"/>
<polygon fill="#191970" stroke="#191970" points="410.4917,-646.6454 419.4725,-652.2664 415.9572,-642.2717 410.4917,-646.6454"/>
</g>
<!-- Node292014 -->
<g id="node4" class="node">
<title>Node292014</title>
<g id="a_node4"><a xlink:href="quickjs_8c.html#ac2894ff4edcdb4e6841bcce9c76081e3" target="_top" xlink:title="JS_CallInternal">
<polygon fill="none" stroke="#ff0000" points="561,-443.4774 561,-462.4774 644,-462.4774 644,-443.4774 561,-443.4774"/>
<text text-anchor="middle" x="602.5" y="-450.4774" font-family="Helvetica,sans-Serif" font-size="10.00" fill="#000000">JS_CallInternal</text>
</a>
</g>
</g>
<!-- Node292013&#45;&gt;Node292014 -->
<g id="edge3" class="edge">
<title>Node292013&#45;&gt;Node292014</title>
<path fill="none" stroke="#191970" d="M479.532,-439.6266C502.0737,-442.074 528.3959,-444.9318 550.8901,-447.3741"/>
<polygon fill="#191970" stroke="#191970" points="550.6093,-450.864 560.9286,-448.464 551.3649,-443.9049 550.6093,-450.864"/>
</g>
<!-- Node292014&#45;&gt;Node292014 -->
<g id="edge6" class="edge">
<title>Node292014&#45;&gt;Node292014</title>
<path fill="none" stroke="#191970" d="M575.6815,-462.7345C562.6347,-471.5427 571.5742,-480.9774 602.5,-480.9774 623.2783,-480.9774 634.1316,-476.7184 635.0599,-471.252"/>
<polygon fill="#191970" stroke="#191970" points="637.8102,-469.0702 629.3185,-462.7345 632.0057,-472.9829 637.8102,-469.0702"/>
</g>
<!-- Node292014&#45;&gt;Node292305 -->
<g id="edge4" class="edge">
<title>Node292014&#45;&gt;Node292305</title>
<path fill="none" stroke="#191970" d="M610.6778,-443.4052C628.0058,-429.5378 669.8767,-406.6585 707,-391.9774 721.3228,-386.3132 737.5326,-381.2176 751.5976,-377.8367"/>
<polygon fill="#191970" stroke="#191970" points="752.3801,-381.2484 761.4025,-375.6944 750.8859,-374.4098 752.3801,-381.2484"/>
</g>
<!-- Node292014&#45;&gt;Node292046 -->
<g id="edge7" class="edge">
<title>Node292014&#45;&gt;Node292046</title>
<path fill="none" stroke="#191970" d="M607.5103,-462.7243C619.6125,-486.5353 650.9191,-549.7573 671,-604.9774 691.1964,-660.5152 669.4669,-687.3308 707,-732.9774 757.6219,-794.5421 796.6802,-776.4551 867,-813.9774 893.286,-828.0035 922.9572,-844.7777 943.3977,-856.4836"/>
<polygon fill="#191970" stroke="#191970" points="941.6796,-859.533 952.0945,-861.4773 945.1652,-853.4625 941.6796,-859.533"/>
</g>
<!-- Node292014&#45;&gt;Node292067 -->
<g id="edge8" class="edge">
<title>Node292014&#45;&gt;Node292067</title>
<path fill="none" stroke="#191970" d="M643.1468,-443.4201C662.4681,-438.934 685.9022,-433.5752 707,-428.9774 777.9428,-413.5169 807.8748,-438.1213 867,-395.9774 870.5774,-393.4275 932.6664,-286.7707 957.9335,-243.2161"/>
<polygon fill="#191970" stroke="#191970" points="961.0053,-244.8959 962.9932,-234.4892 954.9495,-241.3848 961.0053,-244.8959"/>
</g>
<!-- Node292077 -->
<g id="node8" class="node">
<title>Node292077</title>
<g id="a_node8"><a xlink:href="quickjs_8h.html#a89b7c8686c7eee70b86be722ee4730ad" target="_top" xlink:title="JS_GetProperty">
<polygon fill="none" stroke="#ff0000" points="744,-519.4774 744,-538.4774 830,-538.4774 830,-519.4774 744,-519.4774"/>
<text text-anchor="middle" x="787" y="-526.4774" font-family="Helvetica,sans-Serif" font-size="10.00" fill="#000000">JS_GetProperty</text>
</a>
</g>
</g>
<!-- Node292014&#45;&gt;Node292077 -->
<g id="edge9" class="edge">
<title>Node292014&#45;&gt;Node292077</title>
<path fill="none" stroke="#191970" d="M619.4697,-462.5487C639.8123,-473.7552 675.1531,-492.3829 707,-504.9774 717.7421,-509.2256 729.5456,-513.1539 740.7097,-516.5501"/>
<polygon fill="#191970" stroke="#191970" points="739.7311,-519.9104 750.3132,-519.3922 741.7176,-513.1982 739.7311,-519.9104"/>
</g>
<!-- Node292014&#45;&gt;Node292084 -->
<g id="edge10" class="edge">
<title>Node292014&#45;&gt;Node292084</title>
<path fill="none" stroke="#191970" d="M644.0963,-456.3938C697.7063,-462.0181 792.8336,-476.1888 867,-509.9774 899.807,-524.9236 932.1768,-551.8487 951.2432,-569.3103"/>
<polygon fill="#191970" stroke="#191970" points="949.0978,-572.0961 958.7919,-576.371 953.8796,-566.9838 949.0978,-572.0961"/>
</g>
<!-- Node292306 -->
<g id="node10" class="node">
<title>Node292306</title>
<g id="a_node10"><a xlink:href="quickjs_8h.html#a3d68fe446df2d9c7d1900b16371bff5b" target="_top" xlink:title="JS_IsObject">
<polygon fill="none" stroke="#000000" points="751.5,-595.4774 751.5,-614.4774 822.5,-614.4774 822.5,-595.4774 751.5,-595.4774"/>
<text text-anchor="middle" x="787" y="-602.4774" font-family="Helvetica,sans-Serif" font-size="10.00" fill="#000000">JS_IsObject</text>
</a>
</g>
</g>
<!-- Node292014&#45;&gt;Node292306 -->
<g id="edge11" class="edge">
<title>Node292014&#45;&gt;Node292306</title>
<path fill="none" stroke="#191970" d="M607.0699,-462.4863C619.4274,-487.1255 656.0392,-553.3848 707,-585.9774 717.1385,-592.4616 729.2753,-596.7356 740.9949,-599.552"/>
<polygon fill="#191970" stroke="#191970" points="740.621,-603.0494 751.1257,-601.6706 742.0539,-596.1977 740.621,-603.0494"/>
</g>
<!-- Node292014&#45;&gt;Node292136 -->
<g id="edge12" class="edge">
<title>Node292014&#45;&gt;Node292136</title>
<path fill="none" stroke="#191970" d="M644.2558,-455.6809C697.6271,-457.6955 792.08,-456.3629 867,-428.9774 899.9011,-416.9511 932.0278,-391.4827 951.0444,-374.5481"/>
<polygon fill="#191970" stroke="#191970" points="953.5611,-376.9896 958.5854,-367.6619 948.8409,-371.8205 953.5611,-376.9896"/>
</g>
<!-- Node292398 -->
<g id="node12" class="node">
<title>Node292398</title>
<g id="a_node12"><a xlink:href="quickjs_8h.html#a93abffa925714e249a6aa2f4ae7900f6" target="_top" xlink:title="JS_NewBool">
<polygon fill="none" stroke="#000000" points="750,-329.4774 750,-348.4774 824,-348.4774 824,-329.4774 750,-329.4774"/>
<text text-anchor="middle" x="787" y="-336.4774" font-family="Helvetica,sans-Serif" font-size="10.00" fill="#000000">JS_NewBool</text>
</a>
</g>
</g>
<!-- Node292014&#45;&gt;Node292398 -->
<g id="edge13" class="edge">
<title>Node292014&#45;&gt;Node292398</title>
<path fill="none" stroke="#191970" d="M610.0259,-443.4637C625.8206,-424.1766 664.4967,-380.403 707,-357.9774 717.0532,-352.6732 728.592,-348.8304 739.7197,-346.0532"/>
<polygon fill="#191970" stroke="#191970" points="740.7819,-349.4017 749.769,-343.7908 739.2445,-342.5726 740.7819,-349.4017"/>
</g>
<!-- Node292220 -->
<g id="node13" class="node">
<title>Node292220</title>
<g id="a_node13"><a xlink:href="quickjs_8c.html#a24be89a128d1cd7c0908604815b2b854" target="_top" xlink:title="js_same_value">
<polygon fill="none" stroke="#ff0000" points="746,-823.4774 746,-842.4774 828,-842.4774 828,-823.4774 746,-823.4774"/>
<text text-anchor="middle" x="787" y="-830.4774" font-family="Helvetica,sans-Serif" font-size="10.00" fill="#000000">js_same_value</text>
</a>
</g>
</g>
<!-- Node292014&#45;&gt;Node292220 -->
<g id="edge14" class="edge">
<title>Node292014&#45;&gt;Node292220</title>
<path fill="none" stroke="#191970" d="M607.7266,-462.6493C620.3091,-486.2939 652.6015,-549.1743 671,-604.9774 694.6386,-676.6738 666.738,-707.1172 707,-770.9774 719.7685,-791.2297 741.6067,-807.4868 759.2435,-818.2647"/>
<polygon fill="#191970" stroke="#191970" points="757.6141,-821.3663 768.0132,-823.3935 761.148,-815.3238 757.6141,-821.3663"/>
</g>
<!-- Node292014&#45;&gt;Node292191 -->
<g id="edge16" class="edge">
<title>Node292014&#45;&gt;Node292191</title>
<path fill="none" stroke="#191970" d="M609.9932,-443.2091C627.0033,-421.086 669.9372,-365.5359 707,-319.9774 729.3019,-292.5633 755.8386,-261.312 772.0462,-242.3737"/>
<polygon fill="#191970" stroke="#191970" points="774.862,-244.4667 778.7138,-234.5968 769.5478,-239.9105 774.862,-244.4667"/>
</g>
<!-- Node292250 -->
<g id="node15" class="node">
<title>Node292250</title>
<g id="a_node15"><a xlink:href="quickjs_8c.html#a726b00d108e0a0f4d958c36c2e426a64" target="_top" xlink:title="JS_ThrowTypeErrorNotAnObject">
<polygon fill="none" stroke="#000000" points="707,-557.4774 707,-576.4774 867,-576.4774 867,-557.4774 707,-557.4774"/>
<text text-anchor="middle" x="787" y="-564.4774" font-family="Helvetica,sans-Serif" font-size="10.00" fill="#000000">JS_ThrowTypeErrorNotAnObject</text>
</a>
</g>
</g>
<!-- Node292014&#45;&gt;Node292250 -->
<g id="edge18" class="edge">
<title>Node292014&#45;&gt;Node292250</title>
<path fill="none" stroke="#191970" d="M610.0259,-462.4911C625.8206,-481.7782 664.4967,-525.5519 707,-547.9774 711.4624,-550.3318 716.2175,-552.3983 721.0994,-554.2115"/>
<polygon fill="#191970" stroke="#191970" points="720.0064,-557.5365 730.6003,-557.3951 722.2306,-550.8992 720.0064,-557.5365"/>
</g>
<!-- Node292305&#45;&gt;Node292014 -->
<g id="edge5" class="edge">
<title>Node292305&#45;&gt;Node292014</title>
<path fill="none" stroke="#191970" d="M773.7419,-386.5784C757.6799,-393.3031 729.9233,-400.912 707,-409.9774 685.3982,-418.5202 662.1889,-429.839 643.1432,-438.9265"/>
<polygon fill="#191970" stroke="#191970" points="641.4131,-435.8732 633.8742,-443.3174 644.4099,-442.1993 641.4131,-435.8732"/>
</g>
<!-- Node292220&#45;&gt;Node292046 -->
<g id="edge15" class="edge">
<title>Node292220&#45;&gt;Node292046</title>
<path fill="none" stroke="#191970" d="M828.1852,-841.6002C855.5044,-847.3199 891.4683,-854.8496 920.1462,-860.8538"/>
<polygon fill="#191970" stroke="#191970" points="919.4549,-864.2848 929.9599,-862.9084 920.8894,-857.4334 919.4549,-864.2848"/>
</g>
<!-- Node292191&#45;&gt;Node292067 -->
<g id="edge17" class="edge">
<title>Node292191&#45;&gt;Node292067</title>
<path fill="none" stroke="#191970" d="M817.789,-224.9774C845.5325,-224.9774 886.8089,-224.9774 919.1535,-224.9774"/>
<polygon fill="#191970" stroke="#191970" points="919.3128,-228.4775 929.3127,-224.9774 919.3127,-221.4775 919.3128,-228.4775"/>
</g>
<!-- Node292443&#45;&gt;Node292067 -->
<g id="edge20" class="edge">
<title>Node292443&#45;&gt;Node292067</title>
<path fill="none" stroke="#191970" d="M842.1486,-44.0878C851.021,-48.0339 859.6806,-52.9317 867,-58.9774 916.3518,-99.7414 948.2549,-171.1097 961.5005,-205.4409"/>
<polygon fill="#191970" stroke="#191970" points="958.3674,-207.0559 965.1439,-215.2002 964.9253,-204.6076 958.3674,-207.0559"/>
</g>
<!-- Node292443&#45;&gt;Node292084 -->
<g id="edge21" class="edge">
<title>Node292443&#45;&gt;Node292084</title>
<path fill="none" stroke="#191970" d="M803.2498,-44.0169C821.9568,-62.3685 852.0245,-95.2667 867,-129.9774 910.9471,-231.8392 878.3339,-268.8167 903,-376.9774 919.2363,-448.1737 947.973,-530.1668 961.3182,-566.692"/>
<polygon fill="#191970" stroke="#191970" points="958.0523,-567.9517 964.7935,-576.1252 964.6207,-565.5318 958.0523,-567.9517"/>
</g>
<!-- Node292168 -->
<g id="node17" class="node">
<title>Node292168</title>
<g id="a_node17"><a xlink:href="quickjs_8c.html#a73738c650f11459db0d7af3dcdf8316b" target="_top" xlink:title="JS_NewObjectProtoClass">
<polygon fill="none" stroke="#ff0000" points="903,-19.4774 903,-38.4774 1034,-38.4774 1034,-19.4774 903,-19.4774"/>
<text text-anchor="middle" x="968.5" y="-26.4774" font-family="Helvetica,sans-Serif" font-size="10.00" fill="#000000">JS_NewObjectProtoClass</text>
</a>
</g>
</g>
<!-- Node292443&#45;&gt;Node292168 -->
<g id="edge22" class="edge">
<title>Node292443&#45;&gt;Node292168</title>
<path fill="none" stroke="#191970" d="M853.0391,-28.9774C865.8356,-28.9774 879.3416,-28.9774 892.4292,-28.9774"/>
<polygon fill="#191970" stroke="#191970" points="892.814,-32.4775 902.814,-28.9774 892.8139,-25.4775 892.814,-32.4775"/>
</g>
<!-- Node292445 -->
<g id="node19" class="node">
<title>Node292445</title>
<g id="a_node19"><a xlink:href="quickjs_8c.html#ab3180b5caf3b66ac6db634e41e56a4ef" target="_top" xlink:title="async_func_free">
<polygon fill="none" stroke="#ff0000" points="558,-139.4774 558,-158.4774 647,-158.4774 647,-139.4774 558,-139.4774"/>
<text text-anchor="middle" x="602.5" y="-146.4774" font-family="Helvetica,sans-Serif" font-size="10.00" fill="#000000">async_func_free</text>
</a>
</g>
</g>
<!-- Node292444&#45;&gt;Node292445 -->
<g id="edge24" class="edge">
<title>Node292444&#45;&gt;Node292445</title>
<path fill="none" stroke="#191970" d="M498.1748,-148.9774C514.7495,-148.9774 532.1614,-148.9774 547.9086,-148.9774"/>
<polygon fill="#191970" stroke="#191970" points="547.9909,-152.4775 557.9909,-148.9774 547.9909,-145.4775 547.9909,-152.4775"/>
</g>
<!-- Node292446&#45;&gt;Node292305 -->
<g id="edge31" class="edge">
<title>Node292446&#45;&gt;Node292305</title>
<path fill="none" stroke="#191970" d="M609.7326,-614.2947C637.46,-577.1746 737.2353,-443.6001 773.6106,-394.9025"/>
<polygon fill="#191970" stroke="#191970" points="776.637,-396.6994 779.8174,-386.5932 771.0288,-392.5103 776.637,-396.6994"/>
</g>
<!-- Node292446&#45;&gt;Node292046 -->
<g id="edge32" class="edge">
<title>Node292446&#45;&gt;Node292046</title>
<path fill="none" stroke="#191970" d="M653.2081,-630.711C659.9513,-633.5614 666.1852,-637.5151 671,-642.9774 744.357,-726.1994 623.0888,-817.4097 707,-889.9774 773.1212,-947.1601 887.202,-907.8551 940.074,-884.6483"/>
<polygon fill="#191970" stroke="#191970" points="941.5314,-887.8306 949.2088,-880.5293 938.6539,-881.4493 941.5314,-887.8306"/>
</g>
<!-- Node292446&#45;&gt;Node292067 -->
<g id="edge33" class="edge">
<title>Node292446&#45;&gt;Node292067</title>
<path fill="none" stroke="#191970" d="M653.2356,-631.58C721.0944,-640.5062 836.4301,-650.9288 867,-623.9774 914.8843,-581.7612 882.7025,-399.5011 903,-338.9774 915.2565,-302.4306 939.8457,-264.4929 955.163,-242.9031"/>
<polygon fill="#191970" stroke="#191970" points="958.0699,-244.8562 961.0969,-234.7029 952.399,-240.7524 958.0699,-244.8562"/>
</g>
<!-- Node292446&#45;&gt;Node292077 -->
<g id="edge35" class="edge">
<title>Node292446&#45;&gt;Node292077</title>
<path fill="none" stroke="#191970" d="M612.5919,-614.4686C630.2864,-598.3248 668.6827,-565.5964 707,-547.9774 715.3817,-544.1233 724.6298,-541.0043 733.7727,-538.4948"/>
<polygon fill="#191970" stroke="#191970" points="734.7714,-541.8525 743.6064,-536.0051 733.0532,-535.0666 734.7714,-541.8525"/>
</g>
<!-- Node292446&#45;&gt;Node292084 -->
<g id="edge36" class="edge">
<title>Node292446&#45;&gt;Node292084</title>
<path fill="none" stroke="#191970" d="M653.1504,-633.3737C659.5102,-635.8594 665.6507,-639.0027 671,-642.9774 695.0506,-660.8477 680.759,-685.5142 707,-699.9774 769.2779,-734.3031 802.1177,-729.082 867,-699.9774 910.7138,-680.3684 943.3083,-631.5967 958.686,-604.6343"/>
<polygon fill="#191970" stroke="#191970" points="961.8029,-606.2298 963.5612,-595.7819 955.6713,-602.8529 961.8029,-606.2298"/>
</g>
<!-- Node292446&#45;&gt;Node292306 -->
<g id="edge37" class="edge">
<title>Node292446&#45;&gt;Node292306</title>
<path fill="none" stroke="#191970" d="M653.4038,-618.7353C680.8993,-615.9038 714.5734,-612.436 741.2347,-609.6904"/>
<polygon fill="#191970" stroke="#191970" points="741.8616,-613.1444 751.4504,-608.6383 741.1445,-606.1812 741.8616,-613.1444"/>
</g>
<!-- Node292446&#45;&gt;Node292220 -->
<g id="edge43" class="edge">
<title>Node292446&#45;&gt;Node292220</title>
<path fill="none" stroke="#191970" d="M653.224,-631.1549C659.8807,-633.9527 666.0849,-637.7738 671,-642.9774 722.8383,-697.8586 655.7376,-753.5579 707,-808.9774 714.6894,-817.2904 725.132,-822.7649 735.9326,-826.3592"/>
<polygon fill="#191970" stroke="#191970" points="735.3092,-829.8196 745.8834,-829.1589 737.2051,-823.0812 735.3092,-829.8196"/>
</g>
<!-- Node292446&#45;&gt;Node292250 -->
<g id="edge44" class="edge">
<title>Node292446&#45;&gt;Node292250</title>
<path fill="none" stroke="#191970" d="M626.3094,-614.4265C647.3206,-606.2136 678.8904,-594.3955 707,-585.9774 715.3461,-583.478 724.2596,-581.0904 732.9957,-578.9034"/>
<polygon fill="#191970" stroke="#191970" points="733.8589,-582.2955 742.7438,-576.5241 732.1991,-575.4951 733.8589,-582.2955"/>
</g>
<!-- Node292447 -->
<g id="node22" class="node">
<title>Node292447</title>
<g id="a_node22"><a xlink:href="quickjs_8c.html#a5644dc5dba0d760dcc06cc1a79e256cc" target="_top" xlink:title="JS_GetOpaque">
<polygon fill="none" stroke="#000000" points="745.5,-861.4774 745.5,-880.4774 828.5,-880.4774 828.5,-861.4774 745.5,-861.4774"/>
<text text-anchor="middle" x="787" y="-868.4774" font-family="Helvetica,sans-Serif" font-size="10.00" fill="#000000">JS_GetOpaque</text>
</a>
</g>
</g>
<!-- Node292446&#45;&gt;Node292447 -->
<g id="edge34" class="edge">
<title>Node292446&#45;&gt;Node292447</title>
<path fill="none" stroke="#191970" d="M653.0835,-630.8224C659.8433,-633.6579 666.115,-637.5778 671,-642.9774 734.2354,-712.8747 642.469,-783.2745 707,-851.9774 714.5575,-860.0235 724.8486,-864.9423 735.5324,-867.889"/>
<polygon fill="#191970" stroke="#191970" points="734.8668,-871.3263 745.3873,-870.0738 736.382,-864.4923 734.8668,-871.3263"/>
</g>
<!-- Node292388 -->
<g id="node23" class="node">
<title>Node292388</title>
<g id="a_node23"><a xlink:href="quickjs_8c.html#a28c0ccdd26317bc38d0a693f1dffe4dc" target="_top" xlink:title="js_new_promise_capability">
<polygon fill="none" stroke="#ff0000" points="720,-671.4774 720,-690.4774 854,-690.4774 854,-671.4774 720,-671.4774"/>
<text text-anchor="middle" x="787" y="-678.4774" font-family="Helvetica,sans-Serif" font-size="10.00" fill="#000000">js_new_promise_capability</text>
</a>
</g>
</g>
<!-- Node292446&#45;&gt;Node292388 -->
<g id="edge38" class="edge">
<title>Node292446&#45;&gt;Node292388</title>
<path fill="none" stroke="#191970" d="M639.6774,-633.5588C649.8922,-636.3892 660.9277,-639.6314 671,-642.9774 687.2919,-648.3896 690.7656,-651.3954 707,-656.9774 718.677,-660.9924 731.4376,-664.9919 743.2687,-668.542"/>
<polygon fill="#191970" stroke="#191970" points="742.3618,-671.9236 752.9441,-671.4088 744.3504,-665.212 742.3618,-671.9236"/>
</g>
<!-- Node292388&#45;&gt;Node292046 -->
<g id="edge39" class="edge">
<title>Node292388&#45;&gt;Node292046</title>
<path fill="none" stroke="#191970" d="M839.1781,-690.6156C849.0616,-694.0467 858.8462,-698.6918 867,-704.9774 917.937,-744.2437 949.2503,-816.923 961.9544,-851.5955"/>
<polygon fill="#191970" stroke="#191970" points="958.7961,-853.1631 965.4266,-861.4267 965.3966,-850.8319 958.7961,-853.1631"/>
</g>
<!-- Node292388&#45;&gt;Node292067 -->
<g id="edge40" class="edge">
<title>Node292388&#45;&gt;Node292067</title>
<path fill="none" stroke="#191970" d="M847.657,-671.3303C855.0367,-667.8624 861.7935,-663.2088 867,-656.9774 912.5994,-602.402 880.8234,-406.5494 903,-338.9774 915.0201,-302.3522 939.6847,-264.4395 955.0809,-242.8758"/>
<polygon fill="#191970" stroke="#191970" points="957.9876,-244.8299 961.0478,-234.6866 952.3301,-240.7076 957.9876,-244.8299"/>
</g>
<!-- Node292388&#45;&gt;Node292084 -->
<g id="edge41" class="edge">
<title>Node292388&#45;&gt;Node292084</title>
<path fill="none" stroke="#191970" d="M827.8245,-671.4448C840.6872,-667.7312 854.732,-662.9175 867,-656.9774 898.0229,-641.9562 929.987,-617.9125 949.5527,-602.0326"/>
<polygon fill="#191970" stroke="#191970" points="951.8943,-604.6382 957.3811,-595.5748 947.4398,-599.2384 951.8943,-604.6382"/>
</g>
<!-- Node292388&#45;&gt;Node292136 -->
<g id="edge42" class="edge">
<title>Node292388&#45;&gt;Node292136</title>
<path fill="none" stroke="#191970" d="M843.6399,-671.438C852.2424,-667.9949 860.4258,-663.3204 867,-656.9774 877.6286,-646.7227 942.3063,-441.7958 962.4894,-377.262"/>
<polygon fill="#191970" stroke="#191970" points="965.8865,-378.1251 965.5264,-367.5364 959.2047,-376.0385 965.8865,-378.1251"/>
</g>
<!-- Node292448&#45;&gt;Node292046 -->
<g id="edge46" class="edge">
<title>Node292448&#45;&gt;Node292046</title>
<path fill="none" stroke="#191970" d="M430.6311,-671.4913C440.929,-701.5249 476.4192,-795.6571 534,-851.9774 596.2561,-912.8706 622.5024,-922.9069 707,-943.9774 775.9983,-961.183 799.3166,-965.7891 867,-943.9774 901.193,-932.9584 933.5986,-905.6746 952.2359,-887.7627"/>
<polygon fill="#191970" stroke="#191970" points="954.9196,-890.031 959.5665,-880.5095 949.9962,-885.055 954.9196,-890.031"/>
</g>
<!-- Node292448&#45;&gt;Node292398 -->
<g id="edge50" class="edge">
<title>Node292448&#45;&gt;Node292398</title>
<path fill="none" stroke="#191970" d="M429.441,-652.3284C436.818,-617.9887 466.1945,-500.2369 534,-433.9774 591.0203,-378.2571 683.8122,-354.6517 739.7656,-345.0772"/>
<polygon fill="#191970" stroke="#191970" points="740.4604,-348.5102 749.7677,-343.4481 739.3351,-341.6013 740.4604,-348.5102"/>
</g>
<!-- Node292385 -->
<g id="node25" class="node">
<title>Node292385</title>
<g id="a_node25"><a xlink:href="quickjs_8c.html#a39d815a00b3ec1aed21699396fb43869" target="_top" xlink:title="JS_EnqueueJob">
<polygon fill="none" stroke="#ff0000" points="558.5,-823.4774 558.5,-842.4774 646.5,-842.4774 646.5,-823.4774 558.5,-823.4774"/>
<text text-anchor="middle" x="602.5" y="-830.4774" font-family="Helvetica,sans-Serif" font-size="10.00" fill="#000000">JS_EnqueueJob</text>
</a>
</g>
</g>
<!-- Node292448&#45;&gt;Node292385 -->
<g id="edge47" class="edge">
<title>Node292448&#45;&gt;Node292385</title>
<path fill="none" stroke="#191970" d="M437.4102,-671.6611C466.0463,-699.6427 549.1617,-780.8583 585.3394,-816.2091"/>
<polygon fill="#191970" stroke="#191970" points="583.1,-818.9144 592.6985,-823.4 587.9923,-813.9078 583.1,-818.9144"/>
</g>
<!-- Node292134 -->
<g id="node26" class="node">
<title>Node292134</title>
<g id="a_node26"><a xlink:href="quickjs_8c.html#a1ca9cdb1fa2ffc3e6506e92b200e490f" target="_top" xlink:title="JS_IsFunction">
<polygon fill="none" stroke="#000000" points="562.5,-690.4774 562.5,-709.4774 642.5,-709.4774 642.5,-690.4774 562.5,-690.4774"/>
<text text-anchor="middle" x="602.5" y="-697.4774" font-family="Helvetica,sans-Serif" font-size="10.00" fill="#000000">JS_IsFunction</text>
</a>
</g>
</g>
<!-- Node292448&#45;&gt;Node292134 -->
<g id="edge49" class="edge">
<title>Node292448&#45;&gt;Node292134</title>
<path fill="none" stroke="#191970" d="M471.6599,-671.5664C496.2418,-676.9042 526.9292,-683.5677 552.4052,-689.0997"/>
<polygon fill="#191970" stroke="#191970" points="551.7335,-692.5353 562.2485,-691.2371 553.219,-685.6947 551.7335,-692.5353"/>
</g>
<!-- Node292449 -->
<g id="node27" class="node">
<title>Node292449</title>
<g id="a_node27"><a xlink:href="quickjs_8c.html#a24b69b04d5b252c4ddb9d85b659b9129" target="_top" xlink:title="promise_reaction_data_free">
<polygon fill="none" stroke="#ff0000" points="534,-652.4774 534,-671.4774 671,-671.4774 671,-652.4774 534,-652.4774"/>
<text text-anchor="middle" x="602.5" y="-659.4774" font-family="Helvetica,sans-Serif" font-size="10.00" fill="#000000">promise_reaction_data_free</text>
</a>
</g>
</g>
<!-- Node292448&#45;&gt;Node292449 -->
<g id="edge51" class="edge">
<title>Node292448&#45;&gt;Node292449</title>
<path fill="none" stroke="#191970" d="M484.3175,-661.9774C496.8832,-661.9774 510.4156,-661.9774 523.6794,-661.9774"/>
<polygon fill="#191970" stroke="#191970" points="523.7494,-665.4775 533.7494,-661.9774 523.7494,-658.4775 523.7494,-665.4775"/>
</g>
<!-- Node292450 -->
<g id="node28" class="node">
<title>Node292450</title>
<g id="a_node28"><a xlink:href="quickjs_8c.html#aa69ea100389cd387befe76998dc9fffa" target="_top" xlink:title="promise_reaction_job">
<polygon fill="none" stroke="#ff0000" points="548,-272.4774 548,-291.4774 657,-291.4774 657,-272.4774 548,-272.4774"/>
<text text-anchor="middle" x="602.5" y="-279.4774" font-family="Helvetica,sans-Serif" font-size="10.00" fill="#000000">promise_reaction_job</text>
</a>
</g>
</g>
<!-- Node292448&#45;&gt;Node292450 -->
<g id="edge52" class="edge">
<title>Node292448&#45;&gt;Node292450</title>
<path fill="none" stroke="#191970" d="M430.9076,-652.4513C441.4115,-622.9697 474.0283,-530.5396 498,-452.9774 515.45,-396.5164 498.6039,-372.3004 534,-324.9774 543.1362,-312.7627 556.8534,-303.1715 569.6185,-296.1768"/>
<polygon fill="#191970" stroke="#191970" points="571.3617,-299.2164 578.6662,-291.5421 568.1702,-292.9863 571.3617,-299.2164"/>
</g>
<!-- Node292385&#45;&gt;Node292046 -->
<g id="edge48" class="edge">
<title>Node292385&#45;&gt;Node292046</title>
<path fill="none" stroke="#191970" d="M609.5471,-842.4992C624.735,-862.1141 662.7807,-906.5603 707,-922.9774 773.6649,-947.7278 797.8721,-939.6544 867,-922.9774 896.2438,-915.9224 926.5282,-898.9248 946.3168,-886.2717"/>
<polygon fill="#191970" stroke="#191970" points="948.4473,-889.0598 954.8831,-880.6437 944.6036,-883.2095 948.4473,-889.0598"/>
</g>
<!-- Node292450&#45;&gt;Node292305 -->
<g id="edge56" class="edge">
<title>Node292450&#45;&gt;Node292305</title>
<path fill="none" stroke="#191970" d="M612.5919,-291.4862C630.2864,-307.63 668.6827,-340.3584 707,-357.9774 720.8807,-364.36 737.1375,-368.7267 751.3575,-371.6475"/>
<polygon fill="#191970" stroke="#191970" points="750.8125,-375.1064 761.2889,-373.5269 752.1141,-368.2285 750.8125,-375.1064"/>
</g>
<!-- Node292450&#45;&gt;Node292046 -->
<g id="edge55" class="edge">
<title>Node292450&#45;&gt;Node292046</title>
<path fill="none" stroke="#191970" d="M608.012,-291.5615C621.228,-315.011 654.8206,-377.4909 671,-433.9774 687.425,-491.3215 666.2984,-656.3712 707,-699.9774 756.5433,-753.0563 805.872,-693.7949 867,-732.9774 913.3635,-762.696 945.7593,-821.6219 960.1369,-851.9549"/>
<polygon fill="#191970" stroke="#191970" points="957.1161,-853.7644 964.4643,-861.3969 963.4796,-850.8479 957.1161,-853.7644"/>
</g>
<!-- Node292450&#45;&gt;Node292067 -->
<g id="edge59" class="edge">
<title>Node292450&#45;&gt;Node292067</title>
<path fill="none" stroke="#191970" d="M627.6662,-272.3881C641.2655,-266.5167 657.9041,-258.1716 671,-247.9774 690.4005,-232.8756 684.6638,-216.2506 707,-205.9774 781.8259,-171.5623 881.5117,-195.2869 933.5369,-212.1585"/>
<polygon fill="#191970" stroke="#191970" points="932.6911,-215.5662 943.285,-215.4221 934.9135,-208.9283 932.6911,-215.5662"/>
</g>
<!-- Node292450&#45;&gt;Node292084 -->
<g id="edge57" class="edge">
<title>Node292450&#45;&gt;Node292084</title>
<path fill="none" stroke="#191970" d="M657.0167,-286.8496C729.6408,-293.7872 850.8988,-307.1033 867,-319.9774 887.4459,-336.3254 943.5599,-507.7733 962.3081,-566.4275"/>
<polygon fill="#191970" stroke="#191970" points="959.0794,-567.8237 965.4479,-576.2909 965.7496,-565.7004 959.0794,-567.8237"/>
</g>
<!-- Node292450&#45;&gt;Node292136 -->
<g id="edge53" class="edge">
<title>Node292450&#45;&gt;Node292136</title>
<path fill="none" stroke="#191970" d="M657.2223,-273.9088C711.8079,-267.9444 797.3408,-264.3061 867,-286.9774 900.4885,-297.8766 932.6679,-323.8864 951.5086,-341.2137"/>
<polygon fill="#191970" stroke="#191970" points="949.2872,-343.9302 958.9575,-348.2586 954.0971,-338.8444 949.2872,-343.9302"/>
</g>
<!-- Node292450&#45;&gt;Node292191 -->
<g id="edge54" class="edge">
<title>Node292450&#45;&gt;Node292191</title>
<path fill="none" stroke="#191970" d="M632.1933,-272.4753C653.0892,-265.8191 681.7253,-256.7589 707,-248.9774 719.7942,-245.0384 733.7646,-240.8191 746.3991,-237.0341"/>
<polygon fill="#191970" stroke="#191970" points="747.6185,-240.3227 756.1972,-234.1053 745.6137,-233.6159 747.6185,-240.3227"/>
</g>
<!-- Node292450&#45;&gt;Node292384 -->
<g id="edge58" class="edge">
<title>Node292450&#45;&gt;Node292384</title>
<path fill="none" stroke="#191970" d="M631.8462,-272.4289C645.1032,-266.9478 660.182,-258.9392 671,-247.9774 696.9717,-221.6605 678.8966,-197.0047 707,-172.9774 713.8066,-167.1581 721.9849,-162.7497 730.477,-159.4102"/>
<polygon fill="#191970" stroke="#191970" points="731.8301,-162.6459 740.1418,-156.0758 729.547,-156.0287 731.8301,-162.6459"/>
</g>
</g>
</svg>
        <g id="navigator" transform="translate(0 0)" fill="#404254">
                <rect fill="#f2f5e9" fill-opacity="0.5" stroke="#606060" stroke-width=".5" x="0" y="0" width="60" height="60"/>
                <use id="zoomplus" xlink:href="#zoomPlus" x="17" y="9" onmousedown="handleZoom(evt,'in')"/>
                <use id="zoomminus" xlink:href="#zoomMin" x="42" y="9" onmousedown="handleZoom(evt,'out')"/>
                <use id="reset" xlink:href="#resetDef" x="30" y="36" onmousedown="handleReset()"/>
                <g id="arrowUp" xlink:href="#dirArrow" transform="translate(30 24)" onmousedown="handlePan(0,-1)">
                  <use xlink:href="#rim" fill="#404040">
                        <set attributeName="fill" to="#808080" begin="arrowUp.mouseover" end="arrowUp.mouseout"/>
                  </use>
                  <path fill="none" stroke="white" stroke-width="1.5" d="M0,-3.0v7 M-2.5,-0.5L0,-3.0L2.5,-0.5"/>
                </g>
                <g id="arrowRight" xlink:href="#dirArrow" transform="rotate(90) translate(36 -43)" onmousedown="handlePan(1,0)">
                  <use xlink:href="#rim" fill="#404040">
                        <set attributeName="fill" to="#808080" begin="arrowRight.mouseover" end="arrowRight.mouseout"/>
                  </use>
                  <path fill="none" stroke="white" stroke-width="1.5" d="M0,-3.0v7 M-2.5,-0.5L0,-3.0L2.5,-0.5"/>
                </g>
                <g id="arrowDown" xlink:href="#dirArrow" transform="rotate(180) translate(-30 -48)" onmousedown="handlePan(0,1)">
                  <use xlink:href="#rim" fill="#404040">
                        <set attributeName="fill" to="#808080" begin="arrowDown.mouseover" end="arrowDown.mouseout"/>
                  </use>
                  <path fill="none" stroke="white" stroke-width="1.5" d="M0,-3.0v7 M-2.5,-0.5L0,-3.0L2.5,-0.5"/>
                </g>
                <g id="arrowLeft" xlink:href="#dirArrow" transform="rotate(270) translate(-36 17)" onmousedown="handlePan(-1,0)">
                  <use xlink:href="#rim" fill="#404040">
                        <set attributeName="fill" to="#808080" begin="arrowLeft.mouseover" end="arrowLeft.mouseout"/>
                  </use>
                  <path fill="none" stroke="white" stroke-width="1.5" d="M0,-3.0v7 M-2.5,-0.5L0,-3.0L2.5,-0.5"/>
                </g>
        </g>
        <svg viewBox="0 0 15 15" width="100%" height="30px" preserveAspectRatio="xMaxYMin meet">
         <g id="arrow_out" transform="scale(0.3 0.3)">
          <a xlink:href="quickjs_8c_a2cf6c9a897a2a59d310f3cf18897b639_cgraph_org.svg" target="_base">
           <rect id="button" ry="5" rx="5" y="6" x="6" height="38" width="38"
                fill="#f2f5e9" fill-opacity="0.5" stroke="#606060" stroke-width="1.0"/>
           <path id="arrow"
             d="M 11.500037,31.436501 C 11.940474,20.09759 22.043105,11.32322 32.158766,21.979434 L 37.068811,17.246167 C 37.068811,17.246167 37.088388,32 37.088388,32 L 22.160133,31.978069 C 22.160133,31.978069 26.997745,27.140456 26.997745,27.140456 C 18.528582,18.264221 13.291696,25.230495 11.500037,31.436501 z"
             style="fill:#404040;"/>
          </a>
         </g>
        </svg>
</svg>
