<?xml version="1.0" encoding="UTF-8" standalone="no"?>
<!DOCTYPE svg PUBLIC "-//W3C//DTD SVG 1.1//EN"
 "http://www.w3.org/Graphics/SVG/1.1/DTD/svg11.dtd">
<!-- Generated by graphviz version 2.40.1 (20161225.0304)
 -->
<!-- Title: JS_DupContext Pages: 1 -->
<svg width="579pt" height="187pt"
 viewBox="0.00 0.00 579.00 187.00" xmlns="http://www.w3.org/2000/svg" xmlns:xlink="http://www.w3.org/1999/xlink">
<g id="graph0" class="graph" transform="scale(1 1) rotate(0) translate(4 183)">
<title>JS_DupContext</title>
<!-- Node4468 -->
<g id="node1" class="node">
<title>Node4468</title>
<polygon fill="#bfbfbf" stroke="#000000" points="0,-75.5 0,-94.5 86,-94.5 86,-75.5 0,-75.5"/>
<text text-anchor="middle" x="43" y="-82.5" font-family="Helvetica,sans-Serif" font-size="10.00" fill="#000000">JS_DupContext</text>
</g>
<!-- Node4469 -->
<g id="node2" class="node">
<title>Node4469</title>
<g id="a_node2"><a xlink:href="quickjs_8c.html#a97fcc747d8b1c3644174745d2e2739be" target="_top" xlink:title="js_create_function">
<polygon fill="none" stroke="#000000" points="140.5,-141.5 140.5,-160.5 236.5,-160.5 236.5,-141.5 140.5,-141.5"/>
<text text-anchor="middle" x="188.5" y="-148.5" font-family="Helvetica,sans-Serif" font-size="10.00" fill="#000000">js_create_function</text>
</a>
</g>
</g>
<!-- Node4468&#45;&gt;Node4469 -->
<g id="edge1" class="edge">
<title>Node4468&#45;&gt;Node4469</title>
<path fill="none" stroke="#191970" d="M71.5801,-99.1709C86.5191,-106.4702 105.1545,-115.4078 122,-123 136.1614,-129.3825 152.2061,-136.1513 164.9871,-141.4347"/>
<polygon fill="#191970" stroke="#191970" points="72.872,-95.9061 62.3529,-94.6414 69.7873,-102.1899 72.872,-95.9061"/>
</g>
<!-- Node4473 -->
<g id="node5" class="node">
<title>Node4473</title>
<g id="a_node5"><a xlink:href="quickjs_8c.html#a7128998511654840928b9df9d4c55b3c" target="_top" xlink:title="JS_DefineAutoInitProperty">
<polygon fill="none" stroke="#000000" points="122,-94.5 122,-113.5 255,-113.5 255,-94.5 122,-94.5"/>
<text text-anchor="middle" x="188.5" y="-101.5" font-family="Helvetica,sans-Serif" font-size="10.00" fill="#000000">JS_DefineAutoInitProperty</text>
</a>
</g>
</g>
<!-- Node4468&#45;&gt;Node4473 -->
<g id="edge5" class="edge">
<title>Node4468&#45;&gt;Node4473</title>
<path fill="none" stroke="#191970" d="M96.2448,-91.9529C104.6077,-93.045 113.342,-94.1855 121.9592,-95.3108"/>
<polygon fill="#191970" stroke="#191970" points="96.6299,-88.4736 86.2609,-90.6492 95.7234,-95.4147 96.6299,-88.4736"/>
</g>
<!-- Node4719 -->
<g id="node10" class="node">
<title>Node4719</title>
<g id="a_node10"><a xlink:href="quickjs_8c.html#a21cfe4c4fc9372dc0b95b37667cff0c9" target="_top" xlink:title="JS_NewCFunction3">
<polygon fill="none" stroke="#ff0000" points="136.5,-56.5 136.5,-75.5 240.5,-75.5 240.5,-56.5 136.5,-56.5"/>
<text text-anchor="middle" x="188.5" y="-63.5" font-family="Helvetica,sans-Serif" font-size="10.00" fill="#000000">JS_NewCFunction3</text>
</a>
</g>
</g>
<!-- Node4468&#45;&gt;Node4719 -->
<g id="edge10" class="edge">
<title>Node4468&#45;&gt;Node4719</title>
<path fill="none" stroke="#191970" d="M96.4877,-78.0154C109.5212,-76.3134 123.4436,-74.4953 136.411,-72.802"/>
<polygon fill="#191970" stroke="#191970" points="95.7234,-74.5853 86.2609,-79.3508 96.6299,-81.5264 95.7234,-74.5853"/>
</g>
<!-- Node4706 -->
<g id="node11" class="node">
<title>Node4706</title>
<g id="a_node11"><a xlink:href="quickjs_8c.html#a4b8ef2bb3b35e4a5f6ed8bd837a50e7c" target="_top" xlink:title="JS_ReadObjectRec">
<polygon fill="none" stroke="#ff0000" points="136.5,-.5 136.5,-19.5 240.5,-19.5 240.5,-.5 136.5,-.5"/>
<text text-anchor="middle" x="188.5" y="-7.5" font-family="Helvetica,sans-Serif" font-size="10.00" fill="#000000">JS_ReadObjectRec</text>
</a>
</g>
</g>
<!-- Node4468&#45;&gt;Node4706 -->
<g id="edge11" class="edge">
<title>Node4468&#45;&gt;Node4706</title>
<path fill="none" stroke="#191970" d="M70.9386,-70.5987C100.0315,-55.6023 144.7853,-32.5334 169.8482,-19.6144"/>
<polygon fill="#191970" stroke="#191970" points="69.0087,-67.6558 61.7237,-75.3486 72.216,-73.8778 69.0087,-67.6558"/>
</g>
<!-- Node4469&#45;&gt;Node4469 -->
<g id="edge4" class="edge">
<title>Node4469&#45;&gt;Node4469</title>
<path fill="none" stroke="#191970" d="M161.6208,-169.6539C162.7444,-174.9368 171.7041,-179 188.5,-179 214.0938,-179 221.4919,-169.5653 210.6946,-160.7571"/>
<polygon fill="#191970" stroke="#191970" points="164.7433,-171.2361 166.3054,-160.7571 158.5494,-167.9747 164.7433,-171.2361"/>
</g>
<!-- Node4470 -->
<g id="node3" class="node">
<title>Node4470</title>
<g id="a_node3"><a xlink:href="quickjs_8c.html#a46a8a7e155cfd0af984f6725f060f0d6" target="_top" xlink:title="__JS_EvalInternal">
<polygon fill="none" stroke="#000000" points="312.5,-151.5 312.5,-170.5 408.5,-170.5 408.5,-151.5 312.5,-151.5"/>
<text text-anchor="middle" x="360.5" y="-158.5" font-family="Helvetica,sans-Serif" font-size="10.00" fill="#000000">__JS_EvalInternal</text>
</a>
</g>
</g>
<!-- Node4469&#45;&gt;Node4470 -->
<g id="edge2" class="edge">
<title>Node4469&#45;&gt;Node4470</title>
<path fill="none" stroke="#191970" d="M247.1,-154.407C268.404,-155.6456 292.213,-157.0298 312.4937,-158.2089"/>
<polygon fill="#191970" stroke="#191970" points="247.0556,-150.8986 236.8693,-153.8122 246.6493,-157.8868 247.0556,-150.8986"/>
</g>
<!-- Node4471 -->
<g id="node4" class="node">
<title>Node4471</title>
<g id="a_node4"><a xlink:href="quickjs_8c.html#acbcccb7ec58fd4a024ea1d01e5d04561" target="_top" xlink:title="JS_AddIntrinsicEval">
<polygon fill="none" stroke="#ff0000" points="466,-151.5 466,-170.5 571,-170.5 571,-151.5 466,-151.5"/>
<text text-anchor="middle" x="518.5" y="-158.5" font-family="Helvetica,sans-Serif" font-size="10.00" fill="#000000">JS_AddIntrinsicEval</text>
</a>
</g>
</g>
<!-- Node4470&#45;&gt;Node4471 -->
<g id="edge3" class="edge">
<title>Node4470&#45;&gt;Node4471</title>
<path fill="none" stroke="#191970" d="M419.159,-161C434.4717,-161 450.8785,-161 465.8574,-161"/>
<polygon fill="#191970" stroke="#191970" points="418.7638,-157.5001 408.7637,-161 418.7637,-164.5001 418.7638,-157.5001"/>
</g>
<!-- Node4474 -->
<g id="node6" class="node">
<title>Node4474</title>
<g id="a_node6"><a xlink:href="quickjs_8c.html#ad12b6863ca31850fc39d208bb865420e" target="_top" xlink:title="js_build_module_ns">
<polygon fill="none" stroke="#000000" points="309.5,-113.5 309.5,-132.5 411.5,-132.5 411.5,-113.5 309.5,-113.5"/>
<text text-anchor="middle" x="360.5" y="-120.5" font-family="Helvetica,sans-Serif" font-size="10.00" fill="#000000">js_build_module_ns</text>
</a>
</g>
</g>
<!-- Node4473&#45;&gt;Node4474 -->
<g id="edge6" class="edge">
<title>Node4473&#45;&gt;Node4474</title>
<path fill="none" stroke="#191970" d="M265.6736,-112.525C280.4932,-114.162 295.6662,-115.8381 309.4073,-117.356"/>
<polygon fill="#191970" stroke="#191970" points="265.8161,-109.0195 255.4922,-111.4003 265.0474,-115.9772 265.8161,-109.0195"/>
</g>
<!-- Node4664 -->
<g id="node8" class="node">
<title>Node4664</title>
<g id="a_node8"><a xlink:href="quickjs_8c.html#aab4130a4c3108a127681be821818528a" target="_top" xlink:title="js_closure">
<polygon fill="none" stroke="#ff0000" points="330,-75.5 330,-94.5 391,-94.5 391,-75.5 330,-75.5"/>
<text text-anchor="middle" x="360.5" y="-82.5" font-family="Helvetica,sans-Serif" font-size="10.00" fill="#000000">js_closure</text>
</a>
</g>
</g>
<!-- Node4473&#45;&gt;Node4664 -->
<g id="edge8" class="edge">
<title>Node4473&#45;&gt;Node4664</title>
<path fill="none" stroke="#191970" d="M265.5116,-95.4929C288.2531,-92.9808 311.8422,-90.375 329.8242,-88.3886"/>
<polygon fill="#191970" stroke="#191970" points="265.0474,-92.0228 255.4922,-96.5997 265.8161,-98.9805 265.0474,-92.0228"/>
</g>
<!-- Node5019 -->
<g id="node9" class="node">
<title>Node5019</title>
<g id="a_node9"><a xlink:href="quickjs_8c.html#ac00854b7f1f0f8567af964a2f8f2adb0" target="_top" xlink:title="JS_SetPropertyFunctionList">
<polygon fill="none" stroke="#ff0000" points="291,-37.5 291,-56.5 430,-56.5 430,-37.5 291,-37.5"/>
<text text-anchor="middle" x="360.5" y="-44.5" font-family="Helvetica,sans-Serif" font-size="10.00" fill="#000000">JS_SetPropertyFunctionList</text>
</a>
</g>
</g>
<!-- Node4473&#45;&gt;Node5019 -->
<g id="edge9" class="edge">
<title>Node4473&#45;&gt;Node5019</title>
<path fill="none" stroke="#191970" d="M236.6679,-91.5238C242.9035,-89.5347 249.1505,-87.3497 255,-85 271.7879,-78.2565 274.1738,-72.6474 291,-66 300.0743,-62.4151 310.071,-59.2509 319.5855,-56.5838"/>
<polygon fill="#191970" stroke="#191970" points="235.4859,-88.2249 226.9374,-94.4837 237.5232,-94.9219 235.4859,-88.2249"/>
</g>
<!-- Node4475 -->
<g id="node7" class="node">
<title>Node4475</title>
<g id="a_node7"><a xlink:href="quickjs_8c.html#a2f5aeb4e31e2001c555335ae5172165b" target="_top" xlink:title="js_get_module_ns">
<polygon fill="none" stroke="#ff0000" points="471,-113.5 471,-132.5 566,-132.5 566,-113.5 471,-113.5"/>
<text text-anchor="middle" x="518.5" y="-120.5" font-family="Helvetica,sans-Serif" font-size="10.00" fill="#000000">js_get_module_ns</text>
</a>
</g>
</g>
<!-- Node4474&#45;&gt;Node4475 -->
<g id="edge7" class="edge">
<title>Node4474&#45;&gt;Node4475</title>
<path fill="none" stroke="#191970" d="M422.254,-123C438.4339,-123 455.6284,-123 470.94,-123"/>
<polygon fill="#191970" stroke="#191970" points="421.7981,-119.5001 411.7981,-123 421.798,-126.5001 421.7981,-119.5001"/>
</g>
<!-- Node4706&#45;&gt;Node4706 -->
<g id="edge12" class="edge">
<title>Node4706&#45;&gt;Node4706</title>
<path fill="none" stroke="#191970" d="M161.6208,-28.6539C162.7444,-33.9368 171.7041,-38 188.5,-38 214.0938,-38 221.4919,-28.5653 210.6946,-19.7571"/>
<polygon fill="#191970" stroke="#191970" points="164.7433,-30.2361 166.3054,-19.7571 158.5494,-26.9747 164.7433,-30.2361"/>
</g>
</g>
</svg>
