<?xml version="1.0" encoding="UTF-8" standalone="no"?>
<!DOCTYPE svg PUBLIC "-//W3C//DTD SVG 1.1//EN"
 "http://www.w3.org/Graphics/SVG/1.1/DTD/svg11.dtd">
<!-- Generated by graphviz version 2.40.1 (20161225.0304)
 -->
<!-- Title: dbuf_put_sleb128 Pages: 1 -->
<!--zoomable 100 -->
<svg id="main" version="1.1" xmlns="http://www.w3.org/2000/svg" xmlns:xlink="http://www.w3.org/1999/xlink" xml:space="preserve" onload="init(evt)">
<style type="text/css"><![CDATA[
.edge:hover path { stroke: red; }
.edge:hover polygon { stroke: red; fill: red; }
]]></style>
<script type="text/javascript"><![CDATA[
var edges = document.getElementsByTagName('g');
if (edges && edges.length) {
  for (var i=0;i<edges.length;i++) {
    if (edges[i].id.substr(0,4)=='edge') {
      edges[i].setAttribute('class','edge');
    }
  }
}
]]></script>
        <defs>
                <circle id="rim" cx="0" cy="0" r="7"/>
                <circle id="rim2" cx="0" cy="0" r="3.5"/>
                <g id="zoomPlus">
                        <use xlink:href="#rim" fill="#404040">
                                <set attributeName="fill" to="#808080" begin="zoomplus.mouseover" end="zoomplus.mouseout"/>
                        </use>
                        <path d="M-4,0h8M0,-4v8" fill="none" stroke="white" stroke-width="1.5" pointer-events="none"/>
                </g>
                <g id="zoomMin">
                        <use xlink:href="#rim" fill="#404040">
                                <set attributeName="fill" to="#808080" begin="zoomminus.mouseover" end="zoomminus.mouseout"/>
                        </use>
                        <path d="M-4,0h8" fill="none" stroke="white" stroke-width="1.5" pointer-events="none"/>
                </g>
                <g id="dirArrow">
                        <path fill="none" stroke="white" stroke-width="1.5" d="M0,-3.0v7 M-2.5,-0.5L0,-3.0L2.5,-0.5"/>
                </g>
               <g id="resetDef">
                       <use xlink:href="#rim2" fill="#404040">
                               <set attributeName="fill" to="#808080" begin="reset.mouseover" end="reset.mouseout"/>
                       </use>
               </g>
        </defs>

<script type="text/javascript">
var viewWidth = 520;
var viewHeight = 100;
var sectionId = 'dynsection-477';
</script>
<script xlink:href="svgpan.js"/>
<svg id="graph" class="graph">
<g id="viewport">
<title>dbuf_put_sleb128</title>
<!-- Node153397 -->
<g id="node1" class="node">
<title>Node153397</title>
<polygon fill="#bfbfbf" stroke="#000000" points="0,-32.5 0,-51.5 93,-51.5 93,-32.5 0,-32.5"/>
<text text-anchor="middle" x="46.5" y="-39.5" font-family="Helvetica,sans-Serif" font-size="10.00" fill="#000000">dbuf_put_sleb128</text>
</g>
<!-- Node153398 -->
<g id="node2" class="node">
<title>Node153398</title>
<g id="a_node2"><a xlink:href="quickjs_8c.html#a27f947bd87f87a0672cb81a01add8a02" target="_top" xlink:title="bc_put_sleb128">
<polygon fill="none" stroke="#000000" points="142,-53.5 142,-72.5 227,-72.5 227,-53.5 142,-53.5"/>
<text text-anchor="middle" x="184.5" y="-60.5" font-family="Helvetica,sans-Serif" font-size="10.00" fill="#000000">bc_put_sleb128</text>
</a>
</g>
</g>
<!-- Node153397&#45;&gt;Node153398 -->
<g id="edge1" class="edge">
<title>Node153397&#45;&gt;Node153398</title>
<path fill="none" stroke="#191970" d="M103.3102,-50.645C116.0887,-52.5896 129.4434,-54.6218 141.5452,-56.4634"/>
<polygon fill="#191970" stroke="#191970" points="103.6333,-47.154 93.2205,-49.1096 102.5801,-54.0743 103.6333,-47.154"/>
</g>
<!-- Node153401 -->
<g id="node5" class="node">
<title>Node153401</title>
<g id="a_node5"><a xlink:href="quickjs_8c.html#ac8f4450aa771cc138f5fd25086f1c106" target="_top" xlink:title="compute_pc2line_info">
<polygon fill="none" stroke="#000000" points="129,-13.5 129,-32.5 240,-32.5 240,-13.5 129,-13.5"/>
<text text-anchor="middle" x="184.5" y="-20.5" font-family="Helvetica,sans-Serif" font-size="10.00" fill="#000000">compute_pc2line_info</text>
</a>
</g>
</g>
<!-- Node153397&#45;&gt;Node153401 -->
<g id="edge5" class="edge">
<title>Node153397&#45;&gt;Node153401</title>
<path fill="none" stroke="#191970" d="M103.314,-34.1778C111.7188,-33.0206 120.3728,-31.8291 128.7555,-30.675"/>
<polygon fill="#191970" stroke="#191970" points="102.6496,-30.7361 93.2205,-35.5675 103.6045,-37.6707 102.6496,-30.7361"/>
</g>
<!-- Node153399 -->
<g id="node3" class="node">
<title>Node153399</title>
<g id="a_node3"><a xlink:href="quickjs_8c.html#aa9342f7444c1c9f8743d43aa4d7f89e3" target="_top" xlink:title="JS_WriteObjectRec">
<polygon fill="none" stroke="#000000" points="276,-54.5 276,-73.5 380,-73.5 380,-54.5 276,-54.5"/>
<text text-anchor="middle" x="328" y="-61.5" font-family="Helvetica,sans-Serif" font-size="10.00" fill="#000000">JS_WriteObjectRec</text>
</a>
</g>
</g>
<!-- Node153398&#45;&gt;Node153399 -->
<g id="edge2" class="edge">
<title>Node153398&#45;&gt;Node153399</title>
<path fill="none" stroke="#191970" d="M237.4638,-63.3691C249.9971,-63.4564 263.3531,-63.5495 275.8499,-63.6366"/>
<polygon fill="#191970" stroke="#191970" points="237.1904,-59.8672 227.1662,-63.2973 237.1415,-66.867 237.1904,-59.8672"/>
</g>
<!-- Node153399&#45;&gt;Node153399 -->
<g id="edge3" class="edge">
<title>Node153399&#45;&gt;Node153399</title>
<path fill="none" stroke="#191970" d="M302.7025,-83.0292C304.0824,-88.128 312.5149,-92 328,-92 352.1719,-92 359.1591,-82.5653 348.9615,-73.7571"/>
<polygon fill="#191970" stroke="#191970" points="305.9728,-84.2982 307.0385,-73.7571 299.6319,-81.3329 305.9728,-84.2982"/>
</g>
<!-- Node153400 -->
<g id="node4" class="node">
<title>Node153400</title>
<g id="a_node4"><a xlink:href="quickjs_8c.html#a8c807d481615ed55818787ae89621a37" target="_top" xlink:title="JS_WriteObject">
<polygon fill="none" stroke="#000000" points="421,-56.5 421,-75.5 507,-75.5 507,-56.5 421,-56.5"/>
<text text-anchor="middle" x="464" y="-63.5" font-family="Helvetica,sans-Serif" font-size="10.00" fill="#000000">JS_WriteObject</text>
</a>
</g>
</g>
<!-- Node153399&#45;&gt;Node153400 -->
<g id="edge4" class="edge">
<title>Node153399&#45;&gt;Node153400</title>
<path fill="none" stroke="#191970" d="M390.4336,-64.9181C400.7683,-65.0701 411.2756,-65.2246 420.9921,-65.3675"/>
<polygon fill="#191970" stroke="#191970" points="390.2426,-61.415 380.1922,-64.7675 390.1396,-68.4143 390.2426,-61.415"/>
</g>
<!-- Node153402 -->
<g id="node6" class="node">
<title>Node153402</title>
<g id="a_node6"><a xlink:href="quickjs_8c.html#ad0d311d4ce409584384f835f1a3e185a" target="_top" xlink:title="resolve_labels">
<polygon fill="none" stroke="#000000" points="288.5,-9.5 288.5,-28.5 367.5,-28.5 367.5,-9.5 288.5,-9.5"/>
<text text-anchor="middle" x="328" y="-16.5" font-family="Helvetica,sans-Serif" font-size="10.00" fill="#000000">resolve_labels</text>
</a>
</g>
</g>
<!-- Node153401&#45;&gt;Node153402 -->
<g id="edge6" class="edge">
<title>Node153401&#45;&gt;Node153402</title>
<path fill="none" stroke="#191970" d="M250.6675,-21.1556C263.5856,-20.7955 276.7465,-20.4287 288.4616,-20.1021"/>
<polygon fill="#191970" stroke="#191970" points="250.2903,-17.6647 240.3917,-21.442 250.4854,-24.662 250.2903,-17.6647"/>
</g>
<!-- Node153403 -->
<g id="node7" class="node">
<title>Node153403</title>
<g id="a_node7"><a xlink:href="quickjs_8c.html#a97fcc747d8b1c3644174745d2e2739be" target="_top" xlink:title="js_create_function">
<polygon fill="none" stroke="#ff0000" points="416,-.5 416,-19.5 512,-19.5 512,-.5 416,-.5"/>
<text text-anchor="middle" x="464" y="-7.5" font-family="Helvetica,sans-Serif" font-size="10.00" fill="#000000">js_create_function</text>
</a>
</g>
</g>
<!-- Node153402&#45;&gt;Node153403 -->
<g id="edge7" class="edge">
<title>Node153402&#45;&gt;Node153403</title>
<path fill="none" stroke="#191970" d="M377.8646,-15.7001C390.2524,-14.8804 403.5066,-14.0032 415.8122,-13.1889"/>
<polygon fill="#191970" stroke="#191970" points="377.4495,-12.2199 367.7024,-16.3726 377.9117,-19.2046 377.4495,-12.2199"/>
</g>
<!-- Node153403&#45;&gt;Node153403 -->
<g id="edge8" class="edge">
<title>Node153403&#45;&gt;Node153403</title>
<path fill="none" stroke="#191970" d="M438.7025,-29.0292C440.0824,-34.128 448.5149,-38 464,-38 488.1719,-38 495.1591,-28.5653 484.9615,-19.7571"/>
<polygon fill="#191970" stroke="#191970" points="441.9728,-30.2982 443.0385,-19.7571 435.6319,-27.3329 441.9728,-30.2982"/>
</g>
</g>
</svg>
        <g id="navigator" transform="translate(0 0)" fill="#404254">
                <rect fill="#f2f5e9" fill-opacity="0.5" stroke="#606060" stroke-width=".5" x="0" y="0" width="60" height="60"/>
                <use id="zoomplus" xlink:href="#zoomPlus" x="17" y="9" onmousedown="handleZoom(evt,'in')"/>
                <use id="zoomminus" xlink:href="#zoomMin" x="42" y="9" onmousedown="handleZoom(evt,'out')"/>
                <use id="reset" xlink:href="#resetDef" x="30" y="36" onmousedown="handleReset()"/>
                <g id="arrowUp" xlink:href="#dirArrow" transform="translate(30 24)" onmousedown="handlePan(0,-1)">
                  <use xlink:href="#rim" fill="#404040">
                        <set attributeName="fill" to="#808080" begin="arrowUp.mouseover" end="arrowUp.mouseout"/>
                  </use>
                  <path fill="none" stroke="white" stroke-width="1.5" d="M0,-3.0v7 M-2.5,-0.5L0,-3.0L2.5,-0.5"/>
                </g>
                <g id="arrowRight" xlink:href="#dirArrow" transform="rotate(90) translate(36 -43)" onmousedown="handlePan(1,0)">
                  <use xlink:href="#rim" fill="#404040">
                        <set attributeName="fill" to="#808080" begin="arrowRight.mouseover" end="arrowRight.mouseout"/>
                  </use>
                  <path fill="none" stroke="white" stroke-width="1.5" d="M0,-3.0v7 M-2.5,-0.5L0,-3.0L2.5,-0.5"/>
                </g>
                <g id="arrowDown" xlink:href="#dirArrow" transform="rotate(180) translate(-30 -48)" onmousedown="handlePan(0,1)">
                  <use xlink:href="#rim" fill="#404040">
                        <set attributeName="fill" to="#808080" begin="arrowDown.mouseover" end="arrowDown.mouseout"/>
                  </use>
                  <path fill="none" stroke="white" stroke-width="1.5" d="M0,-3.0v7 M-2.5,-0.5L0,-3.0L2.5,-0.5"/>
                </g>
                <g id="arrowLeft" xlink:href="#dirArrow" transform="rotate(270) translate(-36 17)" onmousedown="handlePan(-1,0)">
                  <use xlink:href="#rim" fill="#404040">
                        <set attributeName="fill" to="#808080" begin="arrowLeft.mouseover" end="arrowLeft.mouseout"/>
                  </use>
                  <path fill="none" stroke="white" stroke-width="1.5" d="M0,-3.0v7 M-2.5,-0.5L0,-3.0L2.5,-0.5"/>
                </g>
        </g>
        <svg viewBox="0 0 15 15" width="100%" height="30px" preserveAspectRatio="xMaxYMin meet">
         <g id="arrow_out" transform="scale(0.3 0.3)">
          <a xlink:href="quickjs_8c_a6adbc9d495ea79b1764fc21ed895e636_icgraph_org.svg" target="_base">
           <rect id="button" ry="5" rx="5" y="6" x="6" height="38" width="38"
                fill="#f2f5e9" fill-opacity="0.5" stroke="#606060" stroke-width="1.0"/>
           <path id="arrow"
             d="M 11.500037,31.436501 C 11.940474,20.09759 22.043105,11.32322 32.158766,21.979434 L 37.068811,17.246167 C 37.068811,17.246167 37.088388,32 37.088388,32 L 22.160133,31.978069 C 22.160133,31.978069 26.997745,27.140456 26.997745,27.140456 C 18.528582,18.264221 13.291696,25.230495 11.500037,31.436501 z"
             style="fill:#404040;"/>
          </a>
         </g>
        </svg>
</svg>
