<?xml version="1.0" encoding="UTF-8" standalone="no"?>
<!DOCTYPE svg PUBLIC "-//W3C//DTD SVG 1.1//EN"
 "http://www.w3.org/Graphics/SVG/1.1/DTD/svg11.dtd">
<!-- Generated by graphviz version 2.40.1 (20161225.0304)
 -->
<!-- Title: emit_return Pages: 1 -->
<!--zoomable 520 -->
<svg id="main" version="1.1" xmlns="http://www.w3.org/2000/svg" xmlns:xlink="http://www.w3.org/1999/xlink" xml:space="preserve" onload="init(evt)">
<style type="text/css"><![CDATA[
.edge:hover path { stroke: red; }
.edge:hover polygon { stroke: red; fill: red; }
]]></style>
<script type="text/javascript"><![CDATA[
var edges = document.getElementsByTagName('g');
if (edges && edges.length) {
  for (var i=0;i<edges.length;i++) {
    if (edges[i].id.substr(0,4)=='edge') {
      edges[i].setAttribute('class','edge');
    }
  }
}
]]></script>
        <defs>
                <circle id="rim" cx="0" cy="0" r="7"/>
                <circle id="rim2" cx="0" cy="0" r="3.5"/>
                <g id="zoomPlus">
                        <use xlink:href="#rim" fill="#404040">
                                <set attributeName="fill" to="#808080" begin="zoomplus.mouseover" end="zoomplus.mouseout"/>
                        </use>
                        <path d="M-4,0h8M0,-4v8" fill="none" stroke="white" stroke-width="1.5" pointer-events="none"/>
                </g>
                <g id="zoomMin">
                        <use xlink:href="#rim" fill="#404040">
                                <set attributeName="fill" to="#808080" begin="zoomminus.mouseover" end="zoomminus.mouseout"/>
                        </use>
                        <path d="M-4,0h8" fill="none" stroke="white" stroke-width="1.5" pointer-events="none"/>
                </g>
                <g id="dirArrow">
                        <path fill="none" stroke="white" stroke-width="1.5" d="M0,-3.0v7 M-2.5,-0.5L0,-3.0L2.5,-0.5"/>
                </g>
               <g id="resetDef">
                       <use xlink:href="#rim2" fill="#404040">
                               <set attributeName="fill" to="#808080" begin="reset.mouseover" end="reset.mouseout"/>
                       </use>
               </g>
        </defs>

<script type="text/javascript">
var viewWidth = 1222;
var viewHeight = 520;
var sectionId = 'dynsection-1049';
</script>
<script xlink:href="svgpan.js"/>
<svg id="graph" class="graph">
<g id="viewport">
<title>emit_return</title>
<!-- Node313197 -->
<g id="node1" class="node">
<title>Node313197</title>
<polygon fill="#bfbfbf" stroke="#000000" points="0,-236.554 0,-255.554 65,-255.554 65,-236.554 0,-236.554"/>
<text text-anchor="middle" x="32.5" y="-243.554" font-family="Helvetica,sans-Serif" font-size="10.00" fill="#000000">emit_return</text>
</g>
<!-- Node313198 -->
<g id="node2" class="node">
<title>Node313198</title>
<g id="a_node2"><a xlink:href="quickjs_8c.html#a4fa2fc1719feb03edf64eaf034103fd2" target="_top" xlink:title="js_parse_assign_expr">
<polygon fill="none" stroke="#000000" points="101,-236.554 101,-255.554 212,-255.554 212,-236.554 101,-236.554"/>
<text text-anchor="middle" x="156.5" y="-243.554" font-family="Helvetica,sans-Serif" font-size="10.00" fill="#000000">js_parse_assign_expr</text>
</a>
</g>
</g>
<!-- Node313197&#45;&gt;Node313198 -->
<g id="edge1" class="edge">
<title>Node313197&#45;&gt;Node313198</title>
<path fill="none" stroke="#191970" d="M75.1619,-246.054C83.3732,-246.054 92.0875,-246.054 100.6441,-246.054"/>
<polygon fill="#191970" stroke="#191970" points="75.0796,-242.5541 65.0795,-246.054 75.0795,-249.5541 75.0796,-242.5541"/>
</g>
<!-- Node313208 -->
<g id="node7" class="node">
<title>Node313208</title>
<g id="a_node7"><a xlink:href="quickjs_8c.html#a9d844c16dcc71701436848074337d32c" target="_top" xlink:title="js_parse_statement\l_or_decl">
<polygon fill="none" stroke="#ff0000" points="1112,-156.054 1112,-186.054 1214,-186.054 1214,-156.054 1112,-156.054"/>
<text text-anchor="start" x="1120" y="-174.054" font-family="Helvetica,sans-Serif" font-size="10.00" fill="#000000">js_parse_statement</text>
<text text-anchor="middle" x="1163" y="-163.054" font-family="Helvetica,sans-Serif" font-size="10.00" fill="#000000">_or_decl</text>
</a>
</g>
</g>
<!-- Node313197&#45;&gt;Node313208 -->
<g id="edge44" class="edge">
<title>Node313197&#45;&gt;Node313208</title>
<path fill="none" stroke="#191970" d="M41.3407,-227.3439C69.9155,-169.9185 165.7832,-.054 300,-.054 300,-.054 300,-.054 897,-.054 979.1405,-.054 1008.5399,.8096 1076,-46.054 1117.0409,-74.5645 1144.9025,-129.1098 1156.6751,-155.7081"/>
<polygon fill="#191970" stroke="#191970" points="38.1572,-225.8872 36.9277,-236.4105 44.4512,-228.9507 38.1572,-225.8872"/>
</g>
<!-- Node313204 -->
<g id="node10" class="node">
<title>Node313204</title>
<g id="a_node10"><a xlink:href="quickjs_8c.html#acc9eb677cab8dfcf45f59381f8a19601" target="_top" xlink:title="js_parse_function_decl2">
<polygon fill="none" stroke="#ff0000" points="836,-426.554 836,-445.554 958,-445.554 958,-426.554 836,-426.554"/>
<text text-anchor="middle" x="897" y="-433.554" font-family="Helvetica,sans-Serif" font-size="10.00" fill="#000000">js_parse_function_decl2</text>
</a>
</g>
</g>
<!-- Node313197&#45;&gt;Node313204 -->
<g id="edge43" class="edge">
<title>Node313197&#45;&gt;Node313204</title>
<path fill="none" stroke="#191970" d="M40.3781,-265.0873C66.9863,-325.9786 159.7696,-512.054 300,-512.054 300,-512.054 300,-512.054 593,-512.054 701.2602,-512.054 824.9056,-466.13 874.5994,-445.6794"/>
<polygon fill="#191970" stroke="#191970" points="43.574,-263.6588 36.4282,-255.8365 37.1362,-266.4077 43.574,-263.6588"/>
</g>
<!-- Node313198&#45;&gt;Node313198 -->
<g id="edge23" class="edge">
<title>Node313198&#45;&gt;Node313198</title>
<path fill="none" stroke="#191970" d="M133.4346,-265.0832C134.6928,-270.182 142.3812,-274.054 156.5,-274.054 178.5391,-274.054 184.9097,-264.6192 175.612,-255.811"/>
<polygon fill="#191970" stroke="#191970" points="136.6854,-266.3826 137.388,-255.811 130.2463,-263.637 136.6854,-266.3826"/>
</g>
<!-- Node313199 -->
<g id="node3" class="node">
<title>Node313199</title>
<g id="a_node3"><a xlink:href="quickjs_8c.html#a253917187cfb6b3db09d355b31edb3d5" target="_top" xlink:title="js_parse_array_literal">
<polygon fill="none" stroke="#000000" points="390,-198.554 390,-217.554 499,-217.554 499,-198.554 390,-198.554"/>
<text text-anchor="middle" x="444.5" y="-205.554" font-family="Helvetica,sans-Serif" font-size="10.00" fill="#000000">js_parse_array_literal</text>
</a>
</g>
</g>
<!-- Node313198&#45;&gt;Node313199 -->
<g id="edge2" class="edge">
<title>Node313198&#45;&gt;Node313199</title>
<path fill="none" stroke="#191970" d="M207.5833,-234.4268C220.7048,-231.7212 234.8341,-229.0514 248,-227.054 295.6097,-219.8309 350.1486,-214.8132 389.6701,-211.7559"/>
<polygon fill="#191970" stroke="#191970" points="206.8421,-231.006 197.7783,-236.4922 208.285,-237.8557 206.8421,-231.006"/>
</g>
<!-- Node313200 -->
<g id="node4" class="node">
<title>Node313200</title>
<g id="a_node4"><a xlink:href="quickjs_8c.html#acdcc62310b4f6f73fa7bc7267b18b1d4" target="_top" xlink:title="js_parse_postfix_expr">
<polygon fill="none" stroke="#ff0000" points="537,-227.554 537,-246.554 649,-246.554 649,-227.554 537,-227.554"/>
<text text-anchor="middle" x="593" y="-234.554" font-family="Helvetica,sans-Serif" font-size="10.00" fill="#000000">js_parse_postfix_expr</text>
</a>
</g>
</g>
<!-- Node313198&#45;&gt;Node313200 -->
<g id="edge39" class="edge">
<title>Node313198&#45;&gt;Node313200</title>
<path fill="none" stroke="#191970" d="M187.4997,-232.6076C248.2405,-208.0844 386.9436,-161.0888 501,-189.054 531.2701,-196.4758 562.6429,-215.7872 579.8042,-227.5293"/>
<polygon fill="#191970" stroke="#191970" points="186.013,-229.4345 178.0979,-236.4774 188.6774,-235.9076 186.013,-229.4345"/>
</g>
<!-- Node313201 -->
<g id="node5" class="node">
<title>Node313201</title>
<g id="a_node5"><a xlink:href="quickjs_8c.html#a00eb789430243c24dab4a63ad6a79653" target="_top" xlink:title="js_parse_class">
<polygon fill="none" stroke="#000000" points="994,-331.554 994,-350.554 1076,-350.554 1076,-331.554 994,-331.554"/>
<text text-anchor="middle" x="1035" y="-338.554" font-family="Helvetica,sans-Serif" font-size="10.00" fill="#000000">js_parse_class</text>
</a>
</g>
</g>
<!-- Node313198&#45;&gt;Node313201 -->
<g id="edge24" class="edge">
<title>Node313198&#45;&gt;Node313201</title>
<path fill="none" stroke="#191970" d="M176.1084,-261.8819C193.9208,-275.5658 221.4022,-294.993 248,-307.054 330.3802,-344.41 354.0457,-360.054 444.5,-360.054 444.5,-360.054 444.5,-360.054 742.5,-360.054 832.3178,-360.054 937.3239,-351.0224 993.8805,-345.413"/>
<polygon fill="#191970" stroke="#191970" points="178.2194,-259.0896 168.1871,-255.6832 173.9054,-264.6023 178.2194,-259.0896"/>
</g>
<!-- Node313202 -->
<g id="node6" class="node">
<title>Node313202</title>
<g id="a_node6"><a xlink:href="quickjs_8c.html#a498e1d5c7de1b59c1630e9847cde1e41" target="_top" xlink:title="js_parse_export">
<polygon fill="none" stroke="#ff0000" points="1120,-397.554 1120,-416.554 1206,-416.554 1206,-397.554 1120,-397.554"/>
<text text-anchor="middle" x="1163" y="-404.554" font-family="Helvetica,sans-Serif" font-size="10.00" fill="#000000">js_parse_export</text>
</a>
</g>
</g>
<!-- Node313198&#45;&gt;Node313202 -->
<g id="edge28" class="edge">
<title>Node313198&#45;&gt;Node313202</title>
<path fill="none" stroke="#191970" d="M164.763,-264.8727C185.8124,-312.6411 240.3337,-435.2353 248,-441.054 318.5397,-494.5925 355.9437,-474.054 444.5,-474.054 444.5,-474.054 444.5,-474.054 897,-474.054 989.8648,-474.054 1095.5932,-435.1795 1140.7067,-416.6534"/>
<polygon fill="#191970" stroke="#191970" points="167.9326,-263.3857 160.7019,-255.6419 161.5253,-266.2047 167.9326,-263.3857"/>
</g>
<!-- Node313216 -->
<g id="node8" class="node">
<title>Node313216</title>
<g id="a_node8"><a xlink:href="quickjs_8c.html#a26be546cf89c4580ba9020e8fc43a759" target="_top" xlink:title="js_parse_destructuring\l_element">
<polygon fill="none" stroke="#000000" points="685,-275.054 685,-305.054 800,-305.054 800,-275.054 685,-275.054"/>
<text text-anchor="start" x="693" y="-293.054" font-family="Helvetica,sans-Serif" font-size="10.00" fill="#000000">js_parse_destructuring</text>
<text text-anchor="middle" x="742.5" y="-282.054" font-family="Helvetica,sans-Serif" font-size="10.00" fill="#000000">_element</text>
</a>
</g>
</g>
<!-- Node313198&#45;&gt;Node313216 -->
<g id="edge27" class="edge">
<title>Node313198&#45;&gt;Node313216</title>
<path fill="none" stroke="#191970" d="M184.8313,-260.0595C202.5752,-268.2622 226.1453,-278.1404 248,-284.054 401.3217,-325.5408 591.2894,-310.1996 684.8687,-298.4989"/>
<polygon fill="#191970" stroke="#191970" points="186.1579,-256.8154 175.6208,-255.7107 183.1691,-263.1453 186.1579,-256.8154"/>
</g>
<!-- Node313210 -->
<g id="node9" class="node">
<title>Node313210</title>
<g id="a_node9"><a xlink:href="quickjs_8c.html#ac188b916dd086803591a67de7e7a85f6" target="_top" xlink:title="js_parse_for_in_of">
<polygon fill="none" stroke="#000000" points="849,-161.554 849,-180.554 945,-180.554 945,-161.554 849,-161.554"/>
<text text-anchor="middle" x="897" y="-168.554" font-family="Helvetica,sans-Serif" font-size="10.00" fill="#000000">js_parse_for_in_of</text>
</a>
</g>
</g>
<!-- Node313198&#45;&gt;Node313210 -->
<g id="edge35" class="edge">
<title>Node313198&#45;&gt;Node313210</title>
<path fill="none" stroke="#191970" d="M163.0888,-226.6898C174.7104,-196.0028 202.0663,-137.2072 248,-113.054 300.8157,-85.2821 707.4574,-142.6919 848.7855,-163.7332"/>
<polygon fill="#191970" stroke="#191970" points="159.7342,-225.6747 159.6296,-236.269 166.3181,-228.0522 159.7342,-225.6747"/>
</g>
<!-- Node313198&#45;&gt;Node313204 -->
<g id="edge36" class="edge">
<title>Node313198&#45;&gt;Node313204</title>
<path fill="none" stroke="#191970" d="M161.0849,-265.7514C170.5419,-301.5444 195.8418,-376.8068 248,-412.054 320.8978,-461.3165 356.5177,-436.054 444.5,-436.054 444.5,-436.054 444.5,-436.054 593,-436.054 677.1806,-436.054 774.4732,-436.054 835.8612,-436.054"/>
<polygon fill="#191970" stroke="#191970" points="164.3735,-264.4735 158.5572,-255.6179 157.5816,-266.1678 164.3735,-264.4735"/>
</g>
<!-- Node313217 -->
<g id="node11" class="node">
<title>Node313217</title>
<g id="a_node11"><a xlink:href="quickjs_8c.html#a42924858317b848c3aea0a0a978fab3a" target="_top" xlink:title="js_parse_var">
<polygon fill="none" stroke="#000000" points="999,-374.554 999,-393.554 1071,-393.554 1071,-374.554 999,-374.554"/>
<text text-anchor="middle" x="1035" y="-381.554" font-family="Helvetica,sans-Serif" font-size="10.00" fill="#000000">js_parse_var</text>
</a>
</g>
</g>
<!-- Node313198&#45;&gt;Node313217 -->
<g id="edge42" class="edge">
<title>Node313198&#45;&gt;Node313217</title>
<path fill="none" stroke="#191970" d="M168.7794,-263.8527C184.6241,-285.489 214.2032,-321.6336 248,-342.054 325.7247,-389.0161 353.6894,-398.054 444.5,-398.054 444.5,-398.054 444.5,-398.054 742.5,-398.054 834.7735,-398.054 943.2338,-391.0167 998.5464,-386.9209"/>
<polygon fill="#191970" stroke="#191970" points="171.5161,-261.6622 162.8575,-255.5564 165.8186,-265.7291 171.5161,-261.6622"/>
</g>
<!-- Node313222 -->
<g id="node12" class="node">
<title>Node313222</title>
<g id="a_node12"><a xlink:href="quickjs_8c.html#abd2cbff624ea609dbf883fb1a2f048cd" target="_top" xlink:title="js_parse_cond_expr">
<polygon fill="none" stroke="#000000" points="248,-122.554 248,-141.554 352,-141.554 352,-122.554 248,-122.554"/>
<text text-anchor="middle" x="300" y="-129.554" font-family="Helvetica,sans-Serif" font-size="10.00" fill="#000000">js_parse_cond_expr</text>
</a>
</g>
</g>
<!-- Node313198&#45;&gt;Node313222 -->
<g id="edge25" class="edge">
<title>Node313198&#45;&gt;Node313222</title>
<path fill="none" stroke="#191970" d="M166.6539,-227.855C182.4665,-205.873 214.6396,-170.1115 248,-147.054 250.781,-145.1319 253.7405,-143.297 256.7821,-141.5811"/>
<polygon fill="#191970" stroke="#191970" points="163.6113,-226.1068 160.923,-236.355 169.4154,-230.0201 163.6113,-226.1068"/>
</g>
<!-- Node313224 -->
<g id="node13" class="node">
<title>Node313224</title>
<g id="a_node13"><a xlink:href="quickjs_8c.html#a1cef6995e7ec0c736babe92589cf441f" target="_top" xlink:title="js_parse_expr2">
<polygon fill="none" stroke="#000000" points="258.5,-46.554 258.5,-65.554 341.5,-65.554 341.5,-46.554 258.5,-46.554"/>
<text text-anchor="middle" x="300" y="-53.554" font-family="Helvetica,sans-Serif" font-size="10.00" fill="#000000">js_parse_expr2</text>
</a>
</g>
</g>
<!-- Node313198&#45;&gt;Node313224 -->
<g id="edge29" class="edge">
<title>Node313198&#45;&gt;Node313224</title>
<path fill="none" stroke="#191970" d="M162.5774,-226.8674C174.1538,-193.0843 202.3619,-122.5462 248,-80.054 254.4766,-74.0238 262.7349,-69.2858 270.7533,-65.6702"/>
<polygon fill="#191970" stroke="#191970" points="159.2212,-225.869 159.4022,-236.4623 165.8667,-228.0682 159.2212,-225.869"/>
</g>
<!-- Node313207 -->
<g id="node15" class="node">
<title>Node313207</title>
<g id="a_node15"><a xlink:href="quickjs_8c.html#aee6d0acd87f136d43f157ae1426436e6" target="_top" xlink:title="js_parse_object_literal">
<polygon fill="none" stroke="#000000" points="388,-274.554 388,-293.554 501,-293.554 501,-274.554 388,-274.554"/>
<text text-anchor="middle" x="444.5" y="-281.554" font-family="Helvetica,sans-Serif" font-size="10.00" fill="#000000">js_parse_object_literal</text>
</a>
</g>
</g>
<!-- Node313198&#45;&gt;Node313207 -->
<g id="edge37" class="edge">
<title>Node313198&#45;&gt;Node313207</title>
<path fill="none" stroke="#191970" d="M207.5833,-257.6812C220.7048,-260.3868 234.8341,-263.0565 248,-265.054 294.932,-272.1743 348.5973,-277.1514 387.9733,-280.2203"/>
<polygon fill="#191970" stroke="#191970" points="208.285,-254.2523 197.7783,-255.6157 206.8421,-261.1019 208.285,-254.2523"/>
</g>
<!-- Node313228 -->
<g id="node16" class="node">
<title>Node313228</title>
<g id="a_node16"><a xlink:href="quickjs_8c.html#a035daca514f14aacc1e0cff81d8e423a" target="_top" xlink:title="js_parse_template">
<polygon fill="none" stroke="#000000" points="252,-236.554 252,-255.554 348,-255.554 348,-236.554 252,-236.554"/>
<text text-anchor="middle" x="300" y="-243.554" font-family="Helvetica,sans-Serif" font-size="10.00" fill="#000000">js_parse_template</text>
</a>
</g>
</g>
<!-- Node313198&#45;&gt;Node313228 -->
<g id="edge40" class="edge">
<title>Node313198&#45;&gt;Node313228</title>
<path fill="none" stroke="#191970" d="M222.6111,-246.054C232.4979,-246.054 242.5283,-246.054 251.9453,-246.054"/>
<polygon fill="#191970" stroke="#191970" points="222.3918,-242.5541 212.3917,-246.054 222.3917,-249.5541 222.3918,-242.5541"/>
</g>
<!-- Node313199&#45;&gt;Node313200 -->
<g id="edge3" class="edge">
<title>Node313199&#45;&gt;Node313200</title>
<path fill="none" stroke="#191970" d="M503.6687,-219.6088C517.1358,-222.2387 531.2941,-225.0037 544.2687,-227.5374"/>
<polygon fill="#191970" stroke="#191970" points="504.0215,-216.1117 493.536,-217.63 502.6798,-222.9819 504.0215,-216.1117"/>
</g>
<!-- Node313200&#45;&gt;Node313200 -->
<g id="edge22" class="edge">
<title>Node313200&#45;&gt;Node313200</title>
<path fill="none" stroke="#191970" d="M565.3742,-255.7079C566.5289,-260.9908 575.7375,-265.054 593,-265.054 619.3047,-265.054 626.9084,-255.6192 615.8111,-246.811"/>
<polygon fill="#191970" stroke="#191970" points="568.5076,-257.2716 570.1889,-246.811 562.3512,-253.94 568.5076,-257.2716"/>
</g>
<!-- Node313200&#45;&gt;Node313201 -->
<g id="edge4" class="edge">
<title>Node313200&#45;&gt;Node313201</title>
<path fill="none" stroke="#191970" d="M659.358,-235.7069C700.2221,-239.1594 753.5076,-246.5187 800,-257.054 871.8334,-273.3315 887.8611,-284.5702 958,-307.054 981.5561,-314.6051 1009.1171,-323.5898 1024.0423,-331.3924"/>
<polygon fill="#191970" stroke="#191970" points="659.4913,-232.2067 649.2482,-234.9138 658.9438,-239.1853 659.4913,-232.2067"/>
</g>
<!-- Node313200&#45;&gt;Node313216 -->
<g id="edge9" class="edge">
<title>Node313200&#45;&gt;Node313216</title>
<path fill="none" stroke="#191970" d="M647.1046,-249.7191C670.1016,-257.3376 695.9275,-266.8731 714.9024,-274.894"/>
<polygon fill="#191970" stroke="#191970" points="648.0423,-246.3437 637.4502,-246.5814 645.8787,-253.001 648.0423,-246.3437"/>
</g>
<!-- Node313200&#45;&gt;Node313210 -->
<g id="edge21" class="edge">
<title>Node313200&#45;&gt;Node313210</title>
<path fill="none" stroke="#191970" d="M639.4109,-225.0205C653.9721,-221.3609 670.1265,-217.4198 685,-214.054 741.0421,-201.3719 805.8213,-188.4896 848.8762,-180.1763"/>
<polygon fill="#191970" stroke="#191970" points="638.4554,-221.6518 629.6198,-227.4985 640.1729,-228.4379 638.4554,-221.6518"/>
</g>
<!-- Node313201&#45;&gt;Node313200 -->
<g id="edge6" class="edge">
<title>Node313201&#45;&gt;Node313200</title>
<path fill="none" stroke="#191970" d="M984.1596,-333.3526C975.4371,-330.6629 966.4602,-327.766 958,-325.054 887.8611,-302.5702 871.8334,-291.3315 800,-275.054 740.3658,-261.5408 669.5556,-253.2528 628.1169,-246.5994"/>
<polygon fill="#191970" stroke="#191970" points="983.2736,-336.7411 993.8584,-336.2804 985.2966,-330.0398 983.2736,-336.7411"/>
</g>
<!-- Node313201&#45;&gt;Node313202 -->
<g id="edge5" class="edge">
<title>Node313201&#45;&gt;Node313202</title>
<path fill="none" stroke="#191970" d="M1062.8253,-355.4014C1087.5261,-368.1377 1122.9315,-386.3936 1144.3652,-397.4454"/>
<polygon fill="#191970" stroke="#191970" points="1064.1044,-352.1231 1053.6123,-350.6509 1060.8963,-358.3447 1064.1044,-352.1231"/>
</g>
<!-- Node313201&#45;&gt;Node313208 -->
<g id="edge7" class="edge">
<title>Node313201&#45;&gt;Node313208</title>
<path fill="none" stroke="#191970" d="M1052.7928,-323.6823C1060.2568,-316.0735 1068.8456,-306.8813 1076,-298.054 1107.1319,-259.6428 1138.7026,-210.4243 1153.8199,-186.078"/>
<polygon fill="#191970" stroke="#191970" points="1049.8486,-321.6771 1045.2561,-331.2248 1054.8003,-326.6249 1049.8486,-321.6771"/>
</g>
<!-- Node313208&#45;&gt;Node313208 -->
<g id="edge8" class="edge">
<title>Node313208&#45;&gt;Node313208</title>
<path fill="none" stroke="#191970" d="M1140.2559,-196.5119C1143.0788,-201.2329 1150.6602,-204.554 1163,-204.554 1183.25,-204.554 1190.6855,-195.6106 1185.3066,-186.213"/>
<polygon fill="#191970" stroke="#191970" points="1143.7658,-196.3525 1140.6934,-186.213 1136.7721,-196.0554 1143.7658,-196.3525"/>
</g>
<!-- Node313216&#45;&gt;Node313200 -->
<g id="edge16" class="edge">
<title>Node313216&#45;&gt;Node313200</title>
<path fill="none" stroke="#191970" d="M675.3541,-272.9686C650.1569,-264.2428 623.7951,-254.0721 607.8812,-246.573"/>
<polygon fill="#191970" stroke="#191970" points="674.3355,-276.3191 684.9299,-276.2335 676.5945,-269.6936 674.3355,-276.3191"/>
</g>
<!-- Node313216&#45;&gt;Node313208 -->
<g id="edge17" class="edge">
<title>Node313216&#45;&gt;Node313208</title>
<path fill="none" stroke="#191970" d="M805.6255,-272.1897C889.147,-248.5534 1034.7725,-207.3419 1111.8178,-185.5383"/>
<polygon fill="#191970" stroke="#191970" points="804.4257,-268.8917 795.7566,-274.9825 806.3318,-275.6272 804.4257,-268.8917"/>
</g>
<!-- Node313216&#45;&gt;Node313216 -->
<g id="edge10" class="edge">
<title>Node313216&#45;&gt;Node313216</title>
<path fill="none" stroke="#191970" d="M716.2022,-315.5119C719.4661,-320.2329 728.2321,-323.554 742.5,-323.554 765.9141,-323.554 774.5114,-314.6106 768.2921,-305.213"/>
<polygon fill="#191970" stroke="#191970" points="719.7132,-315.3726 716.7079,-305.213 712.7216,-315.0292 719.7132,-315.3726"/>
</g>
<!-- Node313216&#45;&gt;Node313210 -->
<g id="edge11" class="edge">
<title>Node313216&#45;&gt;Node313210</title>
<path fill="none" stroke="#191970" d="M770.139,-268.7657C803.8659,-242.7883 859.461,-199.9675 884.3115,-180.827"/>
<polygon fill="#191970" stroke="#191970" points="767.8542,-266.1076 762.0675,-274.9825 772.1257,-271.6533 767.8542,-266.1076"/>
</g>
<!-- Node313216&#45;&gt;Node313204 -->
<g id="edge13" class="edge">
<title>Node313216&#45;&gt;Node313204</title>
<path fill="none" stroke="#191970" d="M766.1288,-312.3828C800.4176,-344.7851 862.5228,-403.4736 886.8442,-426.4569"/>
<polygon fill="#191970" stroke="#191970" points="768.1244,-309.4531 758.4523,-305.1286 763.3166,-314.5408 768.1244,-309.4531"/>
</g>
<!-- Node313216&#45;&gt;Node313217 -->
<g id="edge18" class="edge">
<title>Node313216&#45;&gt;Node313217</title>
<path fill="none" stroke="#191970" d="M799.0673,-308.2329C860.6352,-328.0188 956.7417,-358.9043 1005.089,-374.4415"/>
<polygon fill="#191970" stroke="#191970" points="800.0865,-304.8842 789.4952,-305.1567 797.9448,-311.5485 800.0865,-304.8842"/>
</g>
<!-- Node313210&#45;&gt;Node313208 -->
<g id="edge12" class="edge">
<title>Node313210&#45;&gt;Node313208</title>
<path fill="none" stroke="#191970" d="M955.4303,-171.054C1002.0898,-171.054 1066.8408,-171.054 1111.5574,-171.054"/>
<polygon fill="#191970" stroke="#191970" points="955.1706,-167.5541 945.1706,-171.054 955.1706,-174.5541 955.1706,-167.5541"/>
</g>
<!-- Node313204&#45;&gt;Node313201 -->
<g id="edge14" class="edge">
<title>Node313204&#45;&gt;Node313201</title>
<path fill="none" stroke="#191970" d="M917.3449,-420.2196C936.679,-405.4001 966.7643,-382.926 994,-365.054 1001.5854,-360.0764 1010.222,-354.9453 1017.6059,-350.7116"/>
<polygon fill="#191970" stroke="#191970" points="915.0507,-417.5689 909.2671,-426.4459 919.3241,-423.1131 915.0507,-417.5689"/>
</g>
<!-- Node313204&#45;&gt;Node313202 -->
<g id="edge15" class="edge">
<title>Node313204&#45;&gt;Node313202</title>
<path fill="none" stroke="#191970" d="M968.1031,-428.3021C1016.3838,-423.0384 1078.6705,-416.2478 1119.6728,-411.7776"/>
<polygon fill="#191970" stroke="#191970" points="967.5875,-424.8375 958.0258,-429.4008 968.3462,-431.7963 967.5875,-424.8375"/>
</g>
<!-- Node313217&#45;&gt;Node313202 -->
<g id="edge20" class="edge">
<title>Node313217&#45;&gt;Node313202</title>
<path fill="none" stroke="#191970" d="M1081.55,-392.4184C1094.0315,-394.6612 1107.4717,-397.0762 1119.7654,-399.2853"/>
<polygon fill="#191970" stroke="#191970" points="1081.7987,-388.9071 1071.3373,-390.5833 1080.5606,-395.7968 1081.7987,-388.9071"/>
</g>
<!-- Node313217&#45;&gt;Node313208 -->
<g id="edge19" class="edge">
<title>Node313217&#45;&gt;Node313208</title>
<path fill="none" stroke="#191970" d="M1065.3974,-369.1906C1069.2577,-366.4949 1072.9259,-363.4458 1076,-360.054 1124.637,-306.3906 1150.4551,-220.8519 1159.3637,-186.2851"/>
<polygon fill="#191970" stroke="#191970" points="1063.4511,-366.2791 1056.7961,-374.523 1067.1395,-372.2286 1063.4511,-366.2791"/>
</g>
<!-- Node313222&#45;&gt;Node313198 -->
<g id="edge26" class="edge">
<title>Node313222&#45;&gt;Node313198</title>
<path fill="none" stroke="#191970" d="M281.6847,-146.5875C271.33,-151.8823 258.4134,-157.8566 248,-165.054 216.6559,-186.7179 186.3599,-219.5966 169.697,-236.3594"/>
<polygon fill="#191970" stroke="#191970" points="283.5517,-149.5563 290.662,-141.7017 280.2054,-143.4079 283.5517,-149.5563"/>
</g>
<!-- Node313224&#45;&gt;Node313208 -->
<g id="edge34" class="edge">
<title>Node313224&#45;&gt;Node313208</title>
<path fill="none" stroke="#191970" d="M351.7765,-50.947C410.2805,-45.6253 508.3839,-38.054 593,-38.054 593,-38.054 593,-38.054 897,-38.054 979.6009,-38.054 1004.1998,-47.2171 1076,-88.054 1107.2105,-105.8052 1135.7551,-137.1707 1151.1272,-155.8432"/>
<polygon fill="#191970" stroke="#191970" points="351.3142,-47.4747 341.6783,-51.8792 351.9577,-54.4451 351.3142,-47.4747"/>
</g>
<!-- Node313225 -->
<g id="node14" class="node">
<title>Node313225</title>
<g id="a_node14"><a xlink:href="quickjs_8c.html#af219bd55085ad700eb078affe3f65505" target="_top" xlink:title="js_parse_expr">
<polygon fill="none" stroke="#ff0000" points="406,-71.554 406,-90.554 483,-90.554 483,-71.554 406,-71.554"/>
<text text-anchor="middle" x="444.5" y="-78.554" font-family="Helvetica,sans-Serif" font-size="10.00" fill="#000000">js_parse_expr</text>
</a>
</g>
</g>
<!-- Node313224&#45;&gt;Node313225 -->
<g id="edge30" class="edge">
<title>Node313224&#45;&gt;Node313225</title>
<path fill="none" stroke="#191970" d="M352.0004,-65.0506C369.7417,-68.12 389.2551,-71.496 405.7677,-74.3529"/>
<polygon fill="#191970" stroke="#191970" points="352.2457,-61.5411 341.7954,-63.285 351.0523,-68.4386 352.2457,-61.5411"/>
</g>
<!-- Node313225&#45;&gt;Node313200 -->
<g id="edge32" class="edge">
<title>Node313225&#45;&gt;Node313200</title>
<path fill="none" stroke="#191970" d="M460.9063,-98.2889C492.1207,-131.0798 559.1331,-201.4766 583.7142,-227.2992"/>
<polygon fill="#191970" stroke="#191970" points="463.2193,-95.6423 453.7893,-90.8125 458.1491,-100.4687 463.2193,-95.6423"/>
</g>
<!-- Node313225&#45;&gt;Node313208 -->
<g id="edge33" class="edge">
<title>Node313225&#45;&gt;Node313208</title>
<path fill="none" stroke="#191970" d="M493.2182,-79.7352C552.2232,-78.2538 654.6373,-76.054 742.5,-76.054 742.5,-76.054 742.5,-76.054 897,-76.054 990.9066,-76.054 1093.1668,-129.2135 1138.7352,-156.0009"/>
<polygon fill="#191970" stroke="#191970" points="492.9796,-76.24 483.072,-79.9936 493.1579,-83.2377 492.9796,-76.24"/>
</g>
<!-- Node313225&#45;&gt;Node313210 -->
<g id="edge31" class="edge">
<title>Node313225&#45;&gt;Node313210</title>
<path fill="none" stroke="#191970" d="M493.1994,-86.2203C562.1731,-94.1325 691.9536,-111.2173 800,-138.054 825.2049,-144.3144 853.2103,-154.1675 872.6239,-161.4791"/>
<polygon fill="#191970" stroke="#191970" points="493.3992,-82.7206 483.0691,-85.0742 492.6122,-89.6762 493.3992,-82.7206"/>
</g>
<!-- Node313207&#45;&gt;Node313200 -->
<g id="edge38" class="edge">
<title>Node313207&#45;&gt;Node313200</title>
<path fill="none" stroke="#191970" d="M484.3286,-271.4483C508.9738,-263.6481 540.1164,-253.7915 562.739,-246.6315"/>
<polygon fill="#191970" stroke="#191970" points="483.0289,-268.1884 474.5512,-274.5428 485.1412,-274.8622 483.0289,-268.1884"/>
</g>
<!-- Node313228&#45;&gt;Node313200 -->
<g id="edge41" class="edge">
<title>Node313228&#45;&gt;Node313200</title>
<path fill="none" stroke="#191970" d="M358.1093,-244.269C410.0291,-242.6742 485.6039,-240.3528 536.9014,-238.7771"/>
<polygon fill="#191970" stroke="#191970" points="357.9427,-240.7724 348.0549,-244.5779 358.1577,-247.7691 357.9427,-240.7724"/>
</g>
</g>
</svg>
        <g id="navigator" transform="translate(0 0)" fill="#404254">
                <rect fill="#f2f5e9" fill-opacity="0.5" stroke="#606060" stroke-width=".5" x="0" y="0" width="60" height="60"/>
                <use id="zoomplus" xlink:href="#zoomPlus" x="17" y="9" onmousedown="handleZoom(evt,'in')"/>
                <use id="zoomminus" xlink:href="#zoomMin" x="42" y="9" onmousedown="handleZoom(evt,'out')"/>
                <use id="reset" xlink:href="#resetDef" x="30" y="36" onmousedown="handleReset()"/>
                <g id="arrowUp" xlink:href="#dirArrow" transform="translate(30 24)" onmousedown="handlePan(0,-1)">
                  <use xlink:href="#rim" fill="#404040">
                        <set attributeName="fill" to="#808080" begin="arrowUp.mouseover" end="arrowUp.mouseout"/>
                  </use>
                  <path fill="none" stroke="white" stroke-width="1.5" d="M0,-3.0v7 M-2.5,-0.5L0,-3.0L2.5,-0.5"/>
                </g>
                <g id="arrowRight" xlink:href="#dirArrow" transform="rotate(90) translate(36 -43)" onmousedown="handlePan(1,0)">
                  <use xlink:href="#rim" fill="#404040">
                        <set attributeName="fill" to="#808080" begin="arrowRight.mouseover" end="arrowRight.mouseout"/>
                  </use>
                  <path fill="none" stroke="white" stroke-width="1.5" d="M0,-3.0v7 M-2.5,-0.5L0,-3.0L2.5,-0.5"/>
                </g>
                <g id="arrowDown" xlink:href="#dirArrow" transform="rotate(180) translate(-30 -48)" onmousedown="handlePan(0,1)">
                  <use xlink:href="#rim" fill="#404040">
                        <set attributeName="fill" to="#808080" begin="arrowDown.mouseover" end="arrowDown.mouseout"/>
                  </use>
                  <path fill="none" stroke="white" stroke-width="1.5" d="M0,-3.0v7 M-2.5,-0.5L0,-3.0L2.5,-0.5"/>
                </g>
                <g id="arrowLeft" xlink:href="#dirArrow" transform="rotate(270) translate(-36 17)" onmousedown="handlePan(-1,0)">
                  <use xlink:href="#rim" fill="#404040">
                        <set attributeName="fill" to="#808080" begin="arrowLeft.mouseover" end="arrowLeft.mouseout"/>
                  </use>
                  <path fill="none" stroke="white" stroke-width="1.5" d="M0,-3.0v7 M-2.5,-0.5L0,-3.0L2.5,-0.5"/>
                </g>
        </g>
        <svg viewBox="0 0 15 15" width="100%" height="30px" preserveAspectRatio="xMaxYMin meet">
         <g id="arrow_out" transform="scale(0.3 0.3)">
          <a xlink:href="quickjs_8c_acea69d5aa6481a035d0833b8bce455f5_icgraph_org.svg" target="_base">
           <rect id="button" ry="5" rx="5" y="6" x="6" height="38" width="38"
                fill="#f2f5e9" fill-opacity="0.5" stroke="#606060" stroke-width="1.0"/>
           <path id="arrow"
             d="M 11.500037,31.436501 C 11.940474,20.09759 22.043105,11.32322 32.158766,21.979434 L 37.068811,17.246167 C 37.068811,17.246167 37.088388,32 37.088388,32 L 22.160133,31.978069 C 22.160133,31.978069 26.997745,27.140456 26.997745,27.140456 C 18.528582,18.264221 13.291696,25.230495 11.500037,31.436501 z"
             style="fill:#404040;"/>
          </a>
         </g>
        </svg>
</svg>
