<?xml version="1.0" encoding="UTF-8" standalone="no"?>
<!DOCTYPE svg PUBLIC "-//W3C//DTD SVG 1.1//EN"
 "http://www.w3.org/Graphics/SVG/1.1/DTD/svg11.dtd">
<!-- Generated by graphviz version 2.40.1 (20161225.0304)
 -->
<!-- Title: emit_u32 Pages: 1 -->
<svg width="1368pt" height="1959pt"
 viewBox="0.00 0.00 1368.00 1958.68" xmlns="http://www.w3.org/2000/svg" xmlns:xlink="http://www.w3.org/1999/xlink">
<g id="graph0" class="graph" transform="scale(1 1) rotate(0) translate(4 1954.6802)">
<title>emit_u32</title>
<!-- Node298657 -->
<g id="node1" class="node">
<title>Node298657</title>
<polygon fill="#bfbfbf" stroke="#000000" points="0,-1193.0223 0,-1212.0223 56,-1212.0223 56,-1193.0223 0,-1193.0223"/>
<text text-anchor="middle" x="28" y="-1200.0223" font-family="Helvetica,sans-Serif" font-size="10.00" fill="#000000">emit_u32</text>
</g>
<!-- Node298658 -->
<g id="node2" class="node">
<title>Node298658</title>
<g id="a_node2"><a xlink:href="quickjs_8c.html#aa57b449a878287663249bb7ab23ed8e9" target="_top" xlink:title="emit_atom">
<polygon fill="none" stroke="#000000" points="106.5,-1155.0223 106.5,-1174.0223 168.5,-1174.0223 168.5,-1155.0223 106.5,-1155.0223"/>
<text text-anchor="middle" x="137.5" y="-1162.0223" font-family="Helvetica,sans-Serif" font-size="10.00" fill="#000000">emit_atom</text>
</a>
</g>
</g>
<!-- Node298657&#45;&gt;Node298658 -->
<g id="edge1" class="edge">
<title>Node298657&#45;&gt;Node298658</title>
<path fill="none" stroke="#191970" d="M65.3792,-1189.5505C79.9676,-1184.4878 96.3917,-1178.7882 109.8774,-1174.1082"/>
<polygon fill="#191970" stroke="#191970" points="63.9313,-1186.3481 55.6315,-1192.9333 66.2263,-1192.9612 63.9313,-1186.3481"/>
</g>
<!-- Node298660 -->
<g id="node4" class="node">
<title>Node298660</title>
<g id="a_node4"><a xlink:href="quickjs_8c.html#acdcc62310b4f6f73fa7bc7267b18b1d4" target="_top" xlink:title="js_parse_postfix_expr">
<polygon fill="none" stroke="#ff0000" points="683,-852.0223 683,-871.0223 795,-871.0223 795,-852.0223 683,-852.0223"/>
<text text-anchor="middle" x="739" y="-859.0223" font-family="Helvetica,sans-Serif" font-size="10.00" fill="#000000">js_parse_postfix_expr</text>
</a>
</g>
</g>
<!-- Node298657&#45;&gt;Node298660 -->
<g id="edge118" class="edge">
<title>Node298657&#45;&gt;Node298660</title>
<path fill="none" stroke="#191970" d="M29.1162,-1182.8162C33.086,-1120.1309 48.6775,-927.0201 92,-885.5223 269.3617,-715.6307 615.2938,-818.2656 712.8353,-851.9799"/>
<polygon fill="#191970" stroke="#191970" points="25.6143,-1182.7446 28.5062,-1192.9371 32.6016,-1183.1658 25.6143,-1182.7446"/>
</g>
<!-- Node298661 -->
<g id="node5" class="node">
<title>Node298661</title>
<g id="a_node5"><a xlink:href="quickjs_8c.html#a00eb789430243c24dab4a63ad6a79653" target="_top" xlink:title="js_parse_class">
<polygon fill="none" stroke="#000000" points="1140,-1327.0223 1140,-1346.0223 1222,-1346.0223 1222,-1327.0223 1140,-1327.0223"/>
<text text-anchor="middle" x="1181" y="-1334.0223" font-family="Helvetica,sans-Serif" font-size="10.00" fill="#000000">js_parse_class</text>
</a>
</g>
</g>
<!-- Node298657&#45;&gt;Node298661 -->
<g id="edge115" class="edge">
<title>Node298657&#45;&gt;Node298661</title>
<path fill="none" stroke="#191970" d="M28.4756,-1222.5438C31.192,-1329.0916 46.2684,-1826.5191 92,-1875.5223 149.6286,-1937.2735 195.0354,-1906.5223 279.5,-1906.5223 279.5,-1906.5223 279.5,-1906.5223 437,-1906.5223 512.726,-1906.5223 1054.8403,-1824.1223 1104,-1766.5223 1160.865,-1699.8939 1177.8017,-1403.3925 1180.5674,-1346.1175"/>
<polygon fill="#191970" stroke="#191970" points="31.9673,-1222.1638 28.2212,-1212.2534 24.9695,-1222.3368 31.9673,-1222.1638"/>
</g>
<!-- Node298662 -->
<g id="node6" class="node">
<title>Node298662</title>
<g id="a_node6"><a xlink:href="quickjs_8c.html#a9d844c16dcc71701436848074337d32c" target="_top" xlink:title="js_parse_statement\l_or_decl">
<polygon fill="none" stroke="#ff0000" points="1258,-689.5223 1258,-719.5223 1360,-719.5223 1360,-689.5223 1258,-689.5223"/>
<text text-anchor="start" x="1266" y="-707.5223" font-family="Helvetica,sans-Serif" font-size="10.00" fill="#000000">js_parse_statement</text>
<text text-anchor="middle" x="1309" y="-696.5223" font-family="Helvetica,sans-Serif" font-size="10.00" fill="#000000">_or_decl</text>
</a>
</g>
</g>
<!-- Node298657&#45;&gt;Node298662 -->
<g id="edge119" class="edge">
<title>Node298657&#45;&gt;Node298662</title>
<path fill="none" stroke="#191970" d="M28.4028,-1222.4666C30.795,-1331.8849 44.6808,-1856.2552 92,-1908.5223 148.9504,-1971.4277 194.6446,-1944.5223 279.5,-1944.5223 279.5,-1944.5223 279.5,-1944.5223 739,-1944.5223 912.9056,-1944.5223 985.4873,-1930.7933 1104,-1803.5223 1260.4065,-1635.5571 1302.7865,-839.983 1308.3354,-719.7569"/>
<polygon fill="#191970" stroke="#191970" points="31.8965,-1222.1254 28.186,-1212.2016 24.898,-1222.2733 31.8965,-1222.1254"/>
</g>
<!-- Node298676 -->
<g id="node8" class="node">
<title>Node298676</title>
<g id="a_node8"><a xlink:href="quickjs_8c.html#a26be546cf89c4580ba9020e8fc43a759" target="_top" xlink:title="js_parse_destructuring\l_element">
<polygon fill="none" stroke="#000000" points="831,-846.5223 831,-876.5223 946,-876.5223 946,-846.5223 831,-846.5223"/>
<text text-anchor="start" x="839" y="-864.5223" font-family="Helvetica,sans-Serif" font-size="10.00" fill="#000000">js_parse_destructuring</text>
<text text-anchor="middle" x="888.5" y="-853.5223" font-family="Helvetica,sans-Serif" font-size="10.00" fill="#000000">_element</text>
</a>
</g>
</g>
<!-- Node298657&#45;&gt;Node298676 -->
<g id="edge116" class="edge">
<title>Node298657&#45;&gt;Node298676</title>
<path fill="none" stroke="#191970" d="M30.5905,-1222.3388C36.4411,-1261.8593 53.3002,-1352.2824 92,-1417.5223 155.282,-1524.2025 221.7325,-1582.9132 340,-1545.5223 593.1273,-1465.4947 672.2596,-1393.9211 795,-1158.5223 834.333,-1083.0872 802.8448,-1050.8019 831,-970.5223 843.3913,-935.1905 865.7112,-897.2282 878.5949,-876.7423"/>
<polygon fill="#191970" stroke="#191970" points="34.0232,-1221.614 29.1693,-1212.1964 27.0909,-1222.5854 34.0232,-1221.614"/>
</g>
<!-- Node298667 -->
<g id="node11" class="node">
<title>Node298667</title>
<g id="a_node11"><a xlink:href="quickjs_8c.html#acc9eb677cab8dfcf45f59381f8a19601" target="_top" xlink:title="js_parse_function_decl2">
<polygon fill="none" stroke="#ff0000" points="982,-1137.0223 982,-1156.0223 1104,-1156.0223 1104,-1137.0223 982,-1137.0223"/>
<text text-anchor="middle" x="1043" y="-1144.0223" font-family="Helvetica,sans-Serif" font-size="10.00" fill="#000000">js_parse_function_decl2</text>
</a>
</g>
</g>
<!-- Node298657&#45;&gt;Node298667 -->
<g id="edge117" class="edge">
<title>Node298657&#45;&gt;Node298667</title>
<path fill="none" stroke="#191970" d="M30.4835,-1222.4515C37.9079,-1279.553 61.3343,-1442.4188 92,-1485.5223 236.5459,-1688.6949 403.4148,-1620.8036 647,-1567.5223 803.4262,-1533.3059 851.4073,-1495.7203 946,-1366.5223 999.0168,-1294.1102 1031.3997,-1188.1535 1040.4124,-1156.0717"/>
<polygon fill="#191970" stroke="#191970" points="33.9168,-1221.7062 29.1797,-1212.2294 26.9731,-1222.5919 33.9168,-1221.7062"/>
</g>
<!-- Node298684 -->
<g id="node14" class="node">
<title>Node298684</title>
<g id="a_node14"><a xlink:href="quickjs_8c.html#a4fa2fc1719feb03edf64eaf034103fd2" target="_top" xlink:title="js_parse_assign_expr">
<polygon fill="none" stroke="#ff0000" points="381.5,-1233.0223 381.5,-1252.0223 492.5,-1252.0223 492.5,-1233.0223 381.5,-1233.0223"/>
<text text-anchor="middle" x="437" y="-1240.0223" font-family="Helvetica,sans-Serif" font-size="10.00" fill="#000000">js_parse_assign_expr</text>
</a>
</g>
</g>
<!-- Node298657&#45;&gt;Node298684 -->
<g id="edge114" class="edge">
<title>Node298657&#45;&gt;Node298684</title>
<path fill="none" stroke="#191970" d="M54.4131,-1216.5691C65.7424,-1222.1528 79.2763,-1228.2505 92,-1232.5223 197.108,-1267.8104 229.5434,-1269.1283 340,-1259.5223 357.203,-1258.0262 375.9303,-1255.0645 392.3014,-1252.0265"/>
<polygon fill="#191970" stroke="#191970" points="55.9845,-1213.4417 45.4813,-1212.0511 52.8249,-1219.688 55.9845,-1213.4417"/>
</g>
<!-- Node298685 -->
<g id="node15" class="node">
<title>Node298685</title>
<g id="a_node15"><a xlink:href="quickjs_8c.html#a253917187cfb6b3db09d355b31edb3d5" target="_top" xlink:title="js_parse_array_literal">
<polygon fill="none" stroke="#000000" points="536,-909.0223 536,-928.0223 645,-928.0223 645,-909.0223 536,-909.0223"/>
<text text-anchor="middle" x="590.5" y="-916.0223" font-family="Helvetica,sans-Serif" font-size="10.00" fill="#000000">js_parse_array_literal</text>
</a>
</g>
</g>
<!-- Node298657&#45;&gt;Node298685 -->
<g id="edge113" class="edge">
<title>Node298657&#45;&gt;Node298685</title>
<path fill="none" stroke="#191970" d="M29.7144,-1182.9253C35.0526,-1126.9077 53.3838,-968.0953 92,-936.5223 232.9613,-821.2707 478.6288,-883.1876 561.9337,-908.9989"/>
<polygon fill="#191970" stroke="#191970" points="26.2217,-1182.6863 28.7937,-1192.9641 33.1924,-1183.3256 26.2217,-1182.6863"/>
</g>
<!-- Node298694 -->
<g id="node18" class="node">
<title>Node298694</title>
<g id="a_node18"><a xlink:href="quickjs_8c.html#a069baa06a1214006c4ec473875de010e" target="_top" xlink:title="get_lvalue">
<polygon fill="none" stroke="#ff0000" points="249,-1517.0223 249,-1536.0223 310,-1536.0223 310,-1517.0223 249,-1517.0223"/>
<text text-anchor="middle" x="279.5" y="-1524.0223" font-family="Helvetica,sans-Serif" font-size="10.00" fill="#000000">get_lvalue</text>
</a>
</g>
</g>
<!-- Node298657&#45;&gt;Node298694 -->
<g id="edge111" class="edge">
<title>Node298657&#45;&gt;Node298694</title>
<path fill="none" stroke="#191970" d="M35.1392,-1221.4584C55.6919,-1273.5671 119.9376,-1420.6371 219,-1502.5223 227.6224,-1509.6495 238.6237,-1514.8535 248.8746,-1518.5559"/>
<polygon fill="#191970" stroke="#191970" points="38.3886,-1220.1568 31.5165,-1212.0931 31.86,-1222.6823 38.3886,-1220.1568"/>
</g>
<!-- Node298696 -->
<g id="node21" class="node">
<title>Node298696</title>
<g id="a_node21"><a xlink:href="quickjs_8c.html#a521694c7cb5b3e8b8f6393ac0cf9cc4f" target="_top" xlink:title="emit_class_init_end">
<polygon fill="none" stroke="#000000" points="837,-1793.0223 837,-1812.0223 940,-1812.0223 940,-1793.0223 837,-1793.0223"/>
<text text-anchor="middle" x="888.5" y="-1800.0223" font-family="Helvetica,sans-Serif" font-size="10.00" fill="#000000">emit_class_init_end</text>
</a>
</g>
</g>
<!-- Node298657&#45;&gt;Node298696 -->
<g id="edge68" class="edge">
<title>Node298657&#45;&gt;Node298696</title>
<path fill="none" stroke="#191970" d="M28.4322,-1222.4069C30.8859,-1326.096 44.6771,-1801.6824 92,-1844.5223 203.5113,-1945.4699 699.3798,-1844.8351 846.9413,-1812.0566"/>
<polygon fill="#191970" stroke="#191970" points="31.9301,-1222.2736 28.2028,-1212.3561 24.932,-1222.4334 31.9301,-1222.2736"/>
</g>
<!-- Node298697 -->
<g id="node22" class="node">
<title>Node298697</title>
<g id="a_node22"><a xlink:href="quickjs_8c.html#a6b3c67655a0facc68b271ce3d401deb3" target="_top" xlink:title="emit_goto">
<polygon fill="none" stroke="#ff0000" points="108,-263.0223 108,-282.0223 167,-282.0223 167,-263.0223 108,-263.0223"/>
<text text-anchor="middle" x="137.5" y="-270.0223" font-family="Helvetica,sans-Serif" font-size="10.00" fill="#000000">emit_goto</text>
</a>
</g>
</g>
<!-- Node298657&#45;&gt;Node298697 -->
<g id="edge70" class="edge">
<title>Node298657&#45;&gt;Node298697</title>
<path fill="none" stroke="#191970" d="M29.5349,-1182.5908C35.7336,-1103.3023 60.1234,-802.6317 92,-556.5223 105.9826,-448.5672 129.1458,-318.528 135.7143,-282.3013"/>
<polygon fill="#191970" stroke="#191970" points="26.0103,-1182.7731 28.7255,-1193.014 32.9893,-1183.315 26.0103,-1182.7731"/>
</g>
<!-- Node298698 -->
<g id="node23" class="node">
<title>Node298698</title>
<g id="a_node23"><a xlink:href="quickjs_8c.html#a98ab69061f85c400e0eed2c0eb47f49b" target="_top" xlink:title="js_emit_spread_code">
<polygon fill="none" stroke="#000000" points="225,-187.0223 225,-206.0223 334,-206.0223 334,-187.0223 225,-187.0223"/>
<text text-anchor="middle" x="279.5" y="-194.0223" font-family="Helvetica,sans-Serif" font-size="10.00" fill="#000000">js_emit_spread_code</text>
</a>
</g>
</g>
<!-- Node298657&#45;&gt;Node298698 -->
<g id="edge112" class="edge">
<title>Node298657&#45;&gt;Node298698</title>
<path fill="none" stroke="#191970" d="M28.7041,-1182.6144C33.4957,-1049.3713 62.019,-291.2481 92,-253.5223 123.4344,-213.9676 181.492,-201.1226 224.7083,-197.3096"/>
<polygon fill="#191970" stroke="#191970" points="25.1948,-1182.8156 28.3358,-1192.9341 32.1904,-1183.0654 25.1948,-1182.8156"/>
</g>
<!-- Node298701 -->
<g id="node27" class="node">
<title>Node298701</title>
<g id="a_node27"><a xlink:href="quickjs_8c.html#a555f0d4061c655933eb187026d0796af" target="_top" xlink:title="emit_label">
<polygon fill="none" stroke="#ff0000" points="107,-566.0223 107,-585.0223 168,-585.0223 168,-566.0223 107,-566.0223"/>
<text text-anchor="middle" x="137.5" y="-573.0223" font-family="Helvetica,sans-Serif" font-size="10.00" fill="#000000">emit_label</text>
</a>
</g>
</g>
<!-- Node298657&#45;&gt;Node298701 -->
<g id="edge87" class="edge">
<title>Node298657&#45;&gt;Node298701</title>
<path fill="none" stroke="#191970" d="M30.3736,-1182.4837C37.8095,-1120.783 61.9567,-928.3066 92,-770.5223 105.6551,-698.8073 127.5248,-613.5317 134.9434,-585.2014"/>
<polygon fill="#191970" stroke="#191970" points="26.8594,-1182.3945 29.1471,-1192.7394 33.8099,-1183.2258 26.8594,-1182.3945"/>
</g>
<!-- Node298702 -->
<g id="node28" class="node">
<title>Node298702</title>
<g id="a_node28"><a xlink:href="quickjs_8c.html#ab4795d29c6811027d6efbcf1ca715b1e" target="_top" xlink:title="put_lvalue">
<polygon fill="none" stroke="#ff0000" points="249,-1231.0223 249,-1250.0223 310,-1250.0223 310,-1231.0223 249,-1231.0223"/>
<text text-anchor="middle" x="279.5" y="-1238.0223" font-family="Helvetica,sans-Serif" font-size="10.00" fill="#000000">put_lvalue</text>
</a>
</g>
</g>
<!-- Node298657&#45;&gt;Node298702 -->
<g id="edge120" class="edge">
<title>Node298657&#45;&gt;Node298702</title>
<path fill="none" stroke="#191970" d="M66.4646,-1208.334C116.5329,-1215.899 203.0347,-1228.9689 248.8959,-1235.8982"/>
<polygon fill="#191970" stroke="#191970" points="66.7721,-1204.8408 56.3614,-1206.8075 65.7262,-1211.7623 66.7721,-1204.8408"/>
</g>
<!-- Node298703 -->
<g id="node29" class="node">
<title>Node298703</title>
<g id="a_node29"><a xlink:href="quickjs_8c.html#a71a59a62d53344c84d529a0f8b9d8597" target="_top" xlink:title="put_lvalue_nokeep">
<polygon fill="none" stroke="#000000" points="690,-301.0223 690,-320.0223 788,-320.0223 788,-301.0223 690,-301.0223"/>
<text text-anchor="middle" x="739" y="-308.0223" font-family="Helvetica,sans-Serif" font-size="10.00" fill="#000000">put_lvalue_nokeep</text>
</a>
</g>
</g>
<!-- Node298657&#45;&gt;Node298703 -->
<g id="edge121" class="edge">
<title>Node298657&#45;&gt;Node298703</title>
<path fill="none" stroke="#191970" d="M28.5983,-1182.7654C32.8339,-1045.6017 59.0781,-239.505 92,-200.5223 251.1793,-12.0384 456.0878,-54.2637 647,-210.5223 675.9229,-234.1952 656.0808,-260.5936 683,-286.5223 689.3993,-292.6861 697.6284,-297.3889 705.7974,-300.9259"/>
<polygon fill="#191970" stroke="#191970" points="25.0922,-1182.9159 28.2845,-1193.0183 32.0889,-1183.1302 25.0922,-1182.9159"/>
</g>
<!-- Node298704 -->
<g id="node30" class="node">
<title>Node298704</title>
<g id="a_node30"><a xlink:href="quickjs_8c.html#a22324bb35cdaa36ce844506a073bb7f4" target="_top" xlink:title="emit_push_const">
<polygon fill="none" stroke="#000000" points="92,-946.0223 92,-965.0223 183,-965.0223 183,-946.0223 92,-946.0223"/>
<text text-anchor="middle" x="137.5" y="-953.0223" font-family="Helvetica,sans-Serif" font-size="10.00" fill="#000000">emit_push_const</text>
</a>
</g>
</g>
<!-- Node298657&#45;&gt;Node298704 -->
<g id="edge107" class="edge">
<title>Node298657&#45;&gt;Node298704</title>
<path fill="none" stroke="#191970" d="M36.3947,-1183.5862C58.3564,-1134.0471 116.9349,-1001.9111 133.2371,-965.138"/>
<polygon fill="#191970" stroke="#191970" points="33.1457,-1182.2791 32.2925,-1192.8396 39.5451,-1185.1161 33.1457,-1182.2791"/>
</g>
<!-- Node298659 -->
<g id="node3" class="node">
<title>Node298659</title>
<g id="a_node3"><a xlink:href="quickjs_8c.html#a035daca514f14aacc1e0cff81d8e423a" target="_top" xlink:title="js_parse_template">
<polygon fill="none" stroke="#000000" points="542.5,-947.0223 542.5,-966.0223 638.5,-966.0223 638.5,-947.0223 542.5,-947.0223"/>
<text text-anchor="middle" x="590.5" y="-954.0223" font-family="Helvetica,sans-Serif" font-size="10.00" fill="#000000">js_parse_template</text>
</a>
</g>
</g>
<!-- Node298658&#45;&gt;Node298659 -->
<g id="edge2" class="edge">
<title>Node298658&#45;&gt;Node298659</title>
<path fill="none" stroke="#191970" d="M178.6826,-1160.9327C219.73,-1157.0519 284.4802,-1150.1096 340,-1140.5223 410.9716,-1128.2667 445.8623,-1154.2095 498,-1104.5223 541.0903,-1063.4572 493.0241,-1018.6974 534,-975.5223 537.7045,-971.619 542.2352,-968.5174 547.1037,-966.053"/>
<polygon fill="#191970" stroke="#191970" points="178.1572,-1157.4663 168.5237,-1161.8763 178.8046,-1164.4363 178.1572,-1157.4663"/>
</g>
<!-- Node298658&#45;&gt;Node298660 -->
<g id="edge58" class="edge">
<title>Node298658&#45;&gt;Node298660</title>
<path fill="none" stroke="#191970" d="M155.6055,-1147.7886C171.3439,-1134.0015 195.2837,-1114.7885 219,-1102.5223 269.0673,-1076.6272 299.7406,-1103.9743 340,-1064.5223 375.8366,-1029.4043 341.0079,-993.4817 376,-957.5223 428.1685,-903.9116 461.8573,-919.2983 534,-899.5223 583.5704,-885.9339 641.2227,-875.7283 682.7393,-869.3336"/>
<polygon fill="#191970" stroke="#191970" points="152.8764,-1145.5341 147.7593,-1154.8113 157.5448,-1150.75 152.8764,-1145.5341"/>
</g>
<!-- Node298658&#45;&gt;Node298661 -->
<g id="edge50" class="edge">
<title>Node298658&#45;&gt;Node298661</title>
<path fill="none" stroke="#191970" d="M141.0746,-1184.0259C156.6909,-1269.2108 218.1842,-1604.435 219,-1605.5223 307.7344,-1723.792 387.2283,-1694.6453 534,-1712.5223 716.1871,-1734.7128 783.5491,-1769.9287 946,-1684.5223 1028.7852,-1640.9991 1051.1019,-1622.6549 1104,-1545.5223 1150.8027,-1477.2777 1173.1641,-1377.0821 1179.2416,-1346.0423"/>
<polygon fill="#191970" stroke="#191970" points="144.504,-1183.322 139.2583,-1174.117 137.6187,-1184.5842 144.504,-1183.322"/>
</g>
<!-- Node298669 -->
<g id="node7" class="node">
<title>Node298669</title>
<g id="a_node7"><a xlink:href="quickjs_8c.html#a498e1d5c7de1b59c1630e9847cde1e41" target="_top" xlink:title="js_parse_export">
<polygon fill="none" stroke="#ff0000" points="1266,-1479.0223 1266,-1498.0223 1352,-1498.0223 1352,-1479.0223 1266,-1479.0223"/>
<text text-anchor="middle" x="1309" y="-1486.0223" font-family="Helvetica,sans-Serif" font-size="10.00" fill="#000000">js_parse_export</text>
</a>
</g>
</g>
<!-- Node298658&#45;&gt;Node298669 -->
<g id="edge66" class="edge">
<title>Node298658&#45;&gt;Node298669</title>
<path fill="none" stroke="#191970" d="M140.1235,-1183.9676C152.2902,-1273.6223 203.2906,-1643.5565 219,-1662.5223 421.0218,-1906.4212 571.799,-1906.5223 888.5,-1906.5223 888.5,-1906.5223 888.5,-1906.5223 1043,-1906.5223 1243.4202,-1906.5223 1299.3633,-1560.2576 1307.7978,-1498.0382"/>
<polygon fill="#191970" stroke="#191970" points="143.5911,-1183.4917 138.7814,-1174.0515 136.6544,-1184.4307 143.5911,-1183.4917"/>
</g>
<!-- Node298658&#45;&gt;Node298676 -->
<g id="edge57" class="edge">
<title>Node298658&#45;&gt;Node298676</title>
<path fill="none" stroke="#191970" d="M147.8592,-1146.1143C161.4013,-1123.6741 187.1847,-1086.0851 219,-1064.5223 265.6605,-1032.8982 300.4896,-1066.7245 340,-1026.5223 379.6269,-986.2016 334.322,-942.7191 376,-904.5223 502.2205,-788.8444 726.8878,-822.3328 831.7097,-846.4289"/>
<polygon fill="#191970" stroke="#191970" points="144.7009,-1144.5816 142.6715,-1154.9803 150.7427,-1148.1168 144.7009,-1144.5816"/>
</g>
<!-- Node298677 -->
<g id="node9" class="node">
<title>Node298677</title>
<g id="a_node9"><a xlink:href="quickjs_8c.html#a42924858317b848c3aea0a0a978fab3a" target="_top" xlink:title="js_parse_var">
<polygon fill="none" stroke="#000000" points="1007,-1517.0223 1007,-1536.0223 1079,-1536.0223 1079,-1517.0223 1007,-1517.0223"/>
<text text-anchor="middle" x="1043" y="-1524.0223" font-family="Helvetica,sans-Serif" font-size="10.00" fill="#000000">js_parse_var</text>
</a>
</g>
</g>
<!-- Node298658&#45;&gt;Node298677 -->
<g id="edge64" class="edge">
<title>Node298658&#45;&gt;Node298677</title>
<path fill="none" stroke="#191970" d="M140.8647,-1184.3735C153.5083,-1258.266 198.4971,-1514.7231 219,-1545.5223 266.072,-1616.2331 298.487,-1619.7726 376,-1654.5223 441.9048,-1684.0679 462.2777,-1684.0187 534,-1692.5223 717.0169,-1714.2213 786.1911,-1737.3217 946,-1645.5223 992.9172,-1618.5715 1026.4202,-1559.5359 1038.2816,-1536.2466"/>
<polygon fill="#191970" stroke="#191970" points="144.2518,-1183.4143 139.1219,-1174.1442 137.3512,-1184.59 144.2518,-1183.4143"/>
</g>
<!-- Node298664 -->
<g id="node10" class="node">
<title>Node298664</title>
<g id="a_node10"><a xlink:href="quickjs_8c.html#ac188b916dd086803591a67de7e7a85f6" target="_top" xlink:title="js_parse_for_in_of">
<polygon fill="none" stroke="#000000" points="995,-529.0223 995,-548.0223 1091,-548.0223 1091,-529.0223 995,-529.0223"/>
<text text-anchor="middle" x="1043" y="-536.0223" font-family="Helvetica,sans-Serif" font-size="10.00" fill="#000000">js_parse_for_in_of</text>
</a>
</g>
</g>
<!-- Node298658&#45;&gt;Node298664 -->
<g id="edge65" class="edge">
<title>Node298658&#45;&gt;Node298664</title>
<path fill="none" stroke="#191970" d="M143.6462,-1145.0239C154.1427,-1114.9498 178.4159,-1057.4894 219,-1026.5223 263.3147,-992.7086 301.3697,-1033.7076 340,-993.5223 389.3123,-942.225 330.8119,-892.4872 376,-837.5223 541.6127,-636.0781 871.1425,-565.3759 994.7077,-545.3206"/>
<polygon fill="#191970" stroke="#191970" points="140.2411,-1144.1712 140.3976,-1154.7649 146.8815,-1146.3858 140.2411,-1144.1712"/>
</g>
<!-- Node298658&#45;&gt;Node298667 -->
<g id="edge67" class="edge">
<title>Node298658&#45;&gt;Node298667</title>
<path fill="none" stroke="#191970" d="M140.4165,-1184.2284C147.2972,-1224.504 167.9712,-1317.2714 219,-1374.5223 354.7559,-1526.8312 458.4035,-1618.362 647,-1540.5223 851.8424,-1455.9774 1006.5006,-1208.4602 1037.3642,-1156.2583"/>
<polygon fill="#191970" stroke="#191970" points="143.8359,-1183.4462 138.7968,-1174.1265 136.9241,-1184.5545 143.8359,-1183.4462"/>
</g>
<!-- Node298690 -->
<g id="node12" class="node">
<title>Node298690</title>
<g id="a_node12"><a xlink:href="quickjs_8c.html#ab87db7e4e299e811a54acab5fe3620a7" target="_top" xlink:title="set_object_name">
<polygon fill="none" stroke="#000000" points="234,-1346.0223 234,-1365.0223 325,-1365.0223 325,-1346.0223 234,-1346.0223"/>
<text text-anchor="middle" x="279.5" y="-1353.0223" font-family="Helvetica,sans-Serif" font-size="10.00" fill="#000000">set_object_name</text>
</a>
</g>
</g>
<!-- Node298658&#45;&gt;Node298690 -->
<g id="edge23" class="edge">
<title>Node298658&#45;&gt;Node298690</title>
<path fill="none" stroke="#191970" d="M151.0001,-1182.6808C180.3996,-1222.2252 249.3955,-1315.0297 272.1073,-1345.5785"/>
<polygon fill="#191970" stroke="#191970" points="153.5122,-1180.1935 144.737,-1174.2566 147.8946,-1184.37 153.5122,-1180.1935"/>
</g>
<!-- Node298671 -->
<g id="node13" class="node">
<title>Node298671</title>
<g id="a_node13"><a xlink:href="quickjs_8c.html#aee6d0acd87f136d43f157ae1426436e6" target="_top" xlink:title="js_parse_object_literal">
<polygon fill="none" stroke="#000000" points="534,-985.0223 534,-1004.0223 647,-1004.0223 647,-985.0223 534,-985.0223"/>
<text text-anchor="middle" x="590.5" y="-992.0223" font-family="Helvetica,sans-Serif" font-size="10.00" fill="#000000">js_parse_object_literal</text>
</a>
</g>
</g>
<!-- Node298658&#45;&gt;Node298671 -->
<g id="edge44" class="edge">
<title>Node298658&#45;&gt;Node298671</title>
<path fill="none" stroke="#191970" d="M178.6512,-1172.9924C191.5136,-1175.2617 205.7939,-1177.3963 219,-1178.5223 281.288,-1183.8333 452.9138,-1185.8263 498,-1142.5223 542.1661,-1100.102 490.5933,-1052.7193 534,-1009.5223 536.0862,-1007.4462 538.4247,-1005.648 540.9317,-1004.0913"/>
<polygon fill="#191970" stroke="#191970" points="179.1556,-1169.5265 168.6875,-1171.1603 177.8897,-1176.4111 179.1556,-1169.5265"/>
</g>
<!-- Node298658&#45;&gt;Node298685 -->
<g id="edge51" class="edge">
<title>Node298658&#45;&gt;Node298685</title>
<path fill="none" stroke="#191970" d="M178.3539,-1152.4753C235.3826,-1135.5917 332.7366,-1106.4993 340,-1102.5223 439.2822,-1048.1614 435.4689,-993.2329 534,-937.5223 540.5762,-933.804 547.9962,-930.6613 555.244,-928.0684"/>
<polygon fill="#191970" stroke="#191970" points="177.1426,-1149.1836 168.546,-1155.3763 179.1281,-1155.8961 177.1426,-1149.1836"/>
</g>
<!-- Node298691 -->
<g id="node16" class="node">
<title>Node298691</title>
<g id="a_node16"><a xlink:href="quickjs_8c.html#a1e86277b96b55991d572603e00fef94d" target="_top" xlink:title="emit_class_field_init">
<polygon fill="none" stroke="#000000" points="227,-699.0223 227,-718.0223 332,-718.0223 332,-699.0223 227,-699.0223"/>
<text text-anchor="middle" x="279.5" y="-706.0223" font-family="Helvetica,sans-Serif" font-size="10.00" fill="#000000">emit_class_field_init</text>
</a>
</g>
</g>
<!-- Node298658&#45;&gt;Node298691 -->
<g id="edge45" class="edge">
<title>Node298658&#45;&gt;Node298691</title>
<path fill="none" stroke="#191970" d="M143.5721,-1145.0231C167.9912,-1066.6069 258.5694,-775.7361 276.4301,-718.3804"/>
<polygon fill="#191970" stroke="#191970" points="140.0974,-1144.4096 140.4659,-1154.9981 146.7809,-1146.4909 140.0974,-1144.4096"/>
</g>
<!-- Node298692 -->
<g id="node17" class="node">
<title>Node298692</title>
<g id="a_node17"><a xlink:href="quickjs_8c.html#a38e4107378b0d9abd638e4fe13541678" target="_top" xlink:title="emit_class_init_start">
<polygon fill="none" stroke="#ff0000" points="226,-471.0223 226,-490.0223 333,-490.0223 333,-471.0223 226,-471.0223"/>
<text text-anchor="middle" x="279.5" y="-478.0223" font-family="Helvetica,sans-Serif" font-size="10.00" fill="#000000">emit_class_init_start</text>
</a>
</g>
</g>
<!-- Node298658&#45;&gt;Node298692 -->
<g id="edge48" class="edge">
<title>Node298658&#45;&gt;Node298692</title>
<path fill="none" stroke="#191970" d="M143.1502,-1145.0685C152.8566,-1110.8785 172.6501,-1037.6468 183,-974.5223 211.8091,-798.8147 161.5513,-744.0535 219,-575.5223 230.7346,-541.0976 257.3549,-506.5465 271.0355,-490.2252"/>
<polygon fill="#191970" stroke="#191970" points="139.7704,-1144.1576 140.378,-1154.735 146.4992,-1146.0874 139.7704,-1144.1576"/>
</g>
<!-- Node298658&#45;&gt;Node298694 -->
<g id="edge52" class="edge">
<title>Node298658&#45;&gt;Node298694</title>
<path fill="none" stroke="#191970" d="M141.1171,-1184.0157C153.9307,-1252.2858 197.5414,-1477.8016 219,-1502.5223 226.7035,-1511.3969 238.1328,-1517.0218 248.9893,-1520.5728"/>
<polygon fill="#191970" stroke="#191970" points="144.5487,-1183.3253 139.2725,-1174.1377 137.6677,-1184.6103 144.5487,-1183.3253"/>
</g>
<!-- Node298679 -->
<g id="node19" class="node">
<title>Node298679</title>
<g id="a_node19"><a xlink:href="quickjs_8c.html#a2ecfb6abb190101748202a8aa5821fba" target="_top" xlink:title="js_parse_delete">
<polygon fill="none" stroke="#ff0000" points="237,-965.0223 237,-984.0223 322,-984.0223 322,-965.0223 237,-965.0223"/>
<text text-anchor="middle" x="279.5" y="-972.0223" font-family="Helvetica,sans-Serif" font-size="10.00" fill="#000000">js_parse_delete</text>
</a>
</g>
</g>
<!-- Node298658&#45;&gt;Node298679 -->
<g id="edge59" class="edge">
<title>Node298658&#45;&gt;Node298679</title>
<path fill="none" stroke="#191970" d="M142.0976,-1145.0927C151.1315,-1110.929 174.3216,-1039.8143 219,-998.5223 225.7217,-992.31 234.2467,-987.6263 242.7608,-984.1257"/>
<polygon fill="#191970" stroke="#191970" points="138.7006,-1144.2498 139.6526,-1154.8017 145.4887,-1145.9592 138.7006,-1144.2498"/>
</g>
<!-- Node298695 -->
<g id="node20" class="node">
<title>Node298695</title>
<g id="a_node20"><a xlink:href="quickjs_8c.html#acea69d5aa6481a035d0833b8bce455f5" target="_top" xlink:title="emit_return">
<polygon fill="none" stroke="#000000" points="247,-585.0223 247,-604.0223 312,-604.0223 312,-585.0223 247,-585.0223"/>
<text text-anchor="middle" x="279.5" y="-592.0223" font-family="Helvetica,sans-Serif" font-size="10.00" fill="#000000">emit_return</text>
</a>
</g>
</g>
<!-- Node298658&#45;&gt;Node298695 -->
<g id="edge60" class="edge">
<title>Node298658&#45;&gt;Node298695</title>
<path fill="none" stroke="#191970" d="M142.9164,-1145.028C152.2646,-1110.776 171.526,-1037.4521 183,-974.5223 205.9011,-848.9198 175.658,-809.6136 219,-689.5223 231.3467,-655.3124 257.6896,-620.6639 271.1728,-604.2733"/>
<polygon fill="#191970" stroke="#191970" points="139.5299,-1144.143 140.252,-1154.7132 146.2792,-1145.9998 139.5299,-1144.143"/>
</g>
<!-- Node298659&#45;&gt;Node298660 -->
<g id="edge3" class="edge">
<title>Node298659&#45;&gt;Node298660</title>
<path fill="none" stroke="#191970" d="M635.0842,-943.2695C639.2008,-941.5303 643.2351,-939.6155 647,-937.5223 680.6788,-918.7975 713.9842,-887.1623 729.6801,-871.2618"/>
<polygon fill="#191970" stroke="#191970" points="633.4807,-940.137 625.4175,-947.0098 636.0068,-946.6653 633.4807,-940.137"/>
</g>
<!-- Node298660&#45;&gt;Node298660 -->
<g id="edge21" class="edge">
<title>Node298660&#45;&gt;Node298660</title>
<path fill="none" stroke="#191970" d="M711.3742,-880.1762C712.5289,-885.4591 721.7375,-889.5223 739,-889.5223 765.3047,-889.5223 772.9084,-880.0875 761.8111,-871.2793"/>
<polygon fill="#191970" stroke="#191970" points="714.5076,-881.7399 716.1889,-871.2793 708.3512,-878.4083 714.5076,-881.7399"/>
</g>
<!-- Node298660&#45;&gt;Node298661 -->
<g id="edge4" class="edge">
<title>Node298660&#45;&gt;Node298661</title>
<path fill="none" stroke="#191970" d="M754.7463,-879.3825C791.6325,-927.0689 887.669,-1058.7791 982,-1156.5223 1050.3266,-1227.3205 1145.023,-1300.384 1172.9474,-1326.894"/>
<polygon fill="#191970" stroke="#191970" points="757.2903,-876.9544 748.3679,-871.2411 751.78,-881.2715 757.2903,-876.9544"/>
</g>
<!-- Node298660&#45;&gt;Node298676 -->
<g id="edge9" class="edge">
<title>Node298660&#45;&gt;Node298676</title>
<path fill="none" stroke="#191970" d="M805.2837,-854.8109C813.7211,-854.7336 822.3043,-854.7723 830.5958,-854.927"/>
<polygon fill="#191970" stroke="#191970" points="805.0403,-851.314 795.0936,-854.9627 805.1447,-858.3133 805.0403,-851.314"/>
</g>
<!-- Node298660&#45;&gt;Node298664 -->
<g id="edge22" class="edge">
<title>Node298660&#45;&gt;Node298664</title>
<path fill="none" stroke="#191970" d="M755.0199,-844.5011C810.1915,-785.8813 991.2713,-593.484 1033.9374,-548.1513"/>
<polygon fill="#191970" stroke="#191970" points="752.4031,-842.1747 748.0981,-851.8555 757.5005,-846.9723 752.4031,-842.1747"/>
</g>
<!-- Node298661&#45;&gt;Node298660 -->
<g id="edge5" class="edge">
<title>Node298661&#45;&gt;Node298660</title>
<path fill="none" stroke="#191970" d="M1153.1643,-1321.2484C1113.3251,-1293.3958 1038.6114,-1233.1815 982,-1174.5223 875.7244,-1064.4023 767.2839,-911.1688 743.703,-871.0821"/>
<polygon fill="#191970" stroke="#191970" points="1151.3504,-1324.248 1161.5821,-1326.998 1155.2985,-1318.4676 1151.3504,-1324.248"/>
</g>
<!-- Node298661&#45;&gt;Node298662 -->
<g id="edge6" class="edge">
<title>Node298661&#45;&gt;Node298662</title>
<path fill="none" stroke="#191970" d="M1184.9979,-1316.7826C1204.4242,-1220.8655 1288.7288,-804.6115 1305.929,-719.6853"/>
<polygon fill="#191970" stroke="#191970" points="1181.5141,-1316.3522 1182.9594,-1326.848 1188.3748,-1317.7417 1181.5141,-1316.3522"/>
</g>
<!-- Node298661&#45;&gt;Node298669 -->
<g id="edge8" class="edge">
<title>Node298661&#45;&gt;Node298669</title>
<path fill="none" stroke="#191970" d="M1195.4851,-1353.7234C1222.5356,-1385.8459 1279.8981,-1453.9638 1300.9961,-1479.0176"/>
<polygon fill="#191970" stroke="#191970" points="1198.1256,-1351.4252 1189.007,-1346.0306 1192.7712,-1355.9342 1198.1256,-1351.4252"/>
</g>
<!-- Node298662&#45;&gt;Node298662 -->
<g id="edge7" class="edge">
<title>Node298662&#45;&gt;Node298662</title>
<path fill="none" stroke="#191970" d="M1286.2559,-729.9802C1289.0788,-734.7012 1296.6602,-738.0223 1309,-738.0223 1329.25,-738.0223 1336.6855,-729.0789 1331.3066,-719.6813"/>
<polygon fill="#191970" stroke="#191970" points="1289.7658,-729.8208 1286.6934,-719.6813 1282.7721,-729.5237 1289.7658,-729.8208"/>
</g>
<!-- Node298676&#45;&gt;Node298660 -->
<g id="edge11" class="edge">
<title>Node298676&#45;&gt;Node298660</title>
<path fill="none" stroke="#191970" d="M820.3667,-868.2487C811.9104,-868.3091 803.3402,-868.2535 795.0936,-868.0818"/>
<polygon fill="#191970" stroke="#191970" points="820.6415,-871.7456 830.5958,-868.1176 820.5517,-864.7462 820.6415,-871.7456"/>
</g>
<!-- Node298676&#45;&gt;Node298662 -->
<g id="edge17" class="edge">
<title>Node298676&#45;&gt;Node298662</title>
<path fill="none" stroke="#191970" d="M938.4224,-842.883C1022.7106,-811.4127 1191.5856,-748.3607 1268.8028,-719.5305"/>
<polygon fill="#191970" stroke="#191970" points="936.9634,-839.6917 928.8193,-846.4685 939.4119,-846.2495 936.9634,-839.6917"/>
</g>
<!-- Node298676&#45;&gt;Node298676 -->
<g id="edge10" class="edge">
<title>Node298676&#45;&gt;Node298676</title>
<path fill="none" stroke="#191970" d="M862.2022,-886.9802C865.4661,-891.7012 874.2321,-895.0223 888.5,-895.0223 911.9141,-895.0223 920.5114,-886.0789 914.2921,-876.6813"/>
<polygon fill="#191970" stroke="#191970" points="865.7132,-886.8409 862.7079,-876.6813 858.7216,-886.4975 865.7132,-886.8409"/>
</g>
<!-- Node298676&#45;&gt;Node298677 -->
<g id="edge12" class="edge">
<title>Node298676&#45;&gt;Node298677</title>
<path fill="none" stroke="#191970" d="M894.3388,-886.6537C920.2383,-998.1304 1024.1949,-1445.5814 1040.7676,-1516.9136"/>
<polygon fill="#191970" stroke="#191970" points="897.6895,-885.6097 892.0172,-876.6612 890.8711,-887.1938 897.6895,-885.6097"/>
</g>
<!-- Node298676&#45;&gt;Node298664 -->
<g id="edge15" class="edge">
<title>Node298676&#45;&gt;Node298664</title>
<path fill="none" stroke="#191970" d="M900.148,-837.1708C931.636,-771.3415 1017.4855,-591.8633 1038.3732,-548.1952"/>
<polygon fill="#191970" stroke="#191970" points="896.9023,-835.8451 895.7446,-846.3765 903.2171,-838.8657 896.9023,-835.8451"/>
</g>
<!-- Node298676&#45;&gt;Node298667 -->
<g id="edge18" class="edge">
<title>Node298676&#45;&gt;Node298667</title>
<path fill="none" stroke="#191970" d="M901.7292,-885.9257C934.0853,-945.6117 1016.1474,-1096.9884 1037.732,-1136.8047"/>
<polygon fill="#191970" stroke="#191970" points="904.6494,-883.9684 896.8066,-876.8451 898.4955,-887.3045 904.6494,-883.9684"/>
</g>
<!-- Node298677&#45;&gt;Node298662 -->
<g id="edge13" class="edge">
<title>Node298677&#45;&gt;Node298662</title>
<path fill="none" stroke="#191970" d="M1067.3967,-1511.3414C1107.2883,-1485.0531 1185.665,-1426.9549 1222,-1355.5223 1281.4513,-1238.6442 1304.3016,-806.3008 1308.3298,-719.6866"/>
<polygon fill="#191970" stroke="#191970" points="1065.3066,-1508.525 1058.8132,-1516.8968 1069.11,-1514.4016 1065.3066,-1508.525"/>
</g>
<!-- Node298677&#45;&gt;Node298669 -->
<g id="edge14" class="edge">
<title>Node298677&#45;&gt;Node298669</title>
<path fill="none" stroke="#191970" d="M1089.2799,-1520.6563C1125.4494,-1515.9899 1176.9698,-1509.163 1222,-1502.5223 1236.2267,-1500.4242 1251.7356,-1497.9794 1265.6669,-1495.7252"/>
<polygon fill="#191970" stroke="#191970" points="1088.5106,-1517.2263 1079.0385,-1521.9728 1089.4032,-1524.1692 1088.5106,-1517.2263"/>
</g>
<!-- Node298664&#45;&gt;Node298662 -->
<g id="edge16" class="edge">
<title>Node298664&#45;&gt;Node298662</title>
<path fill="none" stroke="#191970" d="M1067.0769,-553.5477C1117.5459,-585.0434 1233.9344,-657.6768 1284.6448,-689.3231"/>
<polygon fill="#191970" stroke="#191970" points="1068.7876,-550.4897 1058.451,-548.1647 1065.0816,-556.4282 1068.7876,-550.4897"/>
</g>
<!-- Node298667&#45;&gt;Node298661 -->
<g id="edge19" class="edge">
<title>Node298667&#45;&gt;Node298661</title>
<path fill="none" stroke="#191970" d="M1056.372,-1164.281C1068.801,-1180.8384 1087.7828,-1206.2557 1104,-1228.5223 1130.3003,-1264.6333 1160.9588,-1308.0358 1174.2663,-1326.9408"/>
<polygon fill="#191970" stroke="#191970" points="1059.0066,-1161.9609 1050.2003,-1156.0702 1053.411,-1166.1669 1059.0066,-1161.9609"/>
</g>
<!-- Node298667&#45;&gt;Node298669 -->
<g id="edge20" class="edge">
<title>Node298667&#45;&gt;Node298669</title>
<path fill="none" stroke="#191970" d="M1063.9377,-1162.5565C1099.8,-1190.8163 1173.7676,-1252.6661 1222,-1317.5223 1263.5432,-1373.3837 1295.2413,-1452.0087 1305.4802,-1478.9959"/>
<polygon fill="#191970" stroke="#191970" points="1065.7173,-1159.5057 1055.68,-1156.1141 1061.4115,-1165.0248 1065.7173,-1159.5057"/>
</g>
<!-- Node298690&#45;&gt;Node298661 -->
<g id="edge26" class="edge">
<title>Node298690&#45;&gt;Node298661</title>
<path fill="none" stroke="#191970" d="M335.1643,-1354.3491C501.7742,-1350.8376 993.9841,-1340.4638 1139.8288,-1337.39"/>
<polygon fill="#191970" stroke="#191970" points="335.0576,-1350.8505 325.1337,-1354.5605 335.2052,-1357.8489 335.0576,-1350.8505"/>
</g>
<!-- Node298690&#45;&gt;Node298669 -->
<g id="edge42" class="edge">
<title>Node298690&#45;&gt;Node298669</title>
<path fill="none" stroke="#191970" d="M288.2089,-1374.5337C302.7471,-1404.5524 334.5045,-1463.3324 376,-1500.5223 490.427,-1603.0763 533.7072,-1623.1558 683,-1659.5223 929.2886,-1719.5162 1226.2181,-1541.9586 1294.5192,-1498.0767"/>
<polygon fill="#191970" stroke="#191970" points="291.2341,-1372.7435 283.7969,-1365.1977 284.9052,-1375.7344 291.2341,-1372.7435"/>
</g>
<!-- Node298690&#45;&gt;Node298676 -->
<g id="edge27" class="edge">
<title>Node298690&#45;&gt;Node298676</title>
<path fill="none" stroke="#191970" d="M333.5349,-1343.5365C379.536,-1331.7866 446.2037,-1311.0108 498,-1279.5223 653.2755,-1185.1256 677.1064,-1136.8058 795,-998.5223 830.1224,-957.3254 864.0839,-902.7514 879.6479,-876.6657"/>
<polygon fill="#191970" stroke="#191970" points="332.611,-1340.1596 323.7567,-1345.9778 334.3067,-1346.9511 332.611,-1340.1596"/>
</g>
<!-- Node298690&#45;&gt;Node298677 -->
<g id="edge41" class="edge">
<title>Node298690&#45;&gt;Node298677</title>
<path fill="none" stroke="#191970" d="M295.3801,-1372.9588C332.4846,-1412.2321 429.6676,-1506.8126 534,-1540.5223 703.7115,-1595.3559 922.0579,-1555.0672 1006.978,-1535.5293"/>
<polygon fill="#191970" stroke="#191970" points="297.7709,-1370.3904 288.3934,-1365.4596 292.6492,-1375.1621 297.7709,-1370.3904"/>
</g>
<!-- Node298690&#45;&gt;Node298667 -->
<g id="edge43" class="edge">
<title>Node298690&#45;&gt;Node298667</title>
<path fill="none" stroke="#191970" d="M335.0813,-1348.271C379.4993,-1341.9588 443.1767,-1331.7482 498,-1318.5223 701.512,-1269.4255 939.7856,-1184.4158 1017.2653,-1156.0466"/>
<polygon fill="#191970" stroke="#191970" points="334.4828,-1344.8206 325.0653,-1349.6746 335.4544,-1351.7528 334.4828,-1344.8206"/>
</g>
<!-- Node298690&#45;&gt;Node298671 -->
<g id="edge24" class="edge">
<title>Node298690&#45;&gt;Node298671</title>
<path fill="none" stroke="#191970" d="M290.7537,-1337.5092C311.1739,-1305.3046 354.227,-1239.7061 376,-1223.5223 422.1414,-1189.2257 459.8623,-1223.5432 498,-1180.5223 546.9271,-1125.3304 486.8304,-1075.2235 534,-1018.5223 539.2481,-1012.2137 546.4506,-1007.5289 553.9571,-1004.0617"/>
<polygon fill="#191970" stroke="#191970" points="287.7796,-1335.6638 285.4104,-1345.9904 293.7022,-1339.3953 287.7796,-1335.6638"/>
</g>
<!-- Node298690&#45;&gt;Node298684 -->
<g id="edge28" class="edge">
<title>Node298690&#45;&gt;Node298684</title>
<path fill="none" stroke="#191970" d="M301.4654,-1339.763C334.6152,-1315.9793 396.4355,-1271.6257 423.6056,-1252.1322"/>
<polygon fill="#191970" stroke="#191970" points="299.0132,-1337.2147 292.9284,-1345.888 303.0938,-1342.9023 299.0132,-1337.2147"/>
</g>
<!-- Node298671&#45;&gt;Node298660 -->
<g id="edge25" class="edge">
<title>Node298671&#45;&gt;Node298660</title>
<path fill="none" stroke="#191970" d="M637.898,-980.904C641.0836,-979.2922 644.1533,-977.5038 647,-975.5223 688.7471,-946.4625 721.4167,-893.2286 733.712,-871.3293"/>
<polygon fill="#191970" stroke="#191970" points="636.418,-977.7316 628.7026,-984.9927 639.2621,-984.1278 636.418,-977.7316"/>
</g>
<!-- Node298684&#45;&gt;Node298659 -->
<g id="edge29" class="edge">
<title>Node298684&#45;&gt;Node298659</title>
<path fill="none" stroke="#191970" d="M450.3927,-1224.7634C464.294,-1205.4923 485.6917,-1173.3356 498,-1142.5223 526.1651,-1072.0122 483.4029,-1032.1338 534,-975.5223 537.4482,-971.6642 541.7047,-968.5884 546.3223,-966.1365"/>
<polygon fill="#191970" stroke="#191970" points="447.5197,-1222.7626 444.418,-1232.8932 453.1603,-1226.9079 447.5197,-1222.7626"/>
</g>
<!-- Node298684&#45;&gt;Node298660 -->
<g id="edge35" class="edge">
<title>Node298684&#45;&gt;Node298660</title>
<path fill="none" stroke="#191970" d="M482.2288,-1228.4419C488.1824,-1224.9986 493.6994,-1220.7503 498,-1215.5223 544.0298,-1159.5666 486.5012,-1111.2365 534,-1056.5223 569.2268,-1015.9442 605.7304,-1047.9363 647,-1013.5223 696.2757,-972.432 726.2128,-897.7697 735.7068,-871.2159"/>
<polygon fill="#191970" stroke="#191970" points="480.6518,-1225.3172 473.2844,-1232.9312 483.7919,-1231.5734 480.6518,-1225.3172"/>
</g>
<!-- Node298684&#45;&gt;Node298661 -->
<g id="edge31" class="edge">
<title>Node298684&#45;&gt;Node298661</title>
<path fill="none" stroke="#191970" d="M503.0751,-1241.2831C544.5015,-1241.1241 598.9694,-1242.0421 647,-1246.5223 832.3468,-1263.8108 1050.427,-1308.1947 1139.7307,-1327.4186"/>
<polygon fill="#191970" stroke="#191970" points="502.8144,-1237.7845 492.8359,-1241.3452 502.8569,-1244.7844 502.8144,-1237.7845"/>
</g>
<!-- Node298684&#45;&gt;Node298669 -->
<g id="edge39" class="edge">
<title>Node298684&#45;&gt;Node298669</title>
<path fill="none" stroke="#191970" d="M488.8497,-1254.38C531.46,-1264.3007 593.3279,-1279.1091 647,-1293.5223 892.0228,-1359.3212 1184.6287,-1449.6832 1278.4628,-1478.9557"/>
<polygon fill="#191970" stroke="#191970" points="489.5196,-1250.9425 478.9872,-1252.091 487.9369,-1257.7612 489.5196,-1250.9425"/>
</g>
<!-- Node298684&#45;&gt;Node298676 -->
<g id="edge34" class="edge">
<title>Node298684&#45;&gt;Node298676</title>
<path fill="none" stroke="#191970" d="M481.5084,-1228.415C487.6592,-1224.9646 493.4251,-1220.7212 498,-1215.5223 535.0654,-1173.401 496.3047,-1136.0808 534,-1094.5223 570.4299,-1054.3588 600.0174,-1075.5941 647,-1048.5223 739.1208,-995.4415 835.0808,-910.7996 872.3587,-876.5943"/>
<polygon fill="#191970" stroke="#191970" points="479.7534,-1225.3774 472.3151,-1232.922 482.8348,-1231.6627 479.7534,-1225.3774"/>
</g>
<!-- Node298684&#45;&gt;Node298677 -->
<g id="edge37" class="edge">
<title>Node298684&#45;&gt;Node298677</title>
<path fill="none" stroke="#191970" d="M462.9302,-1257.065C502.5975,-1279.3183 580.7234,-1323.1714 647,-1360.5223 728.8358,-1406.6417 744.4598,-1427.9862 831,-1464.5223 890.704,-1489.7285 963.971,-1508.6746 1006.8742,-1518.6409"/>
<polygon fill="#191970" stroke="#191970" points="464.5913,-1253.9838 454.1574,-1252.1439 461.1666,-1260.0889 464.5913,-1253.9838"/>
</g>
<!-- Node298684&#45;&gt;Node298664 -->
<g id="edge38" class="edge">
<title>Node298684&#45;&gt;Node298664</title>
<path fill="none" stroke="#191970" d="M472.8831,-1228.9655C481.3995,-1225.1245 490.2543,-1220.5896 498,-1215.5223 516.1635,-1203.6396 516.9682,-1195.977 534,-1182.5223 707.5316,-1045.4367 817.9298,-1083.8101 946,-903.5223 989.3824,-842.4517 1032.5999,-599.6077 1041.3843,-548.1389"/>
<polygon fill="#191970" stroke="#191970" points="471.2969,-1225.8375 463.4887,-1232.9987 474.0585,-1232.2698 471.2969,-1225.8375"/>
</g>
<!-- Node298684&#45;&gt;Node298667 -->
<g id="edge40" class="edge">
<title>Node298684&#45;&gt;Node298667</title>
<path fill="none" stroke="#191970" d="M469.1906,-1229.27C487.8284,-1222.0982 511.9038,-1213.6767 534,-1208.5223 693.083,-1171.4129 885.6287,-1155.6479 981.9286,-1149.6947"/>
<polygon fill="#191970" stroke="#191970" points="467.7421,-1226.0785 459.7116,-1232.9895 470.2991,-1232.5948 467.7421,-1226.0785"/>
</g>
<!-- Node298684&#45;&gt;Node298671 -->
<g id="edge30" class="edge">
<title>Node298684&#45;&gt;Node298671</title>
<path fill="none" stroke="#191970" d="M487.0415,-1228.1368C491.1582,-1225.4581 494.9143,-1222.2837 498,-1218.5223 555.2829,-1148.6946 477.6595,-1089.1125 534,-1018.5223 539.0525,-1012.1918 546.0848,-1007.5049 553.4759,-1004.0435"/>
<polygon fill="#191970" stroke="#191970" points="485.2874,-1225.1066 478.1844,-1232.9678 488.6394,-1231.2519 485.2874,-1225.1066"/>
</g>
<!-- Node298684&#45;&gt;Node298684 -->
<g id="edge36" class="edge">
<title>Node298684&#45;&gt;Node298684</title>
<path fill="none" stroke="#191970" d="M408.6275,-1261.1762C409.8135,-1266.4591 419.271,-1270.5223 437,-1270.5223 464.0156,-1270.5223 471.8248,-1261.0875 460.4276,-1252.2793"/>
<polygon fill="#191970" stroke="#191970" points="411.7735,-1262.7204 413.5724,-1252.2793 405.6551,-1259.3197 411.7735,-1262.7204"/>
</g>
<!-- Node298684&#45;&gt;Node298685 -->
<g id="edge32" class="edge">
<title>Node298684&#45;&gt;Node298685</title>
<path fill="none" stroke="#191970" d="M446.8458,-1223.6111C460.1109,-1197.4636 483.7035,-1148.507 498,-1104.5223 521.4703,-1032.3137 483.4029,-994.1338 534,-937.5223 537.4482,-933.6642 541.7047,-930.5884 546.3223,-928.1365"/>
<polygon fill="#191970" stroke="#191970" points="443.6062,-1222.2582 442.155,-1232.7531 449.8342,-1225.4538 443.6062,-1222.2582"/>
</g>
<!-- Node298685&#45;&gt;Node298660 -->
<g id="edge33" class="edge">
<title>Node298685&#45;&gt;Node298660</title>
<path fill="none" stroke="#191970" d="M624.8972,-905.3193C652.1639,-894.8533 689.6205,-880.476 714.0633,-871.0939"/>
<polygon fill="#191970" stroke="#191970" points="623.4372,-902.1307 615.3556,-908.9818 625.9457,-908.6658 623.4372,-902.1307"/>
</g>
<!-- Node298691&#45;&gt;Node298660 -->
<g id="edge46" class="edge">
<title>Node298691&#45;&gt;Node298660</title>
<path fill="none" stroke="#191970" d="M342.1825,-702.3849C418.9423,-697.8036 550.616,-699.6667 647,-752.5223 690.6425,-776.4552 722.4679,-830.0012 734.1284,-851.9046"/>
<polygon fill="#191970" stroke="#191970" points="341.9347,-698.8935 332.1836,-703.0369 342.3902,-705.8787 341.9347,-698.8935"/>
</g>
<!-- Node298691&#45;&gt;Node298667 -->
<g id="edge47" class="edge">
<title>Node298691&#45;&gt;Node298667</title>
<path fill="none" stroke="#191970" d="M342.2914,-698.6913C475.9195,-681.733 789.032,-663.7875 946,-836.5223 988.9505,-883.7869 1031.8313,-1090.0865 1041.1437,-1137.0044"/>
<polygon fill="#191970" stroke="#191970" points="341.6793,-695.2415 332.2189,-700.0113 342.589,-702.1821 341.6793,-695.2415"/>
</g>
<!-- Node298692&#45;&gt;Node298661 -->
<g id="edge49" class="edge">
<title>Node298692&#45;&gt;Node298661</title>
<path fill="none" stroke="#191970" d="M335.4904,-465.5758C337.0889,-464.3307 338.5998,-462.9823 340,-461.5223 382.6838,-417.0143 329.3358,-367.8375 376,-327.5223 446.7175,-266.4263 701.9661,-282.6695 795,-291.5223 863.0303,-297.9958 887.5536,-285.1099 946,-320.5223 1042.5861,-379.0433 1061.848,-414.7521 1104,-519.5223 1167.1474,-676.4773 1179.4,-1245.3918 1180.8411,-1326.798"/>
<polygon fill="#191970" stroke="#191970" points="333.4859,-462.7016 326.8751,-470.981 337.2061,-468.6312 333.4859,-462.7016"/>
</g>
<!-- Node298694&#45;&gt;Node298676 -->
<g id="edge53" class="edge">
<title>Node298694&#45;&gt;Node298676</title>
<path fill="none" stroke="#191970" d="M304.209,-1511.7072C386.1345,-1461.3736 651.7441,-1288.2918 795,-1077.5223 841.6292,-1008.9177 873.1001,-913.295 884.1325,-876.6418"/>
<polygon fill="#191970" stroke="#191970" points="302.2875,-1508.7794 295.5729,-1516.9748 305.9327,-1514.7555 302.2875,-1508.7794"/>
</g>
<!-- Node298694&#45;&gt;Node298677 -->
<g id="edge55" class="edge">
<title>Node298694&#45;&gt;Node298677</title>
<path fill="none" stroke="#191970" d="M302.892,-1541.3538C321.9467,-1552.8798 349.877,-1568.536 376,-1578.5223 443.4632,-1604.312 462.2777,-1608.0187 534,-1616.5223 715.8375,-1638.0814 775.5461,-1683.4189 946,-1616.5223 988.1276,-1599.9888 1022.8595,-1555.6053 1036.6311,-1536.0255"/>
<polygon fill="#191970" stroke="#191970" points="304.6496,-1538.3259 294.2976,-1536.0703 300.9836,-1544.2891 304.6496,-1538.3259"/>
</g>
<!-- Node298694&#45;&gt;Node298664 -->
<g id="edge56" class="edge">
<title>Node298694&#45;&gt;Node298664</title>
<path fill="none" stroke="#191970" d="M319.5445,-1513.6816C364.7065,-1498.3046 439.4741,-1470.1075 498,-1434.5223 741.8452,-1286.258 821.0831,-1231.1125 946,-974.5223 1022.8807,-816.6025 1039.6512,-596.8215 1042.4954,-548.2658"/>
<polygon fill="#191970" stroke="#191970" points="318.1894,-1510.4446 309.8255,-1516.9482 320.4195,-1517.0799 318.1894,-1510.4446"/>
</g>
<!-- Node298694&#45;&gt;Node298684 -->
<g id="edge54" class="edge">
<title>Node298694&#45;&gt;Node298684</title>
<path fill="none" stroke="#191970" d="M289.9139,-1507.7442C320.415,-1452.7453 408.832,-1293.3141 431.6013,-1252.2571"/>
<polygon fill="#191970" stroke="#191970" points="286.7106,-1506.3037 284.9215,-1516.7464 292.8323,-1509.6986 286.7106,-1506.3037"/>
</g>
<!-- Node298695&#45;&gt;Node298662 -->
<g id="edge62" class="edge">
<title>Node298695&#45;&gt;Node298662</title>
<path fill="none" stroke="#191970" d="M299.7166,-578.1461C312.4451,-567.0856 328.5698,-551.613 340,-535.5223 361.8777,-504.7241 345.4532,-480.7496 376,-458.5223 581.8649,-308.725 703.5352,-323.8666 946,-401.5223 1115.6475,-455.8563 1258.5126,-635.7891 1298.1046,-689.3513"/>
<polygon fill="#191970" stroke="#191970" points="297.2982,-575.6076 291.926,-584.7394 301.8204,-580.9509 297.2982,-575.6076"/>
</g>
<!-- Node298695&#45;&gt;Node298667 -->
<g id="edge63" class="edge">
<title>Node298695&#45;&gt;Node298667</title>
<path fill="none" stroke="#191970" d="M321.4261,-582.6877C328.1594,-579.4976 334.6592,-575.5024 340,-570.5223 367.0421,-545.3065 345.2782,-516.0961 376,-495.5223 481.9708,-424.5553 870.3933,-459.8103 946,-562.5223 1017.4383,-659.5714 1039.3906,-1068.8489 1042.574,-1136.9102"/>
<polygon fill="#191970" stroke="#191970" points="320.0592,-579.4656 312.1866,-586.5559 322.7625,-585.9226 320.0592,-579.4656"/>
</g>
<!-- Node298695&#45;&gt;Node298684 -->
<g id="edge61" class="edge">
<title>Node298695&#45;&gt;Node298684</title>
<path fill="none" stroke="#191970" d="M293.6811,-612.037C307.6913,-630.2774 328.6265,-660.2295 340,-689.5223 420.9674,-898.055 434.7201,-1177.1325 436.6998,-1232.6757"/>
<polygon fill="#191970" stroke="#191970" points="296.3602,-609.7816 287.4318,-604.0776 290.8544,-614.1044 296.3602,-609.7816"/>
</g>
<!-- Node298696&#45;&gt;Node298661 -->
<g id="edge69" class="edge">
<title>Node298696&#45;&gt;Node298661</title>
<path fill="none" stroke="#191970" d="M933.3835,-1790.1364C993.0706,-1773.2747 1092.4349,-1743.6905 1104,-1730.5223 1156.8912,-1670.2997 1176.8971,-1400.2567 1180.4153,-1346.0254"/>
<polygon fill="#191970" stroke="#191970" points="932.1273,-1786.8538 923.4476,-1792.9294 934.0217,-1793.5926 932.1273,-1786.8538"/>
</g>
<!-- Node298697&#45;&gt;Node298662 -->
<g id="edge85" class="edge">
<title>Node298697&#45;&gt;Node298662</title>
<path fill="none" stroke="#191970" d="M141.6995,-253.0277C152.9672,-202.5653 185.3047,-69.6398 219,-41.5223 294.3434,21.349 338.8703,-6.5223 437,-6.5223 437,-6.5223 437,-6.5223 1043,-6.5223 1176.0671,-6.5223 1168.437,-124.7115 1222,-246.5223 1293.5103,-409.1482 1306.3516,-629.605 1308.5597,-689.1637"/>
<polygon fill="#191970" stroke="#191970" points="138.2401,-252.463 139.513,-262.9811 145.0771,-253.965 138.2401,-252.463"/>
</g>
<!-- Node298697&#45;&gt;Node298676 -->
<g id="edge75" class="edge">
<title>Node298697&#45;&gt;Node298676</title>
<path fill="none" stroke="#191970" d="M146.9903,-253.7824C159.7838,-230.8595 184.9452,-193.1763 219,-177.5223 242.7397,-166.6098 490.6727,-181.9725 498,-184.5223 516.6402,-191.0088 516.9187,-200.6348 534,-210.5223 581.6874,-238.126 606.8315,-223.8057 647,-261.5223 671.9293,-284.9298 664.6228,-300.6837 683,-329.5223 727.3302,-399.0879 759.6163,-403.0069 795,-477.5223 858.7202,-611.7122 881.5361,-793.5745 887.06,-846.5014"/>
<polygon fill="#191970" stroke="#191970" points="143.7603,-252.4006 142.1345,-262.87 149.9343,-255.6996 143.7603,-252.4006"/>
</g>
<!-- Node298697&#45;&gt;Node298664 -->
<g id="edge84" class="edge">
<title>Node298697&#45;&gt;Node298664</title>
<path fill="none" stroke="#191970" d="M138.4875,-252.8724C141.8027,-210.5207 156.2333,-111.0368 219,-68.5223 297.9277,-15.0613 557.2264,-65.4542 647,-97.5223 789.1334,-148.2939 848.1729,-143.5896 946,-258.5223 1019.526,-344.9047 1038.3549,-490.208 1042.1631,-528.8459"/>
<polygon fill="#191970" stroke="#191970" points="134.9858,-252.786 137.8273,-262.9927 141.971,-253.2418 134.9858,-252.786"/>
</g>
<!-- Node298697&#45;&gt;Node298667 -->
<g id="edge86" class="edge">
<title>Node298697&#45;&gt;Node298667</title>
<path fill="none" stroke="#191970" d="M146.6155,-253.8241C159.2798,-230.0687 184.5825,-189.841 219,-170.5223 302.3003,-123.7655 559.5338,-92.1191 647,-130.5223 838.068,-214.4133 865.5523,-299.9792 946,-492.5223 998.106,-617.2324 1036.432,-1065.947 1042.236,-1137.0117"/>
<polygon fill="#191970" stroke="#191970" points="143.4168,-252.3917 141.9719,-262.8876 149.6467,-255.5836 143.4168,-252.3917"/>
</g>
<!-- Node298697&#45;&gt;Node298684 -->
<g id="edge82" class="edge">
<title>Node298697&#45;&gt;Node298684</title>
<path fill="none" stroke="#191970" d="M169.8605,-286.4075C216.2655,-308.1934 300.465,-355.1054 340,-423.5223 425.1591,-570.8934 435.8047,-1150.925 436.8898,-1232.8758"/>
<polygon fill="#191970" stroke="#191970" points="171.1101,-283.1301 160.5615,-282.1413 168.1911,-289.4925 171.1101,-283.1301"/>
</g>
<!-- Node298697&#45;&gt;Node298691 -->
<g id="edge71" class="edge">
<title>Node298697&#45;&gt;Node298691</title>
<path fill="none" stroke="#191970" d="M139.8818,-292.243C146.8289,-345.7336 169.7681,-497.3486 219,-613.5223 233.2673,-647.1892 258.9728,-682.3614 271.7933,-698.8756"/>
<polygon fill="#191970" stroke="#191970" points="143.3275,-291.591 138.6069,-282.106 136.3822,-292.4646 143.3275,-291.591"/>
</g>
<!-- Node298697&#45;&gt;Node298692 -->
<g id="edge72" class="edge">
<title>Node298697&#45;&gt;Node298692</title>
<path fill="none" stroke="#191970" d="M140.4826,-292.32C147.2927,-330.6109 167.5635,-415.1205 219,-461.5223 223.3325,-465.4307 228.4642,-468.5352 233.8785,-471.001"/>
<polygon fill="#191970" stroke="#191970" points="143.9288,-291.7068 138.8424,-282.4128 137.0228,-292.8503 143.9288,-291.7068"/>
</g>
<!-- Node298697&#45;&gt;Node298695 -->
<g id="edge83" class="edge">
<title>Node298697&#45;&gt;Node298695</title>
<path fill="none" stroke="#191970" d="M142.9463,-292.1817C154.4032,-332.2916 182.9399,-425.9802 219,-499.5223 235.1842,-532.5288 260.2259,-568.2911 272.3874,-584.961"/>
<polygon fill="#191970" stroke="#191970" points="146.2571,-291.0264 140.1757,-282.3508 139.5195,-292.9252 146.2571,-291.0264"/>
</g>
<!-- Node298697&#45;&gt;Node298698 -->
<g id="edge73" class="edge">
<title>Node298697&#45;&gt;Node298698</title>
<path fill="none" stroke="#191970" d="M159.5003,-256.8616C175.5267,-245.862 198.0146,-231.2558 219,-220.5223 229.5632,-215.1195 241.6391,-210.1112 252.2097,-206.0827"/>
<polygon fill="#191970" stroke="#191970" points="157.0813,-254.2808 150.8711,-262.8648 161.0788,-260.0271 157.0813,-254.2808"/>
</g>
<!-- Node298699 -->
<g id="node24" class="node">
<title>Node298699</title>
<g id="a_node24"><a xlink:href="quickjs_8c.html#a964237617fb99ed93ebe4abda62d6c84" target="_top" xlink:title="optional_chain_test">
<polygon fill="none" stroke="#000000" points="229,-433.0223 229,-452.0223 330,-452.0223 330,-433.0223 229,-433.0223"/>
<text text-anchor="middle" x="279.5" y="-440.0223" font-family="Helvetica,sans-Serif" font-size="10.00" fill="#000000">optional_chain_test</text>
</a>
</g>
</g>
<!-- Node298697&#45;&gt;Node298699 -->
<g id="edge76" class="edge">
<title>Node298697&#45;&gt;Node298699</title>
<path fill="none" stroke="#191970" d="M143.4813,-291.7316C153.9914,-322.5319 178.5765,-383.0925 219,-418.5223 226.0531,-424.7041 234.8924,-429.4002 243.6181,-432.9242"/>
<polygon fill="#191970" stroke="#191970" points="146.7876,-290.5813 140.3478,-282.1682 140.1355,-292.7609 146.7876,-290.5813"/>
</g>
<!-- Node298681 -->
<g id="node25" class="node">
<title>Node298681</title>
<g id="a_node25"><a xlink:href="quickjs_8c.html#a2af8c0e05d949d0ae23d94c8e73e5494" target="_top" xlink:title="js_parse_logical_and_or">
<polygon fill="none" stroke="#000000" points="219,-263.0223 219,-282.0223 340,-282.0223 340,-263.0223 219,-263.0223"/>
<text text-anchor="middle" x="279.5" y="-270.0223" font-family="Helvetica,sans-Serif" font-size="10.00" fill="#000000">js_parse_logical_and_or</text>
</a>
</g>
</g>
<!-- Node298697&#45;&gt;Node298681 -->
<g id="edge78" class="edge">
<title>Node298697&#45;&gt;Node298681</title>
<path fill="none" stroke="#191970" d="M177.5764,-272.5223C190.3725,-272.5223 204.834,-272.5223 218.7579,-272.5223"/>
<polygon fill="#191970" stroke="#191970" points="177.2679,-269.0224 167.2679,-272.5223 177.2678,-276.0224 177.2679,-269.0224"/>
</g>
<!-- Node298682 -->
<g id="node26" class="node">
<title>Node298682</title>
<g id="a_node26"><a xlink:href="quickjs_8c.html#a2a6a8f6738ae03f046617522b9781245" target="_top" xlink:title="js_parse_coalesce_expr">
<polygon fill="none" stroke="#ff0000" points="376,-225.0223 376,-244.0223 498,-244.0223 498,-225.0223 376,-225.0223"/>
<text text-anchor="middle" x="437" y="-232.0223" font-family="Helvetica,sans-Serif" font-size="10.00" fill="#000000">js_parse_coalesce_expr</text>
</a>
</g>
</g>
<!-- Node298697&#45;&gt;Node298682 -->
<g id="edge81" class="edge">
<title>Node298697&#45;&gt;Node298682</title>
<path fill="none" stroke="#191970" d="M176.8971,-262.1473C190.1907,-258.9655 205.1656,-255.7263 219,-253.5223 271.5246,-245.1543 331.7982,-240.2565 375.6366,-237.5359"/>
<polygon fill="#191970" stroke="#191970" points="175.9828,-258.7677 167.1058,-264.5512 177.6519,-265.5659 175.9828,-258.7677"/>
</g>
<!-- Node298698&#45;&gt;Node298676 -->
<g id="edge74" class="edge">
<title>Node298698&#45;&gt;Node298676</title>
<path fill="none" stroke="#191970" d="M344.1496,-188.3455C390.0533,-185.6849 451.53,-188.749 498,-215.5223 504.22,-219.1059 791.5296,-632.2384 795,-638.5223 836.1994,-713.1223 870.8519,-809.6336 883.4343,-846.3978"/>
<polygon fill="#191970" stroke="#191970" points="343.7523,-184.8644 334.0149,-189.0396 344.2307,-191.848 343.7523,-184.8644"/>
</g>
<!-- Node298699&#45;&gt;Node298660 -->
<g id="edge77" class="edge">
<title>Node298699&#45;&gt;Node298660</title>
<path fill="none" stroke="#191970" d="M327.2286,-455.6171C331.639,-457.3885 335.9628,-459.354 340,-461.5223 494.7716,-544.6484 531.3861,-578.2437 647,-710.5223 688.6156,-758.1364 722.8281,-826.8974 734.6049,-851.9408"/>
<polygon fill="#191970" stroke="#191970" points="328.106,-452.2107 317.5124,-452.0462 325.6912,-458.7811 328.106,-452.2107"/>
</g>
<!-- Node298681&#45;&gt;Node298681 -->
<g id="edge79" class="edge">
<title>Node298681&#45;&gt;Node298681</title>
<path fill="none" stroke="#191970" d="M252.9941,-291.1762C254.1021,-296.4591 262.9374,-300.5223 279.5,-300.5223 304.7383,-300.5223 312.0337,-291.0875 301.3863,-282.2793"/>
<polygon fill="#191970" stroke="#191970" points="256.1117,-292.7672 257.6137,-282.2793 249.8992,-289.5414 256.1117,-292.7672"/>
</g>
<!-- Node298681&#45;&gt;Node298682 -->
<g id="edge80" class="edge">
<title>Node298681&#45;&gt;Node298682</title>
<path fill="none" stroke="#191970" d="M329.1041,-260.5543C351.1753,-255.2292 376.8027,-249.0461 397.5419,-244.0423"/>
<polygon fill="#191970" stroke="#191970" points="328.1441,-257.1854 319.2439,-262.9333 329.7859,-263.9902 328.1441,-257.1854"/>
</g>
<!-- Node298701&#45;&gt;Node298660 -->
<g id="edge99" class="edge">
<title>Node298701&#45;&gt;Node298660</title>
<path fill="none" stroke="#191970" d="M141.9773,-595.2696C150.6294,-628.5184 172.9924,-695.2031 219,-727.5223 297.6661,-782.7832 558.517,-752.934 647,-790.5223 681.5392,-805.1948 714.4548,-836.0267 729.8731,-851.7909"/>
<polygon fill="#191970" stroke="#191970" points="145.3322,-594.2544 139.5544,-585.3737 138.533,-595.9192 145.3322,-594.2544"/>
</g>
<!-- Node298701&#45;&gt;Node298662 -->
<g id="edge105" class="edge">
<title>Node298701&#45;&gt;Node298662</title>
<path fill="none" stroke="#191970" d="M144.1303,-556.4109C155.5552,-525.5955 181.4023,-464.2718 219,-423.5223 262.3876,-376.4974 295.32,-391.321 340,-345.5223 361.4508,-323.5344 351.4264,-304.9544 376,-286.5223 420.935,-252.8175 444.6777,-271.1826 498,-253.5223 607.2941,-217.3241 623.8674,-158.5223 739,-158.5223 739,-158.5223 739,-158.5223 1043,-158.5223 1164.5224,-158.5223 1282.8566,-601.1663 1305.2253,-689.3492"/>
<polygon fill="#191970" stroke="#191970" points="140.7887,-555.3603 140.695,-565.9547 147.375,-557.731 140.7887,-555.3603"/>
</g>
<!-- Node298701&#45;&gt;Node298676 -->
<g id="edge97" class="edge">
<title>Node298701&#45;&gt;Node298676</title>
<path fill="none" stroke="#191970" d="M151.9182,-593.0953C166.8125,-609.8994 191.6792,-634.417 219,-646.5223 454.6797,-750.9468 576.7197,-577.3979 795,-714.5223 845.1985,-746.0572 873.3385,-815.473 883.7717,-846.2793"/>
<polygon fill="#191970" stroke="#191970" points="154.2444,-590.4311 145.0783,-585.1175 148.9302,-594.9874 154.2444,-590.4311"/>
</g>
<!-- Node298701&#45;&gt;Node298664 -->
<g id="edge104" class="edge">
<title>Node298701&#45;&gt;Node298664</title>
<path fill="none" stroke="#191970" d="M178.5365,-571.8C230.2564,-566.3774 315.3841,-554.7946 340,-535.5223 369.7457,-512.2338 347.8151,-483.6772 376,-458.5223 451.0255,-391.5625 489.9393,-386.5223 590.5,-386.5223 590.5,-386.5223 590.5,-386.5223 739,-386.5223 867.0459,-386.5223 996.4444,-495.7375 1032.8987,-529.014"/>
<polygon fill="#191970" stroke="#191970" points="177.9488,-568.3415 168.3534,-572.8335 178.6557,-575.3058 177.9488,-568.3415"/>
</g>
<!-- Node298701&#45;&gt;Node298667 -->
<g id="edge106" class="edge">
<title>Node298701&#45;&gt;Node298667</title>
<path fill="none" stroke="#191970" d="M163.4728,-589.9562C179.1209,-598.0559 199.6967,-607.6788 219,-613.5223 533.6952,-708.7861 722.2114,-509.6345 946,-750.5223 1001.4028,-810.1583 1035.5511,-1082.2831 1041.916,-1136.9433"/>
<polygon fill="#191970" stroke="#191970" points="164.8964,-586.7495 154.4219,-585.1572 161.6172,-592.934 164.8964,-586.7495"/>
</g>
<!-- Node298701&#45;&gt;Node298684 -->
<g id="edge102" class="edge">
<title>Node298701&#45;&gt;Node298684</title>
<path fill="none" stroke="#191970" d="M145.0562,-595.07C158.5143,-629.2884 188.1328,-701.9719 219,-760.5223 266.566,-850.7477 296.4963,-863.2694 340,-955.5223 389.1286,-1059.7032 425.1884,-1195.6714 434.5857,-1232.7984"/>
<polygon fill="#191970" stroke="#191970" points="148.17,-593.4214 141.2735,-585.3784 141.6491,-595.9666 148.17,-593.4214"/>
</g>
<!-- Node298701&#45;&gt;Node298691 -->
<g id="edge88" class="edge">
<title>Node298701&#45;&gt;Node298691</title>
<path fill="none" stroke="#191970" d="M147.1507,-594.1658C160.3955,-618.1007 186.3267,-659.518 219,-684.5223 226.9865,-690.6342 236.7322,-695.3971 246.0486,-699.0104"/>
<polygon fill="#191970" stroke="#191970" points="150.084,-592.2302 142.2684,-585.0771 143.9174,-595.5429 150.084,-592.2302"/>
</g>
<!-- Node298701&#45;&gt;Node298692 -->
<g id="edge89" class="edge">
<title>Node298701&#45;&gt;Node298692</title>
<path fill="none" stroke="#191970" d="M153.9529,-558.1497C169.5273,-542.4862 194.1624,-519.6532 219,-504.5223 228.4571,-498.7611 239.5396,-493.8937 249.6171,-490.0801"/>
<polygon fill="#191970" stroke="#191970" points="151.1559,-556.0048 146.6814,-565.6084 156.1682,-560.8913 151.1559,-556.0048"/>
</g>
<!-- Node298701&#45;&gt;Node298695 -->
<g id="edge103" class="edge">
<title>Node298701&#45;&gt;Node298695</title>
<path fill="none" stroke="#191970" d="M178.2483,-580.9745C199.9884,-583.8834 226.3829,-587.4151 246.7719,-590.1432"/>
<polygon fill="#191970" stroke="#191970" points="178.6878,-577.5022 168.3119,-579.645 177.7594,-584.4404 178.6878,-577.5022"/>
</g>
<!-- Node298701&#45;&gt;Node298698 -->
<g id="edge96" class="edge">
<title>Node298701&#45;&gt;Node298698</title>
<path fill="none" stroke="#191970" d="M138.6747,-555.8231C142.5793,-503.1947 158.5486,-356.3334 219,-253.5223 230.7031,-233.6185 251.4101,-216.3289 265.2947,-206.1605"/>
<polygon fill="#191970" stroke="#191970" points="135.1807,-555.6177 137.9973,-565.8313 142.1647,-556.0905 135.1807,-555.6177"/>
</g>
<!-- Node298701&#45;&gt;Node298699 -->
<g id="edge98" class="edge">
<title>Node298701&#45;&gt;Node298699</title>
<path fill="none" stroke="#191970" d="M146.1047,-556.7285C158.6188,-531.4454 184.2005,-486.7469 219,-461.5223 224.3483,-457.6455 230.5129,-454.5423 236.8175,-452.063"/>
<polygon fill="#191970" stroke="#191970" points="142.8414,-555.4398 141.6864,-565.9715 149.157,-558.4587 142.8414,-555.4398"/>
</g>
<!-- Node298701&#45;&gt;Node298681 -->
<g id="edge100" class="edge">
<title>Node298701&#45;&gt;Node298681</title>
<path fill="none" stroke="#191970" d="M139.2821,-555.8245C144.3347,-509.5068 162.2811,-391.7744 219,-314.5223 229.3671,-300.4021 245.9649,-289.3664 259.1555,-282.1578"/>
<polygon fill="#191970" stroke="#191970" points="135.7777,-555.6934 138.2596,-565.9935 142.7426,-556.3938 135.7777,-555.6934"/>
</g>
<!-- Node298701&#45;&gt;Node298682 -->
<g id="edge101" class="edge">
<title>Node298701&#45;&gt;Node298682</title>
<path fill="none" stroke="#191970" d="M139.1431,-555.9957C143.7744,-513.1921 160.6809,-410.3225 219,-352.5223 259.5364,-312.3466 294.5238,-344.007 340,-309.5223 362.1075,-292.7581 354.1754,-275.6531 376,-258.5223 383.7883,-252.409 393.3281,-247.679 402.5294,-244.0981"/>
<polygon fill="#191970" stroke="#191970" points="135.6589,-555.6649 138.1748,-565.9566 142.626,-556.3422 135.6589,-555.6649"/>
</g>
<!-- Node298701&#45;&gt;Node298702 -->
<g id="edge90" class="edge">
<title>Node298701&#45;&gt;Node298702</title>
<path fill="none" stroke="#191970" d="M141.007,-595.2825C151.7385,-655.3314 185.4458,-840.8832 219,-993.5223 239.3797,-1086.2303 268.2008,-1197.4362 276.9098,-1230.6789"/>
<polygon fill="#191970" stroke="#191970" points="144.4245,-594.5096 139.2246,-585.2786 137.533,-595.7375 144.4245,-594.5096"/>
</g>
<!-- Node298701&#45;&gt;Node298703 -->
<g id="edge93" class="edge">
<title>Node298701&#45;&gt;Node298703</title>
<path fill="none" stroke="#191970" d="M169.5629,-562.1665C184.5256,-556.0299 202.6118,-548.7487 219,-542.5223 272.3517,-522.252 300.9811,-541.1733 340,-499.5223 380.1099,-456.7067 333.6899,-413.165 376,-372.5223 420.1476,-330.1145 601.3717,-316.4591 689.8891,-312.2702"/>
<polygon fill="#191970" stroke="#191970" points="168.1434,-558.9658 160.2306,-566.0112 170.8099,-565.4381 168.1434,-558.9658"/>
</g>
<!-- Node298702&#45;&gt;Node298677 -->
<g id="edge92" class="edge">
<title>Node298702&#45;&gt;Node298677</title>
<path fill="none" stroke="#191970" d="M304.3173,-1255.4334C380.1512,-1300.2469 616.7083,-1434.5038 831,-1497.5223 891.052,-1515.1823 963.8962,-1522.1582 1006.6765,-1524.8638"/>
<polygon fill="#191970" stroke="#191970" points="305.8686,-1252.2841 295.4834,-1250.1869 302.2941,-1258.3026 305.8686,-1252.2841"/>
</g>
<!-- Node298702&#45;&gt;Node298684 -->
<g id="edge91" class="edge">
<title>Node298702&#45;&gt;Node298684</title>
<path fill="none" stroke="#191970" d="M320.4474,-1241.0422C339.0633,-1241.2786 361.3742,-1241.5619 381.4697,-1241.8171"/>
<polygon fill="#191970" stroke="#191970" points="320.2851,-1237.54 310.2415,-1240.9126 320.1962,-1244.5394 320.2851,-1237.54"/>
</g>
<!-- Node298703&#45;&gt;Node298676 -->
<g id="edge94" class="edge">
<title>Node298703&#45;&gt;Node298676</title>
<path fill="none" stroke="#191970" d="M747.7025,-329.1642C759.6645,-355.3548 781.2634,-404.747 795,-448.5223 842.7636,-600.7337 876.7347,-791.6484 885.9767,-846.2851"/>
<polygon fill="#191970" stroke="#191970" points="750.8554,-327.6433 743.4892,-320.0282 744.4988,-330.5749 750.8554,-327.6433"/>
</g>
<!-- Node298703&#45;&gt;Node298664 -->
<g id="edge95" class="edge">
<title>Node298703&#45;&gt;Node298664</title>
<path fill="none" stroke="#191970" d="M798.1402,-316.4552C842.7431,-323.5266 903.3252,-338.9559 946,-372.5223 1001.3573,-416.0642 1031.3572,-500.5999 1040.1935,-528.974"/>
<polygon fill="#191970" stroke="#191970" points="798.4303,-312.96 788.0241,-314.9503 797.4002,-319.8838 798.4303,-312.96"/>
</g>
<!-- Node298704&#45;&gt;Node298659 -->
<g id="edge108" class="edge">
<title>Node298704&#45;&gt;Node298659</title>
<path fill="none" stroke="#191970" d="M193.5869,-955.4622C234.2354,-955.4333 290.5184,-955.4235 340,-955.5223 410.4535,-955.6629 492.0525,-956.026 542.4777,-956.2737"/>
<polygon fill="#191970" stroke="#191970" points="193.3392,-951.9623 183.342,-955.4701 193.3447,-958.9623 193.3392,-951.9623"/>
</g>
<!-- Node298704&#45;&gt;Node298660 -->
<g id="edge109" class="edge">
<title>Node298704&#45;&gt;Node298660</title>
<path fill="none" stroke="#191970" d="M179.7909,-943.1436C251.768,-922.7299 403.0268,-882.6598 534,-866.5223 583.9971,-860.362 641.3546,-859.4841 682.661,-859.9312"/>
<polygon fill="#191970" stroke="#191970" points="178.4135,-939.8969 169.7584,-946.0076 180.3351,-946.628 178.4135,-939.8969"/>
</g>
<!-- Node298704&#45;&gt;Node298679 -->
<g id="edge110" class="edge">
<title>Node298704&#45;&gt;Node298679</title>
<path fill="none" stroke="#191970" d="M193.5068,-963.0162C207.9046,-964.9426 223.1643,-966.9844 236.769,-968.8047"/>
<polygon fill="#191970" stroke="#191970" points="193.5872,-959.4958 183.2113,-961.6386 192.6588,-966.434 193.5872,-959.4958"/>
</g>
</g>
</svg>
