<?xml version="1.0" encoding="UTF-8" standalone="no"?>
<!DOCTYPE svg PUBLIC "-//W3C//DTD SVG 1.1//EN"
 "http://www.w3.org/Graphics/SVG/1.1/DTD/svg11.dtd">
<!-- Generated by graphviz version 2.40.1 (20161225.0304)
 -->
<!-- Title: add_gc_object Pages: 1 -->
<!--zoomable 617 -->
<svg id="main" version="1.1" xmlns="http://www.w3.org/2000/svg" xmlns:xlink="http://www.w3.org/1999/xlink" xml:space="preserve" onload="init(evt)">
<style type="text/css"><![CDATA[
.edge:hover path { stroke: red; }
.edge:hover polygon { stroke: red; fill: red; }
]]></style>
<script type="text/javascript"><![CDATA[
var edges = document.getElementsByTagName('g');
if (edges && edges.length) {
  for (var i=0;i<edges.length;i++) {
    if (edges[i].id.substr(0,4)=='edge') {
      edges[i].setAttribute('class','edge');
    }
  }
}
]]></script>
        <defs>
                <circle id="rim" cx="0" cy="0" r="7"/>
                <circle id="rim2" cx="0" cy="0" r="3.5"/>
                <g id="zoomPlus">
                        <use xlink:href="#rim" fill="#404040">
                                <set attributeName="fill" to="#808080" begin="zoomplus.mouseover" end="zoomplus.mouseout"/>
                        </use>
                        <path d="M-4,0h8M0,-4v8" fill="none" stroke="white" stroke-width="1.5" pointer-events="none"/>
                </g>
                <g id="zoomMin">
                        <use xlink:href="#rim" fill="#404040">
                                <set attributeName="fill" to="#808080" begin="zoomminus.mouseover" end="zoomminus.mouseout"/>
                        </use>
                        <path d="M-4,0h8" fill="none" stroke="white" stroke-width="1.5" pointer-events="none"/>
                </g>
                <g id="dirArrow">
                        <path fill="none" stroke="white" stroke-width="1.5" d="M0,-3.0v7 M-2.5,-0.5L0,-3.0L2.5,-0.5"/>
                </g>
               <g id="resetDef">
                       <use xlink:href="#rim2" fill="#404040">
                               <set attributeName="fill" to="#808080" begin="reset.mouseover" end="reset.mouseout"/>
                       </use>
               </g>
        </defs>

<script type="text/javascript">
var viewWidth = 1075;
var viewHeight = 617;
var sectionId = 'dynsection-122';
</script>
<script xlink:href="svgpan.js"/>
<svg id="graph" class="graph">
<g id="viewport">
<title>add_gc_object</title>
<!-- Node45625 -->
<g id="node1" class="node">
<title>Node45625</title>
<polygon fill="#bfbfbf" stroke="#000000" points="0,-207.5 0,-226.5 80,-226.5 80,-207.5 0,-207.5"/>
<text text-anchor="middle" x="40" y="-214.5" font-family="Helvetica,sans-Serif" font-size="10.00" fill="#000000">add_gc_object</text>
</g>
<!-- Node45626 -->
<g id="node2" class="node">
<title>Node45626</title>
<g id="a_node2"><a xlink:href="quickjs_8c.html#a344894112559c2ba75043fd10bcfa02f" target="_top" xlink:title="close_lexical_var">
<polygon fill="none" stroke="#000000" points="286,-589.5 286,-608.5 378,-608.5 378,-589.5 286,-589.5"/>
<text text-anchor="middle" x="332" y="-596.5" font-family="Helvetica,sans-Serif" font-size="10.00" fill="#000000">close_lexical_var</text>
</a>
</g>
</g>
<!-- Node45625&#45;&gt;Node45626 -->
<g id="edge1" class="edge">
<title>Node45625&#45;&gt;Node45626</title>
<path fill="none" stroke="#191970" d="M40.8677,-236.5829C43.8773,-283.6167 57.2253,-404.7667 116,-482 161.5849,-541.9011 246.9871,-574.8196 295.6338,-589.4883"/>
<polygon fill="#191970" stroke="#191970" points="44.3585,-236.3191 40.3144,-226.5265 37.3691,-236.7037 44.3585,-236.3191"/>
</g>
<!-- Node46212 -->
<g id="node8" class="node">
<title>Node46212</title>
<g id="a_node8"><a xlink:href="quickjs_8c.html#a1782043fce951bd4f0d91c7796b31e24" target="_top" xlink:title="close_var_refs">
<polygon fill="none" stroke="#000000" points="134,-453.5 134,-472.5 214,-472.5 214,-453.5 134,-453.5"/>
<text text-anchor="middle" x="174" y="-460.5" font-family="Helvetica,sans-Serif" font-size="10.00" fill="#000000">close_var_refs</text>
</a>
</g>
</g>
<!-- Node45625&#45;&gt;Node46212 -->
<g id="edge11" class="edge">
<title>Node45625&#45;&gt;Node46212</title>
<path fill="none" stroke="#191970" d="M50.1049,-235.5508C76.8483,-284.6469 148.7919,-416.7224 168.7834,-453.4232"/>
<polygon fill="#191970" stroke="#191970" points="53.1101,-233.7509 45.253,-226.6435 46.9629,-237.0994 53.1101,-233.7509"/>
</g>
<!-- Node45637 -->
<g id="node14" class="node">
<title>Node45637</title>
<g id="a_node14"><a xlink:href="quickjs_8c.html#a8029b29b8458274699fbcb7ce42a7100" target="_top" xlink:title="js_async_function_call">
<polygon fill="none" stroke="#ff0000" points="116,-302.5 116,-321.5 232,-321.5 232,-302.5 116,-302.5"/>
<text text-anchor="middle" x="174" y="-309.5" font-family="Helvetica,sans-Serif" font-size="10.00" fill="#000000">js_async_function_call</text>
</a>
</g>
</g>
<!-- Node45625&#45;&gt;Node45637 -->
<g id="edge18" class="edge">
<title>Node45625&#45;&gt;Node45637</title>
<path fill="none" stroke="#191970" d="M53.5139,-234.697C67.4556,-251.8338 90.6832,-277.4438 116,-293 122.139,-296.7721 129.1089,-299.8809 136.0352,-302.4126"/>
<polygon fill="#191970" stroke="#191970" points="56.0594,-232.2735 47.1079,-226.606 50.5713,-236.6188 56.0594,-232.2735"/>
</g>
<!-- Node46222 -->
<g id="node15" class="node">
<title>Node46222</title>
<g id="a_node15"><a xlink:href="quickjs_8c.html#a8e34657169da77ae6a386311351ed3de" target="_top" xlink:title="js_clone_shape">
<polygon fill="none" stroke="#000000" points="132,-264.5 132,-283.5 216,-283.5 216,-264.5 132,-264.5"/>
<text text-anchor="middle" x="174" y="-271.5" font-family="Helvetica,sans-Serif" font-size="10.00" fill="#000000">js_clone_shape</text>
</a>
</g>
</g>
<!-- Node45625&#45;&gt;Node46222 -->
<g id="edge19" class="edge">
<title>Node45625&#45;&gt;Node46222</title>
<path fill="none" stroke="#191970" d="M71.3602,-230.7619C85.0453,-236.7298 101.2935,-243.765 116,-250 127.3373,-254.8066 139.9666,-260.046 150.5383,-264.3997"/>
<polygon fill="#191970" stroke="#191970" points="72.4718,-227.4281 61.907,-226.6316 69.6692,-233.8426 72.4718,-227.4281"/>
</g>
<!-- Node46230 -->
<g id="node19" class="node">
<title>Node46230</title>
<g id="a_node19"><a xlink:href="quickjs_8c.html#a030c2e98b1775a7e3bdd13be1400b1fe" target="_top" xlink:title="JS_NewObjectFromShape">
<polygon fill="none" stroke="#ff0000" points="436,-185.5 436,-204.5 569,-204.5 569,-185.5 436,-185.5"/>
<text text-anchor="middle" x="502.5" y="-192.5" font-family="Helvetica,sans-Serif" font-size="10.00" fill="#000000">JS_NewObjectFromShape</text>
</a>
</g>
</g>
<!-- Node45625&#45;&gt;Node46230 -->
<g id="edge44" class="edge">
<title>Node45625&#45;&gt;Node46230</title>
<path fill="none" stroke="#191970" d="M90.2681,-214.6089C174.0685,-210.6227 342.3328,-202.6188 435.8956,-198.1682"/>
<polygon fill="#191970" stroke="#191970" points="90.0571,-211.1148 80.2348,-215.0861 90.3898,-218.1069 90.0571,-211.1148"/>
</g>
<!-- Node45769 -->
<g id="node24" class="node">
<title>Node45769</title>
<g id="a_node24"><a xlink:href="quickjs_8c.html#a442ff496ba00319ad39eb0a129b9eb8b" target="_top" xlink:title="JS_NewContextRaw">
<polygon fill="none" stroke="#ff0000" points="957,-101.5 957,-120.5 1066,-120.5 1066,-101.5 957,-101.5"/>
<text text-anchor="middle" x="1011.5" y="-108.5" font-family="Helvetica,sans-Serif" font-size="10.00" fill="#000000">JS_NewContextRaw</text>
</a>
</g>
</g>
<!-- Node45625&#45;&gt;Node45769 -->
<g id="edge43" class="edge">
<title>Node45625&#45;&gt;Node45769</title>
<path fill="none" stroke="#191970" d="M46.3973,-197.5677C56.4976,-170.2119 78.8983,-121.0113 116,-97 197.4203,-44.3069 235.0164,-66 332,-66 332,-66 332,-66 674.5,-66 780.7472,-66 904.192,-88.2473 968.1232,-101.4567"/>
<polygon fill="#191970" stroke="#191970" points="43.027,-196.6019 43.0197,-207.1968 49.6325,-198.919 43.027,-196.6019"/>
</g>
<!-- Node45957 -->
<g id="node26" class="node">
<title>Node45957</title>
<g id="a_node26"><a xlink:href="quickjs_8c.html#a97fcc747d8b1c3644174745d2e2739be" target="_top" xlink:title="js_create_function">
<polygon fill="none" stroke="#ff0000" points="126,-132.5 126,-151.5 222,-151.5 222,-132.5 126,-132.5"/>
<text text-anchor="middle" x="174" y="-139.5" font-family="Helvetica,sans-Serif" font-size="10.00" fill="#000000">js_create_function</text>
</a>
</g>
</g>
<!-- Node45625&#45;&gt;Node45957 -->
<g id="edge34" class="edge">
<title>Node45625&#45;&gt;Node45957</title>
<path fill="none" stroke="#191970" d="M66.0806,-202.4026C92.8819,-187.4019 133.8408,-164.4772 156.8224,-151.6144"/>
<polygon fill="#191970" stroke="#191970" points="64.2606,-199.4103 57.2438,-207.3486 67.6794,-205.5187 64.2606,-199.4103"/>
</g>
<!-- Node46253 -->
<g id="node27" class="node">
<title>Node46253</title>
<g id="a_node27"><a xlink:href="quickjs_8c.html#a66b74f17c8f724e92b6d7e3856e12b1e" target="_top" xlink:title="js_create_module_var">
<polygon fill="none" stroke="#000000" points="618.5,-195.5 618.5,-214.5 730.5,-214.5 730.5,-195.5 618.5,-195.5"/>
<text text-anchor="middle" x="674.5" y="-202.5" font-family="Helvetica,sans-Serif" font-size="10.00" fill="#000000">js_create_module_var</text>
</a>
</g>
</g>
<!-- Node45625&#45;&gt;Node46253 -->
<g id="edge36" class="edge">
<title>Node45625&#45;&gt;Node46253</title>
<path fill="none" stroke="#191970" d="M90.4393,-220.7847C98.9659,-221.2908 107.7318,-221.7283 116,-222 245.97,-226.2707 560.8221,-214.682 573,-214 587.7486,-213.174 603.6744,-211.9293 618.4405,-210.627"/>
<polygon fill="#191970" stroke="#191970" points="90.4072,-217.2759 80.2069,-220.14 89.967,-224.262 90.4072,-217.2759"/>
</g>
<!-- Node46254 -->
<g id="node28" class="node">
<title>Node46254</title>
<g id="a_node28"><a xlink:href="quickjs_8c.html#a1030d2020be7d911eb62869f21cc3b70" target="_top" xlink:title="js_new_shape2">
<polygon fill="none" stroke="#000000" points="290,-103.5 290,-122.5 374,-122.5 374,-103.5 290,-103.5"/>
<text text-anchor="middle" x="332" y="-110.5" font-family="Helvetica,sans-Serif" font-size="10.00" fill="#000000">js_new_shape2</text>
</a>
</g>
</g>
<!-- Node45625&#45;&gt;Node46254 -->
<g id="edge39" class="edge">
<title>Node45625&#45;&gt;Node46254</title>
<path fill="none" stroke="#191970" d="M49.0165,-198.0882C60.8725,-175.6335 84.0125,-139.1913 116,-123 170.9298,-95.1959 244.1273,-98.9118 289.6438,-105.1735"/>
<polygon fill="#191970" stroke="#191970" points="45.7498,-196.7931 44.3719,-207.2979 52,-199.9451 45.7498,-196.7931"/>
</g>
<!-- Node45833 -->
<g id="node30" class="node">
<title>Node45833</title>
<g id="a_node30"><a xlink:href="quickjs_8c.html#a4b8ef2bb3b35e4a5f6ed8bd837a50e7c" target="_top" xlink:title="JS_ReadObjectRec">
<polygon fill="none" stroke="#ff0000" points="122,-.5 122,-19.5 226,-19.5 226,-.5 122,-.5"/>
<text text-anchor="middle" x="174" y="-7.5" font-family="Helvetica,sans-Serif" font-size="10.00" fill="#000000">JS_ReadObjectRec</text>
</a>
</g>
</g>
<!-- Node45625&#45;&gt;Node45833 -->
<g id="edge45" class="edge">
<title>Node45625&#45;&gt;Node45833</title>
<path fill="none" stroke="#191970" d="M45.4466,-197.3663C55.2946,-164.5151 78.582,-97.5361 116,-52 127.1291,-38.4564 143.5936,-27.0908 156.1402,-19.6126"/>
<polygon fill="#191970" stroke="#191970" points="42.0423,-196.5395 42.6211,-207.1185 48.7658,-198.4875 42.0423,-196.5395"/>
</g>
<!-- Node45627 -->
<g id="node3" class="node">
<title>Node45627</title>
<g id="a_node3"><a xlink:href="quickjs_8c.html#ac2894ff4edcdb4e6841bcce9c76081e3" target="_top" xlink:title="JS_CallInternal">
<polygon fill="none" stroke="#000000" points="633,-425.5 633,-444.5 716,-444.5 716,-425.5 633,-425.5"/>
<text text-anchor="middle" x="674.5" y="-432.5" font-family="Helvetica,sans-Serif" font-size="10.00" fill="#000000">JS_CallInternal</text>
</a>
</g>
</g>
<!-- Node45626&#45;&gt;Node45627 -->
<g id="edge2" class="edge">
<title>Node45626&#45;&gt;Node45627</title>
<path fill="none" stroke="#191970" d="M388.715,-605.91C440.2228,-609.4077 516.5468,-607.4259 573,-575 627.1477,-543.8983 660.3113,-470.915 670.8439,-444.6397"/>
<polygon fill="#191970" stroke="#191970" points="388.6769,-602.3967 378.4374,-605.1172 388.1385,-609.376 388.6769,-602.3967"/>
</g>
<!-- Node45627&#45;&gt;Node45627 -->
<g id="edge10" class="edge">
<title>Node45627&#45;&gt;Node45627</title>
<path fill="none" stroke="#191970" d="M642.3144,-453.2746C643.232,-458.741 653.9606,-463 674.5,-463 705.0703,-463 713.907,-453.5653 701.0102,-444.7571"/>
<polygon fill="#191970" stroke="#191970" points="645.3574,-455.0197 647.9898,-444.7571 639.5321,-451.1381 645.3574,-455.0197"/>
</g>
<!-- Node45628 -->
<g id="node4" class="node">
<title>Node45628</title>
<g id="a_node4"><a xlink:href="quickjs_8c.html#ade71a22dc56e7371392393df663b28b3" target="_top" xlink:title="async_func_resume">
<polygon fill="none" stroke="#ff0000" points="796,-501.5 796,-520.5 900,-520.5 900,-501.5 796,-501.5"/>
<text text-anchor="middle" x="848" y="-508.5" font-family="Helvetica,sans-Serif" font-size="10.00" fill="#000000">async_func_resume</text>
</a>
</g>
</g>
<!-- Node45627&#45;&gt;Node45628 -->
<g id="edge3" class="edge">
<title>Node45627&#45;&gt;Node45628</title>
<path fill="none" stroke="#191970" d="M697.1425,-449.9289C717.1805,-462.5922 747.573,-480.4858 776,-492 784.9867,-495.64 794.8876,-498.778 804.3957,-501.3957"/>
<polygon fill="#191970" stroke="#191970" points="699.016,-446.9725 688.7088,-444.5204 695.2372,-452.8649 699.016,-446.9725"/>
</g>
<!-- Node45640 -->
<g id="node5" class="node">
<title>Node45640</title>
<g id="a_node5"><a xlink:href="quickjs_8c.html#a1a4c02a29525d5cb2085dd8bca3af350" target="_top" xlink:title="JS_Call">
<polygon fill="none" stroke="#ff0000" points="822.5,-463.5 822.5,-482.5 873.5,-482.5 873.5,-463.5 822.5,-463.5"/>
<text text-anchor="middle" x="848" y="-470.5" font-family="Helvetica,sans-Serif" font-size="10.00" fill="#000000">JS_Call</text>
</a>
</g>
</g>
<!-- Node45627&#45;&gt;Node45640 -->
<g id="edge4" class="edge">
<title>Node45627&#45;&gt;Node45640</title>
<path fill="none" stroke="#191970" d="M726.078,-440.0661C759.312,-446.3088 800.8371,-455.9177 825.8444,-463.4592"/>
<polygon fill="#191970" stroke="#191970" points="726.5226,-436.5896 716.0576,-438.2428 725.2694,-443.4765 726.5226,-436.5896"/>
</g>
<!-- Node45714 -->
<g id="node6" class="node">
<title>Node45714</title>
<g id="a_node6"><a xlink:href="quickjs_8c.html#ad35594576a14c10812efaf958c99af8a" target="_top" xlink:title="JS_CallConstructorInternal">
<polygon fill="none" stroke="#ff0000" points="781,-425.5 781,-444.5 915,-444.5 915,-425.5 781,-425.5"/>
<text text-anchor="middle" x="848" y="-432.5" font-family="Helvetica,sans-Serif" font-size="10.00" fill="#000000">JS_CallConstructorInternal</text>
</a>
</g>
</g>
<!-- Node45627&#45;&gt;Node45714 -->
<g id="edge6" class="edge">
<title>Node45627&#45;&gt;Node45714</title>
<path fill="none" stroke="#191970" d="M726.373,-428.7603C743.4365,-428.2337 762.6599,-428.1147 780.7002,-428.4031"/>
<polygon fill="#191970" stroke="#191970" points="725.9217,-425.2745 716.0576,-429.1408 726.1798,-432.2697 725.9217,-425.2745"/>
</g>
<!-- Node45728 -->
<g id="node7" class="node">
<title>Node45728</title>
<g id="a_node7"><a xlink:href="quickjs_8c.html#a75f6ee5e4235a7dc99889f3d2eb2c147" target="_top" xlink:title="JS_CallFree">
<polygon fill="none" stroke="#ff0000" points="812.5,-387.5 812.5,-406.5 883.5,-406.5 883.5,-387.5 812.5,-387.5"/>
<text text-anchor="middle" x="848" y="-394.5" font-family="Helvetica,sans-Serif" font-size="10.00" fill="#000000">JS_CallFree</text>
</a>
</g>
</g>
<!-- Node45627&#45;&gt;Node45728 -->
<g id="edge8" class="edge">
<title>Node45627&#45;&gt;Node45728</title>
<path fill="none" stroke="#191970" d="M706.763,-422.5438C736.6985,-414.2415 781.1785,-404.4344 812.1978,-399.2563"/>
<polygon fill="#191970" stroke="#191970" points="705.4664,-419.275 696.8269,-425.4076 707.4051,-426.0012 705.4664,-419.275"/>
</g>
<!-- Node45640&#45;&gt;Node45627 -->
<g id="edge5" class="edge">
<title>Node45640&#45;&gt;Node45627</title>
<path fill="none" stroke="#191970" d="M812.1978,-470.7437C777.5212,-464.9551 726.0226,-453.3816 696.8269,-444.5924"/>
<polygon fill="#191970" stroke="#191970" points="811.9537,-474.2482 822.3762,-472.3449 813.0416,-467.3333 811.9537,-474.2482"/>
</g>
<!-- Node45714&#45;&gt;Node45627 -->
<g id="edge7" class="edge">
<title>Node45714&#45;&gt;Node45627</title>
<path fill="none" stroke="#191970" d="M770.6447,-441.7147C751.8492,-441.8565 732.4584,-441.5713 716.0576,-440.8592"/>
<polygon fill="#191970" stroke="#191970" points="770.7419,-445.2139 780.7002,-441.5969 770.6598,-438.2144 770.7419,-445.2139"/>
</g>
<!-- Node45728&#45;&gt;Node45627 -->
<g id="edge9" class="edge">
<title>Node45728&#45;&gt;Node45627</title>
<path fill="none" stroke="#191970" d="M816.1118,-409.3521C787.9725,-417.1763 746.7719,-426.3638 716.0576,-431.7572"/>
<polygon fill="#191970" stroke="#191970" points="817.2085,-412.6785 825.8444,-406.5408 815.2658,-405.9534 817.2085,-412.6785"/>
</g>
<!-- Node46212&#45;&gt;Node45627 -->
<g id="edge12" class="edge">
<title>Node46212&#45;&gt;Node45627</title>
<path fill="none" stroke="#191970" d="M221.8512,-475.1468C225.2918,-476.0903 228.7027,-477.0469 232,-478 380.1371,-520.8204 431.3267,-602.8838 573,-542 620.5193,-521.5787 656.2431,-466.7645 669.1997,-444.5483"/>
<polygon fill="#191970" stroke="#191970" points="222.7124,-471.7541 212.1465,-472.537 220.8944,-478.514 222.7124,-471.7541"/>
</g>
<!-- Node46213 -->
<g id="node9" class="node">
<title>Node46213</title>
<g id="a_node9"><a xlink:href="quickjs_8c.html#ab3180b5caf3b66ac6db634e41e56a4ef" target="_top" xlink:title="async_func_free">
<polygon fill="none" stroke="#000000" points="287.5,-453.5 287.5,-472.5 376.5,-472.5 376.5,-453.5 287.5,-453.5"/>
<text text-anchor="middle" x="332" y="-460.5" font-family="Helvetica,sans-Serif" font-size="10.00" fill="#000000">async_func_free</text>
</a>
</g>
</g>
<!-- Node46212&#45;&gt;Node46213 -->
<g id="edge13" class="edge">
<title>Node46212&#45;&gt;Node46213</title>
<path fill="none" stroke="#191970" d="M224.5413,-463C244.7291,-463 267.7789,-463 287.3406,-463"/>
<polygon fill="#191970" stroke="#191970" points="224.2789,-459.5001 214.2789,-463 224.2789,-466.5001 224.2789,-459.5001"/>
</g>
<!-- Node46214 -->
<g id="node10" class="node">
<title>Node46214</title>
<g id="a_node10"><a xlink:href="quickjs_8c.html#a79e765cc00783901041f08e060c14287" target="_top" xlink:title="free_generator_stack_rt">
<polygon fill="none" stroke="#ff0000" points="443,-387.5 443,-406.5 562,-406.5 562,-387.5 443,-387.5"/>
<text text-anchor="middle" x="502.5" y="-394.5" font-family="Helvetica,sans-Serif" font-size="10.00" fill="#000000">free_generator_stack_rt</text>
</a>
</g>
</g>
<!-- Node46213&#45;&gt;Node46214 -->
<g id="edge14" class="edge">
<title>Node46213&#45;&gt;Node46214</title>
<path fill="none" stroke="#191970" d="M359.4973,-448.9505C379.318,-439.1716 406.8891,-426.274 432,-417 442.5025,-413.1212 454.1151,-409.5458 464.8336,-406.5236"/>
<polygon fill="#191970" stroke="#191970" points="357.8208,-445.8755 350.4345,-453.4711 360.9454,-452.1395 357.8208,-445.8755"/>
</g>
<!-- Node46216 -->
<g id="node11" class="node">
<title>Node46216</title>
<g id="a_node11"><a xlink:href="quickjs_8c.html#a4b282353917b10409ca38b279b0b1dce" target="_top" xlink:title="js_async_function_terminate">
<polygon fill="none" stroke="#ff0000" points="432,-513.5 432,-532.5 573,-532.5 573,-513.5 432,-513.5"/>
<text text-anchor="middle" x="502.5" y="-520.5" font-family="Helvetica,sans-Serif" font-size="10.00" fill="#000000">js_async_function_terminate</text>
</a>
</g>
</g>
<!-- Node46213&#45;&gt;Node46216 -->
<g id="edge15" class="edge">
<title>Node46213&#45;&gt;Node46216</title>
<path fill="none" stroke="#191970" d="M362.5,-476.6749C382.1146,-485.1763 408.2796,-495.9765 432,-504 442.0867,-507.4119 453.1444,-510.6303 463.45,-513.415"/>
<polygon fill="#191970" stroke="#191970" points="363.7269,-473.3914 353.1626,-472.5873 360.9196,-479.8039 363.7269,-473.3914"/>
</g>
<!-- Node46220 -->
<g id="node12" class="node">
<title>Node46220</title>
<g id="a_node12"><a xlink:href="quickjs_8c.html#a0cf9a02011216d38f2e96ca71f8f274f" target="_top" xlink:title="js_async_generator_free">
<polygon fill="none" stroke="#ff0000" points="441,-475.5 441,-494.5 564,-494.5 564,-475.5 441,-475.5"/>
<text text-anchor="middle" x="502.5" y="-482.5" font-family="Helvetica,sans-Serif" font-size="10.00" fill="#000000">js_async_generator_free</text>
</a>
</g>
</g>
<!-- Node46213&#45;&gt;Node46220 -->
<g id="edge16" class="edge">
<title>Node46213&#45;&gt;Node46220</title>
<path fill="none" stroke="#191970" d="M387.1675,-470.1184C404.2545,-472.3232 423.1909,-474.7666 440.697,-477.0254"/>
<polygon fill="#191970" stroke="#191970" points="387.1626,-466.5888 376.7969,-468.7802 386.2667,-473.5313 387.1626,-466.5888"/>
</g>
<!-- Node46221 -->
<g id="node13" class="node">
<title>Node46221</title>
<g id="a_node13"><a xlink:href="quickjs_8c.html#ad753838f0911b2c87c2117e0d424e916" target="_top" xlink:title="js_async_generator\l_complete">
<polygon fill="none" stroke="#ff0000" points="452,-426 452,-456 553,-456 553,-426 452,-426"/>
<text text-anchor="start" x="460" y="-444" font-family="Helvetica,sans-Serif" font-size="10.00" fill="#000000">js_async_generator</text>
<text text-anchor="middle" x="502.5" y="-433" font-family="Helvetica,sans-Serif" font-size="10.00" fill="#000000">_complete</text>
</a>
</g>
</g>
<!-- Node46213&#45;&gt;Node46221 -->
<g id="edge17" class="edge">
<title>Node46213&#45;&gt;Node46221</title>
<path fill="none" stroke="#191970" d="M386.8161,-455.927C407.7404,-453.227 431.4805,-450.1638 451.986,-447.5179"/>
<polygon fill="#191970" stroke="#191970" points="386.2667,-452.4687 376.7969,-457.2198 387.1626,-459.4112 386.2667,-452.4687"/>
</g>
<!-- Node46223 -->
<g id="node16" class="node">
<title>Node46223</title>
<g id="a_node16"><a xlink:href="quickjs_8c.html#a74547db03bf739a52c83a326b32db997" target="_top" xlink:title="add_property">
<polygon fill="none" stroke="#ff0000" points="295.5,-264.5 295.5,-283.5 368.5,-283.5 368.5,-264.5 295.5,-264.5"/>
<text text-anchor="middle" x="332" y="-271.5" font-family="Helvetica,sans-Serif" font-size="10.00" fill="#000000">add_property</text>
</a>
</g>
</g>
<!-- Node46222&#45;&gt;Node46223 -->
<g id="edge20" class="edge">
<title>Node46222&#45;&gt;Node46223</title>
<path fill="none" stroke="#191970" d="M226.4681,-274C249.0796,-274 274.972,-274 295.4508,-274"/>
<polygon fill="#191970" stroke="#191970" points="226.3411,-270.5001 216.3411,-274 226.3411,-277.5001 226.3411,-270.5001"/>
</g>
<!-- Node46250 -->
<g id="node25" class="node">
<title>Node46250</title>
<g id="a_node25"><a xlink:href="quickjs_8c.html#a3dd8e78607dbc729614deacf55901b95" target="_top" xlink:title="js_shape_prepare_update">
<polygon fill="none" stroke="#ff0000" points="268,-323.5 268,-342.5 396,-342.5 396,-323.5 268,-323.5"/>
<text text-anchor="middle" x="332" y="-330.5" font-family="Helvetica,sans-Serif" font-size="10.00" fill="#000000">js_shape_prepare_update</text>
</a>
</g>
</g>
<!-- Node46222&#45;&gt;Node46250 -->
<g id="edge32" class="edge">
<title>Node46222&#45;&gt;Node46250</title>
<path fill="none" stroke="#191970" d="M214.359,-286.8527C220.296,-288.8501 226.3219,-290.9367 232,-293 258.7128,-302.7067 288.9581,-314.9882 309.1237,-323.365"/>
<polygon fill="#191970" stroke="#191970" points="215.1216,-283.4184 204.5283,-283.5957 212.9201,-290.0632 215.1216,-283.4184"/>
</g>
<!-- Node46223&#45;&gt;Node45627 -->
<g id="edge24" class="edge">
<title>Node46223&#45;&gt;Node45627</title>
<path fill="none" stroke="#191970" d="M378.7428,-265.7662C429.9068,-259.2088 512.6786,-256.0063 573,-290 628.9495,-321.53 661.1957,-398.2227 671.1502,-425.3205"/>
<polygon fill="#191970" stroke="#191970" points="378.0648,-262.3264 368.6359,-267.1582 379.0199,-269.261 378.0648,-262.3264"/>
</g>
<!-- Node46224 -->
<g id="node17" class="node">
<title>Node46224</title>
<g id="a_node17"><a xlink:href="quickjs_8c.html#ac93c982cb636a5430b191d104083af3e" target="_top" xlink:title="convert_fast_array\l_to_array">
<polygon fill="none" stroke="#ff0000" points="453.5,-338 453.5,-368 551.5,-368 551.5,-338 453.5,-338"/>
<text text-anchor="start" x="461.5" y="-356" font-family="Helvetica,sans-Serif" font-size="10.00" fill="#000000">convert_fast_array</text>
<text text-anchor="middle" x="502.5" y="-345" font-family="Helvetica,sans-Serif" font-size="10.00" fill="#000000">_to_array</text>
</a>
</g>
</g>
<!-- Node46223&#45;&gt;Node46224 -->
<g id="edge21" class="edge">
<title>Node46223&#45;&gt;Node46224</title>
<path fill="none" stroke="#191970" d="M356.6309,-288.6868C376.5502,-300.2226 405.5362,-316.2469 432,-328 439.8332,-331.4789 448.3134,-334.8257 456.5862,-337.8772"/>
<polygon fill="#191970" stroke="#191970" points="358.2945,-285.6051 347.8953,-283.5785 354.7609,-291.6478 358.2945,-285.6051"/>
</g>
<!-- Node46226 -->
<g id="node18" class="node">
<title>Node46226</title>
<g id="a_node18"><a xlink:href="quickjs_8c.html#a6a21784a40b8684f2e779bd460dd13b2" target="_top" xlink:title="JS_AddBrand">
<polygon fill="none" stroke="#000000" points="464,-299.5 464,-318.5 541,-318.5 541,-299.5 464,-299.5"/>
<text text-anchor="middle" x="502.5" y="-306.5" font-family="Helvetica,sans-Serif" font-size="10.00" fill="#000000">JS_AddBrand</text>
</a>
</g>
</g>
<!-- Node46223&#45;&gt;Node46226 -->
<g id="edge22" class="edge">
<title>Node46223&#45;&gt;Node46226</title>
<path fill="none" stroke="#191970" d="M378.4981,-283.5451C405.2928,-289.0454 438.5757,-295.8777 463.9116,-301.0786"/>
<polygon fill="#191970" stroke="#191970" points="379.0761,-280.0908 368.5765,-281.5084 377.6684,-286.9478 379.0761,-280.0908"/>
</g>
<!-- Node46223&#45;&gt;Node46230 -->
<g id="edge25" class="edge">
<title>Node46223&#45;&gt;Node46230</title>
<path fill="none" stroke="#191970" d="M361.6612,-260.2567C396.0586,-244.3189 451.8643,-218.4617 481.8608,-204.563"/>
<polygon fill="#191970" stroke="#191970" points="360.1682,-257.0909 352.5663,-264.4708 363.1111,-263.4423 360.1682,-257.0909"/>
</g>
<!-- Node46226&#45;&gt;Node45627 -->
<g id="edge23" class="edge">
<title>Node46226&#45;&gt;Node45627</title>
<path fill="none" stroke="#191970" d="M551.0001,-319.0574C558.6522,-321.6755 566.2551,-324.9408 573,-329 616.4428,-355.1446 653.6784,-404.6944 668.1061,-425.4634"/>
<polygon fill="#191970" stroke="#191970" points="551.9294,-315.6813 541.3419,-316.0762 549.8648,-322.37 551.9294,-315.6813"/>
</g>
<!-- Node46231 -->
<g id="node20" class="node">
<title>Node46231</title>
<g id="a_node20"><a xlink:href="quickjs_8c.html#a73738c650f11459db0d7af3dcdf8316b" target="_top" xlink:title="JS_NewObjectProtoClass">
<polygon fill="none" stroke="#ff0000" points="609,-154.5 609,-173.5 740,-173.5 740,-154.5 609,-154.5"/>
<text text-anchor="middle" x="674.5" y="-161.5" font-family="Helvetica,sans-Serif" font-size="10.00" fill="#000000">JS_NewObjectProtoClass</text>
</a>
</g>
</g>
<!-- Node46230&#45;&gt;Node46231 -->
<g id="edge26" class="edge">
<title>Node46230&#45;&gt;Node46231</title>
<path fill="none" stroke="#191970" d="M565.5677,-183.6331C583.9966,-180.3117 603.9411,-176.717 621.6659,-173.5224"/>
<polygon fill="#191970" stroke="#191970" points="564.7297,-180.2277 555.5091,-185.446 565.9714,-187.1167 564.7297,-180.2277"/>
</g>
<!-- Node46245 -->
<g id="node21" class="node">
<title>Node46245</title>
<g id="a_node21"><a xlink:href="quickjs_8c.html#a2d91a9da16cf07ff3b9ec053b870c335" target="_top" xlink:title="js_create_module_function">
<polygon fill="none" stroke="#000000" points="781.5,-157.5 781.5,-176.5 914.5,-176.5 914.5,-157.5 781.5,-157.5"/>
<text text-anchor="middle" x="848" y="-164.5" font-family="Helvetica,sans-Serif" font-size="10.00" fill="#000000">js_create_module_function</text>
</a>
</g>
</g>
<!-- Node46231&#45;&gt;Node46245 -->
<g id="edge27" class="edge">
<title>Node46231&#45;&gt;Node46245</title>
<path fill="none" stroke="#191970" d="M750.3556,-165.3116C760.7108,-165.4907 771.2763,-165.6734 781.4495,-165.8493"/>
<polygon fill="#191970" stroke="#191970" points="750.152,-161.8077 740.0929,-165.1342 750.0309,-168.8066 750.152,-161.8077"/>
</g>
<!-- Node45768 -->
<g id="node23" class="node">
<title>Node45768</title>
<g id="a_node23"><a xlink:href="quickjs_8c.html#a7efb53c2f76fd5cc0e584449437ec09c" target="_top" xlink:title="JS_AddIntrinsicBasicObjects">
<polygon fill="none" stroke="#000000" points="776,-103.5 776,-122.5 920,-122.5 920,-103.5 776,-103.5"/>
<text text-anchor="middle" x="848" y="-110.5" font-family="Helvetica,sans-Serif" font-size="10.00" fill="#000000">JS_AddIntrinsicBasicObjects</text>
</a>
</g>
</g>
<!-- Node46231&#45;&gt;Node45768 -->
<g id="edge30" class="edge">
<title>Node46231&#45;&gt;Node45768</title>
<path fill="none" stroke="#191970" d="M717.0285,-151.4988C747.4167,-142.5663 787.6872,-130.7288 815.5123,-122.5497"/>
<polygon fill="#191970" stroke="#191970" points="715.741,-148.2291 707.134,-154.4073 717.7152,-154.945 715.741,-148.2291"/>
</g>
<!-- Node46167 -->
<g id="node22" class="node">
<title>Node46167</title>
<g id="a_node22"><a xlink:href="quickjs_8c.html#a89e4f0ec49cdd0029ab50c0509ccc445" target="_top" xlink:title="js_instantiate_module">
<polygon fill="none" stroke="#ff0000" points="956,-158.5 956,-177.5 1067,-177.5 1067,-158.5 956,-158.5"/>
<text text-anchor="middle" x="1011.5" y="-165.5" font-family="Helvetica,sans-Serif" font-size="10.00" fill="#000000">js_instantiate_module</text>
</a>
</g>
</g>
<!-- Node46245&#45;&gt;Node46167 -->
<g id="edge28" class="edge">
<title>Node46245&#45;&gt;Node46167</title>
<path fill="none" stroke="#191970" d="M924.5395,-167.4681C935.07,-167.5325 945.7162,-167.5977 955.7755,-167.6592"/>
<polygon fill="#191970" stroke="#191970" points="924.523,-163.9681 914.5017,-167.4067 924.4801,-170.9679 924.523,-163.9681"/>
</g>
<!-- Node46167&#45;&gt;Node46167 -->
<g id="edge29" class="edge">
<title>Node46167&#45;&gt;Node46167</title>
<path fill="none" stroke="#191970" d="M981.1856,-186.2746C982.0499,-191.741 992.1547,-196 1011.5,-196 1040.293,-196 1048.6159,-186.5653 1036.4689,-177.7571"/>
<polygon fill="#191970" stroke="#191970" points="984.1799,-188.0877 986.5311,-177.7571 978.2508,-184.3667 984.1799,-188.0877"/>
</g>
<!-- Node45768&#45;&gt;Node45769 -->
<g id="edge31" class="edge">
<title>Node45768&#45;&gt;Node45769</title>
<path fill="none" stroke="#191970" d="M930.3371,-111.9928C939.342,-111.8827 948.3375,-111.7726 956.8864,-111.6681"/>
<polygon fill="#191970" stroke="#191970" points="930.1458,-108.4948 920.1894,-112.1169 930.2315,-115.4943 930.1458,-108.4948"/>
</g>
<!-- Node46250&#45;&gt;Node46224 -->
<g id="edge33" class="edge">
<title>Node46250&#45;&gt;Node46224</title>
<path fill="none" stroke="#191970" d="M406.7425,-341.7674C422.534,-343.6198 438.814,-345.5295 453.3702,-347.237"/>
<polygon fill="#191970" stroke="#191970" points="406.7984,-338.2501 396.4587,-340.5611 405.9829,-345.2024 406.7984,-338.2501"/>
</g>
<!-- Node45957&#45;&gt;Node45957 -->
<g id="edge35" class="edge">
<title>Node45957&#45;&gt;Node45957</title>
<path fill="none" stroke="#191970" d="M149.0745,-161.0292C150.4341,-166.128 158.7426,-170 174,-170 197.8164,-170 204.7008,-160.5653 194.6533,-151.7571"/>
<polygon fill="#191970" stroke="#191970" points="152.3407,-162.304 153.3467,-151.7571 145.9831,-159.3747 152.3407,-162.304"/>
</g>
<!-- Node46253&#45;&gt;Node46245 -->
<g id="edge37" class="edge">
<title>Node46253&#45;&gt;Node46245</title>
<path fill="none" stroke="#191970" d="M728.1598,-193.2474C752.6927,-187.8742 781.3787,-181.5914 804.5335,-176.5201"/>
<polygon fill="#191970" stroke="#191970" points="727.301,-189.8525 718.2814,-195.411 728.7987,-196.6904 727.301,-189.8525"/>
</g>
<!-- Node46253&#45;&gt;Node46167 -->
<g id="edge38" class="edge">
<title>Node46253&#45;&gt;Node46167</title>
<path fill="none" stroke="#191970" d="M741.0211,-201.9612C790.5358,-199.188 859.6968,-194.2362 920,-186 935.8805,-183.831 953.1624,-180.6477 968.3869,-177.5589"/>
<polygon fill="#191970" stroke="#191970" points="740.5583,-198.4811 730.7636,-202.5203 740.9393,-205.4707 740.5583,-198.4811"/>
</g>
<!-- Node46254&#45;&gt;Node45768 -->
<g id="edge42" class="edge">
<title>Node46254&#45;&gt;Node45768</title>
<path fill="none" stroke="#191970" d="M384.5029,-113C477.349,-113 670.6237,-113 775.8875,-113"/>
<polygon fill="#191970" stroke="#191970" points="384.2265,-109.5001 374.2264,-113 384.2264,-116.5001 384.2265,-109.5001"/>
</g>
<!-- Node46255 -->
<g id="node29" class="node">
<title>Node46255</title>
<g id="a_node29"><a xlink:href="quickjs_8c.html#ad6926e49955be5e10423f6df8d8cff3e" target="_top" xlink:title="js_new_shape">
<polygon fill="none" stroke="#000000" points="463,-145.5 463,-164.5 542,-164.5 542,-145.5 463,-145.5"/>
<text text-anchor="middle" x="502.5" y="-152.5" font-family="Helvetica,sans-Serif" font-size="10.00" fill="#000000">js_new_shape</text>
</a>
</g>
</g>
<!-- Node46254&#45;&gt;Node46255 -->
<g id="edge40" class="edge">
<title>Node46254&#45;&gt;Node46255</title>
<path fill="none" stroke="#191970" d="M380.4778,-124.9417C406.8316,-131.4336 438.9853,-139.3542 463.6693,-145.4347"/>
<polygon fill="#191970" stroke="#191970" points="381.236,-121.524 370.6891,-122.5305 379.5617,-128.3208 381.236,-121.524"/>
</g>
<!-- Node46255&#45;&gt;Node46231 -->
<g id="edge41" class="edge">
<title>Node46255&#45;&gt;Node46231</title>
<path fill="none" stroke="#191970" d="M552.4555,-157.614C570.0797,-158.5361 590.1697,-159.5874 608.8914,-160.567"/>
<polygon fill="#191970" stroke="#191970" points="552.5618,-154.1148 542.3926,-157.0874 552.196,-161.1053 552.5618,-154.1148"/>
</g>
<!-- Node45833&#45;&gt;Node45833 -->
<g id="edge46" class="edge">
<title>Node45833&#45;&gt;Node45833</title>
<path fill="none" stroke="#191970" d="M149.0745,-29.0292C150.4341,-34.128 158.7426,-38 174,-38 197.8164,-38 204.7008,-28.5653 194.6533,-19.7571"/>
<polygon fill="#191970" stroke="#191970" points="152.3407,-30.304 153.3467,-19.7571 145.9831,-27.3747 152.3407,-30.304"/>
</g>
</g>
</svg>
        <g id="navigator" transform="translate(0 0)" fill="#404254">
                <rect fill="#f2f5e9" fill-opacity="0.5" stroke="#606060" stroke-width=".5" x="0" y="0" width="60" height="60"/>
                <use id="zoomplus" xlink:href="#zoomPlus" x="17" y="9" onmousedown="handleZoom(evt,'in')"/>
                <use id="zoomminus" xlink:href="#zoomMin" x="42" y="9" onmousedown="handleZoom(evt,'out')"/>
                <use id="reset" xlink:href="#resetDef" x="30" y="36" onmousedown="handleReset()"/>
                <g id="arrowUp" xlink:href="#dirArrow" transform="translate(30 24)" onmousedown="handlePan(0,-1)">
                  <use xlink:href="#rim" fill="#404040">
                        <set attributeName="fill" to="#808080" begin="arrowUp.mouseover" end="arrowUp.mouseout"/>
                  </use>
                  <path fill="none" stroke="white" stroke-width="1.5" d="M0,-3.0v7 M-2.5,-0.5L0,-3.0L2.5,-0.5"/>
                </g>
                <g id="arrowRight" xlink:href="#dirArrow" transform="rotate(90) translate(36 -43)" onmousedown="handlePan(1,0)">
                  <use xlink:href="#rim" fill="#404040">
                        <set attributeName="fill" to="#808080" begin="arrowRight.mouseover" end="arrowRight.mouseout"/>
                  </use>
                  <path fill="none" stroke="white" stroke-width="1.5" d="M0,-3.0v7 M-2.5,-0.5L0,-3.0L2.5,-0.5"/>
                </g>
                <g id="arrowDown" xlink:href="#dirArrow" transform="rotate(180) translate(-30 -48)" onmousedown="handlePan(0,1)">
                  <use xlink:href="#rim" fill="#404040">
                        <set attributeName="fill" to="#808080" begin="arrowDown.mouseover" end="arrowDown.mouseout"/>
                  </use>
                  <path fill="none" stroke="white" stroke-width="1.5" d="M0,-3.0v7 M-2.5,-0.5L0,-3.0L2.5,-0.5"/>
                </g>
                <g id="arrowLeft" xlink:href="#dirArrow" transform="rotate(270) translate(-36 17)" onmousedown="handlePan(-1,0)">
                  <use xlink:href="#rim" fill="#404040">
                        <set attributeName="fill" to="#808080" begin="arrowLeft.mouseover" end="arrowLeft.mouseout"/>
                  </use>
                  <path fill="none" stroke="white" stroke-width="1.5" d="M0,-3.0v7 M-2.5,-0.5L0,-3.0L2.5,-0.5"/>
                </g>
        </g>
        <svg viewBox="0 0 15 15" width="100%" height="30px" preserveAspectRatio="xMaxYMin meet">
         <g id="arrow_out" transform="scale(0.3 0.3)">
          <a xlink:href="quickjs_8c_a9780456a71703c53244b88831bc8fb7a_icgraph_org.svg" target="_base">
           <rect id="button" ry="5" rx="5" y="6" x="6" height="38" width="38"
                fill="#f2f5e9" fill-opacity="0.5" stroke="#606060" stroke-width="1.0"/>
           <path id="arrow"
             d="M 11.500037,31.436501 C 11.940474,20.09759 22.043105,11.32322 32.158766,21.979434 L 37.068811,17.246167 C 37.068811,17.246167 37.088388,32 37.088388,32 L 22.160133,31.978069 C 22.160133,31.978069 26.997745,27.140456 26.997745,27.140456 C 18.528582,18.264221 13.291696,25.230495 11.500037,31.436501 z"
             style="fill:#404040;"/>
          </a>
         </g>
        </svg>
</svg>
