<?xml version="1.0" encoding="UTF-8" standalone="no"?>
<!DOCTYPE svg PUBLIC "-//W3C//DTD SVG 1.1//EN"
 "http://www.w3.org/Graphics/SVG/1.1/DTD/svg11.dtd">
<!-- Generated by graphviz version 2.40.1 (20161225.0304)
 -->
<!-- Title: bc_get_u8 Pages: 1 -->
<svg width="476pt" height="84pt"
 viewBox="0.00 0.00 476.00 84.00" xmlns="http://www.w3.org/2000/svg" xmlns:xlink="http://www.w3.org/1999/xlink">
<g id="graph0" class="graph" transform="scale(1 1) rotate(0) translate(4 80)">
<title>bc_get_u8</title>
<!-- Node343595 -->
<g id="node1" class="node">
<title>Node343595</title>
<polygon fill="#bfbfbf" stroke="#000000" points="0,-28.5 0,-47.5 62,-47.5 62,-28.5 0,-28.5"/>
<text text-anchor="middle" x="31" y="-35.5" font-family="Helvetica,sans-Serif" font-size="10.00" fill="#000000">bc_get_u8</text>
</g>
<!-- Node343596 -->
<g id="node2" class="node">
<title>Node343596</title>
<g id="a_node2"><a xlink:href="quickjs_8c.html#ad54b242d774ba44b2ac39fe8161aaf9c" target="_top" xlink:title="JS_ReadObjectAtoms">
<polygon fill="none" stroke="#000000" points="98,-56.5 98,-75.5 212,-75.5 212,-56.5 98,-56.5"/>
<text text-anchor="middle" x="155" y="-63.5" font-family="Helvetica,sans-Serif" font-size="10.00" fill="#000000">JS_ReadObjectAtoms</text>
</a>
</g>
</g>
<!-- Node343595&#45;&gt;Node343596 -->
<g id="edge1" class="edge">
<title>Node343595&#45;&gt;Node343596</title>
<path fill="none" stroke="#191970" d="M72.3059,-47.3271C85.2183,-50.2428 99.4835,-53.464 112.478,-56.3983"/>
<polygon fill="#191970" stroke="#191970" points="72.8158,-43.8542 62.2904,-45.0656 71.2739,-50.6823 72.8158,-43.8542"/>
</g>
<!-- Node343599 -->
<g id="node5" class="node">
<title>Node343599</title>
<g id="a_node5"><a xlink:href="quickjs_8c.html#a4b8ef2bb3b35e4a5f6ed8bd837a50e7c" target="_top" xlink:title="JS_ReadObjectRec">
<polygon fill="none" stroke="#000000" points="103,-.5 103,-19.5 207,-19.5 207,-.5 103,-.5"/>
<text text-anchor="middle" x="155" y="-7.5" font-family="Helvetica,sans-Serif" font-size="10.00" fill="#000000">JS_ReadObjectRec</text>
</a>
</g>
</g>
<!-- Node343595&#45;&gt;Node343599 -->
<g id="edge4" class="edge">
<title>Node343595&#45;&gt;Node343599</title>
<path fill="none" stroke="#191970" d="M72.3059,-28.6729C85.2183,-25.7572 99.4835,-22.536 112.478,-19.6017"/>
<polygon fill="#191970" stroke="#191970" points="71.2739,-25.3177 62.2904,-30.9344 72.8158,-32.1458 71.2739,-25.3177"/>
</g>
<!-- Node343597 -->
<g id="node3" class="node">
<title>Node343597</title>
<g id="a_node3"><a xlink:href="quickjs_8c.html#a12be2ea9c010752715072489497594e9" target="_top" xlink:title="JS_ReadObject">
<polygon fill="none" stroke="#000000" points="248,-28.5 248,-47.5 334,-47.5 334,-28.5 248,-28.5"/>
<text text-anchor="middle" x="291" y="-35.5" font-family="Helvetica,sans-Serif" font-size="10.00" fill="#000000">JS_ReadObject</text>
</a>
</g>
</g>
<!-- Node343596&#45;&gt;Node343597 -->
<g id="edge2" class="edge">
<title>Node343596&#45;&gt;Node343597</title>
<path fill="none" stroke="#191970" d="M211.5117,-54.3652C223.7068,-51.8545 236.4095,-49.2392 247.9892,-46.8552"/>
<polygon fill="#191970" stroke="#191970" points="210.5119,-50.9976 201.4231,-56.4423 211.9235,-57.8538 210.5119,-50.9976"/>
</g>
<!-- Node343598 -->
<g id="node4" class="node">
<title>Node343598</title>
<g id="a_node4"><a xlink:href="quickjs-libc_8c.html#ab1b439d304c2125490b47ef262b5df67" target="_top" xlink:title="js_std_eval_binary">
<polygon fill="none" stroke="#000000" points="370,-28.5 370,-47.5 468,-47.5 468,-28.5 370,-28.5"/>
<text text-anchor="middle" x="419" y="-35.5" font-family="Helvetica,sans-Serif" font-size="10.00" fill="#000000">js_std_eval_binary</text>
</a>
</g>
</g>
<!-- Node343597&#45;&gt;Node343598 -->
<g id="edge3" class="edge">
<title>Node343597&#45;&gt;Node343598</title>
<path fill="none" stroke="#191970" d="M344.4794,-38C352.932,-38 361.6364,-38 369.9808,-38"/>
<polygon fill="#191970" stroke="#191970" points="344.335,-34.5001 334.335,-38 344.3349,-41.5001 344.335,-34.5001"/>
</g>
<!-- Node343599&#45;&gt;Node343597 -->
<g id="edge6" class="edge">
<title>Node343599&#45;&gt;Node343597</title>
<path fill="none" stroke="#191970" d="M211.5117,-21.6348C223.7068,-24.1455 236.4095,-26.7608 247.9892,-29.1448"/>
<polygon fill="#191970" stroke="#191970" points="211.9235,-18.1462 201.4231,-19.5577 210.5119,-25.0024 211.9235,-18.1462"/>
</g>
<!-- Node343599&#45;&gt;Node343599 -->
<g id="edge5" class="edge">
<title>Node343599&#45;&gt;Node343599</title>
<path fill="none" stroke="#191970" d="M131.9346,-29.0292C133.1928,-34.128 140.8812,-38 155,-38 177.0391,-38 183.4097,-28.5653 174.112,-19.7571"/>
<polygon fill="#191970" stroke="#191970" points="135.1854,-30.3286 135.888,-19.7571 128.7463,-27.5831 135.1854,-30.3286"/>
</g>
</g>
</svg>
