<?xml version="1.0" encoding="UTF-8" standalone="no"?>
<!DOCTYPE svg PUBLIC "-//W3C//DTD SVG 1.1//EN"
 "http://www.w3.org/Graphics/SVG/1.1/DTD/svg11.dtd">
<!-- Generated by graphviz version 2.40.1 (20161225.0304)
 -->
<!-- Title: mark_children Pages: 1 -->
<svg width="470pt" height="180pt"
 viewBox="0.00 0.00 470.00 180.00" xmlns="http://www.w3.org/2000/svg" xmlns:xlink="http://www.w3.org/1999/xlink">
<g id="graph0" class="graph" transform="scale(1 1) rotate(0) translate(4 176)">
<title>mark_children</title>
<!-- Node147093 -->
<g id="node1" class="node">
<title>Node147093</title>
<polygon fill="#bfbfbf" stroke="#000000" points="0,-76.5 0,-95.5 77,-95.5 77,-76.5 0,-76.5"/>
<text text-anchor="middle" x="38.5" y="-83.5" font-family="Helvetica,sans-Serif" font-size="10.00" fill="#000000">mark_children</text>
</g>
<!-- Node147094 -->
<g id="node2" class="node">
<title>Node147094</title>
<g id="a_node2"><a xlink:href="quickjs_8c.html#a440c98b7712cdebdd1669145e347aeee" target="_top" xlink:title="async_func_mark">
<polygon fill="none" stroke="#000000" points="245.5,-152.5 245.5,-171.5 339.5,-171.5 339.5,-152.5 245.5,-152.5"/>
<text text-anchor="middle" x="292.5" y="-159.5" font-family="Helvetica,sans-Serif" font-size="10.00" fill="#000000">async_func_mark</text>
</a>
</g>
</g>
<!-- Node147093&#45;&gt;Node147094 -->
<g id="edge1" class="edge">
<title>Node147093&#45;&gt;Node147094</title>
<path fill="none" stroke="#191970" d="M48.6619,-95.5239C62.1979,-107.6006 87.4235,-128.0461 113,-138 151.9344,-153.1525 198.8132,-159.041 234.8985,-161.2002"/>
<polygon fill="#191970" stroke="#191970" points="235.0836,-164.7144 245.2512,-161.7359 235.4454,-157.7237 235.0836,-164.7144"/>
</g>
<!-- Node147095 -->
<g id="node3" class="node">
<title>Node147095</title>
<g id="a_node3"><a xlink:href="quickjs_8c.html#ab05309c79261e2042dfebf3dc7f7d039" target="_top" xlink:title="JS_MarkValue">
<polygon fill="none" stroke="#000000" points="382,-90.5 382,-109.5 462,-109.5 462,-90.5 382,-90.5"/>
<text text-anchor="middle" x="422" y="-97.5" font-family="Helvetica,sans-Serif" font-size="10.00" fill="#000000">JS_MarkValue</text>
</a>
</g>
</g>
<!-- Node147093&#45;&gt;Node147095 -->
<g id="edge9" class="edge">
<title>Node147093&#45;&gt;Node147095</title>
<path fill="none" stroke="#191970" d="M68.6178,-95.5048C82.0526,-99.2689 98.1666,-103.1383 113,-105 203.583,-116.3689 310.263,-110.4157 371.6228,-105.1447"/>
<polygon fill="#191970" stroke="#191970" points="372.1541,-108.6114 381.8052,-104.2403 371.5347,-101.6389 372.1541,-108.6114"/>
</g>
<!-- Node147096 -->
<g id="node4" class="node">
<title>Node147096</title>
<g id="a_node4"><a xlink:href="quickjs_8c.html#a643df594b75933007bcdbb071b5ea8c5" target="_top" xlink:title="get_shape_prop">
<polygon fill="none" stroke="#000000" points="115,-76.5 115,-95.5 201,-95.5 201,-76.5 115,-76.5"/>
<text text-anchor="middle" x="158" y="-83.5" font-family="Helvetica,sans-Serif" font-size="10.00" fill="#000000">get_shape_prop</text>
</a>
</g>
</g>
<!-- Node147093&#45;&gt;Node147096 -->
<g id="edge3" class="edge">
<title>Node147093&#45;&gt;Node147096</title>
<path fill="none" stroke="#191970" d="M77.2982,-86C86.013,-86 95.4087,-86 104.6015,-86"/>
<polygon fill="#191970" stroke="#191970" points="104.8472,-89.5001 114.8472,-86 104.8472,-82.5001 104.8472,-89.5001"/>
</g>
<!-- Node147097 -->
<g id="node5" class="node">
<title>Node147097</title>
<g id="a_node5"><a xlink:href="quickjs_8c.html#a971043be2cd86b47e27c9217f78fb8cb" target="_top" xlink:title="js_autoinit_mark">
<polygon fill="none" stroke="#000000" points="114,-38.5 114,-57.5 202,-57.5 202,-38.5 114,-38.5"/>
<text text-anchor="middle" x="158" y="-45.5" font-family="Helvetica,sans-Serif" font-size="10.00" fill="#000000">js_autoinit_mark</text>
</a>
</g>
</g>
<!-- Node147093&#45;&gt;Node147097 -->
<g id="edge4" class="edge">
<title>Node147093&#45;&gt;Node147097</title>
<path fill="none" stroke="#191970" d="M68.6549,-76.411C83.6566,-71.6406 101.9883,-65.8112 118.1338,-60.6771"/>
<polygon fill="#191970" stroke="#191970" points="119.3856,-63.9518 127.8548,-57.5859 117.2643,-57.281 119.3856,-63.9518"/>
</g>
<!-- Node147098 -->
<g id="node6" class="node">
<title>Node147098</title>
<g id="a_node6"><a xlink:href="quickjs_8c.html#a7b4ca0877b507766c40c28209ecef13a" target="_top" xlink:title="JS_MarkContext">
<polygon fill="none" stroke="#000000" points="113,-.5 113,-19.5 203,-19.5 203,-.5 113,-.5"/>
<text text-anchor="middle" x="158" y="-7.5" font-family="Helvetica,sans-Serif" font-size="10.00" fill="#000000">JS_MarkContext</text>
</a>
</g>
</g>
<!-- Node147093&#45;&gt;Node147098 -->
<g id="edge5" class="edge">
<title>Node147093&#45;&gt;Node147098</title>
<path fill="none" stroke="#191970" d="M49.4764,-76.1614C63.475,-63.9649 88.7798,-43.0711 113,-29 116.1943,-27.1442 119.6045,-25.3699 123.0647,-23.7029"/>
<polygon fill="#191970" stroke="#191970" points="124.5574,-26.8692 132.2265,-19.5593 121.6727,-20.4912 124.5574,-26.8692"/>
</g>
<!-- Node147094&#45;&gt;Node147095 -->
<g id="edge2" class="edge">
<title>Node147094&#45;&gt;Node147095</title>
<path fill="none" stroke="#191970" d="M314.4601,-152.3976C324.1694,-148.0881 335.6974,-142.8839 346,-138 362.0293,-130.4014 379.7686,-121.5569 394.0748,-114.3136"/>
<polygon fill="#191970" stroke="#191970" points="396.0392,-117.2413 403.3674,-109.5897 392.867,-111.0013 396.0392,-117.2413"/>
</g>
<!-- Node147098&#45;&gt;Node147095 -->
<g id="edge8" class="edge">
<title>Node147098&#45;&gt;Node147095</title>
<path fill="none" stroke="#191970" d="M184.2134,-19.5503C200.0467,-25.2776 220.6477,-32.6569 239,-39 288.4737,-56.0997 345.7541,-75.0586 382.8649,-87.2318"/>
<polygon fill="#191970" stroke="#191970" points="382.1813,-90.6908 392.774,-90.4782 384.3607,-84.0387 382.1813,-90.6908"/>
</g>
<!-- Node147099 -->
<g id="node7" class="node">
<title>Node147099</title>
<g id="a_node7"><a xlink:href="quickjs_8c.html#ab9aacbe1f6b77d056f2964b11ebe5582" target="_top" xlink:title="js_mark_module_def">
<polygon fill="none" stroke="#000000" points="239,-10.5 239,-29.5 346,-29.5 346,-10.5 239,-10.5"/>
<text text-anchor="middle" x="292.5" y="-17.5" font-family="Helvetica,sans-Serif" font-size="10.00" fill="#000000">js_mark_module_def</text>
</a>
</g>
</g>
<!-- Node147098&#45;&gt;Node147099 -->
<g id="edge6" class="edge">
<title>Node147098&#45;&gt;Node147099</title>
<path fill="none" stroke="#191970" d="M203.1607,-13.3577C211.3885,-13.9694 220.1126,-14.618 228.759,-15.2609"/>
<polygon fill="#191970" stroke="#191970" points="228.6072,-18.7592 238.8392,-16.0104 229.1263,-11.7784 228.6072,-18.7592"/>
</g>
<!-- Node147099&#45;&gt;Node147095 -->
<g id="edge7" class="edge">
<title>Node147099&#45;&gt;Node147095</title>
<path fill="none" stroke="#191970" d="M308.1207,-29.6499C330.386,-43.4045 371.4532,-68.7742 397.7095,-84.9943"/>
<polygon fill="#191970" stroke="#191970" points="395.9768,-88.0379 406.3239,-90.3159 399.6558,-82.0826 395.9768,-88.0379"/>
</g>
</g>
</svg>
