<?xml version="1.0" encoding="UTF-8" standalone="no"?>
<!DOCTYPE svg PUBLIC "-//W3C//DTD SVG 1.1//EN"
 "http://www.w3.org/Graphics/SVG/1.1/DTD/svg11.dtd">
<!-- Generated by graphviz version 2.40.1 (20161225.0304)
 -->
<!-- Title: js_promise_resolve_function_call Pages: 1 -->
<!--zoomable 691 -->
<svg id="main" version="1.1" xmlns="http://www.w3.org/2000/svg" xmlns:xlink="http://www.w3.org/1999/xlink" xml:space="preserve" onload="init(evt)">
<style type="text/css"><![CDATA[
.edge:hover path { stroke: red; }
.edge:hover polygon { stroke: red; fill: red; }
]]></style>
<script type="text/javascript"><![CDATA[
var edges = document.getElementsByTagName('g');
if (edges && edges.length) {
  for (var i=0;i<edges.length;i++) {
    if (edges[i].id.substr(0,4)=='edge') {
      edges[i].setAttribute('class','edge');
    }
  }
}
]]></script>
        <defs>
                <circle id="rim" cx="0" cy="0" r="7"/>
                <circle id="rim2" cx="0" cy="0" r="3.5"/>
                <g id="zoomPlus">
                        <use xlink:href="#rim" fill="#404040">
                                <set attributeName="fill" to="#808080" begin="zoomplus.mouseover" end="zoomplus.mouseout"/>
                        </use>
                        <path d="M-4,0h8M0,-4v8" fill="none" stroke="white" stroke-width="1.5" pointer-events="none"/>
                </g>
                <g id="zoomMin">
                        <use xlink:href="#rim" fill="#404040">
                                <set attributeName="fill" to="#808080" begin="zoomminus.mouseover" end="zoomminus.mouseout"/>
                        </use>
                        <path d="M-4,0h8" fill="none" stroke="white" stroke-width="1.5" pointer-events="none"/>
                </g>
                <g id="dirArrow">
                        <path fill="none" stroke="white" stroke-width="1.5" d="M0,-3.0v7 M-2.5,-0.5L0,-3.0L2.5,-0.5"/>
                </g>
               <g id="resetDef">
                       <use xlink:href="#rim2" fill="#404040">
                               <set attributeName="fill" to="#808080" begin="reset.mouseover" end="reset.mouseout"/>
                       </use>
               </g>
        </defs>

<script type="text/javascript">
var viewWidth = 948;
var viewHeight = 691;
var sectionId = 'dynsection-1655';
</script>
<script xlink:href="svgpan.js"/>
<svg id="graph" class="graph">
<g id="viewport">
<title>js_promise_resolve_function_call</title>
<!-- Node432036 -->
<g id="node1" class="node">
<title>Node432036</title>
<polygon fill="#bfbfbf" stroke="#000000" points="0,-248.8461 0,-278.8461 101,-278.8461 101,-248.8461 0,-248.8461"/>
<text text-anchor="start" x="8" y="-266.8461" font-family="Helvetica,sans-Serif" font-size="10.00" fill="#000000">js_promise_resolve</text>
<text text-anchor="middle" x="50.5" y="-255.8461" font-family="Helvetica,sans-Serif" font-size="10.00" fill="#000000">_function_call</text>
</g>
<!-- Node432037 -->
<g id="node2" class="node">
<title>Node432037</title>
<g id="a_node2"><a xlink:href="quickjs_8c.html#abe904d9507d512959fb5570a59453e2e" target="_top" xlink:title="fulfill_or_reject_promise">
<polygon fill="none" stroke="#000000" points="274,-349.3461 274,-368.3461 393,-368.3461 393,-349.3461 274,-349.3461"/>
<text text-anchor="middle" x="333.5" y="-356.3461" font-family="Helvetica,sans-Serif" font-size="10.00" fill="#000000">fulfill_or_reject_promise</text>
</a>
</g>
</g>
<!-- Node432036&#45;&gt;Node432037 -->
<g id="edge1" class="edge">
<title>Node432036&#45;&gt;Node432037</title>
<path fill="none" stroke="#191970" d="M68.8645,-279.0613C85.5967,-292.1327 111.5167,-310.4652 137,-320.8461 177.3213,-337.2715 225.2474,-346.7215 263.6738,-352.0893"/>
<polygon fill="#191970" stroke="#191970" points="263.3603,-355.5785 273.7356,-353.4327 264.2867,-348.64 263.3603,-355.5785"/>
</g>
<!-- Node432038 -->
<g id="node3" class="node">
<title>Node432038</title>
<g id="a_node3"><a xlink:href="quickjs_8c.html#a39d815a00b3ec1aed21699396fb43869" target="_top" xlink:title="JS_EnqueueJob">
<polygon fill="none" stroke="#000000" points="143.5,-292.3461 143.5,-311.3461 231.5,-311.3461 231.5,-292.3461 143.5,-292.3461"/>
<text text-anchor="middle" x="187.5" y="-299.3461" font-family="Helvetica,sans-Serif" font-size="10.00" fill="#000000">JS_EnqueueJob</text>
</a>
</g>
</g>
<!-- Node432036&#45;&gt;Node432038 -->
<g id="edge2" class="edge">
<title>Node432036&#45;&gt;Node432038</title>
<path fill="none" stroke="#191970" d="M101.1245,-277.888C114.8518,-281.6955 129.6089,-285.7887 142.9729,-289.4955"/>
<polygon fill="#191970" stroke="#191970" points="142.309,-292.9435 152.8807,-292.2437 144.18,-286.1982 142.309,-292.9435"/>
</g>
<!-- Node432042 -->
<g id="node7" class="node">
<title>Node432042</title>
<g id="a_node7"><a xlink:href="quickjs_8h.html#afaa20c47565bc704c6c85f3d77254e7d" target="_top" xlink:title="JS_FreeValue">
<polygon fill="none" stroke="#000000" points="595,-387.3461 595,-406.3461 673,-406.3461 673,-387.3461 595,-387.3461"/>
<text text-anchor="middle" x="634" y="-394.3461" font-family="Helvetica,sans-Serif" font-size="10.00" fill="#000000">JS_FreeValue</text>
</a>
</g>
</g>
<!-- Node432036&#45;&gt;Node432042 -->
<g id="edge6" class="edge">
<title>Node432036&#45;&gt;Node432042</title>
<path fill="none" stroke="#191970" d="M55.7031,-279.3221C66.8837,-310.9976 95.5886,-384.475 137,-434.8461 241.5649,-562.0346 273.3095,-609.2627 429,-662.8461 481.9517,-681.0703 510.1178,-696.3362 555,-662.8461 595.5464,-632.5913 622.7372,-472.9341 631.195,-416.5706"/>
<polygon fill="#191970" stroke="#191970" points="634.6885,-416.8699 632.6746,-406.4683 627.7623,-415.8555 634.6885,-416.8699"/>
</g>
<!-- Node432076 -->
<g id="node10" class="node">
<title>Node432076</title>
<g id="a_node10"><a xlink:href="quickjs_8c.html#a8551eaac7ef616910807cebdc515760d" target="_top" xlink:title="JS_GetException">
<polygon fill="none" stroke="#000000" points="287,-216.3461 287,-235.3461 380,-235.3461 380,-216.3461 287,-216.3461"/>
<text text-anchor="middle" x="333.5" y="-223.3461" font-family="Helvetica,sans-Serif" font-size="10.00" fill="#000000">JS_GetException</text>
</a>
</g>
</g>
<!-- Node432036&#45;&gt;Node432076 -->
<g id="edge9" class="edge">
<title>Node432036&#45;&gt;Node432076</title>
<path fill="none" stroke="#191970" d="M101.1969,-260.0266C139.0169,-256.8578 191.8902,-251.7531 238,-244.8461 251.5888,-242.8106 266.1759,-240.1523 279.7575,-237.4718"/>
<polygon fill="#191970" stroke="#191970" points="280.8013,-240.832 289.9142,-235.4277 279.4202,-233.9696 280.8013,-240.832"/>
</g>
<!-- Node432077 -->
<g id="node11" class="node">
<title>Node432077</title>
<g id="a_node11"><a xlink:href="quickjs_8h.html#a89b7c8686c7eee70b86be722ee4730ad" target="_top" xlink:title="JS_GetProperty">
<polygon fill="none" stroke="#000000" points="144.5,-406.3461 144.5,-425.3461 230.5,-425.3461 230.5,-406.3461 144.5,-406.3461"/>
<text text-anchor="middle" x="187.5" y="-413.3461" font-family="Helvetica,sans-Serif" font-size="10.00" fill="#000000">JS_GetProperty</text>
</a>
</g>
</g>
<!-- Node432036&#45;&gt;Node432077 -->
<g id="edge10" class="edge">
<title>Node432036&#45;&gt;Node432077</title>
<path fill="none" stroke="#191970" d="M56.6498,-279.2709C68.3189,-306.6792 96.2082,-364.0609 137,-396.8461 139.1505,-398.5745 141.4746,-400.1567 143.9039,-401.6035"/>
<polygon fill="#191970" stroke="#191970" points="142.5415,-404.8376 153.0392,-406.2687 145.7252,-398.6035 142.5415,-404.8376"/>
</g>
<!-- Node432086 -->
<g id="node17" class="node">
<title>Node432086</title>
<g id="a_node17"><a xlink:href="quickjs_8h.html#ad80a83d73e9b7d872b88fbf2943aebe9" target="_top" xlink:title="JS_IsException">
<polygon fill="none" stroke="#000000" points="591,-36.3461 591,-55.3461 677,-55.3461 677,-36.3461 591,-36.3461"/>
<text text-anchor="middle" x="634" y="-43.3461" font-family="Helvetica,sans-Serif" font-size="10.00" fill="#000000">JS_IsException</text>
</a>
</g>
</g>
<!-- Node432036&#45;&gt;Node432086 -->
<g id="edge27" class="edge">
<title>Node432036&#45;&gt;Node432086</title>
<path fill="none" stroke="#191970" d="M53.8962,-248.8419C62.2988,-214.8556 87.0881,-131.1304 137,-81.8461 184.688,-34.7578 208.5785,-33.3888 274,-18.8461 395.9139,8.2543 431.9172,3.3209 555,-17.8461 571.5456,-20.6916 589.2237,-26.6594 603.6528,-32.3574"/>
<polygon fill="#191970" stroke="#191970" points="602.489,-35.6629 613.0693,-36.2173 605.144,-29.1859 602.489,-35.6629"/>
</g>
<!-- Node432247 -->
<g id="node24" class="node">
<title>Node432247</title>
<g id="a_node24"><a xlink:href="quickjs_8c.html#a1ca9cdb1fa2ffc3e6506e92b200e490f" target="_top" xlink:title="JS_IsFunction">
<polygon fill="none" stroke="#000000" points="147.5,-216.3461 147.5,-235.3461 227.5,-235.3461 227.5,-216.3461 147.5,-216.3461"/>
<text text-anchor="middle" x="187.5" y="-223.3461" font-family="Helvetica,sans-Serif" font-size="10.00" fill="#000000">JS_IsFunction</text>
</a>
</g>
</g>
<!-- Node432036&#45;&gt;Node432247 -->
<g id="edge28" class="edge">
<title>Node432036&#45;&gt;Node432247</title>
<path fill="none" stroke="#191970" d="M101.1245,-249.8043C114.8518,-245.9967 129.6089,-241.9035 142.9729,-238.1967"/>
<polygon fill="#191970" stroke="#191970" points="144.18,-241.4941 152.8807,-235.4486 142.309,-234.7488 144.18,-241.4941"/>
</g>
<!-- Node432326 -->
<g id="node25" class="node">
<title>Node432326</title>
<g id="a_node25"><a xlink:href="quickjs_8h.html#a3d68fe446df2d9c7d1900b16371bff5b" target="_top" xlink:title="JS_IsObject">
<polygon fill="none" stroke="#000000" points="152,-178.3461 152,-197.3461 223,-197.3461 223,-178.3461 152,-178.3461"/>
<text text-anchor="middle" x="187.5" y="-185.3461" font-family="Helvetica,sans-Serif" font-size="10.00" fill="#000000">JS_IsObject</text>
</a>
</g>
</g>
<!-- Node432036&#45;&gt;Node432326 -->
<g id="edge29" class="edge">
<title>Node432036&#45;&gt;Node432326</title>
<path fill="none" stroke="#191970" d="M70.6885,-248.673C87.7381,-236.3255 113.1237,-219.0121 137,-206.8461 140.8497,-204.8845 144.9516,-203.013 149.0898,-201.2627"/>
<polygon fill="#191970" stroke="#191970" points="150.7257,-204.378 158.7099,-197.4136 148.1253,-197.8789 150.7257,-204.378"/>
</g>
<!-- Node432467 -->
<g id="node26" class="node">
<title>Node432467</title>
<g id="a_node26"><a xlink:href="quickjs_8c.html#a38596b6e5448e564dd261426466f36f6" target="_top" xlink:title="js_promise_resolve\l_thenable_job">
<polygon fill="none" stroke="#000000" points="137,-90.8461 137,-120.8461 238,-120.8461 238,-90.8461 137,-90.8461"/>
<text text-anchor="start" x="145" y="-108.8461" font-family="Helvetica,sans-Serif" font-size="10.00" fill="#000000">js_promise_resolve</text>
<text text-anchor="middle" x="187.5" y="-97.8461" font-family="Helvetica,sans-Serif" font-size="10.00" fill="#000000">_thenable_job</text>
</a>
</g>
</g>
<!-- Node432036&#45;&gt;Node432467 -->
<g id="edge30" class="edge">
<title>Node432036&#45;&gt;Node432467</title>
<path fill="none" stroke="#191970" d="M58.0135,-248.4632C71.1787,-222.6979 100.5176,-170.2631 137,-135.8461 140.5234,-132.5222 144.478,-129.3989 148.5823,-126.5162"/>
<polygon fill="#191970" stroke="#191970" points="150.6585,-129.3409 157.1272,-120.95 146.8378,-123.4755 150.6585,-129.3409"/>
</g>
<!-- Node432257 -->
<g id="node29" class="node">
<title>Node432257</title>
<g id="a_node29"><a xlink:href="quickjs_8c.html#a24be89a128d1cd7c0908604815b2b854" target="_top" xlink:title="js_same_value">
<polygon fill="none" stroke="#ff0000" points="292.5,-178.3461 292.5,-197.3461 374.5,-197.3461 374.5,-178.3461 292.5,-178.3461"/>
<text text-anchor="middle" x="333.5" y="-185.3461" font-family="Helvetica,sans-Serif" font-size="10.00" fill="#000000">js_same_value</text>
</a>
</g>
</g>
<!-- Node432036&#45;&gt;Node432257 -->
<g id="edge39" class="edge">
<title>Node432036&#45;&gt;Node432257</title>
<path fill="none" stroke="#191970" d="M58.6966,-248.7347C71.813,-226.3485 99.8677,-185.2549 137,-168.8461 190.3206,-145.2837 259.529,-161.418 299.9765,-174.9012"/>
<polygon fill="#191970" stroke="#191970" points="299.0181,-178.2734 309.6129,-178.2463 301.3136,-171.6605 299.0181,-178.2734"/>
</g>
<!-- Node432468 -->
<g id="node30" class="node">
<title>Node432468</title>
<g id="a_node30"><a xlink:href="quickjs_8c.html#ad6fab8e31674a32ca02feee02f99347b" target="_top" xlink:title="reject_promise">
<polygon fill="none" stroke="#000000" points="147.5,-368.3461 147.5,-387.3461 227.5,-387.3461 227.5,-368.3461 147.5,-368.3461"/>
<text text-anchor="middle" x="187.5" y="-375.3461" font-family="Helvetica,sans-Serif" font-size="10.00" fill="#000000">reject_promise</text>
</a>
</g>
</g>
<!-- Node432036&#45;&gt;Node432468 -->
<g id="edge41" class="edge">
<title>Node432036&#45;&gt;Node432468</title>
<path fill="none" stroke="#191970" d="M62.0228,-278.8468C77.4407,-298.1451 106.4072,-331.8001 137,-353.8461 142.1682,-357.5705 148.0052,-360.9625 153.8285,-363.9478"/>
<polygon fill="#191970" stroke="#191970" points="152.341,-367.1161 162.8702,-368.2937 155.3734,-360.807 152.341,-367.1161"/>
</g>
<!-- Node432039 -->
<g id="node4" class="node">
<title>Node432039</title>
<g id="a_node4"><a xlink:href="quickjs_8h.html#a775522f2d084fc8fa0fcb33f390006b4" target="_top" xlink:title="JS_DupValue">
<polygon fill="none" stroke="#000000" points="453.5,-178.3461 453.5,-197.3461 530.5,-197.3461 530.5,-178.3461 453.5,-178.3461"/>
<text text-anchor="middle" x="492" y="-185.3461" font-family="Helvetica,sans-Serif" font-size="10.00" fill="#000000">JS_DupValue</text>
</a>
</g>
</g>
<!-- Node432038&#45;&gt;Node432039 -->
<g id="edge3" class="edge">
<title>Node432038&#45;&gt;Node432039</title>
<path fill="none" stroke="#191970" d="M231.9051,-292.4628C283.778,-280.9966 365.9524,-261.1143 393,-244.8461 412.9362,-232.8552 409.199,-219.059 429,-206.8461 433.6186,-203.9975 438.6922,-201.5518 443.893,-199.4577"/>
<polygon fill="#191970" stroke="#191970" points="445.1018,-202.7424 453.3208,-196.0567 442.7265,-196.1578 445.1018,-202.7424"/>
</g>
<!-- Node432040 -->
<g id="node5" class="node">
<title>Node432040</title>
<g id="a_node5"><a xlink:href="list_8h.html#a3a5d0733570b2fafc18f4c71a2968ea5" target="_top" xlink:title="list_add_tail">
<polygon fill="none" stroke="#000000" points="299.5,-292.3461 299.5,-311.3461 367.5,-311.3461 367.5,-292.3461 299.5,-292.3461"/>
<text text-anchor="middle" x="333.5" y="-299.3461" font-family="Helvetica,sans-Serif" font-size="10.00" fill="#000000">list_add_tail</text>
</a>
</g>
</g>
<!-- Node432038&#45;&gt;Node432040 -->
<g id="edge4" class="edge">
<title>Node432038&#45;&gt;Node432040</title>
<path fill="none" stroke="#191970" d="M231.701,-301.8461C249.8867,-301.8461 270.9122,-301.8461 289.1167,-301.8461"/>
<polygon fill="#191970" stroke="#191970" points="289.1845,-305.3462 299.1844,-301.8461 289.1844,-298.3462 289.1845,-305.3462"/>
</g>
<!-- Node432041 -->
<g id="node6" class="node">
<title>Node432041</title>
<g id="a_node6"><a xlink:href="list_8h.html#a16286d5bff74a27aec51a3134ffc7b43" target="_top" xlink:title="__list_add">
<polygon fill="none" stroke="#000000" points="461.5,-216.3461 461.5,-235.3461 522.5,-235.3461 522.5,-216.3461 461.5,-216.3461"/>
<text text-anchor="middle" x="492" y="-223.3461" font-family="Helvetica,sans-Serif" font-size="10.00" fill="#000000">__list_add</text>
</a>
</g>
</g>
<!-- Node432040&#45;&gt;Node432041 -->
<g id="edge5" class="edge">
<title>Node432040&#45;&gt;Node432041</title>
<path fill="none" stroke="#191970" d="M363.2704,-292.242C373.1056,-288.4513 383.8613,-283.6097 393,-277.8461 411.3589,-266.2676 410.1362,-255.5825 429,-244.8461 435.981,-240.8728 443.8798,-237.6488 451.6656,-235.0623"/>
<polygon fill="#191970" stroke="#191970" points="452.8327,-238.3659 461.3895,-232.1184 450.8043,-231.6662 452.8327,-238.3659"/>
</g>
<!-- Node432043 -->
<g id="node8" class="node">
<title>Node432043</title>
<g id="a_node8"><a xlink:href="quickjs_8c.html#aa059f309c30fd5166d16c82a97973146" target="_top" xlink:title="__JS_FreeValue">
<polygon fill="none" stroke="#000000" points="713,-387.3461 713,-406.3461 802,-406.3461 802,-387.3461 713,-387.3461"/>
<text text-anchor="middle" x="757.5" y="-394.3461" font-family="Helvetica,sans-Serif" font-size="10.00" fill="#000000">__JS_FreeValue</text>
</a>
</g>
</g>
<!-- Node432042&#45;&gt;Node432043 -->
<g id="edge7" class="edge">
<title>Node432042&#45;&gt;Node432043</title>
<path fill="none" stroke="#191970" d="M673.0762,-396.8461C682.412,-396.8461 692.5507,-396.8461 702.4566,-396.8461"/>
<polygon fill="#191970" stroke="#191970" points="702.6517,-400.3462 712.6517,-396.8461 702.6517,-393.3462 702.6517,-400.3462"/>
</g>
<!-- Node432044 -->
<g id="node9" class="node">
<title>Node432044</title>
<g id="a_node9"><a xlink:href="quickjs_8c.html#ab1ea3fad7d138be12144a38be4d36423" target="_top" xlink:title="__JS_FreeValueRT">
<polygon fill="none" stroke="#ff0000" points="838,-387.3461 838,-406.3461 940,-406.3461 940,-387.3461 838,-387.3461"/>
<text text-anchor="middle" x="889" y="-394.3461" font-family="Helvetica,sans-Serif" font-size="10.00" fill="#000000">__JS_FreeValueRT</text>
</a>
</g>
</g>
<!-- Node432043&#45;&gt;Node432044 -->
<g id="edge8" class="edge">
<title>Node432043&#45;&gt;Node432044</title>
<path fill="none" stroke="#191970" d="M802.0199,-396.8461C810.2672,-396.8461 819.0138,-396.8461 827.6583,-396.8461"/>
<polygon fill="#191970" stroke="#191970" points="827.7233,-400.3462 837.7233,-396.8461 827.7232,-393.3462 827.7233,-400.3462"/>
</g>
<!-- Node432078 -->
<g id="node12" class="node">
<title>Node432078</title>
<g id="a_node12"><a xlink:href="quickjs_8c.html#a5762c57ae0c9937e986040c01222833a" target="_top" xlink:title="JS_GetPropertyInternal">
<polygon fill="none" stroke="#ff0000" points="274,-406.3461 274,-425.3461 393,-425.3461 393,-406.3461 274,-406.3461"/>
<text text-anchor="middle" x="333.5" y="-413.3461" font-family="Helvetica,sans-Serif" font-size="10.00" fill="#000000">JS_GetPropertyInternal</text>
</a>
</g>
</g>
<!-- Node432077&#45;&gt;Node432078 -->
<g id="edge11" class="edge">
<title>Node432077&#45;&gt;Node432078</title>
<path fill="none" stroke="#191970" d="M230.5152,-415.8461C240.8835,-415.8461 252.2287,-415.8461 263.4793,-415.8461"/>
<polygon fill="#191970" stroke="#191970" points="263.7543,-419.3462 273.7542,-415.8461 263.7542,-412.3462 263.7543,-419.3462"/>
</g>
<!-- Node432078&#45;&gt;Node432039 -->
<g id="edge21" class="edge">
<title>Node432078&#45;&gt;Node432039</title>
<path fill="none" stroke="#191970" d="M357.1523,-406.2279C369.6657,-399.9527 384.2167,-390.5488 393,-377.8461 437.1713,-313.9643 376.4767,-264.0589 429,-206.8461 433.1079,-202.3714 438.2273,-198.9359 443.7606,-196.3008"/>
<polygon fill="#191970" stroke="#191970" points="445.2997,-199.458 453.3583,-192.5799 442.7693,-192.9314 445.2997,-199.458"/>
</g>
<!-- Node432078&#45;&gt;Node432042 -->
<g id="edge22" class="edge">
<title>Node432078&#45;&gt;Node432042</title>
<path fill="none" stroke="#191970" d="M393.2284,-412.0696C449.3909,-408.5186 532.4559,-403.2666 584.8747,-399.9522"/>
<polygon fill="#191970" stroke="#191970" points="585.1736,-403.4404 594.9328,-399.3163 584.7318,-396.4544 585.1736,-403.4404"/>
</g>
<!-- Node432079 -->
<g id="node13" class="node">
<title>Node432079</title>
<g id="a_node13"><a xlink:href="quickjs_8c.html#a288254c06a39c9fca740a7abdad2834e" target="_top" xlink:title="__JS_AtomIsTaggedInt">
<polygon fill="none" stroke="#000000" points="432.5,-254.3461 432.5,-273.3461 551.5,-273.3461 551.5,-254.3461 432.5,-254.3461"/>
<text text-anchor="middle" x="492" y="-261.3461" font-family="Helvetica,sans-Serif" font-size="10.00" fill="#000000">__JS_AtomIsTaggedInt</text>
</a>
</g>
</g>
<!-- Node432078&#45;&gt;Node432079 -->
<g id="edge12" class="edge">
<title>Node432078&#45;&gt;Node432079</title>
<path fill="none" stroke="#191970" d="M355.2505,-406.2786C367.7656,-399.8184 382.952,-390.2125 393,-377.8461 421.4732,-342.8034 395.9855,-313.6481 429,-282.8461 430.6967,-281.2631 432.5208,-279.8117 434.4414,-278.481"/>
<polygon fill="#191970" stroke="#191970" points="436.4284,-281.3771 443.3842,-273.3854 432.9629,-275.2951 436.4284,-281.3771"/>
</g>
<!-- Node432080 -->
<g id="node14" class="node">
<title>Node432080</title>
<g id="a_node14"><a xlink:href="quickjs_8c.html#a89f38938cee8077ce1fbba07946ed185" target="_top" xlink:title="__JS_AtomToUInt32">
<polygon fill="none" stroke="#000000" points="438,-634.3461 438,-653.3461 546,-653.3461 546,-634.3461 438,-634.3461"/>
<text text-anchor="middle" x="492" y="-641.3461" font-family="Helvetica,sans-Serif" font-size="10.00" fill="#000000">__JS_AtomToUInt32</text>
</a>
</g>
</g>
<!-- Node432078&#45;&gt;Node432080 -->
<g id="edge13" class="edge">
<title>Node432078&#45;&gt;Node432080</title>
<path fill="none" stroke="#191970" d="M335.011,-425.4093C340.7242,-458.3499 364.0783,-568.1862 429,-624.8461 430.9581,-626.5551 433.0657,-628.1103 435.2809,-629.5257"/>
<polygon fill="#191970" stroke="#191970" points="433.7981,-632.7015 444.2684,-634.3208 437.0931,-626.5256 433.7981,-632.7015"/>
</g>
<!-- Node432081 -->
<g id="node15" class="node">
<title>Node432081</title>
<g id="a_node15"><a xlink:href="quickjs_8c.html#a06b76f5124fd985e35f4c652fd018d6d" target="_top" xlink:title="find_own_property">
<polygon fill="none" stroke="#ff0000" points="444,-558.3461 444,-577.3461 540,-577.3461 540,-558.3461 444,-558.3461"/>
<text text-anchor="middle" x="492" y="-565.3461" font-family="Helvetica,sans-Serif" font-size="10.00" fill="#000000">find_own_property</text>
</a>
</g>
</g>
<!-- Node432078&#45;&gt;Node432081 -->
<g id="edge14" class="edge">
<title>Node432078&#45;&gt;Node432081</title>
<path fill="none" stroke="#191970" d="M337.7155,-425.5444C348.8701,-450.0598 381.5887,-514.9639 429,-548.8461 431.6954,-550.7724 434.5886,-552.5061 437.6002,-554.0661"/>
<polygon fill="#191970" stroke="#191970" points="436.3542,-557.3431 446.9107,-558.2439 439.22,-550.9566 436.3542,-557.3431"/>
</g>
<!-- Node432082 -->
<g id="node16" class="node">
<title>Node432082</title>
<g id="a_node16"><a xlink:href="quickjs_8c.html#add3eea1f6d626963ade3c28a1fd563d1" target="_top" xlink:title="JS_AtomIsNumericIndex">
<polygon fill="none" stroke="#ff0000" points="429,-368.3461 429,-387.3461 555,-387.3461 555,-368.3461 429,-368.3461"/>
<text text-anchor="middle" x="492" y="-375.3461" font-family="Helvetica,sans-Serif" font-size="10.00" fill="#000000">JS_AtomIsNumericIndex</text>
</a>
</g>
</g>
<!-- Node432078&#45;&gt;Node432082 -->
<g id="edge15" class="edge">
<title>Node432078&#45;&gt;Node432082</title>
<path fill="none" stroke="#191970" d="M373.4962,-406.2571C394.412,-401.2426 420.2081,-395.0581 442.3864,-389.7409"/>
<polygon fill="#191970" stroke="#191970" points="443.383,-393.1012 452.2914,-387.3662 441.7509,-386.2941 443.383,-393.1012"/>
</g>
<!-- Node432262 -->
<g id="node18" class="node">
<title>Node432262</title>
<g id="a_node18"><a xlink:href="quickjs_8c.html#a23b7fe57d08a1b3b39ba556f9cbb6c76" target="_top" xlink:title="JS_AutoInitProperty">
<polygon fill="none" stroke="#ff0000" points="440,-520.3461 440,-539.3461 544,-539.3461 544,-520.3461 440,-520.3461"/>
<text text-anchor="middle" x="492" y="-527.3461" font-family="Helvetica,sans-Serif" font-size="10.00" fill="#000000">JS_AutoInitProperty</text>
</a>
</g>
</g>
<!-- Node432078&#45;&gt;Node432262 -->
<g id="edge18" class="edge">
<title>Node432078&#45;&gt;Node432262</title>
<path fill="none" stroke="#191970" d="M340.5118,-425.478C354.925,-444.5923 389.8354,-487.4844 429,-510.8461 432.5872,-512.9859 436.4348,-514.902 440.3953,-516.6148"/>
<polygon fill="#191970" stroke="#191970" points="439.1829,-519.8985 449.7719,-520.2515 441.7142,-513.3722 439.1829,-519.8985"/>
</g>
<!-- Node432138 -->
<g id="node19" class="node">
<title>Node432138</title>
<g id="a_node19"><a xlink:href="quickjs_8c.html#a75f6ee5e4235a7dc99889f3d2eb2c147" target="_top" xlink:title="JS_CallFree">
<polygon fill="none" stroke="#ff0000" points="456.5,-596.3461 456.5,-615.3461 527.5,-615.3461 527.5,-596.3461 456.5,-596.3461"/>
<text text-anchor="middle" x="492" y="-603.3461" font-family="Helvetica,sans-Serif" font-size="10.00" fill="#000000">JS_CallFree</text>
</a>
</g>
</g>
<!-- Node432078&#45;&gt;Node432138 -->
<g id="edge19" class="edge">
<title>Node432078&#45;&gt;Node432138</title>
<path fill="none" stroke="#191970" d="M336.132,-425.6724C344.4656,-454.8743 373.0846,-541.8888 429,-586.8461 434.264,-591.0785 440.457,-594.3694 446.8691,-596.9279"/>
<polygon fill="#191970" stroke="#191970" points="445.7429,-600.2417 456.3376,-600.1767 448.0148,-593.6206 445.7429,-600.2417"/>
</g>
<!-- Node432162 -->
<g id="node20" class="node">
<title>Node432162</title>
<g id="a_node20"><a xlink:href="quickjs_8c.html#aeb97957655d979e9fe56c955da2b2d4b" target="_top" xlink:title="JS_GetPropertyUint32">
<polygon fill="none" stroke="#ff0000" points="434.5,-482.3461 434.5,-501.3461 549.5,-501.3461 549.5,-482.3461 434.5,-482.3461"/>
<text text-anchor="middle" x="492" y="-489.3461" font-family="Helvetica,sans-Serif" font-size="10.00" fill="#000000">JS_GetPropertyUint32</text>
</a>
</g>
</g>
<!-- Node432078&#45;&gt;Node432162 -->
<g id="edge23" class="edge">
<title>Node432078&#45;&gt;Node432162</title>
<path fill="none" stroke="#191970" d="M347.1567,-425.47C365.1898,-437.8257 398.2619,-459.2846 429,-472.8461 434.0954,-475.0942 439.5347,-477.1751 445.0022,-479.0709"/>
<polygon fill="#191970" stroke="#191970" points="444.2134,-482.4954 454.8061,-482.2797 446.3909,-475.8426 444.2134,-482.4954"/>
</g>
<!-- Node432268 -->
<g id="node21" class="node">
<title>Node432268</title>
<g id="a_node21"><a xlink:href="quickjs_8c.html#a23a30fec3b10bfa38c3dc29b4cb1c99d" target="_top" xlink:title="JS_GetPrototype">
<polygon fill="none" stroke="#ff0000" points="446,-444.3461 446,-463.3461 538,-463.3461 538,-444.3461 446,-444.3461"/>
<text text-anchor="middle" x="492" y="-451.3461" font-family="Helvetica,sans-Serif" font-size="10.00" fill="#000000">JS_GetPrototype</text>
</a>
</g>
</g>
<!-- Node432078&#45;&gt;Node432268 -->
<g id="edge24" class="edge">
<title>Node432078&#45;&gt;Node432268</title>
<path fill="none" stroke="#191970" d="M373.4962,-425.4351C394.412,-430.4497 420.2081,-436.6342 442.3864,-441.9514"/>
<polygon fill="#191970" stroke="#191970" points="441.7509,-445.3982 452.2914,-444.3261 443.383,-438.591 441.7509,-445.3982"/>
</g>
<!-- Node432345 -->
<g id="node22" class="node">
<title>Node432345</title>
<g id="a_node22"><a xlink:href="quickjs_8h.html#aaab426b47c95d00479b7355b1cf7f56c" target="_top" xlink:title="JS_IsUninitialized">
<polygon fill="none" stroke="#000000" points="444.5,-330.3461 444.5,-349.3461 539.5,-349.3461 539.5,-330.3461 444.5,-330.3461"/>
<text text-anchor="middle" x="492" y="-337.3461" font-family="Helvetica,sans-Serif" font-size="10.00" fill="#000000">JS_IsUninitialized</text>
</a>
</g>
</g>
<!-- Node432078&#45;&gt;Node432345 -->
<g id="edge25" class="edge">
<title>Node432078&#45;&gt;Node432345</title>
<path fill="none" stroke="#191970" d="M348.4246,-406.3244C370.9808,-392.0404 412.836,-365.9777 429,-358.8461 434.0954,-356.5981 439.5347,-354.5172 445.0022,-352.6214"/>
<polygon fill="#191970" stroke="#191970" points="446.3909,-355.8496 454.8061,-349.4126 444.2134,-349.1969 446.3909,-355.8496"/>
</g>
<!-- Node432465 -->
<g id="node23" class="node">
<title>Node432465</title>
<g id="a_node23"><a xlink:href="quickjs_8c.html#a077ffa6455c0d7831bd4547542b5f2f7" target="_top" xlink:title="js_new_string_char">
<polygon fill="none" stroke="#ff0000" points="441.5,-292.3461 441.5,-311.3461 542.5,-311.3461 542.5,-292.3461 441.5,-292.3461"/>
<text text-anchor="middle" x="492" y="-299.3461" font-family="Helvetica,sans-Serif" font-size="10.00" fill="#000000">js_new_string_char</text>
</a>
</g>
</g>
<!-- Node432078&#45;&gt;Node432465 -->
<g id="edge26" class="edge">
<title>Node432078&#45;&gt;Node432465</title>
<path fill="none" stroke="#191970" d="M352.9901,-406.2646C365.4211,-399.5019 381.3293,-389.5759 393,-377.8461 414.1335,-356.6058 405.1505,-338.984 429,-320.8461 431.4665,-318.9703 434.1176,-317.2787 436.8866,-315.7533"/>
<polygon fill="#191970" stroke="#191970" points="438.502,-318.8611 446.0491,-311.4253 435.5122,-312.5317 438.502,-318.8611"/>
</g>
<!-- Node432082&#45;&gt;Node432042 -->
<g id="edge16" class="edge">
<title>Node432082&#45;&gt;Node432042</title>
<path fill="none" stroke="#191970" d="M555.1102,-386.2905C565.0104,-387.6151 575.1177,-388.9675 584.6494,-390.2429"/>
<polygon fill="#191970" stroke="#191970" points="584.3534,-393.7344 594.7293,-391.5916 585.2819,-386.7962 584.3534,-393.7344"/>
</g>
<!-- Node432082&#45;&gt;Node432086 -->
<g id="edge17" class="edge">
<title>Node432082&#45;&gt;Node432086</title>
<path fill="none" stroke="#191970" d="M541.9928,-368.2953C546.8204,-365.8258 551.291,-362.7285 555,-358.8461 596.2746,-315.6417 623.5992,-127.2617 631.5776,-65.5201"/>
<polygon fill="#191970" stroke="#191970" points="635.0588,-65.8891 632.8412,-55.5289 628.1141,-65.0107 635.0588,-65.8891"/>
</g>
<!-- Node432138&#45;&gt;Node432042 -->
<g id="edge20" class="edge">
<title>Node432138&#45;&gt;Node432042</title>
<path fill="none" stroke="#191970" d="M527.8203,-600.8415C537.5434,-598.0365 547.4563,-593.663 555,-586.8461 606.4032,-540.3952 625.2624,-455.2809 631.3854,-416.7422"/>
<polygon fill="#191970" stroke="#191970" points="634.918,-416.7722 632.8987,-406.3716 627.9914,-415.7614 634.918,-416.7722"/>
</g>
<!-- Node432467&#45;&gt;Node432042 -->
<g id="edge36" class="edge">
<title>Node432467&#45;&gt;Node432042</title>
<path fill="none" stroke="#191970" d="M234.7728,-120.8675C247.4222,-124.5128 261.1518,-128.1361 274,-130.8461 335.6562,-143.8513 506.2349,-128.939 555,-168.8461 588.3805,-196.1633 619.176,-327.0614 629.9462,-377.2242"/>
<polygon fill="#191970" stroke="#191970" points="626.5493,-378.0787 632.0387,-387.1405 633.3985,-376.6333 626.5493,-378.0787"/>
</g>
<!-- Node432467&#45;&gt;Node432076 -->
<g id="edge37" class="edge">
<title>Node432467&#45;&gt;Node432076</title>
<path fill="none" stroke="#191970" d="M199.6212,-120.8947C221.1847,-147.5288 264.8144,-200.7511 274,-206.8461 277.0721,-208.8846 280.3777,-210.7167 283.8006,-212.3614"/>
<polygon fill="#191970" stroke="#191970" points="282.4827,-215.6042 293.0553,-216.29 285.2179,-209.1607 282.4827,-215.6042"/>
</g>
<!-- Node432467&#45;&gt;Node432086 -->
<g id="edge38" class="edge">
<title>Node432467&#45;&gt;Node432086</title>
<path fill="none" stroke="#191970" d="M202.0524,-90.6556C218.0107,-75.1982 245.2051,-52.2207 274,-42.8461 378.3702,-8.867 508.956,-22.9183 580.6755,-35.0932"/>
<polygon fill="#191970" stroke="#191970" points="580.3659,-38.5922 590.8198,-36.8699 581.5736,-31.6971 580.3659,-38.5922"/>
</g>
<!-- Node432325 -->
<g id="node27" class="node">
<title>Node432325</title>
<g id="a_node27"><a xlink:href="quickjs_8c.html#a1a4c02a29525d5cb2085dd8bca3af350" target="_top" xlink:title="JS_Call">
<polygon fill="none" stroke="#ff0000" points="308,-52.3461 308,-71.3461 359,-71.3461 359,-52.3461 308,-52.3461"/>
<text text-anchor="middle" x="333.5" y="-59.3461" font-family="Helvetica,sans-Serif" font-size="10.00" fill="#000000">JS_Call</text>
</a>
</g>
</g>
<!-- Node432467&#45;&gt;Node432325 -->
<g id="edge31" class="edge">
<title>Node432467&#45;&gt;Node432325</title>
<path fill="none" stroke="#191970" d="M237.3366,-90.8269C257.2708,-84.8193 279.7759,-78.037 298.0004,-72.5447"/>
<polygon fill="#191970" stroke="#191970" points="299.0765,-75.8759 307.6412,-69.6392 297.0566,-69.1737 299.0765,-75.8759"/>
</g>
<!-- Node432412 -->
<g id="node28" class="node">
<title>Node432412</title>
<g id="a_node28"><a xlink:href="quickjs_8c.html#a37cac335cb6abd3c24e162ad57f418f1" target="_top" xlink:title="js_create_resolving\l_functions">
<polygon fill="none" stroke="#ff0000" points="283,-90.8461 283,-120.8461 384,-120.8461 384,-90.8461 283,-90.8461"/>
<text text-anchor="start" x="291" y="-108.8461" font-family="Helvetica,sans-Serif" font-size="10.00" fill="#000000">js_create_resolving</text>
<text text-anchor="middle" x="333.5" y="-97.8461" font-family="Helvetica,sans-Serif" font-size="10.00" fill="#000000">_functions</text>
</a>
</g>
</g>
<!-- Node432467&#45;&gt;Node432412 -->
<g id="edge32" class="edge">
<title>Node432467&#45;&gt;Node432412</title>
<path fill="none" stroke="#191970" d="M238.154,-105.8461C249.3652,-105.8461 261.3547,-105.8461 272.9161,-105.8461"/>
<polygon fill="#191970" stroke="#191970" points="272.9356,-109.3462 282.9356,-105.8461 272.9355,-102.3462 272.9356,-109.3462"/>
</g>
<!-- Node432412&#45;&gt;Node432039 -->
<g id="edge33" class="edge">
<title>Node432412&#45;&gt;Node432039</title>
<path fill="none" stroke="#191970" d="M362.5713,-120.8862C391.6376,-135.9237 436.0024,-158.8757 464.5011,-173.6196"/>
<polygon fill="#191970" stroke="#191970" points="463.0226,-176.7953 473.5127,-178.2817 466.2392,-170.5781 463.0226,-176.7953"/>
</g>
<!-- Node432412&#45;&gt;Node432042 -->
<g id="edge34" class="edge">
<title>Node432412&#45;&gt;Node432042</title>
<path fill="none" stroke="#191970" d="M384.1108,-98.3074C433.4998,-93.9344 507.8898,-95.7004 555,-135.8461 592.7566,-168.021 621.6366,-322.4181 630.8718,-377.3736"/>
<polygon fill="#191970" stroke="#191970" points="627.4186,-377.9451 632.4972,-387.2434 634.3256,-376.8075 627.4186,-377.9451"/>
</g>
<!-- Node432412&#45;&gt;Node432086 -->
<g id="edge35" class="edge">
<title>Node432412&#45;&gt;Node432086</title>
<path fill="none" stroke="#191970" d="M384.1359,-95.7358C438.7764,-84.8259 525.4062,-67.5288 580.9627,-56.4359"/>
<polygon fill="#191970" stroke="#191970" points="581.8389,-59.8302 590.96,-54.4398 580.4683,-52.9657 581.8389,-59.8302"/>
</g>
<!-- Node432257&#45;&gt;Node432039 -->
<g id="edge40" class="edge">
<title>Node432257&#45;&gt;Node432039</title>
<path fill="none" stroke="#191970" d="M374.7302,-187.8461C395.714,-187.8461 421.3582,-187.8461 443.3089,-187.8461"/>
<polygon fill="#191970" stroke="#191970" points="443.4269,-191.3462 453.4268,-187.8461 443.4268,-184.3462 443.4269,-191.3462"/>
</g>
<!-- Node432468&#45;&gt;Node432037 -->
<g id="edge42" class="edge">
<title>Node432468&#45;&gt;Node432037</title>
<path fill="none" stroke="#191970" d="M227.7816,-372.604C238.9257,-371.1538 251.3523,-369.5366 263.6591,-367.935"/>
<polygon fill="#191970" stroke="#191970" points="264.473,-371.3587 273.9377,-366.5974 263.5696,-364.4172 264.473,-371.3587"/>
</g>
</g>
</svg>
        <g id="navigator" transform="translate(0 0)" fill="#404254">
                <rect fill="#f2f5e9" fill-opacity="0.5" stroke="#606060" stroke-width=".5" x="0" y="0" width="60" height="60"/>
                <use id="zoomplus" xlink:href="#zoomPlus" x="17" y="9" onmousedown="handleZoom(evt,'in')"/>
                <use id="zoomminus" xlink:href="#zoomMin" x="42" y="9" onmousedown="handleZoom(evt,'out')"/>
                <use id="reset" xlink:href="#resetDef" x="30" y="36" onmousedown="handleReset()"/>
                <g id="arrowUp" xlink:href="#dirArrow" transform="translate(30 24)" onmousedown="handlePan(0,-1)">
                  <use xlink:href="#rim" fill="#404040">
                        <set attributeName="fill" to="#808080" begin="arrowUp.mouseover" end="arrowUp.mouseout"/>
                  </use>
                  <path fill="none" stroke="white" stroke-width="1.5" d="M0,-3.0v7 M-2.5,-0.5L0,-3.0L2.5,-0.5"/>
                </g>
                <g id="arrowRight" xlink:href="#dirArrow" transform="rotate(90) translate(36 -43)" onmousedown="handlePan(1,0)">
                  <use xlink:href="#rim" fill="#404040">
                        <set attributeName="fill" to="#808080" begin="arrowRight.mouseover" end="arrowRight.mouseout"/>
                  </use>
                  <path fill="none" stroke="white" stroke-width="1.5" d="M0,-3.0v7 M-2.5,-0.5L0,-3.0L2.5,-0.5"/>
                </g>
                <g id="arrowDown" xlink:href="#dirArrow" transform="rotate(180) translate(-30 -48)" onmousedown="handlePan(0,1)">
                  <use xlink:href="#rim" fill="#404040">
                        <set attributeName="fill" to="#808080" begin="arrowDown.mouseover" end="arrowDown.mouseout"/>
                  </use>
                  <path fill="none" stroke="white" stroke-width="1.5" d="M0,-3.0v7 M-2.5,-0.5L0,-3.0L2.5,-0.5"/>
                </g>
                <g id="arrowLeft" xlink:href="#dirArrow" transform="rotate(270) translate(-36 17)" onmousedown="handlePan(-1,0)">
                  <use xlink:href="#rim" fill="#404040">
                        <set attributeName="fill" to="#808080" begin="arrowLeft.mouseover" end="arrowLeft.mouseout"/>
                  </use>
                  <path fill="none" stroke="white" stroke-width="1.5" d="M0,-3.0v7 M-2.5,-0.5L0,-3.0L2.5,-0.5"/>
                </g>
        </g>
        <svg viewBox="0 0 15 15" width="100%" height="30px" preserveAspectRatio="xMaxYMin meet">
         <g id="arrow_out" transform="scale(0.3 0.3)">
          <a xlink:href="quickjs_8c_ac13d124ad5c7f1234cae3076077e782e_cgraph_org.svg" target="_base">
           <rect id="button" ry="5" rx="5" y="6" x="6" height="38" width="38"
                fill="#f2f5e9" fill-opacity="0.5" stroke="#606060" stroke-width="1.0"/>
           <path id="arrow"
             d="M 11.500037,31.436501 C 11.940474,20.09759 22.043105,11.32322 32.158766,21.979434 L 37.068811,17.246167 C 37.068811,17.246167 37.088388,32 37.088388,32 L 22.160133,31.978069 C 22.160133,31.978069 26.997745,27.140456 26.997745,27.140456 C 18.528582,18.264221 13.291696,25.230495 11.500037,31.436501 z"
             style="fill:#404040;"/>
          </a>
         </g>
        </svg>
</svg>
