<?xml version="1.0" encoding="UTF-8" standalone="no"?>
<!DOCTYPE svg PUBLIC "-//W3C//DTD SVG 1.1//EN"
 "http://www.w3.org/Graphics/SVG/1.1/DTD/svg11.dtd">
<!-- Generated by graphviz version 2.40.1 (20161225.0304)
 -->
<!-- Title: JS_SetConstructor Pages: 1 -->
<svg width="790pt" height="218pt"
 viewBox="0.00 0.00 790.00 218.00" xmlns="http://www.w3.org/2000/svg" xmlns:xlink="http://www.w3.org/1999/xlink">
<g id="graph0" class="graph" transform="scale(1 1) rotate(0) translate(4 214)">
<title>JS_SetConstructor</title>
<!-- Node348512 -->
<g id="node1" class="node">
<title>Node348512</title>
<polygon fill="#bfbfbf" stroke="#000000" points="0,-171.5 0,-190.5 100,-190.5 100,-171.5 0,-171.5"/>
<text text-anchor="middle" x="50" y="-178.5" font-family="Helvetica,sans-Serif" font-size="10.00" fill="#000000">JS_SetConstructor</text>
</g>
<!-- Node348513 -->
<g id="node2" class="node">
<title>Node348513</title>
<g id="a_node2"><a xlink:href="quickjs_8c.html#a177d09828596bfe6df4bd90b2e93989d" target="_top" xlink:title="JS_AddIntrinsicTypedArrays">
<polygon fill="none" stroke="#000000" points="515.5,-190.5 515.5,-209.5 656.5,-209.5 656.5,-190.5 515.5,-190.5"/>
<text text-anchor="middle" x="586" y="-197.5" font-family="Helvetica,sans-Serif" font-size="10.00" fill="#000000">JS_AddIntrinsicTypedArrays</text>
</a>
</g>
</g>
<!-- Node348512&#45;&gt;Node348513 -->
<g id="edge1" class="edge">
<title>Node348512&#45;&gt;Node348513</title>
<path fill="none" stroke="#191970" d="M110.4269,-187.9645C164.6768,-193.8463 246.5378,-201.8066 318,-205 389.4842,-208.1944 407.4639,-206.6705 479,-205 490.7127,-204.7265 503.1407,-204.2848 515.2226,-203.7742"/>
<polygon fill="#191970" stroke="#191970" points="110.6136,-184.4641 100.2921,-186.855 109.8518,-191.4225 110.6136,-184.4641"/>
</g>
<!-- Node348515 -->
<g id="node4" class="node">
<title>Node348515</title>
<g id="a_node4"><a xlink:href="quickjs_8c.html#acd5457d29e9641ae5e3a1d778f94bd0e" target="_top" xlink:title="JS_NewGlobalCConstructor2">
<polygon fill="none" stroke="#000000" points="136,-114.5 136,-133.5 282,-133.5 282,-114.5 136,-114.5"/>
<text text-anchor="middle" x="209" y="-121.5" font-family="Helvetica,sans-Serif" font-size="10.00" fill="#000000">JS_NewGlobalCConstructor2</text>
</a>
</g>
</g>
<!-- Node348512&#45;&gt;Node348515 -->
<g id="edge3" class="edge">
<title>Node348512&#45;&gt;Node348515</title>
<path fill="none" stroke="#191970" d="M86.0636,-168.0715C115.3193,-157.5836 155.8994,-143.0361 182.3002,-133.5716"/>
<polygon fill="#191970" stroke="#191970" points="84.8453,-164.7901 76.613,-171.4595 87.2076,-171.3795 84.8453,-164.7901"/>
</g>
<!-- Node348514 -->
<g id="node3" class="node">
<title>Node348514</title>
<g id="a_node3"><a xlink:href="quickjs_8c.html#ad8aedb643b8753b7a15f6cb2df61945e" target="_top" xlink:title="JS_NewContext">
<polygon fill="none" stroke="#000000" points="693,-95.5 693,-114.5 782,-114.5 782,-95.5 693,-95.5"/>
<text text-anchor="middle" x="737.5" y="-102.5" font-family="Helvetica,sans-Serif" font-size="10.00" fill="#000000">JS_NewContext</text>
</a>
</g>
</g>
<!-- Node348513&#45;&gt;Node348514 -->
<g id="edge2" class="edge">
<title>Node348513&#45;&gt;Node348514</title>
<path fill="none" stroke="#191970" d="M644.353,-186.9588C648.739,-185.2064 653.0062,-183.229 657,-181 688.5521,-163.3898 717.1762,-130.6573 730.1566,-114.5106"/>
<polygon fill="#191970" stroke="#191970" points="642.855,-183.7776 634.6221,-190.4462 645.2167,-190.3672 642.855,-183.7776"/>
</g>
<!-- Node348515&#45;&gt;Node348513 -->
<g id="edge18" class="edge">
<title>Node348515&#45;&gt;Node348513</title>
<path fill="none" stroke="#191970" d="M231.2614,-139.1569C252.5169,-152.752 285.9652,-171.9164 318,-181 383.0693,-199.4507 460.406,-203.0957 515.2381,-202.7879"/>
<polygon fill="#191970" stroke="#191970" points="232.955,-136.0824 222.6702,-133.538 229.1235,-141.9407 232.955,-136.0824"/>
</g>
<!-- Node348516 -->
<g id="node5" class="node">
<title>Node348516</title>
<g id="a_node5"><a xlink:href="quickjs_8c.html#a293feb2179c9a722b2bd410bc2c5c173" target="_top" xlink:title="JS_NewGlobalCConstructor">
<polygon fill="none" stroke="#000000" points="328.5,-114.5 328.5,-133.5 468.5,-133.5 468.5,-114.5 328.5,-114.5"/>
<text text-anchor="middle" x="398.5" y="-121.5" font-family="Helvetica,sans-Serif" font-size="10.00" fill="#000000">JS_NewGlobalCConstructor</text>
</a>
</g>
</g>
<!-- Node348515&#45;&gt;Node348516 -->
<g id="edge4" class="edge">
<title>Node348515&#45;&gt;Node348516</title>
<path fill="none" stroke="#191970" d="M292.2694,-124C304.2689,-124 316.5177,-124 328.2307,-124"/>
<polygon fill="#191970" stroke="#191970" points="292.2657,-120.5001 282.2656,-124 292.2656,-127.5001 292.2657,-120.5001"/>
</g>
<!-- Node348519 -->
<g id="node8" class="node">
<title>Node348519</title>
<g id="a_node8"><a xlink:href="quickjs_8c.html#a4c9489297c684663f30e517204a9ec14" target="_top" xlink:title="JS_AddIntrinsicBaseObjects">
<polygon fill="none" stroke="#000000" points="515,-76.5 515,-95.5 657,-95.5 657,-76.5 515,-76.5"/>
<text text-anchor="middle" x="586" y="-83.5" font-family="Helvetica,sans-Serif" font-size="10.00" fill="#000000">JS_AddIntrinsicBaseObjects</text>
</a>
</g>
</g>
<!-- Node348515&#45;&gt;Node348519 -->
<g id="edge17" class="edge">
<title>Node348515&#45;&gt;Node348519</title>
<path fill="none" stroke="#191970" d="M267.3631,-112.698C283.6992,-109.8424 301.4997,-107.0177 318,-105 384.5558,-96.8614 460.869,-91.872 514.996,-89.0612"/>
<polygon fill="#191970" stroke="#191970" points="266.6361,-109.2724 257.4056,-114.4731 267.8647,-116.1637 266.6361,-109.2724"/>
</g>
<!-- Node348520 -->
<g id="node9" class="node">
<title>Node348520</title>
<g id="a_node9"><a xlink:href="quickjs_8c.html#abc33a664e231090ec89f9d9975e21229" target="_top" xlink:title="JS_NewGlobalCConstructorOnly">
<polygon fill="none" stroke="#000000" points="318,-152.5 318,-171.5 479,-171.5 479,-152.5 318,-152.5"/>
<text text-anchor="middle" x="398.5" y="-159.5" font-family="Helvetica,sans-Serif" font-size="10.00" fill="#000000">JS_NewGlobalCConstructorOnly</text>
</a>
</g>
</g>
<!-- Node348515&#45;&gt;Node348520 -->
<g id="edge11" class="edge">
<title>Node348515&#45;&gt;Node348520</title>
<path fill="none" stroke="#191970" d="M266.8948,-135.6095C293.846,-141.014 325.5102,-147.3635 351.025,-152.4799"/>
<polygon fill="#191970" stroke="#191970" points="267.3118,-132.1235 256.8189,-133.589 265.9355,-138.9869 267.3118,-132.1235"/>
</g>
<!-- Node348521 -->
<g id="node10" class="node">
<title>Node348521</title>
<g id="a_node10"><a xlink:href="quickjs_8c.html#a4497f8c7cf2ec38da989910ae8b1f042" target="_top" xlink:title="JS_AddIntrinsicMapSet">
<polygon fill="none" stroke="#000000" points="339,-38.5 339,-57.5 458,-57.5 458,-38.5 339,-38.5"/>
<text text-anchor="middle" x="398.5" y="-45.5" font-family="Helvetica,sans-Serif" font-size="10.00" fill="#000000">JS_AddIntrinsicMapSet</text>
</a>
</g>
</g>
<!-- Node348515&#45;&gt;Node348521 -->
<g id="edge13" class="edge">
<title>Node348515&#45;&gt;Node348521</title>
<path fill="none" stroke="#191970" d="M235.7153,-109.8172C257.473,-98.6194 289.1942,-83.0879 318,-72 332.1545,-66.5516 348.0942,-61.5691 362.0324,-57.5732"/>
<polygon fill="#191970" stroke="#191970" points="234.0116,-106.7581 226.7524,-114.4752 237.2396,-112.9694 234.0116,-106.7581"/>
</g>
<!-- Node348522 -->
<g id="node11" class="node">
<title>Node348522</title>
<g id="a_node11"><a xlink:href="quickjs_8c.html#a2e66fcf1bc1d19f346317f10ee590621" target="_top" xlink:title="JS_AddIntrinsicPromise">
<polygon fill="none" stroke="#000000" points="337.5,-.5 337.5,-19.5 459.5,-19.5 459.5,-.5 337.5,-.5"/>
<text text-anchor="middle" x="398.5" y="-7.5" font-family="Helvetica,sans-Serif" font-size="10.00" fill="#000000">JS_AddIntrinsicPromise</text>
</a>
</g>
</g>
<!-- Node348515&#45;&gt;Node348522 -->
<g id="edge15" class="edge">
<title>Node348515&#45;&gt;Node348522</title>
<path fill="none" stroke="#191970" d="M223.7504,-106.7835C243.158,-85.2595 279.3605,-48.8385 318,-29 325.5369,-25.1304 333.8755,-22.0352 342.2461,-19.563"/>
<polygon fill="#191970" stroke="#191970" points="220.9378,-104.681 216.9431,-114.4939 226.1853,-109.3139 220.9378,-104.681"/>
</g>
<!-- Node348517 -->
<g id="node6" class="node">
<title>Node348517</title>
<g id="a_node6"><a xlink:href="quickjs_8c.html#aafc8241682ce24b6d72e0f237ee85a51" target="_top" xlink:title="JS_AddIntrinsicRegExp">
<polygon fill="none" stroke="#000000" points="525.5,-152.5 525.5,-171.5 646.5,-171.5 646.5,-152.5 525.5,-152.5"/>
<text text-anchor="middle" x="586" y="-159.5" font-family="Helvetica,sans-Serif" font-size="10.00" fill="#000000">JS_AddIntrinsicRegExp</text>
</a>
</g>
</g>
<!-- Node348516&#45;&gt;Node348517 -->
<g id="edge5" class="edge">
<title>Node348516&#45;&gt;Node348517</title>
<path fill="none" stroke="#191970" d="M455.7838,-135.6095C482.4506,-141.014 513.7805,-147.3635 539.0261,-152.4799"/>
<polygon fill="#191970" stroke="#191970" points="456.3101,-132.1451 445.8142,-133.589 454.9197,-139.0056 456.3101,-132.1451"/>
</g>
<!-- Node348518 -->
<g id="node7" class="node">
<title>Node348518</title>
<g id="a_node7"><a xlink:href="quickjs_8c.html#a8ecbf5799518b7bfc3fefd47c7a0dd4e" target="_top" xlink:title="JS_AddIntrinsicDate">
<polygon fill="none" stroke="#000000" points="532.5,-114.5 532.5,-133.5 639.5,-133.5 639.5,-114.5 532.5,-114.5"/>
<text text-anchor="middle" x="586" y="-121.5" font-family="Helvetica,sans-Serif" font-size="10.00" fill="#000000">JS_AddIntrinsicDate</text>
</a>
</g>
</g>
<!-- Node348516&#45;&gt;Node348518 -->
<g id="edge7" class="edge">
<title>Node348516&#45;&gt;Node348518</title>
<path fill="none" stroke="#191970" d="M478.5903,-124C496.7619,-124 515.6332,-124 532.3941,-124"/>
<polygon fill="#191970" stroke="#191970" points="478.5848,-120.5001 468.5847,-124 478.5847,-127.5001 478.5848,-120.5001"/>
</g>
<!-- Node348516&#45;&gt;Node348519 -->
<g id="edge9" class="edge">
<title>Node348516&#45;&gt;Node348519</title>
<path fill="none" stroke="#191970" d="M455.7838,-112.3905C482.4506,-106.986 513.7805,-100.6365 539.0261,-95.5201"/>
<polygon fill="#191970" stroke="#191970" points="454.9197,-108.9944 445.8142,-114.411 456.3101,-115.8549 454.9197,-108.9944"/>
</g>
<!-- Node348517&#45;&gt;Node348514 -->
<g id="edge6" class="edge">
<title>Node348517&#45;&gt;Node348514</title>
<path fill="none" stroke="#191970" d="M636.6101,-149.6553C643.523,-147.6215 650.4797,-145.3894 657,-143 679.2017,-134.8641 703.6195,-122.8798 719.6741,-114.5532"/>
<polygon fill="#191970" stroke="#191970" points="635.2429,-146.4043 626.5691,-152.4883 637.1438,-153.1413 635.2429,-146.4043"/>
</g>
<!-- Node348518&#45;&gt;Node348514 -->
<g id="edge8" class="edge">
<title>Node348518&#45;&gt;Node348514</title>
<path fill="none" stroke="#191970" d="M650.1674,-115.9526C664.5307,-114.1513 679.463,-112.2786 692.8325,-110.6019"/>
<polygon fill="#191970" stroke="#191970" points="649.3265,-112.5306 639.8398,-117.2478 650.1976,-119.4761 649.3265,-112.5306"/>
</g>
<!-- Node348519&#45;&gt;Node348514 -->
<g id="edge10" class="edge">
<title>Node348519&#45;&gt;Node348514</title>
<path fill="none" stroke="#191970" d="M667.2695,-96.1922C676.0724,-97.2962 684.7754,-98.3877 692.8995,-99.4065"/>
<polygon fill="#191970" stroke="#191970" points="667.6716,-92.7153 657.3138,-94.9436 666.8005,-99.6609 667.6716,-92.7153"/>
</g>
<!-- Node348520&#45;&gt;Node348513 -->
<g id="edge12" class="edge">
<title>Node348520&#45;&gt;Node348513</title>
<path fill="none" stroke="#191970" d="M455.7838,-173.6095C482.4506,-179.014 513.7805,-185.3635 539.0261,-190.4799"/>
<polygon fill="#191970" stroke="#191970" points="456.3101,-170.1451 445.8142,-171.589 454.9197,-177.0056 456.3101,-170.1451"/>
</g>
<!-- Node348521&#45;&gt;Node348514 -->
<g id="edge14" class="edge">
<title>Node348521&#45;&gt;Node348514</title>
<path fill="none" stroke="#191970" d="M468.2756,-46.2666C520.9523,-46.5963 594.577,-50.5809 657,-67 680.7644,-73.2507 706.0625,-86.3957 721.8218,-95.4597"/>
<polygon fill="#191970" stroke="#191970" points="468.0359,-42.7662 458.0291,-46.2468 468.0223,-49.7662 468.0359,-42.7662"/>
</g>
<!-- Node348522&#45;&gt;Node348514 -->
<g id="edge16" class="edge">
<title>Node348522&#45;&gt;Node348514</title>
<path fill="none" stroke="#191970" d="M469.6202,-9.1604C523.0333,-10.8505 596.9917,-18.2186 657,-43 686.3485,-55.1199 714.2236,-80.8481 728.1879,-95.056"/>
<polygon fill="#191970" stroke="#191970" points="469.645,-5.66 459.5581,-8.9012 469.4647,-12.6576 469.645,-5.66"/>
</g>
</g>
</svg>
