<?xml version="1.0" encoding="UTF-8" standalone="no"?>
<!DOCTYPE svg PUBLIC "-//W3C//DTD SVG 1.1//EN"
 "http://www.w3.org/Graphics/SVG/1.1/DTD/svg11.dtd">
<!-- Generated by graphviz version 2.40.1 (20161225.0304)
 -->
<!-- Title: JS_GetGlobalObject Pages: 1 -->
<svg width="325pt" height="66pt"
 viewBox="0.00 0.00 325.00 66.00" xmlns="http://www.w3.org/2000/svg" xmlns:xlink="http://www.w3.org/1999/xlink">
<g id="graph0" class="graph" transform="scale(1 1) rotate(0) translate(4 62)">
<title>JS_GetGlobalObject</title>
<!-- Node71210 -->
<g id="node1" class="node">
<title>Node71210</title>
<polygon fill="#bfbfbf" stroke="#000000" points="0,-19.5 0,-38.5 106,-38.5 106,-19.5 0,-19.5"/>
<text text-anchor="middle" x="53" y="-26.5" font-family="Helvetica,sans-Serif" font-size="10.00" fill="#000000">JS_GetGlobalObject</text>
</g>
<!-- Node71211 -->
<g id="node2" class="node">
<title>Node71211</title>
<g id="a_node2"><a xlink:href="classqjs_1_1Context.html#a2275ad206587ece12d220fb8ed0c0744" target="_top" xlink:title="returns globalThis ">
<polygon fill="none" stroke="#000000" points="142,-38.5 142,-57.5 243,-57.5 243,-38.5 142,-38.5"/>
<text text-anchor="middle" x="192.5" y="-45.5" font-family="Helvetica,sans-Serif" font-size="10.00" fill="#000000">qjs::Context::global</text>
</a>
</g>
</g>
<!-- Node71210&#45;&gt;Node71211 -->
<g id="edge1" class="edge">
<title>Node71210&#45;&gt;Node71211</title>
<path fill="none" stroke="#191970" d="M116.1374,-37.5994C124.7362,-38.7705 133.4703,-39.9601 141.8105,-41.0961"/>
<polygon fill="#191970" stroke="#191970" points="116.5178,-34.1189 106.1369,-36.2373 115.5731,-41.0549 116.5178,-34.1189"/>
</g>
<!-- Node71212 -->
<g id="node3" class="node">
<title>Node71212</title>
<g id="a_node3"><a xlink:href="quickjs-libc_8c.html#ad04466feec6822a3b838baf229f6dfa0" target="_top" xlink:title="js_std_add_helpers">
<polygon fill="none" stroke="#000000" points="142,-.5 142,-19.5 243,-19.5 243,-.5 142,-.5"/>
<text text-anchor="middle" x="192.5" y="-7.5" font-family="Helvetica,sans-Serif" font-size="10.00" fill="#000000">js_std_add_helpers</text>
</a>
</g>
</g>
<!-- Node71210&#45;&gt;Node71212 -->
<g id="edge2" class="edge">
<title>Node71210&#45;&gt;Node71212</title>
<path fill="none" stroke="#191970" d="M116.1374,-20.4006C124.7362,-19.2295 133.4703,-18.0399 141.8105,-16.9039"/>
<polygon fill="#191970" stroke="#191970" points="115.5731,-16.9451 106.1369,-21.7627 116.5178,-23.8811 115.5731,-16.9451"/>
</g>
<!-- Node71213 -->
<g id="node4" class="node">
<title>Node71213</title>
<g id="a_node4"><a xlink:href="qjs_8cpp.html#a3c04138a5bfe5d72780bb7e82a18e627" target="_top" xlink:title="main">
<polygon fill="none" stroke="#000000" points="279,-.5 279,-19.5 317,-19.5 317,-.5 279,-.5"/>
<text text-anchor="middle" x="298" y="-7.5" font-family="Helvetica,sans-Serif" font-size="10.00" fill="#000000">main</text>
</a>
</g>
</g>
<!-- Node71212&#45;&gt;Node71213 -->
<g id="edge3" class="edge">
<title>Node71212&#45;&gt;Node71213</title>
<path fill="none" stroke="#191970" d="M253.181,-10C262.4142,-10 271.3156,-10 278.7187,-10"/>
<polygon fill="#191970" stroke="#191970" points="253.087,-6.5001 243.087,-10 253.0869,-13.5001 253.087,-6.5001"/>
</g>
</g>
</svg>
