<?xml version="1.0" encoding="UTF-8" standalone="no"?>
<!DOCTYPE svg PUBLIC "-//W3C//DTD SVG 1.1//EN"
 "http://www.w3.org/Graphics/SVG/1.1/DTD/svg11.dtd">
<!-- Generated by graphviz version 2.40.1 (20161225.0304)
 -->
<!-- Title: JS_GetGlobalVarRef Pages: 1 -->
<svg width="1012pt" height="391pt"
 viewBox="0.00 0.00 1012.00 390.72" xmlns="http://www.w3.org/2000/svg" xmlns:xlink="http://www.w3.org/1999/xlink">
<g id="graph0" class="graph" transform="scale(1 1) rotate(0) translate(4 386.7221)">
<title>JS_GetGlobalVarRef</title>
<!-- Node207349 -->
<g id="node1" class="node">
<title>Node207349</title>
<polygon fill="#bfbfbf" stroke="#000000" points="0,-133.5 0,-152.5 108,-152.5 108,-133.5 0,-133.5"/>
<text text-anchor="middle" x="54" y="-140.5" font-family="Helvetica,sans-Serif" font-size="10.00" fill="#000000">JS_GetGlobalVarRef</text>
</g>
<!-- Node207350 -->
<g id="node2" class="node">
<title>Node207350</title>
<g id="a_node2"><a xlink:href="quickjs_8c.html#a06b76f5124fd985e35f4c652fd018d6d" target="_top" xlink:title="find_own_property">
<polygon fill="none" stroke="#000000" points="544,-228.5 544,-247.5 640,-247.5 640,-228.5 544,-228.5"/>
<text text-anchor="middle" x="592" y="-235.5" font-family="Helvetica,sans-Serif" font-size="10.00" fill="#000000">find_own_property</text>
</a>
</g>
</g>
<!-- Node207349&#45;&gt;Node207350 -->
<g id="edge1" class="edge">
<title>Node207349&#45;&gt;Node207350</title>
<path fill="none" stroke="#191970" d="M97.4176,-152.5325C112.1761,-155.675 128.7828,-159.1042 144,-162 283.4469,-188.5365 448.1926,-215.3157 533.7823,-228.8866"/>
<polygon fill="#191970" stroke="#191970" points="533.3965,-232.3691 543.8207,-230.4753 534.4907,-225.4551 533.3965,-232.3691"/>
</g>
<!-- Node207352 -->
<g id="node4" class="node">
<title>Node207352</title>
<g id="a_node4"><a xlink:href="quickjs_8c.html#afa67965c1017685fc6783776d6d0d4d7" target="_top" xlink:title="JS_AtomToValue">
<polygon fill="none" stroke="#000000" points="171,-295.5 171,-314.5 264,-314.5 264,-295.5 171,-295.5"/>
<text text-anchor="middle" x="217.5" y="-302.5" font-family="Helvetica,sans-Serif" font-size="10.00" fill="#000000">JS_AtomToValue</text>
</a>
</g>
</g>
<!-- Node207349&#45;&gt;Node207352 -->
<g id="edge3" class="edge">
<title>Node207349&#45;&gt;Node207352</title>
<path fill="none" stroke="#191970" d="M58.532,-152.6429C69.8795,-175.8802 101.6669,-235.6589 144,-271 154.1343,-279.4605 166.7227,-286.2887 178.6014,-291.5439"/>
<polygon fill="#191970" stroke="#191970" points="177.3382,-294.8091 187.9153,-295.4223 180.0291,-288.347 177.3382,-294.8091"/>
</g>
<!-- Node207356 -->
<g id="node8" class="node">
<title>Node207356</title>
<g id="a_node8"><a xlink:href="quickjs_8h.html#a775522f2d084fc8fa0fcb33f390006b4" target="_top" xlink:title="JS_DupValue">
<polygon fill="none" stroke="#000000" points="553.5,-266.5 553.5,-285.5 630.5,-285.5 630.5,-266.5 553.5,-266.5"/>
<text text-anchor="middle" x="592" y="-273.5" font-family="Helvetica,sans-Serif" font-size="10.00" fill="#000000">JS_DupValue</text>
</a>
</g>
</g>
<!-- Node207349&#45;&gt;Node207356 -->
<g id="edge9" class="edge">
<title>Node207349&#45;&gt;Node207356</title>
<path fill="none" stroke="#191970" d="M70.0105,-152.6737C87.5752,-162.8826 116.8852,-178.7487 144,-188 284.7878,-236.0352 459.9219,-260.9353 543.3807,-270.8054"/>
<polygon fill="#191970" stroke="#191970" points="542.9988,-274.2845 553.336,-271.9625 543.807,-267.3313 542.9988,-274.2845"/>
</g>
<!-- Node207381 -->
<g id="node10" class="node">
<title>Node207381</title>
<g id="a_node10"><a xlink:href="quickjs_8c.html#a9d6d0a9704951d01c128975e0d2213f8" target="_top" xlink:title="JS_HasProperty">
<polygon fill="none" stroke="#000000" points="173,-133.5 173,-152.5 262,-152.5 262,-133.5 173,-133.5"/>
<text text-anchor="middle" x="217.5" y="-140.5" font-family="Helvetica,sans-Serif" font-size="10.00" fill="#000000">JS_HasProperty</text>
</a>
</g>
</g>
<!-- Node207349&#45;&gt;Node207381 -->
<g id="edge10" class="edge">
<title>Node207349&#45;&gt;Node207381</title>
<path fill="none" stroke="#191970" d="M108.4431,-143C125.9154,-143 145.2678,-143 162.7611,-143"/>
<polygon fill="#191970" stroke="#191970" points="162.8179,-146.5001 172.8178,-143 162.8178,-139.5001 162.8179,-146.5001"/>
</g>
<!-- Node207649 -->
<g id="node17" class="node">
<title>Node207649</title>
<g id="a_node17"><a xlink:href="quickjs_8h.html#aaab426b47c95d00479b7355b1cf7f56c" target="_top" xlink:title="JS_IsUninitialized">
<polygon fill="none" stroke="#000000" points="544.5,-76.5 544.5,-95.5 639.5,-95.5 639.5,-76.5 544.5,-76.5"/>
<text text-anchor="middle" x="592" y="-83.5" font-family="Helvetica,sans-Serif" font-size="10.00" fill="#000000">JS_IsUninitialized</text>
</a>
</g>
</g>
<!-- Node207349&#45;&gt;Node207649 -->
<g id="edge28" class="edge">
<title>Node207349&#45;&gt;Node207649</title>
<path fill="none" stroke="#191970" d="M94.1306,-133.4207C109.6351,-130.0115 127.5693,-126.4217 144,-124 283.3223,-103.4651 448.7791,-93.0006 534.3363,-88.6114"/>
<polygon fill="#191970" stroke="#191970" points="534.5557,-92.1049 544.3669,-88.106 534.2034,-85.1137 534.5557,-92.1049"/>
</g>
<!-- Node207650 -->
<g id="node18" class="node">
<title>Node207650</title>
<g id="a_node18"><a xlink:href="quickjs_8c.html#a75ac132a3af4de01e1fadeb0bede6ee7" target="_top" xlink:title="JS_ThrowReferenceErrorUninitialized">
<polygon fill="none" stroke="#ff0000" points="502,-38.5 502,-57.5 682,-57.5 682,-38.5 502,-38.5"/>
<text text-anchor="middle" x="592" y="-45.5" font-family="Helvetica,sans-Serif" font-size="10.00" fill="#000000">JS_ThrowReferenceErrorUninitialized</text>
</a>
</g>
</g>
<!-- Node207349&#45;&gt;Node207650 -->
<g id="edge29" class="edge">
<title>Node207349&#45;&gt;Node207650</title>
<path fill="none" stroke="#191970" d="M71.3537,-133.4244C89.0697,-124.1017 117.6346,-110.3022 144,-103 260.6461,-70.6933 399.6239,-57.3494 491.5213,-51.8465"/>
<polygon fill="#191970" stroke="#191970" points="491.8731,-55.3321 501.6542,-51.2601 491.4686,-48.3438 491.8731,-55.3321"/>
</g>
<!-- Node207519 -->
<g id="node19" class="node">
<title>Node207519</title>
<g id="a_node19"><a xlink:href="quickjs_8c.html#adba489eac6c2332de312326782457940" target="_top" xlink:title="JS_ThrowTypeErrorReadOnly">
<polygon fill="none" stroke="#ff0000" points="144,-.5 144,-19.5 291,-19.5 291,-.5 144,-.5"/>
<text text-anchor="middle" x="217.5" y="-7.5" font-family="Helvetica,sans-Serif" font-size="10.00" fill="#000000">JS_ThrowTypeErrorReadOnly</text>
</a>
</g>
</g>
<!-- Node207349&#45;&gt;Node207519 -->
<g id="edge30" class="edge">
<title>Node207349&#45;&gt;Node207519</title>
<path fill="none" stroke="#191970" d="M59.3962,-133.2848C71.6443,-112.11 103.6417,-61.4982 144,-34 150.2538,-29.7389 157.3176,-26.1907 164.5314,-23.248"/>
<polygon fill="#191970" stroke="#191970" points="166.2331,-26.3505 174.3993,-19.6005 163.8061,-19.7847 166.2331,-26.3505"/>
</g>
<!-- Node207351 -->
<g id="node3" class="node">
<title>Node207351</title>
<g id="a_node3"><a xlink:href="quickjs_8c.html#a643df594b75933007bcdbb071b5ea8c5" target="_top" xlink:title="get_shape_prop">
<polygon fill="none" stroke="#000000" points="740.5,-228.5 740.5,-247.5 826.5,-247.5 826.5,-228.5 740.5,-228.5"/>
<text text-anchor="middle" x="783.5" y="-235.5" font-family="Helvetica,sans-Serif" font-size="10.00" fill="#000000">get_shape_prop</text>
</a>
</g>
</g>
<!-- Node207350&#45;&gt;Node207351 -->
<g id="edge2" class="edge">
<title>Node207350&#45;&gt;Node207351</title>
<path fill="none" stroke="#191970" d="M640.3235,-238C667.7573,-238 702.1401,-238 730.3357,-238"/>
<polygon fill="#191970" stroke="#191970" points="730.4193,-241.5001 740.4192,-238 730.4192,-234.5001 730.4193,-241.5001"/>
</g>
<!-- Node207353 -->
<g id="node5" class="node">
<title>Node207353</title>
<g id="a_node5"><a xlink:href="quickjs_8c.html#a06ff303a11e6641cbf1f6634e6a61811" target="_top" xlink:title="__JS_AtomToValue">
<polygon fill="none" stroke="#000000" points="344.5,-304.5 344.5,-323.5 448.5,-323.5 448.5,-304.5 344.5,-304.5"/>
<text text-anchor="middle" x="396.5" y="-311.5" font-family="Helvetica,sans-Serif" font-size="10.00" fill="#000000">__JS_AtomToValue</text>
</a>
</g>
</g>
<!-- Node207352&#45;&gt;Node207353 -->
<g id="edge4" class="edge">
<title>Node207352&#45;&gt;Node207353</title>
<path fill="none" stroke="#191970" d="M264.0629,-307.3411C285.5387,-308.4209 311.3371,-309.7181 334.4363,-310.8795"/>
<polygon fill="#191970" stroke="#191970" points="334.3278,-314.3784 344.491,-311.385 334.6794,-307.3872 334.3278,-314.3784"/>
</g>
<!-- Node207354 -->
<g id="node6" class="node">
<title>Node207354</title>
<g id="a_node6"><a xlink:href="quickjs_8c.html#a288254c06a39c9fca740a7abdad2834e" target="_top" xlink:title="__JS_AtomIsTaggedInt">
<polygon fill="none" stroke="#000000" points="885,-190.5 885,-209.5 1004,-209.5 1004,-190.5 885,-190.5"/>
<text text-anchor="middle" x="944.5" y="-197.5" font-family="Helvetica,sans-Serif" font-size="10.00" fill="#000000">__JS_AtomIsTaggedInt</text>
</a>
</g>
</g>
<!-- Node207353&#45;&gt;Node207354 -->
<g id="edge5" class="edge">
<title>Node207353&#45;&gt;Node207354</title>
<path fill="none" stroke="#191970" d="M409.2682,-323.6593C428.2718,-337.3655 465.6705,-361.8134 502,-371 579.5588,-390.6122 602.6343,-381.0538 682,-371 758.0355,-361.3681 785.3527,-370.6989 849,-328 890.8326,-299.9358 921.3898,-247.2335 935.6052,-219.0012"/>
<polygon fill="#191970" stroke="#191970" points="938.856,-220.3202 940.0937,-209.7979 932.5643,-217.2517 938.856,-220.3202"/>
</g>
<!-- Node207355 -->
<g id="node7" class="node">
<title>Node207355</title>
<g id="a_node7"><a xlink:href="quickjs_8c.html#a89f38938cee8077ce1fbba07946ed185" target="_top" xlink:title="__JS_AtomToUInt32">
<polygon fill="none" stroke="#000000" points="890.5,-152.5 890.5,-171.5 998.5,-171.5 998.5,-152.5 890.5,-152.5"/>
<text text-anchor="middle" x="944.5" y="-159.5" font-family="Helvetica,sans-Serif" font-size="10.00" fill="#000000">__JS_AtomToUInt32</text>
</a>
</g>
</g>
<!-- Node207353&#45;&gt;Node207355 -->
<g id="edge6" class="edge">
<title>Node207353&#45;&gt;Node207355</title>
<path fill="none" stroke="#191970" d="M448.6353,-314.0828C554.1901,-313.2111 788.318,-305.6789 849,-257 878.1542,-233.6126 856.8702,-205.61 885,-181 886.9281,-179.3132 889.0071,-177.7758 891.1926,-176.3748"/>
<polygon fill="#191970" stroke="#191970" points="892.9002,-179.4307 900.0572,-171.6187 889.5907,-173.2624 892.9002,-179.4307"/>
</g>
<!-- Node207353&#45;&gt;Node207356 -->
<g id="edge7" class="edge">
<title>Node207353&#45;&gt;Node207356</title>
<path fill="none" stroke="#191970" d="M445.5806,-304.46C475.428,-298.6585 513.4035,-291.2771 543.1999,-285.4854"/>
<polygon fill="#191970" stroke="#191970" points="544.2229,-288.8522 553.3714,-283.5084 542.8873,-281.9808 544.2229,-288.8522"/>
</g>
<!-- Node207357 -->
<g id="node9" class="node">
<title>Node207357</title>
<g id="a_node9"><a xlink:href="quickjs_8c.html#a0ee6a3654a6016393fac5e1c108f403a" target="_top" xlink:title="JS_NewString">
<polygon fill="none" stroke="#ff0000" points="552,-342.5 552,-361.5 632,-361.5 632,-342.5 552,-342.5"/>
<text text-anchor="middle" x="592" y="-349.5" font-family="Helvetica,sans-Serif" font-size="10.00" fill="#000000">JS_NewString</text>
</a>
</g>
</g>
<!-- Node207353&#45;&gt;Node207357 -->
<g id="edge8" class="edge">
<title>Node207353&#45;&gt;Node207357</title>
<path fill="none" stroke="#191970" d="M445.5806,-323.54C474.9222,-329.2432 512.1186,-336.4732 541.6779,-342.2187"/>
<polygon fill="#191970" stroke="#191970" points="541.3053,-345.7117 551.7894,-344.1841 542.641,-338.8403 541.3053,-345.7117"/>
</g>
<!-- Node207382 -->
<g id="node11" class="node">
<title>Node207382</title>
<g id="a_node11"><a xlink:href="quickjs_8c.html#add3eea1f6d626963ade3c28a1fd563d1" target="_top" xlink:title="JS_AtomIsNumericIndex">
<polygon fill="none" stroke="#000000" points="529,-114.5 529,-133.5 655,-133.5 655,-114.5 529,-114.5"/>
<text text-anchor="middle" x="592" y="-121.5" font-family="Helvetica,sans-Serif" font-size="10.00" fill="#000000">JS_AtomIsNumericIndex</text>
</a>
</g>
</g>
<!-- Node207381&#45;&gt;Node207382 -->
<g id="edge11" class="edge">
<title>Node207381&#45;&gt;Node207382</title>
<path fill="none" stroke="#191970" d="M262.3015,-140.727C325.7545,-137.5078 442.5409,-131.5827 518.7168,-127.718"/>
<polygon fill="#191970" stroke="#191970" points="518.9134,-131.2126 528.7232,-127.2103 518.5586,-124.2216 518.9134,-131.2126"/>
</g>
<!-- Node207648 -->
<g id="node16" class="node">
<title>Node207648</title>
<g id="a_node16"><a xlink:href="quickjs_8c.html#ad13892c0a0f11781b566808876658099" target="_top" xlink:title="JS_GetOwnPropertyInternal">
<polygon fill="none" stroke="#ff0000" points="327,-152.5 327,-171.5 466,-171.5 466,-152.5 327,-152.5"/>
<text text-anchor="middle" x="396.5" y="-159.5" font-family="Helvetica,sans-Serif" font-size="10.00" fill="#000000">JS_GetOwnPropertyInternal</text>
</a>
</g>
</g>
<!-- Node207381&#45;&gt;Node207648 -->
<g id="edge20" class="edge">
<title>Node207381&#45;&gt;Node207648</title>
<path fill="none" stroke="#191970" d="M262.2075,-147.7455C278.7973,-149.5064 298.1534,-151.561 316.9205,-153.553"/>
<polygon fill="#191970" stroke="#191970" points="316.649,-157.0438 326.9626,-154.6189 317.388,-150.0829 316.649,-157.0438"/>
</g>
<!-- Node207383 -->
<g id="node12" class="node">
<title>Node207383</title>
<g id="a_node12"><a xlink:href="quickjs_8c.html#ab4e100a9cde5f7ec87c92f5e766dbbab" target="_top" xlink:title="JS_AtomIsNumericIndex1">
<polygon fill="none" stroke="#ff0000" points="718,-114.5 718,-133.5 849,-133.5 849,-114.5 718,-114.5"/>
<text text-anchor="middle" x="783.5" y="-121.5" font-family="Helvetica,sans-Serif" font-size="10.00" fill="#000000">JS_AtomIsNumericIndex1</text>
</a>
</g>
</g>
<!-- Node207382&#45;&gt;Node207383 -->
<g id="edge12" class="edge">
<title>Node207382&#45;&gt;Node207383</title>
<path fill="none" stroke="#191970" d="M655.235,-124C671.9921,-124 690.2568,-124 707.611,-124"/>
<polygon fill="#191970" stroke="#191970" points="707.7055,-127.5001 717.7054,-124 707.7054,-120.5001 707.7055,-127.5001"/>
</g>
<!-- Node207386 -->
<g id="node13" class="node">
<title>Node207386</title>
<g id="a_node13"><a xlink:href="quickjs_8h.html#afaa20c47565bc704c6c85f3d77254e7d" target="_top" xlink:title="JS_FreeValue">
<polygon fill="none" stroke="#ff0000" points="905.5,-95.5 905.5,-114.5 983.5,-114.5 983.5,-95.5 905.5,-95.5"/>
<text text-anchor="middle" x="944.5" y="-102.5" font-family="Helvetica,sans-Serif" font-size="10.00" fill="#000000">JS_FreeValue</text>
</a>
</g>
</g>
<!-- Node207382&#45;&gt;Node207386 -->
<g id="edge17" class="edge">
<title>Node207382&#45;&gt;Node207386</title>
<path fill="none" stroke="#191970" d="M643.298,-114.4864C666.0867,-110.7207 693.2924,-106.8524 718,-105 778.7531,-100.4452 848.9304,-101.4035 894.8728,-102.8702"/>
<polygon fill="#191970" stroke="#191970" points="895.0386,-106.3777 905.1518,-103.2198 895.2766,-99.3818 895.0386,-106.3777"/>
</g>
<!-- Node207419 -->
<g id="node14" class="node">
<title>Node207419</title>
<g id="a_node14"><a xlink:href="quickjs_8h.html#ad80a83d73e9b7d872b88fbf2943aebe9" target="_top" xlink:title="JS_IsException">
<polygon fill="none" stroke="#000000" points="901.5,-19.5 901.5,-38.5 987.5,-38.5 987.5,-19.5 901.5,-19.5"/>
<text text-anchor="middle" x="944.5" y="-26.5" font-family="Helvetica,sans-Serif" font-size="10.00" fill="#000000">JS_IsException</text>
</a>
</g>
</g>
<!-- Node207382&#45;&gt;Node207419 -->
<g id="edge18" class="edge">
<title>Node207382&#45;&gt;Node207419</title>
<path fill="none" stroke="#191970" d="M655.3312,-118.3727C664.9425,-115.4124 674.2285,-111.1347 682,-105 711.3367,-81.8419 686.4172,-48.9866 718,-29 774.4595,6.7294 855.7524,-4.9703 904.0413,-16.8792"/>
<polygon fill="#191970" stroke="#191970" points="903.2662,-20.2938 913.8238,-19.4066 905.0173,-13.5164 903.2662,-20.2938"/>
</g>
<!-- Node207584 -->
<g id="node15" class="node">
<title>Node207584</title>
<g id="a_node15"><a xlink:href="quickjs_8h.html#a4e407128a9605afb77523e49e9a627fd" target="_top" xlink:title="JS_IsUndefined">
<polygon fill="none" stroke="#000000" points="740.5,-38.5 740.5,-57.5 826.5,-57.5 826.5,-38.5 740.5,-38.5"/>
<text text-anchor="middle" x="783.5" y="-45.5" font-family="Helvetica,sans-Serif" font-size="10.00" fill="#000000">JS_IsUndefined</text>
</a>
</g>
</g>
<!-- Node207382&#45;&gt;Node207584 -->
<g id="edge19" class="edge">
<title>Node207382&#45;&gt;Node207584</title>
<path fill="none" stroke="#191970" d="M655.4521,-115.0859C664.6389,-112.5278 673.7632,-109.236 682,-105 701.3022,-95.0734 699.4572,-83.2817 718,-72 724.8383,-67.8395 732.5116,-64.2275 740.1329,-61.1582"/>
<polygon fill="#191970" stroke="#191970" points="741.5659,-64.3586 749.6919,-57.5602 739.1,-57.8073 741.5659,-64.3586"/>
</g>
<!-- Node207383&#45;&gt;Node207354 -->
<g id="edge13" class="edge">
<title>Node207383&#45;&gt;Node207354</title>
<path fill="none" stroke="#191970" d="M798.4796,-133.691C817.8579,-145.924 852.9398,-167.0508 885,-181 890.0338,-183.1902 895.4036,-185.2572 900.7795,-187.164"/>
<polygon fill="#191970" stroke="#191970" points="899.7975,-190.5266 910.3917,-190.4154 902.0405,-183.8957 899.7975,-190.5266"/>
</g>
<!-- Node207383&#45;&gt;Node207355 -->
<g id="edge14" class="edge">
<title>Node207383&#45;&gt;Node207355</title>
<path fill="none" stroke="#191970" d="M824.1271,-133.589C845.4685,-138.6261 871.8119,-144.8438 894.4081,-150.1771"/>
<polygon fill="#191970" stroke="#191970" points="893.6284,-153.5891 904.165,-152.4799 895.2365,-146.7763 893.6284,-153.5891"/>
</g>
<!-- Node207383&#45;&gt;Node207386 -->
<g id="edge15" class="edge">
<title>Node207383&#45;&gt;Node207386</title>
<path fill="none" stroke="#191970" d="M849.4494,-116.2172C864.6831,-114.4194 880.636,-112.5367 895.0269,-110.8384"/>
<polygon fill="#191970" stroke="#191970" points="895.6762,-114.2862 905.197,-109.6382 894.8557,-107.3344 895.6762,-114.2862"/>
</g>
<!-- Node207383&#45;&gt;Node207419 -->
<g id="edge16" class="edge">
<title>Node207383&#45;&gt;Node207419</title>
<path fill="none" stroke="#191970" d="M799.8235,-114.3681C828.0297,-97.7247 886.0655,-63.48 919.4241,-43.7963"/>
<polygon fill="#191970" stroke="#191970" points="921.2995,-46.7537 928.1332,-38.6574 917.7421,-40.725 921.2995,-46.7537"/>
</g>
<!-- Node207648&#45;&gt;Node207350 -->
<g id="edge23" class="edge">
<title>Node207648&#45;&gt;Node207350</title>
<path fill="none" stroke="#191970" d="M416.2942,-171.627C430.2126,-178.4101 449.264,-187.7225 466,-196 482.0345,-203.9306 485.2716,-207.6628 502,-214 513.8131,-218.4752 526.797,-222.4539 539.1372,-225.8225"/>
<polygon fill="#191970" stroke="#191970" points="538.2989,-229.221 548.8611,-228.391 540.0866,-222.4531 538.2989,-229.221"/>
</g>
<!-- Node207648&#45;&gt;Node207354 -->
<g id="edge21" class="edge">
<title>Node207648&#45;&gt;Node207354</title>
<path fill="none" stroke="#191970" d="M462.2557,-171.5289C475.3992,-173.2068 489.1224,-174.7982 502,-176 633.5285,-188.2752 787.6814,-194.8806 874.9416,-197.8998"/>
<polygon fill="#191970" stroke="#191970" points="874.873,-201.3994 884.9864,-198.2417 875.1112,-194.4035 874.873,-201.3994"/>
</g>
<!-- Node207648&#45;&gt;Node207355 -->
<g id="edge22" class="edge">
<title>Node207648&#45;&gt;Node207355</title>
<path fill="none" stroke="#191970" d="M466.1827,-162C573.1735,-162 776.388,-162 880.1048,-162"/>
<polygon fill="#191970" stroke="#191970" points="880.1278,-165.5001 890.1278,-162 880.1278,-158.5001 880.1278,-165.5001"/>
</g>
<!-- Node207648&#45;&gt;Node207356 -->
<g id="edge25" class="edge">
<title>Node207648&#45;&gt;Node207356</title>
<path fill="none" stroke="#191970" d="M404.0735,-171.5999C419.9742,-191.0458 458.9417,-235.0971 502,-257 514.7136,-263.4671 529.5117,-267.7344 543.3921,-270.5496"/>
<polygon fill="#191970" stroke="#191970" points="542.8286,-274.0045 553.294,-272.3536 544.0833,-267.1178 542.8286,-274.0045"/>
</g>
<!-- Node207648&#45;&gt;Node207382 -->
<g id="edge24" class="edge">
<title>Node207648&#45;&gt;Node207382</title>
<path fill="none" stroke="#191970" d="M445.5806,-152.46C472.0741,-147.3104 504.9717,-140.916 532.8688,-135.4935"/>
<polygon fill="#191970" stroke="#191970" points="533.7508,-138.8877 542.8992,-133.5439 532.4151,-132.0163 533.7508,-138.8877"/>
</g>
<!-- Node207648&#45;&gt;Node207649 -->
<g id="edge26" class="edge">
<title>Node207648&#45;&gt;Node207649</title>
<path fill="none" stroke="#191970" d="M410.8916,-152.4778C430.6364,-139.8305 467.6026,-117.6225 502,-105 512.2155,-101.2513 523.3692,-98.1521 534.2379,-95.6222"/>
<polygon fill="#191970" stroke="#191970" points="535.0871,-99.0192 544.1041,-93.4566 533.5863,-92.182 535.0871,-99.0192"/>
</g>
<!-- Node207648&#45;&gt;Node207650 -->
<g id="edge27" class="edge">
<title>Node207648&#45;&gt;Node207650</title>
<path fill="none" stroke="#191970" d="M404.0735,-152.4001C419.9742,-132.9542 458.9417,-88.9029 502,-67 506.8039,-64.5564 511.9054,-62.4268 517.1425,-60.571"/>
<polygon fill="#191970" stroke="#191970" points="518.2241,-63.8998 526.6809,-57.5175 516.0899,-57.2331 518.2241,-63.8998"/>
</g>
</g>
</svg>
