<?xml version="1.0" encoding="UTF-8" standalone="no"?>
<!DOCTYPE svg PUBLIC "-//W3C//DTD SVG 1.1//EN"
 "http://www.w3.org/Graphics/SVG/1.1/DTD/svg11.dtd">
<!-- Generated by graphviz version 2.40.1 (20161225.0304)
 -->
<!-- Title: js_parse_init Pages: 1 -->
<svg width="494pt" height="104pt"
 viewBox="0.00 0.00 494.00 104.00" xmlns="http://www.w3.org/2000/svg" xmlns:xlink="http://www.w3.org/1999/xlink">
<g id="graph0" class="graph" transform="scale(1 1) rotate(0) translate(4 100)">
<title>js_parse_init</title>
<!-- Node339853 -->
<g id="node1" class="node">
<title>Node339853</title>
<polygon fill="#bfbfbf" stroke="#000000" points="0,-57.5 0,-76.5 71,-76.5 71,-57.5 0,-57.5"/>
<text text-anchor="middle" x="35.5" y="-64.5" font-family="Helvetica,sans-Serif" font-size="10.00" fill="#000000">js_parse_init</text>
</g>
<!-- Node339854 -->
<g id="node2" class="node">
<title>Node339854</title>
<g id="a_node2"><a xlink:href="quickjs_8c.html#a46a8a7e155cfd0af984f6725f060f0d6" target="_top" xlink:title="__JS_EvalInternal">
<polygon fill="none" stroke="#000000" points="107,-76.5 107,-95.5 203,-95.5 203,-76.5 107,-76.5"/>
<text text-anchor="middle" x="155" y="-83.5" font-family="Helvetica,sans-Serif" font-size="10.00" fill="#000000">__JS_EvalInternal</text>
</a>
</g>
</g>
<!-- Node339853&#45;&gt;Node339854 -->
<g id="edge1" class="edge">
<title>Node339853&#45;&gt;Node339854</title>
<path fill="none" stroke="#191970" d="M81.1132,-74.2523C89.5834,-75.599 98.4556,-77.0097 106.9947,-78.3674"/>
<polygon fill="#191970" stroke="#191970" points="81.456,-70.7629 71.0304,-72.6492 80.3567,-77.6761 81.456,-70.7629"/>
</g>
<!-- Node339857 -->
<g id="node5" class="node">
<title>Node339857</title>
<g id="a_node5"><a xlink:href="quickjs_8c.html#a85a2abf65c29c82c085c9b7430538096" target="_top" xlink:title="JS_ParseJSON">
<polygon fill="none" stroke="#000000" points="112,-38.5 112,-57.5 198,-57.5 198,-38.5 112,-38.5"/>
<text text-anchor="middle" x="155" y="-45.5" font-family="Helvetica,sans-Serif" font-size="10.00" fill="#000000">JS_ParseJSON</text>
</a>
</g>
</g>
<!-- Node339853&#45;&gt;Node339857 -->
<g id="edge4" class="edge">
<title>Node339853&#45;&gt;Node339857</title>
<path fill="none" stroke="#191970" d="M80.9158,-59.7791C91.0425,-58.169 101.7529,-56.4661 111.7878,-54.8706"/>
<polygon fill="#191970" stroke="#191970" points="80.3567,-56.3239 71.0304,-61.3508 81.456,-63.2371 80.3567,-56.3239"/>
</g>
<!-- Node339855 -->
<g id="node3" class="node">
<title>Node339855</title>
<g id="a_node3"><a xlink:href="quickjs_8c.html#acbcccb7ec58fd4a024ea1d01e5d04561" target="_top" xlink:title="JS_AddIntrinsicEval">
<polygon fill="none" stroke="#000000" points="247.5,-76.5 247.5,-95.5 352.5,-95.5 352.5,-76.5 247.5,-76.5"/>
<text text-anchor="middle" x="300" y="-83.5" font-family="Helvetica,sans-Serif" font-size="10.00" fill="#000000">JS_AddIntrinsicEval</text>
</a>
</g>
</g>
<!-- Node339854&#45;&gt;Node339855 -->
<g id="edge2" class="edge">
<title>Node339854&#45;&gt;Node339855</title>
<path fill="none" stroke="#191970" d="M213.4434,-86C224.6861,-86 236.3978,-86 247.4403,-86"/>
<polygon fill="#191970" stroke="#191970" points="213.2829,-82.5001 203.2829,-86 213.2829,-89.5001 213.2829,-82.5001"/>
</g>
<!-- Node339856 -->
<g id="node4" class="node">
<title>Node339856</title>
<g id="a_node4"><a xlink:href="quickjs_8c.html#ad8aedb643b8753b7a15f6cb2df61945e" target="_top" xlink:title="JS_NewContext">
<polygon fill="none" stroke="#000000" points="397,-76.5 397,-95.5 486,-95.5 486,-76.5 397,-76.5"/>
<text text-anchor="middle" x="441.5" y="-83.5" font-family="Helvetica,sans-Serif" font-size="10.00" fill="#000000">JS_NewContext</text>
</a>
</g>
</g>
<!-- Node339855&#45;&gt;Node339856 -->
<g id="edge3" class="edge">
<title>Node339855&#45;&gt;Node339856</title>
<path fill="none" stroke="#191970" d="M362.9987,-86C374.3439,-86 385.9581,-86 396.6556,-86"/>
<polygon fill="#191970" stroke="#191970" points="362.6894,-82.5001 352.6894,-86 362.6893,-89.5001 362.6894,-82.5001"/>
</g>
<!-- Node339858 -->
<g id="node6" class="node">
<title>Node339858</title>
<g id="a_node6"><a xlink:href="classqjs_1_1Context.html#ace3f753ae2ad418064ea2d2382579a9d" target="_top" xlink:title="qjs::Context::fromJSON">
<polygon fill="none" stroke="#000000" points="239,-38.5 239,-57.5 361,-57.5 361,-38.5 239,-38.5"/>
<text text-anchor="middle" x="300" y="-45.5" font-family="Helvetica,sans-Serif" font-size="10.00" fill="#000000">qjs::Context::fromJSON</text>
</a>
</g>
</g>
<!-- Node339857&#45;&gt;Node339858 -->
<g id="edge5" class="edge">
<title>Node339857&#45;&gt;Node339858</title>
<path fill="none" stroke="#191970" d="M208.2485,-48C218.1892,-48 228.6505,-48 238.8082,-48"/>
<polygon fill="#191970" stroke="#191970" points="208.1122,-44.5001 198.1122,-48 208.1122,-51.5001 208.1122,-44.5001"/>
</g>
<!-- Node339859 -->
<g id="node7" class="node">
<title>Node339859</title>
<g id="a_node7"><a xlink:href="quickjs_8c.html#a8d95b2b91f50339b621237ad13f9cc47" target="_top" xlink:title="js_json_parse">
<polygon fill="none" stroke="#000000" points="261.5,-.5 261.5,-19.5 338.5,-19.5 338.5,-.5 261.5,-.5"/>
<text text-anchor="middle" x="300" y="-7.5" font-family="Helvetica,sans-Serif" font-size="10.00" fill="#000000">js_json_parse</text>
</a>
</g>
</g>
<!-- Node339857&#45;&gt;Node339859 -->
<g id="edge6" class="edge">
<title>Node339857&#45;&gt;Node339859</title>
<path fill="none" stroke="#191970" d="M201.4928,-35.8157C221.6237,-30.54 244.8383,-24.4562 263.6735,-19.5201"/>
<polygon fill="#191970" stroke="#191970" points="200.3757,-32.4902 191.5896,-38.411 202.1503,-39.2615 200.3757,-32.4902"/>
</g>
</g>
</svg>
