<?xml version="1.0" encoding="UTF-8" standalone="no"?>
<!DOCTYPE svg PUBLIC "-//W3C//DTD SVG 1.1//EN"
 "http://www.w3.org/Graphics/SVG/1.1/DTD/svg11.dtd">
<!-- Generated by graphviz version 2.40.1 (20161225.0304)
 -->
<!-- Title: js_aggregate_error_constructor Pages: 1 -->
<!--zoomable 390 -->
<svg id="main" version="1.1" xmlns="http://www.w3.org/2000/svg" xmlns:xlink="http://www.w3.org/1999/xlink" xml:space="preserve" onload="init(evt)">
<style type="text/css"><![CDATA[
.edge:hover path { stroke: red; }
.edge:hover polygon { stroke: red; fill: red; }
]]></style>
<script type="text/javascript"><![CDATA[
var edges = document.getElementsByTagName('g');
if (edges && edges.length) {
  for (var i=0;i<edges.length;i++) {
    if (edges[i].id.substr(0,4)=='edge') {
      edges[i].setAttribute('class','edge');
    }
  }
}
]]></script>
        <defs>
                <circle id="rim" cx="0" cy="0" r="7"/>
                <circle id="rim2" cx="0" cy="0" r="3.5"/>
                <g id="zoomPlus">
                        <use xlink:href="#rim" fill="#404040">
                                <set attributeName="fill" to="#808080" begin="zoomplus.mouseover" end="zoomplus.mouseout"/>
                        </use>
                        <path d="M-4,0h8M0,-4v8" fill="none" stroke="white" stroke-width="1.5" pointer-events="none"/>
                </g>
                <g id="zoomMin">
                        <use xlink:href="#rim" fill="#404040">
                                <set attributeName="fill" to="#808080" begin="zoomminus.mouseover" end="zoomminus.mouseout"/>
                        </use>
                        <path d="M-4,0h8" fill="none" stroke="white" stroke-width="1.5" pointer-events="none"/>
                </g>
                <g id="dirArrow">
                        <path fill="none" stroke="white" stroke-width="1.5" d="M0,-3.0v7 M-2.5,-0.5L0,-3.0L2.5,-0.5"/>
                </g>
               <g id="resetDef">
                       <use xlink:href="#rim2" fill="#404040">
                               <set attributeName="fill" to="#808080" begin="reset.mouseover" end="reset.mouseout"/>
                       </use>
               </g>
        </defs>

<script type="text/javascript">
var viewWidth = 698;
var viewHeight = 390;
var sectionId = 'dynsection-1380';
</script>
<script xlink:href="svgpan.js"/>
<svg id="graph" class="graph">
<g id="viewport">
<title>js_aggregate_error_constructor</title>
<!-- Node369568 -->
<g id="node1" class="node">
<title>Node369568</title>
<polygon fill="#bfbfbf" stroke="#000000" points="0,-71 0,-101 97,-101 97,-71 0,-71"/>
<text text-anchor="start" x="8" y="-89" font-family="Helvetica,sans-Serif" font-size="10.00" fill="#000000">js_aggregate_error</text>
<text text-anchor="middle" x="48.5" y="-78" font-family="Helvetica,sans-Serif" font-size="10.00" fill="#000000">_constructor</text>
</g>
<!-- Node369569 -->
<g id="node2" class="node">
<title>Node369569</title>
<g id="a_node2"><a xlink:href="quickjs_8h.html#a775522f2d084fc8fa0fcb33f390006b4" target="_top" xlink:title="JS_DupValue">
<polygon fill="none" stroke="#000000" points="603,-86.5 603,-105.5 680,-105.5 680,-86.5 603,-86.5"/>
<text text-anchor="middle" x="641.5" y="-93.5" font-family="Helvetica,sans-Serif" font-size="10.00" fill="#000000">JS_DupValue</text>
</a>
</g>
</g>
<!-- Node369568&#45;&gt;Node369569 -->
<g id="edge1" class="edge">
<title>Node369568&#45;&gt;Node369569</title>
<path fill="none" stroke="#191970" d="M97.34,-98.906C108.9453,-101.4362 121.3432,-103.7056 133,-105 320.2933,-125.797 368.8207,-114.9931 557,-105 568.6224,-104.3828 581.1063,-103.2913 592.8168,-102.0764"/>
<polygon fill="#191970" stroke="#191970" points="593.3037,-105.5442 602.8678,-100.9859 592.5486,-98.5851 593.3037,-105.5442"/>
</g>
<!-- Node369570 -->
<g id="node3" class="node">
<title>Node369570</title>
<g id="a_node3"><a xlink:href="quickjs_8h.html#ad80a83d73e9b7d872b88fbf2943aebe9" target="_top" xlink:title="JS_IsException">
<polygon fill="none" stroke="#000000" points="155.5,-76.5 155.5,-95.5 241.5,-95.5 241.5,-76.5 155.5,-76.5"/>
<text text-anchor="middle" x="198.5" y="-83.5" font-family="Helvetica,sans-Serif" font-size="10.00" fill="#000000">JS_IsException</text>
</a>
</g>
</g>
<!-- Node369568&#45;&gt;Node369570 -->
<g id="edge2" class="edge">
<title>Node369568&#45;&gt;Node369570</title>
<path fill="none" stroke="#191970" d="M97.2007,-86C112.4986,-86 129.4678,-86 145.0748,-86"/>
<polygon fill="#191970" stroke="#191970" points="145.1028,-89.5001 155.1028,-86 145.1027,-82.5001 145.1028,-89.5001"/>
</g>
<!-- Node369571 -->
<g id="node4" class="node">
<title>Node369571</title>
<g id="a_node4"><a xlink:href="quickjs_8c.html#a73738c650f11459db0d7af3dcdf8316b" target="_top" xlink:title="JS_NewObjectProtoClass">
<polygon fill="none" stroke="#000000" points="133,-38.5 133,-57.5 264,-57.5 264,-38.5 133,-38.5"/>
<text text-anchor="middle" x="198.5" y="-45.5" font-family="Helvetica,sans-Serif" font-size="10.00" fill="#000000">JS_NewObjectProtoClass</text>
</a>
</g>
</g>
<!-- Node369568&#45;&gt;Node369571 -->
<g id="edge3" class="edge">
<title>Node369568&#45;&gt;Node369571</title>
<path fill="none" stroke="#191970" d="M97.2007,-73.6625C114.5062,-69.2784 133.9506,-64.3525 151.1421,-59.9973"/>
<polygon fill="#191970" stroke="#191970" points="152.1365,-63.3561 160.9707,-57.5074 150.4174,-56.5704 152.1365,-63.3561"/>
</g>
<!-- Node369572 -->
<g id="node5" class="node">
<title>Node369572</title>
<g id="a_node5"><a xlink:href="quickjs_8c.html#aad24bdf2bcbb0ce55462fe6074dac8a5" target="_top" xlink:title="find_hashed_shape_proto">
<polygon fill="none" stroke="#000000" points="302.5,-38.5 302.5,-57.5 430.5,-57.5 430.5,-38.5 302.5,-38.5"/>
<text text-anchor="middle" x="366.5" y="-45.5" font-family="Helvetica,sans-Serif" font-size="10.00" fill="#000000">find_hashed_shape_proto</text>
</a>
</g>
</g>
<!-- Node369571&#45;&gt;Node369572 -->
<g id="edge4" class="edge">
<title>Node369571&#45;&gt;Node369572</title>
<path fill="none" stroke="#191970" d="M264.4159,-48C273.597,-48 283.0807,-48 292.3996,-48"/>
<polygon fill="#191970" stroke="#191970" points="292.4248,-51.5001 302.4247,-48 292.4247,-44.5001 292.4248,-51.5001"/>
</g>
<!-- Node369576 -->
<g id="node8" class="node">
<title>Node369576</title>
<g id="a_node8"><a xlink:href="quickjs_8c.html#aab0be018b8f7bdcff45226f502c3f820" target="_top" xlink:title="get_proto_obj">
<polygon fill="none" stroke="#000000" points="329,-.5 329,-19.5 404,-19.5 404,-.5 329,-.5"/>
<text text-anchor="middle" x="366.5" y="-7.5" font-family="Helvetica,sans-Serif" font-size="10.00" fill="#000000">get_proto_obj</text>
</a>
</g>
</g>
<!-- Node369571&#45;&gt;Node369576 -->
<g id="edge7" class="edge">
<title>Node369571&#45;&gt;Node369576</title>
<path fill="none" stroke="#191970" d="M240.8935,-38.411C264.7294,-33.0195 294.5451,-26.2755 319.1453,-20.7112"/>
<polygon fill="#191970" stroke="#191970" points="320.0056,-24.1051 328.987,-18.4851 318.4612,-17.2776 320.0056,-24.1051"/>
</g>
<!-- Node369577 -->
<g id="node9" class="node">
<title>Node369577</title>
<g id="a_node9"><a xlink:href="quickjs_8c.html#aed229eb80b3b03a2275471dee93c69d6" target="_top" xlink:title="js_dup_shape">
<polygon fill="none" stroke="#000000" points="603,-361.5 603,-380.5 680,-380.5 680,-361.5 603,-361.5"/>
<text text-anchor="middle" x="641.5" y="-368.5" font-family="Helvetica,sans-Serif" font-size="10.00" fill="#000000">js_dup_shape</text>
</a>
</g>
</g>
<!-- Node369571&#45;&gt;Node369577 -->
<g id="edge8" class="edge">
<title>Node369571&#45;&gt;Node369577</title>
<path fill="none" stroke="#191970" d="M251.65,-57.5785C256.2605,-60.0543 260.4954,-63.1453 264,-67 321.8171,-130.5929 252.7336,-185.2173 300,-257 349.8267,-332.671 382.357,-344.509 469,-371 509.4025,-383.353 557.6604,-382.0912 592.8465,-378.4688"/>
<polygon fill="#191970" stroke="#191970" points="593.32,-381.9376 602.8642,-377.3378 592.5347,-374.9818 593.32,-381.9376"/>
</g>
<!-- Node369578 -->
<g id="node10" class="node">
<title>Node369578</title>
<g id="a_node10"><a xlink:href="quickjs_8c.html#ad6926e49955be5e10423f6df8d8cff3e" target="_top" xlink:title="js_new_shape">
<polygon fill="none" stroke="#000000" points="327,-76.5 327,-95.5 406,-95.5 406,-76.5 327,-76.5"/>
<text text-anchor="middle" x="366.5" y="-83.5" font-family="Helvetica,sans-Serif" font-size="10.00" fill="#000000">js_new_shape</text>
</a>
</g>
</g>
<!-- Node369571&#45;&gt;Node369578 -->
<g id="edge9" class="edge">
<title>Node369571&#45;&gt;Node369578</title>
<path fill="none" stroke="#191970" d="M240.8935,-57.589C263.9431,-62.8026 292.5843,-69.281 316.6939,-74.7343"/>
<polygon fill="#191970" stroke="#191970" points="316.1938,-78.2096 326.7196,-77.0021 317.7382,-71.382 316.1938,-78.2096"/>
</g>
<!-- Node369592 -->
<g id="node13" class="node">
<title>Node369592</title>
<g id="a_node13"><a xlink:href="quickjs_8c.html#a030c2e98b1775a7e3bdd13be1400b1fe" target="_top" xlink:title="JS_NewObjectFromShape">
<polygon fill="none" stroke="#000000" points="300,-228.5 300,-247.5 433,-247.5 433,-228.5 300,-228.5"/>
<text text-anchor="middle" x="366.5" y="-235.5" font-family="Helvetica,sans-Serif" font-size="10.00" fill="#000000">JS_NewObjectFromShape</text>
</a>
</g>
</g>
<!-- Node369571&#45;&gt;Node369592 -->
<g id="edge14" class="edge">
<title>Node369571&#45;&gt;Node369592</title>
<path fill="none" stroke="#191970" d="M247.0266,-57.5307C253.0933,-59.9956 258.9356,-63.0972 264,-67 291.2384,-87.9904 337.9451,-179.4169 357.488,-219.2909"/>
<polygon fill="#191970" stroke="#191970" points="354.4221,-220.9894 361.9434,-228.4514 360.7171,-217.9278 354.4221,-220.9894"/>
</g>
<!-- Node369573 -->
<g id="node6" class="node">
<title>Node369573</title>
<g id="a_node6"><a xlink:href="quickjs_8c.html#a8291bf195606b5d1b0faed795b6dc3ff" target="_top" xlink:title="get_shape_hash">
<polygon fill="none" stroke="#000000" points="469,-38.5 469,-57.5 557,-57.5 557,-38.5 469,-38.5"/>
<text text-anchor="middle" x="513" y="-45.5" font-family="Helvetica,sans-Serif" font-size="10.00" fill="#000000">get_shape_hash</text>
</a>
</g>
</g>
<!-- Node369572&#45;&gt;Node369573 -->
<g id="edge5" class="edge">
<title>Node369572&#45;&gt;Node369573</title>
<path fill="none" stroke="#191970" d="M430.757,-48C440.0295,-48 449.4972,-48 458.5536,-48"/>
<polygon fill="#191970" stroke="#191970" points="458.5714,-51.5001 468.5714,-48 458.5714,-44.5001 458.5714,-51.5001"/>
</g>
<!-- Node369574 -->
<g id="node7" class="node">
<title>Node369574</title>
<g id="a_node7"><a xlink:href="quickjs_8c.html#afeaafcef811076df11d1552bcc7f6a2a" target="_top" xlink:title="shape_initial_hash">
<polygon fill="none" stroke="#ff0000" points="593,-10.5 593,-29.5 690,-29.5 690,-10.5 593,-10.5"/>
<text text-anchor="middle" x="641.5" y="-17.5" font-family="Helvetica,sans-Serif" font-size="10.00" fill="#000000">shape_initial_hash</text>
</a>
</g>
</g>
<!-- Node369572&#45;&gt;Node369574 -->
<g id="edge6" class="edge">
<title>Node369572&#45;&gt;Node369574</title>
<path fill="none" stroke="#191970" d="M410.7049,-38.4942C428.7072,-34.9665 449.7688,-31.2741 469,-29 506.6499,-24.5478 549.1822,-22.298 582.593,-21.1612"/>
<polygon fill="#191970" stroke="#191970" points="582.7692,-24.6575 592.6535,-20.8429 582.5478,-17.661 582.7692,-24.6575"/>
</g>
<!-- Node369579 -->
<g id="node11" class="node">
<title>Node369579</title>
<g id="a_node11"><a xlink:href="quickjs_8c.html#a1030d2020be7d911eb62869f21cc3b70" target="_top" xlink:title="js_new_shape2">
<polygon fill="none" stroke="#ff0000" points="471,-76.5 471,-95.5 555,-95.5 555,-76.5 471,-76.5"/>
<text text-anchor="middle" x="513" y="-83.5" font-family="Helvetica,sans-Serif" font-size="10.00" fill="#000000">js_new_shape2</text>
</a>
</g>
</g>
<!-- Node369578&#45;&gt;Node369579 -->
<g id="edge10" class="edge">
<title>Node369578&#45;&gt;Node369579</title>
<path fill="none" stroke="#191970" d="M406.145,-86C422.9406,-86 442.7457,-86 460.7132,-86"/>
<polygon fill="#191970" stroke="#191970" points="460.7582,-89.5001 470.7582,-86 460.7582,-82.5001 460.7582,-89.5001"/>
</g>
<!-- Node369579&#45;&gt;Node369569 -->
<g id="edge12" class="edge">
<title>Node369579&#45;&gt;Node369569</title>
<path fill="none" stroke="#191970" d="M555.0757,-89.2744C567.0843,-90.2089 580.2709,-91.2351 592.6475,-92.1982"/>
<polygon fill="#191970" stroke="#191970" points="592.5682,-95.7026 602.8096,-92.9891 593.1114,-88.7237 592.5682,-95.7026"/>
</g>
<!-- Node369579&#45;&gt;Node369574 -->
<g id="edge13" class="edge">
<title>Node369579&#45;&gt;Node369574</title>
<path fill="none" stroke="#191970" d="M536.49,-76.3715C543.1792,-73.4911 550.4312,-70.235 557,-67 577.268,-57.0184 599.5799,-44.5417 616.1849,-34.9522"/>
<polygon fill="#191970" stroke="#191970" points="618.3611,-37.7354 625.2436,-29.6804 614.8402,-31.6853 618.3611,-37.7354"/>
</g>
<!-- Node369580 -->
<g id="node12" class="node">
<title>Node369580</title>
<g id="a_node12"><a xlink:href="quickjs_8c.html#a9780456a71703c53244b88831bc8fb7a" target="_top" xlink:title="add_gc_object">
<polygon fill="none" stroke="#ff0000" points="601.5,-133.5 601.5,-152.5 681.5,-152.5 681.5,-133.5 601.5,-133.5"/>
<text text-anchor="middle" x="641.5" y="-140.5" font-family="Helvetica,sans-Serif" font-size="10.00" fill="#000000">add_gc_object</text>
</a>
</g>
</g>
<!-- Node369579&#45;&gt;Node369580 -->
<g id="edge11" class="edge">
<title>Node369579&#45;&gt;Node369580</title>
<path fill="none" stroke="#191970" d="M534.508,-95.5405C555.356,-104.7883 587.1922,-118.9102 610.7204,-129.3468"/>
<polygon fill="#191970" stroke="#191970" points="609.3616,-132.5729 619.9218,-133.4284 612.2,-126.1741 609.3616,-132.5729"/>
</g>
<!-- Node369592&#45;&gt;Node369580 -->
<g id="edge15" class="edge">
<title>Node369592&#45;&gt;Node369580</title>
<path fill="none" stroke="#191970" d="M380.4553,-228.4996C399.6079,-215.877 435.4883,-193.697 469,-181 508.8029,-165.9194 556.1534,-156.0211 591.1666,-150.1188"/>
<polygon fill="#191970" stroke="#191970" points="591.8509,-153.5535 601.1555,-148.4865 590.7219,-146.6451 591.8509,-153.5535"/>
</g>
<!-- Node369593 -->
<g id="node14" class="node">
<title>Node369593</title>
<g id="a_node14"><a xlink:href="quickjs_8c.html#a74547db03bf739a52c83a326b32db997" target="_top" xlink:title="add_property">
<polygon fill="none" stroke="#ff0000" points="476.5,-342.5 476.5,-361.5 549.5,-361.5 549.5,-342.5 476.5,-342.5"/>
<text text-anchor="middle" x="513" y="-349.5" font-family="Helvetica,sans-Serif" font-size="10.00" fill="#000000">add_property</text>
</a>
</g>
</g>
<!-- Node369592&#45;&gt;Node369593 -->
<g id="edge16" class="edge">
<title>Node369592&#45;&gt;Node369593</title>
<path fill="none" stroke="#191970" d="M374.9395,-247.7835C391.4319,-266.4212 429.7675,-307.434 469,-333 471.7187,-334.7717 474.6303,-336.4445 477.6128,-338.0075"/>
<polygon fill="#191970" stroke="#191970" points="476.1227,-341.1745 486.6514,-342.3559 479.1574,-334.8666 476.1227,-341.1745"/>
</g>
<!-- Node369609 -->
<g id="node15" class="node">
<title>Node369609</title>
<g id="a_node15"><a xlink:href="quickjs_8c.html#a3a9f27520d96cf58aa5bd7359e9cddee" target="_top" xlink:title="js_free_shape">
<polygon fill="none" stroke="#ff0000" points="603,-285.5 603,-304.5 680,-304.5 680,-285.5 603,-285.5"/>
<text text-anchor="middle" x="641.5" y="-292.5" font-family="Helvetica,sans-Serif" font-size="10.00" fill="#000000">js_free_shape</text>
</a>
</g>
</g>
<!-- Node369592&#45;&gt;Node369609 -->
<g id="edge20" class="edge">
<title>Node369592&#45;&gt;Node369609</title>
<path fill="none" stroke="#191970" d="M433.1232,-239.3868C470.1304,-241.4594 516.7003,-246.2359 557,-257 577.5256,-262.4824 599.3642,-272.4227 615.6973,-280.7617"/>
<polygon fill="#191970" stroke="#191970" points="614.1442,-283.8992 624.6263,-285.4407 617.3934,-277.6989 614.1442,-283.8992"/>
</g>
<!-- Node369602 -->
<g id="node16" class="node">
<title>Node369602</title>
<g id="a_node16"><a xlink:href="quickjs_8c.html#a80e54dcf9ac687d4ccc2f90273565f30" target="_top" xlink:title="js_free">
<polygon fill="none" stroke="#ff0000" points="490,-190.5 490,-209.5 536,-209.5 536,-190.5 490,-190.5"/>
<text text-anchor="middle" x="513" y="-197.5" font-family="Helvetica,sans-Serif" font-size="10.00" fill="#000000">js_free</text>
</a>
</g>
</g>
<!-- Node369592&#45;&gt;Node369602 -->
<g id="edge19" class="edge">
<title>Node369592&#45;&gt;Node369602</title>
<path fill="none" stroke="#191970" d="M403.4681,-228.411C426.9903,-222.3097 457.1904,-214.4762 479.9199,-208.5805"/>
<polygon fill="#191970" stroke="#191970" points="480.9858,-211.9199 489.7866,-206.0212 479.2282,-205.1442 480.9858,-211.9199"/>
</g>
<!-- Node369635 -->
<g id="node17" class="node">
<title>Node369635</title>
<g id="a_node17"><a xlink:href="quickjs_8h.html#a2050bc428da1c65ac7eb87c3fa3b0392" target="_top" xlink:title="JS_NewInt32">
<polygon fill="none" stroke="#000000" points="475,-304.5 475,-323.5 551,-323.5 551,-304.5 475,-304.5"/>
<text text-anchor="middle" x="513" y="-311.5" font-family="Helvetica,sans-Serif" font-size="10.00" fill="#000000">JS_NewInt32</text>
</a>
</g>
</g>
<!-- Node369592&#45;&gt;Node369635 -->
<g id="edge21" class="edge">
<title>Node369592&#45;&gt;Node369635</title>
<path fill="none" stroke="#191970" d="M382.5653,-247.5917C402.5233,-259.3532 437.7635,-279.6183 469,-295 472.5924,-296.769 476.3891,-298.5443 480.1863,-300.2611"/>
<polygon fill="#191970" stroke="#191970" points="478.948,-303.5402 489.5102,-304.3711 481.7715,-297.1349 478.948,-303.5402"/>
</g>
<!-- Node369636 -->
<g id="node18" class="node">
<title>Node369636</title>
<g id="a_node18"><a xlink:href="quickjs_8c.html#a85321334e4bec66bfc03451897a03a3b" target="_top" xlink:title="js_trigger_gc">
<polygon fill="none" stroke="#ff0000" points="477,-266.5 477,-285.5 549,-285.5 549,-266.5 477,-266.5"/>
<text text-anchor="middle" x="513" y="-273.5" font-family="Helvetica,sans-Serif" font-size="10.00" fill="#000000">js_trigger_gc</text>
</a>
</g>
</g>
<!-- Node369592&#45;&gt;Node369636 -->
<g id="edge22" class="edge">
<title>Node369592&#45;&gt;Node369636</title>
<path fill="none" stroke="#191970" d="M403.4681,-247.589C422.7719,-252.5961 446.5732,-258.7699 467.0521,-264.0818"/>
<polygon fill="#191970" stroke="#191970" points="466.2457,-267.4884 476.8041,-266.6113 468.0033,-260.7126 466.2457,-267.4884"/>
</g>
<!-- Node369593&#45;&gt;Node369577 -->
<g id="edge17" class="edge">
<title>Node369593&#45;&gt;Node369577</title>
<path fill="none" stroke="#191970" d="M549.8229,-357.4446C563.1908,-359.4212 578.5088,-361.6861 592.747,-363.7914"/>
<polygon fill="#191970" stroke="#191970" points="592.476,-367.2893 602.8804,-365.2897 593.5,-360.3646 592.476,-367.2893"/>
</g>
<!-- Node369593&#45;&gt;Node369609 -->
<g id="edge18" class="edge">
<title>Node369593&#45;&gt;Node369609</title>
<path fill="none" stroke="#191970" d="M535.4121,-342.3989C542.3424,-339.4094 549.9951,-336.0873 557,-333 574.9182,-325.1029 594.9028,-316.1236 610.9368,-308.8771"/>
<polygon fill="#191970" stroke="#191970" points="612.6886,-311.9261 620.3559,-304.6142 609.8024,-305.5488 612.6886,-311.9261"/>
</g>
</g>
</svg>
        <g id="navigator" transform="translate(0 0)" fill="#404254">
                <rect fill="#f2f5e9" fill-opacity="0.5" stroke="#606060" stroke-width=".5" x="0" y="0" width="60" height="60"/>
                <use id="zoomplus" xlink:href="#zoomPlus" x="17" y="9" onmousedown="handleZoom(evt,'in')"/>
                <use id="zoomminus" xlink:href="#zoomMin" x="42" y="9" onmousedown="handleZoom(evt,'out')"/>
                <use id="reset" xlink:href="#resetDef" x="30" y="36" onmousedown="handleReset()"/>
                <g id="arrowUp" xlink:href="#dirArrow" transform="translate(30 24)" onmousedown="handlePan(0,-1)">
                  <use xlink:href="#rim" fill="#404040">
                        <set attributeName="fill" to="#808080" begin="arrowUp.mouseover" end="arrowUp.mouseout"/>
                  </use>
                  <path fill="none" stroke="white" stroke-width="1.5" d="M0,-3.0v7 M-2.5,-0.5L0,-3.0L2.5,-0.5"/>
                </g>
                <g id="arrowRight" xlink:href="#dirArrow" transform="rotate(90) translate(36 -43)" onmousedown="handlePan(1,0)">
                  <use xlink:href="#rim" fill="#404040">
                        <set attributeName="fill" to="#808080" begin="arrowRight.mouseover" end="arrowRight.mouseout"/>
                  </use>
                  <path fill="none" stroke="white" stroke-width="1.5" d="M0,-3.0v7 M-2.5,-0.5L0,-3.0L2.5,-0.5"/>
                </g>
                <g id="arrowDown" xlink:href="#dirArrow" transform="rotate(180) translate(-30 -48)" onmousedown="handlePan(0,1)">
                  <use xlink:href="#rim" fill="#404040">
                        <set attributeName="fill" to="#808080" begin="arrowDown.mouseover" end="arrowDown.mouseout"/>
                  </use>
                  <path fill="none" stroke="white" stroke-width="1.5" d="M0,-3.0v7 M-2.5,-0.5L0,-3.0L2.5,-0.5"/>
                </g>
                <g id="arrowLeft" xlink:href="#dirArrow" transform="rotate(270) translate(-36 17)" onmousedown="handlePan(-1,0)">
                  <use xlink:href="#rim" fill="#404040">
                        <set attributeName="fill" to="#808080" begin="arrowLeft.mouseover" end="arrowLeft.mouseout"/>
                  </use>
                  <path fill="none" stroke="white" stroke-width="1.5" d="M0,-3.0v7 M-2.5,-0.5L0,-3.0L2.5,-0.5"/>
                </g>
        </g>
        <svg viewBox="0 0 15 15" width="100%" height="30px" preserveAspectRatio="xMaxYMin meet">
         <g id="arrow_out" transform="scale(0.3 0.3)">
          <a xlink:href="quickjs_8c_a57af8ddae60fbd0080e34d23ce2a04a6_cgraph_org.svg" target="_base">
           <rect id="button" ry="5" rx="5" y="6" x="6" height="38" width="38"
                fill="#f2f5e9" fill-opacity="0.5" stroke="#606060" stroke-width="1.0"/>
           <path id="arrow"
             d="M 11.500037,31.436501 C 11.940474,20.09759 22.043105,11.32322 32.158766,21.979434 L 37.068811,17.246167 C 37.068811,17.246167 37.088388,32 37.088388,32 L 22.160133,31.978069 C 22.160133,31.978069 26.997745,27.140456 26.997745,27.140456 C 18.528582,18.264221 13.291696,25.230495 11.500037,31.436501 z"
             style="fill:#404040;"/>
          </a>
         </g>
        </svg>
</svg>
