<?xml version="1.0" encoding="UTF-8" standalone="no"?>
<!DOCTYPE svg PUBLIC "-//W3C//DTD SVG 1.1//EN"
 "http://www.w3.org/Graphics/SVG/1.1/DTD/svg11.dtd">
<!-- Generated by graphviz version 2.40.1 (20161225.0304)
 -->
<!-- Title: bc_idx_to_atom Pages: 1 -->
<svg width="528pt" height="66pt"
 viewBox="0.00 0.00 528.00 66.00" xmlns="http://www.w3.org/2000/svg" xmlns:xlink="http://www.w3.org/1999/xlink">
<g id="graph0" class="graph" transform="scale(1 1) rotate(0) translate(4 62)">
<title>bc_idx_to_atom</title>
<!-- Node343665 -->
<g id="node1" class="node">
<title>Node343665</title>
<polygon fill="#bfbfbf" stroke="#000000" points="0,-19.5 0,-38.5 86,-38.5 86,-19.5 0,-19.5"/>
<text text-anchor="middle" x="43" y="-26.5" font-family="Helvetica,sans-Serif" font-size="10.00" fill="#000000">bc_idx_to_atom</text>
</g>
<!-- Node343666 -->
<g id="node2" class="node">
<title>Node343666</title>
<g id="a_node2"><a xlink:href="quickjs_8c.html#a267b1caf06e54dfdf809cd51602400b4" target="_top" xlink:title="bc_get_atom">
<polygon fill="none" stroke="#000000" points="153.5,-38.5 153.5,-57.5 226.5,-57.5 226.5,-38.5 153.5,-38.5"/>
<text text-anchor="middle" x="190" y="-45.5" font-family="Helvetica,sans-Serif" font-size="10.00" fill="#000000">bc_get_atom</text>
</a>
</g>
</g>
<!-- Node343665&#45;&gt;Node343666 -->
<g id="edge1" class="edge">
<title>Node343665&#45;&gt;Node343666</title>
<path fill="none" stroke="#191970" d="M96.3173,-35.8914C115.2882,-38.3434 136.2036,-41.0467 153.4504,-43.2759"/>
<polygon fill="#191970" stroke="#191970" points="96.676,-32.4087 86.3098,-34.5979 95.7786,-39.3509 96.676,-32.4087"/>
</g>
<!-- Node343670 -->
<g id="node5" class="node">
<title>Node343670</title>
<g id="a_node5"><a xlink:href="quickjs_8c.html#ab64e04b510d4c4073aa468fc0a3ac0b1" target="_top" xlink:title="JS_ReadFunctionBytecode">
<polygon fill="none" stroke="#000000" points="122,-.5 122,-19.5 258,-19.5 258,-.5 122,-.5"/>
<text text-anchor="middle" x="190" y="-7.5" font-family="Helvetica,sans-Serif" font-size="10.00" fill="#000000">JS_ReadFunctionBytecode</text>
</a>
</g>
</g>
<!-- Node343665&#45;&gt;Node343670 -->
<g id="edge5" class="edge">
<title>Node343665&#45;&gt;Node343670</title>
<path fill="none" stroke="#191970" d="M96.2549,-22.1167C104.5874,-21.0397 113.2963,-19.9141 121.9059,-18.8013"/>
<polygon fill="#191970" stroke="#191970" points="95.7786,-18.6491 86.3098,-23.4021 96.676,-25.5913 95.7786,-18.6491"/>
</g>
<!-- Node343667 -->
<g id="node3" class="node">
<title>Node343667</title>
<g id="a_node3"><a xlink:href="quickjs_8c.html#a4b8ef2bb3b35e4a5f6ed8bd837a50e7c" target="_top" xlink:title="JS_ReadObjectRec">
<polygon fill="none" stroke="#000000" points="294,-19.5 294,-38.5 398,-38.5 398,-19.5 294,-19.5"/>
<text text-anchor="middle" x="346" y="-26.5" font-family="Helvetica,sans-Serif" font-size="10.00" fill="#000000">JS_ReadObjectRec</text>
</a>
</g>
</g>
<!-- Node343666&#45;&gt;Node343667 -->
<g id="edge2" class="edge">
<title>Node343666&#45;&gt;Node343667</title>
<path fill="none" stroke="#191970" d="M236.5408,-42.3316C254.5309,-40.1405 275.2031,-37.6227 293.7034,-35.3695"/>
<polygon fill="#191970" stroke="#191970" points="236.0785,-38.8619 226.5751,-43.5453 236.9249,-45.8106 236.0785,-38.8619"/>
</g>
<!-- Node343667&#45;&gt;Node343667 -->
<g id="edge3" class="edge">
<title>Node343667&#45;&gt;Node343667</title>
<path fill="none" stroke="#191970" d="M321.8186,-48.0292C323.1376,-53.128 331.1981,-57 346,-57 369.1055,-57 375.7844,-47.5653 366.0368,-38.7571"/>
<polygon fill="#191970" stroke="#191970" points="325.0776,-49.3148 325.9632,-38.7571 318.687,-46.4582 325.0776,-49.3148"/>
</g>
<!-- Node343668 -->
<g id="node4" class="node">
<title>Node343668</title>
<g id="a_node4"><a xlink:href="quickjs_8c.html#a12be2ea9c010752715072489497594e9" target="_top" xlink:title="JS_ReadObject">
<polygon fill="none" stroke="#ff0000" points="434,-19.5 434,-38.5 520,-38.5 520,-19.5 434,-19.5"/>
<text text-anchor="middle" x="477" y="-26.5" font-family="Helvetica,sans-Serif" font-size="10.00" fill="#000000">JS_ReadObject</text>
</a>
</g>
</g>
<!-- Node343667&#45;&gt;Node343668 -->
<g id="edge4" class="edge">
<title>Node343667&#45;&gt;Node343668</title>
<path fill="none" stroke="#191970" d="M408.2525,-29C416.9182,-29 425.66,-29 433.8689,-29"/>
<polygon fill="#191970" stroke="#191970" points="408.1511,-25.5001 398.1511,-29 408.151,-32.5001 408.1511,-25.5001"/>
</g>
<!-- Node343670&#45;&gt;Node343667 -->
<g id="edge6" class="edge">
<title>Node343670&#45;&gt;Node343667</title>
<path fill="none" stroke="#191970" d="M268.4164,-19.5507C276.9468,-20.5897 285.4706,-21.6278 293.5796,-22.6155"/>
<polygon fill="#191970" stroke="#191970" points="268.7737,-16.0685 258.4239,-18.3337 267.9273,-23.0171 268.7737,-16.0685"/>
</g>
</g>
</svg>
