<?xml version="1.0" encoding="UTF-8" standalone="no"?>
<!DOCTYPE svg PUBLIC "-//W3C//DTD SVG 1.1//EN"
 "http://www.w3.org/Graphics/SVG/1.1/DTD/svg11.dtd">
<!-- Generated by graphviz version 2.40.1 (20161225.0304)
 -->
<!-- Title: js_poll_interrupts Pages: 1 -->
<svg width="706pt" height="616pt"
 viewBox="0.00 0.00 706.00 616.00" xmlns="http://www.w3.org/2000/svg" xmlns:xlink="http://www.w3.org/1999/xlink">
<g id="graph0" class="graph" transform="scale(1 1) rotate(0) translate(4 612)">
<title>js_poll_interrupts</title>
<!-- Node285093 -->
<g id="node1" class="node">
<title>Node285093</title>
<polygon fill="#bfbfbf" stroke="#000000" points="0,-38.5 0,-57.5 90,-57.5 90,-38.5 0,-38.5"/>
<text text-anchor="middle" x="45" y="-45.5" font-family="Helvetica,sans-Serif" font-size="10.00" fill="#000000">js_poll_interrupts</text>
</g>
<!-- Node285094 -->
<g id="node2" class="node">
<title>Node285094</title>
<g id="a_node2"><a xlink:href="quickjs_8c.html#ad35594576a14c10812efaf958c99af8a" target="_top" xlink:title="JS_CallConstructorInternal">
<polygon fill="none" stroke="#000000" points="126,-85.5 126,-104.5 260,-104.5 260,-85.5 126,-85.5"/>
<text text-anchor="middle" x="193" y="-92.5" font-family="Helvetica,sans-Serif" font-size="10.00" fill="#000000">JS_CallConstructorInternal</text>
</a>
</g>
</g>
<!-- Node285093&#45;&gt;Node285094 -->
<g id="edge1" class="edge">
<title>Node285093&#45;&gt;Node285094</title>
<path fill="none" stroke="#191970" d="M84.6945,-60.6057C109.2567,-68.4058 140.2945,-78.2624 162.8409,-85.4224"/>
<polygon fill="#191970" stroke="#191970" points="85.5403,-57.2021 74.95,-57.5112 83.4216,-63.8738 85.5403,-57.2021"/>
</g>
<!-- Node285113 -->
<g id="node16" class="node">
<title>Node285113</title>
<g id="a_node16"><a xlink:href="quickjs_8c.html#ac2894ff4edcdb4e6841bcce9c76081e3" target="_top" xlink:title="JS_CallInternal">
<polygon fill="none" stroke="#ff0000" points="615,-85.5 615,-104.5 698,-104.5 698,-85.5 615,-85.5"/>
<text text-anchor="middle" x="656.5" y="-92.5" font-family="Helvetica,sans-Serif" font-size="10.00" fill="#000000">JS_CallInternal</text>
</a>
</g>
</g>
<!-- Node285093&#45;&gt;Node285113 -->
<g id="edge21" class="edge">
<title>Node285093&#45;&gt;Node285113</title>
<path fill="none" stroke="#191970" d="M100.6342,-52.2761C221.8581,-61.5933 507.5448,-83.5513 614.8205,-91.7965"/>
<polygon fill="#191970" stroke="#191970" points="100.7012,-48.771 90.4623,-51.4942 100.1646,-55.7504 100.7012,-48.771"/>
</g>
<!-- Node285663 -->
<g id="node19" class="node">
<title>Node285663</title>
<g id="a_node19"><a xlink:href="quickjs_8c.html#abec3cc345c6b3c1be76a0dc63fd7fa2f" target="_top" xlink:title="js_proxy_getPrototypeOf">
<polygon fill="none" stroke="#ff0000" points="130.5,-.5 130.5,-19.5 255.5,-19.5 255.5,-.5 130.5,-.5"/>
<text text-anchor="middle" x="193" y="-7.5" font-family="Helvetica,sans-Serif" font-size="10.00" fill="#000000">js_proxy_getPrototypeOf</text>
</a>
</g>
</g>
<!-- Node285093&#45;&gt;Node285663 -->
<g id="edge22" class="edge">
<title>Node285093&#45;&gt;Node285663</title>
<path fill="none" stroke="#191970" d="M92.1735,-35.8879C112.7856,-30.5956 136.6093,-24.4787 155.9219,-19.5201"/>
<polygon fill="#191970" stroke="#191970" points="91.162,-32.534 82.3466,-38.411 92.9029,-39.3141 91.162,-32.534"/>
</g>
<!-- Node285095 -->
<g id="node3" class="node">
<title>Node285095</title>
<g id="a_node3"><a xlink:href="quickjs_8c.html#a28704096ee67c5b0ab1bd60ce050e36a" target="_top" xlink:title="JS_CallConstructor">
<polygon fill="none" stroke="#000000" points="298.5,-417.5 298.5,-436.5 400.5,-436.5 400.5,-417.5 298.5,-417.5"/>
<text text-anchor="middle" x="349.5" y="-424.5" font-family="Helvetica,sans-Serif" font-size="10.00" fill="#000000">JS_CallConstructor</text>
</a>
</g>
</g>
<!-- Node285094&#45;&gt;Node285095 -->
<g id="edge2" class="edge">
<title>Node285094&#45;&gt;Node285095</title>
<path fill="none" stroke="#191970" d="M201.9321,-113.9487C231.1771,-175.9891 323.4179,-371.6692 344.9667,-417.3831"/>
<polygon fill="#191970" stroke="#191970" points="204.9448,-112.1311 197.515,-104.5781 198.613,-115.1159 204.9448,-112.1311"/>
</g>
<!-- Node285678 -->
<g id="node13" class="node">
<title>Node285678</title>
<g id="a_node13"><a xlink:href="quickjs_8c.html#a03d5edf3e8bb18809d6675e5c08bac26" target="_top" xlink:title="JS_CallConstructor2">
<polygon fill="none" stroke="#000000" points="296,-170.5 296,-189.5 403,-189.5 403,-170.5 296,-170.5"/>
<text text-anchor="middle" x="349.5" y="-177.5" font-family="Helvetica,sans-Serif" font-size="10.00" fill="#000000">JS_CallConstructor2</text>
</a>
</g>
</g>
<!-- Node285094&#45;&gt;Node285678 -->
<g id="edge12" class="edge">
<title>Node285094&#45;&gt;Node285678</title>
<path fill="none" stroke="#191970" d="M219.4495,-109.3655C251.3822,-126.7092 304.2109,-155.4021 331.6761,-170.3193"/>
<polygon fill="#191970" stroke="#191970" points="221.1064,-106.2825 210.6483,-104.5854 217.7654,-112.4338 221.1064,-106.2825"/>
</g>
<!-- Node285094&#45;&gt;Node285113 -->
<g id="edge20" class="edge">
<title>Node285094&#45;&gt;Node285113</title>
<path fill="none" stroke="#191970" d="M270.6451,-89.8066C369.6693,-87.4064 537.3448,-87.7819 614.8853,-90.9334"/>
<polygon fill="#191970" stroke="#191970" points="270.3029,-86.3142 260.3969,-90.0719 270.4841,-93.3119 270.3029,-86.3142"/>
</g>
<!-- Node285096 -->
<g id="node4" class="node">
<title>Node285096</title>
<g id="a_node4"><a xlink:href="quickjs_8c.html#a5e32da9a43002cb96dcbd62a1a340144" target="_top" xlink:title="js_array_from">
<polygon fill="none" stroke="#000000" points="471,-588.5 471,-607.5 547,-607.5 547,-588.5 471,-588.5"/>
<text text-anchor="middle" x="509" y="-595.5" font-family="Helvetica,sans-Serif" font-size="10.00" fill="#000000">js_array_from</text>
</a>
</g>
</g>
<!-- Node285095&#45;&gt;Node285096 -->
<g id="edge3" class="edge">
<title>Node285095&#45;&gt;Node285096</title>
<path fill="none" stroke="#191970" d="M355.4418,-446.2007C366.4823,-478.6288 393.2869,-544.1156 439,-579 448.2098,-586.0281 459.8406,-590.4586 470.9628,-593.2509"/>
<polygon fill="#191970" stroke="#191970" points="358.7265,-444.984 352.2975,-436.5627 352.0717,-447.1551 358.7265,-444.984"/>
</g>
<!-- Node285097 -->
<g id="node5" class="node">
<title>Node285097</title>
<g id="a_node5"><a xlink:href="quickjs_8c.html#aed64f4c93145310216f62d7548856b8d" target="_top" xlink:title="js_array_of">
<polygon fill="none" stroke="#000000" points="476.5,-550.5 476.5,-569.5 541.5,-569.5 541.5,-550.5 476.5,-550.5"/>
<text text-anchor="middle" x="509" y="-557.5" font-family="Helvetica,sans-Serif" font-size="10.00" fill="#000000">js_array_of</text>
</a>
</g>
</g>
<!-- Node285095&#45;&gt;Node285097 -->
<g id="edge4" class="edge">
<title>Node285095&#45;&gt;Node285097</title>
<path fill="none" stroke="#191970" d="M359.0956,-445.6489C373.1564,-471.0944 401.7784,-516.3398 439,-541 450.0225,-548.3027 463.7791,-552.8112 476.1726,-555.5891"/>
<polygon fill="#191970" stroke="#191970" points="362.0865,-443.8199 354.2799,-436.6569 355.9157,-447.1247 362.0865,-443.8199"/>
</g>
<!-- Node285098 -->
<g id="node6" class="node">
<title>Node285098</title>
<g id="a_node6"><a xlink:href="quickjs_8c.html#a3b818b1ca9d2d4aaa9b55b1cc54c1bc4" target="_top" xlink:title="JS_ArraySpeciesCreate">
<polygon fill="none" stroke="#ff0000" points="448,-512.5 448,-531.5 570,-531.5 570,-512.5 448,-512.5"/>
<text text-anchor="middle" x="509" y="-519.5" font-family="Helvetica,sans-Serif" font-size="10.00" fill="#000000">JS_ArraySpeciesCreate</text>
</a>
</g>
</g>
<!-- Node285095&#45;&gt;Node285098 -->
<g id="edge5" class="edge">
<title>Node285095&#45;&gt;Node285098</title>
<path fill="none" stroke="#191970" d="M365.4224,-444.4105C382.1494,-461.6909 410.0121,-487.7414 439,-503 446.243,-506.8125 454.3207,-509.9139 462.3423,-512.4195"/>
<polygon fill="#191970" stroke="#191970" points="367.5627,-441.5797 358.1493,-436.7176 362.4761,-446.3887 367.5627,-441.5797"/>
</g>
<!-- Node285103 -->
<g id="node7" class="node">
<title>Node285103</title>
<g id="a_node7"><a xlink:href="quickjs_8c.html#a48c74f10715547bf679361ae42e2a97f" target="_top" xlink:title="js_string_match">
<polygon fill="none" stroke="#000000" points="466,-474.5 466,-493.5 552,-493.5 552,-474.5 466,-474.5"/>
<text text-anchor="middle" x="509" y="-481.5" font-family="Helvetica,sans-Serif" font-size="10.00" fill="#000000">js_string_match</text>
</a>
</g>
</g>
<!-- Node285095&#45;&gt;Node285103 -->
<g id="edge6" class="edge">
<title>Node285095&#45;&gt;Node285103</title>
<path fill="none" stroke="#191970" d="M379.3165,-440.8687C396.5343,-448.5703 418.7312,-457.9831 439,-465 448.9957,-468.4604 459.9683,-471.6956 470.2005,-474.4808"/>
<polygon fill="#191970" stroke="#191970" points="380.3599,-437.4991 369.8065,-436.5628 377.4726,-443.8759 380.3599,-437.4991"/>
</g>
<!-- Node285104 -->
<g id="node8" class="node">
<title>Node285104</title>
<g id="a_node8"><a xlink:href="quickjs_8c.html#ace9b3fda4db2506ca054f0c7aaf41880" target="_top" xlink:title="js_regexp_Symbol_matchAll">
<polygon fill="none" stroke="#000000" points="439,-436.5 439,-455.5 579,-455.5 579,-436.5 439,-436.5"/>
<text text-anchor="middle" x="509" y="-443.5" font-family="Helvetica,sans-Serif" font-size="10.00" fill="#000000">js_regexp_Symbol_matchAll</text>
</a>
</g>
</g>
<!-- Node285095&#45;&gt;Node285104 -->
<g id="edge7" class="edge">
<title>Node285095&#45;&gt;Node285104</title>
<path fill="none" stroke="#191970" d="M410.9786,-434.3235C420.1055,-435.4107 429.5699,-436.5381 438.8578,-437.6445"/>
<polygon fill="#191970" stroke="#191970" points="411.1886,-430.8238 400.8448,-433.1163 410.3605,-437.7747 411.1886,-430.8238"/>
</g>
<!-- Node285105 -->
<g id="node9" class="node">
<title>Node285105</title>
<g id="a_node9"><a xlink:href="quickjs_8c.html#a79872a6d9d139e36d5d1894d16132024" target="_top" xlink:title="js_regexp_Symbol_split">
<polygon fill="none" stroke="#000000" points="449,-398.5 449,-417.5 569,-417.5 569,-398.5 449,-398.5"/>
<text text-anchor="middle" x="509" y="-405.5" font-family="Helvetica,sans-Serif" font-size="10.00" fill="#000000">js_regexp_Symbol_split</text>
</a>
</g>
</g>
<!-- Node285095&#45;&gt;Node285105 -->
<g id="edge8" class="edge">
<title>Node285095&#45;&gt;Node285105</title>
<path fill="none" stroke="#191970" d="M411.0871,-419.6636C423.4872,-418.1865 436.5061,-416.6356 448.8562,-415.1645"/>
<polygon fill="#191970" stroke="#191970" points="410.3605,-416.2253 400.8448,-420.8837 411.1886,-423.1762 410.3605,-416.2253"/>
</g>
<!-- Node285106 -->
<g id="node10" class="node">
<title>Node285106</title>
<g id="a_node10"><a xlink:href="quickjs_8c.html#a28c0ccdd26317bc38d0a693f1dffe4dc" target="_top" xlink:title="js_new_promise_capability">
<polygon fill="none" stroke="#ff0000" points="442,-360.5 442,-379.5 576,-379.5 576,-360.5 442,-360.5"/>
<text text-anchor="middle" x="509" y="-367.5" font-family="Helvetica,sans-Serif" font-size="10.00" fill="#000000">js_new_promise_capability</text>
</a>
</g>
</g>
<!-- Node285095&#45;&gt;Node285106 -->
<g id="edge9" class="edge">
<title>Node285095&#45;&gt;Node285106</title>
<path fill="none" stroke="#191970" d="M379.3165,-413.1313C396.5343,-405.4297 418.7312,-396.0169 439,-389 448.9957,-385.5396 459.9683,-382.3044 470.2005,-379.5192"/>
<polygon fill="#191970" stroke="#191970" points="377.4726,-410.1241 369.8065,-417.4372 380.3599,-416.5009 377.4726,-410.1241"/>
</g>
<!-- Node285517 -->
<g id="node11" class="node">
<title>Node285517</title>
<g id="a_node11"><a xlink:href="quickjs_8c.html#a8160f52fd4197ade647faa287b34862e" target="_top" xlink:title="js_array_buffer_slice">
<polygon fill="none" stroke="#000000" points="455.5,-322.5 455.5,-341.5 562.5,-341.5 562.5,-322.5 455.5,-322.5"/>
<text text-anchor="middle" x="509" y="-329.5" font-family="Helvetica,sans-Serif" font-size="10.00" fill="#000000">js_array_buffer_slice</text>
</a>
</g>
</g>
<!-- Node285095&#45;&gt;Node285517 -->
<g id="edge10" class="edge">
<title>Node285095&#45;&gt;Node285517</title>
<path fill="none" stroke="#191970" d="M365.4224,-409.5895C382.1494,-392.3091 410.0121,-366.2586 439,-351 446.243,-347.1875 454.3207,-344.0861 462.3423,-341.5805"/>
<polygon fill="#191970" stroke="#191970" points="362.4761,-407.6113 358.1493,-417.2824 367.5627,-412.4203 362.4761,-407.6113"/>
</g>
<!-- Node285520 -->
<g id="node12" class="node">
<title>Node285520</title>
<g id="a_node12"><a xlink:href="quickjs_8c.html#a8c18ce4b7a8c97ab520d4d37a1c6fc72" target="_top" xlink:title="js_typed_array_create">
<polygon fill="none" stroke="#ff0000" points="452.5,-284.5 452.5,-303.5 565.5,-303.5 565.5,-284.5 452.5,-284.5"/>
<text text-anchor="middle" x="509" y="-291.5" font-family="Helvetica,sans-Serif" font-size="10.00" fill="#000000">js_typed_array_create</text>
</a>
</g>
</g>
<!-- Node285095&#45;&gt;Node285520 -->
<g id="edge11" class="edge">
<title>Node285095&#45;&gt;Node285520</title>
<path fill="none" stroke="#191970" d="M359.0956,-408.3511C373.1564,-382.9056 401.7784,-337.6602 439,-313 444.8787,-309.1052 451.535,-306.0053 458.3475,-303.5387"/>
<polygon fill="#191970" stroke="#191970" points="355.9157,-406.8753 354.2799,-417.3431 362.0865,-410.1801 355.9157,-406.8753"/>
</g>
<!-- Node285155 -->
<g id="node14" class="node">
<title>Node285155</title>
<g id="a_node14"><a xlink:href="quickjs_8c.html#afd4ef2d701fa0702f321925b61c57bbf" target="_top" xlink:title="js_call_bound_function">
<polygon fill="none" stroke="#ff0000" points="451,-246.5 451,-265.5 567,-265.5 567,-246.5 451,-246.5"/>
<text text-anchor="middle" x="509" y="-253.5" font-family="Helvetica,sans-Serif" font-size="10.00" fill="#000000">js_call_bound_function</text>
</a>
</g>
</g>
<!-- Node285678&#45;&gt;Node285155 -->
<g id="edge13" class="edge">
<title>Node285678&#45;&gt;Node285155</title>
<path fill="none" stroke="#191970" d="M370.1696,-195.7291C387.685,-208.4115 413.8893,-225.9045 439,-237 447.4083,-240.7153 456.7132,-243.8567 465.7197,-246.4494"/>
<polygon fill="#191970" stroke="#191970" points="371.979,-192.7147 361.8539,-189.5949 367.8236,-198.3479 371.979,-192.7147"/>
</g>
<!-- Node285160 -->
<g id="node15" class="node">
<title>Node285160</title>
<g id="a_node15"><a xlink:href="quickjs_8c.html#a8d4b24969540aff427939eeda47f451d" target="_top" xlink:title="js_function_apply">
<polygon fill="none" stroke="#ff0000" points="463,-208.5 463,-227.5 555,-227.5 555,-208.5 463,-208.5"/>
<text text-anchor="middle" x="509" y="-215.5" font-family="Helvetica,sans-Serif" font-size="10.00" fill="#000000">js_function_apply</text>
</a>
</g>
</g>
<!-- Node285678&#45;&gt;Node285160 -->
<g id="edge14" class="edge">
<title>Node285678&#45;&gt;Node285160</title>
<path fill="none" stroke="#191970" d="M399.734,-191.968C422.0855,-197.2931 448.0383,-203.4762 469.0408,-208.4799"/>
<polygon fill="#191970" stroke="#191970" points="400.2875,-188.502 389.7486,-189.589 398.6651,-195.3114 400.2875,-188.502"/>
</g>
<!-- Node285391 -->
<g id="node17" class="node">
<title>Node285391</title>
<g id="a_node17"><a xlink:href="quickjs_8c.html#a392bb9e4d465d6a061eb3f6c830e0efa" target="_top" xlink:title="js_reflect_construct">
<polygon fill="none" stroke="#000000" points="458,-170.5 458,-189.5 560,-189.5 560,-170.5 458,-170.5"/>
<text text-anchor="middle" x="509" y="-177.5" font-family="Helvetica,sans-Serif" font-size="10.00" fill="#000000">js_reflect_construct</text>
</a>
</g>
</g>
<!-- Node285678&#45;&gt;Node285391 -->
<g id="edge18" class="edge">
<title>Node285678&#45;&gt;Node285391</title>
<path fill="none" stroke="#191970" d="M413.1582,-180C427.9685,-180 443.5514,-180 457.7471,-180"/>
<polygon fill="#191970" stroke="#191970" points="413.0549,-176.5001 403.0549,-180 413.0549,-183.5001 413.0549,-176.5001"/>
</g>
<!-- Node285174 -->
<g id="node18" class="node">
<title>Node285174</title>
<g id="a_node18"><a xlink:href="quickjs_8c.html#af97646b66d6fcb8bd19543d93baeadd7" target="_top" xlink:title="js_proxy_call_constructor">
<polygon fill="none" stroke="#ff0000" points="445,-132.5 445,-151.5 573,-151.5 573,-132.5 445,-132.5"/>
<text text-anchor="middle" x="509" y="-139.5" font-family="Helvetica,sans-Serif" font-size="10.00" fill="#000000">js_proxy_call_constructor</text>
</a>
</g>
</g>
<!-- Node285678&#45;&gt;Node285174 -->
<g id="edge19" class="edge">
<title>Node285678&#45;&gt;Node285174</title>
<path fill="none" stroke="#191970" d="M399.734,-168.032C422.0855,-162.7069 448.0383,-156.5238 469.0408,-151.5201"/>
<polygon fill="#191970" stroke="#191970" points="398.6651,-164.6886 389.7486,-170.411 400.2875,-171.498 398.6651,-164.6886"/>
</g>
<!-- Node285160&#45;&gt;Node285113 -->
<g id="edge15" class="edge">
<title>Node285160&#45;&gt;Node285113</title>
<path fill="none" stroke="#191970" d="M565.0017,-206.5206C569.9356,-204.4201 574.6867,-201.9364 579,-199 615.8548,-173.9099 642.0608,-125.4177 652.0436,-104.7325"/>
<polygon fill="#191970" stroke="#191970" points="563.509,-203.3414 555.3548,-210.106 565.9477,-209.9028 563.509,-203.3414"/>
</g>
<!-- Node285113&#45;&gt;Node285094 -->
<g id="edge16" class="edge">
<title>Node285113&#45;&gt;Node285094</title>
<path fill="none" stroke="#191970" d="M604.7883,-99.4443C520.5616,-102.3478 353.7931,-102.5091 260.3969,-99.9281"/>
<polygon fill="#191970" stroke="#191970" points="605.0231,-102.938 614.8853,-99.0666 604.7614,-95.9429 605.0231,-102.938"/>
</g>
<!-- Node285113&#45;&gt;Node285113 -->
<g id="edge17" class="edge">
<title>Node285113&#45;&gt;Node285113</title>
<path fill="none" stroke="#191970" d="M629.2475,-113.6539C630.3867,-118.9368 639.4708,-123 656.5,-123 682.4492,-123 689.9502,-113.5653 679.0028,-104.7571"/>
<polygon fill="#191970" stroke="#191970" points="632.3752,-115.227 633.9972,-104.7571 626.2001,-111.9303 632.3752,-115.227"/>
</g>
</g>
</svg>
