<?xml version="1.0" encoding="UTF-8" standalone="no"?>
<!DOCTYPE svg PUBLIC "-//W3C//DTD SVG 1.1//EN"
 "http://www.w3.org/Graphics/SVG/1.1/DTD/svg11.dtd">
<!-- Generated by graphviz version 2.40.1 (20161225.0304)
 -->
<!-- Title: js_array_sort Pages: 1 -->
<svg width="807pt" height="797pt"
 viewBox="0.00 0.00 807.00 797.25" xmlns="http://www.w3.org/2000/svg" xmlns:xlink="http://www.w3.org/1999/xlink">
<g id="graph0" class="graph" transform="scale(1 1) rotate(0) translate(4 793.2472)">
<title>js_array_sort</title>
<!-- Node381059 -->
<g id="node1" class="node">
<title>Node381059</title>
<polygon fill="#bfbfbf" stroke="#000000" points="0,-389.7472 0,-408.7472 73,-408.7472 73,-389.7472 0,-389.7472"/>
<text text-anchor="middle" x="36.5" y="-396.7472" font-family="Helvetica,sans-Serif" font-size="10.00" fill="#000000">js_array_sort</text>
</g>
<!-- Node381060 -->
<g id="node2" class="node">
<title>Node381060</title>
<g id="a_node2"><a xlink:href="quickjs_8c.html#a59a7e992f228759bf0a56f0aae4f3cc3" target="_top" xlink:title="check_function">
<polygon fill="none" stroke="#000000" points="128.5,-750.7472 128.5,-769.7472 211.5,-769.7472 211.5,-750.7472 128.5,-750.7472"/>
<text text-anchor="middle" x="170" y="-757.7472" font-family="Helvetica,sans-Serif" font-size="10.00" fill="#000000">check_function</text>
</a>
</g>
</g>
<!-- Node381059&#45;&gt;Node381060 -->
<g id="edge1" class="edge">
<title>Node381059&#45;&gt;Node381060</title>
<path fill="none" stroke="#191970" d="M37.3574,-408.918C41.934,-458.5512 64.9411,-684.3538 109,-736.2472 112.1925,-740.0074 116.0527,-743.1824 120.2628,-745.8624"/>
<polygon fill="#191970" stroke="#191970" points="118.8264,-749.0634 129.2945,-750.6974 122.1302,-742.892 118.8264,-749.0634"/>
</g>
<!-- Node381062 -->
<g id="node4" class="node">
<title>Node381062</title>
<g id="a_node4"><a xlink:href="quickjs_8c.html#a341f4d5925a607eeaad8d3cbb03e9de1" target="_top" xlink:title="js_array_cmp_generic">
<polygon fill="none" stroke="#000000" points="267,-712.7472 267,-731.7472 379,-731.7472 379,-712.7472 267,-712.7472"/>
<text text-anchor="middle" x="323" y="-719.7472" font-family="Helvetica,sans-Serif" font-size="10.00" fill="#000000">js_array_cmp_generic</text>
</a>
</g>
</g>
<!-- Node381059&#45;&gt;Node381062 -->
<g id="edge3" class="edge">
<title>Node381059&#45;&gt;Node381062</title>
<path fill="none" stroke="#191970" d="M37.3878,-408.9593C41.8827,-455.8669 63.7143,-658.3441 109,-698.2472 149.7668,-734.1685 213.2186,-737.0388 260.4587,-732.8077"/>
<polygon fill="#191970" stroke="#191970" points="260.9885,-736.2719 270.5802,-731.7719 260.2758,-729.3082 260.9885,-736.2719"/>
</g>
<!-- Node381490 -->
<g id="node12" class="node">
<title>Node381490</title>
<g id="a_node12"><a xlink:href="quickjs_8c.html#a70e21308fe3760cd95dd1dbb1a8755e6" target="_top" xlink:title="JS_DeletePropertyInt64">
<polygon fill="none" stroke="#000000" points="109.5,-446.7472 109.5,-465.7472 230.5,-465.7472 230.5,-446.7472 109.5,-446.7472"/>
<text text-anchor="middle" x="170" y="-453.7472" font-family="Helvetica,sans-Serif" font-size="10.00" fill="#000000">JS_DeletePropertyInt64</text>
</a>
</g>
</g>
<!-- Node381059&#45;&gt;Node381490 -->
<g id="edge12" class="edge">
<title>Node381059&#45;&gt;Node381490</title>
<path fill="none" stroke="#191970" d="M58.8449,-408.7877C80.6003,-418.0766 113.8733,-432.283 138.3482,-442.7329"/>
<polygon fill="#191970" stroke="#191970" points="137.011,-445.9677 147.5822,-446.6756 139.7598,-439.5299 137.011,-445.9677"/>
</g>
<!-- Node381084 -->
<g id="node15" class="node">
<title>Node381084</title>
<g id="a_node15"><a xlink:href="quickjs_8h.html#afaa20c47565bc704c6c85f3d77254e7d" target="_top" xlink:title="JS_FreeValue">
<polygon fill="none" stroke="#ff0000" points="435.5,-522.7472 435.5,-541.7472 513.5,-541.7472 513.5,-522.7472 435.5,-522.7472"/>
<text text-anchor="middle" x="474.5" y="-529.7472" font-family="Helvetica,sans-Serif" font-size="10.00" fill="#000000">JS_FreeValue</text>
</a>
</g>
</g>
<!-- Node381059&#45;&gt;Node381084 -->
<g id="edge25" class="edge">
<title>Node381059&#45;&gt;Node381084</title>
<path fill="none" stroke="#191970" d="M43.5286,-408.8765C55.4434,-424.6184 81.0514,-456.0309 109,-475.2472 171.7101,-518.364 192.382,-526.2887 267,-541.2472 320.4019,-551.9525 383.0235,-546.8919 425.3945,-540.9431"/>
<polygon fill="#191970" stroke="#191970" points="426.0629,-544.3825 435.4457,-539.4619 425.0422,-537.4573 426.0629,-544.3825"/>
</g>
<!-- Node381339 -->
<g id="node16" class="node">
<title>Node381339</title>
<g id="a_node16"><a xlink:href="quickjs_8c.html#a710289a14c2810467e5b448d3c28bd55" target="_top" xlink:title="JS_ToObject">
<polygon fill="none" stroke="#ff0000" points="437.5,-636.7472 437.5,-655.7472 511.5,-655.7472 511.5,-636.7472 437.5,-636.7472"/>
<text text-anchor="middle" x="474.5" y="-643.7472" font-family="Helvetica,sans-Serif" font-size="10.00" fill="#000000">JS_ToObject</text>
</a>
</g>
</g>
<!-- Node381059&#45;&gt;Node381339 -->
<g id="edge40" class="edge">
<title>Node381059&#45;&gt;Node381339</title>
<path fill="none" stroke="#191970" d="M40.6813,-408.8818C59.4012,-450.5482 140.1853,-615.3773 267,-665.2472 324.1911,-687.7376 396.8535,-672.012 439.2689,-658.8866"/>
<polygon fill="#191970" stroke="#191970" points="440.4152,-662.1946 448.8634,-655.801 438.272,-655.5307 440.4152,-662.1946"/>
</g>
<!-- Node381104 -->
<g id="node20" class="node">
<title>Node381104</title>
<g id="a_node20"><a xlink:href="quickjs_8c.html#a80e54dcf9ac687d4ccc2f90273565f30" target="_top" xlink:title="js_free">
<polygon fill="none" stroke="#ff0000" points="147,-199.7472 147,-218.7472 193,-218.7472 193,-199.7472 147,-199.7472"/>
<text text-anchor="middle" x="170" y="-206.7472" font-family="Helvetica,sans-Serif" font-size="10.00" fill="#000000">js_free</text>
</a>
</g>
</g>
<!-- Node381059&#45;&gt;Node381104 -->
<g id="edge24" class="edge">
<title>Node381059&#45;&gt;Node381104</title>
<path fill="none" stroke="#191970" d="M38.0752,-389.5331C43.1246,-361.4201 61.4474,-279.075 109,-233.2472 116.7438,-225.7843 127.0826,-220.5608 137.0454,-216.9403"/>
<polygon fill="#191970" stroke="#191970" points="138.3135,-220.2094 146.7729,-213.8305 136.1819,-213.5419 138.3135,-220.2094"/>
</g>
<!-- Node381344 -->
<g id="node21" class="node">
<title>Node381344</title>
<g id="a_node21"><a xlink:href="quickjs_8c.html#a5f848f76409193212a44e6221e430919" target="_top" xlink:title="js_get_length64">
<polygon fill="none" stroke="#ff0000" points="280.5,-142.7472 280.5,-161.7472 365.5,-161.7472 365.5,-142.7472 280.5,-142.7472"/>
<text text-anchor="middle" x="323" y="-149.7472" font-family="Helvetica,sans-Serif" font-size="10.00" fill="#000000">js_get_length64</text>
</a>
</g>
</g>
<!-- Node381059&#45;&gt;Node381344 -->
<g id="edge26" class="edge">
<title>Node381059&#45;&gt;Node381344</title>
<path fill="none" stroke="#191970" d="M39.0222,-389.585C45.8996,-365.1539 67.3128,-300.4317 109,-266.2472 152.9146,-230.2362 185.9517,-262.8295 231,-228.2472 254.7672,-210.0018 243.464,-189.79 267,-171.2472 269.3059,-169.4305 271.7954,-167.7826 274.3985,-166.2884"/>
<polygon fill="#191970" stroke="#191970" points="276.1514,-169.327 283.5862,-161.7788 273.067,-163.0431 276.1514,-169.327"/>
</g>
<!-- Node381185 -->
<g id="node23" class="node">
<title>Node381185</title>
<g id="a_node23"><a xlink:href="quickjs_8h.html#a4e407128a9605afb77523e49e9a627fd" target="_top" xlink:title="JS_IsUndefined">
<polygon fill="none" stroke="#000000" points="127,-161.7472 127,-180.7472 213,-180.7472 213,-161.7472 127,-161.7472"/>
<text text-anchor="middle" x="170" y="-168.7472" font-family="Helvetica,sans-Serif" font-size="10.00" fill="#000000">JS_IsUndefined</text>
</a>
</g>
</g>
<!-- Node381059&#45;&gt;Node381185 -->
<g id="edge29" class="edge">
<title>Node381059&#45;&gt;Node381185</title>
<path fill="none" stroke="#191970" d="M36.9191,-389.3024C38.8644,-356.0639 49.6871,-247.6947 109,-190.2472 111.5882,-187.7404 114.5018,-185.5638 117.6165,-183.6741"/>
<polygon fill="#191970" stroke="#191970" points="119.4438,-186.6736 126.8236,-179.0717 116.3139,-180.4123 119.4438,-186.6736"/>
</g>
<!-- Node381492 -->
<g id="node24" class="node">
<title>Node381492</title>
<g id="a_node24"><a xlink:href="quickjs_8c.html#a51b06daa618640e531fe808770553b96" target="_top" xlink:title="JS_SetPropertyInt64">
<polygon fill="none" stroke="#000000" points="116.5,-389.7472 116.5,-408.7472 223.5,-408.7472 223.5,-389.7472 116.5,-389.7472"/>
<text text-anchor="middle" x="170" y="-396.7472" font-family="Helvetica,sans-Serif" font-size="10.00" fill="#000000">JS_SetPropertyInt64</text>
</a>
</g>
</g>
<!-- Node381059&#45;&gt;Node381492 -->
<g id="edge30" class="edge">
<title>Node381059&#45;&gt;Node381492</title>
<path fill="none" stroke="#191970" d="M73.3329,-399.2472C83.4963,-399.2472 94.8264,-399.2472 106.0507,-399.2472"/>
<polygon fill="#191970" stroke="#191970" points="106.2926,-402.7473 116.2925,-399.2472 106.2925,-395.7473 106.2926,-402.7473"/>
</g>
<!-- Node381493 -->
<g id="node27" class="node">
<title>Node381493</title>
<g id="a_node27"><a xlink:href="quickjs_8c.html#a14674e74168715dc5a3a391910982e5d" target="_top" xlink:title="JS_TryGetPropertyInt64">
<polygon fill="none" stroke="#000000" points="109,-275.7472 109,-294.7472 231,-294.7472 231,-275.7472 109,-275.7472"/>
<text text-anchor="middle" x="170" y="-282.7472" font-family="Helvetica,sans-Serif" font-size="10.00" fill="#000000">JS_TryGetPropertyInt64</text>
</a>
</g>
</g>
<!-- Node381059&#45;&gt;Node381493 -->
<g id="edge41" class="edge">
<title>Node381059&#45;&gt;Node381493</title>
<path fill="none" stroke="#191970" d="M47.8821,-389.5276C70.7395,-370.009 122.4451,-325.8559 150.6916,-301.7353"/>
<polygon fill="#191970" stroke="#191970" points="153.3149,-304.0977 158.6467,-294.9422 148.7692,-298.7744 153.3149,-304.0977"/>
</g>
<!-- Node381384 -->
<g id="node30" class="node">
<title>Node381384</title>
<g id="a_node30"><a xlink:href="cutils_8h.html#abafeb6aa16de4471d569ea841ec2d443" target="_top" xlink:title="rqsort">
<polygon fill="none" stroke="#000000" points="149.5,-123.7472 149.5,-142.7472 190.5,-142.7472 190.5,-123.7472 149.5,-123.7472"/>
<text text-anchor="middle" x="170" y="-130.7472" font-family="Helvetica,sans-Serif" font-size="10.00" fill="#000000">rqsort</text>
</a>
</g>
</g>
<!-- Node381059&#45;&gt;Node381384 -->
<g id="edge54" class="edge">
<title>Node381059&#45;&gt;Node381384</title>
<path fill="none" stroke="#191970" d="M38.1084,-389.486C45.108,-348.1088 74.1338,-187.6916 109,-152.2472 117.0168,-144.0975 128.4653,-139.4303 139.2831,-136.7624"/>
<polygon fill="#191970" stroke="#191970" points="140.2016,-140.1485 149.329,-134.7687 138.8389,-133.2824 140.2016,-140.1485"/>
</g>
<!-- Node381061 -->
<g id="node3" class="node">
<title>Node381061</title>
<g id="a_node3"><a xlink:href="quickjs_8c.html#a1ca9cdb1fa2ffc3e6506e92b200e490f" target="_top" xlink:title="JS_IsFunction">
<polygon fill="none" stroke="#000000" points="283,-750.7472 283,-769.7472 363,-769.7472 363,-750.7472 283,-750.7472"/>
<text text-anchor="middle" x="323" y="-757.7472" font-family="Helvetica,sans-Serif" font-size="10.00" fill="#000000">JS_IsFunction</text>
</a>
</g>
</g>
<!-- Node381060&#45;&gt;Node381061 -->
<g id="edge2" class="edge">
<title>Node381060&#45;&gt;Node381061</title>
<path fill="none" stroke="#191970" d="M211.8079,-760.2472C230.644,-760.2472 253.04,-760.2472 272.779,-760.2472"/>
<polygon fill="#191970" stroke="#191970" points="272.8261,-763.7473 282.826,-760.2472 272.826,-756.7473 272.8261,-763.7473"/>
</g>
<!-- Node381063 -->
<g id="node5" class="node">
<title>Node381063</title>
<g id="a_node5"><a xlink:href="quickjs_8h.html#ad80a83d73e9b7d872b88fbf2943aebe9" target="_top" xlink:title="JS_IsException">
<polygon fill="none" stroke="#000000" points="713,-560.7472 713,-579.7472 799,-579.7472 799,-560.7472 713,-560.7472"/>
<text text-anchor="middle" x="756" y="-567.7472" font-family="Helvetica,sans-Serif" font-size="10.00" fill="#000000">JS_IsException</text>
</a>
</g>
</g>
<!-- Node381062&#45;&gt;Node381063 -->
<g id="edge4" class="edge">
<title>Node381062&#45;&gt;Node381063</title>
<path fill="none" stroke="#191970" d="M368.9353,-712.7257C463.1724,-693.1465 670.1494,-649.8904 677,-646.2472 703.901,-631.9413 728.0516,-605.8059 742.3713,-588.2314"/>
<polygon fill="#191970" stroke="#191970" points="745.4762,-589.9469 748.9259,-579.9294 739.9822,-585.6092 745.4762,-589.9469"/>
</g>
<!-- Node381064 -->
<g id="node6" class="node">
<title>Node381064</title>
<g id="a_node6"><a xlink:href="quickjs_8c.html#a3d9b165d4274aa43e051caba9bcbbe9f" target="_top" xlink:title="js_string_compare">
<polygon fill="none" stroke="#000000" points="426.5,-750.7472 426.5,-769.7472 522.5,-769.7472 522.5,-750.7472 426.5,-750.7472"/>
<text text-anchor="middle" x="474.5" y="-757.7472" font-family="Helvetica,sans-Serif" font-size="10.00" fill="#000000">js_string_compare</text>
</a>
</g>
</g>
<!-- Node381062&#45;&gt;Node381064 -->
<g id="edge5" class="edge">
<title>Node381062&#45;&gt;Node381064</title>
<path fill="none" stroke="#191970" d="M361.2298,-731.8362C381.1319,-736.8281 405.6567,-742.9796 426.7909,-748.2806"/>
<polygon fill="#191970" stroke="#191970" points="425.994,-751.689 436.5451,-750.7272 427.6971,-744.8993 425.994,-751.689"/>
</g>
<!-- Node381069 -->
<g id="node9" class="node">
<title>Node381069</title>
<g id="a_node9"><a xlink:href="quickjs_8c.html#ab1b614ef35f1cea05da0ad4927c53118" target="_top" xlink:title="JS_ToFloat64Free">
<polygon fill="none" stroke="#000000" points="426,-560.7472 426,-579.7472 523,-579.7472 523,-560.7472 426,-560.7472"/>
<text text-anchor="middle" x="474.5" y="-567.7472" font-family="Helvetica,sans-Serif" font-size="10.00" fill="#000000">JS_ToFloat64Free</text>
</a>
</g>
</g>
<!-- Node381062&#45;&gt;Node381069 -->
<g id="edge8" class="edge">
<title>Node381062&#45;&gt;Node381069</title>
<path fill="none" stroke="#191970" d="M332.566,-712.6175C343.758,-701.3263 362.8184,-682.0199 379,-665.2472 395.1528,-648.5044 398.5954,-643.7434 415,-627.2472 428.7687,-613.4016 444.7706,-598.1156 456.7096,-586.8617"/>
<polygon fill="#191970" stroke="#191970" points="459.355,-589.1789 464.2486,-579.7819 454.5631,-584.0761 459.355,-589.1789"/>
</g>
<!-- Node381125 -->
<g id="node11" class="node">
<title>Node381125</title>
<g id="a_node11"><a xlink:href="quickjs_8c.html#a7bcb8e1a20cbc8374a5f9ba4a2088cec" target="_top" xlink:title="JS_ToString">
<polygon fill="none" stroke="#ff0000" points="439,-712.7472 439,-731.7472 510,-731.7472 510,-712.7472 439,-712.7472"/>
<text text-anchor="middle" x="474.5" y="-719.7472" font-family="Helvetica,sans-Serif" font-size="10.00" fill="#000000">JS_ToString</text>
</a>
</g>
</g>
<!-- Node381062&#45;&gt;Node381125 -->
<g id="edge11" class="edge">
<title>Node381062&#45;&gt;Node381125</title>
<path fill="none" stroke="#191970" d="M379.413,-722.2472C395.5446,-722.2472 412.93,-722.2472 428.3676,-722.2472"/>
<polygon fill="#191970" stroke="#191970" points="428.7046,-725.7473 438.7046,-722.2472 428.7045,-718.7473 428.7046,-725.7473"/>
</g>
<!-- Node381065 -->
<g id="node7" class="node">
<title>Node381065</title>
<g id="a_node7"><a xlink:href="quickjs_8c.html#aa3b85ecf2f1fbd87cb38b78548286017" target="_top" xlink:title="js_string_memcmp">
<polygon fill="none" stroke="#ff0000" points="574,-731.7472 574,-750.7472 673,-750.7472 673,-731.7472 574,-731.7472"/>
<text text-anchor="middle" x="623.5" y="-738.7472" font-family="Helvetica,sans-Serif" font-size="10.00" fill="#000000">js_string_memcmp</text>
</a>
</g>
</g>
<!-- Node381064&#45;&gt;Node381065 -->
<g id="edge6" class="edge">
<title>Node381064&#45;&gt;Node381065</title>
<path fill="none" stroke="#191970" d="M522.876,-754.0784C535.8772,-752.4206 550.0936,-750.6077 563.6381,-748.8806"/>
<polygon fill="#191970" stroke="#191970" points="564.3565,-752.3174 573.8334,-747.5805 563.471,-745.3737 564.3565,-752.3174"/>
</g>
<!-- Node381068 -->
<g id="node8" class="node">
<title>Node381068</title>
<g id="a_node8"><a xlink:href="cutils_8h.html#a29a7a26d9387c01c1b4e9fe4fff5704a" target="_top" xlink:title="min_int">
<polygon fill="none" stroke="#000000" points="599.5,-769.7472 599.5,-788.7472 647.5,-788.7472 647.5,-769.7472 599.5,-769.7472"/>
<text text-anchor="middle" x="623.5" y="-776.7472" font-family="Helvetica,sans-Serif" font-size="10.00" fill="#000000">min_int</text>
</a>
</g>
</g>
<!-- Node381064&#45;&gt;Node381068 -->
<g id="edge7" class="edge">
<title>Node381064&#45;&gt;Node381068</title>
<path fill="none" stroke="#191970" d="M522.876,-766.416C544.4848,-769.1714 569.451,-772.355 589.1089,-774.8618"/>
<polygon fill="#191970" stroke="#191970" points="588.7808,-778.3482 599.1432,-776.1413 589.6663,-771.4044 588.7808,-778.3482"/>
</g>
<!-- Node381070 -->
<g id="node10" class="node">
<title>Node381070</title>
<g id="a_node10"><a xlink:href="quickjs_8c.html#a9a2e141f21d9ea38a3a23c9b4eb6e356" target="_top" xlink:title="__JS_ToFloat64Free">
<polygon fill="none" stroke="#ff0000" points="570,-560.7472 570,-579.7472 677,-579.7472 677,-560.7472 570,-560.7472"/>
<text text-anchor="middle" x="623.5" y="-567.7472" font-family="Helvetica,sans-Serif" font-size="10.00" fill="#000000">__JS_ToFloat64Free</text>
</a>
</g>
</g>
<!-- Node381069&#45;&gt;Node381070 -->
<g id="edge9" class="edge">
<title>Node381069&#45;&gt;Node381070</title>
<path fill="none" stroke="#191970" d="M523.2882,-570.2472C534.9581,-570.2472 547.5875,-570.2472 559.8193,-570.2472"/>
<polygon fill="#191970" stroke="#191970" points="559.9707,-573.7473 569.9707,-570.2472 559.9707,-566.7473 559.9707,-573.7473"/>
</g>
<!-- Node381070&#45;&gt;Node381063 -->
<g id="edge10" class="edge">
<title>Node381070&#45;&gt;Node381063</title>
<path fill="none" stroke="#191970" d="M677.0109,-570.2472C685.4872,-570.2472 694.2526,-570.2472 702.7235,-570.2472"/>
<polygon fill="#191970" stroke="#191970" points="702.8709,-573.7473 712.8709,-570.2472 702.8709,-566.7473 702.8709,-573.7473"/>
</g>
<!-- Node381158 -->
<g id="node13" class="node">
<title>Node381158</title>
<g id="a_node13"><a xlink:href="quickjs_8c.html#a877fcb7651d95b411ce70e62b7f4a1f0" target="_top" xlink:title="__JS_AtomFromUInt32">
<polygon fill="none" stroke="#000000" points="415,-446.7472 415,-465.7472 534,-465.7472 534,-446.7472 415,-446.7472"/>
<text text-anchor="middle" x="474.5" y="-453.7472" font-family="Helvetica,sans-Serif" font-size="10.00" fill="#000000">__JS_AtomFromUInt32</text>
</a>
</g>
</g>
<!-- Node381490&#45;&gt;Node381158 -->
<g id="edge13" class="edge">
<title>Node381490&#45;&gt;Node381158</title>
<path fill="none" stroke="#191970" d="M181.6012,-465.895C198.9014,-479.587 233.0745,-504.0172 267,-513.2472 315.0318,-526.315 331.0131,-526.4791 379,-513.2472 407.7933,-505.3078 436.6586,-486.1515 454.9959,-472.2327"/>
<polygon fill="#191970" stroke="#191970" points="457.3832,-474.8091 463.1058,-465.8927 453.0718,-469.2943 457.3832,-474.8091"/>
</g>
<!-- Node381397 -->
<g id="node14" class="node">
<title>Node381397</title>
<g id="a_node14"><a xlink:href="quickjs_8c.html#a2b88ed25233c441cbed7b0a027c9ee2f" target="_top" xlink:title="JS_DeleteProperty">
<polygon fill="none" stroke="#ff0000" points="273.5,-636.7472 273.5,-655.7472 372.5,-655.7472 372.5,-636.7472 273.5,-636.7472"/>
<text text-anchor="middle" x="323" y="-643.7472" font-family="Helvetica,sans-Serif" font-size="10.00" fill="#000000">JS_DeleteProperty</text>
</a>
</g>
</g>
<!-- Node381490&#45;&gt;Node381397 -->
<g id="edge14" class="edge">
<title>Node381490&#45;&gt;Node381397</title>
<path fill="none" stroke="#191970" d="M176.789,-465.7763C192.2374,-487.33 231.4376,-541.2936 267,-584.2472 279.8993,-599.8274 295.3625,-616.8313 306.7687,-629.0844"/>
<polygon fill="#191970" stroke="#191970" points="304.2195,-631.4827 313.6105,-636.3878 309.328,-626.697 304.2195,-631.4827"/>
</g>
<!-- Node381105 -->
<g id="node18" class="node">
<title>Node381105</title>
<g id="a_node18"><a xlink:href="quickjs_8c.html#ab7fc45a99935a1c0ba50b0216d9401a9" target="_top" xlink:title="JS_FreeAtom">
<polygon fill="none" stroke="#ff0000" points="436,-294.7472 436,-313.7472 513,-313.7472 513,-294.7472 436,-294.7472"/>
<text text-anchor="middle" x="474.5" y="-301.7472" font-family="Helvetica,sans-Serif" font-size="10.00" fill="#000000">JS_FreeAtom</text>
</a>
</g>
</g>
<!-- Node381490&#45;&gt;Node381105 -->
<g id="edge20" class="edge">
<title>Node381490&#45;&gt;Node381105</title>
<path fill="none" stroke="#191970" d="M230.7037,-463.5758C274.6932,-465.9628 334.0854,-462.9255 379,-437.2472 424.6955,-411.1224 454.2505,-353.2074 467.1073,-323.1586"/>
<polygon fill="#191970" stroke="#191970" points="470.3935,-324.3697 470.9576,-313.7899 463.919,-321.7088 470.3935,-324.3697"/>
</g>
<!-- Node381491 -->
<g id="node19" class="node">
<title>Node381491</title>
<g id="a_node19"><a xlink:href="quickjs_8c.html#aa641af3a921335927dab07dc83285917" target="_top" xlink:title="JS_NewAtomInt64">
<polygon fill="none" stroke="#ff0000" points="273.5,-408.7472 273.5,-427.7472 372.5,-427.7472 372.5,-408.7472 273.5,-408.7472"/>
<text text-anchor="middle" x="323" y="-415.7472" font-family="Helvetica,sans-Serif" font-size="10.00" fill="#000000">JS_NewAtomInt64</text>
</a>
</g>
</g>
<!-- Node381490&#45;&gt;Node381491 -->
<g id="edge21" class="edge">
<title>Node381490&#45;&gt;Node381491</title>
<path fill="none" stroke="#191970" d="M208.6084,-446.6582C228.7074,-441.6663 253.4751,-435.5148 274.8185,-430.2138"/>
<polygon fill="#191970" stroke="#191970" points="275.8078,-433.5746 284.6693,-427.7673 274.1204,-426.781 275.8078,-433.5746"/>
</g>
<!-- Node381397&#45;&gt;Node381063 -->
<g id="edge16" class="edge">
<title>Node381397&#45;&gt;Node381063</title>
<path fill="none" stroke="#191970" d="M366.4215,-636.7252C381.7355,-633.5143 399.0972,-630.04 415,-627.2472 530.8893,-606.8948 561.4552,-611.4722 677,-589.2472 687.6025,-587.2078 698.9269,-584.6895 709.5938,-582.1609"/>
<polygon fill="#191970" stroke="#191970" points="710.6764,-585.5001 719.5743,-579.7488 709.0319,-578.696 710.6764,-585.5001"/>
</g>
<!-- Node381397&#45;&gt;Node381084 -->
<g id="edge15" class="edge">
<title>Node381397&#45;&gt;Node381084</title>
<path fill="none" stroke="#191970" d="M355.7994,-636.6593C364.0642,-633.1086 372.4412,-628.3968 379,-622.2472 404.8097,-598.0477 388.0612,-574.1831 415,-551.2472 418.2975,-548.4397 422.0142,-546.0458 425.9391,-544.0047"/>
<polygon fill="#191970" stroke="#191970" points="427.6313,-547.0841 435.3757,-539.8539 424.8128,-540.6765 427.6313,-547.0841"/>
</g>
<!-- Node381397&#45;&gt;Node381339 -->
<g id="edge17" class="edge">
<title>Node381397&#45;&gt;Node381339</title>
<path fill="none" stroke="#191970" d="M372.6068,-646.2472C390.044,-646.2472 409.588,-646.2472 426.8599,-646.2472"/>
<polygon fill="#191970" stroke="#191970" points="427.2813,-649.7473 437.2813,-646.2472 427.2813,-642.7473 427.2813,-649.7473"/>
</g>
<!-- Node381339&#45;&gt;Node381063 -->
<g id="edge18" class="edge">
<title>Node381339&#45;&gt;Node381063</title>
<path fill="none" stroke="#191970" d="M511.5178,-646.9069C553.0394,-646.5095 621.7962,-642.4015 677,-622.2472 699.4347,-614.0566 721.8788,-598.3865 737.0791,-586.3804"/>
<polygon fill="#191970" stroke="#191970" points="739.5926,-588.8474 745.137,-579.8191 735.1726,-583.4193 739.5926,-588.8474"/>
</g>
<!-- Node381119 -->
<g id="node17" class="node">
<title>Node381119</title>
<g id="a_node17"><a xlink:href="quickjs_8h.html#a2050bc428da1c65ac7eb87c3fa3b0392" target="_top" xlink:title="JS_NewInt32">
<polygon fill="none" stroke="#000000" points="585.5,-237.7472 585.5,-256.7472 661.5,-256.7472 661.5,-237.7472 585.5,-237.7472"/>
<text text-anchor="middle" x="623.5" y="-244.7472" font-family="Helvetica,sans-Serif" font-size="10.00" fill="#000000">JS_NewInt32</text>
</a>
</g>
</g>
<!-- Node381339&#45;&gt;Node381119 -->
<g id="edge19" class="edge">
<title>Node381339&#45;&gt;Node381119</title>
<path fill="none" stroke="#191970" d="M488.1784,-636.7272C501.8044,-626.5281 522.3291,-609.1022 534,-589.2472 598.7501,-479.0917 617.3772,-321.9145 622.0763,-267.0499"/>
<polygon fill="#191970" stroke="#191970" points="625.5757,-267.195 622.8792,-256.949 618.5977,-266.6402 625.5757,-267.195"/>
</g>
<!-- Node381491&#45;&gt;Node381063 -->
<g id="edge23" class="edge">
<title>Node381491&#45;&gt;Node381063</title>
<path fill="none" stroke="#191970" d="M372.856,-416.5367C416.4227,-416.4855 480.8411,-419.9383 534,-437.2472 615.87,-463.9047 699.5702,-525.1812 736.4828,-554.3084"/>
<polygon fill="#191970" stroke="#191970" points="734.4356,-557.1527 744.4333,-560.6594 738.8046,-551.6834 734.4356,-557.1527"/>
</g>
<!-- Node381491&#45;&gt;Node381158 -->
<g id="edge22" class="edge">
<title>Node381491&#45;&gt;Node381158</title>
<path fill="none" stroke="#191970" d="M361.2298,-427.8362C381.1319,-432.8281 405.6567,-438.9796 426.7909,-444.2806"/>
<polygon fill="#191970" stroke="#191970" points="425.994,-447.689 436.5451,-446.7272 427.6971,-440.8993 425.994,-447.689"/>
</g>
<!-- Node381344&#45;&gt;Node381063 -->
<g id="edge28" class="edge">
<title>Node381344&#45;&gt;Node381063</title>
<path fill="none" stroke="#191970" d="M365.6467,-146.7531C441.4814,-139.6574 599.1157,-137.4976 677,-228.2472 719.5873,-277.8693 746.2915,-484.6519 753.8126,-550.2133"/>
<polygon fill="#191970" stroke="#191970" points="750.3658,-550.8833 754.9592,-560.4306 757.3221,-550.1026 750.3658,-550.8833"/>
</g>
<!-- Node381178 -->
<g id="node22" class="node">
<title>Node381178</title>
<g id="a_node22"><a xlink:href="quickjs_8h.html#a89b7c8686c7eee70b86be722ee4730ad" target="_top" xlink:title="JS_GetProperty">
<polygon fill="none" stroke="#ff0000" points="431.5,-180.7472 431.5,-199.7472 517.5,-199.7472 517.5,-180.7472 431.5,-180.7472"/>
<text text-anchor="middle" x="474.5" y="-187.7472" font-family="Helvetica,sans-Serif" font-size="10.00" fill="#000000">JS_GetProperty</text>
</a>
</g>
</g>
<!-- Node381344&#45;&gt;Node381178 -->
<g id="edge27" class="edge">
<title>Node381344&#45;&gt;Node381178</title>
<path fill="none" stroke="#191970" d="M361.2298,-161.8362C381.1319,-166.8281 405.6567,-172.9796 426.7909,-178.2806"/>
<polygon fill="#191970" stroke="#191970" points="425.994,-181.689 436.5451,-180.7272 427.6971,-174.8993 425.994,-181.689"/>
</g>
<!-- Node381492&#45;&gt;Node381084 -->
<g id="edge32" class="edge">
<title>Node381492&#45;&gt;Node381084</title>
<path fill="none" stroke="#191970" d="M191.6489,-408.8523C204.4058,-415.3813 220.1241,-425.0458 231,-437.2472 255.8696,-465.1478 236.3623,-491.84 267,-513.2472 313.2178,-545.5405 380.0722,-545.5546 425.3035,-540.6241"/>
<polygon fill="#191970" stroke="#191970" points="425.9528,-544.0711 435.4598,-539.3948 425.1117,-537.1218 425.9528,-544.0711"/>
</g>
<!-- Node381492&#45;&gt;Node381119 -->
<g id="edge34" class="edge">
<title>Node381492&#45;&gt;Node381119</title>
<path fill="none" stroke="#191970" d="M179.9032,-389.7435C196.5624,-374.2568 231.8329,-343.57 267,-326.2472 369.5793,-275.7181 504.5938,-257.1741 575.4081,-250.6276"/>
<polygon fill="#191970" stroke="#191970" points="575.7257,-254.1133 585.3787,-249.7464 575.1094,-247.1404 575.7257,-254.1133"/>
</g>
<!-- Node381492&#45;&gt;Node381105 -->
<g id="edge31" class="edge">
<title>Node381492&#45;&gt;Node381105</title>
<path fill="none" stroke="#191970" d="M192.4881,-389.6585C211.9915,-381.5308 241.0822,-369.8571 267,-361.2472 320.8286,-343.3653 383.7946,-326.6448 426.1257,-315.998"/>
<polygon fill="#191970" stroke="#191970" points="427.0404,-319.3771 435.8934,-313.557 425.3432,-312.586 427.0404,-319.3771"/>
</g>
<!-- Node381492&#45;&gt;Node381491 -->
<g id="edge33" class="edge">
<title>Node381492&#45;&gt;Node381491</title>
<path fill="none" stroke="#191970" d="M223.512,-405.8925C236.2953,-407.4799 250.0226,-409.1847 263.0739,-410.8054"/>
<polygon fill="#191970" stroke="#191970" points="263.0098,-414.3242 273.3649,-412.0834 263.8725,-407.3776 263.0098,-414.3242"/>
</g>
<!-- Node381357 -->
<g id="node25" class="node">
<title>Node381357</title>
<g id="a_node25"><a xlink:href="quickjs_8h.html#af763b173e78debf2075670ca2c128a30" target="_top" xlink:title="JS_SetProperty">
<polygon fill="none" stroke="#ff0000" points="280,-370.7472 280,-389.7472 366,-389.7472 366,-370.7472 280,-370.7472"/>
<text text-anchor="middle" x="323" y="-377.7472" font-family="Helvetica,sans-Serif" font-size="10.00" fill="#000000">JS_SetProperty</text>
</a>
</g>
</g>
<!-- Node381492&#45;&gt;Node381357 -->
<g id="edge35" class="edge">
<title>Node381492&#45;&gt;Node381357</title>
<path fill="none" stroke="#191970" d="M223.512,-392.6019C238.4954,-390.7412 254.7758,-388.7195 269.7443,-386.8607"/>
<polygon fill="#191970" stroke="#191970" points="270.3731,-390.3095 279.8655,-385.6038 269.5103,-383.3629 270.3731,-390.3095"/>
</g>
<!-- Node381268 -->
<g id="node26" class="node">
<title>Node381268</title>
<g id="a_node26"><a xlink:href="quickjs_8c.html#aee75cc1546e19479e3ccda58f3b50a96" target="_top" xlink:title="JS_SetPropertyValue">
<polygon fill="none" stroke="#ff0000" points="268,-484.7472 268,-503.7472 378,-503.7472 378,-484.7472 268,-484.7472"/>
<text text-anchor="middle" x="323" y="-491.7472" font-family="Helvetica,sans-Serif" font-size="10.00" fill="#000000">JS_SetPropertyValue</text>
</a>
</g>
</g>
<!-- Node381492&#45;&gt;Node381268 -->
<g id="edge36" class="edge">
<title>Node381492&#45;&gt;Node381268</title>
<path fill="none" stroke="#191970" d="M185.5124,-408.8791C212.2025,-425.4514 266.9982,-459.4749 298.7624,-479.1977"/>
<polygon fill="#191970" stroke="#191970" points="297.1047,-482.2882 307.4465,-484.5898 300.7972,-476.3413 297.1047,-482.2882"/>
</g>
<!-- Node381268&#45;&gt;Node381069 -->
<g id="edge39" class="edge">
<title>Node381268&#45;&gt;Node381069</title>
<path fill="none" stroke="#191970" d="M336.1316,-503.8331C353.4772,-516.1477 385.3085,-537.5622 415,-551.2472 419.7409,-553.4323 424.8028,-555.4675 429.8974,-557.3319"/>
<polygon fill="#191970" stroke="#191970" points="429.0642,-560.7469 439.6589,-560.7011 431.3481,-554.1299 429.0642,-560.7469"/>
</g>
<!-- Node381268&#45;&gt;Node381084 -->
<g id="edge38" class="edge">
<title>Node381268&#45;&gt;Node381084</title>
<path fill="none" stroke="#191970" d="M361.2298,-503.8362C381.1319,-508.8281 405.6567,-514.9796 426.7909,-520.2806"/>
<polygon fill="#191970" stroke="#191970" points="425.994,-523.689 436.5451,-522.7272 427.6971,-516.8993 425.994,-523.689"/>
</g>
<!-- Node381268&#45;&gt;Node381105 -->
<g id="edge37" class="edge">
<title>Node381268&#45;&gt;Node381105</title>
<path fill="none" stroke="#191970" d="M355.002,-484.6735C363.4527,-481.0927 372.1231,-476.3621 379,-470.2472 426.0819,-428.3822 455.788,-357.5428 468.0453,-323.5608"/>
<polygon fill="#191970" stroke="#191970" points="471.4241,-324.5011 471.4118,-313.9062 464.8144,-322.1963 471.4241,-324.5011"/>
</g>
<!-- Node381493&#45;&gt;Node381063 -->
<g id="edge51" class="edge">
<title>Node381493&#45;&gt;Node381063</title>
<path fill="none" stroke="#191970" d="M184.8697,-275.6048C199.0818,-265.5541 219.9326,-248.4616 231,-228.2472 273.3236,-150.9438 199.2608,-89.6254 267,-33.2472 382.322,62.7334 605.3555,-71.4949 677,-160.2472 726.7035,-221.8193 749.0874,-476.5617 754.5998,-550.217"/>
<polygon fill="#191970" stroke="#191970" points="751.126,-550.706 755.3412,-560.4261 758.1076,-550.1988 751.126,-550.706"/>
</g>
<!-- Node381493&#45;&gt;Node381158 -->
<g id="edge42" class="edge">
<title>Node381493&#45;&gt;Node381158</title>
<path fill="none" stroke="#191970" d="M212.0787,-294.7964C256.0999,-306.0569 326.0364,-327.6143 379,-361.2472 412.5121,-382.528 443.5711,-417.3567 460.6956,-438.4096"/>
<polygon fill="#191970" stroke="#191970" points="458.1795,-440.8685 467.148,-446.5092 463.6546,-436.5069 458.1795,-440.8685"/>
</g>
<!-- Node381493&#45;&gt;Node381119 -->
<g id="edge53" class="edge">
<title>Node381493&#45;&gt;Node381119</title>
<path fill="none" stroke="#191970" d="M183.3435,-275.7234C196.968,-265.3941 217.9216,-247.7483 231,-228.2472 256.1492,-190.7474 229.8439,-158.9015 267,-133.2472 365.6359,-65.1445 427.2548,-116.7267 534,-171.2472 563.3296,-186.2274 591.2863,-212.5697 607.9212,-229.9662"/>
<polygon fill="#191970" stroke="#191970" points="605.7538,-232.7738 615.1344,-237.6987 610.8725,-227.9989 605.7538,-232.7738"/>
</g>
<!-- Node381493&#45;&gt;Node381105 -->
<g id="edge43" class="edge">
<title>Node381493&#45;&gt;Node381105</title>
<path fill="none" stroke="#191970" d="M231.3791,-284.7558C273.0819,-284.9026 329.4541,-286.0386 379,-290.2472 394.1942,-291.5378 410.6535,-293.6799 425.5585,-295.9051"/>
<polygon fill="#191970" stroke="#191970" points="425.1784,-299.3877 435.5944,-297.4494 426.2431,-292.4691 425.1784,-299.3877"/>
</g>
<!-- Node381493&#45;&gt;Node381491 -->
<g id="edge52" class="edge">
<title>Node381493&#45;&gt;Node381491</title>
<path fill="none" stroke="#191970" d="M175.7213,-295.035C188.9837,-316.8949 224.0006,-370.0535 267,-399.2472 269.8906,-401.2097 273.0023,-402.9862 276.2252,-404.5915"/>
<polygon fill="#191970" stroke="#191970" points="274.9483,-407.8534 285.5113,-408.6743 277.7658,-401.4454 274.9483,-407.8534"/>
</g>
<!-- Node381493&#45;&gt;Node381178 -->
<g id="edge44" class="edge">
<title>Node381493&#45;&gt;Node381178</title>
<path fill="none" stroke="#191970" d="M184.4957,-275.7344C198.6296,-265.6636 219.6103,-248.4483 231,-228.2472 269.1443,-160.5936 206.6897,-106.1826 267,-57.2472 305.6541,-25.8835 334.7109,-34.5248 379,-57.2472 425.8324,-81.2745 454.8797,-140.1263 467.3684,-170.8541"/>
<polygon fill="#191970" stroke="#191970" points="464.2119,-172.3943 471.0973,-180.4468 470.7363,-169.8581 464.2119,-172.3943"/>
</g>
<!-- Node381304 -->
<g id="node28" class="node">
<title>Node381304</title>
<g id="a_node28"><a xlink:href="quickjs_8c.html#a90d6e607f6917d817c1e997bd2e6ed07" target="_top" xlink:title="JS_GetPropertyValue">
<polygon fill="none" stroke="#ff0000" points="267.5,-180.7472 267.5,-199.7472 378.5,-199.7472 378.5,-180.7472 267.5,-180.7472"/>
<text text-anchor="middle" x="323" y="-187.7472" font-family="Helvetica,sans-Serif" font-size="10.00" fill="#000000">JS_GetPropertyValue</text>
</a>
</g>
</g>
<!-- Node381493&#45;&gt;Node381304 -->
<g id="edge45" class="edge">
<title>Node381493&#45;&gt;Node381304</title>
<path fill="none" stroke="#191970" d="M203.6829,-275.7168C213.0753,-272.1032 222.9123,-267.3446 231,-261.2472 252.0104,-245.4072 246.2299,-230.4011 267,-214.2472 272.041,-210.3266 277.819,-206.9203 283.706,-204.0039"/>
<polygon fill="#191970" stroke="#191970" points="285.287,-207.1303 292.9564,-199.8207 282.4026,-200.7521 285.287,-207.1303"/>
</g>
<!-- Node381369 -->
<g id="node29" class="node">
<title>Node381369</title>
<g id="a_node29"><a xlink:href="quickjs_8c.html#a9d6d0a9704951d01c128975e0d2213f8" target="_top" xlink:title="JS_HasProperty">
<polygon fill="none" stroke="#ff0000" points="278.5,-66.7472 278.5,-85.7472 367.5,-85.7472 367.5,-66.7472 278.5,-66.7472"/>
<text text-anchor="middle" x="323" y="-73.7472" font-family="Helvetica,sans-Serif" font-size="10.00" fill="#000000">JS_HasProperty</text>
</a>
</g>
</g>
<!-- Node381493&#45;&gt;Node381369 -->
<g id="edge50" class="edge">
<title>Node381493&#45;&gt;Node381369</title>
<path fill="none" stroke="#191970" d="M184.2144,-275.5695C198.1294,-265.3705 218.9433,-248.0574 231,-228.2472 261.7236,-177.7655 228.0314,-144.6746 267,-100.2472 270.2717,-96.5172 274.2245,-93.3484 278.499,-90.6603"/>
<polygon fill="#191970" stroke="#191970" points="280.4393,-93.5919 287.6096,-85.792 277.1402,-87.418 280.4393,-93.5919"/>
</g>
<!-- Node381304&#45;&gt;Node381084 -->
<g id="edge47" class="edge">
<title>Node381304&#45;&gt;Node381084</title>
<path fill="none" stroke="#191970" d="M326.1934,-199.8775C334.8065,-225.8778 359.201,-299.6883 379,-361.2472 395.2683,-411.8284 386.9403,-430.1278 415,-475.2472 424.8209,-491.039 440.0109,-505.491 452.5845,-515.8917"/>
<polygon fill="#191970" stroke="#191970" points="450.7699,-518.9208 460.7731,-522.4116 455.1301,-513.4446 450.7699,-518.9208"/>
</g>
<!-- Node381304&#45;&gt;Node381119 -->
<g id="edge49" class="edge">
<title>Node381304&#45;&gt;Node381119</title>
<path fill="none" stroke="#191970" d="M368.3482,-199.8321C383.2003,-202.9125 399.7908,-206.2911 415,-209.2472 469.8889,-219.9154 533.0853,-231.3088 575.3833,-238.8069"/>
<polygon fill="#191970" stroke="#191970" points="574.9466,-242.2839 585.4034,-240.5796 576.1661,-235.391 574.9466,-242.2839"/>
</g>
<!-- Node381304&#45;&gt;Node381105 -->
<g id="edge46" class="edge">
<title>Node381304&#45;&gt;Node381105</title>
<path fill="none" stroke="#191970" d="M350.4716,-199.7771C359.8837,-203.6156 370.2427,-208.5056 379,-214.2472 411.0082,-235.2328 442.134,-267.4346 459.7508,-287.0935"/>
<polygon fill="#191970" stroke="#191970" points="457.1999,-289.4926 466.437,-294.6816 462.4519,-284.8648 457.1999,-289.4926"/>
</g>
<!-- Node381304&#45;&gt;Node381178 -->
<g id="edge48" class="edge">
<title>Node381304&#45;&gt;Node381178</title>
<path fill="none" stroke="#191970" d="M378.5527,-190.2472C392.4156,-190.2472 407.2521,-190.2472 421.0128,-190.2472"/>
<polygon fill="#191970" stroke="#191970" points="421.2921,-193.7473 431.2921,-190.2472 421.2921,-186.7473 421.2921,-193.7473"/>
</g>
</g>
</svg>
