<?xml version="1.0" encoding="UTF-8" standalone="no"?>
<!DOCTYPE svg PUBLIC "-//W3C//DTD SVG 1.1//EN"
 "http://www.w3.org/Graphics/SVG/1.1/DTD/svg11.dtd">
<!-- Generated by graphviz version 2.40.1 (20161225.0304)
 -->
<!-- Title: js_get_array_buffer Pages: 1 -->
<!--zoomable 104 -->
<svg id="main" version="1.1" xmlns="http://www.w3.org/2000/svg" xmlns:xlink="http://www.w3.org/1999/xlink" xml:space="preserve" onload="init(evt)">
<style type="text/css"><![CDATA[
.edge:hover path { stroke: red; }
.edge:hover polygon { stroke: red; fill: red; }
]]></style>
<script type="text/javascript"><![CDATA[
var edges = document.getElementsByTagName('g');
if (edges && edges.length) {
  for (var i=0;i<edges.length;i++) {
    if (edges[i].id.substr(0,4)=='edge') {
      edges[i].setAttribute('class','edge');
    }
  }
}
]]></script>
        <defs>
                <circle id="rim" cx="0" cy="0" r="7"/>
                <circle id="rim2" cx="0" cy="0" r="3.5"/>
                <g id="zoomPlus">
                        <use xlink:href="#rim" fill="#404040">
                                <set attributeName="fill" to="#808080" begin="zoomplus.mouseover" end="zoomplus.mouseout"/>
                        </use>
                        <path d="M-4,0h8M0,-4v8" fill="none" stroke="white" stroke-width="1.5" pointer-events="none"/>
                </g>
                <g id="zoomMin">
                        <use xlink:href="#rim" fill="#404040">
                                <set attributeName="fill" to="#808080" begin="zoomminus.mouseover" end="zoomminus.mouseout"/>
                        </use>
                        <path d="M-4,0h8" fill="none" stroke="white" stroke-width="1.5" pointer-events="none"/>
                </g>
                <g id="dirArrow">
                        <path fill="none" stroke="white" stroke-width="1.5" d="M0,-3.0v7 M-2.5,-0.5L0,-3.0L2.5,-0.5"/>
                </g>
               <g id="resetDef">
                       <use xlink:href="#rim2" fill="#404040">
                               <set attributeName="fill" to="#808080" begin="reset.mouseover" end="reset.mouseout"/>
                       </use>
               </g>
        </defs>

<script type="text/javascript">
var viewWidth = 568;
var viewHeight = 104;
var sectionId = 'dynsection-1773';
</script>
<script xlink:href="svgpan.js"/>
<svg id="graph" class="graph">
<g id="viewport">
<title>js_get_array_buffer</title>
<!-- Node454226 -->
<g id="node1" class="node">
<title>Node454226</title>
<polygon fill="#bfbfbf" stroke="#000000" points="0,-57.5 0,-76.5 100,-76.5 100,-57.5 0,-57.5"/>
<text text-anchor="middle" x="50" y="-64.5" font-family="Helvetica,sans-Serif" font-size="10.00" fill="#000000">js_get_array_buffer</text>
</g>
<!-- Node454227 -->
<g id="node2" class="node">
<title>Node454227</title>
<g id="a_node2"><a xlink:href="quickjs_8c.html#a67fcc1a61d5e110579fdaf06d051b6e9" target="_top" xlink:title="js_dataview_constructor">
<polygon fill="none" stroke="#000000" points="136,-76.5 136,-95.5 258,-95.5 258,-76.5 136,-76.5"/>
<text text-anchor="middle" x="197" y="-83.5" font-family="Helvetica,sans-Serif" font-size="10.00" fill="#000000">js_dataview_constructor</text>
</a>
</g>
</g>
<!-- Node454226&#45;&gt;Node454227 -->
<g id="edge1" class="edge">
<title>Node454226&#45;&gt;Node454227</title>
<path fill="none" stroke="#191970" d="M110.3125,-74.7955C118.7438,-75.8853 127.4146,-77.006 135.8611,-78.0977"/>
<polygon fill="#191970" stroke="#191970" points="110.5441,-71.2964 100.1779,-73.4856 109.6467,-78.2386 110.5441,-71.2964"/>
</g>
<!-- Node454230 -->
<g id="node5" class="node">
<title>Node454230</title>
<g id="a_node5"><a xlink:href="quickjs_8c.html#ab9dd8240188c470b7c9733ff1ac12726" target="_top" xlink:title="JS_GetArrayBuffer">
<polygon fill="none" stroke="#000000" points="147.5,-38.5 147.5,-57.5 246.5,-57.5 246.5,-38.5 147.5,-38.5"/>
<text text-anchor="middle" x="197" y="-45.5" font-family="Helvetica,sans-Serif" font-size="10.00" fill="#000000">JS_GetArrayBuffer</text>
</a>
</g>
</g>
<!-- Node454226&#45;&gt;Node454230 -->
<g id="edge4" class="edge">
<title>Node454226&#45;&gt;Node454230</title>
<path fill="none" stroke="#191970" d="M110.2923,-59.2071C122.5112,-57.6278 135.2335,-55.9834 147.0482,-54.4564"/>
<polygon fill="#191970" stroke="#191970" points="109.6467,-55.7614 100.1779,-60.5144 110.5441,-62.7036 109.6467,-55.7614"/>
</g>
<!-- Node454228 -->
<g id="node3" class="node">
<title>Node454228</title>
<g id="a_node3"><a xlink:href="quickjs_8c.html#a177d09828596bfe6df4bd90b2e93989d" target="_top" xlink:title="JS_AddIntrinsicTypedArrays">
<polygon fill="none" stroke="#000000" points="294,-76.5 294,-95.5 435,-95.5 435,-76.5 294,-76.5"/>
<text text-anchor="middle" x="364.5" y="-83.5" font-family="Helvetica,sans-Serif" font-size="10.00" fill="#000000">JS_AddIntrinsicTypedArrays</text>
</a>
</g>
</g>
<!-- Node454227&#45;&gt;Node454228 -->
<g id="edge2" class="edge">
<title>Node454227&#45;&gt;Node454228</title>
<path fill="none" stroke="#191970" d="M268.5072,-86C276.8635,-86 285.3861,-86 293.7324,-86"/>
<polygon fill="#191970" stroke="#191970" points="268.4197,-82.5001 258.4197,-86 268.4197,-89.5001 268.4197,-82.5001"/>
</g>
<!-- Node454229 -->
<g id="node4" class="node">
<title>Node454229</title>
<g id="a_node4"><a xlink:href="quickjs_8c.html#ad8aedb643b8753b7a15f6cb2df61945e" target="_top" xlink:title="JS_NewContext">
<polygon fill="none" stroke="#000000" points="471,-76.5 471,-95.5 560,-95.5 560,-76.5 471,-76.5"/>
<text text-anchor="middle" x="515.5" y="-83.5" font-family="Helvetica,sans-Serif" font-size="10.00" fill="#000000">JS_NewContext</text>
</a>
</g>
</g>
<!-- Node454228&#45;&gt;Node454229 -->
<g id="edge3" class="edge">
<title>Node454228&#45;&gt;Node454229</title>
<path fill="none" stroke="#191970" d="M445.3813,-86C454.0943,-86 462.7113,-86 470.7649,-86"/>
<polygon fill="#191970" stroke="#191970" points="445.1368,-82.5001 435.1368,-86 445.1367,-89.5001 445.1368,-82.5001"/>
</g>
<!-- Node454231 -->
<g id="node6" class="node">
<title>Node454231</title>
<g id="a_node6"><a xlink:href="quickjs-libc_8c.html#a075659fd6c4054c89c99093d1bcb4d37" target="_top" xlink:title="js_std_file_read_write">
<polygon fill="none" stroke="#000000" points="309,-38.5 309,-57.5 420,-57.5 420,-38.5 309,-38.5"/>
<text text-anchor="middle" x="364.5" y="-45.5" font-family="Helvetica,sans-Serif" font-size="10.00" fill="#000000">js_std_file_read_write</text>
</a>
</g>
</g>
<!-- Node454230&#45;&gt;Node454231 -->
<g id="edge5" class="edge">
<title>Node454230&#45;&gt;Node454231</title>
<path fill="none" stroke="#191970" d="M257.0805,-48C273.9206,-48 292.1519,-48 308.7304,-48"/>
<polygon fill="#191970" stroke="#191970" points="256.8021,-44.5001 246.802,-48 256.802,-51.5001 256.8021,-44.5001"/>
</g>
<!-- Node454232 -->
<g id="node7" class="node">
<title>Node454232</title>
<g id="a_node7"><a xlink:href="quickjs-libc_8c.html#a70dbcae0637863811297360f2773c3ba" target="_top" xlink:title="js_os_read_write">
<polygon fill="none" stroke="#000000" points="319.5,-.5 319.5,-19.5 409.5,-19.5 409.5,-.5 319.5,-.5"/>
<text text-anchor="middle" x="364.5" y="-7.5" font-family="Helvetica,sans-Serif" font-size="10.00" fill="#000000">js_os_read_write</text>
</a>
</g>
</g>
<!-- Node454230&#45;&gt;Node454232 -->
<g id="edge6" class="edge">
<title>Node454230&#45;&gt;Node454232</title>
<path fill="none" stroke="#191970" d="M249.1201,-36.1757C272.7347,-30.8184 300.282,-24.5689 322.5366,-19.5201"/>
<polygon fill="#191970" stroke="#191970" points="248.2451,-32.7852 239.2673,-38.411 249.7939,-39.6117 248.2451,-32.7852"/>
</g>
</g>
</svg>
        <g id="navigator" transform="translate(0 0)" fill="#404254">
                <rect fill="#f2f5e9" fill-opacity="0.5" stroke="#606060" stroke-width=".5" x="0" y="0" width="60" height="60"/>
                <use id="zoomplus" xlink:href="#zoomPlus" x="17" y="9" onmousedown="handleZoom(evt,'in')"/>
                <use id="zoomminus" xlink:href="#zoomMin" x="42" y="9" onmousedown="handleZoom(evt,'out')"/>
                <use id="reset" xlink:href="#resetDef" x="30" y="36" onmousedown="handleReset()"/>
                <g id="arrowUp" xlink:href="#dirArrow" transform="translate(30 24)" onmousedown="handlePan(0,-1)">
                  <use xlink:href="#rim" fill="#404040">
                        <set attributeName="fill" to="#808080" begin="arrowUp.mouseover" end="arrowUp.mouseout"/>
                  </use>
                  <path fill="none" stroke="white" stroke-width="1.5" d="M0,-3.0v7 M-2.5,-0.5L0,-3.0L2.5,-0.5"/>
                </g>
                <g id="arrowRight" xlink:href="#dirArrow" transform="rotate(90) translate(36 -43)" onmousedown="handlePan(1,0)">
                  <use xlink:href="#rim" fill="#404040">
                        <set attributeName="fill" to="#808080" begin="arrowRight.mouseover" end="arrowRight.mouseout"/>
                  </use>
                  <path fill="none" stroke="white" stroke-width="1.5" d="M0,-3.0v7 M-2.5,-0.5L0,-3.0L2.5,-0.5"/>
                </g>
                <g id="arrowDown" xlink:href="#dirArrow" transform="rotate(180) translate(-30 -48)" onmousedown="handlePan(0,1)">
                  <use xlink:href="#rim" fill="#404040">
                        <set attributeName="fill" to="#808080" begin="arrowDown.mouseover" end="arrowDown.mouseout"/>
                  </use>
                  <path fill="none" stroke="white" stroke-width="1.5" d="M0,-3.0v7 M-2.5,-0.5L0,-3.0L2.5,-0.5"/>
                </g>
                <g id="arrowLeft" xlink:href="#dirArrow" transform="rotate(270) translate(-36 17)" onmousedown="handlePan(-1,0)">
                  <use xlink:href="#rim" fill="#404040">
                        <set attributeName="fill" to="#808080" begin="arrowLeft.mouseover" end="arrowLeft.mouseout"/>
                  </use>
                  <path fill="none" stroke="white" stroke-width="1.5" d="M0,-3.0v7 M-2.5,-0.5L0,-3.0L2.5,-0.5"/>
                </g>
        </g>
        <svg viewBox="0 0 15 15" width="100%" height="30px" preserveAspectRatio="xMaxYMin meet">
         <g id="arrow_out" transform="scale(0.3 0.3)">
          <a xlink:href="quickjs_8c_a939f8b5d288d1f52e00280a42a29b9b4_icgraph_org.svg" target="_base">
           <rect id="button" ry="5" rx="5" y="6" x="6" height="38" width="38"
                fill="#f2f5e9" fill-opacity="0.5" stroke="#606060" stroke-width="1.0"/>
           <path id="arrow"
             d="M 11.500037,31.436501 C 11.940474,20.09759 22.043105,11.32322 32.158766,21.979434 L 37.068811,17.246167 C 37.068811,17.246167 37.088388,32 37.088388,32 L 22.160133,31.978069 C 22.160133,31.978069 26.997745,27.140456 26.997745,27.140456 C 18.528582,18.264221 13.291696,25.230495 11.500037,31.436501 z"
             style="fill:#404040;"/>
          </a>
         </g>
        </svg>
</svg>
