<?xml version="1.0" encoding="UTF-8" standalone="no"?>
<!DOCTYPE svg PUBLIC "-//W3C//DTD SVG 1.1//EN"
 "http://www.w3.org/Graphics/SVG/1.1/DTD/svg11.dtd">
<!-- Generated by graphviz version 2.40.1 (20161225.0304)
 -->
<!-- Title: JS_GetRuntime Pages: 1 -->
<svg width="635pt" height="590pt"
 viewBox="0.00 0.00 635.00 590.00" xmlns="http://www.w3.org/2000/svg" xmlns:xlink="http://www.w3.org/1999/xlink">
<g id="graph0" class="graph" transform="scale(1 1) rotate(0) translate(4 586)">
<title>JS_GetRuntime</title>
<!-- Node70424 -->
<g id="node1" class="node">
<title>Node70424</title>
<polygon fill="#bfbfbf" stroke="#000000" points="0,-315.5 0,-334.5 86,-334.5 86,-315.5 0,-315.5"/>
<text text-anchor="middle" x="43" y="-322.5" font-family="Helvetica,sans-Serif" font-size="10.00" fill="#000000">JS_GetRuntime</text>
</g>
<!-- Node70425 -->
<g id="node2" class="node">
<title>Node70425</title>
<g id="a_node2"><a xlink:href="structqjs_1_1allocator.html#a18001b399a7e0a993ac9c839ebfe691c" target="_top" xlink:title="qjs::allocator::allocator">
<polygon fill="none" stroke="#000000" points="131,-562.5 131,-581.5 246,-581.5 246,-562.5 131,-562.5"/>
<text text-anchor="middle" x="188.5" y="-569.5" font-family="Helvetica,sans-Serif" font-size="10.00" fill="#000000">qjs::allocator::allocator</text>
</a>
</g>
</g>
<!-- Node70424&#45;&gt;Node70425 -->
<g id="edge1" class="edge">
<title>Node70424&#45;&gt;Node70425</title>
<path fill="none" stroke="#191970" d="M43.9687,-344.9398C47.2097,-389.0485 61.2566,-495.523 122,-553 126.0991,-556.8787 130.9346,-559.9736 136.0979,-562.4418"/>
<polygon fill="#191970" stroke="#191970" points="47.4591,-344.6753 43.3443,-334.9122 40.4727,-345.1104 47.4591,-344.6753"/>
</g>
<!-- Node70426 -->
<g id="node3" class="node">
<title>Node70426</title>
<g id="a_node3"><a xlink:href="quickjs-libc_8c.html#a55f6cd4bbd0e676992642d066fd1d9fd" target="_top" xlink:title="js_evalScript">
<polygon fill="none" stroke="#000000" points="152,-524.5 152,-543.5 225,-543.5 225,-524.5 152,-524.5"/>
<text text-anchor="middle" x="188.5" y="-531.5" font-family="Helvetica,sans-Serif" font-size="10.00" fill="#000000">js_evalScript</text>
</a>
</g>
</g>
<!-- Node70424&#45;&gt;Node70426 -->
<g id="edge2" class="edge">
<title>Node70424&#45;&gt;Node70426</title>
<path fill="none" stroke="#191970" d="M46.0914,-344.6713C52.9721,-382.0468 72.9867,-463.7145 122,-510 130.2099,-517.753 141.1074,-523.0331 151.7006,-526.6165"/>
<polygon fill="#191970" stroke="#191970" points="49.5011,-343.8461 44.3602,-334.5822 42.6019,-345.0301 49.5011,-343.8461"/>
</g>
<!-- Node70427 -->
<g id="node4" class="node">
<title>Node70427</title>
<g id="a_node4"><a xlink:href="quickjs-libc_8c.html#a066e7962ce24f22d5df20968a8baa346" target="_top" xlink:title="js_os_init">
<polygon fill="none" stroke="#000000" points="326,-467.5 326,-486.5 384,-486.5 384,-467.5 326,-467.5"/>
<text text-anchor="middle" x="355" y="-474.5" font-family="Helvetica,sans-Serif" font-size="10.00" fill="#000000">js_os_init</text>
</a>
</g>
</g>
<!-- Node70424&#45;&gt;Node70427 -->
<g id="edge3" class="edge">
<title>Node70424&#45;&gt;Node70427</title>
<path fill="none" stroke="#191970" d="M46.5666,-344.9673C53.8622,-379.1187 74.0391,-447.8752 122,-477 185.9647,-515.8433 279.1605,-498.5459 325.9349,-485.9634"/>
<polygon fill="#191970" stroke="#191970" points="49.934,-343.9529 44.5647,-334.8194 43.0664,-345.3078 49.934,-343.9529"/>
</g>
<!-- Node70430 -->
<g id="node7" class="node">
<title>Node70430</title>
<g id="a_node7"><a xlink:href="quickjs-libc_8c.html#ac6c5f34cb0df6ab0d7579f0f20908a2c" target="_top" xlink:title="js_os_poll">
<polygon fill="none" stroke="#000000" points="158.5,-448.5 158.5,-467.5 218.5,-467.5 218.5,-448.5 158.5,-448.5"/>
<text text-anchor="middle" x="188.5" y="-455.5" font-family="Helvetica,sans-Serif" font-size="10.00" fill="#000000">js_os_poll</text>
</a>
</g>
</g>
<!-- Node70424&#45;&gt;Node70430 -->
<g id="edge6" class="edge">
<title>Node70424&#45;&gt;Node70430</title>
<path fill="none" stroke="#191970" d="M51.0955,-343.9248C62.9434,-369.3587 87.4169,-414.2299 122,-439 132.6401,-446.6209 146.2752,-451.1967 158.426,-453.9388"/>
<polygon fill="#191970" stroke="#191970" points="54.2094,-342.3148 46.9239,-334.6224 47.8222,-345.1791 54.2094,-342.3148"/>
</g>
<!-- Node70431 -->
<g id="node8" class="node">
<title>Node70431</title>
<g id="a_node8"><a xlink:href="quickjs-libc_8c.html#a786f04aebbd56e14572bc82c0920be2c" target="_top" xlink:title="js_os_setReadHandler">
<polygon fill="none" stroke="#000000" points="130.5,-410.5 130.5,-429.5 246.5,-429.5 246.5,-410.5 130.5,-410.5"/>
<text text-anchor="middle" x="188.5" y="-417.5" font-family="Helvetica,sans-Serif" font-size="10.00" fill="#000000">js_os_setReadHandler</text>
</a>
</g>
</g>
<!-- Node70424&#45;&gt;Node70431 -->
<g id="edge8" class="edge">
<title>Node70424&#45;&gt;Node70431</title>
<path fill="none" stroke="#191970" d="M57.0682,-342.8857C71.576,-360.1668 95.7323,-385.8843 122,-401 128.6605,-404.8328 136.147,-407.9367 143.6302,-410.4366"/>
<polygon fill="#191970" stroke="#191970" points="59.4361,-340.2518 50.4009,-334.7187 54.0136,-344.6786 59.4361,-340.2518"/>
</g>
<!-- Node70432 -->
<g id="node9" class="node">
<title>Node70432</title>
<g id="a_node9"><a xlink:href="quickjs-libc_8c.html#a87465e0686e72ba005afdf9f31a1cbf7" target="_top" xlink:title="js_os_signal">
<polygon fill="none" stroke="#000000" points="153,-372.5 153,-391.5 224,-391.5 224,-372.5 153,-372.5"/>
<text text-anchor="middle" x="188.5" y="-379.5" font-family="Helvetica,sans-Serif" font-size="10.00" fill="#000000">js_os_signal</text>
</a>
</g>
</g>
<!-- Node70424&#45;&gt;Node70432 -->
<g id="edge9" class="edge">
<title>Node70424&#45;&gt;Node70432</title>
<path fill="none" stroke="#191970" d="M70.032,-339.4142C85.0619,-347.0668 104.262,-356.256 122,-363 131.8765,-366.755 142.8208,-370.1736 152.9318,-373.0433"/>
<polygon fill="#191970" stroke="#191970" points="71.3051,-336.1323 60.8147,-334.6484 68.09,-342.3503 71.3051,-336.1323"/>
</g>
<!-- Node70433 -->
<g id="node10" class="node">
<title>Node70433</title>
<g id="a_node10"><a xlink:href="quickjs-libc_8c.html#abc010e21334ba999f6ad18a681caf4fb" target="_top" xlink:title="js_std_dbuf_init">
<polygon fill="none" stroke="#000000" points="146,-334.5 146,-353.5 231,-353.5 231,-334.5 146,-334.5"/>
<text text-anchor="middle" x="188.5" y="-341.5" font-family="Helvetica,sans-Serif" font-size="10.00" fill="#000000">js_std_dbuf_init</text>
</a>
</g>
</g>
<!-- Node70424&#45;&gt;Node70433 -->
<g id="edge10" class="edge">
<title>Node70424&#45;&gt;Node70433</title>
<path fill="none" stroke="#191970" d="M96.1831,-331.9449C112.4637,-334.0709 130.1567,-336.3813 145.6567,-338.4053"/>
<polygon fill="#191970" stroke="#191970" points="96.6299,-328.4736 86.2609,-330.6492 95.7234,-335.4147 96.6299,-328.4736"/>
</g>
<!-- Node70441 -->
<g id="node18" class="node">
<title>Node70441</title>
<g id="a_node18"><a xlink:href="quickjs-libc_8c.html#a9d1d581951398643c2791e45231f87db" target="_top" xlink:title="js_std_gc">
<polygon fill="none" stroke="#000000" points="159,-296.5 159,-315.5 218,-315.5 218,-296.5 159,-296.5"/>
<text text-anchor="middle" x="188.5" y="-303.5" font-family="Helvetica,sans-Serif" font-size="10.00" fill="#000000">js_std_gc</text>
</a>
</g>
</g>
<!-- Node70424&#45;&gt;Node70441 -->
<g id="edge18" class="edge">
<title>Node70424&#45;&gt;Node70441</title>
<path fill="none" stroke="#191970" d="M96.4136,-318.025C117.5495,-315.265 141.0333,-312.1984 158.9957,-309.8528"/>
<polygon fill="#191970" stroke="#191970" points="95.7234,-314.5853 86.2609,-319.3508 96.6299,-321.5264 95.7234,-314.5853"/>
</g>
<!-- Node70442 -->
<g id="node19" class="node">
<title>Node70442</title>
<g id="a_node19"><a xlink:href="quickjs-libc_8c.html#a08cea1a0226b7603e6969e2208d99d55" target="_top" xlink:title="js_std_init">
<polygon fill="none" stroke="#000000" points="324.5,-258.5 324.5,-277.5 385.5,-277.5 385.5,-258.5 324.5,-258.5"/>
<text text-anchor="middle" x="355" y="-265.5" font-family="Helvetica,sans-Serif" font-size="10.00" fill="#000000">js_std_init</text>
</a>
</g>
</g>
<!-- Node70424&#45;&gt;Node70442 -->
<g id="edge19" class="edge">
<title>Node70424&#45;&gt;Node70442</title>
<path fill="none" stroke="#191970" d="M67.1154,-310.5292C82.3145,-302.1482 102.659,-292.2458 122,-287 192.5068,-267.8767 279.0551,-266.2523 324.229,-266.9731"/>
<polygon fill="#191970" stroke="#191970" points="65.3382,-307.5134 58.3717,-315.4957 68.7955,-313.6 65.3382,-307.5134"/>
</g>
<!-- Node70444 -->
<g id="node21" class="node">
<title>Node70444</title>
<g id="a_node21"><a xlink:href="quickjs-libc_8c.html#af7480dad10e937004e36b2b409b084a4" target="_top" xlink:title="js_std_loop">
<polygon fill="none" stroke="#000000" points="471,-220.5 471,-239.5 537,-239.5 537,-220.5 471,-220.5"/>
<text text-anchor="middle" x="504" y="-227.5" font-family="Helvetica,sans-Serif" font-size="10.00" fill="#000000">js_std_loop</text>
</a>
</g>
</g>
<!-- Node70424&#45;&gt;Node70444 -->
<g id="edge22" class="edge">
<title>Node70424&#45;&gt;Node70444</title>
<path fill="none" stroke="#191970" d="M59.4141,-307.696C74.2601,-293.2739 97.494,-273.5939 122,-264 243.5194,-216.4262 402.8836,-221.7696 470.9103,-226.8876"/>
<polygon fill="#191970" stroke="#191970" points="56.6485,-305.5132 52.0745,-315.0699 61.6097,-310.4515 56.6485,-305.5132"/>
</g>
<!-- Node70445 -->
<g id="node22" class="node">
<title>Node70445</title>
<g id="a_node22"><a xlink:href="classqjs_1_1Context_1_1Module.html#a3b16e4ca57ab1de004a35ae1930b40d2" target="_top" xlink:title="qjs::Context::Module\l::Module">
<polygon fill="none" stroke="#000000" points="135,-171 135,-201 242,-201 242,-171 135,-171"/>
<text text-anchor="start" x="143" y="-189" font-family="Helvetica,sans-Serif" font-size="10.00" fill="#000000">qjs::Context::Module</text>
<text text-anchor="middle" x="188.5" y="-178" font-family="Helvetica,sans-Serif" font-size="10.00" fill="#000000">::Module</text>
</a>
</g>
</g>
<!-- Node70424&#45;&gt;Node70445 -->
<g id="edge24" class="edge">
<title>Node70424&#45;&gt;Node70445</title>
<path fill="none" stroke="#191970" d="M52.5875,-306.2133C65.5251,-282.4572 90.6104,-241.577 122,-216 129.1677,-210.1596 137.6549,-205.2106 146.1264,-201.1196"/>
<polygon fill="#191970" stroke="#191970" points="49.3883,-304.7758 47.8036,-315.2515 55.5752,-308.0505 49.3883,-304.7758"/>
</g>
<!-- Node70446 -->
<g id="node23" class="node">
<title>Node70446</title>
<g id="a_node23"><a xlink:href="structqjs_1_1js__traits_3_01std_1_1shared__ptr_3_01T_01_4_01_4.html#af3558afeef079826c58411353c8ccce0" target="_top" xlink:title="Register class in QuickJS context. ">
<polygon fill="none" stroke="#000000" points="138,-110.5 138,-151.5 239,-151.5 239,-110.5 138,-110.5"/>
<text text-anchor="start" x="146" y="-139.5" font-family="Helvetica,sans-Serif" font-size="10.00" fill="#000000">qjs::js_traits&lt; std</text>
<text text-anchor="start" x="146" y="-128.5" font-family="Helvetica,sans-Serif" font-size="10.00" fill="#000000">::shared_ptr&lt; T &gt; &gt;</text>
<text text-anchor="middle" x="188.5" y="-117.5" font-family="Helvetica,sans-Serif" font-size="10.00" fill="#000000">::register_class</text>
</a>
</g>
</g>
<!-- Node70424&#45;&gt;Node70446 -->
<g id="edge25" class="edge">
<title>Node70424&#45;&gt;Node70446</title>
<path fill="none" stroke="#191970" d="M47.8787,-305.2683C57.0743,-271.7825 79.9321,-203.438 122,-162 126.6281,-157.4412 132.0515,-153.4684 137.7696,-150.0291"/>
<polygon fill="#191970" stroke="#191970" points="44.4257,-304.6381 45.2759,-315.1987 51.197,-306.4129 44.4257,-304.6381"/>
</g>
<!-- Node70448 -->
<g id="node25" class="node">
<title>Node70448</title>
<g id="a_node25"><a xlink:href="structqjs_1_1js__traits_3_01detail_1_1function_01_4.html#afe383c63f389edaf9f878cd30062d37f" target="_top" xlink:title="qjs::js_traits\&lt; detail\l::function \&gt;::register_class">
<polygon fill="none" stroke="#000000" points="122,-61 122,-91 255,-91 255,-61 122,-61"/>
<text text-anchor="start" x="130" y="-79" font-family="Helvetica,sans-Serif" font-size="10.00" fill="#000000">qjs::js_traits&lt; detail</text>
<text text-anchor="middle" x="188.5" y="-68" font-family="Helvetica,sans-Serif" font-size="10.00" fill="#000000">::function &gt;::register_class</text>
</a>
</g>
</g>
<!-- Node70424&#45;&gt;Node70448 -->
<g id="edge27" class="edge">
<title>Node70424&#45;&gt;Node70448</title>
<path fill="none" stroke="#191970" d="M44.4788,-305.203C48.7262,-262.2264 64.6379,-159.5523 122,-101 125.7978,-97.1234 130.2547,-93.8408 135.0317,-91.0626"/>
<polygon fill="#191970" stroke="#191970" points="40.9683,-305.1709 43.5817,-315.4383 47.9416,-305.7821 40.9683,-305.1709"/>
</g>
<!-- Node70450 -->
<g id="node27" class="node">
<title>Node70450</title>
<g id="a_node27"><a xlink:href="structqjs_1_1js__traits_3_01std_1_1function_3_01R_07Args_8_8_8_08_4_01_4.html#a6812a672334111ba5228e64816e55490" target="_top" xlink:title="Convert from function object functor to JSValue. ">
<polygon fill="none" stroke="#000000" points="134,-.5 134,-41.5 243,-41.5 243,-.5 134,-.5"/>
<text text-anchor="start" x="142" y="-29.5" font-family="Helvetica,sans-Serif" font-size="10.00" fill="#000000">qjs::js_traits&lt; std</text>
<text text-anchor="start" x="142" y="-18.5" font-family="Helvetica,sans-Serif" font-size="10.00" fill="#000000">::function&lt; R(Args...)</text>
<text text-anchor="middle" x="188.5" y="-7.5" font-family="Helvetica,sans-Serif" font-size="10.00" fill="#000000">&gt; &gt;::wrap</text>
</a>
</g>
</g>
<!-- Node70424&#45;&gt;Node70450 -->
<g id="edge29" class="edge">
<title>Node70424&#45;&gt;Node70450</title>
<path fill="none" stroke="#191970" d="M46.4343,-305.4689C56.5993,-249.544 87.9593,-90.2963 122,-51 125.4001,-47.075 129.4168,-43.6377 133.7654,-40.6326"/>
<polygon fill="#191970" stroke="#191970" points="42.9586,-305.0229 44.6413,-315.4833 49.849,-306.2567 42.9586,-305.0229"/>
</g>
<!-- Node70428 -->
<g id="node5" class="node">
<title>Node70428</title>
<g id="a_node5"><a xlink:href="quickjs-libc_8c.html#adcca2b4a661355e6ff87a0def2339894" target="_top" xlink:title="js_init_module_os">
<polygon fill="none" stroke="#000000" points="456.5,-467.5 456.5,-486.5 551.5,-486.5 551.5,-467.5 456.5,-467.5"/>
<text text-anchor="middle" x="504" y="-474.5" font-family="Helvetica,sans-Serif" font-size="10.00" fill="#000000">js_init_module_os</text>
</a>
</g>
</g>
<!-- Node70427&#45;&gt;Node70428 -->
<g id="edge4" class="edge">
<title>Node70427&#45;&gt;Node70428</title>
<path fill="none" stroke="#191970" d="M394.1885,-477C413.1979,-477 436.1975,-477 456.2262,-477"/>
<polygon fill="#191970" stroke="#191970" points="394.0824,-473.5001 384.0824,-477 394.0824,-480.5001 394.0824,-473.5001"/>
</g>
<!-- Node70429 -->
<g id="node6" class="node">
<title>Node70429</title>
<g id="a_node6"><a xlink:href="qjs_8cpp.html#a3c04138a5bfe5d72780bb7e82a18e627" target="_top" xlink:title="main">
<polygon fill="none" stroke="#000000" points="589,-258.5 589,-277.5 627,-277.5 627,-258.5 589,-258.5"/>
<text text-anchor="middle" x="608" y="-265.5" font-family="Helvetica,sans-Serif" font-size="10.00" fill="#000000">main</text>
</a>
</g>
</g>
<!-- Node70428&#45;&gt;Node70429 -->
<g id="edge5" class="edge">
<title>Node70428&#45;&gt;Node70429</title>
<path fill="none" stroke="#191970" d="M548.6329,-462.0648C550.1939,-460.8158 551.6599,-459.4637 553,-458 578.1601,-430.5187 600.1846,-313.1078 606.3113,-277.9719"/>
<polygon fill="#191970" stroke="#191970" points="546.7068,-459.1421 540.181,-467.4887 550.4874,-465.0334 546.7068,-459.1421"/>
</g>
<!-- Node70430&#45;&gt;Node70427 -->
<g id="edge7" class="edge">
<title>Node70430&#45;&gt;Node70427</title>
<path fill="none" stroke="#191970" d="M228.7929,-462.598C258.7801,-466.02 299.0094,-470.6107 325.9094,-473.6804"/>
<polygon fill="#191970" stroke="#191970" points="228.9843,-459.0972 218.6519,-461.4408 228.1906,-466.0521 228.9843,-459.0972"/>
</g>
<!-- Node70434 -->
<g id="node11" class="node">
<title>Node70434</title>
<g id="a_node11"><a xlink:href="quickjs-libc_8c.html#a2abec3aeee82a6dd3dd063725bbeecfe" target="_top" xlink:title="js_printf_internal">
<polygon fill="none" stroke="#000000" points="311,-410.5 311,-429.5 399,-429.5 399,-410.5 311,-410.5"/>
<text text-anchor="middle" x="355" y="-417.5" font-family="Helvetica,sans-Serif" font-size="10.00" fill="#000000">js_printf_internal</text>
</a>
</g>
</g>
<!-- Node70433&#45;&gt;Node70434 -->
<g id="edge11" class="edge">
<title>Node70433&#45;&gt;Node70434</title>
<path fill="none" stroke="#191970" d="M240.7427,-355.9727C245.719,-357.9787 250.5586,-360.3052 255,-363 274.8897,-375.0679 271.1726,-388.83 291,-401 297.2232,-404.8198 304.2594,-407.9102 311.3315,-410.3989"/>
<polygon fill="#191970" stroke="#191970" points="241.6676,-352.586 231.0731,-352.4981 239.3003,-359.1736 241.6676,-352.586"/>
</g>
<!-- Node70438 -->
<g id="node15" class="node">
<title>Node70438</title>
<g id="a_node15"><a xlink:href="quickjs-libc_8c.html#af31f002f20b3b7e983dd4efabd18d65e" target="_top" xlink:title="js_std_file_getline">
<polygon fill="none" stroke="#000000" points="307.5,-372.5 307.5,-391.5 402.5,-391.5 402.5,-372.5 307.5,-372.5"/>
<text text-anchor="middle" x="355" y="-379.5" font-family="Helvetica,sans-Serif" font-size="10.00" fill="#000000">js_std_file_getline</text>
</a>
</g>
</g>
<!-- Node70433&#45;&gt;Node70438 -->
<g id="edge15" class="edge">
<title>Node70433&#45;&gt;Node70438</title>
<path fill="none" stroke="#191970" d="M240.309,-355.8243C263.7825,-361.1816 291.1654,-367.4311 313.2871,-372.4799"/>
<polygon fill="#191970" stroke="#191970" points="241.0431,-352.4019 230.515,-353.589 239.4855,-359.2264 241.0431,-352.4019"/>
</g>
<!-- Node70439 -->
<g id="node16" class="node">
<title>Node70439</title>
<g id="a_node16"><a xlink:href="quickjs-libc_8c.html#ae8abf0c32bf9b0acd85adffaf8345dfe" target="_top" xlink:title="js_std_file_readAsString">
<polygon fill="none" stroke="#000000" points="294,-334.5 294,-353.5 416,-353.5 416,-334.5 294,-334.5"/>
<text text-anchor="middle" x="355" y="-341.5" font-family="Helvetica,sans-Serif" font-size="10.00" fill="#000000">js_std_file_readAsString</text>
</a>
</g>
</g>
<!-- Node70433&#45;&gt;Node70439 -->
<g id="edge16" class="edge">
<title>Node70433&#45;&gt;Node70439</title>
<path fill="none" stroke="#191970" d="M241.464,-344C258.0965,-344 276.5965,-344 293.7533,-344"/>
<polygon fill="#191970" stroke="#191970" points="241.3779,-340.5001 231.3779,-344 241.3779,-347.5001 241.3779,-340.5001"/>
</g>
<!-- Node70440 -->
<g id="node17" class="node">
<title>Node70440</title>
<g id="a_node17"><a xlink:href="quickjs-libc_8c.html#a7aebce2172c6aa4a6645aef600a69e6b" target="_top" xlink:title="js_std_urlGet">
<polygon fill="none" stroke="#000000" points="318,-296.5 318,-315.5 392,-315.5 392,-296.5 318,-296.5"/>
<text text-anchor="middle" x="355" y="-303.5" font-family="Helvetica,sans-Serif" font-size="10.00" fill="#000000">js_std_urlGet</text>
</a>
</g>
</g>
<!-- Node70433&#45;&gt;Node70440 -->
<g id="edge17" class="edge">
<title>Node70433&#45;&gt;Node70440</title>
<path fill="none" stroke="#191970" d="M240.5877,-332.1121C265.6332,-326.396 295.0764,-319.6763 317.822,-314.4851"/>
<polygon fill="#191970" stroke="#191970" points="239.4855,-328.7736 230.515,-334.411 241.0431,-335.5981 239.4855,-328.7736"/>
</g>
<!-- Node70435 -->
<g id="node12" class="node">
<title>Node70435</title>
<g id="a_node12"><a xlink:href="quickjs-libc_8c.html#a2770356a19e5d09edcb7da0cecbfe0f8" target="_top" xlink:title="js_std_file_printf">
<polygon fill="none" stroke="#000000" points="460,-429.5 460,-448.5 548,-448.5 548,-429.5 460,-429.5"/>
<text text-anchor="middle" x="504" y="-436.5" font-family="Helvetica,sans-Serif" font-size="10.00" fill="#000000">js_std_file_printf</text>
</a>
</g>
</g>
<!-- Node70434&#45;&gt;Node70435 -->
<g id="edge12" class="edge">
<title>Node70434&#45;&gt;Node70435</title>
<path fill="none" stroke="#191970" d="M409.4161,-426.939C426.0112,-429.0551 444.0432,-431.3545 459.8692,-433.3726"/>
<polygon fill="#191970" stroke="#191970" points="409.6639,-423.4423 399.3015,-425.6492 408.7784,-430.3861 409.6639,-423.4423"/>
</g>
<!-- Node70436 -->
<g id="node13" class="node">
<title>Node70436</title>
<g id="a_node13"><a xlink:href="quickjs-libc_8c.html#a6f5e9fa6d24e8fabd0b97f88179c1b29" target="_top" xlink:title="js_std_printf">
<polygon fill="none" stroke="#000000" points="469,-391.5 469,-410.5 539,-410.5 539,-391.5 469,-391.5"/>
<text text-anchor="middle" x="504" y="-398.5" font-family="Helvetica,sans-Serif" font-size="10.00" fill="#000000">js_std_printf</text>
</a>
</g>
</g>
<!-- Node70434&#45;&gt;Node70436 -->
<g id="edge13" class="edge">
<title>Node70434&#45;&gt;Node70436</title>
<path fill="none" stroke="#191970" d="M409.4076,-413.0621C429.1502,-410.5446 450.9273,-407.7677 468.605,-405.5135"/>
<polygon fill="#191970" stroke="#191970" points="408.7784,-409.6139 399.3015,-414.3508 409.6639,-416.5577 408.7784,-409.6139"/>
</g>
<!-- Node70437 -->
<g id="node14" class="node">
<title>Node70437</title>
<g id="a_node14"><a xlink:href="quickjs-libc_8c.html#ac49c945b1cbeb056236cfb479ec1ffd5" target="_top" xlink:title="js_std_sprintf">
<polygon fill="none" stroke="#000000" points="466.5,-353.5 466.5,-372.5 541.5,-372.5 541.5,-353.5 466.5,-353.5"/>
<text text-anchor="middle" x="504" y="-360.5" font-family="Helvetica,sans-Serif" font-size="10.00" fill="#000000">js_std_sprintf</text>
</a>
</g>
</g>
<!-- Node70434&#45;&gt;Node70437 -->
<g id="edge14" class="edge">
<title>Node70434&#45;&gt;Node70437</title>
<path fill="none" stroke="#191970" d="M401.5563,-407.3554C407.4896,-405.4011 413.4307,-403.2705 419,-401 435.753,-394.1702 438.5385,-389.5051 455,-382 462.3057,-378.6692 470.3788,-375.3832 477.8284,-372.5048"/>
<polygon fill="#191970" stroke="#191970" points="400.1353,-404.1332 391.6454,-410.4713 402.2348,-410.8109 400.1353,-404.1332"/>
</g>
<!-- Node70443 -->
<g id="node20" class="node">
<title>Node70443</title>
<g id="a_node20"><a xlink:href="quickjs-libc_8c.html#a0e65c67dfff872a664f8d29e7eae5a61" target="_top" xlink:title="js_init_module_std">
<polygon fill="none" stroke="#000000" points="455,-258.5 455,-277.5 553,-277.5 553,-258.5 455,-258.5"/>
<text text-anchor="middle" x="504" y="-265.5" font-family="Helvetica,sans-Serif" font-size="10.00" fill="#000000">js_init_module_std</text>
</a>
</g>
</g>
<!-- Node70442&#45;&gt;Node70443 -->
<g id="edge20" class="edge">
<title>Node70442&#45;&gt;Node70443</title>
<path fill="none" stroke="#191970" d="M395.5457,-268C413.8184,-268 435.5579,-268 454.7585,-268"/>
<polygon fill="#191970" stroke="#191970" points="395.512,-264.5001 385.5119,-268 395.5119,-271.5001 395.512,-264.5001"/>
</g>
<!-- Node70443&#45;&gt;Node70429 -->
<g id="edge21" class="edge">
<title>Node70443&#45;&gt;Node70429</title>
<path fill="none" stroke="#191970" d="M563.2897,-268C572.4732,-268 581.3472,-268 588.7353,-268"/>
<polygon fill="#191970" stroke="#191970" points="563.259,-264.5001 553.2589,-268 563.2589,-271.5001 563.259,-264.5001"/>
</g>
<!-- Node70444&#45;&gt;Node70429 -->
<g id="edge23" class="edge">
<title>Node70444&#45;&gt;Node70429</title>
<path fill="none" stroke="#191970" d="M539.6482,-243.0253C556.2034,-249.0743 575.2203,-256.0228 588.9853,-261.0523"/>
<polygon fill="#191970" stroke="#191970" points="540.8374,-239.7336 530.2436,-239.589 538.435,-246.3084 540.8374,-239.7336"/>
</g>
<!-- Node70447 -->
<g id="node24" class="node">
<title>Node70447</title>
<g id="a_node24"><a xlink:href="structqjs_1_1js__traits_3_01std_1_1shared__ptr_3_01T_01_4_01_4.html#a046f811ae16e0cb24170a8425f3e8780" target="_top" xlink:title="Create a JSValue from std::shared_ptr&lt;T&gt;. ">
<polygon fill="none" stroke="#000000" points="291,-116 291,-146 419,-146 419,-116 291,-116"/>
<text text-anchor="start" x="299" y="-134" font-family="Helvetica,sans-Serif" font-size="10.00" fill="#000000">qjs::js_traits&lt; std</text>
<text text-anchor="middle" x="355" y="-123" font-family="Helvetica,sans-Serif" font-size="10.00" fill="#000000">::shared_ptr&lt; T &gt; &gt;::wrap</text>
</a>
</g>
</g>
<!-- Node70446&#45;&gt;Node70447 -->
<g id="edge26" class="edge">
<title>Node70446&#45;&gt;Node70447</title>
<path fill="none" stroke="#191970" d="M249.4831,-131C262.969,-131 277.2964,-131 290.9021,-131"/>
<polygon fill="#191970" stroke="#191970" points="249.3602,-127.5001 239.3602,-131 249.3602,-134.5001 249.3602,-127.5001"/>
</g>
<!-- Node70449 -->
<g id="node26" class="node">
<title>Node70449</title>
<g id="a_node26"><a xlink:href="classqjs_1_1Context.html#aae629cc551168d549a405db5c762b61e" target="_top" xlink:title="qjs::Context::init">
<polygon fill="none" stroke="#000000" points="310.5,-66.5 310.5,-85.5 399.5,-85.5 399.5,-66.5 310.5,-66.5"/>
<text text-anchor="middle" x="355" y="-73.5" font-family="Helvetica,sans-Serif" font-size="10.00" fill="#000000">qjs::Context::init</text>
</a>
</g>
</g>
<!-- Node70448&#45;&gt;Node70449 -->
<g id="edge28" class="edge">
<title>Node70448&#45;&gt;Node70449</title>
<path fill="none" stroke="#191970" d="M265.2985,-76C280.669,-76 296.3347,-76 310.1826,-76"/>
<polygon fill="#191970" stroke="#191970" points="265.2626,-72.5001 255.2626,-76 265.2625,-79.5001 265.2626,-72.5001"/>
</g>
</g>
</svg>
