<?xml version="1.0" encoding="UTF-8" standalone="no"?>
<!DOCTYPE svg PUBLIC "-//W3C//DTD SVG 1.1//EN"
 "http://www.w3.org/Graphics/SVG/1.1/DTD/svg11.dtd">
<!-- Generated by graphviz version 2.40.1 (20161225.0304)
 -->
<!-- Title: JS_SetPropertyStr Pages: 1 -->
<svg width="365pt" height="221pt"
 viewBox="0.00 0.00 365.00 221.00" xmlns="http://www.w3.org/2000/svg" xmlns:xlink="http://www.w3.org/1999/xlink">
<g id="graph0" class="graph" transform="scale(1 1) rotate(0) translate(4 217)">
<title>JS_SetPropertyStr</title>
<!-- Node60871 -->
<g id="node1" class="node">
<title>Node60871</title>
<polygon fill="#bfbfbf" stroke="#000000" points="0,-60.5 0,-79.5 98,-79.5 98,-60.5 0,-60.5"/>
<text text-anchor="middle" x="49" y="-67.5" font-family="Helvetica,sans-Serif" font-size="10.00" fill="#000000">JS_SetPropertyStr</text>
</g>
<!-- Node60872 -->
<g id="node2" class="node">
<title>Node60872</title>
<g id="a_node2"><a xlink:href="quickjs-libc_8c.html#a5802fe689f97b693173247111a01a76a" target="_top" xlink:title="js_set_error_object">
<polygon fill="none" stroke="#000000" points="139.5,-117.5 139.5,-136.5 238.5,-136.5 238.5,-117.5 139.5,-117.5"/>
<text text-anchor="middle" x="189" y="-124.5" font-family="Helvetica,sans-Serif" font-size="10.00" fill="#000000">js_set_error_object</text>
</a>
</g>
</g>
<!-- Node60871&#45;&gt;Node60872 -->
<g id="edge1" class="edge">
<title>Node60871&#45;&gt;Node60872</title>
<path fill="none" stroke="#191970" d="M81.7671,-83.3409C107.4439,-93.795 142.548,-108.0874 165.4907,-117.4284"/>
<polygon fill="#191970" stroke="#191970" points="83.0145,-80.0698 72.4329,-79.5405 80.3748,-86.5531 83.0145,-80.0698"/>
</g>
<!-- Node60877 -->
<g id="node7" class="node">
<title>Node60877</title>
<g id="a_node7"><a xlink:href="quickjs-libc_8c.html#ad04466feec6822a3b838baf229f6dfa0" target="_top" xlink:title="js_std_add_helpers">
<polygon fill="none" stroke="#000000" points="138.5,-60.5 138.5,-79.5 239.5,-79.5 239.5,-60.5 138.5,-60.5"/>
<text text-anchor="middle" x="189" y="-67.5" font-family="Helvetica,sans-Serif" font-size="10.00" fill="#000000">js_std_add_helpers</text>
</a>
</g>
</g>
<!-- Node60871&#45;&gt;Node60877 -->
<g id="edge6" class="edge">
<title>Node60871&#45;&gt;Node60877</title>
<path fill="none" stroke="#191970" d="M108.5156,-70C118.3937,-70 128.5568,-70 138.1939,-70"/>
<polygon fill="#191970" stroke="#191970" points="108.3588,-66.5001 98.3588,-70 108.3587,-73.5001 108.3588,-66.5001"/>
</g>
<!-- Node60879 -->
<g id="node9" class="node">
<title>Node60879</title>
<g id="a_node9"><a xlink:href="structqjs_1_1js__property__traits_3_01const_01char_01_5_01_4.html#ad7131d2b5de0ffc36fba2524b6d88f11" target="_top" xlink:title="qjs::js_property_traits\l\&lt; const char * \&gt;::set\l_property">
<polygon fill="none" stroke="#000000" points="134,-.5 134,-41.5 244,-41.5 244,-.5 134,-.5"/>
<text text-anchor="start" x="142" y="-29.5" font-family="Helvetica,sans-Serif" font-size="10.00" fill="#000000">qjs::js_property_traits</text>
<text text-anchor="start" x="142" y="-18.5" font-family="Helvetica,sans-Serif" font-size="10.00" fill="#000000">&lt; const char * &gt;::set</text>
<text text-anchor="middle" x="189" y="-7.5" font-family="Helvetica,sans-Serif" font-size="10.00" fill="#000000">_property</text>
</a>
</g>
</g>
<!-- Node60871&#45;&gt;Node60879 -->
<g id="edge8" class="edge">
<title>Node60871&#45;&gt;Node60879</title>
<path fill="none" stroke="#191970" d="M86.0348,-57.0378C100.7002,-51.9049 117.8673,-45.8964 133.9336,-40.2732"/>
<polygon fill="#191970" stroke="#191970" points="84.6081,-53.8289 76.3258,-60.436 86.9206,-60.4359 84.6081,-53.8289"/>
</g>
<!-- Node60873 -->
<g id="node3" class="node">
<title>Node60873</title>
<g id="a_node3"><a xlink:href="quickjs-libc_8c.html#a51bfedac363e39a4273635aa7810425a" target="_top" xlink:title="js_std_fdopen">
<polygon fill="none" stroke="#000000" points="280,-193.5 280,-212.5 357,-212.5 357,-193.5 280,-193.5"/>
<text text-anchor="middle" x="318.5" y="-200.5" font-family="Helvetica,sans-Serif" font-size="10.00" fill="#000000">js_std_fdopen</text>
</a>
</g>
</g>
<!-- Node60872&#45;&gt;Node60873 -->
<g id="edge2" class="edge">
<title>Node60872&#45;&gt;Node60873</title>
<path fill="none" stroke="#191970" d="M211.9444,-142.2749C230.1147,-154.1496 256.2955,-170.7714 280,-184 285.7277,-187.1964 292.0669,-190.4404 297.9204,-193.3216"/>
<polygon fill="#191970" stroke="#191970" points="213.5062,-139.113 203.2283,-136.5411 209.6591,-144.961 213.5062,-139.113"/>
</g>
<!-- Node60874 -->
<g id="node4" class="node">
<title>Node60874</title>
<g id="a_node4"><a xlink:href="quickjs-libc_8c.html#a7af79ae13a636de55a6d58309c0cfa1e" target="_top" xlink:title="js_std_open">
<polygon fill="none" stroke="#000000" points="284,-155.5 284,-174.5 353,-174.5 353,-155.5 284,-155.5"/>
<text text-anchor="middle" x="318.5" y="-162.5" font-family="Helvetica,sans-Serif" font-size="10.00" fill="#000000">js_std_open</text>
</a>
</g>
</g>
<!-- Node60872&#45;&gt;Node60874 -->
<g id="edge3" class="edge">
<title>Node60872&#45;&gt;Node60874</title>
<path fill="none" stroke="#191970" d="M231.719,-139.5353C249.336,-144.7048 269.4232,-150.5991 285.8321,-155.4141"/>
<polygon fill="#191970" stroke="#191970" points="232.2592,-136.0463 221.6783,-136.589 230.2882,-142.7631 232.2592,-136.0463"/>
</g>
<!-- Node60875 -->
<g id="node5" class="node">
<title>Node60875</title>
<g id="a_node5"><a xlink:href="quickjs-libc_8c.html#af872be4f158af25e3b412e2be297abcf" target="_top" xlink:title="js_std_popen">
<polygon fill="none" stroke="#000000" points="281.5,-117.5 281.5,-136.5 355.5,-136.5 355.5,-117.5 281.5,-117.5"/>
<text text-anchor="middle" x="318.5" y="-124.5" font-family="Helvetica,sans-Serif" font-size="10.00" fill="#000000">js_std_popen</text>
</a>
</g>
</g>
<!-- Node60872&#45;&gt;Node60875 -->
<g id="edge4" class="edge">
<title>Node60872&#45;&gt;Node60875</title>
<path fill="none" stroke="#191970" d="M248.7573,-127C259.8113,-127 271.0606,-127 281.2061,-127"/>
<polygon fill="#191970" stroke="#191970" points="248.6978,-123.5001 238.6977,-127 248.6977,-130.5001 248.6978,-123.5001"/>
</g>
<!-- Node60876 -->
<g id="node6" class="node">
<title>Node60876</title>
<g id="a_node6"><a xlink:href="quickjs-libc_8c.html#ab6571176bd6ffba18dcc966ffb1c7234" target="_top" xlink:title="js_std_tmpfile">
<polygon fill="none" stroke="#000000" points="280,-79.5 280,-98.5 357,-98.5 357,-79.5 280,-79.5"/>
<text text-anchor="middle" x="318.5" y="-86.5" font-family="Helvetica,sans-Serif" font-size="10.00" fill="#000000">js_std_tmpfile</text>
</a>
</g>
</g>
<!-- Node60872&#45;&gt;Node60876 -->
<g id="edge5" class="edge">
<title>Node60872&#45;&gt;Node60876</title>
<path fill="none" stroke="#191970" d="M231.719,-114.4647C249.336,-109.2952 269.4232,-103.4009 285.8321,-98.5859"/>
<polygon fill="#191970" stroke="#191970" points="230.2882,-111.2369 221.6783,-117.411 232.2592,-117.9537 230.2882,-111.2369"/>
</g>
<!-- Node60878 -->
<g id="node8" class="node">
<title>Node60878</title>
<g id="a_node8"><a xlink:href="qjs_8cpp.html#a3c04138a5bfe5d72780bb7e82a18e627" target="_top" xlink:title="main">
<polygon fill="none" stroke="#000000" points="299.5,-41.5 299.5,-60.5 337.5,-60.5 337.5,-41.5 299.5,-41.5"/>
<text text-anchor="middle" x="318.5" y="-48.5" font-family="Helvetica,sans-Serif" font-size="10.00" fill="#000000">main</text>
</a>
</g>
</g>
<!-- Node60877&#45;&gt;Node60878 -->
<g id="edge7" class="edge">
<title>Node60877&#45;&gt;Node60878</title>
<path fill="none" stroke="#191970" d="M250.1864,-61.0228C267.9488,-58.4168 286.07,-55.7581 299.1814,-53.8344"/>
<polygon fill="#191970" stroke="#191970" points="249.1961,-57.6306 239.8101,-62.5452 250.2123,-64.5564 249.1961,-57.6306"/>
</g>
</g>
</svg>
