<?xml version="1.0" encoding="UTF-8" standalone="no"?>
<!DOCTYPE svg PUBLIC "-//W3C//DTD SVG 1.1//EN"
 "http://www.w3.org/Graphics/SVG/1.1/DTD/svg11.dtd">
<!-- Generated by graphviz version 2.40.1 (20161225.0304)
 -->
<!-- Title: get_closure_var2 Pages: 1 -->
<svg width="472pt" height="104pt"
 viewBox="0.00 0.00 472.00 104.00" xmlns="http://www.w3.org/2000/svg" xmlns:xlink="http://www.w3.org/1999/xlink">
<g id="graph0" class="graph" transform="scale(1 1) rotate(0) translate(4 100)">
<title>get_closure_var2</title>
<!-- Node337279 -->
<g id="node1" class="node">
<title>Node337279</title>
<polygon fill="#bfbfbf" stroke="#000000" points="0,-38.5 0,-57.5 91,-57.5 91,-38.5 0,-38.5"/>
<text text-anchor="middle" x="45.5" y="-45.5" font-family="Helvetica,sans-Serif" font-size="10.00" fill="#000000">get_closure_var2</text>
</g>
<!-- Node337279&#45;&gt;Node337279 -->
<g id="edge6" class="edge">
<title>Node337279&#45;&gt;Node337279</title>
<path fill="none" stroke="#191970" d="M26.388,-57.7571C17.0903,-66.5653 23.4609,-76 45.5,-76 59.6188,-76 67.3072,-72.128 68.5654,-67.0292"/>
<polygon fill="#191970" stroke="#191970" points="71.7537,-65.5831 64.612,-57.7571 65.3146,-68.3286 71.7537,-65.5831"/>
</g>
<!-- Node337280 -->
<g id="node2" class="node">
<title>Node337280</title>
<g id="a_node2"><a xlink:href="quickjs_8c.html#a9f64fb61a20cee1cad0eb2680624e341" target="_top" xlink:title="add_closure_var">
<polygon fill="none" stroke="#000000" points="127,-38.5 127,-57.5 215,-57.5 215,-38.5 127,-38.5"/>
<text text-anchor="middle" x="171" y="-45.5" font-family="Helvetica,sans-Serif" font-size="10.00" fill="#000000">add_closure_var</text>
</a>
</g>
</g>
<!-- Node337279&#45;&gt;Node337280 -->
<g id="edge1" class="edge">
<title>Node337279&#45;&gt;Node337280</title>
<path fill="none" stroke="#191970" d="M91.1634,-48C99.4345,-48 108.1344,-48 116.6259,-48"/>
<polygon fill="#191970" stroke="#191970" points="116.8375,-51.5001 126.8375,-48 116.8375,-44.5001 116.8375,-51.5001"/>
</g>
<!-- Node337281 -->
<g id="node3" class="node">
<title>Node337281</title>
<g id="a_node3"><a xlink:href="quickjs_8c.html#a853f0924d441ea4225488f37c8b69f9a" target="_top" xlink:title="__attribute__">
<polygon fill="none" stroke="#000000" points="252,-76.5 252,-95.5 325,-95.5 325,-76.5 252,-76.5"/>
<text text-anchor="middle" x="288.5" y="-83.5" font-family="Helvetica,sans-Serif" font-size="10.00" fill="#000000">__attribute__</text>
</a>
</g>
</g>
<!-- Node337280&#45;&gt;Node337281 -->
<g id="edge2" class="edge">
<title>Node337280&#45;&gt;Node337281</title>
<path fill="none" stroke="#191970" d="M200.6502,-57.589C215.4009,-62.3594 233.4258,-68.1888 249.301,-73.3229"/>
<polygon fill="#191970" stroke="#191970" points="248.2675,-76.667 258.8593,-76.4141 250.4215,-70.0067 248.2675,-76.667"/>
</g>
<!-- Node337282 -->
<g id="node4" class="node">
<title>Node337282</title>
<g id="a_node4"><a xlink:href="quickjs_8c.html#abbf44eaeace1104a6bef718fbf5700fe" target="_top" xlink:title="JS_DupAtom">
<polygon fill="none" stroke="#000000" points="251,-38.5 251,-57.5 326,-57.5 326,-38.5 251,-38.5"/>
<text text-anchor="middle" x="288.5" y="-45.5" font-family="Helvetica,sans-Serif" font-size="10.00" fill="#000000">JS_DupAtom</text>
</a>
</g>
</g>
<!-- Node337280&#45;&gt;Node337282 -->
<g id="edge3" class="edge">
<title>Node337280&#45;&gt;Node337282</title>
<path fill="none" stroke="#191970" d="M215.087,-48C223.4202,-48 232.1739,-48 240.6173,-48"/>
<polygon fill="#191970" stroke="#191970" points="240.7135,-51.5001 250.7135,-48 240.7134,-44.5001 240.7135,-51.5001"/>
</g>
<!-- Node337284 -->
<g id="node6" class="node">
<title>Node337284</title>
<g id="a_node6"><a xlink:href="cutils_8h.html#a94f155fcce337a2b9d4719ed8042cbbe" target="_top" xlink:title="max_int">
<polygon fill="none" stroke="#000000" points="263,-.5 263,-19.5 314,-19.5 314,-.5 263,-.5"/>
<text text-anchor="middle" x="288.5" y="-7.5" font-family="Helvetica,sans-Serif" font-size="10.00" fill="#000000">max_int</text>
</a>
</g>
</g>
<!-- Node337280&#45;&gt;Node337284 -->
<g id="edge5" class="edge">
<title>Node337280&#45;&gt;Node337284</title>
<path fill="none" stroke="#191970" d="M200.6502,-38.411C216.5269,-33.2764 236.1968,-26.9151 252.8965,-21.5143"/>
<polygon fill="#191970" stroke="#191970" points="254.4125,-24.7026 262.8503,-18.2952 252.2584,-18.0422 254.4125,-24.7026"/>
</g>
<!-- Node337283 -->
<g id="node5" class="node">
<title>Node337283</title>
<g id="a_node5"><a xlink:href="quickjs_8c.html#a7f6796ee7a195631366f57c713a33f65" target="_top" xlink:title="__JS_AtomIsConst">
<polygon fill="none" stroke="#000000" points="362,-38.5 362,-57.5 464,-57.5 464,-38.5 362,-38.5"/>
<text text-anchor="middle" x="413" y="-45.5" font-family="Helvetica,sans-Serif" font-size="10.00" fill="#000000">__JS_AtomIsConst</text>
</a>
</g>
</g>
<!-- Node337282&#45;&gt;Node337283 -->
<g id="edge4" class="edge">
<title>Node337282&#45;&gt;Node337283</title>
<path fill="none" stroke="#191970" d="M326.192,-48C334.2167,-48 342.8899,-48 351.5426,-48"/>
<polygon fill="#191970" stroke="#191970" points="351.6508,-51.5001 361.6507,-48 351.6507,-44.5001 351.6508,-51.5001"/>
</g>
</g>
</svg>
