<?xml version="1.0" encoding="UTF-8" standalone="no"?>
<!DOCTYPE svg PUBLIC "-//W3C//DTD SVG 1.1//EN"
 "http://www.w3.org/Graphics/SVG/1.1/DTD/svg11.dtd">
<!-- Generated by graphviz version 2.40.1 (20161225.0304)
 -->
<!-- Title: js_new_module_def Pages: 1 -->
<svg width="528pt" height="192pt"
 viewBox="0.00 0.00 528.00 192.00" xmlns="http://www.w3.org/2000/svg" xmlns:xlink="http://www.w3.org/1999/xlink">
<g id="graph0" class="graph" transform="scale(1 1) rotate(0) translate(4 188)">
<title>js_new_module_def</title>
<!-- Node317058 -->
<g id="node1" class="node">
<title>Node317058</title>
<polygon fill="#bfbfbf" stroke="#000000" points="0,-76.5 0,-95.5 103,-95.5 103,-76.5 0,-76.5"/>
<text text-anchor="middle" x="51.5" y="-83.5" font-family="Helvetica,sans-Serif" font-size="10.00" fill="#000000">js_new_module_def</text>
</g>
<!-- Node317059 -->
<g id="node2" class="node">
<title>Node317059</title>
<g id="a_node2"><a xlink:href="quickjs_8c.html#a46a8a7e155cfd0af984f6725f060f0d6" target="_top" xlink:title="__JS_EvalInternal">
<polygon fill="none" stroke="#000000" points="143,-139.5 143,-158.5 239,-158.5 239,-139.5 143,-139.5"/>
<text text-anchor="middle" x="191" y="-146.5" font-family="Helvetica,sans-Serif" font-size="10.00" fill="#000000">__JS_EvalInternal</text>
</a>
</g>
</g>
<!-- Node317058&#45;&gt;Node317059 -->
<g id="edge1" class="edge">
<title>Node317058&#45;&gt;Node317059</title>
<path fill="none" stroke="#191970" d="M81.8952,-99.7269C108.4019,-111.6976 146.1799,-128.7587 169.6136,-139.3416"/>
<polygon fill="#191970" stroke="#191970" points="83.2413,-96.4945 72.687,-95.5683 80.3602,-102.8741 83.2413,-96.4945"/>
</g>
<!-- Node317062 -->
<g id="node5" class="node">
<title>Node317062</title>
<g id="a_node5"><a xlink:href="quickjs_8c.html#ac29cc4ec49efa0f0308e494316ce5139" target="_top" xlink:title="JS_NewCModule">
<polygon fill="none" stroke="#000000" points="144.5,-76.5 144.5,-95.5 237.5,-95.5 237.5,-76.5 144.5,-76.5"/>
<text text-anchor="middle" x="191" y="-83.5" font-family="Helvetica,sans-Serif" font-size="10.00" fill="#000000">JS_NewCModule</text>
</a>
</g>
</g>
<!-- Node317058&#45;&gt;Node317062 -->
<g id="edge4" class="edge">
<title>Node317058&#45;&gt;Node317062</title>
<path fill="none" stroke="#191970" d="M113.3257,-86C123.7171,-86 134.3461,-86 144.2742,-86"/>
<polygon fill="#191970" stroke="#191970" points="113.0483,-82.5001 103.0483,-86 113.0483,-89.5001 113.0483,-82.5001"/>
</g>
<!-- Node317067 -->
<g id="node10" class="node">
<title>Node317067</title>
<g id="a_node10"><a xlink:href="quickjs_8c.html#a4b8ef2bb3b35e4a5f6ed8bd837a50e7c" target="_top" xlink:title="JS_ReadObjectRec">
<polygon fill="none" stroke="#000000" points="139,-10.5 139,-29.5 243,-29.5 243,-10.5 139,-10.5"/>
<text text-anchor="middle" x="191" y="-17.5" font-family="Helvetica,sans-Serif" font-size="10.00" fill="#000000">JS_ReadObjectRec</text>
</a>
</g>
</g>
<!-- Node317058&#45;&gt;Node317067 -->
<g id="edge10" class="edge">
<title>Node317058&#45;&gt;Node317067</title>
<path fill="none" stroke="#191970" d="M81.1133,-71.9894C108.0611,-59.2399 147.1248,-40.7581 170.691,-29.6085"/>
<polygon fill="#191970" stroke="#191970" points="79.327,-68.9625 71.7845,-76.403 82.3207,-75.2901 79.327,-68.9625"/>
</g>
<!-- Node317060 -->
<g id="node3" class="node">
<title>Node317060</title>
<g id="a_node3"><a xlink:href="quickjs_8c.html#acbcccb7ec58fd4a024ea1d01e5d04561" target="_top" xlink:title="JS_AddIntrinsicEval">
<polygon fill="none" stroke="#000000" points="280,-164.5 280,-183.5 385,-183.5 385,-164.5 280,-164.5"/>
<text text-anchor="middle" x="332.5" y="-171.5" font-family="Helvetica,sans-Serif" font-size="10.00" fill="#000000">JS_AddIntrinsicEval</text>
</a>
</g>
</g>
<!-- Node317059&#45;&gt;Node317060 -->
<g id="edge2" class="edge">
<title>Node317059&#45;&gt;Node317060</title>
<path fill="none" stroke="#191970" d="M249.2071,-159.2839C259.2615,-161.0603 269.665,-162.8984 279.5701,-164.6484"/>
<polygon fill="#191970" stroke="#191970" points="249.757,-155.827 239.3005,-157.5337 248.539,-162.7202 249.757,-155.827"/>
</g>
<!-- Node317061 -->
<g id="node4" class="node">
<title>Node317061</title>
<g id="a_node4"><a xlink:href="quickjs_8c.html#ad8aedb643b8753b7a15f6cb2df61945e" target="_top" xlink:title="JS_NewContext">
<polygon fill="none" stroke="#000000" points="426.5,-164.5 426.5,-183.5 515.5,-183.5 515.5,-164.5 426.5,-164.5"/>
<text text-anchor="middle" x="471" y="-171.5" font-family="Helvetica,sans-Serif" font-size="10.00" fill="#000000">JS_NewContext</text>
</a>
</g>
</g>
<!-- Node317060&#45;&gt;Node317061 -->
<g id="edge3" class="edge">
<title>Node317060&#45;&gt;Node317061</title>
<path fill="none" stroke="#191970" d="M395.4779,-174C405.7964,-174 416.3023,-174 426.0689,-174"/>
<polygon fill="#191970" stroke="#191970" points="395.256,-170.5001 385.256,-174 395.256,-177.5001 395.256,-170.5001"/>
</g>
<!-- Node317063 -->
<g id="node6" class="node">
<title>Node317063</title>
<g id="a_node6"><a xlink:href="classqjs_1_1Context_1_1Module.html#a3b16e4ca57ab1de004a35ae1930b40d2" target="_top" xlink:title="qjs::Context::Module\l::Module">
<polygon fill="none" stroke="#000000" points="279,-115 279,-145 386,-145 386,-115 279,-115"/>
<text text-anchor="start" x="287" y="-133" font-family="Helvetica,sans-Serif" font-size="10.00" fill="#000000">qjs::Context::Module</text>
<text text-anchor="middle" x="332.5" y="-122" font-family="Helvetica,sans-Serif" font-size="10.00" fill="#000000">::Module</text>
</a>
</g>
</g>
<!-- Node317062&#45;&gt;Node317063 -->
<g id="edge5" class="edge">
<title>Node317062&#45;&gt;Node317063</title>
<path fill="none" stroke="#191970" d="M231.5179,-98.5992C247.8994,-103.6931 266.9441,-109.6151 284.0512,-114.9346"/>
<polygon fill="#191970" stroke="#191970" points="232.2917,-95.1746 221.7034,-95.5473 230.2131,-101.8589 232.2917,-95.1746"/>
</g>
<!-- Node317064 -->
<g id="node7" class="node">
<title>Node317064</title>
<g id="a_node7"><a xlink:href="quickjs-libc_8c.html#a0e65c67dfff872a664f8d29e7eae5a61" target="_top" xlink:title="js_init_module_std">
<polygon fill="none" stroke="#000000" points="283.5,-76.5 283.5,-95.5 381.5,-95.5 381.5,-76.5 283.5,-76.5"/>
<text text-anchor="middle" x="332.5" y="-83.5" font-family="Helvetica,sans-Serif" font-size="10.00" fill="#000000">js_init_module_std</text>
</a>
</g>
</g>
<!-- Node317062&#45;&gt;Node317064 -->
<g id="edge6" class="edge">
<title>Node317062&#45;&gt;Node317064</title>
<path fill="none" stroke="#191970" d="M247.8884,-86C259.6491,-86 271.9416,-86 283.3964,-86"/>
<polygon fill="#191970" stroke="#191970" points="247.7246,-82.5001 237.7245,-86 247.7245,-89.5001 247.7246,-82.5001"/>
</g>
<!-- Node317066 -->
<g id="node9" class="node">
<title>Node317066</title>
<g id="a_node9"><a xlink:href="quickjs-libc_8c.html#adcca2b4a661355e6ff87a0def2339894" target="_top" xlink:title="js_init_module_os">
<polygon fill="none" stroke="#000000" points="285,-38.5 285,-57.5 380,-57.5 380,-38.5 285,-38.5"/>
<text text-anchor="middle" x="332.5" y="-45.5" font-family="Helvetica,sans-Serif" font-size="10.00" fill="#000000">js_init_module_os</text>
</a>
</g>
</g>
<!-- Node317062&#45;&gt;Node317066 -->
<g id="edge8" class="edge">
<title>Node317062&#45;&gt;Node317066</title>
<path fill="none" stroke="#191970" d="M236.601,-73.7538C256.105,-68.516 278.5404,-62.4909 296.805,-57.5859"/>
<polygon fill="#191970" stroke="#191970" points="235.4564,-70.4371 226.7064,-76.411 237.272,-77.1975 235.4564,-70.4371"/>
</g>
<!-- Node317065 -->
<g id="node8" class="node">
<title>Node317065</title>
<g id="a_node8"><a xlink:href="qjs_8cpp.html#a3c04138a5bfe5d72780bb7e82a18e627" target="_top" xlink:title="main">
<polygon fill="none" stroke="#000000" points="452,-57.5 452,-76.5 490,-76.5 490,-57.5 452,-57.5"/>
<text text-anchor="middle" x="471" y="-64.5" font-family="Helvetica,sans-Serif" font-size="10.00" fill="#000000">main</text>
</a>
</g>
</g>
<!-- Node317064&#45;&gt;Node317065 -->
<g id="edge7" class="edge">
<title>Node317064&#45;&gt;Node317065</title>
<path fill="none" stroke="#191970" d="M391.8367,-77.8599C413.4097,-74.9005 436.2932,-71.7612 451.8785,-69.6232"/>
<polygon fill="#191970" stroke="#191970" points="391.1514,-74.4211 381.7199,-79.2478 392.1028,-81.3561 391.1514,-74.4211"/>
</g>
<!-- Node317066&#45;&gt;Node317065 -->
<g id="edge9" class="edge">
<title>Node317066&#45;&gt;Node317065</title>
<path fill="none" stroke="#191970" d="M390.1334,-55.9064C412.1511,-58.9269 435.7816,-62.1686 451.7763,-64.3628"/>
<polygon fill="#191970" stroke="#191970" points="390.5468,-52.4304 380.1638,-54.5387 389.5953,-59.3654 390.5468,-52.4304"/>
</g>
<!-- Node317067&#45;&gt;Node317067 -->
<g id="edge11" class="edge">
<title>Node317067&#45;&gt;Node317067</title>
<path fill="none" stroke="#191970" d="M165.3305,-39.0292C166.7307,-44.128 175.2872,-48 191,-48 215.5273,-48 222.6173,-38.5653 212.2698,-29.7571"/>
<polygon fill="#191970" stroke="#191970" points="168.6052,-40.292 169.7302,-29.7571 162.2811,-37.2911 168.6052,-40.292"/>
</g>
<!-- Node317068 -->
<g id="node11" class="node">
<title>Node317068</title>
<g id="a_node11"><a xlink:href="quickjs_8c.html#a12be2ea9c010752715072489497594e9" target="_top" xlink:title="JS_ReadObject">
<polygon fill="none" stroke="#000000" points="289.5,-.5 289.5,-19.5 375.5,-19.5 375.5,-.5 289.5,-.5"/>
<text text-anchor="middle" x="332.5" y="-7.5" font-family="Helvetica,sans-Serif" font-size="10.00" fill="#000000">JS_ReadObject</text>
</a>
</g>
</g>
<!-- Node317067&#45;&gt;Node317068 -->
<g id="edge12" class="edge">
<title>Node317067&#45;&gt;Node317068</title>
<path fill="none" stroke="#191970" d="M253.3487,-15.5937C265.4576,-14.738 277.8994,-13.8587 289.2283,-13.0581"/>
<polygon fill="#191970" stroke="#191970" points="253.0157,-12.1084 243.2874,-16.3048 253.5092,-19.091 253.0157,-12.1084"/>
</g>
<!-- Node317069 -->
<g id="node12" class="node">
<title>Node317069</title>
<g id="a_node12"><a xlink:href="quickjs-libc_8c.html#ab1b439d304c2125490b47ef262b5df67" target="_top" xlink:title="js_std_eval_binary">
<polygon fill="none" stroke="#000000" points="422,-.5 422,-19.5 520,-19.5 520,-.5 422,-.5"/>
<text text-anchor="middle" x="471" y="-7.5" font-family="Helvetica,sans-Serif" font-size="10.00" fill="#000000">js_std_eval_binary</text>
</a>
</g>
</g>
<!-- Node317068&#45;&gt;Node317069 -->
<g id="edge13" class="edge">
<title>Node317068&#45;&gt;Node317069</title>
<path fill="none" stroke="#191970" d="M385.7377,-10C397.5508,-10 410.0215,-10 421.6703,-10"/>
<polygon fill="#191970" stroke="#191970" points="385.5631,-6.5001 375.5631,-10 385.563,-13.5001 385.5631,-6.5001"/>
</g>
</g>
</svg>
