<?xml version="1.0" encoding="UTF-8" standalone="no"?>
<!DOCTYPE svg PUBLIC "-//W3C//DTD SVG 1.1//EN"
 "http://www.w3.org/Graphics/SVG/1.1/DTD/svg11.dtd">
<!-- Generated by graphviz version 2.40.1 (20161225.0304)
 -->
<!-- Title: emit_push_const Pages: 1 -->
<!--zoomable 512 -->
<svg id="main" version="1.1" xmlns="http://www.w3.org/2000/svg" xmlns:xlink="http://www.w3.org/1999/xlink" xml:space="preserve" onload="init(evt)">
<style type="text/css"><![CDATA[
.edge:hover path { stroke: red; }
.edge:hover polygon { stroke: red; fill: red; }
]]></style>
<script type="text/javascript"><![CDATA[
var edges = document.getElementsByTagName('g');
if (edges && edges.length) {
  for (var i=0;i<edges.length;i++) {
    if (edges[i].id.substr(0,4)=='edge') {
      edges[i].setAttribute('class','edge');
    }
  }
}
]]></script>
        <defs>
                <circle id="rim" cx="0" cy="0" r="7"/>
                <circle id="rim2" cx="0" cy="0" r="3.5"/>
                <g id="zoomPlus">
                        <use xlink:href="#rim" fill="#404040">
                                <set attributeName="fill" to="#808080" begin="zoomplus.mouseover" end="zoomplus.mouseout"/>
                        </use>
                        <path d="M-4,0h8M0,-4v8" fill="none" stroke="white" stroke-width="1.5" pointer-events="none"/>
                </g>
                <g id="zoomMin">
                        <use xlink:href="#rim" fill="#404040">
                                <set attributeName="fill" to="#808080" begin="zoomminus.mouseover" end="zoomminus.mouseout"/>
                        </use>
                        <path d="M-4,0h8" fill="none" stroke="white" stroke-width="1.5" pointer-events="none"/>
                </g>
                <g id="dirArrow">
                        <path fill="none" stroke="white" stroke-width="1.5" d="M0,-3.0v7 M-2.5,-0.5L0,-3.0L2.5,-0.5"/>
                </g>
               <g id="resetDef">
                       <use xlink:href="#rim2" fill="#404040">
                               <set attributeName="fill" to="#808080" begin="reset.mouseover" end="reset.mouseout"/>
                       </use>
               </g>
        </defs>

<script type="text/javascript">
var viewWidth = 649;
var viewHeight = 512;
var sectionId = 'dynsection-929';
</script>
<script xlink:href="svgpan.js"/>
<svg id="graph" class="graph">
<g id="viewport">
<title>emit_push_const</title>
<!-- Node299069 -->
<g id="node1" class="node">
<title>Node299069</title>
<polygon fill="#bfbfbf" stroke="#000000" points="0,-389.5 0,-408.5 91,-408.5 91,-389.5 0,-389.5"/>
<text text-anchor="middle" x="45.5" y="-396.5" font-family="Helvetica,sans-Serif" font-size="10.00" fill="#000000">emit_push_const</text>
</g>
<!-- Node299070 -->
<g id="node2" class="node">
<title>Node299070</title>
<g id="a_node2"><a xlink:href="quickjs_8c.html#a288254c06a39c9fca740a7abdad2834e" target="_top" xlink:title="__JS_AtomIsTaggedInt">
<polygon fill="none" stroke="#000000" points="127,-484.5 127,-503.5 246,-503.5 246,-484.5 127,-484.5"/>
<text text-anchor="middle" x="186.5" y="-491.5" font-family="Helvetica,sans-Serif" font-size="10.00" fill="#000000">__JS_AtomIsTaggedInt</text>
</a>
</g>
</g>
<!-- Node299069&#45;&gt;Node299070 -->
<g id="edge1" class="edge">
<title>Node299069&#45;&gt;Node299070</title>
<path fill="none" stroke="#191970" d="M53.2667,-408.6027C66.684,-424.5919 95.7812,-456.7171 127,-475 130.6318,-477.1269 134.53,-479.0456 138.5303,-480.7704"/>
<polygon fill="#191970" stroke="#191970" points="137.3842,-484.0801 147.9726,-484.4495 139.9257,-477.5577 137.3842,-484.0801"/>
</g>
<!-- Node299071 -->
<g id="node3" class="node">
<title>Node299071</title>
<g id="a_node3"><a xlink:href="quickjs_8c.html#ac1bcaca99c85801bdad95a379125db97" target="_top" xlink:title="cpool_add">
<polygon fill="none" stroke="#000000" points="311,-370.5 311,-389.5 372,-389.5 372,-370.5 311,-370.5"/>
<text text-anchor="middle" x="341.5" y="-377.5" font-family="Helvetica,sans-Serif" font-size="10.00" fill="#000000">cpool_add</text>
</a>
</g>
</g>
<!-- Node299069&#45;&gt;Node299071 -->
<g id="edge2" class="edge">
<title>Node299069&#45;&gt;Node299071</title>
<path fill="none" stroke="#191970" d="M91.1013,-396.0729C148.3849,-392.3959 245.8114,-386.1422 300.725,-382.6173"/>
<polygon fill="#191970" stroke="#191970" points="301.0353,-386.1047 310.7905,-381.9712 300.5868,-379.1191 301.0353,-386.1047"/>
</g>
<!-- Node299073 -->
<g id="node5" class="node">
<title>Node299073</title>
<g id="a_node5"><a xlink:href="quickjs_8c.html#a832fb9c17eacb588e93f333cf8b76522" target="_top" xlink:title="emit_op">
<polygon fill="none" stroke="#000000" points="161,-446.5 161,-465.5 212,-465.5 212,-446.5 161,-446.5"/>
<text text-anchor="middle" x="186.5" y="-453.5" font-family="Helvetica,sans-Serif" font-size="10.00" fill="#000000">emit_op</text>
</a>
</g>
</g>
<!-- Node299069&#45;&gt;Node299073 -->
<g id="edge4" class="edge">
<title>Node299069&#45;&gt;Node299073</title>
<path fill="none" stroke="#191970" d="M64.3043,-408.6019C80.6346,-416.7378 105.0446,-428.4162 127,-437 134.6692,-439.9984 143.0239,-442.8897 150.9827,-445.4737"/>
<polygon fill="#191970" stroke="#191970" points="150.1808,-448.8909 160.7707,-448.5674 152.2904,-442.2163 150.1808,-448.8909"/>
</g>
<!-- Node299078 -->
<g id="node9" class="node">
<title>Node299078</title>
<g id="a_node9"><a xlink:href="quickjs_8c.html#aa4ce3850b0d5830d9a617fbbdaddfa79" target="_top" xlink:title="emit_u32">
<polygon fill="none" stroke="#000000" points="158.5,-408.5 158.5,-427.5 214.5,-427.5 214.5,-408.5 158.5,-408.5"/>
<text text-anchor="middle" x="186.5" y="-415.5" font-family="Helvetica,sans-Serif" font-size="10.00" fill="#000000">emit_u32</text>
</a>
</g>
</g>
<!-- Node299069&#45;&gt;Node299078 -->
<g id="edge9" class="edge">
<title>Node299069&#45;&gt;Node299078</title>
<path fill="none" stroke="#191970" d="M91.2787,-405.1688C109.6968,-407.6506 130.6925,-410.4798 148.2735,-412.8489"/>
<polygon fill="#191970" stroke="#191970" points="147.8073,-416.3176 158.1851,-414.1845 148.7421,-409.3803 147.8073,-416.3176"/>
</g>
<!-- Node299079 -->
<g id="node10" class="node">
<title>Node299079</title>
<g id="a_node10"><a xlink:href="quickjs_8h.html#a775522f2d084fc8fa0fcb33f390006b4" target="_top" xlink:title="JS_DupValue">
<polygon fill="none" stroke="#000000" points="148,-332.5 148,-351.5 225,-351.5 225,-332.5 148,-332.5"/>
<text text-anchor="middle" x="186.5" y="-339.5" font-family="Helvetica,sans-Serif" font-size="10.00" fill="#000000">JS_DupValue</text>
</a>
</g>
</g>
<!-- Node299069&#45;&gt;Node299079 -->
<g id="edge11" class="edge">
<title>Node299069&#45;&gt;Node299079</title>
<path fill="none" stroke="#191970" d="M69.0353,-389.4608C85.3116,-382.866 107.4687,-373.8933 127,-366 135.5537,-362.5431 144.801,-358.8108 153.3976,-355.3431"/>
<polygon fill="#191970" stroke="#191970" points="154.7903,-358.5555 162.7554,-351.5693 152.1721,-352.0635 154.7903,-358.5555"/>
</g>
<!-- Node299080 -->
<g id="node11" class="node">
<title>Node299080</title>
<g id="a_node11"><a xlink:href="quickjs_8c.html#a33fd643aff7f70e649d246385cd99b00" target="_top" xlink:title="JS_NewAtomStr">
<polygon fill="none" stroke="#000000" points="141.5,-95.5 141.5,-114.5 231.5,-114.5 231.5,-95.5 141.5,-95.5"/>
<text text-anchor="middle" x="186.5" y="-102.5" font-family="Helvetica,sans-Serif" font-size="10.00" fill="#000000">JS_NewAtomStr</text>
</a>
</g>
</g>
<!-- Node299069&#45;&gt;Node299080 -->
<g id="edge12" class="edge">
<title>Node299069&#45;&gt;Node299080</title>
<path fill="none" stroke="#191970" d="M50.1913,-389.2181C70.4344,-347.0091 150.4963,-180.0715 177.5295,-123.7045"/>
<polygon fill="#191970" stroke="#191970" points="180.7651,-125.0515 181.9337,-114.5213 174.4534,-122.0245 180.7651,-125.0515"/>
</g>
<!-- Node299072 -->
<g id="node4" class="node">
<title>Node299072</title>
<g id="a_node4"><a xlink:href="cutils_8h.html#a94f155fcce337a2b9d4719ed8042cbbe" target="_top" xlink:title="max_int">
<polygon fill="none" stroke="#000000" points="467,-380.5 467,-399.5 518,-399.5 518,-380.5 467,-380.5"/>
<text text-anchor="middle" x="492.5" y="-387.5" font-family="Helvetica,sans-Serif" font-size="10.00" fill="#000000">max_int</text>
</a>
</g>
</g>
<!-- Node299071&#45;&gt;Node299072 -->
<g id="edge3" class="edge">
<title>Node299071&#45;&gt;Node299072</title>
<path fill="none" stroke="#191970" d="M372.0571,-382.0236C396.4459,-383.6388 430.6721,-385.9054 456.4088,-387.6099"/>
<polygon fill="#191970" stroke="#191970" points="456.3059,-391.1106 466.5153,-388.2792 456.7685,-384.1259 456.3059,-391.1106"/>
</g>
<!-- Node299074 -->
<g id="node6" class="node">
<title>Node299074</title>
<g id="a_node6"><a xlink:href="cutils_8h.html#a8ba08f82c43549fcb3c939229498354d" target="_top" xlink:title="dbuf_put_u32">
<polygon fill="none" stroke="#000000" points="304,-408.5 304,-427.5 379,-427.5 379,-408.5 304,-408.5"/>
<text text-anchor="middle" x="341.5" y="-415.5" font-family="Helvetica,sans-Serif" font-size="10.00" fill="#000000">dbuf_put_u32</text>
</a>
</g>
</g>
<!-- Node299073&#45;&gt;Node299074 -->
<g id="edge5" class="edge">
<title>Node299073&#45;&gt;Node299074</title>
<path fill="none" stroke="#191970" d="M212.0951,-449.7251C234.2823,-444.2856 266.9735,-436.271 293.9459,-429.6584"/>
<polygon fill="#191970" stroke="#191970" points="295.0906,-432.9815 303.9696,-427.201 293.4238,-426.1829 295.0906,-432.9815"/>
</g>
<!-- Node299077 -->
<g id="node8" class="node">
<title>Node299077</title>
<g id="a_node8"><a xlink:href="cutils_8h.html#aeed81d4787ccdbd55baa9b5fd6717e88" target="_top" xlink:title="dbuf_putc">
<polygon fill="none" stroke="#000000" points="312,-446.5 312,-465.5 371,-465.5 371,-446.5 312,-446.5"/>
<text text-anchor="middle" x="341.5" y="-453.5" font-family="Helvetica,sans-Serif" font-size="10.00" fill="#000000">dbuf_putc</text>
</a>
</g>
</g>
<!-- Node299073&#45;&gt;Node299077 -->
<g id="edge7" class="edge">
<title>Node299073&#45;&gt;Node299077</title>
<path fill="none" stroke="#191970" d="M212.0951,-456C236.4171,-456 273.3619,-456 301.5585,-456"/>
<polygon fill="#191970" stroke="#191970" points="301.8923,-459.5001 311.8923,-456 301.8922,-452.5001 301.8923,-459.5001"/>
</g>
<!-- Node299075 -->
<g id="node7" class="node">
<title>Node299075</title>
<g id="a_node7"><a xlink:href="cutils_8h.html#ad1cfaae47347ae771136b5a9bbda49aa" target="_top" xlink:title="dbuf_put">
<polygon fill="none" stroke="#ff0000" points="465.5,-437.5 465.5,-456.5 519.5,-456.5 519.5,-437.5 465.5,-437.5"/>
<text text-anchor="middle" x="492.5" y="-444.5" font-family="Helvetica,sans-Serif" font-size="10.00" fill="#000000">dbuf_put</text>
</a>
</g>
</g>
<!-- Node299074&#45;&gt;Node299075 -->
<g id="edge6" class="edge">
<title>Node299074&#45;&gt;Node299075</title>
<path fill="none" stroke="#191970" d="M379.2142,-425.2431C402.3943,-429.6949 431.977,-435.3764 455.0991,-439.8171"/>
<polygon fill="#191970" stroke="#191970" points="454.7413,-443.3122 465.222,-441.7612 456.0616,-436.4379 454.7413,-443.3122"/>
</g>
<!-- Node299077&#45;&gt;Node299075 -->
<g id="edge8" class="edge">
<title>Node299077&#45;&gt;Node299075</title>
<path fill="none" stroke="#191970" d="M371.3327,-454.2219C395.3549,-452.7901 429.2569,-450.7695 455.094,-449.2295"/>
<polygon fill="#191970" stroke="#191970" points="455.493,-452.712 465.2671,-448.6232 455.0765,-445.7244 455.493,-452.712"/>
</g>
<!-- Node299078&#45;&gt;Node299074 -->
<g id="edge10" class="edge">
<title>Node299078&#45;&gt;Node299074</title>
<path fill="none" stroke="#191970" d="M214.5693,-418C236.596,-418 267.7656,-418 293.7043,-418"/>
<polygon fill="#191970" stroke="#191970" points="293.7237,-421.5001 303.7237,-418 293.7236,-414.5001 293.7237,-421.5001"/>
</g>
<!-- Node299081 -->
<g id="node12" class="node">
<title>Node299081</title>
<g id="a_node12"><a xlink:href="quickjs_8c.html#a877fcb7651d95b411ce70e62b7f4a1f0" target="_top" xlink:title="__JS_AtomFromUInt32">
<polygon fill="none" stroke="#000000" points="282,-19.5 282,-38.5 401,-38.5 401,-19.5 282,-19.5"/>
<text text-anchor="middle" x="341.5" y="-26.5" font-family="Helvetica,sans-Serif" font-size="10.00" fill="#000000">__JS_AtomFromUInt32</text>
</a>
</g>
</g>
<!-- Node299080&#45;&gt;Node299081 -->
<g id="edge13" class="edge">
<title>Node299080&#45;&gt;Node299081</title>
<path fill="none" stroke="#191970" d="M200.1908,-95.4526C218.2607,-83.1795 251.3726,-61.8098 282,-48 286.9427,-45.7714 292.2243,-43.6885 297.5241,-41.7795"/>
<polygon fill="#191970" stroke="#191970" points="298.6825,-45.0824 307.0137,-38.5371 296.4192,-38.4584 298.6825,-45.0824"/>
</g>
<!-- Node299082 -->
<g id="node13" class="node">
<title>Node299082</title>
<g id="a_node13"><a xlink:href="quickjs_8c.html#acd08798ec15cc37c60d2e7d70007c6a8" target="_top" xlink:title="__JS_NewAtom">
<polygon fill="none" stroke="#000000" points="297.5,-190.5 297.5,-209.5 385.5,-209.5 385.5,-190.5 297.5,-190.5"/>
<text text-anchor="middle" x="341.5" y="-197.5" font-family="Helvetica,sans-Serif" font-size="10.00" fill="#000000">__JS_NewAtom</text>
</a>
</g>
</g>
<!-- Node299080&#45;&gt;Node299082 -->
<g id="edge14" class="edge">
<title>Node299080&#45;&gt;Node299082</title>
<path fill="none" stroke="#191970" d="M202.2152,-114.6319C229.2542,-131.2042 284.7662,-165.2277 316.9456,-184.9505"/>
<polygon fill="#191970" stroke="#191970" points="315.3882,-188.101 325.7432,-190.3426 319.0461,-182.1328 315.3882,-188.101"/>
</g>
<!-- Node299090 -->
<g id="node19" class="node">
<title>Node299090</title>
<g id="a_node19"><a xlink:href="quickjs_8c.html#aa506aaf9df272c0e9e541bbf0138b483" target="_top" xlink:title="js_free_string">
<polygon fill="none" stroke="#ff0000" points="455,-38.5 455,-57.5 530,-57.5 530,-38.5 455,-38.5"/>
<text text-anchor="middle" x="492.5" y="-45.5" font-family="Helvetica,sans-Serif" font-size="10.00" fill="#000000">js_free_string</text>
</a>
</g>
</g>
<!-- Node299080&#45;&gt;Node299090 -->
<g id="edge29" class="edge">
<title>Node299080&#45;&gt;Node299090</title>
<path fill="none" stroke="#191970" d="M231.8286,-106.1295C275.9175,-106.0388 344.3469,-102.7201 401,-86 418.3518,-80.8789 420.3914,-74.1738 437,-67 441.8428,-64.9082 446.9979,-62.8851 452.1407,-60.9885"/>
<polygon fill="#191970" stroke="#191970" points="453.6779,-64.1569 461.9302,-57.5123 451.3355,-57.5604 453.6779,-64.1569"/>
</g>
<!-- Node299097 -->
<g id="node23" class="node">
<title>Node299097</title>
<g id="a_node23"><a xlink:href="quickjs_8c.html#a1eaea8fa2599700598076ea84f1afcf3" target="_top" xlink:title="is_num_string">
<polygon fill="none" stroke="#000000" points="303,-57.5 303,-76.5 380,-76.5 380,-57.5 303,-57.5"/>
<text text-anchor="middle" x="341.5" y="-64.5" font-family="Helvetica,sans-Serif" font-size="10.00" fill="#000000">is_num_string</text>
</a>
</g>
</g>
<!-- Node299080&#45;&gt;Node299097 -->
<g id="edge27" class="edge">
<title>Node299080&#45;&gt;Node299097</title>
<path fill="none" stroke="#191970" d="M225.613,-95.411C246.0523,-90.4001 271.2571,-84.2208 292.9352,-78.9062"/>
<polygon fill="#191970" stroke="#191970" points="294.0574,-82.2348 302.9364,-76.4543 292.3906,-75.4361 294.0574,-82.2348"/>
</g>
<!-- Node299082&#45;&gt;Node299072 -->
<g id="edge26" class="edge">
<title>Node299082&#45;&gt;Node299072</title>
<path fill="none" stroke="#191970" d="M344.5956,-209.6508C354.0128,-237.5925 384.8983,-319.5192 437,-366 442.8164,-371.1889 449.9276,-375.3868 457.0933,-378.732"/>
<polygon fill="#191970" stroke="#191970" points="456.2055,-382.1541 466.782,-382.7782 458.9031,-375.6948 456.2055,-382.1541"/>
</g>
<!-- Node299083 -->
<g id="node14" class="node">
<title>Node299083</title>
<g id="a_node14"><a xlink:href="quickjs_8c.html#a7f6796ee7a195631366f57c713a33f65" target="_top" xlink:title="__JS_AtomIsConst">
<polygon fill="none" stroke="#000000" points="441.5,-190.5 441.5,-209.5 543.5,-209.5 543.5,-190.5 441.5,-190.5"/>
<text text-anchor="middle" x="492.5" y="-197.5" font-family="Helvetica,sans-Serif" font-size="10.00" fill="#000000">__JS_AtomIsConst</text>
</a>
</g>
</g>
<!-- Node299082&#45;&gt;Node299083 -->
<g id="edge15" class="edge">
<title>Node299082&#45;&gt;Node299083</title>
<path fill="none" stroke="#191970" d="M385.5814,-200C399.7978,-200 415.823,-200 431.0568,-200"/>
<polygon fill="#191970" stroke="#191970" points="431.4449,-203.5001 441.4449,-200 431.4449,-196.5001 431.4449,-203.5001"/>
</g>
<!-- Node299084 -->
<g id="node15" class="node">
<title>Node299084</title>
<g id="a_node15"><a xlink:href="quickjs_8c.html#ad7824788e3ed6ecfd045f02398647753" target="_top" xlink:title="atom_get_free">
<polygon fill="none" stroke="#000000" points="453,-152.5 453,-171.5 532,-171.5 532,-152.5 453,-152.5"/>
<text text-anchor="middle" x="492.5" y="-159.5" font-family="Helvetica,sans-Serif" font-size="10.00" fill="#000000">atom_get_free</text>
</a>
</g>
</g>
<!-- Node299082&#45;&gt;Node299084 -->
<g id="edge16" class="edge">
<title>Node299082&#45;&gt;Node299084</title>
<path fill="none" stroke="#191970" d="M379.6037,-190.411C399.44,-185.4191 423.8839,-179.2676 444.9483,-173.9666"/>
<polygon fill="#191970" stroke="#191970" points="445.8269,-177.3548 454.6703,-171.5201 444.1185,-170.5664 445.8269,-177.3548"/>
</g>
<!-- Node299085 -->
<g id="node16" class="node">
<title>Node299085</title>
<g id="a_node16"><a xlink:href="quickjs_8c.html#aba70a7ff210dcedf19125863f2b12d4e" target="_top" xlink:title="atom_set_free">
<polygon fill="none" stroke="#000000" points="453,-114.5 453,-133.5 532,-133.5 532,-114.5 453,-114.5"/>
<text text-anchor="middle" x="492.5" y="-121.5" font-family="Helvetica,sans-Serif" font-size="10.00" fill="#000000">atom_set_free</text>
</a>
</g>
</g>
<!-- Node299082&#45;&gt;Node299085 -->
<g id="edge17" class="edge">
<title>Node299082&#45;&gt;Node299085</title>
<path fill="none" stroke="#191970" d="M355.5492,-190.3394C373.7346,-178.1384 406.6927,-157.0455 437,-143 441.6173,-140.8602 446.5466,-138.8318 451.4902,-136.9529"/>
<polygon fill="#191970" stroke="#191970" points="452.7244,-140.2285 460.9363,-133.534 450.342,-133.6463 452.7244,-140.2285"/>
</g>
<!-- Node299086 -->
<g id="node17" class="node">
<title>Node299086</title>
<g id="a_node17"><a xlink:href="quickjs_8c.html#a745328cb78cc898a3e105bc7bd7aee38" target="_top" xlink:title="hash_string">
<polygon fill="none" stroke="#ff0000" points="459,-76.5 459,-95.5 526,-95.5 526,-76.5 459,-76.5"/>
<text text-anchor="middle" x="492.5" y="-83.5" font-family="Helvetica,sans-Serif" font-size="10.00" fill="#000000">hash_string</text>
</a>
</g>
</g>
<!-- Node299082&#45;&gt;Node299086 -->
<g id="edge18" class="edge">
<title>Node299082&#45;&gt;Node299086</title>
<path fill="none" stroke="#191970" d="M348.5864,-190.4906C363.1338,-171.5965 398.2734,-129.0808 437,-105 440.85,-102.606 445.0393,-100.4701 449.3334,-98.5748"/>
<polygon fill="#191970" stroke="#191970" points="450.813,-101.753 458.8103,-94.8036 448.2248,-95.2491 450.813,-101.753"/>
</g>
<!-- Node299089 -->
<g id="node18" class="node">
<title>Node299089</title>
<g id="a_node18"><a xlink:href="quickjs_8c.html#a69e19dda8a93d613203e0baa06f0ed8d" target="_top" xlink:title="js_free_rt">
<polygon fill="none" stroke="#000000" points="584,-266.5 584,-285.5 641,-285.5 641,-266.5 584,-266.5"/>
<text text-anchor="middle" x="612.5" y="-273.5" font-family="Helvetica,sans-Serif" font-size="10.00" fill="#000000">js_free_rt</text>
</a>
</g>
</g>
<!-- Node299082&#45;&gt;Node299089 -->
<g id="edge19" class="edge">
<title>Node299082&#45;&gt;Node299089</title>
<path fill="none" stroke="#191970" d="M344.9027,-209.8004C354.518,-235.759 384.6459,-306.1398 437,-333 480.8936,-355.5195 501.8617,-350.4654 548,-333 568.8331,-325.1138 587.2734,-307.0859 599.044,-293.4006"/>
<polygon fill="#191970" stroke="#191970" points="601.8324,-295.5201 605.4728,-285.5703 596.4222,-291.0783 601.8324,-295.5201"/>
</g>
<!-- Node299082&#45;&gt;Node299090 -->
<g id="edge20" class="edge">
<title>Node299082&#45;&gt;Node299090</title>
<path fill="none" stroke="#191970" d="M348.7322,-190.3387C360.021,-175.2173 382.4586,-144.9966 401,-119 417.3221,-96.1152 414.5811,-83.9563 437,-67 439.6399,-65.0034 442.504,-63.2074 445.4928,-61.5935"/>
<polygon fill="#191970" stroke="#191970" points="447.1539,-64.6807 454.7341,-57.2786 444.1924,-58.338 447.1539,-64.6807"/>
</g>
<!-- Node299092 -->
<g id="node20" class="node">
<title>Node299092</title>
<g id="a_node20"><a xlink:href="quickjs_8c.html#ab7f82c24ed28f06191bf5a51f78bb710" target="_top" xlink:title="js_get_atom_index">
<polygon fill="none" stroke="#000000" points="443.5,-304.5 443.5,-323.5 541.5,-323.5 541.5,-304.5 443.5,-304.5"/>
<text text-anchor="middle" x="492.5" y="-311.5" font-family="Helvetica,sans-Serif" font-size="10.00" fill="#000000">js_get_atom_index</text>
</a>
</g>
</g>
<!-- Node299082&#45;&gt;Node299092 -->
<g id="edge22" class="edge">
<title>Node299082&#45;&gt;Node299092</title>
<path fill="none" stroke="#191970" d="M348.5864,-209.5094C363.1338,-228.4035 398.2734,-270.9192 437,-295 440.2162,-296.9999 443.6692,-298.8197 447.2223,-300.4695"/>
<polygon fill="#191970" stroke="#191970" points="446.1904,-303.8312 456.7673,-304.4467 448.8827,-297.3697 446.1904,-303.8312"/>
</g>
<!-- Node299093 -->
<g id="node21" class="node">
<title>Node299093</title>
<g id="a_node21"><a xlink:href="quickjs_8c.html#ac8b63cf5ecd077231532b9ad543aad23" target="_top" xlink:title="JS_ResizeAtomHash">
<polygon fill="none" stroke="#000000" points="437,-266.5 437,-285.5 548,-285.5 548,-266.5 437,-266.5"/>
<text text-anchor="middle" x="492.5" y="-273.5" font-family="Helvetica,sans-Serif" font-size="10.00" fill="#000000">JS_ResizeAtomHash</text>
</a>
</g>
</g>
<!-- Node299082&#45;&gt;Node299093 -->
<g id="edge23" class="edge">
<title>Node299082&#45;&gt;Node299093</title>
<path fill="none" stroke="#191970" d="M355.5492,-209.6606C373.7346,-221.8616 406.6927,-242.9545 437,-257 441.6173,-259.1398 446.5466,-261.1682 451.4902,-263.0471"/>
<polygon fill="#191970" stroke="#191970" points="450.342,-266.3537 460.9363,-266.466 452.7244,-259.7715 450.342,-266.3537"/>
</g>
<!-- Node299094 -->
<g id="node22" class="node">
<title>Node299094</title>
<g id="a_node22"><a xlink:href="quickjs_8c.html#aa3b85ecf2f1fbd87cb38b78548286017" target="_top" xlink:title="js_string_memcmp">
<polygon fill="none" stroke="#ff0000" points="443,-228.5 443,-247.5 542,-247.5 542,-228.5 443,-228.5"/>
<text text-anchor="middle" x="492.5" y="-235.5" font-family="Helvetica,sans-Serif" font-size="10.00" fill="#000000">js_string_memcmp</text>
</a>
</g>
</g>
<!-- Node299082&#45;&gt;Node299094 -->
<g id="edge25" class="edge">
<title>Node299082&#45;&gt;Node299094</title>
<path fill="none" stroke="#191970" d="M379.6037,-209.589C399.44,-214.5809 423.8839,-220.7324 444.9483,-226.0334"/>
<polygon fill="#191970" stroke="#191970" points="444.1185,-229.4336 454.6703,-228.4799 445.8269,-222.6452 444.1185,-229.4336"/>
</g>
<!-- Node299090&#45;&gt;Node299089 -->
<g id="edge21" class="edge">
<title>Node299090&#45;&gt;Node299089</title>
<path fill="none" stroke="#191970" d="M530.2458,-55.5287C536.8202,-58.2504 543.1073,-61.9558 548,-67 574.8062,-94.6364 599.6153,-209.6254 608.7719,-256.241"/>
<polygon fill="#191970" stroke="#191970" points="605.3794,-257.1337 610.7099,-266.2899 612.2528,-255.8081 605.3794,-257.1337"/>
</g>
<!-- Node299093&#45;&gt;Node299089 -->
<g id="edge24" class="edge">
<title>Node299093&#45;&gt;Node299089</title>
<path fill="none" stroke="#191970" d="M548.2843,-276C556.8809,-276 565.5933,-276 573.7113,-276"/>
<polygon fill="#191970" stroke="#191970" points="573.9809,-279.5001 583.9808,-276 573.9808,-272.5001 573.9809,-279.5001"/>
</g>
<!-- Node299098 -->
<g id="node24" class="node">
<title>Node299098</title>
<g id="a_node24"><a xlink:href="quickjs_8c.html#af7b310b780a36d5b1579d4f400e6a8ae" target="_top" xlink:title="is_num">
<polygon fill="none" stroke="#000000" points="468.5,-.5 468.5,-19.5 516.5,-19.5 516.5,-.5 468.5,-.5"/>
<text text-anchor="middle" x="492.5" y="-7.5" font-family="Helvetica,sans-Serif" font-size="10.00" fill="#000000">is_num</text>
</a>
</g>
</g>
<!-- Node299097&#45;&gt;Node299098 -->
<g id="edge28" class="edge">
<title>Node299097&#45;&gt;Node299098</title>
<path fill="none" stroke="#191970" d="M374.9221,-57.4684C383.5288,-54.7047 392.7009,-51.483 401,-48 417.6821,-40.9988 420.3914,-36.1738 437,-29 443.942,-26.0015 451.5259,-23.144 458.7954,-20.598"/>
<polygon fill="#191970" stroke="#191970" points="460.076,-23.8597 468.4236,-17.3353 457.8293,-17.23 460.076,-23.8597"/>
</g>
</g>
</svg>
        <g id="navigator" transform="translate(0 0)" fill="#404254">
                <rect fill="#f2f5e9" fill-opacity="0.5" stroke="#606060" stroke-width=".5" x="0" y="0" width="60" height="60"/>
                <use id="zoomplus" xlink:href="#zoomPlus" x="17" y="9" onmousedown="handleZoom(evt,'in')"/>
                <use id="zoomminus" xlink:href="#zoomMin" x="42" y="9" onmousedown="handleZoom(evt,'out')"/>
                <use id="reset" xlink:href="#resetDef" x="30" y="36" onmousedown="handleReset()"/>
                <g id="arrowUp" xlink:href="#dirArrow" transform="translate(30 24)" onmousedown="handlePan(0,-1)">
                  <use xlink:href="#rim" fill="#404040">
                        <set attributeName="fill" to="#808080" begin="arrowUp.mouseover" end="arrowUp.mouseout"/>
                  </use>
                  <path fill="none" stroke="white" stroke-width="1.5" d="M0,-3.0v7 M-2.5,-0.5L0,-3.0L2.5,-0.5"/>
                </g>
                <g id="arrowRight" xlink:href="#dirArrow" transform="rotate(90) translate(36 -43)" onmousedown="handlePan(1,0)">
                  <use xlink:href="#rim" fill="#404040">
                        <set attributeName="fill" to="#808080" begin="arrowRight.mouseover" end="arrowRight.mouseout"/>
                  </use>
                  <path fill="none" stroke="white" stroke-width="1.5" d="M0,-3.0v7 M-2.5,-0.5L0,-3.0L2.5,-0.5"/>
                </g>
                <g id="arrowDown" xlink:href="#dirArrow" transform="rotate(180) translate(-30 -48)" onmousedown="handlePan(0,1)">
                  <use xlink:href="#rim" fill="#404040">
                        <set attributeName="fill" to="#808080" begin="arrowDown.mouseover" end="arrowDown.mouseout"/>
                  </use>
                  <path fill="none" stroke="white" stroke-width="1.5" d="M0,-3.0v7 M-2.5,-0.5L0,-3.0L2.5,-0.5"/>
                </g>
                <g id="arrowLeft" xlink:href="#dirArrow" transform="rotate(270) translate(-36 17)" onmousedown="handlePan(-1,0)">
                  <use xlink:href="#rim" fill="#404040">
                        <set attributeName="fill" to="#808080" begin="arrowLeft.mouseover" end="arrowLeft.mouseout"/>
                  </use>
                  <path fill="none" stroke="white" stroke-width="1.5" d="M0,-3.0v7 M-2.5,-0.5L0,-3.0L2.5,-0.5"/>
                </g>
        </g>
        <svg viewBox="0 0 15 15" width="100%" height="30px" preserveAspectRatio="xMaxYMin meet">
         <g id="arrow_out" transform="scale(0.3 0.3)">
          <a xlink:href="quickjs_8c_a22324bb35cdaa36ce844506a073bb7f4_cgraph_org.svg" target="_base">
           <rect id="button" ry="5" rx="5" y="6" x="6" height="38" width="38"
                fill="#f2f5e9" fill-opacity="0.5" stroke="#606060" stroke-width="1.0"/>
           <path id="arrow"
             d="M 11.500037,31.436501 C 11.940474,20.09759 22.043105,11.32322 32.158766,21.979434 L 37.068811,17.246167 C 37.068811,17.246167 37.088388,32 37.088388,32 L 22.160133,31.978069 C 22.160133,31.978069 26.997745,27.140456 26.997745,27.140456 C 18.528582,18.264221 13.291696,25.230495 11.500037,31.436501 z"
             style="fill:#404040;"/>
          </a>
         </g>
        </svg>
</svg>
