<?xml version="1.0" encoding="UTF-8" standalone="no"?>
<!DOCTYPE svg PUBLIC "-//W3C//DTD SVG 1.1//EN"
 "http://www.w3.org/Graphics/SVG/1.1/DTD/svg11.dtd">
<!-- Generated by graphviz version 2.40.1 (20161225.0304)
 -->
<!-- Title: js_parse_coalesce_expr Pages: 1 -->
<svg width="1263pt" height="403pt"
 viewBox="0.00 0.00 1263.00 402.96" xmlns="http://www.w3.org/2000/svg" xmlns:xlink="http://www.w3.org/1999/xlink">
<g id="graph0" class="graph" transform="scale(1 1) rotate(0) translate(4 398.9577)">
<title>js_parse_coalesce_expr</title>
<!-- Node312557 -->
<g id="node1" class="node">
<title>Node312557</title>
<polygon fill="#bfbfbf" stroke="#000000" points="0,-190.5 0,-209.5 122,-209.5 122,-190.5 0,-190.5"/>
<text text-anchor="middle" x="61" y="-197.5" font-family="Helvetica,sans-Serif" font-size="10.00" fill="#000000">js_parse_coalesce_expr</text>
</g>
<!-- Node312558 -->
<g id="node2" class="node">
<title>Node312558</title>
<g id="a_node2"><a xlink:href="quickjs_8c.html#abd2cbff624ea609dbf883fb1a2f048cd" target="_top" xlink:title="js_parse_cond_expr">
<polygon fill="none" stroke="#000000" points="158,-190.5 158,-209.5 262,-209.5 262,-190.5 158,-190.5"/>
<text text-anchor="middle" x="210" y="-197.5" font-family="Helvetica,sans-Serif" font-size="10.00" fill="#000000">js_parse_cond_expr</text>
</a>
</g>
</g>
<!-- Node312557&#45;&gt;Node312558 -->
<g id="edge1" class="edge">
<title>Node312557&#45;&gt;Node312558</title>
<path fill="none" stroke="#191970" d="M132.1541,-200C140.8227,-200 149.5518,-200 157.8707,-200"/>
<polygon fill="#191970" stroke="#191970" points="132.034,-196.5001 122.0339,-200 132.0339,-203.5001 132.034,-196.5001"/>
</g>
<!-- Node312559 -->
<g id="node3" class="node">
<title>Node312559</title>
<g id="a_node3"><a xlink:href="quickjs_8c.html#a4fa2fc1719feb03edf64eaf034103fd2" target="_top" xlink:title="js_parse_assign_expr">
<polygon fill="none" stroke="#000000" points="298,-190.5 298,-209.5 409,-209.5 409,-190.5 298,-190.5"/>
<text text-anchor="middle" x="353.5" y="-197.5" font-family="Helvetica,sans-Serif" font-size="10.00" fill="#000000">js_parse_assign_expr</text>
</a>
</g>
</g>
<!-- Node312558&#45;&gt;Node312559 -->
<g id="edge2" class="edge">
<title>Node312558&#45;&gt;Node312559</title>
<path fill="none" stroke="#191970" d="M272.3708,-193.3015C280.7962,-193.2085 289.3972,-193.2415 297.6982,-193.4004"/>
<polygon fill="#191970" stroke="#191970" points="272.1506,-189.8047 262.2127,-193.4775 272.2719,-196.8037 272.1506,-189.8047"/>
</g>
<!-- Node312559&#45;&gt;Node312558 -->
<g id="edge21" class="edge">
<title>Node312559&#45;&gt;Node312558</title>
<path fill="none" stroke="#191970" d="M287.456,-206.731C278.9897,-206.7875 270.4168,-206.718 262.2127,-206.5225"/>
<polygon fill="#191970" stroke="#191970" points="287.7439,-210.2277 297.6982,-206.5996 287.6541,-203.2283 287.7439,-210.2277"/>
</g>
<!-- Node312559&#45;&gt;Node312559 -->
<g id="edge19" class="edge">
<title>Node312559&#45;&gt;Node312559</title>
<path fill="none" stroke="#191970" d="M326.9941,-218.6539C328.1021,-223.9368 336.9374,-228 353.5,-228 378.7383,-228 386.0337,-218.5653 375.3863,-209.7571"/>
<polygon fill="#191970" stroke="#191970" points="330.1117,-220.2449 331.6137,-209.7571 323.8992,-217.0192 330.1117,-220.2449"/>
</g>
<!-- Node312560 -->
<g id="node4" class="node">
<title>Node312560</title>
<g id="a_node4"><a xlink:href="quickjs_8c.html#a253917187cfb6b3db09d355b31edb3d5" target="_top" xlink:title="js_parse_array_literal">
<polygon fill="none" stroke="#000000" points="447,-228.5 447,-247.5 556,-247.5 556,-228.5 447,-228.5"/>
<text text-anchor="middle" x="501.5" y="-235.5" font-family="Helvetica,sans-Serif" font-size="10.00" fill="#000000">js_parse_array_literal</text>
</a>
</g>
</g>
<!-- Node312559&#45;&gt;Node312560 -->
<g id="edge3" class="edge">
<title>Node312559&#45;&gt;Node312560</title>
<path fill="none" stroke="#191970" d="M400.6735,-212.1121C421.2856,-217.4044 445.1093,-223.5213 464.4219,-228.4799"/>
<polygon fill="#191970" stroke="#191970" points="401.4029,-208.6859 390.8466,-209.589 399.662,-215.466 401.4029,-208.6859"/>
</g>
<!-- Node312561 -->
<g id="node5" class="node">
<title>Node312561</title>
<g id="a_node5"><a xlink:href="quickjs_8c.html#acdcc62310b4f6f73fa7bc7267b18b1d4" target="_top" xlink:title="js_parse_postfix_expr">
<polygon fill="none" stroke="#ff0000" points="594,-228.5 594,-247.5 706,-247.5 706,-228.5 594,-228.5"/>
<text text-anchor="middle" x="650" y="-235.5" font-family="Helvetica,sans-Serif" font-size="10.00" fill="#000000">js_parse_postfix_expr</text>
</a>
</g>
</g>
<!-- Node312559&#45;&gt;Node312561 -->
<g id="edge29" class="edge">
<title>Node312559&#45;&gt;Node312561</title>
<path fill="none" stroke="#191970" d="M372.5504,-216.3563C390.0626,-230.2348 417.4183,-249.1117 445,-257 505.3106,-274.2487 579.2745,-258.9183 619.8273,-247.5714"/>
<polygon fill="#191970" stroke="#191970" points="374.2967,-213.2628 364.3409,-209.639 369.8639,-218.6804 374.2967,-213.2628"/>
</g>
<!-- Node312562 -->
<g id="node6" class="node">
<title>Node312562</title>
<g id="a_node6"><a xlink:href="quickjs_8c.html#a00eb789430243c24dab4a63ad6a79653" target="_top" xlink:title="js_parse_class">
<polygon fill="none" stroke="#ff0000" points="1051,-267.5 1051,-286.5 1133,-286.5 1133,-267.5 1051,-267.5"/>
<text text-anchor="middle" x="1092" y="-274.5" font-family="Helvetica,sans-Serif" font-size="10.00" fill="#000000">js_parse_class</text>
</a>
</g>
</g>
<!-- Node312559&#45;&gt;Node312562 -->
<g id="edge20" class="edge">
<title>Node312559&#45;&gt;Node312562</title>
<path fill="none" stroke="#191970" d="M360.3563,-218.8828C372.3549,-248.8913 400.231,-306.7508 445,-333 523.9341,-379.2811 558.4984,-352 650,-352 650,-352 650,-352 799.5,-352 903.5617,-352 1022.1064,-306.9077 1070.1091,-286.6514"/>
<polygon fill="#191970" stroke="#191970" points="363.6183,-217.6138 356.7727,-209.5274 357.0814,-220.1178 363.6183,-217.6138"/>
</g>
<!-- Node312563 -->
<g id="node7" class="node">
<title>Node312563</title>
<g id="a_node7"><a xlink:href="quickjs_8c.html#a498e1d5c7de1b59c1630e9847cde1e41" target="_top" xlink:title="js_parse_export">
<polygon fill="none" stroke="#ff0000" points="1169,-230.5 1169,-249.5 1255,-249.5 1255,-230.5 1169,-230.5"/>
<text text-anchor="middle" x="1212" y="-237.5" font-family="Helvetica,sans-Serif" font-size="10.00" fill="#000000">js_parse_export</text>
</a>
</g>
</g>
<!-- Node312559&#45;&gt;Node312563 -->
<g id="edge23" class="edge">
<title>Node312559&#45;&gt;Node312563</title>
<path fill="none" stroke="#191970" d="M358.5293,-219.3771C368.5863,-253.9105 394.6586,-325.6842 445,-360 521.0858,-411.8648 557.9184,-390 650,-390 650,-390 650,-390 954,-390 1065.9135,-390 1172.6468,-283.2129 1203.2687,-249.8419"/>
<polygon fill="#191970" stroke="#191970" points="361.8555,-218.2733 355.8163,-209.5682 355.1088,-220.1394 361.8555,-218.2733"/>
</g>
<!-- Node312577 -->
<g id="node8" class="node">
<title>Node312577</title>
<g id="a_node8"><a xlink:href="quickjs_8c.html#a26be546cf89c4580ba9020e8fc43a759" target="_top" xlink:title="js_parse_destructuring\l_element">
<polygon fill="none" stroke="#ff0000" points="742,-115 742,-145 857,-145 857,-115 742,-115"/>
<text text-anchor="start" x="750" y="-133" font-family="Helvetica,sans-Serif" font-size="10.00" fill="#000000">js_parse_destructuring</text>
<text text-anchor="middle" x="799.5" y="-122" font-family="Helvetica,sans-Serif" font-size="10.00" fill="#000000">_element</text>
</a>
</g>
</g>
<!-- Node312559&#45;&gt;Node312577 -->
<g id="edge22" class="edge">
<title>Node312559&#45;&gt;Node312577</title>
<path fill="none" stroke="#191970" d="M374.3862,-184.3415C392.1471,-171.9922 418.8601,-155.6232 445,-148 546.3115,-118.4545 670.7138,-120.3829 741.9782,-124.8978"/>
<polygon fill="#191970" stroke="#191970" points="372.062,-181.7007 365.9649,-190.3654 376.1346,-187.3941 372.062,-181.7007"/>
</g>
<!-- Node312571 -->
<g id="node9" class="node">
<title>Node312571</title>
<g id="a_node9"><a xlink:href="quickjs_8c.html#ac188b916dd086803591a67de7e7a85f6" target="_top" xlink:title="js_parse_for_in_of">
<polygon fill="none" stroke="#ff0000" points="906,-189.5 906,-208.5 1002,-208.5 1002,-189.5 906,-189.5"/>
<text text-anchor="middle" x="954" y="-196.5" font-family="Helvetica,sans-Serif" font-size="10.00" fill="#000000">js_parse_for_in_of</text>
</a>
</g>
</g>
<!-- Node312559&#45;&gt;Node312571 -->
<g id="edge25" class="edge">
<title>Node312559&#45;&gt;Node312571</title>
<path fill="none" stroke="#191970" d="M400.643,-188.2886C414.8099,-185.2913 430.4544,-182.4943 445,-181 613.664,-163.6732 815.2288,-182.4014 905.7809,-192.8935"/>
<polygon fill="#191970" stroke="#191970" points="399.6407,-184.9252 390.6253,-190.4907 401.1436,-191.762 399.6407,-184.9252"/>
</g>
<!-- Node312565 -->
<g id="node10" class="node">
<title>Node312565</title>
<g id="a_node10"><a xlink:href="quickjs_8c.html#acc9eb677cab8dfcf45f59381f8a19601" target="_top" xlink:title="js_parse_function_decl2">
<polygon fill="none" stroke="#ff0000" points="893,-151.5 893,-170.5 1015,-170.5 1015,-151.5 893,-151.5"/>
<text text-anchor="middle" x="954" y="-158.5" font-family="Helvetica,sans-Serif" font-size="10.00" fill="#000000">js_parse_function_decl2</text>
</a>
</g>
</g>
<!-- Node312559&#45;&gt;Node312565 -->
<g id="edge26" class="edge">
<title>Node312559&#45;&gt;Node312565</title>
<path fill="none" stroke="#191970" d="M368.034,-182.7127C384.5617,-164.4441 413.3835,-136.5732 445,-124 530.1655,-90.1314 772.566,-69.3469 857,-105 878.1367,-113.9252 873.4461,-129.9973 893,-142 899.2391,-145.8298 906.3157,-148.9477 913.3833,-151.4662"/>
<polygon fill="#191970" stroke="#191970" points="365.3048,-180.5164 361.3394,-190.3412 370.5661,-185.1336 365.3048,-180.5164"/>
</g>
<!-- Node312578 -->
<g id="node11" class="node">
<title>Node312578</title>
<g id="a_node11"><a xlink:href="quickjs_8c.html#a42924858317b848c3aea0a0a978fab3a" target="_top" xlink:title="js_parse_var">
<polygon fill="none" stroke="#ff0000" points="918,-113.5 918,-132.5 990,-132.5 990,-113.5 918,-113.5"/>
<text text-anchor="middle" x="954" y="-120.5" font-family="Helvetica,sans-Serif" font-size="10.00" fill="#000000">js_parse_var</text>
</a>
</g>
</g>
<!-- Node312559&#45;&gt;Node312578 -->
<g id="edge32" class="edge">
<title>Node312559&#45;&gt;Node312578</title>
<path fill="none" stroke="#191970" d="M363.4526,-181.4978C377.8193,-156.8791 406.8828,-114.2271 445,-95 503.157,-65.6644 821.8989,-76.0467 857,-83 886.3047,-88.8051 917.8716,-103.5884 936.7756,-113.4642"/>
<polygon fill="#191970" stroke="#191970" points="360.3801,-179.8209 358.5214,-190.2515 366.479,-183.2566 360.3801,-179.8209"/>
</g>
<!-- Node312583 -->
<g id="node12" class="node">
<title>Node312583</title>
<g id="a_node12"><a xlink:href="quickjs_8c.html#a1cef6995e7ec0c736babe92589cf441f" target="_top" xlink:title="js_parse_expr2">
<polygon fill="none" stroke="#ff0000" points="460,-.5 460,-19.5 543,-19.5 543,-.5 460,-.5"/>
<text text-anchor="middle" x="501.5" y="-7.5" font-family="Helvetica,sans-Serif" font-size="10.00" fill="#000000">js_parse_expr2</text>
</a>
</g>
</g>
<!-- Node312559&#45;&gt;Node312583 -->
<g id="edge24" class="edge">
<title>Node312559&#45;&gt;Node312583</title>
<path fill="none" stroke="#191970" d="M359.4463,-180.6704C370.8174,-146.6635 398.7146,-75.7862 445,-34 451.803,-27.8583 460.4115,-23.1345 468.8447,-19.5691"/>
<polygon fill="#191970" stroke="#191970" points="356.0686,-179.741 356.3327,-190.3325 362.7312,-181.888 356.0686,-179.741"/>
</g>
<!-- Node312568 -->
<g id="node13" class="node">
<title>Node312568</title>
<g id="a_node13"><a xlink:href="quickjs_8c.html#aee6d0acd87f136d43f157ae1426436e6" target="_top" xlink:title="js_parse_object_literal">
<polygon fill="none" stroke="#000000" points="445,-190.5 445,-209.5 558,-209.5 558,-190.5 445,-190.5"/>
<text text-anchor="middle" x="501.5" y="-197.5" font-family="Helvetica,sans-Serif" font-size="10.00" fill="#000000">js_parse_object_literal</text>
</a>
</g>
</g>
<!-- Node312559&#45;&gt;Node312568 -->
<g id="edge27" class="edge">
<title>Node312559&#45;&gt;Node312568</title>
<path fill="none" stroke="#191970" d="M419.2642,-200C427.738,-200 436.3576,-200 444.6712,-200"/>
<polygon fill="#191970" stroke="#191970" points="419.0308,-196.5001 409.0308,-200 419.0308,-203.5001 419.0308,-196.5001"/>
</g>
<!-- Node312587 -->
<g id="node14" class="node">
<title>Node312587</title>
<g id="a_node14"><a xlink:href="quickjs_8c.html#a035daca514f14aacc1e0cff81d8e423a" target="_top" xlink:title="js_parse_template">
<polygon fill="none" stroke="#000000" points="453.5,-304.5 453.5,-323.5 549.5,-323.5 549.5,-304.5 453.5,-304.5"/>
<text text-anchor="middle" x="501.5" y="-311.5" font-family="Helvetica,sans-Serif" font-size="10.00" fill="#000000">js_parse_template</text>
</a>
</g>
</g>
<!-- Node312559&#45;&gt;Node312587 -->
<g id="edge30" class="edge">
<title>Node312559&#45;&gt;Node312587</title>
<path fill="none" stroke="#191970" d="M367.6967,-217.4814C384.466,-237.2223 414.0214,-269.2846 445,-290 453.6819,-295.8056 463.9965,-300.6834 473.4216,-304.4929"/>
<polygon fill="#191970" stroke="#191970" points="370.2207,-215.0431 361.1288,-209.6036 364.8442,-219.5256 370.2207,-215.0431"/>
</g>
<!-- Node312560&#45;&gt;Node312561 -->
<g id="edge4" class="edge">
<title>Node312560&#45;&gt;Node312561</title>
<path fill="none" stroke="#191970" d="M566.544,-238C575.6488,-238 584.941,-238 593.8618,-238"/>
<polygon fill="#191970" stroke="#191970" points="566.374,-234.5001 556.374,-238 566.374,-241.5001 566.374,-234.5001"/>
</g>
<!-- Node312561&#45;&gt;Node312561 -->
<g id="edge18" class="edge">
<title>Node312561&#45;&gt;Node312561</title>
<path fill="none" stroke="#191970" d="M622.3742,-256.6539C623.5289,-261.9368 632.7375,-266 650,-266 676.3047,-266 683.9084,-256.5653 672.8111,-247.7571"/>
<polygon fill="#191970" stroke="#191970" points="625.5076,-258.2176 627.1889,-247.7571 619.3512,-254.886 625.5076,-258.2176"/>
</g>
<!-- Node312561&#45;&gt;Node312562 -->
<g id="edge5" class="edge">
<title>Node312561&#45;&gt;Node312562</title>
<path fill="none" stroke="#191970" d="M716.5396,-238.8783C809.2399,-244.4537 974.4622,-259.3224 1050.997,-269.2599"/>
<polygon fill="#191970" stroke="#191970" points="716.6147,-235.3769 706.4286,-238.2912 716.2088,-242.3651 716.6147,-235.3769"/>
</g>
<!-- Node312561&#45;&gt;Node312577 -->
<g id="edge8" class="edge">
<title>Node312561&#45;&gt;Node312577</title>
<path fill="none" stroke="#191970" d="M666.8288,-221.3826C692.1077,-200.4381 740.1949,-165.3741 771.0063,-145.1478"/>
<polygon fill="#191970" stroke="#191970" points="664.2326,-218.9972 658.9042,-228.1546 668.7803,-224.3188 664.2326,-218.9972"/>
</g>
<!-- Node312561&#45;&gt;Node312571 -->
<g id="edge17" class="edge">
<title>Node312561&#45;&gt;Node312571</title>
<path fill="none" stroke="#191970" d="M716.1333,-229.5158C773.2777,-222.1848 854.5185,-211.7624 905.7267,-205.193"/>
<polygon fill="#191970" stroke="#191970" points="715.5859,-226.0572 706.1126,-230.8013 716.4767,-233.0003 715.5859,-226.0572"/>
</g>
<!-- Node312562&#45;&gt;Node312561 -->
<g id="edge7" class="edge">
<title>Node312562&#45;&gt;Node312561</title>
<path fill="none" stroke="#191970" d="M1040.658,-276.9863C956.8273,-272.5244 791.2809,-257.9599 705.0859,-247.5043"/>
<polygon fill="#191970" stroke="#191970" points="1040.5464,-280.485 1050.7093,-277.4908 1040.8974,-273.4938 1040.5464,-280.485"/>
</g>
<!-- Node312562&#45;&gt;Node312563 -->
<g id="edge6" class="edge">
<title>Node312562&#45;&gt;Node312563</title>
<path fill="none" stroke="#191970" d="M1132.8699,-264.3984C1148.5419,-259.5663 1166.1586,-254.1344 1180.7847,-249.6247"/>
<polygon fill="#191970" stroke="#191970" points="1131.4278,-261.1804 1122.903,-267.4716 1133.4903,-267.8697 1131.4278,-261.1804"/>
</g>
<!-- Node312577&#45;&gt;Node312561 -->
<g id="edge14" class="edge">
<title>Node312577&#45;&gt;Node312561</title>
<path fill="none" stroke="#191970" d="M776.5432,-151.6141C747.3618,-175.0751 697.4678,-211.029 669.8524,-228.4184"/>
<polygon fill="#191970" stroke="#191970" points="779.0225,-154.1075 784.538,-145.0615 774.5852,-148.6935 779.0225,-154.1075"/>
</g>
<!-- Node312577&#45;&gt;Node312577 -->
<g id="edge9" class="edge">
<title>Node312577&#45;&gt;Node312577</title>
<path fill="none" stroke="#191970" d="M773.2022,-155.4579C776.4661,-160.179 785.2321,-163.5 799.5,-163.5 822.9141,-163.5 831.5114,-154.5566 825.2921,-145.159"/>
<polygon fill="#191970" stroke="#191970" points="776.7132,-155.3187 773.7079,-145.159 769.7216,-154.9753 776.7132,-155.3187"/>
</g>
<!-- Node312577&#45;&gt;Node312571 -->
<g id="edge10" class="edge">
<title>Node312577&#45;&gt;Node312571</title>
<path fill="none" stroke="#191970" d="M833.3448,-150.1004C850.7809,-159.936 872.6124,-171.464 893,-180 901.3898,-183.5127 910.6636,-186.7245 919.3941,-189.4677"/>
<polygon fill="#191970" stroke="#191970" points="835.0773,-147.0593 824.6585,-145.1361 831.6039,-153.1368 835.0773,-147.0593"/>
</g>
<!-- Node312577&#45;&gt;Node312565 -->
<g id="edge11" class="edge">
<title>Node312577&#45;&gt;Node312565</title>
<path fill="none" stroke="#191970" d="M867.0922,-143.5622C880.384,-146.2291 894.0632,-148.9738 906.5225,-151.4738"/>
<polygon fill="#191970" stroke="#191970" points="867.5233,-140.079 857.0301,-141.5433 866.1461,-146.9422 867.5233,-140.079"/>
</g>
<!-- Node312577&#45;&gt;Node312578 -->
<g id="edge15" class="edge">
<title>Node312577&#45;&gt;Node312578</title>
<path fill="none" stroke="#191970" d="M867.2116,-126.9322C884.6804,-126.1407 902.8101,-125.3193 917.9533,-124.6332"/>
<polygon fill="#191970" stroke="#191970" points="866.8614,-123.4443 857.0301,-127.3935 867.1783,-130.4372 866.8614,-123.4443"/>
</g>
<!-- Node312565&#45;&gt;Node312562 -->
<g id="edge12" class="edge">
<title>Node312565&#45;&gt;Node312562</title>
<path fill="none" stroke="#191970" d="M1007.0437,-174.8999C1009.8369,-176.4284 1012.5128,-178.1226 1015,-180 1038.3179,-197.6013 1032.7102,-212.2181 1051,-235 1060.5689,-246.9191 1073.0005,-259.2901 1081.6548,-267.4913"/>
<polygon fill="#191970" stroke="#191970" points="1008.3494,-171.6463 997.8103,-170.5603 1005.3718,-177.9815 1008.3494,-171.6463"/>
</g>
<!-- Node312565&#45;&gt;Node312563 -->
<g id="edge13" class="edge">
<title>Node312565&#45;&gt;Node312563</title>
<path fill="none" stroke="#191970" d="M994.9445,-173.5373C1046.5771,-189.3473 1134.2143,-216.1819 1180.7688,-230.437"/>
<polygon fill="#191970" stroke="#191970" points="995.7074,-170.1105 985.1208,-170.5292 993.6579,-176.8038 995.7074,-170.1105"/>
</g>
<!-- Node312578&#45;&gt;Node312563 -->
<g id="edge16" class="edge">
<title>Node312578&#45;&gt;Node312563</title>
<path fill="none" stroke="#191970" d="M995.9952,-135.6576C1002.386,-137.7058 1008.8856,-139.8589 1015,-142 1068.1255,-160.6032 1082.9927,-162.1609 1133,-188 1157.6529,-200.7383 1184.185,-219.32 1199.3712,-230.4785"/>
<polygon fill="#191970" stroke="#191970" points="996.7028,-132.2109 986.1132,-132.5421 994.5981,-138.887 996.7028,-132.2109"/>
</g>
<!-- Node312568&#45;&gt;Node312561 -->
<g id="edge28" class="edge">
<title>Node312568&#45;&gt;Node312561</title>
<path fill="none" stroke="#191970" d="M548.8329,-212.1121C569.5146,-217.4044 593.4188,-223.5213 612.7966,-228.4799"/>
<polygon fill="#191970" stroke="#191970" points="549.5284,-208.6774 538.9728,-209.589 547.793,-215.4589 549.5284,-208.6774"/>
</g>
<!-- Node312587&#45;&gt;Node312561 -->
<g id="edge31" class="edge">
<title>Node312587&#45;&gt;Node312561</title>
<path fill="none" stroke="#191970" d="M535.0522,-300.4842C542.6708,-297.2123 550.6742,-293.6119 558,-290 585.4808,-276.4507 616.2586,-258.4503 634.3373,-247.572"/>
<polygon fill="#191970" stroke="#191970" points="533.5445,-297.3214 525.6877,-304.4292 536.2621,-303.7723 533.5445,-297.3214"/>
</g>
</g>
</svg>
