<?xml version="1.0" encoding="UTF-8" standalone="no"?>
<!DOCTYPE svg PUBLIC "-//W3C//DTD SVG 1.1//EN"
 "http://www.w3.org/Graphics/SVG/1.1/DTD/svg11.dtd">
<!-- Generated by graphviz version 2.40.1 (20161225.0304)
 -->
<!-- Title: gc_decref Pages: 1 -->
<svg width="573pt" height="256pt"
 viewBox="0.00 0.00 573.00 256.00" xmlns="http://www.w3.org/2000/svg" xmlns:xlink="http://www.w3.org/1999/xlink">
<g id="graph0" class="graph" transform="scale(1 1) rotate(0) translate(4 252)">
<title>gc_decref</title>
<!-- Node148329 -->
<g id="node1" class="node">
<title>Node148329</title>
<polygon fill="#bfbfbf" stroke="#000000" points="0,-152.5 0,-171.5 59,-171.5 59,-152.5 0,-152.5"/>
<text text-anchor="middle" x="29.5" y="-159.5" font-family="Helvetica,sans-Serif" font-size="10.00" fill="#000000">gc_decref</text>
</g>
<!-- Node148330 -->
<g id="node2" class="node">
<title>Node148330</title>
<g id="a_node2"><a xlink:href="quickjs_8c.html#a765db9341ea8163ebb7b0b61c7127752" target="_top" xlink:title="gc_decref_child">
<polygon fill="none" stroke="#000000" points="95,-190.5 95,-209.5 180,-209.5 180,-190.5 95,-190.5"/>
<text text-anchor="middle" x="137.5" y="-197.5" font-family="Helvetica,sans-Serif" font-size="10.00" fill="#000000">gc_decref_child</text>
</a>
</g>
</g>
<!-- Node148329&#45;&gt;Node148330 -->
<g id="edge1" class="edge">
<title>Node148329&#45;&gt;Node148330</title>
<path fill="none" stroke="#191970" d="M56.753,-171.589C70.0552,-176.2694 86.2545,-181.9692 100.6423,-187.0315"/>
<polygon fill="#191970" stroke="#191970" points="99.6609,-190.3965 110.2558,-190.4141 101.9843,-183.7933 99.6609,-190.3965"/>
</g>
<!-- Node148331 -->
<g id="node3" class="node">
<title>Node148331</title>
<g id="a_node3"><a xlink:href="list_8h.html#a3a5d0733570b2fafc18f4c71a2968ea5" target="_top" xlink:title="list_add_tail">
<polygon fill="none" stroke="#000000" points="227,-228.5 227,-247.5 295,-247.5 295,-228.5 227,-228.5"/>
<text text-anchor="middle" x="261" y="-235.5" font-family="Helvetica,sans-Serif" font-size="10.00" fill="#000000">list_add_tail</text>
</a>
</g>
</g>
<!-- Node148329&#45;&gt;Node148331 -->
<g id="edge6" class="edge">
<title>Node148329&#45;&gt;Node148331</title>
<path fill="none" stroke="#191970" d="M37.1981,-171.6368C48.3705,-184.8496 70.4456,-208.1804 95,-219 133.6103,-236.0132 181.9345,-239.8271 216.4699,-239.9484"/>
<polygon fill="#191970" stroke="#191970" points="216.7433,-243.4467 226.719,-239.8781 216.6952,-236.4469 216.7433,-243.4467"/>
</g>
<!-- Node148333 -->
<g id="node5" class="node">
<title>Node148333</title>
<g id="a_node5"><a xlink:href="list_8h.html#ab60d5d18869ebeb5d6ab694289576fa7" target="_top" xlink:title="list_del">
<polygon fill="none" stroke="#000000" points="237.5,-190.5 237.5,-209.5 284.5,-209.5 284.5,-190.5 237.5,-190.5"/>
<text text-anchor="middle" x="261" y="-197.5" font-family="Helvetica,sans-Serif" font-size="10.00" fill="#000000">list_del</text>
</a>
</g>
</g>
<!-- Node148329&#45;&gt;Node148333 -->
<g id="edge7" class="edge">
<title>Node148329&#45;&gt;Node148333</title>
<path fill="none" stroke="#191970" d="M59.0538,-164.8061C89.5017,-167.9133 138.2691,-173.4928 180,-181 195.672,-183.8193 212.8673,-187.7339 227.3676,-191.2776"/>
<polygon fill="#191970" stroke="#191970" points="226.8402,-194.7531 237.3895,-193.7715 228.5306,-187.9602 226.8402,-194.7531"/>
</g>
<!-- Node148334 -->
<g id="node6" class="node">
<title>Node148334</title>
<g id="a_node6"><a xlink:href="list_8h.html#a663527a4d757540b2177bef0db1ce5c0" target="_top" xlink:title="init_list_head">
<polygon fill="none" stroke="#000000" points="100.5,-114.5 100.5,-133.5 174.5,-133.5 174.5,-114.5 100.5,-114.5"/>
<text text-anchor="middle" x="137.5" y="-121.5" font-family="Helvetica,sans-Serif" font-size="10.00" fill="#000000">init_list_head</text>
</a>
</g>
</g>
<!-- Node148329&#45;&gt;Node148334 -->
<g id="edge5" class="edge">
<title>Node148329&#45;&gt;Node148334</title>
<path fill="none" stroke="#191970" d="M56.753,-152.411C70.0552,-147.7306 86.2545,-142.0308 100.6423,-136.9685"/>
<polygon fill="#191970" stroke="#191970" points="101.9843,-140.2067 110.2558,-133.5859 99.6609,-133.6035 101.9843,-140.2067"/>
</g>
<!-- Node148335 -->
<g id="node7" class="node">
<title>Node148335</title>
<g id="a_node7"><a xlink:href="quickjs_8c.html#aa863a9d565bac49a2a76d10009eabd5c" target="_top" xlink:title="mark_children">
<polygon fill="none" stroke="#000000" points="99,-76.5 99,-95.5 176,-95.5 176,-76.5 99,-76.5"/>
<text text-anchor="middle" x="137.5" y="-83.5" font-family="Helvetica,sans-Serif" font-size="10.00" fill="#000000">mark_children</text>
</a>
</g>
</g>
<!-- Node148329&#45;&gt;Node148335 -->
<g id="edge8" class="edge">
<title>Node148329&#45;&gt;Node148335</title>
<path fill="none" stroke="#191970" d="M38.9699,-152.1235C51.0911,-139.8878 73.1469,-118.9537 95,-105 97.6397,-103.3145 100.454,-101.704 103.3296,-100.1843"/>
<polygon fill="#191970" stroke="#191970" points="105.1382,-103.196 112.5846,-95.6592 102.0635,-96.9074 105.1382,-103.196"/>
</g>
<!-- Node148330&#45;&gt;Node148331 -->
<g id="edge2" class="edge">
<title>Node148330&#45;&gt;Node148331</title>
<path fill="none" stroke="#191970" d="M168.6643,-209.589C184.3144,-214.4044 203.4712,-220.2988 220.271,-225.468"/>
<polygon fill="#191970" stroke="#191970" points="219.2586,-228.8184 229.8457,-228.4141 221.3172,-222.1279 219.2586,-228.8184"/>
</g>
<!-- Node148330&#45;&gt;Node148333 -->
<g id="edge4" class="edge">
<title>Node148330&#45;&gt;Node148333</title>
<path fill="none" stroke="#191970" d="M180.0017,-200C195.3857,-200 212.5407,-200 227.0886,-200"/>
<polygon fill="#191970" stroke="#191970" points="227.1583,-203.5001 237.1582,-200 227.1582,-196.5001 227.1583,-203.5001"/>
</g>
<!-- Node148332 -->
<g id="node4" class="node">
<title>Node148332</title>
<g id="a_node4"><a xlink:href="list_8h.html#a16286d5bff74a27aec51a3134ffc7b43" target="_top" xlink:title="__list_add">
<polygon fill="none" stroke="#000000" points="365,-228.5 365,-247.5 426,-247.5 426,-228.5 365,-228.5"/>
<text text-anchor="middle" x="395.5" y="-235.5" font-family="Helvetica,sans-Serif" font-size="10.00" fill="#000000">__list_add</text>
</a>
</g>
</g>
<!-- Node148331&#45;&gt;Node148332 -->
<g id="edge3" class="edge">
<title>Node148331&#45;&gt;Node148332</title>
<path fill="none" stroke="#191970" d="M295.288,-238C313.4127,-238 335.7812,-238 354.7835,-238"/>
<polygon fill="#191970" stroke="#191970" points="354.9457,-241.5001 364.9457,-238 354.9457,-234.5001 354.9457,-241.5001"/>
</g>
<!-- Node148336 -->
<g id="node8" class="node">
<title>Node148336</title>
<g id="a_node8"><a xlink:href="quickjs_8c.html#a440c98b7712cdebdd1669145e347aeee" target="_top" xlink:title="async_func_mark">
<polygon fill="none" stroke="#000000" points="348.5,-152.5 348.5,-171.5 442.5,-171.5 442.5,-152.5 348.5,-152.5"/>
<text text-anchor="middle" x="395.5" y="-159.5" font-family="Helvetica,sans-Serif" font-size="10.00" fill="#000000">async_func_mark</text>
</a>
</g>
</g>
<!-- Node148335&#45;&gt;Node148336 -->
<g id="edge9" class="edge">
<title>Node148335&#45;&gt;Node148336</title>
<path fill="none" stroke="#191970" d="M162.4798,-95.5598C168.4188,-98.2636 174.5958,-101.4502 180,-105 198.1415,-116.9163 196.3386,-128.8054 216,-138 254.268,-155.8959 301.8149,-161.6175 338.3578,-163.0145"/>
<polygon fill="#191970" stroke="#191970" points="338.2602,-166.513 348.3562,-163.3004 338.4603,-159.5159 338.2602,-166.513"/>
</g>
<!-- Node148337 -->
<g id="node9" class="node">
<title>Node148337</title>
<g id="a_node9"><a xlink:href="quickjs_8c.html#ab05309c79261e2042dfebf3dc7f7d039" target="_top" xlink:title="JS_MarkValue">
<polygon fill="none" stroke="#000000" points="485,-90.5 485,-109.5 565,-109.5 565,-90.5 485,-90.5"/>
<text text-anchor="middle" x="525" y="-97.5" font-family="Helvetica,sans-Serif" font-size="10.00" fill="#000000">JS_MarkValue</text>
</a>
</g>
</g>
<!-- Node148335&#45;&gt;Node148337 -->
<g id="edge17" class="edge">
<title>Node148335&#45;&gt;Node148337</title>
<path fill="none" stroke="#191970" d="M169.2689,-95.5061C183.4313,-99.2704 200.4059,-103.1397 216,-105 306.6509,-115.8144 413.3085,-110.0437 474.6457,-104.9576"/>
<polygon fill="#191970" stroke="#191970" points="475.1596,-108.4265 484.8241,-104.0852 474.5617,-101.4521 475.1596,-108.4265"/>
</g>
<!-- Node148338 -->
<g id="node10" class="node">
<title>Node148338</title>
<g id="a_node10"><a xlink:href="quickjs_8c.html#a643df594b75933007bcdbb071b5ea8c5" target="_top" xlink:title="get_shape_prop">
<polygon fill="none" stroke="#000000" points="218,-76.5 218,-95.5 304,-95.5 304,-76.5 218,-76.5"/>
<text text-anchor="middle" x="261" y="-83.5" font-family="Helvetica,sans-Serif" font-size="10.00" fill="#000000">get_shape_prop</text>
</a>
</g>
</g>
<!-- Node148335&#45;&gt;Node148338 -->
<g id="edge11" class="edge">
<title>Node148335&#45;&gt;Node148338</title>
<path fill="none" stroke="#191970" d="M176.2373,-86C186.1055,-86 196.8886,-86 207.3555,-86"/>
<polygon fill="#191970" stroke="#191970" points="207.6715,-89.5001 217.6715,-86 207.6715,-82.5001 207.6715,-89.5001"/>
</g>
<!-- Node148339 -->
<g id="node11" class="node">
<title>Node148339</title>
<g id="a_node11"><a xlink:href="quickjs_8c.html#a971043be2cd86b47e27c9217f78fb8cb" target="_top" xlink:title="js_autoinit_mark">
<polygon fill="none" stroke="#000000" points="217,-38.5 217,-57.5 305,-57.5 305,-38.5 217,-38.5"/>
<text text-anchor="middle" x="261" y="-45.5" font-family="Helvetica,sans-Serif" font-size="10.00" fill="#000000">js_autoinit_mark</text>
</a>
</g>
</g>
<!-- Node148335&#45;&gt;Node148339 -->
<g id="edge12" class="edge">
<title>Node148335&#45;&gt;Node148339</title>
<path fill="none" stroke="#191970" d="M168.6643,-76.411C184.3144,-71.5956 203.4712,-65.7012 220.271,-60.532"/>
<polygon fill="#191970" stroke="#191970" points="221.3172,-63.8721 229.8457,-57.5859 219.2586,-57.1816 221.3172,-63.8721"/>
</g>
<!-- Node148340 -->
<g id="node12" class="node">
<title>Node148340</title>
<g id="a_node12"><a xlink:href="quickjs_8c.html#a7b4ca0877b507766c40c28209ecef13a" target="_top" xlink:title="JS_MarkContext">
<polygon fill="none" stroke="#000000" points="216,-.5 216,-19.5 306,-19.5 306,-.5 216,-.5"/>
<text text-anchor="middle" x="261" y="-7.5" font-family="Helvetica,sans-Serif" font-size="10.00" fill="#000000">JS_MarkContext</text>
</a>
</g>
</g>
<!-- Node148335&#45;&gt;Node148340 -->
<g id="edge13" class="edge">
<title>Node148335&#45;&gt;Node148340</title>
<path fill="none" stroke="#191970" d="M148.9023,-76.426C163.6962,-64.3164 190.6246,-43.32 216,-29 219.2173,-27.1844 222.6427,-25.4365 226.1122,-23.7859"/>
<polygon fill="#191970" stroke="#191970" points="227.5992,-26.9549 235.2865,-19.6641 224.7305,-20.5697 227.5992,-26.9549"/>
</g>
<!-- Node148336&#45;&gt;Node148337 -->
<g id="edge10" class="edge">
<title>Node148336&#45;&gt;Node148337</title>
<path fill="none" stroke="#191970" d="M417.4601,-152.3976C427.1694,-148.0881 438.6974,-142.8839 449,-138 465.0293,-130.4014 482.7686,-121.5569 497.0748,-114.3136"/>
<polygon fill="#191970" stroke="#191970" points="499.0392,-117.2413 506.3674,-109.5897 495.867,-111.0013 499.0392,-117.2413"/>
</g>
<!-- Node148340&#45;&gt;Node148337 -->
<g id="edge16" class="edge">
<title>Node148340&#45;&gt;Node148337</title>
<path fill="none" stroke="#191970" d="M287.2134,-19.5503C303.0467,-25.2776 323.6477,-32.6569 342,-39 391.4737,-56.0997 448.7541,-75.0586 485.8649,-87.2318"/>
<polygon fill="#191970" stroke="#191970" points="485.1813,-90.6908 495.774,-90.4782 487.3607,-84.0387 485.1813,-90.6908"/>
</g>
<!-- Node148341 -->
<g id="node13" class="node">
<title>Node148341</title>
<g id="a_node13"><a xlink:href="quickjs_8c.html#ab9aacbe1f6b77d056f2964b11ebe5582" target="_top" xlink:title="js_mark_module_def">
<polygon fill="none" stroke="#000000" points="342,-10.5 342,-29.5 449,-29.5 449,-10.5 342,-10.5"/>
<text text-anchor="middle" x="395.5" y="-17.5" font-family="Helvetica,sans-Serif" font-size="10.00" fill="#000000">js_mark_module_def</text>
</a>
</g>
</g>
<!-- Node148340&#45;&gt;Node148341 -->
<g id="edge14" class="edge">
<title>Node148340&#45;&gt;Node148341</title>
<path fill="none" stroke="#191970" d="M306.1607,-13.3577C314.3885,-13.9694 323.1126,-14.618 331.759,-15.2609"/>
<polygon fill="#191970" stroke="#191970" points="331.6072,-18.7592 341.8392,-16.0104 332.1263,-11.7784 331.6072,-18.7592"/>
</g>
<!-- Node148341&#45;&gt;Node148337 -->
<g id="edge15" class="edge">
<title>Node148341&#45;&gt;Node148337</title>
<path fill="none" stroke="#191970" d="M411.1207,-29.6499C433.386,-43.4045 474.4532,-68.7742 500.7095,-84.9943"/>
<polygon fill="#191970" stroke="#191970" points="498.9768,-88.0379 509.3239,-90.3159 502.6558,-82.0826 498.9768,-88.0379"/>
</g>
</g>
</svg>
