<?xml version="1.0" encoding="UTF-8" standalone="no"?>
<!DOCTYPE svg PUBLIC "-//W3C//DTD SVG 1.1//EN"
 "http://www.w3.org/Graphics/SVG/1.1/DTD/svg11.dtd">
<!-- Generated by graphviz version 2.40.1 (20161225.0304)
 -->
<!-- Title: JS_RegExpDelete Pages: 1 -->
<svg width="934pt" height="674pt"
 viewBox="0.00 0.00 934.00 674.00" xmlns="http://www.w3.org/2000/svg" xmlns:xlink="http://www.w3.org/1999/xlink">
<g id="graph0" class="graph" transform="scale(1 1) rotate(0) translate(4 670)">
<title>JS_RegExpDelete</title>
<!-- Node406472 -->
<g id="node1" class="node">
<title>Node406472</title>
<polygon fill="#bfbfbf" stroke="#000000" points="0,-323.5 0,-342.5 98,-342.5 98,-323.5 0,-323.5"/>
<text text-anchor="middle" x="49" y="-330.5" font-family="Helvetica,sans-Serif" font-size="10.00" fill="#000000">JS_RegExpDelete</text>
</g>
<!-- Node406473 -->
<g id="node2" class="node">
<title>Node406473</title>
<g id="a_node2"><a xlink:href="quickjs_8c.html#a853f0924d441ea4225488f37c8b69f9a" target="_top" xlink:title="__attribute__">
<polygon fill="none" stroke="#000000" points="154,-646.5 154,-665.5 227,-665.5 227,-646.5 154,-646.5"/>
<text text-anchor="middle" x="190.5" y="-653.5" font-family="Helvetica,sans-Serif" font-size="10.00" fill="#000000">__attribute__</text>
</a>
</g>
</g>
<!-- Node406472&#45;&gt;Node406473 -->
<g id="edge1" class="edge">
<title>Node406472&#45;&gt;Node406473</title>
<path fill="none" stroke="#191970" d="M50.6177,-342.7784C58.454,-389.1308 93.7392,-586.377 134,-632 137.3947,-635.8468 141.5106,-639.0956 145.9565,-641.8351"/>
<polygon fill="#191970" stroke="#191970" points="144.3312,-644.9348 154.8099,-646.4992 147.5939,-638.7417 144.3312,-644.9348"/>
</g>
<!-- Node406474 -->
<g id="node3" class="node">
<title>Node406474</title>
<g id="a_node3"><a xlink:href="quickjs_8c.html#a80e54dcf9ac687d4ccc2f90273565f30" target="_top" xlink:title="js_free">
<polygon fill="none" stroke="#000000" points="326,-568.5 326,-587.5 372,-587.5 372,-568.5 326,-568.5"/>
<text text-anchor="middle" x="349" y="-575.5" font-family="Helvetica,sans-Serif" font-size="10.00" fill="#000000">js_free</text>
</a>
</g>
</g>
<!-- Node406472&#45;&gt;Node406474 -->
<g id="edge2" class="edge">
<title>Node406472&#45;&gt;Node406474</title>
<path fill="none" stroke="#191970" d="M50.5479,-342.6333C57.8155,-386.5354 90.0513,-566.9057 134,-599 189.6122,-639.6117 276.0528,-611.1637 320.4904,-591.8287"/>
<polygon fill="#191970" stroke="#191970" points="322.1365,-594.9261 329.8207,-587.632 319.265,-588.5422 322.1365,-594.9261"/>
</g>
<!-- Node406476 -->
<g id="node5" class="node">
<title>Node406476</title>
<g id="a_node5"><a xlink:href="quickjs_8h.html#afaa20c47565bc704c6c85f3d77254e7d" target="_top" xlink:title="JS_FreeValue">
<polygon fill="none" stroke="#000000" points="471.5,-502.5 471.5,-521.5 549.5,-521.5 549.5,-502.5 471.5,-502.5"/>
<text text-anchor="middle" x="510.5" y="-509.5" font-family="Helvetica,sans-Serif" font-size="10.00" fill="#000000">JS_FreeValue</text>
</a>
</g>
</g>
<!-- Node406472&#45;&gt;Node406476 -->
<g id="edge4" class="edge">
<title>Node406472&#45;&gt;Node406476</title>
<path fill="none" stroke="#191970" d="M51.5464,-342.6579C59.0501,-368.9915 83.7689,-442.196 134,-474 235.6521,-538.3614 384.544,-530.0846 461.0654,-520.1591"/>
<polygon fill="#191970" stroke="#191970" points="461.9343,-523.5731 471.3702,-518.755 460.9892,-516.6372 461.9343,-523.5731"/>
</g>
<!-- Node406510 -->
<g id="node8" class="node">
<title>Node406510</title>
<g id="a_node8"><a xlink:href="quickjs_8c.html#a82de8d310598980dd9ab473ce2c8dd1c" target="_top" xlink:title="js_get_regexp">
<polygon fill="none" stroke="#000000" points="152,-342.5 152,-361.5 229,-361.5 229,-342.5 152,-342.5"/>
<text text-anchor="middle" x="190.5" y="-349.5" font-family="Helvetica,sans-Serif" font-size="10.00" fill="#000000">js_get_regexp</text>
</a>
</g>
</g>
<!-- Node406472&#45;&gt;Node406510 -->
<g id="edge8" class="edge">
<title>Node406472&#45;&gt;Node406510</title>
<path fill="none" stroke="#191970" d="M98.0927,-339.592C112.2236,-341.4894 127.6301,-343.5581 141.7408,-345.4528"/>
<polygon fill="#191970" stroke="#191970" points="141.3729,-348.9348 151.7497,-346.7968 142.3045,-341.997 141.3729,-348.9348"/>
</g>
<!-- Node406518 -->
<g id="node11" class="node">
<title>Node406518</title>
<g id="a_node11"><a xlink:href="quickjs_8h.html#a89b7c8686c7eee70b86be722ee4730ad" target="_top" xlink:title="JS_GetProperty">
<polygon fill="none" stroke="#000000" points="147.5,-418.5 147.5,-437.5 233.5,-437.5 233.5,-418.5 147.5,-418.5"/>
<text text-anchor="middle" x="190.5" y="-425.5" font-family="Helvetica,sans-Serif" font-size="10.00" fill="#000000">JS_GetProperty</text>
</a>
</g>
</g>
<!-- Node406472&#45;&gt;Node406518 -->
<g id="edge11" class="edge">
<title>Node406472&#45;&gt;Node406518</title>
<path fill="none" stroke="#191970" d="M58.4701,-342.5497C73.4441,-357.2506 103.9801,-385.6446 134,-404 140.3135,-407.8603 147.3588,-411.3922 154.2745,-414.4898"/>
<polygon fill="#191970" stroke="#191970" points="152.9717,-417.7391 163.5437,-418.4347 155.7129,-411.2982 152.9717,-417.7391"/>
</g>
<!-- Node406526 -->
<g id="node16" class="node">
<title>Node406526</title>
<g id="a_node16"><a xlink:href="quickjs_8h.html#a2050bc428da1c65ac7eb87c3fa3b0392" target="_top" xlink:title="JS_NewInt32">
<polygon fill="none" stroke="#000000" points="472.5,-350.5 472.5,-369.5 548.5,-369.5 548.5,-350.5 472.5,-350.5"/>
<text text-anchor="middle" x="510.5" y="-357.5" font-family="Helvetica,sans-Serif" font-size="10.00" fill="#000000">JS_NewInt32</text>
</a>
</g>
</g>
<!-- Node406472&#45;&gt;Node406526 -->
<g id="edge19" class="edge">
<title>Node406472&#45;&gt;Node406526</title>
<path fill="none" stroke="#191970" d="M64.9136,-342.5717C81.4904,-351.9398 108.548,-365.5697 134,-371 249.6627,-395.6771 389.811,-379.9971 462.1217,-368.6656"/>
<polygon fill="#191970" stroke="#191970" points="462.97,-372.0742 472.2873,-367.0306 461.8584,-365.1631 462.97,-372.0742"/>
</g>
<!-- Node406525 -->
<g id="node17" class="node">
<title>Node406525</title>
<g id="a_node17"><a xlink:href="quickjs_8h.html#ad80a83d73e9b7d872b88fbf2943aebe9" target="_top" xlink:title="JS_IsException">
<polygon fill="none" stroke="#000000" points="147.5,-304.5 147.5,-323.5 233.5,-323.5 233.5,-304.5 147.5,-304.5"/>
<text text-anchor="middle" x="190.5" y="-311.5" font-family="Helvetica,sans-Serif" font-size="10.00" fill="#000000">JS_IsException</text>
</a>
</g>
</g>
<!-- Node406472&#45;&gt;Node406525 -->
<g id="edge18" class="edge">
<title>Node406472&#45;&gt;Node406525</title>
<path fill="none" stroke="#191970" d="M98.0927,-326.408C110.6895,-324.7166 124.3001,-322.889 137.1026,-321.17"/>
<polygon fill="#191970" stroke="#191970" points="137.7168,-324.619 147.162,-319.8192 136.7852,-317.6813 137.7168,-324.619"/>
</g>
<!-- Node406766 -->
<g id="node18" class="node">
<title>Node406766</title>
<g id="a_node18"><a xlink:href="quickjs_8h.html#af763b173e78debf2075670ca2c128a30" target="_top" xlink:title="JS_SetProperty">
<polygon fill="none" stroke="#ff0000" points="147.5,-266.5 147.5,-285.5 233.5,-285.5 233.5,-266.5 147.5,-266.5"/>
<text text-anchor="middle" x="190.5" y="-273.5" font-family="Helvetica,sans-Serif" font-size="10.00" fill="#000000">JS_SetProperty</text>
</a>
</g>
</g>
<!-- Node406472&#45;&gt;Node406766 -->
<g id="edge20" class="edge">
<title>Node406472&#45;&gt;Node406766</title>
<path fill="none" stroke="#191970" d="M69.0345,-323.3879C86.1146,-315.3522 111.4153,-303.8223 134,-295 139.4342,-292.8772 145.215,-290.768 150.9262,-288.7692"/>
<polygon fill="#191970" stroke="#191970" points="152.0708,-292.0769 160.3985,-285.527 149.8039,-285.4541 152.0708,-292.0769"/>
</g>
<!-- Node406754 -->
<g id="node19" class="node">
<title>Node406754</title>
<g id="a_node19"><a xlink:href="quickjs_8c.html#a07acd485a57197356906928a788a0644" target="_top" xlink:title="JS_ToLengthFree">
<polygon fill="none" stroke="#ff0000" points="302,-456.5 302,-475.5 396,-475.5 396,-456.5 302,-456.5"/>
<text text-anchor="middle" x="349" y="-463.5" font-family="Helvetica,sans-Serif" font-size="10.00" fill="#000000">JS_ToLengthFree</text>
</a>
</g>
</g>
<!-- Node406472&#45;&gt;Node406754 -->
<g id="edge21" class="edge">
<title>Node406472&#45;&gt;Node406754</title>
<path fill="none" stroke="#191970" d="M52.9381,-342.8327C62.7072,-365.7669 90.4559,-422.6932 134,-447 182.2137,-473.9135 246.1577,-476.1389 291.7487,-473.1805"/>
<polygon fill="#191970" stroke="#191970" points="292.0533,-476.6675 301.7632,-472.4287 291.5292,-469.6872 292.0533,-476.6675"/>
</g>
<!-- Node406548 -->
<g id="node20" class="node">
<title>Node406548</title>
<g id="a_node20"><a xlink:href="quickjs_8c.html#a7bcb8e1a20cbc8374a5f9ba4a2088cec" target="_top" xlink:title="JS_ToString">
<polygon fill="none" stroke="#ff0000" points="155,-228.5 155,-247.5 226,-247.5 226,-228.5 155,-228.5"/>
<text text-anchor="middle" x="190.5" y="-235.5" font-family="Helvetica,sans-Serif" font-size="10.00" fill="#000000">JS_ToString</text>
</a>
</g>
</g>
<!-- Node406472&#45;&gt;Node406548 -->
<g id="edge23" class="edge">
<title>Node406472&#45;&gt;Node406548</title>
<path fill="none" stroke="#191970" d="M57.2232,-323.4701C71.3978,-307.5882 102.0046,-275.617 134,-257 137.6226,-254.8921 141.5131,-252.9756 145.4961,-251.2428"/>
<polygon fill="#191970" stroke="#191970" points="146.8659,-254.4648 154.8749,-247.5289 144.2887,-247.9565 146.8659,-254.4648"/>
</g>
<!-- Node406904 -->
<g id="node21" class="node">
<title>Node406904</title>
<g id="a_node21"><a xlink:href="libregexp_8h.html#a55d8c60c9c812ae3e3e23e608b830ce3" target="_top" xlink:title="lre_exec">
<polygon fill="none" stroke="#000000" points="164,-190.5 164,-209.5 217,-209.5 217,-190.5 164,-190.5"/>
<text text-anchor="middle" x="190.5" y="-197.5" font-family="Helvetica,sans-Serif" font-size="10.00" fill="#000000">lre_exec</text>
</a>
</g>
</g>
<!-- Node406472&#45;&gt;Node406904 -->
<g id="edge24" class="edge">
<title>Node406472&#45;&gt;Node406904</title>
<path fill="none" stroke="#191970" d="M53.6839,-323.1815C64.6305,-301.2586 94.0238,-247.9795 134,-219 140.0485,-214.6153 147.1784,-211.1927 154.2988,-208.5382"/>
<polygon fill="#191970" stroke="#191970" points="155.4969,-211.8286 163.9003,-205.3763 153.3073,-205.1799 155.4969,-211.8286"/>
</g>
<!-- Node406912 -->
<g id="node24" class="node">
<title>Node406912</title>
<g id="a_node24"><a xlink:href="libregexp_8h.html#a901e8c0ab6941f09e79fc9d8a9494717" target="_top" xlink:title="lre_get_capture_count">
<polygon fill="none" stroke="#000000" points="134,-152.5 134,-171.5 247,-171.5 247,-152.5 134,-152.5"/>
<text text-anchor="middle" x="190.5" y="-159.5" font-family="Helvetica,sans-Serif" font-size="10.00" fill="#000000">lre_get_capture_count</text>
</a>
</g>
</g>
<!-- Node406472&#45;&gt;Node406912 -->
<g id="edge28" class="edge">
<title>Node406472&#45;&gt;Node406912</title>
<path fill="none" stroke="#191970" d="M51.74,-323.2082C59.7383,-296.4035 85.6041,-221.1594 134,-181 136.0557,-179.2942 138.2713,-177.7392 140.5935,-176.3219"/>
<polygon fill="#191970" stroke="#191970" points="142.6689,-179.1909 149.9673,-171.5108 139.4725,-172.9632 142.6689,-179.1909"/>
</g>
<!-- Node406913 -->
<g id="node25" class="node">
<title>Node406913</title>
<g id="a_node25"><a xlink:href="libregexp_8h.html#a3bf39330d9dde9c1c41f1a73504a7386" target="_top" xlink:title="lre_get_flags">
<polygon fill="none" stroke="#000000" points="154.5,-114.5 154.5,-133.5 226.5,-133.5 226.5,-114.5 154.5,-114.5"/>
<text text-anchor="middle" x="190.5" y="-121.5" font-family="Helvetica,sans-Serif" font-size="10.00" fill="#000000">lre_get_flags</text>
</a>
</g>
</g>
<!-- Node406472&#45;&gt;Node406913 -->
<g id="edge29" class="edge">
<title>Node406472&#45;&gt;Node406913</title>
<path fill="none" stroke="#191970" d="M50.5658,-323.0988C56.0141,-291.9155 77.0179,-194.745 134,-143 137.2321,-140.0649 140.9333,-137.5813 144.8613,-135.4799"/>
<polygon fill="#191970" stroke="#191970" points="146.6306,-138.5224 154.324,-131.238 143.7671,-132.1348 146.6306,-138.5224"/>
</g>
<!-- Node406804 -->
<g id="node26" class="node">
<title>Node406804</title>
<g id="a_node26"><a xlink:href="quickjs_8c.html#a6887ef15fd884e05ddf04ec291b5f3d2" target="_top" xlink:title="string_buffer_concat">
<polygon fill="none" stroke="#ff0000" points="138,-76.5 138,-95.5 243,-95.5 243,-76.5 138,-76.5"/>
<text text-anchor="middle" x="190.5" y="-83.5" font-family="Helvetica,sans-Serif" font-size="10.00" fill="#000000">string_buffer_concat</text>
</a>
</g>
</g>
<!-- Node406472&#45;&gt;Node406804 -->
<g id="edge30" class="edge">
<title>Node406472&#45;&gt;Node406804</title>
<path fill="none" stroke="#191970" d="M49.7313,-323.177C52.8578,-288.25 68.136,-168.7611 134,-105 135.6312,-103.4209 137.3976,-101.973 139.2643,-100.6452"/>
<polygon fill="#191970" stroke="#191970" points="141.107,-103.6224 147.981,-95.5602 137.5797,-97.576 141.107,-103.6224"/>
</g>
<!-- Node406555 -->
<g id="node27" class="node">
<title>Node406555</title>
<g id="a_node27"><a xlink:href="quickjs_8c.html#accfc3d1dcaa88c88402cb245ccaf4fdb" target="_top" xlink:title="string_buffer_end">
<polygon fill="none" stroke="#ff0000" points="144.5,-570.5 144.5,-589.5 236.5,-589.5 236.5,-570.5 144.5,-570.5"/>
<text text-anchor="middle" x="190.5" y="-577.5" font-family="Helvetica,sans-Serif" font-size="10.00" fill="#000000">string_buffer_end</text>
</a>
</g>
</g>
<!-- Node406472&#45;&gt;Node406555 -->
<g id="edge31" class="edge">
<title>Node406472&#45;&gt;Node406555</title>
<path fill="none" stroke="#191970" d="M49.7313,-342.823C52.8578,-377.75 68.136,-497.2389 134,-561 135.6312,-562.5791 137.3976,-564.027 139.2643,-565.3548"/>
<polygon fill="#191970" stroke="#191970" points="137.5797,-568.424 147.981,-570.4398 141.107,-562.3776 137.5797,-568.424"/>
</g>
<!-- Node406556 -->
<g id="node28" class="node">
<title>Node406556</title>
<g id="a_node28"><a xlink:href="quickjs_8c.html#a266b4993a59d9e34537386e62b9f3d4f" target="_top" xlink:title="string_buffer_free">
<polygon fill="none" stroke="#000000" points="144.5,-532.5 144.5,-551.5 236.5,-551.5 236.5,-532.5 144.5,-532.5"/>
<text text-anchor="middle" x="190.5" y="-539.5" font-family="Helvetica,sans-Serif" font-size="10.00" fill="#000000">string_buffer_free</text>
</a>
</g>
</g>
<!-- Node406472&#45;&gt;Node406556 -->
<g id="edge33" class="edge">
<title>Node406472&#45;&gt;Node406556</title>
<path fill="none" stroke="#191970" d="M50.9064,-342.8895C57.2316,-373.1808 80.2511,-465.7881 134,-518 137.9655,-521.8521 142.6439,-525.1285 147.5834,-527.9044"/>
<polygon fill="#191970" stroke="#191970" points="146.1418,-531.0959 156.659,-532.3767 149.236,-524.8169 146.1418,-531.0959"/>
</g>
<!-- Node406557 -->
<g id="node29" class="node">
<title>Node406557</title>
<g id="a_node29"><a xlink:href="quickjs_8c.html#a9c11961b0adafedd064b294612d0c2f3" target="_top" xlink:title="string_buffer_init">
<polygon fill="none" stroke="#ff0000" points="146,-38.5 146,-57.5 235,-57.5 235,-38.5 146,-38.5"/>
<text text-anchor="middle" x="190.5" y="-45.5" font-family="Helvetica,sans-Serif" font-size="10.00" fill="#000000">string_buffer_init</text>
</a>
</g>
</g>
<!-- Node406472&#45;&gt;Node406557 -->
<g id="edge35" class="edge">
<title>Node406472&#45;&gt;Node406557</title>
<path fill="none" stroke="#191970" d="M50.8662,-323.3836C59.3959,-280.3272 95.8961,-105.684 134,-67 135.4434,-65.5347 137.0032,-64.1823 138.6526,-62.9343"/>
<polygon fill="#191970" stroke="#191970" points="140.809,-65.7187 147.5231,-57.5228 137.1634,-59.7429 140.809,-65.7187"/>
</g>
<!-- Node406914 -->
<g id="node30" class="node">
<title>Node406914</title>
<g id="a_node30"><a xlink:href="quickjs_8c.html#ae94a3705c1c334ae8719767ae53719c2" target="_top" xlink:title="string_getc">
<polygon fill="none" stroke="#000000" points="158,-.5 158,-19.5 223,-19.5 223,-.5 158,-.5"/>
<text text-anchor="middle" x="190.5" y="-7.5" font-family="Helvetica,sans-Serif" font-size="10.00" fill="#000000">string_getc</text>
</a>
</g>
</g>
<!-- Node406472&#45;&gt;Node406914 -->
<g id="edge36" class="edge">
<title>Node406472&#45;&gt;Node406914</title>
<path fill="none" stroke="#191970" d="M50.4716,-323.3042C57.7607,-276.4499 91.3593,-73.907 134,-29 138.0629,-24.7212 143.1186,-21.4059 148.5233,-18.8371"/>
<polygon fill="#191970" stroke="#191970" points="149.8063,-22.0935 157.835,-15.1805 147.2476,-15.5779 149.8063,-22.0935"/>
</g>
<!-- Node406475 -->
<g id="node4" class="node">
<title>Node406475</title>
<g id="a_node4"><a xlink:href="quickjs_8c.html#a69e19dda8a93d613203e0baa06f0ed8d" target="_top" xlink:title="js_free_rt">
<polygon fill="none" stroke="#000000" points="869,-543.5 869,-562.5 926,-562.5 926,-543.5 869,-543.5"/>
<text text-anchor="middle" x="897.5" y="-550.5" font-family="Helvetica,sans-Serif" font-size="10.00" fill="#000000">js_free_rt</text>
</a>
</g>
</g>
<!-- Node406474&#45;&gt;Node406475 -->
<g id="edge3" class="edge">
<title>Node406474&#45;&gt;Node406475</title>
<path fill="none" stroke="#191970" d="M372.218,-576.9417C457.2684,-573.0652 752.3648,-559.6151 858.8247,-554.7628"/>
<polygon fill="#191970" stroke="#191970" points="858.9875,-558.2591 868.8178,-554.3073 858.6687,-551.2663 858.9875,-558.2591"/>
</g>
<!-- Node406477 -->
<g id="node6" class="node">
<title>Node406477</title>
<g id="a_node6"><a xlink:href="quickjs_8c.html#aa059f309c30fd5166d16c82a97973146" target="_top" xlink:title="__JS_FreeValue">
<polygon fill="none" stroke="#000000" points="606,-517.5 606,-536.5 695,-536.5 695,-517.5 606,-517.5"/>
<text text-anchor="middle" x="650.5" y="-524.5" font-family="Helvetica,sans-Serif" font-size="10.00" fill="#000000">__JS_FreeValue</text>
</a>
</g>
</g>
<!-- Node406476&#45;&gt;Node406477 -->
<g id="edge5" class="edge">
<title>Node406476&#45;&gt;Node406477</title>
<path fill="none" stroke="#191970" d="M549.8704,-516.2183C563.9984,-517.732 580.2,-519.4679 595.4155,-521.0981"/>
<polygon fill="#191970" stroke="#191970" points="595.4382,-524.6205 605.7542,-522.2058 596.184,-517.6603 595.4382,-524.6205"/>
</g>
<!-- Node406478 -->
<g id="node7" class="node">
<title>Node406478</title>
<g id="a_node7"><a xlink:href="quickjs_8c.html#ab1ea3fad7d138be12144a38be4d36423" target="_top" xlink:title="__JS_FreeValueRT">
<polygon fill="none" stroke="#ff0000" points="731,-524.5 731,-543.5 833,-543.5 833,-524.5 731,-524.5"/>
<text text-anchor="middle" x="782" y="-531.5" font-family="Helvetica,sans-Serif" font-size="10.00" fill="#000000">__JS_FreeValueRT</text>
</a>
</g>
</g>
<!-- Node406477&#45;&gt;Node406478 -->
<g id="edge6" class="edge">
<title>Node406477&#45;&gt;Node406478</title>
<path fill="none" stroke="#191970" d="M695.0199,-529.3699C703.2672,-529.8089 712.0138,-530.2745 720.6583,-530.7347"/>
<polygon fill="#191970" stroke="#191970" points="720.5513,-534.2338 730.7233,-531.2704 720.9235,-527.2437 720.5513,-534.2338"/>
</g>
<!-- Node406478&#45;&gt;Node406475 -->
<g id="edge7" class="edge">
<title>Node406478&#45;&gt;Node406475</title>
<path fill="none" stroke="#191970" d="M833.3326,-542.4443C841.8898,-543.852 850.6372,-545.291 858.8109,-546.6356"/>
<polygon fill="#191970" stroke="#191970" points="858.3643,-550.1091 868.7999,-548.2788 859.5006,-543.2019 858.3643,-550.1091"/>
</g>
<!-- Node406511 -->
<g id="node9" class="node">
<title>Node406511</title>
<g id="a_node9"><a xlink:href="quickjs_8c.html#ab0f713d7a2440dbb2673810323a9a78d" target="_top" xlink:title="JS_ThrowTypeErrorInvalid\lClass">
<polygon fill="none" stroke="#000000" points="283,-315 283,-345 415,-345 415,-315 283,-315"/>
<text text-anchor="start" x="291" y="-333" font-family="Helvetica,sans-Serif" font-size="10.00" fill="#000000">JS_ThrowTypeErrorInvalid</text>
<text text-anchor="middle" x="349" y="-322" font-family="Helvetica,sans-Serif" font-size="10.00" fill="#000000">Class</text>
</a>
</g>
</g>
<!-- Node406510&#45;&gt;Node406511 -->
<g id="edge9" class="edge">
<title>Node406510&#45;&gt;Node406511</title>
<path fill="none" stroke="#191970" d="M229.2735,-346.6182C242.3791,-344.7991 257.5035,-342.6998 272.4966,-340.6188"/>
<polygon fill="#191970" stroke="#191970" points="273.4053,-344.0263 282.8291,-339.1846 272.4429,-337.0928 273.4053,-344.0263"/>
</g>
<!-- Node406512 -->
<g id="node10" class="node">
<title>Node406512</title>
<g id="a_node10"><a xlink:href="quickjs_8c.html#ab18048ab5eea3e47109a5473f78515bc" target="_top" xlink:title="JS_AtomGetStr">
<polygon fill="none" stroke="#ff0000" points="467.5,-312.5 467.5,-331.5 553.5,-331.5 553.5,-312.5 467.5,-312.5"/>
<text text-anchor="middle" x="510.5" y="-319.5" font-family="Helvetica,sans-Serif" font-size="10.00" fill="#000000">JS_AtomGetStr</text>
</a>
</g>
</g>
<!-- Node406511&#45;&gt;Node406512 -->
<g id="edge10" class="edge">
<title>Node406511&#45;&gt;Node406512</title>
<path fill="none" stroke="#191970" d="M415.1542,-326.723C429.1762,-326.0284 443.8056,-325.3037 457.2745,-324.6366"/>
<polygon fill="#191970" stroke="#191970" points="457.5042,-328.1296 467.3188,-324.139 457.1578,-321.1381 457.5042,-328.1296"/>
</g>
<!-- Node406519 -->
<g id="node12" class="node">
<title>Node406519</title>
<g id="a_node12"><a xlink:href="quickjs_8c.html#a5762c57ae0c9937e986040c01222833a" target="_top" xlink:title="JS_GetPropertyInternal">
<polygon fill="none" stroke="#ff0000" points="289.5,-418.5 289.5,-437.5 408.5,-437.5 408.5,-418.5 289.5,-418.5"/>
<text text-anchor="middle" x="349" y="-425.5" font-family="Helvetica,sans-Serif" font-size="10.00" fill="#000000">JS_GetPropertyInternal</text>
</a>
</g>
</g>
<!-- Node406518&#45;&gt;Node406519 -->
<g id="edge12" class="edge">
<title>Node406518&#45;&gt;Node406519</title>
<path fill="none" stroke="#191970" d="M233.8108,-428C247.871,-428 263.846,-428 279.3263,-428"/>
<polygon fill="#191970" stroke="#191970" points="279.4026,-431.5001 289.4026,-428 279.4025,-424.5001 279.4026,-431.5001"/>
</g>
<!-- Node406519&#45;&gt;Node406476 -->
<g id="edge16" class="edge">
<title>Node406519&#45;&gt;Node406476</title>
<path fill="none" stroke="#191970" d="M396.0832,-437.5747C402.744,-440.0416 409.267,-443.1321 415,-447 436.521,-461.5197 429.6902,-478.172 451,-493 454.4547,-495.4039 458.2295,-497.5156 462.1479,-499.3684"/>
<polygon fill="#191970" stroke="#191970" points="460.8909,-502.6362 471.4687,-503.2377 463.5748,-496.1711 460.8909,-502.6362"/>
</g>
<!-- Node406514 -->
<g id="node13" class="node">
<title>Node406514</title>
<g id="a_node13"><a xlink:href="quickjs_8c.html#a288254c06a39c9fca740a7abdad2834e" target="_top" xlink:title="__JS_AtomIsTaggedInt">
<polygon fill="none" stroke="#000000" points="451,-464.5 451,-483.5 570,-483.5 570,-464.5 451,-464.5"/>
<text text-anchor="middle" x="510.5" y="-471.5" font-family="Helvetica,sans-Serif" font-size="10.00" fill="#000000">__JS_AtomIsTaggedInt</text>
</a>
</g>
</g>
<!-- Node406519&#45;&gt;Node406514 -->
<g id="edge13" class="edge">
<title>Node406519&#45;&gt;Node406514</title>
<path fill="none" stroke="#191970" d="M382.4629,-437.5312C407.0404,-444.5316 440.6418,-454.1023 467.2555,-461.6827"/>
<polygon fill="#191970" stroke="#191970" points="466.5037,-465.1077 477.08,-464.481 468.4213,-458.3754 466.5037,-465.1077"/>
</g>
<!-- Node406515 -->
<g id="node14" class="node">
<title>Node406515</title>
<g id="a_node14"><a xlink:href="quickjs_8c.html#a89f38938cee8077ce1fbba07946ed185" target="_top" xlink:title="__JS_AtomToUInt32">
<polygon fill="none" stroke="#000000" points="456.5,-426.5 456.5,-445.5 564.5,-445.5 564.5,-426.5 456.5,-426.5"/>
<text text-anchor="middle" x="510.5" y="-433.5" font-family="Helvetica,sans-Serif" font-size="10.00" fill="#000000">__JS_AtomToUInt32</text>
</a>
</g>
</g>
<!-- Node406519&#45;&gt;Node406515 -->
<g id="edge14" class="edge">
<title>Node406519&#45;&gt;Node406515</title>
<path fill="none" stroke="#191970" d="M408.6778,-430.9562C420.8923,-431.5612 433.7985,-432.2005 446.1681,-432.8133"/>
<polygon fill="#191970" stroke="#191970" points="446.2443,-436.3213 456.4053,-433.3204 446.5907,-429.3298 446.2443,-436.3213"/>
</g>
<!-- Node406520 -->
<g id="node15" class="node">
<title>Node406520</title>
<g id="a_node15"><a xlink:href="quickjs_8c.html#a06b76f5124fd985e35f4c652fd018d6d" target="_top" xlink:title="find_own_property">
<polygon fill="none" stroke="#ff0000" points="462.5,-388.5 462.5,-407.5 558.5,-407.5 558.5,-388.5 462.5,-388.5"/>
<text text-anchor="middle" x="510.5" y="-395.5" font-family="Helvetica,sans-Serif" font-size="10.00" fill="#000000">find_own_property</text>
</a>
</g>
</g>
<!-- Node406519&#45;&gt;Node406520 -->
<g id="edge15" class="edge">
<title>Node406519&#45;&gt;Node406520</title>
<path fill="none" stroke="#191970" d="M400.5436,-418.4253C416.9796,-415.3722 435.2813,-411.9725 452.1635,-408.8365"/>
<polygon fill="#191970" stroke="#191970" points="453.2698,-412.191 462.4623,-406.9234 451.9913,-405.3087 453.2698,-412.191"/>
</g>
<!-- Node406519&#45;&gt;Node406526 -->
<g id="edge17" class="edge">
<title>Node406519&#45;&gt;Node406526</title>
<path fill="none" stroke="#191970" d="M380.2607,-418.4878C391.4854,-414.5936 404.0652,-409.6633 415,-404 432.2974,-395.0414 433.5283,-387.6137 451,-379 455.3888,-376.8363 460.0792,-374.845 464.8283,-373.0326"/>
<polygon fill="#191970" stroke="#191970" points="466.3314,-376.2129 474.5815,-369.5657 463.9868,-369.6172 466.3314,-376.2129"/>
</g>
<!-- Node406754&#45;&gt;Node406476 -->
<g id="edge22" class="edge">
<title>Node406754&#45;&gt;Node406476</title>
<path fill="none" stroke="#191970" d="M382.4629,-475.5312C407.0404,-482.5316 440.6418,-492.1023 467.2555,-499.6827"/>
<polygon fill="#191970" stroke="#191970" points="466.5037,-503.1077 477.08,-502.481 468.4213,-496.3754 466.5037,-503.1077"/>
</g>
<!-- Node406905 -->
<g id="node22" class="node">
<title>Node406905</title>
<g id="a_node22"><a xlink:href="libregexp_8c.html#a2c44185f26ab7513cb353d16212acb83" target="_top" xlink:title="lre_exec_backtrack">
<polygon fill="none" stroke="#ff0000" points="298.5,-209.5 298.5,-228.5 399.5,-228.5 399.5,-209.5 298.5,-209.5"/>
<text text-anchor="middle" x="349" y="-216.5" font-family="Helvetica,sans-Serif" font-size="10.00" fill="#000000">lre_exec_backtrack</text>
</a>
</g>
</g>
<!-- Node406904&#45;&gt;Node406905 -->
<g id="edge25" class="edge">
<title>Node406904&#45;&gt;Node406905</title>
<path fill="none" stroke="#191970" d="M217.0293,-203.1802C236.4707,-205.5107 263.6588,-208.7698 288.3088,-211.7247"/>
<polygon fill="#191970" stroke="#191970" points="287.9805,-215.2103 298.326,-212.9255 288.8137,-208.2601 287.9805,-215.2103"/>
</g>
<!-- Node406911 -->
<g id="node23" class="node">
<title>Node406911</title>
<g id="a_node23"><a xlink:href="quickjs_8c.html#a770bcb52221b07905a94fcb36ac192cd" target="_top" xlink:title="lre_realloc">
<polygon fill="none" stroke="#000000" points="318.5,-171.5 318.5,-190.5 379.5,-190.5 379.5,-171.5 318.5,-171.5"/>
<text text-anchor="middle" x="349" y="-178.5" font-family="Helvetica,sans-Serif" font-size="10.00" fill="#000000">lre_realloc</text>
</a>
</g>
</g>
<!-- Node406904&#45;&gt;Node406911 -->
<g id="edge27" class="edge">
<title>Node406904&#45;&gt;Node406911</title>
<path fill="none" stroke="#191970" d="M217.0293,-196.8198C241.9101,-193.8373 279.4791,-189.3337 308.1778,-185.8935"/>
<polygon fill="#191970" stroke="#191970" points="308.7974,-189.3444 318.3097,-184.679 307.9642,-182.3941 308.7974,-189.3444"/>
</g>
<!-- Node406905&#45;&gt;Node406905 -->
<g id="edge26" class="edge">
<title>Node406905&#45;&gt;Node406905</title>
<path fill="none" stroke="#191970" d="M324.6476,-228.7571C312.8005,-237.5653 320.918,-247 349,-247 367.4288,-247 377.2596,-242.9368 378.4924,-237.6539"/>
<polygon fill="#191970" stroke="#191970" points="381.3855,-235.665 373.3524,-228.7571 375.3243,-239.1668 381.3855,-235.665"/>
</g>
<!-- Node406555&#45;&gt;Node406474 -->
<g id="edge32" class="edge">
<title>Node406555&#45;&gt;Node406474</title>
<path fill="none" stroke="#191970" d="M236.7708,-579.4161C262.0129,-579.0976 292.6878,-578.7106 315.5846,-578.4216"/>
<polygon fill="#191970" stroke="#191970" points="315.8705,-581.9184 325.8255,-578.2924 315.7821,-574.919 315.8705,-581.9184"/>
</g>
<!-- Node406556&#45;&gt;Node406474 -->
<g id="edge34" class="edge">
<title>Node406556&#45;&gt;Node406474</title>
<path fill="none" stroke="#191970" d="M232.559,-551.5528C258.7197,-557.4947 291.8731,-565.0248 316.1074,-570.5291"/>
<polygon fill="#191970" stroke="#191970" points="315.3742,-573.9517 325.9011,-572.7536 316.9247,-567.1255 315.3742,-573.9517"/>
</g>
</g>
</svg>
