<?xml version="1.0" encoding="UTF-8" standalone="no"?>
<!DOCTYPE svg PUBLIC "-//W3C//DTD SVG 1.1//EN"
 "http://www.w3.org/Graphics/SVG/1.1/DTD/svg11.dtd">
<!-- Generated by graphviz version 2.40.1 (20161225.0304)
 -->
<!-- Title: JS_AddModuleExportList Pages: 1 -->
<svg width="343pt" height="66pt"
 viewBox="0.00 0.00 343.00 66.00" xmlns="http://www.w3.org/2000/svg" xmlns:xlink="http://www.w3.org/1999/xlink">
<g id="graph0" class="graph" transform="scale(1 1) rotate(0) translate(4 62)">
<title>JS_AddModuleExportList</title>
<!-- Node84862 -->
<g id="node1" class="node">
<title>Node84862</title>
<polygon fill="#bfbfbf" stroke="#000000" points="0,-19.5 0,-38.5 127,-38.5 127,-19.5 0,-19.5"/>
<text text-anchor="middle" x="63.5" y="-26.5" font-family="Helvetica,sans-Serif" font-size="10.00" fill="#000000">JS_AddModuleExportList</text>
</g>
<!-- Node84863 -->
<g id="node2" class="node">
<title>Node84863</title>
<g id="a_node2"><a xlink:href="quickjs-libc_8c.html#adcca2b4a661355e6ff87a0def2339894" target="_top" xlink:title="js_init_module_os">
<polygon fill="none" stroke="#000000" points="164.5,-38.5 164.5,-57.5 259.5,-57.5 259.5,-38.5 164.5,-38.5"/>
<text text-anchor="middle" x="212" y="-45.5" font-family="Helvetica,sans-Serif" font-size="10.00" fill="#000000">js_init_module_os</text>
</a>
</g>
</g>
<!-- Node84862&#45;&gt;Node84863 -->
<g id="edge1" class="edge">
<title>Node84862&#45;&gt;Node84863</title>
<path fill="none" stroke="#191970" d="M137.2939,-38.4416C146.4959,-39.619 155.7073,-40.7976 164.3626,-41.905"/>
<polygon fill="#191970" stroke="#191970" points="137.7025,-34.9655 127.3392,-37.168 136.8141,-41.9089 137.7025,-34.9655"/>
</g>
<!-- Node84865 -->
<g id="node4" class="node">
<title>Node84865</title>
<g id="a_node4"><a xlink:href="quickjs-libc_8c.html#a0e65c67dfff872a664f8d29e7eae5a61" target="_top" xlink:title="js_init_module_std">
<polygon fill="none" stroke="#000000" points="163,-.5 163,-19.5 261,-19.5 261,-.5 163,-.5"/>
<text text-anchor="middle" x="212" y="-7.5" font-family="Helvetica,sans-Serif" font-size="10.00" fill="#000000">js_init_module_std</text>
</a>
</g>
</g>
<!-- Node84862&#45;&gt;Node84865 -->
<g id="edge3" class="edge">
<title>Node84862&#45;&gt;Node84865</title>
<path fill="none" stroke="#191970" d="M137.346,-19.5517C145.8962,-18.4577 154.4536,-17.3628 162.5645,-16.3251"/>
<polygon fill="#191970" stroke="#191970" points="136.8141,-16.0911 127.3392,-20.832 137.7025,-23.0345 136.8141,-16.0911"/>
</g>
<!-- Node84864 -->
<g id="node3" class="node">
<title>Node84864</title>
<g id="a_node3"><a xlink:href="qjs_8cpp.html#a3c04138a5bfe5d72780bb7e82a18e627" target="_top" xlink:title="main">
<polygon fill="none" stroke="#000000" points="297,-19.5 297,-38.5 335,-38.5 335,-19.5 297,-19.5"/>
<text text-anchor="middle" x="316" y="-26.5" font-family="Helvetica,sans-Serif" font-size="10.00" fill="#000000">main</text>
</a>
</g>
</g>
<!-- Node84863&#45;&gt;Node84864 -->
<g id="edge2" class="edge">
<title>Node84863&#45;&gt;Node84864</title>
<path fill="none" stroke="#191970" d="M269.6062,-37.4758C279.4365,-35.6799 288.9964,-33.9334 296.8585,-32.497"/>
<polygon fill="#191970" stroke="#191970" points="268.9468,-34.0382 259.7386,-39.2785 270.2049,-40.9243 268.9468,-34.0382"/>
</g>
<!-- Node84865&#45;&gt;Node84864 -->
<g id="edge4" class="edge">
<title>Node84865&#45;&gt;Node84864</title>
<path fill="none" stroke="#191970" d="M271.2897,-20.8318C280.4732,-22.5095 289.3472,-24.1307 296.7353,-25.4805"/>
<polygon fill="#191970" stroke="#191970" points="271.7252,-17.3535 261.2589,-18.9992 270.4671,-24.2395 271.7252,-17.3535"/>
</g>
</g>
</svg>
