<?xml version="1.0" encoding="UTF-8" standalone="no"?>
<!DOCTYPE svg PUBLIC "-//W3C//DTD SVG 1.1//EN"
 "http://www.w3.org/Graphics/SVG/1.1/DTD/svg11.dtd">
<!-- Generated by graphviz version 2.40.1 (20161225.0304)
 -->
<!-- Title: JS_AddIntrinsicBasicObjects Pages: 1 -->
<svg width="422pt" height="28pt"
 viewBox="0.00 0.00 422.00 28.00" xmlns="http://www.w3.org/2000/svg" xmlns:xlink="http://www.w3.org/1999/xlink">
<g id="graph0" class="graph" transform="scale(1 1) rotate(0) translate(4 24)">
<title>JS_AddIntrinsicBasicObjects</title>
<!-- Node37600 -->
<g id="node1" class="node">
<title>Node37600</title>
<polygon fill="#bfbfbf" stroke="#000000" points="0,-.5 0,-19.5 144,-19.5 144,-.5 0,-.5"/>
<text text-anchor="middle" x="72" y="-7.5" font-family="Helvetica,sans-Serif" font-size="10.00" fill="#000000">JS_AddIntrinsicBasicObjects</text>
</g>
<!-- Node37601 -->
<g id="node2" class="node">
<title>Node37601</title>
<g id="a_node2"><a xlink:href="quickjs_8c.html#a442ff496ba00319ad39eb0a129b9eb8b" target="_top" xlink:title="JS_NewContextRaw">
<polygon fill="none" stroke="#000000" points="180,-.5 180,-19.5 289,-19.5 289,-.5 180,-.5"/>
<text text-anchor="middle" x="234.5" y="-7.5" font-family="Helvetica,sans-Serif" font-size="10.00" fill="#000000">JS_NewContextRaw</text>
</a>
</g>
</g>
<!-- Node37600&#45;&gt;Node37601 -->
<g id="edge1" class="edge">
<title>Node37600&#45;&gt;Node37601</title>
<path fill="none" stroke="#191970" d="M154.2729,-10C162.849,-10 171.41,-10 179.5734,-10"/>
<polygon fill="#191970" stroke="#191970" points="154.2212,-6.5001 144.2212,-10 154.2212,-13.5001 154.2212,-6.5001"/>
</g>
<!-- Node37602 -->
<g id="node3" class="node">
<title>Node37602</title>
<g id="a_node3"><a xlink:href="quickjs_8c.html#ad8aedb643b8753b7a15f6cb2df61945e" target="_top" xlink:title="JS_NewContext">
<polygon fill="none" stroke="#000000" points="325,-.5 325,-19.5 414,-19.5 414,-.5 325,-.5"/>
<text text-anchor="middle" x="369.5" y="-7.5" font-family="Helvetica,sans-Serif" font-size="10.00" fill="#000000">JS_NewContext</text>
</a>
</g>
</g>
<!-- Node37601&#45;&gt;Node37602 -->
<g id="edge2" class="edge">
<title>Node37601&#45;&gt;Node37602</title>
<path fill="none" stroke="#191970" d="M299.1206,-10C307.7784,-10 316.4993,-10 324.7125,-10"/>
<polygon fill="#191970" stroke="#191970" points="299.0206,-6.5001 289.0205,-10 299.0205,-13.5001 299.0206,-6.5001"/>
</g>
</g>
</svg>
