<?xml version="1.0" encoding="UTF-8" standalone="no"?>
<!DOCTYPE svg PUBLIC "-//W3C//DTD SVG 1.1//EN"
 "http://www.w3.org/Graphics/SVG/1.1/DTD/svg11.dtd">
<!-- Generated by graphviz version 2.40.1 (20161225.0304)
 -->
<!-- Title: js_async_function_resolve_call Pages: 1 -->
<svg width="443pt" height="28pt"
 viewBox="0.00 0.00 443.00 28.00" xmlns="http://www.w3.org/2000/svg" xmlns:xlink="http://www.w3.org/1999/xlink">
<g id="graph0" class="graph" transform="scale(1 1) rotate(0) translate(4 24)">
<title>js_async_function_resolve_call</title>
<!-- Node292452 -->
<g id="node1" class="node">
<title>Node292452</title>
<polygon fill="#bfbfbf" stroke="#000000" points="0,-.5 0,-19.5 152,-19.5 152,-.5 0,-.5"/>
<text text-anchor="middle" x="76" y="-7.5" font-family="Helvetica,sans-Serif" font-size="10.00" fill="#000000">js_async_function_resolve_call</text>
</g>
<!-- Node292453 -->
<g id="node2" class="node">
<title>Node292453</title>
<g id="a_node2"><a xlink:href="quickjs_8c.html#a2e66fcf1bc1d19f346317f10ee590621" target="_top" xlink:title="JS_AddIntrinsicPromise">
<polygon fill="none" stroke="#000000" points="188,-.5 188,-19.5 310,-19.5 310,-.5 188,-.5"/>
<text text-anchor="middle" x="249" y="-7.5" font-family="Helvetica,sans-Serif" font-size="10.00" fill="#000000">JS_AddIntrinsicPromise</text>
</a>
</g>
</g>
<!-- Node292452&#45;&gt;Node292453 -->
<g id="edge1" class="edge">
<title>Node292452&#45;&gt;Node292453</title>
<path fill="none" stroke="#191970" d="M162.2714,-10C170.9275,-10 179.5866,-10 187.9021,-10"/>
<polygon fill="#191970" stroke="#191970" points="162.1321,-6.5001 152.1321,-10 162.132,-13.5001 162.1321,-6.5001"/>
</g>
<!-- Node292454 -->
<g id="node3" class="node">
<title>Node292454</title>
<g id="a_node3"><a xlink:href="quickjs_8c.html#ad8aedb643b8753b7a15f6cb2df61945e" target="_top" xlink:title="JS_NewContext">
<polygon fill="none" stroke="#000000" points="346,-.5 346,-19.5 435,-19.5 435,-.5 346,-.5"/>
<text text-anchor="middle" x="390.5" y="-7.5" font-family="Helvetica,sans-Serif" font-size="10.00" fill="#000000">JS_NewContext</text>
</a>
</g>
</g>
<!-- Node292453&#45;&gt;Node292454 -->
<g id="edge2" class="edge">
<title>Node292453&#45;&gt;Node292454</title>
<path fill="none" stroke="#191970" d="M320.3807,-10C329.0398,-10 337.6863,-10 345.8014,-10"/>
<polygon fill="#191970" stroke="#191970" points="320.241,-6.5001 310.241,-10 320.241,-13.5001 320.241,-6.5001"/>
</g>
</g>
</svg>
