<?xml version="1.0" encoding="UTF-8" standalone="no"?>
<!DOCTYPE svg PUBLIC "-//W3C//DTD SVG 1.1//EN"
 "http://www.w3.org/Graphics/SVG/1.1/DTD/svg11.dtd">
<!-- Generated by graphviz version 2.40.1 (20161225.0304)
 -->
<!-- Title: find_abbrev Pages: 1 -->
<svg width="457pt" height="28pt"
 viewBox="0.00 0.00 457.00 28.00" xmlns="http://www.w3.org/2000/svg" xmlns:xlink="http://www.w3.org/1999/xlink">
<g id="graph0" class="graph" transform="scale(1 1) rotate(0) translate(4 24)">
<title>find_abbrev</title>
<!-- Node446937 -->
<g id="node1" class="node">
<title>Node446937</title>
<polygon fill="#bfbfbf" stroke="#000000" points="0,-.5 0,-19.5 67,-19.5 67,-.5 0,-.5"/>
<text text-anchor="middle" x="33.5" y="-7.5" font-family="Helvetica,sans-Serif" font-size="10.00" fill="#000000">find_abbrev</text>
</g>
<!-- Node446938 -->
<g id="node2" class="node">
<title>Node446938</title>
<g id="a_node2"><a xlink:href="quickjs_8c.html#a3f727a5b0254dc65d6cb61d7b4812b9b" target="_top" xlink:title="string_get_month">
<polygon fill="none" stroke="#000000" points="103,-.5 103,-19.5 195,-19.5 195,-.5 103,-.5"/>
<text text-anchor="middle" x="149" y="-7.5" font-family="Helvetica,sans-Serif" font-size="10.00" fill="#000000">string_get_month</text>
</a>
</g>
</g>
<!-- Node446937&#45;&gt;Node446938 -->
<g id="edge1" class="edge">
<title>Node446937&#45;&gt;Node446938</title>
<path fill="none" stroke="#191970" d="M77.3853,-10C85.6244,-10 94.2636,-10 102.5768,-10"/>
<polygon fill="#191970" stroke="#191970" points="77.2179,-6.5001 67.2179,-10 77.2178,-13.5001 77.2179,-6.5001"/>
</g>
<!-- Node446939 -->
<g id="node3" class="node">
<title>Node446939</title>
<g id="a_node3"><a xlink:href="quickjs_8c.html#ac2ddbbd09d32a6d9a4b7530d7f68c6f0" target="_top" xlink:title="js_Date_parse">
<polygon fill="none" stroke="#000000" points="231,-.5 231,-19.5 311,-19.5 311,-.5 231,-.5"/>
<text text-anchor="middle" x="271" y="-7.5" font-family="Helvetica,sans-Serif" font-size="10.00" fill="#000000">js_Date_parse</text>
</a>
</g>
</g>
<!-- Node446938&#45;&gt;Node446939 -->
<g id="edge2" class="edge">
<title>Node446938&#45;&gt;Node446939</title>
<path fill="none" stroke="#191970" d="M205.1733,-10C213.8214,-10 222.5997,-10 230.807,-10"/>
<polygon fill="#191970" stroke="#191970" points="205.123,-6.5001 195.123,-10 205.1229,-13.5001 205.123,-6.5001"/>
</g>
<!-- Node446940 -->
<g id="node4" class="node">
<title>Node446940</title>
<g id="a_node4"><a xlink:href="quickjs_8c.html#a7e4e02ec8849f3beaf28dc0613bb4016" target="_top" xlink:title="js_date_constructor">
<polygon fill="none" stroke="#ff0000" points="347,-.5 347,-19.5 449,-19.5 449,-.5 347,-.5"/>
<text text-anchor="middle" x="398" y="-7.5" font-family="Helvetica,sans-Serif" font-size="10.00" fill="#000000">js_date_constructor</text>
</a>
</g>
</g>
<!-- Node446939&#45;&gt;Node446940 -->
<g id="edge3" class="edge">
<title>Node446939&#45;&gt;Node446940</title>
<path fill="none" stroke="#191970" d="M321.2607,-10C329.6893,-10 338.4436,-10 346.8932,-10"/>
<polygon fill="#191970" stroke="#191970" points="321.1836,-6.5001 311.1836,-10 321.1836,-13.5001 321.1836,-6.5001"/>
</g>
</g>
</svg>
