<?xml version="1.0" encoding="UTF-8" standalone="no"?>
<!DOCTYPE svg PUBLIC "-//W3C//DTD SVG 1.1//EN"
 "http://www.w3.org/Graphics/SVG/1.1/DTD/svg11.dtd">
<!-- Generated by graphviz version 2.40.1 (20161225.0304)
 -->
<!-- Title: JS_GetPrototype Pages: 1 -->
<svg width="811pt" height="458pt"
 viewBox="0.00 0.00 811.00 458.00" xmlns="http://www.w3.org/2000/svg" xmlns:xlink="http://www.w3.org/1999/xlink">
<g id="graph0" class="graph" transform="scale(1 1) rotate(0) translate(4 454)">
<title>JS_GetPrototype</title>
<!-- Node165966 -->
<g id="node1" class="node">
<title>Node165966</title>
<polygon fill="#bfbfbf" stroke="#000000" points="0,-157.5 0,-176.5 92,-176.5 92,-157.5 0,-157.5"/>
<text text-anchor="middle" x="46" y="-164.5" font-family="Helvetica,sans-Serif" font-size="10.00" fill="#000000">JS_GetPrototype</text>
</g>
<!-- Node165967 -->
<g id="node2" class="node">
<title>Node165967</title>
<g id="a_node2"><a xlink:href="quickjs_8c.html#abec3cc345c6b3c1be76a0dc63fd7fa2f" target="_top" xlink:title="js_proxy_getPrototypeOf">
<polygon fill="none" stroke="#000000" points="128,-157.5 128,-176.5 253,-176.5 253,-157.5 128,-157.5"/>
<text text-anchor="middle" x="190.5" y="-164.5" font-family="Helvetica,sans-Serif" font-size="10.00" fill="#000000">js_proxy_getPrototypeOf</text>
</a>
</g>
</g>
<!-- Node165966&#45;&gt;Node165967 -->
<g id="edge1" class="edge">
<title>Node165966&#45;&gt;Node165967</title>
<path fill="none" stroke="#191970" d="M92.118,-160.6588C100.3104,-160.3915 109.021,-160.2552 117.7413,-160.2501"/>
<polygon fill="#191970" stroke="#191970" points="117.9339,-163.7511 127.9524,-160.3044 117.9712,-156.7512 117.9339,-163.7511"/>
</g>
<!-- Node165967&#45;&gt;Node165966 -->
<g id="edge24" class="edge">
<title>Node165967&#45;&gt;Node165966</title>
<path fill="none" stroke="#191970" d="M127.9524,-173.6956C119.3961,-173.7921 110.655,-173.7602 102.2207,-173.6001"/>
<polygon fill="#191970" stroke="#191970" points="102.2044,-170.0987 92.118,-173.3412 102.025,-177.0964 102.2044,-170.0987"/>
</g>
<!-- Node165968 -->
<g id="node3" class="node">
<title>Node165968</title>
<g id="a_node3"><a xlink:href="quickjs_8c.html#a9e94551ddba8762d74eda5127445dbbd" target="_top" xlink:title="get_proxy_method">
<polygon fill="none" stroke="#000000" points="413,-218.5 413,-237.5 510,-237.5 510,-218.5 413,-218.5"/>
<text text-anchor="middle" x="461.5" y="-225.5" font-family="Helvetica,sans-Serif" font-size="10.00" fill="#000000">get_proxy_method</text>
</a>
</g>
</g>
<!-- Node165967&#45;&gt;Node165968 -->
<g id="edge2" class="edge">
<title>Node165967&#45;&gt;Node165968</title>
<path fill="none" stroke="#191970" d="M232.8438,-176.5313C280.4339,-187.2434 357.739,-204.6442 409.0979,-216.2047"/>
<polygon fill="#191970" stroke="#191970" points="408.4828,-219.6537 419.0073,-218.4352 410.02,-212.8246 408.4828,-219.6537"/>
</g>
<!-- Node165974 -->
<g id="node7" class="node">
<title>Node165974</title>
<g id="a_node7"><a xlink:href="quickjs_8h.html#ad80a83d73e9b7d872b88fbf2943aebe9" target="_top" xlink:title="JS_IsException">
<polygon fill="none" stroke="#000000" points="574.5,-316.5 574.5,-335.5 660.5,-335.5 660.5,-316.5 574.5,-316.5"/>
<text text-anchor="middle" x="617.5" y="-323.5" font-family="Helvetica,sans-Serif" font-size="10.00" fill="#000000">JS_IsException</text>
</a>
</g>
</g>
<!-- Node165967&#45;&gt;Node165974 -->
<g id="edge25" class="edge">
<title>Node165967&#45;&gt;Node165974</title>
<path fill="none" stroke="#191970" d="M209.9014,-176.6668C229.6085,-186.3416 261.1134,-201.4138 289,-213 401.3147,-259.6638 429.9974,-270.4557 546,-307 553.4938,-309.3608 561.4889,-311.6782 569.3177,-313.8382"/>
<polygon fill="#191970" stroke="#191970" points="568.5282,-317.2503 579.0951,-316.4814 570.355,-310.4929 568.5282,-317.2503"/>
</g>
<!-- Node165976 -->
<g id="node9" class="node">
<title>Node165976</title>
<g id="a_node9"><a xlink:href="quickjs_8c.html#a75f6ee5e4235a7dc99889f3d2eb2c147" target="_top" xlink:title="JS_CallFree">
<polygon fill="none" stroke="#000000" points="297.5,-157.5 297.5,-176.5 368.5,-176.5 368.5,-157.5 297.5,-157.5"/>
<text text-anchor="middle" x="333" y="-164.5" font-family="Helvetica,sans-Serif" font-size="10.00" fill="#000000">JS_CallFree</text>
</a>
</g>
</g>
<!-- Node165967&#45;&gt;Node165976 -->
<g id="edge8" class="edge">
<title>Node165967&#45;&gt;Node165976</title>
<path fill="none" stroke="#191970" d="M253.0026,-167C264.4499,-167 276.2032,-167 287.056,-167"/>
<polygon fill="#191970" stroke="#191970" points="287.1462,-170.5001 297.1462,-167 287.1461,-163.5001 287.1462,-170.5001"/>
</g>
<!-- Node166029 -->
<g id="node11" class="node">
<title>Node166029</title>
<g id="a_node11"><a xlink:href="quickjs_8h.html#afaa20c47565bc704c6c85f3d77254e7d" target="_top" xlink:title="JS_FreeValue">
<polygon fill="none" stroke="#ff0000" points="725,-234.5 725,-253.5 803,-253.5 803,-234.5 725,-234.5"/>
<text text-anchor="middle" x="764" y="-241.5" font-family="Helvetica,sans-Serif" font-size="10.00" fill="#000000">JS_FreeValue</text>
</a>
</g>
</g>
<!-- Node165967&#45;&gt;Node166029 -->
<g id="edge23" class="edge">
<title>Node165967&#45;&gt;Node166029</title>
<path fill="none" stroke="#191970" d="M201.3938,-176.6086C242.6214,-212.1674 394.4453,-335.8932 546,-368 608.1756,-381.1719 633.6385,-399.2155 689,-368 728.8375,-345.5377 749.9151,-292.4546 758.7884,-263.5618"/>
<polygon fill="#191970" stroke="#191970" points="762.1993,-264.3652 761.6054,-253.787 755.473,-262.4267 762.1993,-264.3652"/>
</g>
<!-- Node166101 -->
<g id="node12" class="node">
<title>Node166101</title>
<g id="a_node12"><a xlink:href="quickjs_8h.html#a4e407128a9605afb77523e49e9a627fd" target="_top" xlink:title="JS_IsUndefined">
<polygon fill="none" stroke="#000000" points="574.5,-38.5 574.5,-57.5 660.5,-57.5 660.5,-38.5 574.5,-38.5"/>
<text text-anchor="middle" x="617.5" y="-45.5" font-family="Helvetica,sans-Serif" font-size="10.00" fill="#000000">JS_IsUndefined</text>
</a>
</g>
</g>
<!-- Node165967&#45;&gt;Node166101 -->
<g id="edge27" class="edge">
<title>Node165967&#45;&gt;Node166101</title>
<path fill="none" stroke="#191970" d="M212.0955,-157.4484C231.846,-148.9544 262.0082,-136.585 289,-128 384.5734,-97.602 498.9016,-72.1446 564.3769,-58.5736"/>
<polygon fill="#191970" stroke="#191970" points="565.3667,-61.9433 574.4555,-56.4986 563.9551,-55.0871 565.3667,-61.9433"/>
</g>
<!-- Node166268 -->
<g id="node13" class="node">
<title>Node166268</title>
<g id="a_node13"><a xlink:href="quickjs_8c.html#a246e337d6566552736209730827c0871" target="_top" xlink:title="js_poll_interrupts">
<polygon fill="none" stroke="#ff0000" points="572.5,-.5 572.5,-19.5 662.5,-19.5 662.5,-.5 572.5,-.5"/>
<text text-anchor="middle" x="617.5" y="-7.5" font-family="Helvetica,sans-Serif" font-size="10.00" fill="#000000">js_poll_interrupts</text>
</a>
</g>
</g>
<!-- Node165967&#45;&gt;Node166268 -->
<g id="edge28" class="edge">
<title>Node165967&#45;&gt;Node166268</title>
<path fill="none" stroke="#191970" d="M201.5482,-157.4752C218.9993,-142.8888 254.5154,-115.0276 289,-99 380.2297,-56.5986 495.4145,-31.2305 562.3369,-18.994"/>
<polygon fill="#191970" stroke="#191970" points="563.0284,-22.4259 572.252,-17.2128 561.7906,-15.5362 563.0284,-22.4259"/>
</g>
<!-- Node166176 -->
<g id="node14" class="node">
<title>Node166176</title>
<g id="a_node14"><a xlink:href="quickjs_8c.html#a0ec52a675282f321a6f42aa1298a53fe" target="_top" xlink:title="set_value">
<polygon fill="none" stroke="#000000" points="588,-76.5 588,-95.5 647,-95.5 647,-76.5 588,-76.5"/>
<text text-anchor="middle" x="617.5" y="-83.5" font-family="Helvetica,sans-Serif" font-size="10.00" fill="#000000">set_value</text>
</a>
</g>
</g>
<!-- Node165967&#45;&gt;Node166176 -->
<g id="edge29" class="edge">
<title>Node165967&#45;&gt;Node166176</title>
<path fill="none" stroke="#191970" d="M239.5927,-157.4902C255.3673,-154.4452 272.9192,-151.0685 289,-148 393.0113,-128.1532 515.6176,-105.1048 577.4862,-93.4985"/>
<polygon fill="#191970" stroke="#191970" points="578.4152,-96.8854 587.5986,-91.602 577.1247,-90.0054 578.4152,-96.8854"/>
</g>
<!-- Node166198 -->
<g id="node15" class="node">
<title>Node166198</title>
<g id="a_node15"><a xlink:href="quickjs_8c.html#a17c92ef7fbad6a6029f6aa933d669624" target="_top" xlink:title="JS_IsExtensible">
<polygon fill="none" stroke="#ff0000" points="289,-430.5 289,-449.5 377,-449.5 377,-430.5 289,-430.5"/>
<text text-anchor="middle" x="333" y="-437.5" font-family="Helvetica,sans-Serif" font-size="10.00" fill="#000000">JS_IsExtensible</text>
</a>
</g>
</g>
<!-- Node165967&#45;&gt;Node166198 -->
<g id="edge26" class="edge">
<title>Node165967&#45;&gt;Node166198</title>
<path fill="none" stroke="#191970" d="M191.9289,-176.8121C197.6411,-212.897 221.8649,-340.0807 289,-416 292.0658,-419.4669 295.757,-422.5292 299.6813,-425.2054"/>
<polygon fill="#191970" stroke="#191970" points="298.1101,-428.3434 308.4925,-430.4543 301.6926,-422.3295 298.1101,-428.3434"/>
</g>
<!-- Node165969 -->
<g id="node4" class="node">
<title>Node165969</title>
<g id="a_node4"><a xlink:href="quickjs_8c.html#af23ec7c9970ceb4671c59da7abd4b078" target="_top" xlink:title="js_check_stack_overflow">
<polygon fill="none" stroke="#ff0000" points="554,-152.5 554,-171.5 681,-171.5 681,-152.5 554,-152.5"/>
<text text-anchor="middle" x="617.5" y="-159.5" font-family="Helvetica,sans-Serif" font-size="10.00" fill="#000000">js_check_stack_overflow</text>
</a>
</g>
</g>
<!-- Node165968&#45;&gt;Node165969 -->
<g id="edge3" class="edge">
<title>Node165968&#45;&gt;Node165969</title>
<path fill="none" stroke="#191970" d="M482.0509,-218.4434C490.7812,-214.2268 501.0013,-209.0811 510,-204 526.5331,-194.6646 528.6183,-188.6401 546,-181 551.4235,-178.6161 557.2138,-176.4745 563.0625,-174.5651"/>
<polygon fill="#191970" stroke="#191970" points="564.3586,-177.8293 572.9065,-171.5695 562.3207,-171.1325 564.3586,-177.8293"/>
</g>
<!-- Node165971 -->
<g id="node5" class="node">
<title>Node165971</title>
<g id="a_node5"><a xlink:href="quickjs_8c.html#a8353f635fb8a20553c08db8cf38c17e0" target="_top" xlink:title="JS_ThrowStackOverflow">
<polygon fill="none" stroke="#ff0000" points="555,-228.5 555,-247.5 680,-247.5 680,-228.5 555,-228.5"/>
<text text-anchor="middle" x="617.5" y="-235.5" font-family="Helvetica,sans-Serif" font-size="10.00" fill="#000000">JS_ThrowStackOverflow</text>
</a>
</g>
</g>
<!-- Node165968&#45;&gt;Node165971 -->
<g id="edge4" class="edge">
<title>Node165968&#45;&gt;Node165971</title>
<path fill="none" stroke="#191970" d="M510.0042,-231.1092C521.0035,-231.8143 532.9204,-232.5782 544.6797,-233.332"/>
<polygon fill="#191970" stroke="#191970" points="544.7425,-236.8432 554.9459,-233.9901 545.1904,-229.8575 544.7425,-236.8432"/>
</g>
<!-- Node165973 -->
<g id="node6" class="node">
<title>Node165973</title>
<g id="a_node6"><a xlink:href="quickjs_8c.html#a199d64ccbee0a90d93e1ad12745417f6" target="_top" xlink:title="JS_ThrowTypeErrorRevoked\lProxy">
<polygon fill="none" stroke="#000000" points="546,-267 546,-297 689,-297 689,-267 546,-267"/>
<text text-anchor="start" x="554" y="-285" font-family="Helvetica,sans-Serif" font-size="10.00" fill="#000000">JS_ThrowTypeErrorRevoked</text>
<text text-anchor="middle" x="617.5" y="-274" font-family="Helvetica,sans-Serif" font-size="10.00" fill="#000000">Proxy</text>
</a>
</g>
</g>
<!-- Node165968&#45;&gt;Node165973 -->
<g id="edge5" class="edge">
<title>Node165968&#45;&gt;Node165973</title>
<path fill="none" stroke="#191970" d="M489.0306,-237.5298C509.8945,-244.7519 539.2013,-254.8966 564.5561,-263.6733"/>
<polygon fill="#191970" stroke="#191970" points="563.4594,-266.9974 574.0542,-266.9611 565.7493,-260.3824 563.4594,-266.9974"/>
</g>
<!-- Node165968&#45;&gt;Node165974 -->
<g id="edge6" class="edge">
<title>Node165968&#45;&gt;Node165974</title>
<path fill="none" stroke="#191970" d="M469.011,-237.6226C482.5618,-254.315 512.7951,-288.6113 546,-307 551.6777,-310.1443 557.8998,-312.7876 564.2301,-315.0051"/>
<polygon fill="#191970" stroke="#191970" points="563.6145,-318.4808 574.2042,-318.1502 565.7197,-311.8049 563.6145,-318.4808"/>
</g>
<!-- Node165975 -->
<g id="node8" class="node">
<title>Node165975</title>
<g id="a_node8"><a xlink:href="quickjs_8h.html#a149f24b67e745bad93573b3b4c80db4c" target="_top" xlink:title="JS_IsNull">
<polygon fill="none" stroke="#000000" points="588,-190.5 588,-209.5 647,-209.5 647,-190.5 588,-190.5"/>
<text text-anchor="middle" x="617.5" y="-197.5" font-family="Helvetica,sans-Serif" font-size="10.00" fill="#000000">JS_IsNull</text>
</a>
</g>
</g>
<!-- Node165968&#45;&gt;Node165975 -->
<g id="edge7" class="edge">
<title>Node165968&#45;&gt;Node165975</title>
<path fill="none" stroke="#191970" d="M510.0042,-219.2941C531.7344,-215.3938 557.0464,-210.8507 577.648,-207.1529"/>
<polygon fill="#191970" stroke="#191970" points="578.4222,-210.57 587.6465,-205.3583 577.1855,-203.6801 578.4222,-210.57"/>
</g>
<!-- Node165977 -->
<g id="node10" class="node">
<title>Node165977</title>
<g id="a_node10"><a xlink:href="quickjs_8c.html#ac2894ff4edcdb4e6841bcce9c76081e3" target="_top" xlink:title="JS_CallInternal">
<polygon fill="none" stroke="#ff0000" points="420,-157.5 420,-176.5 503,-176.5 503,-157.5 420,-157.5"/>
<text text-anchor="middle" x="461.5" y="-164.5" font-family="Helvetica,sans-Serif" font-size="10.00" fill="#000000">JS_CallInternal</text>
</a>
</g>
</g>
<!-- Node165976&#45;&gt;Node165977 -->
<g id="edge9" class="edge">
<title>Node165976&#45;&gt;Node165977</title>
<path fill="none" stroke="#191970" d="M368.7944,-160.8766C381.4584,-160.2808 395.9707,-160.1099 409.6952,-160.3638"/>
<polygon fill="#191970" stroke="#191970" points="409.9027,-163.8706 419.9932,-160.6408 410.091,-156.8731 409.9027,-163.8706"/>
</g>
<!-- Node165976&#45;&gt;Node166029 -->
<g id="edge22" class="edge">
<title>Node165976&#45;&gt;Node166029</title>
<path fill="none" stroke="#191970" d="M340.0659,-176.7455C364.2338,-209.0884 447.5669,-312.6517 546,-345 606.3787,-364.8424 632.2221,-373.5584 689,-345 706.7249,-336.0847 737.0678,-288.9506 753.1903,-262.3373"/>
<polygon fill="#191970" stroke="#191970" points="756.3053,-263.9479 758.4371,-253.5697 750.2987,-260.3533 756.3053,-263.9479"/>
</g>
<!-- Node165977&#45;&gt;Node165966 -->
<g id="edge14" class="edge">
<title>Node165977&#45;&gt;Node165966</title>
<path fill="none" stroke="#191970" d="M427.2573,-157.4922C412.004,-153.7276 393.7379,-149.8586 377,-148 267.0093,-135.7867 237.9503,-135.4284 128,-148 115.1691,-149.4671 101.4249,-152.1855 88.9269,-155.1165"/>
<polygon fill="#191970" stroke="#191970" points="88.0943,-151.7169 79.2123,-157.4929 89.7576,-158.5165 88.0943,-151.7169"/>
</g>
<!-- Node165977&#45;&gt;Node165969 -->
<g id="edge12" class="edge">
<title>Node165977&#45;&gt;Node165969</title>
<path fill="none" stroke="#191970" d="M503.3051,-165.6601C515.7966,-165.2597 529.8794,-164.8084 543.7804,-164.3628"/>
<polygon fill="#191970" stroke="#191970" points="543.9622,-167.8589 553.8449,-164.0402 543.7379,-160.8625 543.9622,-167.8589"/>
</g>
<!-- Node165977&#45;&gt;Node165971 -->
<g id="edge19" class="edge">
<title>Node165977&#45;&gt;Node165971</title>
<path fill="none" stroke="#191970" d="M474.3097,-176.5466C490.3251,-188.079 518.9355,-207.3753 546,-219 551.519,-221.3705 557.4077,-223.509 563.3467,-225.4212"/>
<polygon fill="#191970" stroke="#191970" points="562.7486,-228.8961 573.333,-228.4264 564.7659,-222.1931 562.7486,-228.8961"/>
</g>
<!-- Node165977&#45;&gt;Node165974 -->
<g id="edge15" class="edge">
<title>Node165977&#45;&gt;Node165974</title>
<path fill="none" stroke="#191970" d="M475.9917,-176.5054C486.6769,-184.1641 500.883,-195.8036 510,-209 536.375,-247.1765 511.7103,-275.7381 546,-307 551.4161,-311.9378 557.9701,-315.6184 564.8857,-318.3568"/>
<polygon fill="#191970" stroke="#191970" points="563.8738,-321.7086 574.4672,-321.5367 566.0787,-315.0649 563.8738,-321.7086"/>
</g>
<!-- Node165977&#45;&gt;Node165975 -->
<g id="edge16" class="edge">
<title>Node165977&#45;&gt;Node165975</title>
<path fill="none" stroke="#191970" d="M503.3051,-175.8434C526.4717,-180.744 555.1118,-186.8025 577.9143,-191.6261"/>
<polygon fill="#191970" stroke="#191970" points="577.4319,-195.1014 587.9398,-193.7469 578.8806,-188.253 577.4319,-195.1014"/>
</g>
<!-- Node165977&#45;&gt;Node165976 -->
<g id="edge10" class="edge">
<title>Node165977&#45;&gt;Node165976</title>
<path fill="none" stroke="#191970" d="M419.9932,-173.3592C406.8416,-173.8297 392.2302,-173.8754 378.7953,-173.4962"/>
<polygon fill="#191970" stroke="#191970" points="378.9179,-169.9984 368.7944,-173.1234 378.6571,-176.9935 378.9179,-169.9984"/>
</g>
<!-- Node165977&#45;&gt;Node165977 -->
<g id="edge11" class="edge">
<title>Node165977&#45;&gt;Node165977</title>
<path fill="none" stroke="#191970" d="M441.7715,-176.7571C432.1738,-185.5653 438.75,-195 461.5,-195 476.0742,-195 484.0107,-191.128 485.3094,-186.0292"/>
<polygon fill="#191970" stroke="#191970" points="488.4604,-184.4998 481.2285,-176.7571 482.0535,-187.3197 488.4604,-184.4998"/>
</g>
<!-- Node165977&#45;&gt;Node166029 -->
<g id="edge13" class="edge">
<title>Node165977&#45;&gt;Node166029</title>
<path fill="none" stroke="#191970" d="M482.9565,-157.3666C525.0109,-140.013 620.1681,-108.3786 689,-143 706.7249,-151.9153 737.0678,-199.0494 753.1903,-225.6627"/>
<polygon fill="#191970" stroke="#191970" points="750.2987,-227.6467 758.4371,-234.4303 756.3053,-224.0521 750.2987,-227.6467"/>
</g>
<!-- Node165977&#45;&gt;Node166101 -->
<g id="edge17" class="edge">
<title>Node165977&#45;&gt;Node166101</title>
<path fill="none" stroke="#191970" d="M469.0529,-157.4169C487.893,-133.608 536.1583,-73.2317 546,-67 551.6869,-63.3991 558.0418,-60.4762 564.5528,-58.1048"/>
<polygon fill="#191970" stroke="#191970" points="565.7023,-61.4116 574.1444,-55.01 563.5528,-54.7498 565.7023,-61.4116"/>
</g>
<!-- Node165977&#45;&gt;Node166268 -->
<g id="edge18" class="edge">
<title>Node165977&#45;&gt;Node166268</title>
<path fill="none" stroke="#191970" d="M466.2122,-157.3488C480.2419,-128.9756 522.2372,-46.7128 546,-29 551.0685,-25.2219 556.831,-22.1943 562.8333,-19.7682"/>
<polygon fill="#191970" stroke="#191970" points="564.1098,-23.0298 572.3975,-16.4295 561.8027,-16.4209 564.1098,-23.0298"/>
</g>
<!-- Node165977&#45;&gt;Node166176 -->
<g id="edge20" class="edge">
<title>Node165977&#45;&gt;Node166176</title>
<path fill="none" stroke="#191970" d="M484.4553,-157.2744C492.79,-153.3268 502.0951,-148.4165 510,-143 527.905,-130.7313 527.3046,-121.0269 546,-110 555.8438,-104.194 567.2865,-99.5572 578.0937,-95.9673"/>
<polygon fill="#191970" stroke="#191970" points="579.2633,-99.269 587.7758,-92.9612 577.1877,-92.5838 579.2633,-99.269"/>
</g>
<!-- Node166176&#45;&gt;Node166029 -->
<g id="edge21" class="edge">
<title>Node166176&#45;&gt;Node166029</title>
<path fill="none" stroke="#191970" d="M647.0615,-90.8069C660.9849,-94.2694 677.1053,-100.139 689,-110 726.3082,-140.9295 748.4484,-195.4972 758.1506,-224.5391"/>
<polygon fill="#191970" stroke="#191970" points="754.8953,-225.8517 761.2657,-234.3174 761.5651,-223.7268 754.8953,-225.8517"/>
</g>
</g>
</svg>
