<?xml version="1.0" encoding="UTF-8" standalone="no"?>
<!DOCTYPE svg PUBLIC "-//W3C//DTD SVG 1.1//EN"
 "http://www.w3.org/Graphics/SVG/1.1/DTD/svg11.dtd">
<!-- Generated by graphviz version 2.40.1 (20161225.0304)
 -->
<!-- Title: js_alloc_string Pages: 1 -->
<svg width="695pt" height="550pt"
 viewBox="0.00 0.00 695.00 550.00" xmlns="http://www.w3.org/2000/svg" xmlns:xlink="http://www.w3.org/1999/xlink">
<g id="graph0" class="graph" transform="scale(1 1) rotate(0) translate(4 546)">
<title>js_alloc_string</title>
<!-- Node64460 -->
<g id="node1" class="node">
<title>Node64460</title>
<polygon fill="#bfbfbf" stroke="#000000" points="0,-322.5 0,-341.5 79,-341.5 79,-322.5 0,-322.5"/>
<text text-anchor="middle" x="39.5" y="-329.5" font-family="Helvetica,sans-Serif" font-size="10.00" fill="#000000">js_alloc_string</text>
</g>
<!-- Node64461 -->
<g id="node2" class="node">
<title>Node64461</title>
<g id="a_node2"><a xlink:href="quickjs_8c.html#aa864584f81729321ec9d527d6362c633" target="_top" xlink:title="JS_ConcatString1">
<polygon fill="none" stroke="#000000" points="116.5,-483.5 116.5,-502.5 212.5,-502.5 212.5,-483.5 116.5,-483.5"/>
<text text-anchor="middle" x="164.5" y="-490.5" font-family="Helvetica,sans-Serif" font-size="10.00" fill="#000000">JS_ConcatString1</text>
</a>
</g>
</g>
<!-- Node64460&#45;&gt;Node64461 -->
<g id="edge1" class="edge">
<title>Node64460&#45;&gt;Node64461</title>
<path fill="none" stroke="#191970" d="M49.9858,-350.5118C63.5854,-373.8349 88.6976,-414.6539 115,-446 126.7307,-459.9801 142.2608,-474.1487 152.7741,-483.2198"/>
<polygon fill="#191970" stroke="#191970" points="52.9154,-348.5856 44.8923,-341.6661 46.8492,-352.0786 52.9154,-348.5856"/>
</g>
<!-- Node65047 -->
<g id="node4" class="node">
<title>Node65047</title>
<g id="a_node4"><a xlink:href="quickjs_8c.html#a960b48be1175b0982ecc03505711fc56" target="_top" xlink:title="js_new_string16">
<polygon fill="none" stroke="#000000" points="121,-417.5 121,-436.5 208,-436.5 208,-417.5 121,-417.5"/>
<text text-anchor="middle" x="164.5" y="-424.5" font-family="Helvetica,sans-Serif" font-size="10.00" fill="#000000">js_new_string16</text>
</a>
</g>
</g>
<!-- Node64460&#45;&gt;Node65047 -->
<g id="edge3" class="edge">
<title>Node64460&#45;&gt;Node65047</title>
<path fill="none" stroke="#191970" d="M60.533,-347.9851C86.6571,-367.8394 130.3938,-401.0793 151.85,-417.386"/>
<polygon fill="#191970" stroke="#191970" points="62.4858,-345.0732 52.4064,-341.8089 58.2502,-350.6463 62.4858,-345.0732"/>
</g>
<!-- Node65051 -->
<g id="node8" class="node">
<title>Node65051</title>
<g id="a_node8"><a xlink:href="quickjs_8c.html#a011157b8ff30c8418be989eadf509c92" target="_top" xlink:title="js_sub_string">
<polygon fill="none" stroke="#000000" points="278.5,-360.5 278.5,-379.5 352.5,-379.5 352.5,-360.5 278.5,-360.5"/>
<text text-anchor="middle" x="315.5" y="-367.5" font-family="Helvetica,sans-Serif" font-size="10.00" fill="#000000">js_sub_string</text>
</a>
</g>
</g>
<!-- Node64460&#45;&gt;Node65051 -->
<g id="edge29" class="edge">
<title>Node64460&#45;&gt;Node65051</title>
<path fill="none" stroke="#191970" d="M89.0808,-336.3787C124.0773,-339.7183 172.0196,-344.7947 214,-351 235.4592,-354.172 259.3083,-358.5902 278.494,-362.3678"/>
<polygon fill="#191970" stroke="#191970" points="89.3975,-332.8932 79.1136,-335.4411 88.7418,-339.8624 89.3975,-332.8932"/>
</g>
<!-- Node65052 -->
<g id="node18" class="node">
<title>Node65052</title>
<g id="a_node18"><a xlink:href="quickjs_8c.html#aa923510185fe24e3083baf7405b09f51" target="_top" xlink:title="js_new_string8">
<polygon fill="none" stroke="#000000" points="123.5,-360.5 123.5,-379.5 205.5,-379.5 205.5,-360.5 123.5,-360.5"/>
<text text-anchor="middle" x="164.5" y="-367.5" font-family="Helvetica,sans-Serif" font-size="10.00" fill="#000000">js_new_string8</text>
</a>
</g>
</g>
<!-- Node64460&#45;&gt;Node65052 -->
<g id="edge18" class="edge">
<title>Node64460&#45;&gt;Node65052</title>
<path fill="none" stroke="#191970" d="M80.7345,-344.5353C97.7393,-349.7048 117.1286,-355.5991 132.9673,-360.4141"/>
<polygon fill="#191970" stroke="#191970" points="81.6285,-341.149 71.0428,-341.589 79.5924,-347.8463 81.6285,-341.149"/>
</g>
<!-- Node65100 -->
<g id="node21" class="node">
<title>Node65100</title>
<g id="a_node21"><a xlink:href="quickjs_8c.html#a73a002c998fe7508eae9aa069fac802b" target="_top" xlink:title="JS_ReadString">
<polygon fill="none" stroke="#000000" points="123,-228.5 123,-247.5 206,-247.5 206,-228.5 123,-228.5"/>
<text text-anchor="middle" x="164.5" y="-235.5" font-family="Helvetica,sans-Serif" font-size="10.00" fill="#000000">JS_ReadString</text>
</a>
</g>
</g>
<!-- Node64460&#45;&gt;Node65100 -->
<g id="edge25" class="edge">
<title>Node64460&#45;&gt;Node65100</title>
<path fill="none" stroke="#191970" d="M60.4915,-316.1098C75.6293,-304.6611 96.5587,-288.8533 115,-275 127.3528,-265.7204 141.4708,-255.1733 151.4597,-247.7208"/>
<polygon fill="#191970" stroke="#191970" points="58.1736,-313.4746 52.3104,-322.2992 62.397,-319.057 58.1736,-313.4746"/>
</g>
<!-- Node64778 -->
<g id="node24" class="node">
<title>Node64778</title>
<g id="a_node24"><a xlink:href="quickjs_8c.html#af49e67b73f845dc1f9c3ee648dd9f95c" target="_top" xlink:title="JS_ToCStringLen2">
<polygon fill="none" stroke="#ff0000" points="115,-284.5 115,-303.5 214,-303.5 214,-284.5 115,-284.5"/>
<text text-anchor="middle" x="164.5" y="-291.5" font-family="Helvetica,sans-Serif" font-size="10.00" fill="#000000">JS_ToCStringLen2</text>
</a>
</g>
</g>
<!-- Node64460&#45;&gt;Node64778 -->
<g id="edge30" class="edge">
<title>Node64460&#45;&gt;Node64778</title>
<path fill="none" stroke="#191970" d="M80.7345,-319.4647C97.7393,-314.2952 117.1286,-308.4009 132.9673,-303.5859"/>
<polygon fill="#191970" stroke="#191970" points="79.5924,-316.1537 71.0428,-322.411 81.6285,-322.851 79.5924,-316.1537"/>
</g>
<!-- Node65102 -->
<g id="node25" class="node">
<title>Node65102</title>
<g id="a_node25"><a xlink:href="quickjs_8c.html#ac43dee2ed14e80248f1af195bd3d8181" target="_top" xlink:title="string_buffer_init2">
<polygon fill="none" stroke="#000000" points="117.5,-95.5 117.5,-114.5 211.5,-114.5 211.5,-95.5 117.5,-95.5"/>
<text text-anchor="middle" x="164.5" y="-102.5" font-family="Helvetica,sans-Serif" font-size="10.00" fill="#000000">string_buffer_init2</text>
</a>
</g>
</g>
<!-- Node64460&#45;&gt;Node65102 -->
<g id="edge32" class="edge">
<title>Node64460&#45;&gt;Node65102</title>
<path fill="none" stroke="#191970" d="M49.7842,-313.3239C75.158,-267.245 140.0688,-149.3671 159.1489,-114.7176"/>
<polygon fill="#191970" stroke="#191970" points="46.6289,-311.7981 44.8711,-322.2461 52.7607,-315.1747 46.6289,-311.7981"/>
</g>
<!-- Node64462 -->
<g id="node3" class="node">
<title>Node64462</title>
<g id="a_node3"><a xlink:href="quickjs_8c.html#ab6d8a1a52baf4d686aed594b996699d7" target="_top" xlink:title="JS_ConcatString">
<polygon fill="none" stroke="#ff0000" points="270,-512.5 270,-531.5 361,-531.5 361,-512.5 270,-512.5"/>
<text text-anchor="middle" x="315.5" y="-519.5" font-family="Helvetica,sans-Serif" font-size="10.00" fill="#000000">JS_ConcatString</text>
</a>
</g>
</g>
<!-- Node64461&#45;&gt;Node64462 -->
<g id="edge2" class="edge">
<title>Node64461&#45;&gt;Node64462</title>
<path fill="none" stroke="#191970" d="M222.7657,-504.1901C238.3675,-507.1865 255.0065,-510.382 269.8205,-513.2271"/>
<polygon fill="#191970" stroke="#191970" points="223.1732,-500.7045 212.6925,-502.2555 221.8529,-507.5788 223.1732,-500.7045"/>
</g>
<!-- Node65048 -->
<g id="node5" class="node">
<title>Node65048</title>
<g id="a_node5"><a xlink:href="quickjs_8c.html#a077ffa6455c0d7831bd4547542b5f2f7" target="_top" xlink:title="js_new_string_char">
<polygon fill="none" stroke="#ff0000" points="265,-436.5 265,-455.5 366,-455.5 366,-436.5 265,-436.5"/>
<text text-anchor="middle" x="315.5" y="-443.5" font-family="Helvetica,sans-Serif" font-size="10.00" fill="#000000">js_new_string_char</text>
</a>
</g>
</g>
<!-- Node65047&#45;&gt;Node65048 -->
<g id="edge4" class="edge">
<title>Node65047&#45;&gt;Node65048</title>
<path fill="none" stroke="#191970" d="M218.3888,-433.7807C233.4796,-435.6796 249.8284,-437.7367 264.7318,-439.6119"/>
<polygon fill="#191970" stroke="#191970" points="218.5342,-430.2715 208.1755,-432.4956 217.6602,-437.2167 218.5342,-430.2715"/>
</g>
<!-- Node65050 -->
<g id="node7" class="node">
<title>Node65050</title>
<g id="a_node7"><a xlink:href="quickjs_8c.html#a15988d5ca6500d029bdc559bd310f48d" target="_top" xlink:title="js_string_iterator_next">
<polygon fill="none" stroke="#000000" points="429,-522.5 429,-541.5 542,-541.5 542,-522.5 429,-522.5"/>
<text text-anchor="middle" x="485.5" y="-529.5" font-family="Helvetica,sans-Serif" font-size="10.00" fill="#000000">js_string_iterator_next</text>
</a>
</g>
</g>
<!-- Node65047&#45;&gt;Node65050 -->
<g id="edge17" class="edge">
<title>Node65047&#45;&gt;Node65050</title>
<path fill="none" stroke="#191970" d="M192.9595,-440.8367C209.3998,-448.528 230.6049,-457.941 250,-465 268.1426,-471.6031 398.4198,-507.7531 417,-513 428.0455,-516.1192 440.1059,-519.4795 450.9861,-522.4943"/>
<polygon fill="#191970" stroke="#191970" points="194.4159,-437.6538 183.8799,-436.5379 191.4204,-443.9805 194.4159,-437.6538"/>
</g>
<!-- Node65047&#45;&gt;Node65051 -->
<g id="edge7" class="edge">
<title>Node65047&#45;&gt;Node65051</title>
<path fill="none" stroke="#191970" d="M199.4763,-413.797C227.202,-403.331 265.2892,-388.9538 290.1435,-379.5716"/>
<polygon fill="#191970" stroke="#191970" points="197.8936,-410.6534 189.774,-417.4595 200.3657,-417.2023 197.8936,-410.6534"/>
</g>
<!-- Node64877 -->
<g id="node6" class="node">
<title>Node64877</title>
<g id="a_node6"><a xlink:href="quickjs_8c.html#a187940a18f6d1d4a5405405f37b5cf46" target="_top" xlink:title="js_string_charAt">
<polygon fill="none" stroke="#000000" points="442,-484.5 442,-503.5 529,-503.5 529,-484.5 442,-484.5"/>
<text text-anchor="middle" x="485.5" y="-491.5" font-family="Helvetica,sans-Serif" font-size="10.00" fill="#000000">js_string_charAt</text>
</a>
</g>
</g>
<!-- Node65048&#45;&gt;Node64877 -->
<g id="edge5" class="edge">
<title>Node65048&#45;&gt;Node64877</title>
<path fill="none" stroke="#191970" d="M358.524,-458.3721C376.5773,-463.5428 397.799,-469.5942 417,-475 428.048,-478.1104 440.1091,-481.4684 450.9891,-484.4836"/>
<polygon fill="#191970" stroke="#191970" points="359.4307,-454.9911 348.8534,-455.5997 357.5016,-461.72 359.4307,-454.9911"/>
</g>
<!-- Node65048&#45;&gt;Node65050 -->
<g id="edge6" class="edge">
<title>Node65048&#45;&gt;Node65050</title>
<path fill="none" stroke="#191970" d="M361.2654,-459.2423C368.1852,-462.2258 375.0049,-465.7876 381,-470 401.3937,-484.3295 396.0452,-499.5043 417,-513 423.0179,-516.8758 429.8251,-519.9706 436.755,-522.4394"/>
<polygon fill="#191970" stroke="#191970" points="362.4223,-455.9363 351.8355,-455.5256 359.8555,-462.4487 362.4223,-455.9363"/>
</g>
<!-- Node64758 -->
<g id="node9" class="node">
<title>Node64758</title>
<g id="a_node9"><a xlink:href="quickjs_8c.html#adb4d2990e6bf3f99633512ad2054b47a" target="_top" xlink:title="js_string___GetSubstitution">
<polygon fill="none" stroke="#ff0000" points="417,-142.5 417,-161.5 554,-161.5 554,-142.5 417,-142.5"/>
<text text-anchor="middle" x="485.5" y="-149.5" font-family="Helvetica,sans-Serif" font-size="10.00" fill="#000000">js_string___GetSubstitution</text>
</a>
</g>
</g>
<!-- Node65051&#45;&gt;Node64758 -->
<g id="edge8" class="edge">
<title>Node65051&#45;&gt;Node64758</title>
<path fill="none" stroke="#191970" d="M362.4767,-359.5404C369.4719,-356.2035 375.9997,-351.803 381,-346 432.8338,-285.8449 362.7832,-229.0166 417,-171 420.6233,-167.1227 424.9621,-164.0119 429.6737,-161.5195"/>
<polygon fill="#191970" stroke="#191970" points="360.7131,-356.4776 352.7474,-363.4632 363.3308,-362.9698 360.7131,-356.4776"/>
</g>
<!-- Node64686 -->
<g id="node10" class="node">
<title>Node64686</title>
<g id="a_node10"><a xlink:href="quickjs_8c.html#a99f359a90bf2aa7902ec554d726d4fda" target="_top" xlink:title="js_string_split">
<polygon fill="none" stroke="#000000" points="447,-332.5 447,-351.5 524,-351.5 524,-332.5 447,-332.5"/>
<text text-anchor="middle" x="485.5" y="-339.5" font-family="Helvetica,sans-Serif" font-size="10.00" fill="#000000">js_string_split</text>
</a>
</g>
</g>
<!-- Node65051&#45;&gt;Node64686 -->
<g id="edge9" class="edge">
<title>Node65051&#45;&gt;Node64686</title>
<path fill="none" stroke="#191970" d="M362.9845,-362.179C389.4252,-357.8241 421.9247,-352.4712 446.8056,-348.3732"/>
<polygon fill="#191970" stroke="#191970" points="362.1054,-358.7766 352.8072,-363.8553 363.2431,-365.6835 362.1054,-358.7766"/>
</g>
<!-- Node64883 -->
<g id="node11" class="node">
<title>Node64883</title>
<g id="a_node11"><a xlink:href="quickjs_8c.html#a95e140838dbe5abed1dabaae43f10a6e" target="_top" xlink:title="js_string_substring">
<polygon fill="none" stroke="#000000" points="436.5,-294.5 436.5,-313.5 534.5,-313.5 534.5,-294.5 436.5,-294.5"/>
<text text-anchor="middle" x="485.5" y="-301.5" font-family="Helvetica,sans-Serif" font-size="10.00" fill="#000000">js_string_substring</text>
</a>
</g>
</g>
<!-- Node65051&#45;&gt;Node64883 -->
<g id="edge10" class="edge">
<title>Node65051&#45;&gt;Node64883</title>
<path fill="none" stroke="#191970" d="M355.2785,-356.9972C363.9077,-353.7443 372.8783,-350.0226 381,-346 398.0141,-337.5731 399.66,-330.7342 417,-323 425.3406,-319.2799 434.5829,-316.1228 443.5088,-313.5142"/>
<polygon fill="#191970" stroke="#191970" points="353.9477,-353.7569 345.7444,-360.4618 356.3385,-360.3359 353.9477,-353.7569"/>
</g>
<!-- Node64884 -->
<g id="node12" class="node">
<title>Node64884</title>
<g id="a_node12"><a xlink:href="quickjs_8c.html#a1008f89dc6bfd1fedc49ea6f427253c7" target="_top" xlink:title="js_string_substr">
<polygon fill="none" stroke="#000000" points="442.5,-256.5 442.5,-275.5 528.5,-275.5 528.5,-256.5 442.5,-256.5"/>
<text text-anchor="middle" x="485.5" y="-263.5" font-family="Helvetica,sans-Serif" font-size="10.00" fill="#000000">js_string_substr</text>
</a>
</g>
</g>
<!-- Node65051&#45;&gt;Node64884 -->
<g id="edge11" class="edge">
<title>Node65051&#45;&gt;Node64884</title>
<path fill="none" stroke="#191970" d="M361.9038,-357.5914C368.7424,-354.502 375.3697,-350.6889 381,-346 405.1901,-325.8542 392.0174,-304.1542 417,-285 424.3455,-279.3682 433.2664,-275.4055 442.2091,-272.6173"/>
<polygon fill="#191970" stroke="#191970" points="360.4898,-354.3876 352.5211,-361.3699 363.1047,-360.8809 360.4898,-354.3876"/>
</g>
<!-- Node64885 -->
<g id="node13" class="node">
<title>Node64885</title>
<g id="a_node13"><a xlink:href="quickjs_8c.html#aa46a42bde091ff4968e502d9556c47b6" target="_top" xlink:title="js_string_slice">
<polygon fill="none" stroke="#000000" points="446,-446.5 446,-465.5 525,-465.5 525,-446.5 446,-446.5"/>
<text text-anchor="middle" x="485.5" y="-453.5" font-family="Helvetica,sans-Serif" font-size="10.00" fill="#000000">js_string_slice</text>
</a>
</g>
</g>
<!-- Node65051&#45;&gt;Node64885 -->
<g id="edge12" class="edge">
<title>Node65051&#45;&gt;Node64885</title>
<path fill="none" stroke="#191970" d="M361.2654,-383.2423C368.1852,-386.2258 375.0049,-389.7876 381,-394 401.3937,-408.3295 396.0452,-423.5043 417,-437 425.6118,-442.5464 435.84,-446.4935 445.7312,-449.2954"/>
<polygon fill="#191970" stroke="#191970" points="362.4223,-379.9363 351.8355,-379.5256 359.8555,-386.4487 362.4223,-379.9363"/>
</g>
<!-- Node64955 -->
<g id="node14" class="node">
<title>Node64955</title>
<g id="a_node14"><a xlink:href="quickjs_8c.html#a62d4bd99d0b9e8200b220818902e5f0d" target="_top" xlink:title="js_string_trim">
<polygon fill="none" stroke="#000000" points="448,-408.5 448,-427.5 523,-427.5 523,-408.5 448,-408.5"/>
<text text-anchor="middle" x="485.5" y="-415.5" font-family="Helvetica,sans-Serif" font-size="10.00" fill="#000000">js_string_trim</text>
</a>
</g>
</g>
<!-- Node65051&#45;&gt;Node64955 -->
<g id="edge13" class="edge">
<title>Node65051&#45;&gt;Node64955</title>
<path fill="none" stroke="#191970" d="M358.524,-382.3721C376.5773,-387.5428 397.799,-393.5942 417,-399 428.048,-402.1104 440.1091,-405.4684 450.9891,-408.4836"/>
<polygon fill="#191970" stroke="#191970" points="359.4307,-378.9911 348.8534,-379.5997 357.5016,-385.72 359.4307,-378.9911"/>
</g>
<!-- Node64585 -->
<g id="node15" class="node">
<title>Node64585</title>
<g id="a_node15"><a xlink:href="quickjs_8c.html#a9eb2d90f27f684820f9de13189502b7c" target="_top" xlink:title="js_regexp_exec">
<polygon fill="none" stroke="#ff0000" points="443,-370.5 443,-389.5 528,-389.5 528,-370.5 443,-370.5"/>
<text text-anchor="middle" x="485.5" y="-377.5" font-family="Helvetica,sans-Serif" font-size="10.00" fill="#000000">js_regexp_exec</text>
</a>
</g>
</g>
<!-- Node65051&#45;&gt;Node64585 -->
<g id="edge14" class="edge">
<title>Node65051&#45;&gt;Node64585</title>
<path fill="none" stroke="#191970" d="M362.8392,-372.7847C387.9411,-374.2612 418.5355,-376.0609 442.8898,-377.4935"/>
<polygon fill="#191970" stroke="#191970" points="362.9955,-369.2879 352.8072,-372.1945 362.5844,-376.2758 362.9955,-369.2879"/>
</g>
<!-- Node64559 -->
<g id="node16" class="node">
<title>Node64559</title>
<g id="a_node16"><a xlink:href="quickjs_8c.html#a79872a6d9d139e36d5d1894d16132024" target="_top" xlink:title="js_regexp_Symbol_split">
<polygon fill="none" stroke="#000000" points="425.5,-180.5 425.5,-199.5 545.5,-199.5 545.5,-180.5 425.5,-180.5"/>
<text text-anchor="middle" x="485.5" y="-187.5" font-family="Helvetica,sans-Serif" font-size="10.00" fill="#000000">js_regexp_Symbol_split</text>
</a>
</g>
</g>
<!-- Node65051&#45;&gt;Node64559 -->
<g id="edge15" class="edge">
<title>Node65051&#45;&gt;Node64559</title>
<path fill="none" stroke="#191970" d="M362.3974,-359.1579C369.3426,-355.8666 375.8747,-351.5804 381,-346 422.1337,-301.2139 375.5489,-258.4925 417,-214 422.9269,-207.6383 430.6351,-202.9624 438.7339,-199.5257"/>
<polygon fill="#191970" stroke="#191970" points="360.72,-356.061 352.7639,-363.0576 363.3466,-362.5495 360.72,-356.061"/>
</g>
<!-- Node64531 -->
<g id="node17" class="node">
<title>Node64531</title>
<g id="a_node17"><a xlink:href="quickjs_8c.html#a343a343b16bc3c9875050e99ee0d2884" target="_top" xlink:title="JS_JSONStringify">
<polygon fill="none" stroke="#ff0000" points="590,-104.5 590,-123.5 687,-123.5 687,-104.5 590,-104.5"/>
<text text-anchor="middle" x="638.5" y="-111.5" font-family="Helvetica,sans-Serif" font-size="10.00" fill="#000000">JS_JSONStringify</text>
</a>
</g>
</g>
<!-- Node65051&#45;&gt;Node64531 -->
<g id="edge16" class="edge">
<title>Node65051&#45;&gt;Node64531</title>
<path fill="none" stroke="#191970" d="M362.241,-358.6803C369.1473,-355.448 375.7077,-351.3053 381,-346 414.0653,-312.8536 382.6253,-278.7865 417,-247 463.3929,-204.1002 500.3701,-242.4144 554,-209 590.5324,-186.2384 620.4382,-143.0322 632.6159,-123.7341"/>
<polygon fill="#191970" stroke="#191970" points="360.6496,-355.5486 352.6954,-362.5472 363.2779,-362.0364 360.6496,-355.5486"/>
</g>
<!-- Node65052&#45;&gt;Node65048 -->
<g id="edge19" class="edge">
<title>Node65052&#45;&gt;Node65048</title>
<path fill="none" stroke="#191970" d="M186.8302,-385.2443C203.6979,-396.343 227.6801,-411.2507 250,-422 261.3479,-427.4651 274.2856,-432.4508 285.6487,-436.4446"/>
<polygon fill="#191970" stroke="#191970" points="188.5086,-382.1568 178.2469,-379.5209 184.6251,-387.9808 188.5086,-382.1568"/>
</g>
<!-- Node65052&#45;&gt;Node64877 -->
<g id="edge23" class="edge">
<title>Node65052&#45;&gt;Node64877</title>
<path fill="none" stroke="#191970" d="M215.5889,-381.5861C275.1382,-395.3805 367.2069,-417.7174 381,-427 403.1232,-441.8887 394.975,-459.9664 417,-475 424.441,-480.079 433.2084,-483.8064 441.9405,-486.54"/>
<polygon fill="#191970" stroke="#191970" points="216.1327,-378.1197 205.6019,-379.282 214.559,-384.9405 216.1327,-378.1197"/>
</g>
<!-- Node65052&#45;&gt;Node65051 -->
<g id="edge20" class="edge">
<title>Node65052&#45;&gt;Node65051</title>
<path fill="none" stroke="#191970" d="M215.9001,-370C236.4184,-370 259.5896,-370 278.4162,-370"/>
<polygon fill="#191970" stroke="#191970" points="215.7614,-366.5001 205.7614,-370 215.7614,-373.5001 215.7614,-366.5001"/>
</g>
<!-- Node65053 -->
<g id="node19" class="node">
<title>Node65053</title>
<g id="a_node19"><a xlink:href="quickjs_8c.html#ac34cc554aab1e98c45a7f845fff64385" target="_top" xlink:title="JS_NewStringLen">
<polygon fill="none" stroke="#ff0000" points="438,-104.5 438,-123.5 533,-123.5 533,-104.5 438,-104.5"/>
<text text-anchor="middle" x="485.5" y="-111.5" font-family="Helvetica,sans-Serif" font-size="10.00" fill="#000000">JS_NewStringLen</text>
</a>
</g>
</g>
<!-- Node65052&#45;&gt;Node65053 -->
<g id="edge21" class="edge">
<title>Node65052&#45;&gt;Node65053</title>
<path fill="none" stroke="#191970" d="M215.3142,-358.051C277.4685,-343.2263 375.2103,-319.1482 381,-313 436.9312,-253.6056 361.46,-192.7604 417,-133 422.6291,-126.9432 430.0037,-122.7553 437.8246,-119.8729"/>
<polygon fill="#191970" stroke="#191970" points="214.2053,-354.7171 205.2867,-360.4362 215.8252,-361.5271 214.2053,-354.7171"/>
</g>
<!-- Node64917 -->
<g id="node20" class="node">
<title>Node64917</title>
<g id="a_node20"><a xlink:href="quickjs_8c.html#ab0bd3fbfe9b7f004c067b103a6d60d03" target="_top" xlink:title="js_compile_regexp">
<polygon fill="none" stroke="#ff0000" points="266.5,-284.5 266.5,-303.5 364.5,-303.5 364.5,-284.5 266.5,-284.5"/>
<text text-anchor="middle" x="315.5" y="-291.5" font-family="Helvetica,sans-Serif" font-size="10.00" fill="#000000">js_compile_regexp</text>
</a>
</g>
</g>
<!-- Node65052&#45;&gt;Node64917 -->
<g id="edge24" class="edge">
<title>Node65052&#45;&gt;Node64917</title>
<path fill="none" stroke="#191970" d="M186.8302,-354.7557C203.6979,-343.657 227.6801,-328.7493 250,-318 261.3479,-312.5349 274.2856,-307.5492 285.6487,-303.5554"/>
<polygon fill="#191970" stroke="#191970" points="184.6251,-352.0192 178.2469,-360.4791 188.5086,-357.8432 184.6251,-352.0192"/>
</g>
<!-- Node65053&#45;&gt;Node64531 -->
<g id="edge22" class="edge">
<title>Node65053&#45;&gt;Node64531</title>
<path fill="none" stroke="#191970" d="M543.4699,-114C558.7802,-114 575.1442,-114 589.9026,-114"/>
<polygon fill="#191970" stroke="#191970" points="543.0715,-110.5001 533.0715,-114 543.0714,-117.5001 543.0715,-110.5001"/>
</g>
<!-- Node64670 -->
<g id="node22" class="node">
<title>Node64670</title>
<g id="a_node22"><a xlink:href="quickjs_8c.html#a4b8ef2bb3b35e4a5f6ed8bd837a50e7c" target="_top" xlink:title="JS_ReadObjectRec">
<polygon fill="none" stroke="#ff0000" points="263.5,-228.5 263.5,-247.5 367.5,-247.5 367.5,-228.5 263.5,-228.5"/>
<text text-anchor="middle" x="315.5" y="-235.5" font-family="Helvetica,sans-Serif" font-size="10.00" fill="#000000">JS_ReadObjectRec</text>
</a>
</g>
</g>
<!-- Node65100&#45;&gt;Node64670 -->
<g id="edge26" class="edge">
<title>Node65100&#45;&gt;Node64670</title>
<path fill="none" stroke="#191970" d="M216.4251,-238C231.6282,-238 248.2489,-238 263.4592,-238"/>
<polygon fill="#191970" stroke="#191970" points="216.1612,-234.5001 206.1611,-238 216.1611,-241.5001 216.1612,-234.5001"/>
</g>
<!-- Node65101 -->
<g id="node23" class="node">
<title>Node65101</title>
<g id="a_node23"><a xlink:href="quickjs_8c.html#ad54b242d774ba44b2ac39fe8161aaf9c" target="_top" xlink:title="JS_ReadObjectAtoms">
<polygon fill="none" stroke="#ff0000" points="258.5,-190.5 258.5,-209.5 372.5,-209.5 372.5,-190.5 258.5,-190.5"/>
<text text-anchor="middle" x="315.5" y="-197.5" font-family="Helvetica,sans-Serif" font-size="10.00" fill="#000000">JS_ReadObjectAtoms</text>
</a>
</g>
</g>
<!-- Node65100&#45;&gt;Node65101 -->
<g id="edge28" class="edge">
<title>Node65100&#45;&gt;Node65101</title>
<path fill="none" stroke="#191970" d="M212.3431,-225.96C233.4386,-220.6512 257.8766,-214.5012 277.6703,-209.5201"/>
<polygon fill="#191970" stroke="#191970" points="211.4471,-222.5763 202.6037,-228.411 213.1555,-229.3646 211.4471,-222.5763"/>
</g>
<!-- Node64670&#45;&gt;Node64670 -->
<g id="edge27" class="edge">
<title>Node64670&#45;&gt;Node64670</title>
<path fill="none" stroke="#191970" d="M287.5009,-256.6539C288.6712,-261.9368 298.0043,-266 315.5,-266 342.1602,-266 349.8666,-256.5653 338.6194,-247.7571"/>
<polygon fill="#191970" stroke="#191970" points="290.6403,-258.208 292.3806,-247.7571 284.5029,-254.8417 290.6403,-258.208"/>
</g>
<!-- Node64778&#45;&gt;Node64917 -->
<g id="edge31" class="edge">
<title>Node64778&#45;&gt;Node64917</title>
<path fill="none" stroke="#191970" d="M224.3665,-294C238.3274,-294 253.0342,-294 266.4624,-294"/>
<polygon fill="#191970" stroke="#191970" points="224.3616,-290.5001 214.3615,-294 224.3615,-297.5001 224.3616,-290.5001"/>
</g>
<!-- Node65103 -->
<g id="node26" class="node">
<title>Node65103</title>
<g id="a_node26"><a xlink:href="quickjs_8c.html#a9c11961b0adafedd064b294612d0c2f3" target="_top" xlink:title="string_buffer_init">
<polygon fill="none" stroke="#ff0000" points="271,-114.5 271,-133.5 360,-133.5 360,-114.5 271,-114.5"/>
<text text-anchor="middle" x="315.5" y="-121.5" font-family="Helvetica,sans-Serif" font-size="10.00" fill="#000000">string_buffer_init</text>
</a>
</g>
</g>
<!-- Node65102&#45;&gt;Node65103 -->
<g id="edge33" class="edge">
<title>Node65102&#45;&gt;Node65103</title>
<path fill="none" stroke="#191970" d="M221.7981,-112.2097C238.0496,-114.2546 255.4976,-116.45 270.8796,-118.3855"/>
<polygon fill="#191970" stroke="#191970" points="222.2218,-108.7355 211.863,-110.9596 221.3478,-115.6807 222.2218,-108.7355"/>
</g>
<!-- Node64940 -->
<g id="node27" class="node">
<title>Node64940</title>
<g id="a_node27"><a xlink:href="quickjs_8c.html#a964b0ba49f8823d8d8f21c6645a81542" target="_top" xlink:title="JS_ConcatString3">
<polygon fill="none" stroke="#ff0000" points="267.5,-152.5 267.5,-171.5 363.5,-171.5 363.5,-152.5 267.5,-152.5"/>
<text text-anchor="middle" x="315.5" y="-159.5" font-family="Helvetica,sans-Serif" font-size="10.00" fill="#000000">JS_ConcatString3</text>
</a>
</g>
</g>
<!-- Node65102&#45;&gt;Node64940 -->
<g id="edge37" class="edge">
<title>Node65102&#45;&gt;Node64940</title>
<path fill="none" stroke="#191970" d="M192.966,-118.8186C209.4085,-126.5041 230.6135,-135.9173 250,-143 259.3419,-146.413 269.6053,-149.6319 279.1797,-152.4165"/>
<polygon fill="#191970" stroke="#191970" points="194.4214,-115.6353 183.8851,-114.5239 191.4287,-121.9633 194.4214,-115.6353"/>
</g>
<!-- Node64844 -->
<g id="node28" class="node">
<title>Node64844</title>
<g id="a_node28"><a xlink:href="quickjs_8c.html#a14b12816060fe321a1d8b562e48135b2" target="_top" xlink:title="js_string_codePointRange">
<polygon fill="none" stroke="#000000" points="250,-76.5 250,-95.5 381,-95.5 381,-76.5 250,-76.5"/>
<text text-anchor="middle" x="315.5" y="-83.5" font-family="Helvetica,sans-Serif" font-size="10.00" fill="#000000">js_string_codePointRange</text>
</a>
</g>
</g>
<!-- Node65102&#45;&gt;Node64844 -->
<g id="edge39" class="edge">
<title>Node65102&#45;&gt;Node64844</title>
<path fill="none" stroke="#191970" d="M221.9437,-97.772C231.0391,-96.6275 240.5058,-95.4364 249.7728,-94.2703"/>
<polygon fill="#191970" stroke="#191970" points="221.3478,-94.3193 211.863,-99.0404 222.2218,-101.2645 221.3478,-94.3193"/>
</g>
<!-- Node64904 -->
<g id="node29" class="node">
<title>Node64904</title>
<g id="a_node29"><a xlink:href="quickjs_8c.html#a0f6f437eaf0cabf7d3e31f8306ed7e02" target="_top" xlink:title="js_string_repeat">
<polygon fill="none" stroke="#000000" points="272.5,-38.5 272.5,-57.5 358.5,-57.5 358.5,-38.5 272.5,-38.5"/>
<text text-anchor="middle" x="315.5" y="-45.5" font-family="Helvetica,sans-Serif" font-size="10.00" fill="#000000">js_string_repeat</text>
</a>
</g>
</g>
<!-- Node65102&#45;&gt;Node64904 -->
<g id="edge40" class="edge">
<title>Node65102&#45;&gt;Node64904</title>
<path fill="none" stroke="#191970" d="M192.966,-91.1814C209.4085,-83.4959 230.6135,-74.0827 250,-67 259.3419,-63.587 269.6053,-60.3681 279.1797,-57.5835"/>
<polygon fill="#191970" stroke="#191970" points="191.4287,-88.0367 183.8851,-95.4761 194.4214,-94.3647 191.4287,-88.0367"/>
</g>
<!-- Node65093 -->
<g id="node30" class="node">
<title>Node65093</title>
<g id="a_node30"><a xlink:href="quickjs_8c.html#a32ee6be61757664e4eea552e5508ad6e" target="_top" xlink:title="js_regexp_get_source">
<polygon fill="none" stroke="#000000" points="259.5,-.5 259.5,-19.5 371.5,-19.5 371.5,-.5 259.5,-.5"/>
<text text-anchor="middle" x="315.5" y="-7.5" font-family="Helvetica,sans-Serif" font-size="10.00" fill="#000000">js_regexp_get_source</text>
</a>
</g>
</g>
<!-- Node65102&#45;&gt;Node65093 -->
<g id="edge41" class="edge">
<title>Node65102&#45;&gt;Node65093</title>
<path fill="none" stroke="#191970" d="M179.6078,-87.6594C195.5058,-70.4344 222.0599,-44.4268 250,-29 256.9447,-25.1655 264.7409,-22.0367 272.467,-19.5069"/>
<polygon fill="#191970" stroke="#191970" points="176.7943,-85.5533 172.7,-95.325 181.9944,-90.2394 176.7943,-85.5533"/>
</g>
<!-- Node65103&#45;&gt;Node64758 -->
<g id="edge35" class="edge">
<title>Node65103&#45;&gt;Node64758</title>
<path fill="none" stroke="#191970" d="M370.1262,-132.9973C388.5066,-136.0246 409.0689,-139.4113 427.6863,-142.4777"/>
<polygon fill="#191970" stroke="#191970" points="370.6014,-129.5284 360.1655,-131.3567 369.4637,-136.4354 370.6014,-129.5284"/>
</g>
<!-- Node65103&#45;&gt;Node64531 -->
<g id="edge36" class="edge">
<title>Node65103&#45;&gt;Node64531</title>
<path fill="none" stroke="#191970" d="M358.2556,-111.6414C385.2791,-103.8534 415.4139,-95.2221 417,-95 477.3004,-86.5546 493.4831,-88.2802 554,-95 570.7379,-96.8586 589.004,-100.7276 604.2573,-104.4922"/>
<polygon fill="#191970" stroke="#191970" points="357.1374,-108.3211 348.499,-114.4553 359.0773,-115.047 357.1374,-108.3211"/>
</g>
<!-- Node65103&#45;&gt;Node65053 -->
<g id="edge34" class="edge">
<title>Node65103&#45;&gt;Node65053</title>
<path fill="none" stroke="#191970" d="M370.2539,-120.7792C392.0269,-119.4984 416.8448,-118.0385 437.8594,-116.8024"/>
<polygon fill="#191970" stroke="#191970" points="369.9427,-117.2913 360.1655,-121.3726 370.3538,-124.2793 369.9427,-117.2913"/>
</g>
<!-- Node64940&#45;&gt;Node64559 -->
<g id="edge38" class="edge">
<title>Node64940&#45;&gt;Node64559</title>
<path fill="none" stroke="#191970" d="M373.8122,-171.6044C391.255,-174.4773 410.3665,-177.6251 427.7716,-180.4918"/>
<polygon fill="#191970" stroke="#191970" points="374.1963,-168.1206 363.7605,-169.9488 373.0587,-175.0275 374.1963,-168.1206"/>
</g>
</g>
</svg>
