<?xml version="1.0" encoding="UTF-8" standalone="no"?>
<!DOCTYPE svg PUBLIC "-//W3C//DTD SVG 1.1//EN"
 "http://www.w3.org/Graphics/SVG/1.1/DTD/svg11.dtd">
<!-- Generated by graphviz version 2.40.1 (20161225.0304)
 -->
<!-- Title: get_proto_obj Pages: 1 -->
<svg width="876pt" height="804pt"
 viewBox="0.00 0.00 876.00 803.75" xmlns="http://www.w3.org/2000/svg" xmlns:xlink="http://www.w3.org/1999/xlink">
<g id="graph0" class="graph" transform="scale(1 1) rotate(0) translate(4 799.7458)">
<title>get_proto_obj</title>
<!-- Node127194 -->
<g id="node1" class="node">
<title>Node127194</title>
<polygon fill="#bfbfbf" stroke="#000000" points="0,-594.5 0,-613.5 75,-613.5 75,-594.5 0,-594.5"/>
<text text-anchor="middle" x="37.5" y="-601.5" font-family="Helvetica,sans-Serif" font-size="10.00" fill="#000000">get_proto_obj</text>
</g>
<!-- Node127195 -->
<g id="node2" class="node">
<title>Node127195</title>
<g id="a_node2"><a xlink:href="quickjs_8c.html#a7efb53c2f76fd5cc0e584449437ec09c" target="_top" xlink:title="JS_AddIntrinsicBasicObjects">
<polygon fill="none" stroke="#000000" points="454,-563.5 454,-582.5 598,-582.5 598,-563.5 454,-563.5"/>
<text text-anchor="middle" x="526" y="-570.5" font-family="Helvetica,sans-Serif" font-size="10.00" fill="#000000">JS_AddIntrinsicBasicObjects</text>
</a>
</g>
</g>
<!-- Node127194&#45;&gt;Node127195 -->
<g id="edge1" class="edge">
<title>Node127194&#45;&gt;Node127195</title>
<path fill="none" stroke="#191970" d="M52.7235,-621.203C105.3784,-678.5847 283.89,-855.3723 418,-775 492.02,-730.6397 518.1532,-616.3427 524.3978,-582.5474"/>
<polygon fill="#191970" stroke="#191970" points="55.1927,-618.7153 45.8882,-613.648 50.0019,-623.4117 55.1927,-618.7153"/>
</g>
<!-- Node127198 -->
<g id="node5" class="node">
<title>Node127198</title>
<g id="a_node5"><a xlink:href="quickjs_8c.html#a73738c650f11459db0d7af3dcdf8316b" target="_top" xlink:title="JS_NewObjectProtoClass">
<polygon fill="none" stroke="#000000" points="111,-392.5 111,-411.5 242,-411.5 242,-392.5 111,-392.5"/>
<text text-anchor="middle" x="176.5" y="-399.5" font-family="Helvetica,sans-Serif" font-size="10.00" fill="#000000">JS_NewObjectProtoClass</text>
</a>
</g>
</g>
<!-- Node127194&#45;&gt;Node127198 -->
<g id="edge4" class="edge">
<title>Node127194&#45;&gt;Node127198</title>
<path fill="none" stroke="#191970" d="M49.9485,-585.9093C78.533,-544.3693 148.0801,-443.3009 169.863,-411.6451"/>
<polygon fill="#191970" stroke="#191970" points="46.9897,-584.035 44.2043,-594.2571 52.7564,-588.0031 46.9897,-584.035"/>
</g>
<!-- Node127196 -->
<g id="node3" class="node">
<title>Node127196</title>
<g id="a_node3"><a xlink:href="quickjs_8c.html#a442ff496ba00319ad39eb0a129b9eb8b" target="_top" xlink:title="JS_NewContextRaw">
<polygon fill="none" stroke="#000000" points="634,-544.5 634,-563.5 743,-563.5 743,-544.5 634,-544.5"/>
<text text-anchor="middle" x="688.5" y="-551.5" font-family="Helvetica,sans-Serif" font-size="10.00" fill="#000000">JS_NewContextRaw</text>
</a>
</g>
</g>
<!-- Node127195&#45;&gt;Node127196 -->
<g id="edge2" class="edge">
<title>Node127195&#45;&gt;Node127196</title>
<path fill="none" stroke="#191970" d="M608.2729,-563.3804C616.849,-562.3777 625.41,-561.3767 633.5734,-560.4222"/>
<polygon fill="#191970" stroke="#191970" points="607.747,-559.9179 598.2212,-564.5557 608.56,-566.8706 607.747,-559.9179"/>
</g>
<!-- Node127197 -->
<g id="node4" class="node">
<title>Node127197</title>
<g id="a_node4"><a xlink:href="quickjs_8c.html#ad8aedb643b8753b7a15f6cb2df61945e" target="_top" xlink:title="JS_NewContext">
<polygon fill="none" stroke="#000000" points="779,-525.5 779,-544.5 868,-544.5 868,-525.5 779,-525.5"/>
<text text-anchor="middle" x="823.5" y="-532.5" font-family="Helvetica,sans-Serif" font-size="10.00" fill="#000000">JS_NewContext</text>
</a>
</g>
</g>
<!-- Node127196&#45;&gt;Node127197 -->
<g id="edge3" class="edge">
<title>Node127196&#45;&gt;Node127197</title>
<path fill="none" stroke="#191970" d="M753.1206,-544.9052C761.7784,-543.6867 770.4993,-542.4594 778.7125,-541.3034"/>
<polygon fill="#191970" stroke="#191970" points="752.4351,-541.4671 743.0205,-546.3267 753.4108,-548.3988 752.4351,-541.4671"/>
</g>
<!-- Node127198&#45;&gt;Node127195 -->
<g id="edge39" class="edge">
<title>Node127198&#45;&gt;Node127195</title>
<path fill="none" stroke="#191970" d="M179.186,-421.7865C188.7873,-489.2541 223.7523,-708.347 278,-749 327.7922,-786.3141 363.7021,-779.3866 418,-749 484.9479,-711.5341 515.4368,-613.7192 523.6389,-582.6321"/>
<polygon fill="#191970" stroke="#191970" points="182.6222,-421.0848 177.7755,-411.6635 175.6891,-422.0509 182.6222,-421.0848"/>
</g>
<!-- Node127199 -->
<g id="node6" class="node">
<title>Node127199</title>
<g id="a_node6"><a xlink:href="quickjs_8c.html#a659dc0db7e440fd6eb012d613627faa3" target="_top" xlink:title="JS_NewObjectClass">
<polygon fill="none" stroke="#ff0000" points="294,-354.5 294,-373.5 402,-373.5 402,-354.5 294,-354.5"/>
<text text-anchor="middle" x="348" y="-361.5" font-family="Helvetica,sans-Serif" font-size="10.00" fill="#000000">JS_NewObjectClass</text>
</a>
</g>
</g>
<!-- Node127198&#45;&gt;Node127199 -->
<g id="edge5" class="edge">
<title>Node127198&#45;&gt;Node127199</title>
<path fill="none" stroke="#191970" d="M229.5412,-390.2474C253.7913,-384.8742 282.1467,-378.5914 305.0345,-373.5201"/>
<polygon fill="#191970" stroke="#191970" points="228.7827,-386.8305 219.7767,-392.411 230.2971,-393.6648 228.7827,-386.8305"/>
</g>
<!-- Node127787 -->
<g id="node13" class="node">
<title>Node127787</title>
<g id="a_node13"><a xlink:href="quickjs_8c.html#a884d294acbf5be675ffc760e38bd0521" target="_top" xlink:title="JS_NewObjectProto">
<polygon fill="none" stroke="#ff0000" points="295,-430.5 295,-449.5 401,-449.5 401,-430.5 295,-430.5"/>
<text text-anchor="middle" x="348" y="-437.5" font-family="Helvetica,sans-Serif" font-size="10.00" fill="#000000">JS_NewObjectProto</text>
</a>
</g>
</g>
<!-- Node127198&#45;&gt;Node127787 -->
<g id="edge12" class="edge">
<title>Node127198&#45;&gt;Node127787</title>
<path fill="none" stroke="#191970" d="M229.5412,-413.7526C253.7913,-419.1258 282.1467,-425.4086 305.0345,-430.4799"/>
<polygon fill="#191970" stroke="#191970" points="230.2971,-410.3352 219.7767,-411.589 228.7827,-417.1695 230.2971,-410.3352"/>
</g>
<!-- Node127435 -->
<g id="node14" class="node">
<title>Node127435</title>
<g id="a_node14"><a xlink:href="quickjs_8c.html#a36322a209de4ef17f939e6d128578d7f" target="_top" xlink:title="js_op_define_class">
<polygon fill="none" stroke="#ff0000" points="476,-468.5 476,-487.5 576,-487.5 576,-468.5 476,-468.5"/>
<text text-anchor="middle" x="526" y="-475.5" font-family="Helvetica,sans-Serif" font-size="10.00" fill="#000000">js_op_define_class</text>
</a>
</g>
</g>
<!-- Node127198&#45;&gt;Node127435 -->
<g id="edge29" class="edge">
<title>Node127198&#45;&gt;Node127435</title>
<path fill="none" stroke="#191970" d="M252.043,-394.3606C301.5598,-392.5393 366.4273,-396.3753 418,-421 438.9941,-431.0241 433.9889,-447.1346 454,-459 460.672,-462.9561 468.1716,-466.1015 475.7444,-468.5989"/>
<polygon fill="#191970" stroke="#191970" points="251.8686,-390.8648 242.0367,-394.8126 252.1845,-397.8576 251.8686,-390.8648"/>
</g>
<!-- Node127240 -->
<g id="node15" class="node">
<title>Node127240</title>
<g id="a_node15"><a xlink:href="quickjs_8c.html#a4c9489297c684663f30e517204a9ec14" target="_top" xlink:title="JS_AddIntrinsicBaseObjects">
<polygon fill="none" stroke="#000000" points="455,-506.5 455,-525.5 597,-525.5 597,-506.5 455,-506.5"/>
<text text-anchor="middle" x="526" y="-513.5" font-family="Helvetica,sans-Serif" font-size="10.00" fill="#000000">JS_AddIntrinsicBaseObjects</text>
</a>
</g>
</g>
<!-- Node127198&#45;&gt;Node127240 -->
<g id="edge40" class="edge">
<title>Node127198&#45;&gt;Node127240</title>
<path fill="none" stroke="#191970" d="M199.0525,-417.1566C219.0331,-429.9649 249.392,-447.9434 278,-459 313.8506,-472.8557 415.5366,-494.2089 477.0009,-506.4667"/>
<polygon fill="#191970" stroke="#191970" points="200.9352,-414.2059 190.6461,-411.6789 197.1136,-420.0707 200.9352,-414.2059"/>
</g>
<!-- Node127790 -->
<g id="node16" class="node">
<title>Node127790</title>
<g id="a_node16"><a xlink:href="quickjs_8c.html#afc0d8ea75588216ec132a6e1655524a7" target="_top" xlink:title="JS_NewObject">
<polygon fill="none" stroke="#ff0000" points="306.5,-544.5 306.5,-563.5 389.5,-563.5 389.5,-544.5 306.5,-544.5"/>
<text text-anchor="middle" x="348" y="-551.5" font-family="Helvetica,sans-Serif" font-size="10.00" fill="#000000">JS_NewObject</text>
</a>
</g>
</g>
<!-- Node127198&#45;&gt;Node127790 -->
<g id="edge18" class="edge">
<title>Node127198&#45;&gt;Node127790</title>
<path fill="none" stroke="#191970" d="M185.6989,-420.8607C200.8409,-449.8922 233.7993,-505.2779 278,-535 286.4642,-540.6916 296.5801,-544.6837 306.4551,-547.4819"/>
<polygon fill="#191970" stroke="#191970" points="188.7382,-419.1152 181.0968,-411.7763 182.4937,-422.2787 188.7382,-419.1152"/>
</g>
<!-- Node127343 -->
<g id="node17" class="node">
<title>Node127343</title>
<g id="a_node17"><a xlink:href="quickjs_8c.html#a21cfe4c4fc9372dc0b95b37667cff0c9" target="_top" xlink:title="JS_NewCFunction3">
<polygon fill="none" stroke="#ff0000" points="296,-582.5 296,-601.5 400,-601.5 400,-582.5 296,-582.5"/>
<text text-anchor="middle" x="348" y="-589.5" font-family="Helvetica,sans-Serif" font-size="10.00" fill="#000000">JS_NewCFunction3</text>
</a>
</g>
</g>
<!-- Node127198&#45;&gt;Node127343 -->
<g id="edge21" class="edge">
<title>Node127198&#45;&gt;Node127343</title>
<path fill="none" stroke="#191970" d="M182.614,-421.6325C194.774,-457.3719 225.4496,-533.0442 278,-573 283.3128,-577.0395 289.426,-580.2207 295.7806,-582.726"/>
<polygon fill="#191970" stroke="#191970" points="185.8679,-420.322 179.431,-411.9067 179.2151,-422.4993 185.8679,-420.322"/>
</g>
<!-- Node127352 -->
<g id="node18" class="node">
<title>Node127352</title>
<g id="a_node18"><a xlink:href="quickjs_8c.html#ac048b0ff95f3f0cb7c189e87f74df753" target="_top" xlink:title="JS_NewCFunctionData">
<polygon fill="none" stroke="#ff0000" points="288,-316.5 288,-335.5 408,-335.5 408,-316.5 288,-316.5"/>
<text text-anchor="middle" x="348" y="-323.5" font-family="Helvetica,sans-Serif" font-size="10.00" fill="#000000">JS_NewCFunctionData</text>
</a>
</g>
</g>
<!-- Node127198&#45;&gt;Node127352 -->
<g id="edge24" class="edge">
<title>Node127198&#45;&gt;Node127352</title>
<path fill="none" stroke="#191970" d="M199.5075,-386.9037C219.561,-374.2851 249.7759,-356.5477 278,-345 286.8576,-341.376 296.6254,-338.2291 305.9824,-335.5956"/>
<polygon fill="#191970" stroke="#191970" points="197.5985,-383.97 191.0524,-392.3007 201.3648,-389.8704 197.5985,-383.97"/>
</g>
<!-- Node127361 -->
<g id="node19" class="node">
<title>Node127361</title>
<g id="a_node19"><a xlink:href="quickjs_8c.html#aeafb37b03b5560171754f8c4505b0f6b" target="_top" xlink:title="JS_ThrowError2">
<polygon fill="none" stroke="#ff0000" points="304.5,-278.5 304.5,-297.5 391.5,-297.5 391.5,-278.5 304.5,-278.5"/>
<text text-anchor="middle" x="348" y="-285.5" font-family="Helvetica,sans-Serif" font-size="10.00" fill="#000000">JS_ThrowError2</text>
</a>
</g>
</g>
<!-- Node127198&#45;&gt;Node127361 -->
<g id="edge25" class="edge">
<title>Node127198&#45;&gt;Node127361</title>
<path fill="none" stroke="#191970" d="M190.5946,-384.3285C208.6253,-362.8968 241.8719,-327.1463 278,-307 286.0286,-302.523 295.1704,-299.0543 304.1376,-296.3829"/>
<polygon fill="#191970" stroke="#191970" points="187.6922,-382.3475 184.0408,-392.2932 193.0975,-386.7953 187.6922,-382.3475"/>
</g>
<!-- Node127437 -->
<g id="node20" class="node">
<title>Node127437</title>
<g id="a_node20"><a xlink:href="quickjs_8c.html#a04d312757919ff6b4d79cd0c2c3e5bb2" target="_top" xlink:title="js_build_arguments">
<polygon fill="none" stroke="#ff0000" points="297.5,-240.5 297.5,-259.5 398.5,-259.5 398.5,-240.5 297.5,-240.5"/>
<text text-anchor="middle" x="348" y="-247.5" font-family="Helvetica,sans-Serif" font-size="10.00" fill="#000000">js_build_arguments</text>
</a>
</g>
</g>
<!-- Node127198&#45;&gt;Node127437 -->
<g id="edge26" class="edge">
<title>Node127198&#45;&gt;Node127437</title>
<path fill="none" stroke="#191970" d="M185.6989,-383.1393C200.8409,-354.1078 233.7993,-298.7221 278,-269 283.8518,-265.065 290.4931,-261.9424 297.2984,-259.4651"/>
<polygon fill="#191970" stroke="#191970" points="182.4937,-381.7213 181.0968,-392.2237 188.7382,-384.8848 182.4937,-381.7213"/>
</g>
<!-- Node127409 -->
<g id="node21" class="node">
<title>Node127409</title>
<g id="a_node21"><a xlink:href="quickjs_8c.html#a1c459034f2971c4abc3a8d6d4693ef5f" target="_top" xlink:title="js_build_mapped_arguments">
<polygon fill="none" stroke="#ff0000" points="278,-202.5 278,-221.5 418,-221.5 418,-202.5 278,-202.5"/>
<text text-anchor="middle" x="348" y="-209.5" font-family="Helvetica,sans-Serif" font-size="10.00" fill="#000000">js_build_mapped_arguments</text>
</a>
</g>
</g>
<!-- Node127198&#45;&gt;Node127409 -->
<g id="edge27" class="edge">
<title>Node127198&#45;&gt;Node127409</title>
<path fill="none" stroke="#191970" d="M182.614,-382.3675C194.774,-346.6281 225.4496,-270.9558 278,-231 283.1123,-227.113 288.9658,-224.0206 295.0623,-221.5606"/>
<polygon fill="#191970" stroke="#191970" points="179.2151,-381.5007 179.431,-392.0933 185.8679,-383.678 179.2151,-381.5007"/>
</g>
<!-- Node127438 -->
<g id="node22" class="node">
<title>Node127438</title>
<g id="a_node22"><a xlink:href="quickjs_8c.html#aa40a5354bee3b56e05a71244910bcc78" target="_top" xlink:title="build_for_in_iterator">
<polygon fill="none" stroke="#ff0000" points="297.5,-164.5 297.5,-183.5 398.5,-183.5 398.5,-164.5 297.5,-164.5"/>
<text text-anchor="middle" x="348" y="-171.5" font-family="Helvetica,sans-Serif" font-size="10.00" fill="#000000">build_for_in_iterator</text>
</a>
</g>
</g>
<!-- Node127198&#45;&gt;Node127438 -->
<g id="edge28" class="edge">
<title>Node127198&#45;&gt;Node127438</title>
<path fill="none" stroke="#191970" d="M180.3179,-382.4351C189.4523,-340.9755 216.5411,-243.9178 278,-193 283.6242,-188.3404 290.2931,-184.8169 297.2446,-182.1539"/>
<polygon fill="#191970" stroke="#191970" points="176.8639,-381.8538 178.2456,-392.3582 183.716,-383.2849 176.8639,-381.8538"/>
</g>
<!-- Node127721 -->
<g id="node23" class="node">
<title>Node127721</title>
<g id="a_node23"><a xlink:href="quickjs_8c.html#a93dbf502b17d1328c524401335f60499" target="_top" xlink:title="js_create_from_ctor">
<polygon fill="none" stroke="#ff0000" points="296.5,-126.5 296.5,-145.5 399.5,-145.5 399.5,-126.5 296.5,-126.5"/>
<text text-anchor="middle" x="348" y="-133.5" font-family="Helvetica,sans-Serif" font-size="10.00" fill="#000000">js_create_from_ctor</text>
</a>
</g>
</g>
<!-- Node127198&#45;&gt;Node127721 -->
<g id="edge30" class="edge">
<title>Node127198&#45;&gt;Node127721</title>
<path fill="none" stroke="#191970" d="M178.6962,-382.4783C185.005,-335.8388 207.506,-217.1997 278,-155 283.2877,-150.3344 289.6117,-146.8008 296.2655,-144.1273"/>
<polygon fill="#191970" stroke="#191970" points="175.2141,-382.1178 177.4481,-392.4744 182.1602,-382.9851 175.2141,-382.1178"/>
</g>
<!-- Node127793 -->
<g id="node24" class="node">
<title>Node127793</title>
<g id="a_node24"><a xlink:href="quickjs_8c.html#a7068f4cd630e0bb554ea300ddb389715" target="_top" xlink:title="js_async_function_resolve\l_create">
<polygon fill="none" stroke="#ff0000" points="282,-77 282,-107 414,-107 414,-77 282,-77"/>
<text text-anchor="start" x="290" y="-95" font-family="Helvetica,sans-Serif" font-size="10.00" fill="#000000">js_async_function_resolve</text>
<text text-anchor="middle" x="348" y="-84" font-family="Helvetica,sans-Serif" font-size="10.00" fill="#000000">_create</text>
</a>
</g>
</g>
<!-- Node127198&#45;&gt;Node127793 -->
<g id="edge31" class="edge">
<title>Node127198&#45;&gt;Node127793</title>
<path fill="none" stroke="#191970" d="M177.8565,-382.3356C182.4178,-331.3435 201.5539,-193.5141 278,-117 281.8308,-113.1658 286.2887,-109.9168 291.0649,-107.1642"/>
<polygon fill="#191970" stroke="#191970" points="174.364,-382.1032 177.0532,-392.351 181.3416,-382.6629 174.364,-382.1032"/>
</g>
<!-- Node127794 -->
<g id="node25" class="node">
<title>Node127794</title>
<g id="a_node25"><a xlink:href="quickjs_8c.html#a2d91a9da16cf07ff3b9ec053b870c335" target="_top" xlink:title="js_create_module_function">
<polygon fill="none" stroke="#ff0000" points="281.5,-38.5 281.5,-57.5 414.5,-57.5 414.5,-38.5 281.5,-38.5"/>
<text text-anchor="middle" x="348" y="-45.5" font-family="Helvetica,sans-Serif" font-size="10.00" fill="#000000">js_create_module_function</text>
</a>
</g>
</g>
<!-- Node127198&#45;&gt;Node127794 -->
<g id="edge32" class="edge">
<title>Node127198&#45;&gt;Node127794</title>
<path fill="none" stroke="#191970" d="M179.9327,-382.1274C191.5402,-317.1311 231.2215,-112.4344 278,-67 281.9745,-63.1397 286.6507,-60.045 291.6699,-57.5669"/>
<polygon fill="#191970" stroke="#191970" points="176.436,-381.8041 178.1501,-392.2593 183.3301,-383.0171 176.436,-381.8041"/>
</g>
<!-- Node127630 -->
<g id="node26" class="node">
<title>Node127630</title>
<g id="a_node26"><a xlink:href="quickjs_8c.html#ac6d5606ba25525b3a03981eefbe98e13" target="_top" xlink:title="js_function_bind">
<polygon fill="none" stroke="#000000" points="304.5,-.5 304.5,-19.5 391.5,-19.5 391.5,-.5 304.5,-.5"/>
<text text-anchor="middle" x="348" y="-7.5" font-family="Helvetica,sans-Serif" font-size="10.00" fill="#000000">js_function_bind</text>
</a>
</g>
</g>
<!-- Node127198&#45;&gt;Node127630 -->
<g id="edge33" class="edge">
<title>Node127198&#45;&gt;Node127630</title>
<path fill="none" stroke="#191970" d="M179.2738,-382.1777C189.4031,-312.5283 226.5127,-80.4542 278,-29 285.1257,-21.8789 294.6337,-17.353 304.3393,-14.4958"/>
<polygon fill="#191970" stroke="#191970" points="175.7858,-381.8458 177.8352,-392.2405 182.7153,-382.8365 175.7858,-381.8458"/>
</g>
<!-- Node127239 -->
<g id="node27" class="node">
<title>Node127239</title>
<g id="a_node27"><a xlink:href="quickjs_8c.html#ad25358fc5ae69ab218abde24d52b7767" target="_top" xlink:title="js_error_constructor">
<polygon fill="none" stroke="#000000" points="296.5,-506.5 296.5,-525.5 399.5,-525.5 399.5,-506.5 296.5,-506.5"/>
<text text-anchor="middle" x="348" y="-513.5" font-family="Helvetica,sans-Serif" font-size="10.00" fill="#000000">js_error_constructor</text>
</a>
</g>
</g>
<!-- Node127198&#45;&gt;Node127239 -->
<g id="edge34" class="edge">
<title>Node127198&#45;&gt;Node127239</title>
<path fill="none" stroke="#191970" d="M191.5796,-418.9498C210.148,-438.9072 243.488,-471.878 278,-492 288.2107,-497.9533 300.123,-502.7272 311.1951,-506.4006"/>
<polygon fill="#191970" stroke="#191970" points="194.1106,-416.5311 184.7814,-411.5095 188.9429,-421.2528 194.1106,-416.5311"/>
</g>
<!-- Node127795 -->
<g id="node28" class="node">
<title>Node127795</title>
<g id="a_node28"><a xlink:href="quickjs_8c.html#a57af8ddae60fbd0080e34d23ce2a04a6" target="_top" xlink:title="js_aggregate_error\l_constructor">
<polygon fill="none" stroke="#ff0000" points="299.5,-709 299.5,-739 396.5,-739 396.5,-709 299.5,-709"/>
<text text-anchor="start" x="307.5" y="-727" font-family="Helvetica,sans-Serif" font-size="10.00" fill="#000000">js_aggregate_error</text>
<text text-anchor="middle" x="348" y="-716" font-family="Helvetica,sans-Serif" font-size="10.00" fill="#000000">_constructor</text>
</a>
</g>
</g>
<!-- Node127198&#45;&gt;Node127795 -->
<g id="edge36" class="edge">
<title>Node127198&#45;&gt;Node127795</title>
<path fill="none" stroke="#191970" d="M177.5361,-421.7853C181.3443,-474.3187 198.8579,-618.7648 278,-699 283.981,-705.0636 291.5308,-709.6623 299.4428,-713.1485"/>
<polygon fill="#191970" stroke="#191970" points="181.0268,-421.5257 176.9003,-411.7675 174.0408,-421.9692 181.0268,-421.5257"/>
</g>
<!-- Node127796 -->
<g id="node29" class="node">
<title>Node127796</title>
<g id="a_node29"><a xlink:href="quickjs_8c.html#aabd74747b51e480d80dc19914e74a3a5" target="_top" xlink:title="js_proxy_constructor">
<polygon fill="none" stroke="#ff0000" points="294.5,-670.5 294.5,-689.5 401.5,-689.5 401.5,-670.5 294.5,-670.5"/>
<text text-anchor="middle" x="348" y="-677.5" font-family="Helvetica,sans-Serif" font-size="10.00" fill="#000000">js_proxy_constructor</text>
</a>
</g>
</g>
<!-- Node127198&#45;&gt;Node127796 -->
<g id="edge37" class="edge">
<title>Node127198&#45;&gt;Node127796</title>
<path fill="none" stroke="#191970" d="M178.311,-421.8078C183.82,-470.2098 204.7792,-595.3189 278,-661 282.7806,-665.2884 288.4346,-668.6221 294.4243,-671.2115"/>
<polygon fill="#191970" stroke="#191970" points="181.7774,-421.3018 177.2649,-411.716 174.8147,-422.0236 181.7774,-421.3018"/>
</g>
<!-- Node127358 -->
<g id="node30" class="node">
<title>Node127358</title>
<g id="a_node30"><a xlink:href="quickjs_8c.html#a37cac335cb6abd3c24e162ad57f418f1" target="_top" xlink:title="js_create_resolving\l_functions">
<polygon fill="none" stroke="#ff0000" points="297.5,-621 297.5,-651 398.5,-651 398.5,-621 297.5,-621"/>
<text text-anchor="start" x="305.5" y="-639" font-family="Helvetica,sans-Serif" font-size="10.00" fill="#000000">js_create_resolving</text>
<text text-anchor="middle" x="348" y="-628" font-family="Helvetica,sans-Serif" font-size="10.00" fill="#000000">_functions</text>
</a>
</g>
</g>
<!-- Node127198&#45;&gt;Node127358 -->
<g id="edge38" class="edge">
<title>Node127198&#45;&gt;Node127358</title>
<path fill="none" stroke="#191970" d="M180.7688,-421.7698C190.6368,-462.8397 218.8477,-557.9718 278,-611 283.5731,-615.9961 290.214,-620.0116 297.1528,-623.2344"/>
<polygon fill="#191970" stroke="#191970" points="184.1546,-420.8752 178.5074,-411.9108 177.3317,-422.4402 184.1546,-420.8752"/>
</g>
<!-- Node127200 -->
<g id="node7" class="node">
<title>Node127200</title>
<g id="a_node7"><a xlink:href="structqjs_1_1js__traits_3_01std_1_1shared__ptr_3_01T_01_4_01_4.html#a046f811ae16e0cb24170a8425f3e8780" target="_top" xlink:title="Create a JSValue from std::shared_ptr&lt;T&gt;. ">
<polygon fill="none" stroke="#000000" points="462,-381 462,-411 590,-411 590,-381 462,-381"/>
<text text-anchor="start" x="470" y="-399" font-family="Helvetica,sans-Serif" font-size="10.00" fill="#000000">qjs::js_traits&lt; std</text>
<text text-anchor="middle" x="526" y="-388" font-family="Helvetica,sans-Serif" font-size="10.00" fill="#000000">::shared_ptr&lt; T &gt; &gt;::wrap</text>
</a>
</g>
</g>
<!-- Node127199&#45;&gt;Node127200 -->
<g id="edge6" class="edge">
<title>Node127199&#45;&gt;Node127200</title>
<path fill="none" stroke="#191970" d="M411.0203,-375.3295C427.5444,-378.3001 445.378,-381.5062 461.955,-384.4863"/>
<polygon fill="#191970" stroke="#191970" points="411.3855,-371.8391 400.9239,-373.5144 410.1468,-378.7287 411.3855,-371.8391"/>
</g>
<!-- Node127201 -->
<g id="node8" class="node">
<title>Node127201</title>
<g id="a_node8"><a xlink:href="structqjs_1_1js__traits_3_01std_1_1function_3_01R_07Args_8_8_8_08_4_01_4.html#a6812a672334111ba5228e64816e55490" target="_top" xlink:title="Convert from function object functor to JSValue. ">
<polygon fill="none" stroke="#000000" points="471.5,-320.5 471.5,-361.5 580.5,-361.5 580.5,-320.5 471.5,-320.5"/>
<text text-anchor="start" x="479.5" y="-349.5" font-family="Helvetica,sans-Serif" font-size="10.00" fill="#000000">qjs::js_traits&lt; std</text>
<text text-anchor="start" x="479.5" y="-338.5" font-family="Helvetica,sans-Serif" font-size="10.00" fill="#000000">::function&lt; R(Args...)</text>
<text text-anchor="middle" x="526" y="-327.5" font-family="Helvetica,sans-Serif" font-size="10.00" fill="#000000">&gt; &gt;::wrap</text>
</a>
</g>
</g>
<!-- Node127199&#45;&gt;Node127201 -->
<g id="edge7" class="edge">
<title>Node127199&#45;&gt;Node127201</title>
<path fill="none" stroke="#191970" d="M412.3133,-355.6899C431.6574,-353.1903 452.6911,-350.4725 471.3465,-348.062"/>
<polygon fill="#191970" stroke="#191970" points="411.8421,-352.2216 402.3731,-356.9743 412.7392,-359.1638 411.8421,-352.2216"/>
</g>
<!-- Node127202 -->
<g id="node9" class="node">
<title>Node127202</title>
<g id="a_node9"><a xlink:href="quickjs-libc_8c.html#a4f611dfcb682754b3f25bb3e06f61ab5" target="_top" xlink:title="js_new_std_file">
<polygon fill="none" stroke="#ff0000" points="484,-282.5 484,-301.5 568,-301.5 568,-282.5 484,-282.5"/>
<text text-anchor="middle" x="526" y="-289.5" font-family="Helvetica,sans-Serif" font-size="10.00" fill="#000000">js_new_std_file</text>
</a>
</g>
</g>
<!-- Node127199&#45;&gt;Node127202 -->
<g id="edge8" class="edge">
<title>Node127199&#45;&gt;Node127202</title>
<path fill="none" stroke="#191970" d="M405.5319,-350.9102C409.8559,-349.1687 414.0628,-347.2071 418,-345 437.1971,-334.2382 434.7651,-321.6942 454,-311 463.1522,-305.9116 473.7209,-302.141 483.8935,-299.3638"/>
<polygon fill="#191970" stroke="#191970" points="404.1512,-347.6876 395.9383,-354.3809 406.5326,-354.2701 404.1512,-347.6876"/>
</g>
<!-- Node127210 -->
<g id="node10" class="node">
<title>Node127210</title>
<g id="a_node10"><a xlink:href="quickjs-libc_8c.html#acd6d7f2e207ed1d263e55bed721a7288" target="_top" xlink:title="js_os_setTimeout">
<polygon fill="none" stroke="#000000" points="479,-244.5 479,-263.5 573,-263.5 573,-244.5 479,-244.5"/>
<text text-anchor="middle" x="526" y="-251.5" font-family="Helvetica,sans-Serif" font-size="10.00" fill="#000000">js_os_setTimeout</text>
</a>
</g>
</g>
<!-- Node127199&#45;&gt;Node127210 -->
<g id="edge9" class="edge">
<title>Node127199&#45;&gt;Node127210</title>
<path fill="none" stroke="#191970" d="M411.0987,-349.836C413.5221,-348.3782 415.8367,-346.7713 418,-345 445.6816,-322.3345 426.2388,-295.568 454,-273 461.1223,-267.21 469.8321,-263.1702 478.7011,-260.3551"/>
<polygon fill="#191970" stroke="#191970" points="409.2592,-346.8445 401.9238,-354.4892 412.4255,-353.0875 409.2592,-346.8445"/>
</g>
<!-- Node127211 -->
<g id="node11" class="node">
<title>Node127211</title>
<g id="a_node11"><a xlink:href="quickjs_8c.html#a06af1db79158e3c5a51f04bb6749411c" target="_top" xlink:title="JS_NewError">
<polygon fill="none" stroke="#000000" points="488.5,-206.5 488.5,-225.5 563.5,-225.5 563.5,-206.5 488.5,-206.5"/>
<text text-anchor="middle" x="526" y="-213.5" font-family="Helvetica,sans-Serif" font-size="10.00" fill="#000000">JS_NewError</text>
</a>
</g>
</g>
<!-- Node127199&#45;&gt;Node127211 -->
<g id="edge10" class="edge">
<title>Node127199&#45;&gt;Node127211</title>
<path fill="none" stroke="#191970" d="M411.0497,-350.4814C413.5256,-348.8526 415.8603,-347.0328 418,-345 455.2938,-309.5699 416.5818,-270.2987 454,-235 463.3098,-226.2175 476.1868,-221.3863 488.4796,-218.7636"/>
<polygon fill="#191970" stroke="#191970" points="409.2763,-347.4617 402.165,-355.3154 412.6217,-353.6106 409.2763,-347.4617"/>
</g>
<!-- Node127212 -->
<g id="node12" class="node">
<title>Node127212</title>
<g id="a_node12"><a xlink:href="quickjs_8c.html#aab4130a4c3108a127681be821818528a" target="_top" xlink:title="js_closure">
<polygon fill="none" stroke="#ff0000" points="495.5,-430.5 495.5,-449.5 556.5,-449.5 556.5,-430.5 495.5,-430.5"/>
<text text-anchor="middle" x="526" y="-437.5" font-family="Helvetica,sans-Serif" font-size="10.00" fill="#000000">js_closure</text>
</a>
</g>
</g>
<!-- Node127199&#45;&gt;Node127212 -->
<g id="edge11" class="edge">
<title>Node127199&#45;&gt;Node127212</title>
<path fill="none" stroke="#191970" d="M394.2942,-376.9543C402.447,-380.0447 410.6637,-383.7166 418,-388 436.4869,-398.7938 435.201,-409.7595 454,-420 466.7597,-426.9507 482.136,-431.6477 495.3969,-434.7325"/>
<polygon fill="#191970" stroke="#191970" points="395.4041,-373.6344 384.8094,-373.5917 393.065,-380.2321 395.4041,-373.6344"/>
</g>
<!-- Node127787&#45;&gt;Node127195 -->
<g id="edge15" class="edge">
<title>Node127787&#45;&gt;Node127195</title>
<path fill="none" stroke="#191970" d="M368.9653,-455.9198C383.189,-466.9952 402.2055,-482.3476 418,-497 435.0555,-512.8223 435.4658,-520.9388 454,-535 469.314,-546.6181 488.6772,-556.6166 503.4653,-563.4374"/>
<polygon fill="#191970" stroke="#191970" points="370.8557,-452.9577 360.8,-449.6209 366.5801,-458.5002 370.8557,-452.9577"/>
</g>
<!-- Node127787&#45;&gt;Node127212 -->
<g id="edge13" class="edge">
<title>Node127787&#45;&gt;Node127212</title>
<path fill="none" stroke="#191970" d="M411.7052,-440C440.1893,-440 472.4431,-440 495.407,-440"/>
<polygon fill="#191970" stroke="#191970" points="411.4059,-436.5001 401.4059,-440 411.4058,-443.5001 411.4059,-436.5001"/>
</g>
<!-- Node127787&#45;&gt;Node127435 -->
<g id="edge14" class="edge">
<title>Node127787&#45;&gt;Node127435</title>
<path fill="none" stroke="#191970" d="M402.7162,-451.681C427.959,-457.0699 457.5452,-463.3861 481.4061,-468.4799"/>
<polygon fill="#191970" stroke="#191970" points="403.4273,-448.254 392.9169,-449.589 401.9658,-455.0997 403.4273,-448.254"/>
</g>
<!-- Node127787&#45;&gt;Node127240 -->
<g id="edge16" class="edge">
<title>Node127787&#45;&gt;Node127240</title>
<path fill="none" stroke="#191970" d="M394.8771,-453.0638C402.8501,-456.1219 410.8546,-459.7544 418,-464 436.6598,-475.0871 434.9518,-486.5945 454,-497 461.0342,-500.8426 468.8843,-503.9384 476.7426,-506.4237"/>
<polygon fill="#191970" stroke="#191970" points="395.8219,-449.6847 385.2273,-449.6158 393.4665,-456.2765 395.8219,-449.6847"/>
</g>
<!-- Node127240&#45;&gt;Node127197 -->
<g id="edge17" class="edge">
<title>Node127240&#45;&gt;Node127197</title>
<path fill="none" stroke="#191970" d="M607.3721,-521.1969C662.565,-524.7218 733.4494,-529.2489 778.6895,-532.1382"/>
<polygon fill="#191970" stroke="#191970" points="607.4614,-517.6955 597.2587,-520.551 607.0152,-524.6813 607.4614,-517.6955"/>
</g>
<!-- Node127790&#45;&gt;Node127195 -->
<g id="edge19" class="edge">
<title>Node127790&#45;&gt;Node127195</title>
<path fill="none" stroke="#191970" d="M399.9233,-559.5424C416.7828,-561.342 435.8038,-563.3723 453.8632,-565.3"/>
<polygon fill="#191970" stroke="#191970" points="400.0481,-556.0359 389.7331,-558.4547 399.3051,-562.9964 400.0481,-556.0359"/>
</g>
<!-- Node127790&#45;&gt;Node127240 -->
<g id="edge20" class="edge">
<title>Node127790&#45;&gt;Node127240</title>
<path fill="none" stroke="#191970" d="M399.7387,-542.9547C425.6107,-537.4314 456.6094,-530.8137 481.4168,-525.5178"/>
<polygon fill="#191970" stroke="#191970" points="398.782,-539.58 389.7331,-545.0907 400.2435,-546.4257 398.782,-539.58"/>
</g>
<!-- Node127343&#45;&gt;Node127195 -->
<g id="edge22" class="edge">
<title>Node127343&#45;&gt;Node127195</title>
<path fill="none" stroke="#191970" d="M410.4533,-585.3336C424.466,-583.8379 439.4451,-582.239 453.8171,-580.7049"/>
<polygon fill="#191970" stroke="#191970" points="410.0151,-581.8604 400.4431,-586.4021 410.7582,-588.8209 410.0151,-581.8604"/>
</g>
<!-- Node127343&#45;&gt;Node127240 -->
<g id="edge23" class="edge">
<title>Node127343&#45;&gt;Node127240</title>
<path fill="none" stroke="#191970" d="M399.2075,-579.5124C405.6055,-577.5405 412.0029,-575.3629 418,-573 418.1456,-572.9426 476.9426,-541.9016 507.7092,-525.6575"/>
<polygon fill="#191970" stroke="#191970" points="397.8245,-576.2704 389.2106,-582.439 399.7912,-582.9884 397.8245,-576.2704"/>
</g>
<!-- Node127239&#45;&gt;Node127240 -->
<g id="edge35" class="edge">
<title>Node127239&#45;&gt;Node127240</title>
<path fill="none" stroke="#191970" d="M410.2353,-516C424.6253,-516 440.0446,-516 454.7853,-516"/>
<polygon fill="#191970" stroke="#191970" points="409.9635,-512.5001 399.9635,-516 409.9634,-519.5001 409.9635,-512.5001"/>
</g>
</g>
</svg>
