<?xml version="1.0" encoding="UTF-8" standalone="no"?>
<!DOCTYPE svg PUBLIC "-//W3C//DTD SVG 1.1//EN"
 "http://www.w3.org/Graphics/SVG/1.1/DTD/svg11.dtd">
<!-- Generated by graphviz version 2.40.1 (20161225.0304)
 -->
<!-- Title: JS_ThrowTypeErrorReadOnly Pages: 1 -->
<!--zoomable 142 -->
<svg id="main" version="1.1" xmlns="http://www.w3.org/2000/svg" xmlns:xlink="http://www.w3.org/1999/xlink" xml:space="preserve" onload="init(evt)">
<style type="text/css"><![CDATA[
.edge:hover path { stroke: red; }
.edge:hover polygon { stroke: red; fill: red; }
]]></style>
<script type="text/javascript"><![CDATA[
var edges = document.getElementsByTagName('g');
if (edges && edges.length) {
  for (var i=0;i<edges.length;i++) {
    if (edges[i].id.substr(0,4)=='edge') {
      edges[i].setAttribute('class','edge');
    }
  }
}
]]></script>
        <defs>
                <circle id="rim" cx="0" cy="0" r="7"/>
                <circle id="rim2" cx="0" cy="0" r="3.5"/>
                <g id="zoomPlus">
                        <use xlink:href="#rim" fill="#404040">
                                <set attributeName="fill" to="#808080" begin="zoomplus.mouseover" end="zoomplus.mouseout"/>
                        </use>
                        <path d="M-4,0h8M0,-4v8" fill="none" stroke="white" stroke-width="1.5" pointer-events="none"/>
                </g>
                <g id="zoomMin">
                        <use xlink:href="#rim" fill="#404040">
                                <set attributeName="fill" to="#808080" begin="zoomminus.mouseover" end="zoomminus.mouseout"/>
                        </use>
                        <path d="M-4,0h8" fill="none" stroke="white" stroke-width="1.5" pointer-events="none"/>
                </g>
                <g id="dirArrow">
                        <path fill="none" stroke="white" stroke-width="1.5" d="M0,-3.0v7 M-2.5,-0.5L0,-3.0L2.5,-0.5"/>
                </g>
               <g id="resetDef">
                       <use xlink:href="#rim2" fill="#404040">
                               <set attributeName="fill" to="#808080" begin="reset.mouseover" end="reset.mouseout"/>
                       </use>
               </g>
        </defs>

<script type="text/javascript">
var viewWidth = 567;
var viewHeight = 142;
var sectionId = 'dynsection-496';
</script>
<script xlink:href="svgpan.js"/>
<svg id="graph" class="graph">
<g id="viewport">
<title>JS_ThrowTypeErrorReadOnly</title>
<!-- Node160925 -->
<g id="node1" class="node">
<title>Node160925</title>
<polygon fill="#bfbfbf" stroke="#000000" points="0,-76.5 0,-95.5 147,-95.5 147,-76.5 0,-76.5"/>
<text text-anchor="middle" x="73.5" y="-83.5" font-family="Helvetica,sans-Serif" font-size="10.00" fill="#000000">JS_ThrowTypeErrorReadOnly</text>
</g>
<!-- Node160926 -->
<g id="node2" class="node">
<title>Node160926</title>
<g id="a_node2"><a xlink:href="quickjs_8c.html#a686cf78f8b0361621ee2ba6182195c31" target="_top" xlink:title="is_strict_mode">
<polygon fill="none" stroke="#000000" points="186,-95.5 186,-114.5 266,-114.5 266,-95.5 186,-95.5"/>
<text text-anchor="middle" x="226" y="-102.5" font-family="Helvetica,sans-Serif" font-size="10.00" fill="#000000">is_strict_mode</text>
</a>
</g>
</g>
<!-- Node160925&#45;&gt;Node160926 -->
<g id="edge1" class="edge">
<title>Node160925&#45;&gt;Node160926</title>
<path fill="none" stroke="#191970" d="M147.0698,-95.1661C156.8096,-96.3796 166.6077,-97.6003 175.8275,-98.749"/>
<polygon fill="#191970" stroke="#191970" points="175.6013,-102.2478 185.9573,-100.0111 176.4668,-95.3015 175.6013,-102.2478"/>
</g>
<!-- Node160927 -->
<g id="node3" class="node">
<title>Node160927</title>
<g id="a_node3"><a xlink:href="quickjs_8c.html#ab18048ab5eea3e47109a5473f78515bc" target="_top" xlink:title="JS_AtomGetStr">
<polygon fill="none" stroke="#000000" points="183,-57.5 183,-76.5 269,-76.5 269,-57.5 183,-57.5"/>
<text text-anchor="middle" x="226" y="-64.5" font-family="Helvetica,sans-Serif" font-size="10.00" fill="#000000">JS_AtomGetStr</text>
</a>
</g>
</g>
<!-- Node160925&#45;&gt;Node160927 -->
<g id="edge2" class="edge">
<title>Node160925&#45;&gt;Node160927</title>
<path fill="none" stroke="#191970" d="M147.0698,-76.8339C155.6385,-75.7663 164.2524,-74.6931 172.4779,-73.6683"/>
<polygon fill="#191970" stroke="#191970" points="173.1661,-77.1097 182.6566,-72.4002 172.3006,-70.1634 173.1661,-77.1097"/>
</g>
<!-- Node160928 -->
<g id="node4" class="node">
<title>Node160928</title>
<g id="a_node4"><a xlink:href="quickjs_8c.html#a4e63c63058f1efe20ee939c165f7b3ad" target="_top" xlink:title="JS_AtomGetStrRT">
<polygon fill="none" stroke="#000000" points="305,-57.5 305,-76.5 404,-76.5 404,-57.5 305,-57.5"/>
<text text-anchor="middle" x="354.5" y="-64.5" font-family="Helvetica,sans-Serif" font-size="10.00" fill="#000000">JS_AtomGetStrRT</text>
</a>
</g>
</g>
<!-- Node160927&#45;&gt;Node160928 -->
<g id="edge3" class="edge">
<title>Node160927&#45;&gt;Node160928</title>
<path fill="none" stroke="#191970" d="M269.1461,-67C277.2324,-67 285.8205,-67 294.3134,-67"/>
<polygon fill="#191970" stroke="#191970" points="294.5858,-70.5001 304.5858,-67 294.5857,-63.5001 294.5858,-70.5001"/>
</g>
<!-- Node160929 -->
<g id="node5" class="node">
<title>Node160929</title>
<g id="a_node5"><a xlink:href="quickjs_8c.html#a288254c06a39c9fca740a7abdad2834e" target="_top" xlink:title="__JS_AtomIsTaggedInt">
<polygon fill="none" stroke="#000000" points="440,-114.5 440,-133.5 559,-133.5 559,-114.5 440,-114.5"/>
<text text-anchor="middle" x="499.5" y="-121.5" font-family="Helvetica,sans-Serif" font-size="10.00" fill="#000000">__JS_AtomIsTaggedInt</text>
</a>
</g>
</g>
<!-- Node160928&#45;&gt;Node160929 -->
<g id="edge4" class="edge">
<title>Node160928&#45;&gt;Node160929</title>
<path fill="none" stroke="#191970" d="M374.2822,-76.5309C391.4484,-84.6223 417.076,-96.2755 440,-105 445.6484,-107.1497 451.6576,-109.264 457.6028,-111.2563"/>
<polygon fill="#191970" stroke="#191970" points="456.8801,-114.7021 467.4725,-114.4789 459.0528,-108.0478 456.8801,-114.7021"/>
</g>
<!-- Node160930 -->
<g id="node6" class="node">
<title>Node160930</title>
<g id="a_node6"><a xlink:href="quickjs_8c.html#a89f38938cee8077ce1fbba07946ed185" target="_top" xlink:title="__JS_AtomToUInt32">
<polygon fill="none" stroke="#000000" points="445.5,-76.5 445.5,-95.5 553.5,-95.5 553.5,-76.5 445.5,-76.5"/>
<text text-anchor="middle" x="499.5" y="-83.5" font-family="Helvetica,sans-Serif" font-size="10.00" fill="#000000">__JS_AtomToUInt32</text>
</a>
</g>
</g>
<!-- Node160928&#45;&gt;Node160930 -->
<g id="edge5" class="edge">
<title>Node160928&#45;&gt;Node160930</title>
<path fill="none" stroke="#191970" d="M404.4008,-73.5387C414.2312,-74.8269 424.6776,-76.1957 434.9112,-77.5366"/>
<polygon fill="#191970" stroke="#191970" points="434.6732,-81.0353 445.0432,-78.8643 435.5827,-74.0946 434.6732,-81.0353"/>
</g>
<!-- Node160931 -->
<g id="node7" class="node">
<title>Node160931</title>
<g id="a_node7"><a xlink:href="quickjs_8c.html#ac3bdf708c1dc092fd52508b5d29bd0ce" target="_top" xlink:title="atom_is_free">
<polygon fill="none" stroke="#000000" points="463,-38.5 463,-57.5 536,-57.5 536,-38.5 463,-38.5"/>
<text text-anchor="middle" x="499.5" y="-45.5" font-family="Helvetica,sans-Serif" font-size="10.00" fill="#000000">atom_is_free</text>
</a>
</g>
</g>
<!-- Node160928&#45;&gt;Node160931 -->
<g id="edge6" class="edge">
<title>Node160928&#45;&gt;Node160931</title>
<path fill="none" stroke="#191970" d="M404.4008,-60.4613C419.9759,-58.4204 437.0972,-56.1769 452.4686,-54.1627"/>
<polygon fill="#191970" stroke="#191970" points="453.3298,-57.5799 462.7903,-52.8102 452.4203,-50.6392 453.3298,-57.5799"/>
</g>
<!-- Node160932 -->
<g id="node8" class="node">
<title>Node160932</title>
<g id="a_node8"><a xlink:href="cutils_8h.html#aad4e0decb15ab19e9f45b0ee69542a28" target="_top" xlink:title="unicode_to_utf8">
<polygon fill="none" stroke="#000000" points="456.5,-.5 456.5,-19.5 542.5,-19.5 542.5,-.5 456.5,-.5"/>
<text text-anchor="middle" x="499.5" y="-7.5" font-family="Helvetica,sans-Serif" font-size="10.00" fill="#000000">unicode_to_utf8</text>
</a>
</g>
</g>
<!-- Node160928&#45;&gt;Node160932 -->
<g id="edge7" class="edge">
<title>Node160928&#45;&gt;Node160932</title>
<path fill="none" stroke="#191970" d="M374.2822,-57.4691C391.4484,-49.3777 417.076,-37.7245 440,-29 445.6484,-26.8503 451.6576,-24.736 457.6028,-22.7437"/>
<polygon fill="#191970" stroke="#191970" points="459.0528,-25.9522 467.4725,-19.5211 456.8801,-19.2979 459.0528,-25.9522"/>
</g>
</g>
</svg>
        <g id="navigator" transform="translate(0 0)" fill="#404254">
                <rect fill="#f2f5e9" fill-opacity="0.5" stroke="#606060" stroke-width=".5" x="0" y="0" width="60" height="60"/>
                <use id="zoomplus" xlink:href="#zoomPlus" x="17" y="9" onmousedown="handleZoom(evt,'in')"/>
                <use id="zoomminus" xlink:href="#zoomMin" x="42" y="9" onmousedown="handleZoom(evt,'out')"/>
                <use id="reset" xlink:href="#resetDef" x="30" y="36" onmousedown="handleReset()"/>
                <g id="arrowUp" xlink:href="#dirArrow" transform="translate(30 24)" onmousedown="handlePan(0,-1)">
                  <use xlink:href="#rim" fill="#404040">
                        <set attributeName="fill" to="#808080" begin="arrowUp.mouseover" end="arrowUp.mouseout"/>
                  </use>
                  <path fill="none" stroke="white" stroke-width="1.5" d="M0,-3.0v7 M-2.5,-0.5L0,-3.0L2.5,-0.5"/>
                </g>
                <g id="arrowRight" xlink:href="#dirArrow" transform="rotate(90) translate(36 -43)" onmousedown="handlePan(1,0)">
                  <use xlink:href="#rim" fill="#404040">
                        <set attributeName="fill" to="#808080" begin="arrowRight.mouseover" end="arrowRight.mouseout"/>
                  </use>
                  <path fill="none" stroke="white" stroke-width="1.5" d="M0,-3.0v7 M-2.5,-0.5L0,-3.0L2.5,-0.5"/>
                </g>
                <g id="arrowDown" xlink:href="#dirArrow" transform="rotate(180) translate(-30 -48)" onmousedown="handlePan(0,1)">
                  <use xlink:href="#rim" fill="#404040">
                        <set attributeName="fill" to="#808080" begin="arrowDown.mouseover" end="arrowDown.mouseout"/>
                  </use>
                  <path fill="none" stroke="white" stroke-width="1.5" d="M0,-3.0v7 M-2.5,-0.5L0,-3.0L2.5,-0.5"/>
                </g>
                <g id="arrowLeft" xlink:href="#dirArrow" transform="rotate(270) translate(-36 17)" onmousedown="handlePan(-1,0)">
                  <use xlink:href="#rim" fill="#404040">
                        <set attributeName="fill" to="#808080" begin="arrowLeft.mouseover" end="arrowLeft.mouseout"/>
                  </use>
                  <path fill="none" stroke="white" stroke-width="1.5" d="M0,-3.0v7 M-2.5,-0.5L0,-3.0L2.5,-0.5"/>
                </g>
        </g>
        <svg viewBox="0 0 15 15" width="100%" height="30px" preserveAspectRatio="xMaxYMin meet">
         <g id="arrow_out" transform="scale(0.3 0.3)">
          <a xlink:href="quickjs_8c_adba489eac6c2332de312326782457940_cgraph_org.svg" target="_base">
           <rect id="button" ry="5" rx="5" y="6" x="6" height="38" width="38"
                fill="#f2f5e9" fill-opacity="0.5" stroke="#606060" stroke-width="1.0"/>
           <path id="arrow"
             d="M 11.500037,31.436501 C 11.940474,20.09759 22.043105,11.32322 32.158766,21.979434 L 37.068811,17.246167 C 37.068811,17.246167 37.088388,32 37.088388,32 L 22.160133,31.978069 C 22.160133,31.978069 26.997745,27.140456 26.997745,27.140456 C 18.528582,18.264221 13.291696,25.230495 11.500037,31.436501 z"
             style="fill:#404040;"/>
          </a>
         </g>
        </svg>
</svg>
