<?xml version="1.0" encoding="UTF-8" standalone="no"?>
<!DOCTYPE svg PUBLIC "-//W3C//DTD SVG 1.1//EN"
 "http://www.w3.org/Graphics/SVG/1.1/DTD/svg11.dtd">
<!-- Generated by graphviz version 2.40.1 (20161225.0304)
 -->
<!-- Title: add_func_var Pages: 1 -->
<svg width="419pt" height="104pt"
 viewBox="0.00 0.00 419.00 104.00" xmlns="http://www.w3.org/2000/svg" xmlns:xlink="http://www.w3.org/1999/xlink">
<g id="graph0" class="graph" transform="scale(1 1) rotate(0) translate(4 100)">
<title>add_func_var</title>
<!-- Node299639 -->
<g id="node1" class="node">
<title>Node299639</title>
<polygon fill="#bfbfbf" stroke="#000000" points="0,-38.5 0,-57.5 75,-57.5 75,-38.5 0,-38.5"/>
<text text-anchor="middle" x="37.5" y="-45.5" font-family="Helvetica,sans-Serif" font-size="10.00" fill="#000000">add_func_var</text>
</g>
<!-- Node299640 -->
<g id="node2" class="node">
<title>Node299640</title>
<g id="a_node2"><a xlink:href="quickjs_8c.html#ab2e0855c4317f8e3b05c0a091bc43a29" target="_top" xlink:title="add_var">
<polygon fill="none" stroke="#000000" points="111,-38.5 111,-57.5 162,-57.5 162,-38.5 111,-38.5"/>
<text text-anchor="middle" x="136.5" y="-45.5" font-family="Helvetica,sans-Serif" font-size="10.00" fill="#000000">add_var</text>
</a>
</g>
</g>
<!-- Node299639&#45;&gt;Node299640 -->
<g id="edge1" class="edge">
<title>Node299639&#45;&gt;Node299640</title>
<path fill="none" stroke="#191970" d="M75.2101,-48C83.5859,-48 92.4398,-48 100.735,-48"/>
<polygon fill="#191970" stroke="#191970" points="100.8653,-51.5001 110.8652,-48 100.8652,-44.5001 100.8653,-51.5001"/>
</g>
<!-- Node299641 -->
<g id="node3" class="node">
<title>Node299641</title>
<g id="a_node3"><a xlink:href="quickjs_8c.html#a853f0924d441ea4225488f37c8b69f9a" target="_top" xlink:title="__attribute__">
<polygon fill="none" stroke="#000000" points="199,-76.5 199,-95.5 272,-95.5 272,-76.5 199,-76.5"/>
<text text-anchor="middle" x="235.5" y="-83.5" font-family="Helvetica,sans-Serif" font-size="10.00" fill="#000000">__attribute__</text>
</a>
</g>
</g>
<!-- Node299640&#45;&gt;Node299641 -->
<g id="edge2" class="edge">
<title>Node299640&#45;&gt;Node299641</title>
<path fill="none" stroke="#191970" d="M161.4819,-57.589C173.4411,-62.1794 187.9548,-67.7503 200.951,-72.7388"/>
<polygon fill="#191970" stroke="#191970" points="199.936,-76.0981 210.5261,-76.4141 202.4445,-69.563 199.936,-76.0981"/>
</g>
<!-- Node299642 -->
<g id="node4" class="node">
<title>Node299642</title>
<g id="a_node4"><a xlink:href="quickjs_8c.html#abbf44eaeace1104a6bef718fbf5700fe" target="_top" xlink:title="JS_DupAtom">
<polygon fill="none" stroke="#000000" points="198,-38.5 198,-57.5 273,-57.5 273,-38.5 198,-38.5"/>
<text text-anchor="middle" x="235.5" y="-45.5" font-family="Helvetica,sans-Serif" font-size="10.00" fill="#000000">JS_DupAtom</text>
</a>
</g>
</g>
<!-- Node299640&#45;&gt;Node299642 -->
<g id="edge3" class="edge">
<title>Node299640&#45;&gt;Node299642</title>
<path fill="none" stroke="#191970" d="M162.2526,-48C170.0765,-48 178.9377,-48 187.7262,-48"/>
<polygon fill="#191970" stroke="#191970" points="187.9434,-51.5001 197.9433,-48 187.9433,-44.5001 187.9434,-51.5001"/>
</g>
<!-- Node299644 -->
<g id="node6" class="node">
<title>Node299644</title>
<g id="a_node6"><a xlink:href="cutils_8h.html#a94f155fcce337a2b9d4719ed8042cbbe" target="_top" xlink:title="max_int">
<polygon fill="none" stroke="#000000" points="210,-.5 210,-19.5 261,-19.5 261,-.5 210,-.5"/>
<text text-anchor="middle" x="235.5" y="-7.5" font-family="Helvetica,sans-Serif" font-size="10.00" fill="#000000">max_int</text>
</a>
</g>
</g>
<!-- Node299640&#45;&gt;Node299644 -->
<g id="edge5" class="edge">
<title>Node299640&#45;&gt;Node299644</title>
<path fill="none" stroke="#191970" d="M161.4819,-38.411C173.4411,-33.8206 187.9548,-28.2497 200.951,-23.2612"/>
<polygon fill="#191970" stroke="#191970" points="202.4445,-26.437 210.5261,-19.5859 199.936,-19.9019 202.4445,-26.437"/>
</g>
<!-- Node299643 -->
<g id="node5" class="node">
<title>Node299643</title>
<g id="a_node5"><a xlink:href="quickjs_8c.html#a7f6796ee7a195631366f57c713a33f65" target="_top" xlink:title="__JS_AtomIsConst">
<polygon fill="none" stroke="#000000" points="309,-38.5 309,-57.5 411,-57.5 411,-38.5 309,-38.5"/>
<text text-anchor="middle" x="360" y="-45.5" font-family="Helvetica,sans-Serif" font-size="10.00" fill="#000000">__JS_AtomIsConst</text>
</a>
</g>
</g>
<!-- Node299642&#45;&gt;Node299643 -->
<g id="edge4" class="edge">
<title>Node299642&#45;&gt;Node299643</title>
<path fill="none" stroke="#191970" d="M273.192,-48C281.2167,-48 289.8899,-48 298.5426,-48"/>
<polygon fill="#191970" stroke="#191970" points="298.6508,-51.5001 308.6507,-48 298.6507,-44.5001 298.6508,-51.5001"/>
</g>
</g>
</svg>
