<?xml version="1.0" encoding="UTF-8" standalone="no"?>
<!DOCTYPE svg PUBLIC "-//W3C//DTD SVG 1.1//EN"
 "http://www.w3.org/Graphics/SVG/1.1/DTD/svg11.dtd">
<!-- Generated by graphviz version 2.40.1 (20161225.0304)
 -->
<!-- Title: js_typed_array_base_constructor Pages: 1 -->
<svg width="417pt" height="39pt"
 viewBox="0.00 0.00 417.00 39.00" xmlns="http://www.w3.org/2000/svg" xmlns:xlink="http://www.w3.org/1999/xlink">
<g id="graph0" class="graph" transform="scale(1 1) rotate(0) translate(4 35)">
<title>js_typed_array_base_constructor</title>
<!-- Node461874 -->
<g id="node1" class="node">
<title>Node461874</title>
<polygon fill="#bfbfbf" stroke="#000000" points="0,-.5 0,-30.5 107,-30.5 107,-.5 0,-.5"/>
<text text-anchor="start" x="8" y="-18.5" font-family="Helvetica,sans-Serif" font-size="10.00" fill="#000000">js_typed_array_base</text>
<text text-anchor="middle" x="53.5" y="-7.5" font-family="Helvetica,sans-Serif" font-size="10.00" fill="#000000">_constructor</text>
</g>
<!-- Node461875 -->
<g id="node2" class="node">
<title>Node461875</title>
<g id="a_node2"><a xlink:href="quickjs_8c.html#a177d09828596bfe6df4bd90b2e93989d" target="_top" xlink:title="JS_AddIntrinsicTypedArrays">
<polygon fill="none" stroke="#000000" points="143,-6 143,-25 284,-25 284,-6 143,-6"/>
<text text-anchor="middle" x="213.5" y="-13" font-family="Helvetica,sans-Serif" font-size="10.00" fill="#000000">JS_AddIntrinsicTypedArrays</text>
</a>
</g>
</g>
<!-- Node461874&#45;&gt;Node461875 -->
<g id="edge1" class="edge">
<title>Node461874&#45;&gt;Node461875</title>
<path fill="none" stroke="#191970" d="M117.3182,-15.5C125.7172,-15.5 134.3645,-15.5 142.8687,-15.5"/>
<polygon fill="#191970" stroke="#191970" points="117.2228,-12.0001 107.2228,-15.5 117.2227,-19.0001 117.2228,-12.0001"/>
</g>
<!-- Node461876 -->
<g id="node3" class="node">
<title>Node461876</title>
<g id="a_node3"><a xlink:href="quickjs_8c.html#ad8aedb643b8753b7a15f6cb2df61945e" target="_top" xlink:title="JS_NewContext">
<polygon fill="none" stroke="#000000" points="320,-6 320,-25 409,-25 409,-6 320,-6"/>
<text text-anchor="middle" x="364.5" y="-13" font-family="Helvetica,sans-Serif" font-size="10.00" fill="#000000">JS_NewContext</text>
</a>
</g>
</g>
<!-- Node461875&#45;&gt;Node461876 -->
<g id="edge2" class="edge">
<title>Node461875&#45;&gt;Node461876</title>
<path fill="none" stroke="#191970" d="M294.3813,-15.5C303.0943,-15.5 311.7113,-15.5 319.7649,-15.5"/>
<polygon fill="#191970" stroke="#191970" points="294.1368,-12.0001 284.1368,-15.5 294.1367,-19.0001 294.1368,-12.0001"/>
</g>
</g>
</svg>
