<?xml version="1.0" encoding="UTF-8" standalone="no"?>
<!DOCTYPE svg PUBLIC "-//W3C//DTD SVG 1.1//EN"
 "http://www.w3.org/Graphics/SVG/1.1/DTD/svg11.dtd">
<!-- Generated by graphviz version 2.40.1 (20161225.0304)
 -->
<!-- Title: js_object_seal Pages: 1 -->
<svg width="390pt" height="28pt"
 viewBox="0.00 0.00 390.00 28.00" xmlns="http://www.w3.org/2000/svg" xmlns:xlink="http://www.w3.org/1999/xlink">
<g id="graph0" class="graph" transform="scale(1 1) rotate(0) translate(4 24)">
<title>js_object_seal</title>
<!-- Node361535 -->
<g id="node1" class="node">
<title>Node361535</title>
<polygon fill="#bfbfbf" stroke="#000000" points="0,-.5 0,-19.5 79,-19.5 79,-.5 0,-.5"/>
<text text-anchor="middle" x="39.5" y="-7.5" font-family="Helvetica,sans-Serif" font-size="10.00" fill="#000000">js_object_seal</text>
</g>
<!-- Node361536 -->
<g id="node2" class="node">
<title>Node361536</title>
<g id="a_node2"><a xlink:href="quickjs_8c.html#a4c9489297c684663f30e517204a9ec14" target="_top" xlink:title="JS_AddIntrinsicBaseObjects">
<polygon fill="none" stroke="#000000" points="115,-.5 115,-19.5 257,-19.5 257,-.5 115,-.5"/>
<text text-anchor="middle" x="186" y="-7.5" font-family="Helvetica,sans-Serif" font-size="10.00" fill="#000000">JS_AddIntrinsicBaseObjects</text>
</a>
</g>
</g>
<!-- Node361535&#45;&gt;Node361536 -->
<g id="edge1" class="edge">
<title>Node361535&#45;&gt;Node361536</title>
<path fill="none" stroke="#191970" d="M89.3427,-10C97.6101,-10 106.3221,-10 114.9921,-10"/>
<polygon fill="#191970" stroke="#191970" points="89.145,-6.5001 79.145,-10 89.145,-13.5001 89.145,-6.5001"/>
</g>
<!-- Node361537 -->
<g id="node3" class="node">
<title>Node361537</title>
<g id="a_node3"><a xlink:href="quickjs_8c.html#ad8aedb643b8753b7a15f6cb2df61945e" target="_top" xlink:title="JS_NewContext">
<polygon fill="none" stroke="#000000" points="293,-.5 293,-19.5 382,-19.5 382,-.5 293,-.5"/>
<text text-anchor="middle" x="337.5" y="-7.5" font-family="Helvetica,sans-Serif" font-size="10.00" fill="#000000">JS_NewContext</text>
</a>
</g>
</g>
<!-- Node361536&#45;&gt;Node361537 -->
<g id="edge2" class="edge">
<title>Node361536&#45;&gt;Node361537</title>
<path fill="none" stroke="#191970" d="M267.5534,-10C276.2595,-10 284.8628,-10 292.8995,-10"/>
<polygon fill="#191970" stroke="#191970" points="267.3138,-6.5001 257.3138,-10 267.3137,-13.5001 267.3138,-6.5001"/>
</g>
</g>
</svg>
