<?xml version="1.0" encoding="UTF-8" standalone="no"?>
<!DOCTYPE svg PUBLIC "-//W3C//DTD SVG 1.1//EN"
 "http://www.w3.org/Graphics/SVG/1.1/DTD/svg11.dtd">
<!-- Generated by graphviz version 2.40.1 (20161225.0304)
 -->
<!-- Title: js_array_indexOf Pages: 1 -->
<svg width="1090pt" height="699pt"
 viewBox="0.00 0.00 1090.00 698.70" xmlns="http://www.w3.org/2000/svg" xmlns:xlink="http://www.w3.org/1999/xlink">
<g id="graph0" class="graph" transform="scale(1 1) rotate(0) translate(4 694.696)">
<title>js_array_indexOf</title>
<!-- Node375388 -->
<g id="node1" class="node">
<title>Node375388</title>
<polygon fill="#bfbfbf" stroke="#000000" points="0,-519.4487 0,-538.4487 90,-538.4487 90,-519.4487 0,-519.4487"/>
<text text-anchor="middle" x="45" y="-526.4487" font-family="Helvetica,sans-Serif" font-size="10.00" fill="#000000">js_array_indexOf</text>
</g>
<!-- Node375389 -->
<g id="node2" class="node">
<title>Node375389</title>
<g id="a_node2"><a xlink:href="quickjs_8h.html#a775522f2d084fc8fa0fcb33f390006b4" target="_top" xlink:title="JS_DupValue">
<polygon fill="none" stroke="#000000" points="741.5,-405.4487 741.5,-424.4487 818.5,-424.4487 818.5,-405.4487 741.5,-405.4487"/>
<text text-anchor="middle" x="780" y="-412.4487" font-family="Helvetica,sans-Serif" font-size="10.00" fill="#000000">JS_DupValue</text>
</a>
</g>
</g>
<!-- Node375388&#45;&gt;Node375389 -->
<g id="edge1" class="edge">
<title>Node375388&#45;&gt;Node375389</title>
<path fill="none" stroke="#191970" d="M90.1725,-538.4397C147.7725,-549.695 250.5722,-566.9487 339.5,-566.9487 339.5,-566.9487 339.5,-566.9487 490.5,-566.9487 586.2066,-566.9487 626.4658,-602.6491 705,-547.9487 735.6694,-526.5869 722.3895,-504.3615 741,-471.9487 748.7429,-458.4634 758.6496,-444.0129 766.5407,-433.0361"/>
<polygon fill="#191970" stroke="#191970" points="769.5348,-434.8706 772.6033,-424.7299 763.8807,-430.7437 769.5348,-434.8706"/>
</g>
<!-- Node375390 -->
<g id="node3" class="node">
<title>Node375390</title>
<g id="a_node3"><a xlink:href="quickjs_8h.html#afaa20c47565bc704c6c85f3d77254e7d" target="_top" xlink:title="JS_FreeValue">
<polygon fill="none" stroke="#000000" points="741,-481.4487 741,-500.4487 819,-500.4487 819,-481.4487 741,-481.4487"/>
<text text-anchor="middle" x="780" y="-488.4487" font-family="Helvetica,sans-Serif" font-size="10.00" fill="#000000">JS_FreeValue</text>
</a>
</g>
</g>
<!-- Node375388&#45;&gt;Node375390 -->
<g id="edge2" class="edge">
<title>Node375388&#45;&gt;Node375390</title>
<path fill="none" stroke="#191970" d="M47.5431,-538.4535C54.8467,-563.6782 78.474,-632.3991 126,-661.9487 206.9013,-712.2497 244.2361,-680.9487 339.5,-680.9487 339.5,-680.9487 339.5,-680.9487 490.5,-680.9487 589.9863,-680.9487 626.524,-678.0964 705,-616.9487 741.1642,-588.7699 763.5635,-537.8808 773.6672,-510.1801"/>
<polygon fill="#191970" stroke="#191970" points="777.061,-511.0768 777.0443,-500.482 770.4504,-508.7748 777.061,-511.0768"/>
</g>
<!-- Node375426 -->
<g id="node6" class="node">
<title>Node375426</title>
<g id="a_node6"><a xlink:href="quickjs_8c.html#a4e7bf9ce9c03f0cac9529a14161183e0" target="_top" xlink:title="js_get_fast_array">
<polygon fill="none" stroke="#000000" points="141,-595.4487 141,-614.4487 233,-614.4487 233,-595.4487 141,-595.4487"/>
<text text-anchor="middle" x="187" y="-602.4487" font-family="Helvetica,sans-Serif" font-size="10.00" fill="#000000">js_get_fast_array</text>
</a>
</g>
</g>
<!-- Node375388&#45;&gt;Node375426 -->
<g id="edge5" class="edge">
<title>Node375388&#45;&gt;Node375426</title>
<path fill="none" stroke="#191970" d="M58.2732,-538.6261C73.9323,-549.7652 101.0052,-568.1648 126,-580.9487 133.5635,-584.8172 141.9027,-588.4702 149.9221,-591.7046"/>
<polygon fill="#191970" stroke="#191970" points="148.8836,-595.0563 159.4719,-595.4285 151.4268,-588.5346 148.8836,-595.0563"/>
</g>
<!-- Node375427 -->
<g id="node7" class="node">
<title>Node375427</title>
<g id="a_node7"><a xlink:href="quickjs_8c.html#a5f848f76409193212a44e6221e430919" target="_top" xlink:title="js_get_length64">
<polygon fill="none" stroke="#000000" points="297,-384.4487 297,-403.4487 382,-403.4487 382,-384.4487 297,-384.4487"/>
<text text-anchor="middle" x="339.5" y="-391.4487" font-family="Helvetica,sans-Serif" font-size="10.00" fill="#000000">js_get_length64</text>
</a>
</g>
</g>
<!-- Node375388&#45;&gt;Node375427 -->
<g id="edge6" class="edge">
<title>Node375388&#45;&gt;Node375427</title>
<path fill="none" stroke="#191970" d="M54.0064,-519.0459C68.0275,-504.1881 96.5383,-476.1468 126,-459.9487 177.3608,-431.7104 242.4552,-413.8158 287.187,-403.8909"/>
<polygon fill="#191970" stroke="#191970" points="287.9379,-407.3095 296.9721,-401.7747 286.4582,-400.4676 287.9379,-407.3095"/>
</g>
<!-- Node375816 -->
<g id="node13" class="node">
<title>Node375816</title>
<g id="a_node13"><a xlink:href="quickjs_8c.html#a537e88d38784e3df2a19c72f8bd1d77e" target="_top" xlink:title="JS_ToInt64Clamp">
<polygon fill="none" stroke="#ff0000" points="598,-519.4487 598,-538.4487 693,-538.4487 693,-519.4487 598,-519.4487"/>
<text text-anchor="middle" x="645.5" y="-526.4487" font-family="Helvetica,sans-Serif" font-size="10.00" fill="#000000">JS_ToInt64Clamp</text>
</a>
</g>
</g>
<!-- Node375388&#45;&gt;Node375816 -->
<g id="edge21" class="edge">
<title>Node375388&#45;&gt;Node375816</title>
<path fill="none" stroke="#191970" d="M90.1351,-528.9487C197.607,-528.9487 468.5681,-528.9487 587.7403,-528.9487"/>
<polygon fill="#191970" stroke="#191970" points="587.7658,-532.4488 597.7658,-528.9487 587.7657,-525.4488 587.7658,-532.4488"/>
</g>
<!-- Node375660 -->
<g id="node14" class="node">
<title>Node375660</title>
<g id="a_node14"><a xlink:href="quickjs_8h.html#a6acbc709e59969eac6775f9b253b438f" target="_top" xlink:title="JS_NewInt64">
<polygon fill="none" stroke="#ff0000" points="607.5,-44.4487 607.5,-63.4487 683.5,-63.4487 683.5,-44.4487 607.5,-44.4487"/>
<text text-anchor="middle" x="645.5" y="-51.4487" font-family="Helvetica,sans-Serif" font-size="10.00" fill="#000000">JS_NewInt64</text>
</a>
</g>
</g>
<!-- Node375388&#45;&gt;Node375660 -->
<g id="edge17" class="edge">
<title>Node375388&#45;&gt;Node375660</title>
<path fill="none" stroke="#191970" d="M45.5862,-519.2943C48.4189,-478.5883 63.25,-317.9072 126,-205.9487 175.0173,-118.4921 195.7675,-92.5552 284,-44.9487 388.6601,11.5214 433.2028,6.435 550,-15.9487 574.0274,-20.5535 599.7099,-31.1251 618.3833,-39.9517"/>
<polygon fill="#191970" stroke="#191970" points="616.9398,-43.1416 627.4635,-44.3676 620.0012,-36.8465 616.9398,-43.1416"/>
</g>
<!-- Node375609 -->
<g id="node15" class="node">
<title>Node375609</title>
<g id="a_node15"><a xlink:href="quickjs_8c.html#a6b7e8c810c238daa5ac20c70c2f22b24" target="_top" xlink:title="js_strict_eq2">
<polygon fill="none" stroke="#ff0000" points="151,-633.4487 151,-652.4487 223,-652.4487 223,-633.4487 151,-633.4487"/>
<text text-anchor="middle" x="187" y="-640.4487" font-family="Helvetica,sans-Serif" font-size="10.00" fill="#000000">js_strict_eq2</text>
</a>
</g>
</g>
<!-- Node375388&#45;&gt;Node375609 -->
<g id="edge19" class="edge">
<title>Node375388&#45;&gt;Node375609</title>
<path fill="none" stroke="#191970" d="M50.5968,-538.5944C62.1919,-557.7334 90.7251,-600.6678 126,-623.9487 130.6867,-627.0419 135.9052,-629.6547 141.262,-631.8562"/>
<polygon fill="#191970" stroke="#191970" points="140.3745,-635.2577 150.9686,-635.3895 142.769,-628.68 140.3745,-635.2577"/>
</g>
<!-- Node375664 -->
<g id="node16" class="node">
<title>Node375664</title>
<g id="a_node16"><a xlink:href="quickjs_8c.html#a710289a14c2810467e5b448d3c28bd55" target="_top" xlink:title="JS_ToObject">
<polygon fill="none" stroke="#ff0000" points="302.5,-424.4487 302.5,-443.4487 376.5,-443.4487 376.5,-424.4487 302.5,-424.4487"/>
<text text-anchor="middle" x="339.5" y="-431.4487" font-family="Helvetica,sans-Serif" font-size="10.00" fill="#000000">JS_ToObject</text>
</a>
</g>
</g>
<!-- Node375388&#45;&gt;Node375664 -->
<g id="edge22" class="edge">
<title>Node375388&#45;&gt;Node375664</title>
<path fill="none" stroke="#191970" d="M74.5862,-519.4048C127.9476,-502.1914 240.3031,-465.9477 300.1041,-446.6571"/>
<polygon fill="#191970" stroke="#191970" points="301.4909,-449.8874 309.9335,-443.4863 299.3419,-443.2254 301.4909,-449.8874"/>
</g>
<!-- Node375818 -->
<g id="node17" class="node">
<title>Node375818</title>
<g id="a_node17"><a xlink:href="quickjs_8c.html#a14674e74168715dc5a3a391910982e5d" target="_top" xlink:title="JS_TryGetPropertyInt64">
<polygon fill="none" stroke="#000000" points="126,-215.4487 126,-234.4487 248,-234.4487 248,-215.4487 126,-215.4487"/>
<text text-anchor="middle" x="187" y="-222.4487" font-family="Helvetica,sans-Serif" font-size="10.00" fill="#000000">JS_TryGetPropertyInt64</text>
</a>
</g>
</g>
<!-- Node375388&#45;&gt;Node375818 -->
<g id="edge26" class="edge">
<title>Node375388&#45;&gt;Node375818</title>
<path fill="none" stroke="#191970" d="M49.5638,-519.1784C69.7608,-475.9397 151.2922,-301.3935 178.2782,-243.6207"/>
<polygon fill="#191970" stroke="#191970" points="181.463,-245.0726 182.524,-234.5311 175.1207,-242.1101 181.463,-245.0726"/>
</g>
<!-- Node375391 -->
<g id="node4" class="node">
<title>Node375391</title>
<g id="a_node4"><a xlink:href="quickjs_8c.html#aa059f309c30fd5166d16c82a97973146" target="_top" xlink:title="__JS_FreeValue">
<polygon fill="none" stroke="#000000" points="855,-481.4487 855,-500.4487 944,-500.4487 944,-481.4487 855,-481.4487"/>
<text text-anchor="middle" x="899.5" y="-488.4487" font-family="Helvetica,sans-Serif" font-size="10.00" fill="#000000">__JS_FreeValue</text>
</a>
</g>
</g>
<!-- Node375390&#45;&gt;Node375391 -->
<g id="edge3" class="edge">
<title>Node375390&#45;&gt;Node375391</title>
<path fill="none" stroke="#191970" d="M819.1288,-490.9487C827.3481,-490.9487 836.1608,-490.9487 844.8298,-490.9487"/>
<polygon fill="#191970" stroke="#191970" points="844.8964,-494.4488 854.8964,-490.9487 844.8964,-487.4488 844.8964,-494.4488"/>
</g>
<!-- Node375392 -->
<g id="node5" class="node">
<title>Node375392</title>
<g id="a_node5"><a xlink:href="quickjs_8c.html#ab1ea3fad7d138be12144a38be4d36423" target="_top" xlink:title="__JS_FreeValueRT">
<polygon fill="none" stroke="#ff0000" points="980,-481.4487 980,-500.4487 1082,-500.4487 1082,-481.4487 980,-481.4487"/>
<text text-anchor="middle" x="1031" y="-488.4487" font-family="Helvetica,sans-Serif" font-size="10.00" fill="#000000">__JS_FreeValueRT</text>
</a>
</g>
</g>
<!-- Node375391&#45;&gt;Node375392 -->
<g id="edge4" class="edge">
<title>Node375391&#45;&gt;Node375392</title>
<path fill="none" stroke="#191970" d="M944.0199,-490.9487C952.2672,-490.9487 961.0138,-490.9487 969.6583,-490.9487"/>
<polygon fill="#191970" stroke="#191970" points="969.7233,-494.4488 979.7233,-490.9487 969.7232,-487.4488 969.7233,-494.4488"/>
</g>
<!-- Node375428 -->
<g id="node8" class="node">
<title>Node375428</title>
<g id="a_node8"><a xlink:href="quickjs_8h.html#a89b7c8686c7eee70b86be722ee4730ad" target="_top" xlink:title="JS_GetProperty">
<polygon fill="none" stroke="#000000" points="447.5,-329.4487 447.5,-348.4487 533.5,-348.4487 533.5,-329.4487 447.5,-329.4487"/>
<text text-anchor="middle" x="490.5" y="-336.4487" font-family="Helvetica,sans-Serif" font-size="10.00" fill="#000000">JS_GetProperty</text>
</a>
</g>
</g>
<!-- Node375427&#45;&gt;Node375428 -->
<g id="edge7" class="edge">
<title>Node375427&#45;&gt;Node375428</title>
<path fill="none" stroke="#191970" d="M362.6577,-384.3499C381.0608,-376.8404 407.5199,-366.3065 431,-357.9487 436.9667,-355.8249 443.3079,-353.6811 449.5422,-351.6371"/>
<polygon fill="#191970" stroke="#191970" points="450.7409,-354.9281 459.1816,-348.5244 448.5899,-348.2667 450.7409,-354.9281"/>
</g>
<!-- Node375437 -->
<g id="node11" class="node">
<title>Node375437</title>
<g id="a_node11"><a xlink:href="quickjs_8h.html#ad80a83d73e9b7d872b88fbf2943aebe9" target="_top" xlink:title="JS_IsException">
<polygon fill="none" stroke="#000000" points="447.5,-367.4487 447.5,-386.4487 533.5,-386.4487 533.5,-367.4487 447.5,-367.4487"/>
<text text-anchor="middle" x="490.5" y="-374.4487" font-family="Helvetica,sans-Serif" font-size="10.00" fill="#000000">JS_IsException</text>
</a>
</g>
</g>
<!-- Node375427&#45;&gt;Node375437 -->
<g id="edge12" class="edge">
<title>Node375427&#45;&gt;Node375437</title>
<path fill="none" stroke="#191970" d="M382.3666,-389.1227C399.4286,-387.2018 419.244,-384.9709 437.2157,-382.9476"/>
<polygon fill="#191970" stroke="#191970" points="437.7186,-386.4132 447.2642,-381.8163 436.9354,-379.4571 437.7186,-386.4132"/>
</g>
<!-- Node375815 -->
<g id="node12" class="node">
<title>Node375815</title>
<g id="a_node12"><a xlink:href="quickjs_8c.html#a07acd485a57197356906928a788a0644" target="_top" xlink:title="JS_ToLengthFree">
<polygon fill="none" stroke="#000000" points="443.5,-481.4487 443.5,-500.4487 537.5,-500.4487 537.5,-481.4487 443.5,-481.4487"/>
<text text-anchor="middle" x="490.5" y="-488.4487" font-family="Helvetica,sans-Serif" font-size="10.00" fill="#000000">JS_ToLengthFree</text>
</a>
</g>
</g>
<!-- Node375427&#45;&gt;Node375815 -->
<g id="edge13" class="edge">
<title>Node375427&#45;&gt;Node375815</title>
<path fill="none" stroke="#191970" d="M369.9401,-403.5296C378.3027,-406.6747 387.2084,-410.519 395,-414.9487 424.7116,-431.8405 454.8945,-457.6171 473.1599,-474.3768"/>
<polygon fill="#191970" stroke="#191970" points="470.9681,-477.1186 480.6689,-481.3783 475.7419,-471.9988 470.9681,-477.1186"/>
</g>
<!-- Node375429 -->
<g id="node9" class="node">
<title>Node375429</title>
<g id="a_node9"><a xlink:href="quickjs_8c.html#a5762c57ae0c9937e986040c01222833a" target="_top" xlink:title="JS_GetPropertyInternal">
<polygon fill="none" stroke="#ff0000" points="586,-358.4487 586,-377.4487 705,-377.4487 705,-358.4487 586,-358.4487"/>
<text text-anchor="middle" x="645.5" y="-365.4487" font-family="Helvetica,sans-Serif" font-size="10.00" fill="#000000">JS_GetPropertyInternal</text>
</a>
</g>
</g>
<!-- Node375428&#45;&gt;Node375429 -->
<g id="edge8" class="edge">
<title>Node375428&#45;&gt;Node375429</title>
<path fill="none" stroke="#191970" d="M533.6761,-347.0268C549.4759,-349.9829 567.6608,-353.3853 584.7124,-356.5756"/>
<polygon fill="#191970" stroke="#191970" points="584.1215,-360.0257 594.5946,-358.4245 585.4089,-353.145 584.1215,-360.0257"/>
</g>
<!-- Node375429&#45;&gt;Node375389 -->
<g id="edge9" class="edge">
<title>Node375429&#45;&gt;Node375389</title>
<path fill="none" stroke="#191970" d="M672.7181,-377.4599C692.9114,-384.5163 720.6762,-394.2185 742.9007,-401.9847"/>
<polygon fill="#191970" stroke="#191970" points="741.7659,-405.2956 752.3608,-405.2904 744.0751,-398.6874 741.7659,-405.2956"/>
</g>
<!-- Node375429&#45;&gt;Node375390 -->
<g id="edge10" class="edge">
<title>Node375429&#45;&gt;Node375390</title>
<path fill="none" stroke="#191970" d="M656.054,-377.6003C678.9378,-398.5275 733.3519,-448.2891 761.864,-474.3634"/>
<polygon fill="#191970" stroke="#191970" points="759.7535,-477.1762 769.495,-481.342 764.4775,-472.0105 759.7535,-477.1762"/>
</g>
<!-- Node375438 -->
<g id="node10" class="node">
<title>Node375438</title>
<g id="a_node10"><a xlink:href="quickjs_8h.html#a2050bc428da1c65ac7eb87c3fa3b0392" target="_top" xlink:title="JS_NewInt32">
<polygon fill="none" stroke="#000000" points="742,-215.4487 742,-234.4487 818,-234.4487 818,-215.4487 742,-215.4487"/>
<text text-anchor="middle" x="780" y="-222.4487" font-family="Helvetica,sans-Serif" font-size="10.00" fill="#000000">JS_NewInt32</text>
</a>
</g>
</g>
<!-- Node375429&#45;&gt;Node375438 -->
<g id="edge11" class="edge">
<title>Node375429&#45;&gt;Node375438</title>
<path fill="none" stroke="#191970" d="M654.7447,-358.1198C677.3127,-334.1256 735.446,-272.3184 763.8699,-242.0982"/>
<polygon fill="#191970" stroke="#191970" points="766.743,-244.1521 771.0448,-234.4699 761.644,-239.3562 766.743,-244.1521"/>
</g>
<!-- Node375815&#45;&gt;Node375390 -->
<g id="edge14" class="edge">
<title>Node375815&#45;&gt;Node375390</title>
<path fill="none" stroke="#191970" d="M537.6575,-490.9487C590.7912,-490.9487 676.7637,-490.9487 730.7441,-490.9487"/>
<polygon fill="#191970" stroke="#191970" points="730.765,-494.4488 740.765,-490.9487 730.765,-487.4488 730.765,-494.4488"/>
</g>
<!-- Node375815&#45;&gt;Node375816 -->
<g id="edge15" class="edge">
<title>Node375815&#45;&gt;Node375816</title>
<path fill="none" stroke="#191970" d="M529.613,-500.5377C549.9748,-505.5296 575.0663,-511.6811 596.6887,-516.9821"/>
<polygon fill="#191970" stroke="#191970" points="596.1224,-520.4468 606.6682,-519.4287 597.7892,-513.6482 596.1224,-520.4468"/>
</g>
<!-- Node375816&#45;&gt;Node375389 -->
<g id="edge16" class="edge">
<title>Node375816&#45;&gt;Node375389</title>
<path fill="none" stroke="#191970" d="M656.9674,-519.2291C680.0952,-499.6264 732.5385,-455.1763 760.9136,-431.126"/>
<polygon fill="#191970" stroke="#191970" points="763.1962,-433.7795 768.5616,-424.6437 758.6701,-428.4395 763.1962,-433.7795"/>
</g>
<!-- Node375660&#45;&gt;Node375438 -->
<g id="edge18" class="edge">
<title>Node375660&#45;&gt;Node375438</title>
<path fill="none" stroke="#191970" d="M653.1167,-63.6324C674.9407,-91.3788 737.9351,-171.4684 766.1023,-207.2796"/>
<polygon fill="#191970" stroke="#191970" points="763.5335,-209.6751 772.4669,-215.3713 769.0356,-205.3475 763.5335,-209.6751"/>
</g>
<!-- Node375609&#45;&gt;Node375390 -->
<g id="edge20" class="edge">
<title>Node375609&#45;&gt;Node375390</title>
<path fill="none" stroke="#191970" d="M223.3119,-647.3284C311.8143,-656.2413 543.235,-668.816 705,-580.9487 735.087,-564.6061 758.0355,-530.8398 770.2239,-509.6314"/>
<polygon fill="#191970" stroke="#191970" points="773.4294,-511.0664 775.1908,-500.619 767.2988,-507.6877 773.4294,-511.0664"/>
</g>
<!-- Node375664&#45;&gt;Node375389 -->
<g id="edge23" class="edge">
<title>Node375664&#45;&gt;Node375389</title>
<path fill="none" stroke="#191970" d="M376.7777,-433.4801C418.8619,-432.8541 489.3722,-431.5131 550,-428.9487 612.6119,-426.3004 684.72,-421.6509 731.2573,-418.4411"/>
<polygon fill="#191970" stroke="#191970" points="731.6289,-421.9238 741.3623,-417.739 731.1437,-414.9406 731.6289,-421.9238"/>
</g>
<!-- Node375664&#45;&gt;Node375438 -->
<g id="edge25" class="edge">
<title>Node375664&#45;&gt;Node375438</title>
<path fill="none" stroke="#191970" d="M376.5981,-430.4929C428.9922,-425.0719 521.4697,-413.3577 550,-395.9487 572.4611,-382.2431 566.6214,-366.748 586,-348.9487 638.3281,-300.8852 711.5175,-259.7854 751.3712,-239.1506"/>
<polygon fill="#191970" stroke="#191970" points="752.9776,-242.2603 760.2856,-234.5893 749.789,-236.0287 752.9776,-242.2603"/>
</g>
<!-- Node375664&#45;&gt;Node375437 -->
<g id="edge24" class="edge">
<title>Node375664&#45;&gt;Node375437</title>
<path fill="none" stroke="#191970" d="M364.774,-424.4082C389.5991,-415.0372 427.683,-400.6611 455.4317,-390.1864"/>
<polygon fill="#191970" stroke="#191970" points="457.024,-393.3265 465.1435,-386.5204 454.5518,-386.7775 457.024,-393.3265"/>
</g>
<!-- Node375818&#45;&gt;Node375428 -->
<g id="edge29" class="edge">
<title>Node375818&#45;&gt;Node375428</title>
<path fill="none" stroke="#191970" d="M200.533,-234.4563C218.7511,-246.8832 252.5202,-268.6282 284,-281.9487 334.4175,-303.2826 395.1286,-318.9281 437.6265,-328.3733"/>
<polygon fill="#191970" stroke="#191970" points="436.9652,-331.8113 447.4817,-330.5252 438.4585,-324.9725 436.9652,-331.8113"/>
</g>
<!-- Node375818&#45;&gt;Node375438 -->
<g id="edge43" class="edge">
<title>Node375818&#45;&gt;Node375438</title>
<path fill="none" stroke="#191970" d="M210.549,-215.337C229.9679,-207.7428 258.3859,-197.3847 284,-190.9487 399.086,-162.0316 432.211,-153.5706 550,-167.9487 618.5253,-176.3134 696.0408,-198.2039 741.3161,-212.2936"/>
<polygon fill="#191970" stroke="#191970" points="740.4281,-215.6833 751.0176,-215.3474 742.5298,-209.0063 740.4281,-215.6833"/>
</g>
<!-- Node375818&#45;&gt;Node375437 -->
<g id="edge37" class="edge">
<title>Node375818&#45;&gt;Node375437</title>
<path fill="none" stroke="#191970" d="M194.7409,-234.6164C209.9282,-252.9553 245.5198,-292.9251 284,-314.9487 332.2719,-342.5765 394.0753,-359.0199 437.44,-367.9547"/>
<polygon fill="#191970" stroke="#191970" points="437.006,-371.437 447.4975,-369.9607 438.3753,-364.5722 437.006,-371.437"/>
</g>
<!-- Node375491 -->
<g id="node18" class="node">
<title>Node375491</title>
<g id="a_node18"><a xlink:href="quickjs_8c.html#a877fcb7651d95b411ce70e62b7f4a1f0" target="_top" xlink:title="__JS_AtomFromUInt32">
<polygon fill="none" stroke="#000000" points="431,-25.4487 431,-44.4487 550,-44.4487 550,-25.4487 431,-25.4487"/>
<text text-anchor="middle" x="490.5" y="-32.4487" font-family="Helvetica,sans-Serif" font-size="10.00" fill="#000000">__JS_AtomFromUInt32</text>
</a>
</g>
</g>
<!-- Node375818&#45;&gt;Node375491 -->
<g id="edge27" class="edge">
<title>Node375818&#45;&gt;Node375491</title>
<path fill="none" stroke="#191970" d="M191.2779,-215.1837C202.5988,-190.5116 235.8119,-125.2703 284,-91.9487 324.4973,-63.9452 378.3336,-49.6615 420.8825,-42.3965"/>
<polygon fill="#191970" stroke="#191970" points="421.5714,-45.8307 430.8855,-40.7811 420.4554,-38.9202 421.5714,-45.8307"/>
</g>
<!-- Node375412 -->
<g id="node19" class="node">
<title>Node375412</title>
<g id="a_node19"><a xlink:href="quickjs_8c.html#ab7fc45a99935a1c0ba50b0216d9401a9" target="_top" xlink:title="JS_FreeAtom">
<polygon fill="none" stroke="#ff0000" points="452,-177.4487 452,-196.4487 529,-196.4487 529,-177.4487 452,-177.4487"/>
<text text-anchor="middle" x="490.5" y="-184.4487" font-family="Helvetica,sans-Serif" font-size="10.00" fill="#000000">JS_FreeAtom</text>
</a>
</g>
</g>
<!-- Node375818&#45;&gt;Node375412 -->
<g id="edge28" class="edge">
<title>Node375818&#45;&gt;Node375412</title>
<path fill="none" stroke="#191970" d="M230.7803,-215.3924C247.3847,-212.0268 266.5043,-208.4605 284,-205.9487 337.7141,-198.2373 399.7617,-193.02 441.7093,-190.0331"/>
<polygon fill="#191970" stroke="#191970" points="442.191,-193.5081 451.9236,-189.3216 441.7045,-186.525 442.191,-193.5081"/>
</g>
<!-- Node375514 -->
<g id="node20" class="node">
<title>Node375514</title>
<g id="a_node20"><a xlink:href="quickjs_8c.html#a90d6e607f6917d817c1e997bd2e6ed07" target="_top" xlink:title="JS_GetPropertyValue">
<polygon fill="none" stroke="#ff0000" points="284,-253.4487 284,-272.4487 395,-272.4487 395,-253.4487 284,-253.4487"/>
<text text-anchor="middle" x="339.5" y="-260.4487" font-family="Helvetica,sans-Serif" font-size="10.00" fill="#000000">JS_GetPropertyValue</text>
</a>
</g>
</g>
<!-- Node375818&#45;&gt;Node375514 -->
<g id="edge30" class="edge">
<title>Node375818&#45;&gt;Node375514</title>
<path fill="none" stroke="#191970" d="M225.4822,-234.5377C245.5156,-239.5296 270.2023,-245.6811 291.476,-250.9821"/>
<polygon fill="#191970" stroke="#191970" points="290.745,-254.4069 301.2945,-253.4287 292.4375,-247.6146 290.745,-254.4069"/>
</g>
<!-- Node375689 -->
<g id="node21" class="node">
<title>Node375689</title>
<g id="a_node21"><a xlink:href="quickjs_8c.html#a9d6d0a9704951d01c128975e0d2213f8" target="_top" xlink:title="JS_HasProperty">
<polygon fill="none" stroke="#ff0000" points="295,-215.4487 295,-234.4487 384,-234.4487 384,-215.4487 295,-215.4487"/>
<text text-anchor="middle" x="339.5" y="-222.4487" font-family="Helvetica,sans-Serif" font-size="10.00" fill="#000000">JS_HasProperty</text>
</a>
</g>
</g>
<!-- Node375818&#45;&gt;Node375689 -->
<g id="edge36" class="edge">
<title>Node375818&#45;&gt;Node375689</title>
<path fill="none" stroke="#191970" d="M248.1489,-224.9487C260.1979,-224.9487 272.771,-224.9487 284.5987,-224.9487"/>
<polygon fill="#191970" stroke="#191970" points="284.769,-228.4488 294.769,-224.9487 284.7689,-221.4488 284.769,-228.4488"/>
</g>
<!-- Node375819 -->
<g id="node22" class="node">
<title>Node375819</title>
<g id="a_node22"><a xlink:href="quickjs_8c.html#aa641af3a921335927dab07dc83285917" target="_top" xlink:title="JS_NewAtomInt64">
<polygon fill="none" stroke="#000000" points="290,-101.4487 290,-120.4487 389,-120.4487 389,-101.4487 290,-101.4487"/>
<text text-anchor="middle" x="339.5" y="-108.4487" font-family="Helvetica,sans-Serif" font-size="10.00" fill="#000000">JS_NewAtomInt64</text>
</a>
</g>
</g>
<!-- Node375818&#45;&gt;Node375819 -->
<g id="edge38" class="edge">
<title>Node375818&#45;&gt;Node375819</title>
<path fill="none" stroke="#191970" d="M195.2299,-215.405C210.9671,-197.6239 247.0593,-159.0491 284,-134.9487 289.8481,-131.1334 296.404,-127.6804 302.9051,-124.6592"/>
<polygon fill="#191970" stroke="#191970" points="304.5423,-127.7633 312.302,-120.5496 301.7374,-121.3499 304.5423,-127.7633"/>
</g>
<!-- Node375514&#45;&gt;Node375389 -->
<g id="edge31" class="edge">
<title>Node375514&#45;&gt;Node375389</title>
<path fill="none" stroke="#191970" d="M395.182,-265.2454C438.04,-267.9817 498.4634,-273.953 550,-286.9487 621.9435,-305.0904 641.7884,-310.0993 705,-348.9487 727.4424,-362.7417 749.6533,-383.3983 764.0086,-397.9201"/>
<polygon fill="#191970" stroke="#191970" points="761.6572,-400.5232 771.1272,-405.2741 766.6868,-395.6546 761.6572,-400.5232"/>
</g>
<!-- Node375514&#45;&gt;Node375390 -->
<g id="edge33" class="edge">
<title>Node375514&#45;&gt;Node375390</title>
<path fill="none" stroke="#191970" d="M375.322,-272.4581C434.9503,-288.3131 548.2535,-318.5617 550,-319.9487 576.4716,-340.9718 562.0855,-363.057 586,-386.9487 630.7701,-431.676 698.798,-462.056 741.2598,-477.9344"/>
<polygon fill="#191970" stroke="#191970" points="740.1001,-481.2369 750.694,-481.3809 742.5021,-474.662 740.1001,-481.2369"/>
</g>
<!-- Node375514&#45;&gt;Node375428 -->
<g id="edge34" class="edge">
<title>Node375514&#45;&gt;Node375428</title>
<path fill="none" stroke="#191970" d="M360.9844,-272.4564C371.446,-277.3223 384.0901,-283.5581 395,-289.9487 411.8083,-299.7944 413.8603,-305.6919 431,-314.9487 438.1666,-318.8193 446.0938,-322.4368 453.7623,-325.6302"/>
<polygon fill="#191970" stroke="#191970" points="452.6763,-328.9654 463.2607,-329.4352 455.2794,-322.4674 452.6763,-328.9654"/>
</g>
<!-- Node375514&#45;&gt;Node375438 -->
<g id="edge35" class="edge">
<title>Node375514&#45;&gt;Node375438</title>
<path fill="none" stroke="#191970" d="M395.0476,-253.6933C406.8895,-251.9324 419.3399,-250.2394 431,-248.9487 538.0064,-237.1039 664.16,-230.1553 731.6361,-227.0016"/>
<polygon fill="#191970" stroke="#191970" points="732.121,-230.4831 741.9498,-226.5278 731.7997,-223.4905 732.121,-230.4831"/>
</g>
<!-- Node375514&#45;&gt;Node375412 -->
<g id="edge32" class="edge">
<title>Node375514&#45;&gt;Node375412</title>
<path fill="none" stroke="#191970" d="M374.5278,-253.4148C381.5467,-250.8339 388.6952,-247.6929 395,-243.9487 413.6623,-232.8659 412.6411,-222.5273 431,-210.9487 437.2829,-206.9862 444.33,-203.4596 451.3169,-200.4106"/>
<polygon fill="#191970" stroke="#191970" points="452.8039,-203.5837 460.7296,-196.5528 450.1493,-197.1066 452.8039,-203.5837"/>
</g>
<!-- Node375819&#45;&gt;Node375437 -->
<g id="edge41" class="edge">
<title>Node375819&#45;&gt;Node375437</title>
<path fill="none" stroke="#191970" d="M346.5301,-120.7052C358.2325,-137.3813 381.7296,-172.7858 395,-205.9487 420.7924,-270.4042 383.8236,-307.016 431,-357.9487 433.1772,-360.2993 435.6445,-362.3604 438.3058,-364.1675"/>
<polygon fill="#191970" stroke="#191970" points="436.8966,-367.3861 447.349,-369.118 440.258,-361.246 436.8966,-367.3861"/>
</g>
<!-- Node375819&#45;&gt;Node375491 -->
<g id="edge39" class="edge">
<title>Node375819&#45;&gt;Node375491</title>
<path fill="none" stroke="#191970" d="M352.5516,-101.3574C369.7935,-89.037 401.4417,-67.6161 431,-53.9487 435.7382,-51.7578 440.7985,-49.719 445.8921,-47.8526"/>
<polygon fill="#191970" stroke="#191970" points="447.3433,-51.0543 455.6526,-44.4812 445.0579,-44.4379 447.3433,-51.0543"/>
</g>
<!-- Node375518 -->
<g id="node23" class="node">
<title>Node375518</title>
<g id="a_node23"><a xlink:href="quickjs_8c.html#acd08798ec15cc37c60d2e7d70007c6a8" target="_top" xlink:title="__JS_NewAtom">
<polygon fill="none" stroke="#ff0000" points="446.5,-101.4487 446.5,-120.4487 534.5,-120.4487 534.5,-101.4487 446.5,-101.4487"/>
<text text-anchor="middle" x="490.5" y="-108.4487" font-family="Helvetica,sans-Serif" font-size="10.00" fill="#000000">__JS_NewAtom</text>
</a>
</g>
</g>
<!-- Node375819&#45;&gt;Node375518 -->
<g id="edge40" class="edge">
<title>Node375819&#45;&gt;Node375518</title>
<path fill="none" stroke="#191970" d="M389.3615,-110.9487C404.2981,-110.9487 420.7539,-110.9487 435.9744,-110.9487"/>
<polygon fill="#191970" stroke="#191970" points="436.2805,-114.4488 446.2805,-110.9487 436.2804,-107.4488 436.2805,-114.4488"/>
</g>
<!-- Node375464 -->
<g id="node24" class="node">
<title>Node375464</title>
<g id="a_node24"><a xlink:href="quickjs_8c.html#a0ee6a3654a6016393fac5e1c108f403a" target="_top" xlink:title="JS_NewString">
<polygon fill="none" stroke="#ff0000" points="450.5,-63.4487 450.5,-82.4487 530.5,-82.4487 530.5,-63.4487 450.5,-63.4487"/>
<text text-anchor="middle" x="490.5" y="-70.4487" font-family="Helvetica,sans-Serif" font-size="10.00" fill="#000000">JS_NewString</text>
</a>
</g>
</g>
<!-- Node375819&#45;&gt;Node375464 -->
<g id="edge42" class="edge">
<title>Node375819&#45;&gt;Node375464</title>
<path fill="none" stroke="#191970" d="M377.6037,-101.3597C397.44,-96.3678 421.8839,-90.2163 442.9483,-84.9154"/>
<polygon fill="#191970" stroke="#191970" points="443.8269,-88.3035 452.6703,-82.4688 442.1185,-81.5151 443.8269,-88.3035"/>
</g>
</g>
</svg>
