<?xml version="1.0" encoding="UTF-8" standalone="no"?>
<!DOCTYPE svg PUBLIC "-//W3C//DTD SVG 1.1//EN"
 "http://www.w3.org/Graphics/SVG/1.1/DTD/svg11.dtd">
<!-- Generated by graphviz version 2.40.1 (20161225.0304)
 -->
<!-- Title: js_math_hypot Pages: 1 -->
<svg width="486pt" height="142pt"
 viewBox="0.00 0.00 486.00 142.00" xmlns="http://www.w3.org/2000/svg" xmlns:xlink="http://www.w3.org/1999/xlink">
<g id="graph0" class="graph" transform="scale(1 1) rotate(0) translate(4 138)">
<title>js_math_hypot</title>
<!-- Node401076 -->
<g id="node1" class="node">
<title>Node401076</title>
<polygon fill="#bfbfbf" stroke="#000000" points="0,-76.5 0,-95.5 80,-95.5 80,-76.5 0,-76.5"/>
<text text-anchor="middle" x="40" y="-83.5" font-family="Helvetica,sans-Serif" font-size="10.00" fill="#000000">js_math_hypot</text>
</g>
<!-- Node401077 -->
<g id="node2" class="node">
<title>Node401077</title>
<g id="a_node2"><a xlink:href="quickjs_8c.html#a80e54dcf9ac687d4ccc2f90273565f30" target="_top" xlink:title="js_free">
<polygon fill="none" stroke="#000000" points="136,-114.5 136,-133.5 182,-133.5 182,-114.5 136,-114.5"/>
<text text-anchor="middle" x="159" y="-121.5" font-family="Helvetica,sans-Serif" font-size="10.00" fill="#000000">js_free</text>
</a>
</g>
</g>
<!-- Node401076&#45;&gt;Node401077 -->
<g id="edge1" class="edge">
<title>Node401076&#45;&gt;Node401077</title>
<path fill="none" stroke="#191970" d="M70.0287,-95.589C87.0656,-101.0293 108.4152,-107.8469 125.93,-113.4398"/>
<polygon fill="#191970" stroke="#191970" points="125.1469,-116.8638 135.7377,-116.5717 127.2763,-110.1956 125.1469,-116.8638"/>
</g>
<!-- Node401079 -->
<g id="node4" class="node">
<title>Node401079</title>
<g id="a_node4"><a xlink:href="quickjs_8h.html#ae91f44bd7249613050c18c7133702c67" target="_top" xlink:title="JS_NewFloat64">
<polygon fill="none" stroke="#000000" points="116,-76.5 116,-95.5 202,-95.5 202,-76.5 116,-76.5"/>
<text text-anchor="middle" x="159" y="-83.5" font-family="Helvetica,sans-Serif" font-size="10.00" fill="#000000">JS_NewFloat64</text>
</a>
</g>
</g>
<!-- Node401076&#45;&gt;Node401079 -->
<g id="edge3" class="edge">
<title>Node401076&#45;&gt;Node401079</title>
<path fill="none" stroke="#191970" d="M80.288,-86C88.4372,-86 97.1251,-86 105.6432,-86"/>
<polygon fill="#191970" stroke="#191970" points="105.9016,-89.5001 115.9016,-86 105.9015,-82.5001 105.9016,-89.5001"/>
</g>
<!-- Node401081 -->
<g id="node6" class="node">
<title>Node401081</title>
<g id="a_node6"><a xlink:href="quickjs_8c.html#a8cc9386cd04cfa067d0c6bf588c6bb58" target="_top" xlink:title="JS_ToFloat64">
<polygon fill="none" stroke="#000000" points="120.5,-38.5 120.5,-57.5 197.5,-57.5 197.5,-38.5 120.5,-38.5"/>
<text text-anchor="middle" x="159" y="-45.5" font-family="Helvetica,sans-Serif" font-size="10.00" fill="#000000">JS_ToFloat64</text>
</a>
</g>
</g>
<!-- Node401076&#45;&gt;Node401081 -->
<g id="edge5" class="edge">
<title>Node401076&#45;&gt;Node401081</title>
<path fill="none" stroke="#191970" d="M70.0287,-76.411C84.9677,-71.6406 103.2227,-65.8112 119.3006,-60.6771"/>
<polygon fill="#191970" stroke="#191970" points="120.5195,-63.9621 128.9809,-57.5859 118.3901,-57.2938 120.5195,-63.9621"/>
</g>
<!-- Node401078 -->
<g id="node3" class="node">
<title>Node401078</title>
<g id="a_node3"><a xlink:href="quickjs_8c.html#a69e19dda8a93d613203e0baa06f0ed8d" target="_top" xlink:title="js_free_rt">
<polygon fill="none" stroke="#000000" points="258,-114.5 258,-133.5 315,-133.5 315,-114.5 258,-114.5"/>
<text text-anchor="middle" x="286.5" y="-121.5" font-family="Helvetica,sans-Serif" font-size="10.00" fill="#000000">js_free_rt</text>
</a>
</g>
</g>
<!-- Node401077&#45;&gt;Node401078 -->
<g id="edge2" class="edge">
<title>Node401077&#45;&gt;Node401078</title>
<path fill="none" stroke="#191970" d="M182.0893,-124C200.3437,-124 226.2319,-124 247.6627,-124"/>
<polygon fill="#191970" stroke="#191970" points="247.7723,-127.5001 257.7723,-124 247.7722,-120.5001 247.7723,-127.5001"/>
</g>
<!-- Node401080 -->
<g id="node5" class="node">
<title>Node401080</title>
<g id="a_node5"><a xlink:href="quickjs_8h.html#a9bf98b18de88b4199910a43e933eb97d" target="_top" xlink:title="__JS_NewFloat64">
<polygon fill="none" stroke="#000000" points="238,-76.5 238,-95.5 335,-95.5 335,-76.5 238,-76.5"/>
<text text-anchor="middle" x="286.5" y="-83.5" font-family="Helvetica,sans-Serif" font-size="10.00" fill="#000000">__JS_NewFloat64</text>
</a>
</g>
</g>
<!-- Node401079&#45;&gt;Node401080 -->
<g id="edge4" class="edge">
<title>Node401079&#45;&gt;Node401080</title>
<path fill="none" stroke="#191970" d="M202.1657,-86C210.2807,-86 218.8942,-86 227.3968,-86"/>
<polygon fill="#191970" stroke="#191970" points="227.6723,-89.5001 237.6723,-86 227.6723,-82.5001 227.6723,-89.5001"/>
</g>
<!-- Node401082 -->
<g id="node7" class="node">
<title>Node401082</title>
<g id="a_node7"><a xlink:href="quickjs_8h.html#a775522f2d084fc8fa0fcb33f390006b4" target="_top" xlink:title="JS_DupValue">
<polygon fill="none" stroke="#000000" points="248,-38.5 248,-57.5 325,-57.5 325,-38.5 248,-38.5"/>
<text text-anchor="middle" x="286.5" y="-45.5" font-family="Helvetica,sans-Serif" font-size="10.00" fill="#000000">JS_DupValue</text>
</a>
</g>
</g>
<!-- Node401081&#45;&gt;Node401082 -->
<g id="edge6" class="edge">
<title>Node401081&#45;&gt;Node401082</title>
<path fill="none" stroke="#191970" d="M197.6002,-48C210.0923,-48 224.1187,-48 237.2737,-48"/>
<polygon fill="#191970" stroke="#191970" points="237.591,-51.5001 247.591,-48 237.5909,-44.5001 237.591,-51.5001"/>
</g>
<!-- Node401083 -->
<g id="node8" class="node">
<title>Node401083</title>
<g id="a_node8"><a xlink:href="quickjs_8c.html#ab1b614ef35f1cea05da0ad4927c53118" target="_top" xlink:title="JS_ToFloat64Free">
<polygon fill="none" stroke="#000000" points="238,-.5 238,-19.5 335,-19.5 335,-.5 238,-.5"/>
<text text-anchor="middle" x="286.5" y="-7.5" font-family="Helvetica,sans-Serif" font-size="10.00" fill="#000000">JS_ToFloat64Free</text>
</a>
</g>
</g>
<!-- Node401081&#45;&gt;Node401083 -->
<g id="edge7" class="edge">
<title>Node401081&#45;&gt;Node401083</title>
<path fill="none" stroke="#191970" d="M191.1736,-38.411C207.3307,-33.5956 227.108,-27.7012 244.4518,-22.532"/>
<polygon fill="#191970" stroke="#191970" points="245.7529,-25.7964 254.3367,-19.5859 243.7535,-19.088 245.7529,-25.7964"/>
</g>
<!-- Node401084 -->
<g id="node9" class="node">
<title>Node401084</title>
<g id="a_node9"><a xlink:href="quickjs_8c.html#a9a2e141f21d9ea38a3a23c9b4eb6e356" target="_top" xlink:title="__JS_ToFloat64Free">
<polygon fill="none" stroke="#ff0000" points="371,-.5 371,-19.5 478,-19.5 478,-.5 371,-.5"/>
<text text-anchor="middle" x="424.5" y="-7.5" font-family="Helvetica,sans-Serif" font-size="10.00" fill="#000000">__JS_ToFloat64Free</text>
</a>
</g>
</g>
<!-- Node401083&#45;&gt;Node401084 -->
<g id="edge8" class="edge">
<title>Node401083&#45;&gt;Node401084</title>
<path fill="none" stroke="#191970" d="M335.1536,-10C343.3186,-10 351.901,-10 360.3844,-10"/>
<polygon fill="#191970" stroke="#191970" points="360.6485,-13.5001 370.6485,-10 360.6485,-6.5001 360.6485,-13.5001"/>
</g>
</g>
</svg>
