<?xml version="1.0" encoding="UTF-8" standalone="no"?>
<!DOCTYPE svg PUBLIC "-//W3C//DTD SVG 1.1//EN"
 "http://www.w3.org/Graphics/SVG/1.1/DTD/svg11.dtd">
<!-- Generated by graphviz version 2.40.1 (20161225.0304)
 -->
<!-- Title: push_short_int Pages: 1 -->
<svg width="394pt" height="104pt"
 viewBox="0.00 0.00 394.00 104.00" xmlns="http://www.w3.org/2000/svg" xmlns:xlink="http://www.w3.org/1999/xlink">
<g id="graph0" class="graph" transform="scale(1 1) rotate(0) translate(4 100)">
<title>push_short_int</title>
<!-- Node338520 -->
<g id="node1" class="node">
<title>Node338520</title>
<polygon fill="#bfbfbf" stroke="#000000" points="0,-38.5 0,-57.5 80,-57.5 80,-38.5 0,-38.5"/>
<text text-anchor="middle" x="40" y="-45.5" font-family="Helvetica,sans-Serif" font-size="10.00" fill="#000000">push_short_int</text>
</g>
<!-- Node338521 -->
<g id="node2" class="node">
<title>Node338521</title>
<g id="a_node2"><a xlink:href="cutils_8h.html#a31a6b9f8517a73d45e976d8a026e964e" target="_top" xlink:title="dbuf_put_u16">
<polygon fill="none" stroke="#000000" points="116,-76.5 116,-95.5 191,-95.5 191,-76.5 116,-76.5"/>
<text text-anchor="middle" x="153.5" y="-83.5" font-family="Helvetica,sans-Serif" font-size="10.00" fill="#000000">dbuf_put_u16</text>
</a>
</g>
</g>
<!-- Node338520&#45;&gt;Node338521 -->
<g id="edge1" class="edge">
<title>Node338520&#45;&gt;Node338521</title>
<path fill="none" stroke="#191970" d="M68.6408,-57.589C82.7549,-62.3144 99.9724,-68.0789 115.2009,-73.1774"/>
<polygon fill="#191970" stroke="#191970" points="114.2745,-76.5581 124.8683,-76.4141 116.4969,-69.9203 114.2745,-76.5581"/>
</g>
<!-- Node338524 -->
<g id="node5" class="node">
<title>Node338524</title>
<g id="a_node5"><a xlink:href="cutils_8h.html#a8ba08f82c43549fcb3c939229498354d" target="_top" xlink:title="dbuf_put_u32">
<polygon fill="none" stroke="#000000" points="116,-38.5 116,-57.5 191,-57.5 191,-38.5 116,-38.5"/>
<text text-anchor="middle" x="153.5" y="-45.5" font-family="Helvetica,sans-Serif" font-size="10.00" fill="#000000">dbuf_put_u32</text>
</a>
</g>
</g>
<!-- Node338520&#45;&gt;Node338524 -->
<g id="edge4" class="edge">
<title>Node338520&#45;&gt;Node338524</title>
<path fill="none" stroke="#191970" d="M80.0159,-48C88.2739,-48 97.0512,-48 105.5579,-48"/>
<polygon fill="#191970" stroke="#191970" points="105.7468,-51.5001 115.7468,-48 105.7468,-44.5001 105.7468,-51.5001"/>
</g>
<!-- Node338525 -->
<g id="node6" class="node">
<title>Node338525</title>
<g id="a_node6"><a xlink:href="cutils_8h.html#aeed81d4787ccdbd55baa9b5fd6717e88" target="_top" xlink:title="dbuf_putc">
<polygon fill="none" stroke="#000000" points="124,-.5 124,-19.5 183,-19.5 183,-.5 124,-.5"/>
<text text-anchor="middle" x="153.5" y="-7.5" font-family="Helvetica,sans-Serif" font-size="10.00" fill="#000000">dbuf_putc</text>
</a>
</g>
</g>
<!-- Node338520&#45;&gt;Node338525 -->
<g id="edge6" class="edge">
<title>Node338520&#45;&gt;Node338525</title>
<path fill="none" stroke="#191970" d="M68.6408,-38.411C82.7549,-33.6856 99.9724,-27.9211 115.2009,-22.8226"/>
<polygon fill="#191970" stroke="#191970" points="116.4969,-26.0797 124.8683,-19.5859 114.2745,-19.4419 116.4969,-26.0797"/>
</g>
<!-- Node338522 -->
<g id="node3" class="node">
<title>Node338522</title>
<g id="a_node3"><a xlink:href="cutils_8h.html#ad1cfaae47347ae771136b5a9bbda49aa" target="_top" xlink:title="dbuf_put">
<polygon fill="none" stroke="#000000" points="227,-38.5 227,-57.5 281,-57.5 281,-38.5 227,-38.5"/>
<text text-anchor="middle" x="254" y="-45.5" font-family="Helvetica,sans-Serif" font-size="10.00" fill="#000000">dbuf_put</text>
</a>
</g>
</g>
<!-- Node338521&#45;&gt;Node338522 -->
<g id="edge2" class="edge">
<title>Node338521&#45;&gt;Node338522</title>
<path fill="none" stroke="#191970" d="M178.8604,-76.411C191.0008,-71.8206 205.7344,-66.2497 218.9276,-61.2612"/>
<polygon fill="#191970" stroke="#191970" points="220.5319,-64.3965 228.6477,-57.5859 218.0561,-57.8489 220.5319,-64.3965"/>
</g>
<!-- Node338523 -->
<g id="node4" class="node">
<title>Node338523</title>
<g id="a_node4"><a xlink:href="cutils_8h.html#ac0b9ce26415947e972d6781d9f2fb11b" target="_top" xlink:title="dbuf_realloc">
<polygon fill="none" stroke="#000000" points="317,-38.5 317,-57.5 386,-57.5 386,-38.5 317,-38.5"/>
<text text-anchor="middle" x="351.5" y="-45.5" font-family="Helvetica,sans-Serif" font-size="10.00" fill="#000000">dbuf_realloc</text>
</a>
</g>
</g>
<!-- Node338522&#45;&gt;Node338523 -->
<g id="edge3" class="edge">
<title>Node338522&#45;&gt;Node338523</title>
<path fill="none" stroke="#191970" d="M281.1592,-48C289.097,-48 297.9919,-48 306.7163,-48"/>
<polygon fill="#191970" stroke="#191970" points="306.812,-51.5001 316.812,-48 306.8119,-44.5001 306.812,-51.5001"/>
</g>
<!-- Node338524&#45;&gt;Node338522 -->
<g id="edge5" class="edge">
<title>Node338524&#45;&gt;Node338522</title>
<path fill="none" stroke="#191970" d="M191.2084,-48C199.5109,-48 208.3013,-48 216.5918,-48"/>
<polygon fill="#191970" stroke="#191970" points="216.7515,-51.5001 226.7515,-48 216.7515,-44.5001 216.7515,-51.5001"/>
</g>
<!-- Node338525&#45;&gt;Node338522 -->
<g id="edge7" class="edge">
<title>Node338525&#45;&gt;Node338522</title>
<path fill="none" stroke="#191970" d="M178.8604,-19.589C191.0008,-24.1794 205.7344,-29.7503 218.9276,-34.7388"/>
<polygon fill="#191970" stroke="#191970" points="218.0561,-38.1511 228.6477,-38.4141 220.5319,-31.6035 218.0561,-38.1511"/>
</g>
</g>
</svg>
