<?xml version="1.0" encoding="UTF-8" standalone="no"?>
<!DOCTYPE svg PUBLIC "-//W3C//DTD SVG 1.1//EN"
 "http://www.w3.org/Graphics/SVG/1.1/DTD/svg11.dtd">
<!-- Generated by graphviz version 2.40.1 (20161225.0304)
 -->
<!-- Title: JS_AddModuleExport Pages: 1 -->
<svg width="492pt" height="104pt"
 viewBox="0.00 0.00 492.00 104.00" xmlns="http://www.w3.org/2000/svg" xmlns:xlink="http://www.w3.org/1999/xlink">
<g id="graph0" class="graph" transform="scale(1 1) rotate(0) translate(4 100)">
<title>JS_AddModuleExport</title>
<!-- Node318519 -->
<g id="node1" class="node">
<title>Node318519</title>
<polygon fill="#bfbfbf" stroke="#000000" points="0,-38.5 0,-57.5 111,-57.5 111,-38.5 0,-38.5"/>
<text text-anchor="middle" x="55.5" y="-45.5" font-family="Helvetica,sans-Serif" font-size="10.00" fill="#000000">JS_AddModuleExport</text>
</g>
<!-- Node318520 -->
<g id="node2" class="node">
<title>Node318520</title>
<g id="a_node2"><a xlink:href="classqjs_1_1Context_1_1Module.html#aa51896e065a04689c9dbe80a282805bb" target="_top" xlink:title="qjs::Context::Module::add">
<polygon fill="none" stroke="#000000" points="147,-76.5 147,-95.5 276,-95.5 276,-76.5 147,-76.5"/>
<text text-anchor="middle" x="211.5" y="-83.5" font-family="Helvetica,sans-Serif" font-size="10.00" fill="#000000">qjs::Context::Module::add</text>
</a>
</g>
</g>
<!-- Node318519&#45;&gt;Node318520 -->
<g id="edge1" class="edge">
<title>Node318519&#45;&gt;Node318520</title>
<path fill="none" stroke="#191970" d="M104.6317,-59.968C126.4927,-65.2931 151.8761,-71.4762 172.4177,-76.4799"/>
<polygon fill="#191970" stroke="#191970" points="105.4097,-56.5552 94.8654,-57.589 103.7529,-63.3563 105.4097,-56.5552"/>
</g>
<!-- Node318521 -->
<g id="node3" class="node">
<title>Node318521</title>
<g id="a_node3"><a xlink:href="quickjs_8c.html#ac7a9b88dd7ca1a70cd0ecd9a28905e25" target="_top" xlink:title="JS_AddModuleExportList">
<polygon fill="none" stroke="#000000" points="148,-.5 148,-19.5 275,-19.5 275,-.5 148,-.5"/>
<text text-anchor="middle" x="211.5" y="-7.5" font-family="Helvetica,sans-Serif" font-size="10.00" fill="#000000">JS_AddModuleExportList</text>
</a>
</g>
</g>
<!-- Node318519&#45;&gt;Node318521 -->
<g id="edge2" class="edge">
<title>Node318519&#45;&gt;Node318521</title>
<path fill="none" stroke="#191970" d="M104.6317,-36.032C126.4927,-30.7069 151.8761,-24.5238 172.4177,-19.5201"/>
<polygon fill="#191970" stroke="#191970" points="103.7529,-32.6437 94.8654,-38.411 105.4097,-39.4448 103.7529,-32.6437"/>
</g>
<!-- Node318522 -->
<g id="node4" class="node">
<title>Node318522</title>
<g id="a_node4"><a xlink:href="quickjs-libc_8c.html#a0e65c67dfff872a664f8d29e7eae5a61" target="_top" xlink:title="js_init_module_std">
<polygon fill="none" stroke="#000000" points="312,-38.5 312,-57.5 410,-57.5 410,-38.5 312,-38.5"/>
<text text-anchor="middle" x="361" y="-45.5" font-family="Helvetica,sans-Serif" font-size="10.00" fill="#000000">js_init_module_std</text>
</a>
</g>
</g>
<!-- Node318519&#45;&gt;Node318522 -->
<g id="edge7" class="edge">
<title>Node318519&#45;&gt;Node318522</title>
<path fill="none" stroke="#191970" d="M121.2043,-48C178.3991,-48 260.033,-48 311.7604,-48"/>
<polygon fill="#191970" stroke="#191970" points="121.1782,-44.5001 111.1782,-48 121.1781,-51.5001 121.1782,-44.5001"/>
</g>
<!-- Node318521&#45;&gt;Node318522 -->
<g id="edge3" class="edge">
<title>Node318521&#45;&gt;Node318522</title>
<path fill="none" stroke="#191970" d="M259.1516,-22.1121C279.9726,-27.4044 304.0377,-33.5213 323.5461,-38.4799"/>
<polygon fill="#191970" stroke="#191970" points="259.7792,-18.6604 249.2252,-19.589 258.0547,-25.4447 259.7792,-18.6604"/>
</g>
<!-- Node318524 -->
<g id="node6" class="node">
<title>Node318524</title>
<g id="a_node6"><a xlink:href="quickjs-libc_8c.html#adcca2b4a661355e6ff87a0def2339894" target="_top" xlink:title="js_init_module_os">
<polygon fill="none" stroke="#000000" points="313.5,-.5 313.5,-19.5 408.5,-19.5 408.5,-.5 313.5,-.5"/>
<text text-anchor="middle" x="361" y="-7.5" font-family="Helvetica,sans-Serif" font-size="10.00" fill="#000000">js_init_module_os</text>
</a>
</g>
</g>
<!-- Node318521&#45;&gt;Node318524 -->
<g id="edge5" class="edge">
<title>Node318521&#45;&gt;Node318524</title>
<path fill="none" stroke="#191970" d="M285.5165,-10C294.931,-10 304.361,-10 313.2091,-10"/>
<polygon fill="#191970" stroke="#191970" points="285.3351,-6.5001 275.3351,-10 285.3351,-13.5001 285.3351,-6.5001"/>
</g>
<!-- Node318523 -->
<g id="node5" class="node">
<title>Node318523</title>
<g id="a_node5"><a xlink:href="qjs_8cpp.html#a3c04138a5bfe5d72780bb7e82a18e627" target="_top" xlink:title="main">
<polygon fill="none" stroke="#000000" points="446,-19.5 446,-38.5 484,-38.5 484,-19.5 446,-19.5"/>
<text text-anchor="middle" x="465" y="-26.5" font-family="Helvetica,sans-Serif" font-size="10.00" fill="#000000">main</text>
</a>
</g>
</g>
<!-- Node318522&#45;&gt;Node318523 -->
<g id="edge4" class="edge">
<title>Node318522&#45;&gt;Node318523</title>
<path fill="none" stroke="#191970" d="M420.2897,-37.1682C429.4732,-35.4905 438.3472,-33.8693 445.7353,-32.5195"/>
<polygon fill="#191970" stroke="#191970" points="419.4671,-33.7605 410.2589,-39.0008 420.7252,-40.6465 419.4671,-33.7605"/>
</g>
<!-- Node318524&#45;&gt;Node318523 -->
<g id="edge6" class="edge">
<title>Node318524&#45;&gt;Node318523</title>
<path fill="none" stroke="#191970" d="M418.6062,-20.5242C428.4365,-22.3201 437.9964,-24.0666 445.8585,-25.503"/>
<polygon fill="#191970" stroke="#191970" points="419.2049,-17.0757 408.7386,-18.7215 417.9468,-23.9618 419.2049,-17.0757"/>
</g>
</g>
</svg>
