<?xml version="1.0" encoding="UTF-8" standalone="no"?>
<!DOCTYPE svg PUBLIC "-//W3C//DTD SVG 1.1//EN"
 "http://www.w3.org/Graphics/SVG/1.1/DTD/svg11.dtd">
<!-- Generated by graphviz version 2.40.1 (20161225.0304)
 -->
<!-- Title: emit_u8 Pages: 1 -->
<svg width="349pt" height="28pt"
 viewBox="0.00 0.00 349.00 28.00" xmlns="http://www.w3.org/2000/svg" xmlns:xlink="http://www.w3.org/1999/xlink">
<g id="graph0" class="graph" transform="scale(1 1) rotate(0) translate(4 24)">
<title>emit_u8</title>
<!-- Node298567 -->
<g id="node1" class="node">
<title>Node298567</title>
<polygon fill="#bfbfbf" stroke="#000000" points="0,-.5 0,-19.5 51,-19.5 51,-.5 0,-.5"/>
<text text-anchor="middle" x="25.5" y="-7.5" font-family="Helvetica,sans-Serif" font-size="10.00" fill="#000000">emit_u8</text>
</g>
<!-- Node298568 -->
<g id="node2" class="node">
<title>Node298568</title>
<g id="a_node2"><a xlink:href="cutils_8h.html#aeed81d4787ccdbd55baa9b5fd6717e88" target="_top" xlink:title="dbuf_putc">
<polygon fill="none" stroke="#000000" points="87,-.5 87,-19.5 146,-19.5 146,-.5 87,-.5"/>
<text text-anchor="middle" x="116.5" y="-7.5" font-family="Helvetica,sans-Serif" font-size="10.00" fill="#000000">dbuf_putc</text>
</a>
</g>
</g>
<!-- Node298567&#45;&gt;Node298568 -->
<g id="edge1" class="edge">
<title>Node298567&#45;&gt;Node298568</title>
<path fill="none" stroke="#191970" d="M51.3335,-10C59.1785,-10 67.9893,-10 76.5357,-10"/>
<polygon fill="#191970" stroke="#191970" points="76.7465,-13.5001 86.7465,-10 76.7465,-6.5001 76.7465,-13.5001"/>
</g>
<!-- Node298569 -->
<g id="node3" class="node">
<title>Node298569</title>
<g id="a_node3"><a xlink:href="cutils_8h.html#ad1cfaae47347ae771136b5a9bbda49aa" target="_top" xlink:title="dbuf_put">
<polygon fill="none" stroke="#000000" points="182,-.5 182,-19.5 236,-19.5 236,-.5 182,-.5"/>
<text text-anchor="middle" x="209" y="-7.5" font-family="Helvetica,sans-Serif" font-size="10.00" fill="#000000">dbuf_put</text>
</a>
</g>
</g>
<!-- Node298568&#45;&gt;Node298569 -->
<g id="edge2" class="edge">
<title>Node298568&#45;&gt;Node298569</title>
<path fill="none" stroke="#191970" d="M146.0219,-10C154.2163,-10 163.2204,-10 171.7932,-10"/>
<polygon fill="#191970" stroke="#191970" points="171.9528,-13.5001 181.9527,-10 171.9527,-6.5001 171.9528,-13.5001"/>
</g>
<!-- Node298570 -->
<g id="node4" class="node">
<title>Node298570</title>
<g id="a_node4"><a xlink:href="cutils_8h.html#ac0b9ce26415947e972d6781d9f2fb11b" target="_top" xlink:title="dbuf_realloc">
<polygon fill="none" stroke="#000000" points="272,-.5 272,-19.5 341,-19.5 341,-.5 272,-.5"/>
<text text-anchor="middle" x="306.5" y="-7.5" font-family="Helvetica,sans-Serif" font-size="10.00" fill="#000000">dbuf_realloc</text>
</a>
</g>
</g>
<!-- Node298569&#45;&gt;Node298570 -->
<g id="edge3" class="edge">
<title>Node298569&#45;&gt;Node298570</title>
<path fill="none" stroke="#191970" d="M236.1592,-10C244.097,-10 252.9919,-10 261.7163,-10"/>
<polygon fill="#191970" stroke="#191970" points="261.812,-13.5001 271.812,-10 261.8119,-6.5001 261.812,-13.5001"/>
</g>
</g>
</svg>
