<?xml version="1.0" encoding="UTF-8" standalone="no"?>
<!DOCTYPE svg PUBLIC "-//W3C//DTD SVG 1.1//EN"
 "http://www.w3.org/Graphics/SVG/1.1/DTD/svg11.dtd">
<!-- Generated by graphviz version 2.40.1 (20161225.0304)
 -->
<!-- Title: JS_ToInt64Sat Pages: 1 -->
<!--zoomable 442 -->
<svg id="main" version="1.1" xmlns="http://www.w3.org/2000/svg" xmlns:xlink="http://www.w3.org/1999/xlink" xml:space="preserve" onload="init(evt)">
<style type="text/css"><![CDATA[
.edge:hover path { stroke: red; }
.edge:hover polygon { stroke: red; fill: red; }
]]></style>
<script type="text/javascript"><![CDATA[
var edges = document.getElementsByTagName('g');
if (edges && edges.length) {
  for (var i=0;i<edges.length;i++) {
    if (edges[i].id.substr(0,4)=='edge') {
      edges[i].setAttribute('class','edge');
    }
  }
}
]]></script>
        <defs>
                <circle id="rim" cx="0" cy="0" r="7"/>
                <circle id="rim2" cx="0" cy="0" r="3.5"/>
                <g id="zoomPlus">
                        <use xlink:href="#rim" fill="#404040">
                                <set attributeName="fill" to="#808080" begin="zoomplus.mouseover" end="zoomplus.mouseout"/>
                        </use>
                        <path d="M-4,0h8M0,-4v8" fill="none" stroke="white" stroke-width="1.5" pointer-events="none"/>
                </g>
                <g id="zoomMin">
                        <use xlink:href="#rim" fill="#404040">
                                <set attributeName="fill" to="#808080" begin="zoomminus.mouseover" end="zoomminus.mouseout"/>
                        </use>
                        <path d="M-4,0h8" fill="none" stroke="white" stroke-width="1.5" pointer-events="none"/>
                </g>
                <g id="dirArrow">
                        <path fill="none" stroke="white" stroke-width="1.5" d="M0,-3.0v7 M-2.5,-0.5L0,-3.0L2.5,-0.5"/>
                </g>
               <g id="resetDef">
                       <use xlink:href="#rim2" fill="#404040">
                               <set attributeName="fill" to="#808080" begin="reset.mouseover" end="reset.mouseout"/>
                       </use>
               </g>
        </defs>

<script type="text/javascript">
var viewWidth = 573;
var viewHeight = 442;
var sectionId = 'dynsection-675';
</script>
<script xlink:href="svgpan.js"/>
<svg id="graph" class="graph">
<g id="viewport">
<title>JS_ToInt64Sat</title>
<!-- Node229267 -->
<g id="node1" class="node">
<title>Node229267</title>
<polygon fill="#bfbfbf" stroke="#000000" points="0,-212.5 0,-231.5 82,-231.5 82,-212.5 0,-212.5"/>
<text text-anchor="middle" x="41" y="-219.5" font-family="Helvetica,sans-Serif" font-size="10.00" fill="#000000">JS_ToInt64Sat</text>
</g>
<!-- Node229268 -->
<g id="node2" class="node">
<title>Node229268</title>
<g id="a_node2"><a xlink:href="quickjs_8c.html#a0f6f437eaf0cabf7d3e31f8306ed7e02" target="_top" xlink:title="js_string_repeat">
<polygon fill="none" stroke="#000000" points="124.5,-250.5 124.5,-269.5 210.5,-269.5 210.5,-250.5 124.5,-250.5"/>
<text text-anchor="middle" x="167.5" y="-257.5" font-family="Helvetica,sans-Serif" font-size="10.00" fill="#000000">js_string_repeat</text>
</a>
</g>
</g>
<!-- Node229267&#45;&gt;Node229268 -->
<g id="edge1" class="edge">
<title>Node229267&#45;&gt;Node229268</title>
<path fill="none" stroke="#191970" d="M82.7294,-234.5353C99.9382,-239.7048 119.5601,-245.5991 135.5889,-250.4141"/>
<polygon fill="#191970" stroke="#191970" points="83.5055,-231.114 72.9213,-231.589 81.4916,-237.8181 83.5055,-231.114"/>
</g>
<!-- Node229269 -->
<g id="node3" class="node">
<title>Node229269</title>
<g id="a_node3"><a xlink:href="quickjs_8c.html#ad52f50dfe0e0e4aeae7003b97c4c0765" target="_top" xlink:title="JS_ToIndex">
<polygon fill="none" stroke="#000000" points="133,-212.5 133,-231.5 202,-231.5 202,-212.5 133,-212.5"/>
<text text-anchor="middle" x="167.5" y="-219.5" font-family="Helvetica,sans-Serif" font-size="10.00" fill="#000000">JS_ToIndex</text>
</a>
</g>
</g>
<!-- Node229267&#45;&gt;Node229269 -->
<g id="edge2" class="edge">
<title>Node229267&#45;&gt;Node229269</title>
<path fill="none" stroke="#191970" d="M92.3335,-222C106.0084,-222 120.4543,-222 132.9882,-222"/>
<polygon fill="#191970" stroke="#191970" points="92.071,-218.5001 82.0709,-222 92.0709,-225.5001 92.071,-218.5001"/>
</g>
<!-- Node229290 -->
<g id="node20" class="node">
<title>Node229290</title>
<g id="a_node20"><a xlink:href="quickjs_8c.html#a28f4d08e4321e751cebe37ea7259fe3c" target="_top" xlink:title="js_typed_array_set\l_internal">
<polygon fill="none" stroke="#000000" points="118,-90 118,-120 217,-120 217,-90 118,-90"/>
<text text-anchor="start" x="126" y="-108" font-family="Helvetica,sans-Serif" font-size="10.00" fill="#000000">js_typed_array_set</text>
<text text-anchor="middle" x="167.5" y="-97" font-family="Helvetica,sans-Serif" font-size="10.00" fill="#000000">_internal</text>
</a>
</g>
</g>
<!-- Node229267&#45;&gt;Node229290 -->
<g id="edge22" class="edge">
<title>Node229267&#45;&gt;Node229290</title>
<path fill="none" stroke="#191970" d="M58.8935,-205.4502C83.4798,-182.7104 127.3565,-142.1288 151.1203,-120.1496"/>
<polygon fill="#191970" stroke="#191970" points="56.3169,-203.0659 51.352,-212.4254 61.0699,-208.2048 56.3169,-203.0659"/>
</g>
<!-- Node229270 -->
<g id="node4" class="node">
<title>Node229270</title>
<g id="a_node4"><a xlink:href="quickjs-libc_8c.html#a075659fd6c4054c89c99093d1bcb4d37" target="_top" xlink:title="js_std_file_read_write">
<polygon fill="none" stroke="#000000" points="265,-414.5 265,-433.5 376,-433.5 376,-414.5 265,-414.5"/>
<text text-anchor="middle" x="320.5" y="-421.5" font-family="Helvetica,sans-Serif" font-size="10.00" fill="#000000">js_std_file_read_write</text>
</a>
</g>
</g>
<!-- Node229269&#45;&gt;Node229270 -->
<g id="edge3" class="edge">
<title>Node229269&#45;&gt;Node229270</title>
<path fill="none" stroke="#191970" d="M211.0635,-235.4971C213.2355,-237.1276 215.2408,-238.9541 217,-241 265.6535,-297.5829 201.7929,-350.7172 253,-405 256.5922,-408.8079 260.882,-411.8727 265.5338,-414.3365"/>
<polygon fill="#191970" stroke="#191970" points="212.413,-232.2279 202.0279,-230.1303 208.8383,-238.2463 212.413,-232.2279"/>
</g>
<!-- Node229271 -->
<g id="node5" class="node">
<title>Node229271</title>
<g id="a_node5"><a xlink:href="quickjs-libc_8c.html#ae8abf0c32bf9b0acd85adffaf8345dfe" target="_top" xlink:title="js_std_file_readAsString">
<polygon fill="none" stroke="#000000" points="259.5,-376.5 259.5,-395.5 381.5,-395.5 381.5,-376.5 259.5,-376.5"/>
<text text-anchor="middle" x="320.5" y="-383.5" font-family="Helvetica,sans-Serif" font-size="10.00" fill="#000000">js_std_file_readAsString</text>
</a>
</g>
</g>
<!-- Node229269&#45;&gt;Node229271 -->
<g id="edge4" class="edge">
<title>Node229269&#45;&gt;Node229271</title>
<path fill="none" stroke="#191970" d="M211.0146,-235.6998C213.1856,-237.2796 215.2052,-239.0395 217,-241 256.327,-283.958 211.7369,-325.8982 253,-367 256.8814,-370.8662 261.4839,-373.9603 266.4341,-376.4342"/>
<polygon fill="#191970" stroke="#191970" points="212.4463,-232.4826 202.0468,-230.4574 208.9135,-238.5258 212.4463,-232.4826"/>
</g>
<!-- Node229272 -->
<g id="node6" class="node">
<title>Node229272</title>
<g id="a_node6"><a xlink:href="quickjs-libc_8c.html#a70dbcae0637863811297360f2773c3ba" target="_top" xlink:title="js_os_read_write">
<polygon fill="none" stroke="#000000" points="275.5,-338.5 275.5,-357.5 365.5,-357.5 365.5,-338.5 275.5,-338.5"/>
<text text-anchor="middle" x="320.5" y="-345.5" font-family="Helvetica,sans-Serif" font-size="10.00" fill="#000000">js_os_read_write</text>
</a>
</g>
</g>
<!-- Node229269&#45;&gt;Node229272 -->
<g id="edge5" class="edge">
<title>Node229269&#45;&gt;Node229272</title>
<path fill="none" stroke="#191970" d="M210.9691,-236.0785C213.1263,-237.562 215.1577,-239.1975 217,-241 247.2047,-270.5526 221.4667,-300.8694 253,-329 259.3592,-334.673 267.2876,-338.6642 275.4515,-341.4691"/>
<polygon fill="#191970" stroke="#191970" points="212.5842,-232.9708 202.1597,-231.0787 209.129,-239.0586 212.5842,-232.9708"/>
</g>
<!-- Node229273 -->
<g id="node7" class="node">
<title>Node229273</title>
<g id="a_node7"><a xlink:href="quickjs_8c.html#a79fd9f97cb3db574f9c2b78492723681" target="_top" xlink:title="js_array_buffer_constructor">
<polygon fill="none" stroke="#000000" points="253,-300.5 253,-319.5 388,-319.5 388,-300.5 253,-300.5"/>
<text text-anchor="middle" x="320.5" y="-307.5" font-family="Helvetica,sans-Serif" font-size="10.00" fill="#000000">js_array_buffer_constructor</text>
</a>
</g>
</g>
<!-- Node229269&#45;&gt;Node229273 -->
<g id="edge6" class="edge">
<title>Node229269&#45;&gt;Node229273</title>
<path fill="none" stroke="#191970" d="M209.5451,-236.071C212.1634,-237.5692 214.676,-239.2089 217,-241 238.6887,-257.7161 230.5647,-275.3002 253,-291 258.5857,-294.9088 264.9577,-298.0166 271.5046,-300.4869"/>
<polygon fill="#191970" stroke="#191970" points="210.8696,-232.821 200.3564,-231.5082 207.7563,-239.0906 210.8696,-232.821"/>
</g>
<!-- Node229276 -->
<g id="node9" class="node">
<title>Node229276</title>
<g id="a_node9"><a xlink:href="quickjs_8c.html#a4033d30f8e082770b4bb91138fec9ccc" target="_top" xlink:title="js_shared_array_buffer\l_constructor">
<polygon fill="none" stroke="#000000" points="262.5,-251 262.5,-281 378.5,-281 378.5,-251 262.5,-251"/>
<text text-anchor="start" x="270.5" y="-269" font-family="Helvetica,sans-Serif" font-size="10.00" fill="#000000">js_shared_array_buffer</text>
<text text-anchor="middle" x="320.5" y="-258" font-family="Helvetica,sans-Serif" font-size="10.00" fill="#000000">_constructor</text>
</a>
</g>
</g>
<!-- Node229269&#45;&gt;Node229276 -->
<g id="edge8" class="edge">
<title>Node229269&#45;&gt;Node229276</title>
<path fill="none" stroke="#191970" d="M210.3113,-234.3118C228.2459,-239.4694 249.2672,-245.5148 268.1136,-250.9346"/>
<polygon fill="#191970" stroke="#191970" points="211.2766,-230.9475 200.6987,-231.5473 209.3419,-237.6749 211.2766,-230.9475"/>
</g>
<!-- Node229277 -->
<g id="node10" class="node">
<title>Node229277</title>
<g id="a_node10"><a xlink:href="quickjs_8c.html#a3be661c1eaa7a31184410667862635a2" target="_top" xlink:title="js_typed_array_constructor">
<polygon fill="none" stroke="#000000" points="253.5,-174.5 253.5,-193.5 387.5,-193.5 387.5,-174.5 253.5,-174.5"/>
<text text-anchor="middle" x="320.5" y="-181.5" font-family="Helvetica,sans-Serif" font-size="10.00" fill="#000000">js_typed_array_constructor</text>
</a>
</g>
</g>
<!-- Node229269&#45;&gt;Node229277 -->
<g id="edge10" class="edge">
<title>Node229269&#45;&gt;Node229277</title>
<path fill="none" stroke="#191970" d="M212.0802,-210.9278C234.2903,-205.4116 260.8744,-198.809 282.16,-193.5223"/>
<polygon fill="#191970" stroke="#191970" points="211.0795,-207.5699 202.2181,-213.3772 212.7669,-214.3635 211.0795,-207.5699"/>
</g>
<!-- Node229282 -->
<g id="node12" class="node">
<title>Node229282</title>
<g id="a_node12"><a xlink:href="quickjs_8c.html#a67fcc1a61d5e110579fdaf06d051b6e9" target="_top" xlink:title="js_dataview_constructor">
<polygon fill="none" stroke="#000000" points="259.5,-212.5 259.5,-231.5 381.5,-231.5 381.5,-212.5 259.5,-212.5"/>
<text text-anchor="middle" x="320.5" y="-219.5" font-family="Helvetica,sans-Serif" font-size="10.00" fill="#000000">js_dataview_constructor</text>
</a>
</g>
</g>
<!-- Node229269&#45;&gt;Node229282 -->
<g id="edge13" class="edge">
<title>Node229269&#45;&gt;Node229282</title>
<path fill="none" stroke="#191970" d="M212.5477,-222C227.2434,-222 243.8141,-222 259.4807,-222"/>
<polygon fill="#191970" stroke="#191970" points="212.2181,-218.5001 202.2181,-222 212.218,-225.5001 212.2181,-218.5001"/>
</g>
<!-- Node229283 -->
<g id="node13" class="node">
<title>Node229283</title>
<g id="a_node13"><a xlink:href="quickjs_8c.html#a351e921aea7f22e239884fdc941a8e52" target="_top" xlink:title="js_dataview_getValue">
<polygon fill="none" stroke="#000000" points="264.5,-136.5 264.5,-155.5 376.5,-155.5 376.5,-136.5 264.5,-136.5"/>
<text text-anchor="middle" x="320.5" y="-143.5" font-family="Helvetica,sans-Serif" font-size="10.00" fill="#000000">js_dataview_getValue</text>
</a>
</g>
</g>
<!-- Node229269&#45;&gt;Node229283 -->
<g id="edge15" class="edge">
<title>Node229269&#45;&gt;Node229283</title>
<path fill="none" stroke="#191970" d="M187.1599,-206.2793C203.8415,-193.602 228.8477,-176.1116 253,-165 261.0737,-161.2856 270.0315,-158.1446 278.7128,-155.552"/>
<polygon fill="#191970" stroke="#191970" points="185.0066,-203.5201 179.244,-212.4108 189.2931,-209.0542 185.0066,-203.5201"/>
</g>
<!-- Node229284 -->
<g id="node14" class="node">
<title>Node229284</title>
<g id="a_node14"><a xlink:href="quickjs_8c.html#a77e9c7ebb882b521133545bc59d15a4a" target="_top" xlink:title="js_dataview_setValue">
<polygon fill="none" stroke="#000000" points="264.5,-98.5 264.5,-117.5 376.5,-117.5 376.5,-98.5 264.5,-98.5"/>
<text text-anchor="middle" x="320.5" y="-105.5" font-family="Helvetica,sans-Serif" font-size="10.00" fill="#000000">js_dataview_setValue</text>
</a>
</g>
</g>
<!-- Node229269&#45;&gt;Node229284 -->
<g id="edge16" class="edge">
<title>Node229269&#45;&gt;Node229284</title>
<path fill="none" stroke="#191970" d="M179.1533,-203.7304C193.8158,-182.2165 220.9897,-146.899 253,-127 259.2035,-123.1436 266.2071,-120.0512 273.2948,-117.5765"/>
<polygon fill="#191970" stroke="#191970" points="176.0947,-202.01 173.4908,-212.2799 181.9308,-205.8754 176.0947,-202.01"/>
</g>
<!-- Node229285 -->
<g id="node15" class="node">
<title>Node229285</title>
<g id="a_node15"><a xlink:href="quickjs_8c.html#ad119234e7332a6e78a01b58f3f9a44c7" target="_top" xlink:title="js_atomics_get_ptr">
<polygon fill="none" stroke="#000000" points="271,-60.5 271,-79.5 370,-79.5 370,-60.5 271,-60.5"/>
<text text-anchor="middle" x="320.5" y="-67.5" font-family="Helvetica,sans-Serif" font-size="10.00" fill="#000000">js_atomics_get_ptr</text>
</a>
</g>
</g>
<!-- Node229269&#45;&gt;Node229285 -->
<g id="edge17" class="edge">
<title>Node229269&#45;&gt;Node229285</title>
<path fill="none" stroke="#191970" d="M177.3513,-203.2922C194.9716,-170.4752 232.0011,-104.5343 253,-89 258.3829,-85.0179 264.5686,-81.8698 270.9635,-79.3812"/>
<polygon fill="#191970" stroke="#191970" points="174.1546,-201.8489 172.5453,-212.3209 180.3337,-205.1382 174.1546,-201.8489"/>
</g>
<!-- Node229274 -->
<g id="node8" class="node">
<title>Node229274</title>
<g id="a_node8"><a xlink:href="quickjs_8c.html#a177d09828596bfe6df4bd90b2e93989d" target="_top" xlink:title="JS_AddIntrinsicTypedArrays">
<polygon fill="none" stroke="#ff0000" points="424,-237.5 424,-256.5 565,-256.5 565,-237.5 424,-237.5"/>
<text text-anchor="middle" x="494.5" y="-244.5" font-family="Helvetica,sans-Serif" font-size="10.00" fill="#000000">JS_AddIntrinsicTypedArrays</text>
</a>
</g>
</g>
<!-- Node229273&#45;&gt;Node229274 -->
<g id="edge7" class="edge">
<title>Node229273&#45;&gt;Node229274</title>
<path fill="none" stroke="#191970" d="M367.5233,-297.5311C374.4314,-295.4778 381.4295,-293.2732 388,-291 418.2494,-280.5345 452.2886,-265.9633 473.5642,-256.5067"/>
<polygon fill="#191970" stroke="#191970" points="366.1612,-294.2816 357.527,-300.4218 368.1058,-301.006 366.1612,-294.2816"/>
</g>
<!-- Node229276&#45;&gt;Node229274 -->
<g id="edge9" class="edge">
<title>Node229276&#45;&gt;Node229274</title>
<path fill="none" stroke="#191970" d="M388.8806,-258.5332C400.3686,-257.2787 412.311,-255.9747 423.8549,-254.7141"/>
<polygon fill="#191970" stroke="#191970" points="388.4845,-255.0555 378.9235,-259.6204 389.2444,-262.0141 388.4845,-255.0555"/>
</g>
<!-- Node229277&#45;&gt;Node229274 -->
<g id="edge12" class="edge">
<title>Node229277&#45;&gt;Node229274</title>
<path fill="none" stroke="#191970" d="M367.5233,-196.4689C374.4314,-198.5222 381.4295,-200.7268 388,-203 418.2494,-213.4655 452.2886,-228.0367 473.5642,-237.4933"/>
<polygon fill="#191970" stroke="#191970" points="368.1058,-192.994 357.527,-193.5782 366.1612,-199.7184 368.1058,-192.994"/>
</g>
<!-- Node229278 -->
<g id="node11" class="node">
<title>Node229278</title>
<g id="a_node11"><a xlink:href="quickjs_8c.html#ae5a8e884ec4a3364f63ebfeae6b08bdc" target="_top" xlink:title="js_typed_array___species\lCreate">
<polygon fill="none" stroke="#ff0000" points="429.5,-169 429.5,-199 559.5,-199 559.5,-169 429.5,-169"/>
<text text-anchor="start" x="437.5" y="-187" font-family="Helvetica,sans-Serif" font-size="10.00" fill="#000000">js_typed_array___species</text>
<text text-anchor="middle" x="494.5" y="-176" font-family="Helvetica,sans-Serif" font-size="10.00" fill="#000000">Create</text>
</a>
</g>
</g>
<!-- Node229277&#45;&gt;Node229278 -->
<g id="edge11" class="edge">
<title>Node229277&#45;&gt;Node229278</title>
<path fill="none" stroke="#191970" d="M397.8091,-184C408.36,-184 419.1034,-184 429.4082,-184"/>
<polygon fill="#191970" stroke="#191970" points="397.773,-180.5001 387.7729,-184 397.7729,-187.5001 397.773,-180.5001"/>
</g>
<!-- Node229282&#45;&gt;Node229274 -->
<g id="edge14" class="edge">
<title>Node229282&#45;&gt;Node229274</title>
<path fill="none" stroke="#191970" d="M391.8088,-232.2455C403.8096,-233.9698 416.2224,-235.7532 428.0926,-237.4587"/>
<polygon fill="#191970" stroke="#191970" points="392.242,-228.7719 381.8459,-230.8141 391.2465,-235.7008 392.242,-228.7719"/>
</g>
<!-- Node229286 -->
<g id="node16" class="node">
<title>Node229286</title>
<g id="a_node16"><a xlink:href="quickjs_8c.html#adbeea736a6232c3a784b39a2dfb6a510" target="_top" xlink:title="js_atomics_op">
<polygon fill="none" stroke="#000000" points="454.5,-114.5 454.5,-133.5 534.5,-133.5 534.5,-114.5 454.5,-114.5"/>
<text text-anchor="middle" x="494.5" y="-121.5" font-family="Helvetica,sans-Serif" font-size="10.00" fill="#000000">js_atomics_op</text>
</a>
</g>
</g>
<!-- Node229285&#45;&gt;Node229286 -->
<g id="edge18" class="edge">
<title>Node229285&#45;&gt;Node229286</title>
<path fill="none" stroke="#191970" d="M367.8224,-82.3853C374.6432,-84.4406 381.5371,-86.6679 388,-89 404.4696,-94.943 407.4975,-99.1488 424,-105 433.797,-108.4737 444.551,-111.6714 454.6439,-114.4136"/>
<polygon fill="#191970" stroke="#191970" points="368.5201,-78.9431 357.9401,-79.5049 366.5612,-85.6634 368.5201,-78.9431"/>
</g>
<!-- Node229287 -->
<g id="node17" class="node">
<title>Node229287</title>
<g id="a_node17"><a xlink:href="quickjs_8c.html#a0586dbbd419acfaca58bb867e3a39ed3" target="_top" xlink:title="js_atomics_store">
<polygon fill="none" stroke="#000000" points="449,-76.5 449,-95.5 540,-95.5 540,-76.5 449,-76.5"/>
<text text-anchor="middle" x="494.5" y="-83.5" font-family="Helvetica,sans-Serif" font-size="10.00" fill="#000000">js_atomics_store</text>
</a>
</g>
</g>
<!-- Node229285&#45;&gt;Node229287 -->
<g id="edge19" class="edge">
<title>Node229285&#45;&gt;Node229287</title>
<path fill="none" stroke="#191970" d="M380.4403,-75.5118C402.8368,-77.5712 427.8903,-79.875 448.7995,-81.7977"/>
<polygon fill="#191970" stroke="#191970" points="380.6399,-72.0154 370.3614,-74.585 379.9989,-78.986 380.6399,-72.0154"/>
</g>
<!-- Node229288 -->
<g id="node18" class="node">
<title>Node229288</title>
<g id="a_node18"><a xlink:href="quickjs_8c.html#a5da0aed88a968e1b5d841cec3b582b2c" target="_top" xlink:title="js_atomics_wait">
<polygon fill="none" stroke="#000000" points="451,-38.5 451,-57.5 538,-57.5 538,-38.5 451,-38.5"/>
<text text-anchor="middle" x="494.5" y="-45.5" font-family="Helvetica,sans-Serif" font-size="10.00" fill="#000000">js_atomics_wait</text>
</a>
</g>
</g>
<!-- Node229285&#45;&gt;Node229288 -->
<g id="edge20" class="edge">
<title>Node229285&#45;&gt;Node229288</title>
<path fill="none" stroke="#191970" d="M380.4218,-62.4237C403.5579,-59.4984 429.5316,-56.2144 450.8442,-53.5197"/>
<polygon fill="#191970" stroke="#191970" points="379.8434,-58.9689 370.3614,-63.6957 380.7215,-65.9136 379.8434,-58.9689"/>
</g>
<!-- Node229289 -->
<g id="node19" class="node">
<title>Node229289</title>
<g id="a_node19"><a xlink:href="quickjs_8c.html#a10203c5ecfd1db25342e97b0342ba514" target="_top" xlink:title="js_atomics_notify">
<polygon fill="none" stroke="#000000" points="448,-.5 448,-19.5 541,-19.5 541,-.5 448,-.5"/>
<text text-anchor="middle" x="494.5" y="-7.5" font-family="Helvetica,sans-Serif" font-size="10.00" fill="#000000">js_atomics_notify</text>
</a>
</g>
</g>
<!-- Node229285&#45;&gt;Node229289 -->
<g id="edge21" class="edge">
<title>Node229285&#45;&gt;Node229289</title>
<path fill="none" stroke="#191970" d="M371.1468,-57.3877C376.9125,-55.47 382.6389,-53.3394 388,-51 405.1861,-43.5004 406.7724,-36.4038 424,-29 432.6183,-25.2962 442.1449,-22.146 451.3346,-19.539"/>
<polygon fill="#191970" stroke="#191970" points="369.9648,-54.0901 361.4638,-60.4134 372.0526,-60.7715 369.9648,-54.0901"/>
</g>
<!-- Node229291 -->
<g id="node21" class="node">
<title>Node229291</title>
<g id="a_node21"><a xlink:href="quickjs_8c.html#af7649a967804b86dcc5e5e66df32769e" target="_top" xlink:title="js_typed_array_set">
<polygon fill="none" stroke="#000000" points="271,-22.5 271,-41.5 370,-41.5 370,-22.5 271,-22.5"/>
<text text-anchor="middle" x="320.5" y="-29.5" font-family="Helvetica,sans-Serif" font-size="10.00" fill="#000000">js_typed_array_set</text>
</a>
</g>
</g>
<!-- Node229290&#45;&gt;Node229291 -->
<g id="edge23" class="edge">
<title>Node229290&#45;&gt;Node229291</title>
<path fill="none" stroke="#191970" d="M196.0515,-84.0293C212.1385,-72.9831 232.9716,-59.9165 253,-51 261.2301,-47.336 270.3423,-44.2027 279.1389,-41.5994"/>
<polygon fill="#191970" stroke="#191970" points="193.8229,-81.317 187.6378,-89.9191 197.8372,-87.0516 193.8229,-81.317"/>
</g>
</g>
</svg>
        <g id="navigator" transform="translate(0 0)" fill="#404254">
                <rect fill="#f2f5e9" fill-opacity="0.5" stroke="#606060" stroke-width=".5" x="0" y="0" width="60" height="60"/>
                <use id="zoomplus" xlink:href="#zoomPlus" x="17" y="9" onmousedown="handleZoom(evt,'in')"/>
                <use id="zoomminus" xlink:href="#zoomMin" x="42" y="9" onmousedown="handleZoom(evt,'out')"/>
                <use id="reset" xlink:href="#resetDef" x="30" y="36" onmousedown="handleReset()"/>
                <g id="arrowUp" xlink:href="#dirArrow" transform="translate(30 24)" onmousedown="handlePan(0,-1)">
                  <use xlink:href="#rim" fill="#404040">
                        <set attributeName="fill" to="#808080" begin="arrowUp.mouseover" end="arrowUp.mouseout"/>
                  </use>
                  <path fill="none" stroke="white" stroke-width="1.5" d="M0,-3.0v7 M-2.5,-0.5L0,-3.0L2.5,-0.5"/>
                </g>
                <g id="arrowRight" xlink:href="#dirArrow" transform="rotate(90) translate(36 -43)" onmousedown="handlePan(1,0)">
                  <use xlink:href="#rim" fill="#404040">
                        <set attributeName="fill" to="#808080" begin="arrowRight.mouseover" end="arrowRight.mouseout"/>
                  </use>
                  <path fill="none" stroke="white" stroke-width="1.5" d="M0,-3.0v7 M-2.5,-0.5L0,-3.0L2.5,-0.5"/>
                </g>
                <g id="arrowDown" xlink:href="#dirArrow" transform="rotate(180) translate(-30 -48)" onmousedown="handlePan(0,1)">
                  <use xlink:href="#rim" fill="#404040">
                        <set attributeName="fill" to="#808080" begin="arrowDown.mouseover" end="arrowDown.mouseout"/>
                  </use>
                  <path fill="none" stroke="white" stroke-width="1.5" d="M0,-3.0v7 M-2.5,-0.5L0,-3.0L2.5,-0.5"/>
                </g>
                <g id="arrowLeft" xlink:href="#dirArrow" transform="rotate(270) translate(-36 17)" onmousedown="handlePan(-1,0)">
                  <use xlink:href="#rim" fill="#404040">
                        <set attributeName="fill" to="#808080" begin="arrowLeft.mouseover" end="arrowLeft.mouseout"/>
                  </use>
                  <path fill="none" stroke="white" stroke-width="1.5" d="M0,-3.0v7 M-2.5,-0.5L0,-3.0L2.5,-0.5"/>
                </g>
        </g>
        <svg viewBox="0 0 15 15" width="100%" height="30px" preserveAspectRatio="xMaxYMin meet">
         <g id="arrow_out" transform="scale(0.3 0.3)">
          <a xlink:href="quickjs_8c_aee6a60a9e9f3c0d9827d5cb0e15c23b4_icgraph_org.svg" target="_base">
           <rect id="button" ry="5" rx="5" y="6" x="6" height="38" width="38"
                fill="#f2f5e9" fill-opacity="0.5" stroke="#606060" stroke-width="1.0"/>
           <path id="arrow"
             d="M 11.500037,31.436501 C 11.940474,20.09759 22.043105,11.32322 32.158766,21.979434 L 37.068811,17.246167 C 37.068811,17.246167 37.088388,32 37.088388,32 L 22.160133,31.978069 C 22.160133,31.978069 26.997745,27.140456 26.997745,27.140456 C 18.528582,18.264221 13.291696,25.230495 11.500037,31.436501 z"
             style="fill:#404040;"/>
          </a>
         </g>
        </svg>
</svg>
