<?xml version="1.0" encoding="UTF-8" standalone="no"?>
<!DOCTYPE svg PUBLIC "-//W3C//DTD SVG 1.1//EN"
 "http://www.w3.org/Graphics/SVG/1.1/DTD/svg11.dtd">
<!-- Generated by graphviz version 2.40.1 (20161225.0304)
 -->
<!-- Title: js_is_regexp Pages: 1 -->
<svg width="707pt" height="850pt"
 viewBox="0.00 0.00 707.00 849.90" xmlns="http://www.w3.org/2000/svg" xmlns:xlink="http://www.w3.org/1999/xlink">
<g id="graph0" class="graph" transform="scale(1 1) rotate(0) translate(4 845.8963)">
<title>js_is_regexp</title>
<!-- Node391780 -->
<g id="node1" class="node">
<title>Node391780</title>
<polygon fill="#bfbfbf" stroke="#000000" points="0,-114.5 0,-133.5 71,-133.5 71,-114.5 0,-114.5"/>
<text text-anchor="middle" x="35.5" y="-121.5" font-family="Helvetica,sans-Serif" font-size="10.00" fill="#000000">js_is_regexp</text>
</g>
<!-- Node391781 -->
<g id="node2" class="node">
<title>Node391781</title>
<g id="a_node2"><a xlink:href="quickjs_8c.html#a82de8d310598980dd9ab473ce2c8dd1c" target="_top" xlink:title="js_get_regexp">
<polygon fill="none" stroke="#000000" points="111.5,-445.5 111.5,-464.5 188.5,-464.5 188.5,-445.5 111.5,-445.5"/>
<text text-anchor="middle" x="150" y="-452.5" font-family="Helvetica,sans-Serif" font-size="10.00" fill="#000000">js_get_regexp</text>
</a>
</g>
</g>
<!-- Node391780&#45;&gt;Node391781 -->
<g id="edge1" class="edge">
<title>Node391780&#45;&gt;Node391781</title>
<path fill="none" stroke="#191970" d="M38.4622,-133.6653C47.9292,-164.4212 78.5035,-262.7161 107,-343 118.6753,-375.893 133.4909,-413.7148 142.3326,-435.9178"/>
<polygon fill="#191970" stroke="#191970" points="139.1906,-437.487 146.1533,-445.4727 145.6902,-434.888 139.1906,-437.487"/>
</g>
<!-- Node391789 -->
<g id="node5" class="node">
<title>Node391789</title>
<g id="a_node5"><a xlink:href="quickjs_8h.html#a89b7c8686c7eee70b86be722ee4730ad" target="_top" xlink:title="JS_GetProperty">
<polygon fill="none" stroke="#000000" points="107,-314.5 107,-333.5 193,-333.5 193,-314.5 107,-314.5"/>
<text text-anchor="middle" x="150" y="-321.5" font-family="Helvetica,sans-Serif" font-size="10.00" fill="#000000">JS_GetProperty</text>
</a>
</g>
</g>
<!-- Node391780&#45;&gt;Node391789 -->
<g id="edge4" class="edge">
<title>Node391780&#45;&gt;Node391789</title>
<path fill="none" stroke="#191970" d="M41.0226,-133.6464C58.9711,-164.9975 115.8605,-264.3677 139.5204,-305.695"/>
<polygon fill="#191970" stroke="#191970" points="136.5269,-307.5109 144.5328,-314.4504 142.6018,-304.033 136.5269,-307.5109"/>
</g>
<!-- Node391832 -->
<g id="node12" class="node">
<title>Node391832</title>
<g id="a_node12"><a xlink:href="quickjs_8h.html#ad80a83d73e9b7d872b88fbf2943aebe9" target="_top" xlink:title="JS_IsException">
<polygon fill="none" stroke="#000000" points="613,-109.5 613,-128.5 699,-128.5 699,-109.5 613,-109.5"/>
<text text-anchor="middle" x="656" y="-116.5" font-family="Helvetica,sans-Serif" font-size="10.00" fill="#000000">JS_IsException</text>
</a>
</g>
</g>
<!-- Node391780&#45;&gt;Node391832 -->
<g id="edge29" class="edge">
<title>Node391780&#45;&gt;Node391832</title>
<path fill="none" stroke="#191970" d="M71.0587,-119.7435C157.7402,-110.022 386.7753,-88.2749 577,-105 585.3773,-105.7366 594.1972,-106.9044 602.785,-108.2591"/>
<polygon fill="#191970" stroke="#191970" points="602.2789,-111.723 612.7193,-109.9206 603.4337,-104.8189 602.2789,-111.723"/>
</g>
<!-- Node391988 -->
<g id="node13" class="node">
<title>Node391988</title>
<g id="a_node13"><a xlink:href="quickjs_8h.html#a4e407128a9605afb77523e49e9a627fd" target="_top" xlink:title="JS_IsUndefined">
<polygon fill="none" stroke="#000000" points="613,-52.5 613,-71.5 699,-71.5 699,-52.5 613,-52.5"/>
<text text-anchor="middle" x="656" y="-59.5" font-family="Helvetica,sans-Serif" font-size="10.00" fill="#000000">JS_IsUndefined</text>
</a>
</g>
</g>
<!-- Node391780&#45;&gt;Node391988 -->
<g id="edge31" class="edge">
<title>Node391780&#45;&gt;Node391988</title>
<path fill="none" stroke="#191970" d="M66.553,-114.4327C79.014,-110.9402 93.5792,-107.2892 107,-105 287.0413,-74.2896 504.1014,-65.4682 602.6679,-62.9688"/>
<polygon fill="#191970" stroke="#191970" points="603.0504,-66.4607 612.9629,-62.72 602.8813,-59.4627 603.0504,-66.4607"/>
</g>
<!-- Node392069 -->
<g id="node26" class="node">
<title>Node392069</title>
<g id="a_node26"><a xlink:href="quickjs_8h.html#a3d68fe446df2d9c7d1900b16371bff5b" target="_top" xlink:title="JS_IsObject">
<polygon fill="none" stroke="#000000" points="114.5,-.5 114.5,-19.5 185.5,-19.5 185.5,-.5 114.5,-.5"/>
<text text-anchor="middle" x="150" y="-7.5" font-family="Helvetica,sans-Serif" font-size="10.00" fill="#000000">JS_IsObject</text>
</a>
</g>
</g>
<!-- Node391780&#45;&gt;Node392069 -->
<g id="edge30" class="edge">
<title>Node391780&#45;&gt;Node392069</title>
<path fill="none" stroke="#191970" d="M41.3698,-114.3129C52.4485,-96.6311 77.9527,-58.6786 107,-34 110.9703,-30.6268 115.4869,-27.4997 120.0648,-24.6925"/>
<polygon fill="#191970" stroke="#191970" points="121.8588,-27.6986 128.8161,-19.7081 118.3944,-21.616 121.8588,-27.6986"/>
</g>
<!-- Node391989 -->
<g id="node27" class="node">
<title>Node391989</title>
<g id="a_node27"><a xlink:href="quickjs_8c.html#a2bf30c9cddfe98a32535843202495069" target="_top" xlink:title="JS_ToBoolFree">
<polygon fill="none" stroke="#000000" points="253,-133.5 253,-152.5 337,-152.5 337,-133.5 253,-133.5"/>
<text text-anchor="middle" x="295" y="-140.5" font-family="Helvetica,sans-Serif" font-size="10.00" fill="#000000">JS_ToBoolFree</text>
</a>
</g>
</g>
<!-- Node391780&#45;&gt;Node391989 -->
<g id="edge32" class="edge">
<title>Node391780&#45;&gt;Node391989</title>
<path fill="none" stroke="#191970" d="M71.0383,-126.602C115.3215,-129.8443 191.3708,-135.4125 242.4075,-139.1493"/>
<polygon fill="#191970" stroke="#191970" points="242.3521,-142.6545 252.5811,-139.8942 242.8634,-135.6732 242.3521,-142.6545"/>
</g>
<!-- Node391782 -->
<g id="node3" class="node">
<title>Node391782</title>
<g id="a_node3"><a xlink:href="quickjs_8c.html#ab0f713d7a2440dbb2673810323a9a78d" target="_top" xlink:title="JS_ThrowTypeErrorInvalid\lClass">
<polygon fill="none" stroke="#000000" points="229,-656 229,-686 361,-686 361,-656 229,-656"/>
<text text-anchor="start" x="237" y="-674" font-family="Helvetica,sans-Serif" font-size="10.00" fill="#000000">JS_ThrowTypeErrorInvalid</text>
<text text-anchor="middle" x="295" y="-663" font-family="Helvetica,sans-Serif" font-size="10.00" fill="#000000">Class</text>
</a>
</g>
</g>
<!-- Node391781&#45;&gt;Node391782 -->
<g id="edge2" class="edge">
<title>Node391781&#45;&gt;Node391782</title>
<path fill="none" stroke="#191970" d="M156.4176,-464.56C177.8888,-496.5447 247.6347,-600.4421 279.2114,-647.4804"/>
<polygon fill="#191970" stroke="#191970" points="276.3383,-649.4801 284.8179,-655.8321 282.1502,-645.5786 276.3383,-649.4801"/>
</g>
<!-- Node391783 -->
<g id="node4" class="node">
<title>Node391783</title>
<g id="a_node4"><a xlink:href="quickjs_8c.html#ab18048ab5eea3e47109a5473f78515bc" target="_top" xlink:title="JS_AtomGetStr">
<polygon fill="none" stroke="#ff0000" points="613,-664.5 613,-683.5 699,-683.5 699,-664.5 613,-664.5"/>
<text text-anchor="middle" x="656" y="-671.5" font-family="Helvetica,sans-Serif" font-size="10.00" fill="#000000">JS_AtomGetStr</text>
</a>
</g>
</g>
<!-- Node391782&#45;&gt;Node391783 -->
<g id="edge3" class="edge">
<title>Node391782&#45;&gt;Node391783</title>
<path fill="none" stroke="#191970" d="M300.4592,-686.2699C312.3959,-717.0344 344.0644,-785.8474 397,-813 468.182,-849.5119 507.854,-853.2346 577,-813 621.6387,-787.0257 643.1216,-725.3815 651.5279,-693.6386"/>
<polygon fill="#191970" stroke="#191970" points="654.9665,-694.3133 653.9725,-683.7652 648.1717,-692.6308 654.9665,-694.3133"/>
</g>
<!-- Node391790 -->
<g id="node6" class="node">
<title>Node391790</title>
<g id="a_node6"><a xlink:href="quickjs_8c.html#a5762c57ae0c9937e986040c01222833a" target="_top" xlink:title="JS_GetPropertyInternal">
<polygon fill="none" stroke="#000000" points="235.5,-437.5 235.5,-456.5 354.5,-456.5 354.5,-437.5 235.5,-437.5"/>
<text text-anchor="middle" x="295" y="-444.5" font-family="Helvetica,sans-Serif" font-size="10.00" fill="#000000">JS_GetPropertyInternal</text>
</a>
</g>
</g>
<!-- Node391789&#45;&gt;Node391790 -->
<g id="edge5" class="edge">
<title>Node391789&#45;&gt;Node391790</title>
<path fill="none" stroke="#191970" d="M161.3779,-333.6516C186.1541,-354.6686 245.2144,-404.7681 275.8424,-430.749"/>
<polygon fill="#191970" stroke="#191970" points="273.7849,-433.5934 283.6749,-437.3932 278.3132,-428.2553 273.7849,-433.5934"/>
</g>
<!-- Node391785 -->
<g id="node7" class="node">
<title>Node391785</title>
<g id="a_node7"><a xlink:href="quickjs_8c.html#a288254c06a39c9fca740a7abdad2834e" target="_top" xlink:title="__JS_AtomIsTaggedInt">
<polygon fill="none" stroke="#000000" points="427.5,-380.5 427.5,-399.5 546.5,-399.5 546.5,-380.5 427.5,-380.5"/>
<text text-anchor="middle" x="487" y="-387.5" font-family="Helvetica,sans-Serif" font-size="10.00" fill="#000000">__JS_AtomIsTaggedInt</text>
</a>
</g>
</g>
<!-- Node391790&#45;&gt;Node391785 -->
<g id="edge6" class="edge">
<title>Node391790&#45;&gt;Node391785</title>
<path fill="none" stroke="#191970" d="M323.0186,-437.4986C343.4423,-430.6795 371.8286,-421.4225 397,-414 410.7294,-409.9515 425.7243,-405.8334 439.4682,-402.1778"/>
<polygon fill="#191970" stroke="#191970" points="440.4425,-405.5406 449.2187,-399.6053 438.6567,-398.7722 440.4425,-405.5406"/>
</g>
<!-- Node391786 -->
<g id="node8" class="node">
<title>Node391786</title>
<g id="a_node8"><a xlink:href="quickjs_8c.html#a89f38938cee8077ce1fbba07946ed185" target="_top" xlink:title="__JS_AtomToUInt32">
<polygon fill="none" stroke="#000000" points="433,-342.5 433,-361.5 541,-361.5 541,-342.5 433,-342.5"/>
<text text-anchor="middle" x="487" y="-349.5" font-family="Helvetica,sans-Serif" font-size="10.00" fill="#000000">__JS_AtomToUInt32</text>
</a>
</g>
</g>
<!-- Node391790&#45;&gt;Node391786 -->
<g id="edge7" class="edge">
<title>Node391790&#45;&gt;Node391786</title>
<path fill="none" stroke="#191970" d="M304.7581,-437.3789C321.8898,-421.0654 359.1629,-388.0882 397,-371 405.2298,-367.2832 414.2151,-364.2813 423.2205,-361.86"/>
<polygon fill="#191970" stroke="#191970" points="424.096,-365.249 432.9655,-359.4539 422.4181,-358.453 424.096,-365.249"/>
</g>
<!-- Node391791 -->
<g id="node9" class="node">
<title>Node391791</title>
<g id="a_node9"><a xlink:href="quickjs_8c.html#a06b76f5124fd985e35f4c652fd018d6d" target="_top" xlink:title="find_own_property">
<polygon fill="none" stroke="#ff0000" points="439,-304.5 439,-323.5 535,-323.5 535,-304.5 439,-304.5"/>
<text text-anchor="middle" x="487" y="-311.5" font-family="Helvetica,sans-Serif" font-size="10.00" fill="#000000">find_own_property</text>
</a>
</g>
</g>
<!-- Node391790&#45;&gt;Node391791 -->
<g id="edge8" class="edge">
<title>Node391790&#45;&gt;Node391791</title>
<path fill="none" stroke="#191970" d="M300.7031,-437.1765C314.2662,-414.7635 350.7947,-359.7307 397,-333 406.6307,-327.4285 417.6854,-323.4823 428.6758,-320.6894"/>
<polygon fill="#191970" stroke="#191970" points="429.7188,-324.0424 438.7082,-318.4352 428.1842,-317.2127 429.7188,-324.0424"/>
</g>
<!-- Node391793 -->
<g id="node10" class="node">
<title>Node391793</title>
<g id="a_node10"><a xlink:href="quickjs_8c.html#add3eea1f6d626963ade3c28a1fd563d1" target="_top" xlink:title="JS_AtomIsNumericIndex">
<polygon fill="none" stroke="#ff0000" points="424,-114.5 424,-133.5 550,-133.5 550,-114.5 424,-114.5"/>
<text text-anchor="middle" x="487" y="-121.5" font-family="Helvetica,sans-Serif" font-size="10.00" fill="#000000">JS_AtomIsNumericIndex</text>
</a>
</g>
</g>
<!-- Node391790&#45;&gt;Node391793 -->
<g id="edge9" class="edge">
<title>Node391790&#45;&gt;Node391793</title>
<path fill="none" stroke="#191970" d="M296.4343,-437.442C302.3978,-400.5065 328.2144,-264.9913 397,-181 412.3379,-162.2715 435.5183,-147.7939 454.5125,-138.1161"/>
<polygon fill="#191970" stroke="#191970" points="456.269,-141.1536 463.7231,-133.6246 453.2008,-134.8618 456.269,-141.1536"/>
</g>
<!-- Node391797 -->
<g id="node11" class="node">
<title>Node391797</title>
<g id="a_node11"><a xlink:href="quickjs_8h.html#afaa20c47565bc704c6c85f3d77254e7d" target="_top" xlink:title="JS_FreeValue">
<polygon fill="none" stroke="#ff0000" points="617,-156.5 617,-175.5 695,-175.5 695,-156.5 617,-156.5"/>
<text text-anchor="middle" x="656" y="-163.5" font-family="Helvetica,sans-Serif" font-size="10.00" fill="#000000">JS_FreeValue</text>
</a>
</g>
</g>
<!-- Node391790&#45;&gt;Node391797 -->
<g id="edge17" class="edge">
<title>Node391790&#45;&gt;Node391797</title>
<path fill="none" stroke="#191970" d="M354.6746,-446.2292C427.2767,-444.0802 544.2329,-436.332 577,-409 612.3074,-379.5491 642.233,-238.4678 652.3429,-185.8461"/>
<polygon fill="#191970" stroke="#191970" points="655.8291,-186.2458 654.2425,-175.7705 648.9503,-184.9488 655.8291,-186.2458"/>
</g>
<!-- Node392005 -->
<g id="node14" class="node">
<title>Node392005</title>
<g id="a_node14"><a xlink:href="quickjs_8c.html#a23b7fe57d08a1b3b39ba556f9cbb6c76" target="_top" xlink:title="JS_AutoInitProperty">
<polygon fill="none" stroke="#ff0000" points="435,-228.5 435,-247.5 539,-247.5 539,-228.5 435,-228.5"/>
<text text-anchor="middle" x="487" y="-235.5" font-family="Helvetica,sans-Serif" font-size="10.00" fill="#000000">JS_AutoInitProperty</text>
</a>
</g>
</g>
<!-- Node391790&#45;&gt;Node392005 -->
<g id="edge13" class="edge">
<title>Node391790&#45;&gt;Node392005</title>
<path fill="none" stroke="#191970" d="M297.1583,-437.2153C304.6854,-405.5351 332.8846,-305.0447 397,-257 405.1469,-250.8951 414.8175,-246.6525 424.7475,-243.7232"/>
<polygon fill="#191970" stroke="#191970" points="425.8754,-247.0485 434.7173,-241.2115 424.1652,-240.2606 425.8754,-247.0485"/>
</g>
<!-- Node391885 -->
<g id="node15" class="node">
<title>Node391885</title>
<g id="a_node15"><a xlink:href="quickjs_8c.html#a75f6ee5e4235a7dc99889f3d2eb2c147" target="_top" xlink:title="JS_CallFree">
<polygon fill="none" stroke="#ff0000" points="451.5,-266.5 451.5,-285.5 522.5,-285.5 522.5,-266.5 451.5,-266.5"/>
<text text-anchor="middle" x="487" y="-273.5" font-family="Helvetica,sans-Serif" font-size="10.00" fill="#000000">JS_CallFree</text>
</a>
</g>
</g>
<!-- Node391790&#45;&gt;Node391885 -->
<g id="edge14" class="edge">
<title>Node391790&#45;&gt;Node391885</title>
<path fill="none" stroke="#191970" d="M298.4856,-437.2695C308.8028,-409.9589 341.9539,-332.1689 397,-295 409.9039,-286.2869 426.0335,-281.4547 441.06,-278.8111"/>
<polygon fill="#191970" stroke="#191970" points="441.8516,-282.2323 451.2335,-277.3098 440.8296,-275.3072 441.8516,-282.2323"/>
</g>
<!-- Node391840 -->
<g id="node16" class="node">
<title>Node391840</title>
<g id="a_node16"><a xlink:href="quickjs_8h.html#a775522f2d084fc8fa0fcb33f390006b4" target="_top" xlink:title="JS_DupValue">
<polygon fill="none" stroke="#000000" points="448.5,-190.5 448.5,-209.5 525.5,-209.5 525.5,-190.5 448.5,-190.5"/>
<text text-anchor="middle" x="487" y="-197.5" font-family="Helvetica,sans-Serif" font-size="10.00" fill="#000000">JS_DupValue</text>
</a>
</g>
</g>
<!-- Node391790&#45;&gt;Node391840 -->
<g id="edge16" class="edge">
<title>Node391790&#45;&gt;Node391840</title>
<path fill="none" stroke="#191970" d="M296.2127,-437.3451C301.1956,-401.9632 323.4397,-278.3753 397,-219 408.611,-209.628 423.7358,-204.5663 438.2626,-201.9169"/>
<polygon fill="#191970" stroke="#191970" points="438.7963,-205.3761 448.1735,-200.4448 437.7678,-198.4521 438.7963,-205.3761"/>
</g>
<!-- Node391909 -->
<g id="node17" class="node">
<title>Node391909</title>
<g id="a_node17"><a xlink:href="quickjs_8c.html#aeb97957655d979e9fe56c955da2b2d4b" target="_top" xlink:title="JS_GetPropertyUint32">
<polygon fill="none" stroke="#ff0000" points="429.5,-784.5 429.5,-803.5 544.5,-803.5 544.5,-784.5 429.5,-784.5"/>
<text text-anchor="middle" x="487" y="-791.5" font-family="Helvetica,sans-Serif" font-size="10.00" fill="#000000">JS_GetPropertyUint32</text>
</a>
</g>
</g>
<!-- Node391790&#45;&gt;Node391909 -->
<g id="edge18" class="edge">
<title>Node391790&#45;&gt;Node391909</title>
<path fill="none" stroke="#191970" d="M298.3118,-456.5272C308.2402,-485.1928 338.4618,-573.2154 361,-647 378.264,-703.5181 353.8545,-734.6166 397,-775 403.438,-781.0259 411.286,-785.3362 419.6362,-788.3907"/>
<polygon fill="#191970" stroke="#191970" points="418.6421,-791.7466 429.2288,-791.3302 420.6931,-785.0538 418.6421,-791.7466"/>
</g>
<!-- Node392011 -->
<g id="node18" class="node">
<title>Node392011</title>
<g id="a_node18"><a xlink:href="quickjs_8c.html#a23a30fec3b10bfa38c3dc29b4cb1c99d" target="_top" xlink:title="JS_GetPrototype">
<polygon fill="none" stroke="#ff0000" points="441,-746.5 441,-765.5 533,-765.5 533,-746.5 441,-746.5"/>
<text text-anchor="middle" x="487" y="-753.5" font-family="Helvetica,sans-Serif" font-size="10.00" fill="#000000">JS_GetPrototype</text>
</a>
</g>
</g>
<!-- Node391790&#45;&gt;Node392011 -->
<g id="edge19" class="edge">
<title>Node391790&#45;&gt;Node392011</title>
<path fill="none" stroke="#191970" d="M298.0869,-456.6102C313.9069,-505.747 385.5928,-726.9887 397,-737 406.4707,-745.3118 418.6535,-750.3049 430.9768,-753.2354"/>
<polygon fill="#191970" stroke="#191970" points="430.3545,-756.6799 440.8408,-755.1674 431.7001,-749.8104 430.3545,-756.6799"/>
</g>
<!-- Node392088 -->
<g id="node19" class="node">
<title>Node392088</title>
<g id="a_node19"><a xlink:href="quickjs_8h.html#aaab426b47c95d00479b7355b1cf7f56c" target="_top" xlink:title="JS_IsUninitialized">
<polygon fill="none" stroke="#000000" points="439.5,-708.5 439.5,-727.5 534.5,-727.5 534.5,-708.5 439.5,-708.5"/>
<text text-anchor="middle" x="487" y="-715.5" font-family="Helvetica,sans-Serif" font-size="10.00" fill="#000000">JS_IsUninitialized</text>
</a>
</g>
</g>
<!-- Node391790&#45;&gt;Node392088 -->
<g id="edge20" class="edge">
<title>Node391790&#45;&gt;Node392088</title>
<path fill="none" stroke="#191970" d="M297.5592,-456.516C308.987,-498.325 356.5618,-665.1377 397,-699 406.1827,-706.6894 417.7097,-711.5041 429.4192,-714.4685"/>
<polygon fill="#191970" stroke="#191970" points="428.743,-717.9029 439.2506,-716.5459 430.1902,-711.0541 428.743,-717.9029"/>
</g>
<!-- Node392210 -->
<g id="node20" class="node">
<title>Node392210</title>
<g id="a_node20"><a xlink:href="quickjs_8c.html#a077ffa6455c0d7831bd4547542b5f2f7" target="_top" xlink:title="js_new_string_char">
<polygon fill="none" stroke="#ff0000" points="436.5,-620.5 436.5,-639.5 537.5,-639.5 537.5,-620.5 436.5,-620.5"/>
<text text-anchor="middle" x="487" y="-627.5" font-family="Helvetica,sans-Serif" font-size="10.00" fill="#000000">js_new_string_char</text>
</a>
</g>
</g>
<!-- Node391790&#45;&gt;Node392210 -->
<g id="edge21" class="edge">
<title>Node391790&#45;&gt;Node392210</title>
<path fill="none" stroke="#191970" d="M297.9763,-456.6573C307.3386,-485.3153 339.0612,-570.3998 397,-611 405.7214,-617.1115 416.0064,-621.3282 426.4484,-624.2227"/>
<polygon fill="#191970" stroke="#191970" points="425.9228,-627.6954 436.462,-626.6113 427.5471,-620.8865 425.9228,-627.6954"/>
</g>
<!-- Node391833 -->
<g id="node21" class="node">
<title>Node391833</title>
<g id="a_node21"><a xlink:href="quickjs_8h.html#a2050bc428da1c65ac7eb87c3fa3b0392" target="_top" xlink:title="JS_NewInt32">
<polygon fill="none" stroke="#000000" points="449,-582.5 449,-601.5 525,-601.5 525,-582.5 449,-582.5"/>
<text text-anchor="middle" x="487" y="-589.5" font-family="Helvetica,sans-Serif" font-size="10.00" fill="#000000">JS_NewInt32</text>
</a>
</g>
</g>
<!-- Node391790&#45;&gt;Node391833 -->
<g id="edge22" class="edge">
<title>Node391790&#45;&gt;Node391833</title>
<path fill="none" stroke="#191970" d="M299.854,-456.7747C312.3341,-480.8139 348.0278,-543.0311 397,-573 409.4954,-580.6466 424.5921,-585.2528 438.8215,-588.0157"/>
<polygon fill="#191970" stroke="#191970" points="438.5386,-591.5171 448.9797,-589.7189 439.6961,-584.6134 438.5386,-591.5171"/>
</g>
<!-- Node392016 -->
<g id="node22" class="node">
<title>Node392016</title>
<g id="a_node22"><a xlink:href="quickjs_8c.html#ab8d0b87c9eed4eb6c054b6f4e1731554" target="_top" xlink:title="JS_ThrowReferenceErrorNot\lDefined">
<polygon fill="none" stroke="#000000" points="415.5,-659 415.5,-689 558.5,-689 558.5,-659 415.5,-659"/>
<text text-anchor="start" x="423.5" y="-677" font-family="Helvetica,sans-Serif" font-size="10.00" fill="#000000">JS_ThrowReferenceErrorNot</text>
<text text-anchor="middle" x="487" y="-666" font-family="Helvetica,sans-Serif" font-size="10.00" fill="#000000">Defined</text>
</a>
</g>
</g>
<!-- Node391790&#45;&gt;Node392016 -->
<g id="edge23" class="edge">
<title>Node391790&#45;&gt;Node392016</title>
<path fill="none" stroke="#191970" d="M296.9859,-456.7617C304.1386,-489.361 331.6983,-595.4249 397,-649 399.9306,-651.4043 403.0763,-653.578 406.3735,-655.5431"/>
<polygon fill="#191970" stroke="#191970" points="404.9284,-658.7371 415.4114,-660.2729 408.1742,-652.5351 404.9284,-658.7371"/>
</g>
<!-- Node392089 -->
<g id="node23" class="node">
<title>Node392089</title>
<g id="a_node23"><a xlink:href="quickjs_8c.html#a75ac132a3af4de01e1fadeb0bede6ee7" target="_top" xlink:title="JS_ThrowReferenceErrorUninitialized">
<polygon fill="none" stroke="#000000" points="397,-456.5 397,-475.5 577,-475.5 577,-456.5 397,-456.5"/>
<text text-anchor="middle" x="487" y="-463.5" font-family="Helvetica,sans-Serif" font-size="10.00" fill="#000000">JS_ThrowReferenceErrorUninitialized</text>
</a>
</g>
</g>
<!-- Node391790&#45;&gt;Node392089 -->
<g id="edge25" class="edge">
<title>Node391790&#45;&gt;Node392089</title>
<path fill="none" stroke="#191970" d="M354.6975,-452.9076C364.8956,-453.9168 375.7347,-454.9894 386.6489,-456.0694"/>
<polygon fill="#191970" stroke="#191970" points="386.3809,-459.5599 396.677,-457.0618 387.0703,-452.5939 386.3809,-459.5599"/>
</g>
<!-- Node392017 -->
<g id="node24" class="node">
<title>Node392017</title>
<g id="a_node24"><a xlink:href="quickjs_8c.html#a033dd3ebd29c4eb9f0baff1dd0fec0b1" target="_top" xlink:title="JS_ThrowTypeErrorDetached\lArrayBuffer">
<polygon fill="none" stroke="#000000" points="414,-533 414,-563 560,-563 560,-533 414,-533"/>
<text text-anchor="start" x="422" y="-551" font-family="Helvetica,sans-Serif" font-size="10.00" fill="#000000">JS_ThrowTypeErrorDetached</text>
<text text-anchor="middle" x="487" y="-540" font-family="Helvetica,sans-Serif" font-size="10.00" fill="#000000">ArrayBuffer</text>
</a>
</g>
</g>
<!-- Node391790&#45;&gt;Node392017 -->
<g id="edge27" class="edge">
<title>Node391790&#45;&gt;Node392017</title>
<path fill="none" stroke="#191970" d="M305.1537,-456.6268C322.5844,-472.6516 359.9172,-504.8278 397,-523 401.8237,-525.3638 406.9059,-527.5345 412.0991,-529.5224"/>
<polygon fill="#191970" stroke="#191970" points="410.94,-532.825 421.5345,-532.9055 413.3026,-526.2357 410.94,-532.825"/>
</g>
<!-- Node392022 -->
<g id="node25" class="node">
<title>Node392022</title>
<g id="a_node25"><a xlink:href="quickjs_8c.html#a869fa88a646c0a1914ec2e559b193b5c" target="_top" xlink:title="typed_array_is_detached">
<polygon fill="none" stroke="#000000" points="424.5,-494.5 424.5,-513.5 549.5,-513.5 549.5,-494.5 424.5,-494.5"/>
<text text-anchor="middle" x="487" y="-501.5" font-family="Helvetica,sans-Serif" font-size="10.00" fill="#000000">typed_array_is_detached</text>
</a>
</g>
</g>
<!-- Node391790&#45;&gt;Node392022 -->
<g id="edge28" class="edge">
<title>Node391790&#45;&gt;Node392022</title>
<path fill="none" stroke="#191970" d="M317.7632,-456.5924C338.2216,-464.9448 369.2319,-476.9448 397,-485 406.1064,-487.6417 415.83,-490.08 425.3947,-492.2673"/>
<polygon fill="#191970" stroke="#191970" points="424.7519,-495.7096 435.2721,-494.4537 426.2649,-488.8751 424.7519,-495.7096"/>
</g>
<!-- Node391793&#45;&gt;Node391797 -->
<g id="edge10" class="edge">
<title>Node391793&#45;&gt;Node391797</title>
<path fill="none" stroke="#191970" d="M525.3487,-133.5305C549.7871,-139.6039 581.6548,-147.5237 607.7987,-154.021"/>
<polygon fill="#191970" stroke="#191970" points="606.9619,-157.4194 617.5109,-156.4347 608.6503,-150.6261 606.9619,-157.4194"/>
</g>
<!-- Node391793&#45;&gt;Node391832 -->
<g id="edge11" class="edge">
<title>Node391793&#45;&gt;Node391832</title>
<path fill="none" stroke="#191970" d="M550.4102,-122.124C567.6292,-121.6145 586.0963,-121.0682 602.6953,-120.5771"/>
<polygon fill="#191970" stroke="#191970" points="602.869,-124.0736 612.7611,-120.2793 602.662,-117.0766 602.869,-124.0736"/>
</g>
<!-- Node391793&#45;&gt;Node391988 -->
<g id="edge12" class="edge">
<title>Node391793&#45;&gt;Node391988</title>
<path fill="none" stroke="#191970" d="M513.0359,-114.4484C541.8168,-103.8897 588.3462,-86.8197 620.4649,-75.0365"/>
<polygon fill="#191970" stroke="#191970" points="621.7518,-78.2926 629.9345,-71.5625 619.3409,-71.7209 621.7518,-78.2926"/>
</g>
<!-- Node391885&#45;&gt;Node391797 -->
<g id="edge15" class="edge">
<title>Node391885&#45;&gt;Node391797</title>
<path fill="none" stroke="#191970" d="M522.6671,-273.7814C540.0237,-271.4224 560.6225,-266.6391 577,-257 607.4896,-239.0552 632.1693,-205.1113 645.411,-184.1347"/>
<polygon fill="#191970" stroke="#191970" points="648.4504,-185.8731 650.67,-175.5133 642.4744,-182.2278 648.4504,-185.8731"/>
</g>
<!-- Node392016&#45;&gt;Node391783 -->
<g id="edge24" class="edge">
<title>Node392016&#45;&gt;Node391783</title>
<path fill="none" stroke="#191970" d="M558.6712,-674C573.2958,-674 588.4453,-674 602.312,-674"/>
<polygon fill="#191970" stroke="#191970" points="602.6361,-677.5001 612.6361,-674 602.636,-670.5001 602.6361,-677.5001"/>
</g>
<!-- Node392089&#45;&gt;Node391783 -->
<g id="edge26" class="edge">
<title>Node392089&#45;&gt;Node391783</title>
<path fill="none" stroke="#191970" d="M561.9106,-475.652C567.3326,-478.1567 572.4485,-481.2322 577,-485 630.3582,-529.1703 648.2536,-615.5341 653.7613,-654.3182"/>
<polygon fill="#191970" stroke="#191970" points="650.3017,-654.8564 655.0525,-664.3264 657.2442,-653.9607 650.3017,-654.8564"/>
</g>
<!-- Node391989&#45;&gt;Node391797 -->
<g id="edge33" class="edge">
<title>Node391989&#45;&gt;Node391797</title>
<path fill="none" stroke="#191970" d="M337.1178,-145.6834C404.3045,-149.964 535.4194,-158.3176 606.811,-162.8661"/>
<polygon fill="#191970" stroke="#191970" points="606.6937,-166.3656 616.8961,-163.5086 607.1389,-159.3798 606.6937,-166.3656"/>
</g>
</g>
</svg>
