<?xml version="1.0" encoding="UTF-8" standalone="no"?>
<!DOCTYPE svg PUBLIC "-//W3C//DTD SVG 1.1//EN"
 "http://www.w3.org/Graphics/SVG/1.1/DTD/svg11.dtd">
<!-- Generated by graphviz version 2.40.1 (20161225.0304)
 -->
<!-- Title: JS_SetPropertyGeneric Pages: 1 -->
<!--zoomable 957 -->
<svg id="main" version="1.1" xmlns="http://www.w3.org/2000/svg" xmlns:xlink="http://www.w3.org/1999/xlink" xml:space="preserve" onload="init(evt)">
<style type="text/css"><![CDATA[
.edge:hover path { stroke: red; }
.edge:hover polygon { stroke: red; fill: red; }
]]></style>
<script type="text/javascript"><![CDATA[
var edges = document.getElementsByTagName('g');
if (edges && edges.length) {
  for (var i=0;i<edges.length;i++) {
    if (edges[i].id.substr(0,4)=='edge') {
      edges[i].setAttribute('class','edge');
    }
  }
}
]]></script>
        <defs>
                <circle id="rim" cx="0" cy="0" r="7"/>
                <circle id="rim2" cx="0" cy="0" r="3.5"/>
                <g id="zoomPlus">
                        <use xlink:href="#rim" fill="#404040">
                                <set attributeName="fill" to="#808080" begin="zoomplus.mouseover" end="zoomplus.mouseout"/>
                        </use>
                        <path d="M-4,0h8M0,-4v8" fill="none" stroke="white" stroke-width="1.5" pointer-events="none"/>
                </g>
                <g id="zoomMin">
                        <use xlink:href="#rim" fill="#404040">
                                <set attributeName="fill" to="#808080" begin="zoomminus.mouseover" end="zoomminus.mouseout"/>
                        </use>
                        <path d="M-4,0h8" fill="none" stroke="white" stroke-width="1.5" pointer-events="none"/>
                </g>
                <g id="dirArrow">
                        <path fill="none" stroke="white" stroke-width="1.5" d="M0,-3.0v7 M-2.5,-0.5L0,-3.0L2.5,-0.5"/>
                </g>
               <g id="resetDef">
                       <use xlink:href="#rim2" fill="#404040">
                               <set attributeName="fill" to="#808080" begin="reset.mouseover" end="reset.mouseout"/>
                       </use>
               </g>
        </defs>

<script type="text/javascript">
var viewWidth = 585;
var viewHeight = 957;
var sectionId = 'dynsection-569';
</script>
<script xlink:href="svgpan.js"/>
<svg id="graph" class="graph">
<g id="viewport">
<title>JS_SetPropertyGeneric</title>
<!-- Node189073 -->
<g id="node1" class="node">
<title>Node189073</title>
<polygon fill="#bfbfbf" stroke="#000000" points="0,-38.5 0,-57.5 119,-57.5 119,-38.5 0,-38.5"/>
<text text-anchor="middle" x="59.5" y="-45.5" font-family="Helvetica,sans-Serif" font-size="10.00" fill="#000000">JS_SetPropertyGeneric</text>
</g>
<!-- Node189074 -->
<g id="node2" class="node">
<title>Node189074</title>
<g id="a_node2"><a xlink:href="quickjs_8c.html#ac2894ff4edcdb4e6841bcce9c76081e3" target="_top" xlink:title="JS_CallInternal">
<polygon fill="none" stroke="#000000" points="155,-414.5 155,-433.5 238,-433.5 238,-414.5 155,-414.5"/>
<text text-anchor="middle" x="196.5" y="-421.5" font-family="Helvetica,sans-Serif" font-size="10.00" fill="#000000">JS_CallInternal</text>
</a>
</g>
</g>
<!-- Node189073&#45;&gt;Node189074 -->
<g id="edge1" class="edge">
<title>Node189073&#45;&gt;Node189074</title>
<path fill="none" stroke="#191970" d="M66.4883,-67.1794C91.3293,-135.3565 174.847,-364.5728 192.9991,-414.3917"/>
<polygon fill="#191970" stroke="#191970" points="69.7362,-65.8698 63.0242,-57.6723 63.1592,-68.2663 69.7362,-65.8698"/>
</g>
<!-- Node189344 -->
<g id="node29" class="node">
<title>Node189344</title>
<g id="a_node29"><a xlink:href="quickjs_8c.html#ad38b16d301e8f3661cf4c115c86511b3" target="_top" xlink:title="js_proxy_set">
<polygon fill="none" stroke="#000000" points="474.5,-.5 474.5,-19.5 546.5,-19.5 546.5,-.5 474.5,-.5"/>
<text text-anchor="middle" x="510.5" y="-7.5" font-family="Helvetica,sans-Serif" font-size="10.00" fill="#000000">js_proxy_set</text>
</a>
</g>
</g>
<!-- Node189073&#45;&gt;Node189344 -->
<g id="edge39" class="edge">
<title>Node189073&#45;&gt;Node189344</title>
<path fill="none" stroke="#191970" d="M129.4298,-42.1079C226.7422,-33.9086 399.4568,-19.3562 474.2743,-13.0523"/>
<polygon fill="#191970" stroke="#191970" points="129.0601,-38.6266 119.3893,-42.9539 129.6479,-45.6018 129.0601,-38.6266"/>
</g>
<!-- Node189588 -->
<g id="node30" class="node">
<title>Node189588</title>
<g id="a_node30"><a xlink:href="quickjs_8c.html#af047bcc4352c7d76f5e85bb5985bcd97" target="_top" xlink:title="js_reflect_set">
<polygon fill="none" stroke="#000000" points="159,-.5 159,-19.5 234,-19.5 234,-.5 159,-.5"/>
<text text-anchor="middle" x="196.5" y="-7.5" font-family="Helvetica,sans-Serif" font-size="10.00" fill="#000000">js_reflect_set</text>
</a>
</g>
</g>
<!-- Node189073&#45;&gt;Node189588 -->
<g id="edge40" class="edge">
<title>Node189073&#45;&gt;Node189588</title>
<path fill="none" stroke="#191970" d="M103.9108,-35.6817C122.7337,-30.4607 144.3376,-24.4684 161.9402,-19.5859"/>
<polygon fill="#191970" stroke="#191970" points="102.7716,-32.3654 94.0709,-38.411 104.6426,-39.1108 102.7716,-32.3654"/>
</g>
<!-- Node189074&#45;&gt;Node189074 -->
<g id="edge38" class="edge">
<title>Node189074&#45;&gt;Node189074</title>
<path fill="none" stroke="#191970" d="M171.2025,-443.0292C172.5824,-448.128 181.0149,-452 196.5,-452 220.6719,-452 227.6591,-442.5653 217.4615,-433.7571"/>
<polygon fill="#191970" stroke="#191970" points="174.4728,-444.2982 175.5385,-433.7571 168.1319,-441.3329 174.4728,-444.2982"/>
</g>
<!-- Node189075 -->
<g id="node3" class="node">
<title>Node189075</title>
<g id="a_node3"><a xlink:href="quickjs_8c.html#ade71a22dc56e7371392393df663b28b3" target="_top" xlink:title="async_func_resume">
<polygon fill="none" stroke="#000000" points="289,-792.5 289,-811.5 393,-811.5 393,-792.5 289,-792.5"/>
<text text-anchor="middle" x="341" y="-799.5" font-family="Helvetica,sans-Serif" font-size="10.00" fill="#000000">async_func_resume</text>
</a>
</g>
</g>
<!-- Node189074&#45;&gt;Node189075 -->
<g id="edge2" class="edge">
<title>Node189074&#45;&gt;Node189075</title>
<path fill="none" stroke="#191970" d="M203.9279,-443.4746C217.723,-479.639 248.2399,-559.6208 274,-627 298.0484,-689.902 327.0122,-765.4988 337.2189,-792.1338"/>
<polygon fill="#191970" stroke="#191970" points="207.0414,-441.8163 200.2072,-433.7204 200.501,-444.3111 207.0414,-441.8163"/>
</g>
<!-- Node189087 -->
<g id="node8" class="node">
<title>Node189087</title>
<g id="a_node8"><a xlink:href="quickjs_8c.html#a1a4c02a29525d5cb2085dd8bca3af350" target="_top" xlink:title="JS_Call">
<polygon fill="none" stroke="#ff0000" points="315.5,-414.5 315.5,-433.5 366.5,-433.5 366.5,-414.5 315.5,-414.5"/>
<text text-anchor="middle" x="341" y="-421.5" font-family="Helvetica,sans-Serif" font-size="10.00" fill="#000000">JS_Call</text>
</a>
</g>
</g>
<!-- Node189074&#45;&gt;Node189087 -->
<g id="edge7" class="edge">
<title>Node189074&#45;&gt;Node189087</title>
<path fill="none" stroke="#191970" d="M248.4675,-417.4922C271.1282,-416.9376 296.6855,-417.3355 315.1897,-418.6858"/>
<polygon fill="#191970" stroke="#191970" points="248.1797,-413.9994 238.2954,-417.814 248.4011,-420.9959 248.1797,-413.9994"/>
</g>
<!-- Node189161 -->
<g id="node27" class="node">
<title>Node189161</title>
<g id="a_node27"><a xlink:href="quickjs_8c.html#ad35594576a14c10812efaf958c99af8a" target="_top" xlink:title="JS_CallConstructorInternal">
<polygon fill="none" stroke="#ff0000" points="274,-830.5 274,-849.5 408,-849.5 408,-830.5 274,-830.5"/>
<text text-anchor="middle" x="341" y="-837.5" font-family="Helvetica,sans-Serif" font-size="10.00" fill="#000000">JS_CallConstructorInternal</text>
</a>
</g>
</g>
<!-- Node189074&#45;&gt;Node189161 -->
<g id="edge32" class="edge">
<title>Node189074&#45;&gt;Node189161</title>
<path fill="none" stroke="#191970" d="M197.926,-443.7846C203.0493,-515.184 223.0006,-756.5519 274,-812 283.6582,-822.5007 298.6478,-827.3579 312.0019,-830.4245"/>
<polygon fill="#191970" stroke="#191970" points="201.396,-443.2327 197.2054,-433.5019 194.4131,-443.7221 201.396,-443.2327"/>
</g>
<!-- Node189175 -->
<g id="node28" class="node">
<title>Node189175</title>
<g id="a_node28"><a xlink:href="quickjs_8c.html#a75f6ee5e4235a7dc99889f3d2eb2c147" target="_top" xlink:title="JS_CallFree">
<polygon fill="none" stroke="#ff0000" points="305.5,-226.5 305.5,-245.5 376.5,-245.5 376.5,-226.5 305.5,-226.5"/>
<text text-anchor="middle" x="341" y="-233.5" font-family="Helvetica,sans-Serif" font-size="10.00" fill="#000000">JS_CallFree</text>
</a>
</g>
</g>
<!-- Node189074&#45;&gt;Node189175 -->
<g id="edge34" class="edge">
<title>Node189074&#45;&gt;Node189175</title>
<path fill="none" stroke="#191970" d="M207.4673,-405.942C234.5886,-366.6701 304.5071,-275.742 330.8004,-245.5967"/>
<polygon fill="#191970" stroke="#191970" points="204.4988,-404.0841 201.8142,-414.3332 210.3043,-407.9953 204.4988,-404.0841"/>
</g>
<!-- Node189076 -->
<g id="node4" class="node">
<title>Node189076</title>
<g id="a_node4"><a xlink:href="quickjs_8c.html#ac90552b1f1659acb3dae9a4c62479a30" target="_top" xlink:title="js_generator_function_call">
<polygon fill="none" stroke="#ff0000" points="445.5,-830.5 445.5,-849.5 575.5,-849.5 575.5,-830.5 445.5,-830.5"/>
<text text-anchor="middle" x="510.5" y="-837.5" font-family="Helvetica,sans-Serif" font-size="10.00" fill="#000000">js_generator_function_call</text>
</a>
</g>
</g>
<!-- Node189075&#45;&gt;Node189076 -->
<g id="edge3" class="edge">
<title>Node189075&#45;&gt;Node189076</title>
<path fill="none" stroke="#191970" d="M393.7425,-813.8243C417.639,-819.1816 445.5152,-825.4311 468.0356,-830.4799"/>
<polygon fill="#191970" stroke="#191970" points="394.2955,-810.3614 383.772,-811.589 392.7641,-817.1919 394.2955,-810.3614"/>
</g>
<!-- Node189080 -->
<g id="node5" class="node">
<title>Node189080</title>
<g id="a_node5"><a xlink:href="quickjs_8c.html#a1bf6b62983e8fff99c0a5d5a9f486115" target="_top" xlink:title="js_async_function_resume">
<polygon fill="none" stroke="#ff0000" points="444,-792.5 444,-811.5 577,-811.5 577,-792.5 444,-792.5"/>
<text text-anchor="middle" x="510.5" y="-799.5" font-family="Helvetica,sans-Serif" font-size="10.00" fill="#000000">js_async_function_resume</text>
</a>
</g>
</g>
<!-- Node189075&#45;&gt;Node189080 -->
<g id="edge4" class="edge">
<title>Node189075&#45;&gt;Node189080</title>
<path fill="none" stroke="#191970" d="M403.5492,-802C416.6415,-802 430.4944,-802 443.7334,-802"/>
<polygon fill="#191970" stroke="#191970" points="403.2387,-798.5001 393.2387,-802 403.2386,-805.5001 403.2387,-798.5001"/>
</g>
<!-- Node189085 -->
<g id="node6" class="node">
<title>Node189085</title>
<g id="a_node6"><a xlink:href="quickjs_8c.html#a89b019c704a2d2914bc30b30a72040b3" target="_top" xlink:title="js_async_generator\l_resume_next">
<polygon fill="none" stroke="#000000" points="460,-918 460,-948 561,-948 561,-918 460,-918"/>
<text text-anchor="start" x="468" y="-936" font-family="Helvetica,sans-Serif" font-size="10.00" fill="#000000">js_async_generator</text>
<text text-anchor="middle" x="510.5" y="-925" font-family="Helvetica,sans-Serif" font-size="10.00" fill="#000000">_resume_next</text>
</a>
</g>
</g>
<!-- Node189075&#45;&gt;Node189085 -->
<g id="edge5" class="edge">
<title>Node189075&#45;&gt;Node189085</title>
<path fill="none" stroke="#191970" d="M402.3923,-816.6632C404.3634,-817.9867 406.2422,-819.4288 408,-821 439.5059,-849.1613 413.4992,-879.7531 444,-909 448.6068,-913.4174 454.0859,-917.0305 459.8927,-919.9837"/>
<polygon fill="#191970" stroke="#191970" points="403.6895,-813.3802 393.2475,-811.5869 400.2921,-819.5005 403.6895,-813.3802"/>
</g>
<!-- Node189086 -->
<g id="node7" class="node">
<title>Node189086</title>
<g id="a_node7"><a xlink:href="quickjs_8c.html#ae19867da709929c072f05e90301835a4" target="_top" xlink:title="js_async_generator\l_function_call">
<polygon fill="none" stroke="#ff0000" points="460,-869 460,-899 561,-899 561,-869 460,-869"/>
<text text-anchor="start" x="468" y="-887" font-family="Helvetica,sans-Serif" font-size="10.00" fill="#000000">js_async_generator</text>
<text text-anchor="middle" x="510.5" y="-876" font-family="Helvetica,sans-Serif" font-size="10.00" fill="#000000">_function_call</text>
</a>
</g>
</g>
<!-- Node189075&#45;&gt;Node189086 -->
<g id="edge6" class="edge">
<title>Node189075&#45;&gt;Node189086</title>
<path fill="none" stroke="#191970" d="M396.5347,-815.1505C400.5252,-816.875 404.3929,-818.8163 408,-821 427.9016,-833.0482 424.6171,-846.1339 444,-859 449.6519,-862.7517 455.9447,-866.0452 462.3422,-868.9044"/>
<polygon fill="#191970" stroke="#191970" points="397.6559,-811.8318 387.066,-811.5082 395.1427,-818.3651 397.6559,-811.8318"/>
</g>
<!-- Node189087&#45;&gt;Node189074 -->
<g id="edge15" class="edge">
<title>Node189087&#45;&gt;Node189074</title>
<path fill="none" stroke="#191970" d="M305.1175,-429.9239C284.8618,-430.9297 259.4473,-431.0171 238.2954,-430.186"/>
<polygon fill="#191970" stroke="#191970" points="305.4195,-433.4121 315.1897,-429.3142 304.9965,-426.4249 305.4195,-433.4121"/>
</g>
<!-- Node189087&#45;&gt;Node189080 -->
<g id="edge16" class="edge">
<title>Node189087&#45;&gt;Node189080</title>
<path fill="none" stroke="#191970" d="M344.1288,-443.9265C355.1887,-511.9492 394.4544,-733.509 444,-783 447.9077,-786.9034 452.5582,-790.0175 457.5584,-792.4999"/>
<polygon fill="#191970" stroke="#191970" points="347.5326,-443.0466 342.4959,-433.7256 340.6205,-444.1531 347.5326,-443.0466"/>
</g>
<!-- Node189088 -->
<g id="node9" class="node">
<title>Node189088</title>
<g id="a_node9"><a xlink:href="structqjs_1_1js__traits_3_01std_1_1function_3_01R_07Args_8_8_8_08_4_01_4.html#abc36cacd670b6b5f1773734a0586a02b" target="_top" xlink:title="qjs::js_traits\&lt; std\l::function\&lt; R(Args...)\l\&gt; \&gt;::unwrap">
<polygon fill="none" stroke="#000000" points="456,-354.5 456,-395.5 565,-395.5 565,-354.5 456,-354.5"/>
<text text-anchor="start" x="464" y="-383.5" font-family="Helvetica,sans-Serif" font-size="10.00" fill="#000000">qjs::js_traits&lt; std</text>
<text text-anchor="start" x="464" y="-372.5" font-family="Helvetica,sans-Serif" font-size="10.00" fill="#000000">::function&lt; R(Args...)</text>
<text text-anchor="middle" x="510.5" y="-361.5" font-family="Helvetica,sans-Serif" font-size="10.00" fill="#000000">&gt; &gt;::unwrap</text>
</a>
</g>
</g>
<!-- Node189087&#45;&gt;Node189088 -->
<g id="edge8" class="edge">
<title>Node189087&#45;&gt;Node189088</title>
<path fill="none" stroke="#191970" d="M376.4025,-413.7656C399.3408,-407.1345 429.6805,-398.3637 455.6986,-390.8423"/>
<polygon fill="#191970" stroke="#191970" points="375.378,-410.4184 366.7434,-416.558 377.3221,-417.1431 375.378,-410.4184"/>
</g>
<!-- Node189089 -->
<g id="node10" class="node">
<title>Node189089</title>
<g id="a_node10"><a xlink:href="quickjs-libc_8c.html#abb1cbe3fdf905e81f603a3a0bfce475a" target="_top" xlink:title="call_handler">
<polygon fill="none" stroke="#ff0000" points="476.5,-316.5 476.5,-335.5 544.5,-335.5 544.5,-316.5 476.5,-316.5"/>
<text text-anchor="middle" x="510.5" y="-323.5" font-family="Helvetica,sans-Serif" font-size="10.00" fill="#000000">call_handler</text>
</a>
</g>
</g>
<!-- Node189087&#45;&gt;Node189089 -->
<g id="edge9" class="edge">
<title>Node189087&#45;&gt;Node189089</title>
<path fill="none" stroke="#191970" d="M358.3778,-407.3251C377.7993,-389.5337 410.886,-361.6667 444,-345 454.0817,-339.9257 465.7257,-336.0162 476.4253,-333.1002"/>
<polygon fill="#191970" stroke="#191970" points="355.8562,-404.8908 350.9307,-414.2711 360.6308,-410.0098 355.8562,-404.8908"/>
</g>
<!-- Node189094 -->
<g id="node11" class="node">
<title>Node189094</title>
<g id="a_node11"><a xlink:href="quickjs_8c.html#aa049793cc8648d35fe81876a2543ca4e" target="_top" xlink:title="JS_GetIterator2">
<polygon fill="none" stroke="#ff0000" points="467.5,-278.5 467.5,-297.5 553.5,-297.5 553.5,-278.5 467.5,-278.5"/>
<text text-anchor="middle" x="510.5" y="-285.5" font-family="Helvetica,sans-Serif" font-size="10.00" fill="#000000">JS_GetIterator2</text>
</a>
</g>
</g>
<!-- Node189087&#45;&gt;Node189094 -->
<g id="edge10" class="edge">
<title>Node189087&#45;&gt;Node189094</title>
<path fill="none" stroke="#191970" d="M361.3089,-407.9172C375.311,-396.2771 393.8711,-379.7136 408,-363 427.1016,-340.4039 420.2477,-324.6433 444,-307 450.8436,-301.9165 459.0063,-298.1913 467.23,-295.462"/>
<polygon fill="#191970" stroke="#191970" points="358.7944,-405.4516 353.26,-414.486 363.2204,-410.8749 358.7944,-405.4516"/>
</g>
<!-- Node189116 -->
<g id="node12" class="node">
<title>Node189116</title>
<g id="a_node12"><a xlink:href="quickjs_8c.html#ad6303fbd3add4afa0cb64b0aa6d431ce" target="_top" xlink:title="JS_IteratorNext2">
<polygon fill="none" stroke="#ff0000" points="465,-240.5 465,-259.5 556,-259.5 556,-240.5 465,-240.5"/>
<text text-anchor="middle" x="510.5" y="-247.5" font-family="Helvetica,sans-Serif" font-size="10.00" fill="#000000">JS_IteratorNext2</text>
</a>
</g>
</g>
<!-- Node189087&#45;&gt;Node189116 -->
<g id="edge11" class="edge">
<title>Node189087&#45;&gt;Node189116</title>
<path fill="none" stroke="#191970" d="M363.2096,-408.1611C377.6115,-396.9325 395.8811,-380.7525 408,-363 433.2231,-326.0517 411.0138,-299.2208 444,-269 449.9317,-263.5656 457.3136,-259.6743 464.9802,-256.8906"/>
<polygon fill="#191970" stroke="#191970" points="360.7063,-405.6654 354.8318,-414.4825 364.9225,-411.2532 360.7063,-405.6654"/>
</g>
<!-- Node189120 -->
<g id="node13" class="node">
<title>Node189120</title>
<g id="a_node13"><a xlink:href="quickjs_8c.html#a62424fefab7bcc97f49c978205c7a1c1" target="_top" xlink:title="js_for_await_of_next">
<polygon fill="none" stroke="#000000" points="457,-754.5 457,-773.5 564,-773.5 564,-754.5 457,-754.5"/>
<text text-anchor="middle" x="510.5" y="-761.5" font-family="Helvetica,sans-Serif" font-size="10.00" fill="#000000">js_for_await_of_next</text>
</a>
</g>
</g>
<!-- Node189087&#45;&gt;Node189120 -->
<g id="edge12" class="edge">
<title>Node189087&#45;&gt;Node189120</title>
<path fill="none" stroke="#191970" d="M349.235,-443.1581C362.7419,-475.0581 389.9066,-541.2659 408,-599 427.9862,-662.774 397.6138,-696.8867 444,-745 447.7502,-748.8898 452.2367,-751.9992 457.0849,-754.4823"/>
<polygon fill="#191970" stroke="#191970" points="352.3516,-441.5437 345.2108,-433.7169 345.9122,-444.2885 352.3516,-441.5437"/>
</g>
<!-- Node189121 -->
<g id="node14" class="node">
<title>Node189121</title>
<g id="a_node14"><a xlink:href="quickjs_8c.html#afd4ef2d701fa0702f321925b61c57bbf" target="_top" xlink:title="js_call_bound_function">
<polygon fill="none" stroke="#ff0000" points="452.5,-202.5 452.5,-221.5 568.5,-221.5 568.5,-202.5 452.5,-202.5"/>
<text text-anchor="middle" x="510.5" y="-209.5" font-family="Helvetica,sans-Serif" font-size="10.00" fill="#000000">js_call_bound_function</text>
</a>
</g>
</g>
<!-- Node189087&#45;&gt;Node189121 -->
<g id="edge14" class="edge">
<title>Node189087&#45;&gt;Node189121</title>
<path fill="none" stroke="#191970" d="M363.9183,-408.4467C378.5513,-397.3835 396.8103,-381.2818 408,-363 439.7451,-311.1346 401.2611,-274.2569 444,-231 447.7976,-227.1564 452.3148,-224.077 457.1814,-221.6119"/>
<polygon fill="#191970" stroke="#191970" points="361.8259,-405.6406 355.8025,-414.3567 365.9466,-411.2993 361.8259,-405.6406"/>
</g>
<!-- Node189122 -->
<g id="node15" class="node">
<title>Node189122</title>
<g id="a_node15"><a xlink:href="quickjs_8c.html#a3e852026d167fa03c673f86697dd3e67" target="_top" xlink:title="js_async_generator\l_resolve_or_reject">
<polygon fill="none" stroke="#ff0000" points="460,-153 460,-183 561,-183 561,-153 460,-153"/>
<text text-anchor="start" x="468" y="-171" font-family="Helvetica,sans-Serif" font-size="10.00" fill="#000000">js_async_generator</text>
<text text-anchor="middle" x="510.5" y="-160" font-family="Helvetica,sans-Serif" font-size="10.00" fill="#000000">_resolve_or_reject</text>
</a>
</g>
</g>
<!-- Node189087&#45;&gt;Node189122 -->
<g id="edge17" class="edge">
<title>Node189087&#45;&gt;Node189122</title>
<path fill="none" stroke="#191970" d="M364.5391,-408.4505C379.272,-397.4803 397.4065,-381.4822 408,-363 446.4054,-295.995 393.6616,-251.572 444,-193 448.3412,-187.9488 453.8098,-183.9162 459.7371,-180.6972"/>
<polygon fill="#191970" stroke="#191970" points="362.4416,-405.6476 356.3405,-414.3094 366.5115,-411.3428 362.4416,-405.6476"/>
</g>
<!-- Node189125 -->
<g id="node16" class="node">
<title>Node189125</title>
<g id="a_node16"><a xlink:href="quickjs_8c.html#a2355fabf91f59212ea65baba1b0b7c1b" target="_top" xlink:title="js_async_generator_next">
<polygon fill="none" stroke="#000000" points="448,-114.5 448,-133.5 573,-133.5 573,-114.5 448,-114.5"/>
<text text-anchor="middle" x="510.5" y="-121.5" font-family="Helvetica,sans-Serif" font-size="10.00" fill="#000000">js_async_generator_next</text>
</a>
</g>
</g>
<!-- Node189087&#45;&gt;Node189125 -->
<g id="edge18" class="edge">
<title>Node189087&#45;&gt;Node189125</title>
<path fill="none" stroke="#191970" d="M364.8224,-408.6086C379.6729,-397.704 397.8321,-381.7197 408,-363 455.081,-276.3215 378.9001,-218.1066 444,-144 447.8192,-139.6524 452.5441,-136.232 457.7008,-133.544"/>
<polygon fill="#191970" stroke="#191970" points="362.7159,-405.811 356.5464,-414.4243 366.7406,-411.5383 362.7159,-405.811"/>
</g>
<!-- Node189126 -->
<g id="node17" class="node">
<title>Node189126</title>
<g id="a_node17"><a xlink:href="quickjs_8c.html#a6357b7fdae71c70c140e78e6c20cb5c2" target="_top" xlink:title="js_dynamic_import_job">
<polygon fill="none" stroke="#ff0000" points="452.5,-716.5 452.5,-735.5 568.5,-735.5 568.5,-716.5 452.5,-716.5"/>
<text text-anchor="middle" x="510.5" y="-723.5" font-family="Helvetica,sans-Serif" font-size="10.00" fill="#000000">js_dynamic_import_job</text>
</a>
</g>
</g>
<!-- Node189087&#45;&gt;Node189126 -->
<g id="edge19" class="edge">
<title>Node189087&#45;&gt;Node189126</title>
<path fill="none" stroke="#191970" d="M348.7201,-443.3309C361.4869,-475.4792 387.6124,-542.0356 408,-599 425.0494,-646.6373 407.4541,-672.0086 444,-707 448.0762,-710.9028 452.8972,-714.013 458.052,-716.49"/>
<polygon fill="#191970" stroke="#191970" points="351.8807,-441.8073 344.9302,-433.8111 345.3772,-444.3965 351.8807,-441.8073"/>
</g>
<!-- Node189128 -->
<g id="node18" class="node">
<title>Node189128</title>
<g id="a_node18"><a xlink:href="quickjs_8c.html#a8d4b24969540aff427939eeda47f451d" target="_top" xlink:title="js_function_apply">
<polygon fill="none" stroke="#ff0000" points="464.5,-76.5 464.5,-95.5 556.5,-95.5 556.5,-76.5 464.5,-76.5"/>
<text text-anchor="middle" x="510.5" y="-83.5" font-family="Helvetica,sans-Serif" font-size="10.00" fill="#000000">js_function_apply</text>
</a>
</g>
</g>
<!-- Node189087&#45;&gt;Node189128 -->
<g id="edge20" class="edge">
<title>Node189087&#45;&gt;Node189128</title>
<path fill="none" stroke="#191970" d="M364.9742,-408.6898C379.8877,-397.819 398.0602,-381.8417 408,-363 462.0215,-260.5982 368.0446,-192.3797 444,-105 449.3565,-98.8378 456.5594,-94.6087 464.2498,-91.7205"/>
<polygon fill="#191970" stroke="#191970" points="362.8618,-405.8957 356.6567,-414.4834 366.8628,-411.6397 362.8618,-405.8957"/>
</g>
<!-- Node189131 -->
<g id="node19" class="node">
<title>Node189131</title>
<g id="a_node19"><a xlink:href="quickjs_8c.html#a677ad630a103e1f3d5129e0549112b50" target="_top" xlink:title="js_function_call">
<polygon fill="none" stroke="#000000" points="468.5,-678.5 468.5,-697.5 552.5,-697.5 552.5,-678.5 468.5,-678.5"/>
<text text-anchor="middle" x="510.5" y="-685.5" font-family="Helvetica,sans-Serif" font-size="10.00" fill="#000000">js_function_call</text>
</a>
</g>
</g>
<!-- Node189087&#45;&gt;Node189131 -->
<g id="edge22" class="edge">
<title>Node189087&#45;&gt;Node189131</title>
<path fill="none" stroke="#191970" d="M348.0263,-443.3316C368.1772,-498.3599 425.8774,-652.9261 444,-669 450.827,-675.0552 459.4614,-679.1897 468.2284,-682.0102"/>
<polygon fill="#191970" stroke="#191970" points="351.2361,-441.9175 344.5197,-433.7237 344.6604,-444.3176 351.2361,-441.9175"/>
</g>
<!-- Node189097 -->
<g id="node20" class="node">
<title>Node189097</title>
<g id="a_node20"><a xlink:href="quickjs_8c.html#a5e32da9a43002cb96dcbd62a1a340144" target="_top" xlink:title="js_array_from">
<polygon fill="none" stroke="#000000" points="472.5,-640.5 472.5,-659.5 548.5,-659.5 548.5,-640.5 472.5,-640.5"/>
<text text-anchor="middle" x="510.5" y="-647.5" font-family="Helvetica,sans-Serif" font-size="10.00" fill="#000000">js_array_from</text>
</a>
</g>
</g>
<!-- Node189087&#45;&gt;Node189097 -->
<g id="edge23" class="edge">
<title>Node189087&#45;&gt;Node189097</title>
<path fill="none" stroke="#191970" d="M345.0755,-443.3235C354.7343,-484.2814 382.9332,-580.2192 444,-631 452.032,-637.6791 462.2851,-642.0129 472.322,-644.824"/>
<polygon fill="#191970" stroke="#191970" points="348.4806,-442.5122 342.8754,-433.5216 341.6506,-444.0453 348.4806,-442.5122"/>
</g>
<!-- Node189112 -->
<g id="node21" class="node">
<title>Node189112</title>
<g id="a_node21"><a xlink:href="quickjs_8c.html#aa0bbf08a7e91459c68a312fba7016c6d" target="_top" xlink:title="js_array_every">
<polygon fill="none" stroke="#000000" points="470.5,-602.5 470.5,-621.5 550.5,-621.5 550.5,-602.5 470.5,-602.5"/>
<text text-anchor="middle" x="510.5" y="-609.5" font-family="Helvetica,sans-Serif" font-size="10.00" fill="#000000">js_array_every</text>
</a>
</g>
</g>
<!-- Node189087&#45;&gt;Node189112 -->
<g id="edge24" class="edge">
<title>Node189087&#45;&gt;Node189112</title>
<path fill="none" stroke="#191970" d="M347.4074,-443.3415C360.0788,-478.5625 391.7297,-553.1919 444,-593 451.6419,-598.8199 461.0017,-602.8578 470.2595,-605.6592"/>
<polygon fill="#191970" stroke="#191970" points="350.667,-442.0584 344.0824,-433.7581 344.0537,-444.3529 350.667,-442.0584"/>
</g>
<!-- Node189132 -->
<g id="node22" class="node">
<title>Node189132</title>
<g id="a_node22"><a xlink:href="quickjs_8c.html#a36c1692489542a86dd79a7d39ab8ff95" target="_top" xlink:title="js_array_reduce">
<polygon fill="none" stroke="#000000" points="467.5,-564.5 467.5,-583.5 553.5,-583.5 553.5,-564.5 467.5,-564.5"/>
<text text-anchor="middle" x="510.5" y="-571.5" font-family="Helvetica,sans-Serif" font-size="10.00" fill="#000000">js_array_reduce</text>
</a>
</g>
</g>
<!-- Node189087&#45;&gt;Node189132 -->
<g id="edge25" class="edge">
<title>Node189087&#45;&gt;Node189132</title>
<path fill="none" stroke="#191970" d="M350.5306,-442.5039C366.1607,-470.9999 399.9568,-525.4216 444,-555 450.9775,-559.6859 459.1113,-563.2299 467.2473,-565.9059"/>
<polygon fill="#191970" stroke="#191970" points="353.5689,-440.7631 345.7726,-433.5889 347.3933,-444.0591 353.5689,-440.7631"/>
</g>
<!-- Node189133 -->
<g id="node23" class="node">
<title>Node189133</title>
<g id="a_node23"><a xlink:href="quickjs_8c.html#a9dd41b086da4e13b3487cc9c6e2af2b8" target="_top" xlink:title="js_array_find">
<polygon fill="none" stroke="#000000" points="474.5,-526.5 474.5,-545.5 546.5,-545.5 546.5,-526.5 474.5,-526.5"/>
<text text-anchor="middle" x="510.5" y="-533.5" font-family="Helvetica,sans-Serif" font-size="10.00" fill="#000000">js_array_find</text>
</a>
</g>
</g>
<!-- Node189087&#45;&gt;Node189133 -->
<g id="edge26" class="edge">
<title>Node189087&#45;&gt;Node189133</title>
<path fill="none" stroke="#191970" d="M355.7694,-441.5222C374.3129,-462.4365 408.0752,-497.0764 444,-517 453.3454,-522.1829 464.2303,-526.0584 474.4548,-528.9093"/>
<polygon fill="#191970" stroke="#191970" points="358.2051,-438.989 349.0056,-433.7336 352.9199,-443.5788 358.2051,-438.989"/>
</g>
<!-- Node189134 -->
<g id="node24" class="node">
<title>Node189134</title>
<g id="a_node24"><a xlink:href="quickjs_8c.html#ad90c33b4aae1181151bda4a98ac2ef23" target="_top" xlink:title="JS_FlattenIntoArray">
<polygon fill="none" stroke="#ff0000" points="458.5,-470.5 458.5,-489.5 562.5,-489.5 562.5,-470.5 458.5,-470.5"/>
<text text-anchor="middle" x="510.5" y="-477.5" font-family="Helvetica,sans-Serif" font-size="10.00" fill="#000000">JS_FlattenIntoArray</text>
</a>
</g>
</g>
<!-- Node189087&#45;&gt;Node189134 -->
<g id="edge27" class="edge">
<title>Node189087&#45;&gt;Node189134</title>
<path fill="none" stroke="#191970" d="M375.7903,-437.1494C395.6594,-444.4948 421.1017,-453.625 444,-461 454.1718,-464.2761 465.3085,-467.5707 475.5098,-470.475"/>
<polygon fill="#191970" stroke="#191970" points="376.8289,-433.8015 366.2361,-433.5963 374.3889,-440.3625 376.8289,-433.8015"/>
</g>
<!-- Node189136 -->
<g id="node25" class="node">
<title>Node189136</title>
<g id="a_node25"><a xlink:href="quickjs_8c.html#aed1bf9ce4b9e3a82388679dd6ec7635b" target="_top" xlink:title="js_string_replace">
<polygon fill="none" stroke="#000000" points="465.5,-38.5 465.5,-57.5 555.5,-57.5 555.5,-38.5 465.5,-38.5"/>
<text text-anchor="middle" x="510.5" y="-45.5" font-family="Helvetica,sans-Serif" font-size="10.00" fill="#000000">js_string_replace</text>
</a>
</g>
</g>
<!-- Node189087&#45;&gt;Node189136 -->
<g id="edge29" class="edge">
<title>Node189087&#45;&gt;Node189136</title>
<path fill="none" stroke="#191970" d="M349.8177,-405.1881C363.9331,-374.4074 391.6706,-311.0854 408,-255 431.7819,-173.318 386.5826,-129.7756 444,-67 449.6726,-60.798 457.2151,-56.5671 465.1808,-53.6931"/>
<polygon fill="#191970" stroke="#191970" points="346.6143,-403.7767 345.5892,-414.3218 352.9666,-406.7176 346.6143,-403.7767"/>
</g>
<!-- Node189137 -->
<g id="node26" class="node">
<title>Node189137</title>
<g id="a_node26"><a xlink:href="quickjs_8c.html#a624282391413d4c5a030adbd8b77aa80" target="_top" xlink:title="internalize_json_property">
<polygon fill="none" stroke="#ff0000" points="448,-414.5 448,-433.5 573,-433.5 573,-414.5 448,-414.5"/>
<text text-anchor="middle" x="510.5" y="-421.5" font-family="Helvetica,sans-Serif" font-size="10.00" fill="#000000">internalize_json_property</text>
</a>
</g>
</g>
<!-- Node189087&#45;&gt;Node189137 -->
<g id="edge30" class="edge">
<title>Node189087&#45;&gt;Node189137</title>
<path fill="none" stroke="#191970" d="M376.9311,-424C397.5135,-424 423.9253,-424 447.8209,-424"/>
<polygon fill="#191970" stroke="#191970" points="376.7434,-420.5001 366.7434,-424 376.7434,-427.5001 376.7434,-420.5001"/>
</g>
<!-- Node189120&#45;&gt;Node189074 -->
<g id="edge13" class="edge">
<title>Node189120&#45;&gt;Node189074</title>
<path fill="none" stroke="#191970" d="M453.2929,-750.3513C450.0465,-748.7582 446.9203,-746.9813 444,-745 313.5589,-656.4984 221.8975,-477.109 201.0203,-433.6445"/>
<polygon fill="#191970" stroke="#191970" points="452.1185,-753.6557 462.6891,-754.3722 454.8725,-747.2202 452.1185,-753.6557"/>
</g>
<!-- Node189128&#45;&gt;Node189074 -->
<g id="edge21" class="edge">
<title>Node189128&#45;&gt;Node189074</title>
<path fill="none" stroke="#191970" d="M455.0593,-96.5701C450.984,-98.8648 447.2176,-101.6418 444,-105 396.5683,-154.5043 444.771,-197.1352 408,-255 357.8352,-333.9419 257.8593,-392.2743 215.8257,-414.3369"/>
<polygon fill="#191970" stroke="#191970" points="456.7616,-99.6396 464.3816,-92.2785 453.8343,-93.281 456.7616,-99.6396"/>
</g>
<!-- Node189134&#45;&gt;Node189134 -->
<g id="edge28" class="edge">
<title>Node189134&#45;&gt;Node189134</title>
<path fill="none" stroke="#191970" d="M479.0629,-498.2746C479.9592,-503.741 490.4382,-508 510.5,-508 540.3594,-508 548.9906,-498.5653 536.3937,-489.7571"/>
<polygon fill="#191970" stroke="#191970" points="482.085,-500.0475 484.6063,-489.7571 476.2181,-496.2291 482.085,-500.0475"/>
</g>
<!-- Node189137&#45;&gt;Node189137 -->
<g id="edge31" class="edge">
<title>Node189137&#45;&gt;Node189137</title>
<path fill="none" stroke="#191970" d="M479.0629,-442.2746C479.9592,-447.741 490.4382,-452 510.5,-452 540.3594,-452 548.9906,-442.5653 536.3937,-433.7571"/>
<polygon fill="#191970" stroke="#191970" points="482.085,-444.0475 484.6063,-433.7571 476.2181,-440.2291 482.085,-444.0475"/>
</g>
<!-- Node189161&#45;&gt;Node189074 -->
<g id="edge33" class="edge">
<title>Node189161&#45;&gt;Node189074</title>
<path fill="none" stroke="#191970" d="M267.895,-822.2021C217.1744,-748.2916 199.7342,-488.1038 196.9232,-433.794"/>
<polygon fill="#191970" stroke="#191970" points="265.3094,-824.5758 274.2467,-830.2658 270.8083,-820.2443 265.3094,-824.5758"/>
</g>
<!-- Node189175&#45;&gt;Node189074 -->
<g id="edge35" class="edge">
<title>Node189175&#45;&gt;Node189074</title>
<path fill="none" stroke="#191970" d="M330.1061,-253.9517C303.0245,-293.1848 232.948,-384.32 206.661,-414.4476"/>
<polygon fill="#191970" stroke="#191970" points="333.0643,-255.8247 335.7457,-245.5748 327.2576,-251.9154 333.0643,-255.8247"/>
</g>
<!-- Node189175&#45;&gt;Node189136 -->
<g id="edge37" class="edge">
<title>Node189175&#45;&gt;Node189136</title>
<path fill="none" stroke="#191970" d="M347.4074,-216.6585C360.0788,-181.4375 391.7297,-106.8081 444,-67 450.3045,-62.1986 457.7784,-58.61 465.3995,-55.9281"/>
<polygon fill="#191970" stroke="#191970" points="344.0537,-215.6471 344.0824,-226.2419 350.667,-217.9416 344.0537,-215.6471"/>
</g>
<!-- Node189175&#45;&gt;Node189344 -->
<g id="edge36" class="edge">
<title>Node189175&#45;&gt;Node189344</title>
<path fill="none" stroke="#191970" d="M345.0755,-216.6765C354.7343,-175.7186 382.9332,-79.7808 444,-29 452.5859,-21.8603 463.7099,-17.4005 474.3947,-14.6158"/>
<polygon fill="#191970" stroke="#191970" points="341.6506,-215.9547 342.8754,-226.4784 348.4806,-217.4878 341.6506,-215.9547"/>
</g>
</g>
</svg>
        <g id="navigator" transform="translate(0 0)" fill="#404254">
                <rect fill="#f2f5e9" fill-opacity="0.5" stroke="#606060" stroke-width=".5" x="0" y="0" width="60" height="60"/>
                <use id="zoomplus" xlink:href="#zoomPlus" x="17" y="9" onmousedown="handleZoom(evt,'in')"/>
                <use id="zoomminus" xlink:href="#zoomMin" x="42" y="9" onmousedown="handleZoom(evt,'out')"/>
                <use id="reset" xlink:href="#resetDef" x="30" y="36" onmousedown="handleReset()"/>
                <g id="arrowUp" xlink:href="#dirArrow" transform="translate(30 24)" onmousedown="handlePan(0,-1)">
                  <use xlink:href="#rim" fill="#404040">
                        <set attributeName="fill" to="#808080" begin="arrowUp.mouseover" end="arrowUp.mouseout"/>
                  </use>
                  <path fill="none" stroke="white" stroke-width="1.5" d="M0,-3.0v7 M-2.5,-0.5L0,-3.0L2.5,-0.5"/>
                </g>
                <g id="arrowRight" xlink:href="#dirArrow" transform="rotate(90) translate(36 -43)" onmousedown="handlePan(1,0)">
                  <use xlink:href="#rim" fill="#404040">
                        <set attributeName="fill" to="#808080" begin="arrowRight.mouseover" end="arrowRight.mouseout"/>
                  </use>
                  <path fill="none" stroke="white" stroke-width="1.5" d="M0,-3.0v7 M-2.5,-0.5L0,-3.0L2.5,-0.5"/>
                </g>
                <g id="arrowDown" xlink:href="#dirArrow" transform="rotate(180) translate(-30 -48)" onmousedown="handlePan(0,1)">
                  <use xlink:href="#rim" fill="#404040">
                        <set attributeName="fill" to="#808080" begin="arrowDown.mouseover" end="arrowDown.mouseout"/>
                  </use>
                  <path fill="none" stroke="white" stroke-width="1.5" d="M0,-3.0v7 M-2.5,-0.5L0,-3.0L2.5,-0.5"/>
                </g>
                <g id="arrowLeft" xlink:href="#dirArrow" transform="rotate(270) translate(-36 17)" onmousedown="handlePan(-1,0)">
                  <use xlink:href="#rim" fill="#404040">
                        <set attributeName="fill" to="#808080" begin="arrowLeft.mouseover" end="arrowLeft.mouseout"/>
                  </use>
                  <path fill="none" stroke="white" stroke-width="1.5" d="M0,-3.0v7 M-2.5,-0.5L0,-3.0L2.5,-0.5"/>
                </g>
        </g>
        <svg viewBox="0 0 15 15" width="100%" height="30px" preserveAspectRatio="xMaxYMin meet">
         <g id="arrow_out" transform="scale(0.3 0.3)">
          <a xlink:href="quickjs_8c_a638e637d492ee889691691baba33c4bd_icgraph_org.svg" target="_base">
           <rect id="button" ry="5" rx="5" y="6" x="6" height="38" width="38"
                fill="#f2f5e9" fill-opacity="0.5" stroke="#606060" stroke-width="1.0"/>
           <path id="arrow"
             d="M 11.500037,31.436501 C 11.940474,20.09759 22.043105,11.32322 32.158766,21.979434 L 37.068811,17.246167 C 37.068811,17.246167 37.088388,32 37.088388,32 L 22.160133,31.978069 C 22.160133,31.978069 26.997745,27.140456 26.997745,27.140456 C 18.528582,18.264221 13.291696,25.230495 11.500037,31.436501 z"
             style="fill:#404040;"/>
          </a>
         </g>
        </svg>
</svg>
