<?xml version="1.0" encoding="UTF-8" standalone="no"?>
<!DOCTYPE svg PUBLIC "-//W3C//DTD SVG 1.1//EN"
 "http://www.w3.org/Graphics/SVG/1.1/DTD/svg11.dtd">
<!-- Generated by graphviz version 2.40.1 (20161225.0304)
 -->
<!-- Title: JS_SetOpaque Pages: 1 -->
<svg width="646pt" height="632pt"
 viewBox="0.00 0.00 646.00 632.00" xmlns="http://www.w3.org/2000/svg" xmlns:xlink="http://www.w3.org/1999/xlink">
<g id="graph0" class="graph" transform="scale(1 1) rotate(0) translate(4 628)">
<title>JS_SetOpaque</title>
<!-- Node76167 -->
<g id="node1" class="node">
<title>Node76167</title>
<polygon fill="#bfbfbf" stroke="#000000" points="0,-247.5 0,-266.5 83,-266.5 83,-247.5 0,-247.5"/>
<text text-anchor="middle" x="41.5" y="-254.5" font-family="Helvetica,sans-Serif" font-size="10.00" fill="#000000">JS_SetOpaque</text>
</g>
<!-- Node76168 -->
<g id="node2" class="node">
<title>Node76168</title>
<g id="a_node2"><a xlink:href="quickjs_8c.html#a06f84cf8ea00e2baf1a9b94f1a319b18" target="_top" xlink:title="js_array_buffer_constructor3">
<polygon fill="none" stroke="#000000" points="132.5,-534.5 132.5,-553.5 272.5,-553.5 272.5,-534.5 132.5,-534.5"/>
<text text-anchor="middle" x="202.5" y="-541.5" font-family="Helvetica,sans-Serif" font-size="10.00" fill="#000000">js_array_buffer_constructor3</text>
</a>
</g>
</g>
<!-- Node76167&#45;&gt;Node76168 -->
<g id="edge1" class="edge">
<title>Node76167&#45;&gt;Node76168</title>
<path fill="none" stroke="#191970" d="M45.3185,-276.7217C55.9255,-329.7501 87.0759,-473.7637 119,-509 129.9758,-521.1146 145.8146,-529.1625 160.7537,-534.4484"/>
<polygon fill="#191970" stroke="#191970" points="48.6908,-275.7318 43.3232,-266.5973 41.8229,-277.0854 48.6908,-275.7318"/>
</g>
<!-- Node76186 -->
<g id="node8" class="node">
<title>Node76186</title>
<g id="a_node8"><a xlink:href="quickjs_8c.html#ae19867da709929c072f05e90301835a4" target="_top" xlink:title="js_async_generator\l_function_call">
<polygon fill="none" stroke="#000000" points="152,-469 152,-499 253,-499 253,-469 152,-469"/>
<text text-anchor="start" x="160" y="-487" font-family="Helvetica,sans-Serif" font-size="10.00" fill="#000000">js_async_generator</text>
<text text-anchor="middle" x="202.5" y="-476" font-family="Helvetica,sans-Serif" font-size="10.00" fill="#000000">_function_call</text>
</a>
</g>
</g>
<!-- Node76167&#45;&gt;Node76186 -->
<g id="edge7" class="edge">
<title>Node76167&#45;&gt;Node76186</title>
<path fill="none" stroke="#191970" d="M43.372,-276.7741C48.2481,-317.0296 64.9872,-408.9155 119,-459 128.0988,-467.437 139.9357,-473.0341 151.8232,-476.7449"/>
<polygon fill="#191970" stroke="#191970" points="46.8325,-276.221 42.2701,-266.6589 39.8737,-276.9791 46.8325,-276.221"/>
</g>
<!-- Node76188 -->
<g id="node10" class="node">
<title>Node76188</title>
<g id="a_node10"><a xlink:href="quickjs_8c.html#a4e9176ba046f72bfa8c511cbe58242e8" target="_top" xlink:title="js_create_array_iterator">
<polygon fill="none" stroke="#000000" points="143,-430.5 143,-449.5 262,-449.5 262,-430.5 143,-430.5"/>
<text text-anchor="middle" x="202.5" y="-437.5" font-family="Helvetica,sans-Serif" font-size="10.00" fill="#000000">js_create_array_iterator</text>
</a>
</g>
</g>
<!-- Node76167&#45;&gt;Node76188 -->
<g id="edge9" class="edge">
<title>Node76167&#45;&gt;Node76188</title>
<path fill="none" stroke="#191970" d="M44.9494,-276.3955C52.17,-311.0458 72.2483,-383.4607 119,-421 125.9555,-426.5849 134.2374,-430.5956 142.8419,-433.4632"/>
<polygon fill="#191970" stroke="#191970" points="48.3824,-275.7133 43.0394,-266.5644 41.5109,-277.0484 48.3824,-275.7133"/>
</g>
<!-- Node76753 -->
<g id="node13" class="node">
<title>Node76753</title>
<g id="a_node13"><a xlink:href="quickjs_8c.html#a5099fc640881f797949e0761e475419a" target="_top" xlink:title="js_create_map_iterator">
<polygon fill="none" stroke="#000000" points="144.5,-392.5 144.5,-411.5 260.5,-411.5 260.5,-392.5 144.5,-392.5"/>
<text text-anchor="middle" x="202.5" y="-399.5" font-family="Helvetica,sans-Serif" font-size="10.00" fill="#000000">js_create_map_iterator</text>
</a>
</g>
</g>
<!-- Node76167&#45;&gt;Node76753 -->
<g id="edge12" class="edge">
<title>Node76167&#45;&gt;Node76753</title>
<path fill="none" stroke="#191970" d="M47.846,-276.1885C58.1434,-304.2163 81.2325,-355.949 119,-383 126.4937,-388.3674 135.2553,-392.2493 144.2311,-395.0506"/>
<polygon fill="#191970" stroke="#191970" points="51.1336,-274.9867 44.5218,-266.7081 44.5279,-277.3029 51.1336,-274.9867"/>
</g>
<!-- Node76425 -->
<g id="node14" class="node">
<title>Node76425</title>
<g id="a_node14"><a xlink:href="quickjs_8c.html#a37cac335cb6abd3c24e162ad57f418f1" target="_top" xlink:title="js_create_resolving\l_functions">
<polygon fill="none" stroke="#ff0000" points="152,-343 152,-373 253,-373 253,-343 152,-343"/>
<text text-anchor="start" x="160" y="-361" font-family="Helvetica,sans-Serif" font-size="10.00" fill="#000000">js_create_resolving</text>
<text text-anchor="middle" x="202.5" y="-350" font-family="Helvetica,sans-Serif" font-size="10.00" fill="#000000">_functions</text>
</a>
</g>
</g>
<!-- Node76167&#45;&gt;Node76425 -->
<g id="edge13" class="edge">
<title>Node76167&#45;&gt;Node76425</title>
<path fill="none" stroke="#191970" d="M56.3909,-274.0921C70.9776,-289.9342 94.5252,-313.2195 119,-328 129.0212,-334.0519 140.4516,-339.1545 151.5712,-343.3381"/>
<polygon fill="#191970" stroke="#191970" points="58.9133,-271.6628 49.6224,-266.5706 53.71,-276.3452 58.9133,-271.6628"/>
</g>
<!-- Node76247 -->
<g id="node15" class="node">
<title>Node76247</title>
<g id="a_node15"><a xlink:href="quickjs_8c.html#a96f03a78375e0f29d9445c3fb2d5d60e" target="_top" xlink:title="js_promise_constructor">
<polygon fill="none" stroke="#ff0000" points="333,-345.5 333,-364.5 451,-364.5 451,-345.5 333,-345.5"/>
<text text-anchor="middle" x="392" y="-352.5" font-family="Helvetica,sans-Serif" font-size="10.00" fill="#000000">js_promise_constructor</text>
</a>
</g>
</g>
<!-- Node76167&#45;&gt;Node76247 -->
<g id="edge27" class="edge">
<title>Node76167&#45;&gt;Node76247</title>
<path fill="none" stroke="#191970" d="M66.9661,-271.4136C81.7749,-279.3 101.0127,-288.7159 119,-295 140.2165,-302.4123 273.6821,-330.5157 345.8325,-345.4833"/>
<polygon fill="#191970" stroke="#191970" points="68.3888,-268.2033 57.9318,-266.5002 65.0444,-274.3527 68.3888,-268.2033"/>
</g>
<!-- Node76480 -->
<g id="node16" class="node">
<title>Node76480</title>
<g id="a_node16"><a xlink:href="quickjs_8c.html#ac66ebcf9a12193b322ea242e7a4db180" target="_top" xlink:title="JS_CreateAsyncFromSyncIterator">
<polygon fill="none" stroke="#ff0000" points="119,-266.5 119,-285.5 286,-285.5 286,-266.5 119,-266.5"/>
<text text-anchor="middle" x="202.5" y="-273.5" font-family="Helvetica,sans-Serif" font-size="10.00" fill="#000000">JS_CreateAsyncFromSyncIterator</text>
</a>
</g>
</g>
<!-- Node76167&#45;&gt;Node76480 -->
<g id="edge16" class="edge">
<title>Node76167&#45;&gt;Node76480</title>
<path fill="none" stroke="#191970" d="M93.3847,-263.123C102.4827,-264.1967 112.1414,-265.3366 121.8038,-266.4768"/>
<polygon fill="#191970" stroke="#191970" points="93.7219,-259.6386 83.3806,-261.9424 92.9014,-266.5904 93.7219,-259.6386"/>
</g>
<!-- Node76196 -->
<g id="node17" class="node">
<title>Node76196</title>
<g id="a_node17"><a xlink:href="quickjs_8c.html#ac90552b1f1659acb3dae9a4c62479a30" target="_top" xlink:title="js_generator_function_call">
<polygon fill="none" stroke="#ff0000" points="137.5,-228.5 137.5,-247.5 267.5,-247.5 267.5,-228.5 137.5,-228.5"/>
<text text-anchor="middle" x="202.5" y="-235.5" font-family="Helvetica,sans-Serif" font-size="10.00" fill="#000000">js_generator_function_call</text>
</a>
</g>
</g>
<!-- Node76167&#45;&gt;Node76196 -->
<g id="edge17" class="edge">
<title>Node76167&#45;&gt;Node76196</title>
<path fill="none" stroke="#191970" d="M93.3384,-250.8824C107.3789,-249.2255 122.7573,-247.4106 137.4258,-245.6796"/>
<polygon fill="#191970" stroke="#191970" points="92.9014,-247.4096 83.3806,-252.0576 93.7219,-254.3614 92.9014,-247.4096"/>
</g>
<!-- Node76234 -->
<g id="node18" class="node">
<title>Node76234</title>
<g id="a_node18"><a xlink:href="quickjs_8c.html#a27dcb5e2923cd6c0201c70546d704748" target="_top" xlink:title="js_map_constructor">
<polygon fill="none" stroke="#ff0000" points="151.5,-190.5 151.5,-209.5 253.5,-209.5 253.5,-190.5 151.5,-190.5"/>
<text text-anchor="middle" x="202.5" y="-197.5" font-family="Helvetica,sans-Serif" font-size="10.00" fill="#000000">js_map_constructor</text>
</a>
</g>
</g>
<!-- Node76167&#45;&gt;Node76234 -->
<g id="edge18" class="edge">
<title>Node76167&#45;&gt;Node76234</title>
<path fill="none" stroke="#191970" d="M67.2711,-242.4844C82.0466,-234.6455 101.1519,-225.3096 119,-219 129.3726,-215.3331 140.7255,-212.1986 151.6253,-209.595"/>
<polygon fill="#191970" stroke="#191970" points="65.3706,-239.5333 58.2435,-247.3727 68.7037,-245.6888 65.3706,-239.5333"/>
</g>
<!-- Node76754 -->
<g id="node19" class="node">
<title>Node76754</title>
<g id="a_node19"><a xlink:href="quickjs-libc_8c.html#a4f611dfcb682754b3f25bb3e06f61ab5" target="_top" xlink:title="js_new_std_file">
<polygon fill="none" stroke="#000000" points="160.5,-152.5 160.5,-171.5 244.5,-171.5 244.5,-152.5 160.5,-152.5"/>
<text text-anchor="middle" x="202.5" y="-159.5" font-family="Helvetica,sans-Serif" font-size="10.00" fill="#000000">js_new_std_file</text>
</a>
</g>
</g>
<!-- Node76167&#45;&gt;Node76754 -->
<g id="edge19" class="edge">
<title>Node76167&#45;&gt;Node76754</title>
<path fill="none" stroke="#191970" d="M54.8318,-239.0788C68.8499,-221.5533 92.5193,-195.4555 119,-181 131.5274,-174.1614 146.4014,-169.7799 160.1005,-166.9743"/>
<polygon fill="#191970" stroke="#191970" points="51.777,-237.3069 48.4173,-247.355 57.3097,-241.5952 51.777,-237.3069"/>
</g>
<!-- Node76430 -->
<g id="node25" class="node">
<title>Node76430</title>
<g id="a_node25"><a xlink:href="quickjs_8c.html#ac048b0ff95f3f0cb7c189e87f74df753" target="_top" xlink:title="JS_NewCFunctionData">
<polygon fill="none" stroke="#ff0000" points="142.5,-114.5 142.5,-133.5 262.5,-133.5 262.5,-114.5 142.5,-114.5"/>
<text text-anchor="middle" x="202.5" y="-121.5" font-family="Helvetica,sans-Serif" font-size="10.00" fill="#000000">JS_NewCFunctionData</text>
</a>
</g>
</g>
<!-- Node76167&#45;&gt;Node76430 -->
<g id="edge25" class="edge">
<title>Node76167&#45;&gt;Node76430</title>
<path fill="none" stroke="#191970" d="M49.1543,-237.8038C60.4465,-212.0575 84.076,-166.8281 119,-143 126.0001,-138.2239 134.0226,-134.6327 142.2651,-131.9356"/>
<polygon fill="#191970" stroke="#191970" points="45.841,-236.6542 45.1923,-247.2292 52.294,-239.3669 45.841,-236.6542"/>
</g>
<!-- Node76627 -->
<g id="node26" class="node">
<title>Node76627</title>
<g id="a_node26"><a xlink:href="quickjs-libc_8c.html#acd6d7f2e207ed1d263e55bed721a7288" target="_top" xlink:title="js_os_setTimeout">
<polygon fill="none" stroke="#000000" points="155.5,-76.5 155.5,-95.5 249.5,-95.5 249.5,-76.5 155.5,-76.5"/>
<text text-anchor="middle" x="202.5" y="-83.5" font-family="Helvetica,sans-Serif" font-size="10.00" fill="#000000">js_os_setTimeout</text>
</a>
</g>
</g>
<!-- Node76167&#45;&gt;Node76627 -->
<g id="edge26" class="edge">
<title>Node76167&#45;&gt;Node76627</title>
<path fill="none" stroke="#191970" d="M45.8355,-237.2188C54.0959,-204.4177 75.3026,-139.0196 119,-105 129.3234,-96.963 142.4161,-92.2063 155.1545,-89.4244"/>
<polygon fill="#191970" stroke="#191970" points="42.3334,-236.8196 43.438,-247.3567 49.1455,-238.4306 42.3334,-236.8196"/>
</g>
<!-- Node76755 -->
<g id="node27" class="node">
<title>Node76755</title>
<g id="a_node27"><a xlink:href="quickjs_8c.html#aabd74747b51e480d80dc19914e74a3a5" target="_top" xlink:title="js_proxy_constructor">
<polygon fill="none" stroke="#000000" points="149,-38.5 149,-57.5 256,-57.5 256,-38.5 149,-38.5"/>
<text text-anchor="middle" x="202.5" y="-45.5" font-family="Helvetica,sans-Serif" font-size="10.00" fill="#000000">js_proxy_constructor</text>
</a>
</g>
</g>
<!-- Node76167&#45;&gt;Node76755 -->
<g id="edge28" class="edge">
<title>Node76167&#45;&gt;Node76755</title>
<path fill="none" stroke="#191970" d="M43.5995,-237.2979C48.83,-198.4584 66.0917,-111.8924 119,-67 127.3888,-59.8821 137.9049,-55.2917 148.6174,-52.3623"/>
<polygon fill="#191970" stroke="#191970" points="40.1138,-236.9688 42.3796,-247.3185 47.0625,-237.8148 40.1138,-236.9688"/>
</g>
<!-- Node76272 -->
<g id="node30" class="node">
<title>Node76272</title>
<g id="a_node30"><a xlink:href="quickjs_8c.html#ace9b3fda4db2506ca054f0c7aaf41880" target="_top" xlink:title="js_regexp_Symbol_matchAll">
<polygon fill="none" stroke="#000000" points="132.5,-.5 132.5,-19.5 272.5,-19.5 272.5,-.5 132.5,-.5"/>
<text text-anchor="middle" x="202.5" y="-7.5" font-family="Helvetica,sans-Serif" font-size="10.00" fill="#000000">js_regexp_Symbol_matchAll</text>
</a>
</g>
</g>
<!-- Node76167&#45;&gt;Node76272 -->
<g id="edge31" class="edge">
<title>Node76167&#45;&gt;Node76272</title>
<path fill="none" stroke="#191970" d="M45.565,-237.5501C56.3432,-187.8017 87.0218,-57.8163 119,-29 123.1969,-25.2181 127.9876,-22.1403 133.1035,-19.6409"/>
<polygon fill="#191970" stroke="#191970" points="42.131,-236.8723 43.4691,-247.3823 48.9772,-238.3317 42.131,-236.8723"/>
</g>
<!-- Node76169 -->
<g id="node3" class="node">
<title>Node76169</title>
<g id="a_node3"><a xlink:href="quickjs_8c.html#a26d438ccdb07d84370683eb01eda3013" target="_top" xlink:title="js_array_buffer_constructor2">
<polygon fill="none" stroke="#ff0000" points="322,-585.5 322,-604.5 462,-604.5 462,-585.5 322,-585.5"/>
<text text-anchor="middle" x="392" y="-592.5" font-family="Helvetica,sans-Serif" font-size="10.00" fill="#000000">js_array_buffer_constructor2</text>
</a>
</g>
</g>
<!-- Node76168&#45;&gt;Node76169 -->
<g id="edge2" class="edge">
<title>Node76168&#45;&gt;Node76169</title>
<path fill="none" stroke="#191970" d="M248.0871,-556.2688C281.3751,-565.2276 325.8609,-577.2 356.5163,-585.4503"/>
<polygon fill="#191970" stroke="#191970" points="248.7095,-552.8119 238.1435,-553.5927 246.8903,-559.5713 248.7095,-552.8119"/>
</g>
<!-- Node76183 -->
<g id="node6" class="node">
<title>Node76183</title>
<g id="a_node6"><a xlink:href="quickjs_8c.html#aaf4dd31e62399fa256859376b448d391" target="_top" xlink:title="JS_NewArrayBuffer">
<polygon fill="none" stroke="#000000" points="340,-547.5 340,-566.5 444,-566.5 444,-547.5 340,-547.5"/>
<text text-anchor="middle" x="392" y="-554.5" font-family="Helvetica,sans-Serif" font-size="10.00" fill="#000000">JS_NewArrayBuffer</text>
</a>
</g>
</g>
<!-- Node76168&#45;&gt;Node76183 -->
<g id="edge5" class="edge">
<title>Node76168&#45;&gt;Node76183</title>
<path fill="none" stroke="#191970" d="M282.5426,-549.491C301.8798,-550.8176 322.0548,-552.2016 339.7392,-553.4148"/>
<polygon fill="#191970" stroke="#191970" points="282.7405,-545.9965 272.5244,-548.8038 282.2614,-552.9801 282.7405,-545.9965"/>
</g>
<!-- Node76184 -->
<g id="node7" class="node">
<title>Node76184</title>
<g id="a_node7"><a xlink:href="quickjs_8c.html#afd4c101057712f68796803cf81501264" target="_top" xlink:title="JS_NewArrayBufferCopy">
<polygon fill="none" stroke="#ff0000" points="328.5,-509.5 328.5,-528.5 455.5,-528.5 455.5,-509.5 328.5,-509.5"/>
<text text-anchor="middle" x="392" y="-516.5" font-family="Helvetica,sans-Serif" font-size="10.00" fill="#000000">JS_NewArrayBufferCopy</text>
</a>
</g>
</g>
<!-- Node76168&#45;&gt;Node76184 -->
<g id="edge6" class="edge">
<title>Node76168&#45;&gt;Node76184</title>
<path fill="none" stroke="#191970" d="M282.4669,-533.4503C297.7381,-531.4356 313.5345,-529.3516 328.2164,-527.4147"/>
<polygon fill="#191970" stroke="#191970" points="281.9807,-529.984 272.5244,-534.762 282.8963,-536.9239 281.9807,-529.984"/>
</g>
<!-- Node76170 -->
<g id="node4" class="node">
<title>Node76170</title>
<g id="a_node4"><a xlink:href="quickjs_8c.html#aca93646daffcd067d273c79efa6dda37" target="_top" xlink:title="js_array_buffer_constructor1">
<polygon fill="none" stroke="#ff0000" points="498,-604.5 498,-623.5 638,-623.5 638,-604.5 498,-604.5"/>
<text text-anchor="middle" x="568" y="-611.5" font-family="Helvetica,sans-Serif" font-size="10.00" fill="#000000">js_array_buffer_constructor1</text>
</a>
</g>
</g>
<!-- Node76169&#45;&gt;Node76170 -->
<g id="edge3" class="edge">
<title>Node76169&#45;&gt;Node76170</title>
<path fill="none" stroke="#191970" d="M472.1006,-603.6472C480.7058,-604.5762 489.4124,-605.5161 497.888,-606.4311"/>
<polygon fill="#191970" stroke="#191970" points="472.3835,-600.1575 462.0656,-602.5639 471.6321,-607.1171 472.3835,-600.1575"/>
</g>
<!-- Node76181 -->
<g id="node5" class="node">
<title>Node76181</title>
<g id="a_node5"><a xlink:href="quickjs_8c.html#a8160f52fd4197ade647faa287b34862e" target="_top" xlink:title="js_array_buffer_slice">
<polygon fill="none" stroke="#000000" points="514.5,-566.5 514.5,-585.5 621.5,-585.5 621.5,-566.5 514.5,-566.5"/>
<text text-anchor="middle" x="568" y="-573.5" font-family="Helvetica,sans-Serif" font-size="10.00" fill="#000000">js_array_buffer_slice</text>
</a>
</g>
</g>
<!-- Node76169&#45;&gt;Node76181 -->
<g id="edge4" class="edge">
<title>Node76169&#45;&gt;Node76181</title>
<path fill="none" stroke="#191970" d="M472.379,-586.3227C486.6377,-584.7834 501.1653,-583.2151 514.4493,-581.781"/>
<polygon fill="#191970" stroke="#191970" points="471.6321,-582.8829 462.0656,-587.4361 472.3835,-589.8425 471.6321,-582.8829"/>
</g>
<!-- Node76187 -->
<g id="node9" class="node">
<title>Node76187</title>
<g id="a_node9"><a xlink:href="quickjs_8c.html#a2e66fcf1bc1d19f346317f10ee590621" target="_top" xlink:title="JS_AddIntrinsicPromise">
<polygon fill="none" stroke="#ff0000" points="507,-408.5 507,-427.5 629,-427.5 629,-408.5 507,-408.5"/>
<text text-anchor="middle" x="568" y="-415.5" font-family="Helvetica,sans-Serif" font-size="10.00" fill="#000000">JS_AddIntrinsicPromise</text>
</a>
</g>
</g>
<!-- Node76186&#45;&gt;Node76187 -->
<g id="edge8" class="edge">
<title>Node76186&#45;&gt;Node76187</title>
<path fill="none" stroke="#191970" d="M263.7498,-484.0997C316.8813,-482.9385 395.4897,-478.2066 462,-462 494.1356,-454.1695 529.1653,-437.9934 549.8237,-427.5875"/>
<polygon fill="#191970" stroke="#191970" points="263.409,-480.6052 253.4744,-484.2866 263.5364,-487.604 263.409,-480.6052"/>
</g>
<!-- Node76189 -->
<g id="node11" class="node">
<title>Node76189</title>
<g id="a_node11"><a xlink:href="quickjs_8c.html#a43208b0746998d2b6b9b8bd1ef8b5f99" target="_top" xlink:title="js_append_enumerate">
<polygon fill="none" stroke="#ff0000" points="336,-433.5 336,-452.5 448,-452.5 448,-433.5 336,-433.5"/>
<text text-anchor="middle" x="392" y="-440.5" font-family="Helvetica,sans-Serif" font-size="10.00" fill="#000000">js_append_enumerate</text>
</a>
</g>
</g>
<!-- Node76188&#45;&gt;Node76189 -->
<g id="edge10" class="edge">
<title>Node76188&#45;&gt;Node76189</title>
<path fill="none" stroke="#191970" d="M272.3104,-441.1052C293.2338,-441.4364 315.9041,-441.7953 335.8294,-442.1108"/>
<polygon fill="#191970" stroke="#191970" points="272.2531,-437.6039 262.1989,-440.9451 272.1422,-444.6031 272.2531,-437.6039"/>
</g>
<!-- Node76752 -->
<g id="node12" class="node">
<title>Node76752</title>
<g id="a_node12"><a xlink:href="quickjs_8c.html#a1e80be77ffd5dbb921de62f804a26675" target="_top" xlink:title="js_create_typed_array\l_iterator">
<polygon fill="none" stroke="#000000" points="335.5,-384 335.5,-414 448.5,-414 448.5,-384 335.5,-384"/>
<text text-anchor="start" x="343.5" y="-402" font-family="Helvetica,sans-Serif" font-size="10.00" fill="#000000">js_create_typed_array</text>
<text text-anchor="middle" x="392" y="-391" font-family="Helvetica,sans-Serif" font-size="10.00" fill="#000000">_iterator</text>
</a>
</g>
</g>
<!-- Node76188&#45;&gt;Node76752 -->
<g id="edge11" class="edge">
<title>Node76188&#45;&gt;Node76752</title>
<path fill="none" stroke="#191970" d="M256.3706,-428.3446C281.0556,-423.0038 310.3206,-416.6721 335.3363,-411.2597"/>
<polygon fill="#191970" stroke="#191970" points="255.4851,-424.9551 246.4514,-430.4907 256.9654,-431.7968 255.4851,-424.9551"/>
</g>
<!-- Node76425&#45;&gt;Node76247 -->
<g id="edge14" class="edge">
<title>Node76425&#45;&gt;Node76247</title>
<path fill="none" stroke="#191970" d="M263.5685,-357.0332C285.7133,-356.6826 310.6801,-356.2874 332.6725,-355.9392"/>
<polygon fill="#191970" stroke="#191970" points="263.2258,-353.5381 253.2825,-357.1961 263.3367,-360.5372 263.2258,-353.5381"/>
</g>
<!-- Node76247&#45;&gt;Node76187 -->
<g id="edge15" class="edge">
<title>Node76247&#45;&gt;Node76187</title>
<path fill="none" stroke="#191970" d="M437.8964,-367.3509C445.9752,-369.7413 454.2692,-372.3361 462,-375 491.6659,-385.2223 525.0905,-399.206 546.3338,-408.4143"/>
<polygon fill="#191970" stroke="#191970" points="438.7799,-363.963 428.2011,-364.5454 436.8342,-370.6872 438.7799,-363.963"/>
</g>
<!-- Node76311 -->
<g id="node20" class="node">
<title>Node76311</title>
<g id="a_node20"><a xlink:href="quickjs-libc_8c.html#a51bfedac363e39a4273635aa7810425a" target="_top" xlink:title="js_std_fdopen">
<polygon fill="none" stroke="#000000" points="353.5,-228.5 353.5,-247.5 430.5,-247.5 430.5,-228.5 353.5,-228.5"/>
<text text-anchor="middle" x="392" y="-235.5" font-family="Helvetica,sans-Serif" font-size="10.00" fill="#000000">js_std_fdopen</text>
</a>
</g>
</g>
<!-- Node76754&#45;&gt;Node76311 -->
<g id="edge20" class="edge">
<title>Node76754&#45;&gt;Node76311</title>
<path fill="none" stroke="#191970" d="M254.4933,-168.8643C265.3537,-171.638 276.4078,-175.5323 286,-181 306.2115,-192.5208 302.0307,-207.0642 322,-219 331.5118,-224.6853 342.7558,-228.707 353.417,-231.5372"/>
<polygon fill="#191970" stroke="#191970" points="255.1486,-165.424 244.6214,-166.6191 253.5962,-172.2497 255.1486,-165.424"/>
</g>
<!-- Node76722 -->
<g id="node21" class="node">
<title>Node76722</title>
<g id="a_node21"><a xlink:href="quickjs-libc_8c.html#a08cea1a0226b7603e6969e2208d99d55" target="_top" xlink:title="js_std_init">
<polygon fill="none" stroke="#ff0000" points="361.5,-190.5 361.5,-209.5 422.5,-209.5 422.5,-190.5 361.5,-190.5"/>
<text text-anchor="middle" x="392" y="-197.5" font-family="Helvetica,sans-Serif" font-size="10.00" fill="#000000">js_std_init</text>
</a>
</g>
</g>
<!-- Node76754&#45;&gt;Node76722 -->
<g id="edge21" class="edge">
<title>Node76754&#45;&gt;Node76722</title>
<path fill="none" stroke="#191970" d="M254.402,-172.4078C288.6633,-179.2781 332.3935,-188.0472 361.2506,-193.8339"/>
<polygon fill="#191970" stroke="#191970" points="255.0492,-168.968 244.5562,-170.4334 253.6728,-175.8313 255.0492,-168.968"/>
</g>
<!-- Node76312 -->
<g id="node22" class="node">
<title>Node76312</title>
<g id="a_node22"><a xlink:href="quickjs-libc_8c.html#a7af79ae13a636de55a6d58309c0cfa1e" target="_top" xlink:title="js_std_open">
<polygon fill="none" stroke="#000000" points="357.5,-152.5 357.5,-171.5 426.5,-171.5 426.5,-152.5 357.5,-152.5"/>
<text text-anchor="middle" x="392" y="-159.5" font-family="Helvetica,sans-Serif" font-size="10.00" fill="#000000">js_std_open</text>
</a>
</g>
</g>
<!-- Node76754&#45;&gt;Node76312 -->
<g id="edge22" class="edge">
<title>Node76754&#45;&gt;Node76312</title>
<path fill="none" stroke="#191970" d="M254.8423,-162C287.5233,-162 328.6851,-162 357.3496,-162"/>
<polygon fill="#191970" stroke="#191970" points="254.5562,-158.5001 244.5562,-162 254.5562,-165.5001 254.5562,-158.5001"/>
</g>
<!-- Node76313 -->
<g id="node23" class="node">
<title>Node76313</title>
<g id="a_node23"><a xlink:href="quickjs-libc_8c.html#af872be4f158af25e3b412e2be297abcf" target="_top" xlink:title="js_std_popen">
<polygon fill="none" stroke="#000000" points="355,-114.5 355,-133.5 429,-133.5 429,-114.5 355,-114.5"/>
<text text-anchor="middle" x="392" y="-121.5" font-family="Helvetica,sans-Serif" font-size="10.00" fill="#000000">js_std_popen</text>
</a>
</g>
</g>
<!-- Node76754&#45;&gt;Node76313 -->
<g id="edge23" class="edge">
<title>Node76754&#45;&gt;Node76313</title>
<path fill="none" stroke="#191970" d="M254.5696,-151.5586C286.3638,-145.183 326.2635,-137.182 354.8681,-131.446"/>
<polygon fill="#191970" stroke="#191970" points="253.6728,-148.1687 244.5562,-153.5666 255.0492,-155.032 253.6728,-148.1687"/>
</g>
<!-- Node76314 -->
<g id="node24" class="node">
<title>Node76314</title>
<g id="a_node24"><a xlink:href="quickjs-libc_8c.html#ab6571176bd6ffba18dcc966ffb1c7234" target="_top" xlink:title="js_std_tmpfile">
<polygon fill="none" stroke="#000000" points="353.5,-76.5 353.5,-95.5 430.5,-95.5 430.5,-76.5 353.5,-76.5"/>
<text text-anchor="middle" x="392" y="-83.5" font-family="Helvetica,sans-Serif" font-size="10.00" fill="#000000">js_std_tmpfile</text>
</a>
</g>
</g>
<!-- Node76754&#45;&gt;Node76314 -->
<g id="edge24" class="edge">
<title>Node76754&#45;&gt;Node76314</title>
<path fill="none" stroke="#191970" d="M254.4933,-155.1357C265.3537,-152.362 276.4078,-148.4677 286,-143 306.2115,-131.4792 302.0307,-116.9358 322,-105 331.5118,-99.3147 342.7558,-95.293 353.417,-92.4628"/>
<polygon fill="#191970" stroke="#191970" points="253.5962,-151.7503 244.6214,-157.3809 255.1486,-158.576 253.5962,-151.7503"/>
</g>
<!-- Node76259 -->
<g id="node28" class="node">
<title>Node76259</title>
<g id="a_node28"><a xlink:href="quickjs_8c.html#a3afdbdd7b58ef7e1dcc178c362071b3d" target="_top" xlink:title="JS_AddIntrinsicProxy">
<polygon fill="none" stroke="#ff0000" points="336.5,-38.5 336.5,-57.5 447.5,-57.5 447.5,-38.5 336.5,-38.5"/>
<text text-anchor="middle" x="392" y="-45.5" font-family="Helvetica,sans-Serif" font-size="10.00" fill="#000000">JS_AddIntrinsicProxy</text>
</a>
</g>
</g>
<!-- Node76755&#45;&gt;Node76259 -->
<g id="edge29" class="edge">
<title>Node76755&#45;&gt;Node76259</title>
<path fill="none" stroke="#191970" d="M266.2606,-48C288.9538,-48 314.3122,-48 336.279,-48"/>
<polygon fill="#191970" stroke="#191970" points="266.0433,-44.5001 256.0432,-48 266.0432,-51.5001 266.0433,-44.5001"/>
</g>
<!-- Node76434 -->
<g id="node29" class="node">
<title>Node76434</title>
<g id="a_node29"><a xlink:href="quickjs_8c.html#a537862df2984a40ceb9be7878c497cd2" target="_top" xlink:title="js_proxy_revocable">
<polygon fill="none" stroke="#000000" points="341.5,-.5 341.5,-19.5 442.5,-19.5 442.5,-.5 341.5,-.5"/>
<text text-anchor="middle" x="392" y="-7.5" font-family="Helvetica,sans-Serif" font-size="10.00" fill="#000000">js_proxy_revocable</text>
</a>
</g>
</g>
<!-- Node76755&#45;&gt;Node76434 -->
<g id="edge30" class="edge">
<title>Node76755&#45;&gt;Node76434</title>
<path fill="none" stroke="#191970" d="M260.3948,-36.3905C287.346,-30.986 319.0102,-24.6365 344.525,-19.5201"/>
<polygon fill="#191970" stroke="#191970" points="259.4355,-33.0131 250.3189,-38.411 260.8118,-39.8765 259.4355,-33.0131"/>
</g>
</g>
</svg>
