<?xml version="1.0" encoding="UTF-8" standalone="no"?>
<!DOCTYPE svg PUBLIC "-//W3C//DTD SVG 1.1//EN"
 "http://www.w3.org/Graphics/SVG/1.1/DTD/svg11.dtd">
<!-- Generated by graphviz version 2.40.1 (20161225.0304)
 -->
<!-- Title: js_alloc_string_rt Pages: 1 -->
<svg width="688pt" height="764pt"
 viewBox="0.00 0.00 688.00 764.00" xmlns="http://www.w3.org/2000/svg" xmlns:xlink="http://www.w3.org/1999/xlink">
<g id="graph0" class="graph" transform="scale(1 1) rotate(0) translate(4 760)">
<title>js_alloc_string_rt</title>
<!-- Node63804 -->
<g id="node1" class="node">
<title>Node63804</title>
<polygon fill="#bfbfbf" stroke="#000000" points="0,-392.5 0,-411.5 90,-411.5 90,-392.5 0,-392.5"/>
<text text-anchor="middle" x="45" y="-399.5" font-family="Helvetica,sans-Serif" font-size="10.00" fill="#000000">js_alloc_string_rt</text>
</g>
<!-- Node63805 -->
<g id="node2" class="node">
<title>Node63805</title>
<g id="a_node2"><a xlink:href="quickjs_8c.html#a128673f932e71b867730af75a44e3f97" target="_top" xlink:title="__JS_NewAtomInit">
<polygon fill="none" stroke="#000000" points="126,-620.5 126,-639.5 227,-639.5 227,-620.5 126,-620.5"/>
<text text-anchor="middle" x="176.5" y="-627.5" font-family="Helvetica,sans-Serif" font-size="10.00" fill="#000000">__JS_NewAtomInit</text>
</a>
</g>
</g>
<!-- Node63804&#45;&gt;Node63805 -->
<g id="edge1" class="edge">
<title>Node63804&#45;&gt;Node63805</title>
<path fill="none" stroke="#191970" d="M55.6225,-420.4177C82.2299,-466.5507 151.0299,-585.8388 170.9936,-620.4528"/>
<polygon fill="#191970" stroke="#191970" points="58.511,-418.4204 50.483,-411.5066 52.4473,-421.9178 58.511,-418.4204"/>
</g>
<!-- Node63820 -->
<g id="node10" class="node">
<title>Node63820</title>
<g id="a_node10"><a xlink:href="quickjs_8c.html#ad303a9bc56766627b5fca41574933930" target="_top" xlink:title="js_alloc_string">
<polygon fill="none" stroke="#000000" points="137,-209.5 137,-228.5 216,-228.5 216,-209.5 137,-209.5"/>
<text text-anchor="middle" x="176.5" y="-216.5" font-family="Helvetica,sans-Serif" font-size="10.00" fill="#000000">js_alloc_string</text>
</a>
</g>
</g>
<!-- Node63804&#45;&gt;Node63820 -->
<g id="edge9" class="edge">
<title>Node63804&#45;&gt;Node63820</title>
<path fill="none" stroke="#191970" d="M58.0412,-383.8514C85.4362,-345.7275 148.1816,-258.4089 169.3644,-228.9302"/>
<polygon fill="#191970" stroke="#191970" points="54.8781,-382.2555 51.8849,-392.4188 60.5626,-386.3404 54.8781,-382.2555"/>
</g>
<!-- Node63806 -->
<g id="node3" class="node">
<title>Node63806</title>
<g id="a_node3"><a xlink:href="quickjs_8c.html#a2469c0e8a95a75d5835ec98ea967085f" target="_top" xlink:title="JS_InitAtoms">
<polygon fill="none" stroke="#000000" points="274.5,-710.5 274.5,-729.5 350.5,-729.5 350.5,-710.5 274.5,-710.5"/>
<text text-anchor="middle" x="312.5" y="-717.5" font-family="Helvetica,sans-Serif" font-size="10.00" fill="#000000">JS_InitAtoms</text>
</a>
</g>
</g>
<!-- Node63805&#45;&gt;Node63806 -->
<g id="edge2" class="edge">
<title>Node63805&#45;&gt;Node63806</title>
<path fill="none" stroke="#191970" d="M199.4866,-645.2117C227.6451,-663.846 274.4992,-694.8524 298.0503,-710.4377"/>
<polygon fill="#191970" stroke="#191970" points="201.3253,-642.2315 191.0544,-639.6316 197.4622,-648.0691 201.3253,-642.2315"/>
</g>
<!-- Node63810 -->
<g id="node5" class="node">
<title>Node63810</title>
<g id="a_node5"><a xlink:href="quickjs_8c.html#a9f0339d81c06451de278073572cc194e" target="_top" xlink:title="JS_NewClass">
<polygon fill="none" stroke="#000000" points="272.5,-620.5 272.5,-639.5 352.5,-639.5 352.5,-620.5 272.5,-620.5"/>
<text text-anchor="middle" x="312.5" y="-627.5" font-family="Helvetica,sans-Serif" font-size="10.00" fill="#000000">JS_NewClass</text>
</a>
</g>
</g>
<!-- Node63805&#45;&gt;Node63810 -->
<g id="edge4" class="edge">
<title>Node63805&#45;&gt;Node63810</title>
<path fill="none" stroke="#191970" d="M237.4529,-630C249.3132,-630 261.4625,-630 272.4368,-630"/>
<polygon fill="#191970" stroke="#191970" points="237.1414,-626.5001 227.1414,-630 237.1413,-633.5001 237.1414,-626.5001"/>
</g>
<!-- Node63807 -->
<g id="node4" class="node">
<title>Node63807</title>
<g id="a_node4"><a xlink:href="quickjs_8c.html#a27966451027feb455b5da12c1578771c" target="_top" xlink:title="JS_NewRuntime2">
<polygon fill="none" stroke="#ff0000" points="416.5,-736.5 416.5,-755.5 512.5,-755.5 512.5,-736.5 416.5,-736.5"/>
<text text-anchor="middle" x="464.5" y="-743.5" font-family="Helvetica,sans-Serif" font-size="10.00" fill="#000000">JS_NewRuntime2</text>
</a>
</g>
</g>
<!-- Node63806&#45;&gt;Node63807 -->
<g id="edge3" class="edge">
<title>Node63806&#45;&gt;Node63807</title>
<path fill="none" stroke="#191970" d="M360.9748,-728.2917C378.672,-731.3189 398.6714,-734.7398 416.341,-737.7623"/>
<polygon fill="#191970" stroke="#191970" points="361.303,-724.7971 350.856,-726.5609 360.1227,-731.6969 361.303,-724.7971"/>
</g>
<!-- Node63811 -->
<g id="node6" class="node">
<title>Node63811</title>
<g id="a_node6"><a xlink:href="structqjs_1_1js__traits_3_01std_1_1shared__ptr_3_01T_01_4_01_4.html#af3558afeef079826c58411353c8ccce0" target="_top" xlink:title="Register class in QuickJS context. ">
<polygon fill="none" stroke="#ff0000" points="414,-638.5 414,-679.5 515,-679.5 515,-638.5 414,-638.5"/>
<text text-anchor="start" x="422" y="-667.5" font-family="Helvetica,sans-Serif" font-size="10.00" fill="#000000">qjs::js_traits&lt; std</text>
<text text-anchor="start" x="422" y="-656.5" font-family="Helvetica,sans-Serif" font-size="10.00" fill="#000000">::shared_ptr&lt; T &gt; &gt;</text>
<text text-anchor="middle" x="464.5" y="-645.5" font-family="Helvetica,sans-Serif" font-size="10.00" fill="#000000">::register_class</text>
</a>
</g>
</g>
<!-- Node63810&#45;&gt;Node63811 -->
<g id="edge5" class="edge">
<title>Node63810&#45;&gt;Node63811</title>
<path fill="none" stroke="#191970" d="M362.7927,-639.5953C379.2154,-642.7286 397.4533,-646.2082 413.8986,-649.3458"/>
<polygon fill="#191970" stroke="#191970" points="363.3129,-636.1315 352.8341,-637.6953 362.001,-643.0075 363.3129,-636.1315"/>
</g>
<!-- Node63813 -->
<g id="node7" class="node">
<title>Node63813</title>
<g id="a_node7"><a xlink:href="structqjs_1_1js__traits_3_01detail_1_1function_01_4.html#afe383c63f389edaf9f878cd30062d37f" target="_top" xlink:title="qjs::js_traits\&lt; detail\l::function \&gt;::register_class">
<polygon fill="none" stroke="#ff0000" points="398,-589 398,-619 531,-619 531,-589 398,-589"/>
<text text-anchor="start" x="406" y="-607" font-family="Helvetica,sans-Serif" font-size="10.00" fill="#000000">qjs::js_traits&lt; detail</text>
<text text-anchor="middle" x="464.5" y="-596" font-family="Helvetica,sans-Serif" font-size="10.00" fill="#000000">::function &gt;::register_class</text>
</a>
</g>
</g>
<!-- Node63810&#45;&gt;Node63813 -->
<g id="edge6" class="edge">
<title>Node63810&#45;&gt;Node63813</title>
<path fill="none" stroke="#191970" d="M362.8451,-621.3883C374.0391,-619.4736 386.0743,-617.4149 397.809,-615.4077"/>
<polygon fill="#191970" stroke="#191970" points="362.1008,-617.9647 352.8341,-623.1007 363.2811,-624.8645 362.1008,-617.9647"/>
</g>
<!-- Node63815 -->
<g id="node8" class="node">
<title>Node63815</title>
<g id="a_node8"><a xlink:href="quickjs-libc_8c.html#a08cea1a0226b7603e6969e2208d99d55" target="_top" xlink:title="js_std_init">
<polygon fill="none" stroke="#ff0000" points="434,-550.5 434,-569.5 495,-569.5 495,-550.5 434,-550.5"/>
<text text-anchor="middle" x="464.5" y="-557.5" font-family="Helvetica,sans-Serif" font-size="10.00" fill="#000000">js_std_init</text>
</a>
</g>
</g>
<!-- Node63810&#45;&gt;Node63815 -->
<g id="edge7" class="edge">
<title>Node63810&#45;&gt;Node63815</title>
<path fill="none" stroke="#191970" d="M335.0345,-614.8271C351.8385,-604.0152 375.6518,-589.7307 398,-580 409.3852,-575.0427 422.374,-570.8369 433.8328,-567.5803"/>
<polygon fill="#191970" stroke="#191970" points="332.9275,-612.023 326.4739,-620.4255 336.7588,-617.8815 332.9275,-612.023"/>
</g>
<!-- Node63818 -->
<g id="node9" class="node">
<title>Node63818</title>
<g id="a_node9"><a xlink:href="quickjs-libc_8c.html#a066e7962ce24f22d5df20968a8baa346" target="_top" xlink:title="js_os_init">
<polygon fill="none" stroke="#ff0000" points="435.5,-698.5 435.5,-717.5 493.5,-717.5 493.5,-698.5 435.5,-698.5"/>
<text text-anchor="middle" x="464.5" y="-705.5" font-family="Helvetica,sans-Serif" font-size="10.00" fill="#000000">js_os_init</text>
</a>
</g>
</g>
<!-- Node63810&#45;&gt;Node63818 -->
<g id="edge8" class="edge">
<title>Node63810&#45;&gt;Node63818</title>
<path fill="none" stroke="#191970" d="M331.7967,-646.0611C348.43,-659.2087 373.5581,-677.4586 398,-689 409.7261,-694.5371 423.3939,-698.7838 435.2781,-701.8435"/>
<polygon fill="#191970" stroke="#191970" points="333.9036,-643.264 323.9214,-639.7134 329.5107,-648.714 333.9036,-643.264"/>
</g>
<!-- Node63821 -->
<g id="node11" class="node">
<title>Node63821</title>
<g id="a_node11"><a xlink:href="quickjs_8c.html#aa923510185fe24e3083baf7405b09f51" target="_top" xlink:title="js_new_string8">
<polygon fill="none" stroke="#000000" points="271.5,-133.5 271.5,-152.5 353.5,-152.5 353.5,-133.5 271.5,-133.5"/>
<text text-anchor="middle" x="312.5" y="-140.5" font-family="Helvetica,sans-Serif" font-size="10.00" fill="#000000">js_new_string8</text>
</a>
</g>
</g>
<!-- Node63820&#45;&gt;Node63821 -->
<g id="edge10" class="edge">
<title>Node63820&#45;&gt;Node63821</title>
<path fill="none" stroke="#191970" d="M202.7243,-204.3452C230.0563,-189.0715 272.0888,-165.5828 295.4154,-152.5473"/>
<polygon fill="#191970" stroke="#191970" points="200.7465,-201.441 193.7245,-209.3745 204.1613,-207.5516 200.7465,-201.441"/>
</g>
<!-- Node64402 -->
<g id="node15" class="node">
<title>Node64402</title>
<g id="a_node15"><a xlink:href="quickjs_8c.html#a011157b8ff30c8418be989eadf509c92" target="_top" xlink:title="js_sub_string">
<polygon fill="none" stroke="#ff0000" points="427.5,-.5 427.5,-19.5 501.5,-19.5 501.5,-.5 427.5,-.5"/>
<text text-anchor="middle" x="464.5" y="-7.5" font-family="Helvetica,sans-Serif" font-size="10.00" fill="#000000">js_sub_string</text>
</a>
</g>
</g>
<!-- Node63820&#45;&gt;Node64402 -->
<g id="edge22" class="edge">
<title>Node63820&#45;&gt;Node64402</title>
<path fill="none" stroke="#191970" d="M181.3323,-199.4706C190.8464,-165.2632 215.3471,-94.6654 263,-58 311.1671,-20.939 383.5536,-11.8914 427.1907,-10.0222"/>
<polygon fill="#191970" stroke="#191970" points="177.93,-198.6468 178.7596,-209.2091 184.6978,-200.4348 177.93,-198.6468"/>
</g>
<!-- Node64450 -->
<g id="node18" class="node">
<title>Node64450</title>
<g id="a_node18"><a xlink:href="quickjs_8c.html#a960b48be1175b0982ecc03505711fc56" target="_top" xlink:title="js_new_string16">
<polygon fill="none" stroke="#000000" points="269,-67.5 269,-86.5 356,-86.5 356,-67.5 269,-67.5"/>
<text text-anchor="middle" x="312.5" y="-74.5" font-family="Helvetica,sans-Serif" font-size="10.00" fill="#000000">js_new_string16</text>
</a>
</g>
</g>
<!-- Node63820&#45;&gt;Node64450 -->
<g id="edge18" class="edge">
<title>Node63820&#45;&gt;Node64450</title>
<path fill="none" stroke="#191970" d="M191.6011,-201.668C208.5832,-182.3553 237.1695,-150.376 263,-124 276.1006,-110.6227 291.8857,-95.8548 302.0514,-86.5084"/>
<polygon fill="#191970" stroke="#191970" points="188.8278,-199.5222 184.8709,-209.3504 194.0931,-204.1349 188.8278,-199.5222"/>
</g>
<!-- Node64451 -->
<g id="node19" class="node">
<title>Node64451</title>
<g id="a_node19"><a xlink:href="quickjs_8c.html#ac43dee2ed14e80248f1af195bd3d8181" target="_top" xlink:title="string_buffer_init2">
<polygon fill="none" stroke="#000000" points="265.5,-417.5 265.5,-436.5 359.5,-436.5 359.5,-417.5 265.5,-417.5"/>
<text text-anchor="middle" x="312.5" y="-424.5" font-family="Helvetica,sans-Serif" font-size="10.00" fill="#000000">string_buffer_init2</text>
</a>
</g>
</g>
<!-- Node63820&#45;&gt;Node64451 -->
<g id="edge23" class="edge">
<title>Node63820&#45;&gt;Node64451</title>
<path fill="none" stroke="#191970" d="M188.4552,-237.2845C216.2692,-279.8235 284.5768,-384.2939 305.9784,-417.0258"/>
<polygon fill="#191970" stroke="#191970" points="191.2791,-235.2076 182.8772,-228.7533 185.4203,-239.0384 191.2791,-235.2076"/>
</g>
<!-- Node64181 -->
<g id="node25" class="node">
<title>Node64181</title>
<g id="a_node25"><a xlink:href="quickjs_8c.html#af49e67b73f845dc1f9c3ee648dd9f95c" target="_top" xlink:title="JS_ToCStringLen2">
<polygon fill="none" stroke="#ff0000" points="263,-190.5 263,-209.5 362,-209.5 362,-190.5 263,-190.5"/>
<text text-anchor="middle" x="312.5" y="-197.5" font-family="Helvetica,sans-Serif" font-size="10.00" fill="#000000">JS_ToCStringLen2</text>
</a>
</g>
</g>
<!-- Node63820&#45;&gt;Node64181 -->
<g id="edge30" class="edge">
<title>Node63820&#45;&gt;Node64181</title>
<path fill="none" stroke="#191970" d="M226.3995,-212.0288C238.2817,-210.3687 250.9592,-208.5976 262.8311,-206.939"/>
<polygon fill="#191970" stroke="#191970" points="225.6219,-208.6033 216.2024,-213.4533 226.5905,-215.536 225.6219,-208.6033"/>
</g>
<!-- Node64453 -->
<g id="node26" class="node">
<title>Node64453</title>
<g id="a_node26"><a xlink:href="quickjs_8c.html#aa864584f81729321ec9d527d6362c633" target="_top" xlink:title="JS_ConcatString1">
<polygon fill="none" stroke="#000000" points="264.5,-294.5 264.5,-313.5 360.5,-313.5 360.5,-294.5 264.5,-294.5"/>
<text text-anchor="middle" x="312.5" y="-301.5" font-family="Helvetica,sans-Serif" font-size="10.00" fill="#000000">JS_ConcatString1</text>
</a>
</g>
</g>
<!-- Node63820&#45;&gt;Node64453 -->
<g id="edge32" class="edge">
<title>Node63820&#45;&gt;Node64453</title>
<path fill="none" stroke="#191970" d="M200.5657,-234.041C228.4132,-251.4458 273.4507,-279.5942 297.0108,-294.3193"/>
<polygon fill="#191970" stroke="#191970" points="202.1716,-230.9174 191.8366,-228.5854 198.4615,-236.8534 202.1716,-230.9174"/>
</g>
<!-- Node64454 -->
<g id="node28" class="node">
<title>Node64454</title>
<g id="a_node28"><a xlink:href="quickjs_8c.html#a73a002c998fe7508eae9aa069fac802b" target="_top" xlink:title="JS_ReadString">
<polygon fill="none" stroke="#000000" points="271,-228.5 271,-247.5 354,-247.5 354,-228.5 271,-228.5"/>
<text text-anchor="middle" x="312.5" y="-235.5" font-family="Helvetica,sans-Serif" font-size="10.00" fill="#000000">JS_ReadString</text>
</a>
</g>
</g>
<!-- Node63820&#45;&gt;Node64454 -->
<g id="edge34" class="edge">
<title>Node63820&#45;&gt;Node64454</title>
<path fill="none" stroke="#191970" d="M226.5079,-225.9864C241.003,-228.0114 256.6733,-230.2007 270.6162,-232.1486"/>
<polygon fill="#191970" stroke="#191970" points="226.5905,-222.464 216.2024,-224.5467 225.6219,-229.3967 226.5905,-222.464"/>
</g>
<!-- Node63822 -->
<g id="node12" class="node">
<title>Node63822</title>
<g id="a_node12"><a xlink:href="quickjs_8c.html#a077ffa6455c0d7831bd4547542b5f2f7" target="_top" xlink:title="js_new_string_char">
<polygon fill="none" stroke="#ff0000" points="414,-76.5 414,-95.5 515,-95.5 515,-76.5 414,-76.5"/>
<text text-anchor="middle" x="464.5" y="-83.5" font-family="Helvetica,sans-Serif" font-size="10.00" fill="#000000">js_new_string_char</text>
</a>
</g>
</g>
<!-- Node63821&#45;&gt;Node63822 -->
<g id="edge11" class="edge">
<title>Node63821&#45;&gt;Node63822</title>
<path fill="none" stroke="#191970" d="M346.0951,-129.8373C361.8275,-123.7237 380.842,-116.4065 398,-110 410.9934,-105.1485 425.4729,-99.9038 437.5949,-95.5583"/>
<polygon fill="#191970" stroke="#191970" points="344.8174,-126.5787 336.7695,-133.4694 347.358,-133.1015 344.8174,-126.5787"/>
</g>
<!-- Node64283 -->
<g id="node13" class="node">
<title>Node64283</title>
<g id="a_node13"><a xlink:href="quickjs_8c.html#a187940a18f6d1d4a5405405f37b5cf46" target="_top" xlink:title="js_string_charAt">
<polygon fill="none" stroke="#000000" points="580,-95.5 580,-114.5 667,-114.5 667,-95.5 580,-95.5"/>
<text text-anchor="middle" x="623.5" y="-102.5" font-family="Helvetica,sans-Serif" font-size="10.00" fill="#000000">js_string_charAt</text>
</a>
</g>
</g>
<!-- Node63821&#45;&gt;Node64283 -->
<g id="edge16" class="edge">
<title>Node63821&#45;&gt;Node64283</title>
<path fill="none" stroke="#191970" d="M363.8544,-136.7252C424.1212,-129.3614 523.0149,-117.2779 579.7736,-110.3428"/>
<polygon fill="#191970" stroke="#191970" points="363.3001,-133.2668 353.7984,-137.9539 364.1491,-140.2151 363.3001,-133.2668"/>
</g>
<!-- Node63821&#45;&gt;Node64402 -->
<g id="edge14" class="edge">
<title>Node63821&#45;&gt;Node64402</title>
<path fill="none" stroke="#191970" d="M330.9125,-126.4614C348.1704,-111.0008 374.7271,-87.3147 398,-67 417.2453,-50.201 439.8703,-30.9028 453.1509,-19.6204"/>
<polygon fill="#191970" stroke="#191970" points="328.3506,-124.0575 323.2425,-133.3396 333.0241,-129.2689 328.3506,-124.0575"/>
</g>
<!-- Node64403 -->
<g id="node16" class="node">
<title>Node64403</title>
<g id="a_node16"><a xlink:href="quickjs_8c.html#ac34cc554aab1e98c45a7f845fff64385" target="_top" xlink:title="JS_NewStringLen">
<polygon fill="none" stroke="#ff0000" points="576,-256.5 576,-275.5 671,-275.5 671,-256.5 576,-256.5"/>
<text text-anchor="middle" x="623.5" y="-263.5" font-family="Helvetica,sans-Serif" font-size="10.00" fill="#000000">JS_NewStringLen</text>
</a>
</g>
</g>
<!-- Node63821&#45;&gt;Node64403 -->
<g id="edge15" class="edge">
<title>Node63821&#45;&gt;Node64403</title>
<path fill="none" stroke="#191970" d="M363.7098,-143.8191C409.6631,-146.385 477.8546,-154.8226 531,-181 568.7604,-199.5994 602.1599,-238.4662 616.3118,-256.4696"/>
<polygon fill="#191970" stroke="#191970" points="363.839,-140.3214 353.6811,-143.3326 363.4997,-147.3131 363.839,-140.3214"/>
</g>
<!-- Node64323 -->
<g id="node17" class="node">
<title>Node64323</title>
<g id="a_node17"><a xlink:href="quickjs_8c.html#ab0bd3fbfe9b7f004c067b103a6d60d03" target="_top" xlink:title="js_compile_regexp">
<polygon fill="none" stroke="#ff0000" points="415.5,-190.5 415.5,-209.5 513.5,-209.5 513.5,-190.5 415.5,-190.5"/>
<text text-anchor="middle" x="464.5" y="-197.5" font-family="Helvetica,sans-Serif" font-size="10.00" fill="#000000">js_compile_regexp</text>
</a>
</g>
</g>
<!-- Node63821&#45;&gt;Node64323 -->
<g id="edge17" class="edge">
<title>Node63821&#45;&gt;Node64323</title>
<path fill="none" stroke="#191970" d="M346.0951,-156.1627C361.8275,-162.2763 380.842,-169.5935 398,-176 410.9934,-180.8515 425.4729,-186.0962 437.5949,-190.4417"/>
<polygon fill="#191970" stroke="#191970" points="347.358,-152.8985 336.7695,-152.5306 344.8174,-159.4213 347.358,-152.8985"/>
</g>
<!-- Node63822&#45;&gt;Node64283 -->
<g id="edge12" class="edge">
<title>Node63822&#45;&gt;Node64283</title>
<path fill="none" stroke="#191970" d="M525.1978,-93.2532C543.4177,-95.4304 563.0353,-97.7747 579.917,-99.792"/>
<polygon fill="#191970" stroke="#191970" points="525.5904,-89.7753 515.2458,-92.064 524.7598,-96.7258 525.5904,-89.7753"/>
</g>
<!-- Node64401 -->
<g id="node14" class="node">
<title>Node64401</title>
<g id="a_node14"><a xlink:href="quickjs_8c.html#a15988d5ca6500d029bdc559bd310f48d" target="_top" xlink:title="js_string_iterator_next">
<polygon fill="none" stroke="#000000" points="567,-57.5 567,-76.5 680,-76.5 680,-57.5 567,-57.5"/>
<text text-anchor="middle" x="623.5" y="-64.5" font-family="Helvetica,sans-Serif" font-size="10.00" fill="#000000">js_string_iterator_next</text>
</a>
</g>
</g>
<!-- Node63822&#45;&gt;Node64401 -->
<g id="edge13" class="edge">
<title>Node63822&#45;&gt;Node64401</title>
<path fill="none" stroke="#191970" d="M525.4764,-78.7135C539.0878,-77.087 553.4663,-75.3688 566.8924,-73.7644"/>
<polygon fill="#191970" stroke="#191970" points="524.7598,-75.2742 515.2458,-79.936 525.5904,-82.2247 524.7598,-75.2742"/>
</g>
<!-- Node64450&#45;&gt;Node63822 -->
<g id="edge19" class="edge">
<title>Node64450&#45;&gt;Node63822</title>
<path fill="none" stroke="#191970" d="M366.0596,-80.1713C381.6304,-81.0932 398.5817,-82.0969 413.9604,-83.0075"/>
<polygon fill="#191970" stroke="#191970" points="366.2465,-76.6763 356.0571,-79.579 365.8327,-83.6641 366.2465,-76.6763"/>
</g>
<!-- Node64450&#45;&gt;Node64401 -->
<g id="edge21" class="edge">
<title>Node64450&#45;&gt;Node64401</title>
<path fill="none" stroke="#191970" d="M366.5783,-69.7109C376.9871,-68.5812 387.8174,-67.5935 398,-67 455.452,-63.6516 521.2774,-64.1487 566.9165,-65.1789"/>
<polygon fill="#191970" stroke="#191970" points="365.888,-66.2669 356.3496,-70.8785 366.682,-73.2217 365.888,-66.2669"/>
</g>
<!-- Node64450&#45;&gt;Node64402 -->
<g id="edge20" class="edge">
<title>Node64450&#45;&gt;Node64402</title>
<path fill="none" stroke="#191970" d="M339.036,-62.6222C355.7239,-53.84 377.8403,-42.6704 398,-34 410.1774,-28.7627 423.9157,-23.6729 435.7306,-19.5382"/>
<polygon fill="#191970" stroke="#191970" points="337.0819,-59.697 329.8935,-67.4801 340.3666,-65.8785 337.0819,-59.697"/>
</g>
<!-- Node64452 -->
<g id="node20" class="node">
<title>Node64452</title>
<g id="a_node20"><a xlink:href="quickjs_8c.html#a9c11961b0adafedd064b294612d0c2f3" target="_top" xlink:title="string_buffer_init">
<polygon fill="none" stroke="#ff0000" points="420,-360.5 420,-379.5 509,-379.5 509,-360.5 420,-360.5"/>
<text text-anchor="middle" x="464.5" y="-367.5" font-family="Helvetica,sans-Serif" font-size="10.00" fill="#000000">string_buffer_init</text>
</a>
</g>
</g>
<!-- Node64451&#45;&gt;Node64452 -->
<g id="edge24" class="edge">
<title>Node64451&#45;&gt;Node64452</title>
<path fill="none" stroke="#191970" d="M340.9552,-413.1516C357.3942,-405.4566 378.5993,-396.0436 398,-389 407.4805,-385.558 417.8992,-382.3292 427.6197,-379.5442"/>
<polygon fill="#191970" stroke="#191970" points="339.4151,-410.0083 331.8766,-417.453 342.4122,-416.3342 339.4151,-410.0083"/>
</g>
<!-- Node64347 -->
<g id="node21" class="node">
<title>Node64347</title>
<g id="a_node21"><a xlink:href="quickjs_8c.html#a964b0ba49f8823d8d8f21c6645a81542" target="_top" xlink:title="JS_ConcatString3">
<polygon fill="none" stroke="#ff0000" points="416.5,-512.5 416.5,-531.5 512.5,-531.5 512.5,-512.5 416.5,-512.5"/>
<text text-anchor="middle" x="464.5" y="-519.5" font-family="Helvetica,sans-Serif" font-size="10.00" fill="#000000">JS_ConcatString3</text>
</a>
</g>
</g>
<!-- Node64451&#45;&gt;Node64347 -->
<g id="edge26" class="edge">
<title>Node64451&#45;&gt;Node64347</title>
<path fill="none" stroke="#191970" d="M327.5949,-444.364C343.4827,-461.6075 370.0289,-487.6295 398,-503 404.9452,-506.8165 412.7293,-509.928 420.4582,-512.4443"/>
<polygon fill="#191970" stroke="#191970" points="329.9817,-441.7838 320.6921,-436.6892 324.7771,-446.4649 329.9817,-441.7838"/>
</g>
<!-- Node64249 -->
<g id="node22" class="node">
<title>Node64249</title>
<g id="a_node22"><a xlink:href="quickjs_8c.html#a14b12816060fe321a1d8b562e48135b2" target="_top" xlink:title="js_string_codePointRange">
<polygon fill="none" stroke="#000000" points="399,-474.5 399,-493.5 530,-493.5 530,-474.5 399,-474.5"/>
<text text-anchor="middle" x="464.5" y="-481.5" font-family="Helvetica,sans-Serif" font-size="10.00" fill="#000000">js_string_codePointRange</text>
</a>
</g>
</g>
<!-- Node64451&#45;&gt;Node64249 -->
<g id="edge27" class="edge">
<title>Node64451&#45;&gt;Node64249</title>
<path fill="none" stroke="#191970" d="M340.9552,-440.8484C357.3942,-448.5434 378.5993,-457.9564 398,-465 407.4805,-468.442 417.8992,-471.6708 427.6197,-474.4558"/>
<polygon fill="#191970" stroke="#191970" points="342.4122,-437.6658 331.8766,-436.547 339.4151,-443.9917 342.4122,-437.6658"/>
</g>
<!-- Node64310 -->
<g id="node23" class="node">
<title>Node64310</title>
<g id="a_node23"><a xlink:href="quickjs_8c.html#a0f6f437eaf0cabf7d3e31f8306ed7e02" target="_top" xlink:title="js_string_repeat">
<polygon fill="none" stroke="#000000" points="421.5,-436.5 421.5,-455.5 507.5,-455.5 507.5,-436.5 421.5,-436.5"/>
<text text-anchor="middle" x="464.5" y="-443.5" font-family="Helvetica,sans-Serif" font-size="10.00" fill="#000000">js_string_repeat</text>
</a>
</g>
</g>
<!-- Node64451&#45;&gt;Node64310 -->
<g id="edge28" class="edge">
<title>Node64451&#45;&gt;Node64310</title>
<path fill="none" stroke="#191970" d="M370.1507,-434.2063C387.1616,-436.3327 405.477,-438.6221 421.4034,-440.6129"/>
<polygon fill="#191970" stroke="#191970" points="370.1175,-430.675 359.7605,-432.9076 369.2492,-437.621 370.1175,-430.675"/>
</g>
<!-- Node64443 -->
<g id="node24" class="node">
<title>Node64443</title>
<g id="a_node24"><a xlink:href="quickjs_8c.html#a32ee6be61757664e4eea552e5508ad6e" target="_top" xlink:title="js_regexp_get_source">
<polygon fill="none" stroke="#000000" points="408.5,-398.5 408.5,-417.5 520.5,-417.5 520.5,-398.5 408.5,-398.5"/>
<text text-anchor="middle" x="464.5" y="-405.5" font-family="Helvetica,sans-Serif" font-size="10.00" fill="#000000">js_regexp_get_source</text>
</a>
</g>
</g>
<!-- Node64451&#45;&gt;Node64443 -->
<g id="edge29" class="edge">
<title>Node64451&#45;&gt;Node64443</title>
<path fill="none" stroke="#191970" d="M369.7398,-419.845C382.4182,-418.2602 395.8396,-416.5825 408.4692,-415.0039"/>
<polygon fill="#191970" stroke="#191970" points="369.2492,-416.379 359.7605,-421.0924 370.1175,-423.325 369.2492,-416.379"/>
</g>
<!-- Node64452&#45;&gt;Node64403 -->
<g id="edge25" class="edge">
<title>Node64452&#45;&gt;Node64403</title>
<path fill="none" stroke="#191970" d="M518.5256,-356.9248C522.8502,-355.173 527.0638,-353.2056 531,-351 567.3404,-330.6376 600.9448,-293.344 615.6667,-275.7185"/>
<polygon fill="#191970" stroke="#191970" points="517.1378,-353.7054 508.9454,-360.4237 519.5393,-360.2806 517.1378,-353.7054"/>
</g>
<!-- Node64181&#45;&gt;Node64323 -->
<g id="edge31" class="edge">
<title>Node64181&#45;&gt;Node64323</title>
<path fill="none" stroke="#191970" d="M372.4641,-200C386.6958,-200 401.7135,-200 415.3959,-200"/>
<polygon fill="#191970" stroke="#191970" points="372.2705,-196.5001 362.2705,-200 372.2705,-203.5001 372.2705,-196.5001"/>
</g>
<!-- Node64351 -->
<g id="node27" class="node">
<title>Node64351</title>
<g id="a_node27"><a xlink:href="quickjs_8c.html#ab6d8a1a52baf4d686aed594b996699d7" target="_top" xlink:title="JS_ConcatString">
<polygon fill="none" stroke="#ff0000" points="419,-322.5 419,-341.5 510,-341.5 510,-322.5 419,-322.5"/>
<text text-anchor="middle" x="464.5" y="-329.5" font-family="Helvetica,sans-Serif" font-size="10.00" fill="#000000">JS_ConcatString</text>
</a>
</g>
</g>
<!-- Node64453&#45;&gt;Node64351 -->
<g id="edge33" class="edge">
<title>Node64453&#45;&gt;Node64351</title>
<path fill="none" stroke="#191970" d="M370.8469,-314.7481C386.736,-317.6751 403.7149,-320.8027 418.792,-323.5801"/>
<polygon fill="#191970" stroke="#191970" points="371.0624,-311.229 360.5938,-312.8594 369.7942,-318.1132 371.0624,-311.229"/>
</g>
<!-- Node64030 -->
<g id="node29" class="node">
<title>Node64030</title>
<g id="a_node29"><a xlink:href="quickjs_8c.html#a4b8ef2bb3b35e4a5f6ed8bd837a50e7c" target="_top" xlink:title="JS_ReadObjectRec">
<polygon fill="none" stroke="#ff0000" points="412.5,-266.5 412.5,-285.5 516.5,-285.5 516.5,-266.5 412.5,-266.5"/>
<text text-anchor="middle" x="464.5" y="-273.5" font-family="Helvetica,sans-Serif" font-size="10.00" fill="#000000">JS_ReadObjectRec</text>
</a>
</g>
</g>
<!-- Node64454&#45;&gt;Node64030 -->
<g id="edge35" class="edge">
<title>Node64454&#45;&gt;Node64030</title>
<path fill="none" stroke="#191970" d="M360.66,-250.04C381.8951,-255.3488 406.495,-261.4988 426.4198,-266.4799"/>
<polygon fill="#191970" stroke="#191970" points="361.4063,-246.6189 350.856,-247.589 359.7085,-253.4099 361.4063,-246.6189"/>
</g>
<!-- Node64455 -->
<g id="node30" class="node">
<title>Node64455</title>
<g id="a_node30"><a xlink:href="quickjs_8c.html#ad54b242d774ba44b2ac39fe8161aaf9c" target="_top" xlink:title="JS_ReadObjectAtoms">
<polygon fill="none" stroke="#ff0000" points="407.5,-228.5 407.5,-247.5 521.5,-247.5 521.5,-228.5 407.5,-228.5"/>
<text text-anchor="middle" x="464.5" y="-235.5" font-family="Helvetica,sans-Serif" font-size="10.00" fill="#000000">JS_ReadObjectAtoms</text>
</a>
</g>
</g>
<!-- Node64454&#45;&gt;Node64455 -->
<g id="edge37" class="edge">
<title>Node64454&#45;&gt;Node64455</title>
<path fill="none" stroke="#191970" d="M364.3537,-238C378.1979,-238 393.2349,-238 407.3466,-238"/>
<polygon fill="#191970" stroke="#191970" points="364.0347,-234.5001 354.0347,-238 364.0346,-241.5001 364.0347,-234.5001"/>
</g>
<!-- Node64030&#45;&gt;Node64030 -->
<g id="edge36" class="edge">
<title>Node64030&#45;&gt;Node64030</title>
<path fill="none" stroke="#191970" d="M436.1275,-294.6539C437.3135,-299.9368 446.771,-304 464.5,-304 491.5156,-304 499.3248,-294.5653 487.9276,-285.7571"/>
<polygon fill="#191970" stroke="#191970" points="439.2735,-296.1981 441.0724,-285.7571 433.1551,-292.7974 439.2735,-296.1981"/>
</g>
</g>
</svg>
