<?xml version="1.0" encoding="UTF-8" standalone="no"?>
<!DOCTYPE svg PUBLIC "-//W3C//DTD SVG 1.1//EN"
 "http://www.w3.org/Graphics/SVG/1.1/DTD/svg11.dtd">
<!-- Generated by graphviz version 2.40.1 (20161225.0304)
 -->
<!-- Title: dbuf_put_leb128 Pages: 1 -->
<!--zoomable 200 -->
<svg id="main" version="1.1" xmlns="http://www.w3.org/2000/svg" xmlns:xlink="http://www.w3.org/1999/xlink" xml:space="preserve" onload="init(evt)">
<style type="text/css"><![CDATA[
.edge:hover path { stroke: red; }
.edge:hover polygon { stroke: red; fill: red; }
]]></style>
<script type="text/javascript"><![CDATA[
var edges = document.getElementsByTagName('g');
if (edges && edges.length) {
  for (var i=0;i<edges.length;i++) {
    if (edges[i].id.substr(0,4)=='edge') {
      edges[i].setAttribute('class','edge');
    }
  }
}
]]></script>
        <defs>
                <circle id="rim" cx="0" cy="0" r="7"/>
                <circle id="rim2" cx="0" cy="0" r="3.5"/>
                <g id="zoomPlus">
                        <use xlink:href="#rim" fill="#404040">
                                <set attributeName="fill" to="#808080" begin="zoomplus.mouseover" end="zoomplus.mouseout"/>
                        </use>
                        <path d="M-4,0h8M0,-4v8" fill="none" stroke="white" stroke-width="1.5" pointer-events="none"/>
                </g>
                <g id="zoomMin">
                        <use xlink:href="#rim" fill="#404040">
                                <set attributeName="fill" to="#808080" begin="zoomminus.mouseover" end="zoomminus.mouseout"/>
                        </use>
                        <path d="M-4,0h8" fill="none" stroke="white" stroke-width="1.5" pointer-events="none"/>
                </g>
                <g id="dirArrow">
                        <path fill="none" stroke="white" stroke-width="1.5" d="M0,-3.0v7 M-2.5,-0.5L0,-3.0L2.5,-0.5"/>
                </g>
               <g id="resetDef">
                       <use xlink:href="#rim2" fill="#404040">
                               <set attributeName="fill" to="#808080" begin="reset.mouseover" end="reset.mouseout"/>
                       </use>
               </g>
        </defs>

<script type="text/javascript">
var viewWidth = 654;
var viewHeight = 200;
var sectionId = 'dynsection-475';
</script>
<script xlink:href="svgpan.js"/>
<svg id="graph" class="graph">
<g id="viewport">
<title>dbuf_put_leb128</title>
<!-- Node153377 -->
<g id="node1" class="node">
<title>Node153377</title>
<polygon fill="#bfbfbf" stroke="#000000" points="0,-38.5 0,-57.5 88,-57.5 88,-38.5 0,-38.5"/>
<text text-anchor="middle" x="44" y="-45.5" font-family="Helvetica,sans-Serif" font-size="10.00" fill="#000000">dbuf_put_leb128</text>
</g>
<!-- Node153378 -->
<g id="node2" class="node">
<title>Node153378</title>
<g id="a_node2"><a xlink:href="quickjs_8c.html#a5c417bcd8453a3ab8f4ced37e8f86bf2" target="_top" xlink:title="bc_put_leb128">
<polygon fill="none" stroke="#000000" points="130.5,-114.5 130.5,-133.5 210.5,-133.5 210.5,-114.5 130.5,-114.5"/>
<text text-anchor="middle" x="170.5" y="-121.5" font-family="Helvetica,sans-Serif" font-size="10.00" fill="#000000">bc_put_leb128</text>
</a>
</g>
</g>
<!-- Node153377&#45;&gt;Node153378 -->
<g id="edge1" class="edge">
<title>Node153377&#45;&gt;Node153378</title>
<path fill="none" stroke="#191970" d="M68.7263,-62.8553C94.1564,-78.1335 133.0063,-101.4742 154.6088,-114.4527"/>
<polygon fill="#191970" stroke="#191970" points="70.3958,-59.7753 60.0213,-57.6255 66.7908,-65.7756 70.3958,-59.7753"/>
</g>
<!-- Node153384 -->
<g id="node7" class="node">
<title>Node153384</title>
<g id="a_node7"><a xlink:href="quickjs_8c.html#ac8f4450aa771cc138f5fd25086f1c106" target="_top" xlink:title="compute_pc2line_info">
<polygon fill="none" stroke="#000000" points="253,-.5 253,-19.5 364,-19.5 364,-.5 253,-.5"/>
<text text-anchor="middle" x="308.5" y="-7.5" font-family="Helvetica,sans-Serif" font-size="10.00" fill="#000000">compute_pc2line_info</text>
</a>
</g>
</g>
<!-- Node153377&#45;&gt;Node153384 -->
<g id="edge10" class="edge">
<title>Node153377&#45;&gt;Node153384</title>
<path fill="none" stroke="#191970" d="M89.6375,-36.0758C100.8184,-33.4555 112.7932,-30.8995 124,-29 167.0183,-21.7086 216.1864,-16.8129 252.9422,-13.8195"/>
<polygon fill="#191970" stroke="#191970" points="88.5403,-32.7399 79.6373,-38.4834 90.1788,-39.5454 88.5403,-32.7399"/>
</g>
<!-- Node153390 -->
<g id="node10" class="node">
<title>Node153390</title>
<g id="a_node10"><a xlink:href="quickjs_8c.html#a6adbc9d495ea79b1764fc21ed895e636" target="_top" xlink:title="dbuf_put_sleb128">
<polygon fill="none" stroke="#000000" points="124,-38.5 124,-57.5 217,-57.5 217,-38.5 124,-38.5"/>
<text text-anchor="middle" x="170.5" y="-45.5" font-family="Helvetica,sans-Serif" font-size="10.00" fill="#000000">dbuf_put_sleb128</text>
</a>
</g>
</g>
<!-- Node153377&#45;&gt;Node153390 -->
<g id="edge14" class="edge">
<title>Node153377&#45;&gt;Node153390</title>
<path fill="none" stroke="#191970" d="M98.444,-48C106.9287,-48 115.6291,-48 123.9182,-48"/>
<polygon fill="#191970" stroke="#191970" points="98.2436,-44.5001 88.2436,-48 98.2435,-51.5001 98.2436,-44.5001"/>
</g>
<!-- Node153379 -->
<g id="node3" class="node">
<title>Node153379</title>
<g id="a_node3"><a xlink:href="quickjs_8c.html#a55f34a1bb7e361c23cb8139c100a615f" target="_top" xlink:title="bc_put_atom">
<polygon fill="none" stroke="#000000" points="272,-114.5 272,-133.5 345,-133.5 345,-114.5 272,-114.5"/>
<text text-anchor="middle" x="308.5" y="-121.5" font-family="Helvetica,sans-Serif" font-size="10.00" fill="#000000">bc_put_atom</text>
</a>
</g>
</g>
<!-- Node153378&#45;&gt;Node153379 -->
<g id="edge2" class="edge">
<title>Node153378&#45;&gt;Node153379</title>
<path fill="none" stroke="#191970" d="M220.9958,-124C237.7835,-124 256.1491,-124 271.7012,-124"/>
<polygon fill="#191970" stroke="#191970" points="220.7863,-120.5001 210.7863,-124 220.7863,-127.5001 220.7863,-120.5001"/>
</g>
<!-- Node153380 -->
<g id="node4" class="node">
<title>Node153380</title>
<g id="a_node4"><a xlink:href="quickjs_8c.html#aa9342f7444c1c9f8743d43aa4d7f89e3" target="_top" xlink:title="JS_WriteObjectRec">
<polygon fill="none" stroke="#ff0000" points="405,-100.5 405,-119.5 509,-119.5 509,-100.5 405,-100.5"/>
<text text-anchor="middle" x="457" y="-107.5" font-family="Helvetica,sans-Serif" font-size="10.00" fill="#000000">JS_WriteObjectRec</text>
</a>
</g>
</g>
<!-- Node153378&#45;&gt;Node153380 -->
<g id="edge8" class="edge">
<title>Node153378&#45;&gt;Node153380</title>
<path fill="none" stroke="#191970" d="M213.6925,-112.1164C226.2667,-109.1854 240.0939,-106.467 253,-105 304.3929,-99.1585 363.5181,-101.6062 404.84,-104.7883"/>
<polygon fill="#191970" stroke="#191970" points="212.8085,-108.7293 203.9184,-114.4927 214.4622,-115.5311 212.8085,-108.7293"/>
</g>
<!-- Node153382 -->
<g id="node5" class="node">
<title>Node153382</title>
<g id="a_node5"><a xlink:href="quickjs_8c.html#a0c946fdd3a6def82765db148f99b8fba" target="_top" xlink:title="JS_WriteString">
<polygon fill="none" stroke="#000000" points="267,-152.5 267,-171.5 350,-171.5 350,-152.5 267,-152.5"/>
<text text-anchor="middle" x="308.5" y="-159.5" font-family="Helvetica,sans-Serif" font-size="10.00" fill="#000000">JS_WriteString</text>
</a>
</g>
</g>
<!-- Node153378&#45;&gt;Node153382 -->
<g id="edge5" class="edge">
<title>Node153378&#45;&gt;Node153382</title>
<path fill="none" stroke="#191970" d="M214.973,-136.2462C233.9946,-141.484 255.8751,-147.5091 273.6879,-152.4141"/>
<polygon fill="#191970" stroke="#191970" points="215.8936,-132.8695 205.3232,-133.589 214.0352,-139.6183 215.8936,-132.8695"/>
</g>
<!-- Node153383 -->
<g id="node6" class="node">
<title>Node153383</title>
<g id="a_node6"><a xlink:href="quickjs_8c.html#a91942742587df191fbf0f17a2ede99ef" target="_top" xlink:title="JS_WriteObjectAtoms">
<polygon fill="none" stroke="#ff0000" points="400,-166.5 400,-185.5 514,-185.5 514,-166.5 400,-166.5"/>
<text text-anchor="middle" x="457" y="-173.5" font-family="Helvetica,sans-Serif" font-size="10.00" fill="#000000">JS_WriteObjectAtoms</text>
</a>
</g>
</g>
<!-- Node153378&#45;&gt;Node153383 -->
<g id="edge9" class="edge">
<title>Node153378&#45;&gt;Node153383</title>
<path fill="none" stroke="#191970" d="M187.8154,-140.7119C203.4304,-154.535 227.759,-173.1284 253,-181 304.915,-197.1901 367.9169,-192.167 410.0451,-185.5492"/>
<polygon fill="#191970" stroke="#191970" points="189.8214,-137.8025 180.0864,-133.6215 185.0894,-142.9608 189.8214,-137.8025"/>
</g>
<!-- Node153379&#45;&gt;Node153380 -->
<g id="edge3" class="edge">
<title>Node153379&#45;&gt;Node153380</title>
<path fill="none" stroke="#191970" d="M355.2331,-119.5942C370.9644,-118.1111 388.6152,-116.4471 404.744,-114.9265"/>
<polygon fill="#191970" stroke="#191970" points="354.8352,-116.1161 345.2079,-120.5393 355.4923,-123.0852 354.8352,-116.1161"/>
</g>
<!-- Node153380&#45;&gt;Node153380 -->
<g id="edge4" class="edge">
<title>Node153380&#45;&gt;Node153380</title>
<path fill="none" stroke="#191970" d="M430.9584,-129.0292C432.3789,-134.128 441.0594,-138 457,-138 481.8828,-138 489.0755,-128.5653 478.5781,-119.7571"/>
<polygon fill="#191970" stroke="#191970" points="434.238,-130.2855 435.4219,-119.7571 427.9308,-127.2493 434.238,-130.2855"/>
</g>
<!-- Node153382&#45;&gt;Node153380 -->
<g id="edge6" class="edge">
<title>Node153382&#45;&gt;Node153380</title>
<path fill="none" stroke="#191970" d="M346.2621,-149.1355C352.2017,-147.0939 358.2704,-144.9972 364,-143 386.325,-135.218 411.6055,-126.2366 430.1678,-119.6102"/>
<polygon fill="#191970" stroke="#191970" points="344.795,-145.9384 336.4705,-152.4923 347.0652,-152.5601 344.795,-145.9384"/>
</g>
<!-- Node153382&#45;&gt;Node153383 -->
<g id="edge7" class="edge">
<title>Node153382&#45;&gt;Node153383</title>
<path fill="none" stroke="#191970" d="M360.2535,-166.8791C373.0163,-168.0823 386.7584,-169.3779 399.7644,-170.6041"/>
<polygon fill="#191970" stroke="#191970" points="360.5451,-163.3912 350.2607,-165.937 359.888,-170.3603 360.5451,-163.3912"/>
</g>
<!-- Node153385 -->
<g id="node8" class="node">
<title>Node153385</title>
<g id="a_node8"><a xlink:href="quickjs_8c.html#ad0d311d4ce409584384f835f1a3e185a" target="_top" xlink:title="resolve_labels">
<polygon fill="none" stroke="#000000" points="417.5,-.5 417.5,-19.5 496.5,-19.5 496.5,-.5 417.5,-.5"/>
<text text-anchor="middle" x="457" y="-7.5" font-family="Helvetica,sans-Serif" font-size="10.00" fill="#000000">resolve_labels</text>
</a>
</g>
</g>
<!-- Node153384&#45;&gt;Node153385 -->
<g id="edge11" class="edge">
<title>Node153384&#45;&gt;Node153385</title>
<path fill="none" stroke="#191970" d="M374.2535,-10C388.8928,-10 403.9785,-10 417.194,-10"/>
<polygon fill="#191970" stroke="#191970" points="374.2185,-6.5001 364.2184,-10 374.2184,-13.5001 374.2185,-6.5001"/>
</g>
<!-- Node153386 -->
<g id="node9" class="node">
<title>Node153386</title>
<g id="a_node9"><a xlink:href="quickjs_8c.html#a97fcc747d8b1c3644174745d2e2739be" target="_top" xlink:title="js_create_function">
<polygon fill="none" stroke="#ff0000" points="550,-.5 550,-19.5 646,-19.5 646,-.5 550,-.5"/>
<text text-anchor="middle" x="598" y="-7.5" font-family="Helvetica,sans-Serif" font-size="10.00" fill="#000000">js_create_function</text>
</a>
</g>
</g>
<!-- Node153385&#45;&gt;Node153386 -->
<g id="edge12" class="edge">
<title>Node153385&#45;&gt;Node153386</title>
<path fill="none" stroke="#191970" d="M507.0362,-10C520.9666,-10 536.0641,-10 549.8817,-10"/>
<polygon fill="#191970" stroke="#191970" points="506.6516,-6.5001 496.6516,-10 506.6516,-13.5001 506.6516,-6.5001"/>
</g>
<!-- Node153386&#45;&gt;Node153386 -->
<g id="edge13" class="edge">
<title>Node153386&#45;&gt;Node153386</title>
<path fill="none" stroke="#191970" d="M571.9584,-29.0292C573.3789,-34.128 582.0594,-38 598,-38 622.8828,-38 630.0755,-28.5653 619.5781,-19.7571"/>
<polygon fill="#191970" stroke="#191970" points="575.238,-30.2855 576.4219,-19.7571 568.9308,-27.2493 575.238,-30.2855"/>
</g>
<!-- Node153390&#45;&gt;Node153384 -->
<g id="edge15" class="edge">
<title>Node153390&#45;&gt;Node153384</title>
<path fill="none" stroke="#191970" d="M214.973,-35.7538C233.9946,-30.516 255.8751,-24.4909 273.6879,-19.5859"/>
<polygon fill="#191970" stroke="#191970" points="214.0352,-32.3817 205.3232,-38.411 215.8936,-39.1305 214.0352,-32.3817"/>
</g>
<!-- Node153391 -->
<g id="node11" class="node">
<title>Node153391</title>
<g id="a_node11"><a xlink:href="quickjs_8c.html#a27f947bd87f87a0672cb81a01add8a02" target="_top" xlink:title="bc_put_sleb128">
<polygon fill="none" stroke="#000000" points="266,-38.5 266,-57.5 351,-57.5 351,-38.5 266,-38.5"/>
<text text-anchor="middle" x="308.5" y="-45.5" font-family="Helvetica,sans-Serif" font-size="10.00" fill="#000000">bc_put_sleb128</text>
</a>
</g>
</g>
<!-- Node153390&#45;&gt;Node153391 -->
<g id="edge16" class="edge">
<title>Node153390&#45;&gt;Node153391</title>
<path fill="none" stroke="#191970" d="M227.3102,-48C240.0887,-48 253.4434,-48 265.5452,-48"/>
<polygon fill="#191970" stroke="#191970" points="227.2205,-44.5001 217.2205,-48 227.2205,-51.5001 227.2205,-44.5001"/>
</g>
<!-- Node153391&#45;&gt;Node153380 -->
<g id="edge17" class="edge">
<title>Node153391&#45;&gt;Node153380</title>
<path fill="none" stroke="#191970" d="M340.7674,-61.4719C368.845,-73.1946 408.8528,-89.8981 433.8517,-100.3354"/>
<polygon fill="#191970" stroke="#191970" points="341.9542,-58.1747 331.3777,-57.5516 339.2572,-64.6343 341.9542,-58.1747"/>
</g>
</g>
</svg>
        <g id="navigator" transform="translate(0 0)" fill="#404254">
                <rect fill="#f2f5e9" fill-opacity="0.5" stroke="#606060" stroke-width=".5" x="0" y="0" width="60" height="60"/>
                <use id="zoomplus" xlink:href="#zoomPlus" x="17" y="9" onmousedown="handleZoom(evt,'in')"/>
                <use id="zoomminus" xlink:href="#zoomMin" x="42" y="9" onmousedown="handleZoom(evt,'out')"/>
                <use id="reset" xlink:href="#resetDef" x="30" y="36" onmousedown="handleReset()"/>
                <g id="arrowUp" xlink:href="#dirArrow" transform="translate(30 24)" onmousedown="handlePan(0,-1)">
                  <use xlink:href="#rim" fill="#404040">
                        <set attributeName="fill" to="#808080" begin="arrowUp.mouseover" end="arrowUp.mouseout"/>
                  </use>
                  <path fill="none" stroke="white" stroke-width="1.5" d="M0,-3.0v7 M-2.5,-0.5L0,-3.0L2.5,-0.5"/>
                </g>
                <g id="arrowRight" xlink:href="#dirArrow" transform="rotate(90) translate(36 -43)" onmousedown="handlePan(1,0)">
                  <use xlink:href="#rim" fill="#404040">
                        <set attributeName="fill" to="#808080" begin="arrowRight.mouseover" end="arrowRight.mouseout"/>
                  </use>
                  <path fill="none" stroke="white" stroke-width="1.5" d="M0,-3.0v7 M-2.5,-0.5L0,-3.0L2.5,-0.5"/>
                </g>
                <g id="arrowDown" xlink:href="#dirArrow" transform="rotate(180) translate(-30 -48)" onmousedown="handlePan(0,1)">
                  <use xlink:href="#rim" fill="#404040">
                        <set attributeName="fill" to="#808080" begin="arrowDown.mouseover" end="arrowDown.mouseout"/>
                  </use>
                  <path fill="none" stroke="white" stroke-width="1.5" d="M0,-3.0v7 M-2.5,-0.5L0,-3.0L2.5,-0.5"/>
                </g>
                <g id="arrowLeft" xlink:href="#dirArrow" transform="rotate(270) translate(-36 17)" onmousedown="handlePan(-1,0)">
                  <use xlink:href="#rim" fill="#404040">
                        <set attributeName="fill" to="#808080" begin="arrowLeft.mouseover" end="arrowLeft.mouseout"/>
                  </use>
                  <path fill="none" stroke="white" stroke-width="1.5" d="M0,-3.0v7 M-2.5,-0.5L0,-3.0L2.5,-0.5"/>
                </g>
        </g>
        <svg viewBox="0 0 15 15" width="100%" height="30px" preserveAspectRatio="xMaxYMin meet">
         <g id="arrow_out" transform="scale(0.3 0.3)">
          <a xlink:href="quickjs_8c_af9b9e3f8ca5a82349d1925fca4683c38_icgraph_org.svg" target="_base">
           <rect id="button" ry="5" rx="5" y="6" x="6" height="38" width="38"
                fill="#f2f5e9" fill-opacity="0.5" stroke="#606060" stroke-width="1.0"/>
           <path id="arrow"
             d="M 11.500037,31.436501 C 11.940474,20.09759 22.043105,11.32322 32.158766,21.979434 L 37.068811,17.246167 C 37.068811,17.246167 37.088388,32 37.088388,32 L 22.160133,31.978069 C 22.160133,31.978069 26.997745,27.140456 26.997745,27.140456 C 18.528582,18.264221 13.291696,25.230495 11.500037,31.436501 z"
             style="fill:#404040;"/>
          </a>
         </g>
        </svg>
</svg>
