<?xml version="1.0" encoding="UTF-8" standalone="no"?>
<!DOCTYPE svg PUBLIC "-//W3C//DTD SVG 1.1//EN"
 "http://www.w3.org/Graphics/SVG/1.1/DTD/svg11.dtd">
<!-- Generated by graphviz version 2.40.1 (20161225.0304)
 -->
<!-- Title: JS_SetPropertyStr Pages: 1 -->
<svg width="950pt" height="1170pt"
 viewBox="0.00 0.00 950.00 1170.25" xmlns="http://www.w3.org/2000/svg" xmlns:xlink="http://www.w3.org/1999/xlink">
<g id="graph0" class="graph" transform="scale(1 1) rotate(0) translate(4 1166.2544)">
<title>JS_SetPropertyStr</title>
<!-- Node60441 -->
<g id="node1" class="node">
<title>Node60441</title>
<polygon fill="#bfbfbf" stroke="#000000" points="0,-548.7156 0,-567.7156 98,-567.7156 98,-548.7156 0,-548.7156"/>
<text text-anchor="middle" x="49" y="-555.7156" font-family="Helvetica,sans-Serif" font-size="10.00" fill="#000000">JS_SetPropertyStr</text>
</g>
<!-- Node60442 -->
<g id="node2" class="node">
<title>Node60442</title>
<g id="a_node2"><a xlink:href="quickjs_8c.html#ab7fc45a99935a1c0ba50b0216d9401a9" target="_top" xlink:title="JS_FreeAtom">
<polygon fill="none" stroke="#000000" points="647.5,-67.7156 647.5,-86.7156 724.5,-86.7156 724.5,-67.7156 647.5,-67.7156"/>
<text text-anchor="middle" x="686" y="-74.7156" font-family="Helvetica,sans-Serif" font-size="10.00" fill="#000000">JS_FreeAtom</text>
</a>
</g>
</g>
<!-- Node60441&#45;&gt;Node60442 -->
<g id="edge1" class="edge">
<title>Node60441&#45;&gt;Node60442</title>
<path fill="none" stroke="#191970" d="M49.6154,-548.6704C54.1407,-487.3747 87.9699,-147.5275 288,-17.2156 341.2522,17.4761 367.8682,-9.8884 431,-17.2156 451.3574,-19.5783 569.4623,-48.3585 637.5766,-65.1843"/>
<polygon fill="#191970" stroke="#191970" points="637.1035,-68.6726 647.6513,-67.6758 638.7841,-61.8774 637.1035,-68.6726"/>
</g>
<!-- Node60448 -->
<g id="node5" class="node">
<title>Node60448</title>
<g id="a_node5"><a xlink:href="quickjs_8c.html#aa2ef5af1544a3012f91a80c98c326b8f" target="_top" xlink:title="JS_NewAtom">
<polygon fill="none" stroke="#000000" points="154.5,-877.7156 154.5,-896.7156 231.5,-896.7156 231.5,-877.7156 154.5,-877.7156"/>
<text text-anchor="middle" x="193" y="-884.7156" font-family="Helvetica,sans-Serif" font-size="10.00" fill="#000000">JS_NewAtom</text>
</a>
</g>
</g>
<!-- Node60441&#45;&gt;Node60448 -->
<g id="edge4" class="edge">
<title>Node60441&#45;&gt;Node60448</title>
<path fill="none" stroke="#191970" d="M53.3096,-568.0619C73.3492,-613.8467 157.5852,-806.3026 184.6141,-868.0561"/>
<polygon fill="#191970" stroke="#191970" points="181.4911,-869.6502 188.7072,-877.4077 187.9038,-866.8434 181.4911,-869.6502"/>
</g>
<!-- Node60495 -->
<g id="node8" class="node">
<title>Node60495</title>
<g id="a_node8"><a xlink:href="quickjs_8c.html#ad7f03358a8088ca920ab308225c6b2e6" target="_top" xlink:title="JS_SetPropertyInternal">
<polygon fill="none" stroke="#ff0000" points="134,-548.7156 134,-567.7156 252,-567.7156 252,-548.7156 134,-548.7156"/>
<text text-anchor="middle" x="193" y="-555.7156" font-family="Helvetica,sans-Serif" font-size="10.00" fill="#000000">JS_SetPropertyInternal</text>
</a>
</g>
</g>
<!-- Node60441&#45;&gt;Node60495 -->
<g id="edge7" class="edge">
<title>Node60441&#45;&gt;Node60495</title>
<path fill="none" stroke="#191970" d="M98.1539,-558.2156C106.411,-558.2156 115.1153,-558.2156 123.7662,-558.2156"/>
<polygon fill="#191970" stroke="#191970" points="123.8673,-561.7157 133.8672,-558.2156 123.8672,-554.7157 123.8673,-561.7157"/>
</g>
<!-- Node60443 -->
<g id="node3" class="node">
<title>Node60443</title>
<g id="a_node3"><a xlink:href="quickjs_8c.html#a7f6796ee7a195631366f57c713a33f65" target="_top" xlink:title="__JS_AtomIsConst">
<polygon fill="none" stroke="#000000" points="817.5,-86.7156 817.5,-105.7156 919.5,-105.7156 919.5,-86.7156 817.5,-86.7156"/>
<text text-anchor="middle" x="868.5" y="-93.7156" font-family="Helvetica,sans-Serif" font-size="10.00" fill="#000000">__JS_AtomIsConst</text>
</a>
</g>
</g>
<!-- Node60442&#45;&gt;Node60443 -->
<g id="edge2" class="edge">
<title>Node60442&#45;&gt;Node60443</title>
<path fill="none" stroke="#191970" d="M724.7036,-81.245C748.6404,-83.7371 779.8953,-86.991 807.1494,-89.8284"/>
<polygon fill="#191970" stroke="#191970" points="807.0667,-93.3387 817.3754,-90.8931 807.7916,-86.3763 807.0667,-93.3387"/>
</g>
<!-- Node60444 -->
<g id="node4" class="node">
<title>Node60444</title>
<g id="a_node4"><a xlink:href="quickjs_8c.html#a0bbd9e3ecd55e3ea6c9d44bfda382095" target="_top" xlink:title="__JS_FreeAtom">
<polygon fill="none" stroke="#ff0000" points="825,-48.7156 825,-67.7156 912,-67.7156 912,-48.7156 825,-48.7156"/>
<text text-anchor="middle" x="868.5" y="-55.7156" font-family="Helvetica,sans-Serif" font-size="10.00" fill="#000000">__JS_FreeAtom</text>
</a>
</g>
</g>
<!-- Node60442&#45;&gt;Node60444 -->
<g id="edge3" class="edge">
<title>Node60442&#45;&gt;Node60444</title>
<path fill="none" stroke="#191970" d="M724.7036,-73.1862C750.796,-70.4697 785.5838,-66.848 814.4067,-63.8473"/>
<polygon fill="#191970" stroke="#191970" points="815.1449,-67.2894 824.7287,-62.7726 814.42,-60.327 815.1449,-67.2894"/>
</g>
<!-- Node60449 -->
<g id="node6" class="node">
<title>Node60449</title>
<g id="a_node6"><a xlink:href="quickjs_8c.html#a522741f41afb1d0da0aa55968cd8579e" target="_top" xlink:title="JS_NewAtomLen">
<polygon fill="none" stroke="#ff0000" points="475.5,-1140.7156 475.5,-1159.7156 568.5,-1159.7156 568.5,-1140.7156 475.5,-1140.7156"/>
<text text-anchor="middle" x="522" y="-1147.7156" font-family="Helvetica,sans-Serif" font-size="10.00" fill="#000000">JS_NewAtomLen</text>
</a>
</g>
</g>
<!-- Node60448&#45;&gt;Node60449 -->
<g id="edge5" class="edge">
<title>Node60448&#45;&gt;Node60449</title>
<path fill="none" stroke="#191970" d="M193.475,-896.8012C195.8648,-933.6553 209.819,-1067.1106 288,-1126.2156 338.5443,-1164.4272 413.7766,-1165.1363 465.2046,-1159.7655"/>
<polygon fill="#191970" stroke="#191970" points="465.6243,-1163.2404 475.1584,-1158.6196 464.8237,-1156.2863 465.6243,-1163.2404"/>
</g>
<!-- Node60453 -->
<g id="node7" class="node">
<title>Node60453</title>
<g id="a_node7"><a xlink:href="quickjs_8h.html#ad80a83d73e9b7d872b88fbf2943aebe9" target="_top" xlink:title="JS_IsException">
<polygon fill="none" stroke="#000000" points="825.5,-1014.7156 825.5,-1033.7156 911.5,-1033.7156 911.5,-1014.7156 825.5,-1014.7156"/>
<text text-anchor="middle" x="868.5" y="-1021.7156" font-family="Helvetica,sans-Serif" font-size="10.00" fill="#000000">JS_IsException</text>
</a>
</g>
</g>
<!-- Node60449&#45;&gt;Node60453 -->
<g id="edge6" class="edge">
<title>Node60449&#45;&gt;Node60453</title>
<path fill="none" stroke="#191970" d="M568.7977,-1154.03C618.3055,-1156.1597 697.5984,-1154.0373 759,-1126.2156 800.7576,-1107.2948 836.9744,-1065.996 855.4492,-1042.1584"/>
<polygon fill="#191970" stroke="#191970" points="858.4057,-1044.051 861.6357,-1033.9605 852.8182,-1039.8344 858.4057,-1044.051"/>
</g>
<!-- Node60495&#45;&gt;Node60453 -->
<g id="edge61" class="edge">
<title>Node60495&#45;&gt;Node60453</title>
<path fill="none" stroke="#191970" d="M194.9387,-567.8393C202.5796,-605.8824 231.2092,-749.4942 252,-868.2156 260.7346,-918.0925 249.4702,-1060.3605 288,-1093.2156 369.2297,-1162.4817 708.9564,-1071.3145 827.4864,-1036.6131"/>
<polygon fill="#191970" stroke="#191970" points="828.6722,-1039.9126 837.2748,-1033.7282 826.6932,-1033.1981 828.6722,-1039.9126"/>
</g>
<!-- Node60496 -->
<g id="node9" class="node">
<title>Node60496</title>
<g id="a_node9"><a xlink:href="quickjs_8c.html#a2f49d212e519c9e138d8b48148b6f955" target="_top" xlink:title="__attribute__">
<polygon fill="none" stroke="#ff0000" points="649.5,-292.7156 649.5,-311.7156 722.5,-311.7156 722.5,-292.7156 649.5,-292.7156"/>
<text text-anchor="middle" x="686" y="-299.7156" font-family="Helvetica,sans-Serif" font-size="10.00" fill="#000000">__attribute__</text>
</a>
</g>
</g>
<!-- Node60495&#45;&gt;Node60496 -->
<g id="edge8" class="edge">
<title>Node60495&#45;&gt;Node60496</title>
<path fill="none" stroke="#191970" d="M196.6106,-548.4884C206.9508,-521.8017 239.1085,-446.4868 288,-402.2156 353.4249,-342.9736 381.6122,-338.5527 467,-316.2156 524.9598,-301.0536 594.3472,-299.236 639.2538,-300.0898"/>
<polygon fill="#191970" stroke="#191970" points="639.2033,-303.5896 649.2852,-300.333 639.3729,-296.5916 639.2033,-303.5896"/>
</g>
<!-- Node60477 -->
<g id="node10" class="node">
<title>Node60477</title>
<g id="a_node10"><a xlink:href="quickjs_8c.html#a288254c06a39c9fca740a7abdad2834e" target="_top" xlink:title="__JS_AtomIsTaggedInt">
<polygon fill="none" stroke="#000000" points="626.5,-748.7156 626.5,-767.7156 745.5,-767.7156 745.5,-748.7156 626.5,-748.7156"/>
<text text-anchor="middle" x="686" y="-755.7156" font-family="Helvetica,sans-Serif" font-size="10.00" fill="#000000">__JS_AtomIsTaggedInt</text>
</a>
</g>
</g>
<!-- Node60495&#45;&gt;Node60477 -->
<g id="edge9" class="edge">
<title>Node60495&#45;&gt;Node60477</title>
<path fill="none" stroke="#191970" d="M195.3734,-568.1088C202.98,-597.4153 229.7371,-684.0432 288,-721.2156 390.2111,-786.4274 538.2855,-779.8622 622.0157,-769.118"/>
<polygon fill="#191970" stroke="#191970" points="622.7039,-772.557 632.1488,-767.7567 621.7718,-765.6194 622.7039,-772.557"/>
</g>
<!-- Node60478 -->
<g id="node11" class="node">
<title>Node60478</title>
<g id="a_node11"><a xlink:href="quickjs_8c.html#a89f38938cee8077ce1fbba07946ed185" target="_top" xlink:title="__JS_AtomToUInt32">
<polygon fill="none" stroke="#000000" points="632,-710.7156 632,-729.7156 740,-729.7156 740,-710.7156 632,-710.7156"/>
<text text-anchor="middle" x="686" y="-717.7156" font-family="Helvetica,sans-Serif" font-size="10.00" fill="#000000">__JS_AtomToUInt32</text>
</a>
</g>
</g>
<!-- Node60495&#45;&gt;Node60478 -->
<g id="edge10" class="edge">
<title>Node60495&#45;&gt;Node60478</title>
<path fill="none" stroke="#191970" d="M196.7585,-567.7788C207.037,-592.4856 238.212,-658.4468 288,-686.2156 393.2344,-744.9092 538.9632,-739.5921 621.7398,-730.1172"/>
<polygon fill="#191970" stroke="#191970" points="622.2498,-733.5812 631.7614,-728.9143 621.4155,-726.6311 622.2498,-733.5812"/>
</g>
<!-- Node60606 -->
<g id="node12" class="node">
<title>Node60606</title>
<g id="a_node12"><a xlink:href="quickjs_8c.html#adbffd820afae76d09c641b5b911e3600" target="_top" xlink:title="add_fast_array_element">
<polygon fill="none" stroke="#ff0000" points="625.5,-634.7156 625.5,-653.7156 746.5,-653.7156 746.5,-634.7156 625.5,-634.7156"/>
<text text-anchor="middle" x="686" y="-641.7156" font-family="Helvetica,sans-Serif" font-size="10.00" fill="#000000">add_fast_array_element</text>
</a>
</g>
</g>
<!-- Node60495&#45;&gt;Node60606 -->
<g id="edge11" class="edge">
<title>Node60495&#45;&gt;Node60606</title>
<path fill="none" stroke="#191970" d="M213.3042,-567.8567C232.2384,-576.4784 261.4681,-588.8567 288,-596.2156 399.7478,-627.2102 534.6354,-638.1922 615.2003,-642.0826"/>
<polygon fill="#191970" stroke="#191970" points="615.0831,-645.5808 625.2333,-642.5438 615.4047,-638.5882 615.0831,-645.5808"/>
</g>
<!-- Node60517 -->
<g id="node13" class="node">
<title>Node60517</title>
<g id="a_node13"><a xlink:href="quickjs_8h.html#afaa20c47565bc704c6c85f3d77254e7d" target="_top" xlink:title="JS_FreeValue">
<polygon fill="none" stroke="#ff0000" points="829.5,-311.7156 829.5,-330.7156 907.5,-330.7156 907.5,-311.7156 829.5,-311.7156"/>
<text text-anchor="middle" x="868.5" y="-318.7156" font-family="Helvetica,sans-Serif" font-size="10.00" fill="#000000">JS_FreeValue</text>
</a>
</g>
</g>
<!-- Node60495&#45;&gt;Node60517 -->
<g id="edge59" class="edge">
<title>Node60495&#45;&gt;Node60517</title>
<path fill="none" stroke="#191970" d="M193.6167,-548.4771C197.5117,-490.3893 220.7384,-190.2905 288,-135.2156 369.0234,-68.8724 669.8679,-95.2457 759,-150.2156 816.9194,-185.9359 849.7502,-265.0115 862.3969,-301.7511"/>
<polygon fill="#191970" stroke="#191970" points="859.222,-303.2992 865.6792,-311.699 865.8696,-301.1059 859.222,-303.2992"/>
</g>
<!-- Node60582 -->
<g id="node14" class="node">
<title>Node60582</title>
<g id="a_node14"><a xlink:href="quickjs_8h.html#a2050bc428da1c65ac7eb87c3fa3b0392" target="_top" xlink:title="JS_NewInt32">
<polygon fill="none" stroke="#000000" points="830.5,-634.7156 830.5,-653.7156 906.5,-653.7156 906.5,-634.7156 830.5,-634.7156"/>
<text text-anchor="middle" x="868.5" y="-641.7156" font-family="Helvetica,sans-Serif" font-size="10.00" fill="#000000">JS_NewInt32</text>
</a>
</g>
</g>
<!-- Node60495&#45;&gt;Node60582 -->
<g id="edge63" class="edge">
<title>Node60495&#45;&gt;Node60582</title>
<path fill="none" stroke="#191970" d="M194.8943,-567.9843C204.0496,-614.2781 245.0311,-811.1269 288,-854.2156 392.6759,-959.1836 465.0082,-920.6287 613,-929.2156 677.7799,-932.9744 710.1366,-971.9114 759,-929.2156 848.8368,-850.7182 715.783,-752.4185 795,-663.2156 801.695,-655.6767 810.9521,-650.9468 820.6422,-648.0202"/>
<polygon fill="#191970" stroke="#191970" points="821.5026,-651.4131 830.3978,-645.6576 819.8549,-644.6098 821.5026,-651.4131"/>
</g>
<!-- Node60607 -->
<g id="node15" class="node">
<title>Node60607</title>
<g id="a_node15"><a xlink:href="quickjs_8c.html#adba489eac6c2332de312326782457940" target="_top" xlink:title="JS_ThrowTypeErrorReadOnly">
<polygon fill="none" stroke="#ff0000" points="795,-672.7156 795,-691.7156 942,-691.7156 942,-672.7156 795,-672.7156"/>
<text text-anchor="middle" x="868.5" y="-679.7156" font-family="Helvetica,sans-Serif" font-size="10.00" fill="#000000">JS_ThrowTypeErrorReadOnly</text>
</a>
</g>
</g>
<!-- Node60495&#45;&gt;Node60607 -->
<g id="edge67" class="edge">
<title>Node60495&#45;&gt;Node60607</title>
<path fill="none" stroke="#191970" d="M194.3065,-567.9793C201.3424,-619.1071 236.332,-855.4987 288,-904.2156 347.1729,-960.0088 386.4535,-930.9646 467,-942.2156 595.6053,-960.1797 651.2986,-1024.7582 759,-952.2156 845.589,-893.8933 863.7324,-754.1169 867.5126,-702.1334"/>
<polygon fill="#191970" stroke="#191970" points="871.0203,-702.1164 868.1472,-691.9186 864.0338,-701.6823 871.0203,-702.1164"/>
</g>
<!-- Node60559 -->
<g id="node16" class="node">
<title>Node60559</title>
<g id="a_node16"><a xlink:href="quickjs_8c.html#a74547db03bf739a52c83a326b32db997" target="_top" xlink:title="add_property">
<polygon fill="none" stroke="#ff0000" points="649.5,-824.7156 649.5,-843.7156 722.5,-843.7156 722.5,-824.7156 649.5,-824.7156"/>
<text text-anchor="middle" x="686" y="-831.7156" font-family="Helvetica,sans-Serif" font-size="10.00" fill="#000000">add_property</text>
</a>
</g>
</g>
<!-- Node60495&#45;&gt;Node60559 -->
<g id="edge15" class="edge">
<title>Node60495&#45;&gt;Node60559</title>
<path fill="none" stroke="#191970" d="M194.4979,-568.0732C200.0475,-600.9588 222.6094,-707.6733 288,-758.2156 392.6686,-839.1172 558.3323,-842.1708 638.895,-838.093"/>
<polygon fill="#191970" stroke="#191970" points="639.4329,-841.5682 649.2185,-837.507 639.0362,-834.5795 639.4329,-841.5682"/>
</g>
<!-- Node60861 -->
<g id="node17" class="node">
<title>Node60861</title>
<g id="a_node17"><a xlink:href="quickjs_8c.html#a3fb71f8d31b557ebebec82476999408a" target="_top" xlink:title="call_setter">
<polygon fill="none" stroke="#ff0000" points="655,-900.7156 655,-919.7156 717,-919.7156 717,-900.7156 655,-900.7156"/>
<text text-anchor="middle" x="686" y="-907.7156" font-family="Helvetica,sans-Serif" font-size="10.00" fill="#000000">call_setter</text>
</a>
</g>
</g>
<!-- Node60495&#45;&gt;Node60861 -->
<g id="edge16" class="edge">
<title>Node60495&#45;&gt;Node60861</title>
<path fill="none" stroke="#191970" d="M193.7216,-567.9063C196.9899,-604.6211 213.6681,-736.4584 288,-803.2156 391.0387,-895.7543 565.7907,-909.5267 644.9075,-910.7399"/>
<polygon fill="#191970" stroke="#191970" points="644.9385,-914.2402 654.9706,-910.8333 645.0036,-907.2405 644.9385,-914.2402"/>
</g>
<!-- Node60513 -->
<g id="node18" class="node">
<title>Node60513</title>
<g id="a_node18"><a xlink:href="quickjs_8c.html#a06b76f5124fd985e35f4c652fd018d6d" target="_top" xlink:title="find_own_property">
<polygon fill="none" stroke="#ff0000" points="474,-596.7156 474,-615.7156 570,-615.7156 570,-596.7156 474,-596.7156"/>
<text text-anchor="middle" x="522" y="-603.7156" font-family="Helvetica,sans-Serif" font-size="10.00" fill="#000000">find_own_property</text>
</a>
</g>
</g>
<!-- Node60495&#45;&gt;Node60513 -->
<g id="edge19" class="edge">
<title>Node60495&#45;&gt;Node60513</title>
<path fill="none" stroke="#191970" d="M252.1986,-566.8525C312.1841,-575.6042 404.3977,-589.0578 463.963,-597.7482"/>
<polygon fill="#191970" stroke="#191970" points="463.5599,-601.2264 473.9604,-599.2068 464.5705,-594.2997 463.5599,-601.2264"/>
</g>
<!-- Node60580 -->
<g id="node19" class="node">
<title>Node60580</title>
<g id="a_node19"><a xlink:href="quickjs_8c.html#add3eea1f6d626963ade3c28a1fd563d1" target="_top" xlink:title="JS_AtomIsNumericIndex">
<polygon fill="none" stroke="#ff0000" points="623,-482.7156 623,-501.7156 749,-501.7156 749,-482.7156 623,-482.7156"/>
<text text-anchor="middle" x="686" y="-489.7156" font-family="Helvetica,sans-Serif" font-size="10.00" fill="#000000">JS_AtomIsNumericIndex</text>
</a>
</g>
</g>
<!-- Node60495&#45;&gt;Node60580 -->
<g id="edge20" class="edge">
<title>Node60495&#45;&gt;Node60580</title>
<path fill="none" stroke="#191970" d="M207.7079,-548.5237C225.7615,-537.214 257.7183,-519.0629 288,-511.2156 398.4539,-482.5922 531.8008,-482.9662 612.6856,-486.8534"/>
<polygon fill="#191970" stroke="#191970" points="612.6042,-490.3537 622.7701,-487.3694 612.962,-483.3628 612.6042,-490.3537"/>
</g>
<!-- Node60596 -->
<g id="node20" class="node">
<title>Node60596</title>
<g id="a_node20"><a xlink:href="quickjs_8h.html#a4e407128a9605afb77523e49e9a627fd" target="_top" xlink:title="JS_IsUndefined">
<polygon fill="none" stroke="#000000" points="825.5,-444.7156 825.5,-463.7156 911.5,-463.7156 911.5,-444.7156 825.5,-444.7156"/>
<text text-anchor="middle" x="868.5" y="-451.7156" font-family="Helvetica,sans-Serif" font-size="10.00" fill="#000000">JS_IsUndefined</text>
</a>
</g>
</g>
<!-- Node60495&#45;&gt;Node60596 -->
<g id="edge62" class="edge">
<title>Node60495&#45;&gt;Node60596</title>
<path fill="none" stroke="#191970" d="M201.5659,-548.6509C216.9886,-532.1622 251.2607,-498.7583 288,-484.2156 470.2975,-412.0562 710.2351,-432.1433 815.3329,-446.0232"/>
<polygon fill="#191970" stroke="#191970" points="814.9967,-449.5096 825.3764,-447.3855 815.9376,-442.5731 814.9967,-449.5096"/>
</g>
<!-- Node60597 -->
<g id="node21" class="node">
<title>Node60597</title>
<g id="a_node21"><a xlink:href="quickjs_8c.html#a23b7fe57d08a1b3b39ba556f9cbb6c76" target="_top" xlink:title="JS_AutoInitProperty">
<polygon fill="none" stroke="#ff0000" points="307.5,-272.7156 307.5,-291.7156 411.5,-291.7156 411.5,-272.7156 307.5,-272.7156"/>
<text text-anchor="middle" x="359.5" y="-279.7156" font-family="Helvetica,sans-Serif" font-size="10.00" fill="#000000">JS_AutoInitProperty</text>
</a>
</g>
</g>
<!-- Node60495&#45;&gt;Node60597 -->
<g id="edge24" class="edge">
<title>Node60495&#45;&gt;Node60597</title>
<path fill="none" stroke="#191970" d="M193.7369,-548.6519C197.0892,-511.7898 214.1127,-377.4425 288,-306.2156 292.2274,-302.1405 297.1677,-298.7566 302.4415,-295.9468"/>
<polygon fill="#191970" stroke="#191970" points="303.9495,-299.1057 311.5646,-291.7395 301.018,-292.749 303.9495,-299.1057"/>
</g>
<!-- Node60605 -->
<g id="node22" class="node">
<title>Node60605</title>
<g id="a_node22"><a xlink:href="quickjs_8c.html#ad5565bb5cfd5321f181573257f3b0c91" target="_top" xlink:title="JS_CreateProperty">
<polygon fill="none" stroke="#ff0000" points="472,-672.7156 472,-691.7156 572,-691.7156 572,-672.7156 472,-672.7156"/>
<text text-anchor="middle" x="522" y="-679.7156" font-family="Helvetica,sans-Serif" font-size="10.00" fill="#000000">JS_CreateProperty</text>
</a>
</g>
</g>
<!-- Node60495&#45;&gt;Node60605 -->
<g id="edge25" class="edge">
<title>Node60495&#45;&gt;Node60605</title>
<path fill="none" stroke="#191970" d="M198.6706,-567.7558C211.5485,-588.4328 245.2289,-637.2045 288,-658.2156 342.41,-684.9443 412.3975,-688.7452 461.6032,-687.2207"/>
<polygon fill="#191970" stroke="#191970" points="461.9199,-690.7111 471.7747,-686.8209 461.6449,-683.7165 461.9199,-690.7111"/>
</g>
<!-- Node60627 -->
<g id="node23" class="node">
<title>Node60627</title>
<g id="a_node23"><a xlink:href="quickjs_8c.html#a0ec52a675282f321a6f42aa1298a53fe" target="_top" xlink:title="set_value">
<polygon fill="none" stroke="#000000" points="656.5,-252.7156 656.5,-271.7156 715.5,-271.7156 715.5,-252.7156 656.5,-252.7156"/>
<text text-anchor="middle" x="686" y="-259.7156" font-family="Helvetica,sans-Serif" font-size="10.00" fill="#000000">set_value</text>
</a>
</g>
</g>
<!-- Node60495&#45;&gt;Node60627 -->
<g id="edge70" class="edge">
<title>Node60495&#45;&gt;Node60627</title>
<path fill="none" stroke="#191970" d="M194.5854,-548.489C202.454,-501.5317 238.9034,-299.079 288,-263.2156 344.0198,-222.2951 557.0248,-244.9533 646.2793,-256.6273"/>
<polygon fill="#191970" stroke="#191970" points="645.9075,-260.1086 656.2817,-257.9576 646.8305,-253.1697 645.9075,-260.1086"/>
</g>
<!-- Node60600 -->
<g id="node24" class="node">
<title>Node60600</title>
<g id="a_node24"><a xlink:href="quickjs_8c.html#ab50618f1bf78e444caa6da0e3e2785d7" target="_top" xlink:title="JS_DefineProperty">
<polygon fill="none" stroke="#ff0000" points="310,-520.7156 310,-539.7156 409,-539.7156 409,-520.7156 310,-520.7156"/>
<text text-anchor="middle" x="359.5" y="-527.7156" font-family="Helvetica,sans-Serif" font-size="10.00" fill="#000000">JS_DefineProperty</text>
</a>
</g>
</g>
<!-- Node60495&#45;&gt;Node60600 -->
<g id="edge35" class="edge">
<title>Node60495&#45;&gt;Node60600</title>
<path fill="none" stroke="#191970" d="M249.8342,-548.6579C265.9832,-545.9422 283.6118,-542.9776 299.9189,-540.2353"/>
<polygon fill="#191970" stroke="#191970" points="300.5955,-543.6707 309.8765,-538.5607 299.4346,-536.7677 300.5955,-543.6707"/>
</g>
<!-- Node60636 -->
<g id="node25" class="node">
<title>Node60636</title>
<g id="a_node25"><a xlink:href="quickjs_8c.html#aee75cc1546e19479e3ccda58f3b50a96" target="_top" xlink:title="JS_SetPropertyValue">
<polygon fill="none" stroke="#ff0000" points="467,-140.7156 467,-159.7156 577,-159.7156 577,-140.7156 467,-140.7156"/>
<text text-anchor="middle" x="522" y="-147.7156" font-family="Helvetica,sans-Serif" font-size="10.00" fill="#000000">JS_SetPropertyValue</text>
</a>
</g>
</g>
<!-- Node60495&#45;&gt;Node60636 -->
<g id="edge64" class="edge">
<title>Node60495&#45;&gt;Node60636</title>
<path fill="none" stroke="#191970" d="M193.7468,-548.7076C198.7971,-494.0832 229.5294,-225.5012 288,-173.2156 343.6439,-123.4577 438.4842,-128.2862 488.633,-138.4644"/>
<polygon fill="#191970" stroke="#191970" points="488.1028,-141.9322 498.6257,-140.6998 489.631,-135.1011 488.1028,-141.9322"/>
</g>
<!-- Node60637 -->
<g id="node26" class="node">
<title>Node60637</title>
<g id="a_node26"><a xlink:href="quickjs_8c.html#a033dd3ebd29c4eb9f0baff1dd0fec0b1" target="_top" xlink:title="JS_ThrowTypeErrorDetached\lArrayBuffer">
<polygon fill="none" stroke="#000000" points="613,-18.2156 613,-48.2156 759,-48.2156 759,-18.2156 613,-18.2156"/>
<text text-anchor="start" x="621" y="-36.2156" font-family="Helvetica,sans-Serif" font-size="10.00" fill="#000000">JS_ThrowTypeErrorDetached</text>
<text text-anchor="middle" x="686" y="-25.2156" font-family="Helvetica,sans-Serif" font-size="10.00" fill="#000000">ArrayBuffer</text>
</a>
</g>
</g>
<!-- Node60495&#45;&gt;Node60637 -->
<g id="edge66" class="edge">
<title>Node60495&#45;&gt;Node60637</title>
<path fill="none" stroke="#191970" d="M193.5482,-548.5712C197.1769,-488.2854 219.7297,-163.6921 288,-98.2156 310.3868,-76.745 492.5077,-53.8515 602.4808,-41.7943"/>
<polygon fill="#191970" stroke="#191970" points="602.9998,-45.2585 612.5624,-40.6971 602.2424,-38.2996 602.9998,-45.2585"/>
</g>
<!-- Node60645 -->
<g id="node27" class="node">
<title>Node60645</title>
<g id="a_node27"><a xlink:href="quickjs_8c.html#aeb73aae9c3ad7daaf7646e3f2f89245a" target="_top" xlink:title="set_array_length">
<polygon fill="none" stroke="#ff0000" points="477.5,-178.7156 477.5,-197.7156 566.5,-197.7156 566.5,-178.7156 477.5,-178.7156"/>
<text text-anchor="middle" x="522" y="-185.7156" font-family="Helvetica,sans-Serif" font-size="10.00" fill="#000000">set_array_length</text>
</a>
</g>
</g>
<!-- Node60495&#45;&gt;Node60645 -->
<g id="edge69" class="edge">
<title>Node60495&#45;&gt;Node60645</title>
<path fill="none" stroke="#191970" d="M194.4071,-548.6033C201.8185,-499.2989 237.8939,-275.3494 288,-230.2156 336.5884,-186.449 414.6641,-180.769 467.117,-182.7964"/>
<polygon fill="#191970" stroke="#191970" points="467.0894,-186.2992 477.2496,-183.2956 467.434,-179.3076 467.0894,-186.2992"/>
</g>
<!-- Node60679 -->
<g id="node28" class="node">
<title>Node60679</title>
<g id="a_node28"><a xlink:href="quickjs_8c.html#a23a30fec3b10bfa38c3dc29b4cb1c99d" target="_top" xlink:title="JS_GetPrototype">
<polygon fill="none" stroke="#ff0000" points="313.5,-26.7156 313.5,-45.7156 405.5,-45.7156 405.5,-26.7156 313.5,-26.7156"/>
<text text-anchor="middle" x="359.5" y="-33.7156" font-family="Helvetica,sans-Serif" font-size="10.00" fill="#000000">JS_GetPrototype</text>
</a>
</g>
</g>
<!-- Node60495&#45;&gt;Node60679 -->
<g id="edge60" class="edge">
<title>Node60495&#45;&gt;Node60679</title>
<path fill="none" stroke="#191970" d="M193.5535,-548.3452C197.2863,-485.1335 220.7069,-137.2939 288,-60.2156 292.4551,-55.1127 298.0295,-51.0922 304.089,-47.9248"/>
<polygon fill="#191970" stroke="#191970" points="305.5164,-51.1206 313.24,-43.8682 302.6795,-44.7212 305.5164,-51.1206"/>
</g>
<!-- Node60687 -->
<g id="node29" class="node">
<title>Node60687</title>
<g id="a_node29"><a xlink:href="quickjs_8c.html#ab8d0b87c9eed4eb6c054b6f4e1731554" target="_top" xlink:title="JS_ThrowReferenceErrorNot\lDefined">
<polygon fill="none" stroke="#ff0000" points="288,-1053.2156 288,-1083.2156 431,-1083.2156 431,-1053.2156 288,-1053.2156"/>
<text text-anchor="start" x="296" y="-1071.2156" font-family="Helvetica,sans-Serif" font-size="10.00" fill="#000000">JS_ThrowReferenceErrorNot</text>
<text text-anchor="middle" x="359.5" y="-1060.2156" font-family="Helvetica,sans-Serif" font-size="10.00" fill="#000000">Defined</text>
</a>
</g>
</g>
<!-- Node60495&#45;&gt;Node60687 -->
<g id="edge65" class="edge">
<title>Node60495&#45;&gt;Node60687</title>
<path fill="none" stroke="#191970" d="M194.8105,-567.8031C207.5954,-635.4614 283.8828,-1038.4635 288,-1043.2156 289.1544,-1044.548 290.384,-1045.8095 291.6777,-1047.0037"/>
<polygon fill="#191970" stroke="#191970" points="289.6386,-1049.8503 299.7115,-1053.1347 293.8853,-1044.2856 289.6386,-1049.8503"/>
</g>
<!-- Node60585 -->
<g id="node30" class="node">
<title>Node60585</title>
<g id="a_node30"><a xlink:href="quickjs_8c.html#ae738291483438efefca5c9fa4d269504" target="_top" xlink:title="JS_ToNumberFree">
<polygon fill="none" stroke="#ff0000" points="310,-1014.7156 310,-1033.7156 409,-1033.7156 409,-1014.7156 310,-1014.7156"/>
<text text-anchor="middle" x="359.5" y="-1021.7156" font-family="Helvetica,sans-Serif" font-size="10.00" fill="#000000">JS_ToNumberFree</text>
</a>
</g>
</g>
<!-- Node60495&#45;&gt;Node60585 -->
<g id="edge68" class="edge">
<title>Node60495&#45;&gt;Node60585</title>
<path fill="none" stroke="#191970" d="M194.7938,-567.8651C206.5663,-631.007 272.7669,-983.1709 288,-1000.2156 291.5624,-1004.2017 295.8071,-1007.5268 300.4259,-1010.3003"/>
<polygon fill="#191970" stroke="#191970" points="299.1847,-1013.5946 309.6882,-1014.983 302.343,-1007.3476 299.1847,-1013.5946"/>
</g>
<!-- Node60606&#45;&gt;Node60517 -->
<g id="edge12" class="edge">
<title>Node60606&#45;&gt;Node60517</title>
<path fill="none" stroke="#191970" d="M691.5117,-634.6421C703.9619,-612.9178 735.0401,-558.1309 759,-511.2156 775.9994,-477.9296 776.835,-467.8802 795,-435.2156 814.4277,-400.2804 840.4077,-361.5514 855.7084,-339.4203"/>
<polygon fill="#191970" stroke="#191970" points="858.7214,-341.2182 861.5618,-331.0112 852.9761,-337.2191 858.7214,-341.2182"/>
</g>
<!-- Node60606&#45;&gt;Node60582 -->
<g id="edge13" class="edge">
<title>Node60606&#45;&gt;Node60582</title>
<path fill="none" stroke="#191970" d="M746.5164,-644.2156C770.5404,-644.2156 797.7824,-644.2156 820.4189,-644.2156"/>
<polygon fill="#191970" stroke="#191970" points="820.4672,-647.7157 830.4672,-644.2156 820.4672,-640.7157 820.4672,-647.7157"/>
</g>
<!-- Node60606&#45;&gt;Node60607 -->
<g id="edge14" class="edge">
<title>Node60606&#45;&gt;Node60607</title>
<path fill="none" stroke="#191970" d="M732.0525,-653.8046C756.5692,-658.9095 786.9096,-665.2269 812.7502,-670.6075"/>
<polygon fill="#191970" stroke="#191970" points="812.2752,-674.0835 822.7787,-672.6956 813.7022,-667.2305 812.2752,-674.0835"/>
</g>
<!-- Node60861&#45;&gt;Node60453 -->
<g id="edge18" class="edge">
<title>Node60861&#45;&gt;Node60453</title>
<path fill="none" stroke="#191970" d="M701.2459,-919.7391C732.915,-939.5214 806.0435,-985.2017 844.2535,-1009.0699"/>
<polygon fill="#191970" stroke="#191970" points="842.8335,-1012.3096 853.1691,-1014.6391 846.5421,-1006.3727 842.8335,-1012.3096"/>
</g>
<!-- Node60861&#45;&gt;Node60517 -->
<g id="edge17" class="edge">
<title>Node60861&#45;&gt;Node60517</title>
<path fill="none" stroke="#191970" d="M705.9101,-900.6469C723.1767,-891.1889 747.196,-874.9835 759,-853.2156 847.8863,-689.2992 734.7025,-611.6628 795,-435.2156 807.9171,-397.4165 835.9868,-359.6574 853.4571,-338.4812"/>
<polygon fill="#191970" stroke="#191970" points="856.2348,-340.6165 860.0071,-330.716 850.8841,-336.1031 856.2348,-340.6165"/>
</g>
<!-- Node60580&#45;&gt;Node60453 -->
<g id="edge22" class="edge">
<title>Node60580&#45;&gt;Node60453</title>
<path fill="none" stroke="#191970" d="M692.3184,-501.8349C706.1246,-523.2149 739.3191,-576.6347 759,-625.2156 815.8923,-765.65 853.3723,-945.5504 864.8043,-1004.5331"/>
<polygon fill="#191970" stroke="#191970" points="861.4266,-1005.5046 866.7415,-1014.6699 868.3021,-1004.1906 861.4266,-1005.5046"/>
</g>
<!-- Node60580&#45;&gt;Node60517 -->
<g id="edge21" class="edge">
<title>Node60580&#45;&gt;Node60517</title>
<path fill="none" stroke="#191970" d="M696.3349,-482.532C726.1983,-454.5504 812.8758,-373.3347 850.604,-337.9839"/>
<polygon fill="#191970" stroke="#191970" points="853.3743,-340.1846 858.2785,-330.7931 848.5881,-335.0765 853.3743,-340.1846"/>
</g>
<!-- Node60580&#45;&gt;Node60596 -->
<g id="edge23" class="edge">
<title>Node60580&#45;&gt;Node60596</title>
<path fill="none" stroke="#191970" d="M732.0525,-482.6266C757.4268,-477.3432 789.0392,-470.7609 815.4448,-465.2627"/>
<polygon fill="#191970" stroke="#191970" points="816.2096,-468.6786 825.2862,-463.2136 814.7827,-461.8256 816.2096,-468.6786"/>
</g>
<!-- Node60605&#45;&gt;Node60496 -->
<g id="edge26" class="edge">
<title>Node60605&#45;&gt;Node60496</title>
<path fill="none" stroke="#191970" d="M534.4803,-672.7115C547.1311,-662.3982 566.3187,-644.7654 577,-625.2156 610.2869,-564.2916 591.292,-539.1589 613,-473.2156 631.6805,-416.4689 661.5056,-352.3965 676.5972,-321.2507"/>
<polygon fill="#191970" stroke="#191970" points="679.8676,-322.53 681.1131,-312.0087 673.5782,-319.4569 679.8676,-322.53"/>
</g>
<!-- Node60605&#45;&gt;Node60477 -->
<g id="edge27" class="edge">
<title>Node60605&#45;&gt;Node60477</title>
<path fill="none" stroke="#191970" d="M534.5684,-691.8442C551.5184,-704.4052 583.0428,-726.2983 613,-739.2156 618.6821,-741.6657 624.7535,-743.8586 630.877,-745.8058"/>
<polygon fill="#191970" stroke="#191970" points="629.9111,-749.17 640.4939,-748.6651 631.9061,-742.4603 629.9111,-749.17"/>
</g>
<!-- Node60605&#45;&gt;Node60478 -->
<g id="edge28" class="edge">
<title>Node60605&#45;&gt;Node60478</title>
<path fill="none" stroke="#191970" d="M563.3841,-691.8046C585.1232,-696.8417 611.9575,-703.0594 634.9747,-708.3927"/>
<polygon fill="#191970" stroke="#191970" points="634.3815,-711.8479 644.9135,-710.6956 635.9616,-705.0286 634.3815,-711.8479"/>
</g>
<!-- Node60605&#45;&gt;Node60606 -->
<g id="edge29" class="edge">
<title>Node60605&#45;&gt;Node60606</title>
<path fill="none" stroke="#191970" d="M563.3841,-672.6266C585.1232,-667.5895 611.9575,-661.3718 634.9747,-656.0386"/>
<polygon fill="#191970" stroke="#191970" points="635.9616,-659.4027 644.9135,-653.7357 634.3815,-652.5834 635.9616,-659.4027"/>
</g>
<!-- Node60605&#45;&gt;Node60607 -->
<g id="edge32" class="edge">
<title>Node60605&#45;&gt;Node60607</title>
<path fill="none" stroke="#191970" d="M572.014,-682.2156C627.6324,-682.2156 718.383,-682.2156 784.8536,-682.2156"/>
<polygon fill="#191970" stroke="#191970" points="784.8904,-685.7157 794.8904,-682.2156 784.8904,-678.7157 784.8904,-685.7157"/>
</g>
<!-- Node60605&#45;&gt;Node60559 -->
<g id="edge30" class="edge">
<title>Node60605&#45;&gt;Node60559</title>
<path fill="none" stroke="#191970" d="M530.3616,-691.8219C545.9101,-709.4798 580.6372,-747.9657 613,-777.2156 629.5535,-792.1769 649.6102,-807.6664 664.5085,-818.7155"/>
<polygon fill="#191970" stroke="#191970" points="662.4868,-821.5732 672.6189,-824.6704 666.6297,-815.9308 662.4868,-821.5732"/>
</g>
<!-- Node60605&#45;&gt;Node60580 -->
<g id="edge31" class="edge">
<title>Node60605&#45;&gt;Node60580</title>
<path fill="none" stroke="#191970" d="M531.9878,-672.3581C543.2058,-661.1745 561.8274,-642.271 577,-625.2156 612.6778,-585.1107 652.0079,-535.7332 672.2605,-509.8917"/>
<polygon fill="#191970" stroke="#191970" points="675.1939,-511.8219 678.5912,-501.7865 669.6772,-507.513 675.1939,-511.8219"/>
</g>
<!-- Node60605&#45;&gt;Node60627 -->
<g id="edge33" class="edge">
<title>Node60605&#45;&gt;Node60627</title>
<path fill="none" stroke="#191970" d="M535.4805,-672.5935C548.5435,-662.4378 567.7038,-645.1577 577,-625.2156 609.288,-555.9517 563.8987,-341.7738 613,-283.2156 621.2906,-273.3283 633.9075,-267.9312 646.3327,-265.0364"/>
<polygon fill="#191970" stroke="#191970" points="646.9752,-268.477 656.17,-263.2132 645.6996,-261.5942 646.9752,-268.477"/>
</g>
<!-- Node60627&#45;&gt;Node60517 -->
<g id="edge34" class="edge">
<title>Node60627&#45;&gt;Node60517</title>
<path fill="none" stroke="#191970" d="M715.5897,-270.3364C728.9072,-274.0918 744.7951,-278.7113 759,-283.2156 783.6728,-291.0393 811.1962,-300.5944 832.4767,-308.1659"/>
<polygon fill="#191970" stroke="#191970" points="831.4868,-311.5289 842.0815,-311.5992 833.8431,-304.9374 831.4868,-311.5289"/>
</g>
<!-- Node60600&#45;&gt;Node60453 -->
<g id="edge42" class="edge">
<title>Node60600&#45;&gt;Node60453</title>
<path fill="none" stroke="#191970" d="M362.6508,-539.8137C379.4154,-589.3399 463.0556,-817.9663 613,-929.2156 674.5405,-974.8748 760.4481,-1000.7807 815.2778,-1013.6548"/>
<polygon fill="#191970" stroke="#191970" points="814.6128,-1017.093 825.1412,-1015.9089 816.1723,-1010.2689 814.6128,-1017.093"/>
</g>
<!-- Node60600&#45;&gt;Node60496 -->
<g id="edge36" class="edge">
<title>Node60600&#45;&gt;Node60496</title>
<path fill="none" stroke="#191970" d="M362.8947,-520.6201C373.4818,-492.1139 408.7186,-407.2475 467,-364.2156 518.2356,-326.386 591.7635,-311.6149 639.2053,-305.8625"/>
<polygon fill="#191970" stroke="#191970" points="639.6624,-309.3333 649.208,-304.7364 638.8792,-302.3772 639.6624,-309.3333"/>
</g>
<!-- Node60600&#45;&gt;Node60477 -->
<g id="edge37" class="edge">
<title>Node60600&#45;&gt;Node60477</title>
<path fill="none" stroke="#191970" d="M362.6199,-539.7411C372.6602,-568.8466 407.0224,-657.292 467,-701.2156 510.3181,-732.9389 569.7987,-747.0361 615.84,-753.2854"/>
<polygon fill="#191970" stroke="#191970" points="615.6834,-756.7934 626.043,-754.5729 616.5599,-749.8484 615.6834,-756.7934"/>
</g>
<!-- Node60600&#45;&gt;Node60478 -->
<g id="edge38" class="edge">
<title>Node60600&#45;&gt;Node60478</title>
<path fill="none" stroke="#191970" d="M409.4864,-538.2828C465.4672,-548.1701 551.6852,-566.2216 577,-587.2156 605.7695,-611.0747 589.6407,-634.0389 613,-663.2156 626.4411,-680.0041 645.7638,-694.809 661.1533,-705.1203"/>
<polygon fill="#191970" stroke="#191970" points="659.3911,-708.149 669.6857,-710.6532 663.1997,-702.2757 659.3911,-708.149"/>
</g>
<!-- Node60600&#45;&gt;Node60517 -->
<g id="edge41" class="edge">
<title>Node60600&#45;&gt;Node60517</title>
<path fill="none" stroke="#191970" d="M376.725,-520.6804C397.7269,-509.2241 434.4525,-489.7341 467,-475.2156 598.2126,-416.6856 759.0463,-359.1256 830.8136,-334.1543"/>
<polygon fill="#191970" stroke="#191970" points="832.0365,-337.4348 840.3368,-330.8503 829.742,-330.8215 832.0365,-337.4348"/>
</g>
<!-- Node60600&#45;&gt;Node60582 -->
<g id="edge44" class="edge">
<title>Node60600&#45;&gt;Node60582</title>
<path fill="none" stroke="#191970" d="M409.2163,-530.3435C453.6142,-531.2909 520.2123,-534.7706 577,-546.2156 674.3561,-565.8368 784.1329,-608.6842 836.8804,-630.6459"/>
<polygon fill="#191970" stroke="#191970" points="835.7744,-633.9774 846.3497,-634.6201 838.4833,-627.5228 835.7744,-633.9774"/>
</g>
<!-- Node60600&#45;&gt;Node60513 -->
<g id="edge39" class="edge">
<title>Node60600&#45;&gt;Node60513</title>
<path fill="none" stroke="#191970" d="M378.812,-539.8387C400.2467,-550.4536 435.9205,-567.9244 467,-582.2156 474.454,-585.6432 482.5266,-589.2331 490.1318,-592.5611"/>
<polygon fill="#191970" stroke="#191970" points="488.8672,-595.8277 499.4335,-596.6045 491.6579,-589.408 488.8672,-595.8277"/>
</g>
<!-- Node60600&#45;&gt;Node60596 -->
<g id="edge43" class="edge">
<title>Node60600&#45;&gt;Node60596</title>
<path fill="none" stroke="#191970" d="M394.461,-520.6383C443.0744,-507.7161 534.026,-484.9657 613,-473.2156 682.3549,-462.8967 763.1768,-458.0817 815.0451,-455.9049"/>
<polygon fill="#191970" stroke="#191970" points="815.4883,-459.39 825.3398,-455.4916 815.2074,-452.3956 815.4883,-459.39"/>
</g>
<!-- Node60600&#45;&gt;Node60605 -->
<g id="edge40" class="edge">
<title>Node60600&#45;&gt;Node60605</title>
<path fill="none" stroke="#191970" d="M369.6651,-539.7239C396.682,-564.9951 470.5207,-634.0627 504.4839,-665.8313"/>
<polygon fill="#191970" stroke="#191970" points="502.1447,-668.4358 511.8387,-672.7109 506.9266,-663.3236 502.1447,-668.4358"/>
</g>
<!-- Node60600&#45;&gt;Node60627 -->
<g id="edge58" class="edge">
<title>Node60600&#45;&gt;Node60627</title>
<path fill="none" stroke="#191970" d="M361.2449,-520.585C367.9675,-486.3928 395.4791,-369.8574 467,-313.2156 519.0663,-271.9811 598.6534,-263.0289 646.1856,-261.6625"/>
<polygon fill="#191970" stroke="#191970" points="646.4615,-265.1581 656.3944,-261.472 646.3308,-258.1593 646.4615,-265.1581"/>
</g>
<!-- Node60600&#45;&gt;Node60636 -->
<g id="edge45" class="edge">
<title>Node60600&#45;&gt;Node60636</title>
<path fill="none" stroke="#191970" d="M362.6224,-520.6546C372.8293,-489.3097 405.9879,-386.7646 431,-301.2156 448.0646,-242.8497 425.4516,-213.6173 467,-169.2156 468.3719,-167.7495 469.8622,-166.3966 471.4444,-165.148"/>
<polygon fill="#191970" stroke="#191970" points="473.4192,-168.0403 479.9971,-159.7348 469.6756,-162.1255 473.4192,-168.0403"/>
</g>
<!-- Node60600&#45;&gt;Node60645 -->
<g id="edge53" class="edge">
<title>Node60600&#45;&gt;Node60645</title>
<path fill="none" stroke="#191970" d="M361.8761,-520.4663C371.2087,-483.2959 407.7743,-347.6643 467,-250.2156 477.2988,-233.2702 492.4482,-216.6017 504.2413,-204.8227"/>
<polygon fill="#191970" stroke="#191970" points="506.6963,-207.3174 511.4216,-197.8346 501.8141,-202.3009 506.6963,-207.3174"/>
</g>
<!-- Node60636&#45;&gt;Node60442 -->
<g id="edge48" class="edge">
<title>Node60636&#45;&gt;Node60442</title>
<path fill="none" stroke="#191970" d="M543.4401,-140.6722C571.924,-127.9934 622.4349,-105.5099 655.051,-90.9917"/>
<polygon fill="#191970" stroke="#191970" points="656.8421,-94.0256 664.5546,-86.7614 653.9955,-87.6305 656.8421,-94.0256"/>
</g>
<!-- Node60636&#45;&gt;Node60495 -->
<g id="edge50" class="edge">
<title>Node60636&#45;&gt;Node60495</title>
<path fill="none" stroke="#191970" d="M466.6109,-148.5923C414.1095,-145.9631 336.2928,-148.0312 288,-191.2156 234.3957,-239.1497 204.1046,-468.8755 195.5426,-538.4142"/>
<polygon fill="#191970" stroke="#191970" points="192.0515,-538.1292 194.3144,-548.4796 198.9999,-538.9772 192.0515,-538.1292"/>
</g>
<!-- Node60636&#45;&gt;Node60496 -->
<g id="edge46" class="edge">
<title>Node60636&#45;&gt;Node60496</title>
<path fill="none" stroke="#191970" d="M563.5639,-159.7535C568.5314,-162.2172 573.1845,-165.3167 577,-169.2156 613.57,-206.5849 575.4616,-244.8193 613,-281.2156 620.314,-288.3071 629.8611,-293.031 639.6276,-296.1704"/>
<polygon fill="#191970" stroke="#191970" points="638.8257,-299.5792 649.3926,-298.8107 640.6528,-292.8218 638.8257,-299.5792"/>
</g>
<!-- Node60636&#45;&gt;Node60606 -->
<g id="edge47" class="edge">
<title>Node60636&#45;&gt;Node60606</title>
<path fill="none" stroke="#191970" d="M565.6853,-159.7925C570.0042,-162.2524 573.9201,-165.3403 577,-169.2156 624.5471,-229.0427 590.1663,-438.2867 613,-511.2156 626.8176,-555.3478 656.018,-601.5031 673.0024,-626.1489"/>
<polygon fill="#191970" stroke="#191970" points="670.2476,-628.3164 678.8561,-634.4924 675.9779,-624.296 670.2476,-628.3164"/>
</g>
<!-- Node60636&#45;&gt;Node60517 -->
<g id="edge49" class="edge">
<title>Node60636&#45;&gt;Node60517</title>
<path fill="none" stroke="#191970" d="M577.2584,-150.9315C627.6708,-153.812 702.6713,-163.8476 759,-196.2156 804.6478,-222.4461 840.8572,-274.7966 857.8893,-302.7005"/>
<polygon fill="#191970" stroke="#191970" points="854.9814,-304.6584 863.098,-311.468 860.9994,-301.0831 854.9814,-304.6584"/>
</g>
<!-- Node60636&#45;&gt;Node60627 -->
<g id="edge52" class="edge">
<title>Node60636&#45;&gt;Node60627</title>
<path fill="none" stroke="#191970" d="M556.03,-159.7434C563.1771,-162.3512 570.5105,-165.5044 577,-169.2156 613.9827,-190.3654 650.2672,-224.8404 670.2353,-245.3454"/>
<polygon fill="#191970" stroke="#191970" points="667.8434,-247.9081 677.2882,-252.7088 672.8986,-243.066 667.8434,-247.9081"/>
</g>
<!-- Node60636&#45;&gt;Node60637 -->
<g id="edge51" class="edge">
<title>Node60636&#45;&gt;Node60637</title>
<path fill="none" stroke="#191970" d="M530.4266,-140.6488C549.1327,-119.5922 593.9706,-70.1568 613,-58.2156 616.1949,-56.2108 619.5701,-54.3445 623.0473,-52.6106"/>
<polygon fill="#191970" stroke="#191970" points="624.7918,-55.6618 632.436,-48.3257 621.8854,-49.2936 624.7918,-55.6618"/>
</g>
<!-- Node60645&#45;&gt;Node60442 -->
<g id="edge55" class="edge">
<title>Node60645&#45;&gt;Node60442</title>
<path fill="none" stroke="#191970" d="M556.015,-178.6616C563.1631,-176.0555 570.5007,-172.9095 577,-169.2156 613.6817,-148.3677 649.8192,-114.5178 669.8882,-94.208"/>
<polygon fill="#191970" stroke="#191970" points="672.5337,-96.5078 676.9945,-86.8979 667.5144,-91.6285 672.5337,-96.5078"/>
</g>
<!-- Node60645&#45;&gt;Node60496 -->
<g id="edge54" class="edge">
<title>Node60645&#45;&gt;Node60496</title>
<path fill="none" stroke="#191970" d="M528.8061,-197.9854C542.5142,-216.927 575.3714,-258.7525 613,-281.2156 621.0661,-286.0309 630.2956,-289.7923 639.4164,-292.7136"/>
<polygon fill="#191970" stroke="#191970" points="638.6309,-296.1302 649.2106,-295.5639 640.5869,-289.409 638.6309,-296.1302"/>
</g>
<!-- Node60645&#45;&gt;Node60517 -->
<g id="edge56" class="edge">
<title>Node60645&#45;&gt;Node60517</title>
<path fill="none" stroke="#191970" d="M566.9101,-193.3284C615.8591,-200.0941 695.6546,-214.6616 759,-243.2156 794.3464,-259.1486 829.9261,-287.2459 850.5539,-305.0127"/>
<polygon fill="#191970" stroke="#191970" points="848.363,-307.7465 858.1889,-311.7092 852.9787,-302.4839 848.363,-307.7465"/>
</g>
<!-- Node60645&#45;&gt;Node60627 -->
<g id="edge57" class="edge">
<title>Node60645&#45;&gt;Node60627</title>
<path fill="none" stroke="#191970" d="M545.562,-197.783C555.4004,-201.9611 566.8744,-207.0751 577,-212.2156 593.5167,-220.6007 596.3459,-225.1068 613,-233.2156 624.6862,-238.9056 637.7896,-244.3785 649.6351,-249.0074"/>
<polygon fill="#191970" stroke="#191970" points="648.6403,-252.3743 659.2306,-252.6833 651.1445,-245.8375 648.6403,-252.3743"/>
</g>
</g>
</svg>
