<?xml version="1.0" encoding="UTF-8" standalone="no"?>
<!DOCTYPE svg PUBLIC "-//W3C//DTD SVG 1.1//EN"
 "http://www.w3.org/Graphics/SVG/1.1/DTD/svg11.dtd">
<!-- Generated by graphviz version 2.40.1 (20161225.0304)
 -->
<!-- Title: JS_GetGlobalVarRef Pages: 1 -->
<!--zoomable 995 -->
<svg id="main" version="1.1" xmlns="http://www.w3.org/2000/svg" xmlns:xlink="http://www.w3.org/1999/xlink" xml:space="preserve" onload="init(evt)">
<style type="text/css"><![CDATA[
.edge:hover path { stroke: red; }
.edge:hover polygon { stroke: red; fill: red; }
]]></style>
<script type="text/javascript"><![CDATA[
var edges = document.getElementsByTagName('g');
if (edges && edges.length) {
  for (var i=0;i<edges.length;i++) {
    if (edges[i].id.substr(0,4)=='edge') {
      edges[i].setAttribute('class','edge');
    }
  }
}
]]></script>
        <defs>
                <circle id="rim" cx="0" cy="0" r="7"/>
                <circle id="rim2" cx="0" cy="0" r="3.5"/>
                <g id="zoomPlus">
                        <use xlink:href="#rim" fill="#404040">
                                <set attributeName="fill" to="#808080" begin="zoomplus.mouseover" end="zoomplus.mouseout"/>
                        </use>
                        <path d="M-4,0h8M0,-4v8" fill="none" stroke="white" stroke-width="1.5" pointer-events="none"/>
                </g>
                <g id="zoomMin">
                        <use xlink:href="#rim" fill="#404040">
                                <set attributeName="fill" to="#808080" begin="zoomminus.mouseover" end="zoomminus.mouseout"/>
                        </use>
                        <path d="M-4,0h8" fill="none" stroke="white" stroke-width="1.5" pointer-events="none"/>
                </g>
                <g id="dirArrow">
                        <path fill="none" stroke="white" stroke-width="1.5" d="M0,-3.0v7 M-2.5,-0.5L0,-3.0L2.5,-0.5"/>
                </g>
               <g id="resetDef">
                       <use xlink:href="#rim2" fill="#404040">
                               <set attributeName="fill" to="#808080" begin="reset.mouseover" end="reset.mouseout"/>
                       </use>
               </g>
        </defs>

<script type="text/javascript">
var viewWidth = 574;
var viewHeight = 995;
var sectionId = 'dynsection-615';
</script>
<script xlink:href="svgpan.js"/>
<svg id="graph" class="graph">
<g id="viewport">
<title>JS_GetGlobalVarRef</title>
<!-- Node207778 -->
<g id="node1" class="node">
<title>Node207778</title>
<polygon fill="#bfbfbf" stroke="#000000" points="0,-340.5 0,-359.5 108,-359.5 108,-340.5 0,-340.5"/>
<text text-anchor="middle" x="54" y="-347.5" font-family="Helvetica,sans-Serif" font-size="10.00" fill="#000000">JS_GetGlobalVarRef</text>
</g>
<!-- Node207779 -->
<g id="node2" class="node">
<title>Node207779</title>
<g id="a_node2"><a xlink:href="quickjs_8c.html#ac2894ff4edcdb4e6841bcce9c76081e3" target="_top" xlink:title="JS_CallInternal">
<polygon fill="none" stroke="#000000" points="144,-340.5 144,-359.5 227,-359.5 227,-340.5 144,-340.5"/>
<text text-anchor="middle" x="185.5" y="-347.5" font-family="Helvetica,sans-Serif" font-size="10.00" fill="#000000">JS_CallInternal</text>
</a>
</g>
</g>
<!-- Node207778&#45;&gt;Node207779 -->
<g id="edge1" class="edge">
<title>Node207778&#45;&gt;Node207779</title>
<path fill="none" stroke="#191970" d="M118.3607,-350C127.0208,-350 135.713,-350 143.8361,-350"/>
<polygon fill="#191970" stroke="#191970" points="118.2453,-346.5001 108.2453,-350 118.2453,-353.5001 118.2453,-346.5001"/>
</g>
<!-- Node207779&#45;&gt;Node207779 -->
<g id="edge40" class="edge">
<title>Node207779&#45;&gt;Node207779</title>
<path fill="none" stroke="#191970" d="M161.3186,-369.0292C162.6376,-374.128 170.6981,-378 185.5,-378 208.6055,-378 215.2844,-368.5653 205.5368,-359.7571"/>
<polygon fill="#191970" stroke="#191970" points="164.5776,-370.3148 165.4632,-359.7571 158.187,-367.4582 164.5776,-370.3148"/>
</g>
<!-- Node207780 -->
<g id="node3" class="node">
<title>Node207780</title>
<g id="a_node3"><a xlink:href="quickjs_8c.html#ade71a22dc56e7371392393df663b28b3" target="_top" xlink:title="async_func_resume">
<polygon fill="none" stroke="#000000" points="278,-874.5 278,-893.5 382,-893.5 382,-874.5 278,-874.5"/>
<text text-anchor="middle" x="330" y="-881.5" font-family="Helvetica,sans-Serif" font-size="10.00" fill="#000000">async_func_resume</text>
</a>
</g>
</g>
<!-- Node207779&#45;&gt;Node207780 -->
<g id="edge2" class="edge">
<title>Node207779&#45;&gt;Node207780</title>
<path fill="none" stroke="#191970" d="M190.7489,-369.3972C214.3253,-456.524 310.0372,-810.2275 327.3189,-874.092"/>
<polygon fill="#191970" stroke="#191970" points="194.122,-368.463 188.1314,-359.7244 187.365,-370.2915 194.122,-368.463"/>
</g>
<!-- Node207792 -->
<g id="node8" class="node">
<title>Node207792</title>
<g id="a_node8"><a xlink:href="quickjs_8c.html#a1a4c02a29525d5cb2085dd8bca3af350" target="_top" xlink:title="JS_Call">
<polygon fill="none" stroke="#ff0000" points="304.5,-378.5 304.5,-397.5 355.5,-397.5 355.5,-378.5 304.5,-378.5"/>
<text text-anchor="middle" x="330" y="-385.5" font-family="Helvetica,sans-Serif" font-size="10.00" fill="#000000">JS_Call</text>
</a>
</g>
</g>
<!-- Node207779&#45;&gt;Node207792 -->
<g id="edge7" class="edge">
<title>Node207779&#45;&gt;Node207792</title>
<path fill="none" stroke="#191970" d="M237.3524,-357.1309C263.197,-363.291 292.8346,-371.6885 311.4855,-378.4368"/>
<polygon fill="#191970" stroke="#191970" points="237.8269,-353.6484 227.2954,-354.8052 236.2497,-360.4684 237.8269,-353.6484"/>
</g>
<!-- Node207866 -->
<g id="node29" class="node">
<title>Node207866</title>
<g id="a_node29"><a xlink:href="quickjs_8c.html#ad35594576a14c10812efaf958c99af8a" target="_top" xlink:title="JS_CallConstructorInternal">
<polygon fill="none" stroke="#ff0000" points="263,-264.5 263,-283.5 397,-283.5 397,-264.5 263,-264.5"/>
<text text-anchor="middle" x="330" y="-271.5" font-family="Helvetica,sans-Serif" font-size="10.00" fill="#000000">JS_CallConstructorInternal</text>
</a>
</g>
</g>
<!-- Node207779&#45;&gt;Node207866 -->
<g id="edge34" class="edge">
<title>Node207779&#45;&gt;Node207866</title>
<path fill="none" stroke="#191970" d="M197.5491,-332.5463C212.0695,-317.2145 237.6856,-296.3922 263,-284 263.3258,-283.8405 263.6531,-283.6822 263.9819,-283.525"/>
<polygon fill="#191970" stroke="#191970" points="194.627,-330.572 190.6961,-340.4106 199.9045,-335.1708 194.627,-330.572"/>
</g>
<!-- Node207880 -->
<g id="node30" class="node">
<title>Node207880</title>
<g id="a_node30"><a xlink:href="quickjs_8c.html#a75f6ee5e4235a7dc99889f3d2eb2c147" target="_top" xlink:title="JS_CallFree">
<polygon fill="none" stroke="#ff0000" points="294.5,-302.5 294.5,-321.5 365.5,-321.5 365.5,-302.5 294.5,-302.5"/>
<text text-anchor="middle" x="330" y="-309.5" font-family="Helvetica,sans-Serif" font-size="10.00" fill="#000000">JS_CallFree</text>
</a>
</g>
</g>
<!-- Node207779&#45;&gt;Node207880 -->
<g id="edge36" class="edge">
<title>Node207779&#45;&gt;Node207880</title>
<path fill="none" stroke="#191970" d="M213.6305,-337.1263C236.6733,-329.5295 269.4179,-320.7723 294.3055,-315.4723"/>
<polygon fill="#191970" stroke="#191970" points="212.4119,-333.8441 204.095,-340.4076 214.6897,-340.4632 212.4119,-333.8441"/>
</g>
<!-- Node207781 -->
<g id="node4" class="node">
<title>Node207781</title>
<g id="a_node4"><a xlink:href="quickjs_8c.html#ac90552b1f1659acb3dae9a4c62479a30" target="_top" xlink:title="js_generator_function_call">
<polygon fill="none" stroke="#ff0000" points="434.5,-967.5 434.5,-986.5 564.5,-986.5 564.5,-967.5 434.5,-967.5"/>
<text text-anchor="middle" x="499.5" y="-974.5" font-family="Helvetica,sans-Serif" font-size="10.00" fill="#000000">js_generator_function_call</text>
</a>
</g>
</g>
<!-- Node207780&#45;&gt;Node207781 -->
<g id="edge3" class="edge">
<title>Node207780&#45;&gt;Node207781</title>
<path fill="none" stroke="#191970" d="M348.4671,-900.3133C368.1641,-916.9499 400.8865,-942.4617 433,-958 440.782,-961.7654 449.4469,-964.9157 457.8825,-967.499"/>
<polygon fill="#191970" stroke="#191970" points="350.488,-897.4351 340.6226,-893.5717 345.9255,-902.7439 350.488,-897.4351"/>
</g>
<!-- Node207785 -->
<g id="node5" class="node">
<title>Node207785</title>
<g id="a_node5"><a xlink:href="quickjs_8c.html#a1bf6b62983e8fff99c0a5d5a9f486115" target="_top" xlink:title="js_async_function_resume">
<polygon fill="none" stroke="#ff0000" points="433,-830.5 433,-849.5 566,-849.5 566,-830.5 433,-830.5"/>
<text text-anchor="middle" x="499.5" y="-837.5" font-family="Helvetica,sans-Serif" font-size="10.00" fill="#000000">js_async_function_resume</text>
</a>
</g>
</g>
<!-- Node207780&#45;&gt;Node207785 -->
<g id="edge4" class="edge">
<title>Node207780&#45;&gt;Node207785</title>
<path fill="none" stroke="#191970" d="M376.4651,-871.9383C403.6496,-864.8815 437.4877,-856.0976 462.7928,-849.5287"/>
<polygon fill="#191970" stroke="#191970" points="375.5787,-868.5523 366.779,-874.4527 377.3376,-875.3277 375.5787,-868.5523"/>
</g>
<!-- Node207790 -->
<g id="node6" class="node">
<title>Node207790</title>
<g id="a_node6"><a xlink:href="quickjs_8c.html#a89b019c704a2d2914bc30b30a72040b3" target="_top" xlink:title="js_async_generator\l_resume_next">
<polygon fill="none" stroke="#000000" points="449,-918 449,-948 550,-948 550,-918 449,-918"/>
<text text-anchor="start" x="457" y="-936" font-family="Helvetica,sans-Serif" font-size="10.00" fill="#000000">js_async_generator</text>
<text text-anchor="middle" x="499.5" y="-925" font-family="Helvetica,sans-Serif" font-size="10.00" fill="#000000">_resume_next</text>
</a>
</g>
</g>
<!-- Node207780&#45;&gt;Node207790 -->
<g id="edge5" class="edge">
<title>Node207780&#45;&gt;Node207790</title>
<path fill="none" stroke="#191970" d="M372.9372,-896.4125C396.0226,-903.0862 424.6309,-911.3564 448.805,-918.3448"/>
<polygon fill="#191970" stroke="#191970" points="373.6623,-892.9789 363.0837,-893.564 371.7183,-899.7036 373.6623,-892.9789"/>
</g>
<!-- Node207791 -->
<g id="node7" class="node">
<title>Node207791</title>
<g id="a_node7"><a xlink:href="quickjs_8c.html#ae19867da709929c072f05e90301835a4" target="_top" xlink:title="js_async_generator\l_function_call">
<polygon fill="none" stroke="#ff0000" points="449,-869 449,-899 550,-899 550,-869 449,-869"/>
<text text-anchor="start" x="457" y="-887" font-family="Helvetica,sans-Serif" font-size="10.00" fill="#000000">js_async_generator</text>
<text text-anchor="middle" x="499.5" y="-876" font-family="Helvetica,sans-Serif" font-size="10.00" fill="#000000">_function_call</text>
</a>
</g>
</g>
<!-- Node207780&#45;&gt;Node207791 -->
<g id="edge6" class="edge">
<title>Node207780&#45;&gt;Node207791</title>
<path fill="none" stroke="#191970" d="M392.388,-884C410.9885,-884 431.1368,-884 448.8866,-884"/>
<polygon fill="#191970" stroke="#191970" points="392.2387,-880.5001 382.2387,-884 392.2386,-887.5001 392.2387,-880.5001"/>
</g>
<!-- Node207792&#45;&gt;Node207779 -->
<g id="edge15" class="edge">
<title>Node207792&#45;&gt;Node207779</title>
<path fill="none" stroke="#191970" d="M294.4088,-384.5497C265.8289,-378.469 226.8374,-367.8129 204.095,-359.5924"/>
<polygon fill="#191970" stroke="#191970" points="293.923,-388.0222 304.4179,-386.57 295.3081,-381.1605 293.923,-388.0222"/>
</g>
<!-- Node207792&#45;&gt;Node207785 -->
<g id="edge16" class="edge">
<title>Node207792&#45;&gt;Node207785</title>
<path fill="none" stroke="#191970" d="M332.0847,-407.927C340.4965,-484.64 374.3319,-759.645 433,-821 436.6512,-824.8184 441.0118,-827.8855 445.73,-830.3468"/>
<polygon fill="#191970" stroke="#191970" points="335.5382,-407.3053 330.9903,-397.7362 328.5782,-408.0528 335.5382,-407.3053"/>
</g>
<!-- Node207793 -->
<g id="node9" class="node">
<title>Node207793</title>
<g id="a_node9"><a xlink:href="structqjs_1_1js__traits_3_01std_1_1function_3_01R_07Args_8_8_8_08_4_01_4.html#abc36cacd670b6b5f1773734a0586a02b" target="_top" xlink:title="qjs::js_traits\&lt; std\l::function\&lt; R(Args...)\l\&gt; \&gt;::unwrap">
<polygon fill="none" stroke="#000000" points="445,-392.5 445,-433.5 554,-433.5 554,-392.5 445,-392.5"/>
<text text-anchor="start" x="453" y="-421.5" font-family="Helvetica,sans-Serif" font-size="10.00" fill="#000000">qjs::js_traits&lt; std</text>
<text text-anchor="start" x="453" y="-410.5" font-family="Helvetica,sans-Serif" font-size="10.00" fill="#000000">::function&lt; R(Args...)</text>
<text text-anchor="middle" x="499.5" y="-399.5" font-family="Helvetica,sans-Serif" font-size="10.00" fill="#000000">&gt; &gt;::unwrap</text>
</a>
</g>
</g>
<!-- Node207792&#45;&gt;Node207793 -->
<g id="edge8" class="edge">
<title>Node207792&#45;&gt;Node207793</title>
<path fill="none" stroke="#191970" d="M365.7116,-393.2672C388.6128,-396.645 418.7972,-401.0969 444.6986,-404.9172"/>
<polygon fill="#191970" stroke="#191970" points="366.1471,-389.7936 355.7434,-391.797 365.1256,-396.7187 366.1471,-389.7936"/>
</g>
<!-- Node207794 -->
<g id="node10" class="node">
<title>Node207794</title>
<g id="a_node10"><a xlink:href="quickjs-libc_8c.html#abb1cbe3fdf905e81f603a3a0bfce475a" target="_top" xlink:title="call_handler">
<polygon fill="none" stroke="#ff0000" points="465.5,-354.5 465.5,-373.5 533.5,-373.5 533.5,-354.5 465.5,-354.5"/>
<text text-anchor="middle" x="499.5" y="-361.5" font-family="Helvetica,sans-Serif" font-size="10.00" fill="#000000">call_handler</text>
</a>
</g>
</g>
<!-- Node207792&#45;&gt;Node207794 -->
<g id="edge9" class="edge">
<title>Node207792&#45;&gt;Node207794</title>
<path fill="none" stroke="#191970" d="M365.9702,-382.9069C395.3013,-378.7538 436.4516,-372.9272 465.2948,-368.8432"/>
<polygon fill="#191970" stroke="#191970" points="365.1539,-379.4875 355.7434,-384.3549 366.1354,-386.4183 365.1539,-379.4875"/>
</g>
<!-- Node207799 -->
<g id="node11" class="node">
<title>Node207799</title>
<g id="a_node11"><a xlink:href="quickjs_8c.html#aa049793cc8648d35fe81876a2543ca4e" target="_top" xlink:title="JS_GetIterator2">
<polygon fill="none" stroke="#ff0000" points="456.5,-316.5 456.5,-335.5 542.5,-335.5 542.5,-316.5 456.5,-316.5"/>
<text text-anchor="middle" x="499.5" y="-323.5" font-family="Helvetica,sans-Serif" font-size="10.00" fill="#000000">JS_GetIterator2</text>
</a>
</g>
</g>
<!-- Node207792&#45;&gt;Node207799 -->
<g id="edge10" class="edge">
<title>Node207792&#45;&gt;Node207799</title>
<path fill="none" stroke="#191970" d="M365.3423,-376.395C375.6658,-372.723 386.8882,-368.4527 397,-364 413.5575,-356.709 416.2121,-351.7435 433,-345 441.9135,-341.4196 451.7502,-338.2214 461.0626,-335.5163"/>
<polygon fill="#191970" stroke="#191970" points="364.0809,-373.128 355.7855,-379.7188 366.3804,-379.7396 364.0809,-373.128"/>
</g>
<!-- Node207821 -->
<g id="node12" class="node">
<title>Node207821</title>
<g id="a_node12"><a xlink:href="quickjs_8c.html#ad6303fbd3add4afa0cb64b0aa6d431ce" target="_top" xlink:title="JS_IteratorNext2">
<polygon fill="none" stroke="#ff0000" points="454,-278.5 454,-297.5 545,-297.5 545,-278.5 454,-278.5"/>
<text text-anchor="middle" x="499.5" y="-285.5" font-family="Helvetica,sans-Serif" font-size="10.00" fill="#000000">JS_IteratorNext2</text>
</a>
</g>
</g>
<!-- Node207792&#45;&gt;Node207821 -->
<g id="edge11" class="edge">
<title>Node207792&#45;&gt;Node207821</title>
<path fill="none" stroke="#191970" d="M365.3224,-380.1664C376.2689,-376.5326 387.8475,-371.3368 397,-364 420.3787,-345.2593 409.0187,-324.9631 433,-307 439.1505,-302.393 446.3819,-298.902 453.7695,-296.257"/>
<polygon fill="#191970" stroke="#191970" points="364.1201,-376.8724 355.5349,-383.081 366.118,-383.5813 364.1201,-376.8724"/>
</g>
<!-- Node207825 -->
<g id="node13" class="node">
<title>Node207825</title>
<g id="a_node13"><a xlink:href="quickjs_8c.html#a62424fefab7bcc97f49c978205c7a1c1" target="_top" xlink:title="js_for_await_of_next">
<polygon fill="none" stroke="#000000" points="446,-792.5 446,-811.5 553,-811.5 553,-792.5 446,-792.5"/>
<text text-anchor="middle" x="499.5" y="-799.5" font-family="Helvetica,sans-Serif" font-size="10.00" fill="#000000">js_for_await_of_next</text>
</a>
</g>
</g>
<!-- Node207792&#45;&gt;Node207825 -->
<g id="edge12" class="edge">
<title>Node207792&#45;&gt;Node207825</title>
<path fill="none" stroke="#191970" d="M337.5257,-407.4189C351.0233,-442.8427 379.5623,-520.5268 397,-588 419.052,-673.3277 373.7352,-717.7712 433,-783 436.6334,-786.9991 441.0443,-790.1793 445.847,-792.705"/>
<polygon fill="#191970" stroke="#191970" points="340.7,-405.9215 333.8486,-397.8401 334.1649,-408.4303 340.7,-405.9215"/>
</g>
<!-- Node207826 -->
<g id="node14" class="node">
<title>Node207826</title>
<g id="a_node14"><a xlink:href="quickjs_8c.html#afd4ef2d701fa0702f321925b61c57bbf" target="_top" xlink:title="js_call_bound_function">
<polygon fill="none" stroke="#ff0000" points="441.5,-240.5 441.5,-259.5 557.5,-259.5 557.5,-240.5 441.5,-240.5"/>
<text text-anchor="middle" x="499.5" y="-247.5" font-family="Helvetica,sans-Serif" font-size="10.00" fill="#000000">js_call_bound_function</text>
</a>
</g>
</g>
<!-- Node207792&#45;&gt;Node207826 -->
<g id="edge14" class="edge">
<title>Node207792&#45;&gt;Node207826</title>
<path fill="none" stroke="#191970" d="M365.3781,-381.4933C376.6487,-377.9274 388.4083,-372.4362 397,-364 429.2175,-332.3654 399.7613,-299.5599 433,-269 437.2427,-265.0992 442.2323,-261.9932 447.5396,-259.5212"/>
<polygon fill="#191970" stroke="#191970" points="364.4055,-378.1308 355.6914,-384.157 366.2615,-384.8802 364.4055,-378.1308"/>
</g>
<!-- Node207827 -->
<g id="node15" class="node">
<title>Node207827</title>
<g id="a_node15"><a xlink:href="quickjs_8c.html#a3e852026d167fa03c673f86697dd3e67" target="_top" xlink:title="js_async_generator\l_resolve_or_reject">
<polygon fill="none" stroke="#ff0000" points="449,-191 449,-221 550,-221 550,-191 449,-191"/>
<text text-anchor="start" x="457" y="-209" font-family="Helvetica,sans-Serif" font-size="10.00" fill="#000000">js_async_generator</text>
<text text-anchor="middle" x="499.5" y="-198" font-family="Helvetica,sans-Serif" font-size="10.00" fill="#000000">_resolve_or_reject</text>
</a>
</g>
</g>
<!-- Node207792&#45;&gt;Node207827 -->
<g id="edge17" class="edge">
<title>Node207792&#45;&gt;Node207827</title>
<path fill="none" stroke="#191970" d="M365.5957,-382.049C376.9874,-378.5241 388.7665,-372.9166 397,-364 438.5441,-319.0088 391.8086,-276.3144 433,-231 437.48,-226.0715 443.029,-222.1099 448.9965,-218.9265"/>
<polygon fill="#191970" stroke="#191970" points="364.5576,-378.7031 355.7834,-384.6414 366.3457,-385.4709 364.5576,-378.7031"/>
</g>
<!-- Node207830 -->
<g id="node16" class="node">
<title>Node207830</title>
<g id="a_node16"><a xlink:href="quickjs_8c.html#a2355fabf91f59212ea65baba1b0b7c1b" target="_top" xlink:title="js_async_generator_next">
<polygon fill="none" stroke="#000000" points="437,-152.5 437,-171.5 562,-171.5 562,-152.5 437,-152.5"/>
<text text-anchor="middle" x="499.5" y="-159.5" font-family="Helvetica,sans-Serif" font-size="10.00" fill="#000000">js_async_generator_next</text>
</a>
</g>
</g>
<!-- Node207792&#45;&gt;Node207830 -->
<g id="edge18" class="edge">
<title>Node207792&#45;&gt;Node207830</title>
<path fill="none" stroke="#191970" d="M365.6823,-382.4491C377.1883,-378.957 389.0169,-373.268 397,-364 450.8136,-301.5251 377.5859,-243.0597 433,-182 436.9701,-177.6255 441.8566,-174.1929 447.1634,-171.5018"/>
<polygon fill="#191970" stroke="#191970" points="364.5797,-379.1184 355.7588,-384.9871 366.3142,-385.9001 364.5797,-379.1184"/>
</g>
<!-- Node207831 -->
<g id="node17" class="node">
<title>Node207831</title>
<g id="a_node17"><a xlink:href="quickjs_8c.html#a6357b7fdae71c70c140e78e6c20cb5c2" target="_top" xlink:title="js_dynamic_import_job">
<polygon fill="none" stroke="#ff0000" points="441.5,-114.5 441.5,-133.5 557.5,-133.5 557.5,-114.5 441.5,-114.5"/>
<text text-anchor="middle" x="499.5" y="-121.5" font-family="Helvetica,sans-Serif" font-size="10.00" fill="#000000">js_dynamic_import_job</text>
</a>
</g>
</g>
<!-- Node207792&#45;&gt;Node207831 -->
<g id="edge19" class="edge">
<title>Node207792&#45;&gt;Node207831</title>
<path fill="none" stroke="#191970" d="M365.5904,-382.681C377.1973,-379.21 389.1135,-373.475 397,-364 460.6643,-287.5117 366.859,-217.357 433,-143 436.4315,-139.1423 440.5864,-136.0444 445.1249,-133.5601"/>
<polygon fill="#191970" stroke="#191970" points="364.4306,-379.3632 355.579,-385.1855 366.1295,-386.1539 364.4306,-379.3632"/>
</g>
<!-- Node207833 -->
<g id="node18" class="node">
<title>Node207833</title>
<g id="a_node18"><a xlink:href="quickjs_8c.html#a8d4b24969540aff427939eeda47f451d" target="_top" xlink:title="js_function_apply">
<polygon fill="none" stroke="#ff0000" points="453.5,-76.5 453.5,-95.5 545.5,-95.5 545.5,-76.5 453.5,-76.5"/>
<text text-anchor="middle" x="499.5" y="-83.5" font-family="Helvetica,sans-Serif" font-size="10.00" fill="#000000">js_function_apply</text>
</a>
</g>
</g>
<!-- Node207792&#45;&gt;Node207833 -->
<g id="edge20" class="edge">
<title>Node207792&#45;&gt;Node207833</title>
<path fill="none" stroke="#191970" d="M365.7146,-382.7832C377.3331,-379.3217 389.2248,-373.5665 397,-364 470.2998,-273.813 356.7789,-192.7321 433,-105 438.3549,-98.8364 445.557,-94.6066 453.2472,-91.7183"/>
<polygon fill="#191970" stroke="#191970" points="364.5474,-379.4666 355.6852,-385.2729 366.2339,-386.2605 364.5474,-379.4666"/>
</g>
<!-- Node207836 -->
<g id="node19" class="node">
<title>Node207836</title>
<g id="a_node19"><a xlink:href="quickjs_8c.html#a677ad630a103e1f3d5129e0549112b50" target="_top" xlink:title="js_function_call">
<polygon fill="none" stroke="#000000" points="457.5,-754.5 457.5,-773.5 541.5,-773.5 541.5,-754.5 457.5,-754.5"/>
<text text-anchor="middle" x="499.5" y="-761.5" font-family="Helvetica,sans-Serif" font-size="10.00" fill="#000000">js_function_call</text>
</a>
</g>
</g>
<!-- Node207792&#45;&gt;Node207836 -->
<g id="edge22" class="edge">
<title>Node207792&#45;&gt;Node207836</title>
<path fill="none" stroke="#191970" d="M337.241,-407.4957C350.2837,-443.0423 378.1211,-520.9157 397,-588 416.3933,-656.9118 383.7356,-693.0582 433,-745 439.5276,-751.8824 448.3593,-756.3264 457.4513,-759.1816"/>
<polygon fill="#191970" stroke="#191970" points="340.4392,-406.0524 333.6945,-397.8817 333.8718,-408.4751 340.4392,-406.0524"/>
</g>
<!-- Node207802 -->
<g id="node20" class="node">
<title>Node207802</title>
<g id="a_node20"><a xlink:href="quickjs_8c.html#a5e32da9a43002cb96dcbd62a1a340144" target="_top" xlink:title="js_array_from">
<polygon fill="none" stroke="#000000" points="461.5,-716.5 461.5,-735.5 537.5,-735.5 537.5,-716.5 461.5,-716.5"/>
<text text-anchor="middle" x="499.5" y="-723.5" font-family="Helvetica,sans-Serif" font-size="10.00" fill="#000000">js_array_from</text>
</a>
</g>
</g>
<!-- Node207792&#45;&gt;Node207802 -->
<g id="edge23" class="edge">
<title>Node207792&#45;&gt;Node207802</title>
<path fill="none" stroke="#191970" d="M336.6153,-407.1229C348.8581,-442.6484 375.7386,-521.284 397,-588 413.7779,-640.6473 393.627,-668.2314 433,-707 440.6146,-714.4977 450.9722,-719.0786 461.2452,-721.8646"/>
<polygon fill="#191970" stroke="#191970" points="339.8797,-405.8532 333.3081,-397.5427 333.2629,-408.1374 339.8797,-405.8532"/>
</g>
<!-- Node207817 -->
<g id="node21" class="node">
<title>Node207817</title>
<g id="a_node21"><a xlink:href="quickjs_8c.html#aa0bbf08a7e91459c68a312fba7016c6d" target="_top" xlink:title="js_array_every">
<polygon fill="none" stroke="#000000" points="459.5,-678.5 459.5,-697.5 539.5,-697.5 539.5,-678.5 459.5,-678.5"/>
<text text-anchor="middle" x="499.5" y="-685.5" font-family="Helvetica,sans-Serif" font-size="10.00" fill="#000000">js_array_every</text>
</a>
</g>
</g>
<!-- Node207792&#45;&gt;Node207817 -->
<g id="edge24" class="edge">
<title>Node207792&#45;&gt;Node207817</title>
<path fill="none" stroke="#191970" d="M336.5433,-407.3208C357.5972,-469.2814 422.8129,-659.531 433,-669 440.2996,-675.785 449.8562,-680.1675 459.4389,-682.9923"/>
<polygon fill="#191970" stroke="#191970" points="339.7776,-405.9597 333.2501,-397.6145 333.1487,-408.2089 339.7776,-405.9597"/>
</g>
<!-- Node207837 -->
<g id="node22" class="node">
<title>Node207837</title>
<g id="a_node22"><a xlink:href="quickjs_8c.html#a36c1692489542a86dd79a7d39ab8ff95" target="_top" xlink:title="js_array_reduce">
<polygon fill="none" stroke="#000000" points="456.5,-640.5 456.5,-659.5 542.5,-659.5 542.5,-640.5 456.5,-640.5"/>
<text text-anchor="middle" x="499.5" y="-647.5" font-family="Helvetica,sans-Serif" font-size="10.00" fill="#000000">js_array_reduce</text>
</a>
</g>
</g>
<!-- Node207792&#45;&gt;Node207837 -->
<g id="edge25" class="edge">
<title>Node207792&#45;&gt;Node207837</title>
<path fill="none" stroke="#191970" d="M335.8036,-407.3014C351.7383,-459.1162 397.3498,-599.4734 433,-631 439.566,-636.8066 447.7947,-640.8465 456.204,-643.6553"/>
<polygon fill="#191970" stroke="#191970" points="339.129,-406.2066 332.868,-397.6597 332.4325,-408.2455 339.129,-406.2066"/>
</g>
<!-- Node207838 -->
<g id="node23" class="node">
<title>Node207838</title>
<g id="a_node23"><a xlink:href="quickjs_8c.html#a9dd41b086da4e13b3487cc9c6e2af2b8" target="_top" xlink:title="js_array_find">
<polygon fill="none" stroke="#000000" points="463.5,-602.5 463.5,-621.5 535.5,-621.5 535.5,-602.5 463.5,-602.5"/>
<text text-anchor="middle" x="499.5" y="-609.5" font-family="Helvetica,sans-Serif" font-size="10.00" fill="#000000">js_array_find</text>
</a>
</g>
</g>
<!-- Node207792&#45;&gt;Node207838 -->
<g id="edge26" class="edge">
<title>Node207792&#45;&gt;Node207838</title>
<path fill="none" stroke="#191970" d="M334.2704,-407.7068C344.1682,-448.587 372.5889,-542.9626 433,-593 441.5998,-600.123 452.7275,-604.5782 463.4115,-607.3639"/>
<polygon fill="#191970" stroke="#191970" points="337.6634,-406.8442 332.0048,-397.8871 330.8426,-408.418 337.6634,-406.8442"/>
</g>
<!-- Node207839 -->
<g id="node24" class="node">
<title>Node207839</title>
<g id="a_node24"><a xlink:href="quickjs_8c.html#ad90c33b4aae1181151bda4a98ac2ef23" target="_top" xlink:title="JS_FlattenIntoArray">
<polygon fill="none" stroke="#ff0000" points="447.5,-546.5 447.5,-565.5 551.5,-565.5 551.5,-546.5 447.5,-546.5"/>
<text text-anchor="middle" x="499.5" y="-553.5" font-family="Helvetica,sans-Serif" font-size="10.00" fill="#000000">JS_FlattenIntoArray</text>
</a>
</g>
</g>
<!-- Node207792&#45;&gt;Node207839 -->
<g id="edge27" class="edge">
<title>Node207792&#45;&gt;Node207839</title>
<path fill="none" stroke="#191970" d="M338.028,-407.2333C352.3239,-439.1074 385.2437,-502.7529 433,-537 438.3666,-540.8485 444.4968,-543.9204 450.8147,-546.3717"/>
<polygon fill="#191970" stroke="#191970" points="341.0942,-405.5072 333.8992,-397.7302 334.6739,-408.2967 341.0942,-405.5072"/>
</g>
<!-- Node207841 -->
<g id="node25" class="node">
<title>Node207841</title>
<g id="a_node25"><a xlink:href="quickjs_8c.html#aed1bf9ce4b9e3a82388679dd6ec7635b" target="_top" xlink:title="js_string_replace">
<polygon fill="none" stroke="#000000" points="454.5,-38.5 454.5,-57.5 544.5,-57.5 544.5,-38.5 454.5,-38.5"/>
<text text-anchor="middle" x="499.5" y="-45.5" font-family="Helvetica,sans-Serif" font-size="10.00" fill="#000000">js_string_replace</text>
</a>
</g>
</g>
<!-- Node207792&#45;&gt;Node207841 -->
<g id="edge29" class="edge">
<title>Node207792&#45;&gt;Node207841</title>
<path fill="none" stroke="#191970" d="M355.7835,-372.8288C370.3369,-362.8465 387.4685,-348.4185 397,-331 453.8458,-227.117 355.4507,-156.4942 433,-67 438.5828,-60.5573 446.1841,-56.2268 454.2547,-53.3324"/>
<polygon fill="#191970" stroke="#191970" points="353.6138,-370.065 347.1461,-378.4566 357.4353,-375.9299 353.6138,-370.065"/>
</g>
<!-- Node207842 -->
<g id="node26" class="node">
<title>Node207842</title>
<g id="a_node26"><a xlink:href="quickjs_8c.html#a624282391413d4c5a030adbd8b77aa80" target="_top" xlink:title="internalize_json_property">
<polygon fill="none" stroke="#ff0000" points="437,-490.5 437,-509.5 562,-509.5 562,-490.5 437,-490.5"/>
<text text-anchor="middle" x="499.5" y="-497.5" font-family="Helvetica,sans-Serif" font-size="10.00" fill="#000000">internalize_json_property</text>
</a>
</g>
</g>
<!-- Node207792&#45;&gt;Node207842 -->
<g id="edge30" class="edge">
<title>Node207792&#45;&gt;Node207842</title>
<path fill="none" stroke="#191970" d="M344.7694,-405.5222C363.3129,-426.4365 397.0752,-461.0764 433,-481 439.9303,-484.8435 447.7072,-487.968 455.4336,-490.4889"/>
<polygon fill="#191970" stroke="#191970" points="347.2051,-402.989 338.0056,-397.7336 341.9199,-407.5788 347.2051,-402.989"/>
</g>
<!-- Node207844 -->
<g id="node27" class="node">
<title>Node207844</title>
<g id="a_node27"><a xlink:href="quickjs_8c.html#a0da6493b4bc0edb7ddddfab807241d0b" target="_top" xlink:title="js_json_check">
<polygon fill="none" stroke="#ff0000" points="460,-.5 460,-19.5 539,-19.5 539,-.5 460,-.5"/>
<text text-anchor="middle" x="499.5" y="-7.5" font-family="Helvetica,sans-Serif" font-size="10.00" fill="#000000">js_json_check</text>
</a>
</g>
</g>
<!-- Node207792&#45;&gt;Node207844 -->
<g id="edge32" class="edge">
<title>Node207792&#45;&gt;Node207844</title>
<path fill="none" stroke="#191970" d="M355.8906,-372.8868C370.4819,-362.9251 387.6158,-348.4983 397,-331 460.8847,-211.8768 345.3449,-131.8989 433,-29 439.774,-21.0479 449.6242,-16.3064 459.6773,-13.5117"/>
<polygon fill="#191970" stroke="#191970" points="353.7158,-370.1253 347.226,-378.4999 357.5217,-376.0003 353.7158,-370.1253"/>
</g>
<!-- Node207848 -->
<g id="node28" class="node">
<title>Node207848</title>
<g id="a_node28"><a xlink:href="quickjs_8c.html#af97646b66d6fcb8bd19543d93baeadd7" target="_top" xlink:title="js_proxy_call_constructor">
<polygon fill="none" stroke="#ff0000" points="435.5,-452.5 435.5,-471.5 563.5,-471.5 563.5,-452.5 435.5,-452.5"/>
<text text-anchor="middle" x="499.5" y="-459.5" font-family="Helvetica,sans-Serif" font-size="10.00" fill="#000000">js_proxy_call_constructor</text>
</a>
</g>
</g>
<!-- Node207792&#45;&gt;Node207848 -->
<g id="edge33" class="edge">
<title>Node207792&#45;&gt;Node207848</title>
<path fill="none" stroke="#191970" d="M354.2006,-402.8192C374.6373,-414.8649 404.9699,-431.6618 433,-443 441.7935,-446.557 451.4925,-449.728 460.7008,-452.4125"/>
<polygon fill="#191970" stroke="#191970" points="355.9314,-399.7763 345.551,-397.6557 352.3434,-405.7868 355.9314,-399.7763"/>
</g>
<!-- Node207825&#45;&gt;Node207779 -->
<g id="edge13" class="edge">
<title>Node207825&#45;&gt;Node207779</title>
<path fill="none" stroke="#191970" d="M440.3504,-787.9188C437.7708,-786.4399 435.3033,-784.8058 433,-783 277.296,-660.927 202.3658,-411.8041 188.0642,-359.6903"/>
<polygon fill="#191970" stroke="#191970" points="438.9552,-791.1323 449.4772,-792.3721 442.0249,-784.8413 438.9552,-791.1323"/>
</g>
<!-- Node207833&#45;&gt;Node207779 -->
<g id="edge21" class="edge">
<title>Node207833&#45;&gt;Node207779</title>
<path fill="none" stroke="#191970" d="M443.9527,-96.201C439.8686,-98.572 436.131,-101.4676 433,-105 365.5344,-181.1149 471.3365,-261.5798 397,-331 351.3292,-373.6503 273.4173,-368.1517 225.9801,-359.5664"/>
<polygon fill="#191970" stroke="#191970" points="445.7723,-99.2138 453.3458,-91.8047 442.805,-92.8738 445.7723,-99.2138"/>
</g>
<!-- Node207839&#45;&gt;Node207839 -->
<g id="edge28" class="edge">
<title>Node207839&#45;&gt;Node207839</title>
<path fill="none" stroke="#191970" d="M468.0629,-574.2746C468.9592,-579.741 479.4382,-584 499.5,-584 529.3594,-584 537.9906,-574.5653 525.3937,-565.7571"/>
<polygon fill="#191970" stroke="#191970" points="471.085,-576.0475 473.6063,-565.7571 465.2181,-572.2291 471.085,-576.0475"/>
</g>
<!-- Node207842&#45;&gt;Node207842 -->
<g id="edge31" class="edge">
<title>Node207842&#45;&gt;Node207842</title>
<path fill="none" stroke="#191970" d="M468.0629,-518.2746C468.9592,-523.741 479.4382,-528 499.5,-528 529.3594,-528 537.9906,-518.5653 525.3937,-509.7571"/>
<polygon fill="#191970" stroke="#191970" points="471.085,-520.0475 473.6063,-509.7571 465.2181,-516.2291 471.085,-520.0475"/>
</g>
<!-- Node207866&#45;&gt;Node207779 -->
<g id="edge35" class="edge">
<title>Node207866&#45;&gt;Node207779</title>
<path fill="none" stroke="#191970" d="M305.6333,-286.6763C292.5753,-290.7533 276.4528,-295.4145 263,-302 241.3984,-312.5746 219.5771,-329.288 204.6182,-340.2863"/>
<polygon fill="#191970" stroke="#191970" points="306.9199,-289.9381 315.3391,-283.5063 304.7466,-283.284 306.9199,-289.9381"/>
</g>
<!-- Node207880&#45;&gt;Node207779 -->
<g id="edge37" class="edge">
<title>Node207880&#45;&gt;Node207779</title>
<path fill="none" stroke="#191970" d="M301.7961,-324.8979C280.5982,-331.8825 251.2201,-339.8432 227.2954,-345.1948"/>
<polygon fill="#191970" stroke="#191970" points="303.1689,-328.127 311.4855,-321.5632 300.8909,-321.508 303.1689,-328.127"/>
</g>
<!-- Node207880&#45;&gt;Node207841 -->
<g id="edge39" class="edge">
<title>Node207880&#45;&gt;Node207841</title>
<path fill="none" stroke="#191970" d="M375.4133,-306.6486C383.5737,-303.7571 391.2871,-299.4326 397,-293 464.5406,-216.9517 365.5344,-143.1149 433,-67 438.6547,-60.6203 446.288,-56.3179 454.3674,-53.4312"/>
<polygon fill="#191970" stroke="#191970" points="374.3708,-303.3063 365.7214,-309.425 376.2986,-310.0357 374.3708,-303.3063"/>
</g>
<!-- Node207880&#45;&gt;Node207844 -->
<g id="edge38" class="edge">
<title>Node207880&#45;&gt;Node207844</title>
<path fill="none" stroke="#191970" d="M375.5267,-306.7482C383.6784,-303.8491 391.3596,-299.4962 397,-293 474.6376,-203.5823 355.4507,-118.4942 433,-29 439.8409,-21.1054 449.7125,-16.3823 459.7647,-13.5868"/>
<polygon fill="#191970" stroke="#191970" points="374.4844,-303.4059 365.8353,-309.525 376.4125,-310.1351 374.4844,-303.4059"/>
</g>
</g>
</svg>
        <g id="navigator" transform="translate(0 0)" fill="#404254">
                <rect fill="#f2f5e9" fill-opacity="0.5" stroke="#606060" stroke-width=".5" x="0" y="0" width="60" height="60"/>
                <use id="zoomplus" xlink:href="#zoomPlus" x="17" y="9" onmousedown="handleZoom(evt,'in')"/>
                <use id="zoomminus" xlink:href="#zoomMin" x="42" y="9" onmousedown="handleZoom(evt,'out')"/>
                <use id="reset" xlink:href="#resetDef" x="30" y="36" onmousedown="handleReset()"/>
                <g id="arrowUp" xlink:href="#dirArrow" transform="translate(30 24)" onmousedown="handlePan(0,-1)">
                  <use xlink:href="#rim" fill="#404040">
                        <set attributeName="fill" to="#808080" begin="arrowUp.mouseover" end="arrowUp.mouseout"/>
                  </use>
                  <path fill="none" stroke="white" stroke-width="1.5" d="M0,-3.0v7 M-2.5,-0.5L0,-3.0L2.5,-0.5"/>
                </g>
                <g id="arrowRight" xlink:href="#dirArrow" transform="rotate(90) translate(36 -43)" onmousedown="handlePan(1,0)">
                  <use xlink:href="#rim" fill="#404040">
                        <set attributeName="fill" to="#808080" begin="arrowRight.mouseover" end="arrowRight.mouseout"/>
                  </use>
                  <path fill="none" stroke="white" stroke-width="1.5" d="M0,-3.0v7 M-2.5,-0.5L0,-3.0L2.5,-0.5"/>
                </g>
                <g id="arrowDown" xlink:href="#dirArrow" transform="rotate(180) translate(-30 -48)" onmousedown="handlePan(0,1)">
                  <use xlink:href="#rim" fill="#404040">
                        <set attributeName="fill" to="#808080" begin="arrowDown.mouseover" end="arrowDown.mouseout"/>
                  </use>
                  <path fill="none" stroke="white" stroke-width="1.5" d="M0,-3.0v7 M-2.5,-0.5L0,-3.0L2.5,-0.5"/>
                </g>
                <g id="arrowLeft" xlink:href="#dirArrow" transform="rotate(270) translate(-36 17)" onmousedown="handlePan(-1,0)">
                  <use xlink:href="#rim" fill="#404040">
                        <set attributeName="fill" to="#808080" begin="arrowLeft.mouseover" end="arrowLeft.mouseout"/>
                  </use>
                  <path fill="none" stroke="white" stroke-width="1.5" d="M0,-3.0v7 M-2.5,-0.5L0,-3.0L2.5,-0.5"/>
                </g>
        </g>
        <svg viewBox="0 0 15 15" width="100%" height="30px" preserveAspectRatio="xMaxYMin meet">
         <g id="arrow_out" transform="scale(0.3 0.3)">
          <a xlink:href="quickjs_8c_a541a07ee8f5d72f230f97472ec9e42dd_icgraph_org.svg" target="_base">
           <rect id="button" ry="5" rx="5" y="6" x="6" height="38" width="38"
                fill="#f2f5e9" fill-opacity="0.5" stroke="#606060" stroke-width="1.0"/>
           <path id="arrow"
             d="M 11.500037,31.436501 C 11.940474,20.09759 22.043105,11.32322 32.158766,21.979434 L 37.068811,17.246167 C 37.068811,17.246167 37.088388,32 37.088388,32 L 22.160133,31.978069 C 22.160133,31.978069 26.997745,27.140456 26.997745,27.140456 C 18.528582,18.264221 13.291696,25.230495 11.500037,31.436501 z"
             style="fill:#404040;"/>
          </a>
         </g>
        </svg>
</svg>
