<?xml version="1.0" encoding="UTF-8" standalone="no"?>
<!DOCTYPE svg PUBLIC "-//W3C//DTD SVG 1.1//EN"
 "http://www.w3.org/Graphics/SVG/1.1/DTD/svg11.dtd">
<!-- Generated by graphviz version 2.40.1 (20161225.0304)
 -->
<!-- Title: JS_DumpObject Pages: 1 -->
<svg width="542pt" height="142pt"
 viewBox="0.00 0.00 542.00 142.00" xmlns="http://www.w3.org/2000/svg" xmlns:xlink="http://www.w3.org/1999/xlink">
<g id="graph0" class="graph" transform="scale(1 1) rotate(0) translate(4 138)">
<title>JS_DumpObject</title>
<!-- Node247266 -->
<g id="node1" class="node">
<title>Node247266</title>
<polygon fill="#bfbfbf" stroke="#000000" points="0,-57.5 0,-76.5 89,-76.5 89,-57.5 0,-57.5"/>
<text text-anchor="middle" x="44.5" y="-64.5" font-family="Helvetica,sans-Serif" font-size="10.00" fill="#000000">JS_DumpObject</text>
</g>
<!-- Node247267 -->
<g id="node2" class="node">
<title>Node247267</title>
<g id="a_node2"><a xlink:href="quickjs_8c.html#a643df594b75933007bcdbb071b5ea8c5" target="_top" xlink:title="get_shape_prop">
<polygon fill="none" stroke="#000000" points="141.5,-114.5 141.5,-133.5 227.5,-133.5 227.5,-114.5 141.5,-114.5"/>
<text text-anchor="middle" x="184.5" y="-121.5" font-family="Helvetica,sans-Serif" font-size="10.00" fill="#000000">get_shape_prop</text>
</a>
</g>
</g>
<!-- Node247266&#45;&gt;Node247267 -->
<g id="edge1" class="edge">
<title>Node247266&#45;&gt;Node247267</title>
<path fill="none" stroke="#191970" d="M67.7356,-76.5657C83.8074,-83.1722 105.6913,-92.1482 125,-100 133.5463,-103.4753 142.7909,-107.2141 151.3874,-110.6822"/>
<polygon fill="#191970" stroke="#191970" points="150.1625,-113.962 160.7459,-114.4542 152.7793,-107.4696 150.1625,-113.962"/>
</g>
<!-- Node247268 -->
<g id="node3" class="node">
<title>Node247268</title>
<g id="a_node3"><a xlink:href="quickjs_8c.html#a4e63c63058f1efe20ee939c165f7b3ad" target="_top" xlink:title="JS_AtomGetStrRT">
<polygon fill="none" stroke="#000000" points="280,-57.5 280,-76.5 379,-76.5 379,-57.5 280,-57.5"/>
<text text-anchor="middle" x="329.5" y="-64.5" font-family="Helvetica,sans-Serif" font-size="10.00" fill="#000000">JS_AtomGetStrRT</text>
</a>
</g>
</g>
<!-- Node247266&#45;&gt;Node247268 -->
<g id="edge2" class="edge">
<title>Node247266&#45;&gt;Node247268</title>
<path fill="none" stroke="#191970" d="M89.0313,-67C137.5664,-67 215.4899,-67 269.4173,-67"/>
<polygon fill="#191970" stroke="#191970" points="269.5307,-70.5001 279.5307,-67 269.5306,-63.5001 269.5307,-70.5001"/>
</g>
<!-- Node247273 -->
<g id="node8" class="node">
<title>Node247273</title>
<g id="a_node8"><a xlink:href="quickjs_8c.html#a76e95dd1ab1d7cb4b9407d2ad41ee119" target="_top" xlink:title="js_class_has_bytecode">
<polygon fill="none" stroke="#000000" points="125,-38.5 125,-57.5 244,-57.5 244,-38.5 125,-38.5"/>
<text text-anchor="middle" x="184.5" y="-45.5" font-family="Helvetica,sans-Serif" font-size="10.00" fill="#000000">js_class_has_bytecode</text>
</a>
</g>
</g>
<!-- Node247266&#45;&gt;Node247273 -->
<g id="edge7" class="edge">
<title>Node247266&#45;&gt;Node247273</title>
<path fill="none" stroke="#191970" d="M89.1818,-60.936C97.3492,-59.8276 106.048,-58.6471 114.7419,-57.4672"/>
<polygon fill="#191970" stroke="#191970" points="115.4748,-60.8999 124.9133,-56.0868 114.5334,-53.9635 115.4748,-60.8999"/>
</g>
<!-- Node247274 -->
<g id="node9" class="node">
<title>Node247274</title>
<g id="a_node9"><a xlink:href="quickjs_8c.html#a42ffceed2bd5abf49dd5f2f7c3404c8c" target="_top" xlink:title="JS_DumpValueShort">
<polygon fill="none" stroke="#000000" points="130.5,-.5 130.5,-19.5 238.5,-19.5 238.5,-.5 130.5,-.5"/>
<text text-anchor="middle" x="184.5" y="-7.5" font-family="Helvetica,sans-Serif" font-size="10.00" fill="#000000">JS_DumpValueShort</text>
</a>
</g>
</g>
<!-- Node247266&#45;&gt;Node247274 -->
<g id="edge8" class="edge">
<title>Node247266&#45;&gt;Node247274</title>
<path fill="none" stroke="#191970" d="M63.0593,-57.3805C79.1804,-49.2336 103.2859,-37.5489 125,-29 130.4943,-26.8369 136.3433,-24.7344 142.1475,-22.7645"/>
<polygon fill="#191970" stroke="#191970" points="143.3978,-26.0378 151.8027,-19.5873 141.2097,-19.3885 143.3978,-26.0378"/>
</g>
<!-- Node247269 -->
<g id="node4" class="node">
<title>Node247269</title>
<g id="a_node4"><a xlink:href="quickjs_8c.html#a288254c06a39c9fca740a7abdad2834e" target="_top" xlink:title="__JS_AtomIsTaggedInt">
<polygon fill="none" stroke="#000000" points="415,-114.5 415,-133.5 534,-133.5 534,-114.5 415,-114.5"/>
<text text-anchor="middle" x="474.5" y="-121.5" font-family="Helvetica,sans-Serif" font-size="10.00" fill="#000000">__JS_AtomIsTaggedInt</text>
</a>
</g>
</g>
<!-- Node247268&#45;&gt;Node247269 -->
<g id="edge3" class="edge">
<title>Node247268&#45;&gt;Node247269</title>
<path fill="none" stroke="#191970" d="M349.2822,-76.5309C366.4484,-84.6223 392.076,-96.2755 415,-105 420.6484,-107.1497 426.6576,-109.264 432.6028,-111.2563"/>
<polygon fill="#191970" stroke="#191970" points="431.8801,-114.7021 442.4725,-114.4789 434.0528,-108.0478 431.8801,-114.7021"/>
</g>
<!-- Node247270 -->
<g id="node5" class="node">
<title>Node247270</title>
<g id="a_node5"><a xlink:href="quickjs_8c.html#a89f38938cee8077ce1fbba07946ed185" target="_top" xlink:title="__JS_AtomToUInt32">
<polygon fill="none" stroke="#000000" points="420.5,-76.5 420.5,-95.5 528.5,-95.5 528.5,-76.5 420.5,-76.5"/>
<text text-anchor="middle" x="474.5" y="-83.5" font-family="Helvetica,sans-Serif" font-size="10.00" fill="#000000">__JS_AtomToUInt32</text>
</a>
</g>
</g>
<!-- Node247268&#45;&gt;Node247270 -->
<g id="edge4" class="edge">
<title>Node247268&#45;&gt;Node247270</title>
<path fill="none" stroke="#191970" d="M379.4008,-73.5387C389.2312,-74.8269 399.6776,-76.1957 409.9112,-77.5366"/>
<polygon fill="#191970" stroke="#191970" points="409.6732,-81.0353 420.0432,-78.8643 410.5827,-74.0946 409.6732,-81.0353"/>
</g>
<!-- Node247271 -->
<g id="node6" class="node">
<title>Node247271</title>
<g id="a_node6"><a xlink:href="quickjs_8c.html#ac3bdf708c1dc092fd52508b5d29bd0ce" target="_top" xlink:title="atom_is_free">
<polygon fill="none" stroke="#000000" points="438,-38.5 438,-57.5 511,-57.5 511,-38.5 438,-38.5"/>
<text text-anchor="middle" x="474.5" y="-45.5" font-family="Helvetica,sans-Serif" font-size="10.00" fill="#000000">atom_is_free</text>
</a>
</g>
</g>
<!-- Node247268&#45;&gt;Node247271 -->
<g id="edge5" class="edge">
<title>Node247268&#45;&gt;Node247271</title>
<path fill="none" stroke="#191970" d="M379.4008,-60.4613C394.9759,-58.4204 412.0972,-56.1769 427.4686,-54.1627"/>
<polygon fill="#191970" stroke="#191970" points="428.3298,-57.5799 437.7903,-52.8102 427.4203,-50.6392 428.3298,-57.5799"/>
</g>
<!-- Node247272 -->
<g id="node7" class="node">
<title>Node247272</title>
<g id="a_node7"><a xlink:href="cutils_8h.html#aad4e0decb15ab19e9f45b0ee69542a28" target="_top" xlink:title="unicode_to_utf8">
<polygon fill="none" stroke="#000000" points="431.5,-.5 431.5,-19.5 517.5,-19.5 517.5,-.5 431.5,-.5"/>
<text text-anchor="middle" x="474.5" y="-7.5" font-family="Helvetica,sans-Serif" font-size="10.00" fill="#000000">unicode_to_utf8</text>
</a>
</g>
</g>
<!-- Node247268&#45;&gt;Node247272 -->
<g id="edge6" class="edge">
<title>Node247268&#45;&gt;Node247272</title>
<path fill="none" stroke="#191970" d="M349.2822,-57.4691C366.4484,-49.3777 392.076,-37.7245 415,-29 420.6484,-26.8503 426.6576,-24.736 432.6028,-22.7437"/>
<polygon fill="#191970" stroke="#191970" points="434.0528,-25.9522 442.4725,-19.5211 431.8801,-19.2979 434.0528,-25.9522"/>
</g>
<!-- Node247274&#45;&gt;Node247268 -->
<g id="edge10" class="edge">
<title>Node247274&#45;&gt;Node247268</title>
<path fill="none" stroke="#191970" d="M216.5275,-19.5211C225.4868,-22.3751 235.1829,-25.6443 244,-29 263.163,-36.2932 284.2153,-45.6328 300.6349,-53.2277"/>
<polygon fill="#191970" stroke="#191970" points="299.1761,-56.4092 309.7178,-57.4691 302.138,-50.0667 299.1761,-56.4092"/>
</g>
<!-- Node247275 -->
<g id="node10" class="node">
<title>Node247275</title>
<g id="a_node10"><a xlink:href="quickjs_8c.html#a71db3adb5aae0a2072af11f2fdc35235" target="_top" xlink:title="JS_DumpString">
<polygon fill="none" stroke="#000000" points="286.5,-.5 286.5,-19.5 372.5,-19.5 372.5,-.5 286.5,-.5"/>
<text text-anchor="middle" x="329.5" y="-7.5" font-family="Helvetica,sans-Serif" font-size="10.00" fill="#000000">JS_DumpString</text>
</a>
</g>
</g>
<!-- Node247274&#45;&gt;Node247275 -->
<g id="edge9" class="edge">
<title>Node247274&#45;&gt;Node247275</title>
<path fill="none" stroke="#191970" d="M238.9052,-10C250.963,-10 263.7341,-10 275.7649,-10"/>
<polygon fill="#191970" stroke="#191970" points="276.1104,-13.5001 286.1103,-10 276.1103,-6.5001 276.1104,-13.5001"/>
</g>
</g>
</svg>
