<?xml version="1.0" encoding="UTF-8" standalone="no"?>
<!DOCTYPE svg PUBLIC "-//W3C//DTD SVG 1.1//EN"
 "http://www.w3.org/Graphics/SVG/1.1/DTD/svg11.dtd">
<!-- Generated by graphviz version 2.40.1 (20161225.0304)
 -->
<!-- Title: JS_NewCFunction3 Pages: 1 -->
<!--zoomable 370 -->
<svg id="main" version="1.1" xmlns="http://www.w3.org/2000/svg" xmlns:xlink="http://www.w3.org/1999/xlink" xml:space="preserve" onload="init(evt)">
<style type="text/css"><![CDATA[
.edge:hover path { stroke: red; }
.edge:hover polygon { stroke: red; fill: red; }
]]></style>
<script type="text/javascript"><![CDATA[
var edges = document.getElementsByTagName('g');
if (edges && edges.length) {
  for (var i=0;i<edges.length;i++) {
    if (edges[i].id.substr(0,4)=='edge') {
      edges[i].setAttribute('class','edge');
    }
  }
}
]]></script>
        <defs>
                <circle id="rim" cx="0" cy="0" r="7"/>
                <circle id="rim2" cx="0" cy="0" r="3.5"/>
                <g id="zoomPlus">
                        <use xlink:href="#rim" fill="#404040">
                                <set attributeName="fill" to="#808080" begin="zoomplus.mouseover" end="zoomplus.mouseout"/>
                        </use>
                        <path d="M-4,0h8M0,-4v8" fill="none" stroke="white" stroke-width="1.5" pointer-events="none"/>
                </g>
                <g id="zoomMin">
                        <use xlink:href="#rim" fill="#404040">
                                <set attributeName="fill" to="#808080" begin="zoomminus.mouseover" end="zoomminus.mouseout"/>
                        </use>
                        <path d="M-4,0h8" fill="none" stroke="white" stroke-width="1.5" pointer-events="none"/>
                </g>
                <g id="dirArrow">
                        <path fill="none" stroke="white" stroke-width="1.5" d="M0,-3.0v7 M-2.5,-0.5L0,-3.0L2.5,-0.5"/>
                </g>
               <g id="resetDef">
                       <use xlink:href="#rim2" fill="#404040">
                               <set attributeName="fill" to="#808080" begin="reset.mouseover" end="reset.mouseout"/>
                       </use>
               </g>
        </defs>

<script type="text/javascript">
var viewWidth = 792;
var viewHeight = 370;
var sectionId = 'dynsection-408';
</script>
<script xlink:href="svgpan.js"/>
<svg id="graph" class="graph">
<g id="viewport">
<title>JS_NewCFunction3</title>
<!-- Node137065 -->
<g id="node1" class="node">
<title>Node137065</title>
<polygon fill="#bfbfbf" stroke="#000000" points="0,-266.5 0,-285.5 104,-285.5 104,-266.5 0,-266.5"/>
<text text-anchor="middle" x="52" y="-273.5" font-family="Helvetica,sans-Serif" font-size="10.00" fill="#000000">JS_NewCFunction3</text>
</g>
<!-- Node137066 -->
<g id="node2" class="node">
<title>Node137066</title>
<g id="a_node2"><a xlink:href="quickjs_8c.html#a4c9489297c684663f30e517204a9ec14" target="_top" xlink:title="JS_AddIntrinsicBaseObjects">
<polygon fill="none" stroke="#000000" points="517,-76.5 517,-95.5 659,-95.5 659,-76.5 517,-76.5"/>
<text text-anchor="middle" x="588" y="-83.5" font-family="Helvetica,sans-Serif" font-size="10.00" fill="#000000">JS_AddIntrinsicBaseObjects</text>
</a>
</g>
</g>
<!-- Node137065&#45;&gt;Node137066 -->
<g id="edge1" class="edge">
<title>Node137065&#45;&gt;Node137066</title>
<path fill="none" stroke="#191970" d="M64.8064,-258.0972C80.5082,-237.2255 108.8938,-202.8136 140,-181 211.0987,-131.1411 235.5512,-125.2321 320,-105 385.4331,-89.3236 462.2177,-85.2812 516.7859,-84.7391"/>
<polygon fill="#191970" stroke="#191970" points="61.812,-256.261 58.7011,-266.3889 67.4488,-260.4115 61.812,-256.261"/>
</g>
<!-- Node137068 -->
<g id="node4" class="node">
<title>Node137068</title>
<g id="a_node4"><a xlink:href="quickjs_8c.html#a7efb53c2f76fd5cc0e584449437ec09c" target="_top" xlink:title="JS_AddIntrinsicBasicObjects">
<polygon fill="none" stroke="#000000" points="140,-342.5 140,-361.5 284,-361.5 284,-342.5 140,-342.5"/>
<text text-anchor="middle" x="212" y="-349.5" font-family="Helvetica,sans-Serif" font-size="10.00" fill="#000000">JS_AddIntrinsicBasicObjects</text>
</a>
</g>
</g>
<!-- Node137065&#45;&gt;Node137068 -->
<g id="edge3" class="edge">
<title>Node137065&#45;&gt;Node137068</title>
<path fill="none" stroke="#191970" d="M74.9524,-291.3932C92.2979,-302.567 116.9754,-317.5036 140,-328 152.2289,-333.5749 166.1431,-338.5173 178.4582,-342.4463"/>
<polygon fill="#191970" stroke="#191970" points="76.4129,-288.1665 66.1274,-285.6248 72.5829,-294.0258 76.4129,-288.1665"/>
</g>
<!-- Node137070 -->
<g id="node6" class="node">
<title>Node137070</title>
<g id="a_node6"><a xlink:href="quickjs_8c.html#a2e66fcf1bc1d19f346317f10ee590621" target="_top" xlink:title="JS_AddIntrinsicPromise">
<polygon fill="none" stroke="#000000" points="339.5,-304.5 339.5,-323.5 461.5,-323.5 461.5,-304.5 339.5,-304.5"/>
<text text-anchor="middle" x="400.5" y="-311.5" font-family="Helvetica,sans-Serif" font-size="10.00" fill="#000000">JS_AddIntrinsicPromise</text>
</a>
</g>
</g>
<!-- Node137065&#45;&gt;Node137070 -->
<g id="edge6" class="edge">
<title>Node137065&#45;&gt;Node137070</title>
<path fill="none" stroke="#191970" d="M114.1252,-286.4068C122.8022,-287.7074 131.6153,-288.948 140,-290 208.0465,-298.5379 286.4514,-305.3538 339.3206,-309.5085"/>
<polygon fill="#191970" stroke="#191970" points="114.4504,-282.9159 104.0355,-284.86 113.3896,-289.835 114.4504,-282.9159"/>
</g>
<!-- Node137071 -->
<g id="node7" class="node">
<title>Node137071</title>
<g id="a_node7"><a xlink:href="quickjs_8c.html#a177d09828596bfe6df4bd90b2e93989d" target="_top" xlink:title="JS_AddIntrinsicTypedArrays">
<polygon fill="none" stroke="#000000" points="517.5,-190.5 517.5,-209.5 658.5,-209.5 658.5,-190.5 517.5,-190.5"/>
<text text-anchor="middle" x="588" y="-197.5" font-family="Helvetica,sans-Serif" font-size="10.00" fill="#000000">JS_AddIntrinsicTypedArrays</text>
</a>
</g>
</g>
<!-- Node137065&#45;&gt;Node137071 -->
<g id="edge8" class="edge">
<title>Node137065&#45;&gt;Node137071</title>
<path fill="none" stroke="#191970" d="M114.5452,-281.7392C199.2798,-287.6106 354.4955,-291.5847 481,-257 490.4915,-254.4051 543.2101,-225.1869 570.9391,-209.6249"/>
<polygon fill="#191970" stroke="#191970" points="114.5447,-278.2301 104.3176,-280.9973 114.0381,-285.2118 114.5447,-278.2301"/>
</g>
<!-- Node137072 -->
<g id="node8" class="node">
<title>Node137072</title>
<g id="a_node8"><a xlink:href="quickjs_8c.html#a76d4772691a319f48dc636a0e7f6c1ed" target="_top" xlink:title="JS_NewCFunction2">
<polygon fill="none" stroke="#000000" points="160,-190.5 160,-209.5 264,-209.5 264,-190.5 160,-190.5"/>
<text text-anchor="middle" x="212" y="-197.5" font-family="Helvetica,sans-Serif" font-size="10.00" fill="#000000">JS_NewCFunction2</text>
</a>
</g>
</g>
<!-- Node137065&#45;&gt;Node137072 -->
<g id="edge10" class="edge">
<title>Node137065&#45;&gt;Node137072</title>
<path fill="none" stroke="#191970" d="M81.5974,-261.9412C113.708,-246.6887 164.0978,-222.7535 191.9004,-209.5473"/>
<polygon fill="#191970" stroke="#191970" points="79.7952,-258.9224 72.2641,-266.3745 82.7986,-265.2454 79.7952,-258.9224"/>
</g>
<!-- Node137067 -->
<g id="node3" class="node">
<title>Node137067</title>
<g id="a_node3"><a xlink:href="quickjs_8c.html#ad8aedb643b8753b7a15f6cb2df61945e" target="_top" xlink:title="JS_NewContext">
<polygon fill="none" stroke="#000000" points="695,-152.5 695,-171.5 784,-171.5 784,-152.5 695,-152.5"/>
<text text-anchor="middle" x="739.5" y="-159.5" font-family="Helvetica,sans-Serif" font-size="10.00" fill="#000000">JS_NewContext</text>
</a>
</g>
</g>
<!-- Node137066&#45;&gt;Node137067 -->
<g id="edge2" class="edge">
<title>Node137066&#45;&gt;Node137067</title>
<path fill="none" stroke="#191970" d="M643.066,-98.6338C648.5463,-100.5122 653.9463,-102.6282 659,-105 686.1287,-117.732 713.7851,-139.6931 728.5704,-152.3157"/>
<polygon fill="#191970" stroke="#191970" points="643.762,-95.1831 633.1721,-95.5053 641.6515,-101.8574 643.762,-95.1831"/>
</g>
<!-- Node137069 -->
<g id="node5" class="node">
<title>Node137069</title>
<g id="a_node5"><a xlink:href="quickjs_8c.html#a442ff496ba00319ad39eb0a129b9eb8b" target="_top" xlink:title="JS_NewContextRaw">
<polygon fill="none" stroke="#000000" points="533.5,-333.5 533.5,-352.5 642.5,-352.5 642.5,-333.5 533.5,-333.5"/>
<text text-anchor="middle" x="588" y="-340.5" font-family="Helvetica,sans-Serif" font-size="10.00" fill="#000000">JS_NewContextRaw</text>
</a>
</g>
</g>
<!-- Node137068&#45;&gt;Node137069 -->
<g id="edge4" class="edge">
<title>Node137068&#45;&gt;Node137069</title>
<path fill="none" stroke="#191970" d="M294.0734,-350.0355C366.6194,-348.299 470.4037,-345.8148 533.2675,-344.3101"/>
<polygon fill="#191970" stroke="#191970" points="293.965,-346.537 284.0517,-350.2754 294.1326,-353.535 293.965,-346.537"/>
</g>
<!-- Node137069&#45;&gt;Node137067 -->
<g id="edge5" class="edge">
<title>Node137069&#45;&gt;Node137067</title>
<path fill="none" stroke="#191970" d="M627.3482,-329.4278C638.4836,-324.264 650.0071,-317.5165 659,-309 702.7323,-267.5847 728.3741,-197.0336 736.5879,-171.5431"/>
<polygon fill="#191970" stroke="#191970" points="625.9447,-326.2214 618.1498,-333.397 628.7181,-332.6486 625.9447,-326.2214"/>
</g>
<!-- Node137070&#45;&gt;Node137067 -->
<g id="edge7" class="edge">
<title>Node137070&#45;&gt;Node137067</title>
<path fill="none" stroke="#191970" d="M471.6268,-305.09C525.881,-295.9251 600.9199,-277.9942 659,-244 691.7129,-224.8532 720.2104,-188.9584 732.7301,-171.7227"/>
<polygon fill="#191970" stroke="#191970" points="471.0533,-301.6372 461.747,-306.7011 472.18,-308.5459 471.0533,-301.6372"/>
</g>
<!-- Node137071&#45;&gt;Node137067 -->
<g id="edge9" class="edge">
<title>Node137071&#45;&gt;Node137067</title>
<path fill="none" stroke="#191970" d="M636.0016,-187.96C657.1668,-182.6512 681.6858,-176.5012 701.5451,-171.5201"/>
<polygon fill="#191970" stroke="#191970" points="635.0779,-184.5832 626.2298,-190.411 636.7809,-191.3729 635.0779,-184.5832"/>
</g>
<!-- Node137072&#45;&gt;Node137070 -->
<g id="edge29" class="edge">
<title>Node137072&#45;&gt;Node137070</title>
<path fill="none" stroke="#191970" d="M236.439,-214.7801C275.6987,-238.5234 351.7395,-284.5109 384.6651,-304.4234"/>
<polygon fill="#191970" stroke="#191970" points="238.1153,-211.7036 227.7472,-209.5235 234.4928,-217.6934 238.1153,-211.7036"/>
</g>
<!-- Node137073 -->
<g id="node9" class="node">
<title>Node137073</title>
<g id="a_node9"><a xlink:href="quickjs_8h.html#aa68c88001ca8a8662d8f9f321a72f421" target="_top" xlink:title="JS_NewCFunction">
<polygon fill="none" stroke="#000000" points="351,-152.5 351,-171.5 450,-171.5 450,-152.5 351,-152.5"/>
<text text-anchor="middle" x="400.5" y="-159.5" font-family="Helvetica,sans-Serif" font-size="10.00" fill="#000000">JS_NewCFunction</text>
</a>
</g>
</g>
<!-- Node137072&#45;&gt;Node137073 -->
<g id="edge11" class="edge">
<title>Node137072&#45;&gt;Node137073</title>
<path fill="none" stroke="#191970" d="M269.5893,-188.3905C296.3983,-182.986 327.8954,-176.6365 353.2755,-171.5201"/>
<polygon fill="#191970" stroke="#191970" points="268.6776,-185.0038 259.5665,-190.411 270.061,-191.8657 268.6776,-185.0038"/>
</g>
<!-- Node137076 -->
<g id="node11" class="node">
<title>Node137076</title>
<g id="a_node11"><a xlink:href="quickjs_8h.html#ae75598e7954a062f9890bc2ecf435fa1" target="_top" xlink:title="JS_NewCFunctionMagic">
<polygon fill="none" stroke="#000000" points="338,-114.5 338,-133.5 463,-133.5 463,-114.5 338,-114.5"/>
<text text-anchor="middle" x="400.5" y="-121.5" font-family="Helvetica,sans-Serif" font-size="10.00" fill="#000000">JS_NewCFunctionMagic</text>
</a>
</g>
</g>
<!-- Node137072&#45;&gt;Node137076 -->
<g id="edge15" class="edge">
<title>Node137072&#45;&gt;Node137076</title>
<path fill="none" stroke="#191970" d="M235.8647,-185.1339C257.2205,-172.3911 289.7377,-154.346 320,-143 329.8154,-139.32 340.5787,-136.1938 350.9513,-133.6047"/>
<polygon fill="#191970" stroke="#191970" points="233.9021,-182.2305 227.1605,-190.4037 237.5276,-188.2185 233.9021,-182.2305"/>
</g>
<!-- Node137078 -->
<g id="node13" class="node">
<title>Node137078</title>
<g id="a_node13"><a xlink:href="quickjs_8c.html#a293feb2179c9a722b2bd410bc2c5c173" target="_top" xlink:title="JS_NewGlobalCConstructor">
<polygon fill="none" stroke="#000000" points="330.5,-38.5 330.5,-57.5 470.5,-57.5 470.5,-38.5 330.5,-38.5"/>
<text text-anchor="middle" x="400.5" y="-45.5" font-family="Helvetica,sans-Serif" font-size="10.00" fill="#000000">JS_NewGlobalCConstructor</text>
</a>
</g>
</g>
<!-- Node137072&#45;&gt;Node137078 -->
<g id="edge19" class="edge">
<title>Node137072&#45;&gt;Node137078</title>
<path fill="none" stroke="#191970" d="M229.6124,-183.4758C250.5931,-164.0372 286.9643,-131.1074 320,-105 342.3028,-87.3745 369.5296,-68.6402 385.9169,-57.6461"/>
<polygon fill="#191970" stroke="#191970" points="227.0489,-181.0804 222.1147,-190.4562 231.8187,-186.2038 227.0489,-181.0804"/>
</g>
<!-- Node137081 -->
<g id="node16" class="node">
<title>Node137081</title>
<g id="a_node16"><a xlink:href="quickjs_8c.html#abc33a664e231090ec89f9d9975e21229" target="_top" xlink:title="JS_NewGlobalCConstructorOnly">
<polygon fill="none" stroke="#000000" points="320,-190.5 320,-209.5 481,-209.5 481,-190.5 320,-190.5"/>
<text text-anchor="middle" x="400.5" y="-197.5" font-family="Helvetica,sans-Serif" font-size="10.00" fill="#000000">JS_NewGlobalCConstructorOnly</text>
</a>
</g>
</g>
<!-- Node137072&#45;&gt;Node137081 -->
<g id="edge25" class="edge">
<title>Node137072&#45;&gt;Node137081</title>
<path fill="none" stroke="#191970" d="M274.3444,-200C288.8496,-200 304.498,-200 319.6725,-200"/>
<polygon fill="#191970" stroke="#191970" points="274.0075,-196.5001 264.0074,-200 274.0074,-203.5001 274.0075,-196.5001"/>
</g>
<!-- Node137082 -->
<g id="node17" class="node">
<title>Node137082</title>
<g id="a_node17"><a xlink:href="quickjs_8c.html#a3afdbdd7b58ef7e1dcc178c362071b3d" target="_top" xlink:title="JS_AddIntrinsicProxy">
<polygon fill="none" stroke="#000000" points="345,-228.5 345,-247.5 456,-247.5 456,-228.5 345,-228.5"/>
<text text-anchor="middle" x="400.5" y="-235.5" font-family="Helvetica,sans-Serif" font-size="10.00" fill="#000000">JS_AddIntrinsicProxy</text>
</a>
</g>
</g>
<!-- Node137072&#45;&gt;Node137082 -->
<g id="edge27" class="edge">
<title>Node137072&#45;&gt;Node137082</title>
<path fill="none" stroke="#191970" d="M269.5893,-211.6095C296.3983,-217.014 327.8954,-223.3635 353.2755,-228.4799"/>
<polygon fill="#191970" stroke="#191970" points="270.061,-208.1343 259.5665,-209.589 268.6776,-214.9962 270.061,-208.1343"/>
</g>
<!-- Node137073&#45;&gt;Node137066 -->
<g id="edge13" class="edge">
<title>Node137073&#45;&gt;Node137066</title>
<path fill="none" stroke="#191970" d="M460.2397,-152.0664C467.484,-149.6683 474.5822,-146.6925 481,-143 501.165,-131.398 497.0095,-116.9001 517,-105 523.469,-101.1491 530.7274,-98.064 538.0678,-95.5963"/>
<polygon fill="#191970" stroke="#191970" points="458.9225,-148.8058 450.3209,-154.9915 460.9026,-155.5199 458.9225,-148.8058"/>
</g>
<!-- Node137073&#45;&gt;Node137071 -->
<g id="edge14" class="edge">
<title>Node137073&#45;&gt;Node137071</title>
<path fill="none" stroke="#191970" d="M457.7838,-173.6095C484.4506,-179.014 515.7805,-185.3635 541.0261,-190.4799"/>
<polygon fill="#191970" stroke="#191970" points="458.3101,-170.1451 447.8142,-171.589 456.9197,-177.0056 458.3101,-170.1451"/>
</g>
<!-- Node137074 -->
<g id="node10" class="node">
<title>Node137074</title>
<g id="a_node10"><a xlink:href="quickjs-libc_8c.html#ad04466feec6822a3b838baf229f6dfa0" target="_top" xlink:title="js_std_add_helpers">
<polygon fill="none" stroke="#ff0000" points="537.5,-152.5 537.5,-171.5 638.5,-171.5 638.5,-152.5 537.5,-152.5"/>
<text text-anchor="middle" x="588" y="-159.5" font-family="Helvetica,sans-Serif" font-size="10.00" fill="#000000">js_std_add_helpers</text>
</a>
</g>
</g>
<!-- Node137073&#45;&gt;Node137074 -->
<g id="edge12" class="edge">
<title>Node137073&#45;&gt;Node137074</title>
<path fill="none" stroke="#191970" d="M460.2818,-162C485.1012,-162 513.5934,-162 537.3602,-162"/>
<polygon fill="#191970" stroke="#191970" points="460.2543,-158.5001 450.2543,-162 460.2543,-165.5001 460.2543,-158.5001"/>
</g>
<!-- Node137076&#45;&gt;Node137066 -->
<g id="edge18" class="edge">
<title>Node137076&#45;&gt;Node137066</title>
<path fill="none" stroke="#191970" d="M457.7838,-112.3905C484.4506,-106.986 515.7805,-100.6365 541.0261,-95.5201"/>
<polygon fill="#191970" stroke="#191970" points="456.9197,-108.9944 447.8142,-114.411 458.3101,-115.8549 456.9197,-108.9944"/>
</g>
<!-- Node137077 -->
<g id="node12" class="node">
<title>Node137077</title>
<g id="a_node12"><a xlink:href="quickjs_8c.html#a4497f8c7cf2ec38da989910ae8b1f042" target="_top" xlink:title="JS_AddIntrinsicMapSet">
<polygon fill="none" stroke="#000000" points="528.5,-114.5 528.5,-133.5 647.5,-133.5 647.5,-114.5 528.5,-114.5"/>
<text text-anchor="middle" x="588" y="-121.5" font-family="Helvetica,sans-Serif" font-size="10.00" fill="#000000">JS_AddIntrinsicMapSet</text>
</a>
</g>
</g>
<!-- Node137076&#45;&gt;Node137077 -->
<g id="edge16" class="edge">
<title>Node137076&#45;&gt;Node137077</title>
<path fill="none" stroke="#191970" d="M473.4319,-124C491.5688,-124 510.8006,-124 528.2223,-124"/>
<polygon fill="#191970" stroke="#191970" points="473.1955,-120.5001 463.1955,-124 473.1954,-127.5001 473.1955,-120.5001"/>
</g>
<!-- Node137077&#45;&gt;Node137067 -->
<g id="edge17" class="edge">
<title>Node137077&#45;&gt;Node137067</title>
<path fill="none" stroke="#191970" d="M636.0016,-136.04C657.1668,-141.3488 681.6858,-147.4988 701.5451,-152.4799"/>
<polygon fill="#191970" stroke="#191970" points="636.7809,-132.6271 626.2298,-133.589 635.0779,-139.4168 636.7809,-132.6271"/>
</g>
<!-- Node137078&#45;&gt;Node137066 -->
<g id="edge24" class="edge">
<title>Node137078&#45;&gt;Node137066</title>
<path fill="none" stroke="#191970" d="M457.7838,-59.6095C484.4506,-65.014 515.7805,-71.3635 541.0261,-76.4799"/>
<polygon fill="#191970" stroke="#191970" points="458.3101,-56.1451 447.8142,-57.589 456.9197,-63.0056 458.3101,-56.1451"/>
</g>
<!-- Node137079 -->
<g id="node14" class="node">
<title>Node137079</title>
<g id="a_node14"><a xlink:href="quickjs_8c.html#aafc8241682ce24b6d72e0f237ee85a51" target="_top" xlink:title="JS_AddIntrinsicRegExp">
<polygon fill="none" stroke="#000000" points="527.5,-.5 527.5,-19.5 648.5,-19.5 648.5,-.5 527.5,-.5"/>
<text text-anchor="middle" x="588" y="-7.5" font-family="Helvetica,sans-Serif" font-size="10.00" fill="#000000">JS_AddIntrinsicRegExp</text>
</a>
</g>
</g>
<!-- Node137078&#45;&gt;Node137079 -->
<g id="edge20" class="edge">
<title>Node137078&#45;&gt;Node137079</title>
<path fill="none" stroke="#191970" d="M457.7838,-36.3905C484.4506,-30.986 515.7805,-24.6365 541.0261,-19.5201"/>
<polygon fill="#191970" stroke="#191970" points="456.9197,-32.9944 447.8142,-38.411 458.3101,-39.8549 456.9197,-32.9944"/>
</g>
<!-- Node137080 -->
<g id="node15" class="node">
<title>Node137080</title>
<g id="a_node15"><a xlink:href="quickjs_8c.html#a8ecbf5799518b7bfc3fefd47c7a0dd4e" target="_top" xlink:title="JS_AddIntrinsicDate">
<polygon fill="none" stroke="#000000" points="534.5,-38.5 534.5,-57.5 641.5,-57.5 641.5,-38.5 534.5,-38.5"/>
<text text-anchor="middle" x="588" y="-45.5" font-family="Helvetica,sans-Serif" font-size="10.00" fill="#000000">JS_AddIntrinsicDate</text>
</a>
</g>
</g>
<!-- Node137078&#45;&gt;Node137080 -->
<g id="edge22" class="edge">
<title>Node137078&#45;&gt;Node137080</title>
<path fill="none" stroke="#191970" d="M480.5903,-48C498.7619,-48 517.6332,-48 534.3941,-48"/>
<polygon fill="#191970" stroke="#191970" points="480.5848,-44.5001 470.5847,-48 480.5847,-51.5001 480.5848,-44.5001"/>
</g>
<!-- Node137079&#45;&gt;Node137067 -->
<g id="edge21" class="edge">
<title>Node137079&#45;&gt;Node137067</title>
<path fill="none" stroke="#191970" d="M650.9709,-23.8686C653.7838,-25.4032 656.4792,-27.1075 659,-29 703.2478,-62.2201 728.2506,-127.5225 736.4566,-152.2229"/>
<polygon fill="#191970" stroke="#191970" points="652.1995,-20.5796 641.6576,-19.5218 649.2389,-26.9228 652.1995,-20.5796"/>
</g>
<!-- Node137080&#45;&gt;Node137067 -->
<g id="edge23" class="edge">
<title>Node137080&#45;&gt;Node137067</title>
<path fill="none" stroke="#191970" d="M648.3233,-61.2984C652.0453,-62.9797 655.6399,-64.8715 659,-67 694.6116,-89.5583 722.6785,-132.8709 734.0322,-152.2313"/>
<polygon fill="#191970" stroke="#191970" points="649.4551,-57.9819 638.8695,-57.5381 646.8679,-64.4863 649.4551,-57.9819"/>
</g>
<!-- Node137081&#45;&gt;Node137071 -->
<g id="edge26" class="edge">
<title>Node137081&#45;&gt;Node137071</title>
<path fill="none" stroke="#191970" d="M491.3745,-200C500.1515,-200 508.9621,-200 517.4983,-200"/>
<polygon fill="#191970" stroke="#191970" points="491.1051,-196.5001 481.105,-200 491.105,-203.5001 491.1051,-196.5001"/>
</g>
<!-- Node137082&#45;&gt;Node137067 -->
<g id="edge28" class="edge">
<title>Node137082&#45;&gt;Node137067</title>
<path fill="none" stroke="#191970" d="M466.2753,-242.7273C519.7525,-244.3399 596.3346,-241.5023 659,-219 687.6881,-208.6985 715.4003,-185.1653 729.6242,-171.7811"/>
<polygon fill="#191970" stroke="#191970" points="466.3534,-239.228 456.2334,-242.3642 466.1004,-246.2234 466.3534,-239.228"/>
</g>
</g>
</svg>
        <g id="navigator" transform="translate(0 0)" fill="#404254">
                <rect fill="#f2f5e9" fill-opacity="0.5" stroke="#606060" stroke-width=".5" x="0" y="0" width="60" height="60"/>
                <use id="zoomplus" xlink:href="#zoomPlus" x="17" y="9" onmousedown="handleZoom(evt,'in')"/>
                <use id="zoomminus" xlink:href="#zoomMin" x="42" y="9" onmousedown="handleZoom(evt,'out')"/>
                <use id="reset" xlink:href="#resetDef" x="30" y="36" onmousedown="handleReset()"/>
                <g id="arrowUp" xlink:href="#dirArrow" transform="translate(30 24)" onmousedown="handlePan(0,-1)">
                  <use xlink:href="#rim" fill="#404040">
                        <set attributeName="fill" to="#808080" begin="arrowUp.mouseover" end="arrowUp.mouseout"/>
                  </use>
                  <path fill="none" stroke="white" stroke-width="1.5" d="M0,-3.0v7 M-2.5,-0.5L0,-3.0L2.5,-0.5"/>
                </g>
                <g id="arrowRight" xlink:href="#dirArrow" transform="rotate(90) translate(36 -43)" onmousedown="handlePan(1,0)">
                  <use xlink:href="#rim" fill="#404040">
                        <set attributeName="fill" to="#808080" begin="arrowRight.mouseover" end="arrowRight.mouseout"/>
                  </use>
                  <path fill="none" stroke="white" stroke-width="1.5" d="M0,-3.0v7 M-2.5,-0.5L0,-3.0L2.5,-0.5"/>
                </g>
                <g id="arrowDown" xlink:href="#dirArrow" transform="rotate(180) translate(-30 -48)" onmousedown="handlePan(0,1)">
                  <use xlink:href="#rim" fill="#404040">
                        <set attributeName="fill" to="#808080" begin="arrowDown.mouseover" end="arrowDown.mouseout"/>
                  </use>
                  <path fill="none" stroke="white" stroke-width="1.5" d="M0,-3.0v7 M-2.5,-0.5L0,-3.0L2.5,-0.5"/>
                </g>
                <g id="arrowLeft" xlink:href="#dirArrow" transform="rotate(270) translate(-36 17)" onmousedown="handlePan(-1,0)">
                  <use xlink:href="#rim" fill="#404040">
                        <set attributeName="fill" to="#808080" begin="arrowLeft.mouseover" end="arrowLeft.mouseout"/>
                  </use>
                  <path fill="none" stroke="white" stroke-width="1.5" d="M0,-3.0v7 M-2.5,-0.5L0,-3.0L2.5,-0.5"/>
                </g>
        </g>
        <svg viewBox="0 0 15 15" width="100%" height="30px" preserveAspectRatio="xMaxYMin meet">
         <g id="arrow_out" transform="scale(0.3 0.3)">
          <a xlink:href="quickjs_8c_a21cfe4c4fc9372dc0b95b37667cff0c9_icgraph_org.svg" target="_base">
           <rect id="button" ry="5" rx="5" y="6" x="6" height="38" width="38"
                fill="#f2f5e9" fill-opacity="0.5" stroke="#606060" stroke-width="1.0"/>
           <path id="arrow"
             d="M 11.500037,31.436501 C 11.940474,20.09759 22.043105,11.32322 32.158766,21.979434 L 37.068811,17.246167 C 37.068811,17.246167 37.088388,32 37.088388,32 L 22.160133,31.978069 C 22.160133,31.978069 26.997745,27.140456 26.997745,27.140456 C 18.528582,18.264221 13.291696,25.230495 11.500037,31.436501 z"
             style="fill:#404040;"/>
          </a>
         </g>
        </svg>
</svg>
