<?xml version="1.0" encoding="UTF-8" standalone="no"?>
<!DOCTYPE svg PUBLIC "-//W3C//DTD SVG 1.1//EN"
 "http://www.w3.org/Graphics/SVG/1.1/DTD/svg11.dtd">
<!-- Generated by graphviz version 2.40.1 (20161225.0304)
 -->
<!-- Title: js_malloc_rt Pages: 1 -->
<svg width="829pt" height="199pt"
 viewBox="0.00 0.00 829.00 199.00" xmlns="http://www.w3.org/2000/svg" xmlns:xlink="http://www.w3.org/1999/xlink">
<g id="graph0" class="graph" transform="scale(1 1) rotate(0) translate(4 195)">
<title>js_malloc_rt</title>
<!-- Node50731 -->
<g id="node1" class="node">
<title>Node50731</title>
<polygon fill="#bfbfbf" stroke="#000000" points="0,-95.5 0,-114.5 69,-114.5 69,-95.5 0,-95.5"/>
<text text-anchor="middle" x="34.5" y="-102.5" font-family="Helvetica,sans-Serif" font-size="10.00" fill="#000000">js_malloc_rt</text>
</g>
<!-- Node50732 -->
<g id="node2" class="node">
<title>Node50732</title>
<g id="a_node2"><a xlink:href="structqjs_1_1detail_1_1function.html#a416a24c42e5b38a43f957096822b1949" target="_top" xlink:title="qjs::detail::function\l::create">
<polygon fill="none" stroke="#000000" points="117.5,-153 117.5,-183 216.5,-183 216.5,-153 117.5,-153"/>
<text text-anchor="start" x="125.5" y="-171" font-family="Helvetica,sans-Serif" font-size="10.00" fill="#000000">qjs::detail::function</text>
<text text-anchor="middle" x="167" y="-160" font-family="Helvetica,sans-Serif" font-size="10.00" fill="#000000">::create</text>
</a>
</g>
</g>
<!-- Node50731&#45;&gt;Node50732 -->
<g id="edge1" class="edge">
<title>Node50731&#45;&gt;Node50732</title>
<path fill="none" stroke="#191970" d="M60.0302,-119.6478C73.2683,-127.0151 89.8072,-135.8693 105,-143 112.2494,-146.4025 120.095,-149.787 127.6888,-152.916"/>
<polygon fill="#191970" stroke="#191970" points="61.4724,-116.4434 51.0406,-114.592 58.041,-122.5447 61.4724,-116.4434"/>
</g>
<!-- Node50733 -->
<g id="node3" class="node">
<title>Node50733</title>
<g id="a_node3"><a xlink:href="quickjs_8c.html#a2424196308d86d1a8c2bb410ca279be4" target="_top" xlink:title="JS_DumpMemoryUsage">
<polygon fill="none" stroke="#000000" points="105,-114.5 105,-133.5 229,-133.5 229,-114.5 105,-114.5"/>
<text text-anchor="middle" x="167" y="-121.5" font-family="Helvetica,sans-Serif" font-size="10.00" fill="#000000">JS_DumpMemoryUsage</text>
</a>
</g>
</g>
<!-- Node50731&#45;&gt;Node50733 -->
<g id="edge2" class="edge">
<title>Node50731&#45;&gt;Node50733</title>
<path fill="none" stroke="#191970" d="M79.3564,-111.4322C87.525,-112.6036 96.1796,-113.8446 104.7449,-115.0729"/>
<polygon fill="#191970" stroke="#191970" points="79.7084,-107.947 69.3128,-109.992 78.7147,-114.8761 79.7084,-107.947"/>
</g>
<!-- Node50734 -->
<g id="node4" class="node">
<title>Node50734</title>
<g id="a_node4"><a xlink:href="quickjs_8c.html#a78b7f6b85f2739b551ff54f16156128b" target="_top" xlink:title="js_malloc">
<polygon fill="none" stroke="#000000" points="138,-76.5 138,-95.5 196,-95.5 196,-76.5 138,-76.5"/>
<text text-anchor="middle" x="167" y="-83.5" font-family="Helvetica,sans-Serif" font-size="10.00" fill="#000000">js_malloc</text>
</a>
</g>
</g>
<!-- Node50731&#45;&gt;Node50734 -->
<g id="edge3" class="edge">
<title>Node50731&#45;&gt;Node50734</title>
<path fill="none" stroke="#191970" d="M79.4043,-98.5609C98.688,-95.7957 120.6733,-92.6431 137.7942,-90.188"/>
<polygon fill="#191970" stroke="#191970" points="78.7147,-95.1239 69.3128,-100.008 79.7084,-102.053 78.7147,-95.1239"/>
</g>
<!-- Node51355 -->
<g id="node15" class="node">
<title>Node51355</title>
<g id="a_node15"><a xlink:href="quickjs_8c.html#a472acb9863efa5c21d35dcdd235a7868" target="_top" xlink:title="js_mallocz_rt">
<polygon fill="none" stroke="#000000" points="130,-19.5 130,-38.5 204,-38.5 204,-19.5 130,-19.5"/>
<text text-anchor="middle" x="167" y="-26.5" font-family="Helvetica,sans-Serif" font-size="10.00" fill="#000000">js_mallocz_rt</text>
</a>
</g>
</g>
<!-- Node50731&#45;&gt;Node51355 -->
<g id="edge18" class="edge">
<title>Node50731&#45;&gt;Node51355</title>
<path fill="none" stroke="#191970" d="M60.0494,-90.3452C86.678,-75.0715 127.6288,-51.5828 150.355,-38.5473"/>
<polygon fill="#191970" stroke="#191970" points="58.2142,-87.363 51.2812,-95.3745 61.697,-93.435 58.2142,-87.363"/>
</g>
<!-- Node50735 -->
<g id="node5" class="node">
<title>Node50735</title>
<g id="a_node5"><a xlink:href="quickjs_8c.html#a1030d2020be7d911eb62869f21cc3b70" target="_top" xlink:title="js_new_shape2">
<polygon fill="none" stroke="#000000" points="274,-152.5 274,-171.5 358,-171.5 358,-152.5 274,-152.5"/>
<text text-anchor="middle" x="316" y="-159.5" font-family="Helvetica,sans-Serif" font-size="10.00" fill="#000000">js_new_shape2</text>
</a>
</g>
</g>
<!-- Node50734&#45;&gt;Node50735 -->
<g id="edge4" class="edge">
<title>Node50734&#45;&gt;Node50735</title>
<path fill="none" stroke="#191970" d="M206.004,-95.0525C213.8883,-97.6727 221.9231,-100.9512 229,-105 247.8398,-115.7784 246.9752,-125.908 265,-138 273.2889,-143.5606 283.0689,-148.5002 291.836,-152.4308"/>
<polygon fill="#191970" stroke="#191970" points="206.7664,-91.6265 196.1811,-92.0774 204.7372,-98.3259 206.7664,-91.6265"/>
</g>
<!-- Node51339 -->
<g id="node8" class="node">
<title>Node51339</title>
<g id="a_node8"><a xlink:href="quickjs_8c.html#a8e34657169da77ae6a386311351ed3de" target="_top" xlink:title="js_clone_shape">
<polygon fill="none" stroke="#000000" points="413,-76.5 413,-95.5 497,-95.5 497,-76.5 413,-76.5"/>
<text text-anchor="middle" x="455" y="-83.5" font-family="Helvetica,sans-Serif" font-size="10.00" fill="#000000">js_clone_shape</text>
</a>
</g>
</g>
<!-- Node50734&#45;&gt;Node51339 -->
<g id="edge7" class="edge">
<title>Node50734&#45;&gt;Node51339</title>
<path fill="none" stroke="#191970" d="M206.3961,-95.4246C224.1835,-99.2166 245.5316,-103.1302 265,-105 310.1257,-109.3341 321.9227,-109.8109 367,-105 384.4065,-103.1423 403.4261,-99.2734 419.3156,-95.5086"/>
<polygon fill="#191970" stroke="#191970" points="206.894,-91.9506 196.3757,-93.2223 205.3913,-98.7874 206.894,-91.9506"/>
</g>
<!-- Node51353 -->
<g id="node12" class="node">
<title>Node51353</title>
<g id="a_node12"><a xlink:href="quickjs_8c.html#aa80740ff93b724ea7e0c280826f4a25a" target="_top" xlink:title="resize_properties">
<polygon fill="none" stroke="#000000" points="270.5,-38.5 270.5,-57.5 361.5,-57.5 361.5,-38.5 270.5,-38.5"/>
<text text-anchor="middle" x="316" y="-45.5" font-family="Helvetica,sans-Serif" font-size="10.00" fill="#000000">resize_properties</text>
</a>
</g>
</g>
<!-- Node50734&#45;&gt;Node51353 -->
<g id="edge12" class="edge">
<title>Node50734&#45;&gt;Node51353</title>
<path fill="none" stroke="#191970" d="M205.9399,-76.069C228.3425,-70.3556 256.3498,-63.2128 278.5047,-57.5626"/>
<polygon fill="#191970" stroke="#191970" points="204.9073,-72.7203 196.0824,-78.583 206.6372,-79.5031 204.9073,-72.7203"/>
</g>
<!-- Node51123 -->
<g id="node14" class="node">
<title>Node51123</title>
<g id="a_node14"><a xlink:href="quickjs_8c.html#ad24e5f774218bb0d2859db9dc569d118" target="_top" xlink:title="js_typed_array_sort">
<polygon fill="none" stroke="#000000" points="265,-76.5 265,-95.5 367,-95.5 367,-76.5 265,-76.5"/>
<text text-anchor="middle" x="316" y="-83.5" font-family="Helvetica,sans-Serif" font-size="10.00" fill="#000000">js_typed_array_sort</text>
</a>
</g>
</g>
<!-- Node50734&#45;&gt;Node51123 -->
<g id="edge17" class="edge">
<title>Node50734&#45;&gt;Node51123</title>
<path fill="none" stroke="#191970" d="M206.2125,-86C224.193,-86 245.7396,-86 264.9645,-86"/>
<polygon fill="#191970" stroke="#191970" points="206.0824,-82.5001 196.0824,-86 206.0824,-89.5001 206.0824,-82.5001"/>
</g>
<!-- Node50736 -->
<g id="node6" class="node">
<title>Node50736</title>
<g id="a_node6"><a xlink:href="quickjs_8c.html#ad6926e49955be5e10423f6df8d8cff3e" target="_top" xlink:title="js_new_shape">
<polygon fill="none" stroke="#ff0000" points="415.5,-152.5 415.5,-171.5 494.5,-171.5 494.5,-152.5 415.5,-152.5"/>
<text text-anchor="middle" x="455" y="-159.5" font-family="Helvetica,sans-Serif" font-size="10.00" fill="#000000">js_new_shape</text>
</a>
</g>
</g>
<!-- Node50735&#45;&gt;Node50736 -->
<g id="edge5" class="edge">
<title>Node50735&#45;&gt;Node50736</title>
<path fill="none" stroke="#191970" d="M368.1561,-162C383.817,-162 400.7331,-162 415.4384,-162"/>
<polygon fill="#191970" stroke="#191970" points="368.0818,-158.5001 358.0818,-162 368.0818,-165.5001 368.0818,-158.5001"/>
</g>
<!-- Node50892 -->
<g id="node7" class="node">
<title>Node50892</title>
<g id="a_node7"><a xlink:href="quickjs_8c.html#a7efb53c2f76fd5cc0e584449437ec09c" target="_top" xlink:title="JS_AddIntrinsicBasicObjects">
<polygon fill="none" stroke="#ff0000" points="543,-171.5 543,-190.5 687,-190.5 687,-171.5 543,-171.5"/>
<text text-anchor="middle" x="615" y="-178.5" font-family="Helvetica,sans-Serif" font-size="10.00" fill="#000000">JS_AddIntrinsicBasicObjects</text>
</a>
</g>
</g>
<!-- Node50735&#45;&gt;Node50892 -->
<g id="edge6" class="edge">
<title>Node50735&#45;&gt;Node50892</title>
<path fill="none" stroke="#191970" d="M361.1885,-173.7977C374.554,-176.7619 389.2815,-179.5194 403,-181 449.2902,-185.9958 501.5978,-186.0544 542.6729,-184.8352"/>
<polygon fill="#191970" stroke="#191970" points="361.8036,-170.3477 351.2726,-171.5084 360.2289,-177.1683 361.8036,-170.3477"/>
</g>
<!-- Node51340 -->
<g id="node9" class="node">
<title>Node51340</title>
<g id="a_node9"><a xlink:href="quickjs_8c.html#a74547db03bf739a52c83a326b32db997" target="_top" xlink:title="add_property">
<polygon fill="none" stroke="#ff0000" points="578.5,-114.5 578.5,-133.5 651.5,-133.5 651.5,-114.5 578.5,-114.5"/>
<text text-anchor="middle" x="615" y="-121.5" font-family="Helvetica,sans-Serif" font-size="10.00" fill="#000000">add_property</text>
</a>
</g>
</g>
<!-- Node51339&#45;&gt;Node51340 -->
<g id="edge8" class="edge">
<title>Node51339&#45;&gt;Node51340</title>
<path fill="none" stroke="#191970" d="M505.2648,-97.9379C528.9922,-103.5731 556.7883,-110.1747 578.4683,-115.3237"/>
<polygon fill="#191970" stroke="#191970" points="505.9129,-94.4945 495.3748,-95.589 504.2953,-101.3051 505.9129,-94.4945"/>
</g>
<!-- Node51350 -->
<g id="node11" class="node">
<title>Node51350</title>
<g id="a_node11"><a xlink:href="quickjs_8c.html#a3dd8e78607dbc729614deacf55901b95" target="_top" xlink:title="js_shape_prepare_update">
<polygon fill="none" stroke="#ff0000" points="551,-76.5 551,-95.5 679,-95.5 679,-76.5 551,-76.5"/>
<text text-anchor="middle" x="615" y="-83.5" font-family="Helvetica,sans-Serif" font-size="10.00" fill="#000000">js_shape_prepare_update</text>
</a>
</g>
</g>
<!-- Node51339&#45;&gt;Node51350 -->
<g id="edge10" class="edge">
<title>Node51339&#45;&gt;Node51350</title>
<path fill="none" stroke="#191970" d="M507.3944,-86C521.3039,-86 536.4824,-86 550.9373,-86"/>
<polygon fill="#191970" stroke="#191970" points="507.0382,-82.5001 497.0381,-86 507.0381,-89.5001 507.0382,-82.5001"/>
</g>
<!-- Node51341 -->
<g id="node10" class="node">
<title>Node51341</title>
<g id="a_node10"><a xlink:href="quickjs_8c.html#ac93c982cb636a5430b191d104083af3e" target="_top" xlink:title="convert_fast_array\l_to_array">
<polygon fill="none" stroke="#ff0000" points="723,-71 723,-101 821,-101 821,-71 723,-71"/>
<text text-anchor="start" x="731" y="-89" font-family="Helvetica,sans-Serif" font-size="10.00" fill="#000000">convert_fast_array</text>
<text text-anchor="middle" x="772" y="-78" font-family="Helvetica,sans-Serif" font-size="10.00" fill="#000000">_to_array</text>
</a>
</g>
</g>
<!-- Node51340&#45;&gt;Node51341 -->
<g id="edge9" class="edge">
<title>Node51340&#45;&gt;Node51341</title>
<path fill="none" stroke="#191970" d="M661.6003,-112.7209C680.9252,-108.0436 703.358,-102.614 722.9348,-97.8757"/>
<polygon fill="#191970" stroke="#191970" points="660.7055,-109.3364 651.8095,-115.0907 662.3523,-116.1399 660.7055,-109.3364"/>
</g>
<!-- Node51350&#45;&gt;Node51341 -->
<g id="edge11" class="edge">
<title>Node51350&#45;&gt;Node51341</title>
<path fill="none" stroke="#191970" d="M689.6364,-86C700.9418,-86 712.3544,-86 722.9331,-86"/>
<polygon fill="#191970" stroke="#191970" points="689.3109,-82.5001 679.3109,-86 689.3109,-89.5001 689.3109,-82.5001"/>
</g>
<!-- Node51353&#45;&gt;Node51341 -->
<g id="edge16" class="edge">
<title>Node51353&#45;&gt;Node51341</title>
<path fill="none" stroke="#191970" d="M371.9524,-47.9349C444.8183,-48.5194 575.9967,-51.8617 687,-67 698.6863,-68.5937 711.1422,-70.9802 722.8138,-73.5283"/>
<polygon fill="#191970" stroke="#191970" points="371.6569,-44.433 361.6342,-47.8676 371.6111,-51.4328 371.6569,-44.433"/>
</g>
<!-- Node51354 -->
<g id="node13" class="node">
<title>Node51354</title>
<g id="a_node13"><a xlink:href="quickjs_8c.html#a3cadcaa2bd1e3f9359f1c006f396cfa0" target="_top" xlink:title="add_shape_property">
<polygon fill="none" stroke="#000000" points="403,-114.5 403,-133.5 507,-133.5 507,-114.5 403,-114.5"/>
<text text-anchor="middle" x="455" y="-121.5" font-family="Helvetica,sans-Serif" font-size="10.00" fill="#000000">add_shape_property</text>
</a>
</g>
</g>
<!-- Node51353&#45;&gt;Node51354 -->
<g id="edge13" class="edge">
<title>Node51353&#45;&gt;Node51354</title>
<path fill="none" stroke="#191970" d="M357.678,-61.6724C360.9251,-63.2906 364.0746,-65.0644 367,-67 386.402,-79.8373 383.5576,-92.2239 403,-105 408.7031,-108.7476 415.2425,-111.8779 421.7158,-114.4451"/>
<polygon fill="#191970" stroke="#191970" points="358.9319,-58.3993 348.3738,-57.5188 356.0784,-64.7913 358.9319,-58.3993"/>
</g>
<!-- Node51354&#45;&gt;Node50892 -->
<g id="edge15" class="edge">
<title>Node51354&#45;&gt;Node50892</title>
<path fill="none" stroke="#191970" d="M491.2904,-136.9285C520.7302,-147.4164 561.5655,-161.9639 588.1322,-171.4284"/>
<polygon fill="#191970" stroke="#191970" points="492.3751,-133.5995 481.7804,-133.5405 490.0259,-140.1935 492.3751,-133.5995"/>
</g>
<!-- Node51354&#45;&gt;Node51340 -->
<g id="edge14" class="edge">
<title>Node51354&#45;&gt;Node51340</title>
<path fill="none" stroke="#191970" d="M517.6199,-124C538.1284,-124 560.2382,-124 578.1986,-124"/>
<polygon fill="#191970" stroke="#191970" points="517.39,-120.5001 507.39,-124 517.3899,-127.5001 517.39,-120.5001"/>
</g>
<!-- Node51356 -->
<g id="node16" class="node">
<title>Node51356</title>
<g id="a_node16"><a xlink:href="quickjs_8c.html#af93ae8bbbe4e639dd7248f5b30c54bd7" target="_top" xlink:title="js_mallocz">
<polygon fill="none" stroke="#000000" points="284.5,-.5 284.5,-19.5 347.5,-19.5 347.5,-.5 284.5,-.5"/>
<text text-anchor="middle" x="316" y="-7.5" font-family="Helvetica,sans-Serif" font-size="10.00" fill="#000000">js_mallocz</text>
</a>
</g>
</g>
<!-- Node51355&#45;&gt;Node51356 -->
<g id="edge19" class="edge">
<title>Node51355&#45;&gt;Node51356</title>
<path fill="none" stroke="#191970" d="M214.3882,-22.9572C237.2137,-20.0466 263.971,-16.6346 284.2969,-14.0427"/>
<polygon fill="#191970" stroke="#191970" points="213.6916,-19.5176 204.2146,-24.2545 214.5771,-26.4614 213.6916,-19.5176"/>
</g>
</g>
</svg>
