<?xml version="1.0" encoding="UTF-8" standalone="no"?>
<!DOCTYPE svg PUBLIC "-//W3C//DTD SVG 1.1//EN"
 "http://www.w3.org/Graphics/SVG/1.1/DTD/svg11.dtd">
<!-- Generated by graphviz version 2.40.1 (20161225.0304)
 -->
<!-- Title: js_call_bound_function Pages: 1 -->
<svg width="534pt" height="28pt"
 viewBox="0.00 0.00 534.00 28.00" xmlns="http://www.w3.org/2000/svg" xmlns:xlink="http://www.w3.org/1999/xlink">
<g id="graph0" class="graph" transform="scale(1 1) rotate(0) translate(4 24)">
<title>js_call_bound_function</title>
<!-- Node2442 -->
<g id="node1" class="node">
<title>Node2442</title>
<polygon fill="#bfbfbf" stroke="#000000" points="0,-.5 0,-19.5 116,-19.5 116,-.5 0,-.5"/>
<text text-anchor="middle" x="58" y="-7.5" font-family="Helvetica,sans-Serif" font-size="10.00" fill="#000000">js_call_bound_function</text>
</g>
<!-- Node2443 -->
<g id="node2" class="node">
<title>Node2443</title>
<g id="a_node2"><a xlink:href="quickjs_8c.html#a27966451027feb455b5da12c1578771c" target="_top" xlink:title="JS_NewRuntime2">
<polygon fill="none" stroke="#000000" points="152,-.5 152,-19.5 248,-19.5 248,-.5 152,-.5"/>
<text text-anchor="middle" x="200" y="-7.5" font-family="Helvetica,sans-Serif" font-size="10.00" fill="#000000">JS_NewRuntime2</text>
</a>
</g>
</g>
<!-- Node2442&#45;&gt;Node2443 -->
<g id="edge1" class="edge">
<title>Node2442&#45;&gt;Node2443</title>
<path fill="none" stroke="#191970" d="M126.2045,-10C134.8025,-10 143.4553,-10 151.6574,-10"/>
<polygon fill="#191970" stroke="#191970" points="126.1666,-6.5001 116.1666,-10 126.1665,-13.5001 126.1666,-6.5001"/>
</g>
<!-- Node2444 -->
<g id="node3" class="node">
<title>Node2444</title>
<g id="a_node3"><a xlink:href="quickjs_8c.html#afc1ca27a266094085ebb43e2eea0dda2" target="_top" xlink:title="JS_NewRuntime">
<polygon fill="none" stroke="#000000" points="284,-.5 284,-19.5 375,-19.5 375,-.5 284,-.5"/>
<text text-anchor="middle" x="329.5" y="-7.5" font-family="Helvetica,sans-Serif" font-size="10.00" fill="#000000">JS_NewRuntime</text>
</a>
</g>
</g>
<!-- Node2443&#45;&gt;Node2444 -->
<g id="edge2" class="edge">
<title>Node2443&#45;&gt;Node2444</title>
<path fill="none" stroke="#191970" d="M258.4754,-10C266.9739,-10 275.6181,-10 283.8147,-10"/>
<polygon fill="#191970" stroke="#191970" points="258.2211,-6.5001 248.221,-10 258.221,-13.5001 258.2211,-6.5001"/>
</g>
<!-- Node2445 -->
<g id="node4" class="node">
<title>Node2445</title>
<g id="a_node4"><a xlink:href="classqjs_1_1Runtime.html#a0860a1339ff567f9f603c7bed4d670f9" target="_top" xlink:title="qjs::Runtime::Runtime">
<polygon fill="none" stroke="#000000" points="411,-.5 411,-19.5 526,-19.5 526,-.5 411,-.5"/>
<text text-anchor="middle" x="468.5" y="-7.5" font-family="Helvetica,sans-Serif" font-size="10.00" fill="#000000">qjs::Runtime::Runtime</text>
</a>
</g>
</g>
<!-- Node2444&#45;&gt;Node2445 -->
<g id="edge3" class="edge">
<title>Node2444&#45;&gt;Node2445</title>
<path fill="none" stroke="#191970" d="M385.1119,-10C393.5346,-10 402.2411,-10 410.7088,-10"/>
<polygon fill="#191970" stroke="#191970" points="385.0138,-6.5001 375.0138,-10 385.0138,-13.5001 385.0138,-6.5001"/>
</g>
</g>
</svg>
