<?xml version="1.0" encoding="UTF-8" standalone="no"?>
<!DOCTYPE svg PUBLIC "-//W3C//DTD SVG 1.1//EN"
 "http://www.w3.org/Graphics/SVG/1.1/DTD/svg11.dtd">
<!-- Generated by graphviz version 2.40.1 (20161225.0304)
 -->
<!-- Title: JS_SetPrivateField Pages: 1 -->
<!--zoomable 268 -->
<svg id="main" version="1.1" xmlns="http://www.w3.org/2000/svg" xmlns:xlink="http://www.w3.org/1999/xlink" xml:space="preserve" onload="init(evt)">
<style type="text/css"><![CDATA[
.edge:hover path { stroke: red; }
.edge:hover polygon { stroke: red; fill: red; }
]]></style>
<script type="text/javascript"><![CDATA[
var edges = document.getElementsByTagName('g');
if (edges && edges.length) {
  for (var i=0;i<edges.length;i++) {
    if (edges[i].id.substr(0,4)=='edge') {
      edges[i].setAttribute('class','edge');
    }
  }
}
]]></script>
        <defs>
                <circle id="rim" cx="0" cy="0" r="7"/>
                <circle id="rim2" cx="0" cy="0" r="3.5"/>
                <g id="zoomPlus">
                        <use xlink:href="#rim" fill="#404040">
                                <set attributeName="fill" to="#808080" begin="zoomplus.mouseover" end="zoomplus.mouseout"/>
                        </use>
                        <path d="M-4,0h8M0,-4v8" fill="none" stroke="white" stroke-width="1.5" pointer-events="none"/>
                </g>
                <g id="zoomMin">
                        <use xlink:href="#rim" fill="#404040">
                                <set attributeName="fill" to="#808080" begin="zoomminus.mouseover" end="zoomminus.mouseout"/>
                        </use>
                        <path d="M-4,0h8" fill="none" stroke="white" stroke-width="1.5" pointer-events="none"/>
                </g>
                <g id="dirArrow">
                        <path fill="none" stroke="white" stroke-width="1.5" d="M0,-3.0v7 M-2.5,-0.5L0,-3.0L2.5,-0.5"/>
                </g>
               <g id="resetDef">
                       <use xlink:href="#rim2" fill="#404040">
                               <set attributeName="fill" to="#808080" begin="reset.mouseover" end="reset.mouseout"/>
                       </use>
               </g>
        </defs>

<script type="text/javascript">
var viewWidth = 700;
var viewHeight = 268;
var sectionId = 'dynsection-526';
</script>
<script xlink:href="svgpan.js"/>
<svg id="graph" class="graph">
<g id="viewport">
<title>JS_SetPrivateField</title>
<!-- Node172884 -->
<g id="node1" class="node">
<title>Node172884</title>
<polygon fill="#bfbfbf" stroke="#000000" points="0,-126 0,-145 101,-145 101,-126 0,-126"/>
<text text-anchor="middle" x="50.5" y="-133" font-family="Helvetica,sans-Serif" font-size="10.00" fill="#000000">JS_SetPrivateField</text>
</g>
<!-- Node172885 -->
<g id="node2" class="node">
<title>Node172885</title>
<g id="a_node2"><a xlink:href="quickjs_8c.html#a06b76f5124fd985e35f4c652fd018d6d" target="_top" xlink:title="find_own_property">
<polygon fill="none" stroke="#000000" points="169,-240 169,-259 265,-259 265,-240 169,-240"/>
<text text-anchor="middle" x="217" y="-247" font-family="Helvetica,sans-Serif" font-size="10.00" fill="#000000">find_own_property</text>
</a>
</g>
</g>
<!-- Node172884&#45;&gt;Node172885 -->
<g id="edge1" class="edge">
<title>Node172884&#45;&gt;Node172885</title>
<path fill="none" stroke="#191970" d="M57.1523,-145.2078C70.2674,-163.6152 101.3058,-203.6971 137,-225.5 144.2932,-229.9549 152.4686,-233.6306 160.7333,-236.6498"/>
<polygon fill="#191970" stroke="#191970" points="159.835,-240.04 170.4289,-239.8998 162.0598,-233.403 159.835,-240.04"/>
</g>
<!-- Node172887 -->
<g id="node4" class="node">
<title>Node172887</title>
<g id="a_node4"><a xlink:href="quickjs_8h.html#afaa20c47565bc704c6c85f3d77254e7d" target="_top" xlink:title="JS_FreeValue">
<polygon fill="none" stroke="#000000" points="337,-126 337,-145 415,-145 415,-126 337,-126"/>
<text text-anchor="middle" x="376" y="-133" font-family="Helvetica,sans-Serif" font-size="10.00" fill="#000000">JS_FreeValue</text>
</a>
</g>
</g>
<!-- Node172884&#45;&gt;Node172887 -->
<g id="edge3" class="edge">
<title>Node172884&#45;&gt;Node172887</title>
<path fill="none" stroke="#191970" d="M60.6457,-145.1298C75.8245,-158.7994 105.9916,-183.202 137,-192.5 205.1148,-212.9246 229.3332,-214.3631 297,-192.5 321.4419,-184.6028 344.6877,-166.0142 359.5541,-152.1992"/>
<polygon fill="#191970" stroke="#191970" points="362.1343,-154.5733 366.9054,-145.1135 357.2765,-149.5333 362.1343,-154.5733"/>
</g>
<!-- Node172922 -->
<g id="node7" class="node">
<title>Node172922</title>
<g id="a_node7"><a xlink:href="quickjs_8c.html#a11498940707b6928b86da6844ef8f2a1" target="_top" xlink:title="js_symbol_to_atom">
<polygon fill="none" stroke="#000000" points="166.5,-164 166.5,-183 267.5,-183 267.5,-164 166.5,-164"/>
<text text-anchor="middle" x="217" y="-171" font-family="Helvetica,sans-Serif" font-size="10.00" fill="#000000">js_symbol_to_atom</text>
</a>
</g>
</g>
<!-- Node172884&#45;&gt;Node172922 -->
<g id="edge6" class="edge">
<title>Node172884&#45;&gt;Node172922</title>
<path fill="none" stroke="#191970" d="M92.515,-145.089C114.6844,-150.1487 142.0732,-156.3996 165.511,-161.7488"/>
<polygon fill="#191970" stroke="#191970" points="164.759,-165.1671 175.2871,-163.9799 166.3166,-158.3425 164.759,-165.1671"/>
</g>
<!-- Node172923 -->
<g id="node8" class="node">
<title>Node172923</title>
<g id="a_node8"><a xlink:href="quickjs_8c.html#a726b00d108e0a0f4d958c36c2e426a64" target="_top" xlink:title="JS_ThrowTypeErrorNotAnObject">
<polygon fill="none" stroke="#000000" points="137,-126 137,-145 297,-145 297,-126 137,-126"/>
<text text-anchor="middle" x="217" y="-133" font-family="Helvetica,sans-Serif" font-size="10.00" fill="#000000">JS_ThrowTypeErrorNotAnObject</text>
</a>
</g>
</g>
<!-- Node172884&#45;&gt;Node172923 -->
<g id="edge7" class="edge">
<title>Node172884&#45;&gt;Node172923</title>
<path fill="none" stroke="#191970" d="M101.3602,-135.5C109.4024,-135.5 117.9224,-135.5 126.5463,-135.5"/>
<polygon fill="#191970" stroke="#191970" points="126.6953,-139.0001 136.6953,-135.5 126.6952,-132.0001 126.6953,-139.0001"/>
</g>
<!-- Node172924 -->
<g id="node9" class="node">
<title>Node172924</title>
<g id="a_node9"><a xlink:href="quickjs_8c.html#abda92b710bb8f585930b1072d9d69917" target="_top" xlink:title="JS_ThrowTypeErrorNotASymbol">
<polygon fill="none" stroke="#000000" points="137.5,-88 137.5,-107 296.5,-107 296.5,-88 137.5,-88"/>
<text text-anchor="middle" x="217" y="-95" font-family="Helvetica,sans-Serif" font-size="10.00" fill="#000000">JS_ThrowTypeErrorNotASymbol</text>
</a>
</g>
</g>
<!-- Node172884&#45;&gt;Node172924 -->
<g id="edge8" class="edge">
<title>Node172884&#45;&gt;Node172924</title>
<path fill="none" stroke="#191970" d="M92.515,-125.911C114.6844,-120.8513 142.0732,-114.6004 165.511,-109.2512"/>
<polygon fill="#191970" stroke="#191970" points="166.3166,-112.6575 175.2871,-107.0201 164.759,-105.8329 166.3166,-112.6575"/>
</g>
<!-- Node172925 -->
<g id="node10" class="node">
<title>Node172925</title>
<g id="a_node10"><a xlink:href="quickjs_8c.html#a26cfb2f387fcd9d8046c1f7200607ea5" target="_top" xlink:title="JS_ThrowTypeErrorPrivate\lNotFound">
<polygon fill="none" stroke="#000000" points="150,-.5 150,-30.5 284,-30.5 284,-.5 150,-.5"/>
<text text-anchor="start" x="158" y="-18.5" font-family="Helvetica,sans-Serif" font-size="10.00" fill="#000000">JS_ThrowTypeErrorPrivate</text>
<text text-anchor="middle" x="217" y="-7.5" font-family="Helvetica,sans-Serif" font-size="10.00" fill="#000000">NotFound</text>
</a>
</g>
</g>
<!-- Node172884&#45;&gt;Node172925 -->
<g id="edge9" class="edge">
<title>Node172884&#45;&gt;Node172925</title>
<path fill="none" stroke="#191970" d="M56.646,-125.8715C69.3325,-106.7633 100.323,-63.8817 137,-40.5 140.194,-38.4638 143.5657,-36.5832 147.0458,-34.8476"/>
<polygon fill="#191970" stroke="#191970" points="148.7967,-37.897 156.4637,-30.5848 145.9102,-31.5198 148.7967,-37.897"/>
</g>
<!-- Node172932 -->
<g id="node13" class="node">
<title>Node172932</title>
<g id="a_node13"><a xlink:href="quickjs_8c.html#a0ec52a675282f321a6f42aa1298a53fe" target="_top" xlink:title="set_value">
<polygon fill="none" stroke="#000000" points="187.5,-50 187.5,-69 246.5,-69 246.5,-50 187.5,-50"/>
<text text-anchor="middle" x="217" y="-57" font-family="Helvetica,sans-Serif" font-size="10.00" fill="#000000">set_value</text>
</a>
</g>
</g>
<!-- Node172884&#45;&gt;Node172932 -->
<g id="edge12" class="edge">
<title>Node172884&#45;&gt;Node172932</title>
<path fill="none" stroke="#191970" d="M62.0498,-125.9585C77.9553,-113.2893 107.9441,-91.0566 137,-78.5 149.6146,-73.0486 164.0544,-69.0103 177.163,-66.0933"/>
<polygon fill="#191970" stroke="#191970" points="178.2472,-69.4432 187.3301,-63.9888 176.8282,-62.5885 178.2472,-69.4432"/>
</g>
<!-- Node172886 -->
<g id="node3" class="node">
<title>Node172886</title>
<g id="a_node3"><a xlink:href="quickjs_8c.html#a643df594b75933007bcdbb071b5ea8c5" target="_top" xlink:title="get_shape_prop">
<polygon fill="none" stroke="#000000" points="333,-240 333,-259 419,-259 419,-240 333,-240"/>
<text text-anchor="middle" x="376" y="-247" font-family="Helvetica,sans-Serif" font-size="10.00" fill="#000000">get_shape_prop</text>
</a>
</g>
</g>
<!-- Node172885&#45;&gt;Node172886 -->
<g id="edge2" class="edge">
<title>Node172885&#45;&gt;Node172886</title>
<path fill="none" stroke="#191970" d="M265.1367,-249.5C283.3371,-249.5 304.1494,-249.5 322.789,-249.5"/>
<polygon fill="#191970" stroke="#191970" points="322.8905,-253.0001 332.8904,-249.5 322.8904,-246.0001 322.8905,-253.0001"/>
</g>
<!-- Node172888 -->
<g id="node5" class="node">
<title>Node172888</title>
<g id="a_node5"><a xlink:href="quickjs_8c.html#aa059f309c30fd5166d16c82a97973146" target="_top" xlink:title="__JS_FreeValue">
<polygon fill="none" stroke="#000000" points="460,-126 460,-145 549,-145 549,-126 460,-126"/>
<text text-anchor="middle" x="504.5" y="-133" font-family="Helvetica,sans-Serif" font-size="10.00" fill="#000000">__JS_FreeValue</text>
</a>
</g>
</g>
<!-- Node172887&#45;&gt;Node172888 -->
<g id="edge4" class="edge">
<title>Node172887&#45;&gt;Node172888</title>
<path fill="none" stroke="#191970" d="M415.2525,-135.5C426.0987,-135.5 438.071,-135.5 449.6294,-135.5"/>
<polygon fill="#191970" stroke="#191970" points="449.6415,-139.0001 459.6415,-135.5 449.6415,-132.0001 449.6415,-139.0001"/>
</g>
<!-- Node172889 -->
<g id="node6" class="node">
<title>Node172889</title>
<g id="a_node6"><a xlink:href="quickjs_8c.html#ab1ea3fad7d138be12144a38be4d36423" target="_top" xlink:title="__JS_FreeValueRT">
<polygon fill="none" stroke="#ff0000" points="590,-126 590,-145 692,-145 692,-126 590,-126"/>
<text text-anchor="middle" x="641" y="-133" font-family="Helvetica,sans-Serif" font-size="10.00" fill="#000000">__JS_FreeValueRT</text>
</a>
</g>
</g>
<!-- Node172888&#45;&gt;Node172889 -->
<g id="edge5" class="edge">
<title>Node172888&#45;&gt;Node172889</title>
<path fill="none" stroke="#191970" d="M549.1952,-135.5C558.8754,-135.5 569.2761,-135.5 579.4746,-135.5"/>
<polygon fill="#191970" stroke="#191970" points="579.5715,-139.0001 589.5715,-135.5 579.5714,-132.0001 579.5715,-139.0001"/>
</g>
<!-- Node172926 -->
<g id="node11" class="node">
<title>Node172926</title>
<g id="a_node11"><a xlink:href="quickjs_8c.html#ab18048ab5eea3e47109a5473f78515bc" target="_top" xlink:title="JS_AtomGetStr">
<polygon fill="none" stroke="#000000" points="333,-6 333,-25 419,-25 419,-6 333,-6"/>
<text text-anchor="middle" x="376" y="-13" font-family="Helvetica,sans-Serif" font-size="10.00" fill="#000000">JS_AtomGetStr</text>
</a>
</g>
</g>
<!-- Node172925&#45;&gt;Node172926 -->
<g id="edge10" class="edge">
<title>Node172925&#45;&gt;Node172926</title>
<path fill="none" stroke="#191970" d="M284.4303,-15.5C297.2585,-15.5 310.5159,-15.5 322.8244,-15.5"/>
<polygon fill="#191970" stroke="#191970" points="322.9101,-19.0001 332.9101,-15.5 322.91,-12.0001 322.9101,-19.0001"/>
</g>
<!-- Node172927 -->
<g id="node12" class="node">
<title>Node172927</title>
<g id="a_node12"><a xlink:href="quickjs_8c.html#a4e63c63058f1efe20ee939c165f7b3ad" target="_top" xlink:title="JS_AtomGetStrRT">
<polygon fill="none" stroke="#ff0000" points="455,-6 455,-25 554,-25 554,-6 455,-6"/>
<text text-anchor="middle" x="504.5" y="-13" font-family="Helvetica,sans-Serif" font-size="10.00" fill="#000000">JS_AtomGetStrRT</text>
</a>
</g>
</g>
<!-- Node172926&#45;&gt;Node172927 -->
<g id="edge11" class="edge">
<title>Node172926&#45;&gt;Node172927</title>
<path fill="none" stroke="#191970" d="M419.1461,-15.5C427.2324,-15.5 435.8205,-15.5 444.3134,-15.5"/>
<polygon fill="#191970" stroke="#191970" points="444.5858,-19.0001 454.5858,-15.5 444.5857,-12.0001 444.5858,-19.0001"/>
</g>
<!-- Node172932&#45;&gt;Node172887 -->
<g id="edge13" class="edge">
<title>Node172932&#45;&gt;Node172887</title>
<path fill="none" stroke="#191970" d="M246.7932,-63.7116C262.2518,-66.5993 281.1631,-71.2541 297,-78.5 319.8383,-88.9493 342.7633,-106.4557 357.9896,-119.3158"/>
<polygon fill="#191970" stroke="#191970" points="355.7552,-122.0108 365.6072,-125.908 360.3359,-116.7176 355.7552,-122.0108"/>
</g>
</g>
</svg>
        <g id="navigator" transform="translate(0 0)" fill="#404254">
                <rect fill="#f2f5e9" fill-opacity="0.5" stroke="#606060" stroke-width=".5" x="0" y="0" width="60" height="60"/>
                <use id="zoomplus" xlink:href="#zoomPlus" x="17" y="9" onmousedown="handleZoom(evt,'in')"/>
                <use id="zoomminus" xlink:href="#zoomMin" x="42" y="9" onmousedown="handleZoom(evt,'out')"/>
                <use id="reset" xlink:href="#resetDef" x="30" y="36" onmousedown="handleReset()"/>
                <g id="arrowUp" xlink:href="#dirArrow" transform="translate(30 24)" onmousedown="handlePan(0,-1)">
                  <use xlink:href="#rim" fill="#404040">
                        <set attributeName="fill" to="#808080" begin="arrowUp.mouseover" end="arrowUp.mouseout"/>
                  </use>
                  <path fill="none" stroke="white" stroke-width="1.5" d="M0,-3.0v7 M-2.5,-0.5L0,-3.0L2.5,-0.5"/>
                </g>
                <g id="arrowRight" xlink:href="#dirArrow" transform="rotate(90) translate(36 -43)" onmousedown="handlePan(1,0)">
                  <use xlink:href="#rim" fill="#404040">
                        <set attributeName="fill" to="#808080" begin="arrowRight.mouseover" end="arrowRight.mouseout"/>
                  </use>
                  <path fill="none" stroke="white" stroke-width="1.5" d="M0,-3.0v7 M-2.5,-0.5L0,-3.0L2.5,-0.5"/>
                </g>
                <g id="arrowDown" xlink:href="#dirArrow" transform="rotate(180) translate(-30 -48)" onmousedown="handlePan(0,1)">
                  <use xlink:href="#rim" fill="#404040">
                        <set attributeName="fill" to="#808080" begin="arrowDown.mouseover" end="arrowDown.mouseout"/>
                  </use>
                  <path fill="none" stroke="white" stroke-width="1.5" d="M0,-3.0v7 M-2.5,-0.5L0,-3.0L2.5,-0.5"/>
                </g>
                <g id="arrowLeft" xlink:href="#dirArrow" transform="rotate(270) translate(-36 17)" onmousedown="handlePan(-1,0)">
                  <use xlink:href="#rim" fill="#404040">
                        <set attributeName="fill" to="#808080" begin="arrowLeft.mouseover" end="arrowLeft.mouseout"/>
                  </use>
                  <path fill="none" stroke="white" stroke-width="1.5" d="M0,-3.0v7 M-2.5,-0.5L0,-3.0L2.5,-0.5"/>
                </g>
        </g>
        <svg viewBox="0 0 15 15" width="100%" height="30px" preserveAspectRatio="xMaxYMin meet">
         <g id="arrow_out" transform="scale(0.3 0.3)">
          <a xlink:href="quickjs_8c_aeadd1b317a296e3b9fd4ebc0261f7559_cgraph_org.svg" target="_base">
           <rect id="button" ry="5" rx="5" y="6" x="6" height="38" width="38"
                fill="#f2f5e9" fill-opacity="0.5" stroke="#606060" stroke-width="1.0"/>
           <path id="arrow"
             d="M 11.500037,31.436501 C 11.940474,20.09759 22.043105,11.32322 32.158766,21.979434 L 37.068811,17.246167 C 37.068811,17.246167 37.088388,32 37.088388,32 L 22.160133,31.978069 C 22.160133,31.978069 26.997745,27.140456 26.997745,27.140456 C 18.528582,18.264221 13.291696,25.230495 11.500037,31.436501 z"
             style="fill:#404040;"/>
          </a>
         </g>
        </svg>
</svg>
