<?xml version="1.0" encoding="UTF-8" standalone="no"?>
<!DOCTYPE svg PUBLIC "-//W3C//DTD SVG 1.1//EN"
 "http://www.w3.org/Graphics/SVG/1.1/DTD/svg11.dtd">
<!-- Generated by graphviz version 2.40.1 (20161225.0304)
 -->
<!-- Title: js_add_slow Pages: 1 -->
<!--zoomable 995 -->
<svg id="main" version="1.1" xmlns="http://www.w3.org/2000/svg" xmlns:xlink="http://www.w3.org/1999/xlink" xml:space="preserve" onload="init(evt)">
<style type="text/css"><![CDATA[
.edge:hover path { stroke: red; }
.edge:hover polygon { stroke: red; fill: red; }
]]></style>
<script type="text/javascript"><![CDATA[
var edges = document.getElementsByTagName('g');
if (edges && edges.length) {
  for (var i=0;i<edges.length;i++) {
    if (edges[i].id.substr(0,4)=='edge') {
      edges[i].setAttribute('class','edge');
    }
  }
}
]]></script>
        <defs>
                <circle id="rim" cx="0" cy="0" r="7"/>
                <circle id="rim2" cx="0" cy="0" r="3.5"/>
                <g id="zoomPlus">
                        <use xlink:href="#rim" fill="#404040">
                                <set attributeName="fill" to="#808080" begin="zoomplus.mouseover" end="zoomplus.mouseout"/>
                        </use>
                        <path d="M-4,0h8M0,-4v8" fill="none" stroke="white" stroke-width="1.5" pointer-events="none"/>
                </g>
                <g id="zoomMin">
                        <use xlink:href="#rim" fill="#404040">
                                <set attributeName="fill" to="#808080" begin="zoomminus.mouseover" end="zoomminus.mouseout"/>
                        </use>
                        <path d="M-4,0h8" fill="none" stroke="white" stroke-width="1.5" pointer-events="none"/>
                </g>
                <g id="dirArrow">
                        <path fill="none" stroke="white" stroke-width="1.5" d="M0,-3.0v7 M-2.5,-0.5L0,-3.0L2.5,-0.5"/>
                </g>
               <g id="resetDef">
                       <use xlink:href="#rim2" fill="#404040">
                               <set attributeName="fill" to="#808080" begin="reset.mouseover" end="reset.mouseout"/>
                       </use>
               </g>
        </defs>

<script type="text/javascript">
var viewWidth = 537;
var viewHeight = 995;
var sectionId = 'dynsection-742';
</script>
<script xlink:href="svgpan.js"/>
<svg id="graph" class="graph">
<g id="viewport">
<title>js_add_slow</title>
<!-- Node249680 -->
<g id="node1" class="node">
<title>Node249680</title>
<polygon fill="#bfbfbf" stroke="#000000" points="0,-340.5 0,-359.5 71,-359.5 71,-340.5 0,-340.5"/>
<text text-anchor="middle" x="35.5" y="-347.5" font-family="Helvetica,sans-Serif" font-size="10.00" fill="#000000">js_add_slow</text>
</g>
<!-- Node249681 -->
<g id="node2" class="node">
<title>Node249681</title>
<g id="a_node2"><a xlink:href="quickjs_8c.html#ac2894ff4edcdb4e6841bcce9c76081e3" target="_top" xlink:title="JS_CallInternal">
<polygon fill="none" stroke="#000000" points="107,-340.5 107,-359.5 190,-359.5 190,-340.5 107,-340.5"/>
<text text-anchor="middle" x="148.5" y="-347.5" font-family="Helvetica,sans-Serif" font-size="10.00" fill="#000000">JS_CallInternal</text>
</a>
</g>
</g>
<!-- Node249680&#45;&gt;Node249681 -->
<g id="edge1" class="edge">
<title>Node249680&#45;&gt;Node249681</title>
<path fill="none" stroke="#191970" d="M81.2775,-350C89.6712,-350 98.3927,-350 106.6638,-350"/>
<polygon fill="#191970" stroke="#191970" points="81.2539,-346.5001 71.2539,-350 81.2539,-353.5001 81.2539,-346.5001"/>
</g>
<!-- Node249681&#45;&gt;Node249681 -->
<g id="edge40" class="edge">
<title>Node249681&#45;&gt;Node249681</title>
<path fill="none" stroke="#191970" d="M127.7603,-369.4C129.1454,-374.3146 136.0586,-378 148.5,-378 168.4063,-378 174.1604,-368.5653 165.7625,-359.7571"/>
<polygon fill="#191970" stroke="#191970" points="131.1378,-370.3514 131.2375,-359.7571 124.5528,-367.9768 131.1378,-370.3514"/>
</g>
<!-- Node249682 -->
<g id="node3" class="node">
<title>Node249682</title>
<g id="a_node3"><a xlink:href="quickjs_8c.html#ade71a22dc56e7371392393df663b28b3" target="_top" xlink:title="async_func_resume">
<polygon fill="none" stroke="#000000" points="241,-874.5 241,-893.5 345,-893.5 345,-874.5 241,-874.5"/>
<text text-anchor="middle" x="293" y="-881.5" font-family="Helvetica,sans-Serif" font-size="10.00" fill="#000000">async_func_resume</text>
</a>
</g>
</g>
<!-- Node249681&#45;&gt;Node249682 -->
<g id="edge2" class="edge">
<title>Node249681&#45;&gt;Node249682</title>
<path fill="none" stroke="#191970" d="M153.7489,-369.3972C177.3253,-456.524 273.0372,-810.2275 290.3189,-874.092"/>
<polygon fill="#191970" stroke="#191970" points="157.122,-368.463 151.1314,-359.7244 150.365,-370.2915 157.122,-368.463"/>
</g>
<!-- Node249694 -->
<g id="node8" class="node">
<title>Node249694</title>
<g id="a_node8"><a xlink:href="quickjs_8c.html#a1a4c02a29525d5cb2085dd8bca3af350" target="_top" xlink:title="JS_Call">
<polygon fill="none" stroke="#ff0000" points="267.5,-378.5 267.5,-397.5 318.5,-397.5 318.5,-378.5 267.5,-378.5"/>
<text text-anchor="middle" x="293" y="-385.5" font-family="Helvetica,sans-Serif" font-size="10.00" fill="#000000">JS_Call</text>
</a>
</g>
</g>
<!-- Node249681&#45;&gt;Node249694 -->
<g id="edge7" class="edge">
<title>Node249681&#45;&gt;Node249694</title>
<path fill="none" stroke="#191970" d="M200.3524,-357.1309C226.197,-363.291 255.8346,-371.6885 274.4855,-378.4368"/>
<polygon fill="#191970" stroke="#191970" points="200.8269,-353.6484 190.2954,-354.8052 199.2497,-360.4684 200.8269,-353.6484"/>
</g>
<!-- Node249768 -->
<g id="node29" class="node">
<title>Node249768</title>
<g id="a_node29"><a xlink:href="quickjs_8c.html#ad35594576a14c10812efaf958c99af8a" target="_top" xlink:title="JS_CallConstructorInternal">
<polygon fill="none" stroke="#ff0000" points="226,-264.5 226,-283.5 360,-283.5 360,-264.5 226,-264.5"/>
<text text-anchor="middle" x="293" y="-271.5" font-family="Helvetica,sans-Serif" font-size="10.00" fill="#000000">JS_CallConstructorInternal</text>
</a>
</g>
</g>
<!-- Node249681&#45;&gt;Node249768 -->
<g id="edge34" class="edge">
<title>Node249681&#45;&gt;Node249768</title>
<path fill="none" stroke="#191970" d="M160.5491,-332.5463C175.0695,-317.2145 200.6856,-296.3922 226,-284 226.3258,-283.8405 226.6531,-283.6822 226.9819,-283.525"/>
<polygon fill="#191970" stroke="#191970" points="157.627,-330.572 153.6961,-340.4106 162.9045,-335.1708 157.627,-330.572"/>
</g>
<!-- Node249782 -->
<g id="node30" class="node">
<title>Node249782</title>
<g id="a_node30"><a xlink:href="quickjs_8c.html#a75f6ee5e4235a7dc99889f3d2eb2c147" target="_top" xlink:title="JS_CallFree">
<polygon fill="none" stroke="#ff0000" points="257.5,-302.5 257.5,-321.5 328.5,-321.5 328.5,-302.5 257.5,-302.5"/>
<text text-anchor="middle" x="293" y="-309.5" font-family="Helvetica,sans-Serif" font-size="10.00" fill="#000000">JS_CallFree</text>
</a>
</g>
</g>
<!-- Node249681&#45;&gt;Node249782 -->
<g id="edge36" class="edge">
<title>Node249681&#45;&gt;Node249782</title>
<path fill="none" stroke="#191970" d="M176.6305,-337.1263C199.6733,-329.5295 232.4179,-320.7723 257.3055,-315.4723"/>
<polygon fill="#191970" stroke="#191970" points="175.4119,-333.8441 167.095,-340.4076 177.6897,-340.4632 175.4119,-333.8441"/>
</g>
<!-- Node249683 -->
<g id="node4" class="node">
<title>Node249683</title>
<g id="a_node4"><a xlink:href="quickjs_8c.html#ac90552b1f1659acb3dae9a4c62479a30" target="_top" xlink:title="js_generator_function_call">
<polygon fill="none" stroke="#ff0000" points="397.5,-967.5 397.5,-986.5 527.5,-986.5 527.5,-967.5 397.5,-967.5"/>
<text text-anchor="middle" x="462.5" y="-974.5" font-family="Helvetica,sans-Serif" font-size="10.00" fill="#000000">js_generator_function_call</text>
</a>
</g>
</g>
<!-- Node249682&#45;&gt;Node249683 -->
<g id="edge3" class="edge">
<title>Node249682&#45;&gt;Node249683</title>
<path fill="none" stroke="#191970" d="M311.4671,-900.3133C331.1641,-916.9499 363.8865,-942.4617 396,-958 403.782,-961.7654 412.4469,-964.9157 420.8825,-967.499"/>
<polygon fill="#191970" stroke="#191970" points="313.488,-897.4351 303.6226,-893.5717 308.9255,-902.7439 313.488,-897.4351"/>
</g>
<!-- Node249687 -->
<g id="node5" class="node">
<title>Node249687</title>
<g id="a_node5"><a xlink:href="quickjs_8c.html#a1bf6b62983e8fff99c0a5d5a9f486115" target="_top" xlink:title="js_async_function_resume">
<polygon fill="none" stroke="#ff0000" points="396,-830.5 396,-849.5 529,-849.5 529,-830.5 396,-830.5"/>
<text text-anchor="middle" x="462.5" y="-837.5" font-family="Helvetica,sans-Serif" font-size="10.00" fill="#000000">js_async_function_resume</text>
</a>
</g>
</g>
<!-- Node249682&#45;&gt;Node249687 -->
<g id="edge4" class="edge">
<title>Node249682&#45;&gt;Node249687</title>
<path fill="none" stroke="#191970" d="M339.4651,-871.9383C366.6496,-864.8815 400.4877,-856.0976 425.7928,-849.5287"/>
<polygon fill="#191970" stroke="#191970" points="338.5787,-868.5523 329.779,-874.4527 340.3376,-875.3277 338.5787,-868.5523"/>
</g>
<!-- Node249692 -->
<g id="node6" class="node">
<title>Node249692</title>
<g id="a_node6"><a xlink:href="quickjs_8c.html#a89b019c704a2d2914bc30b30a72040b3" target="_top" xlink:title="js_async_generator\l_resume_next">
<polygon fill="none" stroke="#000000" points="412,-918 412,-948 513,-948 513,-918 412,-918"/>
<text text-anchor="start" x="420" y="-936" font-family="Helvetica,sans-Serif" font-size="10.00" fill="#000000">js_async_generator</text>
<text text-anchor="middle" x="462.5" y="-925" font-family="Helvetica,sans-Serif" font-size="10.00" fill="#000000">_resume_next</text>
</a>
</g>
</g>
<!-- Node249682&#45;&gt;Node249692 -->
<g id="edge5" class="edge">
<title>Node249682&#45;&gt;Node249692</title>
<path fill="none" stroke="#191970" d="M335.9372,-896.4125C359.0226,-903.0862 387.6309,-911.3564 411.805,-918.3448"/>
<polygon fill="#191970" stroke="#191970" points="336.6623,-892.9789 326.0837,-893.564 334.7183,-899.7036 336.6623,-892.9789"/>
</g>
<!-- Node249693 -->
<g id="node7" class="node">
<title>Node249693</title>
<g id="a_node7"><a xlink:href="quickjs_8c.html#ae19867da709929c072f05e90301835a4" target="_top" xlink:title="js_async_generator\l_function_call">
<polygon fill="none" stroke="#ff0000" points="412,-869 412,-899 513,-899 513,-869 412,-869"/>
<text text-anchor="start" x="420" y="-887" font-family="Helvetica,sans-Serif" font-size="10.00" fill="#000000">js_async_generator</text>
<text text-anchor="middle" x="462.5" y="-876" font-family="Helvetica,sans-Serif" font-size="10.00" fill="#000000">_function_call</text>
</a>
</g>
</g>
<!-- Node249682&#45;&gt;Node249693 -->
<g id="edge6" class="edge">
<title>Node249682&#45;&gt;Node249693</title>
<path fill="none" stroke="#191970" d="M355.388,-884C373.9885,-884 394.1368,-884 411.8866,-884"/>
<polygon fill="#191970" stroke="#191970" points="355.2387,-880.5001 345.2387,-884 355.2386,-887.5001 355.2387,-880.5001"/>
</g>
<!-- Node249694&#45;&gt;Node249681 -->
<g id="edge15" class="edge">
<title>Node249694&#45;&gt;Node249681</title>
<path fill="none" stroke="#191970" d="M257.4088,-384.5497C228.8289,-378.469 189.8374,-367.8129 167.095,-359.5924"/>
<polygon fill="#191970" stroke="#191970" points="256.923,-388.0222 267.4179,-386.57 258.3081,-381.1605 256.923,-388.0222"/>
</g>
<!-- Node249694&#45;&gt;Node249687 -->
<g id="edge16" class="edge">
<title>Node249694&#45;&gt;Node249687</title>
<path fill="none" stroke="#191970" d="M295.0847,-407.927C303.4965,-484.64 337.3319,-759.645 396,-821 399.6512,-824.8184 404.0118,-827.8855 408.73,-830.3468"/>
<polygon fill="#191970" stroke="#191970" points="298.5382,-407.3053 293.9903,-397.7362 291.5782,-408.0528 298.5382,-407.3053"/>
</g>
<!-- Node249695 -->
<g id="node9" class="node">
<title>Node249695</title>
<g id="a_node9"><a xlink:href="structqjs_1_1js__traits_3_01std_1_1function_3_01R_07Args_8_8_8_08_4_01_4.html#abc36cacd670b6b5f1773734a0586a02b" target="_top" xlink:title="qjs::js_traits\&lt; std\l::function\&lt; R(Args...)\l\&gt; \&gt;::unwrap">
<polygon fill="none" stroke="#000000" points="408,-392.5 408,-433.5 517,-433.5 517,-392.5 408,-392.5"/>
<text text-anchor="start" x="416" y="-421.5" font-family="Helvetica,sans-Serif" font-size="10.00" fill="#000000">qjs::js_traits&lt; std</text>
<text text-anchor="start" x="416" y="-410.5" font-family="Helvetica,sans-Serif" font-size="10.00" fill="#000000">::function&lt; R(Args...)</text>
<text text-anchor="middle" x="462.5" y="-399.5" font-family="Helvetica,sans-Serif" font-size="10.00" fill="#000000">&gt; &gt;::unwrap</text>
</a>
</g>
</g>
<!-- Node249694&#45;&gt;Node249695 -->
<g id="edge8" class="edge">
<title>Node249694&#45;&gt;Node249695</title>
<path fill="none" stroke="#191970" d="M328.7116,-393.2672C351.6128,-396.645 381.7972,-401.0969 407.6986,-404.9172"/>
<polygon fill="#191970" stroke="#191970" points="329.1471,-389.7936 318.7434,-391.797 328.1256,-396.7187 329.1471,-389.7936"/>
</g>
<!-- Node249696 -->
<g id="node10" class="node">
<title>Node249696</title>
<g id="a_node10"><a xlink:href="quickjs-libc_8c.html#abb1cbe3fdf905e81f603a3a0bfce475a" target="_top" xlink:title="call_handler">
<polygon fill="none" stroke="#ff0000" points="428.5,-354.5 428.5,-373.5 496.5,-373.5 496.5,-354.5 428.5,-354.5"/>
<text text-anchor="middle" x="462.5" y="-361.5" font-family="Helvetica,sans-Serif" font-size="10.00" fill="#000000">call_handler</text>
</a>
</g>
</g>
<!-- Node249694&#45;&gt;Node249696 -->
<g id="edge9" class="edge">
<title>Node249694&#45;&gt;Node249696</title>
<path fill="none" stroke="#191970" d="M328.9702,-382.9069C358.3013,-378.7538 399.4516,-372.9272 428.2948,-368.8432"/>
<polygon fill="#191970" stroke="#191970" points="328.1539,-379.4875 318.7434,-384.3549 329.1354,-386.4183 328.1539,-379.4875"/>
</g>
<!-- Node249701 -->
<g id="node11" class="node">
<title>Node249701</title>
<g id="a_node11"><a xlink:href="quickjs_8c.html#aa049793cc8648d35fe81876a2543ca4e" target="_top" xlink:title="JS_GetIterator2">
<polygon fill="none" stroke="#ff0000" points="419.5,-316.5 419.5,-335.5 505.5,-335.5 505.5,-316.5 419.5,-316.5"/>
<text text-anchor="middle" x="462.5" y="-323.5" font-family="Helvetica,sans-Serif" font-size="10.00" fill="#000000">JS_GetIterator2</text>
</a>
</g>
</g>
<!-- Node249694&#45;&gt;Node249701 -->
<g id="edge10" class="edge">
<title>Node249694&#45;&gt;Node249701</title>
<path fill="none" stroke="#191970" d="M328.3423,-376.395C338.6658,-372.723 349.8882,-368.4527 360,-364 376.5575,-356.709 379.2121,-351.7435 396,-345 404.9135,-341.4196 414.7502,-338.2214 424.0626,-335.5163"/>
<polygon fill="#191970" stroke="#191970" points="327.0809,-373.128 318.7855,-379.7188 329.3804,-379.7396 327.0809,-373.128"/>
</g>
<!-- Node249723 -->
<g id="node12" class="node">
<title>Node249723</title>
<g id="a_node12"><a xlink:href="quickjs_8c.html#ad6303fbd3add4afa0cb64b0aa6d431ce" target="_top" xlink:title="JS_IteratorNext2">
<polygon fill="none" stroke="#ff0000" points="417,-278.5 417,-297.5 508,-297.5 508,-278.5 417,-278.5"/>
<text text-anchor="middle" x="462.5" y="-285.5" font-family="Helvetica,sans-Serif" font-size="10.00" fill="#000000">JS_IteratorNext2</text>
</a>
</g>
</g>
<!-- Node249694&#45;&gt;Node249723 -->
<g id="edge11" class="edge">
<title>Node249694&#45;&gt;Node249723</title>
<path fill="none" stroke="#191970" d="M328.3224,-380.1664C339.2689,-376.5326 350.8475,-371.3368 360,-364 383.3787,-345.2593 372.0187,-324.9631 396,-307 402.1505,-302.393 409.3819,-298.902 416.7695,-296.257"/>
<polygon fill="#191970" stroke="#191970" points="327.1201,-376.8724 318.5349,-383.081 329.118,-383.5813 327.1201,-376.8724"/>
</g>
<!-- Node249727 -->
<g id="node13" class="node">
<title>Node249727</title>
<g id="a_node13"><a xlink:href="quickjs_8c.html#a62424fefab7bcc97f49c978205c7a1c1" target="_top" xlink:title="js_for_await_of_next">
<polygon fill="none" stroke="#000000" points="409,-792.5 409,-811.5 516,-811.5 516,-792.5 409,-792.5"/>
<text text-anchor="middle" x="462.5" y="-799.5" font-family="Helvetica,sans-Serif" font-size="10.00" fill="#000000">js_for_await_of_next</text>
</a>
</g>
</g>
<!-- Node249694&#45;&gt;Node249727 -->
<g id="edge12" class="edge">
<title>Node249694&#45;&gt;Node249727</title>
<path fill="none" stroke="#191970" d="M300.5257,-407.4189C314.0233,-442.8427 342.5623,-520.5268 360,-588 382.052,-673.3277 336.7352,-717.7712 396,-783 399.6334,-786.9991 404.0443,-790.1793 408.847,-792.705"/>
<polygon fill="#191970" stroke="#191970" points="303.7,-405.9215 296.8486,-397.8401 297.1649,-408.4303 303.7,-405.9215"/>
</g>
<!-- Node249728 -->
<g id="node14" class="node">
<title>Node249728</title>
<g id="a_node14"><a xlink:href="quickjs_8c.html#afd4ef2d701fa0702f321925b61c57bbf" target="_top" xlink:title="js_call_bound_function">
<polygon fill="none" stroke="#ff0000" points="404.5,-240.5 404.5,-259.5 520.5,-259.5 520.5,-240.5 404.5,-240.5"/>
<text text-anchor="middle" x="462.5" y="-247.5" font-family="Helvetica,sans-Serif" font-size="10.00" fill="#000000">js_call_bound_function</text>
</a>
</g>
</g>
<!-- Node249694&#45;&gt;Node249728 -->
<g id="edge14" class="edge">
<title>Node249694&#45;&gt;Node249728</title>
<path fill="none" stroke="#191970" d="M328.3781,-381.4933C339.6487,-377.9274 351.4083,-372.4362 360,-364 392.2175,-332.3654 362.7613,-299.5599 396,-269 400.2427,-265.0992 405.2323,-261.9932 410.5396,-259.5212"/>
<polygon fill="#191970" stroke="#191970" points="327.4055,-378.1308 318.6914,-384.157 329.2615,-384.8802 327.4055,-378.1308"/>
</g>
<!-- Node249729 -->
<g id="node15" class="node">
<title>Node249729</title>
<g id="a_node15"><a xlink:href="quickjs_8c.html#a3e852026d167fa03c673f86697dd3e67" target="_top" xlink:title="js_async_generator\l_resolve_or_reject">
<polygon fill="none" stroke="#ff0000" points="412,-191 412,-221 513,-221 513,-191 412,-191"/>
<text text-anchor="start" x="420" y="-209" font-family="Helvetica,sans-Serif" font-size="10.00" fill="#000000">js_async_generator</text>
<text text-anchor="middle" x="462.5" y="-198" font-family="Helvetica,sans-Serif" font-size="10.00" fill="#000000">_resolve_or_reject</text>
</a>
</g>
</g>
<!-- Node249694&#45;&gt;Node249729 -->
<g id="edge17" class="edge">
<title>Node249694&#45;&gt;Node249729</title>
<path fill="none" stroke="#191970" d="M328.5957,-382.049C339.9874,-378.5241 351.7665,-372.9166 360,-364 401.5441,-319.0088 354.8086,-276.3144 396,-231 400.48,-226.0715 406.029,-222.1099 411.9965,-218.9265"/>
<polygon fill="#191970" stroke="#191970" points="327.5576,-378.7031 318.7834,-384.6414 329.3457,-385.4709 327.5576,-378.7031"/>
</g>
<!-- Node249732 -->
<g id="node16" class="node">
<title>Node249732</title>
<g id="a_node16"><a xlink:href="quickjs_8c.html#a2355fabf91f59212ea65baba1b0b7c1b" target="_top" xlink:title="js_async_generator_next">
<polygon fill="none" stroke="#000000" points="400,-152.5 400,-171.5 525,-171.5 525,-152.5 400,-152.5"/>
<text text-anchor="middle" x="462.5" y="-159.5" font-family="Helvetica,sans-Serif" font-size="10.00" fill="#000000">js_async_generator_next</text>
</a>
</g>
</g>
<!-- Node249694&#45;&gt;Node249732 -->
<g id="edge18" class="edge">
<title>Node249694&#45;&gt;Node249732</title>
<path fill="none" stroke="#191970" d="M328.6823,-382.4491C340.1883,-378.957 352.0169,-373.268 360,-364 413.8136,-301.5251 340.5859,-243.0597 396,-182 399.9701,-177.6255 404.8566,-174.1929 410.1634,-171.5018"/>
<polygon fill="#191970" stroke="#191970" points="327.5797,-379.1184 318.7588,-384.9871 329.3142,-385.9001 327.5797,-379.1184"/>
</g>
<!-- Node249733 -->
<g id="node17" class="node">
<title>Node249733</title>
<g id="a_node17"><a xlink:href="quickjs_8c.html#a6357b7fdae71c70c140e78e6c20cb5c2" target="_top" xlink:title="js_dynamic_import_job">
<polygon fill="none" stroke="#ff0000" points="404.5,-114.5 404.5,-133.5 520.5,-133.5 520.5,-114.5 404.5,-114.5"/>
<text text-anchor="middle" x="462.5" y="-121.5" font-family="Helvetica,sans-Serif" font-size="10.00" fill="#000000">js_dynamic_import_job</text>
</a>
</g>
</g>
<!-- Node249694&#45;&gt;Node249733 -->
<g id="edge19" class="edge">
<title>Node249694&#45;&gt;Node249733</title>
<path fill="none" stroke="#191970" d="M328.5904,-382.681C340.1973,-379.21 352.1135,-373.475 360,-364 423.6643,-287.5117 329.859,-217.357 396,-143 399.4315,-139.1423 403.5864,-136.0444 408.1249,-133.5601"/>
<polygon fill="#191970" stroke="#191970" points="327.4306,-379.3632 318.579,-385.1855 329.1295,-386.1539 327.4306,-379.3632"/>
</g>
<!-- Node249735 -->
<g id="node18" class="node">
<title>Node249735</title>
<g id="a_node18"><a xlink:href="quickjs_8c.html#a8d4b24969540aff427939eeda47f451d" target="_top" xlink:title="js_function_apply">
<polygon fill="none" stroke="#ff0000" points="416.5,-76.5 416.5,-95.5 508.5,-95.5 508.5,-76.5 416.5,-76.5"/>
<text text-anchor="middle" x="462.5" y="-83.5" font-family="Helvetica,sans-Serif" font-size="10.00" fill="#000000">js_function_apply</text>
</a>
</g>
</g>
<!-- Node249694&#45;&gt;Node249735 -->
<g id="edge20" class="edge">
<title>Node249694&#45;&gt;Node249735</title>
<path fill="none" stroke="#191970" d="M328.7146,-382.7832C340.3331,-379.3217 352.2248,-373.5665 360,-364 433.2998,-273.813 319.7789,-192.7321 396,-105 401.3549,-98.8364 408.557,-94.6066 416.2472,-91.7183"/>
<polygon fill="#191970" stroke="#191970" points="327.5474,-379.4666 318.6852,-385.2729 329.2339,-386.2605 327.5474,-379.4666"/>
</g>
<!-- Node249738 -->
<g id="node19" class="node">
<title>Node249738</title>
<g id="a_node19"><a xlink:href="quickjs_8c.html#a677ad630a103e1f3d5129e0549112b50" target="_top" xlink:title="js_function_call">
<polygon fill="none" stroke="#000000" points="420.5,-754.5 420.5,-773.5 504.5,-773.5 504.5,-754.5 420.5,-754.5"/>
<text text-anchor="middle" x="462.5" y="-761.5" font-family="Helvetica,sans-Serif" font-size="10.00" fill="#000000">js_function_call</text>
</a>
</g>
</g>
<!-- Node249694&#45;&gt;Node249738 -->
<g id="edge22" class="edge">
<title>Node249694&#45;&gt;Node249738</title>
<path fill="none" stroke="#191970" d="M300.241,-407.4957C313.2837,-443.0423 341.1211,-520.9157 360,-588 379.3933,-656.9118 346.7356,-693.0582 396,-745 402.5276,-751.8824 411.3593,-756.3264 420.4513,-759.1816"/>
<polygon fill="#191970" stroke="#191970" points="303.4392,-406.0524 296.6945,-397.8817 296.8718,-408.4751 303.4392,-406.0524"/>
</g>
<!-- Node249704 -->
<g id="node20" class="node">
<title>Node249704</title>
<g id="a_node20"><a xlink:href="quickjs_8c.html#a5e32da9a43002cb96dcbd62a1a340144" target="_top" xlink:title="js_array_from">
<polygon fill="none" stroke="#000000" points="424.5,-716.5 424.5,-735.5 500.5,-735.5 500.5,-716.5 424.5,-716.5"/>
<text text-anchor="middle" x="462.5" y="-723.5" font-family="Helvetica,sans-Serif" font-size="10.00" fill="#000000">js_array_from</text>
</a>
</g>
</g>
<!-- Node249694&#45;&gt;Node249704 -->
<g id="edge23" class="edge">
<title>Node249694&#45;&gt;Node249704</title>
<path fill="none" stroke="#191970" d="M299.6153,-407.1229C311.8581,-442.6484 338.7386,-521.284 360,-588 376.7779,-640.6473 356.627,-668.2314 396,-707 403.6146,-714.4977 413.9722,-719.0786 424.2452,-721.8646"/>
<polygon fill="#191970" stroke="#191970" points="302.8797,-405.8532 296.3081,-397.5427 296.2629,-408.1374 302.8797,-405.8532"/>
</g>
<!-- Node249719 -->
<g id="node21" class="node">
<title>Node249719</title>
<g id="a_node21"><a xlink:href="quickjs_8c.html#aa0bbf08a7e91459c68a312fba7016c6d" target="_top" xlink:title="js_array_every">
<polygon fill="none" stroke="#000000" points="422.5,-678.5 422.5,-697.5 502.5,-697.5 502.5,-678.5 422.5,-678.5"/>
<text text-anchor="middle" x="462.5" y="-685.5" font-family="Helvetica,sans-Serif" font-size="10.00" fill="#000000">js_array_every</text>
</a>
</g>
</g>
<!-- Node249694&#45;&gt;Node249719 -->
<g id="edge24" class="edge">
<title>Node249694&#45;&gt;Node249719</title>
<path fill="none" stroke="#191970" d="M299.5433,-407.3208C320.5972,-469.2814 385.8129,-659.531 396,-669 403.2996,-675.785 412.8562,-680.1675 422.4389,-682.9923"/>
<polygon fill="#191970" stroke="#191970" points="302.7776,-405.9597 296.2501,-397.6145 296.1487,-408.2089 302.7776,-405.9597"/>
</g>
<!-- Node249739 -->
<g id="node22" class="node">
<title>Node249739</title>
<g id="a_node22"><a xlink:href="quickjs_8c.html#a36c1692489542a86dd79a7d39ab8ff95" target="_top" xlink:title="js_array_reduce">
<polygon fill="none" stroke="#000000" points="419.5,-640.5 419.5,-659.5 505.5,-659.5 505.5,-640.5 419.5,-640.5"/>
<text text-anchor="middle" x="462.5" y="-647.5" font-family="Helvetica,sans-Serif" font-size="10.00" fill="#000000">js_array_reduce</text>
</a>
</g>
</g>
<!-- Node249694&#45;&gt;Node249739 -->
<g id="edge25" class="edge">
<title>Node249694&#45;&gt;Node249739</title>
<path fill="none" stroke="#191970" d="M298.8036,-407.3014C314.7383,-459.1162 360.3498,-599.4734 396,-631 402.566,-636.8066 410.7947,-640.8465 419.204,-643.6553"/>
<polygon fill="#191970" stroke="#191970" points="302.129,-406.2066 295.868,-397.6597 295.4325,-408.2455 302.129,-406.2066"/>
</g>
<!-- Node249740 -->
<g id="node23" class="node">
<title>Node249740</title>
<g id="a_node23"><a xlink:href="quickjs_8c.html#a9dd41b086da4e13b3487cc9c6e2af2b8" target="_top" xlink:title="js_array_find">
<polygon fill="none" stroke="#000000" points="426.5,-602.5 426.5,-621.5 498.5,-621.5 498.5,-602.5 426.5,-602.5"/>
<text text-anchor="middle" x="462.5" y="-609.5" font-family="Helvetica,sans-Serif" font-size="10.00" fill="#000000">js_array_find</text>
</a>
</g>
</g>
<!-- Node249694&#45;&gt;Node249740 -->
<g id="edge26" class="edge">
<title>Node249694&#45;&gt;Node249740</title>
<path fill="none" stroke="#191970" d="M297.2704,-407.7068C307.1682,-448.587 335.5889,-542.9626 396,-593 404.5998,-600.123 415.7275,-604.5782 426.4115,-607.3639"/>
<polygon fill="#191970" stroke="#191970" points="300.6634,-406.8442 295.0048,-397.8871 293.8426,-408.418 300.6634,-406.8442"/>
</g>
<!-- Node249741 -->
<g id="node24" class="node">
<title>Node249741</title>
<g id="a_node24"><a xlink:href="quickjs_8c.html#ad90c33b4aae1181151bda4a98ac2ef23" target="_top" xlink:title="JS_FlattenIntoArray">
<polygon fill="none" stroke="#ff0000" points="410.5,-546.5 410.5,-565.5 514.5,-565.5 514.5,-546.5 410.5,-546.5"/>
<text text-anchor="middle" x="462.5" y="-553.5" font-family="Helvetica,sans-Serif" font-size="10.00" fill="#000000">JS_FlattenIntoArray</text>
</a>
</g>
</g>
<!-- Node249694&#45;&gt;Node249741 -->
<g id="edge27" class="edge">
<title>Node249694&#45;&gt;Node249741</title>
<path fill="none" stroke="#191970" d="M301.028,-407.2333C315.3239,-439.1074 348.2437,-502.7529 396,-537 401.3666,-540.8485 407.4968,-543.9204 413.8147,-546.3717"/>
<polygon fill="#191970" stroke="#191970" points="304.0942,-405.5072 296.8992,-397.7302 297.6739,-408.2967 304.0942,-405.5072"/>
</g>
<!-- Node249743 -->
<g id="node25" class="node">
<title>Node249743</title>
<g id="a_node25"><a xlink:href="quickjs_8c.html#aed1bf9ce4b9e3a82388679dd6ec7635b" target="_top" xlink:title="js_string_replace">
<polygon fill="none" stroke="#000000" points="417.5,-38.5 417.5,-57.5 507.5,-57.5 507.5,-38.5 417.5,-38.5"/>
<text text-anchor="middle" x="462.5" y="-45.5" font-family="Helvetica,sans-Serif" font-size="10.00" fill="#000000">js_string_replace</text>
</a>
</g>
</g>
<!-- Node249694&#45;&gt;Node249743 -->
<g id="edge29" class="edge">
<title>Node249694&#45;&gt;Node249743</title>
<path fill="none" stroke="#191970" d="M318.7835,-372.8288C333.3369,-362.8465 350.4685,-348.4185 360,-331 416.8458,-227.117 318.4507,-156.4942 396,-67 401.5828,-60.5573 409.1841,-56.2268 417.2547,-53.3324"/>
<polygon fill="#191970" stroke="#191970" points="316.6138,-370.065 310.1461,-378.4566 320.4353,-375.9299 316.6138,-370.065"/>
</g>
<!-- Node249744 -->
<g id="node26" class="node">
<title>Node249744</title>
<g id="a_node26"><a xlink:href="quickjs_8c.html#a624282391413d4c5a030adbd8b77aa80" target="_top" xlink:title="internalize_json_property">
<polygon fill="none" stroke="#ff0000" points="400,-490.5 400,-509.5 525,-509.5 525,-490.5 400,-490.5"/>
<text text-anchor="middle" x="462.5" y="-497.5" font-family="Helvetica,sans-Serif" font-size="10.00" fill="#000000">internalize_json_property</text>
</a>
</g>
</g>
<!-- Node249694&#45;&gt;Node249744 -->
<g id="edge30" class="edge">
<title>Node249694&#45;&gt;Node249744</title>
<path fill="none" stroke="#191970" d="M307.7694,-405.5222C326.3129,-426.4365 360.0752,-461.0764 396,-481 402.9303,-484.8435 410.7072,-487.968 418.4336,-490.4889"/>
<polygon fill="#191970" stroke="#191970" points="310.2051,-402.989 301.0056,-397.7336 304.9199,-407.5788 310.2051,-402.989"/>
</g>
<!-- Node249746 -->
<g id="node27" class="node">
<title>Node249746</title>
<g id="a_node27"><a xlink:href="quickjs_8c.html#a0da6493b4bc0edb7ddddfab807241d0b" target="_top" xlink:title="js_json_check">
<polygon fill="none" stroke="#ff0000" points="423,-.5 423,-19.5 502,-19.5 502,-.5 423,-.5"/>
<text text-anchor="middle" x="462.5" y="-7.5" font-family="Helvetica,sans-Serif" font-size="10.00" fill="#000000">js_json_check</text>
</a>
</g>
</g>
<!-- Node249694&#45;&gt;Node249746 -->
<g id="edge32" class="edge">
<title>Node249694&#45;&gt;Node249746</title>
<path fill="none" stroke="#191970" d="M318.8906,-372.8868C333.4819,-362.9251 350.6158,-348.4983 360,-331 423.8847,-211.8768 308.3449,-131.8989 396,-29 402.774,-21.0479 412.6242,-16.3064 422.6773,-13.5117"/>
<polygon fill="#191970" stroke="#191970" points="316.7158,-370.1253 310.226,-378.4999 320.5217,-376.0003 316.7158,-370.1253"/>
</g>
<!-- Node249750 -->
<g id="node28" class="node">
<title>Node249750</title>
<g id="a_node28"><a xlink:href="quickjs_8c.html#af97646b66d6fcb8bd19543d93baeadd7" target="_top" xlink:title="js_proxy_call_constructor">
<polygon fill="none" stroke="#ff0000" points="398.5,-452.5 398.5,-471.5 526.5,-471.5 526.5,-452.5 398.5,-452.5"/>
<text text-anchor="middle" x="462.5" y="-459.5" font-family="Helvetica,sans-Serif" font-size="10.00" fill="#000000">js_proxy_call_constructor</text>
</a>
</g>
</g>
<!-- Node249694&#45;&gt;Node249750 -->
<g id="edge33" class="edge">
<title>Node249694&#45;&gt;Node249750</title>
<path fill="none" stroke="#191970" d="M317.2006,-402.8192C337.6373,-414.8649 367.9699,-431.6618 396,-443 404.7935,-446.557 414.4925,-449.728 423.7008,-452.4125"/>
<polygon fill="#191970" stroke="#191970" points="318.9314,-399.7763 308.551,-397.6557 315.3434,-405.7868 318.9314,-399.7763"/>
</g>
<!-- Node249727&#45;&gt;Node249681 -->
<g id="edge13" class="edge">
<title>Node249727&#45;&gt;Node249681</title>
<path fill="none" stroke="#191970" d="M403.3504,-787.9188C400.7708,-786.4399 398.3033,-784.8058 396,-783 240.296,-660.927 165.3658,-411.8041 151.0642,-359.6903"/>
<polygon fill="#191970" stroke="#191970" points="401.9552,-791.1323 412.4772,-792.3721 405.0249,-784.8413 401.9552,-791.1323"/>
</g>
<!-- Node249735&#45;&gt;Node249681 -->
<g id="edge21" class="edge">
<title>Node249735&#45;&gt;Node249681</title>
<path fill="none" stroke="#191970" d="M406.9527,-96.201C402.8686,-98.572 399.131,-101.4676 396,-105 328.5344,-181.1149 434.3365,-261.5798 360,-331 314.3292,-373.6503 236.4173,-368.1517 188.9801,-359.5664"/>
<polygon fill="#191970" stroke="#191970" points="408.7723,-99.2138 416.3458,-91.8047 405.805,-92.8738 408.7723,-99.2138"/>
</g>
<!-- Node249741&#45;&gt;Node249741 -->
<g id="edge28" class="edge">
<title>Node249741&#45;&gt;Node249741</title>
<path fill="none" stroke="#191970" d="M431.0629,-574.2746C431.9592,-579.741 442.4382,-584 462.5,-584 492.3594,-584 500.9906,-574.5653 488.3937,-565.7571"/>
<polygon fill="#191970" stroke="#191970" points="434.085,-576.0475 436.6063,-565.7571 428.2181,-572.2291 434.085,-576.0475"/>
</g>
<!-- Node249744&#45;&gt;Node249744 -->
<g id="edge31" class="edge">
<title>Node249744&#45;&gt;Node249744</title>
<path fill="none" stroke="#191970" d="M431.0629,-518.2746C431.9592,-523.741 442.4382,-528 462.5,-528 492.3594,-528 500.9906,-518.5653 488.3937,-509.7571"/>
<polygon fill="#191970" stroke="#191970" points="434.085,-520.0475 436.6063,-509.7571 428.2181,-516.2291 434.085,-520.0475"/>
</g>
<!-- Node249768&#45;&gt;Node249681 -->
<g id="edge35" class="edge">
<title>Node249768&#45;&gt;Node249681</title>
<path fill="none" stroke="#191970" d="M268.6333,-286.6763C255.5753,-290.7533 239.4528,-295.4145 226,-302 204.3984,-312.5746 182.5771,-329.288 167.6182,-340.2863"/>
<polygon fill="#191970" stroke="#191970" points="269.9199,-289.9381 278.3391,-283.5063 267.7466,-283.284 269.9199,-289.9381"/>
</g>
<!-- Node249782&#45;&gt;Node249681 -->
<g id="edge37" class="edge">
<title>Node249782&#45;&gt;Node249681</title>
<path fill="none" stroke="#191970" d="M264.7961,-324.8979C243.5982,-331.8825 214.2201,-339.8432 190.2954,-345.1948"/>
<polygon fill="#191970" stroke="#191970" points="266.1689,-328.127 274.4855,-321.5632 263.8909,-321.508 266.1689,-328.127"/>
</g>
<!-- Node249782&#45;&gt;Node249743 -->
<g id="edge39" class="edge">
<title>Node249782&#45;&gt;Node249743</title>
<path fill="none" stroke="#191970" d="M338.4133,-306.6486C346.5737,-303.7571 354.2871,-299.4326 360,-293 427.5406,-216.9517 328.5344,-143.1149 396,-67 401.6547,-60.6203 409.288,-56.3179 417.3674,-53.4312"/>
<polygon fill="#191970" stroke="#191970" points="337.3708,-303.3063 328.7214,-309.425 339.2986,-310.0357 337.3708,-303.3063"/>
</g>
<!-- Node249782&#45;&gt;Node249746 -->
<g id="edge38" class="edge">
<title>Node249782&#45;&gt;Node249746</title>
<path fill="none" stroke="#191970" d="M338.5267,-306.7482C346.6784,-303.8491 354.3596,-299.4962 360,-293 437.6376,-203.5823 318.4507,-118.4942 396,-29 402.8409,-21.1054 412.7125,-16.3823 422.7647,-13.5868"/>
<polygon fill="#191970" stroke="#191970" points="337.4844,-303.4059 328.8353,-309.525 339.4125,-310.1351 337.4844,-303.4059"/>
</g>
</g>
</svg>
        <g id="navigator" transform="translate(0 0)" fill="#404254">
                <rect fill="#f2f5e9" fill-opacity="0.5" stroke="#606060" stroke-width=".5" x="0" y="0" width="60" height="60"/>
                <use id="zoomplus" xlink:href="#zoomPlus" x="17" y="9" onmousedown="handleZoom(evt,'in')"/>
                <use id="zoomminus" xlink:href="#zoomMin" x="42" y="9" onmousedown="handleZoom(evt,'out')"/>
                <use id="reset" xlink:href="#resetDef" x="30" y="36" onmousedown="handleReset()"/>
                <g id="arrowUp" xlink:href="#dirArrow" transform="translate(30 24)" onmousedown="handlePan(0,-1)">
                  <use xlink:href="#rim" fill="#404040">
                        <set attributeName="fill" to="#808080" begin="arrowUp.mouseover" end="arrowUp.mouseout"/>
                  </use>
                  <path fill="none" stroke="white" stroke-width="1.5" d="M0,-3.0v7 M-2.5,-0.5L0,-3.0L2.5,-0.5"/>
                </g>
                <g id="arrowRight" xlink:href="#dirArrow" transform="rotate(90) translate(36 -43)" onmousedown="handlePan(1,0)">
                  <use xlink:href="#rim" fill="#404040">
                        <set attributeName="fill" to="#808080" begin="arrowRight.mouseover" end="arrowRight.mouseout"/>
                  </use>
                  <path fill="none" stroke="white" stroke-width="1.5" d="M0,-3.0v7 M-2.5,-0.5L0,-3.0L2.5,-0.5"/>
                </g>
                <g id="arrowDown" xlink:href="#dirArrow" transform="rotate(180) translate(-30 -48)" onmousedown="handlePan(0,1)">
                  <use xlink:href="#rim" fill="#404040">
                        <set attributeName="fill" to="#808080" begin="arrowDown.mouseover" end="arrowDown.mouseout"/>
                  </use>
                  <path fill="none" stroke="white" stroke-width="1.5" d="M0,-3.0v7 M-2.5,-0.5L0,-3.0L2.5,-0.5"/>
                </g>
                <g id="arrowLeft" xlink:href="#dirArrow" transform="rotate(270) translate(-36 17)" onmousedown="handlePan(-1,0)">
                  <use xlink:href="#rim" fill="#404040">
                        <set attributeName="fill" to="#808080" begin="arrowLeft.mouseover" end="arrowLeft.mouseout"/>
                  </use>
                  <path fill="none" stroke="white" stroke-width="1.5" d="M0,-3.0v7 M-2.5,-0.5L0,-3.0L2.5,-0.5"/>
                </g>
        </g>
        <svg viewBox="0 0 15 15" width="100%" height="30px" preserveAspectRatio="xMaxYMin meet">
         <g id="arrow_out" transform="scale(0.3 0.3)">
          <a xlink:href="quickjs_8c_ae8ff05447c0d51fe277baccf616dc7c6_icgraph_org.svg" target="_base">
           <rect id="button" ry="5" rx="5" y="6" x="6" height="38" width="38"
                fill="#f2f5e9" fill-opacity="0.5" stroke="#606060" stroke-width="1.0"/>
           <path id="arrow"
             d="M 11.500037,31.436501 C 11.940474,20.09759 22.043105,11.32322 32.158766,21.979434 L 37.068811,17.246167 C 37.068811,17.246167 37.088388,32 37.088388,32 L 22.160133,31.978069 C 22.160133,31.978069 26.997745,27.140456 26.997745,27.140456 C 18.528582,18.264221 13.291696,25.230495 11.500037,31.436501 z"
             style="fill:#404040;"/>
          </a>
         </g>
        </svg>
</svg>
