<?xml version="1.0" encoding="UTF-8" standalone="no"?>
<!DOCTYPE svg PUBLIC "-//W3C//DTD SVG 1.1//EN"
 "http://www.w3.org/Graphics/SVG/1.1/DTD/svg11.dtd">
<!-- Generated by graphviz version 2.40.1 (20161225.0304)
 -->
<!-- Title: JS_SetUncatchableError Pages: 1 -->
<!--zoomable 122 -->
<svg id="main" version="1.1" xmlns="http://www.w3.org/2000/svg" xmlns:xlink="http://www.w3.org/1999/xlink" xml:space="preserve" onload="init(evt)">
<style type="text/css"><![CDATA[
.edge:hover path { stroke: red; }
.edge:hover polygon { stroke: red; fill: red; }
]]></style>
<script type="text/javascript"><![CDATA[
var edges = document.getElementsByTagName('g');
if (edges && edges.length) {
  for (var i=0;i<edges.length;i++) {
    if (edges[i].id.substr(0,4)=='edge') {
      edges[i].setAttribute('class','edge');
    }
  }
}
]]></script>
        <defs>
                <circle id="rim" cx="0" cy="0" r="7"/>
                <circle id="rim2" cx="0" cy="0" r="3.5"/>
                <g id="zoomPlus">
                        <use xlink:href="#rim" fill="#404040">
                                <set attributeName="fill" to="#808080" begin="zoomplus.mouseover" end="zoomplus.mouseout"/>
                        </use>
                        <path d="M-4,0h8M0,-4v8" fill="none" stroke="white" stroke-width="1.5" pointer-events="none"/>
                </g>
                <g id="zoomMin">
                        <use xlink:href="#rim" fill="#404040">
                                <set attributeName="fill" to="#808080" begin="zoomminus.mouseover" end="zoomminus.mouseout"/>
                        </use>
                        <path d="M-4,0h8" fill="none" stroke="white" stroke-width="1.5" pointer-events="none"/>
                </g>
                <g id="dirArrow">
                        <path fill="none" stroke="white" stroke-width="1.5" d="M0,-3.0v7 M-2.5,-0.5L0,-3.0L2.5,-0.5"/>
                </g>
               <g id="resetDef">
                       <use xlink:href="#rim2" fill="#404040">
                               <set attributeName="fill" to="#808080" begin="reset.mouseover" end="reset.mouseout"/>
                       </use>
               </g>
        </defs>

<script type="text/javascript">
var viewWidth = 762;
var viewHeight = 122;
var sectionId = 'dynsection-630';
</script>
<script xlink:href="svgpan.js"/>
<svg id="graph" class="graph">
<g id="viewport">
<title>JS_SetUncatchableError</title>
<!-- Node214803 -->
<g id="node1" class="node">
<title>Node214803</title>
<polygon fill="#bfbfbf" stroke="#000000" points="0,-19.5 0,-38.5 125,-38.5 125,-19.5 0,-19.5"/>
<text text-anchor="middle" x="62.5" y="-26.5" font-family="Helvetica,sans-Serif" font-size="10.00" fill="#000000">JS_SetUncatchableError</text>
</g>
<!-- Node214804 -->
<g id="node2" class="node">
<title>Node214804</title>
<g id="a_node2"><a xlink:href="quickjs_8c.html#a9d376a5d1dfcd4a3a0c901bb62e2ff96" target="_top" xlink:title="__js_poll_interrupts">
<polygon fill="none" stroke="#000000" points="178.5,-38.5 178.5,-57.5 279.5,-57.5 279.5,-38.5 178.5,-38.5"/>
<text text-anchor="middle" x="229" y="-45.5" font-family="Helvetica,sans-Serif" font-size="10.00" fill="#000000">__js_poll_interrupts</text>
</a>
</g>
</g>
<!-- Node214803&#45;&gt;Node214804 -->
<g id="edge1" class="edge">
<title>Node214803&#45;&gt;Node214804</title>
<path fill="none" stroke="#191970" d="M135.4009,-37.319C149.9096,-38.9747 164.8443,-40.6789 178.4053,-42.2264"/>
<polygon fill="#191970" stroke="#191970" points="135.7789,-33.8395 125.4465,-36.1831 134.9852,-40.7944 135.7789,-33.8395"/>
</g>
<!-- Node215391 -->
<g id="node7" class="node">
<title>Node215391</title>
<g id="a_node7"><a xlink:href="quickjs_8c.html#afa964cd85085a7b6a3242d8226b2274a" target="_top" xlink:title="JS_ResetUncatchableError">
<polygon fill="none" stroke="#000000" points="161,-.5 161,-19.5 297,-19.5 297,-.5 161,-.5"/>
<text text-anchor="middle" x="229" y="-7.5" font-family="Helvetica,sans-Serif" font-size="10.00" fill="#000000">JS_ResetUncatchableError</text>
</a>
</g>
</g>
<!-- Node214803&#45;&gt;Node215391 -->
<g id="edge9" class="edge">
<title>Node214803&#45;&gt;Node215391</title>
<path fill="none" stroke="#191970" d="M135.6256,-20.6553C144.047,-19.6943 152.6087,-18.7173 160.9591,-17.7644"/>
<polygon fill="#191970" stroke="#191970" points="134.9852,-17.2056 125.4465,-21.8169 135.7789,-24.1605 134.9852,-17.2056"/>
</g>
<!-- Node214805 -->
<g id="node3" class="node">
<title>Node214805</title>
<g id="a_node3"><a xlink:href="quickjs_8c.html#a246e337d6566552736209730827c0871" target="_top" xlink:title="js_poll_interrupts">
<polygon fill="none" stroke="#000000" points="333,-38.5 333,-57.5 423,-57.5 423,-38.5 333,-38.5"/>
<text text-anchor="middle" x="378" y="-45.5" font-family="Helvetica,sans-Serif" font-size="10.00" fill="#000000">js_poll_interrupts</text>
</a>
</g>
</g>
<!-- Node214804&#45;&gt;Node214805 -->
<g id="edge2" class="edge">
<title>Node214804&#45;&gt;Node214805</title>
<path fill="none" stroke="#191970" d="M290.1208,-48C304.4197,-48 319.3985,-48 332.8559,-48"/>
<polygon fill="#191970" stroke="#191970" points="289.8606,-44.5001 279.8606,-48 289.8606,-51.5001 289.8606,-44.5001"/>
</g>
<!-- Node214806 -->
<g id="node4" class="node">
<title>Node214806</title>
<g id="a_node4"><a xlink:href="quickjs_8c.html#ac2894ff4edcdb4e6841bcce9c76081e3" target="_top" xlink:title="JS_CallInternal">
<polygon fill="none" stroke="#ff0000" points="480,-76.5 480,-95.5 563,-95.5 563,-76.5 480,-76.5"/>
<text text-anchor="middle" x="521.5" y="-83.5" font-family="Helvetica,sans-Serif" font-size="10.00" fill="#000000">JS_CallInternal</text>
</a>
</g>
</g>
<!-- Node214805&#45;&gt;Node214806 -->
<g id="edge3" class="edge">
<title>Node214805&#45;&gt;Node214806</title>
<path fill="none" stroke="#191970" d="M423.9735,-60.1742C443.8164,-65.4287 466.6928,-71.4866 485.3005,-76.4141"/>
<polygon fill="#191970" stroke="#191970" points="424.7739,-56.7655 414.2111,-57.589 422.9819,-63.5323 424.7739,-56.7655"/>
</g>
<!-- Node214893 -->
<g id="node5" class="node">
<title>Node214893</title>
<g id="a_node5"><a xlink:href="quickjs_8c.html#ad35594576a14c10812efaf958c99af8a" target="_top" xlink:title="JS_CallConstructorInternal">
<polygon fill="none" stroke="#ff0000" points="620,-76.5 620,-95.5 754,-95.5 754,-76.5 620,-76.5"/>
<text text-anchor="middle" x="687" y="-83.5" font-family="Helvetica,sans-Serif" font-size="10.00" fill="#000000">JS_CallConstructorInternal</text>
</a>
</g>
</g>
<!-- Node214805&#45;&gt;Node214893 -->
<g id="edge7" class="edge">
<title>Node214805&#45;&gt;Node214893</title>
<path fill="none" stroke="#191970" d="M433.3344,-51.7392C474.8969,-54.8783 533.1621,-59.9812 584,-67 602.5532,-69.5615 622.8505,-73.1375 640.4851,-76.497"/>
<polygon fill="#191970" stroke="#191970" points="433.3736,-48.2326 423.1422,-50.9835 432.856,-55.2134 433.3736,-48.2326"/>
</g>
<!-- Node215376 -->
<g id="node6" class="node">
<title>Node215376</title>
<g id="a_node6"><a xlink:href="quickjs_8c.html#abec3cc345c6b3c1be76a0dc63fd7fa2f" target="_top" xlink:title="js_proxy_getPrototypeOf">
<polygon fill="none" stroke="#ff0000" points="459,-.5 459,-19.5 584,-19.5 584,-.5 459,-.5"/>
<text text-anchor="middle" x="521.5" y="-7.5" font-family="Helvetica,sans-Serif" font-size="10.00" fill="#000000">js_proxy_getPrototypeOf</text>
</a>
</g>
</g>
<!-- Node214805&#45;&gt;Node215376 -->
<g id="edge8" class="edge">
<title>Node214805&#45;&gt;Node215376</title>
<path fill="none" stroke="#191970" d="M423.9735,-35.8258C443.8164,-30.5713 466.6928,-24.5134 485.3005,-19.5859"/>
<polygon fill="#191970" stroke="#191970" points="422.9819,-32.4677 414.2111,-38.411 424.7739,-39.2345 422.9819,-32.4677"/>
</g>
<!-- Node214806&#45;&gt;Node214806 -->
<g id="edge6" class="edge">
<title>Node214806&#45;&gt;Node214806</title>
<path fill="none" stroke="#191970" d="M494.9941,-104.6539C496.1021,-109.9368 504.9374,-114 521.5,-114 546.7383,-114 554.0337,-104.5653 543.3863,-95.7571"/>
<polygon fill="#191970" stroke="#191970" points="498.1117,-106.2449 499.6137,-95.7571 491.8992,-103.0192 498.1117,-106.2449"/>
</g>
<!-- Node214806&#45;&gt;Node214893 -->
<g id="edge4" class="edge">
<title>Node214806&#45;&gt;Node214893</title>
<path fill="none" stroke="#191970" d="M573.6333,-79.6786C588.2811,-79.25 604.419,-79.1428 619.8116,-79.3572"/>
<polygon fill="#191970" stroke="#191970" points="573.1318,-76.1942 563.2626,-80.0476 573.3808,-83.1897 573.1318,-76.1942"/>
</g>
<!-- Node214893&#45;&gt;Node214806 -->
<g id="edge5" class="edge">
<title>Node214893&#45;&gt;Node214806</title>
<path fill="none" stroke="#191970" d="M609.4134,-92.7383C593.4963,-92.8105 577.3233,-92.5485 563.2626,-91.9524"/>
<polygon fill="#191970" stroke="#191970" points="609.8442,-96.2346 619.8116,-92.6428 609.7798,-89.2349 609.8442,-96.2346"/>
</g>
<!-- Node215119 -->
<g id="node8" class="node">
<title>Node215119</title>
<g id="a_node8"><a xlink:href="quickjs-libc_8c.html#a55f6cd4bbd0e676992642d066fd1d9fd" target="_top" xlink:title="js_evalScript">
<polygon fill="none" stroke="#000000" points="341.5,-.5 341.5,-19.5 414.5,-19.5 414.5,-.5 341.5,-.5"/>
<text text-anchor="middle" x="378" y="-7.5" font-family="Helvetica,sans-Serif" font-size="10.00" fill="#000000">js_evalScript</text>
</a>
</g>
</g>
<!-- Node215391&#45;&gt;Node215119 -->
<g id="edge10" class="edge">
<title>Node215391&#45;&gt;Node215119</title>
<path fill="none" stroke="#191970" d="M307.7132,-10C319.4474,-10 331.0417,-10 341.3268,-10"/>
<polygon fill="#191970" stroke="#191970" points="307.3948,-6.5001 297.3948,-10 307.3947,-13.5001 307.3948,-6.5001"/>
</g>
</g>
</svg>
        <g id="navigator" transform="translate(0 0)" fill="#404254">
                <rect fill="#f2f5e9" fill-opacity="0.5" stroke="#606060" stroke-width=".5" x="0" y="0" width="60" height="60"/>
                <use id="zoomplus" xlink:href="#zoomPlus" x="17" y="9" onmousedown="handleZoom(evt,'in')"/>
                <use id="zoomminus" xlink:href="#zoomMin" x="42" y="9" onmousedown="handleZoom(evt,'out')"/>
                <use id="reset" xlink:href="#resetDef" x="30" y="36" onmousedown="handleReset()"/>
                <g id="arrowUp" xlink:href="#dirArrow" transform="translate(30 24)" onmousedown="handlePan(0,-1)">
                  <use xlink:href="#rim" fill="#404040">
                        <set attributeName="fill" to="#808080" begin="arrowUp.mouseover" end="arrowUp.mouseout"/>
                  </use>
                  <path fill="none" stroke="white" stroke-width="1.5" d="M0,-3.0v7 M-2.5,-0.5L0,-3.0L2.5,-0.5"/>
                </g>
                <g id="arrowRight" xlink:href="#dirArrow" transform="rotate(90) translate(36 -43)" onmousedown="handlePan(1,0)">
                  <use xlink:href="#rim" fill="#404040">
                        <set attributeName="fill" to="#808080" begin="arrowRight.mouseover" end="arrowRight.mouseout"/>
                  </use>
                  <path fill="none" stroke="white" stroke-width="1.5" d="M0,-3.0v7 M-2.5,-0.5L0,-3.0L2.5,-0.5"/>
                </g>
                <g id="arrowDown" xlink:href="#dirArrow" transform="rotate(180) translate(-30 -48)" onmousedown="handlePan(0,1)">
                  <use xlink:href="#rim" fill="#404040">
                        <set attributeName="fill" to="#808080" begin="arrowDown.mouseover" end="arrowDown.mouseout"/>
                  </use>
                  <path fill="none" stroke="white" stroke-width="1.5" d="M0,-3.0v7 M-2.5,-0.5L0,-3.0L2.5,-0.5"/>
                </g>
                <g id="arrowLeft" xlink:href="#dirArrow" transform="rotate(270) translate(-36 17)" onmousedown="handlePan(-1,0)">
                  <use xlink:href="#rim" fill="#404040">
                        <set attributeName="fill" to="#808080" begin="arrowLeft.mouseover" end="arrowLeft.mouseout"/>
                  </use>
                  <path fill="none" stroke="white" stroke-width="1.5" d="M0,-3.0v7 M-2.5,-0.5L0,-3.0L2.5,-0.5"/>
                </g>
        </g>
        <svg viewBox="0 0 15 15" width="100%" height="30px" preserveAspectRatio="xMaxYMin meet">
         <g id="arrow_out" transform="scale(0.3 0.3)">
          <a xlink:href="quickjs_8c_a43f6c409b913e06895215979576547aa_icgraph_org.svg" target="_base">
           <rect id="button" ry="5" rx="5" y="6" x="6" height="38" width="38"
                fill="#f2f5e9" fill-opacity="0.5" stroke="#606060" stroke-width="1.0"/>
           <path id="arrow"
             d="M 11.500037,31.436501 C 11.940474,20.09759 22.043105,11.32322 32.158766,21.979434 L 37.068811,17.246167 C 37.068811,17.246167 37.088388,32 37.088388,32 L 22.160133,31.978069 C 22.160133,31.978069 26.997745,27.140456 26.997745,27.140456 C 18.528582,18.264221 13.291696,25.230495 11.500037,31.436501 z"
             style="fill:#404040;"/>
          </a>
         </g>
        </svg>
</svg>
