<?xml version="1.0" encoding="UTF-8" standalone="no"?>
<!DOCTYPE svg PUBLIC "-//W3C//DTD SVG 1.1//EN"
 "http://www.w3.org/Graphics/SVG/1.1/DTD/svg11.dtd">
<!-- Generated by graphviz version 2.40.1 (20161225.0304)
 -->
<!-- Title: JS_NewRuntime2 Pages: 1 -->
<svg width="382pt" height="28pt"
 viewBox="0.00 0.00 382.00 28.00" xmlns="http://www.w3.org/2000/svg" xmlns:xlink="http://www.w3.org/1999/xlink">
<g id="graph0" class="graph" transform="scale(1 1) rotate(0) translate(4 24)">
<title>JS_NewRuntime2</title>
<!-- Node1559 -->
<g id="node1" class="node">
<title>Node1559</title>
<polygon fill="#bfbfbf" stroke="#000000" points="0,-.5 0,-19.5 96,-19.5 96,-.5 0,-.5"/>
<text text-anchor="middle" x="48" y="-7.5" font-family="Helvetica,sans-Serif" font-size="10.00" fill="#000000">JS_NewRuntime2</text>
</g>
<!-- Node1560 -->
<g id="node2" class="node">
<title>Node1560</title>
<g id="a_node2"><a xlink:href="quickjs_8c.html#afc1ca27a266094085ebb43e2eea0dda2" target="_top" xlink:title="JS_NewRuntime">
<polygon fill="none" stroke="#000000" points="132,-.5 132,-19.5 223,-19.5 223,-.5 132,-.5"/>
<text text-anchor="middle" x="177.5" y="-7.5" font-family="Helvetica,sans-Serif" font-size="10.00" fill="#000000">JS_NewRuntime</text>
</a>
</g>
</g>
<!-- Node1559&#45;&gt;Node1560 -->
<g id="edge1" class="edge">
<title>Node1559&#45;&gt;Node1560</title>
<path fill="none" stroke="#191970" d="M106.4754,-10C114.9739,-10 123.6181,-10 131.8147,-10"/>
<polygon fill="#191970" stroke="#191970" points="106.2211,-6.5001 96.221,-10 106.221,-13.5001 106.2211,-6.5001"/>
</g>
<!-- Node1561 -->
<g id="node3" class="node">
<title>Node1561</title>
<g id="a_node3"><a xlink:href="classqjs_1_1Runtime.html#a0860a1339ff567f9f603c7bed4d670f9" target="_top" xlink:title="qjs::Runtime::Runtime">
<polygon fill="none" stroke="#000000" points="259,-.5 259,-19.5 374,-19.5 374,-.5 259,-.5"/>
<text text-anchor="middle" x="316.5" y="-7.5" font-family="Helvetica,sans-Serif" font-size="10.00" fill="#000000">qjs::Runtime::Runtime</text>
</a>
</g>
</g>
<!-- Node1560&#45;&gt;Node1561 -->
<g id="edge2" class="edge">
<title>Node1560&#45;&gt;Node1561</title>
<path fill="none" stroke="#191970" d="M233.1119,-10C241.5346,-10 250.2411,-10 258.7088,-10"/>
<polygon fill="#191970" stroke="#191970" points="233.0138,-6.5001 223.0138,-10 233.0138,-13.5001 233.0138,-6.5001"/>
</g>
</g>
</svg>
