<?xml version="1.0" encoding="UTF-8" standalone="no"?>
<!DOCTYPE svg PUBLIC "-//W3C//DTD SVG 1.1//EN"
 "http://www.w3.org/Graphics/SVG/1.1/DTD/svg11.dtd">
<!-- Generated by graphviz version 2.40.1 (20161225.0304)
 -->
<!-- Title: js_reflect_setPrototypeOf Pages: 1 -->
<svg width="871pt" height="332pt"
 viewBox="0.00 0.00 871.00 332.00" xmlns="http://www.w3.org/2000/svg" xmlns:xlink="http://www.w3.org/1999/xlink">
<g id="graph0" class="graph" transform="scale(1 1) rotate(0) translate(4 328)">
<title>js_reflect_setPrototypeOf</title>
<!-- Node419166 -->
<g id="node1" class="node">
<title>Node419166</title>
<polygon fill="#bfbfbf" stroke="#000000" points="0,-171.5 0,-190.5 128,-190.5 128,-171.5 0,-171.5"/>
<text text-anchor="middle" x="64" y="-178.5" font-family="Helvetica,sans-Serif" font-size="10.00" fill="#000000">js_reflect_setPrototypeOf</text>
</g>
<!-- Node419167 -->
<g id="node2" class="node">
<title>Node419167</title>
<g id="a_node2"><a xlink:href="quickjs_8h.html#a93abffa925714e249a6aa2f4ae7900f6" target="_top" xlink:title="JS_NewBool">
<polygon fill="none" stroke="#000000" points="188.5,-190.5 188.5,-209.5 262.5,-209.5 262.5,-190.5 188.5,-190.5"/>
<text text-anchor="middle" x="225.5" y="-197.5" font-family="Helvetica,sans-Serif" font-size="10.00" fill="#000000">JS_NewBool</text>
</a>
</g>
</g>
<!-- Node419166&#45;&gt;Node419167 -->
<g id="edge1" class="edge">
<title>Node419166&#45;&gt;Node419167</title>
<path fill="none" stroke="#191970" d="M128.2931,-188.5639C145.0336,-190.5334 162.7596,-192.6188 178.4255,-194.4618"/>
<polygon fill="#191970" stroke="#191970" points="178.0512,-197.9418 188.3916,-195.6343 178.8691,-190.9898 178.0512,-197.9418"/>
</g>
<!-- Node419168 -->
<g id="node3" class="node">
<title>Node419168</title>
<g id="a_node3"><a xlink:href="quickjs_8c.html#a11b9662411b5b3f631925a0ca708ce25" target="_top" xlink:title="JS_SetPrototypeInternal">
<polygon fill="none" stroke="#000000" points="164,-152.5 164,-171.5 287,-171.5 287,-152.5 164,-152.5"/>
<text text-anchor="middle" x="225.5" y="-159.5" font-family="Helvetica,sans-Serif" font-size="10.00" fill="#000000">JS_SetPrototypeInternal</text>
</a>
</g>
</g>
<!-- Node419166&#45;&gt;Node419168 -->
<g id="edge2" class="edge">
<title>Node419166&#45;&gt;Node419168</title>
<path fill="none" stroke="#191970" d="M128.2931,-173.4361C136.6105,-172.4576 145.171,-171.4505 153.6014,-170.4587"/>
<polygon fill="#191970" stroke="#191970" points="154.2723,-173.904 163.7948,-169.2594 153.4543,-166.9519 154.2723,-173.904"/>
</g>
<!-- Node419169 -->
<g id="node4" class="node">
<title>Node419169</title>
<g id="a_node4"><a xlink:href="quickjs_8h.html#a775522f2d084fc8fa0fcb33f390006b4" target="_top" xlink:title="JS_DupValue">
<polygon fill="none" stroke="#000000" points="364.5,-304.5 364.5,-323.5 441.5,-323.5 441.5,-304.5 364.5,-304.5"/>
<text text-anchor="middle" x="403" y="-311.5" font-family="Helvetica,sans-Serif" font-size="10.00" fill="#000000">JS_DupValue</text>
</a>
</g>
</g>
<!-- Node419168&#45;&gt;Node419169 -->
<g id="edge3" class="edge">
<title>Node419168&#45;&gt;Node419169</title>
<path fill="none" stroke="#191970" d="M273.1294,-171.5084C278.2341,-173.9785 283.011,-177.0875 287,-181 323.4228,-216.7246 286.4313,-254.4248 323,-290 331.5211,-298.2896 342.7893,-303.7312 354.1711,-307.2987"/>
<polygon fill="#191970" stroke="#191970" points="353.5707,-310.7614 364.1364,-309.9758 355.3869,-304.0011 353.5707,-310.7614"/>
</g>
<!-- Node419170 -->
<g id="node5" class="node">
<title>Node419170</title>
<g id="a_node5"><a xlink:href="quickjs_8h.html#afaa20c47565bc704c6c85f3d77254e7d" target="_top" xlink:title="JS_FreeValue">
<polygon fill="none" stroke="#000000" points="656,-228.5 656,-247.5 734,-247.5 734,-228.5 656,-228.5"/>
<text text-anchor="middle" x="695" y="-235.5" font-family="Helvetica,sans-Serif" font-size="10.00" fill="#000000">JS_FreeValue</text>
</a>
</g>
</g>
<!-- Node419168&#45;&gt;Node419170 -->
<g id="edge4" class="edge">
<title>Node419168&#45;&gt;Node419170</title>
<path fill="none" stroke="#191970" d="M256.8187,-171.5636C266.505,-174.5515 277.2031,-177.8822 287,-181 390.3933,-213.9038 411.8537,-239.8973 519,-257 561.5722,-263.7954 573.1887,-262.0758 616,-257 628.2572,-255.5467 641.3647,-252.8673 653.3092,-249.9695"/>
<polygon fill="#191970" stroke="#191970" points="654.1917,-253.3566 663.0249,-247.5063 652.4714,-246.5713 654.1917,-253.3566"/>
</g>
<!-- Node419206 -->
<g id="node7" class="node">
<title>Node419206</title>
<g id="a_node7"><a xlink:href="quickjs_8c.html#ae8b32777df50bb192c19840adc4d32a1" target="_top" xlink:title="js_proxy_setPrototypeOf">
<polygon fill="none" stroke="#000000" points="340.5,-152.5 340.5,-171.5 465.5,-171.5 465.5,-152.5 340.5,-152.5"/>
<text text-anchor="middle" x="403" y="-159.5" font-family="Helvetica,sans-Serif" font-size="10.00" fill="#000000">js_proxy_setPrototypeOf</text>
</a>
</g>
</g>
<!-- Node419168&#45;&gt;Node419206 -->
<g id="edge6" class="edge">
<title>Node419168&#45;&gt;Node419206</title>
<path fill="none" stroke="#191970" d="M287.0827,-155.5393C300.9413,-155.2353 315.7779,-155.1709 330.0511,-155.346"/>
<polygon fill="#191970" stroke="#191970" points="330.2661,-158.8499 340.3226,-155.5158 330.3819,-151.8509 330.2661,-158.8499"/>
</g>
<!-- Node419355 -->
<g id="node15" class="node">
<title>Node419355</title>
<g id="a_node15"><a xlink:href="quickjs_8c.html#a3dd8e78607dbc729614deacf55901b95" target="_top" xlink:title="js_shape_prepare_update">
<polygon fill="none" stroke="#ff0000" points="339,-114.5 339,-133.5 467,-133.5 467,-114.5 339,-114.5"/>
<text text-anchor="middle" x="403" y="-121.5" font-family="Helvetica,sans-Serif" font-size="10.00" fill="#000000">js_shape_prepare_update</text>
</a>
</g>
</g>
<!-- Node419168&#45;&gt;Node419355 -->
<g id="edge18" class="edge">
<title>Node419168&#45;&gt;Node419355</title>
<path fill="none" stroke="#191970" d="M270.2907,-152.411C294.0303,-147.3287 323.3839,-141.0446 348.4437,-135.6797"/>
<polygon fill="#191970" stroke="#191970" points="349.4856,-139.036 358.5313,-133.5201 348.0202,-132.1911 349.4856,-139.036"/>
</g>
<!-- Node419406 -->
<g id="node16" class="node">
<title>Node419406</title>
<g id="a_node16"><a xlink:href="quickjs_8c.html#a726b00d108e0a0f4d958c36c2e426a64" target="_top" xlink:title="JS_ThrowTypeErrorNotAnObject">
<polygon fill="none" stroke="#000000" points="323,-76.5 323,-95.5 483,-95.5 483,-76.5 323,-76.5"/>
<text text-anchor="middle" x="403" y="-83.5" font-family="Helvetica,sans-Serif" font-size="10.00" fill="#000000">JS_ThrowTypeErrorNotAnObject</text>
</a>
</g>
</g>
<!-- Node419168&#45;&gt;Node419406 -->
<g id="edge19" class="edge">
<title>Node419168&#45;&gt;Node419406</title>
<path fill="none" stroke="#191970" d="M239.04,-152.3249C257.2823,-139.7125 291.1487,-117.7626 323,-105 329.3212,-102.4671 336.0644,-100.2185 342.8528,-98.2361"/>
<polygon fill="#191970" stroke="#191970" points="344.0643,-101.5334 352.7872,-95.5201 342.2182,-94.7812 344.0643,-101.5334"/>
</g>
<!-- Node419171 -->
<g id="node6" class="node">
<title>Node419171</title>
<g id="a_node6"><a xlink:href="quickjs_8c.html#aa059f309c30fd5166d16c82a97973146" target="_top" xlink:title="__JS_FreeValue">
<polygon fill="none" stroke="#ff0000" points="774,-228.5 774,-247.5 863,-247.5 863,-228.5 774,-228.5"/>
<text text-anchor="middle" x="818.5" y="-235.5" font-family="Helvetica,sans-Serif" font-size="10.00" fill="#000000">__JS_FreeValue</text>
</a>
</g>
</g>
<!-- Node419170&#45;&gt;Node419171 -->
<g id="edge5" class="edge">
<title>Node419170&#45;&gt;Node419171</title>
<path fill="none" stroke="#191970" d="M734.0762,-238C743.412,-238 753.5507,-238 763.4566,-238"/>
<polygon fill="#191970" stroke="#191970" points="763.6517,-241.5001 773.6517,-238 763.6517,-234.5001 763.6517,-241.5001"/>
</g>
<!-- Node419206&#45;&gt;Node419168 -->
<g id="edge15" class="edge">
<title>Node419206&#45;&gt;Node419168</title>
<path fill="none" stroke="#191970" d="M340.3226,-168.4842C326.4137,-168.7755 311.5672,-168.8274 297.3247,-168.6397"/>
<polygon fill="#191970" stroke="#191970" points="297.1424,-165.1361 287.0827,-168.4607 297.02,-172.135 297.1424,-165.1361"/>
</g>
<!-- Node419207 -->
<g id="node8" class="node">
<title>Node419207</title>
<g id="a_node8"><a xlink:href="quickjs_8c.html#a9e94551ddba8762d74eda5127445dbbd" target="_top" xlink:title="get_proxy_method">
<polygon fill="none" stroke="#ff0000" points="519,-152.5 519,-171.5 616,-171.5 616,-152.5 519,-152.5"/>
<text text-anchor="middle" x="567.5" y="-159.5" font-family="Helvetica,sans-Serif" font-size="10.00" fill="#000000">get_proxy_method</text>
</a>
</g>
</g>
<!-- Node419206&#45;&gt;Node419207 -->
<g id="edge7" class="edge">
<title>Node419206&#45;&gt;Node419207</title>
<path fill="none" stroke="#191970" d="M465.6597,-162C479.6962,-162 494.5409,-162 508.4261,-162"/>
<polygon fill="#191970" stroke="#191970" points="508.8279,-165.5001 518.8279,-162 508.8278,-158.5001 508.8279,-165.5001"/>
</g>
<!-- Node419213 -->
<g id="node9" class="node">
<title>Node419213</title>
<g id="a_node9"><a xlink:href="quickjs_8h.html#ad80a83d73e9b7d872b88fbf2943aebe9" target="_top" xlink:title="JS_IsException">
<polygon fill="none" stroke="#000000" points="652,-133.5 652,-152.5 738,-152.5 738,-133.5 652,-133.5"/>
<text text-anchor="middle" x="695" y="-140.5" font-family="Helvetica,sans-Serif" font-size="10.00" fill="#000000">JS_IsException</text>
</a>
</g>
</g>
<!-- Node419206&#45;&gt;Node419213 -->
<g id="edge12" class="edge">
<title>Node419206&#45;&gt;Node419213</title>
<path fill="none" stroke="#191970" d="M450.1943,-152.4872C471.1684,-148.7217 496.2191,-144.8533 519,-143 559.9857,-139.6656 606.518,-139.837 641.4387,-140.7497"/>
<polygon fill="#191970" stroke="#191970" points="641.7867,-144.2612 651.8843,-141.0536 641.9904,-137.2641 641.7867,-144.2612"/>
</g>
<!-- Node419215 -->
<g id="node10" class="node">
<title>Node419215</title>
<g id="a_node10"><a xlink:href="quickjs_8c.html#a75f6ee5e4235a7dc99889f3d2eb2c147" target="_top" xlink:title="JS_CallFree">
<polygon fill="none" stroke="#ff0000" points="532,-190.5 532,-209.5 603,-209.5 603,-190.5 532,-190.5"/>
<text text-anchor="middle" x="567.5" y="-197.5" font-family="Helvetica,sans-Serif" font-size="10.00" fill="#000000">JS_CallFree</text>
</a>
</g>
</g>
<!-- Node419206&#45;&gt;Node419215 -->
<g id="edge9" class="edge">
<title>Node419206&#45;&gt;Node419215</title>
<path fill="none" stroke="#191970" d="M444.5103,-171.589C468.0791,-177.0335 497.6186,-183.8572 521.8406,-189.4525"/>
<polygon fill="#191970" stroke="#191970" points="521.3317,-192.9271 531.8629,-191.7677 522.9073,-186.1067 521.3317,-192.9271"/>
</g>
<!-- Node419381 -->
<g id="node11" class="node">
<title>Node419381</title>
<g id="a_node11"><a xlink:href="quickjs_8c.html#a23a30fec3b10bfa38c3dc29b4cb1c99d" target="_top" xlink:title="JS_GetPrototype">
<polygon fill="none" stroke="#ff0000" points="521.5,-76.5 521.5,-95.5 613.5,-95.5 613.5,-76.5 521.5,-76.5"/>
<text text-anchor="middle" x="567.5" y="-83.5" font-family="Helvetica,sans-Serif" font-size="10.00" fill="#000000">JS_GetPrototype</text>
</a>
</g>
</g>
<!-- Node419206&#45;&gt;Node419381 -->
<g id="edge11" class="edge">
<title>Node419206&#45;&gt;Node419381</title>
<path fill="none" stroke="#191970" d="M459.414,-152.4449C467.5784,-149.9753 475.6851,-146.8788 483,-143 502.1759,-132.8317 501.095,-122.2687 519,-110 524.0641,-106.5301 529.7028,-103.2679 535.2929,-100.3334"/>
<polygon fill="#191970" stroke="#191970" points="537.1538,-103.3167 544.5447,-95.7256 534.0331,-97.0508 537.1538,-103.3167"/>
</g>
<!-- Node419362 -->
<g id="node12" class="node">
<title>Node419362</title>
<g id="a_node12"><a xlink:href="quickjs_8c.html#a17c92ef7fbad6a6029f6aa933d669624" target="_top" xlink:title="JS_IsExtensible">
<polygon fill="none" stroke="#ff0000" points="523.5,-38.5 523.5,-57.5 611.5,-57.5 611.5,-38.5 523.5,-38.5"/>
<text text-anchor="middle" x="567.5" y="-45.5" font-family="Helvetica,sans-Serif" font-size="10.00" fill="#000000">JS_IsExtensible</text>
</a>
</g>
</g>
<!-- Node419206&#45;&gt;Node419362 -->
<g id="edge13" class="edge">
<title>Node419206&#45;&gt;Node419362</title>
<path fill="none" stroke="#191970" d="M465.8782,-152.9636C472.0454,-150.3944 477.8973,-147.1331 483,-143 512.0434,-119.4752 491.6756,-92.5013 519,-67 520.6652,-65.4459 522.4722,-64.0137 524.3771,-62.6944"/>
<polygon fill="#191970" stroke="#191970" points="526.2972,-65.6276 533.2182,-57.6058 522.8053,-59.5607 526.2972,-65.6276"/>
</g>
<!-- Node419297 -->
<g id="node13" class="node">
<title>Node419297</title>
<g id="a_node13"><a xlink:href="quickjs_8h.html#a4e407128a9605afb77523e49e9a627fd" target="_top" xlink:title="JS_IsUndefined">
<polygon fill="none" stroke="#000000" points="524.5,-.5 524.5,-19.5 610.5,-19.5 610.5,-.5 524.5,-.5"/>
<text text-anchor="middle" x="567.5" y="-7.5" font-family="Helvetica,sans-Serif" font-size="10.00" fill="#000000">JS_IsUndefined</text>
</a>
</g>
</g>
<!-- Node419206&#45;&gt;Node419297 -->
<g id="edge14" class="edge">
<title>Node419206&#45;&gt;Node419297</title>
<path fill="none" stroke="#191970" d="M465.6791,-153.9941C472.0332,-151.25 477.9819,-147.6659 483,-143 521.9112,-106.8195 482.7184,-67.817 519,-29 520.2312,-27.6828 521.5647,-26.4555 522.9773,-25.3122"/>
<polygon fill="#191970" stroke="#191970" points="525.2634,-28.0024 531.7681,-19.6394 521.4679,-22.1207 525.2634,-28.0024"/>
</g>
<!-- Node419364 -->
<g id="node14" class="node">
<title>Node419364</title>
<g id="a_node14"><a xlink:href="quickjs_8c.html#a2bf30c9cddfe98a32535843202495069" target="_top" xlink:title="JS_ToBoolFree">
<polygon fill="none" stroke="#000000" points="525.5,-228.5 525.5,-247.5 609.5,-247.5 609.5,-228.5 525.5,-228.5"/>
<text text-anchor="middle" x="567.5" y="-235.5" font-family="Helvetica,sans-Serif" font-size="10.00" fill="#000000">JS_ToBoolFree</text>
</a>
</g>
</g>
<!-- Node419206&#45;&gt;Node419364 -->
<g id="edge16" class="edge">
<title>Node419206&#45;&gt;Node419364</title>
<path fill="none" stroke="#191970" d="M421.2599,-171.5617C443.9259,-183.293 483.8874,-203.5276 519,-219 523.2101,-220.8552 527.6623,-222.7234 532.0941,-224.5262"/>
<polygon fill="#191970" stroke="#191970" points="531.0763,-227.8882 541.6616,-228.3378 533.6671,-221.3852 531.0763,-227.8882"/>
</g>
<!-- Node419207&#45;&gt;Node419213 -->
<g id="edge8" class="edge">
<title>Node419207&#45;&gt;Node419213</title>
<path fill="none" stroke="#191970" d="M616.066,-154.7627C624.5637,-153.4964 633.4435,-152.1731 642.0526,-150.8902"/>
<polygon fill="#191970" stroke="#191970" points="642.6205,-154.3443 651.9954,-149.4085 641.5887,-147.4208 642.6205,-154.3443"/>
</g>
<!-- Node419215&#45;&gt;Node419170 -->
<g id="edge10" class="edge">
<title>Node419215&#45;&gt;Node419170</title>
<path fill="none" stroke="#191970" d="M599.6736,-209.589C615.8307,-214.4044 635.608,-220.2988 652.9518,-225.468"/>
<polygon fill="#191970" stroke="#191970" points="652.2535,-228.912 662.8367,-228.4141 654.2529,-222.2036 652.2535,-228.912"/>
</g>
<!-- Node419364&#45;&gt;Node419170 -->
<g id="edge17" class="edge">
<title>Node419364&#45;&gt;Node419170</title>
<path fill="none" stroke="#191970" d="M609.6016,-238C621.1585,-238 633.7924,-238 645.714,-238"/>
<polygon fill="#191970" stroke="#191970" points="645.9621,-241.5001 655.9621,-238 645.9621,-234.5001 645.9621,-241.5001"/>
</g>
</g>
</svg>
