<?xml version="1.0" encoding="UTF-8" standalone="no"?>
<!DOCTYPE svg PUBLIC "-//W3C//DTD SVG 1.1//EN"
 "http://www.w3.org/Graphics/SVG/1.1/DTD/svg11.dtd">
<!-- Generated by graphviz version 2.40.1 (20161225.0304)
 -->
<!-- Title: js_malloc_rt Pages: 1 -->
<!--zoomable 192 -->
<svg id="main" version="1.1" xmlns="http://www.w3.org/2000/svg" xmlns:xlink="http://www.w3.org/1999/xlink" xml:space="preserve" onload="init(evt)">
<style type="text/css"><![CDATA[
.edge:hover path { stroke: red; }
.edge:hover polygon { stroke: red; fill: red; }
]]></style>
<script type="text/javascript"><![CDATA[
var edges = document.getElementsByTagName('g');
if (edges && edges.length) {
  for (var i=0;i<edges.length;i++) {
    if (edges[i].id.substr(0,4)=='edge') {
      edges[i].setAttribute('class','edge');
    }
  }
}
]]></script>
        <defs>
                <circle id="rim" cx="0" cy="0" r="7"/>
                <circle id="rim2" cx="0" cy="0" r="3.5"/>
                <g id="zoomPlus">
                        <use xlink:href="#rim" fill="#404040">
                                <set attributeName="fill" to="#808080" begin="zoomplus.mouseover" end="zoomplus.mouseout"/>
                        </use>
                        <path d="M-4,0h8M0,-4v8" fill="none" stroke="white" stroke-width="1.5" pointer-events="none"/>
                </g>
                <g id="zoomMin">
                        <use xlink:href="#rim" fill="#404040">
                                <set attributeName="fill" to="#808080" begin="zoomminus.mouseover" end="zoomminus.mouseout"/>
                        </use>
                        <path d="M-4,0h8" fill="none" stroke="white" stroke-width="1.5" pointer-events="none"/>
                </g>
                <g id="dirArrow">
                        <path fill="none" stroke="white" stroke-width="1.5" d="M0,-3.0v7 M-2.5,-0.5L0,-3.0L2.5,-0.5"/>
                </g>
               <g id="resetDef">
                       <use xlink:href="#rim2" fill="#404040">
                               <set attributeName="fill" to="#808080" begin="reset.mouseover" end="reset.mouseout"/>
                       </use>
               </g>
        </defs>

<script type="text/javascript">
var viewWidth = 829;
var viewHeight = 192;
var sectionId = 'dynsection-49';
</script>
<script xlink:href="svgpan.js"/>
<svg id="graph" class="graph">
<g id="viewport">
<title>js_malloc_rt</title>
<!-- Node11265 -->
<g id="node1" class="node">
<title>Node11265</title>
<polygon fill="#bfbfbf" stroke="#000000" points="0,-95.5 0,-114.5 69,-114.5 69,-95.5 0,-95.5"/>
<text text-anchor="middle" x="34.5" y="-102.5" font-family="Helvetica,sans-Serif" font-size="10.00" fill="#000000">js_malloc_rt</text>
</g>
<!-- Node11266 -->
<g id="node2" class="node">
<title>Node11266</title>
<g id="a_node2"><a xlink:href="structqjs_1_1detail_1_1function.html#a416a24c42e5b38a43f957096822b1949" target="_top" xlink:title="qjs::detail::function\l::create">
<polygon fill="none" stroke="#000000" points="117.5,-153 117.5,-183 216.5,-183 216.5,-153 117.5,-153"/>
<text text-anchor="start" x="125.5" y="-171" font-family="Helvetica,sans-Serif" font-size="10.00" fill="#000000">qjs::detail::function</text>
<text text-anchor="middle" x="167" y="-160" font-family="Helvetica,sans-Serif" font-size="10.00" fill="#000000">::create</text>
</a>
</g>
</g>
<!-- Node11265&#45;&gt;Node11266 -->
<g id="edge1" class="edge">
<title>Node11265&#45;&gt;Node11266</title>
<path fill="none" stroke="#191970" d="M60.0302,-119.6478C73.2683,-127.0151 89.8072,-135.8693 105,-143 112.2494,-146.4025 120.095,-149.787 127.6888,-152.916"/>
<polygon fill="#191970" stroke="#191970" points="61.4724,-116.4434 51.0406,-114.592 58.041,-122.5447 61.4724,-116.4434"/>
</g>
<!-- Node11267 -->
<g id="node3" class="node">
<title>Node11267</title>
<g id="a_node3"><a xlink:href="quickjs_8c.html#a2424196308d86d1a8c2bb410ca279be4" target="_top" xlink:title="JS_DumpMemoryUsage">
<polygon fill="none" stroke="#000000" points="105,-114.5 105,-133.5 229,-133.5 229,-114.5 105,-114.5"/>
<text text-anchor="middle" x="167" y="-121.5" font-family="Helvetica,sans-Serif" font-size="10.00" fill="#000000">JS_DumpMemoryUsage</text>
</a>
</g>
</g>
<!-- Node11265&#45;&gt;Node11267 -->
<g id="edge2" class="edge">
<title>Node11265&#45;&gt;Node11267</title>
<path fill="none" stroke="#191970" d="M79.3564,-111.4322C87.525,-112.6036 96.1796,-113.8446 104.7449,-115.0729"/>
<polygon fill="#191970" stroke="#191970" points="79.7084,-107.947 69.3128,-109.992 78.7147,-114.8761 79.7084,-107.947"/>
</g>
<!-- Node11268 -->
<g id="node4" class="node">
<title>Node11268</title>
<g id="a_node4"><a xlink:href="quickjs_8c.html#a78b7f6b85f2739b551ff54f16156128b" target="_top" xlink:title="js_malloc">
<polygon fill="none" stroke="#000000" points="138,-76.5 138,-95.5 196,-95.5 196,-76.5 138,-76.5"/>
<text text-anchor="middle" x="167" y="-83.5" font-family="Helvetica,sans-Serif" font-size="10.00" fill="#000000">js_malloc</text>
</a>
</g>
</g>
<!-- Node11265&#45;&gt;Node11268 -->
<g id="edge3" class="edge">
<title>Node11265&#45;&gt;Node11268</title>
<path fill="none" stroke="#191970" d="M79.4043,-98.5609C98.688,-95.7957 120.6733,-92.6431 137.7942,-90.188"/>
<polygon fill="#191970" stroke="#191970" points="78.7147,-95.1239 69.3128,-100.008 79.7084,-102.053 78.7147,-95.1239"/>
</g>
<!-- Node11889 -->
<g id="node15" class="node">
<title>Node11889</title>
<g id="a_node15"><a xlink:href="quickjs_8c.html#a472acb9863efa5c21d35dcdd235a7868" target="_top" xlink:title="js_mallocz_rt">
<polygon fill="none" stroke="#000000" points="130,-19.5 130,-38.5 204,-38.5 204,-19.5 130,-19.5"/>
<text text-anchor="middle" x="167" y="-26.5" font-family="Helvetica,sans-Serif" font-size="10.00" fill="#000000">js_mallocz_rt</text>
</a>
</g>
</g>
<!-- Node11265&#45;&gt;Node11889 -->
<g id="edge18" class="edge">
<title>Node11265&#45;&gt;Node11889</title>
<path fill="none" stroke="#191970" d="M60.0494,-90.3452C86.678,-75.0715 127.6288,-51.5828 150.355,-38.5473"/>
<polygon fill="#191970" stroke="#191970" points="58.2142,-87.363 51.2812,-95.3745 61.697,-93.435 58.2142,-87.363"/>
</g>
<!-- Node11269 -->
<g id="node5" class="node">
<title>Node11269</title>
<g id="a_node5"><a xlink:href="quickjs_8c.html#a8e34657169da77ae6a386311351ed3de" target="_top" xlink:title="js_clone_shape">
<polygon fill="none" stroke="#000000" points="413,-152.5 413,-171.5 497,-171.5 497,-152.5 413,-152.5"/>
<text text-anchor="middle" x="455" y="-159.5" font-family="Helvetica,sans-Serif" font-size="10.00" fill="#000000">js_clone_shape</text>
</a>
</g>
</g>
<!-- Node11268&#45;&gt;Node11269 -->
<g id="edge4" class="edge">
<title>Node11268&#45;&gt;Node11269</title>
<path fill="none" stroke="#191970" d="M205.737,-94.5066C213.7651,-97.1774 221.9251,-100.6146 229,-105 248.7738,-117.2569 244.1131,-132.7543 265,-143 311.7274,-165.9213 372.6024,-167.8743 412.6972,-165.957"/>
<polygon fill="#191970" stroke="#191970" points="206.6755,-91.1341 196.0916,-91.6166 204.6663,-97.8396 206.6755,-91.1341"/>
</g>
<!-- Node11885 -->
<g id="node9" class="node">
<title>Node11885</title>
<g id="a_node9"><a xlink:href="quickjs_8c.html#a1030d2020be7d911eb62869f21cc3b70" target="_top" xlink:title="js_new_shape2">
<polygon fill="none" stroke="#000000" points="274,-114.5 274,-133.5 358,-133.5 358,-114.5 274,-114.5"/>
<text text-anchor="middle" x="316" y="-121.5" font-family="Helvetica,sans-Serif" font-size="10.00" fill="#000000">js_new_shape2</text>
</a>
</g>
</g>
<!-- Node11268&#45;&gt;Node11885 -->
<g id="edge9" class="edge">
<title>Node11268&#45;&gt;Node11885</title>
<path fill="none" stroke="#191970" d="M205.9399,-95.931C228.3425,-101.6444 256.3498,-108.7872 278.5047,-114.4374"/>
<polygon fill="#191970" stroke="#191970" points="206.6372,-92.4969 196.0824,-93.417 204.9073,-99.2797 206.6372,-92.4969"/>
</g>
<!-- Node11613 -->
<g id="node12" class="node">
<title>Node11613</title>
<g id="a_node12"><a xlink:href="quickjs_8c.html#ad24e5f774218bb0d2859db9dc569d118" target="_top" xlink:title="js_typed_array_sort">
<polygon fill="none" stroke="#000000" points="265,-76.5 265,-95.5 367,-95.5 367,-76.5 265,-76.5"/>
<text text-anchor="middle" x="316" y="-83.5" font-family="Helvetica,sans-Serif" font-size="10.00" fill="#000000">js_typed_array_sort</text>
</a>
</g>
</g>
<!-- Node11268&#45;&gt;Node11613 -->
<g id="edge12" class="edge">
<title>Node11268&#45;&gt;Node11613</title>
<path fill="none" stroke="#191970" d="M206.2125,-86C224.193,-86 245.7396,-86 264.9645,-86"/>
<polygon fill="#191970" stroke="#191970" points="206.0824,-82.5001 196.0824,-86 206.0824,-89.5001 206.0824,-82.5001"/>
</g>
<!-- Node11887 -->
<g id="node13" class="node">
<title>Node11887</title>
<g id="a_node13"><a xlink:href="quickjs_8c.html#aa80740ff93b724ea7e0c280826f4a25a" target="_top" xlink:title="resize_properties">
<polygon fill="none" stroke="#000000" points="270.5,-38.5 270.5,-57.5 361.5,-57.5 361.5,-38.5 270.5,-38.5"/>
<text text-anchor="middle" x="316" y="-45.5" font-family="Helvetica,sans-Serif" font-size="10.00" fill="#000000">resize_properties</text>
</a>
</g>
</g>
<!-- Node11268&#45;&gt;Node11887 -->
<g id="edge13" class="edge">
<title>Node11268&#45;&gt;Node11887</title>
<path fill="none" stroke="#191970" d="M205.9399,-76.069C228.3425,-70.3556 256.3498,-63.2128 278.5047,-57.5626"/>
<polygon fill="#191970" stroke="#191970" points="204.9073,-72.7203 196.0824,-78.583 206.6372,-79.5031 204.9073,-72.7203"/>
</g>
<!-- Node11270 -->
<g id="node6" class="node">
<title>Node11270</title>
<g id="a_node6"><a xlink:href="quickjs_8c.html#a74547db03bf739a52c83a326b32db997" target="_top" xlink:title="add_property">
<polygon fill="none" stroke="#ff0000" points="578.5,-100.5 578.5,-119.5 651.5,-119.5 651.5,-100.5 578.5,-100.5"/>
<text text-anchor="middle" x="615" y="-107.5" font-family="Helvetica,sans-Serif" font-size="10.00" fill="#000000">add_property</text>
</a>
</g>
</g>
<!-- Node11269&#45;&gt;Node11270 -->
<g id="edge5" class="edge">
<title>Node11269&#45;&gt;Node11270</title>
<path fill="none" stroke="#191970" d="M493.9133,-149.3532C522.1649,-140.1714 559.7995,-127.9402 585.5691,-119.565"/>
<polygon fill="#191970" stroke="#191970" points="492.775,-146.0428 484.3465,-152.4624 494.9386,-152.7001 492.775,-146.0428"/>
</g>
<!-- Node11882 -->
<g id="node8" class="node">
<title>Node11882</title>
<g id="a_node8"><a xlink:href="quickjs_8c.html#a3dd8e78607dbc729614deacf55901b95" target="_top" xlink:title="js_shape_prepare_update">
<polygon fill="none" stroke="#ff0000" points="551,-147.5 551,-166.5 679,-166.5 679,-147.5 551,-147.5"/>
<text text-anchor="middle" x="615" y="-154.5" font-family="Helvetica,sans-Serif" font-size="10.00" fill="#000000">js_shape_prepare_update</text>
</a>
</g>
</g>
<!-- Node11269&#45;&gt;Node11882 -->
<g id="edge7" class="edge">
<title>Node11269&#45;&gt;Node11882</title>
<path fill="none" stroke="#191970" d="M507.3944,-160.3627C521.3039,-159.928 536.4824,-159.4537 550.9373,-159.002"/>
<polygon fill="#191970" stroke="#191970" points="506.9239,-156.8756 497.0381,-160.6863 507.1426,-163.8722 506.9239,-156.8756"/>
</g>
<!-- Node11271 -->
<g id="node7" class="node">
<title>Node11271</title>
<g id="a_node7"><a xlink:href="quickjs_8c.html#ac93c982cb636a5430b191d104083af3e" target="_top" xlink:title="convert_fast_array\l_to_array">
<polygon fill="none" stroke="#ff0000" points="723,-95 723,-125 821,-125 821,-95 723,-95"/>
<text text-anchor="start" x="731" y="-113" font-family="Helvetica,sans-Serif" font-size="10.00" fill="#000000">convert_fast_array</text>
<text text-anchor="middle" x="772" y="-102" font-family="Helvetica,sans-Serif" font-size="10.00" fill="#000000">_to_array</text>
</a>
</g>
</g>
<!-- Node11270&#45;&gt;Node11271 -->
<g id="edge6" class="edge">
<title>Node11270&#45;&gt;Node11271</title>
<path fill="none" stroke="#191970" d="M661.8664,-110C681.1309,-110 703.4478,-110 722.9348,-110"/>
<polygon fill="#191970" stroke="#191970" points="661.8096,-106.5001 651.8095,-110 661.8095,-113.5001 661.8096,-106.5001"/>
</g>
<!-- Node11882&#45;&gt;Node11271 -->
<g id="edge8" class="edge">
<title>Node11882&#45;&gt;Node11271</title>
<path fill="none" stroke="#191970" d="M656.4117,-144.6029C676.8301,-138.4904 701.5952,-131.0766 722.9566,-124.6818"/>
<polygon fill="#191970" stroke="#191970" points="655.3475,-141.2679 646.7713,-147.4888 657.355,-147.9739 655.3475,-141.2679"/>
</g>
<!-- Node11462 -->
<g id="node10" class="node">
<title>Node11462</title>
<g id="a_node10"><a xlink:href="quickjs_8c.html#a7efb53c2f76fd5cc0e584449437ec09c" target="_top" xlink:title="JS_AddIntrinsicBasicObjects">
<polygon fill="none" stroke="#ff0000" points="543,-43.5 543,-62.5 687,-62.5 687,-43.5 543,-43.5"/>
<text text-anchor="middle" x="615" y="-50.5" font-family="Helvetica,sans-Serif" font-size="10.00" fill="#000000">JS_AddIntrinsicBasicObjects</text>
</a>
</g>
</g>
<!-- Node11885&#45;&gt;Node11462 -->
<g id="edge10" class="edge">
<title>Node11885&#45;&gt;Node11462</title>
<path fill="none" stroke="#191970" d="M365.795,-112.1758C424.4138,-98.2563 520.6167,-75.4121 574.7453,-62.5588"/>
<polygon fill="#191970" stroke="#191970" points="364.935,-108.7826 356.0142,-114.4983 366.5523,-115.5932 364.935,-108.7826"/>
</g>
<!-- Node11886 -->
<g id="node11" class="node">
<title>Node11886</title>
<g id="a_node11"><a xlink:href="quickjs_8c.html#ad6926e49955be5e10423f6df8d8cff3e" target="_top" xlink:title="js_new_shape">
<polygon fill="none" stroke="#ff0000" points="415.5,-114.5 415.5,-133.5 494.5,-133.5 494.5,-114.5 415.5,-114.5"/>
<text text-anchor="middle" x="455" y="-121.5" font-family="Helvetica,sans-Serif" font-size="10.00" fill="#000000">js_new_shape</text>
</a>
</g>
</g>
<!-- Node11885&#45;&gt;Node11886 -->
<g id="edge11" class="edge">
<title>Node11885&#45;&gt;Node11886</title>
<path fill="none" stroke="#191970" d="M368.1561,-124C383.817,-124 400.7331,-124 415.4384,-124"/>
<polygon fill="#191970" stroke="#191970" points="368.0818,-120.5001 358.0818,-124 368.0818,-127.5001 368.0818,-120.5001"/>
</g>
<!-- Node11887&#45;&gt;Node11271 -->
<g id="edge17" class="edge">
<title>Node11887&#45;&gt;Node11271</title>
<path fill="none" stroke="#191970" d="M357.5918,-35.871C428.2162,-17.5374 574.8335,10.627 687,-34 718.6362,-46.5869 746.1316,-76.5678 760.7694,-94.8875"/>
<polygon fill="#191970" stroke="#191970" points="356.4993,-32.5399 347.7364,-38.4948 358.3003,-39.3042 356.4993,-32.5399"/>
</g>
<!-- Node11888 -->
<g id="node14" class="node">
<title>Node11888</title>
<g id="a_node14"><a xlink:href="quickjs_8c.html#a3cadcaa2bd1e3f9359f1c006f396cfa0" target="_top" xlink:title="add_shape_property">
<polygon fill="none" stroke="#000000" points="403,-38.5 403,-57.5 507,-57.5 507,-38.5 403,-38.5"/>
<text text-anchor="middle" x="455" y="-45.5" font-family="Helvetica,sans-Serif" font-size="10.00" fill="#000000">add_shape_property</text>
</a>
</g>
</g>
<!-- Node11887&#45;&gt;Node11888 -->
<g id="edge14" class="edge">
<title>Node11887&#45;&gt;Node11888</title>
<path fill="none" stroke="#191970" d="M371.581,-48C381.8232,-48 392.486,-48 402.6296,-48"/>
<polygon fill="#191970" stroke="#191970" points="371.5138,-44.5001 361.5138,-48 371.5138,-51.5001 371.5138,-44.5001"/>
</g>
<!-- Node11888&#45;&gt;Node11270 -->
<g id="edge15" class="edge">
<title>Node11888&#45;&gt;Node11270</title>
<path fill="none" stroke="#191970" d="M489.0053,-61.1771C519.3898,-72.951 563.1804,-89.9199 590.3226,-100.4375"/>
<polygon fill="#191970" stroke="#191970" points="490.2384,-57.9014 479.6494,-57.5516 487.7091,-64.4284 490.2384,-57.9014"/>
</g>
<!-- Node11888&#45;&gt;Node11462 -->
<g id="edge16" class="edge">
<title>Node11888&#45;&gt;Node11462</title>
<path fill="none" stroke="#191970" d="M517.6486,-49.9578C525.8783,-50.2149 534.3653,-50.4802 542.7383,-50.7418"/>
<polygon fill="#191970" stroke="#191970" points="517.4945,-46.4513 507.39,-49.6372 517.2758,-53.4479 517.4945,-46.4513"/>
</g>
<!-- Node11890 -->
<g id="node16" class="node">
<title>Node11890</title>
<g id="a_node16"><a xlink:href="quickjs_8c.html#af93ae8bbbe4e639dd7248f5b30c54bd7" target="_top" xlink:title="js_mallocz">
<polygon fill="none" stroke="#000000" points="284.5,-.5 284.5,-19.5 347.5,-19.5 347.5,-.5 284.5,-.5"/>
<text text-anchor="middle" x="316" y="-7.5" font-family="Helvetica,sans-Serif" font-size="10.00" fill="#000000">js_mallocz</text>
</a>
</g>
</g>
<!-- Node11889&#45;&gt;Node11890 -->
<g id="edge19" class="edge">
<title>Node11889&#45;&gt;Node11890</title>
<path fill="none" stroke="#191970" d="M214.3882,-22.9572C237.2137,-20.0466 263.971,-16.6346 284.2969,-14.0427"/>
<polygon fill="#191970" stroke="#191970" points="213.6916,-19.5176 204.2146,-24.2545 214.5771,-26.4614 213.6916,-19.5176"/>
</g>
</g>
</svg>
        <g id="navigator" transform="translate(0 0)" fill="#404254">
                <rect fill="#f2f5e9" fill-opacity="0.5" stroke="#606060" stroke-width=".5" x="0" y="0" width="60" height="60"/>
                <use id="zoomplus" xlink:href="#zoomPlus" x="17" y="9" onmousedown="handleZoom(evt,'in')"/>
                <use id="zoomminus" xlink:href="#zoomMin" x="42" y="9" onmousedown="handleZoom(evt,'out')"/>
                <use id="reset" xlink:href="#resetDef" x="30" y="36" onmousedown="handleReset()"/>
                <g id="arrowUp" xlink:href="#dirArrow" transform="translate(30 24)" onmousedown="handlePan(0,-1)">
                  <use xlink:href="#rim" fill="#404040">
                        <set attributeName="fill" to="#808080" begin="arrowUp.mouseover" end="arrowUp.mouseout"/>
                  </use>
                  <path fill="none" stroke="white" stroke-width="1.5" d="M0,-3.0v7 M-2.5,-0.5L0,-3.0L2.5,-0.5"/>
                </g>
                <g id="arrowRight" xlink:href="#dirArrow" transform="rotate(90) translate(36 -43)" onmousedown="handlePan(1,0)">
                  <use xlink:href="#rim" fill="#404040">
                        <set attributeName="fill" to="#808080" begin="arrowRight.mouseover" end="arrowRight.mouseout"/>
                  </use>
                  <path fill="none" stroke="white" stroke-width="1.5" d="M0,-3.0v7 M-2.5,-0.5L0,-3.0L2.5,-0.5"/>
                </g>
                <g id="arrowDown" xlink:href="#dirArrow" transform="rotate(180) translate(-30 -48)" onmousedown="handlePan(0,1)">
                  <use xlink:href="#rim" fill="#404040">
                        <set attributeName="fill" to="#808080" begin="arrowDown.mouseover" end="arrowDown.mouseout"/>
                  </use>
                  <path fill="none" stroke="white" stroke-width="1.5" d="M0,-3.0v7 M-2.5,-0.5L0,-3.0L2.5,-0.5"/>
                </g>
                <g id="arrowLeft" xlink:href="#dirArrow" transform="rotate(270) translate(-36 17)" onmousedown="handlePan(-1,0)">
                  <use xlink:href="#rim" fill="#404040">
                        <set attributeName="fill" to="#808080" begin="arrowLeft.mouseover" end="arrowLeft.mouseout"/>
                  </use>
                  <path fill="none" stroke="white" stroke-width="1.5" d="M0,-3.0v7 M-2.5,-0.5L0,-3.0L2.5,-0.5"/>
                </g>
        </g>
        <svg viewBox="0 0 15 15" width="100%" height="30px" preserveAspectRatio="xMaxYMin meet">
         <g id="arrow_out" transform="scale(0.3 0.3)">
          <a xlink:href="quickjs_8h_a4b710876403548c1ad3edc7a7719c559_icgraph_org.svg" target="_base">
           <rect id="button" ry="5" rx="5" y="6" x="6" height="38" width="38"
                fill="#f2f5e9" fill-opacity="0.5" stroke="#606060" stroke-width="1.0"/>
           <path id="arrow"
             d="M 11.500037,31.436501 C 11.940474,20.09759 22.043105,11.32322 32.158766,21.979434 L 37.068811,17.246167 C 37.068811,17.246167 37.088388,32 37.088388,32 L 22.160133,31.978069 C 22.160133,31.978069 26.997745,27.140456 26.997745,27.140456 C 18.528582,18.264221 13.291696,25.230495 11.500037,31.436501 z"
             style="fill:#404040;"/>
          </a>
         </g>
        </svg>
</svg>
