<?xml version="1.0" encoding="UTF-8" standalone="no"?>
<!DOCTYPE svg PUBLIC "-//W3C//DTD SVG 1.1//EN"
 "http://www.w3.org/Graphics/SVG/1.1/DTD/svg11.dtd">
<!-- Generated by graphviz version 2.40.1 (20161225.0304)
 -->
<!-- Title: js_regexp_get_source Pages: 1 -->
<svg width="755pt" height="496pt"
 viewBox="0.00 0.00 755.00 495.50" xmlns="http://www.w3.org/2000/svg" xmlns:xlink="http://www.w3.org/1999/xlink">
<g id="graph0" class="graph" transform="scale(1 1) rotate(0) translate(4 491.5)">
<title>js_regexp_get_source</title>
<!-- Node404990 -->
<g id="node1" class="node">
<title>Node404990</title>
<polygon fill="#bfbfbf" stroke="#000000" points="0,-209.5 0,-228.5 112,-228.5 112,-209.5 0,-209.5"/>
<text text-anchor="middle" x="56" y="-216.5" font-family="Helvetica,sans-Serif" font-size="10.00" fill="#000000">js_regexp_get_source</text>
</g>
<!-- Node404991 -->
<g id="node2" class="node">
<title>Node404991</title>
<g id="a_node2"><a xlink:href="quickjs_8c.html#a82de8d310598980dd9ab473ce2c8dd1c" target="_top" xlink:title="js_get_regexp">
<polygon fill="none" stroke="#000000" points="189.5,-459.5 189.5,-478.5 266.5,-478.5 266.5,-459.5 189.5,-459.5"/>
<text text-anchor="middle" x="228" y="-466.5" font-family="Helvetica,sans-Serif" font-size="10.00" fill="#000000">js_get_regexp</text>
</a>
</g>
</g>
<!-- Node404990&#45;&gt;Node404991 -->
<g id="edge1" class="edge">
<title>Node404990&#45;&gt;Node404991</title>
<path fill="none" stroke="#191970" d="M57.1359,-228.6249C61.6827,-262.8443 81.6588,-379.8857 148,-442 156.8613,-450.2967 168.3611,-456.0511 179.865,-460.0397"/>
<polygon fill="#191970" stroke="#191970" points="178.8845,-463.3998 189.4715,-462.9919 180.9408,-456.7087 178.8845,-463.3998"/>
</g>
<!-- Node404999 -->
<g id="node5" class="node">
<title>Node404999</title>
<g id="a_node5"><a xlink:href="quickjs_8c.html#a0ee6a3654a6016393fac5e1c108f403a" target="_top" xlink:title="JS_NewString">
<polygon fill="none" stroke="#000000" points="188,-228.5 188,-247.5 268,-247.5 268,-228.5 188,-228.5"/>
<text text-anchor="middle" x="228" y="-235.5" font-family="Helvetica,sans-Serif" font-size="10.00" fill="#000000">JS_NewString</text>
</a>
</g>
</g>
<!-- Node404990&#45;&gt;Node404999 -->
<g id="edge4" class="edge">
<title>Node404990&#45;&gt;Node404999</title>
<path fill="none" stroke="#191970" d="M112.3192,-225.2213C133.4402,-227.5544 157.2835,-230.1883 177.8122,-232.456"/>
<polygon fill="#191970" stroke="#191970" points="177.5804,-235.9516 187.9043,-233.5708 178.3491,-228.9939 177.5804,-235.9516"/>
</g>
<!-- Node405009 -->
<g id="node9" class="node">
<title>Node405009</title>
<g id="a_node9"><a xlink:href="quickjs_8c.html#accfc3d1dcaa88c88402cb245ccaf4fdb" target="_top" xlink:title="string_buffer_end">
<polygon fill="none" stroke="#ff0000" points="518.5,-380.5 518.5,-399.5 610.5,-399.5 610.5,-380.5 518.5,-380.5"/>
<text text-anchor="middle" x="564.5" y="-387.5" font-family="Helvetica,sans-Serif" font-size="10.00" fill="#000000">string_buffer_end</text>
</a>
</g>
</g>
<!-- Node404990&#45;&gt;Node405009 -->
<g id="edge22" class="edge">
<title>Node404990&#45;&gt;Node405009</title>
<path fill="none" stroke="#191970" d="M77.7349,-228.5731C96.2523,-236.585 123.6535,-248.1019 148,-257 282.9258,-306.3124 445.9838,-355.4016 521.8399,-377.6474"/>
<polygon fill="#191970" stroke="#191970" points="520.939,-381.0304 531.5195,-380.479 522.9045,-374.312 520.939,-381.0304"/>
</g>
<!-- Node405014 -->
<g id="node12" class="node">
<title>Node405014</title>
<g id="a_node12"><a xlink:href="quickjs_8c.html#ac43dee2ed14e80248f1af195bd3d8181" target="_top" xlink:title="string_buffer_init2">
<polygon fill="none" stroke="#ff0000" points="653,-266.5 653,-285.5 747,-285.5 747,-266.5 653,-266.5"/>
<text text-anchor="middle" x="700" y="-273.5" font-family="Helvetica,sans-Serif" font-size="10.00" fill="#000000">string_buffer_init2</text>
</a>
</g>
</g>
<!-- Node404990&#45;&gt;Node405014 -->
<g id="edge23" class="edge">
<title>Node404990&#45;&gt;Node405014</title>
<path fill="none" stroke="#191970" d="M64.7158,-228.5852C80.0388,-244.8915 113.4682,-278.0964 148,-297 296.4718,-378.2773 344.619,-383.8313 512,-409 558.1479,-415.9391 576.191,-431.6363 617,-409 660.8799,-384.6603 684.6048,-326.4006 694.4471,-295.6992"/>
<polygon fill="#191970" stroke="#191970" points="697.9116,-296.334 697.4567,-285.7489 691.2114,-294.3074 697.9116,-296.334"/>
</g>
<!-- Node405015 -->
<g id="node13" class="node">
<title>Node405015</title>
<g id="a_node13"><a xlink:href="quickjs_8c.html#a9b8fb6b5ce638616691f7bf7881fa57d" target="_top" xlink:title="string_buffer_putc16">
<polygon fill="none" stroke="#ff0000" points="512,-76.5 512,-95.5 617,-95.5 617,-76.5 512,-76.5"/>
<text text-anchor="middle" x="564.5" y="-83.5" font-family="Helvetica,sans-Serif" font-size="10.00" fill="#000000">string_buffer_putc16</text>
</a>
</g>
</g>
<!-- Node404990&#45;&gt;Node405015 -->
<g id="edge24" class="edge">
<title>Node404990&#45;&gt;Node405015</title>
<path fill="none" stroke="#191970" d="M112.1042,-213.4284C163.5409,-207.6404 241.5751,-197.1414 308,-181 384.6176,-162.3817 403.5736,-155.1658 476,-124 492.6184,-116.8489 495.4545,-112.3181 512,-105 516.5265,-102.9979 521.3361,-101.0386 526.1356,-99.1846"/>
<polygon fill="#191970" stroke="#191970" points="527.735,-102.3235 535.8794,-95.5471 525.2868,-95.7656 527.735,-102.3235"/>
</g>
<!-- Node405025 -->
<g id="node17" class="node">
<title>Node405025</title>
<g id="a_node17"><a xlink:href="quickjs_8c.html#a24be89a128d1cd7c0908604815b2b854" target="_top" xlink:title="js_same_value">
<polygon fill="none" stroke="#000000" points="187,-152.5 187,-171.5 269,-171.5 269,-152.5 187,-152.5"/>
<text text-anchor="middle" x="228" y="-159.5" font-family="Helvetica,sans-Serif" font-size="10.00" fill="#000000">js_same_value</text>
</a>
</g>
</g>
<!-- Node404990&#45;&gt;Node405025 -->
<g id="edge16" class="edge">
<title>Node404990&#45;&gt;Node405025</title>
<path fill="none" stroke="#191970" d="M81.6506,-209.3878C100.0353,-202.5993 125.4344,-193.4262 148,-186 159.9444,-182.0692 172.9765,-178.0475 184.9887,-174.4476"/>
<polygon fill="#191970" stroke="#191970" points="186.2042,-177.7377 194.7928,-171.5341 184.2101,-171.0277 186.2042,-177.7377"/>
</g>
<!-- Node405065 -->
<g id="node22" class="node">
<title>Node405065</title>
<g id="a_node22"><a xlink:href="quickjs_8c.html#a726b00d108e0a0f4d958c36c2e426a64" target="_top" xlink:title="JS_ThrowTypeErrorNotAnObject">
<polygon fill="none" stroke="#000000" points="148,-114.5 148,-133.5 308,-133.5 308,-114.5 148,-114.5"/>
<text text-anchor="middle" x="228" y="-121.5" font-family="Helvetica,sans-Serif" font-size="10.00" fill="#000000">JS_ThrowTypeErrorNotAnObject</text>
</a>
</g>
</g>
<!-- Node404990&#45;&gt;Node405065 -->
<g id="edge21" class="edge">
<title>Node404990&#45;&gt;Node405065</title>
<path fill="none" stroke="#191970" d="M64.6446,-209.4352C79.8599,-193.2068 113.1315,-160.3543 148,-143 152.8723,-140.575 158.0677,-138.4509 163.3819,-136.5918"/>
<polygon fill="#191970" stroke="#191970" points="164.562,-139.8894 173.0316,-133.5241 162.4412,-133.2184 164.562,-139.8894"/>
</g>
<!-- Node405066 -->
<g id="node23" class="node">
<title>Node405066</title>
<g id="a_node23"><a xlink:href="quickjs_8c.html#a80398f847e2e83c2613b638719bf6fda" target="_top" xlink:title="string_get">
<polygon fill="none" stroke="#000000" points="198.5,-76.5 198.5,-95.5 257.5,-95.5 257.5,-76.5 198.5,-76.5"/>
<text text-anchor="middle" x="228" y="-83.5" font-family="Helvetica,sans-Serif" font-size="10.00" fill="#000000">string_get</text>
</a>
</g>
</g>
<!-- Node404990&#45;&gt;Node405066 -->
<g id="edge25" class="edge">
<title>Node404990&#45;&gt;Node405066</title>
<path fill="none" stroke="#191970" d="M60.9268,-209.25C72.7034,-186.9916 104.7562,-132.2617 148,-105 160.0287,-97.4169 174.8085,-92.8584 188.3775,-90.1188"/>
<polygon fill="#191970" stroke="#191970" points="189.2038,-93.5275 198.452,-88.3584 187.9988,-86.632 189.2038,-93.5275"/>
</g>
<!-- Node404992 -->
<g id="node3" class="node">
<title>Node404992</title>
<g id="a_node3"><a xlink:href="quickjs_8c.html#ab0f713d7a2440dbb2673810323a9a78d" target="_top" xlink:title="JS_ThrowTypeErrorInvalid\lClass">
<polygon fill="none" stroke="#000000" points="344,-457 344,-487 476,-487 476,-457 344,-457"/>
<text text-anchor="start" x="352" y="-475" font-family="Helvetica,sans-Serif" font-size="10.00" fill="#000000">JS_ThrowTypeErrorInvalid</text>
<text text-anchor="middle" x="410" y="-464" font-family="Helvetica,sans-Serif" font-size="10.00" fill="#000000">Class</text>
</a>
</g>
</g>
<!-- Node404991&#45;&gt;Node404992 -->
<g id="edge2" class="edge">
<title>Node404991&#45;&gt;Node404992</title>
<path fill="none" stroke="#191970" d="M266.5975,-469.6362C286.1397,-469.9583 310.5729,-470.3611 333.7041,-470.7424"/>
<polygon fill="#191970" stroke="#191970" points="333.8112,-474.2445 343.8675,-470.9099 333.9266,-467.2455 333.8112,-474.2445"/>
</g>
<!-- Node404993 -->
<g id="node4" class="node">
<title>Node404993</title>
<g id="a_node4"><a xlink:href="quickjs_8c.html#ab18048ab5eea3e47109a5473f78515bc" target="_top" xlink:title="JS_AtomGetStr">
<polygon fill="none" stroke="#ff0000" points="521.5,-462.5 521.5,-481.5 607.5,-481.5 607.5,-462.5 521.5,-462.5"/>
<text text-anchor="middle" x="564.5" y="-469.5" font-family="Helvetica,sans-Serif" font-size="10.00" fill="#000000">JS_AtomGetStr</text>
</a>
</g>
</g>
<!-- Node404992&#45;&gt;Node404993 -->
<g id="edge3" class="edge">
<title>Node404992&#45;&gt;Node404993</title>
<path fill="none" stroke="#191970" d="M476.4185,-472C488.0655,-472 500.0475,-472 511.2773,-472"/>
<polygon fill="#191970" stroke="#191970" points="511.3476,-475.5001 521.3476,-472 511.3476,-468.5001 511.3476,-475.5001"/>
</g>
<!-- Node405000 -->
<g id="node6" class="node">
<title>Node405000</title>
<g id="a_node6"><a xlink:href="quickjs_8c.html#ac34cc554aab1e98c45a7f845fff64385" target="_top" xlink:title="JS_NewStringLen">
<polygon fill="none" stroke="#000000" points="362.5,-228.5 362.5,-247.5 457.5,-247.5 457.5,-228.5 362.5,-228.5"/>
<text text-anchor="middle" x="410" y="-235.5" font-family="Helvetica,sans-Serif" font-size="10.00" fill="#000000">JS_NewStringLen</text>
</a>
</g>
</g>
<!-- Node404999&#45;&gt;Node405000 -->
<g id="edge5" class="edge">
<title>Node404999&#45;&gt;Node405000</title>
<path fill="none" stroke="#191970" d="M268.3917,-238C292.9998,-238 324.8475,-238 352.1064,-238"/>
<polygon fill="#191970" stroke="#191970" points="352.3043,-241.5001 362.3043,-238 352.3042,-234.5001 352.3043,-241.5001"/>
</g>
<!-- Node405001 -->
<g id="node7" class="node">
<title>Node405001</title>
<g id="a_node7"><a xlink:href="quickjs_8c.html#a853f0924d441ea4225488f37c8b69f9a" target="_top" xlink:title="__attribute__">
<polygon fill="none" stroke="#000000" points="528,-152.5 528,-171.5 601,-171.5 601,-152.5 528,-152.5"/>
<text text-anchor="middle" x="564.5" y="-159.5" font-family="Helvetica,sans-Serif" font-size="10.00" fill="#000000">__attribute__</text>
</a>
</g>
</g>
<!-- Node405000&#45;&gt;Node405001 -->
<g id="edge6" class="edge">
<title>Node405000&#45;&gt;Node405001</title>
<path fill="none" stroke="#191970" d="M444.0679,-228.4733C454.7004,-224.76 466.2016,-219.945 476,-214 494.5566,-202.741 493.4348,-192.2448 512,-181 515.3552,-178.9678 518.9616,-177.1033 522.6559,-175.4042"/>
<polygon fill="#191970" stroke="#191970" points="524.056,-178.6125 531.927,-171.5204 521.3513,-172.1561 524.056,-178.6125"/>
</g>
<!-- Node405002 -->
<g id="node8" class="node">
<title>Node405002</title>
<g id="a_node8"><a xlink:href="quickjs_8c.html#aa923510185fe24e3083baf7405b09f51" target="_top" xlink:title="js_new_string8">
<polygon fill="none" stroke="#ff0000" points="523.5,-342.5 523.5,-361.5 605.5,-361.5 605.5,-342.5 523.5,-342.5"/>
<text text-anchor="middle" x="564.5" y="-349.5" font-family="Helvetica,sans-Serif" font-size="10.00" fill="#000000">js_new_string8</text>
</a>
</g>
</g>
<!-- Node405000&#45;&gt;Node405002 -->
<g id="edge7" class="edge">
<title>Node405000&#45;&gt;Node405002</title>
<path fill="none" stroke="#191970" d="M418.0016,-247.7098C434.0202,-266.5855 471.9416,-308.5192 512,-333 515.2076,-334.9602 518.6481,-336.7626 522.1775,-338.4099"/>
<polygon fill="#191970" stroke="#191970" points="521.0549,-341.7353 531.6282,-342.4103 523.7836,-335.289 521.0549,-341.7353"/>
</g>
<!-- Node405000&#45;&gt;Node405009 -->
<g id="edge8" class="edge">
<title>Node405000&#45;&gt;Node405009</title>
<path fill="none" stroke="#191970" d="M418.1735,-247.5302C430.8977,-262.4762 456.0528,-292.466 476,-319 492.8908,-341.4683 489.7295,-353.8493 512,-371 514.4179,-372.8621 517.0352,-374.5535 519.7662,-376.0881"/>
<polygon fill="#191970" stroke="#191970" points="518.2481,-379.2417 528.7712,-380.4724 521.3124,-372.948 518.2481,-379.2417"/>
</g>
<!-- Node405012 -->
<g id="node10" class="node">
<title>Node405012</title>
<g id="a_node10"><a xlink:href="quickjs_8c.html#a266b4993a59d9e34537386e62b9f3d4f" target="_top" xlink:title="string_buffer_free">
<polygon fill="none" stroke="#ff0000" points="518.5,-304.5 518.5,-323.5 610.5,-323.5 610.5,-304.5 518.5,-304.5"/>
<text text-anchor="middle" x="564.5" y="-311.5" font-family="Helvetica,sans-Serif" font-size="10.00" fill="#000000">string_buffer_free</text>
</a>
</g>
</g>
<!-- Node405000&#45;&gt;Node405012 -->
<g id="edge9" class="edge">
<title>Node405000&#45;&gt;Node405012</title>
<path fill="none" stroke="#191970" d="M425.4875,-247.7016C445.1274,-259.7569 480.2618,-280.505 512,-295 516.4499,-297.0323 521.1857,-299.0017 525.9217,-300.8541"/>
<polygon fill="#191970" stroke="#191970" points="524.9598,-304.2316 535.5518,-304.4745 527.4232,-297.6793 524.9598,-304.2316"/>
</g>
<!-- Node405013 -->
<g id="node11" class="node">
<title>Node405013</title>
<g id="a_node11"><a xlink:href="quickjs_8c.html#a9c11961b0adafedd064b294612d0c2f3" target="_top" xlink:title="string_buffer_init">
<polygon fill="none" stroke="#000000" points="520,-114.5 520,-133.5 609,-133.5 609,-114.5 520,-114.5"/>
<text text-anchor="middle" x="564.5" y="-121.5" font-family="Helvetica,sans-Serif" font-size="10.00" fill="#000000">string_buffer_init</text>
</a>
</g>
</g>
<!-- Node405000&#45;&gt;Node405013 -->
<g id="edge10" class="edge">
<title>Node405000&#45;&gt;Node405013</title>
<path fill="none" stroke="#191970" d="M451.0296,-228.4747C459.9754,-224.9994 468.8827,-220.3075 476,-214 502.4785,-190.5342 485.5036,-166.4455 512,-143 513.9055,-141.3139 515.9723,-139.7737 518.1472,-138.3674"/>
<polygon fill="#191970" stroke="#191970" points="519.8427,-141.4295 526.9593,-133.5806 516.5014,-135.2784 519.8427,-141.4295"/>
</g>
<!-- Node405000&#45;&gt;Node405015 -->
<g id="edge12" class="edge">
<title>Node405000&#45;&gt;Node405015</title>
<path fill="none" stroke="#191970" d="M453.7986,-228.3898C461.9901,-224.9534 469.8857,-220.2991 476,-214 511.5343,-177.3916 476.4377,-141.5812 512,-105 513.4189,-103.5405 514.9583,-102.1925 516.5888,-100.9477"/>
<polygon fill="#191970" stroke="#191970" points="518.6855,-103.7671 525.3657,-95.5436 515.0153,-97.8063 518.6855,-103.7671"/>
</g>
<!-- Node405022 -->
<g id="node14" class="node">
<title>Node405022</title>
<g id="a_node14"><a xlink:href="quickjs_8c.html#a874fcee73f61cc997ec1d10cc6711554" target="_top" xlink:title="string_buffer_putc8">
<polygon fill="none" stroke="#ff0000" points="514.5,-266.5 514.5,-285.5 614.5,-285.5 614.5,-266.5 514.5,-266.5"/>
<text text-anchor="middle" x="564.5" y="-273.5" font-family="Helvetica,sans-Serif" font-size="10.00" fill="#000000">string_buffer_putc8</text>
</a>
</g>
</g>
<!-- Node405000&#45;&gt;Node405022 -->
<g id="edge13" class="edge">
<title>Node405000&#45;&gt;Node405022</title>
<path fill="none" stroke="#191970" d="M448.9869,-247.589C469.283,-252.5809 494.2935,-258.7324 515.8462,-264.0334"/>
<polygon fill="#191970" stroke="#191970" points="515.2469,-267.4902 525.7935,-266.4799 516.9188,-260.6928 515.2469,-267.4902"/>
</g>
<!-- Node405023 -->
<g id="node15" class="node">
<title>Node405023</title>
<g id="a_node15"><a xlink:href="quickjs_8c.html#a0b130652cf11eb0eb9f7e3ee6c5d7c6a" target="_top" xlink:title="string_buffer_write8">
<polygon fill="none" stroke="#ff0000" points="513.5,-228.5 513.5,-247.5 615.5,-247.5 615.5,-228.5 513.5,-228.5"/>
<text text-anchor="middle" x="564.5" y="-235.5" font-family="Helvetica,sans-Serif" font-size="10.00" fill="#000000">string_buffer_write8</text>
</a>
</g>
</g>
<!-- Node405000&#45;&gt;Node405023 -->
<g id="edge14" class="edge">
<title>Node405000&#45;&gt;Node405023</title>
<path fill="none" stroke="#191970" d="M457.6158,-238C471.9516,-238 487.8922,-238 502.9945,-238"/>
<polygon fill="#191970" stroke="#191970" points="503.286,-241.5001 513.2859,-238 503.2859,-234.5001 503.286,-241.5001"/>
</g>
<!-- Node405024 -->
<g id="node16" class="node">
<title>Node405024</title>
<g id="a_node16"><a xlink:href="cutils_8h.html#a69529af6d6911dd0ead90eef221b2e10" target="_top" xlink:title="unicode_from_utf8">
<polygon fill="none" stroke="#000000" points="516,-190.5 516,-209.5 613,-209.5 613,-190.5 516,-190.5"/>
<text text-anchor="middle" x="564.5" y="-197.5" font-family="Helvetica,sans-Serif" font-size="10.00" fill="#000000">unicode_from_utf8</text>
</a>
</g>
</g>
<!-- Node405000&#45;&gt;Node405024 -->
<g id="edge15" class="edge">
<title>Node405000&#45;&gt;Node405024</title>
<path fill="none" stroke="#191970" d="M448.9869,-228.411C469.283,-223.4191 494.2935,-217.2676 515.8462,-211.9666"/>
<polygon fill="#191970" stroke="#191970" points="516.9188,-215.3072 525.7935,-209.5201 515.2469,-208.5098 516.9188,-215.3072"/>
</g>
<!-- Node405013&#45;&gt;Node405014 -->
<g id="edge11" class="edge">
<title>Node405013&#45;&gt;Node405014</title>
<path fill="none" stroke="#191970" d="M600.9302,-133.5665C606.6612,-136.0592 612.2518,-139.1599 617,-143 655.4691,-174.1121 681.1551,-228.0989 692.8158,-256.7886"/>
<polygon fill="#191970" stroke="#191970" points="689.6914,-258.4089 696.5956,-266.4452 696.2098,-255.8574 689.6914,-258.4089"/>
</g>
<!-- Node405008 -->
<g id="node18" class="node">
<title>Node405008</title>
<g id="a_node18"><a xlink:href="quickjs_8h.html#a775522f2d084fc8fa0fcb33f390006b4" target="_top" xlink:title="JS_DupValue">
<polygon fill="none" stroke="#000000" points="371.5,-57.5 371.5,-76.5 448.5,-76.5 448.5,-57.5 371.5,-57.5"/>
<text text-anchor="middle" x="410" y="-64.5" font-family="Helvetica,sans-Serif" font-size="10.00" fill="#000000">JS_DupValue</text>
</a>
</g>
</g>
<!-- Node405025&#45;&gt;Node405008 -->
<g id="edge17" class="edge">
<title>Node405025&#45;&gt;Node405008</title>
<path fill="none" stroke="#191970" d="M269.208,-158.4315C282.5186,-155.7266 296.7329,-151.0493 308,-143 332.3804,-125.5824 320.0366,-103.9871 344,-86 349.1942,-82.1012 355.166,-79.0013 361.3492,-76.5369"/>
<polygon fill="#191970" stroke="#191970" points="362.8401,-79.7255 371.1585,-73.1639 360.5638,-73.1059 362.8401,-79.7255"/>
</g>
<!-- Node405026 -->
<g id="node19" class="node">
<title>Node405026</title>
<g id="a_node19"><a xlink:href="quickjs_8c.html#a6b7e8c810c238daa5ac20c70c2f22b24" target="_top" xlink:title="js_strict_eq2">
<polygon fill="none" stroke="#000000" points="374,-95.5 374,-114.5 446,-114.5 446,-95.5 374,-95.5"/>
<text text-anchor="middle" x="410" y="-102.5" font-family="Helvetica,sans-Serif" font-size="10.00" fill="#000000">js_strict_eq2</text>
</a>
</g>
</g>
<!-- Node405025&#45;&gt;Node405026 -->
<g id="edge18" class="edge">
<title>Node405025&#45;&gt;Node405026</title>
<path fill="none" stroke="#191970" d="M269.3701,-153.201C281.8687,-150.2678 295.5703,-146.7756 308,-143 331.5117,-135.8582 357.4543,-126.1676 377.2924,-118.3601"/>
<polygon fill="#191970" stroke="#191970" points="378.7848,-121.5332 386.7834,-114.5854 376.1979,-115.0288 378.7848,-121.5332"/>
</g>
<!-- Node405027 -->
<g id="node20" class="node">
<title>Node405027</title>
<g id="a_node20"><a xlink:href="quickjs_8h.html#afaa20c47565bc704c6c85f3d77254e7d" target="_top" xlink:title="JS_FreeValue">
<polygon fill="none" stroke="#ff0000" points="525.5,-.5 525.5,-19.5 603.5,-19.5 603.5,-.5 525.5,-.5"/>
<text text-anchor="middle" x="564.5" y="-7.5" font-family="Helvetica,sans-Serif" font-size="10.00" fill="#000000">JS_FreeValue</text>
</a>
</g>
</g>
<!-- Node405026&#45;&gt;Node405027 -->
<g id="edge19" class="edge">
<title>Node405026&#45;&gt;Node405027</title>
<path fill="none" stroke="#191970" d="M446.0951,-99.6134C456.474,-96.7974 467.3221,-92.5137 476,-86 499.9634,-68.0129 488.652,-47.7789 512,-29 514.1562,-27.2658 516.4843,-25.682 518.9193,-24.2368"/>
<polygon fill="#191970" stroke="#191970" points="520.7511,-27.2322 528.0874,-19.5883 517.5856,-20.9889 520.7511,-27.2322"/>
</g>
<!-- Node405061 -->
<g id="node21" class="node">
<title>Node405061</title>
<g id="a_node21"><a xlink:href="quickjs_8c.html#a3d9b165d4274aa43e051caba9bcbbe9f" target="_top" xlink:title="js_string_compare">
<polygon fill="none" stroke="#ff0000" points="516.5,-38.5 516.5,-57.5 612.5,-57.5 612.5,-38.5 516.5,-38.5"/>
<text text-anchor="middle" x="564.5" y="-45.5" font-family="Helvetica,sans-Serif" font-size="10.00" fill="#000000">js_string_compare</text>
</a>
</g>
</g>
<!-- Node405026&#45;&gt;Node405061 -->
<g id="edge20" class="edge">
<title>Node405026&#45;&gt;Node405061</title>
<path fill="none" stroke="#191970" d="M446.0761,-96.0612C455.9191,-93.2332 466.4884,-89.8317 476,-86 492.7812,-79.2397 495.4545,-74.3181 512,-67 516.5265,-64.9979 521.3361,-63.0386 526.1356,-61.1846"/>
<polygon fill="#191970" stroke="#191970" points="527.735,-64.3235 535.8794,-57.5471 525.2868,-57.7656 527.735,-64.3235"/>
</g>
</g>
</svg>
