<?xml version="1.0" encoding="UTF-8" standalone="no"?>
<!DOCTYPE svg PUBLIC "-//W3C//DTD SVG 1.1//EN"
 "http://www.w3.org/Graphics/SVG/1.1/DTD/svg11.dtd">
<!-- Generated by graphviz version 2.40.1 (20161225.0304)
 -->
<!-- Title: js_std_dump_error Pages: 1 -->
<svg width="429pt" height="104pt"
 viewBox="0.00 0.00 429.00 104.00" xmlns="http://www.w3.org/2000/svg" xmlns:xlink="http://www.w3.org/1999/xlink">
<g id="graph0" class="graph" transform="scale(1 1) rotate(0) translate(4 100)">
<title>js_std_dump_error</title>
<!-- Node29274 -->
<g id="node1" class="node">
<title>Node29274</title>
<polygon fill="#bfbfbf" stroke="#000000" points="0,-38.5 0,-57.5 97,-57.5 97,-38.5 0,-38.5"/>
<text text-anchor="middle" x="48.5" y="-45.5" font-family="Helvetica,sans-Serif" font-size="10.00" fill="#000000">js_std_dump_error</text>
</g>
<!-- Node29275 -->
<g id="node2" class="node">
<title>Node29275</title>
<g id="a_node2"><a xlink:href="quickjs-libc_8c.html#abb1cbe3fdf905e81f603a3a0bfce475a" target="_top" xlink:title="call_handler">
<polygon fill="none" stroke="#000000" points="148,-76.5 148,-95.5 216,-95.5 216,-76.5 148,-76.5"/>
<text text-anchor="middle" x="182" y="-83.5" font-family="Helvetica,sans-Serif" font-size="10.00" fill="#000000">call_handler</text>
</a>
</g>
</g>
<!-- Node29274&#45;&gt;Node29275 -->
<g id="edge1" class="edge">
<title>Node29274&#45;&gt;Node29275</title>
<path fill="none" stroke="#191970" d="M92.03,-60.3906C110.3122,-65.5945 131.2492,-71.5541 148.3231,-76.4141"/>
<polygon fill="#191970" stroke="#191970" points="92.7639,-56.9605 82.1877,-57.589 90.8474,-63.6931 92.7639,-56.9605"/>
</g>
<!-- Node29280 -->
<g id="node5" class="node">
<title>Node29280</title>
<g id="a_node5"><a xlink:href="quickjs-libc_8c.html#ab1b439d304c2125490b47ef262b5df67" target="_top" xlink:title="js_std_eval_binary">
<polygon fill="none" stroke="#000000" points="133,-38.5 133,-57.5 231,-57.5 231,-38.5 133,-38.5"/>
<text text-anchor="middle" x="182" y="-45.5" font-family="Helvetica,sans-Serif" font-size="10.00" fill="#000000">js_std_eval_binary</text>
</a>
</g>
</g>
<!-- Node29274&#45;&gt;Node29280 -->
<g id="edge4" class="edge">
<title>Node29274&#45;&gt;Node29280</title>
<path fill="none" stroke="#191970" d="M107.3217,-48C115.8246,-48 124.5016,-48 132.7902,-48"/>
<polygon fill="#191970" stroke="#191970" points="107.0742,-44.5001 97.0742,-48 107.0742,-51.5001 107.0742,-44.5001"/>
</g>
<!-- Node29281 -->
<g id="node6" class="node">
<title>Node29281</title>
<g id="a_node6"><a xlink:href="quickjs-libc_8c.html#af7480dad10e937004e36b2b409b084a4" target="_top" xlink:title="js_std_loop">
<polygon fill="none" stroke="#000000" points="149,-.5 149,-19.5 215,-19.5 215,-.5 149,-.5"/>
<text text-anchor="middle" x="182" y="-7.5" font-family="Helvetica,sans-Serif" font-size="10.00" fill="#000000">js_std_loop</text>
</a>
</g>
</g>
<!-- Node29274&#45;&gt;Node29281 -->
<g id="edge5" class="edge">
<title>Node29274&#45;&gt;Node29281</title>
<path fill="none" stroke="#191970" d="M91.8517,-35.6602C110.3413,-30.3972 131.573,-24.3537 148.7855,-19.4543"/>
<polygon fill="#191970" stroke="#191970" points="90.8474,-32.3069 82.1877,-38.411 92.7639,-39.0395 90.8474,-32.3069"/>
</g>
<!-- Node29276 -->
<g id="node3" class="node">
<title>Node29276</title>
<g id="a_node3"><a xlink:href="quickjs-libc_8c.html#ac6c5f34cb0df6ab0d7579f0f20908a2c" target="_top" xlink:title="js_os_poll">
<polygon fill="none" stroke="#000000" points="267,-76.5 267,-95.5 327,-95.5 327,-76.5 267,-76.5"/>
<text text-anchor="middle" x="297" y="-83.5" font-family="Helvetica,sans-Serif" font-size="10.00" fill="#000000">js_os_poll</text>
</a>
</g>
</g>
<!-- Node29275&#45;&gt;Node29276 -->
<g id="edge2" class="edge">
<title>Node29275&#45;&gt;Node29276</title>
<path fill="none" stroke="#191970" d="M226.2629,-86C239.7637,-86 254.294,-86 266.6523,-86"/>
<polygon fill="#191970" stroke="#191970" points="226.1925,-82.5001 216.1924,-86 226.1924,-89.5001 226.1925,-82.5001"/>
</g>
<!-- Node29277 -->
<g id="node4" class="node">
<title>Node29277</title>
<g id="a_node4"><a xlink:href="quickjs-libc_8c.html#a066e7962ce24f22d5df20968a8baa346" target="_top" xlink:title="js_os_init">
<polygon fill="none" stroke="#ff0000" points="363,-76.5 363,-95.5 421,-95.5 421,-76.5 363,-76.5"/>
<text text-anchor="middle" x="392" y="-83.5" font-family="Helvetica,sans-Serif" font-size="10.00" fill="#000000">js_os_init</text>
</a>
</g>
</g>
<!-- Node29276&#45;&gt;Node29277 -->
<g id="edge3" class="edge">
<title>Node29276&#45;&gt;Node29277</title>
<path fill="none" stroke="#191970" d="M337.2719,-86C345.8389,-86 354.7271,-86 362.7865,-86"/>
<polygon fill="#191970" stroke="#191970" points="337.0586,-82.5001 327.0586,-86 337.0586,-89.5001 337.0586,-82.5001"/>
</g>
<!-- Node29279 -->
<g id="node7" class="node">
<title>Node29279</title>
<g id="a_node7"><a xlink:href="qjs_8cpp.html#a3c04138a5bfe5d72780bb7e82a18e627" target="_top" xlink:title="main">
<polygon fill="none" stroke="#000000" points="278,-.5 278,-19.5 316,-19.5 316,-.5 278,-.5"/>
<text text-anchor="middle" x="297" y="-7.5" font-family="Helvetica,sans-Serif" font-size="10.00" fill="#000000">main</text>
</a>
</g>
</g>
<!-- Node29281&#45;&gt;Node29279 -->
<g id="edge6" class="edge">
<title>Node29281&#45;&gt;Node29279</title>
<path fill="none" stroke="#191970" d="M225.3412,-10C243.4327,-10 263.5183,-10 277.8103,-10"/>
<polygon fill="#191970" stroke="#191970" points="225.2628,-6.5001 215.2628,-10 225.2627,-13.5001 225.2628,-6.5001"/>
</g>
</g>
</svg>
