<?xml version="1.0" encoding="UTF-8" standalone="no"?>
<!DOCTYPE svg PUBLIC "-//W3C//DTD SVG 1.1//EN"
 "http://www.w3.org/Graphics/SVG/1.1/DTD/svg11.dtd">
<!-- Generated by graphviz version 2.40.1 (20161225.0304)
 -->
<!-- Title: bc_put_u8 Pages: 1 -->
<svg width="342pt" height="84pt"
 viewBox="0.00 0.00 342.00 84.00" xmlns="http://www.w3.org/2000/svg" xmlns:xlink="http://www.w3.org/1999/xlink">
<g id="graph0" class="graph" transform="scale(1 1) rotate(0) translate(4 80)">
<title>bc_put_u8</title>
<!-- Node342559 -->
<g id="node1" class="node">
<title>Node342559</title>
<polygon fill="#bfbfbf" stroke="#000000" points="0,-28.5 0,-47.5 62,-47.5 62,-28.5 0,-28.5"/>
<text text-anchor="middle" x="31" y="-35.5" font-family="Helvetica,sans-Serif" font-size="10.00" fill="#000000">bc_put_u8</text>
</g>
<!-- Node342560 -->
<g id="node2" class="node">
<title>Node342560</title>
<g id="a_node2"><a xlink:href="quickjs_8c.html#a91942742587df191fbf0f17a2ede99ef" target="_top" xlink:title="JS_WriteObjectAtoms">
<polygon fill="none" stroke="#000000" points="98,-56.5 98,-75.5 212,-75.5 212,-56.5 98,-56.5"/>
<text text-anchor="middle" x="155" y="-63.5" font-family="Helvetica,sans-Serif" font-size="10.00" fill="#000000">JS_WriteObjectAtoms</text>
</a>
</g>
</g>
<!-- Node342559&#45;&gt;Node342560 -->
<g id="edge1" class="edge">
<title>Node342559&#45;&gt;Node342560</title>
<path fill="none" stroke="#191970" d="M72.3059,-47.3271C85.2183,-50.2428 99.4835,-53.464 112.478,-56.3983"/>
<polygon fill="#191970" stroke="#191970" points="72.8158,-43.8542 62.2904,-45.0656 71.2739,-50.6823 72.8158,-43.8542"/>
</g>
<!-- Node342562 -->
<g id="node4" class="node">
<title>Node342562</title>
<g id="a_node4"><a xlink:href="quickjs_8c.html#aa9342f7444c1c9f8743d43aa4d7f89e3" target="_top" xlink:title="JS_WriteObjectRec">
<polygon fill="none" stroke="#000000" points="103,-.5 103,-19.5 207,-19.5 207,-.5 103,-.5"/>
<text text-anchor="middle" x="155" y="-7.5" font-family="Helvetica,sans-Serif" font-size="10.00" fill="#000000">JS_WriteObjectRec</text>
</a>
</g>
</g>
<!-- Node342559&#45;&gt;Node342562 -->
<g id="edge3" class="edge">
<title>Node342559&#45;&gt;Node342562</title>
<path fill="none" stroke="#191970" d="M72.3059,-28.6729C85.2183,-25.7572 99.4835,-22.536 112.478,-19.6017"/>
<polygon fill="#191970" stroke="#191970" points="71.2739,-25.3177 62.2904,-30.9344 72.8158,-32.1458 71.2739,-25.3177"/>
</g>
<!-- Node342561 -->
<g id="node3" class="node">
<title>Node342561</title>
<g id="a_node3"><a xlink:href="quickjs_8c.html#a8c807d481615ed55818787ae89621a37" target="_top" xlink:title="JS_WriteObject">
<polygon fill="none" stroke="#000000" points="248,-28.5 248,-47.5 334,-47.5 334,-28.5 248,-28.5"/>
<text text-anchor="middle" x="291" y="-35.5" font-family="Helvetica,sans-Serif" font-size="10.00" fill="#000000">JS_WriteObject</text>
</a>
</g>
</g>
<!-- Node342560&#45;&gt;Node342561 -->
<g id="edge2" class="edge">
<title>Node342560&#45;&gt;Node342561</title>
<path fill="none" stroke="#191970" d="M211.5117,-54.3652C223.7068,-51.8545 236.4095,-49.2392 247.9892,-46.8552"/>
<polygon fill="#191970" stroke="#191970" points="210.5119,-50.9976 201.4231,-56.4423 211.9235,-57.8538 210.5119,-50.9976"/>
</g>
<!-- Node342562&#45;&gt;Node342561 -->
<g id="edge5" class="edge">
<title>Node342562&#45;&gt;Node342561</title>
<path fill="none" stroke="#191970" d="M211.5117,-21.6348C223.7068,-24.1455 236.4095,-26.7608 247.9892,-29.1448"/>
<polygon fill="#191970" stroke="#191970" points="211.9235,-18.1462 201.4231,-19.5577 210.5119,-25.0024 211.9235,-18.1462"/>
</g>
<!-- Node342562&#45;&gt;Node342562 -->
<g id="edge4" class="edge">
<title>Node342562&#45;&gt;Node342562</title>
<path fill="none" stroke="#191970" d="M131.9346,-29.0292C133.1928,-34.128 140.8812,-38 155,-38 177.0391,-38 183.4097,-28.5653 174.112,-19.7571"/>
<polygon fill="#191970" stroke="#191970" points="135.1854,-30.3286 135.888,-19.7571 128.7463,-27.5831 135.1854,-30.3286"/>
</g>
</g>
</svg>
