<?xml version="1.0" encoding="UTF-8" standalone="no"?>
<!DOCTYPE svg PUBLIC "-//W3C//DTD SVG 1.1//EN"
 "http://www.w3.org/Graphics/SVG/1.1/DTD/svg11.dtd">
<!-- Generated by graphviz version 2.40.1 (20161225.0304)
 -->
<!-- Title: js_shr_slow Pages: 1 -->
<svg width="534pt" height="995pt"
 viewBox="0.00 0.00 534.00 995.00" xmlns="http://www.w3.org/2000/svg" xmlns:xlink="http://www.w3.org/1999/xlink">
<g id="graph0" class="graph" transform="scale(1 1) rotate(0) translate(4 991)">
<title>js_shr_slow</title>
<!-- Node253584 -->
<g id="node1" class="node">
<title>Node253584</title>
<polygon fill="#bfbfbf" stroke="#000000" points="0,-340.5 0,-359.5 68,-359.5 68,-340.5 0,-340.5"/>
<text text-anchor="middle" x="34" y="-347.5" font-family="Helvetica,sans-Serif" font-size="10.00" fill="#000000">js_shr_slow</text>
</g>
<!-- Node253585 -->
<g id="node2" class="node">
<title>Node253585</title>
<g id="a_node2"><a xlink:href="quickjs_8c.html#ac2894ff4edcdb4e6841bcce9c76081e3" target="_top" xlink:title="JS_CallInternal">
<polygon fill="none" stroke="#000000" points="104,-340.5 104,-359.5 187,-359.5 187,-340.5 104,-340.5"/>
<text text-anchor="middle" x="145.5" y="-347.5" font-family="Helvetica,sans-Serif" font-size="10.00" fill="#000000">JS_CallInternal</text>
</a>
</g>
</g>
<!-- Node253584&#45;&gt;Node253585 -->
<g id="edge1" class="edge">
<title>Node253584&#45;&gt;Node253585</title>
<path fill="none" stroke="#191970" d="M78.13,-350C86.583,-350 95.4091,-350 103.7833,-350"/>
<polygon fill="#191970" stroke="#191970" points="78.0596,-346.5001 68.0595,-350 78.0595,-353.5001 78.0596,-346.5001"/>
</g>
<!-- Node253585&#45;&gt;Node253585 -->
<g id="edge40" class="edge">
<title>Node253585&#45;&gt;Node253585</title>
<path fill="none" stroke="#191970" d="M125.1306,-369.4C126.491,-374.3146 133.2808,-378 145.5,-378 165.0508,-378 170.7022,-368.5653 162.4542,-359.7571"/>
<polygon fill="#191970" stroke="#191970" points="128.5065,-370.3518 128.5458,-359.7571 121.9081,-368.0149 128.5065,-370.3518"/>
</g>
<!-- Node253586 -->
<g id="node3" class="node">
<title>Node253586</title>
<g id="a_node3"><a xlink:href="quickjs_8c.html#ade71a22dc56e7371392393df663b28b3" target="_top" xlink:title="async_func_resume">
<polygon fill="none" stroke="#000000" points="238,-874.5 238,-893.5 342,-893.5 342,-874.5 238,-874.5"/>
<text text-anchor="middle" x="290" y="-881.5" font-family="Helvetica,sans-Serif" font-size="10.00" fill="#000000">async_func_resume</text>
</a>
</g>
</g>
<!-- Node253585&#45;&gt;Node253586 -->
<g id="edge2" class="edge">
<title>Node253585&#45;&gt;Node253586</title>
<path fill="none" stroke="#191970" d="M150.7489,-369.3972C174.3253,-456.524 270.0372,-810.2275 287.3189,-874.092"/>
<polygon fill="#191970" stroke="#191970" points="154.122,-368.463 148.1314,-359.7244 147.365,-370.2915 154.122,-368.463"/>
</g>
<!-- Node253598 -->
<g id="node8" class="node">
<title>Node253598</title>
<g id="a_node8"><a xlink:href="quickjs_8c.html#a1a4c02a29525d5cb2085dd8bca3af350" target="_top" xlink:title="JS_Call">
<polygon fill="none" stroke="#ff0000" points="264.5,-378.5 264.5,-397.5 315.5,-397.5 315.5,-378.5 264.5,-378.5"/>
<text text-anchor="middle" x="290" y="-385.5" font-family="Helvetica,sans-Serif" font-size="10.00" fill="#000000">JS_Call</text>
</a>
</g>
</g>
<!-- Node253585&#45;&gt;Node253598 -->
<g id="edge7" class="edge">
<title>Node253585&#45;&gt;Node253598</title>
<path fill="none" stroke="#191970" d="M197.3524,-357.1309C223.197,-363.291 252.8346,-371.6885 271.4855,-378.4368"/>
<polygon fill="#191970" stroke="#191970" points="197.8269,-353.6484 187.2954,-354.8052 196.2497,-360.4684 197.8269,-353.6484"/>
</g>
<!-- Node253672 -->
<g id="node29" class="node">
<title>Node253672</title>
<g id="a_node29"><a xlink:href="quickjs_8c.html#ad35594576a14c10812efaf958c99af8a" target="_top" xlink:title="JS_CallConstructorInternal">
<polygon fill="none" stroke="#ff0000" points="223,-264.5 223,-283.5 357,-283.5 357,-264.5 223,-264.5"/>
<text text-anchor="middle" x="290" y="-271.5" font-family="Helvetica,sans-Serif" font-size="10.00" fill="#000000">JS_CallConstructorInternal</text>
</a>
</g>
</g>
<!-- Node253585&#45;&gt;Node253672 -->
<g id="edge34" class="edge">
<title>Node253585&#45;&gt;Node253672</title>
<path fill="none" stroke="#191970" d="M157.5491,-332.5463C172.0695,-317.2145 197.6856,-296.3922 223,-284 223.3258,-283.8405 223.6531,-283.6822 223.9819,-283.525"/>
<polygon fill="#191970" stroke="#191970" points="154.627,-330.572 150.6961,-340.4106 159.9045,-335.1708 154.627,-330.572"/>
</g>
<!-- Node253686 -->
<g id="node30" class="node">
<title>Node253686</title>
<g id="a_node30"><a xlink:href="quickjs_8c.html#a75f6ee5e4235a7dc99889f3d2eb2c147" target="_top" xlink:title="JS_CallFree">
<polygon fill="none" stroke="#ff0000" points="254.5,-302.5 254.5,-321.5 325.5,-321.5 325.5,-302.5 254.5,-302.5"/>
<text text-anchor="middle" x="290" y="-309.5" font-family="Helvetica,sans-Serif" font-size="10.00" fill="#000000">JS_CallFree</text>
</a>
</g>
</g>
<!-- Node253585&#45;&gt;Node253686 -->
<g id="edge36" class="edge">
<title>Node253585&#45;&gt;Node253686</title>
<path fill="none" stroke="#191970" d="M173.6305,-337.1263C196.6733,-329.5295 229.4179,-320.7723 254.3055,-315.4723"/>
<polygon fill="#191970" stroke="#191970" points="172.4119,-333.8441 164.095,-340.4076 174.6897,-340.4632 172.4119,-333.8441"/>
</g>
<!-- Node253587 -->
<g id="node4" class="node">
<title>Node253587</title>
<g id="a_node4"><a xlink:href="quickjs_8c.html#ac90552b1f1659acb3dae9a4c62479a30" target="_top" xlink:title="js_generator_function_call">
<polygon fill="none" stroke="#ff0000" points="394.5,-967.5 394.5,-986.5 524.5,-986.5 524.5,-967.5 394.5,-967.5"/>
<text text-anchor="middle" x="459.5" y="-974.5" font-family="Helvetica,sans-Serif" font-size="10.00" fill="#000000">js_generator_function_call</text>
</a>
</g>
</g>
<!-- Node253586&#45;&gt;Node253587 -->
<g id="edge3" class="edge">
<title>Node253586&#45;&gt;Node253587</title>
<path fill="none" stroke="#191970" d="M308.4671,-900.3133C328.1641,-916.9499 360.8865,-942.4617 393,-958 400.782,-961.7654 409.4469,-964.9157 417.8825,-967.499"/>
<polygon fill="#191970" stroke="#191970" points="310.488,-897.4351 300.6226,-893.5717 305.9255,-902.7439 310.488,-897.4351"/>
</g>
<!-- Node253591 -->
<g id="node5" class="node">
<title>Node253591</title>
<g id="a_node5"><a xlink:href="quickjs_8c.html#a1bf6b62983e8fff99c0a5d5a9f486115" target="_top" xlink:title="js_async_function_resume">
<polygon fill="none" stroke="#ff0000" points="393,-830.5 393,-849.5 526,-849.5 526,-830.5 393,-830.5"/>
<text text-anchor="middle" x="459.5" y="-837.5" font-family="Helvetica,sans-Serif" font-size="10.00" fill="#000000">js_async_function_resume</text>
</a>
</g>
</g>
<!-- Node253586&#45;&gt;Node253591 -->
<g id="edge4" class="edge">
<title>Node253586&#45;&gt;Node253591</title>
<path fill="none" stroke="#191970" d="M336.4651,-871.9383C363.6496,-864.8815 397.4877,-856.0976 422.7928,-849.5287"/>
<polygon fill="#191970" stroke="#191970" points="335.5787,-868.5523 326.779,-874.4527 337.3376,-875.3277 335.5787,-868.5523"/>
</g>
<!-- Node253596 -->
<g id="node6" class="node">
<title>Node253596</title>
<g id="a_node6"><a xlink:href="quickjs_8c.html#a89b019c704a2d2914bc30b30a72040b3" target="_top" xlink:title="js_async_generator\l_resume_next">
<polygon fill="none" stroke="#000000" points="409,-918 409,-948 510,-948 510,-918 409,-918"/>
<text text-anchor="start" x="417" y="-936" font-family="Helvetica,sans-Serif" font-size="10.00" fill="#000000">js_async_generator</text>
<text text-anchor="middle" x="459.5" y="-925" font-family="Helvetica,sans-Serif" font-size="10.00" fill="#000000">_resume_next</text>
</a>
</g>
</g>
<!-- Node253586&#45;&gt;Node253596 -->
<g id="edge5" class="edge">
<title>Node253586&#45;&gt;Node253596</title>
<path fill="none" stroke="#191970" d="M332.9372,-896.4125C356.0226,-903.0862 384.6309,-911.3564 408.805,-918.3448"/>
<polygon fill="#191970" stroke="#191970" points="333.6623,-892.9789 323.0837,-893.564 331.7183,-899.7036 333.6623,-892.9789"/>
</g>
<!-- Node253597 -->
<g id="node7" class="node">
<title>Node253597</title>
<g id="a_node7"><a xlink:href="quickjs_8c.html#ae19867da709929c072f05e90301835a4" target="_top" xlink:title="js_async_generator\l_function_call">
<polygon fill="none" stroke="#ff0000" points="409,-869 409,-899 510,-899 510,-869 409,-869"/>
<text text-anchor="start" x="417" y="-887" font-family="Helvetica,sans-Serif" font-size="10.00" fill="#000000">js_async_generator</text>
<text text-anchor="middle" x="459.5" y="-876" font-family="Helvetica,sans-Serif" font-size="10.00" fill="#000000">_function_call</text>
</a>
</g>
</g>
<!-- Node253586&#45;&gt;Node253597 -->
<g id="edge6" class="edge">
<title>Node253586&#45;&gt;Node253597</title>
<path fill="none" stroke="#191970" d="M352.388,-884C370.9885,-884 391.1368,-884 408.8866,-884"/>
<polygon fill="#191970" stroke="#191970" points="352.2387,-880.5001 342.2387,-884 352.2386,-887.5001 352.2387,-880.5001"/>
</g>
<!-- Node253598&#45;&gt;Node253585 -->
<g id="edge15" class="edge">
<title>Node253598&#45;&gt;Node253585</title>
<path fill="none" stroke="#191970" d="M254.4088,-384.5497C225.8289,-378.469 186.8374,-367.8129 164.095,-359.5924"/>
<polygon fill="#191970" stroke="#191970" points="253.923,-388.0222 264.4179,-386.57 255.3081,-381.1605 253.923,-388.0222"/>
</g>
<!-- Node253598&#45;&gt;Node253591 -->
<g id="edge16" class="edge">
<title>Node253598&#45;&gt;Node253591</title>
<path fill="none" stroke="#191970" d="M292.0847,-407.927C300.4965,-484.64 334.3319,-759.645 393,-821 396.6512,-824.8184 401.0118,-827.8855 405.73,-830.3468"/>
<polygon fill="#191970" stroke="#191970" points="295.5382,-407.3053 290.9903,-397.7362 288.5782,-408.0528 295.5382,-407.3053"/>
</g>
<!-- Node253599 -->
<g id="node9" class="node">
<title>Node253599</title>
<g id="a_node9"><a xlink:href="structqjs_1_1js__traits_3_01std_1_1function_3_01R_07Args_8_8_8_08_4_01_4.html#abc36cacd670b6b5f1773734a0586a02b" target="_top" xlink:title="qjs::js_traits\&lt; std\l::function\&lt; R(Args...)\l\&gt; \&gt;::unwrap">
<polygon fill="none" stroke="#000000" points="405,-392.5 405,-433.5 514,-433.5 514,-392.5 405,-392.5"/>
<text text-anchor="start" x="413" y="-421.5" font-family="Helvetica,sans-Serif" font-size="10.00" fill="#000000">qjs::js_traits&lt; std</text>
<text text-anchor="start" x="413" y="-410.5" font-family="Helvetica,sans-Serif" font-size="10.00" fill="#000000">::function&lt; R(Args...)</text>
<text text-anchor="middle" x="459.5" y="-399.5" font-family="Helvetica,sans-Serif" font-size="10.00" fill="#000000">&gt; &gt;::unwrap</text>
</a>
</g>
</g>
<!-- Node253598&#45;&gt;Node253599 -->
<g id="edge8" class="edge">
<title>Node253598&#45;&gt;Node253599</title>
<path fill="none" stroke="#191970" d="M325.7116,-393.2672C348.6128,-396.645 378.7972,-401.0969 404.6986,-404.9172"/>
<polygon fill="#191970" stroke="#191970" points="326.1471,-389.7936 315.7434,-391.797 325.1256,-396.7187 326.1471,-389.7936"/>
</g>
<!-- Node253600 -->
<g id="node10" class="node">
<title>Node253600</title>
<g id="a_node10"><a xlink:href="quickjs-libc_8c.html#abb1cbe3fdf905e81f603a3a0bfce475a" target="_top" xlink:title="call_handler">
<polygon fill="none" stroke="#ff0000" points="425.5,-354.5 425.5,-373.5 493.5,-373.5 493.5,-354.5 425.5,-354.5"/>
<text text-anchor="middle" x="459.5" y="-361.5" font-family="Helvetica,sans-Serif" font-size="10.00" fill="#000000">call_handler</text>
</a>
</g>
</g>
<!-- Node253598&#45;&gt;Node253600 -->
<g id="edge9" class="edge">
<title>Node253598&#45;&gt;Node253600</title>
<path fill="none" stroke="#191970" d="M325.9702,-382.9069C355.3013,-378.7538 396.4516,-372.9272 425.2948,-368.8432"/>
<polygon fill="#191970" stroke="#191970" points="325.1539,-379.4875 315.7434,-384.3549 326.1354,-386.4183 325.1539,-379.4875"/>
</g>
<!-- Node253605 -->
<g id="node11" class="node">
<title>Node253605</title>
<g id="a_node11"><a xlink:href="quickjs_8c.html#aa049793cc8648d35fe81876a2543ca4e" target="_top" xlink:title="JS_GetIterator2">
<polygon fill="none" stroke="#ff0000" points="416.5,-316.5 416.5,-335.5 502.5,-335.5 502.5,-316.5 416.5,-316.5"/>
<text text-anchor="middle" x="459.5" y="-323.5" font-family="Helvetica,sans-Serif" font-size="10.00" fill="#000000">JS_GetIterator2</text>
</a>
</g>
</g>
<!-- Node253598&#45;&gt;Node253605 -->
<g id="edge10" class="edge">
<title>Node253598&#45;&gt;Node253605</title>
<path fill="none" stroke="#191970" d="M325.3423,-376.395C335.6658,-372.723 346.8882,-368.4527 357,-364 373.5575,-356.709 376.2121,-351.7435 393,-345 401.9135,-341.4196 411.7502,-338.2214 421.0626,-335.5163"/>
<polygon fill="#191970" stroke="#191970" points="324.0809,-373.128 315.7855,-379.7188 326.3804,-379.7396 324.0809,-373.128"/>
</g>
<!-- Node253627 -->
<g id="node12" class="node">
<title>Node253627</title>
<g id="a_node12"><a xlink:href="quickjs_8c.html#ad6303fbd3add4afa0cb64b0aa6d431ce" target="_top" xlink:title="JS_IteratorNext2">
<polygon fill="none" stroke="#ff0000" points="414,-278.5 414,-297.5 505,-297.5 505,-278.5 414,-278.5"/>
<text text-anchor="middle" x="459.5" y="-285.5" font-family="Helvetica,sans-Serif" font-size="10.00" fill="#000000">JS_IteratorNext2</text>
</a>
</g>
</g>
<!-- Node253598&#45;&gt;Node253627 -->
<g id="edge11" class="edge">
<title>Node253598&#45;&gt;Node253627</title>
<path fill="none" stroke="#191970" d="M325.3224,-380.1664C336.2689,-376.5326 347.8475,-371.3368 357,-364 380.3787,-345.2593 369.0187,-324.9631 393,-307 399.1505,-302.393 406.3819,-298.902 413.7695,-296.257"/>
<polygon fill="#191970" stroke="#191970" points="324.1201,-376.8724 315.5349,-383.081 326.118,-383.5813 324.1201,-376.8724"/>
</g>
<!-- Node253631 -->
<g id="node13" class="node">
<title>Node253631</title>
<g id="a_node13"><a xlink:href="quickjs_8c.html#a62424fefab7bcc97f49c978205c7a1c1" target="_top" xlink:title="js_for_await_of_next">
<polygon fill="none" stroke="#000000" points="406,-792.5 406,-811.5 513,-811.5 513,-792.5 406,-792.5"/>
<text text-anchor="middle" x="459.5" y="-799.5" font-family="Helvetica,sans-Serif" font-size="10.00" fill="#000000">js_for_await_of_next</text>
</a>
</g>
</g>
<!-- Node253598&#45;&gt;Node253631 -->
<g id="edge12" class="edge">
<title>Node253598&#45;&gt;Node253631</title>
<path fill="none" stroke="#191970" d="M297.5257,-407.4189C311.0233,-442.8427 339.5623,-520.5268 357,-588 379.052,-673.3277 333.7352,-717.7712 393,-783 396.6334,-786.9991 401.0443,-790.1793 405.847,-792.705"/>
<polygon fill="#191970" stroke="#191970" points="300.7,-405.9215 293.8486,-397.8401 294.1649,-408.4303 300.7,-405.9215"/>
</g>
<!-- Node253632 -->
<g id="node14" class="node">
<title>Node253632</title>
<g id="a_node14"><a xlink:href="quickjs_8c.html#afd4ef2d701fa0702f321925b61c57bbf" target="_top" xlink:title="js_call_bound_function">
<polygon fill="none" stroke="#ff0000" points="401.5,-240.5 401.5,-259.5 517.5,-259.5 517.5,-240.5 401.5,-240.5"/>
<text text-anchor="middle" x="459.5" y="-247.5" font-family="Helvetica,sans-Serif" font-size="10.00" fill="#000000">js_call_bound_function</text>
</a>
</g>
</g>
<!-- Node253598&#45;&gt;Node253632 -->
<g id="edge14" class="edge">
<title>Node253598&#45;&gt;Node253632</title>
<path fill="none" stroke="#191970" d="M325.3781,-381.4933C336.6487,-377.9274 348.4083,-372.4362 357,-364 389.2175,-332.3654 359.7613,-299.5599 393,-269 397.2427,-265.0992 402.2323,-261.9932 407.5396,-259.5212"/>
<polygon fill="#191970" stroke="#191970" points="324.4055,-378.1308 315.6914,-384.157 326.2615,-384.8802 324.4055,-378.1308"/>
</g>
<!-- Node253633 -->
<g id="node15" class="node">
<title>Node253633</title>
<g id="a_node15"><a xlink:href="quickjs_8c.html#a3e852026d167fa03c673f86697dd3e67" target="_top" xlink:title="js_async_generator\l_resolve_or_reject">
<polygon fill="none" stroke="#ff0000" points="409,-191 409,-221 510,-221 510,-191 409,-191"/>
<text text-anchor="start" x="417" y="-209" font-family="Helvetica,sans-Serif" font-size="10.00" fill="#000000">js_async_generator</text>
<text text-anchor="middle" x="459.5" y="-198" font-family="Helvetica,sans-Serif" font-size="10.00" fill="#000000">_resolve_or_reject</text>
</a>
</g>
</g>
<!-- Node253598&#45;&gt;Node253633 -->
<g id="edge17" class="edge">
<title>Node253598&#45;&gt;Node253633</title>
<path fill="none" stroke="#191970" d="M325.5957,-382.049C336.9874,-378.5241 348.7665,-372.9166 357,-364 398.5441,-319.0088 351.8086,-276.3144 393,-231 397.48,-226.0715 403.029,-222.1099 408.9965,-218.9265"/>
<polygon fill="#191970" stroke="#191970" points="324.5576,-378.7031 315.7834,-384.6414 326.3457,-385.4709 324.5576,-378.7031"/>
</g>
<!-- Node253636 -->
<g id="node16" class="node">
<title>Node253636</title>
<g id="a_node16"><a xlink:href="quickjs_8c.html#a2355fabf91f59212ea65baba1b0b7c1b" target="_top" xlink:title="js_async_generator_next">
<polygon fill="none" stroke="#000000" points="397,-152.5 397,-171.5 522,-171.5 522,-152.5 397,-152.5"/>
<text text-anchor="middle" x="459.5" y="-159.5" font-family="Helvetica,sans-Serif" font-size="10.00" fill="#000000">js_async_generator_next</text>
</a>
</g>
</g>
<!-- Node253598&#45;&gt;Node253636 -->
<g id="edge18" class="edge">
<title>Node253598&#45;&gt;Node253636</title>
<path fill="none" stroke="#191970" d="M325.6823,-382.4491C337.1883,-378.957 349.0169,-373.268 357,-364 410.8136,-301.5251 337.5859,-243.0597 393,-182 396.9701,-177.6255 401.8566,-174.1929 407.1634,-171.5018"/>
<polygon fill="#191970" stroke="#191970" points="324.5797,-379.1184 315.7588,-384.9871 326.3142,-385.9001 324.5797,-379.1184"/>
</g>
<!-- Node253637 -->
<g id="node17" class="node">
<title>Node253637</title>
<g id="a_node17"><a xlink:href="quickjs_8c.html#a6357b7fdae71c70c140e78e6c20cb5c2" target="_top" xlink:title="js_dynamic_import_job">
<polygon fill="none" stroke="#ff0000" points="401.5,-114.5 401.5,-133.5 517.5,-133.5 517.5,-114.5 401.5,-114.5"/>
<text text-anchor="middle" x="459.5" y="-121.5" font-family="Helvetica,sans-Serif" font-size="10.00" fill="#000000">js_dynamic_import_job</text>
</a>
</g>
</g>
<!-- Node253598&#45;&gt;Node253637 -->
<g id="edge19" class="edge">
<title>Node253598&#45;&gt;Node253637</title>
<path fill="none" stroke="#191970" d="M325.5904,-382.681C337.1973,-379.21 349.1135,-373.475 357,-364 420.6643,-287.5117 326.859,-217.357 393,-143 396.4315,-139.1423 400.5864,-136.0444 405.1249,-133.5601"/>
<polygon fill="#191970" stroke="#191970" points="324.4306,-379.3632 315.579,-385.1855 326.1295,-386.1539 324.4306,-379.3632"/>
</g>
<!-- Node253639 -->
<g id="node18" class="node">
<title>Node253639</title>
<g id="a_node18"><a xlink:href="quickjs_8c.html#a8d4b24969540aff427939eeda47f451d" target="_top" xlink:title="js_function_apply">
<polygon fill="none" stroke="#ff0000" points="413.5,-76.5 413.5,-95.5 505.5,-95.5 505.5,-76.5 413.5,-76.5"/>
<text text-anchor="middle" x="459.5" y="-83.5" font-family="Helvetica,sans-Serif" font-size="10.00" fill="#000000">js_function_apply</text>
</a>
</g>
</g>
<!-- Node253598&#45;&gt;Node253639 -->
<g id="edge20" class="edge">
<title>Node253598&#45;&gt;Node253639</title>
<path fill="none" stroke="#191970" d="M325.7146,-382.7832C337.3331,-379.3217 349.2248,-373.5665 357,-364 430.2998,-273.813 316.7789,-192.7321 393,-105 398.3549,-98.8364 405.557,-94.6066 413.2472,-91.7183"/>
<polygon fill="#191970" stroke="#191970" points="324.5474,-379.4666 315.6852,-385.2729 326.2339,-386.2605 324.5474,-379.4666"/>
</g>
<!-- Node253642 -->
<g id="node19" class="node">
<title>Node253642</title>
<g id="a_node19"><a xlink:href="quickjs_8c.html#a677ad630a103e1f3d5129e0549112b50" target="_top" xlink:title="js_function_call">
<polygon fill="none" stroke="#000000" points="417.5,-754.5 417.5,-773.5 501.5,-773.5 501.5,-754.5 417.5,-754.5"/>
<text text-anchor="middle" x="459.5" y="-761.5" font-family="Helvetica,sans-Serif" font-size="10.00" fill="#000000">js_function_call</text>
</a>
</g>
</g>
<!-- Node253598&#45;&gt;Node253642 -->
<g id="edge22" class="edge">
<title>Node253598&#45;&gt;Node253642</title>
<path fill="none" stroke="#191970" d="M297.241,-407.4957C310.2837,-443.0423 338.1211,-520.9157 357,-588 376.3933,-656.9118 343.7356,-693.0582 393,-745 399.5276,-751.8824 408.3593,-756.3264 417.4513,-759.1816"/>
<polygon fill="#191970" stroke="#191970" points="300.4392,-406.0524 293.6945,-397.8817 293.8718,-408.4751 300.4392,-406.0524"/>
</g>
<!-- Node253608 -->
<g id="node20" class="node">
<title>Node253608</title>
<g id="a_node20"><a xlink:href="quickjs_8c.html#a5e32da9a43002cb96dcbd62a1a340144" target="_top" xlink:title="js_array_from">
<polygon fill="none" stroke="#000000" points="421.5,-716.5 421.5,-735.5 497.5,-735.5 497.5,-716.5 421.5,-716.5"/>
<text text-anchor="middle" x="459.5" y="-723.5" font-family="Helvetica,sans-Serif" font-size="10.00" fill="#000000">js_array_from</text>
</a>
</g>
</g>
<!-- Node253598&#45;&gt;Node253608 -->
<g id="edge23" class="edge">
<title>Node253598&#45;&gt;Node253608</title>
<path fill="none" stroke="#191970" d="M296.6153,-407.1229C308.8581,-442.6484 335.7386,-521.284 357,-588 373.7779,-640.6473 353.627,-668.2314 393,-707 400.6146,-714.4977 410.9722,-719.0786 421.2452,-721.8646"/>
<polygon fill="#191970" stroke="#191970" points="299.8797,-405.8532 293.3081,-397.5427 293.2629,-408.1374 299.8797,-405.8532"/>
</g>
<!-- Node253623 -->
<g id="node21" class="node">
<title>Node253623</title>
<g id="a_node21"><a xlink:href="quickjs_8c.html#aa0bbf08a7e91459c68a312fba7016c6d" target="_top" xlink:title="js_array_every">
<polygon fill="none" stroke="#000000" points="419.5,-678.5 419.5,-697.5 499.5,-697.5 499.5,-678.5 419.5,-678.5"/>
<text text-anchor="middle" x="459.5" y="-685.5" font-family="Helvetica,sans-Serif" font-size="10.00" fill="#000000">js_array_every</text>
</a>
</g>
</g>
<!-- Node253598&#45;&gt;Node253623 -->
<g id="edge24" class="edge">
<title>Node253598&#45;&gt;Node253623</title>
<path fill="none" stroke="#191970" d="M296.5433,-407.3208C317.5972,-469.2814 382.8129,-659.531 393,-669 400.2996,-675.785 409.8562,-680.1675 419.4389,-682.9923"/>
<polygon fill="#191970" stroke="#191970" points="299.7776,-405.9597 293.2501,-397.6145 293.1487,-408.2089 299.7776,-405.9597"/>
</g>
<!-- Node253643 -->
<g id="node22" class="node">
<title>Node253643</title>
<g id="a_node22"><a xlink:href="quickjs_8c.html#a36c1692489542a86dd79a7d39ab8ff95" target="_top" xlink:title="js_array_reduce">
<polygon fill="none" stroke="#000000" points="416.5,-640.5 416.5,-659.5 502.5,-659.5 502.5,-640.5 416.5,-640.5"/>
<text text-anchor="middle" x="459.5" y="-647.5" font-family="Helvetica,sans-Serif" font-size="10.00" fill="#000000">js_array_reduce</text>
</a>
</g>
</g>
<!-- Node253598&#45;&gt;Node253643 -->
<g id="edge25" class="edge">
<title>Node253598&#45;&gt;Node253643</title>
<path fill="none" stroke="#191970" d="M295.8036,-407.3014C311.7383,-459.1162 357.3498,-599.4734 393,-631 399.566,-636.8066 407.7947,-640.8465 416.204,-643.6553"/>
<polygon fill="#191970" stroke="#191970" points="299.129,-406.2066 292.868,-397.6597 292.4325,-408.2455 299.129,-406.2066"/>
</g>
<!-- Node253644 -->
<g id="node23" class="node">
<title>Node253644</title>
<g id="a_node23"><a xlink:href="quickjs_8c.html#a9dd41b086da4e13b3487cc9c6e2af2b8" target="_top" xlink:title="js_array_find">
<polygon fill="none" stroke="#000000" points="423.5,-602.5 423.5,-621.5 495.5,-621.5 495.5,-602.5 423.5,-602.5"/>
<text text-anchor="middle" x="459.5" y="-609.5" font-family="Helvetica,sans-Serif" font-size="10.00" fill="#000000">js_array_find</text>
</a>
</g>
</g>
<!-- Node253598&#45;&gt;Node253644 -->
<g id="edge26" class="edge">
<title>Node253598&#45;&gt;Node253644</title>
<path fill="none" stroke="#191970" d="M294.2704,-407.7068C304.1682,-448.587 332.5889,-542.9626 393,-593 401.5998,-600.123 412.7275,-604.5782 423.4115,-607.3639"/>
<polygon fill="#191970" stroke="#191970" points="297.6634,-406.8442 292.0048,-397.8871 290.8426,-408.418 297.6634,-406.8442"/>
</g>
<!-- Node253645 -->
<g id="node24" class="node">
<title>Node253645</title>
<g id="a_node24"><a xlink:href="quickjs_8c.html#ad90c33b4aae1181151bda4a98ac2ef23" target="_top" xlink:title="JS_FlattenIntoArray">
<polygon fill="none" stroke="#ff0000" points="407.5,-546.5 407.5,-565.5 511.5,-565.5 511.5,-546.5 407.5,-546.5"/>
<text text-anchor="middle" x="459.5" y="-553.5" font-family="Helvetica,sans-Serif" font-size="10.00" fill="#000000">JS_FlattenIntoArray</text>
</a>
</g>
</g>
<!-- Node253598&#45;&gt;Node253645 -->
<g id="edge27" class="edge">
<title>Node253598&#45;&gt;Node253645</title>
<path fill="none" stroke="#191970" d="M298.028,-407.2333C312.3239,-439.1074 345.2437,-502.7529 393,-537 398.3666,-540.8485 404.4968,-543.9204 410.8147,-546.3717"/>
<polygon fill="#191970" stroke="#191970" points="301.0942,-405.5072 293.8992,-397.7302 294.6739,-408.2967 301.0942,-405.5072"/>
</g>
<!-- Node253647 -->
<g id="node25" class="node">
<title>Node253647</title>
<g id="a_node25"><a xlink:href="quickjs_8c.html#aed1bf9ce4b9e3a82388679dd6ec7635b" target="_top" xlink:title="js_string_replace">
<polygon fill="none" stroke="#000000" points="414.5,-38.5 414.5,-57.5 504.5,-57.5 504.5,-38.5 414.5,-38.5"/>
<text text-anchor="middle" x="459.5" y="-45.5" font-family="Helvetica,sans-Serif" font-size="10.00" fill="#000000">js_string_replace</text>
</a>
</g>
</g>
<!-- Node253598&#45;&gt;Node253647 -->
<g id="edge29" class="edge">
<title>Node253598&#45;&gt;Node253647</title>
<path fill="none" stroke="#191970" d="M315.7835,-372.8288C330.3369,-362.8465 347.4685,-348.4185 357,-331 413.8458,-227.117 315.4507,-156.4942 393,-67 398.5828,-60.5573 406.1841,-56.2268 414.2547,-53.3324"/>
<polygon fill="#191970" stroke="#191970" points="313.6138,-370.065 307.1461,-378.4566 317.4353,-375.9299 313.6138,-370.065"/>
</g>
<!-- Node253648 -->
<g id="node26" class="node">
<title>Node253648</title>
<g id="a_node26"><a xlink:href="quickjs_8c.html#a624282391413d4c5a030adbd8b77aa80" target="_top" xlink:title="internalize_json_property">
<polygon fill="none" stroke="#ff0000" points="397,-490.5 397,-509.5 522,-509.5 522,-490.5 397,-490.5"/>
<text text-anchor="middle" x="459.5" y="-497.5" font-family="Helvetica,sans-Serif" font-size="10.00" fill="#000000">internalize_json_property</text>
</a>
</g>
</g>
<!-- Node253598&#45;&gt;Node253648 -->
<g id="edge30" class="edge">
<title>Node253598&#45;&gt;Node253648</title>
<path fill="none" stroke="#191970" d="M304.7694,-405.5222C323.3129,-426.4365 357.0752,-461.0764 393,-481 399.9303,-484.8435 407.7072,-487.968 415.4336,-490.4889"/>
<polygon fill="#191970" stroke="#191970" points="307.2051,-402.989 298.0056,-397.7336 301.9199,-407.5788 307.2051,-402.989"/>
</g>
<!-- Node253650 -->
<g id="node27" class="node">
<title>Node253650</title>
<g id="a_node27"><a xlink:href="quickjs_8c.html#a0da6493b4bc0edb7ddddfab807241d0b" target="_top" xlink:title="js_json_check">
<polygon fill="none" stroke="#ff0000" points="420,-.5 420,-19.5 499,-19.5 499,-.5 420,-.5"/>
<text text-anchor="middle" x="459.5" y="-7.5" font-family="Helvetica,sans-Serif" font-size="10.00" fill="#000000">js_json_check</text>
</a>
</g>
</g>
<!-- Node253598&#45;&gt;Node253650 -->
<g id="edge32" class="edge">
<title>Node253598&#45;&gt;Node253650</title>
<path fill="none" stroke="#191970" d="M315.8906,-372.8868C330.4819,-362.9251 347.6158,-348.4983 357,-331 420.8847,-211.8768 305.3449,-131.8989 393,-29 399.774,-21.0479 409.6242,-16.3064 419.6773,-13.5117"/>
<polygon fill="#191970" stroke="#191970" points="313.7158,-370.1253 307.226,-378.4999 317.5217,-376.0003 313.7158,-370.1253"/>
</g>
<!-- Node253654 -->
<g id="node28" class="node">
<title>Node253654</title>
<g id="a_node28"><a xlink:href="quickjs_8c.html#af97646b66d6fcb8bd19543d93baeadd7" target="_top" xlink:title="js_proxy_call_constructor">
<polygon fill="none" stroke="#ff0000" points="395.5,-452.5 395.5,-471.5 523.5,-471.5 523.5,-452.5 395.5,-452.5"/>
<text text-anchor="middle" x="459.5" y="-459.5" font-family="Helvetica,sans-Serif" font-size="10.00" fill="#000000">js_proxy_call_constructor</text>
</a>
</g>
</g>
<!-- Node253598&#45;&gt;Node253654 -->
<g id="edge33" class="edge">
<title>Node253598&#45;&gt;Node253654</title>
<path fill="none" stroke="#191970" d="M314.2006,-402.8192C334.6373,-414.8649 364.9699,-431.6618 393,-443 401.7935,-446.557 411.4925,-449.728 420.7008,-452.4125"/>
<polygon fill="#191970" stroke="#191970" points="315.9314,-399.7763 305.551,-397.6557 312.3434,-405.7868 315.9314,-399.7763"/>
</g>
<!-- Node253631&#45;&gt;Node253585 -->
<g id="edge13" class="edge">
<title>Node253631&#45;&gt;Node253585</title>
<path fill="none" stroke="#191970" d="M400.3504,-787.9188C397.7708,-786.4399 395.3033,-784.8058 393,-783 237.296,-660.927 162.3658,-411.8041 148.0642,-359.6903"/>
<polygon fill="#191970" stroke="#191970" points="398.9552,-791.1323 409.4772,-792.3721 402.0249,-784.8413 398.9552,-791.1323"/>
</g>
<!-- Node253639&#45;&gt;Node253585 -->
<g id="edge21" class="edge">
<title>Node253639&#45;&gt;Node253585</title>
<path fill="none" stroke="#191970" d="M403.9527,-96.201C399.8686,-98.572 396.131,-101.4676 393,-105 325.5344,-181.1149 431.3365,-261.5798 357,-331 311.3292,-373.6503 233.4173,-368.1517 185.9801,-359.5664"/>
<polygon fill="#191970" stroke="#191970" points="405.7723,-99.2138 413.3458,-91.8047 402.805,-92.8738 405.7723,-99.2138"/>
</g>
<!-- Node253645&#45;&gt;Node253645 -->
<g id="edge28" class="edge">
<title>Node253645&#45;&gt;Node253645</title>
<path fill="none" stroke="#191970" d="M428.0629,-574.2746C428.9592,-579.741 439.4382,-584 459.5,-584 489.3594,-584 497.9906,-574.5653 485.3937,-565.7571"/>
<polygon fill="#191970" stroke="#191970" points="431.085,-576.0475 433.6063,-565.7571 425.2181,-572.2291 431.085,-576.0475"/>
</g>
<!-- Node253648&#45;&gt;Node253648 -->
<g id="edge31" class="edge">
<title>Node253648&#45;&gt;Node253648</title>
<path fill="none" stroke="#191970" d="M428.0629,-518.2746C428.9592,-523.741 439.4382,-528 459.5,-528 489.3594,-528 497.9906,-518.5653 485.3937,-509.7571"/>
<polygon fill="#191970" stroke="#191970" points="431.085,-520.0475 433.6063,-509.7571 425.2181,-516.2291 431.085,-520.0475"/>
</g>
<!-- Node253672&#45;&gt;Node253585 -->
<g id="edge35" class="edge">
<title>Node253672&#45;&gt;Node253585</title>
<path fill="none" stroke="#191970" d="M265.6333,-286.6763C252.5753,-290.7533 236.4528,-295.4145 223,-302 201.3984,-312.5746 179.5771,-329.288 164.6182,-340.2863"/>
<polygon fill="#191970" stroke="#191970" points="266.9199,-289.9381 275.3391,-283.5063 264.7466,-283.284 266.9199,-289.9381"/>
</g>
<!-- Node253686&#45;&gt;Node253585 -->
<g id="edge37" class="edge">
<title>Node253686&#45;&gt;Node253585</title>
<path fill="none" stroke="#191970" d="M261.7961,-324.8979C240.5982,-331.8825 211.2201,-339.8432 187.2954,-345.1948"/>
<polygon fill="#191970" stroke="#191970" points="263.1689,-328.127 271.4855,-321.5632 260.8909,-321.508 263.1689,-328.127"/>
</g>
<!-- Node253686&#45;&gt;Node253647 -->
<g id="edge39" class="edge">
<title>Node253686&#45;&gt;Node253647</title>
<path fill="none" stroke="#191970" d="M335.4133,-306.6486C343.5737,-303.7571 351.2871,-299.4326 357,-293 424.5406,-216.9517 325.5344,-143.1149 393,-67 398.6547,-60.6203 406.288,-56.3179 414.3674,-53.4312"/>
<polygon fill="#191970" stroke="#191970" points="334.3708,-303.3063 325.7214,-309.425 336.2986,-310.0357 334.3708,-303.3063"/>
</g>
<!-- Node253686&#45;&gt;Node253650 -->
<g id="edge38" class="edge">
<title>Node253686&#45;&gt;Node253650</title>
<path fill="none" stroke="#191970" d="M335.5267,-306.7482C343.6784,-303.8491 351.3596,-299.4962 357,-293 434.6376,-203.5823 315.4507,-118.4942 393,-29 399.8409,-21.1054 409.7125,-16.3823 419.7647,-13.5868"/>
<polygon fill="#191970" stroke="#191970" points="334.4844,-303.4059 325.8353,-309.525 336.4125,-310.1351 334.4844,-303.4059"/>
</g>
</g>
</svg>
