<?xml version="1.0" encoding="UTF-8" standalone="no"?>
<!DOCTYPE svg PUBLIC "-//W3C//DTD SVG 1.1//EN"
 "http://www.w3.org/Graphics/SVG/1.1/DTD/svg11.dtd">
<!-- Generated by graphviz version 2.40.1 (20161225.0304)
 -->
<!-- Title: emit_atom Pages: 1 -->
<svg width="409pt" height="66pt"
 viewBox="0.00 0.00 409.00 66.00" xmlns="http://www.w3.org/2000/svg" xmlns:xlink="http://www.w3.org/1999/xlink">
<g id="graph0" class="graph" transform="scale(1 1) rotate(0) translate(4 62)">
<title>emit_atom</title>
<!-- Node298762 -->
<g id="node1" class="node">
<title>Node298762</title>
<polygon fill="#bfbfbf" stroke="#000000" points="0,-19.5 0,-38.5 62,-38.5 62,-19.5 0,-19.5"/>
<text text-anchor="middle" x="31" y="-26.5" font-family="Helvetica,sans-Serif" font-size="10.00" fill="#000000">emit_atom</text>
</g>
<!-- Node298763 -->
<g id="node2" class="node">
<title>Node298763</title>
<g id="a_node2"><a xlink:href="quickjs_8c.html#aa4ce3850b0d5830d9a617fbbdaddfa79" target="_top" xlink:title="emit_u32">
<polygon fill="none" stroke="#000000" points="107.5,-38.5 107.5,-57.5 163.5,-57.5 163.5,-38.5 107.5,-38.5"/>
<text text-anchor="middle" x="135.5" y="-45.5" font-family="Helvetica,sans-Serif" font-size="10.00" fill="#000000">emit_u32</text>
</a>
</g>
</g>
<!-- Node298762&#45;&gt;Node298763 -->
<g id="edge1" class="edge">
<title>Node298762&#45;&gt;Node298763</title>
<path fill="none" stroke="#191970" d="M62.0705,-34.6492C73.1453,-36.6628 85.7482,-38.9542 97.3489,-41.0634"/>
<polygon fill="#191970" stroke="#191970" points="96.757,-44.5131 107.2219,-42.8585 98.0093,-37.626 96.757,-44.5131"/>
</g>
<!-- Node298767 -->
<g id="node5" class="node">
<title>Node298767</title>
<g id="a_node5"><a xlink:href="quickjs_8c.html#abbf44eaeace1104a6bef718fbf5700fe" target="_top" xlink:title="JS_DupAtom">
<polygon fill="none" stroke="#000000" points="98,-.5 98,-19.5 173,-19.5 173,-.5 98,-.5"/>
<text text-anchor="middle" x="135.5" y="-7.5" font-family="Helvetica,sans-Serif" font-size="10.00" fill="#000000">JS_DupAtom</text>
</a>
</g>
</g>
<!-- Node298762&#45;&gt;Node298767 -->
<g id="edge4" class="edge">
<title>Node298762&#45;&gt;Node298767</title>
<path fill="none" stroke="#191970" d="M62.0705,-23.3508C70.1136,-21.8884 78.9627,-20.2795 87.6486,-18.7003"/>
<polygon fill="#191970" stroke="#191970" points="88.4994,-22.103 97.7119,-16.8706 87.2471,-15.2159 88.4994,-22.103"/>
</g>
<!-- Node298764 -->
<g id="node3" class="node">
<title>Node298764</title>
<g id="a_node3"><a xlink:href="cutils_8h.html#a8ba08f82c43549fcb3c939229498354d" target="_top" xlink:title="dbuf_put_u32">
<polygon fill="none" stroke="#000000" points="222.5,-38.5 222.5,-57.5 297.5,-57.5 297.5,-38.5 222.5,-38.5"/>
<text text-anchor="middle" x="260" y="-45.5" font-family="Helvetica,sans-Serif" font-size="10.00" fill="#000000">dbuf_put_u32</text>
</a>
</g>
</g>
<!-- Node298763&#45;&gt;Node298764 -->
<g id="edge2" class="edge">
<title>Node298763&#45;&gt;Node298764</title>
<path fill="none" stroke="#191970" d="M163.751,-48C177.9932,-48 195.6605,-48 211.9559,-48"/>
<polygon fill="#191970" stroke="#191970" points="212.4164,-51.5001 222.4163,-48 212.4163,-44.5001 212.4164,-51.5001"/>
</g>
<!-- Node298765 -->
<g id="node4" class="node">
<title>Node298765</title>
<g id="a_node4"><a xlink:href="cutils_8h.html#ad1cfaae47347ae771136b5a9bbda49aa" target="_top" xlink:title="dbuf_put">
<polygon fill="none" stroke="#ff0000" points="347,-38.5 347,-57.5 401,-57.5 401,-38.5 347,-38.5"/>
<text text-anchor="middle" x="374" y="-45.5" font-family="Helvetica,sans-Serif" font-size="10.00" fill="#000000">dbuf_put</text>
</a>
</g>
</g>
<!-- Node298764&#45;&gt;Node298765 -->
<g id="edge3" class="edge">
<title>Node298764&#45;&gt;Node298765</title>
<path fill="none" stroke="#191970" d="M297.6438,-48C310.2094,-48 324.1992,-48 336.7358,-48"/>
<polygon fill="#191970" stroke="#191970" points="336.8616,-51.5001 346.8616,-48 336.8616,-44.5001 336.8616,-51.5001"/>
</g>
<!-- Node298768 -->
<g id="node6" class="node">
<title>Node298768</title>
<g id="a_node6"><a xlink:href="quickjs_8c.html#a7f6796ee7a195631366f57c713a33f65" target="_top" xlink:title="__JS_AtomIsConst">
<polygon fill="none" stroke="#000000" points="209,-.5 209,-19.5 311,-19.5 311,-.5 209,-.5"/>
<text text-anchor="middle" x="260" y="-7.5" font-family="Helvetica,sans-Serif" font-size="10.00" fill="#000000">__JS_AtomIsConst</text>
</a>
</g>
</g>
<!-- Node298767&#45;&gt;Node298768 -->
<g id="edge5" class="edge">
<title>Node298767&#45;&gt;Node298768</title>
<path fill="none" stroke="#191970" d="M173.192,-10C181.2167,-10 189.8899,-10 198.5426,-10"/>
<polygon fill="#191970" stroke="#191970" points="198.6508,-13.5001 208.6507,-10 198.6507,-6.5001 198.6508,-13.5001"/>
</g>
</g>
</svg>
