<?xml version="1.0" encoding="UTF-8" standalone="no"?>
<!DOCTYPE svg PUBLIC "-//W3C//DTD SVG 1.1//EN"
 "http://www.w3.org/Graphics/SVG/1.1/DTD/svg11.dtd">
<!-- Generated by graphviz version 2.40.1 (20161225.0304)
 -->
<!-- Title: JS_ToPropertyKey Pages: 1 -->
<svg width="898pt" height="908pt"
 viewBox="0.00 0.00 898.00 908.44" xmlns="http://www.w3.org/2000/svg" xmlns:xlink="http://www.w3.org/1999/xlink">
<g id="graph0" class="graph" transform="scale(1 1) rotate(0) translate(4 904.4359)">
<title>JS_ToPropertyKey</title>
<!-- Node245226 -->
<g id="node1" class="node">
<title>Node245226</title>
<polygon fill="#bfbfbf" stroke="#000000" points="0,-658.5 0,-677.5 99,-677.5 99,-658.5 0,-658.5"/>
<text text-anchor="middle" x="49.5" y="-665.5" font-family="Helvetica,sans-Serif" font-size="10.00" fill="#000000">JS_ToPropertyKey</text>
</g>
<!-- Node245227 -->
<g id="node2" class="node">
<title>Node245227</title>
<g id="a_node2"><a xlink:href="quickjs_8c.html#ac2894ff4edcdb4e6841bcce9c76081e3" target="_top" xlink:title="JS_CallInternal">
<polygon fill="none" stroke="#000000" points="463.5,-639.5 463.5,-658.5 546.5,-658.5 546.5,-639.5 463.5,-639.5"/>
<text text-anchor="middle" x="505" y="-646.5" font-family="Helvetica,sans-Serif" font-size="10.00" fill="#000000">JS_CallInternal</text>
</a>
</g>
</g>
<!-- Node245226&#45;&gt;Node245227 -->
<g id="edge1" class="edge">
<title>Node245226&#45;&gt;Node245227</title>
<path fill="none" stroke="#191970" d="M64.4926,-685.2317C117.0575,-743.555 296.7936,-925.2074 426,-839 489.8907,-796.3717 502.1867,-691.3315 504.4864,-658.7792"/>
<polygon fill="#191970" stroke="#191970" points="66.9404,-682.7172 57.681,-677.568 61.7083,-687.3676 66.9404,-682.7172"/>
</g>
<!-- Node245808 -->
<g id="node10" class="node">
<title>Node245808</title>
<g id="a_node10"><a xlink:href="quickjs_8c.html#a859d5c989a2aaecef1653b3ac279e108" target="_top" xlink:title="JS_ValueToAtom">
<polygon fill="none" stroke="#000000" points="135,-449.5 135,-468.5 228,-468.5 228,-449.5 135,-449.5"/>
<text text-anchor="middle" x="181.5" y="-456.5" font-family="Helvetica,sans-Serif" font-size="10.00" fill="#000000">JS_ValueToAtom</text>
</a>
</g>
</g>
<!-- Node245226&#45;&gt;Node245808 -->
<g id="edge13" class="edge">
<title>Node245226&#45;&gt;Node245808</title>
<path fill="none" stroke="#191970" d="M60.9154,-649.9257C87.9116,-607.1816 154.9525,-501.0335 175.4499,-468.5793"/>
<polygon fill="#191970" stroke="#191970" points="57.8955,-648.1527 55.5148,-658.4766 63.814,-651.8907 57.8955,-648.1527"/>
</g>
<!-- Node245227&#45;&gt;Node245227 -->
<g id="edge12" class="edge">
<title>Node245227&#45;&gt;Node245227</title>
<path fill="none" stroke="#191970" d="M477.7475,-667.6539C478.8867,-672.9368 487.9708,-677 505,-677 530.9492,-677 538.4502,-667.5653 527.5028,-658.7571"/>
<polygon fill="#191970" stroke="#191970" points="480.8752,-669.227 482.4972,-658.7571 474.7001,-665.9303 480.8752,-669.227"/>
</g>
<!-- Node245228 -->
<g id="node3" class="node">
<title>Node245228</title>
<g id="a_node3"><a xlink:href="quickjs_8c.html#ade71a22dc56e7371392393df663b28b3" target="_top" xlink:title="async_func_resume">
<polygon fill="none" stroke="#ff0000" points="599,-677.5 599,-696.5 703,-696.5 703,-677.5 599,-677.5"/>
<text text-anchor="middle" x="651" y="-684.5" font-family="Helvetica,sans-Serif" font-size="10.00" fill="#000000">async_func_resume</text>
</a>
</g>
</g>
<!-- Node245227&#45;&gt;Node245228 -->
<g id="edge2" class="edge">
<title>Node245227&#45;&gt;Node245228</title>
<path fill="none" stroke="#191970" d="M551.536,-661.1121C571.8696,-666.4044 595.3713,-672.5213 614.423,-677.4799"/>
<polygon fill="#191970" stroke="#191970" points="552.4012,-657.7207 541.842,-658.589 550.6379,-664.4951 552.4012,-657.7207"/>
</g>
<!-- Node245240 -->
<g id="node5" class="node">
<title>Node245240</title>
<g id="a_node5"><a xlink:href="quickjs_8c.html#a1a4c02a29525d5cb2085dd8bca3af350" target="_top" xlink:title="JS_Call">
<polygon fill="none" stroke="#ff0000" points="625.5,-601.5 625.5,-620.5 676.5,-620.5 676.5,-601.5 625.5,-601.5"/>
<text text-anchor="middle" x="651" y="-608.5" font-family="Helvetica,sans-Serif" font-size="10.00" fill="#000000">JS_Call</text>
</a>
</g>
</g>
<!-- Node245227&#45;&gt;Node245240 -->
<g id="edge4" class="edge">
<title>Node245227&#45;&gt;Node245240</title>
<path fill="none" stroke="#191970" d="M533.328,-636.1571C560.0192,-627.4416 599.655,-617.1893 625.4121,-612.3814"/>
<polygon fill="#191970" stroke="#191970" points="532.1249,-632.8694 523.7881,-639.4076 534.3825,-639.4954 532.1249,-632.8694"/>
</g>
<!-- Node245314 -->
<g id="node7" class="node">
<title>Node245314</title>
<g id="a_node7"><a xlink:href="quickjs_8c.html#ad35594576a14c10812efaf958c99af8a" target="_top" xlink:title="JS_CallConstructorInternal">
<polygon fill="none" stroke="#ff0000" points="584,-639.5 584,-658.5 718,-658.5 718,-639.5 584,-639.5"/>
<text text-anchor="middle" x="651" y="-646.5" font-family="Helvetica,sans-Serif" font-size="10.00" fill="#000000">JS_CallConstructorInternal</text>
</a>
</g>
</g>
<!-- Node245227&#45;&gt;Node245314 -->
<g id="edge7" class="edge">
<title>Node245227&#45;&gt;Node245314</title>
<path fill="none" stroke="#191970" d="M556.8481,-642.5084C565.577,-642.2895 574.7474,-642.2097 583.7982,-642.269"/>
<polygon fill="#191970" stroke="#191970" points="556.7204,-639.0106 546.8377,-642.8294 556.9448,-646.007 556.7204,-639.0106"/>
</g>
<!-- Node245328 -->
<g id="node8" class="node">
<title>Node245328</title>
<g id="a_node8"><a xlink:href="quickjs_8c.html#a75f6ee5e4235a7dc99889f3d2eb2c147" target="_top" xlink:title="JS_CallFree">
<polygon fill="none" stroke="#ff0000" points="615.5,-715.5 615.5,-734.5 686.5,-734.5 686.5,-715.5 615.5,-715.5"/>
<text text-anchor="middle" x="651" y="-722.5" font-family="Helvetica,sans-Serif" font-size="10.00" fill="#000000">JS_CallFree</text>
</a>
</g>
</g>
<!-- Node245227&#45;&gt;Node245328 -->
<g id="edge9" class="edge">
<title>Node245227&#45;&gt;Node245328</title>
<path fill="none" stroke="#191970" d="M533.0029,-664.8074C547.4623,-675.2464 565.8455,-688.2152 584,-697 601.0869,-705.2682 622.4153,-710.5411 636.3561,-715.4588"/>
<polygon fill="#191970" stroke="#191970" points="534.6992,-661.715 524.544,-658.6946 530.5992,-667.3886 534.6992,-661.715"/>
</g>
<!-- Node245229 -->
<g id="node4" class="node">
<title>Node245229</title>
<g id="a_node4"><a xlink:href="quickjs_8c.html#ac90552b1f1659acb3dae9a4c62479a30" target="_top" xlink:title="js_generator_function_call">
<polygon fill="none" stroke="#ff0000" points="757,-677.5 757,-696.5 887,-696.5 887,-677.5 757,-677.5"/>
<text text-anchor="middle" x="822" y="-684.5" font-family="Helvetica,sans-Serif" font-size="10.00" fill="#000000">js_generator_function_call</text>
</a>
</g>
</g>
<!-- Node245228&#45;&gt;Node245229 -->
<g id="edge3" class="edge">
<title>Node245228&#45;&gt;Node245229</title>
<path fill="none" stroke="#191970" d="M713.3438,-687C727.4823,-687 742.5344,-687 756.7881,-687"/>
<polygon fill="#191970" stroke="#191970" points="713.2348,-683.5001 703.2348,-687 713.2348,-690.5001 713.2348,-683.5001"/>
</g>
<!-- Node245240&#45;&gt;Node245227 -->
<g id="edge5" class="edge">
<title>Node245240&#45;&gt;Node245227</title>
<path fill="none" stroke="#191970" d="M622.6436,-623.8521C601.0995,-630.8854 571.1338,-638.9177 546.8377,-644.2814"/>
<polygon fill="#191970" stroke="#191970" points="623.8525,-627.1379 632.1898,-620.6003 621.5954,-620.5118 623.8525,-627.1379"/>
</g>
<!-- Node245279 -->
<g id="node6" class="node">
<title>Node245279</title>
<g id="a_node6"><a xlink:href="quickjs_8c.html#a6357b7fdae71c70c140e78e6c20cb5c2" target="_top" xlink:title="js_dynamic_import_job">
<polygon fill="none" stroke="#ff0000" points="764,-544.5 764,-563.5 880,-563.5 880,-544.5 764,-544.5"/>
<text text-anchor="middle" x="822" y="-551.5" font-family="Helvetica,sans-Serif" font-size="10.00" fill="#000000">js_dynamic_import_job</text>
</a>
</g>
</g>
<!-- Node245240&#45;&gt;Node245279 -->
<g id="edge6" class="edge">
<title>Node245240&#45;&gt;Node245279</title>
<path fill="none" stroke="#191970" d="M686.349,-599.217C718.0324,-588.6559 763.9272,-573.3576 793.3664,-563.5445"/>
<polygon fill="#191970" stroke="#191970" points="684.9804,-595.9838 676.6004,-602.4665 687.1941,-602.6246 684.9804,-595.9838"/>
</g>
<!-- Node245314&#45;&gt;Node245227 -->
<g id="edge8" class="edge">
<title>Node245314&#45;&gt;Node245227</title>
<path fill="none" stroke="#191970" d="M573.7429,-655.7398C564.4833,-655.6953 555.3154,-655.5056 546.8377,-655.1706"/>
<polygon fill="#191970" stroke="#191970" points="573.8013,-659.2398 583.7982,-655.731 573.7951,-652.2398 573.8013,-659.2398"/>
</g>
<!-- Node245328&#45;&gt;Node245227 -->
<g id="edge10" class="edge">
<title>Node245328&#45;&gt;Node245227</title>
<path fill="none" stroke="#191970" d="M605.717,-723.3634C598.2951,-721.1153 590.8106,-718.2956 584,-715 553.5521,-700.2666 522.4613,-673.7641 510.316,-658.5827"/>
<polygon fill="#191970" stroke="#191970" points="604.8085,-726.7434 615.3759,-725.9815 606.6399,-719.9872 604.8085,-726.7434"/>
</g>
<!-- Node245496 -->
<g id="node9" class="node">
<title>Node245496</title>
<g id="a_node9"><a xlink:href="quickjs_8c.html#a438b354d69a8f0674195b0cdc19dd686" target="_top" xlink:title="js_proxy_get_own_property\l_names">
<polygon fill="none" stroke="#000000" points="754,-789 754,-819 890,-819 890,-789 754,-789"/>
<text text-anchor="start" x="762" y="-807" font-family="Helvetica,sans-Serif" font-size="10.00" fill="#000000">js_proxy_get_own_property</text>
<text text-anchor="middle" x="822" y="-796" font-family="Helvetica,sans-Serif" font-size="10.00" fill="#000000">_names</text>
</a>
</g>
</g>
<!-- Node245328&#45;&gt;Node245496 -->
<g id="edge11" class="edge">
<title>Node245328&#45;&gt;Node245496</title>
<path fill="none" stroke="#191970" d="M680.8498,-738.7903C711.1691,-752.7974 757.9961,-774.431 789.302,-788.8939"/>
<polygon fill="#191970" stroke="#191970" points="682.1725,-735.5459 671.6266,-734.5292 679.2367,-741.9006 682.1725,-735.5459"/>
</g>
<!-- Node245808&#45;&gt;Node245227 -->
<g id="edge14" class="edge">
<title>Node245808&#45;&gt;Node245227</title>
<path fill="none" stroke="#191970" d="M184.571,-478.7375C193.7881,-535.1364 223.1228,-694.88 264,-725 321.964,-767.7103 359.2172,-751.9083 426,-725 459.7164,-711.4149 487.0974,-675.7955 498.8282,-658.5833"/>
<polygon fill="#191970" stroke="#191970" points="187.9898,-477.9509 182.9553,-468.6287 181.0775,-479.0558 187.9898,-477.9509"/>
</g>
<!-- Node245808&#45;&gt;Node245279 -->
<g id="edge20" class="edge">
<title>Node245808&#45;&gt;Node245279</title>
<path fill="none" stroke="#191970" d="M238.2403,-467.4158C359.2437,-485.3632 641.5481,-527.2351 763.8196,-545.3706"/>
<polygon fill="#191970" stroke="#191970" points="238.4844,-463.9138 228.0791,-465.9087 237.4574,-470.8381 238.4844,-463.9138"/>
</g>
<!-- Node245808&#45;&gt;Node245496 -->
<g id="edge37" class="edge">
<title>Node245808&#45;&gt;Node245496</title>
<path fill="none" stroke="#191970" d="M182.665,-479.1738C187.2757,-551.0711 206.8716,-792.9436 264,-839 423.0677,-967.2389 697.819,-860.9207 790.4596,-819.0769"/>
<polygon fill="#191970" stroke="#191970" points="186.1351,-478.577 182.0303,-468.8097 179.1482,-479.0049 186.1351,-478.577"/>
</g>
<!-- Node245675 -->
<g id="node11" class="node">
<title>Node245675</title>
<g id="a_node11"><a xlink:href="quickjs_8c.html#a4da0393f32562bb05dff7ef63fff68f9" target="_top" xlink:title="js_date_Symbol_toPrimitive">
<polygon fill="none" stroke="#000000" points="276,-430.5 276,-449.5 414,-449.5 414,-430.5 276,-430.5"/>
<text text-anchor="middle" x="345" y="-437.5" font-family="Helvetica,sans-Serif" font-size="10.00" fill="#000000">js_date_Symbol_toPrimitive</text>
</a>
</g>
</g>
<!-- Node245808&#45;&gt;Node245675 -->
<g id="edge15" class="edge">
<title>Node245808&#45;&gt;Node245675</title>
<path fill="none" stroke="#191970" d="M238.3185,-452.3972C250.4409,-450.9885 263.3721,-449.4858 275.8973,-448.0303"/>
<polygon fill="#191970" stroke="#191970" points="237.8817,-448.9244 228.3525,-453.5554 238.6897,-455.8776 237.8817,-448.9244"/>
</g>
<!-- Node245433 -->
<g id="node12" class="node">
<title>Node245433</title>
<g id="a_node12"><a xlink:href="quickjs_8c.html#a116b8bb41915b573650c477a55d8e46d" target="_top" xlink:title="JS_DefineObjectNameComputed">
<polygon fill="none" stroke="#ff0000" points="264,-696.5 264,-715.5 426,-715.5 426,-696.5 264,-696.5"/>
<text text-anchor="middle" x="345" y="-703.5" font-family="Helvetica,sans-Serif" font-size="10.00" fill="#000000">JS_DefineObjectNameComputed</text>
</a>
</g>
</g>
<!-- Node245808&#45;&gt;Node245433 -->
<g id="edge16" class="edge">
<title>Node245808&#45;&gt;Node245433</title>
<path fill="none" stroke="#191970" d="M182.5574,-478.5641C186.0446,-522.7742 200.9253,-630.8924 264,-687 268.3169,-690.8401 273.2623,-693.944 278.5344,-696.448"/>
<polygon fill="#191970" stroke="#191970" points="186.0469,-478.2896 181.8814,-468.548 179.0628,-478.761 186.0469,-478.2896"/>
</g>
<!-- Node245444 -->
<g id="node13" class="node">
<title>Node245444</title>
<g id="a_node13"><a xlink:href="quickjs_8c.html#a0c61bd5a64c743e81188bb528b78e715" target="_top" xlink:title="JS_DefinePropertyValueValue">
<polygon fill="none" stroke="#ff0000" points="270.5,-658.5 270.5,-677.5 419.5,-677.5 419.5,-658.5 270.5,-658.5"/>
<text text-anchor="middle" x="345" y="-665.5" font-family="Helvetica,sans-Serif" font-size="10.00" fill="#000000">JS_DefinePropertyValueValue</text>
</a>
</g>
</g>
<!-- Node245808&#45;&gt;Node245444 -->
<g id="edge18" class="edge">
<title>Node245808&#45;&gt;Node245444</title>
<path fill="none" stroke="#191970" d="M184.1742,-478.7014C190.5271,-517.5396 210.2377,-604.1034 264,-649 268.5456,-652.796 273.7128,-655.8634 279.1859,-658.3383"/>
<polygon fill="#191970" stroke="#191970" points="187.6152,-478.0475 182.6634,-468.6811 180.6934,-479.0912 187.6152,-478.0475"/>
</g>
<!-- Node245522 -->
<g id="node14" class="node">
<title>Node245522</title>
<g id="a_node14"><a xlink:href="quickjs_8c.html#a90d6e607f6917d817c1e997bd2e6ed07" target="_top" xlink:title="JS_GetPropertyValue">
<polygon fill="none" stroke="#ff0000" points="289.5,-620.5 289.5,-639.5 400.5,-639.5 400.5,-620.5 289.5,-620.5"/>
<text text-anchor="middle" x="345" y="-627.5" font-family="Helvetica,sans-Serif" font-size="10.00" fill="#000000">JS_GetPropertyValue</text>
</a>
</g>
</g>
<!-- Node245808&#45;&gt;Node245522 -->
<g id="edge21" class="edge">
<title>Node245808&#45;&gt;Node245522</title>
<path fill="none" stroke="#191970" d="M186.4065,-478.3448C195.7267,-510.9892 219.1843,-576.7918 264,-611 271.463,-616.6966 280.3582,-620.7253 289.4771,-623.5658"/>
<polygon fill="#191970" stroke="#191970" points="189.7702,-477.3758 183.7773,-468.6388 183.0137,-479.2061 189.7702,-477.3758"/>
</g>
<!-- Node245785 -->
<g id="node15" class="node">
<title>Node245785</title>
<g id="a_node15"><a xlink:href="quickjs_8c.html#ad47910027b4f50d5ff3239df19de556d" target="_top" xlink:title="js_object___defineGetter__">
<polygon fill="none" stroke="#000000" points="277.5,-392.5 277.5,-411.5 412.5,-411.5 412.5,-392.5 277.5,-392.5"/>
<text text-anchor="middle" x="345" y="-399.5" font-family="Helvetica,sans-Serif" font-size="10.00" fill="#000000">js_object___defineGetter__</text>
</a>
</g>
</g>
<!-- Node245808&#45;&gt;Node245785 -->
<g id="edge23" class="edge">
<title>Node245808&#45;&gt;Node245785</title>
<path fill="none" stroke="#191970" d="M208.6077,-444.8337C224.4372,-436.9906 244.9811,-427.5362 264,-421 274.5182,-417.3852 286.0371,-414.2261 297.0031,-411.5754"/>
<polygon fill="#191970" stroke="#191970" points="206.7698,-441.8407 199.4166,-449.4684 209.9216,-448.091 206.7698,-441.8407"/>
</g>
<!-- Node245509 -->
<g id="node16" class="node">
<title>Node245509</title>
<g id="a_node16"><a xlink:href="quickjs_8c.html#a26abea9136a3d8e9a861aefb51626b4e" target="_top" xlink:title="js_object___lookupGetter__">
<polygon fill="none" stroke="#000000" points="276.5,-354.5 276.5,-373.5 413.5,-373.5 413.5,-354.5 276.5,-354.5"/>
<text text-anchor="middle" x="345" y="-361.5" font-family="Helvetica,sans-Serif" font-size="10.00" fill="#000000">js_object___lookupGetter__</text>
</a>
</g>
</g>
<!-- Node245808&#45;&gt;Node245509 -->
<g id="edge24" class="edge">
<title>Node245808&#45;&gt;Node245509</title>
<path fill="none" stroke="#191970" d="M195.5487,-441.619C210.6311,-424.1417 236.201,-397.7352 264,-383 271.2744,-379.1441 279.3251,-376.0633 287.4457,-373.6037"/>
<polygon fill="#191970" stroke="#191970" points="192.7729,-439.482 189.0233,-449.3912 198.1339,-443.9831 192.7729,-439.482"/>
</g>
<!-- Node245375 -->
<g id="node17" class="node">
<title>Node245375</title>
<g id="a_node17"><a xlink:href="quickjs_8c.html#aca3b864ab833c3c9034cee730e49cedb" target="_top" xlink:title="js_object_defineProperty">
<polygon fill="none" stroke="#000000" points="283,-316.5 283,-335.5 407,-335.5 407,-316.5 283,-316.5"/>
<text text-anchor="middle" x="345" y="-323.5" font-family="Helvetica,sans-Serif" font-size="10.00" fill="#000000">js_object_defineProperty</text>
</a>
</g>
</g>
<!-- Node245808&#45;&gt;Node245375 -->
<g id="edge25" class="edge">
<title>Node245808&#45;&gt;Node245375</title>
<path fill="none" stroke="#191970" d="M189.8438,-440.1714C202.217,-414.5153 227.9147,-369.0242 264,-345 269.7712,-341.1578 276.2258,-338.0884 282.9048,-335.6371"/>
<polygon fill="#191970" stroke="#191970" points="186.6683,-438.6997 185.6277,-449.2434 193.0162,-441.65 186.6683,-438.6997"/>
</g>
<!-- Node245510 -->
<g id="node18" class="node">
<title>Node245510</title>
<g id="a_node18"><a xlink:href="quickjs_8c.html#a5f75fb513884286c86db6863663f262a" target="_top" xlink:title="js_object_getOwnProperty\lDescriptor">
<polygon fill="none" stroke="#ff0000" points="279.5,-267 279.5,-297 410.5,-297 410.5,-267 279.5,-267"/>
<text text-anchor="start" x="287.5" y="-285" font-family="Helvetica,sans-Serif" font-size="10.00" fill="#000000">js_object_getOwnProperty</text>
<text text-anchor="middle" x="345" y="-274" font-family="Helvetica,sans-Serif" font-size="10.00" fill="#000000">Descriptor</text>
</a>
</g>
</g>
<!-- Node245808&#45;&gt;Node245510 -->
<g id="edge26" class="edge">
<title>Node245808&#45;&gt;Node245510</title>
<path fill="none" stroke="#191970" d="M186.8038,-439.5162C196.5998,-407.2013 220.5989,-342.562 264,-307 268.6673,-303.1757 273.9173,-299.9351 279.4436,-297.1894"/>
<polygon fill="#191970" stroke="#191970" points="183.4345,-438.5686 184.0186,-449.1473 190.1589,-440.5133 183.4345,-438.5686"/>
</g>
<!-- Node245511 -->
<g id="node19" class="node">
<title>Node245511</title>
<g id="a_node19"><a xlink:href="quickjs_8c.html#ad61ef444b51b69a8a4cb9e3cac990c8d" target="_top" xlink:title="js_object_hasOwnProperty">
<polygon fill="none" stroke="#000000" points="278,-228.5 278,-247.5 412,-247.5 412,-228.5 278,-228.5"/>
<text text-anchor="middle" x="345" y="-235.5" font-family="Helvetica,sans-Serif" font-size="10.00" fill="#000000">js_object_hasOwnProperty</text>
</a>
</g>
</g>
<!-- Node245808&#45;&gt;Node245511 -->
<g id="edge27" class="edge">
<title>Node245808&#45;&gt;Node245511</title>
<path fill="none" stroke="#191970" d="M183.6223,-439.1842C189.0744,-398.5044 207.3845,-305.3416 264,-257 268.5037,-253.1545 273.6425,-250.0534 279.0974,-247.5569"/>
<polygon fill="#191970" stroke="#191970" points="180.139,-438.8355 182.4044,-449.1853 187.0877,-439.6818 180.139,-438.8355"/>
</g>
<!-- Node245512 -->
<g id="node20" class="node">
<title>Node245512</title>
<g id="a_node20"><a xlink:href="quickjs_8c.html#acc70b8dea6a26f839c651835b7104c92" target="_top" xlink:title="js_object_propertyIsEnumerable">
<polygon fill="none" stroke="#000000" points="267,-190.5 267,-209.5 423,-209.5 423,-190.5 267,-190.5"/>
<text text-anchor="middle" x="345" y="-197.5" font-family="Helvetica,sans-Serif" font-size="10.00" fill="#000000">js_object_propertyIsEnumerable</text>
</a>
</g>
</g>
<!-- Node245808&#45;&gt;Node245512 -->
<g id="edge28" class="edge">
<title>Node245808&#45;&gt;Node245512</title>
<path fill="none" stroke="#191970" d="M185.6447,-439.5659C197.0174,-388.0118 230.1254,-249.6246 264,-219 268.1787,-215.2222 272.9641,-212.1545 278.0744,-209.6682"/>
<polygon fill="#191970" stroke="#191970" points="182.2035,-438.9198 183.5006,-449.4349 189.0439,-440.4059 182.2035,-438.9198"/>
</g>
<!-- Node245783 -->
<g id="node21" class="node">
<title>Node245783</title>
<g id="a_node21"><a xlink:href="quickjs_8c.html#a9b6302f1a5bc5d5d8f1951777433e516" target="_top" xlink:title="js_operator_delete">
<polygon fill="none" stroke="#000000" points="297,-582.5 297,-601.5 393,-601.5 393,-582.5 297,-582.5"/>
<text text-anchor="middle" x="345" y="-589.5" font-family="Helvetica,sans-Serif" font-size="10.00" fill="#000000">js_operator_delete</text>
</a>
</g>
</g>
<!-- Node245808&#45;&gt;Node245783 -->
<g id="edge29" class="edge">
<title>Node245808&#45;&gt;Node245783</title>
<path fill="none" stroke="#191970" d="M189.8438,-477.8286C202.217,-503.4847 227.9147,-548.9758 264,-573 273.7389,-579.4838 285.424,-583.7667 296.8488,-586.5924"/>
<polygon fill="#191970" stroke="#191970" points="193.0162,-476.35 185.6277,-468.7566 186.6683,-479.3003 193.0162,-476.35"/>
</g>
<!-- Node245503 -->
<g id="node22" class="node">
<title>Node245503</title>
<g id="a_node22"><a xlink:href="quickjs_8c.html#a3756e0f1dc63bd8e463e6d4febc6e503" target="_top" xlink:title="js_operator_in">
<polygon fill="none" stroke="#000000" points="306.5,-544.5 306.5,-563.5 383.5,-563.5 383.5,-544.5 306.5,-544.5"/>
<text text-anchor="middle" x="345" y="-551.5" font-family="Helvetica,sans-Serif" font-size="10.00" fill="#000000">js_operator_in</text>
</a>
</g>
</g>
<!-- Node245808&#45;&gt;Node245503 -->
<g id="edge31" class="edge">
<title>Node245808&#45;&gt;Node245503</title>
<path fill="none" stroke="#191970" d="M195.5487,-476.381C210.6311,-493.8583 236.201,-520.2648 264,-535 277.0174,-541.9 292.5205,-546.3179 306.462,-549.1362"/>
<polygon fill="#191970" stroke="#191970" points="198.1339,-474.0169 189.0233,-468.6088 192.7729,-478.518 198.1339,-474.0169"/>
</g>
<!-- Node245809 -->
<g id="node23" class="node">
<title>Node245809</title>
<g id="a_node23"><a xlink:href="quickjs_8c.html#a736435f0774c85e09f2817c97ec47bbf" target="_top" xlink:title="js_parse_from_clause">
<polygon fill="none" stroke="#ff0000" points="289,-114.5 289,-133.5 401,-133.5 401,-114.5 289,-114.5"/>
<text text-anchor="middle" x="345" y="-121.5" font-family="Helvetica,sans-Serif" font-size="10.00" fill="#000000">js_parse_from_clause</text>
</a>
</g>
</g>
<!-- Node245808&#45;&gt;Node245809 -->
<g id="edge33" class="edge">
<title>Node245808&#45;&gt;Node245809</title>
<path fill="none" stroke="#191970" d="M184.1638,-439.4337C192.8966,-378.0327 222.4979,-190.713 264,-148 270.848,-140.9523 279.6597,-135.9496 288.9382,-132.4044"/>
<polygon fill="#191970" stroke="#191970" points="180.6929,-438.9823 182.7778,-449.37 187.6258,-439.9494 180.6929,-438.9823"/>
</g>
<!-- Node245810 -->
<g id="node24" class="node">
<title>Node245810</title>
<g id="a_node24"><a xlink:href="quickjs_8c.html#aa24f7964f6d938a05c3c3c03af5a01e9" target="_top" xlink:title="js_parse_import">
<polygon fill="none" stroke="#ff0000" points="462,-133.5 462,-152.5 548,-152.5 548,-133.5 462,-133.5"/>
<text text-anchor="middle" x="505" y="-140.5" font-family="Helvetica,sans-Serif" font-size="10.00" fill="#000000">js_parse_import</text>
</a>
</g>
</g>
<!-- Node245808&#45;&gt;Node245810 -->
<g id="edge35" class="edge">
<title>Node245808&#45;&gt;Node245810</title>
<path fill="none" stroke="#191970" d="M184.5561,-439.4432C193.9264,-382.0605 224.0583,-215.9857 264,-181 292.7559,-155.8121 400.7711,-147.252 461.982,-144.3936"/>
<polygon fill="#191970" stroke="#191970" points="181.087,-438.9718 182.9621,-449.3994 187.999,-440.0785 181.087,-438.9718"/>
</g>
<!-- Node245407 -->
<g id="node25" class="node">
<title>Node245407</title>
<g id="a_node25"><a xlink:href="quickjs_8c.html#a42234753f3193f37ce45b3c0ca4c25cd" target="_top" xlink:title="js_parse_property_name">
<polygon fill="none" stroke="#ff0000" points="283.5,-76.5 283.5,-95.5 406.5,-95.5 406.5,-76.5 283.5,-76.5"/>
<text text-anchor="middle" x="345" y="-83.5" font-family="Helvetica,sans-Serif" font-size="10.00" fill="#000000">js_parse_property_name</text>
</a>
</g>
</g>
<!-- Node245808&#45;&gt;Node245407 -->
<g id="edge36" class="edge">
<title>Node245808&#45;&gt;Node245407</title>
<path fill="none" stroke="#191970" d="M183.3855,-439.3089C190.217,-372.0963 215.8419,-153.2274 264,-105 269.4093,-99.5829 276.0506,-95.5945 283.182,-92.6753"/>
<polygon fill="#191970" stroke="#191970" points="179.8899,-439.0927 182.3879,-449.3889 186.8559,-439.7822 179.8899,-439.0927"/>
</g>
<!-- Node245784 -->
<g id="node26" class="node">
<title>Node245784</title>
<g id="a_node26"><a xlink:href="quickjs_8c.html#ae9c76f2d0eacc35d9df11d9f81039cde" target="_top" xlink:title="js_reflect_deleteProperty">
<polygon fill="none" stroke="#000000" points="282.5,-38.5 282.5,-57.5 407.5,-57.5 407.5,-38.5 282.5,-38.5"/>
<text text-anchor="middle" x="345" y="-45.5" font-family="Helvetica,sans-Serif" font-size="10.00" fill="#000000">js_reflect_deleteProperty</text>
</a>
</g>
</g>
<!-- Node245808&#45;&gt;Node245784 -->
<g id="edge38" class="edge">
<title>Node245808&#45;&gt;Node245784</title>
<path fill="none" stroke="#191970" d="M182.9213,-439.1085C188.4716,-367.0662 211.0478,-121.1827 264,-67 269.1488,-61.7316 275.4608,-57.8082 282.2683,-54.9031"/>
<polygon fill="#191970" stroke="#191970" points="179.4027,-439.2286 182.1503,-449.461 186.3834,-439.7486 179.4027,-439.2286"/>
</g>
<!-- Node245768 -->
<g id="node27" class="node">
<title>Node245768</title>
<g id="a_node27"><a xlink:href="quickjs_8c.html#a6730c3163c357445c0182c52d5a53ca4" target="_top" xlink:title="js_reflect_get">
<polygon fill="none" stroke="#000000" points="307.5,-.5 307.5,-19.5 382.5,-19.5 382.5,-.5 307.5,-.5"/>
<text text-anchor="middle" x="345" y="-7.5" font-family="Helvetica,sans-Serif" font-size="10.00" fill="#000000">js_reflect_get</text>
</a>
</g>
</g>
<!-- Node245808&#45;&gt;Node245768 -->
<g id="edge39" class="edge">
<title>Node245808&#45;&gt;Node245768</title>
<path fill="none" stroke="#191970" d="M182.5166,-439.1698C186.8348,-362.8351 206.168,-89.2438 264,-29 275.1032,-17.4338 291.8061,-12.3256 307.1653,-10.2495"/>
<polygon fill="#191970" stroke="#191970" points="179.0134,-439.1359 181.9672,-449.3106 186.0032,-439.5147 179.0134,-439.1359"/>
</g>
<!-- Node245505 -->
<g id="node28" class="node">
<title>Node245505</title>
<g id="a_node28"><a xlink:href="quickjs_8c.html#ab34237416a7483c22a564155a240224b" target="_top" xlink:title="js_reflect_has">
<polygon fill="none" stroke="#000000" points="306.5,-810.5 306.5,-829.5 383.5,-829.5 383.5,-810.5 306.5,-810.5"/>
<text text-anchor="middle" x="345" y="-817.5" font-family="Helvetica,sans-Serif" font-size="10.00" fill="#000000">js_reflect_has</text>
</a>
</g>
</g>
<!-- Node245808&#45;&gt;Node245505 -->
<g id="edge40" class="edge">
<title>Node245808&#45;&gt;Node245505</title>
<path fill="none" stroke="#191970" d="M183.5779,-478.8666C190.8702,-544.7824 217.4074,-754.7002 264,-801 275.0654,-811.9959 291.2106,-817.0955 306.1802,-819.3169"/>
<polygon fill="#191970" stroke="#191970" points="187.0247,-478.1845 182.4724,-468.6175 180.0651,-478.9353 187.0247,-478.1845"/>
</g>
<!-- Node245332 -->
<g id="node29" class="node">
<title>Node245332</title>
<g id="a_node29"><a xlink:href="quickjs_8c.html#af047bcc4352c7d76f5e85bb5985bcd97" target="_top" xlink:title="js_reflect_set">
<polygon fill="none" stroke="#000000" points="307.5,-772.5 307.5,-791.5 382.5,-791.5 382.5,-772.5 307.5,-772.5"/>
<text text-anchor="middle" x="345" y="-779.5" font-family="Helvetica,sans-Serif" font-size="10.00" fill="#000000">js_reflect_set</text>
</a>
</g>
</g>
<!-- Node245808&#45;&gt;Node245332 -->
<g id="edge41" class="edge">
<title>Node245808&#45;&gt;Node245332</title>
<path fill="none" stroke="#191970" d="M184.3892,-478.5832C193.5885,-538.4114 223.9602,-717.1989 264,-758 275.4029,-769.6197 292.1456,-775.675 307.4538,-778.8068"/>
<polygon fill="#191970" stroke="#191970" points="187.8307,-477.9324 182.8775,-468.5668 180.9091,-478.9771 187.8307,-477.9324"/>
</g>
<!-- Node245366 -->
<g id="node30" class="node">
<title>Node245366</title>
<g id="a_node30"><a xlink:href="quickjs_8c.html#aee75cc1546e19479e3ccda58f3b50a96" target="_top" xlink:title="JS_SetPropertyValue">
<polygon fill="none" stroke="#ff0000" points="290,-506.5 290,-525.5 400,-525.5 400,-506.5 290,-506.5"/>
<text text-anchor="middle" x="345" y="-513.5" font-family="Helvetica,sans-Serif" font-size="10.00" fill="#000000">JS_SetPropertyValue</text>
</a>
</g>
</g>
<!-- Node245808&#45;&gt;Node245366 -->
<g id="edge42" class="edge">
<title>Node245808&#45;&gt;Node245366</title>
<path fill="none" stroke="#191970" d="M213.177,-472.4676C228.4175,-478.7418 247.0255,-486.1045 264,-492 278.9633,-497.197 295.7176,-502.2805 310.0886,-506.4213"/>
<polygon fill="#191970" stroke="#191970" points="214.2766,-469.1344 203.6991,-468.5282 211.5899,-475.5983 214.2766,-469.1344"/>
</g>
<!-- Node245433&#45;&gt;Node245227 -->
<g id="edge17" class="edge">
<title>Node245433&#45;&gt;Node245227</title>
<path fill="none" stroke="#191970" d="M403.2145,-693.9642C410.9525,-691.8941 418.7216,-689.5695 426,-687 448.1012,-679.1976 472.2002,-667.0311 487.8955,-658.5746"/>
<polygon fill="#191970" stroke="#191970" points="402.2942,-690.5868 393.4692,-696.4494 404.0239,-697.3698 402.2942,-690.5868"/>
</g>
<!-- Node245444&#45;&gt;Node245227 -->
<g id="edge19" class="edge">
<title>Node245444&#45;&gt;Node245227</title>
<path fill="none" stroke="#191970" d="M430.0311,-657.9026C441.6066,-656.528 453.0411,-655.1701 463.36,-653.9447"/>
<polygon fill="#191970" stroke="#191970" points="429.3644,-654.457 419.8469,-659.1119 430.1899,-661.4082 429.3644,-654.457"/>
</g>
<!-- Node245522&#45;&gt;Node245227 -->
<g id="edge22" class="edge">
<title>Node245522&#45;&gt;Node245227</title>
<path fill="none" stroke="#191970" d="M410.8513,-637.8198C428.6497,-639.9334 447.4131,-642.1616 463.4651,-644.0677"/>
<polygon fill="#191970" stroke="#191970" points="410.8542,-634.2957 400.5112,-636.592 410.0287,-641.2468 410.8542,-634.2957"/>
</g>
<!-- Node245783&#45;&gt;Node245227 -->
<g id="edge30" class="edge">
<title>Node245783&#45;&gt;Node245227</title>
<path fill="none" stroke="#191970" d="M402.9091,-603.9542C410.7479,-606.0447 418.6259,-608.3967 426,-611 448.1012,-618.8024 472.2002,-630.9689 487.8955,-639.4254"/>
<polygon fill="#191970" stroke="#191970" points="403.5957,-600.5175 393.0417,-601.4468 401.8717,-607.3019 403.5957,-600.5175"/>
</g>
<!-- Node245503&#45;&gt;Node245227 -->
<g id="edge32" class="edge">
<title>Node245503&#45;&gt;Node245227</title>
<path fill="none" stroke="#191970" d="M393.6295,-560.9646C404.6902,-563.7399 416.0913,-567.6097 426,-573 457.4298,-590.0978 485.3023,-623.0705 497.892,-639.3809"/>
<polygon fill="#191970" stroke="#191970" points="394.1444,-557.493 383.6199,-558.7114 392.6071,-564.3222 394.1444,-557.493"/>
</g>
<!-- Node245809&#45;&gt;Node245810 -->
<g id="edge34" class="edge">
<title>Node245809&#45;&gt;Node245810</title>
<path fill="none" stroke="#191970" d="M411.3443,-131.8784C428.4265,-133.9069 446.3647,-136.0371 461.9182,-137.884"/>
<polygon fill="#191970" stroke="#191970" points="411.753,-128.4024 401.41,-130.6987 410.9275,-135.3536 411.753,-128.4024"/>
</g>
<!-- Node245366&#45;&gt;Node245227 -->
<g id="edge43" class="edge">
<title>Node245366&#45;&gt;Node245227</title>
<path fill="none" stroke="#191970" d="M409.8092,-526.537C415.53,-528.8298 421.0278,-531.6158 426,-535 466.0115,-562.2325 491.8936,-616.9791 501.168,-639.246"/>
<polygon fill="#191970" stroke="#191970" points="410.6192,-523.1129 400.0244,-523.1255 408.3146,-529.7227 410.6192,-523.1129"/>
</g>
</g>
</svg>
