<?xml version="1.0" encoding="UTF-8" standalone="no"?>
<!DOCTYPE svg PUBLIC "-//W3C//DTD SVG 1.1//EN"
 "http://www.w3.org/Graphics/SVG/1.1/DTD/svg11.dtd">
<!-- Generated by graphviz version 2.40.1 (20161225.0304)
 -->
<!-- Title: JS_EvalObject Pages: 1 -->
<svg width="591pt" height="863pt"
 viewBox="0.00 0.00 591.00 863.00" xmlns="http://www.w3.org/2000/svg" xmlns:xlink="http://www.w3.org/1999/xlink">
<g id="graph0" class="graph" transform="scale(1 1) rotate(0) translate(4 859)">
<title>JS_EvalObject</title>
<!-- Node7371 -->
<g id="node1" class="node">
<title>Node7371</title>
<polygon fill="#bfbfbf" stroke="#000000" points="0,-328.5 0,-347.5 82,-347.5 82,-328.5 0,-328.5"/>
<text text-anchor="middle" x="41" y="-335.5" font-family="Helvetica,sans-Serif" font-size="10.00" fill="#000000">JS_EvalObject</text>
</g>
<!-- Node7372 -->
<g id="node2" class="node">
<title>Node7372</title>
<g id="a_node2"><a xlink:href="quickjs_8c.html#ac2894ff4edcdb4e6841bcce9c76081e3" target="_top" xlink:title="JS_CallInternal">
<polygon fill="none" stroke="#000000" points="135.5,-404.5 135.5,-423.5 218.5,-423.5 218.5,-404.5 135.5,-404.5"/>
<text text-anchor="middle" x="177" y="-411.5" font-family="Helvetica,sans-Serif" font-size="10.00" fill="#000000">JS_CallInternal</text>
</a>
</g>
</g>
<!-- Node7371&#45;&gt;Node7372 -->
<g id="edge1" class="edge">
<title>Node7371&#45;&gt;Node7372</title>
<path fill="none" stroke="#191970" d="M67.2243,-352.6548C94.5563,-367.9285 136.5888,-391.4172 159.9154,-404.4527"/>
<polygon fill="#191970" stroke="#191970" points="68.6613,-349.4484 58.2245,-347.6255 65.2465,-355.559 68.6613,-349.4484"/>
</g>
<!-- Node7687 -->
<g id="node28" class="node">
<title>Node7687</title>
<g id="a_node28"><a xlink:href="quickjs_8c.html#a43064473b2e303ee40f4c1c7a87e85da" target="_top" xlink:title="js_function_constructor">
<polygon fill="none" stroke="#ff0000" points="118,-290.5 118,-309.5 236,-309.5 236,-290.5 118,-290.5"/>
<text text-anchor="middle" x="177" y="-297.5" font-family="Helvetica,sans-Serif" font-size="10.00" fill="#000000">js_function_constructor</text>
</a>
</g>
</g>
<!-- Node7371&#45;&gt;Node7687 -->
<g id="edge36" class="edge">
<title>Node7371&#45;&gt;Node7687</title>
<path fill="none" stroke="#191970" d="M85.0866,-325.6817C103.7722,-320.4607 125.2183,-314.4684 142.6924,-309.5859"/>
<polygon fill="#191970" stroke="#191970" points="84.0078,-322.349 75.3185,-328.411 85.8915,-329.0908 84.0078,-322.349"/>
</g>
<!-- Node7955 -->
<g id="node30" class="node">
<title>Node7955</title>
<g id="a_node30"><a xlink:href="quickjs_8c.html#aa760a09841b95bbc8ab2859780713705" target="_top" xlink:title="js_global_eval">
<polygon fill="none" stroke="#000000" points="138,-328.5 138,-347.5 216,-347.5 216,-328.5 138,-328.5"/>
<text text-anchor="middle" x="177" y="-335.5" font-family="Helvetica,sans-Serif" font-size="10.00" fill="#000000">js_global_eval</text>
</a>
</g>
</g>
<!-- Node7371&#45;&gt;Node7955 -->
<g id="edge38" class="edge">
<title>Node7371&#45;&gt;Node7955</title>
<path fill="none" stroke="#191970" d="M92.3763,-338C107.4381,-338 123.659,-338 137.83,-338"/>
<polygon fill="#191970" stroke="#191970" points="92.1736,-334.5001 82.1736,-338 92.1735,-341.5001 92.1736,-334.5001"/>
</g>
<!-- Node7372&#45;&gt;Node7372 -->
<g id="edge35" class="edge">
<title>Node7372&#45;&gt;Node7372</title>
<path fill="none" stroke="#191970" d="M151.7025,-433.0292C153.0824,-438.128 161.5149,-442 177,-442 201.1719,-442 208.1591,-432.5653 197.9615,-423.7571"/>
<polygon fill="#191970" stroke="#191970" points="154.9728,-434.2982 156.0385,-423.7571 148.6319,-431.3329 154.9728,-434.2982"/>
</g>
<!-- Node7373 -->
<g id="node3" class="node">
<title>Node7373</title>
<g id="a_node3"><a xlink:href="quickjs_8c.html#ade71a22dc56e7371392393df663b28b3" target="_top" xlink:title="async_func_resume">
<polygon fill="none" stroke="#000000" points="291,-698.5 291,-717.5 395,-717.5 395,-698.5 291,-698.5"/>
<text text-anchor="middle" x="343" y="-705.5" font-family="Helvetica,sans-Serif" font-size="10.00" fill="#000000">async_func_resume</text>
</a>
</g>
</g>
<!-- Node7372&#45;&gt;Node7373 -->
<g id="edge2" class="edge">
<title>Node7372&#45;&gt;Node7373</title>
<path fill="none" stroke="#191970" d="M187.5607,-432.7038C219.4524,-489.1868 314.0351,-656.7008 337.624,-698.4787"/>
<polygon fill="#191970" stroke="#191970" points="190.4876,-430.7689 182.5231,-423.7819 184.3921,-434.2106 190.4876,-430.7689"/>
</g>
<!-- Node7385 -->
<g id="node8" class="node">
<title>Node7385</title>
<g id="a_node8"><a xlink:href="quickjs_8c.html#a1a4c02a29525d5cb2085dd8bca3af350" target="_top" xlink:title="JS_Call">
<polygon fill="none" stroke="#ff0000" points="317.5,-404.5 317.5,-423.5 368.5,-423.5 368.5,-404.5 317.5,-404.5"/>
<text text-anchor="middle" x="343" y="-411.5" font-family="Helvetica,sans-Serif" font-size="10.00" fill="#000000">JS_Call</text>
</a>
</g>
</g>
<!-- Node7372&#45;&gt;Node7385 -->
<g id="edge7" class="edge">
<title>Node7372&#45;&gt;Node7385</title>
<path fill="none" stroke="#191970" d="M228.985,-407.6876C258.3235,-406.8214 293.7006,-407.2411 317.1878,-408.9466"/>
<polygon fill="#191970" stroke="#191970" points="228.7577,-404.1934 218.8888,-408.0476 229.0072,-411.1889 228.7577,-404.1934"/>
</g>
<!-- Node7459 -->
<g id="node26" class="node">
<title>Node7459</title>
<g id="a_node26"><a xlink:href="quickjs_8c.html#ad35594576a14c10812efaf958c99af8a" target="_top" xlink:title="JS_CallConstructorInternal">
<polygon fill="none" stroke="#ff0000" points="276,-736.5 276,-755.5 410,-755.5 410,-736.5 276,-736.5"/>
<text text-anchor="middle" x="343" y="-743.5" font-family="Helvetica,sans-Serif" font-size="10.00" fill="#000000">JS_CallConstructorInternal</text>
</a>
</g>
</g>
<!-- Node7372&#45;&gt;Node7459 -->
<g id="edge30" class="edge">
<title>Node7372&#45;&gt;Node7459</title>
<path fill="none" stroke="#191970" d="M181.1189,-433.5086C193.0218,-494.243 229.3486,-676.7416 272,-718 282.9138,-728.5574 299.0229,-733.4052 313.1389,-736.4744"/>
<polygon fill="#191970" stroke="#191970" points="184.5439,-432.786 179.1846,-423.6467 177.6748,-434.1334 184.5439,-432.786"/>
</g>
<!-- Node7473 -->
<g id="node27" class="node">
<title>Node7473</title>
<g id="a_node27"><a xlink:href="quickjs_8c.html#a75f6ee5e4235a7dc99889f3d2eb2c147" target="_top" xlink:title="JS_CallFree">
<polygon fill="none" stroke="#ff0000" points="307.5,-328.5 307.5,-347.5 378.5,-347.5 378.5,-328.5 307.5,-328.5"/>
<text text-anchor="middle" x="343" y="-335.5" font-family="Helvetica,sans-Serif" font-size="10.00" fill="#000000">JS_CallFree</text>
</a>
</g>
</g>
<!-- Node7372&#45;&gt;Node7473 -->
<g id="edge32" class="edge">
<title>Node7372&#45;&gt;Node7473</title>
<path fill="none" stroke="#191970" d="M192.5606,-397.9397C211.0337,-384.2145 242.9979,-365.7225 272,-353 283.2006,-348.0866 295.7484,-343.5456 307.144,-340.2116"/>
<polygon fill="#191970" stroke="#191970" points="190.285,-395.2778 184.6479,-404.2485 194.6488,-400.7511 190.285,-395.2778"/>
</g>
<!-- Node7374 -->
<g id="node4" class="node">
<title>Node7374</title>
<g id="a_node4"><a xlink:href="quickjs_8c.html#ac90552b1f1659acb3dae9a4c62479a30" target="_top" xlink:title="js_generator_function_call">
<polygon fill="none" stroke="#ff0000" points="451.5,-835.5 451.5,-854.5 581.5,-854.5 581.5,-835.5 451.5,-835.5"/>
<text text-anchor="middle" x="516.5" y="-842.5" font-family="Helvetica,sans-Serif" font-size="10.00" fill="#000000">js_generator_function_call</text>
</a>
</g>
</g>
<!-- Node7373&#45;&gt;Node7374 -->
<g id="edge3" class="edge">
<title>Node7373&#45;&gt;Node7374</title>
<path fill="none" stroke="#191970" d="M404.3125,-720.0057C407.7963,-721.9984 411.0674,-724.3128 414,-727 448.5188,-758.6299 415.7484,-794.0809 450,-826 454.1286,-829.8474 458.9826,-832.9225 464.1567,-835.3792"/>
<polygon fill="#191970" stroke="#191970" points="405.8179,-716.846 395.2868,-715.6862 402.7961,-723.1602 405.8179,-716.846"/>
</g>
<!-- Node7378 -->
<g id="node5" class="node">
<title>Node7378</title>
<g id="a_node5"><a xlink:href="quickjs_8c.html#a1bf6b62983e8fff99c0a5d5a9f486115" target="_top" xlink:title="js_async_function_resume">
<polygon fill="none" stroke="#ff0000" points="450,-698.5 450,-717.5 583,-717.5 583,-698.5 450,-698.5"/>
<text text-anchor="middle" x="516.5" y="-705.5" font-family="Helvetica,sans-Serif" font-size="10.00" fill="#000000">js_async_function_resume</text>
</a>
</g>
</g>
<!-- Node7373&#45;&gt;Node7378 -->
<g id="edge4" class="edge">
<title>Node7373&#45;&gt;Node7378</title>
<path fill="none" stroke="#191970" d="M405.3993,-708C419.8788,-708 435.3433,-708 449.9921,-708"/>
<polygon fill="#191970" stroke="#191970" points="405.0558,-704.5001 395.0557,-708 405.0557,-711.5001 405.0558,-704.5001"/>
</g>
<!-- Node7383 -->
<g id="node6" class="node">
<title>Node7383</title>
<g id="a_node6"><a xlink:href="quickjs_8c.html#a89b019c704a2d2914bc30b30a72040b3" target="_top" xlink:title="js_async_generator\l_resume_next">
<polygon fill="none" stroke="#000000" points="466,-786 466,-816 567,-816 567,-786 466,-786"/>
<text text-anchor="start" x="474" y="-804" font-family="Helvetica,sans-Serif" font-size="10.00" fill="#000000">js_async_generator</text>
<text text-anchor="middle" x="516.5" y="-793" font-family="Helvetica,sans-Serif" font-size="10.00" fill="#000000">_resume_next</text>
</a>
</g>
</g>
<!-- Node7373&#45;&gt;Node7383 -->
<g id="edge5" class="edge">
<title>Node7373&#45;&gt;Node7383</title>
<path fill="none" stroke="#191970" d="M404.6953,-721.5654C407.9481,-723.1779 411.076,-724.9818 414,-727 436.5362,-742.5547 428.144,-760.5032 450,-777 454.8003,-780.6233 460.1994,-783.7388 465.792,-786.4082"/>
<polygon fill="#191970" stroke="#191970" points="405.8324,-718.2446 395.2631,-717.5095 403.0671,-724.6752 405.8324,-718.2446"/>
</g>
<!-- Node7384 -->
<g id="node7" class="node">
<title>Node7384</title>
<g id="a_node7"><a xlink:href="quickjs_8c.html#ae19867da709929c072f05e90301835a4" target="_top" xlink:title="js_async_generator\l_function_call">
<polygon fill="none" stroke="#ff0000" points="466,-737 466,-767 567,-767 567,-737 466,-737"/>
<text text-anchor="start" x="474" y="-755" font-family="Helvetica,sans-Serif" font-size="10.00" fill="#000000">js_async_generator</text>
<text text-anchor="middle" x="516.5" y="-744" font-family="Helvetica,sans-Serif" font-size="10.00" fill="#000000">_function_call</text>
</a>
</g>
</g>
<!-- Node7373&#45;&gt;Node7384 -->
<g id="edge6" class="edge">
<title>Node7373&#45;&gt;Node7384</title>
<path fill="none" stroke="#191970" d="M390.3411,-720.0058C413.7164,-725.9338 441.9395,-733.0913 465.759,-739.132"/>
<polygon fill="#191970" stroke="#191970" points="391.2005,-716.613 380.6469,-717.5473 389.4797,-723.3982 391.2005,-716.613"/>
</g>
<!-- Node7385&#45;&gt;Node7372 -->
<g id="edge15" class="edge">
<title>Node7385&#45;&gt;Node7372</title>
<path fill="none" stroke="#191970" d="M307.0401,-419.6754C281.1232,-421.009 246.0709,-421.1013 218.8888,-419.9524"/>
<polygon fill="#191970" stroke="#191970" points="307.4206,-423.1587 317.1878,-419.0534 306.9924,-416.1718 307.4206,-423.1587"/>
</g>
<!-- Node7385&#45;&gt;Node7378 -->
<g id="edge16" class="edge">
<title>Node7385&#45;&gt;Node7378</title>
<path fill="none" stroke="#191970" d="M344.8032,-433.9501C350.4515,-484.4332 372.3646,-618.252 450,-689 454.2599,-692.882 459.2603,-695.9762 464.5736,-698.4416"/>
<polygon fill="#191970" stroke="#191970" points="348.2583,-433.3318 343.7606,-423.7391 341.2945,-434.0429 348.2583,-433.3318"/>
</g>
<!-- Node7386 -->
<g id="node9" class="node">
<title>Node7386</title>
<g id="a_node9"><a xlink:href="structqjs_1_1js__traits_3_01std_1_1function_3_01R_07Args_8_8_8_08_4_01_4.html#abc36cacd670b6b5f1773734a0586a02b" target="_top" xlink:title="qjs::js_traits\&lt; std\l::function\&lt; R(Args...)\l\&gt; \&gt;::unwrap">
<polygon fill="none" stroke="#000000" points="462,-316.5 462,-357.5 571,-357.5 571,-316.5 462,-316.5"/>
<text text-anchor="start" x="470" y="-345.5" font-family="Helvetica,sans-Serif" font-size="10.00" fill="#000000">qjs::js_traits&lt; std</text>
<text text-anchor="start" x="470" y="-334.5" font-family="Helvetica,sans-Serif" font-size="10.00" fill="#000000">::function&lt; R(Args...)</text>
<text text-anchor="middle" x="516.5" y="-323.5" font-family="Helvetica,sans-Serif" font-size="10.00" fill="#000000">&gt; &gt;::unwrap</text>
</a>
</g>
</g>
<!-- Node7385&#45;&gt;Node7386 -->
<g id="edge8" class="edge">
<title>Node7385&#45;&gt;Node7386</title>
<path fill="none" stroke="#191970" d="M378.3709,-403.9133C389.9625,-400.1185 402.7485,-395.3969 414,-390 431.1192,-381.7885 433.3028,-376.0386 450,-367 455.9033,-363.8044 462.2126,-360.6461 468.5068,-357.6467"/>
<polygon fill="#191970" stroke="#191970" points="377.047,-400.6607 368.5604,-407.0033 379.15,-407.3374 377.047,-400.6607"/>
</g>
<!-- Node7387 -->
<g id="node10" class="node">
<title>Node7387</title>
<g id="a_node10"><a xlink:href="quickjs-libc_8c.html#abb1cbe3fdf905e81f603a3a0bfce475a" target="_top" xlink:title="call_handler">
<polygon fill="none" stroke="#ff0000" points="482.5,-278.5 482.5,-297.5 550.5,-297.5 550.5,-278.5 482.5,-278.5"/>
<text text-anchor="middle" x="516.5" y="-285.5" font-family="Helvetica,sans-Serif" font-size="10.00" fill="#000000">call_handler</text>
</a>
</g>
</g>
<!-- Node7385&#45;&gt;Node7387 -->
<g id="edge9" class="edge">
<title>Node7385&#45;&gt;Node7387</title>
<path fill="none" stroke="#191970" d="M378.3532,-408.2091C390.8272,-404.6849 404.1776,-399.0367 414,-390 443.5912,-362.7759 419.7684,-333.5111 450,-307 458.9373,-299.1625 470.9074,-294.5454 482.2279,-291.8299"/>
<polygon fill="#191970" stroke="#191970" points="377.4951,-404.8158 368.6213,-410.6043 379.168,-411.6129 377.4951,-404.8158"/>
</g>
<!-- Node7392 -->
<g id="node11" class="node">
<title>Node7392</title>
<g id="a_node11"><a xlink:href="quickjs_8c.html#aa049793cc8648d35fe81876a2543ca4e" target="_top" xlink:title="JS_GetIterator2">
<polygon fill="none" stroke="#ff0000" points="473.5,-240.5 473.5,-259.5 559.5,-259.5 559.5,-240.5 473.5,-240.5"/>
<text text-anchor="middle" x="516.5" y="-247.5" font-family="Helvetica,sans-Serif" font-size="10.00" fill="#000000">JS_GetIterator2</text>
</a>
</g>
</g>
<!-- Node7385&#45;&gt;Node7392 -->
<g id="edge10" class="edge">
<title>Node7385&#45;&gt;Node7392</title>
<path fill="none" stroke="#191970" d="M378.6671,-408.9059C391.2943,-405.4601 404.6662,-399.6837 414,-390 452.9375,-349.603 410.1108,-308.4575 450,-269 456.4023,-262.667 464.761,-258.414 473.3802,-255.5657"/>
<polygon fill="#191970" stroke="#191970" points="377.7402,-405.5279 368.7914,-411.1997 379.324,-412.3464 377.7402,-405.5279"/>
</g>
<!-- Node7414 -->
<g id="node12" class="node">
<title>Node7414</title>
<g id="a_node12"><a xlink:href="quickjs_8c.html#ad6303fbd3add4afa0cb64b0aa6d431ce" target="_top" xlink:title="JS_IteratorNext2">
<polygon fill="none" stroke="#ff0000" points="471,-202.5 471,-221.5 562,-221.5 562,-202.5 471,-202.5"/>
<text text-anchor="middle" x="516.5" y="-209.5" font-family="Helvetica,sans-Serif" font-size="10.00" fill="#000000">JS_IteratorNext2</text>
</a>
</g>
</g>
<!-- Node7385&#45;&gt;Node7414 -->
<g id="edge11" class="edge">
<title>Node7385&#45;&gt;Node7414</title>
<path fill="none" stroke="#191970" d="M378.7261,-409.3088C391.481,-405.9127 404.9246,-400.065 414,-390 462.5201,-336.1894 400.2113,-283.6389 450,-231 455.6106,-225.0682 462.9326,-220.9471 470.6609,-218.0933"/>
<polygon fill="#191970" stroke="#191970" points="377.7368,-405.9434 368.7411,-411.5404 379.2637,-412.7749 377.7368,-405.9434"/>
</g>
<!-- Node7418 -->
<g id="node13" class="node">
<title>Node7418</title>
<g id="a_node13"><a xlink:href="quickjs_8c.html#a62424fefab7bcc97f49c978205c7a1c1" target="_top" xlink:title="js_for_await_of_next">
<polygon fill="none" stroke="#000000" points="463,-660.5 463,-679.5 570,-679.5 570,-660.5 463,-660.5"/>
<text text-anchor="middle" x="516.5" y="-667.5" font-family="Helvetica,sans-Serif" font-size="10.00" fill="#000000">js_for_await_of_next</text>
</a>
</g>
</g>
<!-- Node7385&#45;&gt;Node7418 -->
<g id="edge12" class="edge">
<title>Node7385&#45;&gt;Node7418</title>
<path fill="none" stroke="#191970" d="M355.6684,-432.0518C371.1378,-454.7442 397.2994,-495.3023 414,-533 436.209,-583.1316 410.8849,-612.5756 450,-651 453.9402,-654.8706 458.6115,-657.9637 463.6239,-660.4337"/>
<polygon fill="#191970" stroke="#191970" points="358.496,-429.987 349.936,-423.7439 352.7345,-433.9625 358.496,-429.987"/>
</g>
<!-- Node7419 -->
<g id="node14" class="node">
<title>Node7419</title>
<g id="a_node14"><a xlink:href="quickjs_8c.html#afd4ef2d701fa0702f321925b61c57bbf" target="_top" xlink:title="js_call_bound_function">
<polygon fill="none" stroke="#ff0000" points="458.5,-164.5 458.5,-183.5 574.5,-183.5 574.5,-164.5 458.5,-164.5"/>
<text text-anchor="middle" x="516.5" y="-171.5" font-family="Helvetica,sans-Serif" font-size="10.00" fill="#000000">js_call_bound_function</text>
</a>
</g>
</g>
<!-- Node7385&#45;&gt;Node7419 -->
<g id="edge14" class="edge">
<title>Node7385&#45;&gt;Node7419</title>
<path fill="none" stroke="#191970" d="M378.6604,-409.5834C391.5302,-406.2246 405.0704,-400.3306 414,-390 472.2046,-322.6636 390.2071,-258.9301 450,-193 453.4685,-189.1755 457.648,-186.0997 462.2018,-183.6291"/>
<polygon fill="#191970" stroke="#191970" points="377.614,-406.2289 368.5835,-411.7698 379.0983,-413.0697 377.614,-406.2289"/>
</g>
<!-- Node7420 -->
<g id="node15" class="node">
<title>Node7420</title>
<g id="a_node15"><a xlink:href="quickjs_8c.html#a3e852026d167fa03c673f86697dd3e67" target="_top" xlink:title="js_async_generator\l_resolve_or_reject">
<polygon fill="none" stroke="#ff0000" points="466,-115 466,-145 567,-145 567,-115 466,-115"/>
<text text-anchor="start" x="474" y="-133" font-family="Helvetica,sans-Serif" font-size="10.00" fill="#000000">js_async_generator</text>
<text text-anchor="middle" x="516.5" y="-122" font-family="Helvetica,sans-Serif" font-size="10.00" fill="#000000">_resolve_or_reject</text>
</a>
</g>
</g>
<!-- Node7385&#45;&gt;Node7420 -->
<g id="edge17" class="edge">
<title>Node7385&#45;&gt;Node7420</title>
<path fill="none" stroke="#191970" d="M378.8164,-409.7162C391.7065,-406.3747 405.2197,-400.4578 414,-390 481.942,-309.077 383.4281,-237.0538 450,-155 454.274,-149.732 459.781,-145.5737 465.794,-142.2913"/>
<polygon fill="#191970" stroke="#191970" points="377.759,-406.3633 368.7146,-411.8815 379.2261,-413.2079 377.759,-406.3633"/>
</g>
<!-- Node7423 -->
<g id="node16" class="node">
<title>Node7423</title>
<g id="a_node16"><a xlink:href="quickjs_8c.html#a2355fabf91f59212ea65baba1b0b7c1b" target="_top" xlink:title="js_async_generator_next">
<polygon fill="none" stroke="#000000" points="454,-76.5 454,-95.5 579,-95.5 579,-76.5 454,-76.5"/>
<text text-anchor="middle" x="516.5" y="-83.5" font-family="Helvetica,sans-Serif" font-size="10.00" fill="#000000">js_async_generator_next</text>
</a>
</g>
</g>
<!-- Node7385&#45;&gt;Node7423 -->
<g id="edge18" class="edge">
<title>Node7385&#45;&gt;Node7423</title>
<path fill="none" stroke="#191970" d="M378.9611,-409.8362C391.8701,-406.5102 405.3583,-400.5727 414,-390 494.7989,-291.1467 366.868,-201.8995 450,-105 453.2836,-101.1725 457.2798,-98.0896 461.6663,-95.6098"/>
<polygon fill="#191970" stroke="#191970" points="377.8932,-406.4847 368.8363,-411.9823 379.3447,-413.3326 377.8932,-406.4847"/>
</g>
<!-- Node7424 -->
<g id="node17" class="node">
<title>Node7424</title>
<g id="a_node17"><a xlink:href="quickjs_8c.html#a6357b7fdae71c70c140e78e6c20cb5c2" target="_top" xlink:title="js_dynamic_import_job">
<polygon fill="none" stroke="#ff0000" points="458.5,-622.5 458.5,-641.5 574.5,-641.5 574.5,-622.5 458.5,-622.5"/>
<text text-anchor="middle" x="516.5" y="-629.5" font-family="Helvetica,sans-Serif" font-size="10.00" fill="#000000">js_dynamic_import_job</text>
</a>
</g>
</g>
<!-- Node7385&#45;&gt;Node7424 -->
<g id="edge19" class="edge">
<title>Node7385&#45;&gt;Node7424</title>
<path fill="none" stroke="#191970" d="M354.8679,-432.3775C369.5483,-455.4392 394.933,-496.4114 414,-533 432.0184,-567.5765 420.5112,-587.493 450,-613 454.4498,-616.849 459.6325,-619.9206 465.1045,-622.3714"/>
<polygon fill="#191970" stroke="#191970" points="357.6222,-430.1884 349.2812,-423.6555 351.7277,-433.964 357.6222,-430.1884"/>
</g>
<!-- Node7426 -->
<g id="node18" class="node">
<title>Node7426</title>
<g id="a_node18"><a xlink:href="quickjs_8c.html#a8d4b24969540aff427939eeda47f451d" target="_top" xlink:title="js_function_apply">
<polygon fill="none" stroke="#ff0000" points="470.5,-38.5 470.5,-57.5 562.5,-57.5 562.5,-38.5 470.5,-38.5"/>
<text text-anchor="middle" x="516.5" y="-45.5" font-family="Helvetica,sans-Serif" font-size="10.00" fill="#000000">js_function_apply</text>
</a>
</g>
</g>
<!-- Node7385&#45;&gt;Node7426 -->
<g id="edge20" class="edge">
<title>Node7385&#45;&gt;Node7426</title>
<path fill="none" stroke="#191970" d="M378.3648,-410.0737C391.4888,-406.7913 405.2862,-400.8218 414,-390 504.5909,-277.4945 356.7535,-177.3145 450,-67 455.3484,-60.6727 462.6446,-56.3759 470.4503,-53.4747"/>
<polygon fill="#191970" stroke="#191970" points="377.6427,-406.6489 368.5553,-412.0958 379.0561,-413.5047 377.6427,-406.6489"/>
</g>
<!-- Node7429 -->
<g id="node19" class="node">
<title>Node7429</title>
<g id="a_node19"><a xlink:href="quickjs_8c.html#a677ad630a103e1f3d5129e0549112b50" target="_top" xlink:title="js_function_call">
<polygon fill="none" stroke="#000000" points="474.5,-584.5 474.5,-603.5 558.5,-603.5 558.5,-584.5 474.5,-584.5"/>
<text text-anchor="middle" x="516.5" y="-591.5" font-family="Helvetica,sans-Serif" font-size="10.00" fill="#000000">js_function_call</text>
</a>
</g>
</g>
<!-- Node7385&#45;&gt;Node7429 -->
<g id="edge22" class="edge">
<title>Node7385&#45;&gt;Node7429</title>
<path fill="none" stroke="#191970" d="M353.3574,-432.927C374.6115,-471.1437 423.3881,-555.5453 450,-575 457.1729,-580.2438 465.7555,-584.0436 474.3335,-586.7961"/>
<polygon fill="#191970" stroke="#191970" points="356.2524,-430.9292 348.3542,-423.8674 350.1247,-434.3133 356.2524,-430.9292"/>
</g>
<!-- Node7395 -->
<g id="node20" class="node">
<title>Node7395</title>
<g id="a_node20"><a xlink:href="quickjs_8c.html#a5e32da9a43002cb96dcbd62a1a340144" target="_top" xlink:title="js_array_from">
<polygon fill="none" stroke="#000000" points="478.5,-546.5 478.5,-565.5 554.5,-565.5 554.5,-546.5 478.5,-546.5"/>
<text text-anchor="middle" x="516.5" y="-553.5" font-family="Helvetica,sans-Serif" font-size="10.00" fill="#000000">js_array_from</text>
</a>
</g>
</g>
<!-- Node7385&#45;&gt;Node7395 -->
<g id="edge23" class="edge">
<title>Node7385&#45;&gt;Node7395</title>
<path fill="none" stroke="#191970" d="M354.0983,-432.4964C371.2646,-459.514 406.8242,-509.5338 450,-537 458.51,-542.4136 468.5951,-546.3202 478.3054,-549.1259"/>
<polygon fill="#191970" stroke="#191970" points="356.8693,-430.3234 348.6261,-423.6676 350.9195,-434.0113 356.8693,-430.3234"/>
</g>
<!-- Node7410 -->
<g id="node21" class="node">
<title>Node7410</title>
<g id="a_node21"><a xlink:href="quickjs_8c.html#aa0bbf08a7e91459c68a312fba7016c6d" target="_top" xlink:title="js_array_every">
<polygon fill="none" stroke="#000000" points="476.5,-508.5 476.5,-527.5 556.5,-527.5 556.5,-508.5 476.5,-508.5"/>
<text text-anchor="middle" x="516.5" y="-515.5" font-family="Helvetica,sans-Serif" font-size="10.00" fill="#000000">js_array_every</text>
</a>
</g>
</g>
<!-- Node7385&#45;&gt;Node7410 -->
<g id="edge24" class="edge">
<title>Node7385&#45;&gt;Node7410</title>
<path fill="none" stroke="#191970" d="M359.7179,-430.8113C379.6021,-449.9138 414.5791,-480.7927 450,-499 458.2228,-503.2267 467.5152,-506.6297 476.49,-509.3221"/>
<polygon fill="#191970" stroke="#191970" points="361.9931,-428.1408 352.3969,-423.6502 357.0982,-433.1448 361.9931,-428.1408"/>
</g>
<!-- Node7430 -->
<g id="node22" class="node">
<title>Node7430</title>
<g id="a_node22"><a xlink:href="quickjs_8c.html#a36c1692489542a86dd79a7d39ab8ff95" target="_top" xlink:title="js_array_reduce">
<polygon fill="none" stroke="#000000" points="473.5,-470.5 473.5,-489.5 559.5,-489.5 559.5,-470.5 473.5,-470.5"/>
<text text-anchor="middle" x="516.5" y="-477.5" font-family="Helvetica,sans-Serif" font-size="10.00" fill="#000000">js_array_reduce</text>
</a>
</g>
</g>
<!-- Node7385&#45;&gt;Node7430 -->
<g id="edge25" class="edge">
<title>Node7385&#45;&gt;Node7430</title>
<path fill="none" stroke="#191970" d="M371.9264,-427.9827C393.2136,-437.957 423.021,-451.2713 450,-461 459.4879,-464.4214 469.9092,-467.6431 479.6298,-470.4279"/>
<polygon fill="#191970" stroke="#191970" points="373.3225,-424.7713 362.7861,-423.6598 370.3297,-431.0993 373.3225,-424.7713"/>
</g>
<!-- Node7431 -->
<g id="node23" class="node">
<title>Node7431</title>
<g id="a_node23"><a xlink:href="quickjs_8c.html#a9dd41b086da4e13b3487cc9c6e2af2b8" target="_top" xlink:title="js_array_find">
<polygon fill="none" stroke="#000000" points="480.5,-432.5 480.5,-451.5 552.5,-451.5 552.5,-432.5 480.5,-432.5"/>
<text text-anchor="middle" x="516.5" y="-439.5" font-family="Helvetica,sans-Serif" font-size="10.00" fill="#000000">js_array_find</text>
</a>
</g>
</g>
<!-- Node7385&#45;&gt;Node7431 -->
<g id="edge26" class="edge">
<title>Node7385&#45;&gt;Node7431</title>
<path fill="none" stroke="#191970" d="M378.536,-419.7349C408.2077,-424.5234 450.3314,-431.3215 480.2113,-436.1436"/>
<polygon fill="#191970" stroke="#191970" points="379.0304,-416.2695 368.6005,-418.1315 377.9151,-423.1801 379.0304,-416.2695"/>
</g>
<!-- Node7432 -->
<g id="node24" class="node">
<title>Node7432</title>
<g id="a_node24"><a xlink:href="quickjs_8c.html#ad90c33b4aae1181151bda4a98ac2ef23" target="_top" xlink:title="JS_FlattenIntoArray">
<polygon fill="none" stroke="#ff0000" points="464.5,-376.5 464.5,-395.5 568.5,-395.5 568.5,-376.5 464.5,-376.5"/>
<text text-anchor="middle" x="516.5" y="-383.5" font-family="Helvetica,sans-Serif" font-size="10.00" fill="#000000">JS_FlattenIntoArray</text>
</a>
</g>
</g>
<!-- Node7385&#45;&gt;Node7432 -->
<g id="edge27" class="edge">
<title>Node7385&#45;&gt;Node7432</title>
<path fill="none" stroke="#191970" d="M378.6118,-408.2529C403.295,-404.2694 436.5685,-398.8996 464.2458,-394.433"/>
<polygon fill="#191970" stroke="#191970" points="377.9151,-404.8199 368.6005,-409.8685 379.0304,-411.7305 377.9151,-404.8199"/>
</g>
<!-- Node7434 -->
<g id="node25" class="node">
<title>Node7434</title>
<g id="a_node25"><a xlink:href="quickjs_8c.html#aed1bf9ce4b9e3a82388679dd6ec7635b" target="_top" xlink:title="js_string_replace">
<polygon fill="none" stroke="#000000" points="471.5,-.5 471.5,-19.5 561.5,-19.5 561.5,-.5 471.5,-.5"/>
<text text-anchor="middle" x="516.5" y="-7.5" font-family="Helvetica,sans-Serif" font-size="10.00" fill="#000000">js_string_replace</text>
</a>
</g>
</g>
<!-- Node7385&#45;&gt;Node7434 -->
<g id="edge29" class="edge">
<title>Node7385&#45;&gt;Node7434</title>
<path fill="none" stroke="#191970" d="M370.6378,-399.1631C386.0805,-389.3377 404.1478,-374.9562 414,-357 449.2723,-292.7143 402.7108,-85.0404 450,-29 455.5753,-22.3929 463.2748,-17.9994 471.4626,-15.0969"/>
<polygon fill="#191970" stroke="#191970" points="368.6863,-396.2528 361.9306,-404.4144 372.3014,-402.247 368.6863,-396.2528"/>
</g>
<!-- Node7418&#45;&gt;Node7372 -->
<g id="edge13" class="edge">
<title>Node7418&#45;&gt;Node7372</title>
<path fill="none" stroke="#191970" d="M463.3058,-657.1042C458.6998,-655.3031 454.1996,-653.2758 450,-651 329.7025,-585.8092 216.3183,-459.7839 185.308,-423.8065"/>
<polygon fill="#191970" stroke="#191970" points="462.2517,-660.4439 472.8464,-660.4906 464.5932,-653.8472 462.2517,-660.4439"/>
</g>
<!-- Node7426&#45;&gt;Node7372 -->
<g id="edge21" class="edge">
<title>Node7426&#45;&gt;Node7372</title>
<path fill="none" stroke="#191970" d="M460.8208,-58.0862C456.7648,-60.4816 453.0697,-63.4142 450,-67 365.538,-165.6637 500.5285,-260.1436 414,-357 407.436,-364.3474 284.976,-391.1746 218.732,-405.2479"/>
<polygon fill="#191970" stroke="#191970" points="462.6353,-61.0995 470.1741,-53.6553 459.6385,-54.7735 462.6353,-61.0995"/>
</g>
<!-- Node7432&#45;&gt;Node7432 -->
<g id="edge28" class="edge">
<title>Node7432&#45;&gt;Node7432</title>
<path fill="none" stroke="#191970" d="M484.3144,-404.2746C485.232,-409.741 495.9606,-414 516.5,-414 547.0703,-414 555.907,-404.5653 543.0102,-395.7571"/>
<polygon fill="#191970" stroke="#191970" points="487.3574,-406.0197 489.9898,-395.7571 481.5321,-402.1381 487.3574,-406.0197"/>
</g>
<!-- Node7459&#45;&gt;Node7372 -->
<g id="edge31" class="edge">
<title>Node7459&#45;&gt;Node7372</title>
<path fill="none" stroke="#191970" d="M268.9793,-731.6969C221.4887,-671.3104 185.2806,-470.9649 178.2398,-423.7741"/>
<polygon fill="#191970" stroke="#191970" points="266.4738,-734.1456 275.7534,-739.2583 271.6876,-729.4747 266.4738,-734.1456"/>
</g>
<!-- Node7473&#45;&gt;Node7372 -->
<g id="edge33" class="edge">
<title>Node7473&#45;&gt;Node7372</title>
<path fill="none" stroke="#191970" d="M321.7563,-351.7406C307.4534,-357.488 288.3,-363.8496 272,-371 248.9275,-381.1213 223.9802,-394.8942 205.4425,-404.4321"/>
<polygon fill="#191970" stroke="#191970" points="323.4101,-354.8389 331.2036,-347.6617 320.6354,-348.4123 323.4101,-354.8389"/>
</g>
<!-- Node7473&#45;&gt;Node7434 -->
<g id="edge34" class="edge">
<title>Node7473&#45;&gt;Node7434</title>
<path fill="none" stroke="#191970" d="M388.7891,-334.0956C398.3363,-331.1936 407.47,-326.4994 414,-319 499.2888,-221.0502 365.538,-127.6637 450,-29 455.544,-22.5238 463.1279,-18.1784 471.1939,-15.28"/>
<polygon fill="#191970" stroke="#191970" points="387.6804,-330.7627 378.7822,-336.5135 389.3245,-337.5669 387.6804,-330.7627"/>
</g>
<!-- Node7401 -->
<g id="node29" class="node">
<title>Node7401</title>
<g id="a_node29"><a xlink:href="quickjs_8c.html#a4c9489297c684663f30e517204a9ec14" target="_top" xlink:title="JS_AddIntrinsicBaseObjects">
<polygon fill="none" stroke="#ff0000" points="272,-290.5 272,-309.5 414,-309.5 414,-290.5 272,-290.5"/>
<text text-anchor="middle" x="343" y="-297.5" font-family="Helvetica,sans-Serif" font-size="10.00" fill="#000000">JS_AddIntrinsicBaseObjects</text>
</a>
</g>
</g>
<!-- Node7687&#45;&gt;Node7401 -->
<g id="edge37" class="edge">
<title>Node7687&#45;&gt;Node7401</title>
<path fill="none" stroke="#191970" d="M246.5236,-300C254.8684,-300 263.3999,-300 271.7685,-300"/>
<polygon fill="#191970" stroke="#191970" points="246.461,-296.5001 236.4609,-300 246.4609,-303.5001 246.461,-296.5001"/>
</g>
<!-- Node7955&#45;&gt;Node7401 -->
<g id="edge39" class="edge">
<title>Node7955&#45;&gt;Node7401</title>
<path fill="none" stroke="#191970" d="M226.273,-326.7206C250.1608,-321.2524 278.5397,-314.756 301.3338,-309.538"/>
<polygon fill="#191970" stroke="#191970" points="225.3065,-323.3513 216.3397,-328.9945 226.8686,-330.1748 225.3065,-323.3513"/>
</g>
</g>
</svg>
