<?xml version="1.0" encoding="UTF-8" standalone="no"?>
<!DOCTYPE svg PUBLIC "-//W3C//DTD SVG 1.1//EN"
 "http://www.w3.org/Graphics/SVG/1.1/DTD/svg11.dtd">
<!-- Generated by graphviz version 2.40.1 (20161225.0304)
 -->
<!-- Title: js_async_function_call Pages: 1 -->
<svg width="796pt" height="876pt"
 viewBox="0.00 0.00 796.00 875.79" xmlns="http://www.w3.org/2000/svg" xmlns:xlink="http://www.w3.org/1999/xlink">
<g id="graph0" class="graph" transform="scale(1 1) rotate(0) translate(4 871.7866)">
<title>js_async_function_call</title>
<!-- Node292455 -->
<g id="node1" class="node">
<title>Node292455</title>
<polygon fill="#bfbfbf" stroke="#000000" points="0,-393.2866 0,-412.2866 116,-412.2866 116,-393.2866 0,-393.2866"/>
<text text-anchor="middle" x="58" y="-400.2866" font-family="Helvetica,sans-Serif" font-size="10.00" fill="#000000">js_async_function_call</text>
</g>
<!-- Node292456 -->
<g id="node2" class="node">
<title>Node292456</title>
<g id="a_node2"><a xlink:href="quickjs_8c.html#a9780456a71703c53244b88831bc8fb7a" target="_top" xlink:title="add_gc_object">
<polygon fill="none" stroke="#000000" points="179,-800.2866 179,-819.2866 259,-819.2866 259,-800.2866 179,-800.2866"/>
<text text-anchor="middle" x="219" y="-807.2866" font-family="Helvetica,sans-Serif" font-size="10.00" fill="#000000">add_gc_object</text>
</a>
</g>
</g>
<!-- Node292455&#45;&gt;Node292456 -->
<g id="edge1" class="edge">
<title>Node292455&#45;&gt;Node292456</title>
<path fill="none" stroke="#191970" d="M59.5076,-412.394C67.718,-463.8111 108.2817,-706.3785 152,-766.7866 160.8029,-778.95 174.1995,-788.5334 186.7061,-795.5362"/>
<polygon fill="#191970" stroke="#191970" points="185.0942,-798.6429 195.5771,-800.1792 188.3403,-792.441 185.0942,-798.6429"/>
</g>
<!-- Node292459 -->
<g id="node5" class="node">
<title>Node292459</title>
<g id="a_node5"><a xlink:href="quickjs_8c.html#a4bd986b91b68c6aa485f57c6142acccb" target="_top" xlink:title="async_func_init">
<polygon fill="none" stroke="#000000" points="508,-810.2866 508,-829.2866 593,-829.2866 593,-810.2866 508,-810.2866"/>
<text text-anchor="middle" x="550.5" y="-817.2866" font-family="Helvetica,sans-Serif" font-size="10.00" fill="#000000">async_func_init</text>
</a>
</g>
</g>
<!-- Node292455&#45;&gt;Node292459 -->
<g id="edge4" class="edge">
<title>Node292455&#45;&gt;Node292459</title>
<path fill="none" stroke="#191970" d="M61.5159,-412.5485C72.0561,-440.942 105.5579,-525.1302 152,-582.7866 261.8023,-719.1026 315.9239,-739.8141 480,-800.7866 486.3868,-803.16 493.1995,-805.3743 499.9777,-807.3918"/>
<polygon fill="#191970" stroke="#191970" points="499.2538,-810.8248 509.8304,-810.2023 501.1741,-804.0933 499.2538,-810.8248"/>
</g>
<!-- Node292463 -->
<g id="node9" class="node">
<title>Node292463</title>
<g id="a_node9"><a xlink:href="quickjs_8c.html#aee58f0488d619274e9d72be864626298" target="_top" xlink:title="js_async_function_free">
<polygon fill="none" stroke="#000000" points="160.5,-554.2866 160.5,-573.2866 277.5,-573.2866 277.5,-554.2866 160.5,-554.2866"/>
<text text-anchor="middle" x="219" y="-561.2866" font-family="Helvetica,sans-Serif" font-size="10.00" fill="#000000">js_async_function_free</text>
</a>
</g>
</g>
<!-- Node292455&#45;&gt;Node292463 -->
<g id="edge8" class="edge">
<title>Node292455&#45;&gt;Node292463</title>
<path fill="none" stroke="#191970" d="M67.5891,-412.3757C94.0366,-438.8231 168.2802,-513.0668 201.9798,-546.7664"/>
<polygon fill="#191970" stroke="#191970" points="199.7116,-549.4479 209.2576,-554.0441 204.6613,-544.4982 199.7116,-549.4479"/>
</g>
<!-- Node292503 -->
<g id="node15" class="node">
<title>Node292503</title>
<g id="a_node15"><a xlink:href="quickjs_8c.html#a1bf6b62983e8fff99c0a5d5a9f486115" target="_top" xlink:title="js_async_function_resume">
<polygon fill="none" stroke="#000000" points="152.5,-393.2866 152.5,-412.2866 285.5,-412.2866 285.5,-393.2866 152.5,-393.2866"/>
<text text-anchor="middle" x="219" y="-400.2866" font-family="Helvetica,sans-Serif" font-size="10.00" fill="#000000">js_async_function_resume</text>
</a>
</g>
</g>
<!-- Node292455&#45;&gt;Node292503 -->
<g id="edge14" class="edge">
<title>Node292455&#45;&gt;Node292503</title>
<path fill="none" stroke="#191970" d="M116.1247,-402.7866C124.6055,-402.7866 133.4462,-402.7866 142.2276,-402.7866"/>
<polygon fill="#191970" stroke="#191970" points="142.4839,-406.2867 152.4838,-402.7866 142.4838,-399.2867 142.4839,-406.2867"/>
</g>
<!-- Node292490 -->
<g id="node19" class="node">
<title>Node292490</title>
<g id="a_node19"><a xlink:href="quickjs_8h.html#afaa20c47565bc704c6c85f3d77254e7d" target="_top" xlink:title="JS_FreeValue">
<polygon fill="none" stroke="#ff0000" points="683.5,-162.2866 683.5,-181.2866 761.5,-181.2866 761.5,-162.2866 683.5,-162.2866"/>
<text text-anchor="middle" x="722.5" y="-169.2866" font-family="Helvetica,sans-Serif" font-size="10.00" fill="#000000">JS_FreeValue</text>
</a>
</g>
</g>
<!-- Node292455&#45;&gt;Node292490 -->
<g id="edge50" class="edge">
<title>Node292455&#45;&gt;Node292490</title>
<path fill="none" stroke="#191970" d="M61.3528,-393.1021C78.8609,-344.2915 165.0287,-124.7204 322,-51.7866 442.5324,4.2165 510.0434,26.3778 621,-46.7866 654.9091,-69.1461 630.5796,-99.9363 657,-130.7866 666.3877,-141.7484 679.4522,-150.7375 691.4455,-157.4761"/>
<polygon fill="#191970" stroke="#191970" points="689.8548,-160.5942 700.3294,-162.1859 693.1336,-154.4096 689.8548,-160.5942"/>
</g>
<!-- Node292536 -->
<g id="node21" class="node">
<title>Node292536</title>
<g id="a_node21"><a xlink:href="quickjs_8h.html#ad80a83d73e9b7d872b88fbf2943aebe9" target="_top" xlink:title="JS_IsException">
<polygon fill="none" stroke="#000000" points="679.5,-241.2866 679.5,-260.2866 765.5,-260.2866 765.5,-241.2866 679.5,-241.2866"/>
<text text-anchor="middle" x="722.5" y="-248.2866" font-family="Helvetica,sans-Serif" font-size="10.00" fill="#000000">JS_IsException</text>
</a>
</g>
</g>
<!-- Node292455&#45;&gt;Node292536 -->
<g id="edge51" class="edge">
<title>Node292455&#45;&gt;Node292536</title>
<path fill="none" stroke="#191970" d="M64.83,-393.0909C78.8882,-373.8619 113.0302,-330.7738 152,-307.7866 333.6987,-200.6076 410.6899,-218.3121 621,-234.7866 636.7561,-236.0208 653.7628,-238.317 669.2676,-240.7923"/>
<polygon fill="#191970" stroke="#191970" points="668.7744,-244.2582 679.2113,-242.4355 669.9157,-237.3519 668.7744,-244.2582"/>
</g>
<!-- Node292836 -->
<g id="node30" class="node">
<title>Node292836</title>
<g id="a_node30"><a xlink:href="quickjs_8c.html#a2287eaf81466a0d408341cdae08ed673" target="_top" xlink:title="JS_NewPromiseCapability">
<polygon fill="none" stroke="#000000" points="152,-317.2866 152,-336.2866 286,-336.2866 286,-317.2866 152,-317.2866"/>
<text text-anchor="middle" x="219" y="-324.2866" font-family="Helvetica,sans-Serif" font-size="10.00" fill="#000000">JS_NewPromiseCapability</text>
</a>
</g>
</g>
<!-- Node292455&#45;&gt;Node292836 -->
<g id="edge52" class="edge">
<title>Node292455&#45;&gt;Node292836</title>
<path fill="none" stroke="#191970" d="M78.3908,-393.1611C106.4565,-379.9127 157.1696,-355.9736 189.4083,-340.7553"/>
<polygon fill="#191970" stroke="#191970" points="191.2258,-343.7678 198.7748,-336.3339 188.2376,-337.4376 191.2258,-343.7678"/>
</g>
<!-- Node292457 -->
<g id="node3" class="node">
<title>Node292457</title>
<g id="a_node3"><a xlink:href="list_8h.html#a3a5d0733570b2fafc18f4c71a2968ea5" target="_top" xlink:title="list_add_tail">
<polygon fill="none" stroke="#000000" points="349,-838.2866 349,-857.2866 417,-857.2866 417,-838.2866 349,-838.2866"/>
<text text-anchor="middle" x="383" y="-845.2866" font-family="Helvetica,sans-Serif" font-size="10.00" fill="#000000">list_add_tail</text>
</a>
</g>
</g>
<!-- Node292456&#45;&gt;Node292457 -->
<g id="edge2" class="edge">
<title>Node292456&#45;&gt;Node292457</title>
<path fill="none" stroke="#191970" d="M259.1189,-819.0824C283.289,-824.6828 314.095,-831.8208 338.9401,-837.5776"/>
<polygon fill="#191970" stroke="#191970" points="338.305,-841.0231 348.837,-839.8708 339.8852,-834.2037 338.305,-841.0231"/>
</g>
<!-- Node292458 -->
<g id="node4" class="node">
<title>Node292458</title>
<g id="a_node4"><a xlink:href="list_8h.html#a16286d5bff74a27aec51a3134ffc7b43" target="_top" xlink:title="__list_add">
<polygon fill="none" stroke="#000000" points="520,-848.2866 520,-867.2866 581,-867.2866 581,-848.2866 520,-848.2866"/>
<text text-anchor="middle" x="550.5" y="-855.2866" font-family="Helvetica,sans-Serif" font-size="10.00" fill="#000000">__list_add</text>
</a>
</g>
</g>
<!-- Node292457&#45;&gt;Node292458 -->
<g id="edge3" class="edge">
<title>Node292457&#45;&gt;Node292458</title>
<path fill="none" stroke="#191970" d="M417.3003,-849.8344C444.1519,-851.4374 481.5693,-853.6713 509.9116,-855.3634"/>
<polygon fill="#191970" stroke="#191970" points="509.7157,-858.8578 519.9065,-855.9601 510.1329,-851.8703 509.7157,-858.8578"/>
</g>
<!-- Node292460 -->
<g id="node6" class="node">
<title>Node292460</title>
<g id="a_node6"><a xlink:href="list_8h.html#a663527a4d757540b2177bef0db1ce5c0" target="_top" xlink:title="init_list_head">
<polygon fill="none" stroke="#000000" points="685.5,-677.2866 685.5,-696.2866 759.5,-696.2866 759.5,-677.2866 685.5,-677.2866"/>
<text text-anchor="middle" x="722.5" y="-684.2866" font-family="Helvetica,sans-Serif" font-size="10.00" fill="#000000">init_list_head</text>
</a>
</g>
</g>
<!-- Node292459&#45;&gt;Node292460 -->
<g id="edge5" class="edge">
<title>Node292459&#45;&gt;Node292460</title>
<path fill="none" stroke="#191970" d="M593.1528,-812.5392C602.7569,-809.7759 612.5877,-805.9824 621,-800.7866 661.1835,-775.9674 694.6128,-730.4499 711.2151,-705.0851"/>
<polygon fill="#191970" stroke="#191970" points="714.3054,-706.7486 716.7332,-696.4357 708.4041,-702.9837 714.3054,-706.7486"/>
</g>
<!-- Node292461 -->
<g id="node7" class="node">
<title>Node292461</title>
<g id="a_node7"><a xlink:href="quickjs_8h.html#a775522f2d084fc8fa0fcb33f390006b4" target="_top" xlink:title="JS_DupValue">
<polygon fill="none" stroke="#000000" points="684,-544.2866 684,-563.2866 761,-563.2866 761,-544.2866 684,-544.2866"/>
<text text-anchor="middle" x="722.5" y="-551.2866" font-family="Helvetica,sans-Serif" font-size="10.00" fill="#000000">JS_DupValue</text>
</a>
</g>
</g>
<!-- Node292459&#45;&gt;Node292461 -->
<g id="edge6" class="edge">
<title>Node292459&#45;&gt;Node292461</title>
<path fill="none" stroke="#191970" d="M593.0077,-815.7721C603.2865,-812.9442 613.4666,-808.3118 621,-800.7866 664.3256,-757.5083 633.5524,-724.3581 657,-667.7866 671.7696,-632.1522 695.5823,-593.8868 710.0628,-571.9923"/>
<polygon fill="#191970" stroke="#191970" points="713.1558,-573.6641 715.8188,-563.4094 707.3421,-569.7653 713.1558,-573.6641"/>
</g>
<!-- Node292462 -->
<g id="node8" class="node">
<title>Node292462</title>
<g id="a_node8"><a xlink:href="cutils_8h.html#a94f155fcce337a2b9d4719ed8042cbbe" target="_top" xlink:title="max_int">
<polygon fill="none" stroke="#000000" points="697,-810.2866 697,-829.2866 748,-829.2866 748,-810.2866 697,-810.2866"/>
<text text-anchor="middle" x="722.5" y="-817.2866" font-family="Helvetica,sans-Serif" font-size="10.00" fill="#000000">max_int</text>
</a>
</g>
</g>
<!-- Node292459&#45;&gt;Node292462 -->
<g id="edge7" class="edge">
<title>Node292459&#45;&gt;Node292462</title>
<path fill="none" stroke="#191970" d="M593.0169,-819.7866C621.8227,-819.7866 659.4612,-819.7866 686.7282,-819.7866"/>
<polygon fill="#191970" stroke="#191970" points="686.9936,-823.2867 696.9935,-819.7866 686.9935,-816.2867 686.9936,-823.2867"/>
</g>
<!-- Node292464 -->
<g id="node10" class="node">
<title>Node292464</title>
<g id="a_node10"><a xlink:href="quickjs_8c.html#a0272417de9a1be37e1fcc3fdccdb859a" target="_top" xlink:title="js_async_function_free0">
<polygon fill="none" stroke="#000000" points="322,-696.2866 322,-715.2866 444,-715.2866 444,-696.2866 322,-696.2866"/>
<text text-anchor="middle" x="383" y="-703.2866" font-family="Helvetica,sans-Serif" font-size="10.00" fill="#000000">js_async_function_free0</text>
</a>
</g>
</g>
<!-- Node292463&#45;&gt;Node292464 -->
<g id="edge9" class="edge">
<title>Node292463&#45;&gt;Node292464</title>
<path fill="none" stroke="#191970" d="M225.0337,-573.4255C239.3077,-595.512 277.3259,-650.296 322,-681.7866 327.7497,-685.8395 334.2791,-689.3344 340.8765,-692.3046"/>
<polygon fill="#191970" stroke="#191970" points="339.9296,-695.7002 350.5083,-696.2845 342.6028,-689.2308 339.9296,-695.7002"/>
</g>
<!-- Node292465 -->
<g id="node11" class="node">
<title>Node292465</title>
<g id="a_node11"><a xlink:href="quickjs_8c.html#a4b282353917b10409ca38b279b0b1dce" target="_top" xlink:title="js_async_function_terminate">
<polygon fill="none" stroke="#ff0000" points="480,-658.2866 480,-677.2866 621,-677.2866 621,-658.2866 480,-658.2866"/>
<text text-anchor="middle" x="550.5" y="-665.2866" font-family="Helvetica,sans-Serif" font-size="10.00" fill="#000000">js_async_function_terminate</text>
</a>
</g>
</g>
<!-- Node292464&#45;&gt;Node292465 -->
<g id="edge10" class="edge">
<title>Node292464&#45;&gt;Node292465</title>
<path fill="none" stroke="#191970" d="M425.2673,-696.1976C447.5699,-691.1379 475.1232,-684.887 498.7018,-679.5378"/>
<polygon fill="#191970" stroke="#191970" points="499.5588,-682.9324 508.5366,-677.3066 498.0101,-676.1059 499.5588,-682.9324"/>
</g>
<!-- Node292469 -->
<g id="node12" class="node">
<title>Node292469</title>
<g id="a_node12"><a xlink:href="quickjs_8c.html#a69e19dda8a93d613203e0baa06f0ed8d" target="_top" xlink:title="js_free_rt">
<polygon fill="none" stroke="#000000" points="522,-772.2866 522,-791.2866 579,-791.2866 579,-772.2866 522,-772.2866"/>
<text text-anchor="middle" x="550.5" y="-779.2866" font-family="Helvetica,sans-Serif" font-size="10.00" fill="#000000">js_free_rt</text>
</a>
</g>
</g>
<!-- Node292464&#45;&gt;Node292469 -->
<g id="edge11" class="edge">
<title>Node292464&#45;&gt;Node292469</title>
<path fill="none" stroke="#191970" d="M401.6674,-715.3151C413.8723,-721.6837 430.0744,-730.4022 444,-738.7866 460.4741,-748.7053 462.486,-754.8469 480,-762.7866 490.0616,-767.3479 501.4429,-771.0055 512.0793,-773.8461"/>
<polygon fill="#191970" stroke="#191970" points="511.4312,-777.2917 521.9816,-776.3221 513.1293,-770.5008 511.4312,-777.2917"/>
</g>
<!-- Node292470 -->
<g id="node13" class="node">
<title>Node292470</title>
<g id="a_node13"><a xlink:href="quickjs_8h.html#ab8db583fa5e7c2b1935854a42859daed" target="_top" xlink:title="JS_FreeValueRT">
<polygon fill="none" stroke="#ff0000" points="504.5,-734.2866 504.5,-753.2866 596.5,-753.2866 596.5,-734.2866 504.5,-734.2866"/>
<text text-anchor="middle" x="550.5" y="-741.2866" font-family="Helvetica,sans-Serif" font-size="10.00" fill="#000000">JS_FreeValueRT</text>
</a>
</g>
</g>
<!-- Node292464&#45;&gt;Node292470 -->
<g id="edge12" class="edge">
<title>Node292464&#45;&gt;Node292470</title>
<path fill="none" stroke="#191970" d="M425.2673,-715.3756C447.5699,-720.4353 475.1232,-726.6862 498.7018,-732.0353"/>
<polygon fill="#191970" stroke="#191970" points="498.0101,-735.4673 508.5366,-734.2665 499.5588,-728.6408 498.0101,-735.4673"/>
</g>
<!-- Node292487 -->
<g id="node14" class="node">
<title>Node292487</title>
<g id="a_node14"><a xlink:href="quickjs_8c.html#adfb3133f30938e2db9b525ade5fc09cf" target="_top" xlink:title="remove_gc_object">
<polygon fill="none" stroke="#ff0000" points="502.5,-696.2866 502.5,-715.2866 598.5,-715.2866 598.5,-696.2866 502.5,-696.2866"/>
<text text-anchor="middle" x="550.5" y="-703.2866" font-family="Helvetica,sans-Serif" font-size="10.00" fill="#000000">remove_gc_object</text>
</a>
</g>
</g>
<!-- Node292464&#45;&gt;Node292487 -->
<g id="edge13" class="edge">
<title>Node292464&#45;&gt;Node292487</title>
<path fill="none" stroke="#191970" d="M444.4197,-705.7866C459.9713,-705.7866 476.6311,-705.7866 492.0323,-705.7866"/>
<polygon fill="#191970" stroke="#191970" points="492.4645,-709.2867 502.4644,-705.7866 492.4644,-702.2867 492.4645,-709.2867"/>
</g>
<!-- Node292503&#45;&gt;Node292465 -->
<g id="edge30" class="edge">
<title>Node292503&#45;&gt;Node292465</title>
<path fill="none" stroke="#191970" d="M224.0851,-412.6076C235.81,-435.4464 265.3186,-494.0488 286,-544.7866 304.4628,-590.0814 283.3667,-618.7872 322,-648.7866 370.9752,-686.8166 444.9496,-685.6008 495.3681,-678.8189"/>
<polygon fill="#191970" stroke="#191970" points="496.0479,-682.2569 505.4374,-677.349 495.0366,-675.3303 496.0479,-682.2569"/>
</g>
<!-- Node292504 -->
<g id="node16" class="node">
<title>Node292504</title>
<g id="a_node16"><a xlink:href="quickjs_8c.html#ade71a22dc56e7371392393df663b28b3" target="_top" xlink:title="async_func_resume">
<polygon fill="none" stroke="#000000" points="331,-450.2866 331,-469.2866 435,-469.2866 435,-450.2866 331,-450.2866"/>
<text text-anchor="middle" x="383" y="-457.2866" font-family="Helvetica,sans-Serif" font-size="10.00" fill="#000000">async_func_resume</text>
</a>
</g>
</g>
<!-- Node292503&#45;&gt;Node292504 -->
<g id="edge15" class="edge">
<title>Node292503&#45;&gt;Node292504</title>
<path fill="none" stroke="#191970" d="M243.8479,-412.3622C264.6307,-420.2726 295.1117,-431.6458 322,-440.7866 328.2027,-442.8952 334.7902,-445.0422 341.2548,-447.0976"/>
<polygon fill="#191970" stroke="#191970" points="340.6502,-450.5762 351.2395,-450.2335 342.7477,-443.8978 340.6502,-450.5762"/>
</g>
<!-- Node292754 -->
<g id="node18" class="node">
<title>Node292754</title>
<g id="a_node18"><a xlink:href="quickjs_8c.html#a1a4c02a29525d5cb2085dd8bca3af350" target="_top" xlink:title="JS_Call">
<polygon fill="none" stroke="#000000" points="697,-478.2866 697,-497.2866 748,-497.2866 748,-478.2866 697,-478.2866"/>
<text text-anchor="middle" x="722.5" y="-485.2866" font-family="Helvetica,sans-Serif" font-size="10.00" fill="#000000">JS_Call</text>
</a>
</g>
</g>
<!-- Node292503&#45;&gt;Node292754 -->
<g id="edge31" class="edge">
<title>Node292503&#45;&gt;Node292754</title>
<path fill="none" stroke="#191970" d="M229.2734,-412.4047C246.9049,-428.4167 284.6464,-460.5746 322,-478.7866 387.5215,-510.7321 407.7768,-512.9179 480,-522.7866 542.0897,-531.2706 559.1951,-533.1434 621,-522.7866 645.5333,-518.6755 672.0712,-509.3392 691.8567,-501.3427"/>
<polygon fill="#191970" stroke="#191970" points="693.3714,-504.5036 701.2646,-497.4361 690.6869,-498.0388 693.3714,-504.5036"/>
</g>
<!-- Node292503&#45;&gt;Node292490 -->
<g id="edge32" class="edge">
<title>Node292503&#45;&gt;Node292490</title>
<path fill="none" stroke="#191970" d="M235.9778,-393.1491C251.6081,-383.3311 274.115,-366.6105 286,-345.7866 332.5047,-264.3047 260.4926,-208.6301 322,-137.7866 410.3799,-35.9916 499.178,-29.0577 621,-86.7866 643.833,-97.6067 638.0404,-114.0846 657,-130.7866 668.4713,-140.8919 682.7083,-150.1246 694.976,-157.2593"/>
<polygon fill="#191970" stroke="#191970" points="693.4647,-160.4251 703.8948,-162.286 696.9016,-154.327 693.4647,-160.4251"/>
</g>
<!-- Node292503&#45;&gt;Node292536 -->
<g id="edge34" class="edge">
<title>Node292503&#45;&gt;Node292536</title>
<path fill="none" stroke="#191970" d="M230.4571,-393.0209C265.1403,-364.1837 373.1828,-279.6235 480,-250.7866 543.1809,-233.7299 619.0428,-237.3869 668.8915,-242.8915"/>
<polygon fill="#191970" stroke="#191970" points="668.7811,-246.4024 679.1199,-244.0874 669.5941,-239.4497 668.7811,-246.4024"/>
</g>
<!-- Node292588 -->
<g id="node22" class="node">
<title>Node292588</title>
<g id="a_node22"><a xlink:href="quickjs_8h.html#a4e407128a9605afb77523e49e9a627fd" target="_top" xlink:title="JS_IsUndefined">
<polygon fill="none" stroke="#000000" points="679.5,-336.2866 679.5,-355.2866 765.5,-355.2866 765.5,-336.2866 679.5,-336.2866"/>
<text text-anchor="middle" x="722.5" y="-343.2866" font-family="Helvetica,sans-Serif" font-size="10.00" fill="#000000">JS_IsUndefined</text>
</a>
</g>
</g>
<!-- Node292503&#45;&gt;Node292588 -->
<g id="edge35" class="edge">
<title>Node292503&#45;&gt;Node292588</title>
<path fill="none" stroke="#191970" d="M239.3652,-393.1526C259.7608,-384.0175 292.3011,-370.8199 322,-364.7866 444.1593,-339.9699 591.3889,-340.5755 668.8384,-343.1801"/>
<polygon fill="#191970" stroke="#191970" points="669.1738,-346.6945 679.2938,-343.5585 669.427,-339.699 669.1738,-346.6945"/>
</g>
<!-- Node292892 -->
<g id="node23" class="node">
<title>Node292892</title>
<g id="a_node23"><a xlink:href="quickjs_8c.html#a7068f4cd630e0bb554ea300ddb389715" target="_top" xlink:title="js_async_function_resolve\l_create">
<polygon fill="none" stroke="#000000" points="484.5,-96.7866 484.5,-126.7866 616.5,-126.7866 616.5,-96.7866 484.5,-96.7866"/>
<text text-anchor="start" x="492.5" y="-114.7866" font-family="Helvetica,sans-Serif" font-size="10.00" fill="#000000">js_async_function_resolve</text>
<text text-anchor="middle" x="550.5" y="-103.7866" font-family="Helvetica,sans-Serif" font-size="10.00" fill="#000000">_create</text>
</a>
</g>
</g>
<!-- Node292503&#45;&gt;Node292892 -->
<g id="edge26" class="edge">
<title>Node292503&#45;&gt;Node292892</title>
<path fill="none" stroke="#191970" d="M234.9241,-393.2427C250.224,-383.2667 272.8961,-366.2296 286,-345.7866 317.891,-296.0341 283.6899,-262.7831 322,-217.7866 361.1353,-171.8209 424.5081,-144.6055 474.5984,-129.2845"/>
<polygon fill="#191970" stroke="#191970" points="475.8318,-132.5697 484.4283,-126.3769 473.8462,-125.8572 475.8318,-132.5697"/>
</g>
<!-- Node292833 -->
<g id="node25" class="node">
<title>Node292833</title>
<g id="a_node25"><a xlink:href="quickjs_8c.html#a8551eaac7ef616910807cebdc515760d" target="_top" xlink:title="JS_GetException">
<polygon fill="none" stroke="#000000" points="336.5,-412.2866 336.5,-431.2866 429.5,-431.2866 429.5,-412.2866 336.5,-412.2866"/>
<text text-anchor="middle" x="383" y="-419.2866" font-family="Helvetica,sans-Serif" font-size="10.00" fill="#000000">JS_GetException</text>
</a>
</g>
</g>
<!-- Node292503&#45;&gt;Node292833 -->
<g id="edge33" class="edge">
<title>Node292503&#45;&gt;Node292833</title>
<path fill="none" stroke="#191970" d="M285.7051,-410.5146C299.1401,-412.0711 313.1431,-413.6934 326.2016,-415.2063"/>
<polygon fill="#191970" stroke="#191970" points="326.1065,-418.7186 336.4429,-416.3928 326.9121,-411.7651 326.1065,-418.7186"/>
</g>
<!-- Node292893 -->
<g id="node26" class="node">
<title>Node292893</title>
<g id="a_node26"><a xlink:href="quickjs_8c.html#a192c7bd4fc5264ccdf89e13ed5bc0dcc" target="_top" xlink:title="js_promise_resolve">
<polygon fill="none" stroke="#ff0000" points="332.5,-374.2866 332.5,-393.2866 433.5,-393.2866 433.5,-374.2866 332.5,-374.2866"/>
<text text-anchor="middle" x="383" y="-381.2866" font-family="Helvetica,sans-Serif" font-size="10.00" fill="#000000">js_promise_resolve</text>
</a>
</g>
</g>
<!-- Node292503&#45;&gt;Node292893 -->
<g id="edge36" class="edge">
<title>Node292503&#45;&gt;Node292893</title>
<path fill="none" stroke="#191970" d="M285.7051,-395.0586C297.7767,-393.66 310.3068,-392.2084 322.1983,-390.8307"/>
<polygon fill="#191970" stroke="#191970" points="322.9257,-394.2699 332.4564,-389.6422 322.12,-387.3164 322.9257,-394.2699"/>
</g>
<!-- Node292895 -->
<g id="node29" class="node">
<title>Node292895</title>
<g id="a_node29"><a xlink:href="quickjs_8c.html#a944c09a3f1ce23a5760b6ed6e83e3644" target="_top" xlink:title="perform_promise_then">
<polygon fill="none" stroke="#ff0000" points="326.5,-620.2866 326.5,-639.2866 439.5,-639.2866 439.5,-620.2866 326.5,-620.2866"/>
<text text-anchor="middle" x="383" y="-627.2866" font-family="Helvetica,sans-Serif" font-size="10.00" fill="#000000">perform_promise_then</text>
</a>
</g>
</g>
<!-- Node292503&#45;&gt;Node292895 -->
<g id="edge48" class="edge">
<title>Node292503&#45;&gt;Node292895</title>
<path fill="none" stroke="#191970" d="M223.3436,-412.3086C240.8219,-450.4827 305.8469,-591.0951 322,-605.7866 326.3687,-609.76 331.4726,-613.1087 336.8342,-615.9226"/>
<polygon fill="#191970" stroke="#191970" points="335.4708,-619.1482 346.0164,-620.1694 338.4093,-612.7949 335.4708,-619.1482"/>
</g>
<!-- Node292505 -->
<g id="node17" class="node">
<title>Node292505</title>
<g id="a_node17"><a xlink:href="quickjs_8c.html#ac2894ff4edcdb4e6841bcce9c76081e3" target="_top" xlink:title="JS_CallInternal">
<polygon fill="none" stroke="#ff0000" points="509,-450.2866 509,-469.2866 592,-469.2866 592,-450.2866 509,-450.2866"/>
<text text-anchor="middle" x="550.5" y="-457.2866" font-family="Helvetica,sans-Serif" font-size="10.00" fill="#000000">JS_CallInternal</text>
</a>
</g>
</g>
<!-- Node292504&#45;&gt;Node292505 -->
<g id="edge16" class="edge">
<title>Node292504&#45;&gt;Node292505</title>
<path fill="none" stroke="#191970" d="M435.0799,-459.7866C455.2795,-459.7866 478.3617,-459.7866 498.5491,-459.7866"/>
<polygon fill="#191970" stroke="#191970" points="498.8113,-463.2867 508.8113,-459.7866 498.8113,-456.2867 498.8113,-463.2867"/>
</g>
<!-- Node292505&#45;&gt;Node292460 -->
<g id="edge17" class="edge">
<title>Node292505&#45;&gt;Node292460</title>
<path fill="none" stroke="#191970" d="M557.8906,-469.5405C584.3543,-504.4664 674.6352,-623.6161 709.0371,-669.0186"/>
<polygon fill="#191970" stroke="#191970" points="706.308,-671.2123 715.1369,-677.069 711.8873,-666.9848 706.308,-671.2123"/>
</g>
<!-- Node292505&#45;&gt;Node292461 -->
<g id="edge21" class="edge">
<title>Node292505&#45;&gt;Node292461</title>
<path fill="none" stroke="#191970" d="M567.9388,-469.3171C598.2009,-485.8557 660.6036,-519.9595 696.1663,-539.3949"/>
<polygon fill="#191970" stroke="#191970" points="694.5615,-542.5064 705.015,-544.2308 697.9185,-536.3638 694.5615,-542.5064"/>
</g>
<!-- Node292505&#45;&gt;Node292505 -->
<g id="edge20" class="edge">
<title>Node292505&#45;&gt;Node292505</title>
<path fill="none" stroke="#191970" d="M524.9146,-469.5436C512.4676,-478.3519 520.9961,-487.7866 550.5,-487.7866 570.3229,-487.7866 580.6772,-483.5276 581.5629,-478.0611"/>
<polygon fill="#191970" stroke="#191970" points="584.4382,-476.0614 576.0854,-469.5436 578.5505,-479.8477 584.4382,-476.0614"/>
</g>
<!-- Node292505&#45;&gt;Node292754 -->
<g id="edge18" class="edge">
<title>Node292505&#45;&gt;Node292754</title>
<path fill="none" stroke="#191970" d="M592.1364,-460.6864C621.1407,-464.1554 659.4159,-470.4835 686.9806,-476.4179"/>
<polygon fill="#191970" stroke="#191970" points="686.4548,-479.887 696.979,-478.6662 687.9906,-473.0575 686.4548,-479.887"/>
</g>
<!-- Node292505&#45;&gt;Node292490 -->
<g id="edge22" class="edge">
<title>Node292505&#45;&gt;Node292490</title>
<path fill="none" stroke="#191970" d="M592.0275,-456.6306C602.8073,-453.853 613.486,-449.0314 621,-440.7866 684.4908,-371.1213 611.8204,-314.5099 657,-231.7866 666.8554,-213.7415 684.2118,-198.2178 698.5827,-187.4839"/>
<polygon fill="#191970" stroke="#191970" points="700.9449,-190.098 707.0511,-181.4398 696.8783,-184.4004 700.9449,-190.098"/>
</g>
<!-- Node292529 -->
<g id="node20" class="node">
<title>Node292529</title>
<g id="a_node20"><a xlink:href="quickjs_8h.html#a89b7c8686c7eee70b86be722ee4730ad" target="_top" xlink:title="JS_GetProperty">
<polygon fill="none" stroke="#ff0000" points="679.5,-393.2866 679.5,-412.2866 765.5,-412.2866 765.5,-393.2866 679.5,-393.2866"/>
<text text-anchor="middle" x="722.5" y="-400.2866" font-family="Helvetica,sans-Serif" font-size="10.00" fill="#000000">JS_GetProperty</text>
</a>
</g>
</g>
<!-- Node292505&#45;&gt;Node292529 -->
<g id="edge23" class="edge">
<title>Node292505&#45;&gt;Node292529</title>
<path fill="none" stroke="#191970" d="M588.7455,-450.1884C599.2585,-447.3579 610.6205,-444.1199 621,-440.7866 644.1416,-433.3548 669.7724,-423.7477 689.4881,-416.0529"/>
<polygon fill="#191970" stroke="#191970" points="690.9099,-419.2547 698.9339,-412.3362 688.3468,-412.7408 690.9099,-419.2547"/>
</g>
<!-- Node292505&#45;&gt;Node292536 -->
<g id="edge24" class="edge">
<title>Node292505&#45;&gt;Node292536</title>
<path fill="none" stroke="#191970" d="M592.0639,-455.7569C602.5899,-452.9483 613.1289,-448.3291 621,-440.7866 659.3629,-404.0252 631.1265,-373.1942 657,-326.7866 669.5959,-304.1941 689.6187,-282.2392 704.2137,-267.7842"/>
<polygon fill="#191970" stroke="#191970" points="706.922,-270.0343 711.6819,-260.5689 702.0582,-265.0001 706.922,-270.0343"/>
</g>
<!-- Node292505&#45;&gt;Node292588 -->
<g id="edge25" class="edge">
<title>Node292505&#45;&gt;Node292588</title>
<path fill="none" stroke="#191970" d="M592.3391,-453.9355C602.394,-451.1218 612.6339,-446.9555 621,-440.7866 645.1158,-423.0044 635.4183,-404.5713 657,-383.7866 666.8629,-374.2879 679.5427,-366.2282 691.1146,-360.0088"/>
<polygon fill="#191970" stroke="#191970" points="692.7724,-363.0922 700.0825,-355.4233 689.5855,-356.8597 692.7724,-363.0922"/>
</g>
<!-- Node292754&#45;&gt;Node292505 -->
<g id="edge19" class="edge">
<title>Node292754&#45;&gt;Node292505</title>
<path fill="none" stroke="#191970" d="M696.7782,-488.5797C667.9173,-485.9774 620.8379,-478.5474 587.9074,-471.5588"/>
<polygon fill="#191970" stroke="#191970" points="588.2739,-468.0553 577.7539,-469.312 586.7615,-474.89 588.2739,-468.0553"/>
</g>
<!-- Node292892&#45;&gt;Node292490 -->
<g id="edge27" class="edge">
<title>Node292892&#45;&gt;Node292490</title>
<path fill="none" stroke="#191970" d="M593.9029,-126.9271C622.1413,-136.7777 658.5772,-149.4879 685.4515,-158.8627"/>
<polygon fill="#191970" stroke="#191970" points="684.6513,-162.2903 695.2461,-162.2794 686.9569,-155.6809 684.6513,-162.2903"/>
</g>
<!-- Node292892&#45;&gt;Node292536 -->
<g id="edge28" class="edge">
<title>Node292892&#45;&gt;Node292536</title>
<path fill="none" stroke="#191970" d="M595.7704,-126.7881C604.6301,-130.8671 613.4917,-135.8412 621,-141.7866 642.186,-158.5624 638.9504,-170.6748 657,-190.7866 671.3303,-206.754 689.4299,-223.087 702.9695,-234.6722"/>
<polygon fill="#191970" stroke="#191970" points="700.8365,-237.4519 710.7361,-241.2264 705.351,-232.1022 700.8365,-237.4519"/>
</g>
<!-- Node292620 -->
<g id="node24" class="node">
<title>Node292620</title>
<g id="a_node24"><a xlink:href="quickjs_8c.html#a73738c650f11459db0d7af3dcdf8316b" target="_top" xlink:title="JS_NewObjectProtoClass">
<polygon fill="none" stroke="#ff0000" points="657,-102.2866 657,-121.2866 788,-121.2866 788,-102.2866 657,-102.2866"/>
<text text-anchor="middle" x="722.5" y="-109.2866" font-family="Helvetica,sans-Serif" font-size="10.00" fill="#000000">JS_NewObjectProtoClass</text>
</a>
</g>
</g>
<!-- Node292892&#45;&gt;Node292620 -->
<g id="edge29" class="edge">
<title>Node292892&#45;&gt;Node292620</title>
<path fill="none" stroke="#191970" d="M616.5078,-111.7866C626.4551,-111.7866 636.7801,-111.7866 646.9097,-111.7866"/>
<polygon fill="#191970" stroke="#191970" points="646.9529,-115.2867 656.9528,-111.7866 646.9528,-108.2867 646.9529,-115.2867"/>
</g>
<!-- Node292893&#45;&gt;Node292461 -->
<g id="edge38" class="edge">
<title>Node292893&#45;&gt;Node292461</title>
<path fill="none" stroke="#191970" d="M430.6524,-393.387C435.5827,-395.8428 440.177,-398.9233 444,-402.7866 483.1657,-442.3655 437.5289,-486.7776 480,-522.7866 533.8319,-568.4277 620.0439,-567.8562 673.8594,-561.8499"/>
<polygon fill="#191970" stroke="#191970" points="674.3409,-565.3172 683.8434,-560.6318 673.4931,-558.3687 674.3409,-565.3172"/>
</g>
<!-- Node292893&#45;&gt;Node292754 -->
<g id="edge37" class="edge">
<title>Node292893&#45;&gt;Node292754</title>
<path fill="none" stroke="#191970" d="M429.765,-393.379C434.9716,-395.8337 439.8744,-398.9161 444,-402.7866 476.6265,-433.3953 443.141,-471.4331 480,-496.7866 542.8367,-540.0087 638.0665,-517.6021 688.4549,-500.7711"/>
<polygon fill="#191970" stroke="#191970" points="689.901,-503.9744 698.2055,-497.3952 687.6107,-497.3596 689.901,-503.9744"/>
</g>
<!-- Node292893&#45;&gt;Node292490 -->
<g id="edge39" class="edge">
<title>Node292893&#45;&gt;Node292490</title>
<path fill="none" stroke="#191970" d="M387.3698,-374.1514C398.9065,-349.7838 432.5843,-285.1983 480,-250.7866 538.6248,-208.24 621.3523,-187.81 673.4368,-178.6046"/>
<polygon fill="#191970" stroke="#191970" points="674.155,-182.0329 683.4289,-176.91 672.9844,-175.1314 674.155,-182.0329"/>
</g>
<!-- Node292893&#45;&gt;Node292529 -->
<g id="edge41" class="edge">
<title>Node292893&#45;&gt;Node292529</title>
<path fill="none" stroke="#191970" d="M433.8266,-386.6311C497.0825,-390.1712 604.6146,-396.1892 669.0616,-399.7959"/>
<polygon fill="#191970" stroke="#191970" points="669.2293,-403.3107 679.4093,-400.375 669.6205,-396.3216 669.2293,-403.3107"/>
</g>
<!-- Node292893&#45;&gt;Node292536 -->
<g id="edge42" class="edge">
<title>Node292893&#45;&gt;Node292536</title>
<path fill="none" stroke="#191970" d="M407.416,-374.2216C466.9751,-350.8891 619.8424,-291.003 688.3713,-264.1566"/>
<polygon fill="#191970" stroke="#191970" points="689.8147,-267.3502 697.8491,-260.4437 687.2614,-260.8325 689.8147,-267.3502"/>
</g>
<!-- Node292894 -->
<g id="node27" class="node">
<title>Node292894</title>
<g id="a_node27"><a xlink:href="quickjs_8c.html#a5644dc5dba0d760dcc06cc1a79e256cc" target="_top" xlink:title="JS_GetOpaque">
<polygon fill="none" stroke="#000000" points="509,-412.2866 509,-431.2866 592,-431.2866 592,-412.2866 509,-412.2866"/>
<text text-anchor="middle" x="550.5" y="-419.2866" font-family="Helvetica,sans-Serif" font-size="10.00" fill="#000000">JS_GetOpaque</text>
</a>
</g>
</g>
<!-- Node292893&#45;&gt;Node292894 -->
<g id="edge40" class="edge">
<title>Node292893&#45;&gt;Node292894</title>
<path fill="none" stroke="#191970" d="M425.2673,-393.3756C447.6547,-398.4545 475.3328,-404.7337 498.9706,-410.0963"/>
<polygon fill="#191970" stroke="#191970" points="498.2999,-413.533 508.8264,-412.3323 499.8486,-406.7065 498.2999,-413.533"/>
</g>
<!-- Node292837 -->
<g id="node28" class="node">
<title>Node292837</title>
<g id="a_node28"><a xlink:href="quickjs_8c.html#a28c0ccdd26317bc38d0a693f1dffe4dc" target="_top" xlink:title="js_new_promise_capability">
<polygon fill="none" stroke="#ff0000" points="483.5,-260.2866 483.5,-279.2866 617.5,-279.2866 617.5,-260.2866 483.5,-260.2866"/>
<text text-anchor="middle" x="550.5" y="-267.2866" font-family="Helvetica,sans-Serif" font-size="10.00" fill="#000000">js_new_promise_capability</text>
</a>
</g>
</g>
<!-- Node292893&#45;&gt;Node292837 -->
<g id="edge43" class="edge">
<title>Node292893&#45;&gt;Node292837</title>
<path fill="none" stroke="#191970" d="M390.815,-374.2456C406.1288,-356.1233 441.9275,-316.5076 480,-293.7866 487.2618,-289.4529 495.4149,-285.767 503.5299,-282.6808"/>
<polygon fill="#191970" stroke="#191970" points="504.7266,-285.97 512.9829,-279.3305 502.3882,-279.3722 504.7266,-285.97"/>
</g>
<!-- Node292837&#45;&gt;Node292461 -->
<g id="edge44" class="edge">
<title>Node292837&#45;&gt;Node292461</title>
<path fill="none" stroke="#191970" d="M556.3434,-279.5385C569.1611,-301.1831 600.2542,-355.0977 621,-402.7866 640.5121,-447.6394 627.7574,-467.5774 657,-506.7866 666.926,-520.0957 681.7172,-531.1623 694.7334,-539.207"/>
<polygon fill="#191970" stroke="#191970" points="692.9839,-542.2384 703.3794,-544.284 696.5285,-536.2022 692.9839,-542.2384"/>
</g>
<!-- Node292837&#45;&gt;Node292490 -->
<g id="edge45" class="edge">
<title>Node292837&#45;&gt;Node292490</title>
<path fill="none" stroke="#191970" d="M567.3053,-260.2115C597.4903,-243.0131 661.0612,-206.7924 696.7659,-186.449"/>
<polygon fill="#191970" stroke="#191970" points="698.6706,-189.3921 705.6265,-181.4005 695.2052,-183.3101 698.6706,-189.3921"/>
</g>
<!-- Node292837&#45;&gt;Node292536 -->
<g id="edge46" class="edge">
<title>Node292837&#45;&gt;Node292536</title>
<path fill="none" stroke="#191970" d="M617.9853,-262.3318C634.9701,-260.4556 652.9663,-258.4676 669.1508,-256.6798"/>
<polygon fill="#191970" stroke="#191970" points="669.9406,-260.1139 679.4958,-255.537 669.172,-253.1563 669.9406,-260.1139"/>
</g>
<!-- Node292837&#45;&gt;Node292588 -->
<g id="edge47" class="edge">
<title>Node292837&#45;&gt;Node292588</title>
<path fill="none" stroke="#191970" d="M572.2839,-279.412C602.3964,-292.7176 656.9127,-316.8061 691.3308,-332.0141"/>
<polygon fill="#191970" stroke="#191970" points="690.3315,-335.399 700.893,-336.2393 693.1607,-328.9962 690.3315,-335.399"/>
</g>
<!-- Node292895&#45;&gt;Node292461 -->
<g id="edge49" class="edge">
<title>Node292895&#45;&gt;Node292461</title>
<path fill="none" stroke="#191970" d="M439.9171,-629.9443C488.859,-628.697 560.8557,-623.5365 621,-605.7866 649.5247,-597.3683 679.5203,-580.926 699.44,-568.7744"/>
<polygon fill="#191970" stroke="#191970" points="701.4676,-571.6348 708.1001,-563.3728 697.763,-565.6955 701.4676,-571.6348"/>
</g>
<!-- Node292836&#45;&gt;Node292837 -->
<g id="edge53" class="edge">
<title>Node292836&#45;&gt;Node292837</title>
<path fill="none" stroke="#191970" d="M274.4856,-317.2461C332.539,-307.264 423.6197,-291.6031 485.1238,-281.0277"/>
<polygon fill="#191970" stroke="#191970" points="485.8476,-284.4547 495.1099,-279.3107 484.6614,-277.556 485.8476,-284.4547"/>
</g>
</g>
</svg>
