<?xml version="1.0" encoding="UTF-8" standalone="no"?>
<!DOCTYPE svg PUBLIC "-//W3C//DTD SVG 1.1//EN"
 "http://www.w3.org/Graphics/SVG/1.1/DTD/svg11.dtd">
<!-- Generated by graphviz version 2.40.1 (20161225.0304)
 -->
<!-- Title: js_os_poll Pages: 1 -->
<svg width="367pt" height="28pt"
 viewBox="0.00 0.00 367.00 28.00" xmlns="http://www.w3.org/2000/svg" xmlns:xlink="http://www.w3.org/1999/xlink">
<g id="graph0" class="graph" transform="scale(1 1) rotate(0) translate(4 24)">
<title>js_os_poll</title>
<!-- Node17886 -->
<g id="node1" class="node">
<title>Node17886</title>
<polygon fill="#bfbfbf" stroke="#000000" points="0,-.5 0,-19.5 60,-19.5 60,-.5 0,-.5"/>
<text text-anchor="middle" x="30" y="-7.5" font-family="Helvetica,sans-Serif" font-size="10.00" fill="#000000">js_os_poll</text>
</g>
<!-- Node17887 -->
<g id="node2" class="node">
<title>Node17887</title>
<g id="a_node2"><a xlink:href="quickjs-libc_8c.html#a066e7962ce24f22d5df20968a8baa346" target="_top" xlink:title="js_os_init">
<polygon fill="none" stroke="#000000" points="96,-.5 96,-19.5 154,-19.5 154,-.5 96,-.5"/>
<text text-anchor="middle" x="125" y="-7.5" font-family="Helvetica,sans-Serif" font-size="10.00" fill="#000000">js_os_init</text>
</a>
</g>
</g>
<!-- Node17886&#45;&gt;Node17887 -->
<g id="edge1" class="edge">
<title>Node17886&#45;&gt;Node17887</title>
<path fill="none" stroke="#191970" d="M70.2719,-10C78.8389,-10 87.7271,-10 95.7865,-10"/>
<polygon fill="#191970" stroke="#191970" points="70.0586,-6.5001 60.0586,-10 70.0586,-13.5001 70.0586,-6.5001"/>
</g>
<!-- Node17888 -->
<g id="node3" class="node">
<title>Node17888</title>
<g id="a_node3"><a xlink:href="quickjs-libc_8c.html#adcca2b4a661355e6ff87a0def2339894" target="_top" xlink:title="js_init_module_os">
<polygon fill="none" stroke="#000000" points="190,-.5 190,-19.5 285,-19.5 285,-.5 190,-.5"/>
<text text-anchor="middle" x="237.5" y="-7.5" font-family="Helvetica,sans-Serif" font-size="10.00" fill="#000000">js_init_module_os</text>
</a>
</g>
</g>
<!-- Node17887&#45;&gt;Node17888 -->
<g id="edge2" class="edge">
<title>Node17887&#45;&gt;Node17888</title>
<path fill="none" stroke="#191970" d="M164.2908,-10C172.4764,-10 181.1906,-10 189.6459,-10"/>
<polygon fill="#191970" stroke="#191970" points="164.2644,-6.5001 154.2644,-10 164.2643,-13.5001 164.2644,-6.5001"/>
</g>
<!-- Node17889 -->
<g id="node4" class="node">
<title>Node17889</title>
<g id="a_node4"><a xlink:href="qjs_8cpp.html#a3c04138a5bfe5d72780bb7e82a18e627" target="_top" xlink:title="main">
<polygon fill="none" stroke="#000000" points="321,-.5 321,-19.5 359,-19.5 359,-.5 321,-.5"/>
<text text-anchor="middle" x="340" y="-7.5" font-family="Helvetica,sans-Serif" font-size="10.00" fill="#000000">main</text>
</a>
</g>
</g>
<!-- Node17888&#45;&gt;Node17889 -->
<g id="edge3" class="edge">
<title>Node17888&#45;&gt;Node17889</title>
<path fill="none" stroke="#191970" d="M295.1521,-10C304.3223,-10 313.2148,-10 320.6302,-10"/>
<polygon fill="#191970" stroke="#191970" points="295.1492,-6.5001 285.1491,-10 295.1491,-13.5001 295.1492,-6.5001"/>
</g>
</g>
</svg>
