<?xml version="1.0" encoding="UTF-8" standalone="no"?>
<!DOCTYPE svg PUBLIC "-//W3C//DTD SVG 1.1//EN"
 "http://www.w3.org/Graphics/SVG/1.1/DTD/svg11.dtd">
<!-- Generated by graphviz version 2.40.1 (20161225.0304)
 -->
<!-- Title: js_proxy_get Pages: 1 -->
<svg width="871pt" height="876pt"
 viewBox="0.00 0.00 871.00 876.00" xmlns="http://www.w3.org/2000/svg" xmlns:xlink="http://www.w3.org/1999/xlink">
<g id="graph0" class="graph" transform="scale(1 1) rotate(0) translate(4 872)">
<title>js_proxy_get</title>
<!-- Node421058 -->
<g id="node1" class="node">
<title>Node421058</title>
<polygon fill="#bfbfbf" stroke="#000000" points="0,-361.5 0,-380.5 72,-380.5 72,-361.5 0,-361.5"/>
<text text-anchor="middle" x="36" y="-368.5" font-family="Helvetica,sans-Serif" font-size="10.00" fill="#000000">js_proxy_get</text>
</g>
<!-- Node421059 -->
<g id="node2" class="node">
<title>Node421059</title>
<g id="a_node2"><a xlink:href="quickjs_8c.html#a9e94551ddba8762d74eda5127445dbbd" target="_top" xlink:title="get_proxy_method">
<polygon fill="none" stroke="#000000" points="216,-693.5 216,-712.5 313,-712.5 313,-693.5 216,-693.5"/>
<text text-anchor="middle" x="264.5" y="-700.5" font-family="Helvetica,sans-Serif" font-size="10.00" fill="#000000">get_proxy_method</text>
</a>
</g>
</g>
<!-- Node421058&#45;&gt;Node421059 -->
<g id="edge1" class="edge">
<title>Node421058&#45;&gt;Node421059</title>
<path fill="none" stroke="#191970" d="M38.5436,-380.7494C46.0453,-408.3683 69.9667,-488.8335 108,-546 147.3341,-605.1216 211.2666,-660.5778 243.9058,-686.9398"/>
<polygon fill="#191970" stroke="#191970" points="241.8668,-689.7904 251.8663,-693.2919 246.2328,-684.3189 241.8668,-689.7904"/>
</g>
<!-- Node421062 -->
<g id="node5" class="node">
<title>Node421062</title>
<g id="a_node5"><a xlink:href="quickjs_8h.html#ad80a83d73e9b7d872b88fbf2943aebe9" target="_top" xlink:title="JS_IsException">
<polygon fill="none" stroke="#000000" points="377.5,-760.5 377.5,-779.5 463.5,-779.5 463.5,-760.5 377.5,-760.5"/>
<text text-anchor="middle" x="420.5" y="-767.5" font-family="Helvetica,sans-Serif" font-size="10.00" fill="#000000">JS_IsException</text>
</a>
</g>
</g>
<!-- Node421058&#45;&gt;Node421062 -->
<g id="edge59" class="edge">
<title>Node421058&#45;&gt;Node421062</title>
<path fill="none" stroke="#191970" d="M37.3081,-380.7511C44.3646,-428.9666 82.665,-642.7395 216,-722 262.5792,-749.6888 323.9811,-761.4059 367.3068,-766.3639"/>
<polygon fill="#191970" stroke="#191970" points="367.0479,-769.856 377.3614,-767.4308 367.7866,-762.8951 367.0479,-769.856"/>
</g>
<!-- Node421067 -->
<g id="node10" class="node">
<title>Node421067</title>
<g id="a_node10"><a xlink:href="quickjs_8c.html#afa67965c1017685fc6783776d6d0d4d7" target="_top" xlink:title="JS_AtomToValue">
<polygon fill="none" stroke="#000000" points="374,-848.5 374,-867.5 467,-867.5 467,-848.5 374,-848.5"/>
<text text-anchor="middle" x="420.5" y="-855.5" font-family="Helvetica,sans-Serif" font-size="10.00" fill="#000000">JS_AtomToValue</text>
</a>
</g>
</g>
<!-- Node421058&#45;&gt;Node421067 -->
<g id="edge9" class="edge">
<title>Node421058&#45;&gt;Node421067</title>
<path fill="none" stroke="#191970" d="M36.1983,-380.7421C37.415,-419.7197 46.0941,-567.0502 108,-665 178.5811,-776.6761 228.2028,-785.5092 349,-839 354.417,-841.3987 360.203,-843.5498 366.0494,-845.4647"/>
<polygon fill="#191970" stroke="#191970" points="365.3046,-848.8967 375.8907,-848.4664 367.3468,-842.2012 365.3046,-848.8967"/>
</g>
<!-- Node421095 -->
<g id="node16" class="node">
<title>Node421095</title>
<g id="a_node16"><a xlink:href="quickjs_8c.html#a75f6ee5e4235a7dc99889f3d2eb2c147" target="_top" xlink:title="JS_CallFree">
<polygon fill="none" stroke="#000000" points="108.5,-380.5 108.5,-399.5 179.5,-399.5 179.5,-380.5 108.5,-380.5"/>
<text text-anchor="middle" x="144" y="-387.5" font-family="Helvetica,sans-Serif" font-size="10.00" fill="#000000">JS_CallFree</text>
</a>
</g>
</g>
<!-- Node421058&#45;&gt;Node421095 -->
<g id="edge15" class="edge">
<title>Node421058&#45;&gt;Node421095</title>
<path fill="none" stroke="#191970" d="M72.2629,-377.3796C80.6314,-378.8518 89.6392,-380.4365 98.35,-381.969"/>
<polygon fill="#191970" stroke="#191970" points="97.9279,-385.4484 108.3831,-383.7341 99.1408,-378.5543 97.9279,-385.4484"/>
</g>
<!-- Node421142 -->
<g id="node20" class="node">
<title>Node421142</title>
<g id="a_node20"><a xlink:href="quickjs_8h.html#afaa20c47565bc704c6c85f3d77254e7d" target="_top" xlink:title="JS_FreeValue">
<polygon fill="none" stroke="#ff0000" points="579,-114.5 579,-133.5 657,-133.5 657,-114.5 579,-114.5"/>
<text text-anchor="middle" x="618" y="-121.5" font-family="Helvetica,sans-Serif" font-size="10.00" fill="#000000">JS_FreeValue</text>
</a>
</g>
</g>
<!-- Node421058&#45;&gt;Node421142 -->
<g id="edge51" class="edge">
<title>Node421058&#45;&gt;Node421142</title>
<path fill="none" stroke="#191970" d="M39.0512,-361.3345C47.3302,-336.0628 72.0366,-266.6193 108,-218 146.5449,-165.8908 161.0175,-154.3222 216,-120 321.9579,-53.8571 369.8995,-40.6666 492,-67 529.4597,-75.0789 569.1878,-95.2409 593.7944,-109.2785"/>
<polygon fill="#191970" stroke="#191970" points="592.0461,-112.3106 602.4485,-114.3208 595.5701,-106.2623 592.0461,-112.3106"/>
</g>
<!-- Node421153 -->
<g id="node21" class="node">
<title>Node421153</title>
<g id="a_node21"><a xlink:href="quickjs_8c.html#a5762c57ae0c9937e986040c01222833a" target="_top" xlink:title="JS_GetPropertyInternal">
<polygon fill="none" stroke="#ff0000" points="361,-342.5 361,-361.5 480,-361.5 480,-342.5 361,-342.5"/>
<text text-anchor="middle" x="420.5" y="-349.5" font-family="Helvetica,sans-Serif" font-size="10.00" fill="#000000">JS_GetPropertyInternal</text>
</a>
</g>
</g>
<!-- Node421058&#45;&gt;Node421153 -->
<g id="edge58" class="edge">
<title>Node421058&#45;&gt;Node421153</title>
<path fill="none" stroke="#191970" d="M72.1728,-369.2125C135.7267,-366.072 268.4518,-359.5134 350.4716,-355.4604"/>
<polygon fill="#191970" stroke="#191970" points="350.8929,-358.944 360.7079,-354.9546 350.5473,-351.9525 350.8929,-358.944"/>
</g>
<!-- Node421187 -->
<g id="node27" class="node">
<title>Node421187</title>
<g id="a_node27"><a xlink:href="quickjs_8h.html#a4e407128a9605afb77523e49e9a627fd" target="_top" xlink:title="JS_IsUndefined">
<polygon fill="none" stroke="#000000" points="377.5,-76.5 377.5,-95.5 463.5,-95.5 463.5,-76.5 377.5,-76.5"/>
<text text-anchor="middle" x="420.5" y="-83.5" font-family="Helvetica,sans-Serif" font-size="10.00" fill="#000000">JS_IsUndefined</text>
</a>
</g>
</g>
<!-- Node421058&#45;&gt;Node421187 -->
<g id="edge60" class="edge">
<title>Node421058&#45;&gt;Node421187</title>
<path fill="none" stroke="#191970" d="M43.4289,-361.3543C55.9068,-345.4392 82.2447,-313.0494 108,-289 206.4962,-197.0278 228.0035,-164.3316 349,-105 354.7517,-102.1796 360.9761,-99.737 367.2707,-97.6321"/>
<polygon fill="#191970" stroke="#191970" points="368.6293,-100.8763 377.1623,-94.5964 366.5755,-94.1844 368.6293,-100.8763"/>
</g>
<!-- Node421266 -->
<g id="node28" class="node">
<title>Node421266</title>
<g id="a_node28"><a xlink:href="quickjs_8c.html#a24be89a128d1cd7c0908604815b2b854" target="_top" xlink:title="js_same_value">
<polygon fill="none" stroke="#ff0000" points="379.5,-190.5 379.5,-209.5 461.5,-209.5 461.5,-190.5 379.5,-190.5"/>
<text text-anchor="middle" x="420.5" y="-197.5" font-family="Helvetica,sans-Serif" font-size="10.00" fill="#000000">js_same_value</text>
</a>
</g>
</g>
<!-- Node421058&#45;&gt;Node421266 -->
<g id="edge61" class="edge">
<title>Node421058&#45;&gt;Node421266</title>
<path fill="none" stroke="#191970" d="M52.0571,-361.4766C97.2847,-335.0154 230.1841,-259.7438 349,-217 355.4532,-214.6785 362.3485,-212.5824 369.2159,-210.7194"/>
<polygon fill="#191970" stroke="#191970" points="370.3858,-214.0327 379.2025,-208.1576 368.6464,-207.2522 370.3858,-214.0327"/>
</g>
<!-- Node421381 -->
<g id="node29" class="node">
<title>Node421381</title>
<g id="a_node29"><a xlink:href="quickjs_8c.html#adfe21c674d998ca6586b7f7400352dc4" target="_top" xlink:title="js_free_desc">
<polygon fill="none" stroke="#000000" points="108,-.5 108,-19.5 180,-19.5 180,-.5 108,-.5"/>
<text text-anchor="middle" x="144" y="-7.5" font-family="Helvetica,sans-Serif" font-size="10.00" fill="#000000">js_free_desc</text>
</a>
</g>
</g>
<!-- Node421058&#45;&gt;Node421381 -->
<g id="edge49" class="edge">
<title>Node421058&#45;&gt;Node421381</title>
<path fill="none" stroke="#191970" d="M37.0567,-361.4929C42.6252,-312.6762 69.763,-90.2959 108,-34 110.1076,-30.897 112.7628,-28.0913 115.6718,-25.5851"/>
<polygon fill="#191970" stroke="#191970" points="117.7685,-28.3878 123.7629,-19.6517 113.629,-22.7429 117.7685,-28.3878"/>
</g>
<!-- Node421369 -->
<g id="node30" class="node">
<title>Node421369</title>
<g id="a_node30"><a xlink:href="quickjs_8c.html#ad13892c0a0f11781b566808876658099" target="_top" xlink:title="JS_GetOwnPropertyInternal">
<polygon fill="none" stroke="#ff0000" points="351,-570.5 351,-589.5 490,-589.5 490,-570.5 351,-570.5"/>
<text text-anchor="middle" x="420.5" y="-577.5" font-family="Helvetica,sans-Serif" font-size="10.00" fill="#000000">JS_GetOwnPropertyInternal</text>
</a>
</g>
</g>
<!-- Node421058&#45;&gt;Node421369 -->
<g id="edge52" class="edge">
<title>Node421058&#45;&gt;Node421369</title>
<path fill="none" stroke="#191970" d="M53.5203,-380.5234C114.822,-413.8447 319.9457,-525.3424 393.7543,-565.462"/>
<polygon fill="#191970" stroke="#191970" points="392.4193,-568.72 402.8768,-570.4207 395.7624,-562.5698 392.4193,-568.72"/>
</g>
<!-- Node421060 -->
<g id="node3" class="node">
<title>Node421060</title>
<g id="a_node3"><a xlink:href="quickjs_8c.html#af23ec7c9970ceb4671c59da7abd4b078" target="_top" xlink:title="js_check_stack_overflow">
<polygon fill="none" stroke="#000000" points="357,-684.5 357,-703.5 484,-703.5 484,-684.5 357,-684.5"/>
<text text-anchor="middle" x="420.5" y="-691.5" font-family="Helvetica,sans-Serif" font-size="10.00" fill="#000000">js_check_stack_overflow</text>
</a>
</g>
</g>
<!-- Node421059&#45;&gt;Node421060 -->
<g id="edge2" class="edge">
<title>Node421059&#45;&gt;Node421060</title>
<path fill="none" stroke="#191970" d="M313.0042,-700.2017C323.7268,-699.5831 335.3214,-698.9141 346.7919,-698.2524"/>
<polygon fill="#191970" stroke="#191970" points="347.0333,-701.7444 356.815,-697.6741 346.63,-694.756 347.0333,-701.7444"/>
</g>
<!-- Node421059&#45;&gt;Node421062 -->
<g id="edge4" class="edge">
<title>Node421059&#45;&gt;Node421062</title>
<path fill="none" stroke="#191970" d="M278.5816,-712.5039C294.9072,-723.1585 322.9202,-740.3358 349,-751 354.8514,-753.3927 361.0957,-755.5676 367.3656,-757.5201"/>
<polygon fill="#191970" stroke="#191970" points="366.6055,-760.9447 377.1865,-760.4046 368.5781,-754.2284 366.6055,-760.9447"/>
</g>
<!-- Node421063 -->
<g id="node6" class="node">
<title>Node421063</title>
<g id="a_node6"><a xlink:href="quickjs_8h.html#a149f24b67e745bad93573b3b4c80db4c" target="_top" xlink:title="JS_IsNull">
<polygon fill="none" stroke="#000000" points="391,-722.5 391,-741.5 450,-741.5 450,-722.5 391,-722.5"/>
<text text-anchor="middle" x="420.5" y="-729.5" font-family="Helvetica,sans-Serif" font-size="10.00" fill="#000000">JS_IsNull</text>
</a>
</g>
</g>
<!-- Node421059&#45;&gt;Node421063 -->
<g id="edge5" class="edge">
<title>Node421059&#45;&gt;Node421063</title>
<path fill="none" stroke="#191970" d="M313.0042,-712.0168C334.7344,-716.0564 360.0464,-720.7618 380.648,-724.5916"/>
<polygon fill="#191970" stroke="#191970" points="380.1753,-728.0636 390.6465,-726.4503 381.4547,-721.1815 380.1753,-728.0636"/>
</g>
<!-- Node421064 -->
<g id="node7" class="node">
<title>Node421064</title>
<g id="a_node7"><a xlink:href="quickjs_8c.html#a8353f635fb8a20553c08db8cf38c17e0" target="_top" xlink:title="JS_ThrowStackOverflow">
<polygon fill="none" stroke="#000000" points="358,-646.5 358,-665.5 483,-665.5 483,-646.5 358,-646.5"/>
<text text-anchor="middle" x="420.5" y="-653.5" font-family="Helvetica,sans-Serif" font-size="10.00" fill="#000000">JS_ThrowStackOverflow</text>
</a>
</g>
</g>
<!-- Node421059&#45;&gt;Node421064 -->
<g id="edge6" class="edge">
<title>Node421059&#45;&gt;Node421064</title>
<path fill="none" stroke="#191970" d="M292.1493,-693.3711C308.5881,-687.7633 329.8952,-680.698 349,-675 356.7878,-672.6773 365.0938,-670.342 373.1861,-668.1423"/>
<polygon fill="#191970" stroke="#191970" points="374.1498,-671.5076 382.9016,-665.5364 372.3363,-664.7466 374.1498,-671.5076"/>
</g>
<!-- Node421066 -->
<g id="node9" class="node">
<title>Node421066</title>
<g id="a_node9"><a xlink:href="quickjs_8c.html#a199d64ccbee0a90d93e1ad12745417f6" target="_top" xlink:title="JS_ThrowTypeErrorRevoked\lProxy">
<polygon fill="none" stroke="#000000" points="349,-799 349,-829 492,-829 492,-799 349,-799"/>
<text text-anchor="start" x="357" y="-817" font-family="Helvetica,sans-Serif" font-size="10.00" fill="#000000">JS_ThrowTypeErrorRevoked</text>
<text text-anchor="middle" x="420.5" y="-806" font-family="Helvetica,sans-Serif" font-size="10.00" fill="#000000">Proxy</text>
</a>
</g>
</g>
<!-- Node421059&#45;&gt;Node421066 -->
<g id="edge8" class="edge">
<title>Node421059&#45;&gt;Node421066</title>
<path fill="none" stroke="#191970" d="M271.547,-712.6756C284.8187,-730.2527 315.2398,-767.5849 349,-789 352.1856,-791.0207 355.5551,-792.9025 359.0273,-794.6511"/>
<polygon fill="#191970" stroke="#191970" points="357.8556,-797.9649 368.4024,-798.9726 360.786,-791.6077 357.8556,-797.9649"/>
</g>
<!-- Node421061 -->
<g id="node4" class="node">
<title>Node421061</title>
<g id="a_node4"><a xlink:href="quickjs_8c.html#acad70023f36797496683e579a4d60461" target="_top" xlink:title="js_get_stack_pointer">
<polygon fill="none" stroke="#000000" points="564.5,-722.5 564.5,-741.5 671.5,-741.5 671.5,-722.5 564.5,-722.5"/>
<text text-anchor="middle" x="618" y="-729.5" font-family="Helvetica,sans-Serif" font-size="10.00" fill="#000000">js_get_stack_pointer</text>
</a>
</g>
</g>
<!-- Node421060&#45;&gt;Node421061 -->
<g id="edge3" class="edge">
<title>Node421060&#45;&gt;Node421061</title>
<path fill="none" stroke="#191970" d="M470.0827,-703.54C496.8473,-708.6896 530.0814,-715.084 558.2638,-720.5065"/>
<polygon fill="#191970" stroke="#191970" points="557.9157,-724.0036 568.3969,-722.4561 559.2384,-717.1297 557.9157,-724.0036"/>
</g>
<!-- Node421065 -->
<g id="node8" class="node">
<title>Node421065</title>
<g id="a_node8"><a xlink:href="quickjs_8c.html#a853f0924d441ea4225488f37c8b69f9a" target="_top" xlink:title="__attribute__">
<polygon fill="none" stroke="#000000" points="581.5,-684.5 581.5,-703.5 654.5,-703.5 654.5,-684.5 581.5,-684.5"/>
<text text-anchor="middle" x="618" y="-691.5" font-family="Helvetica,sans-Serif" font-size="10.00" fill="#000000">__attribute__</text>
</a>
</g>
</g>
<!-- Node421064&#45;&gt;Node421065 -->
<g id="edge7" class="edge">
<title>Node421064&#45;&gt;Node421065</title>
<path fill="none" stroke="#191970" d="M470.0827,-665.54C501.1884,-671.5249 541.0326,-679.1911 571.5293,-685.0588"/>
<polygon fill="#191970" stroke="#191970" points="571.006,-688.5222 581.4872,-686.9748 572.3287,-681.6483 571.006,-688.5222"/>
</g>
<!-- Node421068 -->
<g id="node11" class="node">
<title>Node421068</title>
<g id="a_node11"><a xlink:href="quickjs_8c.html#a06ff303a11e6641cbf1f6634e6a61811" target="_top" xlink:title="__JS_AtomToValue">
<polygon fill="none" stroke="#000000" points="566,-760.5 566,-779.5 670,-779.5 670,-760.5 566,-760.5"/>
<text text-anchor="middle" x="618" y="-767.5" font-family="Helvetica,sans-Serif" font-size="10.00" fill="#000000">__JS_AtomToValue</text>
</a>
</g>
</g>
<!-- Node421067&#45;&gt;Node421068 -->
<g id="edge10" class="edge">
<title>Node421067&#45;&gt;Node421068</title>
<path fill="none" stroke="#191970" d="M463.3937,-848.4045C472.9525,-845.7709 482.9362,-842.6241 492,-839 529.3725,-824.0568 569.6988,-800.533 594.4027,-785.1856"/>
<polygon fill="#191970" stroke="#191970" points="596.4637,-788.0241 603.0671,-779.7388 592.7382,-782.0979 596.4637,-788.0241"/>
</g>
<!-- Node421069 -->
<g id="node12" class="node">
<title>Node421069</title>
<g id="a_node12"><a xlink:href="quickjs_8c.html#a288254c06a39c9fca740a7abdad2834e" target="_top" xlink:title="__JS_AtomIsTaggedInt">
<polygon fill="none" stroke="#000000" points="744,-646.5 744,-665.5 863,-665.5 863,-646.5 744,-646.5"/>
<text text-anchor="middle" x="803.5" y="-653.5" font-family="Helvetica,sans-Serif" font-size="10.00" fill="#000000">__JS_AtomIsTaggedInt</text>
</a>
</g>
</g>
<!-- Node421068&#45;&gt;Node421069 -->
<g id="edge11" class="edge">
<title>Node421068&#45;&gt;Node421069</title>
<path fill="none" stroke="#191970" d="M670.2469,-764.2271C683.1053,-761.4119 696.4795,-757.2253 708,-751 743.4428,-731.848 774.4292,-695.4542 790.9079,-673.6952"/>
<polygon fill="#191970" stroke="#191970" points="793.7464,-675.7433 796.8667,-665.6183 788.1134,-671.5876 793.7464,-675.7433"/>
</g>
<!-- Node421070 -->
<g id="node13" class="node">
<title>Node421070</title>
<g id="a_node13"><a xlink:href="quickjs_8c.html#a89f38938cee8077ce1fbba07946ed185" target="_top" xlink:title="__JS_AtomToUInt32">
<polygon fill="none" stroke="#000000" points="749.5,-608.5 749.5,-627.5 857.5,-627.5 857.5,-608.5 749.5,-608.5"/>
<text text-anchor="middle" x="803.5" y="-615.5" font-family="Helvetica,sans-Serif" font-size="10.00" fill="#000000">__JS_AtomToUInt32</text>
</a>
</g>
</g>
<!-- Node421068&#45;&gt;Node421070 -->
<g id="edge12" class="edge">
<title>Node421068&#45;&gt;Node421070</title>
<path fill="none" stroke="#191970" d="M670.4248,-768.2925C684.016,-765.5156 697.7073,-760.332 708,-751 747.3626,-715.3112 706.4898,-674.631 744,-637 745.4641,-635.5312 747.0415,-634.1758 748.7071,-632.9251"/>
<polygon fill="#191970" stroke="#191970" points="750.9159,-635.6792 757.6542,-627.5033 747.288,-629.6926 750.9159,-635.6792"/>
</g>
<!-- Node421071 -->
<g id="node14" class="node">
<title>Node421071</title>
<g id="a_node14"><a xlink:href="quickjs_8h.html#a775522f2d084fc8fa0fcb33f390006b4" target="_top" xlink:title="JS_DupValue">
<polygon fill="none" stroke="#000000" points="765,-342.5 765,-361.5 842,-361.5 842,-342.5 765,-342.5"/>
<text text-anchor="middle" x="803.5" y="-349.5" font-family="Helvetica,sans-Serif" font-size="10.00" fill="#000000">JS_DupValue</text>
</a>
</g>
</g>
<!-- Node421068&#45;&gt;Node421071 -->
<g id="edge13" class="edge">
<title>Node421068&#45;&gt;Node421071</title>
<path fill="none" stroke="#191970" d="M670.4122,-768.8721C684.1641,-766.1267 697.942,-760.8145 708,-751 757.6882,-702.5146 727.8707,-666.5248 744,-599 764.2252,-514.3279 788.6299,-413.4038 798.7485,-371.6127"/>
<polygon fill="#191970" stroke="#191970" points="802.1535,-372.4224 801.1057,-361.8795 795.3502,-370.7747 802.1535,-372.4224"/>
</g>
<!-- Node421072 -->
<g id="node15" class="node">
<title>Node421072</title>
<g id="a_node15"><a xlink:href="quickjs_8c.html#a0ee6a3654a6016393fac5e1c108f403a" target="_top" xlink:title="JS_NewString">
<polygon fill="none" stroke="#ff0000" points="763.5,-760.5 763.5,-779.5 843.5,-779.5 843.5,-760.5 763.5,-760.5"/>
<text text-anchor="middle" x="803.5" y="-767.5" font-family="Helvetica,sans-Serif" font-size="10.00" fill="#000000">JS_NewString</text>
</a>
</g>
</g>
<!-- Node421068&#45;&gt;Node421072 -->
<g id="edge14" class="edge">
<title>Node421068&#45;&gt;Node421072</title>
<path fill="none" stroke="#191970" d="M670.1657,-770C696.1606,-770 727.4534,-770 753.1888,-770"/>
<polygon fill="#191970" stroke="#191970" points="753.4812,-773.5001 763.4812,-770 753.4812,-766.5001 753.4812,-773.5001"/>
</g>
<!-- Node421096 -->
<g id="node17" class="node">
<title>Node421096</title>
<g id="a_node17"><a xlink:href="quickjs_8c.html#ac2894ff4edcdb4e6841bcce9c76081e3" target="_top" xlink:title="JS_CallInternal">
<polygon fill="none" stroke="#ff0000" points="223,-418.5 223,-437.5 306,-437.5 306,-418.5 223,-418.5"/>
<text text-anchor="middle" x="264.5" y="-425.5" font-family="Helvetica,sans-Serif" font-size="10.00" fill="#000000">JS_CallInternal</text>
</a>
</g>
</g>
<!-- Node421095&#45;&gt;Node421096 -->
<g id="edge16" class="edge">
<title>Node421095&#45;&gt;Node421096</title>
<path fill="none" stroke="#191970" d="M179.5022,-394.9797C198.7693,-400.1766 222.123,-407.7475 239.4719,-414.5101"/>
<polygon fill="#191970" stroke="#191970" points="238.3358,-417.8268 248.9165,-418.3743 240.9866,-411.3481 238.3358,-417.8268"/>
</g>
<!-- Node421095&#45;&gt;Node421142 -->
<g id="edge48" class="edge">
<title>Node421095&#45;&gt;Node421142</title>
<path fill="none" stroke="#191970" d="M148.2162,-380.3218C165.8363,-341.2372 237.872,-194.4409 349,-138 418.8686,-102.5144 512.526,-107.486 568.8931,-115.1549"/>
<polygon fill="#191970" stroke="#191970" points="568.5725,-118.6448 578.9699,-116.6091 569.5724,-111.7166 568.5725,-118.6448"/>
</g>
<!-- Node421096&#45;&gt;Node421060 -->
<g id="edge23" class="edge">
<title>Node421096&#45;&gt;Node421060</title>
<path fill="none" stroke="#191970" d="M266.5079,-437.5369C275.3524,-478.6904 312.0405,-640.5374 349,-675 350.6792,-676.5657 352.4724,-678.0054 354.3556,-679.329"/>
<polygon fill="#191970" stroke="#191970" points="352.7098,-682.4206 363.1142,-684.4201 356.2276,-676.3687 352.7098,-682.4206"/>
</g>
<!-- Node421096&#45;&gt;Node421062 -->
<g id="edge38" class="edge">
<title>Node421096&#45;&gt;Node421062</title>
<path fill="none" stroke="#191970" d="M265.7199,-437.7014C272.0409,-486.4748 302.5702,-704.3908 349,-751 354.2348,-756.255 360.7463,-760.106 367.6922,-762.919"/>
<polygon fill="#191970" stroke="#191970" points="366.7603,-766.2977 377.354,-766.1459 368.9778,-759.6582 366.7603,-766.2977"/>
</g>
<!-- Node421096&#45;&gt;Node421063 -->
<g id="edge39" class="edge">
<title>Node421096&#45;&gt;Node421063</title>
<path fill="none" stroke="#191970" d="M266.0856,-437.7452C273.6423,-483.0442 307.3651,-672.5352 349,-713 357.5486,-721.3083 369.2967,-726.0897 380.8007,-728.8094"/>
<polygon fill="#191970" stroke="#191970" points="380.2827,-732.2736 390.7609,-730.7056 381.5919,-725.3971 380.2827,-732.2736"/>
</g>
<!-- Node421096&#45;&gt;Node421064 -->
<g id="edge47" class="edge">
<title>Node421096&#45;&gt;Node421064</title>
<path fill="none" stroke="#191970" d="M265.6717,-437.6941C270.0998,-470.0971 288.749,-575.761 349,-632 353.3537,-636.0638 358.4175,-639.4412 363.8015,-642.2478"/>
<polygon fill="#191970" stroke="#191970" points="362.5423,-645.5196 373.096,-646.4526 365.4276,-639.1419 362.5423,-645.5196"/>
</g>
<!-- Node421096&#45;&gt;Node421065 -->
<g id="edge17" class="edge">
<title>Node421096&#45;&gt;Node421065</title>
<path fill="none" stroke="#191970" d="M266.4024,-437.892C272.5853,-467.2775 294.9251,-554.7519 349,-599 399.8941,-640.6453 430.0535,-614.9281 492,-637 526.6942,-649.3618 565.0523,-667.3757 590.2254,-679.8292"/>
<polygon fill="#191970" stroke="#191970" points="588.6823,-682.9707 599.1926,-684.3065 591.8093,-676.7079 588.6823,-682.9707"/>
</g>
<!-- Node421096&#45;&gt;Node421067 -->
<g id="edge20" class="edge">
<title>Node421096&#45;&gt;Node421067</title>
<path fill="none" stroke="#191970" d="M266.3217,-437.5597C277.9671,-498.5809 341.7311,-831.3048 349,-839 353.2376,-843.4861 358.4032,-846.9576 363.9991,-849.6373"/>
<polygon fill="#191970" stroke="#191970" points="363.1468,-853.0618 373.735,-853.4387 365.6929,-846.5412 363.1468,-853.0618"/>
</g>
<!-- Node421096&#45;&gt;Node421071 -->
<g id="edge24" class="edge">
<title>Node421096&#45;&gt;Node421071</title>
<path fill="none" stroke="#191970" d="M265.7728,-418.1942C270.3466,-387.435 289.0005,-292.5512 349,-253 415.6246,-209.0816 635.1724,-212.3842 708,-245 748.5241,-263.1487 778.9312,-307.9339 793.6522,-333.4394"/>
<polygon fill="#191970" stroke="#191970" points="790.7544,-335.4302 798.6723,-342.4699 796.8726,-332.029 790.7544,-335.4302"/>
</g>
<!-- Node421096&#45;&gt;Node421095 -->
<g id="edge21" class="edge">
<title>Node421096&#45;&gt;Node421095</title>
<path fill="none" stroke="#191970" d="M222.8145,-421.3111C204.9603,-416.2619 184.6955,-409.5887 169.1857,-403.5513"/>
<polygon fill="#191970" stroke="#191970" points="170.3343,-400.2398 159.7533,-399.6991 167.6877,-406.7202 170.3343,-400.2398"/>
</g>
<!-- Node421096&#45;&gt;Node421096 -->
<g id="edge22" class="edge">
<title>Node421096&#45;&gt;Node421096</title>
<path fill="none" stroke="#191970" d="M246.0045,-437.7571C237.0067,-446.5653 243.1719,-456 264.5,-456 278.1633,-456 285.6038,-452.128 286.8213,-447.0292"/>
<polygon fill="#191970" stroke="#191970" points="290.0452,-445.6661 282.9955,-437.7571 283.5744,-448.3361 290.0452,-445.6661"/>
</g>
<!-- Node421097 -->
<g id="node18" class="node">
<title>Node421097</title>
<g id="a_node18"><a xlink:href="quickjs_8c.html#a877fcb7651d95b411ce70e62b7f4a1f0" target="_top" xlink:title="__JS_AtomFromUInt32">
<polygon fill="none" stroke="#000000" points="361,-418.5 361,-437.5 480,-437.5 480,-418.5 361,-418.5"/>
<text text-anchor="middle" x="420.5" y="-425.5" font-family="Helvetica,sans-Serif" font-size="10.00" fill="#000000">__JS_AtomFromUInt32</text>
</a>
</g>
</g>
<!-- Node421096&#45;&gt;Node421097 -->
<g id="edge18" class="edge">
<title>Node421096&#45;&gt;Node421097</title>
<path fill="none" stroke="#191970" d="M306.3051,-428C319.9445,-428 335.4811,-428 350.6066,-428"/>
<polygon fill="#191970" stroke="#191970" points="350.9842,-431.5001 360.9841,-428 350.9841,-424.5001 350.9842,-431.5001"/>
</g>
<!-- Node421098 -->
<g id="node19" class="node">
<title>Node421098</title>
<g id="a_node19"><a xlink:href="quickjs_8h.html#a9bf98b18de88b4199910a43e933eb97d" target="_top" xlink:title="__JS_NewFloat64">
<polygon fill="none" stroke="#000000" points="372,-380.5 372,-399.5 469,-399.5 469,-380.5 372,-380.5"/>
<text text-anchor="middle" x="420.5" y="-387.5" font-family="Helvetica,sans-Serif" font-size="10.00" fill="#000000">__JS_NewFloat64</text>
</a>
</g>
</g>
<!-- Node421096&#45;&gt;Node421098 -->
<g id="edge19" class="edge">
<title>Node421096&#45;&gt;Node421098</title>
<path fill="none" stroke="#191970" d="M303.8654,-418.411C324.4513,-413.3965 349.8405,-407.2119 371.669,-401.8947"/>
<polygon fill="#191970" stroke="#191970" points="372.5302,-405.2874 381.4177,-399.5201 370.8734,-398.4863 372.5302,-405.2874"/>
</g>
<!-- Node421096&#45;&gt;Node421142 -->
<g id="edge25" class="edge">
<title>Node421096&#45;&gt;Node421142</title>
<path fill="none" stroke="#191970" d="M266.4648,-418.4156C275.1293,-377.0641 311.175,-214.5104 349,-181 381.0334,-152.6205 500.1472,-136.0337 568.6504,-128.6418"/>
<polygon fill="#191970" stroke="#191970" points="569.2026,-132.1031 578.7814,-127.5757 568.47,-125.1415 569.2026,-132.1031"/>
</g>
<!-- Node421096&#45;&gt;Node421153 -->
<g id="edge26" class="edge">
<title>Node421096&#45;&gt;Node421153</title>
<path fill="none" stroke="#191970" d="M287.4553,-418.2744C295.79,-414.3268 305.0951,-409.4165 313,-404 330.905,-391.7313 329.9607,-381.422 349,-371 353.1475,-368.7297 357.5806,-366.7194 362.1315,-364.9414"/>
<polygon fill="#191970" stroke="#191970" points="363.3171,-368.2347 371.5845,-361.6089 360.9897,-361.6329 363.3171,-368.2347"/>
</g>
<!-- Node421271 -->
<g id="node22" class="node">
<title>Node421271</title>
<g id="a_node22"><a xlink:href="quickjs_8c.html#a23a30fec3b10bfa38c3dc29b4cb1c99d" target="_top" xlink:title="JS_GetPrototype">
<polygon fill="none" stroke="#ff0000" points="572,-254.5 572,-273.5 664,-273.5 664,-254.5 572,-254.5"/>
<text text-anchor="middle" x="618" y="-261.5" font-family="Helvetica,sans-Serif" font-size="10.00" fill="#000000">JS_GetPrototype</text>
</a>
</g>
</g>
<!-- Node421096&#45;&gt;Node421271 -->
<g id="edge37" class="edge">
<title>Node421096&#45;&gt;Node421271</title>
<path fill="none" stroke="#191970" d="M267.4758,-418.2676C275.732,-393.1015 301.5058,-325.7692 349,-296 413.4714,-255.5897 503.8911,-253.4755 561.7122,-257.3926"/>
<polygon fill="#191970" stroke="#191970" points="561.5254,-260.8884 571.7619,-258.1564 562.056,-253.9085 561.5254,-260.8884"/>
</g>
<!-- Node421305 -->
<g id="node23" class="node">
<title>Node421305</title>
<g id="a_node23"><a xlink:href="quickjs_8h.html#aaab426b47c95d00479b7355b1cf7f56c" target="_top" xlink:title="JS_IsUninitialized">
<polygon fill="none" stroke="#000000" points="570.5,-532.5 570.5,-551.5 665.5,-551.5 665.5,-532.5 570.5,-532.5"/>
<text text-anchor="middle" x="618" y="-539.5" font-family="Helvetica,sans-Serif" font-size="10.00" fill="#000000">JS_IsUninitialized</text>
</a>
</g>
</g>
<!-- Node421096&#45;&gt;Node421305 -->
<g id="edge41" class="edge">
<title>Node421096&#45;&gt;Node421305</title>
<path fill="none" stroke="#191970" d="M273.8449,-437.8945C288.4058,-452.658 318.0634,-480.1907 349,-494 417.5122,-524.582 504.0413,-535.6974 560.1765,-539.7266"/>
<polygon fill="#191970" stroke="#191970" points="560.0829,-543.2281 570.2932,-540.3996 560.5476,-536.2435 560.0829,-543.2281"/>
</g>
<!-- Node421158 -->
<g id="node24" class="node">
<title>Node421158</title>
<g id="a_node24"><a xlink:href="quickjs_8h.html#a2050bc428da1c65ac7eb87c3fa3b0392" target="_top" xlink:title="JS_NewInt32">
<polygon fill="none" stroke="#000000" points="580,-456.5 580,-475.5 656,-475.5 656,-456.5 580,-456.5"/>
<text text-anchor="middle" x="618" y="-463.5" font-family="Helvetica,sans-Serif" font-size="10.00" fill="#000000">JS_NewInt32</text>
</a>
</g>
</g>
<!-- Node421096&#45;&gt;Node421158 -->
<g id="edge42" class="edge">
<title>Node421096&#45;&gt;Node421158</title>
<path fill="none" stroke="#191970" d="M301.2933,-437.5394C316.0329,-441.0281 333.2306,-444.6837 349,-447 425.6463,-458.2584 515.594,-462.9007 569.6264,-464.7761"/>
<polygon fill="#191970" stroke="#191970" points="569.8297,-468.2846 579.9395,-465.1154 570.06,-461.2884 569.8297,-468.2846"/>
</g>
<!-- Node421276 -->
<g id="node25" class="node">
<title>Node421276</title>
<g id="a_node25"><a xlink:href="quickjs_8c.html#ab8d0b87c9eed4eb6c054b6f4e1731554" target="_top" xlink:title="JS_ThrowReferenceErrorNot\lDefined">
<polygon fill="none" stroke="#ff0000" points="546.5,-293 546.5,-323 689.5,-323 689.5,-293 546.5,-293"/>
<text text-anchor="start" x="554.5" y="-311" font-family="Helvetica,sans-Serif" font-size="10.00" fill="#000000">JS_ThrowReferenceErrorNot</text>
<text text-anchor="middle" x="618" y="-300" font-family="Helvetica,sans-Serif" font-size="10.00" fill="#000000">Defined</text>
</a>
</g>
</g>
<!-- Node421096&#45;&gt;Node421276 -->
<g id="edge45" class="edge">
<title>Node421096&#45;&gt;Node421276</title>
<path fill="none" stroke="#191970" d="M269.7127,-418.3152C281.0748,-398.3031 310.1961,-352.6256 349,-333 406.8219,-303.7557 480.5761,-298.7943 536.2274,-300.4239"/>
<polygon fill="#191970" stroke="#191970" points="536.2774,-303.928 546.4001,-300.8005 536.5365,-296.9328 536.2774,-303.928"/>
</g>
<!-- Node421308 -->
<g id="node26" class="node">
<title>Node421308</title>
<g id="a_node26"><a xlink:href="quickjs_8c.html#a75ac132a3af4de01e1fadeb0bede6ee7" target="_top" xlink:title="JS_ThrowReferenceErrorUninitialized">
<polygon fill="none" stroke="#ff0000" points="528,-494.5 528,-513.5 708,-513.5 708,-494.5 528,-494.5"/>
<text text-anchor="middle" x="618" y="-501.5" font-family="Helvetica,sans-Serif" font-size="10.00" fill="#000000">JS_ThrowReferenceErrorUninitialized</text>
</a>
</g>
</g>
<!-- Node421096&#45;&gt;Node421308 -->
<g id="edge46" class="edge">
<title>Node421096&#45;&gt;Node421308</title>
<path fill="none" stroke="#191970" d="M281.3965,-437.6194C298.0529,-446.6573 324.4981,-459.8335 349,-467 403.6127,-482.9734 466.5271,-492.1094 517.7739,-497.3047"/>
<polygon fill="#191970" stroke="#191970" points="517.5684,-500.8012 527.8618,-498.292 518.2503,-493.8345 517.5684,-500.8012"/>
</g>
<!-- Node421096&#45;&gt;Node421187 -->
<g id="edge40" class="edge">
<title>Node421096&#45;&gt;Node421187</title>
<path fill="none" stroke="#191970" d="M265.4683,-418.2521C269.6,-380.5234 288.409,-241.5458 349,-148 361.2453,-129.0946 380.8804,-112.6571 396.4787,-101.4661"/>
<polygon fill="#191970" stroke="#191970" points="398.8711,-104.0674 405.11,-95.5042 394.8928,-98.3078 398.8711,-104.0674"/>
</g>
<!-- Node421096&#45;&gt;Node421266 -->
<g id="edge43" class="edge">
<title>Node421096&#45;&gt;Node421266</title>
<path fill="none" stroke="#191970" d="M265.6717,-418.3059C270.0998,-385.9029 288.749,-280.239 349,-224 354.9884,-218.4103 362.3202,-214.1193 369.981,-210.8261"/>
<polygon fill="#191970" stroke="#191970" points="371.2878,-214.0741 379.4205,-207.2837 368.8283,-207.5204 371.2878,-214.0741"/>
</g>
<!-- Node421153&#45;&gt;Node421069 -->
<g id="edge27" class="edge">
<title>Node421153&#45;&gt;Node421069</title>
<path fill="none" stroke="#191970" d="M469.8905,-361.5545C477.5557,-364.0369 485.1834,-367.1375 492,-371 511.4151,-382.0013 508.3912,-395.3478 528,-406 600.0976,-445.1661 651.057,-387.9277 708,-447 767.6482,-508.8786 687.0391,-572.6391 744,-637 745.1858,-638.3398 746.4659,-639.5859 747.8233,-640.7447"/>
<polygon fill="#191970" stroke="#191970" points="746.0741,-643.7865 756.3228,-646.4728 749.9862,-637.9817 746.0741,-643.7865"/>
</g>
<!-- Node421153&#45;&gt;Node421070 -->
<g id="edge28" class="edge">
<title>Node421153&#45;&gt;Node421070</title>
<path fill="none" stroke="#191970" d="M477.7034,-361.5323C556.3152,-375.0543 690.1031,-399.7429 708,-414 768.3891,-462.1076 792.4337,-557.3517 800.2743,-598.4102"/>
<polygon fill="#191970" stroke="#191970" points="796.8674,-599.2419 802.0728,-608.4698 803.7582,-598.0098 796.8674,-599.2419"/>
</g>
<!-- Node421153&#45;&gt;Node421071 -->
<g id="edge30" class="edge">
<title>Node421153&#45;&gt;Node421071</title>
<path fill="none" stroke="#191970" d="M480.3438,-352C555.8873,-352 684.4098,-352 754.4482,-352"/>
<polygon fill="#191970" stroke="#191970" points="754.757,-355.5001 764.757,-352 754.757,-348.5001 754.757,-355.5001"/>
</g>
<!-- Node421153&#45;&gt;Node421095 -->
<g id="edge29" class="edge">
<title>Node421153&#45;&gt;Node421095</title>
<path fill="none" stroke="#191970" d="M360.8254,-360.2012C309.4986,-367.2552 236.5398,-377.2821 189.7323,-383.7149"/>
<polygon fill="#191970" stroke="#191970" points="189.0118,-380.2809 179.5815,-385.11 189.9649,-387.2158 189.0118,-380.2809"/>
</g>
<!-- Node421153&#45;&gt;Node421142 -->
<g id="edge31" class="edge">
<title>Node421153&#45;&gt;Node421142</title>
<path fill="none" stroke="#191970" d="M428.7349,-342.4934C458.912,-307.656 563.726,-186.6556 602.9923,-141.3254"/>
<polygon fill="#191970" stroke="#191970" points="605.828,-143.3973 609.73,-133.5472 600.537,-138.8141 605.828,-143.3973"/>
</g>
<!-- Node421153&#45;&gt;Node421271 -->
<g id="edge32" class="edge">
<title>Node421153&#45;&gt;Node421271</title>
<path fill="none" stroke="#191970" d="M432.6254,-342.3257C451.7618,-327.5393 490.6423,-299.4147 528,-284 538.6428,-279.6085 550.41,-276.1059 561.8297,-273.3393"/>
<polygon fill="#191970" stroke="#191970" points="562.7596,-276.7174 571.7387,-271.0937 561.2124,-269.8906 562.7596,-276.7174"/>
</g>
<!-- Node421153&#45;&gt;Node421305 -->
<g id="edge33" class="edge">
<title>Node421153&#45;&gt;Node421305</title>
<path fill="none" stroke="#191970" d="M478.9707,-361.5291C483.7854,-364.0252 488.2377,-367.1341 492,-371 540.419,-420.753 478.3118,-474.5146 528,-523 536.7507,-531.5389 548.3173,-536.6698 560.2326,-539.6673"/>
<polygon fill="#191970" stroke="#191970" points="559.772,-543.1453 570.2694,-541.7115 561.1691,-536.2861 559.772,-543.1453"/>
</g>
<!-- Node421153&#45;&gt;Node421158 -->
<g id="edge34" class="edge">
<title>Node421153&#45;&gt;Node421158</title>
<path fill="none" stroke="#191970" d="M475.9124,-361.5631C481.7003,-364.0277 487.2086,-367.1204 492,-371 519.4966,-393.2641 500.5131,-419.7239 528,-442 539.8409,-451.5962 555.162,-457.3795 569.7959,-460.8568"/>
<polygon fill="#191970" stroke="#191970" points="569.2649,-464.3209 579.7659,-462.9142 570.6797,-457.4653 569.2649,-464.3209"/>
</g>
<!-- Node421153&#45;&gt;Node421276 -->
<g id="edge35" class="edge">
<title>Node421153&#45;&gt;Node421276</title>
<path fill="none" stroke="#191970" d="M463.3546,-342.4527C485.8885,-337.4324 514.2126,-331.1223 540.4429,-325.2785"/>
<polygon fill="#191970" stroke="#191970" points="541.3775,-328.6562 550.3771,-323.0654 539.8552,-321.8237 541.3775,-328.6562"/>
</g>
<!-- Node421153&#45;&gt;Node421308 -->
<g id="edge36" class="edge">
<title>Node421153&#45;&gt;Node421308</title>
<path fill="none" stroke="#191970" d="M478.3303,-361.6506C483.3359,-364.117 488.0056,-367.1858 492,-371 530.4275,-407.6939 488.6374,-449.3112 528,-485 529.5528,-486.4078 531.1829,-487.7213 532.8784,-488.9463"/>
<polygon fill="#191970" stroke="#191970" points="531.4752,-492.1876 541.8445,-494.362 535.0944,-486.1958 531.4752,-492.1876"/>
</g>
<!-- Node421266&#45;&gt;Node421071 -->
<g id="edge44" class="edge">
<title>Node421266&#45;&gt;Node421071</title>
<path fill="none" stroke="#191970" d="M461.6655,-190.8207C520.4113,-180.0165 629.8237,-168.5854 708,-212 756.0675,-238.6939 784.8476,-301.0178 796.8853,-332.7288"/>
<polygon fill="#191970" stroke="#191970" points="793.6264,-334.0089 800.3295,-342.2137 800.2061,-331.6196 793.6264,-334.0089"/>
</g>
<!-- Node421381&#45;&gt;Node421142 -->
<g id="edge50" class="edge">
<title>Node421381&#45;&gt;Node421142</title>
<path fill="none" stroke="#191970" d="M180.1249,-6.1916C244.8302,-.7248 383.8409,4.8148 492,-34 536.1683,-49.8506 578.6871,-85.9316 601.2691,-107.2835"/>
<polygon fill="#191970" stroke="#191970" points="599.0296,-109.9866 608.6528,-114.4188 603.8939,-104.9528 599.0296,-109.9866"/>
</g>
<!-- Node421369&#45;&gt;Node421069 -->
<g id="edge53" class="edge">
<title>Node421369&#45;&gt;Node421069</title>
<path fill="none" stroke="#191970" d="M448.9577,-589.5639C480.4635,-600.1474 526.9888,-615.7593 528,-616 597.0502,-632.4348 677.5426,-643.1772 733.6248,-649.3496"/>
<polygon fill="#191970" stroke="#191970" points="733.4862,-652.8549 743.8043,-650.4493 734.2381,-645.8954 733.4862,-652.8549"/>
</g>
<!-- Node421369&#45;&gt;Node421070 -->
<g id="edge54" class="edge">
<title>Node421369&#45;&gt;Node421070</title>
<path fill="none" stroke="#191970" d="M490.1297,-589.508C502.7229,-591.1022 515.7445,-592.6688 528,-594 600.2307,-601.846 683.3364,-608.8025 739.2194,-613.1794"/>
<polygon fill="#191970" stroke="#191970" points="739.087,-616.6796 749.3285,-613.9663 739.6303,-609.7007 739.087,-616.6796"/>
</g>
<!-- Node421369&#45;&gt;Node421071 -->
<g id="edge55" class="edge">
<title>Node421369&#45;&gt;Node421071</title>
<path fill="none" stroke="#191970" d="M490.1134,-583.3704C563.7549,-585.5646 673.9325,-584.5119 708,-561 773.403,-515.8617 794.8457,-414.4256 801.1413,-371.6348"/>
<polygon fill="#191970" stroke="#191970" points="804.6198,-372.0281 802.4867,-361.6502 797.6825,-371.0932 804.6198,-372.0281"/>
</g>
<!-- Node421369&#45;&gt;Node421305 -->
<g id="edge56" class="edge">
<title>Node421369&#45;&gt;Node421305</title>
<path fill="none" stroke="#191970" d="M470.0827,-570.46C497.578,-565.1698 531.9008,-558.5659 560.5604,-553.0517"/>
<polygon fill="#191970" stroke="#191970" points="561.2825,-556.477 570.441,-551.1506 559.9598,-549.6031 561.2825,-556.477"/>
</g>
<!-- Node421369&#45;&gt;Node421308 -->
<g id="edge57" class="edge">
<title>Node421369&#45;&gt;Node421308</title>
<path fill="none" stroke="#191970" d="M435.1927,-570.4922C455.3439,-557.8612 493.047,-535.6717 528,-523 535.2838,-520.3594 543.0392,-518.0372 550.8259,-516.0077"/>
<polygon fill="#191970" stroke="#191970" points="551.7948,-519.3738 560.6726,-513.5915 550.1266,-512.5755 551.7948,-519.3738"/>
</g>
</g>
</svg>
