<?xml version="1.0" encoding="UTF-8" standalone="no"?>
<!DOCTYPE svg PUBLIC "-//W3C//DTD SVG 1.1//EN"
 "http://www.w3.org/Graphics/SVG/1.1/DTD/svg11.dtd">
<!-- Generated by graphviz version 2.40.1 (20161225.0304)
 -->
<!-- Title: js_free_modules Pages: 1 -->
<svg width="663pt" height="218pt"
 viewBox="0.00 0.00 663.00 218.00" xmlns="http://www.w3.org/2000/svg" xmlns:xlink="http://www.w3.org/1999/xlink">
<g id="graph0" class="graph" transform="scale(1 1) rotate(0) translate(4 214)">
<title>js_free_modules</title>
<!-- Node67744 -->
<g id="node1" class="node">
<title>Node67744</title>
<polygon fill="#bfbfbf" stroke="#000000" points="0,-114.5 0,-133.5 88,-133.5 88,-114.5 0,-114.5"/>
<text text-anchor="middle" x="44" y="-121.5" font-family="Helvetica,sans-Serif" font-size="10.00" fill="#000000">js_free_modules</text>
</g>
<!-- Node67745 -->
<g id="node2" class="node">
<title>Node67745</title>
<g id="a_node2"><a xlink:href="quickjs_8c.html#a6357b7fdae71c70c140e78e6c20cb5c2" target="_top" xlink:title="js_dynamic_import_job">
<polygon fill="none" stroke="#000000" points="127.5,-180.5 127.5,-199.5 243.5,-199.5 243.5,-180.5 127.5,-180.5"/>
<text text-anchor="middle" x="185.5" y="-187.5" font-family="Helvetica,sans-Serif" font-size="10.00" fill="#000000">js_dynamic_import_job</text>
</a>
</g>
</g>
<!-- Node67744&#45;&gt;Node67745 -->
<g id="edge1" class="edge">
<title>Node67744&#45;&gt;Node67745</title>
<path fill="none" stroke="#191970" d="M73.3595,-138.0854C88.464,-145.2964 107.188,-154.1807 124,-162 137.403,-168.2338 152.5108,-175.1142 164.3982,-180.4945"/>
<polygon fill="#191970" stroke="#191970" points="74.5444,-134.7725 64.0128,-133.6164 71.5248,-141.0877 74.5444,-134.7725"/>
</g>
<!-- Node67895 -->
<g id="node5" class="node">
<title>Node67895</title>
<g id="a_node5"><a xlink:href="quickjs_8c.html#a5d217acce00892ab2b50a1dcc1eb4cc8" target="_top" xlink:title="JS_EvalFunctionInternal">
<polygon fill="none" stroke="#ff0000" points="124,-133.5 124,-152.5 247,-152.5 247,-133.5 124,-133.5"/>
<text text-anchor="middle" x="185.5" y="-140.5" font-family="Helvetica,sans-Serif" font-size="10.00" fill="#000000">JS_EvalFunctionInternal</text>
</a>
</g>
</g>
<!-- Node67744&#45;&gt;Node67895 -->
<g id="edge5" class="edge">
<title>Node67744&#45;&gt;Node67895</title>
<path fill="none" stroke="#191970" d="M98.3801,-131.3019C106.7343,-132.4237 115.4107,-133.5887 123.9079,-134.7297"/>
<polygon fill="#191970" stroke="#191970" points="98.7601,-127.8216 88.3832,-129.9596 97.8285,-134.7594 98.7601,-127.8216"/>
</g>
<!-- Node68330 -->
<g id="node6" class="node">
<title>Node68330</title>
<g id="a_node6"><a xlink:href="quickjs_8c.html#a1b4fe6eb1b7bcaec6713bd5ac2921f1b" target="_top" xlink:title="JS_FreeContext">
<polygon fill="none" stroke="#000000" points="141.5,-95.5 141.5,-114.5 229.5,-114.5 229.5,-95.5 141.5,-95.5"/>
<text text-anchor="middle" x="185.5" y="-102.5" font-family="Helvetica,sans-Serif" font-size="10.00" fill="#000000">JS_FreeContext</text>
</a>
</g>
</g>
<!-- Node67744&#45;&gt;Node68330 -->
<g id="edge6" class="edge">
<title>Node67744&#45;&gt;Node68330</title>
<path fill="none" stroke="#191970" d="M98.493,-116.6829C112.6478,-114.7823 127.7203,-112.7584 141.2742,-110.9384"/>
<polygon fill="#191970" stroke="#191970" points="97.8285,-113.2406 88.3832,-118.0404 98.7601,-120.1784 97.8285,-113.2406"/>
</g>
<!-- Node68462 -->
<g id="node13" class="node">
<title>Node68462</title>
<g id="a_node13"><a xlink:href="quickjs_8c.html#a3178c361614999c86711f292c035a706" target="_top" xlink:title="JS_ResolveModule">
<polygon fill="none" stroke="#000000" points="135,-38.5 135,-57.5 236,-57.5 236,-38.5 135,-38.5"/>
<text text-anchor="middle" x="185.5" y="-45.5" font-family="Helvetica,sans-Serif" font-size="10.00" fill="#000000">JS_ResolveModule</text>
</a>
</g>
</g>
<!-- Node67744&#45;&gt;Node68462 -->
<g id="edge14" class="edge">
<title>Node67744&#45;&gt;Node68462</title>
<path fill="none" stroke="#191970" d="M70.9132,-109.5449C99.3399,-94.2768 143.3485,-70.6397 167.7244,-57.5473"/>
<polygon fill="#191970" stroke="#191970" points="69.0747,-106.5594 61.9211,-114.3745 72.3869,-112.7262 69.0747,-106.5594"/>
</g>
<!-- Node67746 -->
<g id="node3" class="node">
<title>Node67746</title>
<g id="a_node3"><a xlink:href="quickjs_8c.html#a50e94675d1c4cf67c88e72169ea3c21a" target="_top" xlink:title="js_dynamic_import">
<polygon fill="none" stroke="#000000" points="437.5,-190.5 437.5,-209.5 535.5,-209.5 535.5,-190.5 437.5,-190.5"/>
<text text-anchor="middle" x="486.5" y="-197.5" font-family="Helvetica,sans-Serif" font-size="10.00" fill="#000000">js_dynamic_import</text>
</a>
</g>
</g>
<!-- Node67745&#45;&gt;Node67746 -->
<g id="edge2" class="edge">
<title>Node67745&#45;&gt;Node67746</title>
<path fill="none" stroke="#191970" d="M253.6929,-192.2655C309.5114,-194.12 387.1447,-196.6992 437.112,-198.3592"/>
<polygon fill="#191970" stroke="#191970" points="253.6466,-188.7622 243.5358,-191.9281 253.4141,-195.7583 253.6466,-188.7622"/>
</g>
<!-- Node67747 -->
<g id="node4" class="node">
<title>Node67747</title>
<g id="a_node4"><a xlink:href="quickjs_8c.html#ac2894ff4edcdb4e6841bcce9c76081e3" target="_top" xlink:title="JS_CallInternal">
<polygon fill="none" stroke="#ff0000" points="572,-152.5 572,-171.5 655,-171.5 655,-152.5 572,-152.5"/>
<text text-anchor="middle" x="613.5" y="-159.5" font-family="Helvetica,sans-Serif" font-size="10.00" fill="#000000">JS_CallInternal</text>
</a>
</g>
</g>
<!-- Node67746&#45;&gt;Node67747 -->
<g id="edge3" class="edge">
<title>Node67746&#45;&gt;Node67747</title>
<path fill="none" stroke="#191970" d="M528.3943,-187.4647C545.6712,-182.2952 565.3707,-176.4009 581.4628,-171.5859"/>
<polygon fill="#191970" stroke="#191970" points="527.1245,-184.1912 518.5475,-190.411 529.1311,-190.8975 527.1245,-184.1912"/>
</g>
<!-- Node67747&#45;&gt;Node67747 -->
<g id="edge4" class="edge">
<title>Node67747&#45;&gt;Node67747</title>
<path fill="none" stroke="#191970" d="M590.0626,-181.0292C591.341,-186.128 599.1535,-190 613.5,-190 635.8945,-190 642.368,-180.5653 632.9203,-171.7571"/>
<polygon fill="#191970" stroke="#191970" points="593.3158,-182.3243 594.0797,-171.7571 586.8927,-179.5415 593.3158,-182.3243"/>
</g>
<!-- Node68331 -->
<g id="node7" class="node">
<title>Node68331</title>
<g id="a_node7"><a xlink:href="classqjs_1_1Context.html#a5aeaa5a266944f0d9d515d2b8eac767f" target="_top" xlink:title="qjs::Context::~Context">
<polygon fill="none" stroke="#000000" points="284,-152.5 284,-171.5 400,-171.5 400,-152.5 284,-152.5"/>
<text text-anchor="middle" x="342" y="-159.5" font-family="Helvetica,sans-Serif" font-size="10.00" fill="#000000">qjs::Context::~Context</text>
</a>
</g>
</g>
<!-- Node68330&#45;&gt;Node68331 -->
<g id="edge7" class="edge">
<title>Node68330&#45;&gt;Node68331</title>
<path fill="none" stroke="#191970" d="M230.0155,-117.6715C235.7889,-119.6295 241.5763,-121.7539 247,-124 263.715,-130.9223 266.3265,-135.9784 283,-143 291.2316,-146.4665 300.3274,-149.6825 308.8618,-152.4459"/>
<polygon fill="#191970" stroke="#191970" points="230.9712,-114.302 220.379,-114.5414 228.8085,-120.9596 230.9712,-114.302"/>
</g>
<!-- Node68332 -->
<g id="node8" class="node">
<title>Node68332</title>
<g id="a_node8"><a xlink:href="quickjs_8c.html#af2bcf1faee5b5dd948692540d9cce73e" target="_top" xlink:title="js_autoinit_free">
<polygon fill="none" stroke="#000000" points="300.5,-114.5 300.5,-133.5 383.5,-133.5 383.5,-114.5 300.5,-114.5"/>
<text text-anchor="middle" x="342" y="-121.5" font-family="Helvetica,sans-Serif" font-size="10.00" fill="#000000">js_autoinit_free</text>
</a>
</g>
</g>
<!-- Node68330&#45;&gt;Node68332 -->
<g id="edge8" class="edge">
<title>Node68330&#45;&gt;Node68332</title>
<path fill="none" stroke="#191970" d="M239.687,-111.5786C259.6088,-113.9972 281.8359,-116.6957 300.4701,-118.958"/>
<polygon fill="#191970" stroke="#191970" points="239.8594,-108.0739 229.5105,-110.3431 239.0157,-115.0229 239.8594,-108.0739"/>
</g>
<!-- Node68461 -->
<g id="node11" class="node">
<title>Node68461</title>
<g id="a_node11"><a xlink:href="quickjs_8c.html#a7fc69d7fe9fa0f902d0d9a3640634711" target="_top" xlink:title="js_c_function_finalizer">
<polygon fill="none" stroke="#000000" points="285.5,-76.5 285.5,-95.5 398.5,-95.5 398.5,-76.5 285.5,-76.5"/>
<text text-anchor="middle" x="342" y="-83.5" font-family="Helvetica,sans-Serif" font-size="10.00" fill="#000000">js_c_function_finalizer</text>
</a>
</g>
</g>
<!-- Node68330&#45;&gt;Node68461 -->
<g id="edge12" class="edge">
<title>Node68330&#45;&gt;Node68461</title>
<path fill="none" stroke="#191970" d="M239.5399,-98.4392C254.367,-96.6392 270.4804,-94.6829 285.4446,-92.8662"/>
<polygon fill="#191970" stroke="#191970" points="239.0157,-94.9771 229.5105,-99.6569 239.8594,-101.9261 239.0157,-94.9771"/>
</g>
<!-- Node68394 -->
<g id="node12" class="node">
<title>Node68394</title>
<g id="a_node12"><a xlink:href="quickjs_8c.html#adc4a49d7eb1cc1ec4b3a8c37ab8cb075" target="_top" xlink:title="free_function_bytecode">
<polygon fill="none" stroke="#ff0000" points="283,-38.5 283,-57.5 401,-57.5 401,-38.5 283,-38.5"/>
<text text-anchor="middle" x="342" y="-45.5" font-family="Helvetica,sans-Serif" font-size="10.00" fill="#000000">free_function_bytecode</text>
</a>
</g>
</g>
<!-- Node68330&#45;&gt;Node68394 -->
<g id="edge13" class="edge">
<title>Node68330&#45;&gt;Node68394</title>
<path fill="none" stroke="#191970" d="M218.3131,-91.6441C237.1398,-84.1241 261.2807,-74.7218 283,-67 292.1254,-63.7557 302.1267,-60.4442 311.2601,-57.5137"/>
<polygon fill="#191970" stroke="#191970" points="216.9692,-88.4121 208.9934,-95.3862 219.5775,-94.908 216.9692,-88.4121"/>
</g>
<!-- Node68333 -->
<g id="node9" class="node">
<title>Node68333</title>
<g id="a_node9"><a xlink:href="quickjs_8c.html#af4274494e2e45f9018154ffcbb7e89e4" target="_top" xlink:title="free_property">
<polygon fill="none" stroke="#ff0000" points="449.5,-152.5 449.5,-171.5 523.5,-171.5 523.5,-152.5 449.5,-152.5"/>
<text text-anchor="middle" x="486.5" y="-159.5" font-family="Helvetica,sans-Serif" font-size="10.00" fill="#000000">free_property</text>
</a>
</g>
</g>
<!-- Node68332&#45;&gt;Node68333 -->
<g id="edge9" class="edge">
<title>Node68332&#45;&gt;Node68333</title>
<path fill="none" stroke="#191970" d="M388.3325,-136.1843C408.3939,-141.46 431.5285,-147.5438 450.2988,-152.4799"/>
<polygon fill="#191970" stroke="#191970" points="389.0248,-132.7474 378.4635,-133.589 387.2445,-139.5173 389.0248,-132.7474"/>
</g>
<!-- Node67874 -->
<g id="node10" class="node">
<title>Node67874</title>
<g id="a_node10"><a xlink:href="quickjs_8c.html#ab50618f1bf78e444caa6da0e3e2785d7" target="_top" xlink:title="JS_DefineProperty">
<polygon fill="none" stroke="#ff0000" points="437,-114.5 437,-133.5 536,-133.5 536,-114.5 437,-114.5"/>
<text text-anchor="middle" x="486.5" y="-121.5" font-family="Helvetica,sans-Serif" font-size="10.00" fill="#000000">JS_DefineProperty</text>
</a>
</g>
</g>
<!-- Node68332&#45;&gt;Node67874 -->
<g id="edge10" class="edge">
<title>Node68332&#45;&gt;Node67874</title>
<path fill="none" stroke="#191970" d="M394.1895,-124C408.1066,-124 423.1021,-124 436.8771,-124"/>
<polygon fill="#191970" stroke="#191970" points="393.7954,-120.5001 383.7954,-124 393.7954,-127.5001 393.7954,-120.5001"/>
</g>
<!-- Node67874&#45;&gt;Node67747 -->
<g id="edge11" class="edge">
<title>Node67874&#45;&gt;Node67747</title>
<path fill="none" stroke="#191970" d="M528.3943,-136.5353C545.6712,-141.7048 565.3707,-147.5991 581.4628,-152.4141"/>
<polygon fill="#191970" stroke="#191970" points="529.1311,-133.1025 518.5475,-133.589 527.1245,-139.8088 529.1311,-133.1025"/>
</g>
<!-- Node67897 -->
<g id="node14" class="node">
<title>Node67897</title>
<g id="a_node14"><a xlink:href="quickjs-libc_8c.html#ab1b439d304c2125490b47ef262b5df67" target="_top" xlink:title="js_std_eval_binary">
<polygon fill="none" stroke="#000000" points="293,-.5 293,-19.5 391,-19.5 391,-.5 293,-.5"/>
<text text-anchor="middle" x="342" y="-7.5" font-family="Helvetica,sans-Serif" font-size="10.00" fill="#000000">js_std_eval_binary</text>
</a>
</g>
</g>
<!-- Node68462&#45;&gt;Node67897 -->
<g id="edge15" class="edge">
<title>Node68462&#45;&gt;Node67897</title>
<path fill="none" stroke="#191970" d="M234.7892,-36.032C256.7203,-30.7069 282.1849,-24.5238 302.7924,-19.5201"/>
<polygon fill="#191970" stroke="#191970" points="233.8833,-32.6502 224.9916,-38.411 235.5351,-39.4525 233.8833,-32.6502"/>
</g>
</g>
</svg>
