<?xml version="1.0" encoding="UTF-8" standalone="no"?>
<!DOCTYPE svg PUBLIC "-//W3C//DTD SVG 1.1//EN"
 "http://www.w3.org/Graphics/SVG/1.1/DTD/svg11.dtd">
<!-- Generated by graphviz version 2.40.1 (20161225.0304)
 -->
<!-- Title: JS_NewArray Pages: 1 -->
<!--zoomable 1114 -->
<svg id="main" version="1.1" xmlns="http://www.w3.org/2000/svg" xmlns:xlink="http://www.w3.org/1999/xlink" xml:space="preserve" onload="init(evt)">
<style type="text/css"><![CDATA[
.edge:hover path { stroke: red; }
.edge:hover polygon { stroke: red; fill: red; }
]]></style>
<script type="text/javascript"><![CDATA[
var edges = document.getElementsByTagName('g');
if (edges && edges.length) {
  for (var i=0;i<edges.length;i++) {
    if (edges[i].id.substr(0,4)=='edge') {
      edges[i].setAttribute('class','edge');
    }
  }
}
]]></script>
        <defs>
                <circle id="rim" cx="0" cy="0" r="7"/>
                <circle id="rim2" cx="0" cy="0" r="3.5"/>
                <g id="zoomPlus">
                        <use xlink:href="#rim" fill="#404040">
                                <set attributeName="fill" to="#808080" begin="zoomplus.mouseover" end="zoomplus.mouseout"/>
                        </use>
                        <path d="M-4,0h8M0,-4v8" fill="none" stroke="white" stroke-width="1.5" pointer-events="none"/>
                </g>
                <g id="zoomMin">
                        <use xlink:href="#rim" fill="#404040">
                                <set attributeName="fill" to="#808080" begin="zoomminus.mouseover" end="zoomminus.mouseout"/>
                        </use>
                        <path d="M-4,0h8" fill="none" stroke="white" stroke-width="1.5" pointer-events="none"/>
                </g>
                <g id="dirArrow">
                        <path fill="none" stroke="white" stroke-width="1.5" d="M0,-3.0v7 M-2.5,-0.5L0,-3.0L2.5,-0.5"/>
                </g>
               <g id="resetDef">
                       <use xlink:href="#rim2" fill="#404040">
                               <set attributeName="fill" to="#808080" begin="reset.mouseover" end="reset.mouseout"/>
                       </use>
               </g>
        </defs>

<script type="text/javascript">
var viewWidth = 403;
var viewHeight = 1114;
var sectionId = 'dynsection-162';
</script>
<script xlink:href="svgpan.js"/>
<svg id="graph" class="graph">
<g id="viewport">
<title>JS_NewArray</title>
<!-- Node54420 -->
<g id="node1" class="node">
<title>Node54420</title>
<polygon fill="#bfbfbf" stroke="#000000" points="0,-561 0,-580 77,-580 77,-561 0,-561"/>
<text text-anchor="middle" x="38.5" y="-568" font-family="Helvetica,sans-Serif" font-size="10.00" fill="#000000">JS_NewArray</text>
</g>
<!-- Node54421 -->
<g id="node2" class="node">
<title>Node54421</title>
<g id="a_node2"><a xlink:href="quickjs_8c.html#a9f70dbefcf33550d6f9e588c05c9ffef" target="_top" xlink:title="iterator_to_array">
<polygon fill="none" stroke="#000000" points="141,-1086 141,-1105 228,-1105 228,-1086 141,-1086"/>
<text text-anchor="middle" x="184.5" y="-1093" font-family="Helvetica,sans-Serif" font-size="10.00" fill="#000000">iterator_to_array</text>
</a>
</g>
</g>
<!-- Node54420&#45;&gt;Node54421 -->
<g id="edge1" class="edge">
<title>Node54420&#45;&gt;Node54421</title>
<path fill="none" stroke="#191970" d="M40.1317,-590.2957C47.6337,-679.2607 79.8654,-1039.372 113,-1076.5 120.1838,-1084.5495 130.3513,-1089.3622 140.7711,-1092.1956"/>
<polygon fill="#191970" stroke="#191970" points="43.6096,-589.884 39.2897,-580.2099 36.6339,-590.4664 43.6096,-589.884"/>
</g>
<!-- Node54425 -->
<g id="node4" class="node">
<title>Node54425</title>
<g id="a_node4"><a xlink:href="quickjs_8c.html#abeb62c764d89030ee284963156b33241" target="_top" xlink:title="js_aggregate_error\l_errors">
<polygon fill="none" stroke="#000000" points="136,-1036.5 136,-1066.5 233,-1066.5 233,-1036.5 136,-1036.5"/>
<text text-anchor="start" x="144" y="-1054.5" font-family="Helvetica,sans-Serif" font-size="10.00" fill="#000000">js_aggregate_error</text>
<text text-anchor="middle" x="184.5" y="-1043.5" font-family="Helvetica,sans-Serif" font-size="10.00" fill="#000000">_errors</text>
</a>
</g>
</g>
<!-- Node54420&#45;&gt;Node54425 -->
<g id="edge3" class="edge">
<title>Node54420&#45;&gt;Node54425</title>
<path fill="none" stroke="#191970" d="M39.1151,-590.3072C41.9431,-669.0217 56.1107,-958.7099 113,-1026.5 119.0019,-1033.6519 127.1743,-1038.7597 135.8517,-1042.4071"/>
<polygon fill="#191970" stroke="#191970" points="42.612,-590.1521 38.7764,-580.2759 35.6159,-590.3884 42.612,-590.1521"/>
</g>
<!-- Node54426 -->
<g id="node5" class="node">
<title>Node54426</title>
<g id="a_node5"><a xlink:href="quickjs_8c.html#aa0bbf08a7e91459c68a312fba7016c6d" target="_top" xlink:title="js_array_every">
<polygon fill="none" stroke="#000000" points="144.5,-998 144.5,-1017 224.5,-1017 224.5,-998 144.5,-998"/>
<text text-anchor="middle" x="184.5" y="-1005" font-family="Helvetica,sans-Serif" font-size="10.00" fill="#000000">js_array_every</text>
</a>
</g>
</g>
<!-- Node54420&#45;&gt;Node54426 -->
<g id="edge4" class="edge">
<title>Node54420&#45;&gt;Node54426</title>
<path fill="none" stroke="#191970" d="M39.3038,-590.6596C42.7119,-665.9188 58.4041,-929.1525 113,-988.5 121.0871,-997.2909 132.7345,-1002.2022 144.2881,-1004.8924"/>
<polygon fill="#191970" stroke="#191970" points="42.783,-590.096 38.8583,-580.2549 35.7894,-590.3956 42.783,-590.096"/>
</g>
<!-- Node54427 -->
<g id="node6" class="node">
<title>Node54427</title>
<g id="a_node6"><a xlink:href="quickjs_8c.html#a5e32da9a43002cb96dcbd62a1a340144" target="_top" xlink:title="js_array_from">
<polygon fill="none" stroke="#000000" points="146.5,-960 146.5,-979 222.5,-979 222.5,-960 146.5,-960"/>
<text text-anchor="middle" x="184.5" y="-967" font-family="Helvetica,sans-Serif" font-size="10.00" fill="#000000">js_array_from</text>
</a>
</g>
</g>
<!-- Node54420&#45;&gt;Node54427 -->
<g id="edge5" class="edge">
<title>Node54420&#45;&gt;Node54427</title>
<path fill="none" stroke="#191970" d="M39.6647,-590.1761C44.2141,-660.3706 63.064,-897.1473 113,-950.5 121.6013,-959.6898 134.0952,-964.6281 146.241,-967.2231"/>
<polygon fill="#191970" stroke="#191970" points="43.1498,-589.8252 39.035,-580.0621 36.1633,-590.2603 43.1498,-589.8252"/>
</g>
<!-- Node54428 -->
<g id="node7" class="node">
<title>Node54428</title>
<g id="a_node7"><a xlink:href="quickjs_8c.html#a54596af885c45bf0281d53985349e9ef" target="_top" xlink:title="js_array_from_iterator">
<polygon fill="none" stroke="#ff0000" points="129,-922 129,-941 240,-941 240,-922 129,-922"/>
<text text-anchor="middle" x="184.5" y="-929" font-family="Helvetica,sans-Serif" font-size="10.00" fill="#000000">js_array_from_iterator</text>
</a>
</g>
</g>
<!-- Node54420&#45;&gt;Node54428 -->
<g id="edge6" class="edge">
<title>Node54420&#45;&gt;Node54428</title>
<path fill="none" stroke="#191970" d="M40.1405,-590.2943C45.9776,-655.9807 67.847,-865.2563 113,-912.5 117.4372,-917.1426 122.8686,-920.6965 128.7366,-923.4098"/>
<polygon fill="#191970" stroke="#191970" points="43.6062,-589.7444 39.261,-580.0816 36.632,-590.3451 43.6062,-589.7444"/>
</g>
<!-- Node54435 -->
<g id="node8" class="node">
<title>Node54435</title>
<g id="a_node8"><a xlink:href="quickjs_8c.html#aed64f4c93145310216f62d7548856b8d" target="_top" xlink:title="js_array_of">
<polygon fill="none" stroke="#000000" points="152,-884 152,-903 217,-903 217,-884 152,-884"/>
<text text-anchor="middle" x="184.5" y="-891" font-family="Helvetica,sans-Serif" font-size="10.00" fill="#000000">js_array_of</text>
</a>
</g>
</g>
<!-- Node54420&#45;&gt;Node54435 -->
<g id="edge7" class="edge">
<title>Node54420&#45;&gt;Node54435</title>
<path fill="none" stroke="#191970" d="M40.7391,-590.4369C47.9709,-651.3416 72.6076,-833.3162 113,-874.5 123.0728,-884.7701 138.0174,-889.6906 151.643,-891.9766"/>
<polygon fill="#191970" stroke="#191970" points="44.1854,-589.7708 39.5581,-580.2399 37.2319,-590.5762 44.1854,-589.7708"/>
</g>
<!-- Node54436 -->
<g id="node9" class="node">
<title>Node54436</title>
<g id="a_node9"><a xlink:href="quickjs_8c.html#a72f4829a5b32f5445fe3f2a59efeb8ea" target="_top" xlink:title="js_build_rest">
<polygon fill="none" stroke="#000000" points="149,-846 149,-865 220,-865 220,-846 149,-846"/>
<text text-anchor="middle" x="184.5" y="-853" font-family="Helvetica,sans-Serif" font-size="10.00" fill="#000000">js_build_rest</text>
</a>
</g>
</g>
<!-- Node54420&#45;&gt;Node54436 -->
<g id="edge8" class="edge">
<title>Node54420&#45;&gt;Node54436</title>
<path fill="none" stroke="#191970" d="M41.7171,-590.329C50.947,-644.9586 79.0421,-795.9501 113,-831.5 122.4061,-841.3471 135.97,-847.1543 148.7612,-850.579"/>
<polygon fill="#191970" stroke="#191970" points="45.128,-589.5028 40.0386,-580.2105 38.2224,-590.6485 45.128,-589.5028"/>
</g>
<!-- Node54437 -->
<g id="node10" class="node">
<title>Node54437</title>
<g id="a_node10"><a xlink:href="quickjs_8c.html#ac2894ff4edcdb4e6841bcce9c76081e3" target="_top" xlink:title="JS_CallInternal">
<polygon fill="none" stroke="#ff0000" points="302,-827 302,-846 385,-846 385,-827 302,-827"/>
<text text-anchor="middle" x="343.5" y="-834" font-family="Helvetica,sans-Serif" font-size="10.00" fill="#000000">JS_CallInternal</text>
</a>
</g>
</g>
<!-- Node54420&#45;&gt;Node54437 -->
<g id="edge11" class="edge">
<title>Node54420&#45;&gt;Node54437</title>
<path fill="none" stroke="#191970" d="M42.2013,-590.0525C52.065,-640.0482 80.4611,-770.5781 113,-798.5 140.701,-822.2705 243.4031,-831.4003 301.9411,-834.7262"/>
<polygon fill="#191970" stroke="#191970" points="45.625,-589.3223 40.2875,-580.1702 38.7526,-590.6532 45.625,-589.3223"/>
</g>
<!-- Node54642 -->
<g id="node11" class="node">
<title>Node54642</title>
<g id="a_node11"><a xlink:href="quickjs_8c.html#a339d687d765143d3f8ea0ea89fa47b0f" target="_top" xlink:title="js_create_array">
<polygon fill="none" stroke="#ff0000" points="143,-770 143,-789 226,-789 226,-770 143,-770"/>
<text text-anchor="middle" x="184.5" y="-777" font-family="Helvetica,sans-Serif" font-size="10.00" fill="#000000">js_create_array</text>
</a>
</g>
</g>
<!-- Node54420&#45;&gt;Node54642 -->
<g id="edge12" class="edge">
<title>Node54420&#45;&gt;Node54642</title>
<path fill="none" stroke="#191970" d="M40.4717,-590.5209C45.3816,-629.2781 61.7235,-714.7572 113,-760.5 121.2427,-767.8531 132.0164,-772.4101 142.6903,-775.2198"/>
<polygon fill="#191970" stroke="#191970" points="43.8933,-589.6305 39.289,-580.0885 36.9379,-590.4192 43.8933,-589.6305"/>
</g>
<!-- Node54645 -->
<g id="node12" class="node">
<title>Node54645</title>
<g id="a_node12"><a xlink:href="quickjs_8c.html#a79c9d633e8f9d5fd70546406b9e6f176" target="_top" xlink:title="JS_GetOwnPropertyNames2">
<polygon fill="none" stroke="#ff0000" points="113,-732 113,-751 256,-751 256,-732 113,-732"/>
<text text-anchor="middle" x="184.5" y="-739" font-family="Helvetica,sans-Serif" font-size="10.00" fill="#000000">JS_GetOwnPropertyNames2</text>
</a>
</g>
</g>
<!-- Node54420&#45;&gt;Node54645 -->
<g id="edge13" class="edge">
<title>Node54420&#45;&gt;Node54645</title>
<path fill="none" stroke="#191970" d="M42.5674,-590.0971C50.3605,-622.6273 70.5346,-687.6368 113,-722.5 117.6657,-726.3305 123.0283,-729.3949 128.6745,-731.8454"/>
<polygon fill="#191970" stroke="#191970" points="45.9169,-589.0382 40.311,-580.048 39.0869,-590.5718 45.9169,-589.0382"/>
</g>
<!-- Node54489 -->
<g id="node13" class="node">
<title>Node54489</title>
<g id="a_node13"><a xlink:href="quickjs_8c.html#a343a343b16bc3c9875050e99ee0d2884" target="_top" xlink:title="JS_JSONStringify">
<polygon fill="none" stroke="#ff0000" points="136,-694 136,-713 233,-713 233,-694 136,-694"/>
<text text-anchor="middle" x="184.5" y="-701" font-family="Helvetica,sans-Serif" font-size="10.00" fill="#000000">JS_JSONStringify</text>
</a>
</g>
</g>
<!-- Node54420&#45;&gt;Node54489 -->
<g id="edge14" class="edge">
<title>Node54420&#45;&gt;Node54489</title>
<path fill="none" stroke="#191970" d="M45.7775,-589.5121C56.5397,-615.0465 79.1483,-660.033 113,-684.5 119.7663,-689.3905 127.706,-693.0224 135.7872,-695.7196"/>
<polygon fill="#191970" stroke="#191970" points="48.995,-588.1323 42.0053,-580.1701 42.5041,-590.7532 48.995,-588.1323"/>
</g>
<!-- Node54653 -->
<g id="node14" class="node">
<title>Node54653</title>
<g id="a_node14"><a xlink:href="quickjs-libc_8c.html#a6d1c957c402e5cda23a3b00762208185" target="_top" xlink:title="js_os_pipe">
<polygon fill="none" stroke="#000000" points="153,-656 153,-675 216,-675 216,-656 153,-656"/>
<text text-anchor="middle" x="184.5" y="-663" font-family="Helvetica,sans-Serif" font-size="10.00" fill="#000000">js_os_pipe</text>
</a>
</g>
</g>
<!-- Node54420&#45;&gt;Node54653 -->
<g id="edge15" class="edge">
<title>Node54420&#45;&gt;Node54653</title>
<path fill="none" stroke="#191970" d="M52.9968,-588.1795C66.9034,-604.1141 89.2456,-627.1769 113,-641.5 125.2224,-648.8697 139.9988,-654.3146 152.9386,-658.1377"/>
<polygon fill="#191970" stroke="#191970" points="55.3259,-585.5153 46.1834,-580.1611 49.9915,-590.048 55.3259,-585.5153"/>
</g>
<!-- Node54654 -->
<g id="node15" class="node">
<title>Node54654</title>
<g id="a_node15"><a xlink:href="quickjs-libc_8c.html#a64270f007df853e9d2f443383d26ec60" target="_top" xlink:title="js_os_readdir">
<polygon fill="none" stroke="#000000" points="306.5,-334 306.5,-353 380.5,-353 380.5,-334 306.5,-334"/>
<text text-anchor="middle" x="343.5" y="-341" font-family="Helvetica,sans-Serif" font-size="10.00" fill="#000000">js_os_readdir</text>
</a>
</g>
</g>
<!-- Node54420&#45;&gt;Node54654 -->
<g id="edge16" class="edge">
<title>Node54420&#45;&gt;Node54654</title>
<path fill="none" stroke="#191970" d="M62.5639,-585.2368C105.6414,-609.5161 196.9387,-651.1962 256,-608.5 300.0744,-576.638 334.138,-396.8616 341.8536,-353.1021"/>
<polygon fill="#191970" stroke="#191970" points="64.059,-582.058 53.6523,-580.0707 60.5483,-588.114 64.059,-582.058"/>
</g>
<!-- Node54655 -->
<g id="node16" class="node">
<title>Node54655</title>
<g id="a_node16"><a xlink:href="quickjs-libc_8c.html#a9caf548a60b412734dc8a40a7ebc914e" target="_top" xlink:title="js_os_ttyGetWinSize">
<polygon fill="none" stroke="#000000" points="130,-580 130,-599 239,-599 239,-580 130,-580"/>
<text text-anchor="middle" x="184.5" y="-587" font-family="Helvetica,sans-Serif" font-size="10.00" fill="#000000">js_os_ttyGetWinSize</text>
</a>
</g>
</g>
<!-- Node54420&#45;&gt;Node54655 -->
<g id="edge17" class="edge">
<title>Node54420&#45;&gt;Node54655</title>
<path fill="none" stroke="#191970" d="M87.3951,-576.8631C101.0433,-578.6392 115.9578,-580.5801 129.912,-582.3961"/>
<polygon fill="#191970" stroke="#191970" points="87.6101,-573.3616 77.242,-575.5418 86.7067,-580.3031 87.6101,-573.3616"/>
</g>
<!-- Node54656 -->
<g id="node17" class="node">
<title>Node54656</title>
<g id="a_node17"><a xlink:href="quickjs-libc_8c.html#aedcefc332980a5da1b0a3c512232d46f" target="_top" xlink:title="js_os_waitpid">
<polygon fill="none" stroke="#000000" points="146.5,-542 146.5,-561 222.5,-561 222.5,-542 146.5,-542"/>
<text text-anchor="middle" x="184.5" y="-549" font-family="Helvetica,sans-Serif" font-size="10.00" fill="#000000">js_os_waitpid</text>
</a>
</g>
</g>
<!-- Node54420&#45;&gt;Node54656 -->
<g id="edge18" class="edge">
<title>Node54420&#45;&gt;Node54656</title>
<path fill="none" stroke="#191970" d="M87.3269,-564.1458C106.5514,-561.644 128.2974,-558.814 146.3361,-556.4665"/>
<polygon fill="#191970" stroke="#191970" points="86.7067,-560.6969 77.242,-565.4582 87.6101,-567.6384 86.7067,-560.6969"/>
</g>
<!-- Node54603 -->
<g id="node18" class="node">
<title>Node54603</title>
<g id="a_node18"><a xlink:href="quickjs_8c.html#a035daca514f14aacc1e0cff81d8e423a" target="_top" xlink:title="js_parse_template">
<polygon fill="none" stroke="#ff0000" points="136.5,-504 136.5,-523 232.5,-523 232.5,-504 136.5,-504"/>
<text text-anchor="middle" x="184.5" y="-511" font-family="Helvetica,sans-Serif" font-size="10.00" fill="#000000">js_parse_template</text>
</a>
</g>
</g>
<!-- Node54420&#45;&gt;Node54603 -->
<g id="edge19" class="edge">
<title>Node54420&#45;&gt;Node54603</title>
<path fill="none" stroke="#191970" d="M63.9785,-555.803C78.0912,-548.101 96.1441,-538.9545 113,-532.5 122.3558,-528.9174 132.6481,-525.7541 142.4377,-523.0872"/>
<polygon fill="#191970" stroke="#191970" points="61.9376,-552.9332 54.9007,-560.8536 65.341,-559.0502 61.9376,-552.9332"/>
</g>
<!-- Node54482 -->
<g id="node19" class="node">
<title>Node54482</title>
<g id="a_node19"><a xlink:href="quickjs_8c.html#a7a5c4f3ad3260974d9a0c75120ce5647" target="_top" xlink:title="js_promise_all">
<polygon fill="none" stroke="#000000" points="145,-466 145,-485 224,-485 224,-466 145,-466"/>
<text text-anchor="middle" x="184.5" y="-473" font-family="Helvetica,sans-Serif" font-size="10.00" fill="#000000">js_promise_all</text>
</a>
</g>
</g>
<!-- Node54420&#45;&gt;Node54482 -->
<g id="edge20" class="edge">
<title>Node54420&#45;&gt;Node54482</title>
<path fill="none" stroke="#191970" d="M51.2726,-552.7621C64.7144,-535.3796 87.4418,-509.3909 113,-494.5 122.6551,-488.8747 134.0055,-484.8784 144.7839,-482.0537"/>
<polygon fill="#191970" stroke="#191970" points="48.3223,-550.8626 45.124,-560.9632 53.923,-555.0617 48.3223,-550.8626"/>
</g>
<!-- Node54657 -->
<g id="node20" class="node">
<title>Node54657</title>
<g id="a_node20"><a xlink:href="quickjs_8c.html#a4b8ef2bb3b35e4a5f6ed8bd837a50e7c" target="_top" xlink:title="JS_ReadObjectRec">
<polygon fill="none" stroke="#ff0000" points="132.5,-410 132.5,-429 236.5,-429 236.5,-410 132.5,-410"/>
<text text-anchor="middle" x="184.5" y="-417" font-family="Helvetica,sans-Serif" font-size="10.00" fill="#000000">JS_ReadObjectRec</text>
</a>
</g>
</g>
<!-- Node54420&#45;&gt;Node54657 -->
<g id="edge21" class="edge">
<title>Node54420&#45;&gt;Node54657</title>
<path fill="none" stroke="#191970" d="M47.1131,-551.4457C58.9939,-526.8948 82.4528,-484.0994 113,-456.5 126.2746,-444.5064 144.1496,-435.2564 158.7059,-429.0048"/>
<polygon fill="#191970" stroke="#191970" points="43.8251,-550.2135 42.7432,-560.753 50.1614,-553.1886 43.8251,-550.2135"/>
</g>
<!-- Node54547 -->
<g id="node21" class="node">
<title>Node54547</title>
<g id="a_node21"><a xlink:href="quickjs_8c.html#a9eb2d90f27f684820f9de13189502b7c" target="_top" xlink:title="js_regexp_exec">
<polygon fill="none" stroke="#ff0000" points="142,-372 142,-391 227,-391 227,-372 142,-372"/>
<text text-anchor="middle" x="184.5" y="-379" font-family="Helvetica,sans-Serif" font-size="10.00" fill="#000000">js_regexp_exec</text>
</a>
</g>
</g>
<!-- Node54420&#45;&gt;Node54547 -->
<g id="edge23" class="edge">
<title>Node54420&#45;&gt;Node54547</title>
<path fill="none" stroke="#191970" d="M41.4938,-550.596C47.919,-514.9999 66.4231,-440.4331 113,-400.5 121.0932,-393.5612 131.4544,-389.1246 141.7622,-386.297"/>
<polygon fill="#191970" stroke="#191970" points="38.0031,-550.2512 39.8118,-560.6905 44.9079,-551.4017 38.0031,-550.2512"/>
</g>
<!-- Node54542 -->
<g id="node22" class="node">
<title>Node54542</title>
<g id="a_node22"><a xlink:href="quickjs_8c.html#a41fc4304b39616e7be3500fe6ec881c2" target="_top" xlink:title="js_regexp_Symbol_match">
<polygon fill="none" stroke="#000000" points="120,-334 120,-353 249,-353 249,-334 120,-334"/>
<text text-anchor="middle" x="184.5" y="-341" font-family="Helvetica,sans-Serif" font-size="10.00" fill="#000000">js_regexp_Symbol_match</text>
</a>
</g>
</g>
<!-- Node54420&#45;&gt;Node54542 -->
<g id="edge24" class="edge">
<title>Node54420&#45;&gt;Node54542</title>
<path fill="none" stroke="#191970" d="M39.6588,-550.8713C43.1765,-509.6684 57.2427,-413.7493 113,-362.5 117.1608,-358.6756 122.0035,-355.6046 127.1707,-353.1409"/>
<polygon fill="#191970" stroke="#191970" points="36.1598,-550.7302 38.9204,-560.9591 43.1411,-551.2413 36.1598,-550.7302"/>
</g>
<!-- Node54472 -->
<g id="node23" class="node">
<title>Node54472</title>
<g id="a_node23"><a xlink:href="quickjs_8c.html#a6a77bcdb9f7f18c13c108c99a198708b" target="_top" xlink:title="js_regexp_Symbol_replace">
<polygon fill="none" stroke="#000000" points="117.5,-296 117.5,-315 251.5,-315 251.5,-296 117.5,-296"/>
<text text-anchor="middle" x="184.5" y="-303" font-family="Helvetica,sans-Serif" font-size="10.00" fill="#000000">js_regexp_Symbol_replace</text>
</a>
</g>
</g>
<!-- Node54420&#45;&gt;Node54472 -->
<g id="edge25" class="edge">
<title>Node54420&#45;&gt;Node54472</title>
<path fill="none" stroke="#191970" d="M41.9527,-550.6613C51.4963,-498.0216 79.7394,-356.6378 113,-324.5 116.9718,-320.6623 121.6265,-317.5778 126.6228,-315.1017"/>
<polygon fill="#191970" stroke="#191970" points="38.4659,-550.2784 40.1593,-560.737 45.3576,-551.5051 38.4659,-550.2784"/>
</g>
<!-- Node54518 -->
<g id="node24" class="node">
<title>Node54518</title>
<g id="a_node24"><a xlink:href="quickjs_8c.html#a79872a6d9d139e36d5d1894d16132024" target="_top" xlink:title="js_regexp_Symbol_split">
<polygon fill="none" stroke="#000000" points="124.5,-258 124.5,-277 244.5,-277 244.5,-258 124.5,-258"/>
<text text-anchor="middle" x="184.5" y="-265" font-family="Helvetica,sans-Serif" font-size="10.00" fill="#000000">js_regexp_Symbol_split</text>
</a>
</g>
</g>
<!-- Node54420&#45;&gt;Node54518 -->
<g id="edge26" class="edge">
<title>Node54420&#45;&gt;Node54518</title>
<path fill="none" stroke="#191970" d="M41.0844,-550.7381C49.0575,-492.7218 75.0456,-324.5756 113,-286.5 116.8084,-282.6795 121.2917,-279.6011 126.1259,-277.1243"/>
<polygon fill="#191970" stroke="#191970" points="37.5952,-550.4246 39.7318,-560.8018 44.5328,-551.3572 37.5952,-550.4246"/>
</g>
<!-- Node54560 -->
<g id="node25" class="node">
<title>Node54560</title>
<g id="a_node25"><a xlink:href="quickjs-libc_8c.html#ad04466feec6822a3b838baf229f6dfa0" target="_top" xlink:title="js_std_add_helpers">
<polygon fill="none" stroke="#ff0000" points="134,-220 134,-239 235,-239 235,-220 134,-220"/>
<text text-anchor="middle" x="184.5" y="-227" font-family="Helvetica,sans-Serif" font-size="10.00" fill="#000000">js_std_add_helpers</text>
</a>
</g>
</g>
<!-- Node54420&#45;&gt;Node54560 -->
<g id="edge27" class="edge">
<title>Node54420&#45;&gt;Node54560</title>
<path fill="none" stroke="#191970" d="M40.437,-550.6384C46.9931,-487.4357 70.3546,-292.5484 113,-248.5 118.7177,-242.5942 126.0453,-238.4538 133.8205,-235.5652"/>
<polygon fill="#191970" stroke="#191970" points="36.9292,-550.5403 39.4076,-560.8412 43.8938,-551.2431 36.9292,-550.5403"/>
</g>
<!-- Node54650 -->
<g id="node26" class="node">
<title>Node54650</title>
<g id="a_node26"><a xlink:href="quickjs_8c.html#a99f359a90bf2aa7902ec554d726d4fda" target="_top" xlink:title="js_string_split">
<polygon fill="none" stroke="#000000" points="146,-182 146,-201 223,-201 223,-182 146,-182"/>
<text text-anchor="middle" x="184.5" y="-189" font-family="Helvetica,sans-Serif" font-size="10.00" fill="#000000">js_string_split</text>
</a>
</g>
</g>
<!-- Node54420&#45;&gt;Node54650 -->
<g id="edge28" class="edge">
<title>Node54420&#45;&gt;Node54650</title>
<path fill="none" stroke="#191970" d="M39.9187,-550.551C45.1599,-482.4467 65.6335,-260.5795 113,-210.5 121.561,-201.4486 133.8997,-196.5287 145.9241,-193.9088"/>
<polygon fill="#191970" stroke="#191970" points="36.4106,-550.5319 39.1598,-560.7639 43.3913,-551.0508 36.4106,-550.5319"/>
</g>
<!-- Node54478 -->
<g id="node27" class="node">
<title>Node54478</title>
<g id="a_node27"><a xlink:href="quickjs_8c.html#a5f46f50deddd4e3a23da24e8173db28e" target="_top" xlink:title="js_typed_array_from">
<polygon fill="none" stroke="#000000" points="132,-144 132,-163 237,-163 237,-144 132,-144"/>
<text text-anchor="middle" x="184.5" y="-151" font-family="Helvetica,sans-Serif" font-size="10.00" fill="#000000">js_typed_array_from</text>
</a>
</g>
</g>
<!-- Node54420&#45;&gt;Node54478 -->
<g id="edge29" class="edge">
<title>Node54420&#45;&gt;Node54478</title>
<path fill="none" stroke="#191970" d="M39.4744,-550.8273C43.4513,-478.5201 60.8026,-228.749 113,-172.5 118.1546,-166.9453 124.7311,-162.9417 131.8002,-160.0694"/>
<polygon fill="#191970" stroke="#191970" points="35.9773,-550.6817 38.9476,-560.8516 42.9676,-551.0491 35.9773,-550.6817"/>
</g>
<!-- Node54659 -->
<g id="node28" class="node">
<title>Node54659</title>
<g id="a_node28"><a xlink:href="quickjs_8c.html#a756c1ab5dee9a6dd07723d7a075e2a53" target="_top" xlink:title="json_parse_value">
<polygon fill="none" stroke="#ff0000" points="138.5,-88 138.5,-107 230.5,-107 230.5,-88 138.5,-88"/>
<text text-anchor="middle" x="184.5" y="-95" font-family="Helvetica,sans-Serif" font-size="10.00" fill="#000000">json_parse_value</text>
</a>
</g>
</g>
<!-- Node54420&#45;&gt;Node54659 -->
<g id="edge30" class="edge">
<title>Node54420&#45;&gt;Node54659</title>
<path fill="none" stroke="#191970" d="M39.5649,-550.8161C44.0081,-474.9834 63.2126,-202.6059 113,-134.5 122.4032,-121.637 137.6104,-112.8929 151.5877,-107.1501"/>
<polygon fill="#191970" stroke="#191970" points="36.0657,-550.7048 38.9951,-560.8866 43.0545,-551.1003 36.0657,-550.7048"/>
</g>
<!-- Node54662 -->
<g id="node29" class="node">
<title>Node54662</title>
<g id="a_node29"><a xlink:href="quickjs-libc_8c.html#a0210b73e16d177f7668621a6573576aa" target="_top" xlink:title="make_obj_error">
<polygon fill="none" stroke="#ff0000" points="143,-50 143,-69 226,-69 226,-50 143,-50"/>
<text text-anchor="middle" x="184.5" y="-57" font-family="Helvetica,sans-Serif" font-size="10.00" fill="#000000">make_obj_error</text>
</a>
</g>
</g>
<!-- Node54420&#45;&gt;Node54662 -->
<g id="edge32" class="edge">
<title>Node54420&#45;&gt;Node54662</title>
<path fill="none" stroke="#191970" d="M38.7058,-550.6113C39.9714,-467.6196 48.9875,-149.9321 113,-78.5 120.6288,-69.9869 131.5951,-65.0967 142.6561,-62.3392"/>
<polygon fill="#191970" stroke="#191970" points="35.2048,-550.6692 38.5738,-560.7141 42.2043,-550.7608 35.2048,-550.6692"/>
</g>
<!-- Node55006 -->
<g id="node30" class="node">
<title>Node55006</title>
<g id="a_node30"><a xlink:href="structqjs_1_1js__traits_3_01std_1_1vector_3_01T_01_4_01_4.html#a0a1cc387d5c49e5cb5ae417730d32b1c" target="_top" xlink:title="qjs::js_traits\&lt; std\l::vector\&lt; T \&gt; \&gt;::wrap">
<polygon fill="none" stroke="#000000" points="129.5,-.5 129.5,-30.5 239.5,-30.5 239.5,-.5 129.5,-.5"/>
<text text-anchor="start" x="137.5" y="-18.5" font-family="Helvetica,sans-Serif" font-size="10.00" fill="#000000">qjs::js_traits&lt; std</text>
<text text-anchor="middle" x="184.5" y="-7.5" font-family="Helvetica,sans-Serif" font-size="10.00" fill="#000000">::vector&lt; T &gt; &gt;::wrap</text>
</a>
</g>
</g>
<!-- Node54420&#45;&gt;Node55006 -->
<g id="edge34" class="edge">
<title>Node54420&#45;&gt;Node55006</title>
<path fill="none" stroke="#191970" d="M40.0661,-550.7007C47.456,-459.3011 79.8671,-80.8875 113,-40.5 117.4205,-35.1117 123.0752,-30.8829 129.2637,-27.5645"/>
<polygon fill="#191970" stroke="#191970" points="36.5665,-550.5567 39.2571,-560.8042 43.5442,-551.1155 36.5665,-550.5567"/>
</g>
<!-- Node54422 -->
<g id="node3" class="node">
<title>Node54422</title>
<g id="a_node3"><a xlink:href="quickjs_8c.html#ad25358fc5ae69ab218abde24d52b7767" target="_top" xlink:title="js_error_constructor">
<polygon fill="none" stroke="#ff0000" points="292,-1086 292,-1105 395,-1105 395,-1086 292,-1086"/>
<text text-anchor="middle" x="343.5" y="-1093" font-family="Helvetica,sans-Serif" font-size="10.00" fill="#000000">js_error_constructor</text>
</a>
</g>
</g>
<!-- Node54421&#45;&gt;Node54422 -->
<g id="edge2" class="edge">
<title>Node54421&#45;&gt;Node54422</title>
<path fill="none" stroke="#191970" d="M238.8033,-1095.5C255.9788,-1095.5 274.9042,-1095.5 291.8858,-1095.5"/>
<polygon fill="#191970" stroke="#191970" points="238.3684,-1092.0001 228.3683,-1095.5 238.3683,-1099.0001 238.3684,-1092.0001"/>
</g>
<!-- Node54436&#45;&gt;Node54437 -->
<g id="edge9" class="edge">
<title>Node54436&#45;&gt;Node54437</title>
<path fill="none" stroke="#191970" d="M230.1955,-850.0395C252.7449,-847.3449 279.7533,-844.1175 301.7441,-841.4897"/>
<polygon fill="#191970" stroke="#191970" points="229.6967,-846.5741 220.1827,-851.236 230.5274,-853.5247 229.6967,-846.5741"/>
</g>
<!-- Node54437&#45;&gt;Node54437 -->
<g id="edge10" class="edge">
<title>Node54437&#45;&gt;Node54437</title>
<path fill="none" stroke="#191970" d="M314.0076,-855.1539C315.2404,-860.4368 325.0712,-864.5 343.5,-864.5 371.582,-864.5 379.6995,-855.0653 367.8524,-846.2571"/>
<polygon fill="#191970" stroke="#191970" points="317.1757,-856.6668 319.1476,-846.2571 311.1145,-853.165 317.1757,-856.6668"/>
</g>
<!-- Node54657&#45;&gt;Node54657 -->
<g id="edge22" class="edge">
<title>Node54657&#45;&gt;Node54657</title>
<path fill="none" stroke="#191970" d="M157.2475,-438.1539C158.3867,-443.4368 167.4708,-447.5 184.5,-447.5 210.4492,-447.5 217.9502,-438.0653 207.0028,-429.2571"/>
<polygon fill="#191970" stroke="#191970" points="160.3752,-439.727 161.9972,-429.2571 154.2001,-436.4303 160.3752,-439.727"/>
</g>
<!-- Node54659&#45;&gt;Node54659 -->
<g id="edge31" class="edge">
<title>Node54659&#45;&gt;Node54659</title>
<path fill="none" stroke="#191970" d="M157.2475,-116.1539C158.3867,-121.4368 167.4708,-125.5 184.5,-125.5 210.4492,-125.5 217.9502,-116.0653 207.0028,-107.2571"/>
<polygon fill="#191970" stroke="#191970" points="160.3752,-117.727 161.9972,-107.2571 154.2001,-114.4303 160.3752,-117.727"/>
</g>
<!-- Node54662&#45;&gt;Node54654 -->
<g id="edge33" class="edge">
<title>Node54662&#45;&gt;Node54654</title>
<path fill="none" stroke="#191970" d="M235.7686,-66.4003C243.2147,-69.2128 250.2824,-73.1111 256,-78.5 295.489,-115.7183 332.8644,-290.6952 341.5913,-333.8579"/>
<polygon fill="#191970" stroke="#191970" points="236.7973,-63.0548 226.2077,-63.3881 234.6938,-69.7313 236.7973,-63.0548"/>
</g>
</g>
</svg>
        <g id="navigator" transform="translate(0 0)" fill="#404254">
                <rect fill="#f2f5e9" fill-opacity="0.5" stroke="#606060" stroke-width=".5" x="0" y="0" width="60" height="60"/>
                <use id="zoomplus" xlink:href="#zoomPlus" x="17" y="9" onmousedown="handleZoom(evt,'in')"/>
                <use id="zoomminus" xlink:href="#zoomMin" x="42" y="9" onmousedown="handleZoom(evt,'out')"/>
                <use id="reset" xlink:href="#resetDef" x="30" y="36" onmousedown="handleReset()"/>
                <g id="arrowUp" xlink:href="#dirArrow" transform="translate(30 24)" onmousedown="handlePan(0,-1)">
                  <use xlink:href="#rim" fill="#404040">
                        <set attributeName="fill" to="#808080" begin="arrowUp.mouseover" end="arrowUp.mouseout"/>
                  </use>
                  <path fill="none" stroke="white" stroke-width="1.5" d="M0,-3.0v7 M-2.5,-0.5L0,-3.0L2.5,-0.5"/>
                </g>
                <g id="arrowRight" xlink:href="#dirArrow" transform="rotate(90) translate(36 -43)" onmousedown="handlePan(1,0)">
                  <use xlink:href="#rim" fill="#404040">
                        <set attributeName="fill" to="#808080" begin="arrowRight.mouseover" end="arrowRight.mouseout"/>
                  </use>
                  <path fill="none" stroke="white" stroke-width="1.5" d="M0,-3.0v7 M-2.5,-0.5L0,-3.0L2.5,-0.5"/>
                </g>
                <g id="arrowDown" xlink:href="#dirArrow" transform="rotate(180) translate(-30 -48)" onmousedown="handlePan(0,1)">
                  <use xlink:href="#rim" fill="#404040">
                        <set attributeName="fill" to="#808080" begin="arrowDown.mouseover" end="arrowDown.mouseout"/>
                  </use>
                  <path fill="none" stroke="white" stroke-width="1.5" d="M0,-3.0v7 M-2.5,-0.5L0,-3.0L2.5,-0.5"/>
                </g>
                <g id="arrowLeft" xlink:href="#dirArrow" transform="rotate(270) translate(-36 17)" onmousedown="handlePan(-1,0)">
                  <use xlink:href="#rim" fill="#404040">
                        <set attributeName="fill" to="#808080" begin="arrowLeft.mouseover" end="arrowLeft.mouseout"/>
                  </use>
                  <path fill="none" stroke="white" stroke-width="1.5" d="M0,-3.0v7 M-2.5,-0.5L0,-3.0L2.5,-0.5"/>
                </g>
        </g>
        <svg viewBox="0 0 15 15" width="100%" height="30px" preserveAspectRatio="xMaxYMin meet">
         <g id="arrow_out" transform="scale(0.3 0.3)">
          <a xlink:href="quickjs_8h_ad4ba09e4c7ab9f28c144182e1aacf1f6_icgraph_org.svg" target="_base">
           <rect id="button" ry="5" rx="5" y="6" x="6" height="38" width="38"
                fill="#f2f5e9" fill-opacity="0.5" stroke="#606060" stroke-width="1.0"/>
           <path id="arrow"
             d="M 11.500037,31.436501 C 11.940474,20.09759 22.043105,11.32322 32.158766,21.979434 L 37.068811,17.246167 C 37.068811,17.246167 37.088388,32 37.088388,32 L 22.160133,31.978069 C 22.160133,31.978069 26.997745,27.140456 26.997745,27.140456 C 18.528582,18.264221 13.291696,25.230495 11.500037,31.436501 z"
             style="fill:#404040;"/>
          </a>
         </g>
        </svg>
</svg>
