<?xml version="1.0" encoding="UTF-8" standalone="no"?>
<!DOCTYPE svg PUBLIC "-//W3C//DTD SVG 1.1//EN"
 "http://www.w3.org/Graphics/SVG/1.1/DTD/svg11.dtd">
<!-- Generated by graphviz version 2.40.1 (20161225.0304)
 -->
<!-- Title: JS_NewStringLen Pages: 1 -->
<svg width="574pt" height="861pt"
 viewBox="0.00 0.00 574.00 860.50" xmlns="http://www.w3.org/2000/svg" xmlns:xlink="http://www.w3.org/1999/xlink">
<g id="graph0" class="graph" transform="scale(1 1) rotate(0) translate(4 856.5)">
<title>JS_NewStringLen</title>
<!-- Node106671 -->
<g id="node1" class="node">
<title>Node106671</title>
<polygon fill="#bfbfbf" stroke="#000000" points="0,-251 0,-270 95,-270 95,-251 0,-251"/>
<text text-anchor="middle" x="47.5" y="-258" font-family="Helvetica,sans-Serif" font-size="10.00" fill="#000000">JS_NewStringLen</text>
</g>
<!-- Node106672 -->
<g id="node2" class="node">
<title>Node106672</title>
<g id="a_node2"><a xlink:href="quickjs_8c.html#ab522181d975cc7949088c8ff67fedde0" target="_top" xlink:title="get_date_string">
<polygon fill="none" stroke="#000000" points="317,-833 317,-852 400,-852 400,-833 317,-833"/>
<text text-anchor="middle" x="358.5" y="-840" font-family="Helvetica,sans-Serif" font-size="10.00" fill="#000000">get_date_string</text>
</a>
</g>
</g>
<!-- Node106671&#45;&gt;Node106672 -->
<g id="edge1" class="edge">
<title>Node106671&#45;&gt;Node106672</title>
<path fill="none" stroke="#191970" d="M49.0444,-280.1922C54.0539,-336.1904 73.0346,-500.1239 131,-621.5 180.1189,-724.3521 194.0966,-760.3767 289,-823.5 297.3322,-829.042 307.2439,-832.9757 316.9342,-835.7651"/>
<polygon fill="#191970" stroke="#191970" points="52.5301,-279.874 48.1998,-270.2045 45.555,-280.4639 52.5301,-279.874"/>
</g>
<!-- Node106676 -->
<g id="node4" class="node">
<title>Node106676</title>
<g id="a_node4"><a xlink:href="quickjs_8c.html#a9876c37aa1b715e05e0e5fe1b46bcf3d" target="_top" xlink:title="js_function_toString">
<polygon fill="none" stroke="#000000" points="140.5,-403 140.5,-422 243.5,-422 243.5,-403 140.5,-403"/>
<text text-anchor="middle" x="192" y="-410" font-family="Helvetica,sans-Serif" font-size="10.00" fill="#000000">js_function_toString</text>
</a>
</g>
</g>
<!-- Node106671&#45;&gt;Node106676 -->
<g id="edge3" class="edge">
<title>Node106671&#45;&gt;Node106676</title>
<path fill="none" stroke="#191970" d="M54.432,-279.552C65.9026,-308.4325 91.5562,-363.1356 131,-393.5 136.01,-397.3567 141.813,-400.438 147.8077,-402.8978"/>
<polygon fill="#191970" stroke="#191970" points="57.6871,-278.2652 50.8484,-270.1731 51.1482,-280.7637 57.6871,-278.2652"/>
</g>
<!-- Node106677 -->
<g id="node5" class="node">
<title>Node106677</title>
<g id="a_node5"><a xlink:href="quickjs_8c.html#a343a343b16bc3c9875050e99ee0d2884" target="_top" xlink:title="JS_JSONStringify">
<polygon fill="none" stroke="#000000" points="143.5,-365 143.5,-384 240.5,-384 240.5,-365 143.5,-365"/>
<text text-anchor="middle" x="192" y="-372" font-family="Helvetica,sans-Serif" font-size="10.00" fill="#000000">JS_JSONStringify</text>
</a>
</g>
</g>
<!-- Node106671&#45;&gt;Node106677 -->
<g id="edge4" class="edge">
<title>Node106671&#45;&gt;Node106677</title>
<path fill="none" stroke="#191970" d="M58.873,-278.6297C73.185,-300.0062 99.7159,-335.189 131,-355.5 136.9541,-359.3657 143.7437,-362.486 150.5788,-364.9921"/>
<polygon fill="#191970" stroke="#191970" points="61.7351,-276.6108 53.3462,-270.1396 55.8686,-280.4298 61.7351,-276.6108"/>
</g>
<!-- Node106679 -->
<g id="node7" class="node">
<title>Node106679</title>
<g id="a_node7"><a xlink:href="quickjs_8c.html#a522741f41afb1d0da0aa55968cd8579e" target="_top" xlink:title="JS_NewAtomLen">
<polygon fill="none" stroke="#000000" points="145.5,-327 145.5,-346 238.5,-346 238.5,-327 145.5,-327"/>
<text text-anchor="middle" x="192" y="-334" font-family="Helvetica,sans-Serif" font-size="10.00" fill="#000000">JS_NewAtomLen</text>
</a>
</g>
</g>
<!-- Node106671&#45;&gt;Node106679 -->
<g id="edge6" class="edge">
<title>Node106671&#45;&gt;Node106679</title>
<path fill="none" stroke="#191970" d="M67.4519,-276.6393C83.7493,-289.1831 107.8018,-306.2807 131,-317.5 138.5891,-321.1703 147.0483,-324.3359 155.1923,-326.973"/>
<polygon fill="#191970" stroke="#191970" points="69.2785,-273.6238 59.2503,-270.2053 64.9579,-279.1314 69.2785,-273.6238"/>
</g>
<!-- Node107281 -->
<g id="node11" class="node">
<title>Node107281</title>
<g id="a_node11"><a xlink:href="quickjs_8c.html#a0ee6a3654a6016393fac5e1c108f403a" target="_top" xlink:title="JS_NewString">
<polygon fill="none" stroke="#ff0000" points="152,-593 152,-612 232,-612 232,-593 152,-593"/>
<text text-anchor="middle" x="192" y="-600" font-family="Helvetica,sans-Serif" font-size="10.00" fill="#000000">JS_NewString</text>
</a>
</g>
</g>
<!-- Node106671&#45;&gt;Node107281 -->
<g id="edge10" class="edge">
<title>Node106671&#45;&gt;Node107281</title>
<path fill="none" stroke="#191970" d="M55.5587,-279.5731C82.4054,-343.1134 168.2198,-546.2175 187.9353,-592.8799"/>
<polygon fill="#191970" stroke="#191970" points="58.6317,-277.8533 51.5156,-270.004 52.1836,-280.5777 58.6317,-277.8533"/>
</g>
<!-- Node107016 -->
<g id="node23" class="node">
<title>Node107016</title>
<g id="a_node23"><a xlink:href="quickjs-libc_8c.html#a2abec3aeee82a6dd3dd063725bbeecfe" target="_top" xlink:title="js_printf_internal">
<polygon fill="none" stroke="#ff0000" points="148,-289 148,-308 236,-308 236,-289 148,-289"/>
<text text-anchor="middle" x="192" y="-296" font-family="Helvetica,sans-Serif" font-size="10.00" fill="#000000">js_printf_internal</text>
</a>
</g>
</g>
<!-- Node106671&#45;&gt;Node107016 -->
<g id="edge23" class="edge">
<title>Node106671&#45;&gt;Node107016</title>
<path fill="none" stroke="#191970" d="M93.8325,-272.6843C113.8939,-277.96 137.0285,-284.0438 155.7988,-288.9799"/>
<polygon fill="#191970" stroke="#191970" points="94.5248,-269.2474 83.9635,-270.089 92.7445,-276.0173 94.5248,-269.2474"/>
</g>
<!-- Node106770 -->
<g id="node24" class="node">
<title>Node106770</title>
<g id="a_node24"><a xlink:href="quickjs_8c.html#a85bd252225e0864923cb62c583892de7" target="_top" xlink:title="js_regexp_get_flags">
<polygon fill="none" stroke="#000000" points="140,-251 140,-270 244,-270 244,-251 140,-251"/>
<text text-anchor="middle" x="192" y="-258" font-family="Helvetica,sans-Serif" font-size="10.00" fill="#000000">js_regexp_get_flags</text>
</a>
</g>
</g>
<!-- Node106671&#45;&gt;Node106770 -->
<g id="edge24" class="edge">
<title>Node106671&#45;&gt;Node106770</title>
<path fill="none" stroke="#191970" d="M105.4785,-260.5C116.8413,-260.5 128.6946,-260.5 139.8529,-260.5"/>
<polygon fill="#191970" stroke="#191970" points="105.2152,-257.0001 95.2152,-260.5 105.2151,-264.0001 105.2152,-257.0001"/>
</g>
<!-- Node107305 -->
<g id="node25" class="node">
<title>Node107305</title>
<g id="a_node25"><a xlink:href="quickjs-libc_8c.html#af31f002f20b3b7e983dd4efabd18d65e" target="_top" xlink:title="js_std_file_getline">
<polygon fill="none" stroke="#000000" points="144.5,-213 144.5,-232 239.5,-232 239.5,-213 144.5,-213"/>
<text text-anchor="middle" x="192" y="-220" font-family="Helvetica,sans-Serif" font-size="10.00" fill="#000000">js_std_file_getline</text>
</a>
</g>
</g>
<!-- Node106671&#45;&gt;Node107305 -->
<g id="edge25" class="edge">
<title>Node106671&#45;&gt;Node107305</title>
<path fill="none" stroke="#191970" d="M93.8325,-248.3157C113.8939,-243.04 137.0285,-236.9562 155.7988,-232.0201"/>
<polygon fill="#191970" stroke="#191970" points="92.7445,-244.9827 83.9635,-250.911 94.5248,-251.7526 92.7445,-244.9827"/>
</g>
<!-- Node107124 -->
<g id="node26" class="node">
<title>Node107124</title>
<g id="a_node26"><a xlink:href="quickjs-libc_8c.html#ae8abf0c32bf9b0acd85adffaf8345dfe" target="_top" xlink:title="js_std_file_readAsString">
<polygon fill="none" stroke="#000000" points="131,-175 131,-194 253,-194 253,-175 131,-175"/>
<text text-anchor="middle" x="192" y="-182" font-family="Helvetica,sans-Serif" font-size="10.00" fill="#000000">js_std_file_readAsString</text>
</a>
</g>
</g>
<!-- Node106671&#45;&gt;Node107124 -->
<g id="edge26" class="edge">
<title>Node106671&#45;&gt;Node107124</title>
<path fill="none" stroke="#191970" d="M67.4519,-244.3607C83.7493,-231.8169 107.8018,-214.7193 131,-203.5 138.5891,-199.8297 147.0483,-196.6641 155.1923,-194.027"/>
<polygon fill="#191970" stroke="#191970" points="64.9579,-241.8686 59.2503,-250.7947 69.2785,-247.3762 64.9579,-241.8686"/>
</g>
<!-- Node107148 -->
<g id="node27" class="node">
<title>Node107148</title>
<g id="a_node27"><a xlink:href="quickjs-libc_8c.html#a879319bb5089c26a9e2f19e9fc9c0a73" target="_top" xlink:title="js_std_loadFile">
<polygon fill="none" stroke="#000000" points="151,-137 151,-156 233,-156 233,-137 151,-137"/>
<text text-anchor="middle" x="192" y="-144" font-family="Helvetica,sans-Serif" font-size="10.00" fill="#000000">js_std_loadFile</text>
</a>
</g>
</g>
<!-- Node106671&#45;&gt;Node107148 -->
<g id="edge27" class="edge">
<title>Node106671&#45;&gt;Node107148</title>
<path fill="none" stroke="#191970" d="M58.873,-242.3703C73.185,-220.9938 99.7159,-185.811 131,-165.5 137.0472,-161.5739 143.9561,-158.4167 150.8993,-155.8909"/>
<polygon fill="#191970" stroke="#191970" points="55.8686,-240.5702 53.3462,-250.8604 61.7351,-244.3892 55.8686,-240.5702"/>
</g>
<!-- Node106744 -->
<g id="node28" class="node">
<title>Node106744</title>
<g id="a_node28"><a xlink:href="quickjs-libc_8c.html#a7aebce2172c6aa4a6645aef600a69e6b" target="_top" xlink:title="js_std_urlGet">
<polygon fill="none" stroke="#000000" points="155,-99 155,-118 229,-118 229,-99 155,-99"/>
<text text-anchor="middle" x="192" y="-106" font-family="Helvetica,sans-Serif" font-size="10.00" fill="#000000">js_std_urlGet</text>
</a>
</g>
</g>
<!-- Node106671&#45;&gt;Node106744 -->
<g id="edge28" class="edge">
<title>Node106671&#45;&gt;Node106744</title>
<path fill="none" stroke="#191970" d="M54.432,-241.448C65.9026,-212.5675 91.5562,-157.8644 131,-127.5 137.9436,-122.1547 146.4108,-118.2991 154.7999,-115.5228"/>
<polygon fill="#191970" stroke="#191970" points="51.1482,-240.2363 50.8484,-250.8269 57.6871,-242.7348 51.1482,-240.2363"/>
</g>
<!-- Node107306 -->
<g id="node29" class="node">
<title>Node107306</title>
<g id="a_node29"><a xlink:href="structqjs_1_1js__traits_3_01std_1_1string__view_01_4.html#ad9dac01710453b7af63a997961c1fa6a" target="_top" xlink:title="qjs::js_traits\&lt; std\l::string_view \&gt;::wrap">
<polygon fill="none" stroke="#000000" points="138,-49.5 138,-79.5 246,-79.5 246,-49.5 138,-49.5"/>
<text text-anchor="start" x="146" y="-67.5" font-family="Helvetica,sans-Serif" font-size="10.00" fill="#000000">qjs::js_traits&lt; std</text>
<text text-anchor="middle" x="192" y="-56.5" font-family="Helvetica,sans-Serif" font-size="10.00" fill="#000000">::string_view &gt;::wrap</text>
</a>
</g>
</g>
<!-- Node106671&#45;&gt;Node107306 -->
<g id="edge29" class="edge">
<title>Node106671&#45;&gt;Node107306</title>
<path fill="none" stroke="#191970" d="M52.0961,-241.0375C61.2844,-206.1266 85.0934,-132.5031 131,-89.5 135.0929,-85.666 139.8538,-82.3838 144.877,-79.5826"/>
<polygon fill="#191970" stroke="#191970" points="48.6544,-240.373 49.6172,-250.924 55.4443,-242.0755 48.6544,-240.373"/>
</g>
<!-- Node107307 -->
<g id="node30" class="node">
<title>Node107307</title>
<g id="a_node30"><a xlink:href="structqjs_1_1js__traits_3_01std_1_1string_01_4.html#ac5b51c364766cc6e173eb6fb473bca98" target="_top" xlink:title="qjs::js_traits\&lt; std\l::string \&gt;::wrap">
<polygon fill="none" stroke="#000000" points="146,-.5 146,-30.5 238,-30.5 238,-.5 146,-.5"/>
<text text-anchor="start" x="154" y="-18.5" font-family="Helvetica,sans-Serif" font-size="10.00" fill="#000000">qjs::js_traits&lt; std</text>
<text text-anchor="middle" x="192" y="-7.5" font-family="Helvetica,sans-Serif" font-size="10.00" fill="#000000">::string &gt;::wrap</text>
</a>
</g>
</g>
<!-- Node106671&#45;&gt;Node107307 -->
<g id="edge30" class="edge">
<title>Node106671&#45;&gt;Node107307</title>
<path fill="none" stroke="#191970" d="M49.6455,-240.42C55.2335,-197.7572 74.0077,-97.2723 131,-39.5 135.2359,-35.2061 140.3325,-31.6614 145.7518,-28.7399"/>
<polygon fill="#191970" stroke="#191970" points="46.1381,-240.2731 48.4217,-250.6189 53.0882,-241.1071 46.1381,-240.2731"/>
</g>
<!-- Node106673 -->
<g id="node3" class="node">
<title>Node106673</title>
<g id="a_node3"><a xlink:href="quickjs_8c.html#a7e4e02ec8849f3beaf28dc0613bb4016" target="_top" xlink:title="js_date_constructor">
<polygon fill="none" stroke="#ff0000" points="464,-833 464,-852 566,-852 566,-833 464,-833"/>
<text text-anchor="middle" x="515" y="-840" font-family="Helvetica,sans-Serif" font-size="10.00" fill="#000000">js_date_constructor</text>
</a>
</g>
</g>
<!-- Node106672&#45;&gt;Node106673 -->
<g id="edge2" class="edge">
<title>Node106672&#45;&gt;Node106673</title>
<path fill="none" stroke="#191970" d="M410.43,-842.5C427.588,-842.5 446.657,-842.5 463.7628,-842.5"/>
<polygon fill="#191970" stroke="#191970" points="410.0283,-839.0001 400.0282,-842.5 410.0282,-846.0001 410.0283,-839.0001"/>
</g>
<!-- Node106678 -->
<g id="node6" class="node">
<title>Node106678</title>
<g id="a_node6"><a xlink:href="quickjs_8c.html#ad2e4811daaaacb846df56bc88bd84e03" target="_top" xlink:title="js_json_stringify">
<polygon fill="none" stroke="#000000" points="315,-365 315,-384 402,-384 402,-365 315,-365"/>
<text text-anchor="middle" x="358.5" y="-372" font-family="Helvetica,sans-Serif" font-size="10.00" fill="#000000">js_json_stringify</text>
</a>
</g>
</g>
<!-- Node106677&#45;&gt;Node106678 -->
<g id="edge5" class="edge">
<title>Node106677&#45;&gt;Node106678</title>
<path fill="none" stroke="#191970" d="M250.7667,-374.5C271.8967,-374.5 295.3364,-374.5 314.9419,-374.5"/>
<polygon fill="#191970" stroke="#191970" points="250.6063,-371.0001 240.6063,-374.5 250.6062,-378.0001 250.6063,-371.0001"/>
</g>
<!-- Node106680 -->
<g id="node8" class="node">
<title>Node106680</title>
<g id="a_node8"><a xlink:href="quickjs_8c.html#aadfd9c31a6f69160c12e99b8d5eb5b3c" target="_top" xlink:title="js_atom_concat_str">
<polygon fill="none" stroke="#ff0000" points="307.5,-327 307.5,-346 409.5,-346 409.5,-327 307.5,-327"/>
<text text-anchor="middle" x="358.5" y="-334" font-family="Helvetica,sans-Serif" font-size="10.00" fill="#000000">js_atom_concat_str</text>
</a>
</g>
</g>
<!-- Node106679&#45;&gt;Node106680 -->
<g id="edge7" class="edge">
<title>Node106679&#45;&gt;Node106680</title>
<path fill="none" stroke="#191970" d="M248.8325,-336.5C267.8142,-336.5 288.8401,-336.5 307.3616,-336.5"/>
<polygon fill="#191970" stroke="#191970" points="248.8227,-333.0001 238.8226,-336.5 248.8226,-340.0001 248.8227,-333.0001"/>
</g>
<!-- Node106716 -->
<g id="node9" class="node">
<title>Node106716</title>
<g id="a_node9"><a xlink:href="quickjs_8c.html#aa2ef5af1544a3012f91a80c98c326b8f" target="_top" xlink:title="JS_NewAtom">
<polygon fill="none" stroke="#ff0000" points="320,-289 320,-308 397,-308 397,-289 320,-289"/>
<text text-anchor="middle" x="358.5" y="-296" font-family="Helvetica,sans-Serif" font-size="10.00" fill="#000000">JS_NewAtom</text>
</a>
</g>
</g>
<!-- Node106679&#45;&gt;Node106716 -->
<g id="edge8" class="edge">
<title>Node106679&#45;&gt;Node106716</title>
<path fill="none" stroke="#191970" d="M243.9022,-324.6544C268.4775,-319.0457 297.3207,-312.4628 319.9224,-307.3045"/>
<polygon fill="#191970" stroke="#191970" points="242.9855,-321.2736 234.015,-326.911 244.5431,-328.0981 242.9855,-321.2736"/>
</g>
<!-- Node107272 -->
<g id="node10" class="node">
<title>Node107272</title>
<g id="a_node10"><a xlink:href="quickjs_8c.html#ad91865d0889d1420e3e70d5d497a9bdb" target="_top" xlink:title="parse_ident">
<polygon fill="none" stroke="#ff0000" points="325,-251 325,-270 392,-270 392,-251 325,-251"/>
<text text-anchor="middle" x="358.5" y="-258" font-family="Helvetica,sans-Serif" font-size="10.00" fill="#000000">parse_ident</text>
</a>
</g>
</g>
<!-- Node106679&#45;&gt;Node107272 -->
<g id="edge9" class="edge">
<title>Node106679&#45;&gt;Node107272</title>
<path fill="none" stroke="#191970" d="M242.3532,-323.1358C246.0602,-321.4573 249.6535,-319.585 253,-317.5 272.7456,-305.1978 269.0416,-291.4539 289,-279.5 299.8385,-273.0084 312.9427,-268.6816 324.8379,-265.822"/>
<polygon fill="#191970" stroke="#191970" points="240.9429,-319.9306 232.9802,-326.9195 243.5633,-326.4217 240.9429,-319.9306"/>
</g>
<!-- Node107281&#45;&gt;Node106672 -->
<g id="edge22" class="edge">
<title>Node107281&#45;&gt;Node106672</title>
<path fill="none" stroke="#191970" d="M201.8167,-621.1929C214.3708,-645.4065 236.4627,-689.0717 253,-727.5 271.0127,-769.3567 255.3323,-792.7928 289,-823.5 296.6709,-830.4964 306.6733,-834.9533 316.6892,-837.7819"/>
<polygon fill="#191970" stroke="#191970" points="204.7912,-619.3274 197.0643,-612.0785 198.5843,-622.5638 204.7912,-619.3274"/>
</g>
<!-- Node107282 -->
<g id="node12" class="node">
<title>Node107282</title>
<g id="a_node12"><a xlink:href="structqjs_1_1js__traits_3_01const_01char_01_5_01_4.html#ae1a13e887841edd9c73cc2ea8e72d7bb" target="_top" xlink:title="qjs::js_traits\&lt; const\l char * \&gt;::wrap">
<polygon fill="none" stroke="#000000" points="307,-783.5 307,-813.5 410,-813.5 410,-783.5 307,-783.5"/>
<text text-anchor="start" x="315" y="-801.5" font-family="Helvetica,sans-Serif" font-size="10.00" fill="#000000">qjs::js_traits&lt; const</text>
<text text-anchor="middle" x="358.5" y="-790.5" font-family="Helvetica,sans-Serif" font-size="10.00" fill="#000000"> char * &gt;::wrap</text>
</a>
</g>
</g>
<!-- Node107281&#45;&gt;Node107282 -->
<g id="edge11" class="edge">
<title>Node107281&#45;&gt;Node107282</title>
<path fill="none" stroke="#191970" d="M200.7625,-621.634C219.3601,-661.5404 263.1855,-751.7544 289,-773.5 294.2958,-777.9611 300.4498,-781.6525 306.8643,-784.7005"/>
<polygon fill="#191970" stroke="#191970" points="203.8823,-620.0416 196.5079,-612.4345 197.5289,-622.9801 203.8823,-620.0416"/>
</g>
<!-- Node106741 -->
<g id="node13" class="node">
<title>Node106741</title>
<g id="a_node13"><a xlink:href="quickjs-libc_8c.html#a5cc3e22713f1916d49867f60a7375505" target="_top" xlink:title="js_module_set_import_meta">
<polygon fill="none" stroke="#ff0000" points="289,-745 289,-764 428,-764 428,-745 289,-745"/>
<text text-anchor="middle" x="358.5" y="-752" font-family="Helvetica,sans-Serif" font-size="10.00" fill="#000000">js_module_set_import_meta</text>
</a>
</g>
</g>
<!-- Node107281&#45;&gt;Node106741 -->
<g id="edge12" class="edge">
<title>Node107281&#45;&gt;Node106741</title>
<path fill="none" stroke="#191970" d="M200.5735,-621.353C214.7504,-650.374 245.8576,-705.7459 289,-735.5 294.6635,-739.406 301.1014,-742.5106 307.7196,-744.9779"/>
<polygon fill="#191970" stroke="#191970" points="203.7163,-619.8118 196.273,-612.2721 197.3899,-622.8079 203.7163,-619.8118"/>
</g>
<!-- Node107149 -->
<g id="node14" class="node">
<title>Node107149</title>
<g id="a_node14"><a xlink:href="quickjs-libc_8c.html#a1e9ea68a66c0e646ba3250625a52a3e2" target="_top" xlink:title="js_std_getenv">
<polygon fill="none" stroke="#000000" points="320,-707 320,-726 397,-726 397,-707 320,-707"/>
<text text-anchor="middle" x="358.5" y="-714" font-family="Helvetica,sans-Serif" font-size="10.00" fill="#000000">js_std_getenv</text>
</a>
</g>
</g>
<!-- Node107281&#45;&gt;Node107149 -->
<g id="edge13" class="edge">
<title>Node107281&#45;&gt;Node107149</title>
<path fill="none" stroke="#191970" d="M205.3014,-620.1849C222.3614,-641.6302 253.96,-677.3945 289,-697.5 298.4391,-702.916 309.4894,-706.8453 319.9656,-709.6727"/>
<polygon fill="#191970" stroke="#191970" points="208.0071,-617.9626 199.1069,-612.2147 202.48,-622.2582 208.0071,-617.9626"/>
</g>
<!-- Node107075 -->
<g id="node15" class="node">
<title>Node107075</title>
<g id="a_node15"><a xlink:href="quickjs-libc_8c.html#a3c85f840e36c372bd5164d7cf6949ae4" target="_top" xlink:title="js_std_strerror">
<polygon fill="none" stroke="#000000" points="319,-669 319,-688 398,-688 398,-669 319,-669"/>
<text text-anchor="middle" x="358.5" y="-676" font-family="Helvetica,sans-Serif" font-size="10.00" fill="#000000">js_std_strerror</text>
</a>
</g>
</g>
<!-- Node107281&#45;&gt;Node107075 -->
<g id="edge14" class="edge">
<title>Node107281&#45;&gt;Node107075</title>
<path fill="none" stroke="#191970" d="M214.0846,-617.7706C233.1918,-630.4112 261.933,-648.086 289,-659.5 298.4512,-663.4855 308.9784,-666.8672 318.9227,-669.623"/>
<polygon fill="#191970" stroke="#191970" points="215.78,-614.6931 205.5281,-612.0192 211.8749,-620.5026 215.78,-614.6931"/>
</g>
<!-- Node106912 -->
<g id="node16" class="node">
<title>Node106912</title>
<g id="a_node16"><a xlink:href="quickjs-libc_8c.html#ae77b81ae623983a6ab0351277d33e0f4" target="_top" xlink:title="make_string_error">
<polygon fill="none" stroke="#ff0000" points="311,-631 311,-650 406,-650 406,-631 311,-631"/>
<text text-anchor="middle" x="358.5" y="-638" font-family="Helvetica,sans-Serif" font-size="10.00" fill="#000000">make_string_error</text>
</a>
</g>
</g>
<!-- Node107281&#45;&gt;Node106912 -->
<g id="edge15" class="edge">
<title>Node107281&#45;&gt;Node106912</title>
<path fill="none" stroke="#191970" d="M242.2263,-613.9631C266.0584,-619.4022 294.1996,-625.8248 316.8274,-630.9891"/>
<polygon fill="#191970" stroke="#191970" points="242.8331,-610.5116 232.305,-611.6987 241.2755,-617.3361 242.8331,-610.5116"/>
</g>
<!-- Node106911 -->
<g id="node17" class="node">
<title>Node106911</title>
<g id="a_node17"><a xlink:href="quickjs-libc_8c.html#a64270f007df853e9d2f443383d26ec60" target="_top" xlink:title="js_os_readdir">
<polygon fill="none" stroke="#000000" points="321.5,-593 321.5,-612 395.5,-612 395.5,-593 321.5,-593"/>
<text text-anchor="middle" x="358.5" y="-600" font-family="Helvetica,sans-Serif" font-size="10.00" fill="#000000">js_os_readdir</text>
</a>
</g>
</g>
<!-- Node107281&#45;&gt;Node106911 -->
<g id="edge16" class="edge">
<title>Node107281&#45;&gt;Node106911</title>
<path fill="none" stroke="#191970" d="M242.5025,-602.5C267.9161,-602.5 298.1733,-602.5 321.4125,-602.5"/>
<polygon fill="#191970" stroke="#191970" points="242.305,-599.0001 232.305,-602.5 242.305,-606.0001 242.305,-599.0001"/>
</g>
<!-- Node106887 -->
<g id="node18" class="node">
<title>Node106887</title>
<g id="a_node18"><a xlink:href="quickjs-libc_8c.html#ad04466feec6822a3b838baf229f6dfa0" target="_top" xlink:title="js_std_add_helpers">
<polygon fill="none" stroke="#ff0000" points="308,-555 308,-574 409,-574 409,-555 308,-555"/>
<text text-anchor="middle" x="358.5" y="-562" font-family="Helvetica,sans-Serif" font-size="10.00" fill="#000000">js_std_add_helpers</text>
</a>
</g>
</g>
<!-- Node107281&#45;&gt;Node106887 -->
<g id="edge17" class="edge">
<title>Node107281&#45;&gt;Node106887</title>
<path fill="none" stroke="#191970" d="M242.2263,-591.0369C266.0584,-585.5978 294.1996,-579.1752 316.8274,-574.0109"/>
<polygon fill="#191970" stroke="#191970" points="241.2755,-587.6639 232.305,-593.3013 242.8331,-594.4884 241.2755,-587.6639"/>
</g>
<!-- Node107283 -->
<g id="node19" class="node">
<title>Node107283</title>
<g id="a_node19"><a xlink:href="quickjs_8c.html#a7445082229205ad47aec019d74536f8e" target="_top" xlink:title="JS_NewAtomUInt32">
<polygon fill="none" stroke="#ff0000" points="305,-517 305,-536 412,-536 412,-517 305,-517"/>
<text text-anchor="middle" x="358.5" y="-524" font-family="Helvetica,sans-Serif" font-size="10.00" fill="#000000">JS_NewAtomUInt32</text>
</a>
</g>
</g>
<!-- Node107281&#45;&gt;Node107283 -->
<g id="edge18" class="edge">
<title>Node107281&#45;&gt;Node107283</title>
<path fill="none" stroke="#191970" d="M214.0846,-587.2294C233.1918,-574.5888 261.933,-556.914 289,-545.5 297.6444,-541.8547 307.1889,-538.7146 316.3643,-536.0964"/>
<polygon fill="#191970" stroke="#191970" points="211.8749,-584.4974 205.5281,-592.9808 215.78,-590.3069 211.8749,-584.4974"/>
</g>
<!-- Node107284 -->
<g id="node20" class="node">
<title>Node107284</title>
<g id="a_node20"><a xlink:href="quickjs_8c.html#aa641af3a921335927dab07dc83285917" target="_top" xlink:title="JS_NewAtomInt64">
<polygon fill="none" stroke="#ff0000" points="309,-479 309,-498 408,-498 408,-479 309,-479"/>
<text text-anchor="middle" x="358.5" y="-486" font-family="Helvetica,sans-Serif" font-size="10.00" fill="#000000">JS_NewAtomInt64</text>
</a>
</g>
</g>
<!-- Node107281&#45;&gt;Node107284 -->
<g id="edge19" class="edge">
<title>Node107281&#45;&gt;Node107284</title>
<path fill="none" stroke="#191970" d="M205.3014,-584.8151C222.3614,-563.3698 253.96,-527.6055 289,-507.5 295.7267,-503.6403 303.2717,-500.5357 310.8441,-498.0468"/>
<polygon fill="#191970" stroke="#191970" points="202.48,-582.7418 199.1069,-592.7853 208.0071,-587.0374 202.48,-582.7418"/>
</g>
<!-- Node107285 -->
<g id="node21" class="node">
<title>Node107285</title>
<g id="a_node21"><a xlink:href="quickjs_8c.html#a06ff303a11e6641cbf1f6634e6a61811" target="_top" xlink:title="__JS_AtomToValue">
<polygon fill="none" stroke="#ff0000" points="306.5,-441 306.5,-460 410.5,-460 410.5,-441 306.5,-441"/>
<text text-anchor="middle" x="358.5" y="-448" font-family="Helvetica,sans-Serif" font-size="10.00" fill="#000000">__JS_AtomToValue</text>
</a>
</g>
</g>
<!-- Node107281&#45;&gt;Node107285 -->
<g id="edge20" class="edge">
<title>Node107281&#45;&gt;Node107285</title>
<path fill="none" stroke="#191970" d="M200.5735,-583.647C214.7504,-554.626 245.8576,-499.2541 289,-469.5 294.6635,-465.594 301.1014,-462.4894 307.7196,-460.0221"/>
<polygon fill="#191970" stroke="#191970" points="197.3899,-582.1921 196.273,-592.7279 203.7163,-585.1882 197.3899,-582.1921"/>
</g>
<!-- Node106900 -->
<g id="node22" class="node">
<title>Node106900</title>
<g id="a_node22"><a xlink:href="quickjs_8c.html#a61c8dfb5e807af1b6ff7d8ca61576dda" target="_top" xlink:title="build_backtrace">
<polygon fill="none" stroke="#ff0000" points="316,-403 316,-422 401,-422 401,-403 316,-403"/>
<text text-anchor="middle" x="358.5" y="-410" font-family="Helvetica,sans-Serif" font-size="10.00" fill="#000000">build_backtrace</text>
</a>
</g>
</g>
<!-- Node107281&#45;&gt;Node106900 -->
<g id="edge21" class="edge">
<title>Node107281&#45;&gt;Node106900</title>
<path fill="none" stroke="#191970" d="M197.5922,-582.8872C208.8032,-547.1799 237.4742,-471.5582 289,-431.5 296.8016,-425.4347 306.4066,-421.3035 315.9591,-418.4902"/>
<polygon fill="#191970" stroke="#191970" points="194.1984,-582.0193 194.6675,-592.6038 200.9013,-584.037 194.1984,-582.0193"/>
</g>
</g>
</svg>
