<?xml version="1.0" encoding="UTF-8" standalone="no"?>
<!DOCTYPE svg PUBLIC "-//W3C//DTD SVG 1.1//EN"
 "http://www.w3.org/Graphics/SVG/1.1/DTD/svg11.dtd">
<!-- Generated by graphviz version 2.40.1 (20161225.0304)
 -->
<!-- Title: JS_NewStringLen Pages: 1 -->
<!--zoomable 798 -->
<svg id="main" version="1.1" xmlns="http://www.w3.org/2000/svg" xmlns:xlink="http://www.w3.org/1999/xlink" xml:space="preserve" onload="init(evt)">
<style type="text/css"><![CDATA[
.edge:hover path { stroke: red; }
.edge:hover polygon { stroke: red; fill: red; }
]]></style>
<script type="text/javascript"><![CDATA[
var edges = document.getElementsByTagName('g');
if (edges && edges.length) {
  for (var i=0;i<edges.length;i++) {
    if (edges[i].id.substr(0,4)=='edge') {
      edges[i].setAttribute('class','edge');
    }
  }
}
]]></script>
        <defs>
                <circle id="rim" cx="0" cy="0" r="7"/>
                <circle id="rim2" cx="0" cy="0" r="3.5"/>
                <g id="zoomPlus">
                        <use xlink:href="#rim" fill="#404040">
                                <set attributeName="fill" to="#808080" begin="zoomplus.mouseover" end="zoomplus.mouseout"/>
                        </use>
                        <path d="M-4,0h8M0,-4v8" fill="none" stroke="white" stroke-width="1.5" pointer-events="none"/>
                </g>
                <g id="zoomMin">
                        <use xlink:href="#rim" fill="#404040">
                                <set attributeName="fill" to="#808080" begin="zoomminus.mouseover" end="zoomminus.mouseout"/>
                        </use>
                        <path d="M-4,0h8" fill="none" stroke="white" stroke-width="1.5" pointer-events="none"/>
                </g>
                <g id="dirArrow">
                        <path fill="none" stroke="white" stroke-width="1.5" d="M0,-3.0v7 M-2.5,-0.5L0,-3.0L2.5,-0.5"/>
                </g>
               <g id="resetDef">
                       <use xlink:href="#rim2" fill="#404040">
                               <set attributeName="fill" to="#808080" begin="reset.mouseover" end="reset.mouseout"/>
                       </use>
               </g>
        </defs>

<script type="text/javascript">
var viewWidth = 697;
var viewHeight = 798;
var sectionId = 'dynsection-138';
</script>
<script xlink:href="svgpan.js"/>
<svg id="graph" class="graph">
<g id="viewport">
<title>JS_NewStringLen</title>
<!-- Node44418 -->
<g id="node1" class="node">
<title>Node44418</title>
<polygon fill="#bfbfbf" stroke="#000000" points="0,-251 0,-270 95,-270 95,-251 0,-251"/>
<text text-anchor="middle" x="47.5" y="-258" font-family="Helvetica,sans-Serif" font-size="10.00" fill="#000000">JS_NewStringLen</text>
</g>
<!-- Node44419 -->
<g id="node2" class="node">
<title>Node44419</title>
<g id="a_node2"><a xlink:href="quickjs_8c.html#ab522181d975cc7949088c8ff67fedde0" target="_top" xlink:title="get_date_string">
<polygon fill="none" stroke="#000000" points="317,-766 317,-785 400,-785 400,-766 317,-766"/>
<text text-anchor="middle" x="358.5" y="-773" font-family="Helvetica,sans-Serif" font-size="10.00" fill="#000000">get_date_string</text>
</a>
</g>
</g>
<!-- Node44418&#45;&gt;Node44419 -->
<g id="edge1" class="edge">
<title>Node44418&#45;&gt;Node44419</title>
<path fill="none" stroke="#191970" d="M47.8113,-280.1042C49.5634,-363.2704 60.8499,-685.6585 131,-751.5 180.6638,-798.1135 265.8868,-793.0432 316.7363,-784.6175"/>
<polygon fill="#191970" stroke="#191970" points="51.309,-279.941 47.6223,-270.0084 44.3102,-280.0722 51.309,-279.941"/>
</g>
<!-- Node44423 -->
<g id="node4" class="node">
<title>Node44423</title>
<g id="a_node4"><a xlink:href="quickjs_8c.html#a9876c37aa1b715e05e0e5fe1b46bcf3d" target="_top" xlink:title="js_function_toString">
<polygon fill="none" stroke="#000000" points="140.5,-365 140.5,-384 243.5,-384 243.5,-365 140.5,-365"/>
<text text-anchor="middle" x="192" y="-372" font-family="Helvetica,sans-Serif" font-size="10.00" fill="#000000">js_function_toString</text>
</a>
</g>
</g>
<!-- Node44418&#45;&gt;Node44423 -->
<g id="edge3" class="edge">
<title>Node44418&#45;&gt;Node44423</title>
<path fill="none" stroke="#191970" d="M58.873,-278.6297C73.185,-300.0062 99.7159,-335.189 131,-355.5 136.9541,-359.3657 143.7437,-362.486 150.5788,-364.9921"/>
<polygon fill="#191970" stroke="#191970" points="61.7351,-276.6108 53.3462,-270.1396 55.8686,-280.4298 61.7351,-276.6108"/>
</g>
<!-- Node44424 -->
<g id="node5" class="node">
<title>Node44424</title>
<g id="a_node5"><a xlink:href="quickjs_8c.html#a343a343b16bc3c9875050e99ee0d2884" target="_top" xlink:title="JS_JSONStringify">
<polygon fill="none" stroke="#000000" points="466.5,-561 466.5,-580 563.5,-580 563.5,-561 466.5,-561"/>
<text text-anchor="middle" x="515" y="-568" font-family="Helvetica,sans-Serif" font-size="10.00" fill="#000000">JS_JSONStringify</text>
</a>
</g>
</g>
<!-- Node44418&#45;&gt;Node44424 -->
<g id="edge4" class="edge">
<title>Node44418&#45;&gt;Node44424</title>
<path fill="none" stroke="#191970" d="M49.9787,-280.2739C60.7772,-356.5875 111.4566,-631.9672 289,-718.5 344.533,-745.5662 374.3784,-749.1792 428,-718.5 482.3271,-687.4172 506.0672,-607.7385 512.8447,-580.1076"/>
<polygon fill="#191970" stroke="#191970" points="53.4188,-279.5929 48.6192,-270.1476 46.481,-280.5244 53.4188,-279.5929"/>
</g>
<!-- Node44426 -->
<g id="node7" class="node">
<title>Node44426</title>
<g id="a_node7"><a xlink:href="quickjs_8c.html#a522741f41afb1d0da0aa55968cd8579e" target="_top" xlink:title="JS_NewAtomLen">
<polygon fill="none" stroke="#000000" points="145.5,-327 145.5,-346 238.5,-346 238.5,-327 145.5,-327"/>
<text text-anchor="middle" x="192" y="-334" font-family="Helvetica,sans-Serif" font-size="10.00" fill="#000000">JS_NewAtomLen</text>
</a>
</g>
</g>
<!-- Node44418&#45;&gt;Node44426 -->
<g id="edge6" class="edge">
<title>Node44418&#45;&gt;Node44426</title>
<path fill="none" stroke="#191970" d="M67.4519,-276.6393C83.7493,-289.1831 107.8018,-306.2807 131,-317.5 138.5891,-321.1703 147.0483,-324.3359 155.1923,-326.973"/>
<polygon fill="#191970" stroke="#191970" points="69.2785,-273.6238 59.2503,-270.2053 64.9579,-279.1314 69.2785,-273.6238"/>
</g>
<!-- Node45028 -->
<g id="node11" class="node">
<title>Node45028</title>
<g id="a_node11"><a xlink:href="quickjs_8c.html#a0ee6a3654a6016393fac5e1c108f403a" target="_top" xlink:title="JS_NewString">
<polygon fill="none" stroke="#ff0000" points="152,-488 152,-507 232,-507 232,-488 152,-488"/>
<text text-anchor="middle" x="192" y="-495" font-family="Helvetica,sans-Serif" font-size="10.00" fill="#000000">JS_NewString</text>
</a>
</g>
</g>
<!-- Node44418&#45;&gt;Node45028 -->
<g id="edge10" class="edge">
<title>Node44418&#45;&gt;Node45028</title>
<path fill="none" stroke="#191970" d="M58.5944,-278.6964C87.4594,-326.0389 164.1779,-451.8679 186.0837,-487.7965"/>
<polygon fill="#191970" stroke="#191970" points="61.5377,-276.8004 53.3435,-270.0842 55.561,-280.4444 61.5377,-276.8004"/>
</g>
<!-- Node44798 -->
<g id="node23" class="node">
<title>Node44798</title>
<g id="a_node23"><a xlink:href="quickjs-libc_8c.html#a2abec3aeee82a6dd3dd063725bbeecfe" target="_top" xlink:title="js_printf_internal">
<polygon fill="none" stroke="#ff0000" points="148,-289 148,-308 236,-308 236,-289 148,-289"/>
<text text-anchor="middle" x="192" y="-296" font-family="Helvetica,sans-Serif" font-size="10.00" fill="#000000">js_printf_internal</text>
</a>
</g>
</g>
<!-- Node44418&#45;&gt;Node44798 -->
<g id="edge25" class="edge">
<title>Node44418&#45;&gt;Node44798</title>
<path fill="none" stroke="#191970" d="M93.8325,-272.6843C113.8939,-277.96 137.0285,-284.0438 155.7988,-288.9799"/>
<polygon fill="#191970" stroke="#191970" points="94.5248,-269.2474 83.9635,-270.089 92.7445,-276.0173 94.5248,-269.2474"/>
</g>
<!-- Node44511 -->
<g id="node24" class="node">
<title>Node44511</title>
<g id="a_node24"><a xlink:href="quickjs_8c.html#a85bd252225e0864923cb62c583892de7" target="_top" xlink:title="js_regexp_get_flags">
<polygon fill="none" stroke="#000000" points="140,-251 140,-270 244,-270 244,-251 140,-251"/>
<text text-anchor="middle" x="192" y="-258" font-family="Helvetica,sans-Serif" font-size="10.00" fill="#000000">js_regexp_get_flags</text>
</a>
</g>
</g>
<!-- Node44418&#45;&gt;Node44511 -->
<g id="edge26" class="edge">
<title>Node44418&#45;&gt;Node44511</title>
<path fill="none" stroke="#191970" d="M105.4785,-260.5C116.8413,-260.5 128.6946,-260.5 139.8529,-260.5"/>
<polygon fill="#191970" stroke="#191970" points="105.2152,-257.0001 95.2152,-260.5 105.2151,-264.0001 105.2152,-257.0001"/>
</g>
<!-- Node45038 -->
<g id="node25" class="node">
<title>Node45038</title>
<g id="a_node25"><a xlink:href="quickjs-libc_8c.html#af31f002f20b3b7e983dd4efabd18d65e" target="_top" xlink:title="js_std_file_getline">
<polygon fill="none" stroke="#000000" points="144.5,-213 144.5,-232 239.5,-232 239.5,-213 144.5,-213"/>
<text text-anchor="middle" x="192" y="-220" font-family="Helvetica,sans-Serif" font-size="10.00" fill="#000000">js_std_file_getline</text>
</a>
</g>
</g>
<!-- Node44418&#45;&gt;Node45038 -->
<g id="edge27" class="edge">
<title>Node44418&#45;&gt;Node45038</title>
<path fill="none" stroke="#191970" d="M93.8325,-248.3157C113.8939,-243.04 137.0285,-236.9562 155.7988,-232.0201"/>
<polygon fill="#191970" stroke="#191970" points="92.7445,-244.9827 83.9635,-250.911 94.5248,-251.7526 92.7445,-244.9827"/>
</g>
<!-- Node44879 -->
<g id="node26" class="node">
<title>Node44879</title>
<g id="a_node26"><a xlink:href="quickjs-libc_8c.html#ae8abf0c32bf9b0acd85adffaf8345dfe" target="_top" xlink:title="js_std_file_readAsString">
<polygon fill="none" stroke="#000000" points="131,-175 131,-194 253,-194 253,-175 131,-175"/>
<text text-anchor="middle" x="192" y="-182" font-family="Helvetica,sans-Serif" font-size="10.00" fill="#000000">js_std_file_readAsString</text>
</a>
</g>
</g>
<!-- Node44418&#45;&gt;Node44879 -->
<g id="edge28" class="edge">
<title>Node44418&#45;&gt;Node44879</title>
<path fill="none" stroke="#191970" d="M67.4519,-244.3607C83.7493,-231.8169 107.8018,-214.7193 131,-203.5 138.5891,-199.8297 147.0483,-196.6641 155.1923,-194.027"/>
<polygon fill="#191970" stroke="#191970" points="64.9579,-241.8686 59.2503,-250.7947 69.2785,-247.3762 64.9579,-241.8686"/>
</g>
<!-- Node44916 -->
<g id="node27" class="node">
<title>Node44916</title>
<g id="a_node27"><a xlink:href="quickjs-libc_8c.html#a879319bb5089c26a9e2f19e9fc9c0a73" target="_top" xlink:title="js_std_loadFile">
<polygon fill="none" stroke="#000000" points="151,-137 151,-156 233,-156 233,-137 151,-137"/>
<text text-anchor="middle" x="192" y="-144" font-family="Helvetica,sans-Serif" font-size="10.00" fill="#000000">js_std_loadFile</text>
</a>
</g>
</g>
<!-- Node44418&#45;&gt;Node44916 -->
<g id="edge29" class="edge">
<title>Node44418&#45;&gt;Node44916</title>
<path fill="none" stroke="#191970" d="M58.873,-242.3703C73.185,-220.9938 99.7159,-185.811 131,-165.5 137.0472,-161.5739 143.9561,-158.4167 150.8993,-155.8909"/>
<polygon fill="#191970" stroke="#191970" points="55.8686,-240.5702 53.3462,-250.8604 61.7351,-244.3892 55.8686,-240.5702"/>
</g>
<!-- Node44504 -->
<g id="node28" class="node">
<title>Node44504</title>
<g id="a_node28"><a xlink:href="quickjs-libc_8c.html#a7aebce2172c6aa4a6645aef600a69e6b" target="_top" xlink:title="js_std_urlGet">
<polygon fill="none" stroke="#000000" points="155,-99 155,-118 229,-118 229,-99 155,-99"/>
<text text-anchor="middle" x="192" y="-106" font-family="Helvetica,sans-Serif" font-size="10.00" fill="#000000">js_std_urlGet</text>
</a>
</g>
</g>
<!-- Node44418&#45;&gt;Node44504 -->
<g id="edge30" class="edge">
<title>Node44418&#45;&gt;Node44504</title>
<path fill="none" stroke="#191970" d="M54.432,-241.448C65.9026,-212.5675 91.5562,-157.8644 131,-127.5 137.9436,-122.1547 146.4108,-118.2991 154.7999,-115.5228"/>
<polygon fill="#191970" stroke="#191970" points="51.1482,-240.2363 50.8484,-250.8269 57.6871,-242.7348 51.1482,-240.2363"/>
</g>
<!-- Node45039 -->
<g id="node29" class="node">
<title>Node45039</title>
<g id="a_node29"><a xlink:href="structqjs_1_1js__traits_3_01std_1_1string__view_01_4.html#ad9dac01710453b7af63a997961c1fa6a" target="_top" xlink:title="qjs::js_traits\&lt; std\l::string_view \&gt;::wrap">
<polygon fill="none" stroke="#000000" points="138,-49.5 138,-79.5 246,-79.5 246,-49.5 138,-49.5"/>
<text text-anchor="start" x="146" y="-67.5" font-family="Helvetica,sans-Serif" font-size="10.00" fill="#000000">qjs::js_traits&lt; std</text>
<text text-anchor="middle" x="192" y="-56.5" font-family="Helvetica,sans-Serif" font-size="10.00" fill="#000000">::string_view &gt;::wrap</text>
</a>
</g>
</g>
<!-- Node44418&#45;&gt;Node45039 -->
<g id="edge31" class="edge">
<title>Node44418&#45;&gt;Node45039</title>
<path fill="none" stroke="#191970" d="M52.0961,-241.0375C61.2844,-206.1266 85.0934,-132.5031 131,-89.5 135.0929,-85.666 139.8538,-82.3838 144.877,-79.5826"/>
<polygon fill="#191970" stroke="#191970" points="48.6544,-240.373 49.6172,-250.924 55.4443,-242.0755 48.6544,-240.373"/>
</g>
<!-- Node45040 -->
<g id="node30" class="node">
<title>Node45040</title>
<g id="a_node30"><a xlink:href="structqjs_1_1js__traits_3_01std_1_1string_01_4.html#ac5b51c364766cc6e173eb6fb473bca98" target="_top" xlink:title="qjs::js_traits\&lt; std\l::string \&gt;::wrap">
<polygon fill="none" stroke="#000000" points="146,-.5 146,-30.5 238,-30.5 238,-.5 146,-.5"/>
<text text-anchor="start" x="154" y="-18.5" font-family="Helvetica,sans-Serif" font-size="10.00" fill="#000000">qjs::js_traits&lt; std</text>
<text text-anchor="middle" x="192" y="-7.5" font-family="Helvetica,sans-Serif" font-size="10.00" fill="#000000">::string &gt;::wrap</text>
</a>
</g>
</g>
<!-- Node44418&#45;&gt;Node45040 -->
<g id="edge32" class="edge">
<title>Node44418&#45;&gt;Node45040</title>
<path fill="none" stroke="#191970" d="M49.6455,-240.42C55.2335,-197.7572 74.0077,-97.2723 131,-39.5 135.2359,-35.2061 140.3325,-31.6614 145.7518,-28.7399"/>
<polygon fill="#191970" stroke="#191970" points="46.1381,-240.2731 48.4217,-250.6189 53.0882,-241.1071 46.1381,-240.2731"/>
</g>
<!-- Node44420 -->
<g id="node3" class="node">
<title>Node44420</title>
<g id="a_node3"><a xlink:href="quickjs_8c.html#a7e4e02ec8849f3beaf28dc0613bb4016" target="_top" xlink:title="js_date_constructor">
<polygon fill="none" stroke="#ff0000" points="464,-766 464,-785 566,-785 566,-766 464,-766"/>
<text text-anchor="middle" x="515" y="-773" font-family="Helvetica,sans-Serif" font-size="10.00" fill="#000000">js_date_constructor</text>
</a>
</g>
</g>
<!-- Node44419&#45;&gt;Node44420 -->
<g id="edge2" class="edge">
<title>Node44419&#45;&gt;Node44420</title>
<path fill="none" stroke="#191970" d="M410.43,-775.5C427.588,-775.5 446.657,-775.5 463.7628,-775.5"/>
<polygon fill="#191970" stroke="#191970" points="410.0283,-772.0001 400.0282,-775.5 410.0282,-779.0001 410.0283,-772.0001"/>
</g>
<!-- Node44425 -->
<g id="node6" class="node">
<title>Node44425</title>
<g id="a_node6"><a xlink:href="quickjs_8c.html#ad2e4811daaaacb846df56bc88bd84e03" target="_top" xlink:title="js_json_stringify">
<polygon fill="none" stroke="#000000" points="602,-561 602,-580 689,-580 689,-561 602,-561"/>
<text text-anchor="middle" x="645.5" y="-568" font-family="Helvetica,sans-Serif" font-size="10.00" fill="#000000">js_json_stringify</text>
</a>
</g>
</g>
<!-- Node44424&#45;&gt;Node44425 -->
<g id="edge5" class="edge">
<title>Node44424&#45;&gt;Node44425</title>
<path fill="none" stroke="#191970" d="M573.6725,-570.5C583.0619,-570.5 592.6348,-570.5 601.6029,-570.5"/>
<polygon fill="#191970" stroke="#191970" points="573.5934,-567.0001 563.5934,-570.5 573.5933,-574.0001 573.5934,-567.0001"/>
</g>
<!-- Node44427 -->
<g id="node8" class="node">
<title>Node44427</title>
<g id="a_node8"><a xlink:href="quickjs_8c.html#aadfd9c31a6f69160c12e99b8d5eb5b3c" target="_top" xlink:title="js_atom_concat_str">
<polygon fill="none" stroke="#ff0000" points="307.5,-242 307.5,-261 409.5,-261 409.5,-242 307.5,-242"/>
<text text-anchor="middle" x="358.5" y="-249" font-family="Helvetica,sans-Serif" font-size="10.00" fill="#000000">js_atom_concat_str</text>
</a>
</g>
</g>
<!-- Node44426&#45;&gt;Node44427 -->
<g id="edge7" class="edge">
<title>Node44426&#45;&gt;Node44427</title>
<path fill="none" stroke="#191970" d="M243.8615,-322.9001C247.0611,-321.2907 250.1395,-319.4974 253,-317.5 274.5737,-302.436 267.1654,-285.1832 289,-270.5 294.8128,-266.5911 301.4082,-263.4831 308.1656,-261.0127"/>
<polygon fill="#191970" stroke="#191970" points="242.3529,-319.7399 234.6038,-326.9649 245.1672,-326.1493 242.3529,-319.7399"/>
</g>
<!-- Node44463 -->
<g id="node9" class="node">
<title>Node44463</title>
<g id="a_node9"><a xlink:href="quickjs_8c.html#aa2ef5af1544a3012f91a80c98c326b8f" target="_top" xlink:title="JS_NewAtom">
<polygon fill="none" stroke="#ff0000" points="320,-204 320,-223 397,-223 397,-204 320,-204"/>
<text text-anchor="middle" x="358.5" y="-211" font-family="Helvetica,sans-Serif" font-size="10.00" fill="#000000">JS_NewAtom</text>
</a>
</g>
</g>
<!-- Node44426&#45;&gt;Node44463 -->
<g id="edge8" class="edge">
<title>Node44426&#45;&gt;Node44463</title>
<path fill="none" stroke="#191970" d="M247.437,-321.8395C249.398,-320.5161 251.2634,-319.0732 253,-317.5 283.4054,-289.956 258.1161,-259.5063 289,-232.5 297.5689,-225.007 308.8277,-220.4402 319.7814,-217.6661"/>
<polygon fill="#191970" stroke="#191970" points="245.3633,-318.9881 238.3285,-326.9104 248.7683,-325.1042 245.3633,-318.9881"/>
</g>
<!-- Node45019 -->
<g id="node10" class="node">
<title>Node45019</title>
<g id="a_node10"><a xlink:href="quickjs_8c.html#ad91865d0889d1420e3e70d5d497a9bdb" target="_top" xlink:title="parse_ident">
<polygon fill="none" stroke="#ff0000" points="325,-166 325,-185 392,-185 392,-166 325,-166"/>
<text text-anchor="middle" x="358.5" y="-173" font-family="Helvetica,sans-Serif" font-size="10.00" fill="#000000">parse_ident</text>
</a>
</g>
</g>
<!-- Node44426&#45;&gt;Node45019 -->
<g id="edge9" class="edge">
<title>Node44426&#45;&gt;Node45019</title>
<path fill="none" stroke="#191970" d="M247.6744,-322.0868C249.5706,-320.6958 251.3574,-319.1711 253,-317.5 292.9285,-276.8779 248.3649,-234.4153 289,-194.5 298.5483,-185.1208 312.2564,-180.2627 324.9788,-177.785"/>
<polygon fill="#191970" stroke="#191970" points="245.5841,-319.2573 238.7694,-327.3696 249.1557,-325.2776 245.5841,-319.2573"/>
</g>
<!-- Node45028&#45;&gt;Node44419 -->
<g id="edge13" class="edge">
<title>Node45028&#45;&gt;Node44419</title>
<path fill="none" stroke="#191970" d="M197.1446,-516.8588C208.5881,-557.365 239.1417,-652.7434 289,-718.5 304.0853,-738.3955 327.4624,-755.6873 342.8739,-765.8583"/>
<polygon fill="#191970" stroke="#191970" points="200.5055,-515.8801 194.4788,-507.1663 193.7561,-517.7365 200.5055,-515.8801"/>
</g>
<!-- Node45029 -->
<g id="node12" class="node">
<title>Node45029</title>
<g id="a_node12"><a xlink:href="quickjs_8c.html#a06ff303a11e6641cbf1f6634e6a61811" target="_top" xlink:title="__JS_AtomToValue">
<polygon fill="none" stroke="#ff0000" points="306.5,-526 306.5,-545 410.5,-545 410.5,-526 306.5,-526"/>
<text text-anchor="middle" x="358.5" y="-533" font-family="Helvetica,sans-Serif" font-size="10.00" fill="#000000">__JS_AtomToValue</text>
</a>
</g>
</g>
<!-- Node45028&#45;&gt;Node45029 -->
<g id="edge11" class="edge">
<title>Node45028&#45;&gt;Node45029</title>
<path fill="none" stroke="#191970" d="M242.2263,-508.9631C266.0584,-514.4022 294.1996,-520.8248 316.8274,-525.9891"/>
<polygon fill="#191970" stroke="#191970" points="242.8331,-505.5116 232.305,-506.6987 241.2755,-512.3361 242.8331,-505.5116"/>
</g>
<!-- Node44649 -->
<g id="node13" class="node">
<title>Node44649</title>
<g id="a_node13"><a xlink:href="quickjs_8c.html#a61c8dfb5e807af1b6ff7d8ca61576dda" target="_top" xlink:title="build_backtrace">
<polygon fill="none" stroke="#ff0000" points="316,-488 316,-507 401,-507 401,-488 316,-488"/>
<text text-anchor="middle" x="358.5" y="-495" font-family="Helvetica,sans-Serif" font-size="10.00" fill="#000000">build_backtrace</text>
</a>
</g>
</g>
<!-- Node45028&#45;&gt;Node44649 -->
<g id="edge12" class="edge">
<title>Node45028&#45;&gt;Node44649</title>
<path fill="none" stroke="#191970" d="M242.4268,-497.5C265.9086,-497.5 293.5387,-497.5 315.9497,-497.5"/>
<polygon fill="#191970" stroke="#191970" points="242.305,-494.0001 232.305,-497.5 242.305,-501.0001 242.305,-494.0001"/>
</g>
<!-- Node45052 -->
<g id="node14" class="node">
<title>Node45052</title>
<g id="a_node14"><a xlink:href="quickjs_8c.html#a6508a2922531adcb280bbff485a9a44a" target="_top" xlink:title="js_dtoa">
<polygon fill="none" stroke="#ff0000" points="334.5,-450 334.5,-469 382.5,-469 382.5,-450 334.5,-450"/>
<text text-anchor="middle" x="358.5" y="-457" font-family="Helvetica,sans-Serif" font-size="10.00" fill="#000000">js_dtoa</text>
</a>
</g>
</g>
<!-- Node45028&#45;&gt;Node45052 -->
<g id="edge14" class="edge">
<title>Node45028&#45;&gt;Node45052</title>
<path fill="none" stroke="#191970" d="M242.3079,-486.0183C272.6785,-479.0869 310.0232,-470.5638 334.0386,-465.0828"/>
<polygon fill="#191970" stroke="#191970" points="241.2755,-482.6639 232.305,-488.3013 242.8331,-489.4884 241.2755,-482.6639"/>
</g>
<!-- Node44573 -->
<g id="node15" class="node">
<title>Node44573</title>
<g id="a_node15"><a xlink:href="quickjs_8c.html#a60d84dd116a9d7d912d08f298a4734dd" target="_top" xlink:title="js_json_to_str">
<polygon fill="none" stroke="#000000" points="320,-394 320,-413 397,-413 397,-394 320,-394"/>
<text text-anchor="middle" x="358.5" y="-401" font-family="Helvetica,sans-Serif" font-size="10.00" fill="#000000">js_json_to_str</text>
</a>
</g>
</g>
<!-- Node45028&#45;&gt;Node44573 -->
<g id="edge15" class="edge">
<title>Node45028&#45;&gt;Node44573</title>
<path fill="none" stroke="#191970" d="M216.5955,-482.6612C236.1049,-470.9847 264.1328,-454.4176 289,-440.5 306.1766,-430.8866 326.0198,-420.3813 340.0948,-413.0291"/>
<polygon fill="#191970" stroke="#191970" points="214.7874,-479.6643 208.0137,-487.8109 218.3892,-485.6666 214.7874,-479.6643"/>
</g>
<!-- Node44488 -->
<g id="node16" class="node">
<title>Node44488</title>
<g id="a_node16"><a xlink:href="quickjs-libc_8c.html#a5cc3e22713f1916d49867f60a7375505" target="_top" xlink:title="js_module_set_import_meta">
<polygon fill="none" stroke="#ff0000" points="289,-356 289,-375 428,-375 428,-356 289,-356"/>
<text text-anchor="middle" x="358.5" y="-363" font-family="Helvetica,sans-Serif" font-size="10.00" fill="#000000">js_module_set_import_meta</text>
</a>
</g>
</g>
<!-- Node45028&#45;&gt;Node44488 -->
<g id="edge18" class="edge">
<title>Node45028&#45;&gt;Node44488</title>
<path fill="none" stroke="#191970" d="M202.6355,-479.3725C218.3238,-454.2427 250.0597,-409.1394 289,-384.5 295.1308,-380.6207 302.0511,-377.524 309.0884,-375.0543"/>
<polygon fill="#191970" stroke="#191970" points="199.6303,-477.5782 197.427,-487.9415 205.612,-481.2141 199.6303,-477.5782"/>
</g>
<!-- Node45053 -->
<g id="node17" class="node">
<title>Node45053</title>
<g id="a_node17"><a xlink:href="quickjs_8c.html#aa641af3a921335927dab07dc83285917" target="_top" xlink:title="JS_NewAtomInt64">
<polygon fill="none" stroke="#ff0000" points="309,-318 309,-337 408,-337 408,-318 309,-318"/>
<text text-anchor="middle" x="358.5" y="-325" font-family="Helvetica,sans-Serif" font-size="10.00" fill="#000000">JS_NewAtomInt64</text>
</a>
</g>
</g>
<!-- Node45028&#45;&gt;Node45053 -->
<g id="edge19" class="edge">
<title>Node45028&#45;&gt;Node45053</title>
<path fill="none" stroke="#191970" d="M202.9853,-478.795C225.6698,-440.4171 276.6078,-355.5986 289,-346.5 294.9489,-342.1322 301.8472,-338.7685 308.9415,-336.178"/>
<polygon fill="#191970" stroke="#191970" points="199.6908,-477.4917 197.6284,-487.8839 205.7213,-481.046 199.6908,-477.4917"/>
</g>
<!-- Node45054 -->
<g id="node18" class="node">
<title>Node45054</title>
<g id="a_node18"><a xlink:href="quickjs_8c.html#a7445082229205ad47aec019d74536f8e" target="_top" xlink:title="JS_NewAtomUInt32">
<polygon fill="none" stroke="#ff0000" points="305,-280 305,-299 412,-299 412,-280 305,-280"/>
<text text-anchor="middle" x="358.5" y="-287" font-family="Helvetica,sans-Serif" font-size="10.00" fill="#000000">JS_NewAtomUInt32</text>
</a>
</g>
</g>
<!-- Node45028&#45;&gt;Node45054 -->
<g id="edge20" class="edge">
<title>Node45028&#45;&gt;Node45054</title>
<path fill="none" stroke="#191970" d="M203.5914,-479.3964C216.4469,-458.9568 237.4251,-424.5028 253,-393.5 271.4171,-356.8398 258.1161,-335.5063 289,-308.5 293.614,-304.4653 299.008,-301.279 304.7142,-298.7642"/>
<polygon fill="#191970" stroke="#191970" points="200.5459,-477.6636 198.1485,-487.9836 206.4583,-481.4111 200.5459,-477.6636"/>
</g>
<!-- Node44953 -->
<g id="node19" class="node">
<title>Node44953</title>
<g id="a_node19"><a xlink:href="quickjs_8c.html#ae69c38078aefed427b6c0d7b6870bd9c" target="_top" xlink:title="js_object_toString">
<polygon fill="none" stroke="#ff0000" points="311,-690 311,-709 406,-709 406,-690 311,-690"/>
<text text-anchor="middle" x="358.5" y="-697" font-family="Helvetica,sans-Serif" font-size="10.00" fill="#000000">js_object_toString</text>
</a>
</g>
</g>
<!-- Node45028&#45;&gt;Node44953 -->
<g id="edge21" class="edge">
<title>Node45028&#45;&gt;Node44953</title>
<path fill="none" stroke="#191970" d="M196.752,-516.9097C206.957,-554.405 234.5829,-636.9318 289,-680.5 295.347,-685.5817 302.9515,-689.3077 310.7657,-692.0389"/>
<polygon fill="#191970" stroke="#191970" points="200.1324,-516.0017 194.2302,-507.2031 193.3573,-517.7619 200.1324,-516.0017"/>
</g>
<!-- Node44688 -->
<g id="node20" class="node">
<title>Node44688</title>
<g id="a_node20"><a xlink:href="quickjs-libc_8c.html#a64270f007df853e9d2f443383d26ec60" target="_top" xlink:title="js_os_readdir">
<polygon fill="none" stroke="#000000" points="321.5,-652 321.5,-671 395.5,-671 395.5,-652 321.5,-652"/>
<text text-anchor="middle" x="358.5" y="-659" font-family="Helvetica,sans-Serif" font-size="10.00" fill="#000000">js_os_readdir</text>
</a>
</g>
</g>
<!-- Node45028&#45;&gt;Node44688 -->
<g id="edge22" class="edge">
<title>Node45028&#45;&gt;Node44688</title>
<path fill="none" stroke="#191970" d="M199.5419,-516.7237C212.8008,-547.9698 243.2892,-609.5875 289,-642.5 298.4406,-649.2974 310.1942,-653.6635 321.3343,-656.4678"/>
<polygon fill="#191970" stroke="#191970" points="202.7414,-515.3011 195.7088,-507.3769 196.2649,-517.9572 202.7414,-515.3011"/>
</g>
<!-- Node44574 -->
<g id="node21" class="node">
<title>Node44574</title>
<g id="a_node21"><a xlink:href="quickjs_8c.html#a0bfdeb7e158aebcb79b7c9367a60be80" target="_top" xlink:title="js_promise_all_resolve\l_element">
<polygon fill="none" stroke="#ff0000" points="300.5,-602.5 300.5,-632.5 416.5,-632.5 416.5,-602.5 300.5,-602.5"/>
<text text-anchor="start" x="308.5" y="-620.5" font-family="Helvetica,sans-Serif" font-size="10.00" fill="#000000">js_promise_all_resolve</text>
<text text-anchor="middle" x="358.5" y="-609.5" font-family="Helvetica,sans-Serif" font-size="10.00" fill="#000000">_element</text>
</a>
</g>
</g>
<!-- Node45028&#45;&gt;Node44574 -->
<g id="edge23" class="edge">
<title>Node45028&#45;&gt;Node44574</title>
<path fill="none" stroke="#191970" d="M205.8364,-515.0638C223.2274,-536.0939 254.9508,-571.1461 289,-592.5 294.9748,-596.2471 301.5903,-599.538 308.2953,-602.3959"/>
<polygon fill="#191970" stroke="#191970" points="208.512,-512.8063 199.4957,-507.2424 203.0743,-517.2145 208.512,-512.8063"/>
</g>
<!-- Node45050 -->
<g id="node22" class="node">
<title>Node45050</title>
<g id="a_node22"><a xlink:href="quickjs_8c.html#a32ee6be61757664e4eea552e5508ad6e" target="_top" xlink:title="js_regexp_get_source">
<polygon fill="none" stroke="#000000" points="302.5,-564 302.5,-583 414.5,-583 414.5,-564 302.5,-564"/>
<text text-anchor="middle" x="358.5" y="-571" font-family="Helvetica,sans-Serif" font-size="10.00" fill="#000000">js_regexp_get_source</text>
</a>
</g>
</g>
<!-- Node45028&#45;&gt;Node45050 -->
<g id="edge24" class="edge">
<title>Node45028&#45;&gt;Node45050</title>
<path fill="none" stroke="#191970" d="M214.0846,-512.7706C233.1918,-525.4112 261.933,-543.086 289,-554.5 297.6444,-558.1453 307.1889,-561.2854 316.3643,-563.9036"/>
<polygon fill="#191970" stroke="#191970" points="215.78,-509.6931 205.5281,-507.0192 211.8749,-515.5026 215.78,-509.6931"/>
</g>
<!-- Node44573&#45;&gt;Node44424 -->
<g id="edge17" class="edge">
<title>Node44573&#45;&gt;Node44424</title>
<path fill="none" stroke="#191970" d="M392.5394,-417.4445C404.5782,-423.4079 417.6793,-431.1683 428,-440.5 468.8923,-477.4737 499.6375,-537.5533 510.6152,-560.8453"/>
<polygon fill="#191970" stroke="#191970" points="393.7251,-414.1346 383.1857,-413.0516 390.7493,-420.4706 393.7251,-414.1346"/>
</g>
<!-- Node44573&#45;&gt;Node44573 -->
<g id="edge16" class="edge">
<title>Node44573&#45;&gt;Node44573</title>
<path fill="none" stroke="#191970" d="M329.3809,-422.1539C330.5981,-427.4368 340.3044,-431.5 358.5,-431.5 386.2266,-431.5 394.2413,-422.0653 382.5441,-413.2571"/>
<polygon fill="#191970" stroke="#191970" points="332.5412,-423.6775 334.4559,-413.2571 326.4609,-420.2091 332.5412,-423.6775"/>
</g>
</g>
</svg>
        <g id="navigator" transform="translate(0 0)" fill="#404254">
                <rect fill="#f2f5e9" fill-opacity="0.5" stroke="#606060" stroke-width=".5" x="0" y="0" width="60" height="60"/>
                <use id="zoomplus" xlink:href="#zoomPlus" x="17" y="9" onmousedown="handleZoom(evt,'in')"/>
                <use id="zoomminus" xlink:href="#zoomMin" x="42" y="9" onmousedown="handleZoom(evt,'out')"/>
                <use id="reset" xlink:href="#resetDef" x="30" y="36" onmousedown="handleReset()"/>
                <g id="arrowUp" xlink:href="#dirArrow" transform="translate(30 24)" onmousedown="handlePan(0,-1)">
                  <use xlink:href="#rim" fill="#404040">
                        <set attributeName="fill" to="#808080" begin="arrowUp.mouseover" end="arrowUp.mouseout"/>
                  </use>
                  <path fill="none" stroke="white" stroke-width="1.5" d="M0,-3.0v7 M-2.5,-0.5L0,-3.0L2.5,-0.5"/>
                </g>
                <g id="arrowRight" xlink:href="#dirArrow" transform="rotate(90) translate(36 -43)" onmousedown="handlePan(1,0)">
                  <use xlink:href="#rim" fill="#404040">
                        <set attributeName="fill" to="#808080" begin="arrowRight.mouseover" end="arrowRight.mouseout"/>
                  </use>
                  <path fill="none" stroke="white" stroke-width="1.5" d="M0,-3.0v7 M-2.5,-0.5L0,-3.0L2.5,-0.5"/>
                </g>
                <g id="arrowDown" xlink:href="#dirArrow" transform="rotate(180) translate(-30 -48)" onmousedown="handlePan(0,1)">
                  <use xlink:href="#rim" fill="#404040">
                        <set attributeName="fill" to="#808080" begin="arrowDown.mouseover" end="arrowDown.mouseout"/>
                  </use>
                  <path fill="none" stroke="white" stroke-width="1.5" d="M0,-3.0v7 M-2.5,-0.5L0,-3.0L2.5,-0.5"/>
                </g>
                <g id="arrowLeft" xlink:href="#dirArrow" transform="rotate(270) translate(-36 17)" onmousedown="handlePan(-1,0)">
                  <use xlink:href="#rim" fill="#404040">
                        <set attributeName="fill" to="#808080" begin="arrowLeft.mouseover" end="arrowLeft.mouseout"/>
                  </use>
                  <path fill="none" stroke="white" stroke-width="1.5" d="M0,-3.0v7 M-2.5,-0.5L0,-3.0L2.5,-0.5"/>
                </g>
        </g>
        <svg viewBox="0 0 15 15" width="100%" height="30px" preserveAspectRatio="xMaxYMin meet">
         <g id="arrow_out" transform="scale(0.3 0.3)">
          <a xlink:href="quickjs_8h_a71f0aae471c9811e816c974e0f6d2607_icgraph_org.svg" target="_base">
           <rect id="button" ry="5" rx="5" y="6" x="6" height="38" width="38"
                fill="#f2f5e9" fill-opacity="0.5" stroke="#606060" stroke-width="1.0"/>
           <path id="arrow"
             d="M 11.500037,31.436501 C 11.940474,20.09759 22.043105,11.32322 32.158766,21.979434 L 37.068811,17.246167 C 37.068811,17.246167 37.088388,32 37.088388,32 L 22.160133,31.978069 C 22.160133,31.978069 26.997745,27.140456 26.997745,27.140456 C 18.528582,18.264221 13.291696,25.230495 11.500037,31.436501 z"
             style="fill:#404040;"/>
          </a>
         </g>
        </svg>
</svg>
