<?xml version="1.0" encoding="UTF-8" standalone="no"?>
<!DOCTYPE svg PUBLIC "-//W3C//DTD SVG 1.1//EN"
 "http://www.w3.org/Graphics/SVG/1.1/DTD/svg11.dtd">
<!-- Generated by graphviz version 2.40.1 (20161225.0304)
 -->
<!-- Title: js_c_function_data_call Pages: 1 -->
<svg width="537pt" height="28pt"
 viewBox="0.00 0.00 537.00 28.00" xmlns="http://www.w3.org/2000/svg" xmlns:xlink="http://www.w3.org/1999/xlink">
<g id="graph0" class="graph" transform="scale(1 1) rotate(0) translate(4 24)">
<title>js_c_function_data_call</title>
<!-- Node45026 -->
<g id="node1" class="node">
<title>Node45026</title>
<polygon fill="#bfbfbf" stroke="#000000" points="0,-.5 0,-19.5 119,-19.5 119,-.5 0,-.5"/>
<text text-anchor="middle" x="59.5" y="-7.5" font-family="Helvetica,sans-Serif" font-size="10.00" fill="#000000">js_c_function_data_call</text>
</g>
<!-- Node45027 -->
<g id="node2" class="node">
<title>Node45027</title>
<g id="a_node2"><a xlink:href="quickjs_8c.html#a27966451027feb455b5da12c1578771c" target="_top" xlink:title="JS_NewRuntime2">
<polygon fill="none" stroke="#000000" points="155,-.5 155,-19.5 251,-19.5 251,-.5 155,-.5"/>
<text text-anchor="middle" x="203" y="-7.5" font-family="Helvetica,sans-Serif" font-size="10.00" fill="#000000">JS_NewRuntime2</text>
</a>
</g>
</g>
<!-- Node45026&#45;&gt;Node45027 -->
<g id="edge1" class="edge">
<title>Node45026&#45;&gt;Node45027</title>
<path fill="none" stroke="#191970" d="M129.1942,-10C137.8253,-10 146.4962,-10 154.7065,-10"/>
<polygon fill="#191970" stroke="#191970" points="129.1103,-6.5001 119.1103,-10 129.1102,-13.5001 129.1103,-6.5001"/>
</g>
<!-- Node45028 -->
<g id="node3" class="node">
<title>Node45028</title>
<g id="a_node3"><a xlink:href="quickjs_8c.html#afc1ca27a266094085ebb43e2eea0dda2" target="_top" xlink:title="JS_NewRuntime">
<polygon fill="none" stroke="#000000" points="287,-.5 287,-19.5 378,-19.5 378,-.5 287,-.5"/>
<text text-anchor="middle" x="332.5" y="-7.5" font-family="Helvetica,sans-Serif" font-size="10.00" fill="#000000">JS_NewRuntime</text>
</a>
</g>
</g>
<!-- Node45027&#45;&gt;Node45028 -->
<g id="edge2" class="edge">
<title>Node45027&#45;&gt;Node45028</title>
<path fill="none" stroke="#191970" d="M261.4754,-10C269.9739,-10 278.6181,-10 286.8147,-10"/>
<polygon fill="#191970" stroke="#191970" points="261.2211,-6.5001 251.221,-10 261.221,-13.5001 261.2211,-6.5001"/>
</g>
<!-- Node45029 -->
<g id="node4" class="node">
<title>Node45029</title>
<g id="a_node4"><a xlink:href="classqjs_1_1Runtime.html#a0860a1339ff567f9f603c7bed4d670f9" target="_top" xlink:title="qjs::Runtime::Runtime">
<polygon fill="none" stroke="#000000" points="414,-.5 414,-19.5 529,-19.5 529,-.5 414,-.5"/>
<text text-anchor="middle" x="471.5" y="-7.5" font-family="Helvetica,sans-Serif" font-size="10.00" fill="#000000">qjs::Runtime::Runtime</text>
</a>
</g>
</g>
<!-- Node45028&#45;&gt;Node45029 -->
<g id="edge3" class="edge">
<title>Node45028&#45;&gt;Node45029</title>
<path fill="none" stroke="#191970" d="M388.1119,-10C396.5346,-10 405.2411,-10 413.7088,-10"/>
<polygon fill="#191970" stroke="#191970" points="388.0138,-6.5001 378.0138,-10 388.0138,-13.5001 388.0138,-6.5001"/>
</g>
</g>
</svg>
