<?xml version="1.0" encoding="UTF-8" standalone="no"?>
<!DOCTYPE svg PUBLIC "-//W3C//DTD SVG 1.1//EN"
 "http://www.w3.org/Graphics/SVG/1.1/DTD/svg11.dtd">
<!-- Generated by graphviz version 2.40.1 (20161225.0304)
 -->
<!-- Title: JS_DefinePrivateField Pages: 1 -->
<svg width="907pt" height="569pt"
 viewBox="0.00 0.00 907.00 569.00" xmlns="http://www.w3.org/2000/svg" xmlns:xlink="http://www.w3.org/1999/xlink">
<g id="graph0" class="graph" transform="scale(1 1) rotate(0) translate(4 565)">
<title>JS_DefinePrivateField</title>
<!-- Node171631 -->
<g id="node1" class="node">
<title>Node171631</title>
<polygon fill="#bfbfbf" stroke="#000000" points="0,-114.5 0,-133.5 114,-133.5 114,-114.5 0,-114.5"/>
<text text-anchor="middle" x="57" y="-121.5" font-family="Helvetica,sans-Serif" font-size="10.00" fill="#000000">JS_DefinePrivateField</text>
</g>
<!-- Node171632 -->
<g id="node2" class="node">
<title>Node171632</title>
<g id="a_node2"><a xlink:href="quickjs_8c.html#a74547db03bf739a52c83a326b32db997" target="_top" xlink:title="add_property">
<polygon fill="none" stroke="#000000" points="193.5,-389.5 193.5,-408.5 266.5,-408.5 266.5,-389.5 193.5,-389.5"/>
<text text-anchor="middle" x="230" y="-396.5" font-family="Helvetica,sans-Serif" font-size="10.00" fill="#000000">add_property</text>
</a>
</g>
</g>
<!-- Node171631&#45;&gt;Node171632 -->
<g id="edge1" class="edge">
<title>Node171631&#45;&gt;Node171632</title>
<path fill="none" stroke="#191970" d="M63.1572,-133.7874C88.4863,-174.0505 184.8832,-327.2825 218.4178,-380.589"/>
<polygon fill="#191970" stroke="#191970" points="215.6292,-382.7292 223.9166,-389.3299 221.5542,-379.0018 215.6292,-382.7292"/>
</g>
<!-- Node171689 -->
<g id="node23" class="node">
<title>Node171689</title>
<g id="a_node23"><a xlink:href="quickjs_8c.html#a06b76f5124fd985e35f4c652fd018d6d" target="_top" xlink:title="find_own_property">
<polygon fill="none" stroke="#000000" points="360.5,-142.5 360.5,-161.5 456.5,-161.5 456.5,-142.5 360.5,-142.5"/>
<text text-anchor="middle" x="408.5" y="-149.5" font-family="Helvetica,sans-Serif" font-size="10.00" fill="#000000">find_own_property</text>
</a>
</g>
</g>
<!-- Node171631&#45;&gt;Node171689 -->
<g id="edge35" class="edge">
<title>Node171631&#45;&gt;Node171689</title>
<path fill="none" stroke="#191970" d="M96.1332,-133.505C112.6551,-137.1236 132.1628,-140.8824 150,-143 218.352,-151.1146 297.526,-152.7385 350.0578,-152.7352"/>
<polygon fill="#191970" stroke="#191970" points="350.2051,-156.235 360.1978,-152.7142 350.1906,-149.235 350.2051,-156.235"/>
</g>
<!-- Node171690 -->
<g id="node24" class="node">
<title>Node171690</title>
<g id="a_node24"><a xlink:href="quickjs_8c.html#ab18048ab5eea3e47109a5473f78515bc" target="_top" xlink:title="JS_AtomGetStr">
<polygon fill="none" stroke="#000000" points="187,-190.5 187,-209.5 273,-209.5 273,-190.5 187,-190.5"/>
<text text-anchor="middle" x="230" y="-197.5" font-family="Helvetica,sans-Serif" font-size="10.00" fill="#000000">JS_AtomGetStr</text>
</a>
</g>
</g>
<!-- Node171631&#45;&gt;Node171690 -->
<g id="edge37" class="edge">
<title>Node171631&#45;&gt;Node171690</title>
<path fill="none" stroke="#191970" d="M71.631,-133.51C89.5336,-144.8287 121.0431,-163.7352 150,-176 160.2227,-180.3299 171.4863,-184.2165 182.2538,-187.5378"/>
<polygon fill="#191970" stroke="#191970" points="181.3759,-190.9281 191.9588,-190.4254 183.3723,-184.2188 181.3759,-190.9281"/>
</g>
<!-- Node171682 -->
<g id="node27" class="node">
<title>Node171682</title>
<g id="a_node27"><a xlink:href="quickjs_8h.html#afaa20c47565bc704c6c85f3d77254e7d" target="_top" xlink:title="JS_FreeValue">
<polygon fill="none" stroke="#ff0000" points="191,-114.5 191,-133.5 269,-133.5 269,-114.5 191,-114.5"/>
<text text-anchor="middle" x="230" y="-121.5" font-family="Helvetica,sans-Serif" font-size="10.00" fill="#000000">JS_FreeValue</text>
</a>
</g>
</g>
<!-- Node171631&#45;&gt;Node171682 -->
<g id="edge41" class="edge">
<title>Node171631&#45;&gt;Node171682</title>
<path fill="none" stroke="#191970" d="M114.1261,-124C135.6801,-124 159.9952,-124 180.766,-124"/>
<polygon fill="#191970" stroke="#191970" points="180.9597,-127.5001 190.9597,-124 180.9597,-120.5001 180.9597,-127.5001"/>
</g>
<!-- Node171695 -->
<g id="node28" class="node">
<title>Node171695</title>
<g id="a_node28"><a xlink:href="quickjs_8c.html#a11498940707b6928b86da6844ef8f2a1" target="_top" xlink:title="js_symbol_to_atom">
<polygon fill="none" stroke="#000000" points="179.5,-76.5 179.5,-95.5 280.5,-95.5 280.5,-76.5 179.5,-76.5"/>
<text text-anchor="middle" x="230" y="-83.5" font-family="Helvetica,sans-Serif" font-size="10.00" fill="#000000">js_symbol_to_atom</text>
</a>
</g>
</g>
<!-- Node171631&#45;&gt;Node171695 -->
<g id="edge42" class="edge">
<title>Node171631&#45;&gt;Node171695</title>
<path fill="none" stroke="#191970" d="M100.6552,-114.411C123.7929,-109.3287 152.4024,-103.0446 176.8268,-97.6797"/>
<polygon fill="#191970" stroke="#191970" points="177.6425,-101.084 186.6587,-95.5201 176.1406,-94.247 177.6425,-101.084"/>
</g>
<!-- Node171696 -->
<g id="node29" class="node">
<title>Node171696</title>
<g id="a_node29"><a xlink:href="quickjs_8c.html#a726b00d108e0a0f4d958c36c2e426a64" target="_top" xlink:title="JS_ThrowTypeErrorNotAnObject">
<polygon fill="none" stroke="#000000" points="150,-38.5 150,-57.5 310,-57.5 310,-38.5 150,-38.5"/>
<text text-anchor="middle" x="230" y="-45.5" font-family="Helvetica,sans-Serif" font-size="10.00" fill="#000000">JS_ThrowTypeErrorNotAnObject</text>
</a>
</g>
</g>
<!-- Node171631&#45;&gt;Node171696 -->
<g id="edge43" class="edge">
<title>Node171631&#45;&gt;Node171696</title>
<path fill="none" stroke="#191970" d="M69.8396,-114.2899C87.1565,-101.6386 119.3677,-79.6459 150,-67 156.1171,-64.4747 162.6423,-62.2409 169.227,-60.2759"/>
<polygon fill="#191970" stroke="#191970" points="170.1834,-63.6428 178.8766,-57.5865 168.304,-56.8998 170.1834,-63.6428"/>
</g>
<!-- Node171697 -->
<g id="node30" class="node">
<title>Node171697</title>
<g id="a_node30"><a xlink:href="quickjs_8c.html#abda92b710bb8f585930b1072d9d69917" target="_top" xlink:title="JS_ThrowTypeErrorNotASymbol">
<polygon fill="none" stroke="#000000" points="150.5,-.5 150.5,-19.5 309.5,-19.5 309.5,-.5 150.5,-.5"/>
<text text-anchor="middle" x="230" y="-7.5" font-family="Helvetica,sans-Serif" font-size="10.00" fill="#000000">JS_ThrowTypeErrorNotASymbol</text>
</a>
</g>
</g>
<!-- Node171631&#45;&gt;Node171697 -->
<g id="edge44" class="edge">
<title>Node171631&#45;&gt;Node171697</title>
<path fill="none" stroke="#191970" d="M63.4418,-114.4599C77.0263,-95.1243 110.6212,-51.2657 150,-29 153.9512,-26.7659 158.1551,-24.7937 162.4878,-23.0527"/>
<polygon fill="#191970" stroke="#191970" points="163.8967,-26.2659 172.131,-19.599 161.5365,-19.6758 163.8967,-26.2659"/>
</g>
<!-- Node171633 -->
<g id="node3" class="node">
<title>Node171633</title>
<g id="a_node3"><a xlink:href="quickjs_8c.html#a3cadcaa2bd1e3f9359f1c006f396cfa0" target="_top" xlink:title="add_shape_property">
<polygon fill="none" stroke="#000000" points="356.5,-351.5 356.5,-370.5 460.5,-370.5 460.5,-351.5 356.5,-351.5"/>
<text text-anchor="middle" x="408.5" y="-358.5" font-family="Helvetica,sans-Serif" font-size="10.00" fill="#000000">add_shape_property</text>
</a>
</g>
</g>
<!-- Node171632&#45;&gt;Node171633 -->
<g id="edge2" class="edge">
<title>Node171632&#45;&gt;Node171633</title>
<path fill="none" stroke="#191970" d="M266.5529,-391.2184C291.625,-385.8809 325.3414,-378.7032 353.6226,-372.6826"/>
<polygon fill="#191970" stroke="#191970" points="354.718,-376.0279 363.77,-370.5223 353.2604,-369.1813 354.718,-376.0279"/>
</g>
<!-- Node171638 -->
<g id="node7" class="node">
<title>Node171638</title>
<g id="a_node7"><a xlink:href="quickjs_8c.html#a82dbe63adeac7849406fd48d96f39f7b" target="_top" xlink:title="js_shape_hash_link">
<polygon fill="none" stroke="#000000" points="515.5,-465.5 515.5,-484.5 617.5,-484.5 617.5,-465.5 515.5,-465.5"/>
<text text-anchor="middle" x="566.5" y="-472.5" font-family="Helvetica,sans-Serif" font-size="10.00" fill="#000000">js_shape_hash_link</text>
</a>
</g>
</g>
<!-- Node171632&#45;&gt;Node171638 -->
<g id="edge34" class="edge">
<title>Node171632&#45;&gt;Node171638</title>
<path fill="none" stroke="#191970" d="M266.652,-407.278C326.5189,-420.7992 445.4845,-447.6681 514.2038,-463.1887"/>
<polygon fill="#191970" stroke="#191970" points="513.8494,-466.6967 524.3748,-465.4858 515.3916,-459.8687 513.8494,-466.6967"/>
</g>
<!-- Node171658 -->
<g id="node16" class="node">
<title>Node171658</title>
<g id="a_node16"><a xlink:href="quickjs_8c.html#ac0c5dbb01d6082796c44b1c7f7c170f1" target="_top" xlink:title="find_hashed_shape_prop">
<polygon fill="none" stroke="#000000" points="346,-493.5 346,-512.5 471,-512.5 471,-493.5 346,-493.5"/>
<text text-anchor="middle" x="408.5" y="-500.5" font-family="Helvetica,sans-Serif" font-size="10.00" fill="#000000">find_hashed_shape_prop</text>
</a>
</g>
</g>
<!-- Node171632&#45;&gt;Node171658 -->
<g id="edge16" class="edge">
<title>Node171632&#45;&gt;Node171658</title>
<path fill="none" stroke="#191970" d="M245.2014,-408.7309C267.1912,-422.7091 309.2697,-449.0903 346,-470 357.2167,-476.3854 369.7676,-483.0948 380.6626,-488.7839"/>
<polygon fill="#191970" stroke="#191970" points="379.2467,-491.9922 389.7355,-493.4869 382.4682,-485.7775 379.2467,-491.9922"/>
</g>
<!-- Node171659 -->
<g id="node17" class="node">
<title>Node171659</title>
<g id="a_node17"><a xlink:href="quickjs_8c.html#a8e34657169da77ae6a386311351ed3de" target="_top" xlink:title="js_clone_shape">
<polygon fill="none" stroke="#000000" points="524.5,-389.5 524.5,-408.5 608.5,-408.5 608.5,-389.5 524.5,-389.5"/>
<text text-anchor="middle" x="566.5" y="-396.5" font-family="Helvetica,sans-Serif" font-size="10.00" fill="#000000">js_clone_shape</text>
</a>
</g>
</g>
<!-- Node171632&#45;&gt;Node171659 -->
<g id="edge19" class="edge">
<title>Node171632&#45;&gt;Node171659</title>
<path fill="none" stroke="#191970" d="M266.652,-399C326.5189,-399 445.4845,-399 514.2038,-399"/>
<polygon fill="#191970" stroke="#191970" points="514.3748,-402.5001 524.3748,-399 514.3748,-395.5001 514.3748,-402.5001"/>
</g>
<!-- Node171662 -->
<g id="node20" class="node">
<title>Node171662</title>
<g id="a_node20"><a xlink:href="quickjs_8c.html#aed229eb80b3b03a2275471dee93c69d6" target="_top" xlink:title="js_dup_shape">
<polygon fill="none" stroke="#000000" points="370,-531.5 370,-550.5 447,-550.5 447,-531.5 370,-531.5"/>
<text text-anchor="middle" x="408.5" y="-538.5" font-family="Helvetica,sans-Serif" font-size="10.00" fill="#000000">js_dup_shape</text>
</a>
</g>
</g>
<!-- Node171632&#45;&gt;Node171662 -->
<g id="edge28" class="edge">
<title>Node171632&#45;&gt;Node171662</title>
<path fill="none" stroke="#191970" d="M236.345,-408.5964C252.089,-431.6589 295.3549,-490.6067 346,-522 350.4055,-524.7308 355.23,-527.0921 360.1834,-529.1289"/>
<polygon fill="#191970" stroke="#191970" points="359.1984,-532.4956 369.792,-532.6574 361.6114,-525.9247 359.1984,-532.4956"/>
</g>
<!-- Node171663 -->
<g id="node21" class="node">
<title>Node171663</title>
<g id="a_node21"><a xlink:href="quickjs_8c.html#a3a9f27520d96cf58aa5bd7359e9cddee" target="_top" xlink:title="js_free_shape">
<polygon fill="none" stroke="#000000" points="370,-294.5 370,-313.5 447,-313.5 447,-294.5 370,-294.5"/>
<text text-anchor="middle" x="408.5" y="-301.5" font-family="Helvetica,sans-Serif" font-size="10.00" fill="#000000">js_free_shape</text>
</a>
</g>
</g>
<!-- Node171632&#45;&gt;Node171663 -->
<g id="edge29" class="edge">
<title>Node171632&#45;&gt;Node171663</title>
<path fill="none" stroke="#191970" d="M248.0978,-389.3681C279.5849,-372.6103 344.6003,-338.0083 381.4574,-318.3924"/>
<polygon fill="#191970" stroke="#191970" points="383.4364,-321.3041 390.6196,-313.5162 380.1476,-315.1247 383.4364,-321.3041"/>
</g>
<!-- Node171634 -->
<g id="node4" class="node">
<title>Node171634</title>
<g id="a_node4"><a xlink:href="quickjs_8c.html#a288254c06a39c9fca740a7abdad2834e" target="_top" xlink:title="__JS_AtomIsTaggedInt">
<polygon fill="none" stroke="#000000" points="507,-199.5 507,-218.5 626,-218.5 626,-199.5 507,-199.5"/>
<text text-anchor="middle" x="566.5" y="-206.5" font-family="Helvetica,sans-Serif" font-size="10.00" fill="#000000">__JS_AtomIsTaggedInt</text>
</a>
</g>
</g>
<!-- Node171633&#45;&gt;Node171634 -->
<g id="edge3" class="edge">
<title>Node171633&#45;&gt;Node171634</title>
<path fill="none" stroke="#191970" d="M431.5688,-351.4538C444.6279,-345.0541 460.4153,-335.5027 471,-323 498.8364,-290.1194 476.581,-263.5071 507,-233 510.8832,-229.1055 515.4819,-225.8205 520.3755,-223.0548"/>
<polygon fill="#191970" stroke="#191970" points="521.9783,-226.1671 529.4119,-218.6178 518.893,-219.8836 521.9783,-226.1671"/>
</g>
<!-- Node171635 -->
<g id="node5" class="node">
<title>Node171635</title>
<g id="a_node5"><a xlink:href="quickjs_8c.html#a643df594b75933007bcdbb071b5ea8c5" target="_top" xlink:title="get_shape_prop">
<polygon fill="none" stroke="#000000" points="675.5,-199.5 675.5,-218.5 761.5,-218.5 761.5,-199.5 675.5,-199.5"/>
<text text-anchor="middle" x="718.5" y="-206.5" font-family="Helvetica,sans-Serif" font-size="10.00" fill="#000000">get_shape_prop</text>
</a>
</g>
</g>
<!-- Node171633&#45;&gt;Node171635 -->
<g id="edge4" class="edge">
<title>Node171633&#45;&gt;Node171635</title>
<path fill="none" stroke="#191970" d="M429.2867,-351.463C442.3101,-344.7818 458.8655,-334.9295 471,-323 492.3667,-301.9942 482.8842,-283.7821 507,-266 519.9841,-256.426 608.676,-234.5015 667.009,-220.8052"/>
<polygon fill="#191970" stroke="#191970" points="667.8667,-224.1991 676.8075,-218.5147 666.2733,-217.3829 667.8667,-224.1991"/>
</g>
<!-- Node171636 -->
<g id="node6" class="node">
<title>Node171636</title>
<g id="a_node6"><a xlink:href="quickjs_8c.html#abbf44eaeace1104a6bef718fbf5700fe" target="_top" xlink:title="JS_DupAtom">
<polygon fill="none" stroke="#ff0000" points="681,-503.5 681,-522.5 756,-522.5 756,-503.5 681,-503.5"/>
<text text-anchor="middle" x="718.5" y="-510.5" font-family="Helvetica,sans-Serif" font-size="10.00" fill="#000000">JS_DupAtom</text>
</a>
</g>
</g>
<!-- Node171633&#45;&gt;Node171636 -->
<g id="edge5" class="edge">
<title>Node171633&#45;&gt;Node171636</title>
<path fill="none" stroke="#191970" d="M422.6686,-370.5139C441.3578,-382.7506 475.5656,-404.0811 507,-418 557.7659,-440.4788 578.9827,-426.473 626,-456 645.7016,-468.3726 642.3937,-481.4769 662,-494 665.1507,-496.0124 668.5372,-497.8352 672.0303,-499.4819"/>
<polygon fill="#191970" stroke="#191970" points="670.862,-502.7874 681.4369,-503.4383 673.576,-496.3349 670.862,-502.7874"/>
</g>
<!-- Node171633&#45;&gt;Node171638 -->
<g id="edge6" class="edge">
<title>Node171633&#45;&gt;Node171638</title>
<path fill="none" stroke="#191970" d="M416.8336,-370.6197C432.775,-388.5276 469.3625,-427.3051 507,-451 513.286,-454.9574 520.3347,-458.4816 527.3221,-461.5298"/>
<polygon fill="#191970" stroke="#191970" points="526.1546,-464.8339 536.735,-465.3874 528.8091,-458.3567 526.1546,-464.8339"/>
</g>
<!-- Node171640 -->
<g id="node9" class="node">
<title>Node171640</title>
<g id="a_node9"><a xlink:href="quickjs_8c.html#ae5e76f4be6214208cc91f10a192fc810" target="_top" xlink:title="js_shape_hash_unlink">
<polygon fill="none" stroke="#000000" points="662,-237.5 662,-256.5 775,-256.5 775,-237.5 662,-237.5"/>
<text text-anchor="middle" x="718.5" y="-244.5" font-family="Helvetica,sans-Serif" font-size="10.00" fill="#000000">js_shape_hash_unlink</text>
</a>
</g>
</g>
<!-- Node171633&#45;&gt;Node171640 -->
<g id="edge8" class="edge">
<title>Node171633&#45;&gt;Node171640</title>
<path fill="none" stroke="#191970" d="M457.4392,-351.4452C512.4246,-340.1439 597.6972,-320.7493 626,-304 646.0212,-292.1516 642.3937,-278.5231 662,-266 665.1507,-263.9876 668.5372,-262.1648 672.0303,-260.5181"/>
<polygon fill="#191970" stroke="#191970" points="673.576,-263.6651 681.4369,-256.5617 670.862,-257.2126 673.576,-263.6651"/>
</g>
<!-- Node171641 -->
<g id="node10" class="node">
<title>Node171641</title>
<g id="a_node10"><a xlink:href="quickjs_8c.html#aa80740ff93b724ea7e0c280826f4a25a" target="_top" xlink:title="resize_properties">
<polygon fill="none" stroke="#ff0000" points="521,-351.5 521,-370.5 612,-370.5 612,-351.5 521,-351.5"/>
<text text-anchor="middle" x="566.5" y="-358.5" font-family="Helvetica,sans-Serif" font-size="10.00" fill="#000000">resize_properties</text>
</a>
</g>
</g>
<!-- Node171633&#45;&gt;Node171641 -->
<g id="edge10" class="edge">
<title>Node171633&#45;&gt;Node171641</title>
<path fill="none" stroke="#191970" d="M460.673,-361C476.5998,-361 494.1773,-361 510.3555,-361"/>
<polygon fill="#191970" stroke="#191970" points="510.7535,-364.5001 520.7534,-361 510.7534,-357.5001 510.7535,-364.5001"/>
</g>
<!-- Node171657 -->
<g id="node15" class="node">
<title>Node171657</title>
<g id="a_node15"><a xlink:href="quickjs_8c.html#a11f047846c1027dc6066a5f1b2ef292a" target="_top" xlink:title="shape_hash">
<polygon fill="none" stroke="#000000" points="532,-503.5 532,-522.5 601,-522.5 601,-503.5 532,-503.5"/>
<text text-anchor="middle" x="566.5" y="-510.5" font-family="Helvetica,sans-Serif" font-size="10.00" fill="#000000">shape_hash</text>
</a>
</g>
</g>
<!-- Node171633&#45;&gt;Node171657 -->
<g id="edge15" class="edge">
<title>Node171633&#45;&gt;Node171657</title>
<path fill="none" stroke="#191970" d="M412.9673,-370.6505C424.7524,-395.0541 459.1018,-459.7171 507,-494 511.5742,-497.274 516.7378,-500.0013 522.0641,-502.269"/>
<polygon fill="#191970" stroke="#191970" points="521.1422,-505.6606 531.7349,-505.8734 523.587,-499.1013 521.1422,-505.6606"/>
</g>
<!-- Node171639 -->
<g id="node8" class="node">
<title>Node171639</title>
<g id="a_node8"><a xlink:href="quickjs_8c.html#a8291bf195606b5d1b0faed795b6dc3ff" target="_top" xlink:title="get_shape_hash">
<polygon fill="none" stroke="#000000" points="811,-541.5 811,-560.5 899,-560.5 899,-541.5 811,-541.5"/>
<text text-anchor="middle" x="855" y="-548.5" font-family="Helvetica,sans-Serif" font-size="10.00" fill="#000000">get_shape_hash</text>
</a>
</g>
</g>
<!-- Node171638&#45;&gt;Node171639 -->
<g id="edge7" class="edge">
<title>Node171638&#45;&gt;Node171639</title>
<path fill="none" stroke="#191970" d="M606.1591,-484.5727C613.0487,-487.0873 619.9392,-490.1938 626,-494 645.7016,-506.3726 641.1053,-521.7704 662,-532 705.2568,-553.1775 760.433,-556.6204 800.7016,-555.5357"/>
<polygon fill="#191970" stroke="#191970" points="800.9979,-559.0272 810.861,-555.1582 800.738,-552.032 800.9979,-559.0272"/>
</g>
<!-- Node171640&#45;&gt;Node171639 -->
<g id="edge9" class="edge">
<title>Node171640&#45;&gt;Node171639</title>
<path fill="none" stroke="#191970" d="M761.8907,-256.5361C766.7601,-258.9996 771.2925,-262.0995 775,-266 812.342,-305.2866 842.461,-473.3271 851.9074,-531.2686"/>
<polygon fill="#191970" stroke="#191970" points="848.4795,-531.9976 853.517,-541.3182 855.3914,-530.8904 848.4795,-531.9976"/>
</g>
<!-- Node171642 -->
<g id="node11" class="node">
<title>Node171642</title>
<g id="a_node11"><a xlink:href="quickjs_8c.html#a7da0cfa6f27af0e1b9599d7f359edbe2" target="_top" xlink:title="get_alloc_from_shape">
<polygon fill="none" stroke="#000000" points="662.5,-275.5 662.5,-294.5 774.5,-294.5 774.5,-275.5 662.5,-275.5"/>
<text text-anchor="middle" x="718.5" y="-282.5" font-family="Helvetica,sans-Serif" font-size="10.00" fill="#000000">get_alloc_from_shape</text>
</a>
</g>
</g>
<!-- Node171641&#45;&gt;Node171642 -->
<g id="edge11" class="edge">
<title>Node171641&#45;&gt;Node171642</title>
<path fill="none" stroke="#191970" d="M596.2704,-351.3959C606.1056,-347.6051 616.8613,-342.7636 626,-337 644.3589,-325.4214 643.3076,-315.0321 662,-304 665.4605,-301.9576 669.171,-300.0977 672.9762,-298.4119"/>
<polygon fill="#191970" stroke="#191970" points="674.5628,-301.5466 682.5409,-294.5753 671.9567,-295.0498 674.5628,-301.5466"/>
</g>
<!-- Node171643 -->
<g id="node12" class="node">
<title>Node171643</title>
<g id="a_node12"><a xlink:href="quickjs_8c.html#a8b6c89e0f589df709eb31a92b7fac32a" target="_top" xlink:title="get_shape_from_alloc">
<polygon fill="none" stroke="#000000" points="662.5,-351.5 662.5,-370.5 774.5,-370.5 774.5,-351.5 662.5,-351.5"/>
<text text-anchor="middle" x="718.5" y="-358.5" font-family="Helvetica,sans-Serif" font-size="10.00" fill="#000000">get_shape_from_alloc</text>
</a>
</g>
</g>
<!-- Node171641&#45;&gt;Node171643 -->
<g id="edge12" class="edge">
<title>Node171641&#45;&gt;Node171643</title>
<path fill="none" stroke="#191970" d="M612.105,-361C624.7178,-361 638.6678,-361 652.2006,-361"/>
<polygon fill="#191970" stroke="#191970" points="652.4389,-364.5001 662.4389,-361 652.4388,-357.5001 652.4389,-364.5001"/>
</g>
<!-- Node171644 -->
<g id="node13" class="node">
<title>Node171644</title>
<g id="a_node13"><a xlink:href="quickjs_8c.html#ab54e821a9b1b55dc16c4494bd410b698" target="_top" xlink:title="get_shape_size">
<polygon fill="none" stroke="#000000" points="676,-313.5 676,-332.5 761,-332.5 761,-313.5 676,-313.5"/>
<text text-anchor="middle" x="718.5" y="-320.5" font-family="Helvetica,sans-Serif" font-size="10.00" fill="#000000">get_shape_size</text>
</a>
</g>
</g>
<!-- Node171641&#45;&gt;Node171644 -->
<g id="edge13" class="edge">
<title>Node171641&#45;&gt;Node171644</title>
<path fill="none" stroke="#191970" d="M604.856,-351.411C624.8237,-346.4191 649.4295,-340.2676 670.6334,-334.9666"/>
<polygon fill="#191970" stroke="#191970" points="671.5673,-338.341 680.4198,-332.5201 669.8695,-331.55 671.5673,-338.341"/>
</g>
<!-- Node171647 -->
<g id="node14" class="node">
<title>Node171647</title>
<g id="a_node14"><a xlink:href="quickjs_8c.html#a78b7f6b85f2739b551ff54f16156128b" target="_top" xlink:title="js_malloc">
<polygon fill="none" stroke="#ff0000" points="689.5,-389.5 689.5,-408.5 747.5,-408.5 747.5,-389.5 689.5,-389.5"/>
<text text-anchor="middle" x="718.5" y="-396.5" font-family="Helvetica,sans-Serif" font-size="10.00" fill="#000000">js_malloc</text>
</a>
</g>
</g>
<!-- Node171641&#45;&gt;Node171647 -->
<g id="edge14" class="edge">
<title>Node171641&#45;&gt;Node171647</title>
<path fill="none" stroke="#191970" d="M604.856,-370.589C627.6858,-376.2964 656.5785,-383.5196 679.5178,-389.2545"/>
<polygon fill="#191970" stroke="#191970" points="678.7213,-392.663 689.2716,-391.6929 680.4191,-385.872 678.7213,-392.663"/>
</g>
<!-- Node171658&#45;&gt;Node171639 -->
<g id="edge17" class="edge">
<title>Node171658&#45;&gt;Node171639</title>
<path fill="none" stroke="#191970" d="M440.2754,-512.5732C466.4656,-520.4273 500.3504,-530.4912 507,-532 623.6629,-558.4705 655.4556,-561.4766 775,-557 783.2128,-556.6925 791.8899,-556.2079 800.3809,-555.6443"/>
<polygon fill="#191970" stroke="#191970" points="800.8728,-559.1184 810.6021,-554.9242 800.3808,-552.1357 800.8728,-559.1184"/>
</g>
<!-- Node171658&#45;&gt;Node171657 -->
<g id="edge18" class="edge">
<title>Node171658&#45;&gt;Node171657</title>
<path fill="none" stroke="#191970" d="M471.3998,-506.981C488.1809,-508.0431 505.9741,-509.1692 521.5744,-510.1566"/>
<polygon fill="#191970" stroke="#191970" points="521.7838,-513.6768 531.9849,-510.8155 522.226,-506.6908 521.7838,-513.6768"/>
</g>
<!-- Node171659&#45;&gt;Node171635 -->
<g id="edge23" class="edge">
<title>Node171659&#45;&gt;Node171635</title>
<path fill="none" stroke="#191970" d="M608.7449,-391.5606C615.2073,-388.8247 621.284,-385.0915 626,-380 673.1764,-329.0673 615.2149,-279.2923 662,-228 663.3861,-226.4804 664.8975,-225.0822 666.5065,-223.7957"/>
<polygon fill="#191970" stroke="#191970" points="668.6716,-226.5668 675.235,-218.2497 664.9176,-220.6585 668.6716,-226.5668"/>
</g>
<!-- Node171659&#45;&gt;Node171636 -->
<g id="edge25" class="edge">
<title>Node171659&#45;&gt;Node171636</title>
<path fill="none" stroke="#191970" d="M601.9598,-408.5038C610.539,-412.0291 619.1883,-416.7494 626,-423 652.0682,-446.9207 635.2376,-470.8585 662,-494 664.8695,-496.4812 668.0756,-498.6415 671.4632,-500.5218"/>
<polygon fill="#191970" stroke="#191970" points="670.2072,-503.7984 680.7474,-504.8733 673.178,-497.4601 670.2072,-503.7984"/>
</g>
<!-- Node171659&#45;&gt;Node171642 -->
<g id="edge21" class="edge">
<title>Node171659&#45;&gt;Node171642</title>
<path fill="none" stroke="#191970" d="M608.503,-390.4303C614.841,-387.8239 620.94,-384.4268 626,-380 654.1298,-355.39 634.0594,-328.8246 662,-304 663.76,-302.4363 665.6534,-301.0004 667.6426,-299.682"/>
<polygon fill="#191970" stroke="#191970" points="669.7788,-302.5022 676.8608,-294.6221 666.4104,-296.3658 669.7788,-302.5022"/>
</g>
<!-- Node171659&#45;&gt;Node171643 -->
<g id="edge22" class="edge">
<title>Node171659&#45;&gt;Node171643</title>
<path fill="none" stroke="#191970" d="M604.856,-389.411C624.8237,-384.4191 649.4295,-378.2676 670.6334,-372.9666"/>
<polygon fill="#191970" stroke="#191970" points="671.5673,-376.341 680.4198,-370.5201 669.8695,-369.55 671.5673,-376.341"/>
</g>
<!-- Node171659&#45;&gt;Node171644 -->
<g id="edge24" class="edge">
<title>Node171659&#45;&gt;Node171644</title>
<path fill="none" stroke="#191970" d="M606.1591,-389.4273C613.0487,-386.9127 619.9392,-383.8062 626,-380 645.7016,-367.6274 642.3937,-354.5231 662,-342 665.1507,-339.9876 668.5372,-338.1648 672.0303,-336.5181"/>
<polygon fill="#191970" stroke="#191970" points="673.576,-339.6651 681.4369,-332.5617 670.862,-333.2126 673.576,-339.6651"/>
</g>
<!-- Node171659&#45;&gt;Node171647 -->
<g id="edge27" class="edge">
<title>Node171659&#45;&gt;Node171647</title>
<path fill="none" stroke="#191970" d="M608.8405,-399C630.8836,-399 657.6608,-399 679.2367,-399"/>
<polygon fill="#191970" stroke="#191970" points="679.3671,-402.5001 689.3671,-399 679.3671,-395.5001 679.3671,-402.5001"/>
</g>
<!-- Node171660 -->
<g id="node18" class="node">
<title>Node171660</title>
<g id="a_node18"><a xlink:href="quickjs_8c.html#a9780456a71703c53244b88831bc8fb7a" target="_top" xlink:title="add_gc_object">
<polygon fill="none" stroke="#ff0000" points="678.5,-427.5 678.5,-446.5 758.5,-446.5 758.5,-427.5 678.5,-427.5"/>
<text text-anchor="middle" x="718.5" y="-434.5" font-family="Helvetica,sans-Serif" font-size="10.00" fill="#000000">add_gc_object</text>
</a>
</g>
</g>
<!-- Node171659&#45;&gt;Node171660 -->
<g id="edge20" class="edge">
<title>Node171659&#45;&gt;Node171660</title>
<path fill="none" stroke="#191970" d="M604.856,-408.589C624.8237,-413.5809 649.4295,-419.7324 670.6334,-425.0334"/>
<polygon fill="#191970" stroke="#191970" points="669.8695,-428.45 680.4198,-427.4799 671.5673,-421.659 669.8695,-428.45"/>
</g>
<!-- Node171661 -->
<g id="node19" class="node">
<title>Node171661</title>
<g id="a_node19"><a xlink:href="quickjs_8h.html#a775522f2d084fc8fa0fcb33f390006b4" target="_top" xlink:title="JS_DupValue">
<polygon fill="none" stroke="#000000" points="680,-465.5 680,-484.5 757,-484.5 757,-465.5 680,-465.5"/>
<text text-anchor="middle" x="718.5" y="-472.5" font-family="Helvetica,sans-Serif" font-size="10.00" fill="#000000">JS_DupValue</text>
</a>
</g>
</g>
<!-- Node171659&#45;&gt;Node171661 -->
<g id="edge26" class="edge">
<title>Node171659&#45;&gt;Node171661</title>
<path fill="none" stroke="#191970" d="M596.2704,-408.6041C606.1056,-412.3949 616.8613,-417.2364 626,-423 644.3589,-434.5786 643.3076,-444.9679 662,-456 665.4605,-458.0424 669.171,-459.9023 672.9762,-461.5881"/>
<polygon fill="#191970" stroke="#191970" points="671.9567,-464.9502 682.5409,-465.4247 674.5628,-458.4534 671.9567,-464.9502"/>
</g>
<!-- Node171664 -->
<g id="node22" class="node">
<title>Node171664</title>
<g id="a_node22"><a xlink:href="quickjs_8c.html#a6f921a6312ada5c7da7b485e24d37f54" target="_top" xlink:title="js_free_shape0">
<polygon fill="none" stroke="#ff0000" points="525,-275.5 525,-294.5 608,-294.5 608,-275.5 525,-275.5"/>
<text text-anchor="middle" x="566.5" y="-282.5" font-family="Helvetica,sans-Serif" font-size="10.00" fill="#000000">js_free_shape0</text>
</a>
</g>
</g>
<!-- Node171663&#45;&gt;Node171664 -->
<g id="edge30" class="edge">
<title>Node171663&#45;&gt;Node171664</title>
<path fill="none" stroke="#191970" d="M447.1511,-299.3521C467.4992,-296.9052 492.729,-293.8712 514.7428,-291.224"/>
<polygon fill="#191970" stroke="#191970" points="515.4171,-294.6682 524.9276,-289.9992 514.5813,-287.7183 515.4171,-294.6682"/>
</g>
<!-- Node171664&#45;&gt;Node171635 -->
<g id="edge32" class="edge">
<title>Node171664&#45;&gt;Node171635</title>
<path fill="none" stroke="#191970" d="M596.2704,-275.3959C606.1056,-271.6051 616.8613,-266.7636 626,-261 644.3589,-249.4214 643.3076,-239.0321 662,-228 665.4605,-225.9576 669.171,-224.0977 672.9762,-222.4119"/>
<polygon fill="#191970" stroke="#191970" points="674.5628,-225.5466 682.5409,-218.5753 671.9567,-219.0498 674.5628,-225.5466"/>
</g>
<!-- Node171664&#45;&gt;Node171640 -->
<g id="edge33" class="edge">
<title>Node171664&#45;&gt;Node171640</title>
<path fill="none" stroke="#191970" d="M604.856,-275.411C624.8237,-270.4191 649.4295,-264.2676 670.6334,-258.9666"/>
<polygon fill="#191970" stroke="#191970" points="671.5673,-262.341 680.4198,-256.5201 669.8695,-255.55 671.5673,-262.341"/>
</g>
<!-- Node171664&#45;&gt;Node171642 -->
<g id="edge31" class="edge">
<title>Node171664&#45;&gt;Node171642</title>
<path fill="none" stroke="#191970" d="M608.0347,-285C621.6755,-285 637.1957,-285 652.2028,-285"/>
<polygon fill="#191970" stroke="#191970" points="652.481,-288.5001 662.481,-285 652.4809,-281.5001 652.481,-288.5001"/>
</g>
<!-- Node171689&#45;&gt;Node171635 -->
<g id="edge36" class="edge">
<title>Node171689&#45;&gt;Node171635</title>
<path fill="none" stroke="#191970" d="M456.6231,-144.5985C501.395,-139.431 569.5069,-135.9917 626,-152 654.0736,-159.9552 681.9936,-179.1081 699.6955,-193.0219"/>
<polygon fill="#191970" stroke="#191970" points="697.5467,-195.7855 707.5206,-199.3593 701.9523,-190.3457 697.5467,-195.7855"/>
</g>
<!-- Node171691 -->
<g id="node25" class="node">
<title>Node171691</title>
<g id="a_node25"><a xlink:href="quickjs_8c.html#a4e63c63058f1efe20ee939c165f7b3ad" target="_top" xlink:title="JS_AtomGetStrRT">
<polygon fill="none" stroke="#ff0000" points="359,-190.5 359,-209.5 458,-209.5 458,-190.5 359,-190.5"/>
<text text-anchor="middle" x="408.5" y="-197.5" font-family="Helvetica,sans-Serif" font-size="10.00" fill="#000000">JS_AtomGetStrRT</text>
</a>
</g>
</g>
<!-- Node171690&#45;&gt;Node171691 -->
<g id="edge38" class="edge">
<title>Node171690&#45;&gt;Node171691</title>
<path fill="none" stroke="#191970" d="M273.2099,-200C295.881,-200 324.0101,-200 348.7371,-200"/>
<polygon fill="#191970" stroke="#191970" points="348.7408,-203.5001 358.7407,-200 348.7407,-196.5001 348.7408,-203.5001"/>
</g>
<!-- Node171691&#45;&gt;Node171634 -->
<g id="edge39" class="edge">
<title>Node171691&#45;&gt;Node171634</title>
<path fill="none" stroke="#191970" d="M458.0587,-202.823C470.2699,-203.5185 483.5762,-204.2765 496.5524,-205.0156"/>
<polygon fill="#191970" stroke="#191970" points="496.6782,-208.5284 506.8611,-205.6028 497.0764,-201.5397 496.6782,-208.5284"/>
</g>
<!-- Node171692 -->
<g id="node26" class="node">
<title>Node171692</title>
<g id="a_node26"><a xlink:href="quickjs_8c.html#a89f38938cee8077ce1fbba07946ed185" target="_top" xlink:title="__JS_AtomToUInt32">
<polygon fill="none" stroke="#000000" points="512.5,-161.5 512.5,-180.5 620.5,-180.5 620.5,-161.5 512.5,-161.5"/>
<text text-anchor="middle" x="566.5" y="-168.5" font-family="Helvetica,sans-Serif" font-size="10.00" fill="#000000">__JS_AtomToUInt32</text>
</a>
</g>
</g>
<!-- Node171691&#45;&gt;Node171692 -->
<g id="edge40" class="edge">
<title>Node171691&#45;&gt;Node171692</title>
<path fill="none" stroke="#191970" d="M458.0587,-190.9038C472.8322,-188.1922 489.2086,-185.1864 504.6641,-182.3496"/>
<polygon fill="#191970" stroke="#191970" points="505.4577,-185.7625 514.6615,-180.5147 504.1939,-178.8775 505.4577,-185.7625"/>
</g>
</g>
</svg>
