<?xml version="1.0" encoding="UTF-8" standalone="no"?>
<!DOCTYPE svg PUBLIC "-//W3C//DTD SVG 1.1//EN"
 "http://www.w3.org/Graphics/SVG/1.1/DTD/svg11.dtd">
<!-- Generated by graphviz version 2.40.1 (20161225.0304)
 -->
<!-- Title: add_eval_variables Pages: 1 -->
<svg width="608pt" height="184pt"
 viewBox="0.00 0.00 608.00 184.00" xmlns="http://www.w3.org/2000/svg" xmlns:xlink="http://www.w3.org/1999/xlink">
<g id="graph0" class="graph" transform="scale(1 1) rotate(0) translate(4 180)">
<title>add_eval_variables</title>
<!-- Node337925 -->
<g id="node1" class="node">
<title>Node337925</title>
<polygon fill="#bfbfbf" stroke="#000000" points="0,-80.5 0,-99.5 100,-99.5 100,-80.5 0,-80.5"/>
<text text-anchor="middle" x="50" y="-87.5" font-family="Helvetica,sans-Serif" font-size="10.00" fill="#000000">add_eval_variables</text>
</g>
<!-- Node337926 -->
<g id="node2" class="node">
<title>Node337926</title>
<g id="a_node2"><a xlink:href="quickjs_8c.html#a07c499a02fee3c2a738f301111f16c2c" target="_top" xlink:title="add_arguments_var">
<polygon fill="none" stroke="#000000" points="136,-156.5 136,-175.5 238,-175.5 238,-156.5 136,-156.5"/>
<text text-anchor="middle" x="187" y="-163.5" font-family="Helvetica,sans-Serif" font-size="10.00" fill="#000000">add_arguments_var</text>
</a>
</g>
</g>
<!-- Node337925&#45;&gt;Node337926 -->
<g id="edge1" class="edge">
<title>Node337925&#45;&gt;Node337926</title>
<path fill="none" stroke="#191970" d="M62.5501,-99.6558C78.8192,-111.8516 108.3855,-132.9391 136,-147 139.9916,-149.0325 144.2537,-150.9637 148.5494,-152.7616"/>
<polygon fill="#191970" stroke="#191970" points="147.3285,-156.0425 157.9146,-156.4717 149.9067,-149.5346 147.3285,-156.0425"/>
</g>
<!-- Node337927 -->
<g id="node3" class="node">
<title>Node337927</title>
<g id="a_node3"><a xlink:href="quickjs_8c.html#ab2e0855c4317f8e3b05c0a091bc43a29" target="_top" xlink:title="add_var">
<polygon fill="none" stroke="#000000" points="294,-80.5 294,-99.5 345,-99.5 345,-80.5 294,-80.5"/>
<text text-anchor="middle" x="319.5" y="-87.5" font-family="Helvetica,sans-Serif" font-size="10.00" fill="#000000">add_var</text>
</a>
</g>
</g>
<!-- Node337925&#45;&gt;Node337927 -->
<g id="edge8" class="edge">
<title>Node337925&#45;&gt;Node337927</title>
<path fill="none" stroke="#191970" d="M84.8607,-80.4919C100.3867,-76.7272 118.9756,-72.8582 136,-71 181.0657,-66.0811 192.9636,-65.8198 238,-71 253.215,-72.7501 269.7187,-76.2805 283.8699,-79.8283"/>
<polygon fill="#191970" stroke="#191970" points="283.1471,-83.2567 293.7064,-82.3895 284.911,-76.4826 283.1471,-83.2567"/>
</g>
<!-- Node337932 -->
<g id="node7" class="node">
<title>Node337932</title>
<g id="a_node7"><a xlink:href="quickjs_8c.html#afe834031fad358f2fbd7d71cfe8ac19c" target="_top" xlink:title="add_func_var">
<polygon fill="none" stroke="#000000" points="149.5,-118.5 149.5,-137.5 224.5,-137.5 224.5,-118.5 149.5,-118.5"/>
<text text-anchor="middle" x="187" y="-125.5" font-family="Helvetica,sans-Serif" font-size="10.00" fill="#000000">add_func_var</text>
</a>
</g>
</g>
<!-- Node337925&#45;&gt;Node337932 -->
<g id="edge6" class="edge">
<title>Node337925&#45;&gt;Node337932</title>
<path fill="none" stroke="#191970" d="M84.5709,-99.589C102.1752,-104.4719 123.7793,-110.4643 142.601,-115.685"/>
<polygon fill="#191970" stroke="#191970" points="141.8685,-119.1138 152.4402,-118.4141 143.7395,-112.3685 141.8685,-119.1138"/>
</g>
<!-- Node337933 -->
<g id="node8" class="node">
<title>Node337933</title>
<g id="a_node8"><a xlink:href="quickjs_8c.html#a237c9785e84b9382c476ee0868edb117" target="_top" xlink:title="add_var_this">
<polygon fill="none" stroke="#000000" points="151,-80.5 151,-99.5 223,-99.5 223,-80.5 151,-80.5"/>
<text text-anchor="middle" x="187" y="-87.5" font-family="Helvetica,sans-Serif" font-size="10.00" fill="#000000">add_var_this</text>
</a>
</g>
</g>
<!-- Node337925&#45;&gt;Node337933 -->
<g id="edge9" class="edge">
<title>Node337925&#45;&gt;Node337933</title>
<path fill="none" stroke="#191970" d="M100.2358,-90C113.4926,-90 127.7339,-90 140.7683,-90"/>
<polygon fill="#191970" stroke="#191970" points="140.9209,-93.5001 150.9209,-90 140.9209,-86.5001 140.9209,-93.5001"/>
</g>
<!-- Node337934 -->
<g id="node9" class="node">
<title>Node337934</title>
<g id="a_node9"><a xlink:href="quickjs_8c.html#a5067e8cf3633f10ec12c2f3ee9134c85" target="_top" xlink:title="get_closure_var">
<polygon fill="none" stroke="#000000" points="144,-4.5 144,-23.5 230,-23.5 230,-4.5 144,-4.5"/>
<text text-anchor="middle" x="187" y="-11.5" font-family="Helvetica,sans-Serif" font-size="10.00" fill="#000000">get_closure_var</text>
</a>
</g>
</g>
<!-- Node337925&#45;&gt;Node337934 -->
<g id="edge11" class="edge">
<title>Node337925&#45;&gt;Node337934</title>
<path fill="none" stroke="#191970" d="M64.9478,-80.3095C81.8886,-69.4817 110.4699,-51.6778 136,-38 142.3749,-34.5846 149.3196,-31.141 155.9738,-27.97"/>
<polygon fill="#191970" stroke="#191970" points="157.8394,-30.9614 165.4149,-23.5544 154.8738,-24.6207 157.8394,-30.9614"/>
</g>
<!-- Node337926&#45;&gt;Node337927 -->
<g id="edge2" class="edge">
<title>Node337926&#45;&gt;Node337927</title>
<path fill="none" stroke="#191970" d="M216.4141,-156.4903C223.6298,-153.7662 231.2238,-150.5577 238,-147 260.315,-135.2841 283.6794,-118.3971 299.6416,-106.0451"/>
<polygon fill="#191970" stroke="#191970" points="301.9982,-108.6445 307.6942,-99.711 297.6704,-103.1425 301.9982,-108.6445"/>
</g>
<!-- Node337928 -->
<g id="node4" class="node">
<title>Node337928</title>
<g id="a_node4"><a xlink:href="quickjs_8c.html#a853f0924d441ea4225488f37c8b69f9a" target="_top" xlink:title="__attribute__">
<polygon fill="none" stroke="#000000" points="526,-94.5 526,-113.5 599,-113.5 599,-94.5 526,-94.5"/>
<text text-anchor="middle" x="562.5" y="-101.5" font-family="Helvetica,sans-Serif" font-size="10.00" fill="#000000">__attribute__</text>
</a>
</g>
</g>
<!-- Node337927&#45;&gt;Node337928 -->
<g id="edge3" class="edge">
<title>Node337927&#45;&gt;Node337928</title>
<path fill="none" stroke="#191970" d="M345.046,-91.4718C385.5161,-93.8034 464.9815,-98.3816 515.8233,-101.3108"/>
<polygon fill="#191970" stroke="#191970" points="515.7168,-104.8104 525.9016,-101.8914 516.1195,-97.822 515.7168,-104.8104"/>
</g>
<!-- Node337929 -->
<g id="node5" class="node">
<title>Node337929</title>
<g id="a_node5"><a xlink:href="quickjs_8c.html#abbf44eaeace1104a6bef718fbf5700fe" target="_top" xlink:title="JS_DupAtom">
<polygon fill="none" stroke="#ff0000" points="525,-47.5 525,-66.5 600,-66.5 600,-47.5 525,-47.5"/>
<text text-anchor="middle" x="562.5" y="-54.5" font-family="Helvetica,sans-Serif" font-size="10.00" fill="#000000">JS_DupAtom</text>
</a>
</g>
</g>
<!-- Node337927&#45;&gt;Node337929 -->
<g id="edge4" class="edge">
<title>Node337927&#45;&gt;Node337929</title>
<path fill="none" stroke="#191970" d="M345.046,-86.5308C385.1741,-81.0813 463.6412,-70.4253 514.5282,-63.5147"/>
<polygon fill="#191970" stroke="#191970" points="515.1933,-66.9566 524.6313,-62.1427 514.2513,-60.0203 515.1933,-66.9566"/>
</g>
<!-- Node337931 -->
<g id="node6" class="node">
<title>Node337931</title>
<g id="a_node6"><a xlink:href="cutils_8h.html#a94f155fcce337a2b9d4719ed8042cbbe" target="_top" xlink:title="max_int">
<polygon fill="none" stroke="#000000" points="537,-.5 537,-19.5 588,-19.5 588,-.5 537,-.5"/>
<text text-anchor="middle" x="562.5" y="-7.5" font-family="Helvetica,sans-Serif" font-size="10.00" fill="#000000">max_int</text>
</a>
</g>
</g>
<!-- Node337927&#45;&gt;Node337931 -->
<g id="edge5" class="edge">
<title>Node337927&#45;&gt;Node337931</title>
<path fill="none" stroke="#191970" d="M337.1923,-80.3808C345.9825,-75.2006 356.5107,-68.368 365,-61 383.5675,-44.885 378.9584,-29.8909 401,-19 440.6996,.6157 492.7675,-.5191 526.9041,-4.2836"/>
<polygon fill="#191970" stroke="#191970" points="526.5355,-7.7646 536.889,-5.5163 527.3932,-.8174 526.5355,-7.7646"/>
</g>
<!-- Node337932&#45;&gt;Node337927 -->
<g id="edge7" class="edge">
<title>Node337932&#45;&gt;Node337927</title>
<path fill="none" stroke="#191970" d="M220.4353,-118.411C239.7595,-112.869 264.0669,-105.8978 283.7674,-100.2479"/>
<polygon fill="#191970" stroke="#191970" points="284.9511,-103.5495 293.5987,-97.4283 283.0213,-96.8208 284.9511,-103.5495"/>
</g>
<!-- Node337933&#45;&gt;Node337927 -->
<g id="edge10" class="edge">
<title>Node337933&#45;&gt;Node337927</title>
<path fill="none" stroke="#191970" d="M223.2062,-90C241.9967,-90 264.8782,-90 283.6209,-90"/>
<polygon fill="#191970" stroke="#191970" points="283.8349,-93.5001 293.8349,-90 283.8348,-86.5001 283.8349,-93.5001"/>
</g>
<!-- Node337935 -->
<g id="node10" class="node">
<title>Node337935</title>
<g id="a_node10"><a xlink:href="quickjs_8c.html#a4671a759c33274b073d0578ac62261e0" target="_top" xlink:title="get_closure_var2">
<polygon fill="none" stroke="#000000" points="274,-14.5 274,-33.5 365,-33.5 365,-14.5 274,-14.5"/>
<text text-anchor="middle" x="319.5" y="-21.5" font-family="Helvetica,sans-Serif" font-size="10.00" fill="#000000">get_closure_var2</text>
</a>
</g>
</g>
<!-- Node337934&#45;&gt;Node337935 -->
<g id="edge12" class="edge">
<title>Node337934&#45;&gt;Node337935</title>
<path fill="none" stroke="#191970" d="M230.019,-17.2467C240.7798,-18.0589 252.477,-18.9417 263.7572,-19.793"/>
<polygon fill="#191970" stroke="#191970" points="263.7253,-23.3005 273.9604,-20.563 264.2522,-16.3203 263.7253,-23.3005"/>
</g>
<!-- Node337935&#45;&gt;Node337935 -->
<g id="edge17" class="edge">
<title>Node337935&#45;&gt;Node337935</title>
<path fill="none" stroke="#191970" d="M300.388,-33.7571C291.0903,-42.5653 297.4609,-52 319.5,-52 333.6188,-52 341.3072,-48.128 342.5654,-43.0292"/>
<polygon fill="#191970" stroke="#191970" points="345.7537,-41.5831 338.612,-33.7571 339.3146,-44.3286 345.7537,-41.5831"/>
</g>
<!-- Node337936 -->
<g id="node11" class="node">
<title>Node337936</title>
<g id="a_node11"><a xlink:href="quickjs_8c.html#a9f64fb61a20cee1cad0eb2680624e341" target="_top" xlink:title="add_closure_var">
<polygon fill="none" stroke="#000000" points="401,-28.5 401,-47.5 489,-47.5 489,-28.5 401,-28.5"/>
<text text-anchor="middle" x="445" y="-35.5" font-family="Helvetica,sans-Serif" font-size="10.00" fill="#000000">add_closure_var</text>
</a>
</g>
</g>
<!-- Node337935&#45;&gt;Node337936 -->
<g id="edge13" class="edge">
<title>Node337935&#45;&gt;Node337936</title>
<path fill="none" stroke="#191970" d="M365.1634,-29.0939C373.4345,-30.0166 382.1344,-30.9871 390.6259,-31.9344"/>
<polygon fill="#191970" stroke="#191970" points="390.5111,-35.4432 400.8375,-33.0735 391.2872,-28.4863 390.5111,-35.4432"/>
</g>
<!-- Node337936&#45;&gt;Node337928 -->
<g id="edge14" class="edge">
<title>Node337936&#45;&gt;Node337928</title>
<path fill="none" stroke="#191970" d="M462.0855,-47.597C481.6651,-58.5948 513.9647,-76.7376 536.6318,-89.4698"/>
<polygon fill="#191970" stroke="#191970" points="534.961,-92.5456 545.3939,-94.3915 538.3892,-86.4425 534.961,-92.5456"/>
</g>
<!-- Node337936&#45;&gt;Node337929 -->
<g id="edge15" class="edge">
<title>Node337936&#45;&gt;Node337929</title>
<path fill="none" stroke="#191970" d="M489.087,-45.129C497.4202,-46.4765 506.1739,-47.892 514.6173,-49.2573"/>
<polygon fill="#191970" stroke="#191970" points="514.283,-52.7486 524.7135,-50.8898 515.4004,-45.8383 514.283,-52.7486"/>
</g>
<!-- Node337936&#45;&gt;Node337931 -->
<g id="edge16" class="edge">
<title>Node337936&#45;&gt;Node337931</title>
<path fill="none" stroke="#191970" d="M485.1082,-28.4423C498.6425,-25.2171 513.6493,-21.641 526.818,-18.5029"/>
<polygon fill="#191970" stroke="#191970" points="528.0054,-21.8181 536.9216,-16.0953 526.3827,-15.0087 528.0054,-21.8181"/>
</g>
</g>
</svg>
