<?xml version="1.0" encoding="UTF-8" standalone="no"?>
<!DOCTYPE svg PUBLIC "-//W3C//DTD SVG 1.1//EN"
 "http://www.w3.org/Graphics/SVG/1.1/DTD/svg11.dtd">
<!-- Generated by graphviz version 2.40.1 (20161225.0304)
 -->
<!-- Title: JS_WriteString Pages: 1 -->
<svg width="363pt" height="84pt"
 viewBox="0.00 0.00 363.00 84.00" xmlns="http://www.w3.org/2000/svg" xmlns:xlink="http://www.w3.org/1999/xlink">
<g id="graph0" class="graph" transform="scale(1 1) rotate(0) translate(4 80)">
<title>JS_WriteString</title>
<!-- Node342660 -->
<g id="node1" class="node">
<title>Node342660</title>
<polygon fill="#bfbfbf" stroke="#000000" points="0,-28.5 0,-47.5 83,-47.5 83,-28.5 0,-28.5"/>
<text text-anchor="middle" x="41.5" y="-35.5" font-family="Helvetica,sans-Serif" font-size="10.00" fill="#000000">JS_WriteString</text>
</g>
<!-- Node342661 -->
<g id="node2" class="node">
<title>Node342661</title>
<g id="a_node2"><a xlink:href="quickjs_8c.html#a91942742587df191fbf0f17a2ede99ef" target="_top" xlink:title="JS_WriteObjectAtoms">
<polygon fill="none" stroke="#000000" points="119,-56.5 119,-75.5 233,-75.5 233,-56.5 119,-56.5"/>
<text text-anchor="middle" x="176" y="-63.5" font-family="Helvetica,sans-Serif" font-size="10.00" fill="#000000">JS_WriteObjectAtoms</text>
</a>
</g>
</g>
<!-- Node342660&#45;&gt;Node342661 -->
<g id="edge1" class="edge">
<title>Node342660&#45;&gt;Node342661</title>
<path fill="none" stroke="#191970" d="M93.2758,-48.7786C105.3703,-51.2964 118.1709,-53.9612 129.9949,-56.4227"/>
<polygon fill="#191970" stroke="#191970" points="93.8228,-45.3175 83.3194,-46.7059 92.3961,-52.1706 93.8228,-45.3175"/>
</g>
<!-- Node342663 -->
<g id="node4" class="node">
<title>Node342663</title>
<g id="a_node4"><a xlink:href="quickjs_8c.html#aa9342f7444c1c9f8743d43aa4d7f89e3" target="_top" xlink:title="JS_WriteObjectRec">
<polygon fill="none" stroke="#000000" points="124,-.5 124,-19.5 228,-19.5 228,-.5 124,-.5"/>
<text text-anchor="middle" x="176" y="-7.5" font-family="Helvetica,sans-Serif" font-size="10.00" fill="#000000">JS_WriteObjectRec</text>
</a>
</g>
</g>
<!-- Node342660&#45;&gt;Node342663 -->
<g id="edge3" class="edge">
<title>Node342660&#45;&gt;Node342663</title>
<path fill="none" stroke="#191970" d="M93.2758,-27.2214C105.3703,-24.7036 118.1709,-22.0388 129.9949,-19.5773"/>
<polygon fill="#191970" stroke="#191970" points="92.3961,-23.8294 83.3194,-29.2941 93.8228,-30.6825 92.3961,-23.8294"/>
</g>
<!-- Node342662 -->
<g id="node3" class="node">
<title>Node342662</title>
<g id="a_node3"><a xlink:href="quickjs_8c.html#a8c807d481615ed55818787ae89621a37" target="_top" xlink:title="JS_WriteObject">
<polygon fill="none" stroke="#000000" points="269,-28.5 269,-47.5 355,-47.5 355,-28.5 269,-28.5"/>
<text text-anchor="middle" x="312" y="-35.5" font-family="Helvetica,sans-Serif" font-size="10.00" fill="#000000">JS_WriteObject</text>
</a>
</g>
</g>
<!-- Node342661&#45;&gt;Node342662 -->
<g id="edge2" class="edge">
<title>Node342661&#45;&gt;Node342662</title>
<path fill="none" stroke="#191970" d="M232.5117,-54.3652C244.7068,-51.8545 257.4095,-49.2392 268.9892,-46.8552"/>
<polygon fill="#191970" stroke="#191970" points="231.5119,-50.9976 222.4231,-56.4423 232.9235,-57.8538 231.5119,-50.9976"/>
</g>
<!-- Node342663&#45;&gt;Node342662 -->
<g id="edge5" class="edge">
<title>Node342663&#45;&gt;Node342662</title>
<path fill="none" stroke="#191970" d="M232.5117,-21.6348C244.7068,-24.1455 257.4095,-26.7608 268.9892,-29.1448"/>
<polygon fill="#191970" stroke="#191970" points="232.9235,-18.1462 222.4231,-19.5577 231.5119,-25.0024 232.9235,-18.1462"/>
</g>
<!-- Node342663&#45;&gt;Node342663 -->
<g id="edge4" class="edge">
<title>Node342663&#45;&gt;Node342663</title>
<path fill="none" stroke="#191970" d="M151.0745,-29.0292C152.4341,-34.128 160.7426,-38 176,-38 199.8164,-38 206.7008,-28.5653 196.6533,-19.7571"/>
<polygon fill="#191970" stroke="#191970" points="154.3407,-30.304 155.3467,-19.7571 147.9831,-27.3747 154.3407,-30.304"/>
</g>
</g>
</svg>
