<?xml version="1.0" encoding="UTF-8" standalone="no"?>
<!DOCTYPE svg PUBLIC "-//W3C//DTD SVG 1.1//EN"
 "http://www.w3.org/Graphics/SVG/1.1/DTD/svg11.dtd">
<!-- Generated by graphviz version 2.40.1 (20161225.0304)
 -->
<!-- Title: __JS_FreeValueRT Pages: 1 -->
<svg width="570pt" height="1052pt"
 viewBox="0.00 0.00 570.00 1052.00" xmlns="http://www.w3.org/2000/svg" xmlns:xlink="http://www.w3.org/1999/xlink">
<g id="graph0" class="graph" transform="scale(1 1) rotate(0) translate(4 1048)">
<title>__JS_FreeValueRT</title>
<!-- Node144989 -->
<g id="node1" class="node">
<title>Node144989</title>
<polygon fill="#bfbfbf" stroke="#000000" points="0,-537.5 0,-556.5 102,-556.5 102,-537.5 0,-537.5"/>
<text text-anchor="middle" x="51" y="-544.5" font-family="Helvetica,sans-Serif" font-size="10.00" fill="#000000">__JS_FreeValueRT</text>
</g>
<!-- Node144990 -->
<g id="node2" class="node">
<title>Node144990</title>
<g id="a_node2"><a xlink:href="quickjs_8c.html#aa059f309c30fd5166d16c82a97973146" target="_top" xlink:title="__JS_FreeValue">
<polygon fill="none" stroke="#000000" points="139.5,-790.5 139.5,-809.5 228.5,-809.5 228.5,-790.5 139.5,-790.5"/>
<text text-anchor="middle" x="184" y="-797.5" font-family="Helvetica,sans-Serif" font-size="10.00" fill="#000000">__JS_FreeValue</text>
</a>
</g>
</g>
<!-- Node144989&#45;&gt;Node144990 -->
<g id="edge1" class="edge">
<title>Node144989&#45;&gt;Node144990</title>
<path fill="none" stroke="#191970" d="M60.8368,-565.712C87.2799,-616.0136 159.2251,-752.8718 178.9436,-790.3815"/>
<polygon fill="#191970" stroke="#191970" points="63.8026,-563.8318 56.0514,-556.609 57.6065,-567.089 63.8026,-563.8318"/>
</g>
<!-- Node145668 -->
<g id="node4" class="node">
<title>Node145668</title>
<g id="a_node4"><a xlink:href="quickjs_8h.html#ab8db583fa5e7c2b1935854a42859daed" target="_top" xlink:title="JS_FreeValueRT">
<polygon fill="none" stroke="#000000" points="138,-518.5 138,-537.5 230,-537.5 230,-518.5 138,-518.5"/>
<text text-anchor="middle" x="184" y="-525.5" font-family="Helvetica,sans-Serif" font-size="10.00" fill="#000000">JS_FreeValueRT</text>
</a>
</g>
</g>
<!-- Node144989&#45;&gt;Node145668 -->
<g id="edge3" class="edge">
<title>Node144989&#45;&gt;Node145668</title>
<path fill="none" stroke="#191970" d="M112.0564,-538.2777C120.6658,-537.0477 129.3978,-535.8003 137.6698,-534.6186"/>
<polygon fill="#191970" stroke="#191970" points="111.4454,-534.8293 102.0409,-539.7084 112.4354,-541.759 111.4454,-534.8293"/>
</g>
<!-- Node144991 -->
<g id="node3" class="node">
<title>Node144991</title>
<g id="a_node3"><a xlink:href="quickjs_8h.html#afaa20c47565bc704c6c85f3d77254e7d" target="_top" xlink:title="JS_FreeValue">
<polygon fill="none" stroke="#ff0000" points="295.5,-1024.5 295.5,-1043.5 373.5,-1043.5 373.5,-1024.5 295.5,-1024.5"/>
<text text-anchor="middle" x="334.5" y="-1031.5" font-family="Helvetica,sans-Serif" font-size="10.00" fill="#000000">JS_FreeValue</text>
</a>
</g>
</g>
<!-- Node144990&#45;&gt;Node144991 -->
<g id="edge2" class="edge">
<title>Node144990&#45;&gt;Node144991</title>
<path fill="none" stroke="#191970" d="M185.7229,-819.9981C190.4672,-862.3991 207.5494,-961.7899 266,-1015 274.1223,-1022.3941 284.8763,-1026.9434 295.4505,-1029.7323"/>
<polygon fill="#191970" stroke="#191970" points="189.1859,-819.4536 184.7067,-809.8522 182.2208,-820.1513 189.1859,-819.4536"/>
</g>
<!-- Node145669 -->
<g id="node5" class="node">
<title>Node145669</title>
<g id="a_node5"><a xlink:href="quickjs-libc_8c.html#aab7fd6a31fdf4057b761f08b15a38fed" target="_top" xlink:title="free_rw_handler">
<polygon fill="none" stroke="#ff0000" points="291.5,-986.5 291.5,-1005.5 377.5,-1005.5 377.5,-986.5 291.5,-986.5"/>
<text text-anchor="middle" x="334.5" y="-993.5" font-family="Helvetica,sans-Serif" font-size="10.00" fill="#000000">free_rw_handler</text>
</a>
</g>
</g>
<!-- Node145668&#45;&gt;Node145669 -->
<g id="edge4" class="edge">
<title>Node145668&#45;&gt;Node145669</title>
<path fill="none" stroke="#191970" d="M187.6137,-547.8863C203.3987,-634.7392 265.5334,-976.4894 266,-977 272.6604,-984.2881 281.8476,-988.8766 291.3318,-991.741"/>
<polygon fill="#191970" stroke="#191970" points="191.0094,-546.9962 185.7776,-537.7832 184.1222,-548.2479 191.0094,-546.9962"/>
</g>
<!-- Node145671 -->
<g id="node6" class="node">
<title>Node145671</title>
<g id="a_node6"><a xlink:href="quickjs-libc_8c.html#a2c759d250bbd9030dba1b8b84543a7e6" target="_top" xlink:title="free_sh">
<polygon fill="none" stroke="#ff0000" points="310,-948.5 310,-967.5 359,-967.5 359,-948.5 310,-948.5"/>
<text text-anchor="middle" x="334.5" y="-955.5" font-family="Helvetica,sans-Serif" font-size="10.00" fill="#000000">free_sh</text>
</a>
</g>
</g>
<!-- Node145668&#45;&gt;Node145671 -->
<g id="edge5" class="edge">
<title>Node145668&#45;&gt;Node145671</title>
<path fill="none" stroke="#191970" d="M187.6722,-547.8677C202.7128,-629.0465 259.1414,-931.6167 266,-939 277.1713,-951.0259 295.224,-955.6844 309.9925,-957.3849"/>
<polygon fill="#191970" stroke="#191970" points="191.0256,-546.7545 185.7642,-537.5584 184.1425,-548.0284 191.0256,-546.7545"/>
</g>
<!-- Node145672 -->
<g id="node7" class="node">
<title>Node145672</title>
<g id="a_node7"><a xlink:href="quickjs-libc_8c.html#af489c834058ffaebb737bb9e837619aa" target="_top" xlink:title="free_timer">
<polygon fill="none" stroke="#ff0000" points="304.5,-910.5 304.5,-929.5 364.5,-929.5 364.5,-910.5 304.5,-910.5"/>
<text text-anchor="middle" x="334.5" y="-917.5" font-family="Helvetica,sans-Serif" font-size="10.00" fill="#000000">free_timer</text>
</a>
</g>
</g>
<!-- Node145668&#45;&gt;Node145672 -->
<g id="edge6" class="edge">
<title>Node145668&#45;&gt;Node145672</title>
<path fill="none" stroke="#191970" d="M187.7192,-547.5536C202.0451,-622.4819 253.4769,-887.7794 266,-901 275.845,-911.3934 290.8326,-916.2689 304.2808,-918.4931"/>
<polygon fill="#191970" stroke="#191970" points="191.1284,-546.7463 185.8166,-537.5792 184.2524,-548.0579 191.1284,-546.7463"/>
</g>
<!-- Node145614 -->
<g id="node8" class="node">
<title>Node145614</title>
<g id="a_node8"><a xlink:href="quickjs_8c.html#ad80a65b72c3a346d8a0047858a5f0b13" target="_top" xlink:title="JS_FreeRuntime">
<polygon fill="none" stroke="#ff0000" points="289.5,-872.5 289.5,-891.5 379.5,-891.5 379.5,-872.5 289.5,-872.5"/>
<text text-anchor="middle" x="334.5" y="-879.5" font-family="Helvetica,sans-Serif" font-size="10.00" fill="#000000">JS_FreeRuntime</text>
</a>
</g>
</g>
<!-- Node145668&#45;&gt;Node145614 -->
<g id="edge7" class="edge">
<title>Node145668&#45;&gt;Node145614</title>
<path fill="none" stroke="#191970" d="M187.6468,-547.8261C200.3987,-616.2729 243.4386,-839.7395 266,-863 272.2725,-869.4669 280.5378,-873.7906 289.1492,-876.6676"/>
<polygon fill="#191970" stroke="#191970" points="191.0103,-546.7674 185.7476,-537.5721 184.1274,-548.0423 191.0103,-546.7674"/>
</g>
<!-- Node145673 -->
<g id="node9" class="node">
<title>Node145673</title>
<g id="a_node9"><a xlink:href="quickjs_8c.html#a6f921a6312ada5c7da7b485e24d37f54" target="_top" xlink:title="js_free_shape0">
<polygon fill="none" stroke="#ff0000" points="293,-834.5 293,-853.5 376,-853.5 376,-834.5 293,-834.5"/>
<text text-anchor="middle" x="334.5" y="-841.5" font-family="Helvetica,sans-Serif" font-size="10.00" fill="#000000">js_free_shape0</text>
</a>
</g>
</g>
<!-- Node145668&#45;&gt;Node145673 -->
<g id="edge8" class="edge">
<title>Node145668&#45;&gt;Node145673</title>
<path fill="none" stroke="#191970" d="M187.1301,-547.8001C196.8086,-606.7312 227.9072,-779.4192 266,-820 273.1581,-827.6257 282.8752,-832.8294 292.7395,-836.3801"/>
<polygon fill="#191970" stroke="#191970" points="190.5331,-546.918 185.4842,-537.6035 183.6225,-548.0334 190.5331,-546.918"/>
</g>
<!-- Node145617 -->
<g id="node10" class="node">
<title>Node145617</title>
<g id="a_node10"><a xlink:href="quickjs_8c.html#af4274494e2e45f9018154ffcbb7e89e4" target="_top" xlink:title="free_property">
<polygon fill="none" stroke="#ff0000" points="463.5,-788.5 463.5,-807.5 537.5,-807.5 537.5,-788.5 463.5,-788.5"/>
<text text-anchor="middle" x="500.5" y="-795.5" font-family="Helvetica,sans-Serif" font-size="10.00" fill="#000000">free_property</text>
</a>
</g>
</g>
<!-- Node145668&#45;&gt;Node145617 -->
<g id="edge9" class="edge">
<title>Node145668&#45;&gt;Node145617</title>
<path fill="none" stroke="#191970" d="M187.2484,-547.5013C196.8378,-602.5118 226.8233,-756.8746 266,-787 323.9944,-831.5954 415.9508,-819.0608 465.7303,-807.5871"/>
<polygon fill="#191970" stroke="#191970" points="190.6943,-546.8874 185.5605,-537.6195 183.7942,-548.0661 190.6943,-546.8874"/>
</g>
<!-- Node145683 -->
<g id="node11" class="node">
<title>Node145683</title>
<g id="a_node11"><a xlink:href="quickjs_8c.html#a9e7b4bccf927d811b0f99b40b08c0472" target="_top" xlink:title="free_var_ref">
<polygon fill="none" stroke="#ff0000" points="300.5,-758.5 300.5,-777.5 368.5,-777.5 368.5,-758.5 300.5,-758.5"/>
<text text-anchor="middle" x="334.5" y="-765.5" font-family="Helvetica,sans-Serif" font-size="10.00" fill="#000000">free_var_ref</text>
</a>
</g>
</g>
<!-- Node145668&#45;&gt;Node145683 -->
<g id="edge10" class="edge">
<title>Node145668&#45;&gt;Node145683</title>
<path fill="none" stroke="#191970" d="M185.9723,-547.7921C191.1993,-589.8118 209.1613,-688.6104 266,-744 275.2954,-753.0584 288.1997,-758.7128 300.3042,-762.2359"/>
<polygon fill="#191970" stroke="#191970" points="189.4375,-547.2867 184.8356,-537.7436 182.4819,-548.0736 189.4375,-547.2867"/>
</g>
<!-- Node145684 -->
<g id="node12" class="node">
<title>Node145684</title>
<g id="a_node12"><a xlink:href="quickjs_8c.html#a21648ca38448a0bc9b61e102f7b46d25" target="_top" xlink:title="js_bytecode_function\l_finalizer">
<polygon fill="none" stroke="#000000" points="446,-723 446,-753 555,-753 555,-723 446,-723"/>
<text text-anchor="start" x="454" y="-741" font-family="Helvetica,sans-Serif" font-size="10.00" fill="#000000">js_bytecode_function</text>
<text text-anchor="middle" x="500.5" y="-730" font-family="Helvetica,sans-Serif" font-size="10.00" fill="#000000">_finalizer</text>
</a>
</g>
</g>
<!-- Node145668&#45;&gt;Node145684 -->
<g id="edge15" class="edge">
<title>Node145668&#45;&gt;Node145684</title>
<path fill="none" stroke="#191970" d="M186.4397,-547.521C192.3639,-585.9034 211.2914,-670.9363 266,-711 317.9092,-749.0137 394.3473,-750.5563 445.7042,-746.0644"/>
<polygon fill="#191970" stroke="#191970" points="189.9038,-547.0206 185.0435,-537.6064 182.9722,-547.9968 189.9038,-547.0206"/>
</g>
<!-- Node145685 -->
<g id="node13" class="node">
<title>Node145685</title>
<g id="a_node13"><a xlink:href="quickjs_8c.html#a44c818f2e1c853a398543ebdd9dcf235" target="_top" xlink:title="js_array_finalizer">
<polygon fill="none" stroke="#000000" points="289.5,-682.5 289.5,-701.5 379.5,-701.5 379.5,-682.5 289.5,-682.5"/>
<text text-anchor="middle" x="334.5" y="-689.5" font-family="Helvetica,sans-Serif" font-size="10.00" fill="#000000">js_array_finalizer</text>
</a>
</g>
</g>
<!-- Node145668&#45;&gt;Node145685 -->
<g id="edge13" class="edge">
<title>Node145668&#45;&gt;Node145685</title>
<path fill="none" stroke="#191970" d="M189.6681,-547.5859C199.7496,-578.8916 223.8052,-640.0257 266,-673 272.807,-678.3195 281.013,-682.1505 289.344,-684.9092"/>
<polygon fill="#191970" stroke="#191970" points="192.9602,-546.3832 186.6781,-537.8517 186.2687,-548.4387 192.9602,-546.3832"/>
</g>
<!-- Node145686 -->
<g id="node14" class="node">
<title>Node145686</title>
<g id="a_node14"><a xlink:href="quickjs_8c.html#abd6dc9a149834fc4a6cb6235ca03fa1e" target="_top" xlink:title="js_object_data_finalizer">
<polygon fill="none" stroke="#000000" points="275,-644.5 275,-663.5 394,-663.5 394,-644.5 275,-644.5"/>
<text text-anchor="middle" x="334.5" y="-651.5" font-family="Helvetica,sans-Serif" font-size="10.00" fill="#000000">js_object_data_finalizer</text>
</a>
</g>
</g>
<!-- Node145668&#45;&gt;Node145686 -->
<g id="edge14" class="edge">
<title>Node145668&#45;&gt;Node145686</title>
<path fill="none" stroke="#191970" d="M193.4325,-546.8372C206.4577,-570.914 232.2223,-612.2005 266,-635 271.7283,-638.8666 278.2284,-641.9507 284.8884,-644.4096"/>
<polygon fill="#191970" stroke="#191970" points="196.3783,-544.9173 188.644,-537.6763 190.1747,-548.16 196.3783,-544.9173"/>
</g>
<!-- Node145687 -->
<g id="node15" class="node">
<title>Node145687</title>
<g id="a_node15"><a xlink:href="quickjs_8c.html#aaff26e6df87cc3206d62a574cb754caf" target="_top" xlink:title="js_bound_function_finalizer">
<polygon fill="none" stroke="#000000" points="267.5,-606.5 267.5,-625.5 401.5,-625.5 401.5,-606.5 267.5,-606.5"/>
<text text-anchor="middle" x="334.5" y="-613.5" font-family="Helvetica,sans-Serif" font-size="10.00" fill="#000000">js_bound_function_finalizer</text>
</a>
</g>
</g>
<!-- Node145668&#45;&gt;Node145687 -->
<g id="edge16" class="edge">
<title>Node145668&#45;&gt;Node145687</title>
<path fill="none" stroke="#191970" d="M199.8034,-544.9591C215.2714,-560.6054 240.21,-583.4077 266,-597 273.2058,-600.7977 281.2491,-603.9001 289.2191,-606.4133"/>
<polygon fill="#191970" stroke="#191970" points="202.0853,-542.2833 192.6235,-537.5161 197.0473,-547.1433 202.0853,-542.2833"/>
</g>
<!-- Node145688 -->
<g id="node16" class="node">
<title>Node145688</title>
<g id="a_node16"><a xlink:href="quickjs_8c.html#a4045e60eb443787153f2f1f78e990e08" target="_top" xlink:title="js_for_in_iterator\l_finalizer">
<polygon fill="none" stroke="#000000" points="290,-557 290,-587 379,-587 379,-557 290,-557"/>
<text text-anchor="start" x="298" y="-575" font-family="Helvetica,sans-Serif" font-size="10.00" fill="#000000">js_for_in_iterator</text>
<text text-anchor="middle" x="334.5" y="-564" font-family="Helvetica,sans-Serif" font-size="10.00" fill="#000000">_finalizer</text>
</a>
</g>
</g>
<!-- Node145668&#45;&gt;Node145688 -->
<g id="edge17" class="edge">
<title>Node145668&#45;&gt;Node145688</title>
<path fill="none" stroke="#191970" d="M226.3483,-540.3809C246.1815,-546.1793 269.8116,-553.0878 289.9178,-558.966"/>
<polygon fill="#191970" stroke="#191970" points="227.2366,-536.9942 216.6563,-537.5473 225.2723,-543.7129 227.2366,-536.9942"/>
</g>
<!-- Node145689 -->
<g id="node17" class="node">
<title>Node145689</title>
<g id="a_node17"><a xlink:href="quickjs_8c.html#ab3180b5caf3b66ac6db634e41e56a4ef" target="_top" xlink:title="async_func_free">
<polygon fill="none" stroke="#ff0000" points="290,-518.5 290,-537.5 379,-537.5 379,-518.5 290,-518.5"/>
<text text-anchor="middle" x="334.5" y="-525.5" font-family="Helvetica,sans-Serif" font-size="10.00" fill="#000000">async_func_free</text>
</a>
</g>
</g>
<!-- Node145668&#45;&gt;Node145689 -->
<g id="edge18" class="edge">
<title>Node145668&#45;&gt;Node145689</title>
<path fill="none" stroke="#191970" d="M240.8227,-528C257.0274,-528 274.447,-528 289.8169,-528"/>
<polygon fill="#191970" stroke="#191970" points="240.383,-524.5001 230.383,-528 240.383,-531.5001 240.383,-524.5001"/>
</g>
<!-- Node145696 -->
<g id="node18" class="node">
<title>Node145696</title>
<g id="a_node18"><a xlink:href="quickjs_8c.html#a0cf9a02011216d38f2e96ca71f8f274f" target="_top" xlink:title="js_async_generator_free">
<polygon fill="none" stroke="#ff0000" points="439,-499.5 439,-518.5 562,-518.5 562,-499.5 439,-499.5"/>
<text text-anchor="middle" x="500.5" y="-506.5" font-family="Helvetica,sans-Serif" font-size="10.00" fill="#000000">js_async_generator_free</text>
</a>
</g>
</g>
<!-- Node145668&#45;&gt;Node145696 -->
<g id="edge21" class="edge">
<title>Node145668&#45;&gt;Node145696</title>
<path fill="none" stroke="#191970" d="M226.9269,-516.1165C239.4249,-513.1855 253.1691,-510.4671 266,-509 324.2455,-502.3403 391.1621,-503.1727 438.5655,-505.1759"/>
<polygon fill="#191970" stroke="#191970" points="226.0943,-512.7169 217.2123,-518.4929 227.7576,-519.5165 226.0943,-512.7169"/>
</g>
<!-- Node145693 -->
<g id="node19" class="node">
<title>Node145693</title>
<g id="a_node19"><a xlink:href="quickjs_8c.html#a0272417de9a1be37e1fcc3fdccdb859a" target="_top" xlink:title="js_async_function_free0">
<polygon fill="none" stroke="#ff0000" points="273.5,-442.5 273.5,-461.5 395.5,-461.5 395.5,-442.5 273.5,-442.5"/>
<text text-anchor="middle" x="334.5" y="-449.5" font-family="Helvetica,sans-Serif" font-size="10.00" fill="#000000">js_async_function_free0</text>
</a>
</g>
</g>
<!-- Node145668&#45;&gt;Node145693 -->
<g id="edge20" class="edge">
<title>Node145668&#45;&gt;Node145693</title>
<path fill="none" stroke="#191970" d="M205.2825,-512.5964C221.3923,-501.4173 244.3668,-486.4787 266,-476 277.5676,-470.3969 290.7918,-465.4487 302.5161,-461.523"/>
<polygon fill="#191970" stroke="#191970" points="203.2497,-509.7471 197.091,-518.368 207.2816,-515.4693 203.2497,-509.7471"/>
</g>
<!-- Node145589 -->
<g id="node20" class="node">
<title>Node145589</title>
<g id="a_node20"><a xlink:href="quickjs_8c.html#adc4a49d7eb1cc1ec4b3a8c37ab8cb075" target="_top" xlink:title="free_function_bytecode">
<polygon fill="none" stroke="#ff0000" points="275.5,-404.5 275.5,-423.5 393.5,-423.5 393.5,-404.5 275.5,-404.5"/>
<text text-anchor="middle" x="334.5" y="-411.5" font-family="Helvetica,sans-Serif" font-size="10.00" fill="#000000">free_function_bytecode</text>
</a>
</g>
</g>
<!-- Node145668&#45;&gt;Node145589 -->
<g id="edge22" class="edge">
<title>Node145668&#45;&gt;Node145589</title>
<path fill="none" stroke="#191970" d="M194.9846,-509.6981C208.8588,-488.1525 234.7358,-452.8038 266,-433 272.1512,-429.1036 279.1055,-425.994 286.166,-423.5155"/>
<polygon fill="#191970" stroke="#191970" points="191.965,-507.9258 189.6352,-518.2613 197.9018,-511.6345 191.965,-507.9258"/>
</g>
<!-- Node145698 -->
<g id="node21" class="node">
<title>Node145698</title>
<g id="a_node21"><a xlink:href="quickjs_8c.html#aaf0d869f076df317beb45b62ff39532a" target="_top" xlink:title="js_array_iterator_finalizer">
<polygon fill="none" stroke="#000000" points="272,-366.5 272,-385.5 397,-385.5 397,-366.5 272,-366.5"/>
<text text-anchor="middle" x="334.5" y="-373.5" font-family="Helvetica,sans-Serif" font-size="10.00" fill="#000000">js_array_iterator_finalizer</text>
</a>
</g>
</g>
<!-- Node145668&#45;&gt;Node145698 -->
<g id="edge23" class="edge">
<title>Node145668&#45;&gt;Node145698</title>
<path fill="none" stroke="#191970" d="M190.5957,-508.7971C201.5798,-479.7167 226.4067,-424.7529 266,-395 271.1304,-391.1447 277.0029,-388.0717 283.1043,-385.6222"/>
<polygon fill="#191970" stroke="#191970" points="187.2884,-507.6509 187.1735,-518.2452 193.8699,-510.0349 187.2884,-507.6509"/>
</g>
<!-- Node145699 -->
<g id="node22" class="node">
<title>Node145699</title>
<g id="a_node22"><a xlink:href="quickjs_8c.html#ac9c75493ffc21eedbbceab3913de681c" target="_top" xlink:title="js_regexp_finalizer">
<polygon fill="none" stroke="#000000" points="285.5,-328.5 285.5,-347.5 383.5,-347.5 383.5,-328.5 285.5,-328.5"/>
<text text-anchor="middle" x="334.5" y="-335.5" font-family="Helvetica,sans-Serif" font-size="10.00" fill="#000000">js_regexp_finalizer</text>
</a>
</g>
</g>
<!-- Node145668&#45;&gt;Node145699 -->
<g id="edge24" class="edge">
<title>Node145668&#45;&gt;Node145699</title>
<path fill="none" stroke="#191970" d="M187.9265,-507.9941C196.0096,-472.2129 217.9386,-397.245 266,-357 271.5826,-352.3253 278.2305,-348.7961 285.156,-346.1328"/>
<polygon fill="#191970" stroke="#191970" points="184.4255,-507.6319 185.7731,-518.1407 191.273,-509.0852 184.4255,-507.6319"/>
</g>
<!-- Node145700 -->
<g id="node23" class="node">
<title>Node145700</title>
<g id="a_node23"><a xlink:href="quickjs_8c.html#a9dd93ec82f5884a80758b81056e9ad43" target="_top" xlink:title="js_regexp_string_iterator\l_finalizer">
<polygon fill="none" stroke="#000000" points="273,-279 273,-309 396,-309 396,-279 273,-279"/>
<text text-anchor="start" x="281" y="-297" font-family="Helvetica,sans-Serif" font-size="10.00" fill="#000000">js_regexp_string_iterator</text>
<text text-anchor="middle" x="334.5" y="-286" font-family="Helvetica,sans-Serif" font-size="10.00" fill="#000000">_finalizer</text>
</a>
</g>
</g>
<!-- Node145668&#45;&gt;Node145700 -->
<g id="edge25" class="edge">
<title>Node145668&#45;&gt;Node145700</title>
<path fill="none" stroke="#191970" d="M186.3464,-508.0635C192.2084,-467.0321 211.191,-372.512 266,-319 269.9856,-315.1087 274.6248,-311.8165 279.575,-309.0324"/>
<polygon fill="#191970" stroke="#191970" points="182.8552,-507.7686 185.0221,-518.1395 189.7955,-508.6809 182.8552,-507.7686"/>
</g>
<!-- Node145701 -->
<g id="node24" class="node">
<title>Node145701</title>
<g id="a_node24"><a xlink:href="quickjs_8c.html#a33105e4a375518fa0d303fb4eaaa6444" target="_top" xlink:title="map_delete_record">
<polygon fill="none" stroke="#000000" points="285,-240.5 285,-259.5 384,-259.5 384,-240.5 285,-240.5"/>
<text text-anchor="middle" x="334.5" y="-247.5" font-family="Helvetica,sans-Serif" font-size="10.00" fill="#000000">map_delete_record</text>
</a>
</g>
</g>
<!-- Node145668&#45;&gt;Node145701 -->
<g id="edge26" class="edge">
<title>Node145668&#45;&gt;Node145701</title>
<path fill="none" stroke="#191970" d="M187.7422,-508.2085C198.4252,-453.6993 230.584,-303.1618 266,-269 271.3295,-263.8592 277.9236,-260.0845 284.8968,-257.3178"/>
<polygon fill="#191970" stroke="#191970" points="184.2518,-507.8243 185.795,-518.3062 191.1252,-509.1498 184.2518,-507.8243"/>
</g>
<!-- Node145702 -->
<g id="node25" class="node">
<title>Node145702</title>
<g id="a_node25"><a xlink:href="quickjs_8c.html#a818cf98b25b3e462b79b5d8f8c6517da" target="_top" xlink:title="reset_weak_ref">
<polygon fill="none" stroke="#ff0000" points="293,-202.5 293,-221.5 376,-221.5 376,-202.5 293,-202.5"/>
<text text-anchor="middle" x="334.5" y="-209.5" font-family="Helvetica,sans-Serif" font-size="10.00" fill="#000000">reset_weak_ref</text>
</a>
</g>
</g>
<!-- Node145668&#45;&gt;Node145702 -->
<g id="edge27" class="edge">
<title>Node145668&#45;&gt;Node145702</title>
<path fill="none" stroke="#191970" d="M186.8426,-508.5171C195.9017,-449 225.8702,-271.1774 266,-231 273.2388,-223.7526 282.9843,-219.2074 292.8501,-216.3741"/>
<polygon fill="#191970" stroke="#191970" points="183.37,-508.0746 185.3545,-518.4819 190.2932,-509.1085 183.37,-508.0746"/>
</g>
<!-- Node145703 -->
<g id="node26" class="node">
<title>Node145703</title>
<g id="a_node26"><a xlink:href="quickjs_8c.html#afad8bd4b718f23a93da0799137179cdb" target="_top" xlink:title="js_map_finalizer">
<polygon fill="none" stroke="#000000" points="291,-164.5 291,-183.5 378,-183.5 378,-164.5 291,-164.5"/>
<text text-anchor="middle" x="334.5" y="-171.5" font-family="Helvetica,sans-Serif" font-size="10.00" fill="#000000">js_map_finalizer</text>
</a>
</g>
</g>
<!-- Node145668&#45;&gt;Node145703 -->
<g id="edge28" class="edge">
<title>Node145668&#45;&gt;Node145703</title>
<path fill="none" stroke="#191970" d="M186.2289,-508.1813C193.9058,-443.353 221.2654,-239.1209 266,-193 272.7022,-186.0902 281.6793,-181.6271 290.923,-178.7614"/>
<polygon fill="#191970" stroke="#191970" points="182.7323,-507.9503 185.0594,-518.2864 189.6859,-508.7551 182.7323,-507.9503"/>
</g>
<!-- Node145704 -->
<g id="node27" class="node">
<title>Node145704</title>
<g id="a_node27"><a xlink:href="quickjs_8c.html#a7ea7031f864981d13b627113ba061760" target="_top" xlink:title="js_map_iterator_finalizer">
<polygon fill="none" stroke="#000000" points="273.5,-126.5 273.5,-145.5 395.5,-145.5 395.5,-126.5 273.5,-126.5"/>
<text text-anchor="middle" x="334.5" y="-133.5" font-family="Helvetica,sans-Serif" font-size="10.00" fill="#000000">js_map_iterator_finalizer</text>
</a>
</g>
</g>
<!-- Node145668&#45;&gt;Node145704 -->
<g id="edge29" class="edge">
<title>Node145668&#45;&gt;Node145704</title>
<path fill="none" stroke="#191970" d="M185.6916,-508.2305C192.0249,-438.7589 216.5451,-207.2093 266,-155 269.6495,-151.1473 274.0055,-148.0528 278.7279,-145.5705"/>
<polygon fill="#191970" stroke="#191970" points="182.1986,-507.9971 184.8018,-518.2671 189.1713,-508.6153 182.1986,-507.9971"/>
</g>
<!-- Node145705 -->
<g id="node28" class="node">
<title>Node145705</title>
<g id="a_node28"><a xlink:href="quickjs_8c.html#a24b69b04d5b252c4ddb9d85b659b9129" target="_top" xlink:title="promise_reaction_data_free">
<polygon fill="none" stroke="#ff0000" points="266,-88.5 266,-107.5 403,-107.5 403,-88.5 266,-88.5"/>
<text text-anchor="middle" x="334.5" y="-95.5" font-family="Helvetica,sans-Serif" font-size="10.00" fill="#000000">promise_reaction_data_free</text>
</a>
</g>
</g>
<!-- Node145668&#45;&gt;Node145705 -->
<g id="edge30" class="edge">
<title>Node145668&#45;&gt;Node145705</title>
<path fill="none" stroke="#191970" d="M185.2597,-508.1757C190.356,-434.1688 211.8258,-175.3182 266,-117 269.5278,-113.2024 273.7418,-110.1394 278.3219,-107.6723"/>
<polygon fill="#191970" stroke="#191970" points="181.7507,-508.1972 184.5799,-518.4073 188.7353,-508.6614 181.7507,-508.1972"/>
</g>
<!-- Node145706 -->
<g id="node29" class="node">
<title>Node145706</title>
<g id="a_node29"><a xlink:href="quickjs_8c.html#ae8260c566b9f7776fb2375fa272157fc" target="_top" xlink:title="js_promise_resolve\l_function_finalizer">
<polygon fill="none" stroke="#000000" points="284,-39 284,-69 385,-69 385,-39 284,-39"/>
<text text-anchor="start" x="292" y="-57" font-family="Helvetica,sans-Serif" font-size="10.00" fill="#000000">js_promise_resolve</text>
<text text-anchor="middle" x="334.5" y="-46" font-family="Helvetica,sans-Serif" font-size="10.00" fill="#000000">_function_finalizer</text>
</a>
</g>
</g>
<!-- Node145668&#45;&gt;Node145706 -->
<g id="edge31" class="edge">
<title>Node145668&#45;&gt;Node145706</title>
<path fill="none" stroke="#191970" d="M185.0622,-508.022C189.5979,-429.8427 209.7471,-145.6848 266,-79 270.816,-73.2908 277.0506,-68.8854 283.7941,-65.4859"/>
<polygon fill="#191970" stroke="#191970" points="181.5471,-508.1967 184.4844,-518.3762 188.5362,-508.5868 181.5471,-508.1967"/>
</g>
<!-- Node145707 -->
<g id="node30" class="node">
<title>Node145707</title>
<g id="a_node30"><a xlink:href="quickjs_8c.html#a2dcb30caae62abdc1f3b1d69dc9acb17" target="_top" xlink:title="js_typed_array_finalizer">
<polygon fill="none" stroke="#000000" points="275,-.5 275,-19.5 394,-19.5 394,-.5 275,-.5"/>
<text text-anchor="middle" x="334.5" y="-7.5" font-family="Helvetica,sans-Serif" font-size="10.00" fill="#000000">js_typed_array_finalizer</text>
</a>
</g>
</g>
<!-- Node145668&#45;&gt;Node145707 -->
<g id="edge32" class="edge">
<title>Node145668&#45;&gt;Node145707</title>
<path fill="none" stroke="#191970" d="M184.4921,-508.3726C186.9765,-425.0657 200.744,-101.6915 266,-29 269.4626,-25.1428 273.6328,-22.0399 278.1853,-19.5475"/>
<polygon fill="#191970" stroke="#191970" points="180.9903,-508.3901 184.2122,-518.4832 187.9877,-508.5839 180.9903,-508.3901"/>
</g>
<!-- Node145683&#45;&gt;Node145617 -->
<g id="edge11" class="edge">
<title>Node145683&#45;&gt;Node145617</title>
<path fill="none" stroke="#191970" d="M378.9972,-776.0417C405.3322,-780.801 438.3108,-786.761 463.2625,-791.2703"/>
<polygon fill="#191970" stroke="#191970" points="379.3584,-772.5503 368.8953,-774.216 378.1134,-779.4387 379.3584,-772.5503"/>
</g>
<!-- Node145683&#45;&gt;Node145684 -->
<g id="edge12" class="edge">
<title>Node145683&#45;&gt;Node145684</title>
<path fill="none" stroke="#191970" d="M378.9466,-759.9675C399.5313,-756.2473 424.1836,-751.7921 445.8903,-747.8692"/>
<polygon fill="#191970" stroke="#191970" points="378.1134,-756.5613 368.8953,-761.784 379.3584,-763.4497 378.1134,-756.5613"/>
</g>
<!-- Node145689&#45;&gt;Node145696 -->
<g id="edge19" class="edge">
<title>Node145689&#45;&gt;Node145696</title>
<path fill="none" stroke="#191970" d="M389.5319,-521.7012C405.2929,-519.8972 422.5776,-517.9188 438.7154,-516.0717"/>
<polygon fill="#191970" stroke="#191970" points="388.9591,-518.2438 379.422,-522.8583 389.7552,-525.1984 388.9591,-518.2438"/>
</g>
</g>
</svg>
