<?xml version="1.0" encoding="UTF-8" standalone="no"?>
<!DOCTYPE svg PUBLIC "-//W3C//DTD SVG 1.1//EN"
 "http://www.w3.org/Graphics/SVG/1.1/DTD/svg11.dtd">
<!-- Generated by graphviz version 2.40.1 (20161225.0304)
 -->
<!-- Title: js_os_setReadHandler Pages: 1 -->
<!--zoomable 332 -->
<svg id="main" version="1.1" xmlns="http://www.w3.org/2000/svg" xmlns:xlink="http://www.w3.org/1999/xlink" xml:space="preserve" onload="init(evt)">
<style type="text/css"><![CDATA[
.edge:hover path { stroke: red; }
.edge:hover polygon { stroke: red; fill: red; }
]]></style>
<script type="text/javascript"><![CDATA[
var edges = document.getElementsByTagName('g');
if (edges && edges.length) {
  for (var i=0;i<edges.length;i++) {
    if (edges[i].id.substr(0,4)=='edge') {
      edges[i].setAttribute('class','edge');
    }
  }
}
]]></script>
        <defs>
                <circle id="rim" cx="0" cy="0" r="7"/>
                <circle id="rim2" cx="0" cy="0" r="3.5"/>
                <g id="zoomPlus">
                        <use xlink:href="#rim" fill="#404040">
                                <set attributeName="fill" to="#808080" begin="zoomplus.mouseover" end="zoomplus.mouseout"/>
                        </use>
                        <path d="M-4,0h8M0,-4v8" fill="none" stroke="white" stroke-width="1.5" pointer-events="none"/>
                </g>
                <g id="zoomMin">
                        <use xlink:href="#rim" fill="#404040">
                                <set attributeName="fill" to="#808080" begin="zoomminus.mouseover" end="zoomminus.mouseout"/>
                        </use>
                        <path d="M-4,0h8" fill="none" stroke="white" stroke-width="1.5" pointer-events="none"/>
                </g>
                <g id="dirArrow">
                        <path fill="none" stroke="white" stroke-width="1.5" d="M0,-3.0v7 M-2.5,-0.5L0,-3.0L2.5,-0.5"/>
                </g>
               <g id="resetDef">
                       <use xlink:href="#rim2" fill="#404040">
                               <set attributeName="fill" to="#808080" begin="reset.mouseover" end="reset.mouseout"/>
                       </use>
               </g>
        </defs>

<script type="text/javascript">
var viewWidth = 605;
var viewHeight = 332;
var sectionId = 'dynsection-72';
</script>
<script xlink:href="svgpan.js"/>
<svg id="graph" class="graph">
<g id="viewport">
<title>js_os_setReadHandler</title>
<!-- Node15599 -->
<g id="node1" class="node">
<title>Node15599</title>
<polygon fill="#bfbfbf" stroke="#000000" points="0,-152.5 0,-171.5 116,-171.5 116,-152.5 0,-152.5"/>
<text text-anchor="middle" x="58" y="-159.5" font-family="Helvetica,sans-Serif" font-size="10.00" fill="#000000">js_os_setReadHandler</text>
</g>
<!-- Node15600 -->
<g id="node2" class="node">
<title>Node15600</title>
<g id="a_node2"><a xlink:href="quickjs-libc_8c.html#ae3b6cfd603ef9fac219655046514a6ba" target="_top" xlink:title="find_rh">
<polygon fill="none" stroke="#000000" points="172,-304.5 172,-323.5 218,-323.5 218,-304.5 172,-304.5"/>
<text text-anchor="middle" x="195" y="-311.5" font-family="Helvetica,sans-Serif" font-size="10.00" fill="#000000">find_rh</text>
</a>
</g>
</g>
<!-- Node15599&#45;&gt;Node15600 -->
<g id="edge1" class="edge">
<title>Node15599&#45;&gt;Node15600</title>
<path fill="none" stroke="#191970" d="M62.5341,-171.7118C74.174,-195.7037 107.3598,-258.4707 152,-295 155.2687,-297.6748 158.973,-300.0446 162.8033,-302.1234"/>
<polygon fill="#191970" stroke="#191970" points="161.2935,-305.281 171.8234,-306.4525 164.3223,-298.9702 161.2935,-305.281"/>
</g>
<!-- Node15601 -->
<g id="node3" class="node">
<title>Node15601</title>
<g id="a_node3"><a xlink:href="quickjs-libc_8c.html#aab7fd6a31fdf4057b761f08b15a38fed" target="_top" xlink:title="free_rw_handler">
<polygon fill="none" stroke="#000000" points="152,-266.5 152,-285.5 238,-285.5 238,-266.5 152,-266.5"/>
<text text-anchor="middle" x="195" y="-273.5" font-family="Helvetica,sans-Serif" font-size="10.00" fill="#000000">free_rw_handler</text>
</a>
</g>
</g>
<!-- Node15599&#45;&gt;Node15601 -->
<g id="edge2" class="edge">
<title>Node15599&#45;&gt;Node15601</title>
<path fill="none" stroke="#191970" d="M66.3903,-171.5002C82.0499,-188.878 117.2933,-226.3548 152,-252 156.5553,-255.366 161.6326,-258.5971 166.6568,-261.5378"/>
<polygon fill="#191970" stroke="#191970" points="165.0807,-264.6663 175.5185,-266.4836 168.4922,-258.5538 165.0807,-264.6663"/>
</g>
<!-- Node15638 -->
<g id="node8" class="node">
<title>Node15638</title>
<g id="a_node8"><a xlink:href="quickjs_8h.html#a775522f2d084fc8fa0fcb33f390006b4" target="_top" xlink:title="JS_DupValue">
<polygon fill="none" stroke="#000000" points="281.5,-133.5 281.5,-152.5 358.5,-152.5 358.5,-133.5 281.5,-133.5"/>
<text text-anchor="middle" x="320" y="-140.5" font-family="Helvetica,sans-Serif" font-size="10.00" fill="#000000">JS_DupValue</text>
</a>
</g>
</g>
<!-- Node15599&#45;&gt;Node15638 -->
<g id="edge8" class="edge">
<title>Node15599&#45;&gt;Node15638</title>
<path fill="none" stroke="#191970" d="M69.187,-171.6431C85.8833,-185.3293 118.9144,-209.7524 152,-219 188.8113,-229.289 202.4161,-232.9542 238,-219 267.6611,-207.3684 292.9969,-179.4086 307.3601,-160.8409"/>
<polygon fill="#191970" stroke="#191970" points="310.3363,-162.7043 313.5006,-152.593 304.7215,-158.5241 310.3363,-162.7043"/>
</g>
<!-- Node15623 -->
<g id="node9" class="node">
<title>Node15623</title>
<g id="a_node9"><a xlink:href="quickjs_8h.html#afaa20c47565bc704c6c85f3d77254e7d" target="_top" xlink:title="JS_FreeValue">
<polygon fill="none" stroke="#ff0000" points="156,-190.5 156,-209.5 234,-209.5 234,-190.5 156,-190.5"/>
<text text-anchor="middle" x="195" y="-197.5" font-family="Helvetica,sans-Serif" font-size="10.00" fill="#000000">JS_FreeValue</text>
</a>
</g>
</g>
<!-- Node15599&#45;&gt;Node15623 -->
<g id="edge9" class="edge">
<title>Node15599&#45;&gt;Node15623</title>
<path fill="none" stroke="#191970" d="M92.5709,-171.589C110.1752,-176.4719 131.7793,-182.4643 150.601,-187.685"/>
<polygon fill="#191970" stroke="#191970" points="149.8685,-191.1138 160.4402,-190.4141 151.7395,-184.3685 149.8685,-191.1138"/>
</g>
<!-- Node15639 -->
<g id="node10" class="node">
<title>Node15639</title>
<g id="a_node10"><a xlink:href="quickjs_8c.html#af1866c7f8a91153f11602a2b521d9399" target="_top" xlink:title="JS_GetRuntime">
<polygon fill="none" stroke="#000000" points="152,-152.5 152,-171.5 238,-171.5 238,-152.5 152,-152.5"/>
<text text-anchor="middle" x="195" y="-159.5" font-family="Helvetica,sans-Serif" font-size="10.00" fill="#000000">JS_GetRuntime</text>
</a>
</g>
</g>
<!-- Node15599&#45;&gt;Node15639 -->
<g id="edge10" class="edge">
<title>Node15599&#45;&gt;Node15639</title>
<path fill="none" stroke="#191970" d="M116.1003,-162C124.6033,-162 133.3252,-162 141.7254,-162"/>
<polygon fill="#191970" stroke="#191970" points="141.7758,-165.5001 151.7758,-162 141.7757,-158.5001 141.7758,-165.5001"/>
</g>
<!-- Node15640 -->
<g id="node11" class="node">
<title>Node15640</title>
<g id="a_node11"><a xlink:href="quickjs_8c.html#a1ca9cdb1fa2ffc3e6506e92b200e490f" target="_top" xlink:title="JS_IsFunction">
<polygon fill="none" stroke="#000000" points="155,-114.5 155,-133.5 235,-133.5 235,-114.5 155,-114.5"/>
<text text-anchor="middle" x="195" y="-121.5" font-family="Helvetica,sans-Serif" font-size="10.00" fill="#000000">JS_IsFunction</text>
</a>
</g>
</g>
<!-- Node15599&#45;&gt;Node15640 -->
<g id="edge11" class="edge">
<title>Node15599&#45;&gt;Node15640</title>
<path fill="none" stroke="#191970" d="M92.5709,-152.411C110.1752,-147.5281 131.7793,-141.5357 150.601,-136.315"/>
<polygon fill="#191970" stroke="#191970" points="151.7395,-139.6315 160.4402,-133.5859 149.8685,-132.8862 151.7395,-139.6315"/>
</g>
<!-- Node15641 -->
<g id="node12" class="node">
<title>Node15641</title>
<g id="a_node12"><a xlink:href="quickjs_8h.html#a149f24b67e745bad93573b3b4c80db4c" target="_top" xlink:title="JS_IsNull">
<polygon fill="none" stroke="#000000" points="165.5,-76.5 165.5,-95.5 224.5,-95.5 224.5,-76.5 165.5,-76.5"/>
<text text-anchor="middle" x="195" y="-83.5" font-family="Helvetica,sans-Serif" font-size="10.00" fill="#000000">JS_IsNull</text>
</a>
</g>
</g>
<!-- Node15599&#45;&gt;Node15641 -->
<g id="edge12" class="edge">
<title>Node15599&#45;&gt;Node15641</title>
<path fill="none" stroke="#191970" d="M72.6362,-152.311C90.8414,-140.4514 123.0608,-120.0875 152,-105 155.3833,-103.2361 158.965,-101.4828 162.5596,-99.7951"/>
<polygon fill="#191970" stroke="#191970" points="164.3199,-102.8397 171.9782,-95.5184 161.4258,-96.466 164.3199,-102.8397"/>
</g>
<!-- Node15642 -->
<g id="node13" class="node">
<title>Node15642</title>
<g id="a_node13"><a xlink:href="quickjs_8c.html#a4073bd2b4f247bf6077cd956759193b9" target="_top" xlink:title="JS_ToInt32">
<polygon fill="none" stroke="#000000" points="161.5,-38.5 161.5,-57.5 228.5,-57.5 228.5,-38.5 161.5,-38.5"/>
<text text-anchor="middle" x="195" y="-45.5" font-family="Helvetica,sans-Serif" font-size="10.00" fill="#000000">JS_ToInt32</text>
</a>
</g>
</g>
<!-- Node15599&#45;&gt;Node15642 -->
<g id="edge13" class="edge">
<title>Node15599&#45;&gt;Node15642</title>
<path fill="none" stroke="#191970" d="M65.348,-152.4768C80.0647,-133.9281 114.9357,-92.5412 152,-67 154.5391,-65.2503 157.2653,-63.6032 160.068,-62.0666"/>
<polygon fill="#191970" stroke="#191970" points="161.7558,-65.1361 169.1459,-57.5442 158.6344,-58.8706 161.7558,-65.1361"/>
</g>
<!-- Node15633 -->
<g id="node17" class="node">
<title>Node15633</title>
<g id="a_node17"><a xlink:href="list_8h.html#a3a5d0733570b2fafc18f4c71a2968ea5" target="_top" xlink:title="list_add_tail">
<polygon fill="none" stroke="#ff0000" points="161,-.5 161,-19.5 229,-19.5 229,-.5 161,-.5"/>
<text text-anchor="middle" x="195" y="-7.5" font-family="Helvetica,sans-Serif" font-size="10.00" fill="#000000">list_add_tail</text>
</a>
</g>
</g>
<!-- Node15599&#45;&gt;Node15633 -->
<g id="edge18" class="edge">
<title>Node15599&#45;&gt;Node15633</title>
<path fill="none" stroke="#191970" d="M62.5341,-152.2882C74.174,-128.2963 107.3598,-65.5293 152,-29 153.9896,-27.3719 156.1407,-25.8567 158.3833,-24.4514"/>
<polygon fill="#191970" stroke="#191970" points="160.2343,-27.4287 167.339,-19.5691 156.8836,-21.2827 160.2343,-27.4287"/>
</g>
<!-- Node15602 -->
<g id="node4" class="node">
<title>Node15602</title>
<g id="a_node4"><a xlink:href="quickjs_8c.html#a69e19dda8a93d613203e0baa06f0ed8d" target="_top" xlink:title="js_free_rt">
<polygon fill="none" stroke="#000000" points="540,-285.5 540,-304.5 597,-304.5 597,-285.5 540,-285.5"/>
<text text-anchor="middle" x="568.5" y="-292.5" font-family="Helvetica,sans-Serif" font-size="10.00" fill="#000000">js_free_rt</text>
</a>
</g>
</g>
<!-- Node15601&#45;&gt;Node15602 -->
<g id="edge3" class="edge">
<title>Node15601&#45;&gt;Node15602</title>
<path fill="none" stroke="#191970" d="M226.9751,-285.5063C241.2285,-289.2706 258.3108,-293.1398 274,-295 365.1046,-305.8016 473.1797,-301.4611 529.6767,-297.8986"/>
<polygon fill="#191970" stroke="#191970" points="530.1904,-301.3724 539.9392,-297.2237 529.731,-294.3875 530.1904,-301.3724"/>
</g>
<!-- Node15603 -->
<g id="node5" class="node">
<title>Node15603</title>
<g id="a_node5"><a xlink:href="quickjs_8h.html#ab8db583fa5e7c2b1935854a42859daed" target="_top" xlink:title="JS_FreeValueRT">
<polygon fill="none" stroke="#000000" points="274,-266.5 274,-285.5 366,-285.5 366,-266.5 274,-266.5"/>
<text text-anchor="middle" x="320" y="-273.5" font-family="Helvetica,sans-Serif" font-size="10.00" fill="#000000">JS_FreeValueRT</text>
</a>
</g>
</g>
<!-- Node15601&#45;&gt;Node15603 -->
<g id="edge4" class="edge">
<title>Node15601&#45;&gt;Node15603</title>
<path fill="none" stroke="#191970" d="M238.0179,-276C246.3424,-276 255.1792,-276 263.8512,-276"/>
<polygon fill="#191970" stroke="#191970" points="263.9151,-279.5001 273.9151,-276 263.9151,-272.5001 263.9151,-279.5001"/>
</g>
<!-- Node15614 -->
<g id="node7" class="node">
<title>Node15614</title>
<g id="a_node7"><a xlink:href="list_8h.html#ab60d5d18869ebeb5d6ab694289576fa7" target="_top" xlink:title="list_del">
<polygon fill="none" stroke="#000000" points="296.5,-228.5 296.5,-247.5 343.5,-247.5 343.5,-228.5 296.5,-228.5"/>
<text text-anchor="middle" x="320" y="-235.5" font-family="Helvetica,sans-Serif" font-size="10.00" fill="#000000">list_del</text>
</a>
</g>
</g>
<!-- Node15601&#45;&gt;Node15614 -->
<g id="edge7" class="edge">
<title>Node15601&#45;&gt;Node15614</title>
<path fill="none" stroke="#191970" d="M226.5428,-266.411C244.9347,-260.8198 268.1115,-253.7741 286.7832,-248.0979"/>
<polygon fill="#191970" stroke="#191970" points="287.8102,-251.4439 296.3599,-245.1866 285.7742,-244.7466 287.8102,-251.4439"/>
</g>
<!-- Node15604 -->
<g id="node6" class="node">
<title>Node15604</title>
<g id="a_node6"><a xlink:href="quickjs_8c.html#ab1ea3fad7d138be12144a38be4d36423" target="_top" xlink:title="__JS_FreeValueRT">
<polygon fill="none" stroke="#ff0000" points="402,-266.5 402,-285.5 504,-285.5 504,-266.5 402,-266.5"/>
<text text-anchor="middle" x="453" y="-273.5" font-family="Helvetica,sans-Serif" font-size="10.00" fill="#000000">__JS_FreeValueRT</text>
</a>
</g>
</g>
<!-- Node15603&#45;&gt;Node15604 -->
<g id="edge5" class="edge">
<title>Node15603&#45;&gt;Node15604</title>
<path fill="none" stroke="#191970" d="M366.1437,-276C374.4482,-276 383.2214,-276 391.8726,-276"/>
<polygon fill="#191970" stroke="#191970" points="391.9369,-279.5001 401.9368,-276 391.9368,-272.5001 391.9369,-279.5001"/>
</g>
<!-- Node15604&#45;&gt;Node15602 -->
<g id="edge6" class="edge">
<title>Node15604&#45;&gt;Node15602</title>
<path fill="none" stroke="#191970" d="M504.3326,-284.4443C512.8898,-285.852 521.6372,-287.291 529.8109,-288.6356"/>
<polygon fill="#191970" stroke="#191970" points="529.3643,-292.1091 539.7999,-290.2788 530.5006,-285.2019 529.3643,-292.1091"/>
</g>
<!-- Node15642&#45;&gt;Node15638 -->
<g id="edge17" class="edge">
<title>Node15642&#45;&gt;Node15638</title>
<path fill="none" stroke="#191970" d="M220.2916,-57.5059C226.2999,-60.2114 232.5448,-63.4122 238,-67 263.6436,-83.8652 288.8933,-108.8918 304.452,-125.563"/>
<polygon fill="#191970" stroke="#191970" points="301.934,-127.9958 311.2707,-133.0035 307.0948,-123.2664 301.934,-127.9958"/>
</g>
<!-- Node15643 -->
<g id="node14" class="node">
<title>Node15643</title>
<g id="a_node14"><a xlink:href="quickjs_8c.html#a643088ab23784b7f3c6ff94c37228256" target="_top" xlink:title="JS_ToInt32Free">
<polygon fill="none" stroke="#000000" points="277,-38.5 277,-57.5 363,-57.5 363,-38.5 277,-38.5"/>
<text text-anchor="middle" x="320" y="-45.5" font-family="Helvetica,sans-Serif" font-size="10.00" fill="#000000">JS_ToInt32Free</text>
</a>
</g>
</g>
<!-- Node15642&#45;&gt;Node15643 -->
<g id="edge14" class="edge">
<title>Node15642&#45;&gt;Node15643</title>
<path fill="none" stroke="#191970" d="M228.8268,-48C240.4654,-48 253.7976,-48 266.6081,-48"/>
<polygon fill="#191970" stroke="#191970" points="266.7277,-51.5001 276.7277,-48 266.7277,-44.5001 266.7277,-51.5001"/>
</g>
<!-- Node15644 -->
<g id="node15" class="node">
<title>Node15644</title>
<g id="a_node15"><a xlink:href="quickjs_8c.html#ae738291483438efefca5c9fa4d269504" target="_top" xlink:title="JS_ToNumberFree">
<polygon fill="none" stroke="#ff0000" points="403.5,-57.5 403.5,-76.5 502.5,-76.5 502.5,-57.5 403.5,-57.5"/>
<text text-anchor="middle" x="453" y="-64.5" font-family="Helvetica,sans-Serif" font-size="10.00" fill="#000000">JS_ToNumberFree</text>
</a>
</g>
</g>
<!-- Node15643&#45;&gt;Node15644 -->
<g id="edge15" class="edge">
<title>Node15643&#45;&gt;Node15644</title>
<path fill="none" stroke="#191970" d="M363.1813,-54.1688C372.7384,-55.5341 383.0312,-57.0045 393.1188,-58.4455"/>
<polygon fill="#191970" stroke="#191970" points="392.7087,-61.9224 403.1032,-59.8719 393.6987,-54.9928 392.7087,-61.9224"/>
</g>
<!-- Node15687 -->
<g id="node16" class="node">
<title>Node15687</title>
<g id="a_node16"><a xlink:href="quickjs_8h.html#ad80a83d73e9b7d872b88fbf2943aebe9" target="_top" xlink:title="JS_IsException">
<polygon fill="none" stroke="#000000" points="410,-19.5 410,-38.5 496,-38.5 496,-19.5 410,-19.5"/>
<text text-anchor="middle" x="453" y="-26.5" font-family="Helvetica,sans-Serif" font-size="10.00" fill="#000000">JS_IsException</text>
</a>
</g>
</g>
<!-- Node15643&#45;&gt;Node15687 -->
<g id="edge16" class="edge">
<title>Node15643&#45;&gt;Node15687</title>
<path fill="none" stroke="#191970" d="M363.1813,-41.8312C374.7958,-40.172 387.4969,-38.3576 399.5959,-36.6292"/>
<polygon fill="#191970" stroke="#191970" points="400.1758,-40.0819 409.5802,-35.2028 399.1857,-33.1523 400.1758,-40.0819"/>
</g>
</g>
</svg>
        <g id="navigator" transform="translate(0 0)" fill="#404254">
                <rect fill="#f2f5e9" fill-opacity="0.5" stroke="#606060" stroke-width=".5" x="0" y="0" width="60" height="60"/>
                <use id="zoomplus" xlink:href="#zoomPlus" x="17" y="9" onmousedown="handleZoom(evt,'in')"/>
                <use id="zoomminus" xlink:href="#zoomMin" x="42" y="9" onmousedown="handleZoom(evt,'out')"/>
                <use id="reset" xlink:href="#resetDef" x="30" y="36" onmousedown="handleReset()"/>
                <g id="arrowUp" xlink:href="#dirArrow" transform="translate(30 24)" onmousedown="handlePan(0,-1)">
                  <use xlink:href="#rim" fill="#404040">
                        <set attributeName="fill" to="#808080" begin="arrowUp.mouseover" end="arrowUp.mouseout"/>
                  </use>
                  <path fill="none" stroke="white" stroke-width="1.5" d="M0,-3.0v7 M-2.5,-0.5L0,-3.0L2.5,-0.5"/>
                </g>
                <g id="arrowRight" xlink:href="#dirArrow" transform="rotate(90) translate(36 -43)" onmousedown="handlePan(1,0)">
                  <use xlink:href="#rim" fill="#404040">
                        <set attributeName="fill" to="#808080" begin="arrowRight.mouseover" end="arrowRight.mouseout"/>
                  </use>
                  <path fill="none" stroke="white" stroke-width="1.5" d="M0,-3.0v7 M-2.5,-0.5L0,-3.0L2.5,-0.5"/>
                </g>
                <g id="arrowDown" xlink:href="#dirArrow" transform="rotate(180) translate(-30 -48)" onmousedown="handlePan(0,1)">
                  <use xlink:href="#rim" fill="#404040">
                        <set attributeName="fill" to="#808080" begin="arrowDown.mouseover" end="arrowDown.mouseout"/>
                  </use>
                  <path fill="none" stroke="white" stroke-width="1.5" d="M0,-3.0v7 M-2.5,-0.5L0,-3.0L2.5,-0.5"/>
                </g>
                <g id="arrowLeft" xlink:href="#dirArrow" transform="rotate(270) translate(-36 17)" onmousedown="handlePan(-1,0)">
                  <use xlink:href="#rim" fill="#404040">
                        <set attributeName="fill" to="#808080" begin="arrowLeft.mouseover" end="arrowLeft.mouseout"/>
                  </use>
                  <path fill="none" stroke="white" stroke-width="1.5" d="M0,-3.0v7 M-2.5,-0.5L0,-3.0L2.5,-0.5"/>
                </g>
        </g>
        <svg viewBox="0 0 15 15" width="100%" height="30px" preserveAspectRatio="xMaxYMin meet">
         <g id="arrow_out" transform="scale(0.3 0.3)">
          <a xlink:href="quickjs-libc_8c_a786f04aebbd56e14572bc82c0920be2c_cgraph_org.svg" target="_base">
           <rect id="button" ry="5" rx="5" y="6" x="6" height="38" width="38"
                fill="#f2f5e9" fill-opacity="0.5" stroke="#606060" stroke-width="1.0"/>
           <path id="arrow"
             d="M 11.500037,31.436501 C 11.940474,20.09759 22.043105,11.32322 32.158766,21.979434 L 37.068811,17.246167 C 37.068811,17.246167 37.088388,32 37.088388,32 L 22.160133,31.978069 C 22.160133,31.978069 26.997745,27.140456 26.997745,27.140456 C 18.528582,18.264221 13.291696,25.230495 11.500037,31.436501 z"
             style="fill:#404040;"/>
          </a>
         </g>
        </svg>
</svg>
