<?xml version="1.0" encoding="UTF-8" standalone="no"?>
<!DOCTYPE svg PUBLIC "-//W3C//DTD SVG 1.1//EN"
 "http://www.w3.org/Graphics/SVG/1.1/DTD/svg11.dtd">
<!-- Generated by graphviz version 2.40.1 (20161225.0304)
 -->
<!-- Title: js_strict_eq2 Pages: 1 -->
<!--zoomable 780 -->
<svg id="main" version="1.1" xmlns="http://www.w3.org/2000/svg" xmlns:xlink="http://www.w3.org/1999/xlink" xml:space="preserve" onload="init(evt)">
<style type="text/css"><![CDATA[
.edge:hover path { stroke: red; }
.edge:hover polygon { stroke: red; fill: red; }
]]></style>
<script type="text/javascript"><![CDATA[
var edges = document.getElementsByTagName('g');
if (edges && edges.length) {
  for (var i=0;i<edges.length;i++) {
    if (edges[i].id.substr(0,4)=='edge') {
      edges[i].setAttribute('class','edge');
    }
  }
}
]]></script>
        <defs>
                <circle id="rim" cx="0" cy="0" r="7"/>
                <circle id="rim2" cx="0" cy="0" r="3.5"/>
                <g id="zoomPlus">
                        <use xlink:href="#rim" fill="#404040">
                                <set attributeName="fill" to="#808080" begin="zoomplus.mouseover" end="zoomplus.mouseout"/>
                        </use>
                        <path d="M-4,0h8M0,-4v8" fill="none" stroke="white" stroke-width="1.5" pointer-events="none"/>
                </g>
                <g id="zoomMin">
                        <use xlink:href="#rim" fill="#404040">
                                <set attributeName="fill" to="#808080" begin="zoomminus.mouseover" end="zoomminus.mouseout"/>
                        </use>
                        <path d="M-4,0h8" fill="none" stroke="white" stroke-width="1.5" pointer-events="none"/>
                </g>
                <g id="dirArrow">
                        <path fill="none" stroke="white" stroke-width="1.5" d="M0,-3.0v7 M-2.5,-0.5L0,-3.0L2.5,-0.5"/>
                </g>
               <g id="resetDef">
                       <use xlink:href="#rim2" fill="#404040">
                               <set attributeName="fill" to="#808080" begin="reset.mouseover" end="reset.mouseout"/>
                       </use>
               </g>
        </defs>

<script type="text/javascript">
var viewWidth = 678;
var viewHeight = 780;
var sectionId = 'dynsection-26';
</script>
<script xlink:href="svgpan.js"/>
<svg id="graph" class="graph">
<g id="viewport">
<title>js_strict_eq2</title>
<!-- Node8721 -->
<g id="node1" class="node">
<title>Node8721</title>
<polygon fill="#bfbfbf" stroke="#000000" points="0,-380.5 0,-399.5 72,-399.5 72,-380.5 0,-380.5"/>
<text text-anchor="middle" x="36" y="-387.5" font-family="Helvetica,sans-Serif" font-size="10.00" fill="#000000">js_strict_eq2</text>
</g>
<!-- Node8722 -->
<g id="node2" class="node">
<title>Node8722</title>
<g id="a_node2"><a xlink:href="quickjs_8c.html#a2ef89587b2e4287d4bd0417788c8e21e" target="_top" xlink:title="js_array_includes">
<polygon fill="none" stroke="#000000" points="122.5,-696.5 122.5,-715.5 214.5,-715.5 214.5,-696.5 122.5,-696.5"/>
<text text-anchor="middle" x="168.5" y="-703.5" font-family="Helvetica,sans-Serif" font-size="10.00" fill="#000000">js_array_includes</text>
</a>
</g>
</g>
<!-- Node8721&#45;&gt;Node8722 -->
<g id="edge1" class="edge">
<title>Node8721&#45;&gt;Node8722</title>
<path fill="none" stroke="#191970" d="M44.0695,-409.2449C69.2676,-469.3402 145.9117,-652.1289 164.4372,-696.3106"/>
<polygon fill="#191970" stroke="#191970" points="47.2054,-407.6725 40.1108,-399.8038 40.7499,-410.3793 47.2054,-407.6725"/>
</g>
<!-- Node8726 -->
<g id="node5" class="node">
<title>Node8726</title>
<g id="a_node5"><a xlink:href="quickjs_8c.html#af4bd013e63a5d5d55e4d4700d80de12e" target="_top" xlink:title="js_array_indexOf">
<polygon fill="none" stroke="#000000" points="123.5,-456.5 123.5,-475.5 213.5,-475.5 213.5,-456.5 123.5,-456.5"/>
<text text-anchor="middle" x="168.5" y="-463.5" font-family="Helvetica,sans-Serif" font-size="10.00" fill="#000000">js_array_indexOf</text>
</a>
</g>
</g>
<!-- Node8721&#45;&gt;Node8726 -->
<g id="edge6" class="edge">
<title>Node8721&#45;&gt;Node8726</title>
<path fill="none" stroke="#191970" d="M53.218,-406.6366C67.0572,-419.2272 87.5061,-436.1485 108,-447 115.0052,-450.7093 122.8557,-453.835 130.5218,-456.412"/>
<polygon fill="#191970" stroke="#191970" points="55.5855,-404.0587 45.8831,-399.8025 50.8137,-409.1802 55.5855,-404.0587"/>
</g>
<!-- Node8727 -->
<g id="node6" class="node">
<title>Node8727</title>
<g id="a_node6"><a xlink:href="quickjs_8c.html#acb566d2d7d0ce8fed7bb7f73d3baa508" target="_top" xlink:title="js_array_lastIndexOf">
<polygon fill="none" stroke="#000000" points="115,-418.5 115,-437.5 222,-437.5 222,-418.5 115,-418.5"/>
<text text-anchor="middle" x="168.5" y="-425.5" font-family="Helvetica,sans-Serif" font-size="10.00" fill="#000000">js_array_lastIndexOf</text>
</a>
</g>
</g>
<!-- Node8721&#45;&gt;Node8727 -->
<g id="edge7" class="edge">
<title>Node8721&#45;&gt;Node8727</title>
<path fill="none" stroke="#191970" d="M79.2039,-402.3906C97.3492,-407.5945 118.1294,-413.5541 135.0754,-418.4141"/>
<polygon fill="#191970" stroke="#191970" points="80.0127,-398.9815 69.4353,-399.589 78.0829,-405.7102 80.0127,-398.9815"/>
</g>
<!-- Node8728 -->
<g id="node7" class="node">
<title>Node8728</title>
<g id="a_node7"><a xlink:href="quickjs_8c.html#a04be55d1144f71bce472514bd31f0796" target="_top" xlink:title="js_object_isPrototypeOf">
<polygon fill="none" stroke="#000000" points="108,-380.5 108,-399.5 229,-399.5 229,-380.5 108,-380.5"/>
<text text-anchor="middle" x="168.5" y="-387.5" font-family="Helvetica,sans-Serif" font-size="10.00" fill="#000000">js_object_isPrototypeOf</text>
</a>
</g>
</g>
<!-- Node8721&#45;&gt;Node8728 -->
<g id="edge8" class="edge">
<title>Node8721&#45;&gt;Node8728</title>
<path fill="none" stroke="#191970" d="M82.3624,-390C90.6061,-390 99.3026,-390 107.8726,-390"/>
<polygon fill="#191970" stroke="#191970" points="82.2062,-386.5001 72.2062,-390 82.2062,-393.5001 82.2062,-386.5001"/>
</g>
<!-- Node8729 -->
<g id="node8" class="node">
<title>Node8729</title>
<g id="a_node8"><a xlink:href="quickjs_8c.html#a24be89a128d1cd7c0908604815b2b854" target="_top" xlink:title="js_same_value">
<polygon fill="none" stroke="#000000" points="127.5,-342.5 127.5,-361.5 209.5,-361.5 209.5,-342.5 127.5,-342.5"/>
<text text-anchor="middle" x="168.5" y="-349.5" font-family="Helvetica,sans-Serif" font-size="10.00" fill="#000000">js_same_value</text>
</a>
</g>
</g>
<!-- Node8721&#45;&gt;Node8729 -->
<g id="edge9" class="edge">
<title>Node8721&#45;&gt;Node8729</title>
<path fill="none" stroke="#191970" d="M79.2039,-377.6094C97.3492,-372.4055 118.1294,-366.4459 135.0754,-361.5859"/>
<polygon fill="#191970" stroke="#191970" points="78.0829,-374.2898 69.4353,-380.411 80.0127,-381.0185 78.0829,-374.2898"/>
</g>
<!-- Node9311 -->
<g id="node26" class="node">
<title>Node9311</title>
<g id="a_node26"><a xlink:href="quickjs_8c.html#a28a2815f15eb2c3477a05e9c7e4394b8" target="_top" xlink:title="js_same_value_zero">
<polygon fill="none" stroke="#000000" points="115.5,-238.5 115.5,-257.5 221.5,-257.5 221.5,-238.5 115.5,-238.5"/>
<text text-anchor="middle" x="168.5" y="-245.5" font-family="Helvetica,sans-Serif" font-size="10.00" fill="#000000">js_same_value_zero</text>
</a>
</g>
</g>
<!-- Node8721&#45;&gt;Node9311 -->
<g id="edge32" class="edge">
<title>Node8721&#45;&gt;Node9311</title>
<path fill="none" stroke="#191970" d="M52.2153,-372.6221C80.3054,-342.518 137.137,-281.6116 159.329,-257.8285"/>
<polygon fill="#191970" stroke="#191970" points="49.3706,-370.5405 45.1073,-380.2398 54.4886,-375.3161 49.3706,-370.5405"/>
</g>
<!-- Node9313 -->
<g id="node28" class="node">
<title>Node9313</title>
<g id="a_node28"><a xlink:href="quickjs_8c.html#a2c7ed6633056510dfefd7919259f189d" target="_top" xlink:title="js_strict_eq">
<polygon fill="none" stroke="#000000" points="297,-.5 297,-19.5 364,-19.5 364,-.5 297,-.5"/>
<text text-anchor="middle" x="330.5" y="-7.5" font-family="Helvetica,sans-Serif" font-size="10.00" fill="#000000">js_strict_eq</text>
</a>
</g>
</g>
<!-- Node8721&#45;&gt;Node9313 -->
<g id="edge34" class="edge">
<title>Node8721&#45;&gt;Node9313</title>
<path fill="none" stroke="#191970" d="M42.9229,-370.5423C54.3564,-339.4894 78.8446,-277.3064 108,-229 166.3932,-132.2508 171.3389,-92.2279 265,-29 274.4209,-22.6402 285.9871,-18.3784 296.7648,-15.5354"/>
<polygon fill="#191970" stroke="#191970" points="39.5562,-369.56 39.4369,-380.1541 46.1367,-371.9466 39.5562,-369.56"/>
</g>
<!-- Node8723 -->
<g id="node3" class="node">
<title>Node8723</title>
<g id="a_node3"><a xlink:href="quickjs_8c.html#a60d84dd116a9d7d912d08f298a4734dd" target="_top" xlink:title="js_json_to_str">
<polygon fill="none" stroke="#000000" points="292,-734.5 292,-753.5 369,-753.5 369,-734.5 292,-734.5"/>
<text text-anchor="middle" x="330.5" y="-741.5" font-family="Helvetica,sans-Serif" font-size="10.00" fill="#000000">js_json_to_str</text>
</a>
</g>
</g>
<!-- Node8722&#45;&gt;Node8723 -->
<g id="edge2" class="edge">
<title>Node8722&#45;&gt;Node8723</title>
<path fill="none" stroke="#191970" d="M219.1694,-717.8854C242.646,-723.3923 270.0956,-729.8311 291.8642,-734.9373"/>
<polygon fill="#191970" stroke="#191970" points="219.9145,-714.4653 209.3794,-715.589 218.3159,-721.2803 219.9145,-714.4653"/>
</g>
<!-- Node8724 -->
<g id="node4" class="node">
<title>Node8724</title>
<g id="a_node4"><a xlink:href="quickjs_8c.html#a343a343b16bc3c9875050e99ee0d2884" target="_top" xlink:title="JS_JSONStringify">
<polygon fill="none" stroke="#ff0000" points="443,-715.5 443,-734.5 540,-734.5 540,-715.5 443,-715.5"/>
<text text-anchor="middle" x="491.5" y="-722.5" font-family="Helvetica,sans-Serif" font-size="10.00" fill="#000000">JS_JSONStringify</text>
</a>
</g>
</g>
<!-- Node8722&#45;&gt;Node8724 -->
<g id="edge5" class="edge">
<title>Node8722&#45;&gt;Node8724</title>
<path fill="none" stroke="#191970" d="M225.1139,-709.3302C286.836,-712.9609 384.5769,-718.7104 442.932,-722.1431"/>
<polygon fill="#191970" stroke="#191970" points="224.9663,-705.8156 214.778,-708.7222 224.5552,-712.8035 224.9663,-705.8156"/>
</g>
<!-- Node8723&#45;&gt;Node8723 -->
<g id="edge3" class="edge">
<title>Node8723&#45;&gt;Node8723</title>
<path fill="none" stroke="#191970" d="M300.5599,-762.2746C301.4135,-767.741 311.3936,-772 330.5,-772 358.9375,-772 367.1577,-762.5653 355.1606,-753.7571"/>
<polygon fill="#191970" stroke="#191970" points="303.5458,-764.1007 305.8394,-753.7571 297.596,-760.4128 303.5458,-764.1007"/>
</g>
<!-- Node8723&#45;&gt;Node8724 -->
<g id="edge4" class="edge">
<title>Node8723&#45;&gt;Node8724</title>
<path fill="none" stroke="#191970" d="M379.0006,-738.2763C399.2104,-735.8913 422.634,-733.127 442.8586,-730.7403"/>
<polygon fill="#191970" stroke="#191970" points="378.5844,-734.8011 369.0635,-739.449 379.4048,-741.7528 378.5844,-734.8011"/>
</g>
<!-- Node8730 -->
<g id="node9" class="node">
<title>Node8730</title>
<g id="a_node9"><a xlink:href="quickjs_8c.html#ab50618f1bf78e444caa6da0e3e2785d7" target="_top" xlink:title="JS_DefineProperty">
<polygon fill="none" stroke="#ff0000" points="281,-418.5 281,-437.5 380,-437.5 380,-418.5 281,-418.5"/>
<text text-anchor="middle" x="330.5" y="-425.5" font-family="Helvetica,sans-Serif" font-size="10.00" fill="#000000">JS_DefineProperty</text>
</a>
</g>
</g>
<!-- Node8729&#45;&gt;Node8730 -->
<g id="edge10" class="edge">
<title>Node8729&#45;&gt;Node8730</title>
<path fill="none" stroke="#191970" d="M217.2571,-365.2128C221.3287,-366.9411 225.2985,-368.8653 229,-371 247.8023,-381.8436 246.4572,-392.7183 265,-404 274.7256,-409.9172 286.1401,-414.7248 296.6919,-418.4398"/>
<polygon fill="#191970" stroke="#191970" points="218.2403,-361.8413 207.6501,-361.5282 215.7336,-368.3771 218.2403,-361.8413"/>
</g>
<!-- Node8732 -->
<g id="node11" class="node">
<title>Node8732</title>
<g id="a_node11"><a xlink:href="quickjs_8c.html#ac2894ff4edcdb4e6841bcce9c76081e3" target="_top" xlink:title="JS_CallInternal">
<polygon fill="none" stroke="#ff0000" points="587,-333.5 587,-352.5 670,-352.5 670,-333.5 587,-333.5"/>
<text text-anchor="middle" x="628.5" y="-340.5" font-family="Helvetica,sans-Serif" font-size="10.00" fill="#000000">JS_CallInternal</text>
</a>
</g>
</g>
<!-- Node8729&#45;&gt;Node8732 -->
<g id="edge18" class="edge">
<title>Node8729&#45;&gt;Node8732</title>
<path fill="none" stroke="#191970" d="M217.8148,-363.6251C232.8711,-366.6553 249.535,-369.492 265,-371 322.9474,-376.6504 338.3112,-378.8635 396,-371 412.4537,-368.7572 415.6659,-363.9917 432,-361 484.9041,-351.3103 546.8244,-346.7356 586.804,-344.6464"/>
<polygon fill="#191970" stroke="#191970" points="218.1866,-360.1273 207.6825,-361.5102 216.7564,-366.9797 218.1866,-360.1273"/>
</g>
<!-- Node8924 -->
<g id="node12" class="node">
<title>Node8924</title>
<g id="a_node12"><a xlink:href="quickjs_8c.html#ad38b16d301e8f3661cf4c115c86511b3" target="_top" xlink:title="js_proxy_set">
<polygon fill="none" stroke="#000000" points="592.5,-453.5 592.5,-472.5 664.5,-472.5 664.5,-453.5 592.5,-453.5"/>
<text text-anchor="middle" x="628.5" y="-460.5" font-family="Helvetica,sans-Serif" font-size="10.00" fill="#000000">js_proxy_set</text>
</a>
</g>
</g>
<!-- Node8729&#45;&gt;Node8924 -->
<g id="edge27" class="edge">
<title>Node8729&#45;&gt;Node8924</title>
<path fill="none" stroke="#191970" d="M219.1141,-363.6518C222.7106,-365.715 226.0677,-368.1429 229,-371 264.3345,-405.4275 225.9099,-445.9045 265,-476 369.0757,-556.1279 543.9952,-497.4659 605.9311,-472.6507"/>
<polygon fill="#191970" stroke="#191970" points="220.3226,-360.3516 209.7864,-359.2379 217.3284,-366.679 220.3226,-360.3516"/>
</g>
<!-- Node8925 -->
<g id="node13" class="node">
<title>Node8925</title>
<g id="a_node13"><a xlink:href="quickjs_8c.html#a7e5b77a4851eee6f666581d051979392" target="_top" xlink:title="js_proxy_define_own\l_property">
<polygon fill="none" stroke="#000000" points="437.5,-448 437.5,-478 545.5,-478 545.5,-448 437.5,-448"/>
<text text-anchor="start" x="445.5" y="-466" font-family="Helvetica,sans-Serif" font-size="10.00" fill="#000000">js_proxy_define_own</text>
<text text-anchor="middle" x="491.5" y="-455" font-family="Helvetica,sans-Serif" font-size="10.00" fill="#000000">_property</text>
</a>
</g>
</g>
<!-- Node8729&#45;&gt;Node8925 -->
<g id="edge28" class="edge">
<title>Node8729&#45;&gt;Node8925</title>
<path fill="none" stroke="#191970" d="M218.9353,-364.1092C222.5468,-366.0714 225.9577,-368.3512 229,-371 257.1888,-395.5425 234.1414,-425.9124 265,-447 315.4482,-481.4744 387.8399,-480.0679 437.1091,-473.592"/>
<polygon fill="#191970" stroke="#191970" points="220.1899,-360.8344 209.6403,-359.8569 217.2778,-367.1999 220.1899,-360.8344"/>
</g>
<!-- Node8779 -->
<g id="node14" class="node">
<title>Node8779</title>
<g id="a_node14"><a xlink:href="quickjs_8c.html#afd4ef2d701fa0702f321925b61c57bbf" target="_top" xlink:title="js_call_bound_function">
<polygon fill="none" stroke="#ff0000" points="272.5,-342.5 272.5,-361.5 388.5,-361.5 388.5,-342.5 272.5,-342.5"/>
<text text-anchor="middle" x="330.5" y="-349.5" font-family="Helvetica,sans-Serif" font-size="10.00" fill="#000000">js_call_bound_function</text>
</a>
</g>
</g>
<!-- Node8729&#45;&gt;Node8779 -->
<g id="edge17" class="edge">
<title>Node8729&#45;&gt;Node8779</title>
<path fill="none" stroke="#191970" d="M219.9243,-352C236.6406,-352 255.3049,-352 272.4692,-352"/>
<polygon fill="#191970" stroke="#191970" points="219.7986,-348.5001 209.7986,-352 219.7986,-355.5001 219.7986,-348.5001"/>
</g>
<!-- Node9308 -->
<g id="node15" class="node">
<title>Node9308</title>
<g id="a_node15"><a xlink:href="quickjs_8c.html#a92da278473611d4f0b73382fe0db113b" target="_top" xlink:title="js_object_is">
<polygon fill="none" stroke="#000000" points="296.5,-304.5 296.5,-323.5 364.5,-323.5 364.5,-304.5 296.5,-304.5"/>
<text text-anchor="middle" x="330.5" y="-311.5" font-family="Helvetica,sans-Serif" font-size="10.00" fill="#000000">js_object_is</text>
</a>
</g>
</g>
<!-- Node8729&#45;&gt;Node9308 -->
<g id="edge19" class="edge">
<title>Node8729&#45;&gt;Node9308</title>
<path fill="none" stroke="#191970" d="M219.1345,-340.1228C244.3078,-334.2179 274.0563,-327.2399 296.4716,-321.982"/>
<polygon fill="#191970" stroke="#191970" points="218.3159,-336.7197 209.3794,-342.411 219.9145,-343.5347 218.3159,-336.7197"/>
</g>
<!-- Node8819 -->
<g id="node16" class="node">
<title>Node8819</title>
<g id="a_node16"><a xlink:href="quickjs_8c.html#a3b818b1ca9d2d4aaa9b55b1cc54c1bc4" target="_top" xlink:title="JS_ArraySpeciesCreate">
<polygon fill="none" stroke="#ff0000" points="269.5,-266.5 269.5,-285.5 391.5,-285.5 391.5,-266.5 269.5,-266.5"/>
<text text-anchor="middle" x="330.5" y="-273.5" font-family="Helvetica,sans-Serif" font-size="10.00" fill="#000000">JS_ArraySpeciesCreate</text>
</a>
</g>
</g>
<!-- Node8729&#45;&gt;Node8819 -->
<g id="edge20" class="edge">
<title>Node8729&#45;&gt;Node8819</title>
<path fill="none" stroke="#191970" d="M190.8316,-336.6127C209.8607,-324.0482 238.292,-306.5425 265,-295 273.3689,-291.3832 282.6291,-288.2232 291.4874,-285.5724"/>
<polygon fill="#191970" stroke="#191970" points="188.6514,-333.8605 182.294,-342.336 192.5492,-339.6749 188.6514,-333.8605"/>
</g>
<!-- Node9133 -->
<g id="node17" class="node">
<title>Node9133</title>
<g id="a_node17"><a xlink:href="quickjs_8c.html#a233052710c228313122c39c231a23ddf" target="_top" xlink:title="js_regexp_constructor">
<polygon fill="none" stroke="#ff0000" points="274,-228.5 274,-247.5 387,-247.5 387,-228.5 274,-228.5"/>
<text text-anchor="middle" x="330.5" y="-235.5" font-family="Helvetica,sans-Serif" font-size="10.00" fill="#000000">js_regexp_constructor</text>
</a>
</g>
</g>
<!-- Node8729&#45;&gt;Node9133 -->
<g id="edge21" class="edge">
<title>Node8729&#45;&gt;Node9133</title>
<path fill="none" stroke="#191970" d="M181.7636,-334.4009C198.767,-313.0428 230.2345,-277.3672 265,-257 271.5384,-253.1695 278.9013,-250.0668 286.2679,-247.5673"/>
<polygon fill="#191970" stroke="#191970" points="178.9678,-332.2946 175.5885,-342.336 184.4922,-336.5936 178.9678,-332.2946"/>
</g>
<!-- Node9309 -->
<g id="node18" class="node">
<title>Node9309</title>
<g id="a_node18"><a xlink:href="quickjs_8c.html#a32ee6be61757664e4eea552e5508ad6e" target="_top" xlink:title="js_regexp_get_source">
<polygon fill="none" stroke="#000000" points="274.5,-190.5 274.5,-209.5 386.5,-209.5 386.5,-190.5 274.5,-190.5"/>
<text text-anchor="middle" x="330.5" y="-197.5" font-family="Helvetica,sans-Serif" font-size="10.00" fill="#000000">js_regexp_get_source</text>
</a>
</g>
</g>
<!-- Node8729&#45;&gt;Node9309 -->
<g id="edge22" class="edge">
<title>Node8729&#45;&gt;Node9309</title>
<path fill="none" stroke="#191970" d="M181.306,-334.0354C206.8913,-298.1865 262.1358,-221.0135 265,-219 270.5212,-215.1187 276.831,-212.0238 283.3044,-209.5576"/>
<polygon fill="#191970" stroke="#191970" points="178.4482,-332.0147 175.4902,-342.1882 184.1469,-336.0798 178.4482,-332.0147"/>
</g>
<!-- Node9310 -->
<g id="node19" class="node">
<title>Node9310</title>
<g id="a_node19"><a xlink:href="quickjs_8c.html#a84549917900dae51c15ad8f1bb92d8ea" target="_top" xlink:title="js_regexp_get_flag">
<polygon fill="none" stroke="#000000" points="281.5,-152.5 281.5,-171.5 379.5,-171.5 379.5,-152.5 281.5,-152.5"/>
<text text-anchor="middle" x="330.5" y="-159.5" font-family="Helvetica,sans-Serif" font-size="10.00" fill="#000000">js_regexp_get_flag</text>
</a>
</g>
</g>
<!-- Node8729&#45;&gt;Node9310 -->
<g id="edge23" class="edge">
<title>Node8729&#45;&gt;Node9310</title>
<path fill="none" stroke="#191970" d="M183.0999,-334.0135C196.2024,-317.3224 215.4075,-291.4429 229,-267 249.138,-230.7867 234.0772,-208.5811 265,-181 269.7715,-176.7441 275.4445,-173.4383 281.4262,-170.871"/>
<polygon fill="#191970" stroke="#191970" points="180.0139,-332.2703 176.523,-342.2736 185.4901,-336.6306 180.0139,-332.2703"/>
</g>
<!-- Node8852 -->
<g id="node20" class="node">
<title>Node8852</title>
<g id="a_node20"><a xlink:href="quickjs_8c.html#a55de0909f8b4c06625f67b2fdb670279" target="_top" xlink:title="js_is_standard_regexp">
<polygon fill="none" stroke="#ff0000" points="273.5,-114.5 273.5,-133.5 387.5,-133.5 387.5,-114.5 273.5,-114.5"/>
<text text-anchor="middle" x="330.5" y="-121.5" font-family="Helvetica,sans-Serif" font-size="10.00" fill="#000000">js_is_standard_regexp</text>
</a>
</g>
</g>
<!-- Node8729&#45;&gt;Node8852 -->
<g id="edge24" class="edge">
<title>Node8729&#45;&gt;Node8852</title>
<path fill="none" stroke="#191970" d="M183.3925,-334.815C196.9623,-318.3814 216.7078,-292.4099 229,-267 253.9905,-215.3405 224.4169,-183.5739 265,-143 268.8517,-139.1492 273.4341,-136.0687 278.3601,-133.6062"/>
<polygon fill="#191970" stroke="#191970" points="180.6968,-332.5825 176.9316,-342.4858 186.0507,-337.0921 180.6968,-332.5825"/>
</g>
<!-- Node8851 -->
<g id="node21" class="node">
<title>Node8851</title>
<g id="a_node21"><a xlink:href="quickjs_8c.html#af315d0f35b4b11e5957b904c98bf1c0d" target="_top" xlink:title="js_regexp_Symbol_search">
<polygon fill="none" stroke="#000000" points="265,-76.5 265,-95.5 396,-95.5 396,-76.5 265,-76.5"/>
<text text-anchor="middle" x="330.5" y="-83.5" font-family="Helvetica,sans-Serif" font-size="10.00" fill="#000000">js_regexp_Symbol_search</text>
</a>
</g>
</g>
<!-- Node8729&#45;&gt;Node8851 -->
<g id="edge25" class="edge">
<title>Node8729&#45;&gt;Node8851</title>
<path fill="none" stroke="#191970" d="M183.9955,-334.7211C197.8197,-318.3956 217.5883,-292.6486 229,-267 258.9822,-199.6126 214.5325,-158.7869 265,-105 268.6458,-101.1145 273.0337,-98.0078 277.7902,-95.5264"/>
<polygon fill="#191970" stroke="#191970" points="181.2888,-332.5001 177.3839,-342.3491 186.5784,-337.0849 181.2888,-332.5001"/>
</g>
<!-- Node8923 -->
<g id="node22" class="node">
<title>Node8923</title>
<g id="a_node22"><a xlink:href="quickjs_8c.html#a45df491949e8e055e732eb13c446d47b" target="_top" xlink:title="js_proxy_get">
<polygon fill="none" stroke="#000000" points="294.5,-658.5 294.5,-677.5 366.5,-677.5 366.5,-658.5 294.5,-658.5"/>
<text text-anchor="middle" x="330.5" y="-665.5" font-family="Helvetica,sans-Serif" font-size="10.00" fill="#000000">js_proxy_get</text>
</a>
</g>
</g>
<!-- Node8729&#45;&gt;Node8923 -->
<g id="edge26" class="edge">
<title>Node8729&#45;&gt;Node8923</title>
<path fill="none" stroke="#191970" d="M219.0061,-362.5564C222.7597,-364.8498 226.1754,-367.6304 229,-371 309.0362,-466.4787 183.9199,-554.4062 265,-649 272.3973,-657.6302 283.4576,-662.4597 294.3933,-665.1253"/>
<polygon fill="#191970" stroke="#191970" points="220.2753,-359.2813 209.7533,-358.0412 217.2055,-365.5723 220.2753,-359.2813"/>
</g>
<!-- Node8807 -->
<g id="node23" class="node">
<title>Node8807</title>
<g id="a_node23"><a xlink:href="quickjs_8c.html#ac13d124ad5c7f1234cae3076077e782e" target="_top" xlink:title="js_promise_resolve\l_function_call">
<polygon fill="none" stroke="#ff0000" points="280,-609 280,-639 381,-639 381,-609 280,-609"/>
<text text-anchor="start" x="288" y="-627" font-family="Helvetica,sans-Serif" font-size="10.00" fill="#000000">js_promise_resolve</text>
<text text-anchor="middle" x="330.5" y="-616" font-family="Helvetica,sans-Serif" font-size="10.00" fill="#000000">_function_call</text>
</a>
</g>
</g>
<!-- Node8729&#45;&gt;Node8807 -->
<g id="edge29" class="edge">
<title>Node8729&#45;&gt;Node8807</title>
<path fill="none" stroke="#191970" d="M218.9065,-362.641C222.6811,-364.9167 226.1288,-367.6701 229,-371 295.9914,-448.6956 200.3819,-519.3197 265,-599 269.0633,-604.0105 274.2516,-608.0178 279.9249,-611.2227"/>
<polygon fill="#191970" stroke="#191970" points="220.1499,-359.3546 209.6235,-358.1516 217.1022,-365.6563 220.1499,-359.3546"/>
</g>
<!-- Node8811 -->
<g id="node24" class="node">
<title>Node8811</title>
<g id="a_node24"><a xlink:href="quickjs_8c.html#a192c7bd4fc5264ccdf89e13ed5bc0dcc" target="_top" xlink:title="js_promise_resolve">
<polygon fill="none" stroke="#ff0000" points="280,-570.5 280,-589.5 381,-589.5 381,-570.5 280,-570.5"/>
<text text-anchor="middle" x="330.5" y="-577.5" font-family="Helvetica,sans-Serif" font-size="10.00" fill="#000000">js_promise_resolve</text>
</a>
</g>
</g>
<!-- Node8729&#45;&gt;Node8811 -->
<g id="edge30" class="edge">
<title>Node8729&#45;&gt;Node8811</title>
<path fill="none" stroke="#191970" d="M218.9584,-362.8315C222.6935,-365.0684 226.1193,-367.7607 229,-371 286.1151,-435.2241 207.1829,-497.4071 265,-561 269.1418,-565.5556 274.3035,-569.0444 279.8999,-571.7119"/>
<polygon fill="#191970" stroke="#191970" points="220.3189,-359.6016 209.7929,-358.3952 217.2691,-365.9023 220.3189,-359.6016"/>
</g>
<!-- Node8825 -->
<g id="node25" class="node">
<title>Node8825</title>
<g id="a_node25"><a xlink:href="quickjs_8c.html#a8160f52fd4197ade647faa287b34862e" target="_top" xlink:title="js_array_buffer_slice">
<polygon fill="none" stroke="#000000" points="277,-532.5 277,-551.5 384,-551.5 384,-532.5 277,-532.5"/>
<text text-anchor="middle" x="330.5" y="-539.5" font-family="Helvetica,sans-Serif" font-size="10.00" fill="#000000">js_array_buffer_slice</text>
</a>
</g>
</g>
<!-- Node8729&#45;&gt;Node8825 -->
<g id="edge31" class="edge">
<title>Node8729&#45;&gt;Node8825</title>
<path fill="none" stroke="#191970" d="M218.7765,-362.9976C222.5502,-365.1993 226.0346,-367.8381 229,-371 275.0137,-420.0631 220.15,-467.8709 265,-518 270.6527,-524.318 278.1113,-528.9753 285.9657,-532.4077"/>
<polygon fill="#191970" stroke="#191970" points="220.0886,-359.746 209.5545,-358.6129 217.0828,-366.0679 220.0886,-359.746"/>
</g>
<!-- Node8731 -->
<g id="node10" class="node">
<title>Node8731</title>
<g id="a_node10"><a xlink:href="quickjs_8c.html#a638e637d492ee889691691baba33c4bd" target="_top" xlink:title="JS_SetPropertyGeneric">
<polygon fill="none" stroke="#ff0000" points="432,-409.5 432,-428.5 551,-428.5 551,-409.5 432,-409.5"/>
<text text-anchor="middle" x="491.5" y="-416.5" font-family="Helvetica,sans-Serif" font-size="10.00" fill="#000000">JS_SetPropertyGeneric</text>
</a>
</g>
</g>
<!-- Node8730&#45;&gt;Node8731 -->
<g id="edge11" class="edge">
<title>Node8730&#45;&gt;Node8731</title>
<path fill="none" stroke="#191970" d="M390.3046,-424.6569C403.8755,-423.8983 418.2882,-423.0926 431.8525,-422.3343"/>
<polygon fill="#191970" stroke="#191970" points="389.9081,-421.1735 380.119,-425.2263 390.2988,-428.1626 389.9081,-421.1735"/>
</g>
<!-- Node8730&#45;&gt;Node8732 -->
<g id="edge15" class="edge">
<title>Node8730&#45;&gt;Node8732</title>
<path fill="none" stroke="#191970" d="M373.7226,-415.6714C433.6347,-398.5824 540.6578,-368.0557 594.9417,-352.572"/>
<polygon fill="#191970" stroke="#191970" points="372.4734,-412.3881 363.817,-418.4968 374.3935,-419.1196 372.4734,-412.3881"/>
</g>
<!-- Node8730&#45;&gt;Node8925 -->
<g id="edge16" class="edge">
<title>Node8730&#45;&gt;Node8925</title>
<path fill="none" stroke="#191970" d="M384.2873,-439.6929C401.3193,-443.3955 420.1507,-447.4893 437.2172,-451.1994"/>
<polygon fill="#191970" stroke="#191970" points="385.0093,-436.2682 374.494,-437.5639 383.5222,-443.1084 385.0093,-436.2682"/>
</g>
<!-- Node8731&#45;&gt;Node8732 -->
<g id="edge12" class="edge">
<title>Node8731&#45;&gt;Node8732</title>
<path fill="none" stroke="#191970" d="M528.1906,-405.5934C535.8622,-402.406 543.8026,-398.813 551,-395 575.0538,-382.2568 600.9135,-363.8445 615.8497,-352.6918"/>
<polygon fill="#191970" stroke="#191970" points="526.6731,-402.4309 518.693,-409.4 529.2774,-408.9284 526.6731,-402.4309"/>
</g>
<!-- Node8731&#45;&gt;Node8924 -->
<g id="edge14" class="edge">
<title>Node8731&#45;&gt;Node8924</title>
<path fill="none" stroke="#191970" d="M530.8015,-431.6224C552.4627,-438.5793 578.9162,-447.0753 598.8311,-453.4713"/>
<polygon fill="#191970" stroke="#191970" points="531.8182,-428.2729 521.227,-428.5473 529.6777,-434.9376 531.8182,-428.2729"/>
</g>
<!-- Node8732&#45;&gt;Node8732 -->
<g id="edge13" class="edge">
<title>Node8732&#45;&gt;Node8732</title>
<path fill="none" stroke="#191970" d="M603.2025,-362.0292C604.5824,-367.128 613.0149,-371 628.5,-371 652.6719,-371 659.6591,-361.5653 649.4615,-352.7571"/>
<polygon fill="#191970" stroke="#191970" points="606.4728,-363.2982 607.5385,-352.7571 600.1319,-360.3329 606.4728,-363.2982"/>
</g>
<!-- Node9312 -->
<g id="node27" class="node">
<title>Node9312</title>
<g id="a_node27"><a xlink:href="quickjs_8c.html#a20ab59b526319e9501861434ff0fd1bc" target="_top" xlink:title="map_find_record">
<polygon fill="none" stroke="#000000" points="286,-38.5 286,-57.5 375,-57.5 375,-38.5 286,-38.5"/>
<text text-anchor="middle" x="330.5" y="-45.5" font-family="Helvetica,sans-Serif" font-size="10.00" fill="#000000">map_find_record</text>
</a>
</g>
</g>
<!-- Node9311&#45;&gt;Node9312 -->
<g id="edge33" class="edge">
<title>Node9311&#45;&gt;Node9312</title>
<path fill="none" stroke="#191970" d="M173.4546,-228.3959C183.8749,-191.2159 211.6214,-110.3115 265,-67 271.0683,-62.0762 278.3612,-58.4283 285.844,-55.7258"/>
<polygon fill="#191970" stroke="#191970" points="169.9707,-227.8759 170.7678,-238.4407 176.733,-229.6847 169.9707,-227.8759"/>
</g>
<!-- Node9043 -->
<g id="node29" class="node">
<title>Node9043</title>
<g id="a_node29"><a xlink:href="quickjs_8c.html#a404705cd4008db4015ea19f234721fc2" target="_top" xlink:title="js_eq_slow">
<polygon fill="none" stroke="#000000" points="459,-67.5 459,-86.5 524,-86.5 524,-67.5 459,-67.5"/>
<text text-anchor="middle" x="491.5" y="-74.5" font-family="Helvetica,sans-Serif" font-size="10.00" fill="#000000">js_eq_slow</text>
</a>
</g>
</g>
<!-- Node9313&#45;&gt;Node9043 -->
<g id="edge35" class="edge">
<title>Node9313&#45;&gt;Node9043</title>
<path fill="none" stroke="#191970" d="M373.8732,-21.3624C381.3329,-23.6619 388.9496,-26.2326 396,-29 424.501,-40.187 455.9351,-56.8934 474.6814,-67.3571"/>
<polygon fill="#191970" stroke="#191970" points="374.8001,-17.9867 364.2178,-18.5019 372.8117,-24.6984 374.8001,-17.9867"/>
</g>
<!-- Node9314 -->
<g id="node30" class="node">
<title>Node9314</title>
<g id="a_node30"><a xlink:href="quickjs_8c.html#a793b70d5de673c4f0d97e7224749a0b9" target="_top" xlink:title="js_strict_eq_slow">
<polygon fill="none" stroke="#000000" points="445.5,-232.5 445.5,-251.5 537.5,-251.5 537.5,-232.5 445.5,-232.5"/>
<text text-anchor="middle" x="491.5" y="-239.5" font-family="Helvetica,sans-Serif" font-size="10.00" fill="#000000">js_strict_eq_slow</text>
</a>
</g>
</g>
<!-- Node9313&#45;&gt;Node9314 -->
<g id="edge37" class="edge">
<title>Node9313&#45;&gt;Node9314</title>
<path fill="none" stroke="#191970" d="M373.9519,-16.856C381.9304,-19.6334 389.7119,-23.5312 396,-29 412.9332,-43.7267 472.0582,-192.4276 487.6867,-232.2397"/>
<polygon fill="#191970" stroke="#191970" points="374.7906,-13.4546 364.2095,-13.9937 372.8173,-20.1707 374.7906,-13.4546"/>
</g>
<!-- Node9043&#45;&gt;Node8732 -->
<g id="edge36" class="edge">
<title>Node9043&#45;&gt;Node8732</title>
<path fill="none" stroke="#191970" d="M501.2786,-95.9862C528.3427,-148.534 603.5559,-294.5684 623.5603,-333.409"/>
<polygon fill="#191970" stroke="#191970" points="504.2288,-94.0701 496.5384,-86.7825 498.0056,-97.2753 504.2288,-94.0701"/>
</g>
<!-- Node9314&#45;&gt;Node8732 -->
<g id="edge38" class="edge">
<title>Node9314&#45;&gt;Node8732</title>
<path fill="none" stroke="#191970" d="M512.5424,-257.513C541.2522,-278.6786 591.833,-315.9682 615.5458,-333.4498"/>
<polygon fill="#191970" stroke="#191970" points="514.5146,-254.6187 504.3886,-251.5018 510.3608,-260.2531 514.5146,-254.6187"/>
</g>
</g>
</svg>
        <g id="navigator" transform="translate(0 0)" fill="#404254">
                <rect fill="#f2f5e9" fill-opacity="0.5" stroke="#606060" stroke-width=".5" x="0" y="0" width="60" height="60"/>
                <use id="zoomplus" xlink:href="#zoomPlus" x="17" y="9" onmousedown="handleZoom(evt,'in')"/>
                <use id="zoomminus" xlink:href="#zoomMin" x="42" y="9" onmousedown="handleZoom(evt,'out')"/>
                <use id="reset" xlink:href="#resetDef" x="30" y="36" onmousedown="handleReset()"/>
                <g id="arrowUp" xlink:href="#dirArrow" transform="translate(30 24)" onmousedown="handlePan(0,-1)">
                  <use xlink:href="#rim" fill="#404040">
                        <set attributeName="fill" to="#808080" begin="arrowUp.mouseover" end="arrowUp.mouseout"/>
                  </use>
                  <path fill="none" stroke="white" stroke-width="1.5" d="M0,-3.0v7 M-2.5,-0.5L0,-3.0L2.5,-0.5"/>
                </g>
                <g id="arrowRight" xlink:href="#dirArrow" transform="rotate(90) translate(36 -43)" onmousedown="handlePan(1,0)">
                  <use xlink:href="#rim" fill="#404040">
                        <set attributeName="fill" to="#808080" begin="arrowRight.mouseover" end="arrowRight.mouseout"/>
                  </use>
                  <path fill="none" stroke="white" stroke-width="1.5" d="M0,-3.0v7 M-2.5,-0.5L0,-3.0L2.5,-0.5"/>
                </g>
                <g id="arrowDown" xlink:href="#dirArrow" transform="rotate(180) translate(-30 -48)" onmousedown="handlePan(0,1)">
                  <use xlink:href="#rim" fill="#404040">
                        <set attributeName="fill" to="#808080" begin="arrowDown.mouseover" end="arrowDown.mouseout"/>
                  </use>
                  <path fill="none" stroke="white" stroke-width="1.5" d="M0,-3.0v7 M-2.5,-0.5L0,-3.0L2.5,-0.5"/>
                </g>
                <g id="arrowLeft" xlink:href="#dirArrow" transform="rotate(270) translate(-36 17)" onmousedown="handlePan(-1,0)">
                  <use xlink:href="#rim" fill="#404040">
                        <set attributeName="fill" to="#808080" begin="arrowLeft.mouseover" end="arrowLeft.mouseout"/>
                  </use>
                  <path fill="none" stroke="white" stroke-width="1.5" d="M0,-3.0v7 M-2.5,-0.5L0,-3.0L2.5,-0.5"/>
                </g>
        </g>
        <svg viewBox="0 0 15 15" width="100%" height="30px" preserveAspectRatio="xMaxYMin meet">
         <g id="arrow_out" transform="scale(0.3 0.3)">
          <a xlink:href="quickjs_8c_a6b7e8c810c238daa5ac20c70c2f22b24_icgraph_org.svg" target="_base">
           <rect id="button" ry="5" rx="5" y="6" x="6" height="38" width="38"
                fill="#f2f5e9" fill-opacity="0.5" stroke="#606060" stroke-width="1.0"/>
           <path id="arrow"
             d="M 11.500037,31.436501 C 11.940474,20.09759 22.043105,11.32322 32.158766,21.979434 L 37.068811,17.246167 C 37.068811,17.246167 37.088388,32 37.088388,32 L 22.160133,31.978069 C 22.160133,31.978069 26.997745,27.140456 26.997745,27.140456 C 18.528582,18.264221 13.291696,25.230495 11.500037,31.436501 z"
             style="fill:#404040;"/>
          </a>
         </g>
        </svg>
</svg>
