<?xml version="1.0" encoding="UTF-8" standalone="no"?>
<!DOCTYPE svg PUBLIC "-//W3C//DTD SVG 1.1//EN"
 "http://www.w3.org/Graphics/SVG/1.1/DTD/svg11.dtd">
<!-- Generated by graphviz version 2.40.1 (20161225.0304)
 -->
<!-- Title: JS_FreeContext Pages: 1 -->
<svg width="519pt" height="161pt"
 viewBox="0.00 0.00 519.00 161.00" xmlns="http://www.w3.org/2000/svg" xmlns:xlink="http://www.w3.org/1999/xlink">
<g id="graph0" class="graph" transform="scale(1 1) rotate(0) translate(4 157)">
<title>JS_FreeContext</title>
<!-- Node69704 -->
<g id="node1" class="node">
<title>Node69704</title>
<polygon fill="#bfbfbf" stroke="#000000" points="0,-57.5 0,-76.5 88,-76.5 88,-57.5 0,-57.5"/>
<text text-anchor="middle" x="44" y="-64.5" font-family="Helvetica,sans-Serif" font-size="10.00" fill="#000000">JS_FreeContext</text>
</g>
<!-- Node69705 -->
<g id="node2" class="node">
<title>Node69705</title>
<g id="a_node2"><a xlink:href="quickjs_8c.html#adc4a49d7eb1cc1ec4b3a8c37ab8cb075" target="_top" xlink:title="free_function_bytecode">
<polygon fill="none" stroke="#000000" points="124,-114.5 124,-133.5 242,-133.5 242,-114.5 124,-114.5"/>
<text text-anchor="middle" x="183" y="-121.5" font-family="Helvetica,sans-Serif" font-size="10.00" fill="#000000">free_function_bytecode</text>
</a>
</g>
</g>
<!-- Node69704&#45;&gt;Node69705 -->
<g id="edge1" class="edge">
<title>Node69704&#45;&gt;Node69705</title>
<path fill="none" stroke="#191970" d="M71.7866,-81.3092C86.9941,-88.8566 106.2951,-97.9798 124,-105 132.5029,-108.3715 141.8638,-111.5988 150.5755,-114.4059"/>
<polygon fill="#191970" stroke="#191970" points="72.9491,-77.9764 62.4421,-76.6149 69.8068,-84.2315 72.9491,-77.9764"/>
</g>
<!-- Node70420 -->
<g id="node6" class="node">
<title>Node70420</title>
<g id="a_node6"><a xlink:href="quickjs_8c.html#af2bcf1faee5b5dd948692540d9cce73e" target="_top" xlink:title="js_autoinit_free">
<polygon fill="none" stroke="#000000" points="141.5,-76.5 141.5,-95.5 224.5,-95.5 224.5,-76.5 141.5,-76.5"/>
<text text-anchor="middle" x="183" y="-83.5" font-family="Helvetica,sans-Serif" font-size="10.00" fill="#000000">js_autoinit_free</text>
</a>
</g>
</g>
<!-- Node69704&#45;&gt;Node70420 -->
<g id="edge5" class="edge">
<title>Node69704&#45;&gt;Node70420</title>
<path fill="none" stroke="#191970" d="M98.554,-74.457C112.8144,-76.4063 127.9559,-78.476 141.4205,-80.3165"/>
<polygon fill="#191970" stroke="#191970" points="98.7445,-70.9506 88.3626,-73.064 97.7965,-77.8861 98.7445,-70.9506"/>
</g>
<!-- Node70421 -->
<g id="node9" class="node">
<title>Node70421</title>
<g id="a_node9"><a xlink:href="quickjs_8c.html#a7fc69d7fe9fa0f902d0d9a3640634711" target="_top" xlink:title="js_c_function_finalizer">
<polygon fill="none" stroke="#000000" points="126.5,-38.5 126.5,-57.5 239.5,-57.5 239.5,-38.5 126.5,-38.5"/>
<text text-anchor="middle" x="183" y="-45.5" font-family="Helvetica,sans-Serif" font-size="10.00" fill="#000000">js_c_function_finalizer</text>
</a>
</g>
</g>
<!-- Node69704&#45;&gt;Node70421 -->
<g id="edge8" class="edge">
<title>Node69704&#45;&gt;Node70421</title>
<path fill="none" stroke="#191970" d="M98.4958,-59.5509C107.6397,-58.301 117.1475,-57.0014 126.3444,-55.7443"/>
<polygon fill="#191970" stroke="#191970" points="97.7965,-56.1139 88.3626,-60.936 98.7445,-63.0494 97.7965,-56.1139"/>
</g>
<!-- Node70422 -->
<g id="node10" class="node">
<title>Node70422</title>
<g id="a_node10"><a xlink:href="classqjs_1_1Context.html#a5aeaa5a266944f0d9d515d2b8eac767f" target="_top" xlink:title="qjs::Context::~Context">
<polygon fill="none" stroke="#000000" points="125,-.5 125,-19.5 241,-19.5 241,-.5 125,-.5"/>
<text text-anchor="middle" x="183" y="-7.5" font-family="Helvetica,sans-Serif" font-size="10.00" fill="#000000">qjs::Context::~Context</text>
</a>
</g>
</g>
<!-- Node69704&#45;&gt;Node70422 -->
<g id="edge9" class="edge">
<title>Node69704&#45;&gt;Node70422</title>
<path fill="none" stroke="#191970" d="M71.7866,-52.6908C86.9941,-45.1434 106.2951,-36.0202 124,-29 132.5029,-25.6285 141.8638,-22.4012 150.5755,-19.5941"/>
<polygon fill="#191970" stroke="#191970" points="69.8068,-49.7685 62.4421,-57.3851 72.9491,-56.0236 69.8068,-49.7685"/>
</g>
<!-- Node69706 -->
<g id="node3" class="node">
<title>Node69706</title>
<g id="a_node3"><a xlink:href="quickjs_8c.html#a3d1c7a8d6aa5a9ba8ea8ef2828db188a" target="_top" xlink:title="free_gc_object">
<polygon fill="none" stroke="#000000" points="287.5,-114.5 287.5,-133.5 367.5,-133.5 367.5,-114.5 287.5,-114.5"/>
<text text-anchor="middle" x="327.5" y="-121.5" font-family="Helvetica,sans-Serif" font-size="10.00" fill="#000000">free_gc_object</text>
</a>
</g>
</g>
<!-- Node69705&#45;&gt;Node69706 -->
<g id="edge2" class="edge">
<title>Node69705&#45;&gt;Node69706</title>
<path fill="none" stroke="#191970" d="M252.1978,-124C264.1769,-124 276.2682,-124 287.1512,-124"/>
<polygon fill="#191970" stroke="#191970" points="252.1906,-120.5001 242.1906,-124 252.1906,-127.5001 252.1906,-120.5001"/>
</g>
<!-- Node69707 -->
<g id="node4" class="node">
<title>Node69707</title>
<g id="a_node4"><a xlink:href="quickjs_8c.html#a8defed3434f60d6b5d6a7ea202cc8f9d" target="_top" xlink:title="free_zero_refcount">
<polygon fill="none" stroke="#ff0000" points="413,-133.5 413,-152.5 511,-152.5 511,-133.5 413,-133.5"/>
<text text-anchor="middle" x="462" y="-140.5" font-family="Helvetica,sans-Serif" font-size="10.00" fill="#000000">free_zero_refcount</text>
</a>
</g>
</g>
<!-- Node69706&#45;&gt;Node69707 -->
<g id="edge3" class="edge">
<title>Node69706&#45;&gt;Node69707</title>
<path fill="none" stroke="#191970" d="M378.0268,-131.1376C389.354,-132.7377 401.357,-134.4333 412.6362,-136.0267"/>
<polygon fill="#191970" stroke="#191970" points="378.2457,-127.6339 367.8544,-129.7006 377.2665,-134.5651 378.2457,-127.6339"/>
</g>
<!-- Node70416 -->
<g id="node5" class="node">
<title>Node70416</title>
<g id="a_node5"><a xlink:href="quickjs_8c.html#af7c53b26778d6b7e155fab5349a4585e" target="_top" xlink:title="gc_free_cycles">
<polygon fill="none" stroke="#ff0000" points="420.5,-95.5 420.5,-114.5 503.5,-114.5 503.5,-95.5 420.5,-95.5"/>
<text text-anchor="middle" x="462" y="-102.5" font-family="Helvetica,sans-Serif" font-size="10.00" fill="#000000">gc_free_cycles</text>
</a>
</g>
</g>
<!-- Node69706&#45;&gt;Node70416 -->
<g id="edge4" class="edge">
<title>Node69706&#45;&gt;Node70416</title>
<path fill="none" stroke="#191970" d="M377.8173,-116.892C391.8052,-114.916 406.8386,-112.7923 420.2754,-110.8942"/>
<polygon fill="#191970" stroke="#191970" points="377.2665,-113.4349 367.8544,-118.2994 378.2457,-120.3661 377.2665,-113.4349"/>
</g>
<!-- Node70335 -->
<g id="node7" class="node">
<title>Node70335</title>
<g id="a_node7"><a xlink:href="quickjs_8c.html#af4274494e2e45f9018154ffcbb7e89e4" target="_top" xlink:title="free_property">
<polygon fill="none" stroke="#ff0000" points="290.5,-76.5 290.5,-95.5 364.5,-95.5 364.5,-76.5 290.5,-76.5"/>
<text text-anchor="middle" x="327.5" y="-83.5" font-family="Helvetica,sans-Serif" font-size="10.00" fill="#000000">free_property</text>
</a>
</g>
</g>
<!-- Node70420&#45;&gt;Node70335 -->
<g id="edge6" class="edge">
<title>Node70420&#45;&gt;Node70335</title>
<path fill="none" stroke="#191970" d="M235.0045,-86C253.2709,-86 273.4155,-86 290.229,-86"/>
<polygon fill="#191970" stroke="#191970" points="234.7954,-82.5001 224.7954,-86 234.7954,-89.5001 234.7954,-82.5001"/>
</g>
<!-- Node69934 -->
<g id="node8" class="node">
<title>Node69934</title>
<g id="a_node8"><a xlink:href="quickjs_8c.html#ab50618f1bf78e444caa6da0e3e2785d7" target="_top" xlink:title="JS_DefineProperty">
<polygon fill="none" stroke="#ff0000" points="278,-38.5 278,-57.5 377,-57.5 377,-38.5 278,-38.5"/>
<text text-anchor="middle" x="327.5" y="-45.5" font-family="Helvetica,sans-Serif" font-size="10.00" fill="#000000">JS_DefineProperty</text>
</a>
</g>
</g>
<!-- Node70420&#45;&gt;Node69934 -->
<g id="edge7" class="edge">
<title>Node70420&#45;&gt;Node69934</title>
<path fill="none" stroke="#191970" d="M229.3325,-73.8157C249.3939,-68.54 272.5285,-62.4562 291.2988,-57.5201"/>
<polygon fill="#191970" stroke="#191970" points="228.2445,-70.4827 219.4635,-76.411 230.0248,-77.2526 228.2445,-70.4827"/>
</g>
</g>
</svg>
