<?xml version="1.0" encoding="UTF-8" standalone="no"?>
<!DOCTYPE svg PUBLIC "-//W3C//DTD SVG 1.1//EN"
 "http://www.w3.org/Graphics/SVG/1.1/DTD/svg11.dtd">
<!-- Generated by graphviz version 2.40.1 (20161225.0304)
 -->
<!-- Title: js_realloc_rt Pages: 1 -->
<svg width="530pt" height="636pt"
 viewBox="0.00 0.00 530.00 636.00" xmlns="http://www.w3.org/2000/svg" xmlns:xlink="http://www.w3.org/1999/xlink">
<g id="graph0" class="graph" transform="scale(1 1) rotate(0) translate(4 632)">
<title>js_realloc_rt</title>
<!-- Node52178 -->
<g id="node1" class="node">
<title>Node52178</title>
<polygon fill="#bfbfbf" stroke="#000000" points="0,-123.5 0,-142.5 69,-142.5 69,-123.5 0,-123.5"/>
<text text-anchor="middle" x="34.5" y="-130.5" font-family="Helvetica,sans-Serif" font-size="10.00" fill="#000000">js_realloc_rt</text>
</g>
<!-- Node52179 -->
<g id="node2" class="node">
<title>Node52179</title>
<g id="a_node2"><a xlink:href="quickjs_8c.html#a85c6e39e83eab2ddb82d58e82721d06a" target="_top" xlink:title="js_dbuf_init">
<polygon fill="none" stroke="#000000" points="122.5,-285.5 122.5,-304.5 188.5,-304.5 188.5,-285.5 122.5,-285.5"/>
<text text-anchor="middle" x="155.5" y="-292.5" font-family="Helvetica,sans-Serif" font-size="10.00" fill="#000000">js_dbuf_init</text>
</a>
</g>
</g>
<!-- Node52178&#45;&gt;Node52179 -->
<g id="edge1" class="edge">
<title>Node52178&#45;&gt;Node52179</title>
<path fill="none" stroke="#191970" d="M47.7903,-150.7936C73.2944,-184.9396 128.3322,-258.6266 148.178,-285.197"/>
<polygon fill="#191970" stroke="#191970" points="50.4951,-148.5661 41.7067,-142.6487 44.8868,-152.755 50.4951,-148.5661"/>
</g>
<!-- Node52772 -->
<g id="node17" class="node">
<title>Node52772</title>
<g id="a_node17"><a xlink:href="quickjs_8c.html#afc4635015897c24a35aa18566311c298" target="_top" xlink:title="js_realloc">
<polygon fill="none" stroke="#000000" points="126.5,-133.5 126.5,-152.5 184.5,-152.5 184.5,-133.5 126.5,-133.5"/>
<text text-anchor="middle" x="155.5" y="-140.5" font-family="Helvetica,sans-Serif" font-size="10.00" fill="#000000">js_realloc</text>
</a>
</g>
</g>
<!-- Node52178&#45;&gt;Node52772 -->
<g id="edge20" class="edge">
<title>Node52178&#45;&gt;Node52772</title>
<path fill="none" stroke="#191970" d="M79.2021,-136.6944C94.8693,-137.9892 112.0565,-139.4096 126.1453,-140.574"/>
<polygon fill="#191970" stroke="#191970" points="79.4281,-133.2012 69.1737,-135.8656 78.8515,-140.1774 79.4281,-133.2012"/>
</g>
<!-- Node52802 -->
<g id="node21" class="node">
<title>Node52802</title>
<g id="a_node21"><a xlink:href="quickjs-libc_8c.html#abc010e21334ba999f6ad18a681caf4fb" target="_top" xlink:title="js_std_dbuf_init">
<polygon fill="none" stroke="#000000" points="113,-85.5 113,-104.5 198,-104.5 198,-85.5 113,-85.5"/>
<text text-anchor="middle" x="155.5" y="-92.5" font-family="Helvetica,sans-Serif" font-size="10.00" fill="#000000">js_std_dbuf_init</text>
</a>
</g>
</g>
<!-- Node52178&#45;&gt;Node52802 -->
<g id="edge24" class="edge">
<title>Node52178&#45;&gt;Node52802</title>
<path fill="none" stroke="#191970" d="M74.8771,-120.3196C91.2262,-115.1852 109.7878,-109.3559 124.9764,-104.5859"/>
<polygon fill="#191970" stroke="#191970" points="73.5253,-117.0755 65.0334,-123.411 75.6227,-123.7539 73.5253,-117.0755"/>
</g>
<!-- Node52672 -->
<g id="node26" class="node">
<title>Node52672</title>
<g id="a_node26"><a xlink:href="quickjs_8c.html#ac6b88454ffc4d639197c1e95e515e04a" target="_top" xlink:title="js_string_normalize">
<polygon fill="none" stroke="#000000" points="105,-47.5 105,-66.5 206,-66.5 206,-47.5 105,-47.5"/>
<text text-anchor="middle" x="155.5" y="-54.5" font-family="Helvetica,sans-Serif" font-size="10.00" fill="#000000">js_string_normalize</text>
</a>
</g>
</g>
<!-- Node52178&#45;&gt;Node52672 -->
<g id="edge29" class="edge">
<title>Node52178&#45;&gt;Node52672</title>
<path fill="none" stroke="#191970" d="M51.8533,-116.3055C65.4559,-103.9089 85.3167,-87.2668 105,-76 111.3412,-72.3703 118.5064,-69.1886 125.4047,-66.5188"/>
<polygon fill="#191970" stroke="#191970" points="49.1807,-114.0119 44.2501,-123.3896 53.9525,-119.1334 49.1807,-114.0119"/>
</g>
<!-- Node52180 -->
<g id="node3" class="node">
<title>Node52180</title>
<g id="a_node3"><a xlink:href="quickjs_8c.html#a61c8dfb5e807af1b6ff7d8ca61576dda" target="_top" xlink:title="build_backtrace">
<polygon fill="none" stroke="#000000" points="260.5,-496.5 260.5,-515.5 345.5,-515.5 345.5,-496.5 260.5,-496.5"/>
<text text-anchor="middle" x="303" y="-503.5" font-family="Helvetica,sans-Serif" font-size="10.00" fill="#000000">build_backtrace</text>
</a>
</g>
</g>
<!-- Node52179&#45;&gt;Node52180 -->
<g id="edge2" class="edge">
<title>Node52179&#45;&gt;Node52180</title>
<path fill="none" stroke="#191970" d="M168.0663,-312.9761C198.1071,-355.9498 273.2871,-463.4955 296.2395,-496.329"/>
<polygon fill="#191970" stroke="#191970" points="170.8191,-310.8052 162.221,-304.6145 165.0819,-314.8158 170.8191,-310.8052"/>
</g>
<!-- Node52765 -->
<g id="node8" class="node">
<title>Node52765</title>
<g id="a_node8"><a xlink:href="quickjs_8c.html#a8020fd59ed57f7f299216ec1ebfcda01" target="_top" xlink:title="js_new_function_def">
<polygon fill="none" stroke="#000000" points="250,-380.5 250,-399.5 356,-399.5 356,-380.5 250,-380.5"/>
<text text-anchor="middle" x="303" y="-387.5" font-family="Helvetica,sans-Serif" font-size="10.00" fill="#000000">js_new_function_def</text>
</a>
</g>
</g>
<!-- Node52179&#45;&gt;Node52765 -->
<g id="edge9" class="edge">
<title>Node52179&#45;&gt;Node52765</title>
<path fill="none" stroke="#191970" d="M170.8893,-312.2177C187.0561,-329.3456 213.9851,-355.2777 242,-371 248.6743,-374.7457 256.1822,-377.8526 263.5895,-380.3928"/>
<polygon fill="#191970" stroke="#191970" points="173.2136,-309.5756 163.8598,-304.6 168.0692,-314.3227 173.2136,-309.5756"/>
</g>
<!-- Node52544 -->
<g id="node12" class="node">
<title>Node52544</title>
<g id="a_node12"><a xlink:href="quickjs_8c.html#a7a4eedc4cc552a71e165f4d28ad43985" target="_top" xlink:title="resolve_variables">
<polygon fill="none" stroke="#ff0000" points="257,-342.5 257,-361.5 349,-361.5 349,-342.5 257,-342.5"/>
<text text-anchor="middle" x="303" y="-349.5" font-family="Helvetica,sans-Serif" font-size="10.00" fill="#000000">resolve_variables</text>
</a>
</g>
</g>
<!-- Node52179&#45;&gt;Node52544 -->
<g id="edge13" class="edge">
<title>Node52179&#45;&gt;Node52544</title>
<path fill="none" stroke="#191970" d="M184.6988,-308.8028C201.3092,-316.4073 222.6078,-325.7463 242,-333 250.9346,-336.342 260.7504,-339.5828 269.847,-342.4133"/>
<polygon fill="#191970" stroke="#191970" points="186.0562,-305.5744 175.5105,-304.5547 183.1186,-311.9282 186.0562,-305.5744"/>
</g>
<!-- Node52769 -->
<g id="node13" class="node">
<title>Node52769</title>
<g id="a_node13"><a xlink:href="quickjs_8c.html#ac8f4450aa771cc138f5fd25086f1c106" target="_top" xlink:title="compute_pc2line_info">
<polygon fill="none" stroke="#000000" points="247.5,-304.5 247.5,-323.5 358.5,-323.5 358.5,-304.5 247.5,-304.5"/>
<text text-anchor="middle" x="303" y="-311.5" font-family="Helvetica,sans-Serif" font-size="10.00" fill="#000000">compute_pc2line_info</text>
</a>
</g>
</g>
<!-- Node52179&#45;&gt;Node52769 -->
<g id="edge14" class="edge">
<title>Node52179&#45;&gt;Node52769</title>
<path fill="none" stroke="#191970" d="M198.7666,-300.5733C213.9937,-302.5348 231.3248,-304.7673 247.4238,-306.841"/>
<polygon fill="#191970" stroke="#191970" points="198.9671,-297.0703 188.6019,-299.264 198.0728,-304.013 198.9671,-297.0703"/>
</g>
<!-- Node52770 -->
<g id="node14" class="node">
<title>Node52770</title>
<g id="a_node14"><a xlink:href="quickjs_8c.html#ad0d311d4ce409584384f835f1a3e185a" target="_top" xlink:title="resolve_labels">
<polygon fill="none" stroke="#ff0000" points="421.5,-275.5 421.5,-294.5 500.5,-294.5 500.5,-275.5 421.5,-275.5"/>
<text text-anchor="middle" x="461" y="-282.5" font-family="Helvetica,sans-Serif" font-size="10.00" fill="#000000">resolve_labels</text>
</a>
</g>
</g>
<!-- Node52179&#45;&gt;Node52770 -->
<g id="edge16" class="edge">
<title>Node52179&#45;&gt;Node52770</title>
<path fill="none" stroke="#191970" d="M198.9327,-293.5783C258.2061,-291.6381 363.6099,-288.1879 421.0244,-286.3085"/>
<polygon fill="#191970" stroke="#191970" points="198.6555,-290.0854 188.7754,-293.9108 198.8846,-297.0817 198.6555,-290.0854"/>
</g>
<!-- Node52771 -->
<g id="node15" class="node">
<title>Node52771</title>
<g id="a_node15"><a xlink:href="quickjs_8c.html#a91942742587df191fbf0f17a2ede99ef" target="_top" xlink:title="JS_WriteObjectAtoms">
<polygon fill="none" stroke="#000000" points="246,-228.5 246,-247.5 360,-247.5 360,-228.5 246,-228.5"/>
<text text-anchor="middle" x="303" y="-235.5" font-family="Helvetica,sans-Serif" font-size="10.00" fill="#000000">JS_WriteObjectAtoms</text>
</a>
</g>
</g>
<!-- Node52179&#45;&gt;Node52771 -->
<g id="edge17" class="edge">
<title>Node52179&#45;&gt;Node52771</title>
<path fill="none" stroke="#191970" d="M189.6656,-281.797C216.7487,-271.331 253.953,-256.9538 278.2313,-247.5716"/>
<polygon fill="#191970" stroke="#191970" points="188.2543,-278.5901 180.1882,-285.4595 190.7776,-285.1195 188.2543,-278.5901"/>
</g>
<!-- Node52363 -->
<g id="node16" class="node">
<title>Node52363</title>
<g id="a_node16"><a xlink:href="quickjs_8c.html#a8c807d481615ed55818787ae89621a37" target="_top" xlink:title="JS_WriteObject">
<polygon fill="none" stroke="#000000" points="418,-209.5 418,-228.5 504,-228.5 504,-209.5 418,-209.5"/>
<text text-anchor="middle" x="461" y="-216.5" font-family="Helvetica,sans-Serif" font-size="10.00" fill="#000000">JS_WriteObject</text>
</a>
</g>
</g>
<!-- Node52179&#45;&gt;Node52363 -->
<g id="edge19" class="edge">
<title>Node52179&#45;&gt;Node52363</title>
<path fill="none" stroke="#191970" d="M168.8509,-277.3891C184.1604,-258.8035 211.1566,-230.6249 242,-219 299.8138,-197.2099 372.4723,-203.083 417.8349,-210.2799"/>
<polygon fill="#191970" stroke="#191970" points="165.9708,-275.3877 162.4877,-285.3937 171.4503,-279.7437 165.9708,-275.3877"/>
</g>
<!-- Node52181 -->
<g id="node4" class="node">
<title>Node52181</title>
<g id="a_node4"><a xlink:href="quickjs_8c.html#aeafb37b03b5560171754f8c4505b0f6b" target="_top" xlink:title="JS_ThrowError2">
<polygon fill="none" stroke="#ff0000" points="417.5,-608.5 417.5,-627.5 504.5,-627.5 504.5,-608.5 417.5,-608.5"/>
<text text-anchor="middle" x="461" y="-615.5" font-family="Helvetica,sans-Serif" font-size="10.00" fill="#000000">JS_ThrowError2</text>
</a>
</g>
</g>
<!-- Node52180&#45;&gt;Node52181 -->
<g id="edge3" class="edge">
<title>Node52180&#45;&gt;Node52181</title>
<path fill="none" stroke="#191970" d="M316.9982,-523.7021C334.3691,-544.5467 365.894,-578.8721 400,-599 406.4003,-602.7772 413.6287,-605.8786 420.8134,-608.3994"/>
<polygon fill="#191970" stroke="#191970" points="319.4854,-521.2138 310.4539,-515.6747 314.06,-525.637 319.4854,-521.2138"/>
</g>
<!-- Node52204 -->
<g id="node5" class="node">
<title>Node52204</title>
<g id="a_node5"><a xlink:href="quickjs_8c.html#ac2894ff4edcdb4e6841bcce9c76081e3" target="_top" xlink:title="JS_CallInternal">
<polygon fill="none" stroke="#ff0000" points="419.5,-552.5 419.5,-571.5 502.5,-571.5 502.5,-552.5 419.5,-552.5"/>
<text text-anchor="middle" x="461" y="-559.5" font-family="Helvetica,sans-Serif" font-size="10.00" fill="#000000">JS_CallInternal</text>
</a>
</g>
</g>
<!-- Node52180&#45;&gt;Node52204 -->
<g id="edge4" class="edge">
<title>Node52180&#45;&gt;Node52204</title>
<path fill="none" stroke="#191970" d="M336.2773,-519.2829C354.9123,-526.5722 378.632,-535.6049 400,-543 409.3291,-546.2286 419.5443,-549.5088 428.9019,-552.4144"/>
<polygon fill="#191970" stroke="#191970" points="337.3529,-515.945 326.7657,-515.5412 334.7903,-522.4591 337.3529,-515.945"/>
</g>
<!-- Node52433 -->
<g id="node6" class="node">
<title>Node52433</title>
<g id="a_node6"><a xlink:href="quickjs_8c.html#acdcc62310b4f6f73fa7bc7267b18b1d4" target="_top" xlink:title="js_parse_postfix_expr">
<polygon fill="none" stroke="#ff0000" points="405,-496.5 405,-515.5 517,-515.5 517,-496.5 405,-496.5"/>
<text text-anchor="middle" x="461" y="-503.5" font-family="Helvetica,sans-Serif" font-size="10.00" fill="#000000">js_parse_postfix_expr</text>
</a>
</g>
</g>
<!-- Node52180&#45;&gt;Node52433 -->
<g id="edge6" class="edge">
<title>Node52180&#45;&gt;Node52433</title>
<path fill="none" stroke="#191970" d="M355.8472,-506C371.5905,-506 388.8957,-506 404.8424,-506"/>
<polygon fill="#191970" stroke="#191970" points="355.7571,-502.5001 345.7571,-506 355.757,-509.5001 355.7571,-502.5001"/>
</g>
<!-- Node52230 -->
<g id="node7" class="node">
<title>Node52230</title>
<g id="a_node7"><a xlink:href="quickjs_8c.html#ad25358fc5ae69ab218abde24d52b7767" target="_top" xlink:title="js_error_constructor">
<polygon fill="none" stroke="#ff0000" points="409.5,-458.5 409.5,-477.5 512.5,-477.5 512.5,-458.5 409.5,-458.5"/>
<text text-anchor="middle" x="461" y="-465.5" font-family="Helvetica,sans-Serif" font-size="10.00" fill="#000000">js_error_constructor</text>
</a>
</g>
</g>
<!-- Node52180&#45;&gt;Node52230 -->
<g id="edge8" class="edge">
<title>Node52180&#45;&gt;Node52230</title>
<path fill="none" stroke="#191970" d="M352.7616,-494.032C374.9029,-488.7069 400.6116,-482.5238 421.4166,-477.5201"/>
<polygon fill="#191970" stroke="#191970" points="351.7744,-490.6696 342.8701,-496.411 353.4113,-497.4755 351.7744,-490.6696"/>
</g>
<!-- Node52204&#45;&gt;Node52204 -->
<g id="edge5" class="edge">
<title>Node52204&#45;&gt;Node52204</title>
<path fill="none" stroke="#191970" d="M431.5076,-580.6539C432.7404,-585.9368 442.5712,-590 461,-590 489.082,-590 497.1995,-580.5653 485.3524,-571.7571"/>
<polygon fill="#191970" stroke="#191970" points="434.6757,-582.1668 436.6476,-571.7571 428.6145,-578.665 434.6757,-582.1668"/>
</g>
<!-- Node52433&#45;&gt;Node52433 -->
<g id="edge7" class="edge">
<title>Node52433&#45;&gt;Node52433</title>
<path fill="none" stroke="#191970" d="M431.5076,-524.6539C432.7404,-529.9368 442.5712,-534 461,-534 489.082,-534 497.1995,-524.5653 485.3524,-515.7571"/>
<polygon fill="#191970" stroke="#191970" points="434.6757,-526.1668 436.6476,-515.7571 428.6145,-522.665 434.6757,-526.1668"/>
</g>
<!-- Node52766 -->
<g id="node9" class="node">
<title>Node52766</title>
<g id="a_node9"><a xlink:href="quickjs_8c.html#a63058dc37265af331214fa1eec1aebf8" target="_top" xlink:title="js_parse_function_class\l_fields_init">
<polygon fill="none" stroke="#ff0000" points="400,-409 400,-439 522,-439 522,-409 400,-409"/>
<text text-anchor="start" x="408" y="-427" font-family="Helvetica,sans-Serif" font-size="10.00" fill="#000000">js_parse_function_class</text>
<text text-anchor="middle" x="461" y="-416" font-family="Helvetica,sans-Serif" font-size="10.00" fill="#000000">_fields_init</text>
</a>
</g>
</g>
<!-- Node52765&#45;&gt;Node52766 -->
<g id="edge10" class="edge">
<title>Node52765&#45;&gt;Node52766</title>
<path fill="none" stroke="#191970" d="M357.6028,-401.75C371.216,-404.6794 385.9008,-407.8394 399.8089,-410.8323"/>
<polygon fill="#191970" stroke="#191970" points="357.9448,-398.2435 347.4323,-399.5614 356.4722,-405.0869 357.9448,-398.2435"/>
</g>
<!-- Node52440 -->
<g id="node10" class="node">
<title>Node52440</title>
<g id="a_node10"><a xlink:href="quickjs_8c.html#acc9eb677cab8dfcf45f59381f8a19601" target="_top" xlink:title="js_parse_function_decl2">
<polygon fill="none" stroke="#ff0000" points="400,-370.5 400,-389.5 522,-389.5 522,-370.5 400,-370.5"/>
<text text-anchor="middle" x="461" y="-377.5" font-family="Helvetica,sans-Serif" font-size="10.00" fill="#000000">js_parse_function_decl2</text>
</a>
</g>
</g>
<!-- Node52765&#45;&gt;Node52440 -->
<g id="edge11" class="edge">
<title>Node52765&#45;&gt;Node52440</title>
<path fill="none" stroke="#191970" d="M366.1247,-386.0048C377.257,-385.3002 388.8279,-384.5679 399.9034,-383.8669"/>
<polygon fill="#191970" stroke="#191970" points="365.8102,-382.5176 356.0512,-386.6423 366.2524,-389.5036 365.8102,-382.5176"/>
</g>
<!-- Node52307 -->
<g id="node11" class="node">
<title>Node52307</title>
<g id="a_node11"><a xlink:href="quickjs_8c.html#a46a8a7e155cfd0af984f6725f060f0d6" target="_top" xlink:title="__JS_EvalInternal">
<polygon fill="none" stroke="#ff0000" points="413,-332.5 413,-351.5 509,-351.5 509,-332.5 413,-332.5"/>
<text text-anchor="middle" x="461" y="-339.5" font-family="Helvetica,sans-Serif" font-size="10.00" fill="#000000">__JS_EvalInternal</text>
</a>
</g>
</g>
<!-- Node52765&#45;&gt;Node52307 -->
<g id="edge12" class="edge">
<title>Node52765&#45;&gt;Node52307</title>
<path fill="none" stroke="#191970" d="M344.3936,-377.4247C371.0042,-369.3405 405.0399,-359.0005 429.4608,-351.5815"/>
<polygon fill="#191970" stroke="#191970" points="343.1447,-374.1461 334.5939,-380.4018 345.1795,-380.8439 343.1447,-374.1461"/>
</g>
<!-- Node52769&#45;&gt;Node52770 -->
<g id="edge15" class="edge">
<title>Node52769&#45;&gt;Node52770</title>
<path fill="none" stroke="#191970" d="M365.2165,-302.5805C384.1358,-299.108 404.4016,-295.3883 421.3975,-292.2688"/>
<polygon fill="#191970" stroke="#191970" points="364.3768,-299.1761 355.173,-304.4239 365.6406,-306.0611 364.3768,-299.1761"/>
</g>
<!-- Node52771&#45;&gt;Node52363 -->
<g id="edge18" class="edge">
<title>Node52771&#45;&gt;Node52363</title>
<path fill="none" stroke="#191970" d="M370.0259,-229.9399C386.2448,-227.9895 403.1531,-225.9563 417.9302,-224.1793"/>
<polygon fill="#191970" stroke="#191970" points="369.5522,-226.4716 360.0416,-231.1406 370.388,-233.4215 369.5522,-226.4716"/>
</g>
<!-- Node52773 -->
<g id="node18" class="node">
<title>Node52773</title>
<g id="a_node18"><a xlink:href="quickjs_8c.html#aa80740ff93b724ea7e0c280826f4a25a" target="_top" xlink:title="resize_properties">
<polygon fill="none" stroke="#000000" points="257.5,-152.5 257.5,-171.5 348.5,-171.5 348.5,-152.5 257.5,-152.5"/>
<text text-anchor="middle" x="303" y="-159.5" font-family="Helvetica,sans-Serif" font-size="10.00" fill="#000000">resize_properties</text>
</a>
</g>
</g>
<!-- Node52772&#45;&gt;Node52773 -->
<g id="edge21" class="edge">
<title>Node52772&#45;&gt;Node52773</title>
<path fill="none" stroke="#191970" d="M194.6009,-148.0367C213.8878,-150.5211 237.266,-153.5326 257.367,-156.1218"/>
<polygon fill="#191970" stroke="#191970" points="195.0065,-144.5601 184.6413,-146.7538 194.1121,-151.5028 195.0065,-144.5601"/>
</g>
<!-- Node52774 -->
<g id="node19" class="node">
<title>Node52774</title>
<g id="a_node19"><a xlink:href="quickjs_8c.html#a3cadcaa2bd1e3f9359f1c006f396cfa0" target="_top" xlink:title="add_shape_property">
<polygon fill="none" stroke="#ff0000" points="409,-161.5 409,-180.5 513,-180.5 513,-161.5 409,-161.5"/>
<text text-anchor="middle" x="461" y="-168.5" font-family="Helvetica,sans-Serif" font-size="10.00" fill="#000000">add_shape_property</text>
</a>
</g>
</g>
<!-- Node52773&#45;&gt;Node52774 -->
<g id="edge22" class="edge">
<title>Node52773&#45;&gt;Node52774</title>
<path fill="none" stroke="#191970" d="M359.0864,-165.1948C375.2471,-166.1153 392.8081,-167.1157 408.7277,-168.0225"/>
<polygon fill="#191970" stroke="#191970" points="358.883,-161.6776 348.7001,-164.6032 358.4849,-168.6663 358.883,-161.6776"/>
</g>
<!-- Node52776 -->
<g id="node20" class="node">
<title>Node52776</title>
<g id="a_node20"><a xlink:href="quickjs_8c.html#ac93c982cb636a5430b191d104083af3e" target="_top" xlink:title="convert_fast_array\l_to_array">
<polygon fill="none" stroke="#ff0000" points="412,-112 412,-142 510,-142 510,-112 412,-112"/>
<text text-anchor="start" x="420" y="-130" font-family="Helvetica,sans-Serif" font-size="10.00" fill="#000000">convert_fast_array</text>
<text text-anchor="middle" x="461" y="-119" font-family="Helvetica,sans-Serif" font-size="10.00" fill="#000000">_to_array</text>
</a>
</g>
</g>
<!-- Node52773&#45;&gt;Node52776 -->
<g id="edge23" class="edge">
<title>Node52773&#45;&gt;Node52776</title>
<path fill="none" stroke="#191970" d="M355.9473,-150.2712C373.966,-146.2797 394.0208,-141.8372 411.7388,-137.9123"/>
<polygon fill="#191970" stroke="#191970" points="355.1805,-146.8561 346.1742,-152.4361 356.6945,-153.6904 355.1805,-146.8561"/>
</g>
<!-- Node52534 -->
<g id="node22" class="node">
<title>Node52534</title>
<g id="a_node22"><a xlink:href="quickjs-libc_8c.html#a2abec3aeee82a6dd3dd063725bbeecfe" target="_top" xlink:title="js_printf_internal">
<polygon fill="none" stroke="#ff0000" points="259,-114.5 259,-133.5 347,-133.5 347,-114.5 259,-114.5"/>
<text text-anchor="middle" x="303" y="-121.5" font-family="Helvetica,sans-Serif" font-size="10.00" fill="#000000">js_printf_internal</text>
</a>
</g>
</g>
<!-- Node52802&#45;&gt;Node52534 -->
<g id="edge25" class="edge">
<title>Node52802&#45;&gt;Node52534</title>
<path fill="none" stroke="#191970" d="M208.257,-105.3726C224.8432,-108.6336 242.9746,-112.1984 258.895,-115.3285"/>
<polygon fill="#191970" stroke="#191970" points="208.6505,-101.883 198.1631,-103.388 207.3,-108.7515 208.6505,-101.883"/>
</g>
<!-- Node52803 -->
<g id="node23" class="node">
<title>Node52803</title>
<g id="a_node23"><a xlink:href="quickjs-libc_8c.html#af31f002f20b3b7e983dd4efabd18d65e" target="_top" xlink:title="js_std_file_getline">
<polygon fill="none" stroke="#000000" points="255.5,-76.5 255.5,-95.5 350.5,-95.5 350.5,-76.5 255.5,-76.5"/>
<text text-anchor="middle" x="303" y="-83.5" font-family="Helvetica,sans-Serif" font-size="10.00" fill="#000000">js_std_file_getline</text>
</a>
</g>
</g>
<!-- Node52802&#45;&gt;Node52803 -->
<g id="edge26" class="edge">
<title>Node52802&#45;&gt;Node52803</title>
<path fill="none" stroke="#191970" d="M208.4918,-91.7666C223.7613,-90.8349 240.3232,-89.8243 255.2542,-88.9133"/>
<polygon fill="#191970" stroke="#191970" points="207.9314,-88.2942 198.1631,-92.3968 208.3577,-95.2812 207.9314,-88.2942"/>
</g>
<!-- Node52653 -->
<g id="node24" class="node">
<title>Node52653</title>
<g id="a_node24"><a xlink:href="quickjs-libc_8c.html#ae8abf0c32bf9b0acd85adffaf8345dfe" target="_top" xlink:title="js_std_file_readAsString">
<polygon fill="none" stroke="#000000" points="242,-38.5 242,-57.5 364,-57.5 364,-38.5 242,-38.5"/>
<text text-anchor="middle" x="303" y="-45.5" font-family="Helvetica,sans-Serif" font-size="10.00" fill="#000000">js_std_file_readAsString</text>
</a>
</g>
</g>
<!-- Node52802&#45;&gt;Node52653 -->
<g id="edge27" class="edge">
<title>Node52802&#45;&gt;Node52653</title>
<path fill="none" stroke="#191970" d="M194.5743,-82.2501C209.4134,-77.4348 226.4764,-71.9299 242,-67 251.8318,-63.8777 262.5705,-60.5164 272.2597,-57.5019"/>
<polygon fill="#191970" stroke="#191970" points="193.1313,-79.0388 184.7025,-85.458 195.2947,-85.6961 193.1313,-79.0388"/>
</g>
<!-- Node52382 -->
<g id="node25" class="node">
<title>Node52382</title>
<g id="a_node25"><a xlink:href="quickjs-libc_8c.html#a7aebce2172c6aa4a6645aef600a69e6b" target="_top" xlink:title="js_std_urlGet">
<polygon fill="none" stroke="#000000" points="266,-.5 266,-19.5 340,-19.5 340,-.5 266,-.5"/>
<text text-anchor="middle" x="303" y="-7.5" font-family="Helvetica,sans-Serif" font-size="10.00" fill="#000000">js_std_urlGet</text>
</a>
</g>
</g>
<!-- Node52802&#45;&gt;Node52382 -->
<g id="edge28" class="edge">
<title>Node52802&#45;&gt;Node52382</title>
<path fill="none" stroke="#191970" d="M198.0642,-81.051C200.8465,-79.5191 203.5225,-77.8389 206,-76 227.1285,-60.3178 220.4263,-44.064 242,-29 249.0937,-24.0468 257.5275,-20.3481 265.8264,-17.5993"/>
<polygon fill="#191970" stroke="#191970" points="196.4185,-77.9588 188.9281,-85.4518 199.4563,-84.2653 196.4185,-77.9588"/>
</g>
</g>
</svg>
