<?xml version="1.0" encoding="UTF-8" standalone="no"?>
<!DOCTYPE svg PUBLIC "-//W3C//DTD SVG 1.1//EN"
 "http://www.w3.org/Graphics/SVG/1.1/DTD/svg11.dtd">
<!-- Generated by graphviz version 2.40.1 (20161225.0304)
 -->
<!-- Title: JS_GetModuleName Pages: 1 -->
<svg width="498pt" height="66pt"
 viewBox="0.00 0.00 498.00 66.00" xmlns="http://www.w3.org/2000/svg" xmlns:xlink="http://www.w3.org/1999/xlink">
<g id="graph0" class="graph" transform="scale(1 1) rotate(0) translate(4 62)">
<title>JS_GetModuleName</title>
<!-- Node79858 -->
<g id="node1" class="node">
<title>Node79858</title>
<polygon fill="#bfbfbf" stroke="#000000" points="0,-19.5 0,-38.5 107,-38.5 107,-19.5 0,-19.5"/>
<text text-anchor="middle" x="53.5" y="-26.5" font-family="Helvetica,sans-Serif" font-size="10.00" fill="#000000">JS_GetModuleName</text>
</g>
<!-- Node79859 -->
<g id="node2" class="node">
<title>Node79859</title>
<g id="a_node2"><a xlink:href="quickjs-libc_8c.html#a5cc3e22713f1916d49867f60a7375505" target="_top" xlink:title="js_module_set_import_meta">
<polygon fill="none" stroke="#000000" points="143,-19.5 143,-38.5 282,-38.5 282,-19.5 143,-19.5"/>
<text text-anchor="middle" x="212.5" y="-26.5" font-family="Helvetica,sans-Serif" font-size="10.00" fill="#000000">js_module_set_import_meta</text>
</a>
</g>
</g>
<!-- Node79858&#45;&gt;Node79859 -->
<g id="edge1" class="edge">
<title>Node79858&#45;&gt;Node79859</title>
<path fill="none" stroke="#191970" d="M117.4249,-29C125.8206,-29 134.4575,-29 142.941,-29"/>
<polygon fill="#191970" stroke="#191970" points="117.3302,-25.5001 107.3301,-29 117.3301,-32.5001 117.3302,-25.5001"/>
</g>
<!-- Node79860 -->
<g id="node3" class="node">
<title>Node79860</title>
<g id="a_node3"><a xlink:href="quickjs-libc_8c.html#ad61d60681847f324c5ba4ad88c546f1e" target="_top" xlink:title="js_module_loader">
<polygon fill="none" stroke="#000000" points="321,-38.5 321,-57.5 413,-57.5 413,-38.5 321,-38.5"/>
<text text-anchor="middle" x="367" y="-45.5" font-family="Helvetica,sans-Serif" font-size="10.00" fill="#000000">js_module_loader</text>
</a>
</g>
</g>
<!-- Node79859&#45;&gt;Node79860 -->
<g id="edge2" class="edge">
<title>Node79859&#45;&gt;Node79860</title>
<path fill="none" stroke="#191970" d="M292.2592,-38.8086C302.0468,-40.0122 311.7806,-41.2093 320.8313,-42.3223"/>
<polygon fill="#191970" stroke="#191970" points="292.4189,-35.3019 282.0665,-37.5551 291.5645,-42.2496 292.4189,-35.3019"/>
</g>
<!-- Node79862 -->
<g id="node5" class="node">
<title>Node79862</title>
<g id="a_node5"><a xlink:href="quickjs-libc_8c.html#ab1b439d304c2125490b47ef262b5df67" target="_top" xlink:title="js_std_eval_binary">
<polygon fill="none" stroke="#000000" points="318,-.5 318,-19.5 416,-19.5 416,-.5 318,-.5"/>
<text text-anchor="middle" x="367" y="-7.5" font-family="Helvetica,sans-Serif" font-size="10.00" fill="#000000">js_std_eval_binary</text>
</a>
</g>
</g>
<!-- Node79859&#45;&gt;Node79862 -->
<g id="edge4" class="edge">
<title>Node79859&#45;&gt;Node79862</title>
<path fill="none" stroke="#191970" d="M292.2366,-19.1942C300.9061,-18.1281 309.5337,-17.0671 317.6821,-16.065"/>
<polygon fill="#191970" stroke="#191970" points="291.5645,-15.7504 282.0665,-20.4449 292.4189,-22.6981 291.5645,-15.7504"/>
</g>
<!-- Node79861 -->
<g id="node4" class="node">
<title>Node79861</title>
<g id="a_node4"><a xlink:href="qjs_8cpp.html#a3c04138a5bfe5d72780bb7e82a18e627" target="_top" xlink:title="main">
<polygon fill="none" stroke="#000000" points="452,-38.5 452,-57.5 490,-57.5 490,-38.5 452,-38.5"/>
<text text-anchor="middle" x="471" y="-45.5" font-family="Helvetica,sans-Serif" font-size="10.00" fill="#000000">main</text>
</a>
</g>
</g>
<!-- Node79860&#45;&gt;Node79861 -->
<g id="edge3" class="edge">
<title>Node79860&#45;&gt;Node79861</title>
<path fill="none" stroke="#191970" d="M423.4343,-48C433.6293,-48 443.5954,-48 451.7495,-48"/>
<polygon fill="#191970" stroke="#191970" points="423.2216,-44.5001 413.2216,-48 423.2215,-51.5001 423.2216,-44.5001"/>
</g>
</g>
</svg>
