<?xml version="1.0" encoding="UTF-8" standalone="no"?>
<!DOCTYPE svg PUBLIC "-//W3C//DTD SVG 1.1//EN"
 "http://www.w3.org/Graphics/SVG/1.1/DTD/svg11.dtd">
<!-- Generated by graphviz version 2.40.1 (20161225.0304)
 -->
<!-- Title: JS_NewObject Pages: 1 -->
<!--zoomable 1106 -->
<svg id="main" version="1.1" xmlns="http://www.w3.org/2000/svg" xmlns:xlink="http://www.w3.org/1999/xlink" xml:space="preserve" onload="init(evt)">
<style type="text/css"><![CDATA[
.edge:hover path { stroke: red; }
.edge:hover polygon { stroke: red; fill: red; }
]]></style>
<script type="text/javascript"><![CDATA[
var edges = document.getElementsByTagName('g');
if (edges && edges.length) {
  for (var i=0;i<edges.length;i++) {
    if (edges[i].id.substr(0,4)=='edge') {
      edges[i].setAttribute('class','edge');
    }
  }
}
]]></script>
        <defs>
                <circle id="rim" cx="0" cy="0" r="7"/>
                <circle id="rim2" cx="0" cy="0" r="3.5"/>
                <g id="zoomPlus">
                        <use xlink:href="#rim" fill="#404040">
                                <set attributeName="fill" to="#808080" begin="zoomplus.mouseover" end="zoomplus.mouseout"/>
                        </use>
                        <path d="M-4,0h8M0,-4v8" fill="none" stroke="white" stroke-width="1.5" pointer-events="none"/>
                </g>
                <g id="zoomMin">
                        <use xlink:href="#rim" fill="#404040">
                                <set attributeName="fill" to="#808080" begin="zoomminus.mouseover" end="zoomminus.mouseout"/>
                        </use>
                        <path d="M-4,0h8" fill="none" stroke="white" stroke-width="1.5" pointer-events="none"/>
                </g>
                <g id="dirArrow">
                        <path fill="none" stroke="white" stroke-width="1.5" d="M0,-3.0v7 M-2.5,-0.5L0,-3.0L2.5,-0.5"/>
                </g>
               <g id="resetDef">
                       <use xlink:href="#rim2" fill="#404040">
                               <set attributeName="fill" to="#808080" begin="reset.mouseover" end="reset.mouseout"/>
                       </use>
               </g>
        </defs>

<script type="text/javascript">
var viewWidth = 574;
var viewHeight = 1106;
var sectionId = 'dynsection-395';
</script>
<script xlink:href="svgpan.js"/>
<svg id="graph" class="graph">
<g id="viewport">
<title>JS_NewObject</title>
<!-- Node131191 -->
<g id="node1" class="node">
<title>Node131191</title>
<polygon fill="#bfbfbf" stroke="#000000" points="0,-554.5 0,-573.5 83,-573.5 83,-554.5 0,-554.5"/>
<text text-anchor="middle" x="41.5" y="-561.5" font-family="Helvetica,sans-Serif" font-size="10.00" fill="#000000">JS_NewObject</text>
</g>
<!-- Node131192 -->
<g id="node2" class="node">
<title>Node131192</title>
<g id="a_node2"><a xlink:href="quickjs_8c.html#a4c9489297c684663f30e517204a9ec14" target="_top" xlink:title="JS_AddIntrinsicBaseObjects">
<polygon fill="none" stroke="#000000" points="299,-850.5 299,-869.5 441,-869.5 441,-850.5 299,-850.5"/>
<text text-anchor="middle" x="370" y="-857.5" font-family="Helvetica,sans-Serif" font-size="10.00" fill="#000000">JS_AddIntrinsicBaseObjects</text>
</a>
</g>
</g>
<!-- Node131191&#45;&gt;Node131192 -->
<g id="edge1" class="edge">
<title>Node131191&#45;&gt;Node131192</title>
<path fill="none" stroke="#191970" d="M44.0727,-583.6228C52.0443,-641.1789 78.272,-807.6062 119,-841 179.1532,-890.3209 277.0042,-880.2406 331.0478,-869.5193"/>
<polygon fill="#191970" stroke="#191970" points="47.5308,-583.076 42.723,-573.6348 40.5938,-584.0135 47.5308,-583.076"/>
</g>
<!-- Node131194 -->
<g id="node4" class="node">
<title>Node131194</title>
<g id="a_node4"><a xlink:href="quickjs_8c.html#a7efb53c2f76fd5cc0e584449437ec09c" target="_top" xlink:title="JS_AddIntrinsicBasicObjects">
<polygon fill="none" stroke="#000000" points="119,-1078.5 119,-1097.5 263,-1097.5 263,-1078.5 119,-1078.5"/>
<text text-anchor="middle" x="191" y="-1085.5" font-family="Helvetica,sans-Serif" font-size="10.00" fill="#000000">JS_AddIntrinsicBasicObjects</text>
</a>
</g>
</g>
<!-- Node131191&#45;&gt;Node131194 -->
<g id="edge3" class="edge">
<title>Node131191&#45;&gt;Node131194</title>
<path fill="none" stroke="#191970" d="M41.9069,-584.1112C43.9999,-668.0462 56.0648,-989.4943 119,-1064 124.3566,-1070.3414 131.4372,-1075.0151 139.0689,-1078.4579"/>
<polygon fill="#191970" stroke="#191970" points="45.401,-583.8118 41.6735,-573.8944 38.4029,-583.9717 45.401,-583.8118"/>
</g>
<!-- Node131196 -->
<g id="node6" class="node">
<title>Node131196</title>
<g id="a_node6"><a xlink:href="quickjs_8c.html#a8ecbf5799518b7bfc3fefd47c7a0dd4e" target="_top" xlink:title="JS_AddIntrinsicDate">
<polygon fill="none" stroke="#000000" points="316.5,-1040.5 316.5,-1059.5 423.5,-1059.5 423.5,-1040.5 316.5,-1040.5"/>
<text text-anchor="middle" x="370" y="-1047.5" font-family="Helvetica,sans-Serif" font-size="10.00" fill="#000000">JS_AddIntrinsicDate</text>
</a>
</g>
</g>
<!-- Node131191&#45;&gt;Node131196 -->
<g id="edge6" class="edge">
<title>Node131191&#45;&gt;Node131196</title>
<path fill="none" stroke="#191970" d="M41.9243,-583.9366C44.0408,-663.1145 56.0508,-954.011 119,-1015 170.902,-1065.2858 259.528,-1065.4525 316.388,-1059.1129"/>
<polygon fill="#191970" stroke="#191970" points="45.421,-583.7553 41.6789,-573.8434 38.4231,-583.9255 45.421,-583.7553"/>
</g>
<!-- Node131197 -->
<g id="node7" class="node">
<title>Node131197</title>
<g id="a_node7"><a xlink:href="quickjs_8c.html#a4497f8c7cf2ec38da989910ae8b1f042" target="_top" xlink:title="JS_AddIntrinsicMapSet">
<polygon fill="none" stroke="#000000" points="310.5,-1002.5 310.5,-1021.5 429.5,-1021.5 429.5,-1002.5 310.5,-1002.5"/>
<text text-anchor="middle" x="370" y="-1009.5" font-family="Helvetica,sans-Serif" font-size="10.00" fill="#000000">JS_AddIntrinsicMapSet</text>
</a>
</g>
</g>
<!-- Node131191&#45;&gt;Node131197 -->
<g id="edge8" class="edge">
<title>Node131191&#45;&gt;Node131197</title>
<path fill="none" stroke="#191970" d="M42.2615,-584.1985C45.5389,-659.569 61.027,-922.8786 119,-978 170.4676,-1026.936 256.8914,-1027.66 313.6833,-1021.5262"/>
<polygon fill="#191970" stroke="#191970" points="45.7411,-583.6251 41.8357,-573.7763 38.7469,-583.9109 45.7411,-583.6251"/>
</g>
<!-- Node131198 -->
<g id="node8" class="node">
<title>Node131198</title>
<g id="a_node8"><a xlink:href="quickjs_8c.html#a2e66fcf1bc1d19f346317f10ee590621" target="_top" xlink:title="JS_AddIntrinsicPromise">
<polygon fill="none" stroke="#000000" points="309,-964.5 309,-983.5 431,-983.5 431,-964.5 309,-964.5"/>
<text text-anchor="middle" x="370" y="-971.5" font-family="Helvetica,sans-Serif" font-size="10.00" fill="#000000">JS_AddIntrinsicPromise</text>
</a>
</g>
</g>
<!-- Node131191&#45;&gt;Node131198 -->
<g id="edge10" class="edge">
<title>Node131191&#45;&gt;Node131198</title>
<path fill="none" stroke="#191970" d="M42.6129,-583.8154C47.0077,-654.4713 65.6058,-892.4881 119,-942 171.9075,-991.0605 260.2487,-990.3393 316.7755,-983.5206"/>
<polygon fill="#191970" stroke="#191970" points="46.0949,-583.4071 42.0074,-573.6326 39.1072,-583.8227 46.0949,-583.4071"/>
</g>
<!-- Node131199 -->
<g id="node9" class="node">
<title>Node131199</title>
<g id="a_node9"><a xlink:href="quickjs_8c.html#aafc8241682ce24b6d72e0f237ee85a51" target="_top" xlink:title="JS_AddIntrinsicRegExp">
<polygon fill="none" stroke="#000000" points="309.5,-926.5 309.5,-945.5 430.5,-945.5 430.5,-926.5 309.5,-926.5"/>
<text text-anchor="middle" x="370" y="-933.5" font-family="Helvetica,sans-Serif" font-size="10.00" fill="#000000">JS_AddIntrinsicRegExp</text>
</a>
</g>
</g>
<!-- Node131191&#45;&gt;Node131199 -->
<g id="edge12" class="edge">
<title>Node131191&#45;&gt;Node131199</title>
<path fill="none" stroke="#191970" d="M43.063,-584.1212C48.6797,-650.8527 70.1549,-863.1287 119,-907 173.8271,-956.2442 264.7903,-953.3446 320.8489,-945.5323"/>
<polygon fill="#191970" stroke="#191970" points="46.5183,-583.4271 42.2203,-573.7432 39.5412,-583.9937 46.5183,-583.4271"/>
</g>
<!-- Node131200 -->
<g id="node10" class="node">
<title>Node131200</title>
<g id="a_node10"><a xlink:href="quickjs_8c.html#a177d09828596bfe6df4bd90b2e93989d" target="_top" xlink:title="JS_AddIntrinsicTypedArrays">
<polygon fill="none" stroke="#000000" points="299.5,-888.5 299.5,-907.5 440.5,-907.5 440.5,-888.5 299.5,-888.5"/>
<text text-anchor="middle" x="370" y="-895.5" font-family="Helvetica,sans-Serif" font-size="10.00" fill="#000000">JS_AddIntrinsicTypedArrays</text>
</a>
</g>
</g>
<!-- Node131191&#45;&gt;Node131200 -->
<g id="edge14" class="edge">
<title>Node131191&#45;&gt;Node131200</title>
<path fill="none" stroke="#191970" d="M43.5294,-583.7676C50.3189,-645.7518 74.3661,-834.4675 119,-873 176.1808,-922.3642 270.2667,-916.5536 325.5596,-907.5112"/>
<polygon fill="#191970" stroke="#191970" points="47.0002,-583.3068 42.4614,-573.7334 40.0395,-584.0477 47.0002,-583.3068"/>
</g>
<!-- Node131201 -->
<g id="node11" class="node">
<title>Node131201</title>
<g id="a_node11"><a xlink:href="quickjs_8c.html#ac2894ff4edcdb4e6841bcce9c76081e3" target="_top" xlink:title="JS_CallInternal">
<polygon fill="none" stroke="#ff0000" points="149.5,-794.5 149.5,-813.5 232.5,-813.5 232.5,-794.5 149.5,-794.5"/>
<text text-anchor="middle" x="191" y="-801.5" font-family="Helvetica,sans-Serif" font-size="10.00" fill="#000000">JS_CallInternal</text>
</a>
</g>
</g>
<!-- Node131191&#45;&gt;Node131201 -->
<g id="edge16" class="edge">
<title>Node131191&#45;&gt;Node131201</title>
<path fill="none" stroke="#191970" d="M42.4662,-583.695C45.6748,-626.8034 59.5056,-730.0443 119,-785 127.3569,-792.7194 138.4762,-797.3768 149.4714,-800.1652"/>
<polygon fill="#191970" stroke="#191970" points="45.9557,-583.4171 41.8355,-573.6563 38.9695,-583.8561 45.9557,-583.4171"/>
</g>
<!-- Node131750 -->
<g id="node12" class="node">
<title>Node131750</title>
<g id="a_node12"><a xlink:href="quickjs_8c.html#a8e59e32f9ef5272d7d0b1d884191321c" target="_top" xlink:title="js_create_desc">
<polygon fill="none" stroke="#ff0000" points="149.5,-756.5 149.5,-775.5 232.5,-775.5 232.5,-756.5 149.5,-756.5"/>
<text text-anchor="middle" x="191" y="-763.5" font-family="Helvetica,sans-Serif" font-size="10.00" fill="#000000">js_create_desc</text>
</a>
</g>
</g>
<!-- Node131191&#45;&gt;Node131750 -->
<g id="edge18" class="edge">
<title>Node131191&#45;&gt;Node131750</title>
<path fill="none" stroke="#191970" d="M44.1251,-583.8517C50.1778,-621.4955 68.6713,-703.3807 119,-747 127.4994,-754.3663 138.5374,-758.9202 149.4069,-761.7225"/>
<polygon fill="#191970" stroke="#191970" points="47.5467,-583.0629 42.6246,-573.6809 40.6216,-584.0846 47.5467,-583.0629"/>
</g>
<!-- Node131426 -->
<g id="node13" class="node">
<title>Node131426</title>
<g id="a_node13"><a xlink:href="quickjs_8c.html#a7346b86113acd072c9cfc8d238c4ff7c" target="_top" xlink:title="js_create_iterator\l_result">
<polygon fill="none" stroke="#ff0000" points="145,-707 145,-737 237,-737 237,-707 145,-707"/>
<text text-anchor="start" x="153" y="-725" font-family="Helvetica,sans-Serif" font-size="10.00" fill="#000000">js_create_iterator</text>
<text text-anchor="middle" x="191" y="-714" font-family="Helvetica,sans-Serif" font-size="10.00" fill="#000000">_result</text>
</a>
</g>
</g>
<!-- Node131191&#45;&gt;Node131426 -->
<g id="edge19" class="edge">
<title>Node131191&#45;&gt;Node131426</title>
<path fill="none" stroke="#191970" d="M47.808,-583.2716C58.176,-612.0396 81.4933,-666.1267 119,-697 126.4578,-703.1388 135.517,-707.8095 144.6577,-711.3501"/>
<polygon fill="#191970" stroke="#191970" points="51.0366,-581.898 44.4657,-573.5869 44.4195,-584.1816 51.0366,-581.898"/>
</g>
<!-- Node131429 -->
<g id="node14" class="node">
<title>Node131429</title>
<g id="a_node14"><a xlink:href="quickjs_8c.html#a01ec0fbafb5672f6286d5f81a8c55769" target="_top" xlink:title="js_instantiate_prototype">
<polygon fill="none" stroke="#ff0000" points="131,-668.5 131,-687.5 251,-687.5 251,-668.5 131,-668.5"/>
<text text-anchor="middle" x="191" y="-675.5" font-family="Helvetica,sans-Serif" font-size="10.00" fill="#000000">js_instantiate_prototype</text>
</a>
</g>
</g>
<!-- Node131191&#45;&gt;Node131429 -->
<g id="edge20" class="edge">
<title>Node131191&#45;&gt;Node131429</title>
<path fill="none" stroke="#191970" d="M51.7675,-582.6699C64.6418,-604.316 88.741,-639.5086 119,-659 124.9775,-662.8505 131.71,-665.9234 138.597,-668.3752"/>
<polygon fill="#191970" stroke="#191970" points="54.6775,-580.7091 46.6604,-573.7827 48.6083,-584.1969 54.6775,-580.7091"/>
</g>
<!-- Node131260 -->
<g id="node15" class="node">
<title>Node131260</title>
<g id="a_node15"><a xlink:href="quickjs_8c.html#a8d95b2b91f50339b621237ad13f9cc47" target="_top" xlink:title="js_json_parse">
<polygon fill="none" stroke="#000000" points="152.5,-630.5 152.5,-649.5 229.5,-649.5 229.5,-630.5 152.5,-630.5"/>
<text text-anchor="middle" x="191" y="-637.5" font-family="Helvetica,sans-Serif" font-size="10.00" fill="#000000">js_json_parse</text>
</a>
</g>
</g>
<!-- Node131191&#45;&gt;Node131260 -->
<g id="edge21" class="edge">
<title>Node131191&#45;&gt;Node131260</title>
<path fill="none" stroke="#191970" d="M59.6008,-580.4075C74.5465,-593.1561 96.8316,-610.3985 119,-621 129.38,-625.964 141.2449,-629.7728 152.3077,-632.6298"/>
<polygon fill="#191970" stroke="#191970" points="61.5377,-577.4518 51.7055,-573.5047 56.9303,-582.7217 61.5377,-577.4518"/>
</g>
<!-- Node131263 -->
<g id="node16" class="node">
<title>Node131263</title>
<g id="a_node16"><a xlink:href="quickjs_8c.html#a343a343b16bc3c9875050e99ee0d2884" target="_top" xlink:title="JS_JSONStringify">
<polygon fill="none" stroke="#ff0000" points="142.5,-592.5 142.5,-611.5 239.5,-611.5 239.5,-592.5 142.5,-592.5"/>
<text text-anchor="middle" x="191" y="-599.5" font-family="Helvetica,sans-Serif" font-size="10.00" fill="#000000">JS_JSONStringify</text>
</a>
</g>
</g>
<!-- Node131191&#45;&gt;Node131263 -->
<g id="edge22" class="edge">
<title>Node131191&#45;&gt;Node131263</title>
<path fill="none" stroke="#191970" d="M89.1516,-576.1121C109.9726,-581.4044 134.0377,-587.5213 153.5461,-592.4799"/>
<polygon fill="#191970" stroke="#191970" points="89.7792,-572.6604 79.2252,-573.589 88.0547,-579.4447 89.7792,-572.6604"/>
</g>
<!-- Node131712 -->
<g id="node17" class="node">
<title>Node131712</title>
<g id="a_node17"><a xlink:href="quickjs_8c.html#a4a08f36e18b6254d214a5105c2f2c2ea" target="_top" xlink:title="js_object_constructor">
<polygon fill="none" stroke="#000000" points="136,-554.5 136,-573.5 246,-573.5 246,-554.5 136,-554.5"/>
<text text-anchor="middle" x="191" y="-561.5" font-family="Helvetica,sans-Serif" font-size="10.00" fill="#000000">js_object_constructor</text>
</a>
</g>
</g>
<!-- Node131191&#45;&gt;Node131712 -->
<g id="edge23" class="edge">
<title>Node131191&#45;&gt;Node131712</title>
<path fill="none" stroke="#191970" d="M93.3867,-564C107.1169,-564 121.9858,-564 135.8808,-564"/>
<polygon fill="#191970" stroke="#191970" points="93.1441,-560.5001 83.1441,-564 93.1441,-567.5001 93.1441,-560.5001"/>
</g>
<!-- Node131225 -->
<g id="node18" class="node">
<title>Node131225</title>
<g id="a_node18"><a xlink:href="quickjs_8c.html#ad6908ae6db4e80d175180b55e19b203e" target="_top" xlink:title="js_object_fromEntries">
<polygon fill="none" stroke="#000000" points="135.5,-516.5 135.5,-535.5 246.5,-535.5 246.5,-516.5 135.5,-516.5"/>
<text text-anchor="middle" x="191" y="-523.5" font-family="Helvetica,sans-Serif" font-size="10.00" fill="#000000">js_object_fromEntries</text>
</a>
</g>
</g>
<!-- Node131191&#45;&gt;Node131225 -->
<g id="edge25" class="edge">
<title>Node131191&#45;&gt;Node131225</title>
<path fill="none" stroke="#191970" d="M89.1516,-551.8879C109.9726,-546.5956 134.0377,-540.4787 153.5461,-535.5201"/>
<polygon fill="#191970" stroke="#191970" points="88.0547,-548.5553 79.2252,-554.411 89.7792,-555.3396 88.0547,-548.5553"/>
</g>
<!-- Node131468 -->
<g id="node19" class="node">
<title>Node131468</title>
<g id="a_node19"><a xlink:href="quickjs_8c.html#a5f75fb513884286c86db6863663f262a" target="_top" xlink:title="js_object_getOwnProperty\lDescriptor">
<polygon fill="none" stroke="#000000" points="125.5,-467 125.5,-497 256.5,-497 256.5,-467 125.5,-467"/>
<text text-anchor="start" x="133.5" y="-485" font-family="Helvetica,sans-Serif" font-size="10.00" fill="#000000">js_object_getOwnProperty</text>
<text text-anchor="middle" x="191" y="-474" font-family="Helvetica,sans-Serif" font-size="10.00" fill="#000000">Descriptor</text>
</a>
</g>
</g>
<!-- Node131191&#45;&gt;Node131468 -->
<g id="edge26" class="edge">
<title>Node131191&#45;&gt;Node131468</title>
<path fill="none" stroke="#191970" d="M60.3454,-547.6189C75.4114,-535.1672 97.4986,-518.3082 119,-507 126.0267,-503.3045 133.7147,-499.9679 141.3681,-497.0251"/>
<polygon fill="#191970" stroke="#191970" points="57.7326,-545.2438 52.3435,-554.3657 62.2449,-550.5954 57.7326,-545.2438"/>
</g>
<!-- Node131449 -->
<g id="node20" class="node">
<title>Node131449</title>
<g id="a_node20"><a xlink:href="quickjs_8c.html#ad4eec5e88dc04d884c28e0f09d9a81f5" target="_top" xlink:title="js_object_getOwnProperty\lDescriptors">
<polygon fill="none" stroke="#000000" points="304.5,-445 304.5,-475 435.5,-475 435.5,-445 304.5,-445"/>
<text text-anchor="start" x="312.5" y="-463" font-family="Helvetica,sans-Serif" font-size="10.00" fill="#000000">js_object_getOwnProperty</text>
<text text-anchor="middle" x="370" y="-452" font-family="Helvetica,sans-Serif" font-size="10.00" fill="#000000">Descriptors</text>
</a>
</g>
</g>
<!-- Node131191&#45;&gt;Node131449 -->
<g id="edge28" class="edge">
<title>Node131191&#45;&gt;Node131449</title>
<path fill="none" stroke="#191970" d="M48.87,-545.0196C59.8348,-519.7777 83.0892,-476.2297 119,-458 179.1323,-427.4745 258.2837,-434.5847 311.4874,-444.9839"/>
<polygon fill="#191970" stroke="#191970" points="45.621,-543.7176 45.0368,-554.2963 52.0905,-546.3908 45.621,-543.7176"/>
</g>
<!-- Node131389 -->
<g id="node21" class="node">
<title>Node131389</title>
<g id="a_node21"><a xlink:href="quickjs-libc_8c.html#a0142166ddf6e134f89207c3ee3c7572c" target="_top" xlink:title="js_os_stat">
<polygon fill="none" stroke="#000000" points="160,-390.5 160,-409.5 222,-409.5 222,-390.5 160,-390.5"/>
<text text-anchor="middle" x="191" y="-397.5" font-family="Helvetica,sans-Serif" font-size="10.00" fill="#000000">js_os_stat</text>
</a>
</g>
</g>
<!-- Node131191&#45;&gt;Node131389 -->
<g id="edge29" class="edge">
<title>Node131191&#45;&gt;Node131389</title>
<path fill="none" stroke="#191970" d="M47.1989,-544.4995C56.9832,-514.3691 79.803,-456.5809 119,-424 130.5514,-414.3984 146.0926,-408.5889 159.7796,-405.0983"/>
<polygon fill="#191970" stroke="#191970" points="43.794,-543.663 44.1777,-554.2509 50.4804,-545.7347 43.794,-543.663"/>
</g>
<!-- Node131281 -->
<g id="node22" class="node">
<title>Node131281</title>
<g id="a_node22"><a xlink:href="quickjs_8c.html#a0bfdeb7e158aebcb79b7c9367a60be80" target="_top" xlink:title="js_promise_all_resolve\l_element">
<polygon fill="none" stroke="#ff0000" points="133,-341 133,-371 249,-371 249,-341 133,-341"/>
<text text-anchor="start" x="141" y="-359" font-family="Helvetica,sans-Serif" font-size="10.00" fill="#000000">js_promise_all_resolve</text>
<text text-anchor="middle" x="191" y="-348" font-family="Helvetica,sans-Serif" font-size="10.00" fill="#000000">_element</text>
</a>
</g>
</g>
<!-- Node131191&#45;&gt;Node131281 -->
<g id="edge30" class="edge">
<title>Node131191&#45;&gt;Node131281</title>
<path fill="none" stroke="#191970" d="M44.4332,-544.4905C51.013,-507.4319 70.3691,-426.5045 119,-381 123.1546,-377.1125 127.9449,-373.8256 133.0401,-371.0472"/>
<polygon fill="#191970" stroke="#191970" points="40.9572,-544.0589 42.7831,-554.4952 47.8639,-545.1981 40.9572,-544.0589"/>
</g>
<!-- Node131338 -->
<g id="node23" class="node">
<title>Node131338</title>
<g id="a_node23"><a xlink:href="quickjs_8c.html#a537862df2984a40ceb9be7878c497cd2" target="_top" xlink:title="js_proxy_revocable">
<polygon fill="none" stroke="#000000" points="140.5,-302.5 140.5,-321.5 241.5,-321.5 241.5,-302.5 140.5,-302.5"/>
<text text-anchor="middle" x="191" y="-309.5" font-family="Helvetica,sans-Serif" font-size="10.00" fill="#000000">js_proxy_revocable</text>
</a>
</g>
</g>
<!-- Node131191&#45;&gt;Node131338 -->
<g id="edge31" class="edge">
<title>Node131191&#45;&gt;Node131338</title>
<path fill="none" stroke="#191970" d="M45.5967,-544.2996C56.451,-493.8968 87.2975,-362.112 119,-332 125.0201,-326.2819 132.5302,-322.1729 140.4089,-319.2257"/>
<polygon fill="#191970" stroke="#191970" points="42.1352,-543.7514 43.4853,-554.2598 48.983,-545.2031 42.1352,-543.7514"/>
</g>
<!-- Node131398 -->
<g id="node24" class="node">
<title>Node131398</title>
<g id="a_node24"><a xlink:href="quickjs_8c.html#a4b8ef2bb3b35e4a5f6ed8bd837a50e7c" target="_top" xlink:title="JS_ReadObjectRec">
<polygon fill="none" stroke="#ff0000" points="139,-246.5 139,-265.5 243,-265.5 243,-246.5 139,-246.5"/>
<text text-anchor="middle" x="191" y="-253.5" font-family="Helvetica,sans-Serif" font-size="10.00" fill="#000000">JS_ReadObjectRec</text>
</a>
</g>
</g>
<!-- Node131191&#45;&gt;Node131398 -->
<g id="edge32" class="edge">
<title>Node131191&#45;&gt;Node131398</title>
<path fill="none" stroke="#191970" d="M45.0138,-544.3959C55.264,-488.9787 86.468,-332.6325 119,-293 129.4326,-280.2903 145.3684,-271.4696 159.5979,-265.6379"/>
<polygon fill="#191970" stroke="#191970" points="41.5511,-543.8755 43.2001,-554.3412 48.4375,-545.1314 41.5511,-543.8755"/>
</g>
<!-- Node131737 -->
<g id="node25" class="node">
<title>Node131737</title>
<g id="a_node25"><a xlink:href="quickjs_8c.html#a04f1ec3f8d1f5c012280eb23e64a7b58" target="_top" xlink:title="JS_SetModuleExportList">
<polygon fill="none" stroke="#ff0000" points="128.5,-208.5 128.5,-227.5 253.5,-227.5 253.5,-208.5 128.5,-208.5"/>
<text text-anchor="middle" x="191" y="-215.5" font-family="Helvetica,sans-Serif" font-size="10.00" fill="#000000">JS_SetModuleExportList</text>
</a>
</g>
</g>
<!-- Node131191&#45;&gt;Node131737 -->
<g id="edge34" class="edge">
<title>Node131191&#45;&gt;Node131737</title>
<path fill="none" stroke="#191970" d="M43.5405,-544.2199C50.5105,-480.4358 75.3899,-281.7275 119,-237 122.7003,-233.2049 127.0621,-230.1381 131.7787,-227.6636"/>
<polygon fill="#191970" stroke="#191970" points="40.0578,-543.8726 42.4786,-554.1872 47.0184,-544.6143 40.0578,-543.8726"/>
</g>
<!-- Node131735 -->
<g id="node26" class="node">
<title>Node131735</title>
<g id="a_node26"><a xlink:href="quickjs-libc_8c.html#a08cea1a0226b7603e6969e2208d99d55" target="_top" xlink:title="js_std_init">
<polygon fill="none" stroke="#ff0000" points="339.5,-189.5 339.5,-208.5 400.5,-208.5 400.5,-189.5 339.5,-189.5"/>
<text text-anchor="middle" x="370" y="-196.5" font-family="Helvetica,sans-Serif" font-size="10.00" fill="#000000">js_std_init</text>
</a>
</g>
</g>
<!-- Node131191&#45;&gt;Node131735 -->
<g id="edge37" class="edge">
<title>Node131191&#45;&gt;Node131735</title>
<path fill="none" stroke="#191970" d="M42.5495,-544.1745C46.6855,-474.5768 64.4007,-243.2235 119,-199 184.3541,-146.0655 293.8285,-172.9463 343.7525,-189.3825"/>
<polygon fill="#191970" stroke="#191970" points="39.0509,-544.0524 41.9809,-554.234 46.0397,-544.4474 39.0509,-544.0524"/>
</g>
<!-- Node131331 -->
<g id="node27" class="node">
<title>Node131331</title>
<g id="a_node27"><a xlink:href="quickjs-libc_8c.html#ad04466feec6822a3b838baf229f6dfa0" target="_top" xlink:title="js_std_add_helpers">
<polygon fill="none" stroke="#ff0000" points="140.5,-132.5 140.5,-151.5 241.5,-151.5 241.5,-132.5 140.5,-132.5"/>
<text text-anchor="middle" x="191" y="-139.5" font-family="Helvetica,sans-Serif" font-size="10.00" fill="#000000">js_std_add_helpers</text>
</a>
</g>
</g>
<!-- Node131191&#45;&gt;Node131331 -->
<g id="edge36" class="edge">
<title>Node131191&#45;&gt;Node131331</title>
<path fill="none" stroke="#191970" d="M42.7778,-543.9775C47.7925,-471.4353 68.3957,-223.6179 119,-166 124.7386,-159.466 132.3039,-154.7059 140.3726,-151.2393"/>
<polygon fill="#191970" stroke="#191970" points="39.256,-544.1893 42.0827,-554.4001 46.2405,-544.6552 39.256,-544.1893"/>
</g>
<!-- Node131418 -->
<g id="node28" class="node">
<title>Node131418</title>
<g id="a_node28"><a xlink:href="quickjs-libc_8c.html#a7aebce2172c6aa4a6645aef600a69e6b" target="_top" xlink:title="js_std_urlGet">
<polygon fill="none" stroke="#000000" points="154,-94.5 154,-113.5 228,-113.5 228,-94.5 154,-94.5"/>
<text text-anchor="middle" x="191" y="-101.5" font-family="Helvetica,sans-Serif" font-size="10.00" fill="#000000">js_std_urlGet</text>
</a>
</g>
</g>
<!-- Node131191&#45;&gt;Node131418 -->
<g id="edge38" class="edge">
<title>Node131191&#45;&gt;Node131418</title>
<path fill="none" stroke="#191970" d="M42.2248,-544.2319C45.4603,-466.8953 61.0777,-186.0072 119,-123 127.9243,-113.2923 141.1672,-108.3041 153.8706,-105.8157"/>
<polygon fill="#191970" stroke="#191970" points="38.7177,-544.3455 41.8204,-554.4758 45.7122,-544.6217 38.7177,-544.3455"/>
</g>
<!-- Node131400 -->
<g id="node29" class="node">
<title>Node131400</title>
<g id="a_node29"><a xlink:href="quickjs_8c.html#a756c1ab5dee9a6dd07723d7a075e2a53" target="_top" xlink:title="json_parse_value">
<polygon fill="none" stroke="#ff0000" points="145,-38.5 145,-57.5 237,-57.5 237,-38.5 145,-38.5"/>
<text text-anchor="middle" x="191" y="-45.5" font-family="Helvetica,sans-Serif" font-size="10.00" fill="#000000">json_parse_value</text>
</a>
</g>
</g>
<!-- Node131191&#45;&gt;Node131400 -->
<g id="edge39" class="edge">
<title>Node131191&#45;&gt;Node131400</title>
<path fill="none" stroke="#191970" d="M42.3753,-543.9486C46.2627,-462.9121 64.2592,-160.3548 119,-85 128.4163,-72.0377 143.7241,-63.2828 157.8089,-57.5584"/>
<polygon fill="#191970" stroke="#191970" points="38.865,-544.0937 41.9014,-554.2441 45.8576,-544.4156 38.865,-544.0937"/>
</g>
<!-- Node131777 -->
<g id="node30" class="node">
<title>Node131777</title>
<g id="a_node30"><a xlink:href="classqjs_1_1Context.html#ab84e72a846bceb8085366950bb328548" target="_top" xlink:title="returns new Object() ">
<polygon fill="none" stroke="#ff0000" points="130,-.5 130,-19.5 252,-19.5 252,-.5 130,-.5"/>
<text text-anchor="middle" x="191" y="-7.5" font-family="Helvetica,sans-Serif" font-size="10.00" fill="#000000">qjs::Context::newObject</text>
</a>
</g>
</g>
<!-- Node131191&#45;&gt;Node131777 -->
<g id="edge41" class="edge">
<title>Node131191&#45;&gt;Node131777</title>
<path fill="none" stroke="#191970" d="M43.1002,-543.9523C50.6578,-451.4138 83.8794,-68.3771 119,-29 122.442,-25.1408 126.5662,-22.0237 131.0754,-19.5111"/>
<polygon fill="#191970" stroke="#191970" points="39.5904,-543.9325 42.2732,-554.182 46.5677,-544.4966 39.5904,-543.9325"/>
</g>
<!-- Node131193 -->
<g id="node3" class="node">
<title>Node131193</title>
<g id="a_node3"><a xlink:href="quickjs_8c.html#ad8aedb643b8753b7a15f6cb2df61945e" target="_top" xlink:title="JS_NewContext">
<polygon fill="none" stroke="#000000" points="477,-964.5 477,-983.5 566,-983.5 566,-964.5 477,-964.5"/>
<text text-anchor="middle" x="521.5" y="-971.5" font-family="Helvetica,sans-Serif" font-size="10.00" fill="#000000">JS_NewContext</text>
</a>
</g>
</g>
<!-- Node131192&#45;&gt;Node131193 -->
<g id="edge2" class="edge">
<title>Node131192&#45;&gt;Node131193</title>
<path fill="none" stroke="#191970" d="M430.3233,-873.2984C434.0453,-874.9797 437.6399,-876.8715 441,-879 476.6116,-901.5583 504.6785,-944.8709 516.0322,-964.2313"/>
<polygon fill="#191970" stroke="#191970" points="431.4551,-869.9819 420.8695,-869.5381 428.8679,-876.4863 431.4551,-869.9819"/>
</g>
<!-- Node131195 -->
<g id="node5" class="node">
<title>Node131195</title>
<g id="a_node5"><a xlink:href="quickjs_8c.html#a442ff496ba00319ad39eb0a129b9eb8b" target="_top" xlink:title="JS_NewContextRaw">
<polygon fill="none" stroke="#000000" points="315.5,-1078.5 315.5,-1097.5 424.5,-1097.5 424.5,-1078.5 315.5,-1078.5"/>
<text text-anchor="middle" x="370" y="-1085.5" font-family="Helvetica,sans-Serif" font-size="10.00" fill="#000000">JS_NewContextRaw</text>
</a>
</g>
</g>
<!-- Node131194&#45;&gt;Node131195 -->
<g id="edge4" class="edge">
<title>Node131194&#45;&gt;Node131195</title>
<path fill="none" stroke="#191970" d="M273.3634,-1088C287.6392,-1088 302.1587,-1088 315.4566,-1088"/>
<polygon fill="#191970" stroke="#191970" points="273.0324,-1084.5001 263.0324,-1088 273.0324,-1091.5001 273.0324,-1084.5001"/>
</g>
<!-- Node131195&#45;&gt;Node131193 -->
<g id="edge5" class="edge">
<title>Node131195&#45;&gt;Node131193</title>
<path fill="none" stroke="#191970" d="M430.3233,-1074.7016C434.0453,-1073.0203 437.6399,-1071.1285 441,-1069 476.6116,-1046.4417 504.6785,-1003.1291 516.0322,-983.7687"/>
<polygon fill="#191970" stroke="#191970" points="428.8679,-1071.5137 420.8695,-1078.4619 431.4551,-1078.0181 428.8679,-1071.5137"/>
</g>
<!-- Node131196&#45;&gt;Node131193 -->
<g id="edge7" class="edge">
<title>Node131196&#45;&gt;Node131193</title>
<path fill="none" stroke="#191970" d="M425.066,-1037.3662C430.5463,-1035.4878 435.9463,-1033.3718 441,-1031 468.1287,-1018.268 495.7851,-996.3069 510.5704,-983.6843"/>
<polygon fill="#191970" stroke="#191970" points="423.6515,-1034.1426 415.1721,-1040.4947 425.762,-1040.8169 423.6515,-1034.1426"/>
</g>
<!-- Node131197&#45;&gt;Node131193 -->
<g id="edge9" class="edge">
<title>Node131197&#45;&gt;Node131193</title>
<path fill="none" stroke="#191970" d="M418.0016,-999.96C439.1668,-994.6512 463.6858,-988.5012 483.5451,-983.5201"/>
<polygon fill="#191970" stroke="#191970" points="417.0779,-996.5832 408.2298,-1002.411 418.7809,-1003.3729 417.0779,-996.5832"/>
</g>
<!-- Node131198&#45;&gt;Node131193 -->
<g id="edge11" class="edge">
<title>Node131198&#45;&gt;Node131193</title>
<path fill="none" stroke="#191970" d="M441.2988,-974C453.4153,-974 465.6841,-974 476.8596,-974"/>
<polygon fill="#191970" stroke="#191970" points="441.1842,-970.5001 431.1842,-974 441.1841,-977.5001 441.1842,-970.5001"/>
</g>
<!-- Node131199&#45;&gt;Node131193 -->
<g id="edge13" class="edge">
<title>Node131199&#45;&gt;Node131193</title>
<path fill="none" stroke="#191970" d="M418.0016,-948.04C439.1668,-953.3488 463.6858,-959.4988 483.5451,-964.4799"/>
<polygon fill="#191970" stroke="#191970" points="418.7809,-944.6271 408.2298,-945.589 417.0779,-951.4168 418.7809,-944.6271"/>
</g>
<!-- Node131200&#45;&gt;Node131193 -->
<g id="edge15" class="edge">
<title>Node131200&#45;&gt;Node131193</title>
<path fill="none" stroke="#191970" d="M425.066,-910.6338C430.5463,-912.5122 435.9463,-914.6282 441,-917 468.1287,-929.732 495.7851,-951.6931 510.5704,-964.3157"/>
<polygon fill="#191970" stroke="#191970" points="425.762,-907.1831 415.1721,-907.5053 423.6515,-913.8574 425.762,-907.1831"/>
</g>
<!-- Node131201&#45;&gt;Node131201 -->
<g id="edge17" class="edge">
<title>Node131201&#45;&gt;Node131201</title>
<path fill="none" stroke="#191970" d="M163.3742,-822.6539C164.5289,-827.9368 173.7375,-832 191,-832 217.3047,-832 224.9084,-822.5653 213.8111,-813.7571"/>
<polygon fill="#191970" stroke="#191970" points="166.5076,-824.2176 168.1889,-813.7571 160.3512,-820.886 166.5076,-824.2176"/>
</g>
<!-- Node131712&#45;&gt;Node131192 -->
<g id="edge24" class="edge">
<title>Node131712&#45;&gt;Node131192</title>
<path fill="none" stroke="#191970" d="M255.025,-577.1247C257.8623,-578.8522 260.5436,-580.8014 263,-583 348.0853,-659.158 366.0366,-810.8976 369.3298,-850.413"/>
<polygon fill="#191970" stroke="#191970" points="256.6134,-574.0059 246.1151,-572.579 253.4322,-580.2413 256.6134,-574.0059"/>
</g>
<!-- Node131468&#45;&gt;Node131449 -->
<g id="edge27" class="edge">
<title>Node131468&#45;&gt;Node131449</title>
<path fill="none" stroke="#191970" d="M266.6057,-472.7077C279.1607,-471.1646 292.0895,-469.5756 304.3714,-468.0661"/>
<polygon fill="#191970" stroke="#191970" points="266.1349,-469.2391 256.6366,-473.9329 266.9889,-476.1868 266.1349,-469.2391"/>
</g>
<!-- Node131398&#45;&gt;Node131398 -->
<g id="edge33" class="edge">
<title>Node131398&#45;&gt;Node131398</title>
<path fill="none" stroke="#191970" d="M163.3742,-274.6539C164.5289,-279.9368 173.7375,-284 191,-284 217.3047,-284 224.9084,-274.5653 213.8111,-265.7571"/>
<polygon fill="#191970" stroke="#191970" points="166.5076,-276.2176 168.1889,-265.7571 160.3512,-272.886 166.5076,-276.2176"/>
</g>
<!-- Node131737&#45;&gt;Node131735 -->
<g id="edge35" class="edge">
<title>Node131737&#45;&gt;Node131735</title>
<path fill="none" stroke="#191970" d="M263.6131,-210.2925C290.0378,-207.4876 318.5005,-204.4664 339.3306,-202.2554"/>
<polygon fill="#191970" stroke="#191970" points="263.1802,-206.8187 253.6055,-211.3547 263.9191,-213.7796 263.1802,-206.8187"/>
</g>
<!-- Node131400&#45;&gt;Node131400 -->
<g id="edge40" class="edge">
<title>Node131400&#45;&gt;Node131400</title>
<path fill="none" stroke="#191970" d="M163.3742,-66.6539C164.5289,-71.9368 173.7375,-76 191,-76 217.3047,-76 224.9084,-66.5653 213.8111,-57.7571"/>
<polygon fill="#191970" stroke="#191970" points="166.5076,-68.2176 168.1889,-57.7571 160.3512,-64.886 166.5076,-68.2176"/>
</g>
</g>
</svg>
        <g id="navigator" transform="translate(0 0)" fill="#404254">
                <rect fill="#f2f5e9" fill-opacity="0.5" stroke="#606060" stroke-width=".5" x="0" y="0" width="60" height="60"/>
                <use id="zoomplus" xlink:href="#zoomPlus" x="17" y="9" onmousedown="handleZoom(evt,'in')"/>
                <use id="zoomminus" xlink:href="#zoomMin" x="42" y="9" onmousedown="handleZoom(evt,'out')"/>
                <use id="reset" xlink:href="#resetDef" x="30" y="36" onmousedown="handleReset()"/>
                <g id="arrowUp" xlink:href="#dirArrow" transform="translate(30 24)" onmousedown="handlePan(0,-1)">
                  <use xlink:href="#rim" fill="#404040">
                        <set attributeName="fill" to="#808080" begin="arrowUp.mouseover" end="arrowUp.mouseout"/>
                  </use>
                  <path fill="none" stroke="white" stroke-width="1.5" d="M0,-3.0v7 M-2.5,-0.5L0,-3.0L2.5,-0.5"/>
                </g>
                <g id="arrowRight" xlink:href="#dirArrow" transform="rotate(90) translate(36 -43)" onmousedown="handlePan(1,0)">
                  <use xlink:href="#rim" fill="#404040">
                        <set attributeName="fill" to="#808080" begin="arrowRight.mouseover" end="arrowRight.mouseout"/>
                  </use>
                  <path fill="none" stroke="white" stroke-width="1.5" d="M0,-3.0v7 M-2.5,-0.5L0,-3.0L2.5,-0.5"/>
                </g>
                <g id="arrowDown" xlink:href="#dirArrow" transform="rotate(180) translate(-30 -48)" onmousedown="handlePan(0,1)">
                  <use xlink:href="#rim" fill="#404040">
                        <set attributeName="fill" to="#808080" begin="arrowDown.mouseover" end="arrowDown.mouseout"/>
                  </use>
                  <path fill="none" stroke="white" stroke-width="1.5" d="M0,-3.0v7 M-2.5,-0.5L0,-3.0L2.5,-0.5"/>
                </g>
                <g id="arrowLeft" xlink:href="#dirArrow" transform="rotate(270) translate(-36 17)" onmousedown="handlePan(-1,0)">
                  <use xlink:href="#rim" fill="#404040">
                        <set attributeName="fill" to="#808080" begin="arrowLeft.mouseover" end="arrowLeft.mouseout"/>
                  </use>
                  <path fill="none" stroke="white" stroke-width="1.5" d="M0,-3.0v7 M-2.5,-0.5L0,-3.0L2.5,-0.5"/>
                </g>
        </g>
        <svg viewBox="0 0 15 15" width="100%" height="30px" preserveAspectRatio="xMaxYMin meet">
         <g id="arrow_out" transform="scale(0.3 0.3)">
          <a xlink:href="quickjs_8c_afc0d8ea75588216ec132a6e1655524a7_icgraph_org.svg" target="_base">
           <rect id="button" ry="5" rx="5" y="6" x="6" height="38" width="38"
                fill="#f2f5e9" fill-opacity="0.5" stroke="#606060" stroke-width="1.0"/>
           <path id="arrow"
             d="M 11.500037,31.436501 C 11.940474,20.09759 22.043105,11.32322 32.158766,21.979434 L 37.068811,17.246167 C 37.068811,17.246167 37.088388,32 37.088388,32 L 22.160133,31.978069 C 22.160133,31.978069 26.997745,27.140456 26.997745,27.140456 C 18.528582,18.264221 13.291696,25.230495 11.500037,31.436501 z"
             style="fill:#404040;"/>
          </a>
         </g>
        </svg>
</svg>
