<?xml version="1.0" encoding="UTF-8" standalone="no"?>
<!DOCTYPE svg PUBLIC "-//W3C//DTD SVG 1.1//EN"
 "http://www.w3.org/Graphics/SVG/1.1/DTD/svg11.dtd">
<!-- Generated by graphviz version 2.40.1 (20161225.0304)
 -->
<!-- Title: JS_CheckBrand Pages: 1 -->
<svg width="554pt" height="995pt"
 viewBox="0.00 0.00 554.00 995.00" xmlns="http://www.w3.org/2000/svg" xmlns:xlink="http://www.w3.org/1999/xlink">
<g id="graph0" class="graph" transform="scale(1 1) rotate(0) translate(4 991)">
<title>JS_CheckBrand</title>
<!-- Node174186 -->
<g id="node1" class="node">
<title>Node174186</title>
<polygon fill="#bfbfbf" stroke="#000000" points="0,-340.5 0,-359.5 88,-359.5 88,-340.5 0,-340.5"/>
<text text-anchor="middle" x="44" y="-347.5" font-family="Helvetica,sans-Serif" font-size="10.00" fill="#000000">JS_CheckBrand</text>
</g>
<!-- Node174187 -->
<g id="node2" class="node">
<title>Node174187</title>
<g id="a_node2"><a xlink:href="quickjs_8c.html#ac2894ff4edcdb4e6841bcce9c76081e3" target="_top" xlink:title="JS_CallInternal">
<polygon fill="none" stroke="#000000" points="124,-340.5 124,-359.5 207,-359.5 207,-340.5 124,-340.5"/>
<text text-anchor="middle" x="165.5" y="-347.5" font-family="Helvetica,sans-Serif" font-size="10.00" fill="#000000">JS_CallInternal</text>
</a>
</g>
</g>
<!-- Node174186&#45;&gt;Node174187 -->
<g id="edge1" class="edge">
<title>Node174186&#45;&gt;Node174187</title>
<path fill="none" stroke="#191970" d="M98.2216,-350C106.8576,-350 115.6717,-350 123.9548,-350"/>
<polygon fill="#191970" stroke="#191970" points="98.208,-346.5001 88.208,-350 98.208,-353.5001 98.208,-346.5001"/>
</g>
<!-- Node174187&#45;&gt;Node174187 -->
<g id="edge40" class="edge">
<title>Node174187&#45;&gt;Node174187</title>
<path fill="none" stroke="#191970" d="M143.1787,-369.0292C144.3962,-374.128 151.8367,-378 165.5,-378 186.8281,-378 192.9933,-368.5653 183.9955,-359.7571"/>
<polygon fill="#191970" stroke="#191970" points="146.4256,-370.3361 147.0045,-359.7571 139.9548,-367.6661 146.4256,-370.3361"/>
</g>
<!-- Node174188 -->
<g id="node3" class="node">
<title>Node174188</title>
<g id="a_node3"><a xlink:href="quickjs_8c.html#ade71a22dc56e7371392393df663b28b3" target="_top" xlink:title="async_func_resume">
<polygon fill="none" stroke="#000000" points="258,-874.5 258,-893.5 362,-893.5 362,-874.5 258,-874.5"/>
<text text-anchor="middle" x="310" y="-881.5" font-family="Helvetica,sans-Serif" font-size="10.00" fill="#000000">async_func_resume</text>
</a>
</g>
</g>
<!-- Node174187&#45;&gt;Node174188 -->
<g id="edge2" class="edge">
<title>Node174187&#45;&gt;Node174188</title>
<path fill="none" stroke="#191970" d="M170.7489,-369.3972C194.3253,-456.524 290.0372,-810.2275 307.3189,-874.092"/>
<polygon fill="#191970" stroke="#191970" points="174.122,-368.463 168.1314,-359.7244 167.365,-370.2915 174.122,-368.463"/>
</g>
<!-- Node174200 -->
<g id="node8" class="node">
<title>Node174200</title>
<g id="a_node8"><a xlink:href="quickjs_8c.html#a1a4c02a29525d5cb2085dd8bca3af350" target="_top" xlink:title="JS_Call">
<polygon fill="none" stroke="#ff0000" points="284.5,-378.5 284.5,-397.5 335.5,-397.5 335.5,-378.5 284.5,-378.5"/>
<text text-anchor="middle" x="310" y="-385.5" font-family="Helvetica,sans-Serif" font-size="10.00" fill="#000000">JS_Call</text>
</a>
</g>
</g>
<!-- Node174187&#45;&gt;Node174200 -->
<g id="edge7" class="edge">
<title>Node174187&#45;&gt;Node174200</title>
<path fill="none" stroke="#191970" d="M217.3524,-357.1309C243.197,-363.291 272.8346,-371.6885 291.4855,-378.4368"/>
<polygon fill="#191970" stroke="#191970" points="217.8269,-353.6484 207.2954,-354.8052 216.2497,-360.4684 217.8269,-353.6484"/>
</g>
<!-- Node174274 -->
<g id="node29" class="node">
<title>Node174274</title>
<g id="a_node29"><a xlink:href="quickjs_8c.html#ad35594576a14c10812efaf958c99af8a" target="_top" xlink:title="JS_CallConstructorInternal">
<polygon fill="none" stroke="#ff0000" points="243,-264.5 243,-283.5 377,-283.5 377,-264.5 243,-264.5"/>
<text text-anchor="middle" x="310" y="-271.5" font-family="Helvetica,sans-Serif" font-size="10.00" fill="#000000">JS_CallConstructorInternal</text>
</a>
</g>
</g>
<!-- Node174187&#45;&gt;Node174274 -->
<g id="edge34" class="edge">
<title>Node174187&#45;&gt;Node174274</title>
<path fill="none" stroke="#191970" d="M177.5491,-332.5463C192.0695,-317.2145 217.6856,-296.3922 243,-284 243.3258,-283.8405 243.6531,-283.6822 243.9819,-283.525"/>
<polygon fill="#191970" stroke="#191970" points="174.627,-330.572 170.6961,-340.4106 179.9045,-335.1708 174.627,-330.572"/>
</g>
<!-- Node174288 -->
<g id="node30" class="node">
<title>Node174288</title>
<g id="a_node30"><a xlink:href="quickjs_8c.html#a75f6ee5e4235a7dc99889f3d2eb2c147" target="_top" xlink:title="JS_CallFree">
<polygon fill="none" stroke="#ff0000" points="274.5,-302.5 274.5,-321.5 345.5,-321.5 345.5,-302.5 274.5,-302.5"/>
<text text-anchor="middle" x="310" y="-309.5" font-family="Helvetica,sans-Serif" font-size="10.00" fill="#000000">JS_CallFree</text>
</a>
</g>
</g>
<!-- Node174187&#45;&gt;Node174288 -->
<g id="edge36" class="edge">
<title>Node174187&#45;&gt;Node174288</title>
<path fill="none" stroke="#191970" d="M193.6305,-337.1263C216.6733,-329.5295 249.4179,-320.7723 274.3055,-315.4723"/>
<polygon fill="#191970" stroke="#191970" points="192.4119,-333.8441 184.095,-340.4076 194.6897,-340.4632 192.4119,-333.8441"/>
</g>
<!-- Node174189 -->
<g id="node4" class="node">
<title>Node174189</title>
<g id="a_node4"><a xlink:href="quickjs_8c.html#ac90552b1f1659acb3dae9a4c62479a30" target="_top" xlink:title="js_generator_function_call">
<polygon fill="none" stroke="#ff0000" points="414.5,-967.5 414.5,-986.5 544.5,-986.5 544.5,-967.5 414.5,-967.5"/>
<text text-anchor="middle" x="479.5" y="-974.5" font-family="Helvetica,sans-Serif" font-size="10.00" fill="#000000">js_generator_function_call</text>
</a>
</g>
</g>
<!-- Node174188&#45;&gt;Node174189 -->
<g id="edge3" class="edge">
<title>Node174188&#45;&gt;Node174189</title>
<path fill="none" stroke="#191970" d="M328.4671,-900.3133C348.1641,-916.9499 380.8865,-942.4617 413,-958 420.782,-961.7654 429.4469,-964.9157 437.8825,-967.499"/>
<polygon fill="#191970" stroke="#191970" points="330.488,-897.4351 320.6226,-893.5717 325.9255,-902.7439 330.488,-897.4351"/>
</g>
<!-- Node174193 -->
<g id="node5" class="node">
<title>Node174193</title>
<g id="a_node5"><a xlink:href="quickjs_8c.html#a1bf6b62983e8fff99c0a5d5a9f486115" target="_top" xlink:title="js_async_function_resume">
<polygon fill="none" stroke="#ff0000" points="413,-830.5 413,-849.5 546,-849.5 546,-830.5 413,-830.5"/>
<text text-anchor="middle" x="479.5" y="-837.5" font-family="Helvetica,sans-Serif" font-size="10.00" fill="#000000">js_async_function_resume</text>
</a>
</g>
</g>
<!-- Node174188&#45;&gt;Node174193 -->
<g id="edge4" class="edge">
<title>Node174188&#45;&gt;Node174193</title>
<path fill="none" stroke="#191970" d="M356.4651,-871.9383C383.6496,-864.8815 417.4877,-856.0976 442.7928,-849.5287"/>
<polygon fill="#191970" stroke="#191970" points="355.5787,-868.5523 346.779,-874.4527 357.3376,-875.3277 355.5787,-868.5523"/>
</g>
<!-- Node174198 -->
<g id="node6" class="node">
<title>Node174198</title>
<g id="a_node6"><a xlink:href="quickjs_8c.html#a89b019c704a2d2914bc30b30a72040b3" target="_top" xlink:title="js_async_generator\l_resume_next">
<polygon fill="none" stroke="#000000" points="429,-918 429,-948 530,-948 530,-918 429,-918"/>
<text text-anchor="start" x="437" y="-936" font-family="Helvetica,sans-Serif" font-size="10.00" fill="#000000">js_async_generator</text>
<text text-anchor="middle" x="479.5" y="-925" font-family="Helvetica,sans-Serif" font-size="10.00" fill="#000000">_resume_next</text>
</a>
</g>
</g>
<!-- Node174188&#45;&gt;Node174198 -->
<g id="edge5" class="edge">
<title>Node174188&#45;&gt;Node174198</title>
<path fill="none" stroke="#191970" d="M352.9372,-896.4125C376.0226,-903.0862 404.6309,-911.3564 428.805,-918.3448"/>
<polygon fill="#191970" stroke="#191970" points="353.6623,-892.9789 343.0837,-893.564 351.7183,-899.7036 353.6623,-892.9789"/>
</g>
<!-- Node174199 -->
<g id="node7" class="node">
<title>Node174199</title>
<g id="a_node7"><a xlink:href="quickjs_8c.html#ae19867da709929c072f05e90301835a4" target="_top" xlink:title="js_async_generator\l_function_call">
<polygon fill="none" stroke="#ff0000" points="429,-869 429,-899 530,-899 530,-869 429,-869"/>
<text text-anchor="start" x="437" y="-887" font-family="Helvetica,sans-Serif" font-size="10.00" fill="#000000">js_async_generator</text>
<text text-anchor="middle" x="479.5" y="-876" font-family="Helvetica,sans-Serif" font-size="10.00" fill="#000000">_function_call</text>
</a>
</g>
</g>
<!-- Node174188&#45;&gt;Node174199 -->
<g id="edge6" class="edge">
<title>Node174188&#45;&gt;Node174199</title>
<path fill="none" stroke="#191970" d="M372.388,-884C390.9885,-884 411.1368,-884 428.8866,-884"/>
<polygon fill="#191970" stroke="#191970" points="372.2387,-880.5001 362.2387,-884 372.2386,-887.5001 372.2387,-880.5001"/>
</g>
<!-- Node174200&#45;&gt;Node174187 -->
<g id="edge15" class="edge">
<title>Node174200&#45;&gt;Node174187</title>
<path fill="none" stroke="#191970" d="M274.4088,-384.5497C245.8289,-378.469 206.8374,-367.8129 184.095,-359.5924"/>
<polygon fill="#191970" stroke="#191970" points="273.923,-388.0222 284.4179,-386.57 275.3081,-381.1605 273.923,-388.0222"/>
</g>
<!-- Node174200&#45;&gt;Node174193 -->
<g id="edge16" class="edge">
<title>Node174200&#45;&gt;Node174193</title>
<path fill="none" stroke="#191970" d="M312.0847,-407.927C320.4965,-484.64 354.3319,-759.645 413,-821 416.6512,-824.8184 421.0118,-827.8855 425.73,-830.3468"/>
<polygon fill="#191970" stroke="#191970" points="315.5382,-407.3053 310.9903,-397.7362 308.5782,-408.0528 315.5382,-407.3053"/>
</g>
<!-- Node174201 -->
<g id="node9" class="node">
<title>Node174201</title>
<g id="a_node9"><a xlink:href="structqjs_1_1js__traits_3_01std_1_1function_3_01R_07Args_8_8_8_08_4_01_4.html#abc36cacd670b6b5f1773734a0586a02b" target="_top" xlink:title="qjs::js_traits\&lt; std\l::function\&lt; R(Args...)\l\&gt; \&gt;::unwrap">
<polygon fill="none" stroke="#000000" points="425,-392.5 425,-433.5 534,-433.5 534,-392.5 425,-392.5"/>
<text text-anchor="start" x="433" y="-421.5" font-family="Helvetica,sans-Serif" font-size="10.00" fill="#000000">qjs::js_traits&lt; std</text>
<text text-anchor="start" x="433" y="-410.5" font-family="Helvetica,sans-Serif" font-size="10.00" fill="#000000">::function&lt; R(Args...)</text>
<text text-anchor="middle" x="479.5" y="-399.5" font-family="Helvetica,sans-Serif" font-size="10.00" fill="#000000">&gt; &gt;::unwrap</text>
</a>
</g>
</g>
<!-- Node174200&#45;&gt;Node174201 -->
<g id="edge8" class="edge">
<title>Node174200&#45;&gt;Node174201</title>
<path fill="none" stroke="#191970" d="M345.7116,-393.2672C368.6128,-396.645 398.7972,-401.0969 424.6986,-404.9172"/>
<polygon fill="#191970" stroke="#191970" points="346.1471,-389.7936 335.7434,-391.797 345.1256,-396.7187 346.1471,-389.7936"/>
</g>
<!-- Node174202 -->
<g id="node10" class="node">
<title>Node174202</title>
<g id="a_node10"><a xlink:href="quickjs-libc_8c.html#abb1cbe3fdf905e81f603a3a0bfce475a" target="_top" xlink:title="call_handler">
<polygon fill="none" stroke="#ff0000" points="445.5,-354.5 445.5,-373.5 513.5,-373.5 513.5,-354.5 445.5,-354.5"/>
<text text-anchor="middle" x="479.5" y="-361.5" font-family="Helvetica,sans-Serif" font-size="10.00" fill="#000000">call_handler</text>
</a>
</g>
</g>
<!-- Node174200&#45;&gt;Node174202 -->
<g id="edge9" class="edge">
<title>Node174200&#45;&gt;Node174202</title>
<path fill="none" stroke="#191970" d="M345.9702,-382.9069C375.3013,-378.7538 416.4516,-372.9272 445.2948,-368.8432"/>
<polygon fill="#191970" stroke="#191970" points="345.1539,-379.4875 335.7434,-384.3549 346.1354,-386.4183 345.1539,-379.4875"/>
</g>
<!-- Node174207 -->
<g id="node11" class="node">
<title>Node174207</title>
<g id="a_node11"><a xlink:href="quickjs_8c.html#aa049793cc8648d35fe81876a2543ca4e" target="_top" xlink:title="JS_GetIterator2">
<polygon fill="none" stroke="#ff0000" points="436.5,-316.5 436.5,-335.5 522.5,-335.5 522.5,-316.5 436.5,-316.5"/>
<text text-anchor="middle" x="479.5" y="-323.5" font-family="Helvetica,sans-Serif" font-size="10.00" fill="#000000">JS_GetIterator2</text>
</a>
</g>
</g>
<!-- Node174200&#45;&gt;Node174207 -->
<g id="edge10" class="edge">
<title>Node174200&#45;&gt;Node174207</title>
<path fill="none" stroke="#191970" d="M345.3423,-376.395C355.6658,-372.723 366.8882,-368.4527 377,-364 393.5575,-356.709 396.2121,-351.7435 413,-345 421.9135,-341.4196 431.7502,-338.2214 441.0626,-335.5163"/>
<polygon fill="#191970" stroke="#191970" points="344.0809,-373.128 335.7855,-379.7188 346.3804,-379.7396 344.0809,-373.128"/>
</g>
<!-- Node174229 -->
<g id="node12" class="node">
<title>Node174229</title>
<g id="a_node12"><a xlink:href="quickjs_8c.html#ad6303fbd3add4afa0cb64b0aa6d431ce" target="_top" xlink:title="JS_IteratorNext2">
<polygon fill="none" stroke="#ff0000" points="434,-278.5 434,-297.5 525,-297.5 525,-278.5 434,-278.5"/>
<text text-anchor="middle" x="479.5" y="-285.5" font-family="Helvetica,sans-Serif" font-size="10.00" fill="#000000">JS_IteratorNext2</text>
</a>
</g>
</g>
<!-- Node174200&#45;&gt;Node174229 -->
<g id="edge11" class="edge">
<title>Node174200&#45;&gt;Node174229</title>
<path fill="none" stroke="#191970" d="M345.3224,-380.1664C356.2689,-376.5326 367.8475,-371.3368 377,-364 400.3787,-345.2593 389.0187,-324.9631 413,-307 419.1505,-302.393 426.3819,-298.902 433.7695,-296.257"/>
<polygon fill="#191970" stroke="#191970" points="344.1201,-376.8724 335.5349,-383.081 346.118,-383.5813 344.1201,-376.8724"/>
</g>
<!-- Node174233 -->
<g id="node13" class="node">
<title>Node174233</title>
<g id="a_node13"><a xlink:href="quickjs_8c.html#a62424fefab7bcc97f49c978205c7a1c1" target="_top" xlink:title="js_for_await_of_next">
<polygon fill="none" stroke="#000000" points="426,-792.5 426,-811.5 533,-811.5 533,-792.5 426,-792.5"/>
<text text-anchor="middle" x="479.5" y="-799.5" font-family="Helvetica,sans-Serif" font-size="10.00" fill="#000000">js_for_await_of_next</text>
</a>
</g>
</g>
<!-- Node174200&#45;&gt;Node174233 -->
<g id="edge12" class="edge">
<title>Node174200&#45;&gt;Node174233</title>
<path fill="none" stroke="#191970" d="M317.5257,-407.4189C331.0233,-442.8427 359.5623,-520.5268 377,-588 399.052,-673.3277 353.7352,-717.7712 413,-783 416.6334,-786.9991 421.0443,-790.1793 425.847,-792.705"/>
<polygon fill="#191970" stroke="#191970" points="320.7,-405.9215 313.8486,-397.8401 314.1649,-408.4303 320.7,-405.9215"/>
</g>
<!-- Node174234 -->
<g id="node14" class="node">
<title>Node174234</title>
<g id="a_node14"><a xlink:href="quickjs_8c.html#afd4ef2d701fa0702f321925b61c57bbf" target="_top" xlink:title="js_call_bound_function">
<polygon fill="none" stroke="#ff0000" points="421.5,-240.5 421.5,-259.5 537.5,-259.5 537.5,-240.5 421.5,-240.5"/>
<text text-anchor="middle" x="479.5" y="-247.5" font-family="Helvetica,sans-Serif" font-size="10.00" fill="#000000">js_call_bound_function</text>
</a>
</g>
</g>
<!-- Node174200&#45;&gt;Node174234 -->
<g id="edge14" class="edge">
<title>Node174200&#45;&gt;Node174234</title>
<path fill="none" stroke="#191970" d="M345.3781,-381.4933C356.6487,-377.9274 368.4083,-372.4362 377,-364 409.2175,-332.3654 379.7613,-299.5599 413,-269 417.2427,-265.0992 422.2323,-261.9932 427.5396,-259.5212"/>
<polygon fill="#191970" stroke="#191970" points="344.4055,-378.1308 335.6914,-384.157 346.2615,-384.8802 344.4055,-378.1308"/>
</g>
<!-- Node174235 -->
<g id="node15" class="node">
<title>Node174235</title>
<g id="a_node15"><a xlink:href="quickjs_8c.html#a3e852026d167fa03c673f86697dd3e67" target="_top" xlink:title="js_async_generator\l_resolve_or_reject">
<polygon fill="none" stroke="#ff0000" points="429,-191 429,-221 530,-221 530,-191 429,-191"/>
<text text-anchor="start" x="437" y="-209" font-family="Helvetica,sans-Serif" font-size="10.00" fill="#000000">js_async_generator</text>
<text text-anchor="middle" x="479.5" y="-198" font-family="Helvetica,sans-Serif" font-size="10.00" fill="#000000">_resolve_or_reject</text>
</a>
</g>
</g>
<!-- Node174200&#45;&gt;Node174235 -->
<g id="edge17" class="edge">
<title>Node174200&#45;&gt;Node174235</title>
<path fill="none" stroke="#191970" d="M345.5957,-382.049C356.9874,-378.5241 368.7665,-372.9166 377,-364 418.5441,-319.0088 371.8086,-276.3144 413,-231 417.48,-226.0715 423.029,-222.1099 428.9965,-218.9265"/>
<polygon fill="#191970" stroke="#191970" points="344.5576,-378.7031 335.7834,-384.6414 346.3457,-385.4709 344.5576,-378.7031"/>
</g>
<!-- Node174238 -->
<g id="node16" class="node">
<title>Node174238</title>
<g id="a_node16"><a xlink:href="quickjs_8c.html#a2355fabf91f59212ea65baba1b0b7c1b" target="_top" xlink:title="js_async_generator_next">
<polygon fill="none" stroke="#000000" points="417,-152.5 417,-171.5 542,-171.5 542,-152.5 417,-152.5"/>
<text text-anchor="middle" x="479.5" y="-159.5" font-family="Helvetica,sans-Serif" font-size="10.00" fill="#000000">js_async_generator_next</text>
</a>
</g>
</g>
<!-- Node174200&#45;&gt;Node174238 -->
<g id="edge18" class="edge">
<title>Node174200&#45;&gt;Node174238</title>
<path fill="none" stroke="#191970" d="M345.6823,-382.4491C357.1883,-378.957 369.0169,-373.268 377,-364 430.8136,-301.5251 357.5859,-243.0597 413,-182 416.9701,-177.6255 421.8566,-174.1929 427.1634,-171.5018"/>
<polygon fill="#191970" stroke="#191970" points="344.5797,-379.1184 335.7588,-384.9871 346.3142,-385.9001 344.5797,-379.1184"/>
</g>
<!-- Node174239 -->
<g id="node17" class="node">
<title>Node174239</title>
<g id="a_node17"><a xlink:href="quickjs_8c.html#a6357b7fdae71c70c140e78e6c20cb5c2" target="_top" xlink:title="js_dynamic_import_job">
<polygon fill="none" stroke="#ff0000" points="421.5,-114.5 421.5,-133.5 537.5,-133.5 537.5,-114.5 421.5,-114.5"/>
<text text-anchor="middle" x="479.5" y="-121.5" font-family="Helvetica,sans-Serif" font-size="10.00" fill="#000000">js_dynamic_import_job</text>
</a>
</g>
</g>
<!-- Node174200&#45;&gt;Node174239 -->
<g id="edge19" class="edge">
<title>Node174200&#45;&gt;Node174239</title>
<path fill="none" stroke="#191970" d="M345.5904,-382.681C357.1973,-379.21 369.1135,-373.475 377,-364 440.6643,-287.5117 346.859,-217.357 413,-143 416.4315,-139.1423 420.5864,-136.0444 425.1249,-133.5601"/>
<polygon fill="#191970" stroke="#191970" points="344.4306,-379.3632 335.579,-385.1855 346.1295,-386.1539 344.4306,-379.3632"/>
</g>
<!-- Node174241 -->
<g id="node18" class="node">
<title>Node174241</title>
<g id="a_node18"><a xlink:href="quickjs_8c.html#a8d4b24969540aff427939eeda47f451d" target="_top" xlink:title="js_function_apply">
<polygon fill="none" stroke="#ff0000" points="433.5,-76.5 433.5,-95.5 525.5,-95.5 525.5,-76.5 433.5,-76.5"/>
<text text-anchor="middle" x="479.5" y="-83.5" font-family="Helvetica,sans-Serif" font-size="10.00" fill="#000000">js_function_apply</text>
</a>
</g>
</g>
<!-- Node174200&#45;&gt;Node174241 -->
<g id="edge20" class="edge">
<title>Node174200&#45;&gt;Node174241</title>
<path fill="none" stroke="#191970" d="M345.7146,-382.7832C357.3331,-379.3217 369.2248,-373.5665 377,-364 450.2998,-273.813 336.7789,-192.7321 413,-105 418.3549,-98.8364 425.557,-94.6066 433.2472,-91.7183"/>
<polygon fill="#191970" stroke="#191970" points="344.5474,-379.4666 335.6852,-385.2729 346.2339,-386.2605 344.5474,-379.4666"/>
</g>
<!-- Node174244 -->
<g id="node19" class="node">
<title>Node174244</title>
<g id="a_node19"><a xlink:href="quickjs_8c.html#a677ad630a103e1f3d5129e0549112b50" target="_top" xlink:title="js_function_call">
<polygon fill="none" stroke="#000000" points="437.5,-754.5 437.5,-773.5 521.5,-773.5 521.5,-754.5 437.5,-754.5"/>
<text text-anchor="middle" x="479.5" y="-761.5" font-family="Helvetica,sans-Serif" font-size="10.00" fill="#000000">js_function_call</text>
</a>
</g>
</g>
<!-- Node174200&#45;&gt;Node174244 -->
<g id="edge22" class="edge">
<title>Node174200&#45;&gt;Node174244</title>
<path fill="none" stroke="#191970" d="M317.241,-407.4957C330.2837,-443.0423 358.1211,-520.9157 377,-588 396.3933,-656.9118 363.7356,-693.0582 413,-745 419.5276,-751.8824 428.3593,-756.3264 437.4513,-759.1816"/>
<polygon fill="#191970" stroke="#191970" points="320.4392,-406.0524 313.6945,-397.8817 313.8718,-408.4751 320.4392,-406.0524"/>
</g>
<!-- Node174210 -->
<g id="node20" class="node">
<title>Node174210</title>
<g id="a_node20"><a xlink:href="quickjs_8c.html#a5e32da9a43002cb96dcbd62a1a340144" target="_top" xlink:title="js_array_from">
<polygon fill="none" stroke="#000000" points="441.5,-716.5 441.5,-735.5 517.5,-735.5 517.5,-716.5 441.5,-716.5"/>
<text text-anchor="middle" x="479.5" y="-723.5" font-family="Helvetica,sans-Serif" font-size="10.00" fill="#000000">js_array_from</text>
</a>
</g>
</g>
<!-- Node174200&#45;&gt;Node174210 -->
<g id="edge23" class="edge">
<title>Node174200&#45;&gt;Node174210</title>
<path fill="none" stroke="#191970" d="M316.6153,-407.1229C328.8581,-442.6484 355.7386,-521.284 377,-588 393.7779,-640.6473 373.627,-668.2314 413,-707 420.6146,-714.4977 430.9722,-719.0786 441.2452,-721.8646"/>
<polygon fill="#191970" stroke="#191970" points="319.8797,-405.8532 313.3081,-397.5427 313.2629,-408.1374 319.8797,-405.8532"/>
</g>
<!-- Node174225 -->
<g id="node21" class="node">
<title>Node174225</title>
<g id="a_node21"><a xlink:href="quickjs_8c.html#aa0bbf08a7e91459c68a312fba7016c6d" target="_top" xlink:title="js_array_every">
<polygon fill="none" stroke="#000000" points="439.5,-678.5 439.5,-697.5 519.5,-697.5 519.5,-678.5 439.5,-678.5"/>
<text text-anchor="middle" x="479.5" y="-685.5" font-family="Helvetica,sans-Serif" font-size="10.00" fill="#000000">js_array_every</text>
</a>
</g>
</g>
<!-- Node174200&#45;&gt;Node174225 -->
<g id="edge24" class="edge">
<title>Node174200&#45;&gt;Node174225</title>
<path fill="none" stroke="#191970" d="M316.5433,-407.3208C337.5972,-469.2814 402.8129,-659.531 413,-669 420.2996,-675.785 429.8562,-680.1675 439.4389,-682.9923"/>
<polygon fill="#191970" stroke="#191970" points="319.7776,-405.9597 313.2501,-397.6145 313.1487,-408.2089 319.7776,-405.9597"/>
</g>
<!-- Node174245 -->
<g id="node22" class="node">
<title>Node174245</title>
<g id="a_node22"><a xlink:href="quickjs_8c.html#a36c1692489542a86dd79a7d39ab8ff95" target="_top" xlink:title="js_array_reduce">
<polygon fill="none" stroke="#000000" points="436.5,-640.5 436.5,-659.5 522.5,-659.5 522.5,-640.5 436.5,-640.5"/>
<text text-anchor="middle" x="479.5" y="-647.5" font-family="Helvetica,sans-Serif" font-size="10.00" fill="#000000">js_array_reduce</text>
</a>
</g>
</g>
<!-- Node174200&#45;&gt;Node174245 -->
<g id="edge25" class="edge">
<title>Node174200&#45;&gt;Node174245</title>
<path fill="none" stroke="#191970" d="M315.8036,-407.3014C331.7383,-459.1162 377.3498,-599.4734 413,-631 419.566,-636.8066 427.7947,-640.8465 436.204,-643.6553"/>
<polygon fill="#191970" stroke="#191970" points="319.129,-406.2066 312.868,-397.6597 312.4325,-408.2455 319.129,-406.2066"/>
</g>
<!-- Node174246 -->
<g id="node23" class="node">
<title>Node174246</title>
<g id="a_node23"><a xlink:href="quickjs_8c.html#a9dd41b086da4e13b3487cc9c6e2af2b8" target="_top" xlink:title="js_array_find">
<polygon fill="none" stroke="#000000" points="443.5,-602.5 443.5,-621.5 515.5,-621.5 515.5,-602.5 443.5,-602.5"/>
<text text-anchor="middle" x="479.5" y="-609.5" font-family="Helvetica,sans-Serif" font-size="10.00" fill="#000000">js_array_find</text>
</a>
</g>
</g>
<!-- Node174200&#45;&gt;Node174246 -->
<g id="edge26" class="edge">
<title>Node174200&#45;&gt;Node174246</title>
<path fill="none" stroke="#191970" d="M314.2704,-407.7068C324.1682,-448.587 352.5889,-542.9626 413,-593 421.5998,-600.123 432.7275,-604.5782 443.4115,-607.3639"/>
<polygon fill="#191970" stroke="#191970" points="317.6634,-406.8442 312.0048,-397.8871 310.8426,-408.418 317.6634,-406.8442"/>
</g>
<!-- Node174247 -->
<g id="node24" class="node">
<title>Node174247</title>
<g id="a_node24"><a xlink:href="quickjs_8c.html#ad90c33b4aae1181151bda4a98ac2ef23" target="_top" xlink:title="JS_FlattenIntoArray">
<polygon fill="none" stroke="#ff0000" points="427.5,-546.5 427.5,-565.5 531.5,-565.5 531.5,-546.5 427.5,-546.5"/>
<text text-anchor="middle" x="479.5" y="-553.5" font-family="Helvetica,sans-Serif" font-size="10.00" fill="#000000">JS_FlattenIntoArray</text>
</a>
</g>
</g>
<!-- Node174200&#45;&gt;Node174247 -->
<g id="edge27" class="edge">
<title>Node174200&#45;&gt;Node174247</title>
<path fill="none" stroke="#191970" d="M318.028,-407.2333C332.3239,-439.1074 365.2437,-502.7529 413,-537 418.3666,-540.8485 424.4968,-543.9204 430.8147,-546.3717"/>
<polygon fill="#191970" stroke="#191970" points="321.0942,-405.5072 313.8992,-397.7302 314.6739,-408.2967 321.0942,-405.5072"/>
</g>
<!-- Node174249 -->
<g id="node25" class="node">
<title>Node174249</title>
<g id="a_node25"><a xlink:href="quickjs_8c.html#aed1bf9ce4b9e3a82388679dd6ec7635b" target="_top" xlink:title="js_string_replace">
<polygon fill="none" stroke="#000000" points="434.5,-38.5 434.5,-57.5 524.5,-57.5 524.5,-38.5 434.5,-38.5"/>
<text text-anchor="middle" x="479.5" y="-45.5" font-family="Helvetica,sans-Serif" font-size="10.00" fill="#000000">js_string_replace</text>
</a>
</g>
</g>
<!-- Node174200&#45;&gt;Node174249 -->
<g id="edge29" class="edge">
<title>Node174200&#45;&gt;Node174249</title>
<path fill="none" stroke="#191970" d="M335.7835,-372.8288C350.3369,-362.8465 367.4685,-348.4185 377,-331 433.8458,-227.117 335.4507,-156.4942 413,-67 418.5828,-60.5573 426.1841,-56.2268 434.2547,-53.3324"/>
<polygon fill="#191970" stroke="#191970" points="333.6138,-370.065 327.1461,-378.4566 337.4353,-375.9299 333.6138,-370.065"/>
</g>
<!-- Node174250 -->
<g id="node26" class="node">
<title>Node174250</title>
<g id="a_node26"><a xlink:href="quickjs_8c.html#a624282391413d4c5a030adbd8b77aa80" target="_top" xlink:title="internalize_json_property">
<polygon fill="none" stroke="#ff0000" points="417,-490.5 417,-509.5 542,-509.5 542,-490.5 417,-490.5"/>
<text text-anchor="middle" x="479.5" y="-497.5" font-family="Helvetica,sans-Serif" font-size="10.00" fill="#000000">internalize_json_property</text>
</a>
</g>
</g>
<!-- Node174200&#45;&gt;Node174250 -->
<g id="edge30" class="edge">
<title>Node174200&#45;&gt;Node174250</title>
<path fill="none" stroke="#191970" d="M324.7694,-405.5222C343.3129,-426.4365 377.0752,-461.0764 413,-481 419.9303,-484.8435 427.7072,-487.968 435.4336,-490.4889"/>
<polygon fill="#191970" stroke="#191970" points="327.2051,-402.989 318.0056,-397.7336 321.9199,-407.5788 327.2051,-402.989"/>
</g>
<!-- Node174252 -->
<g id="node27" class="node">
<title>Node174252</title>
<g id="a_node27"><a xlink:href="quickjs_8c.html#a0da6493b4bc0edb7ddddfab807241d0b" target="_top" xlink:title="js_json_check">
<polygon fill="none" stroke="#ff0000" points="440,-.5 440,-19.5 519,-19.5 519,-.5 440,-.5"/>
<text text-anchor="middle" x="479.5" y="-7.5" font-family="Helvetica,sans-Serif" font-size="10.00" fill="#000000">js_json_check</text>
</a>
</g>
</g>
<!-- Node174200&#45;&gt;Node174252 -->
<g id="edge32" class="edge">
<title>Node174200&#45;&gt;Node174252</title>
<path fill="none" stroke="#191970" d="M335.8906,-372.8868C350.4819,-362.9251 367.6158,-348.4983 377,-331 440.8847,-211.8768 325.3449,-131.8989 413,-29 419.774,-21.0479 429.6242,-16.3064 439.6773,-13.5117"/>
<polygon fill="#191970" stroke="#191970" points="333.7158,-370.1253 327.226,-378.4999 337.5217,-376.0003 333.7158,-370.1253"/>
</g>
<!-- Node174256 -->
<g id="node28" class="node">
<title>Node174256</title>
<g id="a_node28"><a xlink:href="quickjs_8c.html#af97646b66d6fcb8bd19543d93baeadd7" target="_top" xlink:title="js_proxy_call_constructor">
<polygon fill="none" stroke="#ff0000" points="415.5,-452.5 415.5,-471.5 543.5,-471.5 543.5,-452.5 415.5,-452.5"/>
<text text-anchor="middle" x="479.5" y="-459.5" font-family="Helvetica,sans-Serif" font-size="10.00" fill="#000000">js_proxy_call_constructor</text>
</a>
</g>
</g>
<!-- Node174200&#45;&gt;Node174256 -->
<g id="edge33" class="edge">
<title>Node174200&#45;&gt;Node174256</title>
<path fill="none" stroke="#191970" d="M334.2006,-402.8192C354.6373,-414.8649 384.9699,-431.6618 413,-443 421.7935,-446.557 431.4925,-449.728 440.7008,-452.4125"/>
<polygon fill="#191970" stroke="#191970" points="335.9314,-399.7763 325.551,-397.6557 332.3434,-405.7868 335.9314,-399.7763"/>
</g>
<!-- Node174233&#45;&gt;Node174187 -->
<g id="edge13" class="edge">
<title>Node174233&#45;&gt;Node174187</title>
<path fill="none" stroke="#191970" d="M420.3504,-787.9188C417.7708,-786.4399 415.3033,-784.8058 413,-783 257.296,-660.927 182.3658,-411.8041 168.0642,-359.6903"/>
<polygon fill="#191970" stroke="#191970" points="418.9552,-791.1323 429.4772,-792.3721 422.0249,-784.8413 418.9552,-791.1323"/>
</g>
<!-- Node174241&#45;&gt;Node174187 -->
<g id="edge21" class="edge">
<title>Node174241&#45;&gt;Node174187</title>
<path fill="none" stroke="#191970" d="M423.9527,-96.201C419.8686,-98.572 416.131,-101.4676 413,-105 345.5344,-181.1149 451.3365,-261.5798 377,-331 331.3292,-373.6503 253.4173,-368.1517 205.9801,-359.5664"/>
<polygon fill="#191970" stroke="#191970" points="425.7723,-99.2138 433.3458,-91.8047 422.805,-92.8738 425.7723,-99.2138"/>
</g>
<!-- Node174247&#45;&gt;Node174247 -->
<g id="edge28" class="edge">
<title>Node174247&#45;&gt;Node174247</title>
<path fill="none" stroke="#191970" d="M448.0629,-574.2746C448.9592,-579.741 459.4382,-584 479.5,-584 509.3594,-584 517.9906,-574.5653 505.3937,-565.7571"/>
<polygon fill="#191970" stroke="#191970" points="451.085,-576.0475 453.6063,-565.7571 445.2181,-572.2291 451.085,-576.0475"/>
</g>
<!-- Node174250&#45;&gt;Node174250 -->
<g id="edge31" class="edge">
<title>Node174250&#45;&gt;Node174250</title>
<path fill="none" stroke="#191970" d="M448.0629,-518.2746C448.9592,-523.741 459.4382,-528 479.5,-528 509.3594,-528 517.9906,-518.5653 505.3937,-509.7571"/>
<polygon fill="#191970" stroke="#191970" points="451.085,-520.0475 453.6063,-509.7571 445.2181,-516.2291 451.085,-520.0475"/>
</g>
<!-- Node174274&#45;&gt;Node174187 -->
<g id="edge35" class="edge">
<title>Node174274&#45;&gt;Node174187</title>
<path fill="none" stroke="#191970" d="M285.6333,-286.6763C272.5753,-290.7533 256.4528,-295.4145 243,-302 221.3984,-312.5746 199.5771,-329.288 184.6182,-340.2863"/>
<polygon fill="#191970" stroke="#191970" points="286.9199,-289.9381 295.3391,-283.5063 284.7466,-283.284 286.9199,-289.9381"/>
</g>
<!-- Node174288&#45;&gt;Node174187 -->
<g id="edge37" class="edge">
<title>Node174288&#45;&gt;Node174187</title>
<path fill="none" stroke="#191970" d="M281.7961,-324.8979C260.5982,-331.8825 231.2201,-339.8432 207.2954,-345.1948"/>
<polygon fill="#191970" stroke="#191970" points="283.1689,-328.127 291.4855,-321.5632 280.8909,-321.508 283.1689,-328.127"/>
</g>
<!-- Node174288&#45;&gt;Node174249 -->
<g id="edge39" class="edge">
<title>Node174288&#45;&gt;Node174249</title>
<path fill="none" stroke="#191970" d="M355.4133,-306.6486C363.5737,-303.7571 371.2871,-299.4326 377,-293 444.5406,-216.9517 345.5344,-143.1149 413,-67 418.6547,-60.6203 426.288,-56.3179 434.3674,-53.4312"/>
<polygon fill="#191970" stroke="#191970" points="354.3708,-303.3063 345.7214,-309.425 356.2986,-310.0357 354.3708,-303.3063"/>
</g>
<!-- Node174288&#45;&gt;Node174252 -->
<g id="edge38" class="edge">
<title>Node174288&#45;&gt;Node174252</title>
<path fill="none" stroke="#191970" d="M355.5267,-306.7482C363.6784,-303.8491 371.3596,-299.4962 377,-293 454.6376,-203.5823 335.4507,-118.4942 413,-29 419.8409,-21.1054 429.7125,-16.3823 439.7647,-13.5868"/>
<polygon fill="#191970" stroke="#191970" points="354.4844,-303.4059 345.8353,-309.525 356.4125,-310.1351 354.4844,-303.4059"/>
</g>
</g>
</svg>
