<?xml version="1.0" encoding="UTF-8" standalone="no"?>
<!DOCTYPE svg PUBLIC "-//W3C//DTD SVG 1.1//EN"
 "http://www.w3.org/Graphics/SVG/1.1/DTD/svg11.dtd">
<!-- Generated by graphviz version 2.40.1 (20161225.0304)
 -->
<!-- Title: JS_NewAtom Pages: 1 -->
<!--zoomable 716 -->
<svg id="main" version="1.1" xmlns="http://www.w3.org/2000/svg" xmlns:xlink="http://www.w3.org/1999/xlink" xml:space="preserve" onload="init(evt)">
<style type="text/css"><![CDATA[
.edge:hover path { stroke: red; }
.edge:hover polygon { stroke: red; fill: red; }
]]></style>
<script type="text/javascript"><![CDATA[
var edges = document.getElementsByTagName('g');
if (edges && edges.length) {
  for (var i=0;i<edges.length;i++) {
    if (edges[i].id.substr(0,4)=='edge') {
      edges[i].setAttribute('class','edge');
    }
  }
}
]]></script>
        <defs>
                <circle id="rim" cx="0" cy="0" r="7"/>
                <circle id="rim2" cx="0" cy="0" r="3.5"/>
                <g id="zoomPlus">
                        <use xlink:href="#rim" fill="#404040">
                                <set attributeName="fill" to="#808080" begin="zoomplus.mouseover" end="zoomplus.mouseout"/>
                        </use>
                        <path d="M-4,0h8M0,-4v8" fill="none" stroke="white" stroke-width="1.5" pointer-events="none"/>
                </g>
                <g id="zoomMin">
                        <use xlink:href="#rim" fill="#404040">
                                <set attributeName="fill" to="#808080" begin="zoomminus.mouseover" end="zoomminus.mouseout"/>
                        </use>
                        <path d="M-4,0h8" fill="none" stroke="white" stroke-width="1.5" pointer-events="none"/>
                </g>
                <g id="dirArrow">
                        <path fill="none" stroke="white" stroke-width="1.5" d="M0,-3.0v7 M-2.5,-0.5L0,-3.0L2.5,-0.5"/>
                </g>
               <g id="resetDef">
                       <use xlink:href="#rim2" fill="#404040">
                               <set attributeName="fill" to="#808080" begin="reset.mouseover" end="reset.mouseout"/>
                       </use>
               </g>
        </defs>

<script type="text/javascript">
var viewWidth = 618;
var viewHeight = 716;
var sectionId = 'dynsection-239';
</script>
<script xlink:href="svgpan.js"/>
<svg id="graph" class="graph">
<g id="viewport">
<title>JS_NewAtom</title>
<!-- Node82885 -->
<g id="node1" class="node">
<title>Node82885</title>
<polygon fill="#bfbfbf" stroke="#000000" points="0,-267.5939 0,-286.5939 77,-286.5939 77,-267.5939 0,-267.5939"/>
<text text-anchor="middle" x="38.5" y="-274.5939" font-family="Helvetica,sans-Serif" font-size="10.00" fill="#000000">JS_NewAtom</text>
</g>
<!-- Node82886 -->
<g id="node2" class="node">
<title>Node82886</title>
<g id="a_node2"><a xlink:href="quickjs_8c.html#a46a8a7e155cfd0af984f6725f060f0d6" target="_top" xlink:title="__JS_EvalInternal">
<polygon fill="none" stroke="#000000" points="311,-688.5939 311,-707.5939 407,-707.5939 407,-688.5939 311,-688.5939"/>
<text text-anchor="middle" x="359" y="-695.5939" font-family="Helvetica,sans-Serif" font-size="10.00" fill="#000000">__JS_EvalInternal</text>
</a>
</g>
</g>
<!-- Node82885&#45;&gt;Node82886 -->
<g id="edge1" class="edge">
<title>Node82885&#45;&gt;Node82886</title>
<path fill="none" stroke="#191970" d="M41.6679,-296.6043C51.2673,-353.9608 81.3225,-520.782 113,-565.0939 126.3876,-583.8211 264.9676,-669.7357 286,-679.0939 294.4951,-682.8736 303.8932,-686.0183 313.04,-688.5894"/>
<polygon fill="#191970" stroke="#191970" points="45.1086,-295.9575 40.0263,-286.6612 38.2021,-297.0978 45.1086,-295.9575"/>
</g>
<!-- Node82889 -->
<g id="node4" class="node">
<title>Node82889</title>
<g id="a_node4"><a xlink:href="classqjs_1_1Value.html#abd7b1697b6736617ad2d571adea7b68f" target="_top" xlink:title="qjs::Value::add">
<polygon fill="none" stroke="#000000" points="140.5,-536.5939 140.5,-555.5939 222.5,-555.5939 222.5,-536.5939 140.5,-536.5939"/>
<text text-anchor="middle" x="181.5" y="-543.5939" font-family="Helvetica,sans-Serif" font-size="10.00" fill="#000000">qjs::Value::add</text>
</a>
</g>
</g>
<!-- Node82885&#45;&gt;Node82889 -->
<g id="edge3" class="edge">
<title>Node82885&#45;&gt;Node82889</title>
<path fill="none" stroke="#191970" d="M42.1011,-296.7163C52.0163,-348.8023 81.1058,-488.8378 113,-522.0939 120.3266,-529.7334 130.2203,-534.9434 140.2075,-538.4958"/>
<polygon fill="#191970" stroke="#191970" points="45.5154,-295.9333 40.2347,-286.7483 38.635,-297.2217 45.5154,-295.9333"/>
</g>
<!-- Node82890 -->
<g id="node5" class="node">
<title>Node82890</title>
<g id="a_node5"><a xlink:href="quickjs_8c.html#ae8e62d181b34d2e7bdda0b099c0880f5" target="_top" xlink:title="find_atom">
<polygon fill="none" stroke="#000000" points="152,-460.5939 152,-479.5939 211,-479.5939 211,-460.5939 152,-460.5939"/>
<text text-anchor="middle" x="181.5" y="-467.5939" font-family="Helvetica,sans-Serif" font-size="10.00" fill="#000000">find_atom</text>
</a>
</g>
</g>
<!-- Node82885&#45;&gt;Node82890 -->
<g id="edge4" class="edge">
<title>Node82885&#45;&gt;Node82890</title>
<path fill="none" stroke="#191970" d="M41.3021,-296.8918C47.4774,-333.0197 65.6744,-409.719 113,-451.0939 123.6849,-460.4352 138.5932,-465.2181 151.7743,-467.653"/>
<polygon fill="#191970" stroke="#191970" points="44.708,-296.0191 39.6978,-286.6837 37.7928,-297.1059 44.708,-296.0191"/>
</g>
<!-- Node82910 -->
<g id="node9" class="node">
<title>Node82910</title>
<g id="a_node9"><a xlink:href="quickjs_8c.html#a369af749a1fb181216fe8a8b55f841b0" target="_top" xlink:title="JS_AddModuleExport">
<polygon fill="none" stroke="#000000" points="126,-229.5939 126,-248.5939 237,-248.5939 237,-229.5939 126,-229.5939"/>
<text text-anchor="middle" x="181.5" y="-236.5939" font-family="Helvetica,sans-Serif" font-size="10.00" fill="#000000">JS_AddModuleExport</text>
</a>
</g>
</g>
<!-- Node82885&#45;&gt;Node82910 -->
<g id="edge8" class="edge">
<title>Node82885&#45;&gt;Node82910</title>
<path fill="none" stroke="#191970" d="M84.3133,-264.9197C104.0871,-259.6651 126.8838,-253.6073 145.4266,-248.6798"/>
<polygon fill="#191970" stroke="#191970" points="83.3506,-261.554 74.5849,-267.5048 85.1484,-268.3192 83.3506,-261.554"/>
</g>
<!-- Node82913 -->
<g id="node13" class="node">
<title>Node82913</title>
<g id="a_node13"><a xlink:href="quickjs_8c.html#a841f4cb887e4d9e03e94a0697255e578" target="_top" xlink:title="JS_DefinePropertyValueStr">
<polygon fill="none" stroke="#000000" points="113,-422.5939 113,-441.5939 250,-441.5939 250,-422.5939 113,-422.5939"/>
<text text-anchor="middle" x="181.5" y="-429.5939" font-family="Helvetica,sans-Serif" font-size="10.00" fill="#000000">JS_DefinePropertyValueStr</text>
</a>
</g>
</g>
<!-- Node82885&#45;&gt;Node82913 -->
<g id="edge13" class="edge">
<title>Node82885&#45;&gt;Node82913</title>
<path fill="none" stroke="#191970" d="M54.2987,-294.2183C84.357,-326.799 148.8874,-396.7446 172.5581,-422.4016"/>
<polygon fill="#191970" stroke="#191970" points="56.7986,-291.7664 47.4453,-286.7898 51.6537,-296.513 56.7986,-291.7664"/>
</g>
<!-- Node82931 -->
<g id="node19" class="node">
<title>Node82931</title>
<g id="a_node19"><a xlink:href="quickjs_8c.html#a04f589361a4fbc30d997402e92a50de2" target="_top" xlink:title="JS_GetPropertyStr">
<polygon fill="none" stroke="#ff0000" points="132,-267.5939 132,-286.5939 231,-286.5939 231,-267.5939 132,-267.5939"/>
<text text-anchor="middle" x="181.5" y="-274.5939" font-family="Helvetica,sans-Serif" font-size="10.00" fill="#000000">JS_GetPropertyStr</text>
</a>
</g>
</g>
<!-- Node82885&#45;&gt;Node82931 -->
<g id="edge22" class="edge">
<title>Node82885&#45;&gt;Node82931</title>
<path fill="none" stroke="#191970" d="M87.4026,-277.0939C101.8006,-277.0939 117.5612,-277.0939 131.9965,-277.0939"/>
<polygon fill="#191970" stroke="#191970" points="87.1979,-273.5939 77.1979,-277.0939 87.1978,-280.5939 87.1979,-273.5939"/>
</g>
<!-- Node82945 -->
<g id="node24" class="node">
<title>Node82945</title>
<g id="a_node24"><a xlink:href="quickjs_8c.html#a23b6e7c4e6a3bddc1cdd2139dcdf1283" target="_top" xlink:title="js_host_resolve_imported\l_module">
<polygon fill="none" stroke="#ff0000" points="117.5,-142.0939 117.5,-172.0939 245.5,-172.0939 245.5,-142.0939 117.5,-142.0939"/>
<text text-anchor="start" x="125.5" y="-160.0939" font-family="Helvetica,sans-Serif" font-size="10.00" fill="#000000">js_host_resolve_imported</text>
<text text-anchor="middle" x="181.5" y="-149.0939" font-family="Helvetica,sans-Serif" font-size="10.00" fill="#000000">_module</text>
</a>
</g>
</g>
<!-- Node82885&#45;&gt;Node82945 -->
<g id="edge29" class="edge">
<title>Node82885&#45;&gt;Node82945</title>
<path fill="none" stroke="#191970" d="M48.5096,-258.8831C61.0201,-237.6795 84.3161,-202.9134 113,-182.0939 118.2251,-178.3013 124.087,-175.0277 130.1245,-172.2167"/>
<polygon fill="#191970" stroke="#191970" points="45.4666,-257.1539 43.5399,-267.5721 51.5429,-260.6293 45.4666,-257.1539"/>
</g>
<!-- Node83476 -->
<g id="node25" class="node">
<title>Node83476</title>
<g id="a_node25"><a xlink:href="quickjs_8c.html#a8020fd59ed57f7f299216ec1ebfcda01" target="_top" xlink:title="js_new_function_def">
<polygon fill="none" stroke="#ff0000" points="128.5,-669.5939 128.5,-688.5939 234.5,-688.5939 234.5,-669.5939 128.5,-669.5939"/>
<text text-anchor="middle" x="181.5" y="-676.5939" font-family="Helvetica,sans-Serif" font-size="10.00" fill="#000000">js_new_function_def</text>
</a>
</g>
</g>
<!-- Node82885&#45;&gt;Node83476 -->
<g id="edge30" class="edge">
<title>Node82885&#45;&gt;Node83476</title>
<path fill="none" stroke="#191970" d="M40.5614,-296.9485C47.8139,-363.8164 73.8477,-579.767 113,-636.0939 123.6588,-651.4282 141.7315,-662.4355 156.6376,-669.4728"/>
<polygon fill="#191970" stroke="#191970" points="44.0307,-296.4736 39.4923,-286.9 37.07,-297.2142 44.0307,-296.4736"/>
</g>
<!-- Node83480 -->
<g id="node26" class="node">
<title>Node83480</title>
<g id="a_node26"><a xlink:href="quickjs_8c.html#a27c3a725d4014a35b5bedcdf6e70dec7" target="_top" xlink:title="JS_NewAtomString">
<polygon fill="none" stroke="#ff0000" points="130,-103.5939 130,-122.5939 233,-122.5939 233,-103.5939 130,-103.5939"/>
<text text-anchor="middle" x="181.5" y="-110.5939" font-family="Helvetica,sans-Serif" font-size="10.00" fill="#000000">JS_NewAtomString</text>
</a>
</g>
</g>
<!-- Node82885&#45;&gt;Node83480 -->
<g id="edge32" class="edge">
<title>Node82885&#45;&gt;Node83480</title>
<path fill="none" stroke="#191970" d="M43.3249,-257.3224C51.9389,-226.2341 72.9355,-166.0741 113,-133.0939 118.2608,-128.7633 124.4228,-125.3704 130.8561,-122.7121"/>
<polygon fill="#191970" stroke="#191970" points="39.8448,-256.7962 40.6991,-267.3565 46.6168,-258.5683 39.8448,-256.7962"/>
</g>
<!-- Node83059 -->
<g id="node27" class="node">
<title>Node83059</title>
<g id="a_node27"><a xlink:href="quickjs_8c.html#a21cfe4c4fc9372dc0b95b37667cff0c9" target="_top" xlink:title="JS_NewCFunction3">
<polygon fill="none" stroke="#ff0000" points="307,-650.5939 307,-669.5939 411,-669.5939 411,-650.5939 307,-650.5939"/>
<text text-anchor="middle" x="359" y="-657.5939" font-family="Helvetica,sans-Serif" font-size="10.00" fill="#000000">JS_NewCFunction3</text>
</a>
</g>
</g>
<!-- Node82885&#45;&gt;Node83059 -->
<g id="edge33" class="edge">
<title>Node82885&#45;&gt;Node83059</title>
<path fill="none" stroke="#191970" d="M39.5572,-296.7751C42.8842,-338.5114 56.6121,-436.382 113,-489.0939 159.1598,-532.2443 204.5377,-483.2091 250,-527.0939 288.2281,-563.9954 247.4789,-604.4982 286,-641.0939 291.8865,-646.6861 299.2036,-650.6841 306.913,-653.532"/>
<polygon fill="#191970" stroke="#191970" points="43.0487,-296.5291 38.8795,-286.7891 36.0647,-297.0031 43.0487,-296.5291"/>
</g>
<!-- Node83481 -->
<g id="node28" class="node">
<title>Node83481</title>
<g id="a_node28"><a xlink:href="quickjs_8c.html#ac29cc4ec49efa0f0308e494316ce5139" target="_top" xlink:title="JS_NewCModule">
<polygon fill="none" stroke="#ff0000" points="135,-191.5939 135,-210.5939 228,-210.5939 228,-191.5939 135,-191.5939"/>
<text text-anchor="middle" x="181.5" y="-198.5939" font-family="Helvetica,sans-Serif" font-size="10.00" fill="#000000">JS_NewCModule</text>
</a>
</g>
</g>
<!-- Node82885&#45;&gt;Node83481 -->
<g id="edge35" class="edge">
<title>Node82885&#45;&gt;Node83481</title>
<path fill="none" stroke="#191970" d="M56.3155,-260.2914C70.635,-247.6106 91.7939,-230.6489 113,-220.0939 120.6234,-216.2994 129.1137,-213.1701 137.4497,-210.6231"/>
<polygon fill="#191970" stroke="#191970" points="53.777,-257.8688 48.7261,-267.1822 58.4825,-263.0514 53.777,-257.8688"/>
</g>
<!-- Node83483 -->
<g id="node29" class="node">
<title>Node83483</title>
<g id="a_node29"><a xlink:href="quickjs_8c.html#acc3990661d2851b858601061a62cc7d6" target="_top" xlink:title="JS_SetModuleExport">
<polygon fill="none" stroke="#ff0000" points="127,-65.5939 127,-84.5939 236,-84.5939 236,-65.5939 127,-65.5939"/>
<text text-anchor="middle" x="181.5" y="-72.5939" font-family="Helvetica,sans-Serif" font-size="10.00" fill="#000000">JS_SetModuleExport</text>
</a>
</g>
</g>
<!-- Node82885&#45;&gt;Node83483 -->
<g id="edge37" class="edge">
<title>Node82885&#45;&gt;Node83483</title>
<path fill="none" stroke="#191970" d="M40.828,-257.3161C46.3121,-219.7989 63.5426,-138.1209 113,-94.0939 117.3325,-90.2371 122.383,-87.156 127.7419,-84.6959"/>
<polygon fill="#191970" stroke="#191970" points="37.3291,-257.077 39.4805,-267.4511 44.268,-257.9996 37.3291,-257.077"/>
</g>
<!-- Node83455 -->
<g id="node30" class="node">
<title>Node83455</title>
<g id="a_node30"><a xlink:href="quickjs_8c.html#a62617fe11025d2e5a545db069fc28e64" target="_top" xlink:title="JS_SetPropertyStr">
<polygon fill="none" stroke="#ff0000" points="132.5,-27.5939 132.5,-46.5939 230.5,-46.5939 230.5,-27.5939 132.5,-27.5939"/>
<text text-anchor="middle" x="181.5" y="-34.5939" font-family="Helvetica,sans-Serif" font-size="10.00" fill="#000000">JS_SetPropertyStr</text>
</a>
</g>
</g>
<!-- Node82885&#45;&gt;Node83455 -->
<g id="edge38" class="edge">
<title>Node82885&#45;&gt;Node83455</title>
<path fill="none" stroke="#191970" d="M42.5996,-257.6936C53.2111,-209.2151 82.8599,-84.6325 113,-56.0939 118.4665,-50.9178 125.2172,-47.1297 132.3296,-44.3619"/>
<polygon fill="#191970" stroke="#191970" points="39.1595,-257.0428 40.4751,-267.5556 46.0026,-258.5169 39.1595,-257.0428"/>
</g>
<!-- Node82887 -->
<g id="node3" class="node">
<title>Node82887</title>
<g id="a_node3"><a xlink:href="quickjs_8c.html#acbcccb7ec58fd4a024ea1d01e5d04561" target="_top" xlink:title="JS_AddIntrinsicEval">
<polygon fill="none" stroke="#ff0000" points="486.5,-688.5939 486.5,-707.5939 591.5,-707.5939 591.5,-688.5939 486.5,-688.5939"/>
<text text-anchor="middle" x="539" y="-695.5939" font-family="Helvetica,sans-Serif" font-size="10.00" fill="#000000">JS_AddIntrinsicEval</text>
</a>
</g>
</g>
<!-- Node82886&#45;&gt;Node82887 -->
<g id="edge2" class="edge">
<title>Node82886&#45;&gt;Node82887</title>
<path fill="none" stroke="#191970" d="M417.5005,-698.0939C439.6163,-698.0939 464.6362,-698.0939 486.1989,-698.0939"/>
<polygon fill="#191970" stroke="#191970" points="417.2367,-694.5939 407.2367,-698.0939 417.2367,-701.5939 417.2367,-694.5939"/>
</g>
<!-- Node82891 -->
<g id="node6" class="node">
<title>Node82891</title>
<g id="a_node6"><a xlink:href="quickjs_8c.html#ac00854b7f1f0f8567af964a2f8f2adb0" target="_top" xlink:title="JS_SetPropertyFunctionList">
<polygon fill="none" stroke="#ff0000" points="289.5,-612.5939 289.5,-631.5939 428.5,-631.5939 428.5,-612.5939 289.5,-612.5939"/>
<text text-anchor="middle" x="359" y="-619.5939" font-family="Helvetica,sans-Serif" font-size="10.00" fill="#000000">JS_SetPropertyFunctionList</text>
</a>
</g>
</g>
<!-- Node82890&#45;&gt;Node82891 -->
<g id="edge5" class="edge">
<title>Node82890&#45;&gt;Node82891</title>
<path fill="none" stroke="#191970" d="M220.6801,-477.1244C231.3291,-480.6847 242.0904,-486.0406 250,-494.0939 285.7492,-530.4925 248.7824,-568.1981 286,-603.0939 290.1079,-606.9455 294.8955,-610.0393 300.0184,-612.5212"/>
<polygon fill="#191970" stroke="#191970" points="221.5956,-473.7459 211.0171,-474.3338 219.6534,-480.471 221.5956,-473.7459"/>
</g>
<!-- Node82901 -->
<g id="node7" class="node">
<title>Node82901</title>
<g id="a_node7"><a xlink:href="quickjs_8c.html#a3afdbdd7b58ef7e1dcc178c362071b3d" target="_top" xlink:title="JS_AddIntrinsicProxy">
<polygon fill="none" stroke="#ff0000" points="483.5,-498.5939 483.5,-517.5939 594.5,-517.5939 594.5,-498.5939 483.5,-498.5939"/>
<text text-anchor="middle" x="539" y="-505.5939" font-family="Helvetica,sans-Serif" font-size="10.00" fill="#000000">JS_AddIntrinsicProxy</text>
</a>
</g>
</g>
<!-- Node82891&#45;&gt;Node82901 -->
<g id="edge6" class="edge">
<title>Node82891&#45;&gt;Node82901</title>
<path fill="none" stroke="#191970" d="M418.5525,-609.1525C423.2079,-607.3744 427.7471,-605.3642 432,-603.0939 474.7333,-580.2816 514.4481,-537.1019 530.9484,-517.8193"/>
<polygon fill="#191970" stroke="#191970" points="417.2011,-605.9162 408.8884,-612.4849 419.4831,-612.5338 417.2011,-605.9162"/>
</g>
<!-- Node82907 -->
<g id="node8" class="node">
<title>Node82907</title>
<g id="a_node8"><a xlink:href="quickjs_8c.html#a4c9489297c684663f30e517204a9ec14" target="_top" xlink:title="JS_AddIntrinsicBaseObjects">
<polygon fill="none" stroke="#ff0000" points="468,-593.5939 468,-612.5939 610,-612.5939 610,-593.5939 468,-593.5939"/>
<text text-anchor="middle" x="539" y="-600.5939" font-family="Helvetica,sans-Serif" font-size="10.00" fill="#000000">JS_AddIntrinsicBaseObjects</text>
</a>
</g>
</g>
<!-- Node82891&#45;&gt;Node82907 -->
<g id="edge7" class="edge">
<title>Node82891&#45;&gt;Node82907</title>
<path fill="none" stroke="#191970" d="M438.6375,-613.6877C448.3516,-612.6623 458.229,-611.6197 467.8088,-610.6085"/>
<polygon fill="#191970" stroke="#191970" points="438.17,-610.2175 428.5927,-614.748 438.9049,-617.1788 438.17,-610.2175"/>
</g>
<!-- Node82911 -->
<g id="node10" class="node">
<title>Node82911</title>
<g id="a_node10"><a xlink:href="classqjs_1_1Context_1_1Module.html#aa51896e065a04689c9dbe80a282805bb" target="_top" xlink:title="qjs::Context::Module::add">
<polygon fill="none" stroke="#000000" points="294.5,-112.5939 294.5,-131.5939 423.5,-131.5939 423.5,-112.5939 294.5,-112.5939"/>
<text text-anchor="middle" x="359" y="-119.5939" font-family="Helvetica,sans-Serif" font-size="10.00" fill="#000000">qjs::Context::Module::add</text>
</a>
</g>
</g>
<!-- Node82910&#45;&gt;Node82911 -->
<g id="edge9" class="edge">
<title>Node82910&#45;&gt;Node82911</title>
<path fill="none" stroke="#191970" d="M243.5185,-224.7348C245.7937,-223.3292 247.9668,-221.7867 250,-220.0939 278.1075,-196.692 258.4509,-170.1506 286,-146.0939 293.2352,-139.7758 302.175,-135.1133 311.2883,-131.6747"/>
<polygon fill="#191970" stroke="#191970" points="241.5835,-221.7955 234.3163,-229.5052 244.8051,-228.0101 241.5835,-221.7955"/>
</g>
<!-- Node82893 -->
<g id="node11" class="node">
<title>Node82893</title>
<g id="a_node11"><a xlink:href="quickjs-libc_8c.html#a0e65c67dfff872a664f8d29e7eae5a61" target="_top" xlink:title="js_init_module_std">
<polygon fill="none" stroke="#ff0000" points="490,-36.5939 490,-55.5939 588,-55.5939 588,-36.5939 490,-36.5939"/>
<text text-anchor="middle" x="539" y="-43.5939" font-family="Helvetica,sans-Serif" font-size="10.00" fill="#000000">js_init_module_std</text>
</a>
</g>
</g>
<!-- Node82910&#45;&gt;Node82893 -->
<g id="edge10" class="edge">
<title>Node82910&#45;&gt;Node82893</title>
<path fill="none" stroke="#191970" d="M245.2382,-224.1311C246.9131,-222.8888 248.507,-221.5458 250,-220.0939 289.0042,-182.164 246.0788,-140.0573 286,-103.0939 293.5573,-96.0964 419.5934,-69.9761 490.8589,-55.6483"/>
<polygon fill="#191970" stroke="#191970" points="243.0319,-221.3746 236.2801,-229.5394 246.6499,-227.3672 243.0319,-221.3746"/>
</g>
<!-- Node82912 -->
<g id="node12" class="node">
<title>Node82912</title>
<g id="a_node12"><a xlink:href="quickjs_8c.html#ac7a9b88dd7ca1a70cd0ecd9a28905e25" target="_top" xlink:title="JS_AddModuleExportList">
<polygon fill="none" stroke="#ff0000" points="295.5,-36.5939 295.5,-55.5939 422.5,-55.5939 422.5,-36.5939 295.5,-36.5939"/>
<text text-anchor="middle" x="359" y="-43.5939" font-family="Helvetica,sans-Serif" font-size="10.00" fill="#000000">JS_AddModuleExportList</text>
</a>
</g>
</g>
<!-- Node82910&#45;&gt;Node82912 -->
<g id="edge11" class="edge">
<title>Node82910&#45;&gt;Node82912</title>
<path fill="none" stroke="#191970" d="M245.9662,-223.772C247.3837,-222.6303 248.7329,-221.4062 250,-220.0939 297.6227,-170.7732 239.551,-120.5214 286,-70.0939 291.7846,-63.8138 299.2394,-59.1737 307.1678,-55.7462"/>
<polygon fill="#191970" stroke="#191970" points="243.6878,-221.0775 237.1958,-229.4504 247.4922,-226.9535 243.6878,-221.0775"/>
</g>
<!-- Node82912&#45;&gt;Node82893 -->
<g id="edge12" class="edge">
<title>Node82912&#45;&gt;Node82893</title>
<path fill="none" stroke="#191970" d="M432.9303,-46.0939C452.0972,-46.0939 472.2691,-46.0939 489.8151,-46.0939"/>
<polygon fill="#191970" stroke="#191970" points="432.7146,-42.5939 422.7146,-46.0939 432.7145,-49.5939 432.7146,-42.5939"/>
</g>
<!-- Node82913&#45;&gt;Node82901 -->
<g id="edge20" class="edge">
<title>Node82913&#45;&gt;Node82901</title>
<path fill="none" stroke="#191970" d="M236.4754,-443.7809C307.2451,-458.8257 428.864,-484.6803 494.2681,-498.5844"/>
<polygon fill="#191970" stroke="#191970" points="236.9249,-440.2983 226.4156,-441.6423 235.4692,-447.1453 236.9249,-440.2983"/>
</g>
<!-- Node82913&#45;&gt;Node82907 -->
<g id="edge21" class="edge">
<title>Node82913&#45;&gt;Node82907</title>
<path fill="none" stroke="#191970" d="M243.5408,-446.4263C245.8099,-447.8391 247.9756,-449.3905 250,-451.0939 278.5986,-475.1575 257.2105,-503.259 286,-527.0939 337.6475,-569.8529 367.9032,-545.4113 432,-565.0939 460.4554,-573.8318 492.5693,-585.4825 514.1257,-593.5697"/>
<polygon fill="#191970" stroke="#191970" points="244.8409,-443.157 234.3559,-441.6352 241.6034,-449.3634 244.8409,-443.157"/>
</g>
<!-- Node82914 -->
<g id="node14" class="node">
<title>Node82914</title>
<g id="a_node14"><a xlink:href="quickjs-libc_8c.html#a5cc3e22713f1916d49867f60a7375505" target="_top" xlink:title="js_module_set_import_meta">
<polygon fill="none" stroke="#ff0000" points="289.5,-498.5939 289.5,-517.5939 428.5,-517.5939 428.5,-498.5939 289.5,-498.5939"/>
<text text-anchor="middle" x="359" y="-505.5939" font-family="Helvetica,sans-Serif" font-size="10.00" fill="#000000">js_module_set_import_meta</text>
</a>
</g>
</g>
<!-- Node82913&#45;&gt;Node82914 -->
<g id="edge14" class="edge">
<title>Node82913&#45;&gt;Node82914</title>
<path fill="none" stroke="#191970" d="M237.3532,-445.1566C241.7364,-446.9085 246.0065,-448.8796 250,-451.0939 268.9825,-461.6188 267.2704,-473.1251 286,-484.0939 296.3609,-490.1616 308.4593,-494.9292 319.793,-498.561"/>
<polygon fill="#191970" stroke="#191970" points="238.2345,-441.7541 227.6401,-441.6619 235.8647,-448.3407 238.2345,-441.7541"/>
</g>
<!-- Node82917 -->
<g id="node15" class="node">
<title>Node82917</title>
<g id="a_node15"><a xlink:href="quickjs-libc_8c.html#a7aebce2172c6aa4a6645aef600a69e6b" target="_top" xlink:title="js_std_urlGet">
<polygon fill="none" stroke="#000000" points="502,-343.5939 502,-362.5939 576,-362.5939 576,-343.5939 502,-343.5939"/>
<text text-anchor="middle" x="539" y="-350.5939" font-family="Helvetica,sans-Serif" font-size="10.00" fill="#000000">js_std_urlGet</text>
</a>
</g>
</g>
<!-- Node82913&#45;&gt;Node82917 -->
<g id="edge15" class="edge">
<title>Node82913&#45;&gt;Node82917</title>
<path fill="none" stroke="#191970" d="M260.3388,-434.7729C310.4865,-434.3788 376.2419,-429.9382 432,-413.0939 468.9016,-401.946 507.1106,-376.5683 526.3314,-362.6554"/>
<polygon fill="#191970" stroke="#191970" points="260.1956,-431.2732 250.2049,-434.7995 260.2141,-438.2731 260.1956,-431.2732"/>
</g>
<!-- Node82918 -->
<g id="node16" class="node">
<title>Node82918</title>
<g id="a_node16"><a xlink:href="quickjs-libc_8c.html#a0142166ddf6e134f89207c3ee3c7572c" target="_top" xlink:title="js_os_stat">
<polygon fill="none" stroke="#000000" points="328,-384.5939 328,-403.5939 390,-403.5939 390,-384.5939 328,-384.5939"/>
<text text-anchor="middle" x="359" y="-391.5939" font-family="Helvetica,sans-Serif" font-size="10.00" fill="#000000">js_os_stat</text>
</a>
</g>
</g>
<!-- Node82913&#45;&gt;Node82918 -->
<g id="edge16" class="edge">
<title>Node82913&#45;&gt;Node82918</title>
<path fill="none" stroke="#191970" d="M236.2455,-420.3737C266.3686,-413.9248 302.6492,-406.1577 327.9232,-400.7469"/>
<polygon fill="#191970" stroke="#191970" points="235.3365,-416.9889 226.2907,-422.5048 236.8019,-423.8338 235.3365,-416.9889"/>
</g>
<!-- Node82919 -->
<g id="node17" class="node">
<title>Node82919</title>
<g id="a_node17"><a xlink:href="quickjs_8c.html#acd5457d29e9641ae5e3a1d778f94bd0e" target="_top" xlink:title="JS_NewGlobalCConstructor2">
<polygon fill="none" stroke="#ff0000" points="286,-574.5939 286,-593.5939 432,-593.5939 432,-574.5939 286,-574.5939"/>
<text text-anchor="middle" x="359" y="-581.5939" font-family="Helvetica,sans-Serif" font-size="10.00" fill="#000000">JS_NewGlobalCConstructor2</text>
</a>
</g>
</g>
<!-- Node82913&#45;&gt;Node82919 -->
<g id="edge17" class="edge">
<title>Node82913&#45;&gt;Node82919</title>
<path fill="none" stroke="#191970" d="M245.1995,-447.0969C246.8855,-448.3276 248.4922,-449.6573 250,-451.0939 286.9382,-486.2852 249.9001,-524.043 286,-560.0939 292.3247,-566.41 300.3391,-571.0639 308.7255,-574.4931"/>
<polygon fill="#191970" stroke="#191970" points="246.5815,-443.846 236.1997,-441.7319 242.9971,-449.8587 246.5815,-443.846"/>
</g>
<!-- Node82922 -->
<g id="node18" class="node">
<title>Node82922</title>
<g id="a_node18"><a xlink:href="quickjs_8c.html#a9eb2d90f27f684820f9de13189502b7c" target="_top" xlink:title="js_regexp_exec">
<polygon fill="none" stroke="#ff0000" points="316.5,-346.5939 316.5,-365.5939 401.5,-365.5939 401.5,-346.5939 316.5,-346.5939"/>
<text text-anchor="middle" x="359" y="-353.5939" font-family="Helvetica,sans-Serif" font-size="10.00" fill="#000000">js_regexp_exec</text>
</a>
</g>
</g>
<!-- Node82913&#45;&gt;Node82922 -->
<g id="edge19" class="edge">
<title>Node82913&#45;&gt;Node82922</title>
<path fill="none" stroke="#191970" d="M204.8653,-417.1802C225.5296,-404.5267 256.8404,-386.6388 286,-375.0939 295.6192,-371.2854 306.2534,-368.0181 316.36,-365.3206"/>
<polygon fill="#191970" stroke="#191970" points="202.8137,-414.3343 196.166,-422.5841 206.5074,-420.2805 202.8137,-414.3343"/>
</g>
<!-- Node82919&#45;&gt;Node82907 -->
<g id="edge18" class="edge">
<title>Node82919&#45;&gt;Node82907</title>
<path fill="none" stroke="#191970" d="M442.2254,-592.8788C450.8029,-593.7842 459.463,-594.6983 467.8915,-595.588"/>
<polygon fill="#191970" stroke="#191970" points="442.5251,-589.391 432.2129,-591.8219 441.7902,-596.3524 442.5251,-589.391"/>
</g>
<!-- Node82932 -->
<g id="node20" class="node">
<title>Node82932</title>
<g id="a_node20"><a xlink:href="structqjs_1_1js__traits_3_01ctor__wrapper_3_01T_00_01Args_8_8_8_01_4_01_4.html#ac3e4ebb181720971396c1bf6008a997b" target="_top" xlink:title="qjs::js_traits\&lt; ctor\l_wrapper\&lt; T, Args...\l \&gt; \&gt;::wrap">
<polygon fill="none" stroke="#000000" points="305.5,-286.5939 305.5,-327.5939 412.5,-327.5939 412.5,-286.5939 305.5,-286.5939"/>
<text text-anchor="start" x="313.5" y="-315.5939" font-family="Helvetica,sans-Serif" font-size="10.00" fill="#000000">qjs::js_traits&lt; ctor</text>
<text text-anchor="start" x="313.5" y="-304.5939" font-family="Helvetica,sans-Serif" font-size="10.00" fill="#000000">_wrapper&lt; T, Args...</text>
<text text-anchor="middle" x="359" y="-293.5939" font-family="Helvetica,sans-Serif" font-size="10.00" fill="#000000"> &gt; &gt;::wrap</text>
</a>
</g>
</g>
<!-- Node82931&#45;&gt;Node82932 -->
<g id="edge23" class="edge">
<title>Node82931&#45;&gt;Node82932</title>
<path fill="none" stroke="#191970" d="M241.3849,-287.2152C262.1251,-290.7206 285.2255,-294.6249 305.4253,-298.039"/>
<polygon fill="#191970" stroke="#191970" points="241.8595,-283.7459 231.416,-285.5304 240.6929,-290.648 241.8595,-283.7459"/>
</g>
<!-- Node82933 -->
<g id="node21" class="node">
<title>Node82933</title>
<g id="a_node21"><a xlink:href="structqjs_1_1js__property__traits_3_01const_01char_01_5_01_4.html#a0a01071b0c80a16dbd7d0fa538534116" target="_top" xlink:title="qjs::js_property_traits\l\&lt; const char * \&gt;::get\l_property">
<polygon fill="none" stroke="#000000" points="304,-226.5939 304,-267.5939 414,-267.5939 414,-226.5939 304,-226.5939"/>
<text text-anchor="start" x="312" y="-255.5939" font-family="Helvetica,sans-Serif" font-size="10.00" fill="#000000">qjs::js_property_traits</text>
<text text-anchor="start" x="312" y="-244.5939" font-family="Helvetica,sans-Serif" font-size="10.00" fill="#000000">&lt; const char * &gt;::get</text>
<text text-anchor="middle" x="359" y="-233.5939" font-family="Helvetica,sans-Serif" font-size="10.00" fill="#000000">_property</text>
</a>
</g>
</g>
<!-- Node82931&#45;&gt;Node82933 -->
<g id="edge24" class="edge">
<title>Node82931&#45;&gt;Node82933</title>
<path fill="none" stroke="#191970" d="M241.4352,-266.964C261.626,-263.5514 284.0488,-259.7617 303.8526,-256.4145"/>
<polygon fill="#191970" stroke="#191970" points="240.6929,-263.5397 231.416,-268.6573 241.8595,-270.4418 240.6929,-263.5397"/>
</g>
<!-- Node82934 -->
<g id="node22" class="node">
<title>Node82934</title>
<g id="a_node22"><a xlink:href="quickjs-libc_8c.html#ad94572b16428965bd7780a285c188c77" target="_top" xlink:title="get_bool_option">
<polygon fill="none" stroke="#ff0000" points="316.5,-188.5939 316.5,-207.5939 401.5,-207.5939 401.5,-188.5939 316.5,-188.5939"/>
<text text-anchor="middle" x="359" y="-195.5939" font-family="Helvetica,sans-Serif" font-size="10.00" fill="#000000">get_bool_option</text>
</a>
</g>
</g>
<!-- Node82931&#45;&gt;Node82934 -->
<g id="edge25" class="edge">
<title>Node82931&#45;&gt;Node82934</title>
<path fill="none" stroke="#191970" d="M239.281,-263.7732C243.0162,-262.0953 246.6271,-260.2104 250,-258.0939 270.5405,-245.2044 265.3574,-229.8191 286,-217.0939 295.1412,-211.4587 305.9162,-207.4841 316.3403,-204.6845"/>
<polygon fill="#191970" stroke="#191970" points="237.8097,-260.5914 229.8048,-267.532 240.3907,-267.0983 237.8097,-260.5914"/>
</g>
<!-- Node82936 -->
<g id="node23" class="node">
<title>Node82936</title>
<g id="a_node23"><a xlink:href="quickjs-libc_8c.html#a0b92fee4bb5dda499a0b6d86da0e8be8" target="_top" xlink:title="js_os_exec">
<polygon fill="none" stroke="#000000" points="506,-169.5939 506,-188.5939 572,-188.5939 572,-169.5939 506,-169.5939"/>
<text text-anchor="middle" x="539" y="-176.5939" font-family="Helvetica,sans-Serif" font-size="10.00" fill="#000000">js_os_exec</text>
</a>
</g>
</g>
<!-- Node82931&#45;&gt;Node82936 -->
<g id="edge28" class="edge">
<title>Node82931&#45;&gt;Node82936</title>
<path fill="none" stroke="#191970" d="M240.5498,-264.5863C243.9207,-262.7141 247.1085,-260.5636 250,-258.0939 279.3393,-233.034 253.5489,-199.9677 286,-179.0939 355.2647,-134.5401 458.7872,-155.2506 509.2287,-169.524"/>
<polygon fill="#191970" stroke="#191970" points="238.8541,-261.5154 231.2771,-268.9208 241.8183,-267.8568 238.8541,-261.5154"/>
</g>
<!-- Node82934&#45;&gt;Node82917 -->
<g id="edge27" class="edge">
<title>Node82934&#45;&gt;Node82917</title>
<path fill="none" stroke="#191970" d="M411.6693,-207.3616C418.8251,-209.8683 425.8222,-213.0516 432,-217.0939 483.7873,-250.979 521.5143,-318.3932 534.2758,-343.4343"/>
<polygon fill="#191970" stroke="#191970" points="412.4621,-203.9436 401.8749,-204.3458 410.402,-210.6337 412.4621,-203.9436"/>
</g>
<!-- Node82934&#45;&gt;Node82936 -->
<g id="edge26" class="edge">
<title>Node82934&#45;&gt;Node82936</title>
<path fill="none" stroke="#191970" d="M411.6996,-192.5311C442.1711,-189.3147 479.5736,-185.3666 505.9279,-182.5848"/>
<polygon fill="#191970" stroke="#191970" points="411.2348,-189.0606 401.6575,-193.5911 411.9697,-196.022 411.2348,-189.0606"/>
</g>
<!-- Node83476&#45;&gt;Node82886 -->
<g id="edge31" class="edge">
<title>Node83476&#45;&gt;Node82886</title>
<path fill="none" stroke="#191970" d="M244.8955,-685.8798C266.6369,-688.2071 290.5943,-690.7715 310.9202,-692.9473"/>
<polygon fill="#191970" stroke="#191970" points="245.0716,-682.3788 234.7559,-684.7945 244.3265,-689.339 245.0716,-682.3788"/>
</g>
<!-- Node83059&#45;&gt;Node82907 -->
<g id="edge34" class="edge">
<title>Node83059&#45;&gt;Node82907</title>
<path fill="none" stroke="#191970" d="M407.9146,-647.988C415.994,-645.8095 424.2569,-643.4716 432,-641.0939 460.4554,-632.3559 492.5693,-620.7052 514.1257,-612.618"/>
<polygon fill="#191970" stroke="#191970" points="406.9702,-644.6173 398.1977,-650.5582 408.7602,-651.3846 406.9702,-644.6173"/>
</g>
<!-- Node83481&#45;&gt;Node82893 -->
<g id="edge36" class="edge">
<title>Node83481&#45;&gt;Node82893</title>
<path fill="none" stroke="#191970" d="M237.539,-191.3131C242.1501,-188.8682 246.4092,-185.84 250,-182.0939 298.9381,-131.0376 230.6229,-71.0832 286,-27.0939 355.6695,28.2488 472.9146,-15.5759 519.2774,-36.527"/>
<polygon fill="#191970" stroke="#191970" points="236.0893,-188.1269 228.3211,-195.3314 238.8866,-194.5437 236.0893,-188.1269"/>
</g>
</g>
</svg>
        <g id="navigator" transform="translate(0 0)" fill="#404254">
                <rect fill="#f2f5e9" fill-opacity="0.5" stroke="#606060" stroke-width=".5" x="0" y="0" width="60" height="60"/>
                <use id="zoomplus" xlink:href="#zoomPlus" x="17" y="9" onmousedown="handleZoom(evt,'in')"/>
                <use id="zoomminus" xlink:href="#zoomMin" x="42" y="9" onmousedown="handleZoom(evt,'out')"/>
                <use id="reset" xlink:href="#resetDef" x="30" y="36" onmousedown="handleReset()"/>
                <g id="arrowUp" xlink:href="#dirArrow" transform="translate(30 24)" onmousedown="handlePan(0,-1)">
                  <use xlink:href="#rim" fill="#404040">
                        <set attributeName="fill" to="#808080" begin="arrowUp.mouseover" end="arrowUp.mouseout"/>
                  </use>
                  <path fill="none" stroke="white" stroke-width="1.5" d="M0,-3.0v7 M-2.5,-0.5L0,-3.0L2.5,-0.5"/>
                </g>
                <g id="arrowRight" xlink:href="#dirArrow" transform="rotate(90) translate(36 -43)" onmousedown="handlePan(1,0)">
                  <use xlink:href="#rim" fill="#404040">
                        <set attributeName="fill" to="#808080" begin="arrowRight.mouseover" end="arrowRight.mouseout"/>
                  </use>
                  <path fill="none" stroke="white" stroke-width="1.5" d="M0,-3.0v7 M-2.5,-0.5L0,-3.0L2.5,-0.5"/>
                </g>
                <g id="arrowDown" xlink:href="#dirArrow" transform="rotate(180) translate(-30 -48)" onmousedown="handlePan(0,1)">
                  <use xlink:href="#rim" fill="#404040">
                        <set attributeName="fill" to="#808080" begin="arrowDown.mouseover" end="arrowDown.mouseout"/>
                  </use>
                  <path fill="none" stroke="white" stroke-width="1.5" d="M0,-3.0v7 M-2.5,-0.5L0,-3.0L2.5,-0.5"/>
                </g>
                <g id="arrowLeft" xlink:href="#dirArrow" transform="rotate(270) translate(-36 17)" onmousedown="handlePan(-1,0)">
                  <use xlink:href="#rim" fill="#404040">
                        <set attributeName="fill" to="#808080" begin="arrowLeft.mouseover" end="arrowLeft.mouseout"/>
                  </use>
                  <path fill="none" stroke="white" stroke-width="1.5" d="M0,-3.0v7 M-2.5,-0.5L0,-3.0L2.5,-0.5"/>
                </g>
        </g>
        <svg viewBox="0 0 15 15" width="100%" height="30px" preserveAspectRatio="xMaxYMin meet">
         <g id="arrow_out" transform="scale(0.3 0.3)">
          <a xlink:href="quickjs_8c_aa2ef5af1544a3012f91a80c98c326b8f_icgraph_org.svg" target="_base">
           <rect id="button" ry="5" rx="5" y="6" x="6" height="38" width="38"
                fill="#f2f5e9" fill-opacity="0.5" stroke="#606060" stroke-width="1.0"/>
           <path id="arrow"
             d="M 11.500037,31.436501 C 11.940474,20.09759 22.043105,11.32322 32.158766,21.979434 L 37.068811,17.246167 C 37.068811,17.246167 37.088388,32 37.088388,32 L 22.160133,31.978069 C 22.160133,31.978069 26.997745,27.140456 26.997745,27.140456 C 18.528582,18.264221 13.291696,25.230495 11.500037,31.436501 z"
             style="fill:#404040;"/>
          </a>
         </g>
        </svg>
</svg>
