<?xml version="1.0" encoding="UTF-8" standalone="no"?>
<!DOCTYPE svg PUBLIC "-//W3C//DTD SVG 1.1//EN"
 "http://www.w3.org/Graphics/SVG/1.1/DTD/svg11.dtd">
<!-- Generated by graphviz version 2.40.1 (20161225.0304)
 -->
<!-- Title: js_proxy_getPrototypeOf Pages: 1 -->
<!--zoomable 345 -->
<svg id="main" version="1.1" xmlns="http://www.w3.org/2000/svg" xmlns:xlink="http://www.w3.org/1999/xlink" xml:space="preserve" onload="init(evt)">
<style type="text/css"><![CDATA[
.edge:hover path { stroke: red; }
.edge:hover polygon { stroke: red; fill: red; }
]]></style>
<script type="text/javascript"><![CDATA[
var edges = document.getElementsByTagName('g');
if (edges && edges.length) {
  for (var i=0;i<edges.length;i++) {
    if (edges[i].id.substr(0,4)=='edge') {
      edges[i].setAttribute('class','edge');
    }
  }
}
]]></script>
        <defs>
                <circle id="rim" cx="0" cy="0" r="7"/>
                <circle id="rim2" cx="0" cy="0" r="3.5"/>
                <g id="zoomPlus">
                        <use xlink:href="#rim" fill="#404040">
                                <set attributeName="fill" to="#808080" begin="zoomplus.mouseover" end="zoomplus.mouseout"/>
                        </use>
                        <path d="M-4,0h8M0,-4v8" fill="none" stroke="white" stroke-width="1.5" pointer-events="none"/>
                </g>
                <g id="zoomMin">
                        <use xlink:href="#rim" fill="#404040">
                                <set attributeName="fill" to="#808080" begin="zoomminus.mouseover" end="zoomminus.mouseout"/>
                        </use>
                        <path d="M-4,0h8" fill="none" stroke="white" stroke-width="1.5" pointer-events="none"/>
                </g>
                <g id="dirArrow">
                        <path fill="none" stroke="white" stroke-width="1.5" d="M0,-3.0v7 M-2.5,-0.5L0,-3.0L2.5,-0.5"/>
                </g>
               <g id="resetDef">
                       <use xlink:href="#rim2" fill="#404040">
                               <set attributeName="fill" to="#808080" begin="reset.mouseover" end="reset.mouseout"/>
                       </use>
               </g>
        </defs>

<script type="text/javascript">
var viewWidth = 592;
var viewHeight = 345;
var sectionId = 'dynsection-42';
</script>
<script xlink:href="svgpan.js"/>
<svg id="graph" class="graph">
<g id="viewport">
<title>js_proxy_getPrototypeOf</title>
<!-- Node15032 -->
<g id="node1" class="node">
<title>Node15032</title>
<polygon fill="#bfbfbf" stroke="#000000" points="0,-152.5 0,-171.5 125,-171.5 125,-152.5 0,-152.5"/>
<text text-anchor="middle" x="62.5" y="-159.5" font-family="Helvetica,sans-Serif" font-size="10.00" fill="#000000">js_proxy_getPrototypeOf</text>
</g>
<!-- Node15033 -->
<g id="node2" class="node">
<title>Node15033</title>
<g id="a_node2"><a xlink:href="quickjs_8c.html#a23a30fec3b10bfa38c3dc29b4cb1c99d" target="_top" xlink:title="JS_GetPrototype">
<polygon fill="none" stroke="#000000" points="161,-152.5 161,-171.5 253,-171.5 253,-152.5 161,-152.5"/>
<text text-anchor="middle" x="207" y="-159.5" font-family="Helvetica,sans-Serif" font-size="10.00" fill="#000000">JS_GetPrototype</text>
</a>
</g>
</g>
<!-- Node15032&#45;&gt;Node15033 -->
<g id="edge1" class="edge">
<title>Node15032&#45;&gt;Node15033</title>
<path fill="none" stroke="#191970" d="M135.2643,-155.2502C143.9966,-155.2553 152.7189,-155.392 160.9208,-155.6601"/>
<polygon fill="#191970" stroke="#191970" points="135.0206,-151.7513 125.0394,-155.3045 135.0579,-158.7512 135.0206,-151.7513"/>
</g>
<!-- Node15033&#45;&gt;Node15032 -->
<g id="edge16" class="edge">
<title>Node15033&#45;&gt;Node15032</title>
<path fill="none" stroke="#191970" d="M150.8057,-168.5996C142.3606,-168.7602 133.6072,-168.7922 125.0394,-168.6955"/>
<polygon fill="#191970" stroke="#191970" points="151.014,-172.0955 160.9208,-168.3399 150.8343,-165.0978 151.014,-172.0955"/>
</g>
<!-- Node15034 -->
<g id="node3" class="node">
<title>Node15034</title>
<g id="a_node3"><a xlink:href="quickjs_8c.html#aa0b5c1a59ff4832154e2a98d7c63a4b2" target="_top" xlink:title="JS_OrdinaryIsInstanceOf">
<polygon fill="none" stroke="#000000" points="294,-308.5 294,-327.5 421,-327.5 421,-308.5 294,-308.5"/>
<text text-anchor="middle" x="357.5" y="-315.5" font-family="Helvetica,sans-Serif" font-size="10.00" fill="#000000">JS_OrdinaryIsInstanceOf</text>
</a>
</g>
</g>
<!-- Node15033&#45;&gt;Node15034 -->
<g id="edge2" class="edge">
<title>Node15033&#45;&gt;Node15034</title>
<path fill="none" stroke="#191970" d="M213.9439,-181.3245C225.2643,-210.1612 250.3847,-264.3364 289,-295 296.2699,-300.7729 305.0605,-305.1301 313.8853,-308.4078"/>
<polygon fill="#191970" stroke="#191970" points="217.0856,-179.7363 210.2815,-171.615 210.536,-182.2068 217.0856,-179.7363"/>
</g>
<!-- Node15282 -->
<g id="node6" class="node">
<title>Node15282</title>
<g id="a_node6"><a xlink:href="quickjs_8c.html#a5762c57ae0c9937e986040c01222833a" target="_top" xlink:title="JS_GetPropertyInternal">
<polygon fill="none" stroke="#ff0000" points="298,-266.5 298,-285.5 417,-285.5 417,-266.5 298,-266.5"/>
<text text-anchor="middle" x="357.5" y="-273.5" font-family="Helvetica,sans-Serif" font-size="10.00" fill="#000000">JS_GetPropertyInternal</text>
</a>
</g>
</g>
<!-- Node15033&#45;&gt;Node15282 -->
<g id="edge6" class="edge">
<title>Node15033&#45;&gt;Node15282</title>
<path fill="none" stroke="#191970" d="M219.0711,-179.8753C233.5199,-200.0159 259.4941,-232.481 289,-252 298.2485,-258.1182 309.2329,-262.866 319.6669,-266.4627"/>
<polygon fill="#191970" stroke="#191970" points="221.8701,-177.7704 213.2722,-171.5796 216.1329,-181.7809 221.8701,-177.7704"/>
</g>
<!-- Node15037 -->
<g id="node7" class="node">
<title>Node15037</title>
<g id="a_node7"><a xlink:href="quickjs_8c.html#ac2894ff4edcdb4e6841bcce9c76081e3" target="_top" xlink:title="JS_CallInternal">
<polygon fill="none" stroke="#ff0000" points="481.5,-223.5 481.5,-242.5 564.5,-242.5 564.5,-223.5 481.5,-223.5"/>
<text text-anchor="middle" x="523" y="-230.5" font-family="Helvetica,sans-Serif" font-size="10.00" fill="#000000">JS_CallInternal</text>
</a>
</g>
</g>
<!-- Node15033&#45;&gt;Node15037 -->
<g id="edge11" class="edge">
<title>Node15033&#45;&gt;Node15037</title>
<path fill="none" stroke="#191970" d="M224.8365,-178.7939C240.4384,-192.3332 264.3966,-210.4736 289,-219 353.2181,-241.255 433.2309,-240.4319 481.1031,-237.1698"/>
<polygon fill="#191970" stroke="#191970" points="226.859,-175.9065 217.0774,-171.8358 222.1855,-181.1179 226.859,-175.9065"/>
</g>
<!-- Node15143 -->
<g id="node8" class="node">
<title>Node15143</title>
<g id="a_node8"><a xlink:href="quickjs_8c.html#ad7f03358a8088ca920ab308225c6b2e6" target="_top" xlink:title="JS_SetPropertyInternal">
<polygon fill="none" stroke="#ff0000" points="298.5,-190.5 298.5,-209.5 416.5,-209.5 416.5,-190.5 298.5,-190.5"/>
<text text-anchor="middle" x="357.5" y="-197.5" font-family="Helvetica,sans-Serif" font-size="10.00" fill="#000000">JS_SetPropertyInternal</text>
</a>
</g>
</g>
<!-- Node15033&#45;&gt;Node15143 -->
<g id="edge9" class="edge">
<title>Node15033&#45;&gt;Node15143</title>
<path fill="none" stroke="#191970" d="M254.6847,-174.04C275.7103,-179.3488 300.0674,-185.4988 319.7956,-190.4799"/>
<polygon fill="#191970" stroke="#191970" points="255.5301,-170.6437 244.9775,-171.589 253.8164,-177.4307 255.5301,-170.6437"/>
</g>
<!-- Node15616 -->
<g id="node9" class="node">
<title>Node15616</title>
<g id="a_node9"><a xlink:href="quickjs_8c.html#ad3ae6750957868bc31ebfcb116b4df9c" target="_top" xlink:title="js_object_getPrototypeOf">
<polygon fill="none" stroke="#000000" points="294,-152.5 294,-171.5 421,-171.5 421,-152.5 294,-152.5"/>
<text text-anchor="middle" x="357.5" y="-159.5" font-family="Helvetica,sans-Serif" font-size="10.00" fill="#000000">js_object_getPrototypeOf</text>
</a>
</g>
</g>
<!-- Node15033&#45;&gt;Node15616 -->
<g id="edge12" class="edge">
<title>Node15033&#45;&gt;Node15616</title>
<path fill="none" stroke="#191970" d="M263.4994,-162C273.3976,-162 283.7581,-162 293.8347,-162"/>
<polygon fill="#191970" stroke="#191970" points="263.383,-158.5001 253.383,-162 263.383,-165.5001 263.383,-158.5001"/>
</g>
<!-- Node15589 -->
<g id="node10" class="node">
<title>Node15589</title>
<g id="a_node10"><a xlink:href="quickjs_8c.html#a0b46bf41453514070c7c0d722b107546" target="_top" xlink:title="js_object_get___proto__">
<polygon fill="none" stroke="#000000" points="296.5,-114.5 296.5,-133.5 418.5,-133.5 418.5,-114.5 296.5,-114.5"/>
<text text-anchor="middle" x="357.5" y="-121.5" font-family="Helvetica,sans-Serif" font-size="10.00" fill="#000000">js_object_get___proto__</text>
</a>
</g>
</g>
<!-- Node15033&#45;&gt;Node15589 -->
<g id="edge13" class="edge">
<title>Node15033&#45;&gt;Node15589</title>
<path fill="none" stroke="#191970" d="M254.6847,-149.96C275.7103,-144.6512 300.0674,-138.5012 319.7956,-133.5201"/>
<polygon fill="#191970" stroke="#191970" points="253.8164,-146.5693 244.9775,-152.411 255.5301,-153.3563 253.8164,-146.5693"/>
</g>
<!-- Node15590 -->
<g id="node11" class="node">
<title>Node15590</title>
<g id="a_node11"><a xlink:href="quickjs_8c.html#a04be55d1144f71bce472514bd31f0796" target="_top" xlink:title="js_object_isPrototypeOf">
<polygon fill="none" stroke="#000000" points="297,-76.5 297,-95.5 418,-95.5 418,-76.5 297,-76.5"/>
<text text-anchor="middle" x="357.5" y="-83.5" font-family="Helvetica,sans-Serif" font-size="10.00" fill="#000000">js_object_isPrototypeOf</text>
</a>
</g>
</g>
<!-- Node15033&#45;&gt;Node15590 -->
<g id="edge14" class="edge">
<title>Node15033&#45;&gt;Node15590</title>
<path fill="none" stroke="#191970" d="M226.1785,-145.8601C242.1063,-133.1728 265.8274,-115.8811 289,-105 296.9315,-101.2756 305.7324,-98.1557 314.3105,-95.5913"/>
<polygon fill="#191970" stroke="#191970" points="223.7319,-143.3386 218.1844,-152.365 228.15,-148.7682 223.7319,-143.3386"/>
</g>
<!-- Node15317 -->
<g id="node12" class="node">
<title>Node15317</title>
<g id="a_node12"><a xlink:href="quickjs_8c.html#a26abea9136a3d8e9a861aefb51626b4e" target="_top" xlink:title="js_object___lookupGetter__">
<polygon fill="none" stroke="#000000" points="289,-38.5 289,-57.5 426,-57.5 426,-38.5 289,-38.5"/>
<text text-anchor="middle" x="357.5" y="-45.5" font-family="Helvetica,sans-Serif" font-size="10.00" fill="#000000">js_object___lookupGetter__</text>
</a>
</g>
</g>
<!-- Node15033&#45;&gt;Node15317 -->
<g id="edge15" class="edge">
<title>Node15033&#45;&gt;Node15317</title>
<path fill="none" stroke="#191970" d="M217.9846,-143.6981C231.8588,-122.1525 257.7358,-86.8038 289,-67 295.1512,-63.1036 302.1055,-59.994 309.166,-57.5155"/>
<polygon fill="#191970" stroke="#191970" points="214.965,-141.9258 212.6352,-152.2613 220.9018,-145.6345 214.965,-141.9258"/>
</g>
<!-- Node15606 -->
<g id="node13" class="node">
<title>Node15606</title>
<g id="a_node13"><a xlink:href="quickjs_8c.html#ae8b32777df50bb192c19840adc4d32a1" target="_top" xlink:title="js_proxy_setPrototypeOf">
<polygon fill="none" stroke="#ff0000" points="295,-.5 295,-19.5 420,-19.5 420,-.5 295,-.5"/>
<text text-anchor="middle" x="357.5" y="-7.5" font-family="Helvetica,sans-Serif" font-size="10.00" fill="#000000">js_proxy_setPrototypeOf</text>
</a>
</g>
</g>
<!-- Node15033&#45;&gt;Node15606 -->
<g id="edge17" class="edge">
<title>Node15033&#45;&gt;Node15606</title>
<path fill="none" stroke="#191970" d="M213.5957,-142.7971C224.5798,-113.7167 249.4067,-58.7529 289,-29 294.1304,-25.1447 300.0029,-22.0717 306.1043,-19.6222"/>
<polygon fill="#191970" stroke="#191970" points="210.2884,-141.6509 210.1735,-152.2452 216.8699,-144.0349 210.2884,-141.6509"/>
</g>
<!-- Node15035 -->
<g id="node4" class="node">
<title>Node15035</title>
<g id="a_node4"><a xlink:href="quickjs_8c.html#af4cd70eee97bbcab2d0f2e46cf53ccd7" target="_top" xlink:title="JS_IsInstanceOf">
<polygon fill="none" stroke="#ff0000" points="478,-317.5 478,-336.5 568,-336.5 568,-317.5 478,-317.5"/>
<text text-anchor="middle" x="523" y="-324.5" font-family="Helvetica,sans-Serif" font-size="10.00" fill="#000000">JS_IsInstanceOf</text>
</a>
</g>
</g>
<!-- Node15034&#45;&gt;Node15035 -->
<g id="edge3" class="edge">
<title>Node15034&#45;&gt;Node15035</title>
<path fill="none" stroke="#191970" d="M431.3475,-315.3007C447.2079,-316.0386 463.5097,-317.1346 477.8857,-318.46"/>
<polygon fill="#191970" stroke="#191970" points="431.1508,-311.7895 421.0133,-314.8687 430.8584,-318.7834 431.1508,-311.7895"/>
</g>
<!-- Node15615 -->
<g id="node5" class="node">
<title>Node15615</title>
<g id="a_node5"><a xlink:href="quickjs_8c.html#aba5795cd66ffd3fb40bd070e0f4feeef" target="_top" xlink:title="js_function_hasInstance">
<polygon fill="none" stroke="#000000" points="462,-279.5 462,-298.5 584,-298.5 584,-279.5 462,-279.5"/>
<text text-anchor="middle" x="523" y="-286.5" font-family="Helvetica,sans-Serif" font-size="10.00" fill="#000000">js_function_hasInstance</text>
</a>
</g>
</g>
<!-- Node15034&#45;&gt;Node15615 -->
<g id="edge5" class="edge">
<title>Node15034&#45;&gt;Node15615</title>
<path fill="none" stroke="#191970" d="M422.1199,-306.6769C437.5217,-303.9781 453.8048,-301.1248 468.69,-298.5165"/>
<polygon fill="#191970" stroke="#191970" points="421.3954,-303.2504 412.1496,-308.4239 422.6036,-310.1454 421.3954,-303.2504"/>
</g>
<!-- Node15035&#45;&gt;Node15034 -->
<g id="edge4" class="edge">
<title>Node15035&#45;&gt;Node15034</title>
<path fill="none" stroke="#191970" d="M467.5105,-330.3958C450.2852,-329.8994 431.2856,-328.8746 413.9928,-327.5106"/>
<polygon fill="#191970" stroke="#191970" points="467.898,-333.9054 477.9754,-330.6348 468.058,-326.9073 467.898,-333.9054"/>
</g>
<!-- Node15282&#45;&gt;Node15037 -->
<g id="edge7" class="edge">
<title>Node15282&#45;&gt;Node15037</title>
<path fill="none" stroke="#191970" d="M404.2474,-263.8542C430.2656,-257.0941 462.1825,-248.8015 486.3729,-242.5164"/>
<polygon fill="#191970" stroke="#191970" points="403.0283,-260.5546 394.2298,-266.4569 404.7886,-267.3297 403.0283,-260.5546"/>
</g>
<!-- Node15037&#45;&gt;Node15037 -->
<g id="edge8" class="edge">
<title>Node15037&#45;&gt;Node15037</title>
<path fill="none" stroke="#191970" d="M492.3114,-251.2746C493.1864,-256.741 503.4159,-261 523,-261 552.1484,-261 560.5742,-251.5653 548.2772,-242.7571"/>
<polygon fill="#191970" stroke="#191970" points="495.3144,-253.0745 497.7228,-242.7571 489.406,-249.3207 495.3144,-253.0745"/>
</g>
<!-- Node15143&#45;&gt;Node15037 -->
<g id="edge10" class="edge">
<title>Node15143&#45;&gt;Node15037</title>
<path fill="none" stroke="#191970" d="M415.1848,-211.5021C436.9944,-215.8508 461.369,-220.711 481.4176,-224.7087"/>
<polygon fill="#191970" stroke="#191970" points="415.8608,-208.0681 405.3695,-209.545 414.492,-214.9329 415.8608,-208.0681"/>
</g>
</g>
</svg>
        <g id="navigator" transform="translate(0 0)" fill="#404254">
                <rect fill="#f2f5e9" fill-opacity="0.5" stroke="#606060" stroke-width=".5" x="0" y="0" width="60" height="60"/>
                <use id="zoomplus" xlink:href="#zoomPlus" x="17" y="9" onmousedown="handleZoom(evt,'in')"/>
                <use id="zoomminus" xlink:href="#zoomMin" x="42" y="9" onmousedown="handleZoom(evt,'out')"/>
                <use id="reset" xlink:href="#resetDef" x="30" y="36" onmousedown="handleReset()"/>
                <g id="arrowUp" xlink:href="#dirArrow" transform="translate(30 24)" onmousedown="handlePan(0,-1)">
                  <use xlink:href="#rim" fill="#404040">
                        <set attributeName="fill" to="#808080" begin="arrowUp.mouseover" end="arrowUp.mouseout"/>
                  </use>
                  <path fill="none" stroke="white" stroke-width="1.5" d="M0,-3.0v7 M-2.5,-0.5L0,-3.0L2.5,-0.5"/>
                </g>
                <g id="arrowRight" xlink:href="#dirArrow" transform="rotate(90) translate(36 -43)" onmousedown="handlePan(1,0)">
                  <use xlink:href="#rim" fill="#404040">
                        <set attributeName="fill" to="#808080" begin="arrowRight.mouseover" end="arrowRight.mouseout"/>
                  </use>
                  <path fill="none" stroke="white" stroke-width="1.5" d="M0,-3.0v7 M-2.5,-0.5L0,-3.0L2.5,-0.5"/>
                </g>
                <g id="arrowDown" xlink:href="#dirArrow" transform="rotate(180) translate(-30 -48)" onmousedown="handlePan(0,1)">
                  <use xlink:href="#rim" fill="#404040">
                        <set attributeName="fill" to="#808080" begin="arrowDown.mouseover" end="arrowDown.mouseout"/>
                  </use>
                  <path fill="none" stroke="white" stroke-width="1.5" d="M0,-3.0v7 M-2.5,-0.5L0,-3.0L2.5,-0.5"/>
                </g>
                <g id="arrowLeft" xlink:href="#dirArrow" transform="rotate(270) translate(-36 17)" onmousedown="handlePan(-1,0)">
                  <use xlink:href="#rim" fill="#404040">
                        <set attributeName="fill" to="#808080" begin="arrowLeft.mouseover" end="arrowLeft.mouseout"/>
                  </use>
                  <path fill="none" stroke="white" stroke-width="1.5" d="M0,-3.0v7 M-2.5,-0.5L0,-3.0L2.5,-0.5"/>
                </g>
        </g>
        <svg viewBox="0 0 15 15" width="100%" height="30px" preserveAspectRatio="xMaxYMin meet">
         <g id="arrow_out" transform="scale(0.3 0.3)">
          <a xlink:href="quickjs_8c_abec3cc345c6b3c1be76a0dc63fd7fa2f_icgraph_org.svg" target="_base">
           <rect id="button" ry="5" rx="5" y="6" x="6" height="38" width="38"
                fill="#f2f5e9" fill-opacity="0.5" stroke="#606060" stroke-width="1.0"/>
           <path id="arrow"
             d="M 11.500037,31.436501 C 11.940474,20.09759 22.043105,11.32322 32.158766,21.979434 L 37.068811,17.246167 C 37.068811,17.246167 37.088388,32 37.088388,32 L 22.160133,31.978069 C 22.160133,31.978069 26.997745,27.140456 26.997745,27.140456 C 18.528582,18.264221 13.291696,25.230495 11.500037,31.436501 z"
             style="fill:#404040;"/>
          </a>
         </g>
        </svg>
</svg>
