<?xml version="1.0" encoding="UTF-8" standalone="no"?>
<!DOCTYPE svg PUBLIC "-//W3C//DTD SVG 1.1//EN"
 "http://www.w3.org/Graphics/SVG/1.1/DTD/svg11.dtd">
<!-- Generated by graphviz version 2.40.1 (20161225.0304)
 -->
<!-- Title: JS_WriteObjectRec Pages: 1 -->
<svg width="798pt" height="598pt"
 viewBox="0.00 0.00 798.00 598.00" xmlns="http://www.w3.org/2000/svg" xmlns:xlink="http://www.w3.org/1999/xlink">
<g id="graph0" class="graph" transform="scale(1 1) rotate(0) translate(4 594)">
<title>JS_WriteObjectRec</title>
<!-- Node342664 -->
<g id="node1" class="node">
<title>Node342664</title>
<polygon fill="#bfbfbf" stroke="#000000" points="0,-266.5 0,-285.5 104,-285.5 104,-266.5 0,-266.5"/>
<text text-anchor="middle" x="52" y="-273.5" font-family="Helvetica,sans-Serif" font-size="10.00" fill="#000000">JS_WriteObjectRec</text>
</g>
<!-- Node342664&#45;&gt;Node342664 -->
<g id="edge42" class="edge">
<title>Node342664&#45;&gt;Node342664</title>
<path fill="none" stroke="#191970" d="M31.9632,-285.7571C22.2156,-294.5653 28.8945,-304 52,-304 66.8019,-304 74.8624,-300.128 76.1814,-295.0292"/>
<polygon fill="#191970" stroke="#191970" points="79.313,-293.4582 72.0368,-285.7571 72.9224,-296.3148 79.313,-293.4582"/>
</g>
<!-- Node342665 -->
<g id="node2" class="node">
<title>Node342665</title>
<g id="a_node2"><a xlink:href="quickjs_8c.html#a853f0924d441ea4225488f37c8b69f9a" target="_top" xlink:title="__attribute__">
<polygon fill="none" stroke="#000000" points="146.5,-532.5 146.5,-551.5 219.5,-551.5 219.5,-532.5 146.5,-532.5"/>
<text text-anchor="middle" x="183" y="-539.5" font-family="Helvetica,sans-Serif" font-size="10.00" fill="#000000">__attribute__</text>
</a>
</g>
</g>
<!-- Node342664&#45;&gt;Node342665 -->
<g id="edge1" class="edge">
<title>Node342664&#45;&gt;Node342665</title>
<path fill="none" stroke="#191970" d="M53.0654,-285.5082C57.4311,-320.4807 76.8256,-443.7906 140,-518 142.9476,-521.4625 146.5265,-524.5222 150.3472,-527.197"/>
<polygon fill="#191970" stroke="#191970" points="148.5869,-530.223 158.9462,-532.4448 152.2335,-524.2478 148.5869,-530.223"/>
</g>
<!-- Node342666 -->
<g id="node3" class="node">
<title>Node342666</title>
<g id="a_node3"><a xlink:href="quickjs_8c.html#a55f34a1bb7e361c23cb8139c100a615f" target="_top" xlink:title="bc_put_atom">
<polygon fill="none" stroke="#000000" points="146.5,-456.5 146.5,-475.5 219.5,-475.5 219.5,-456.5 146.5,-456.5"/>
<text text-anchor="middle" x="183" y="-463.5" font-family="Helvetica,sans-Serif" font-size="10.00" fill="#000000">bc_put_atom</text>
</a>
</g>
</g>
<!-- Node342664&#45;&gt;Node342666 -->
<g id="edge2" class="edge">
<title>Node342664&#45;&gt;Node342666</title>
<path fill="none" stroke="#191970" d="M54.9879,-285.8045C63.8382,-313.4671 92.3184,-393.2763 140,-442 143.4084,-445.4829 147.4307,-448.6046 151.6247,-451.3533"/>
<polygon fill="#191970" stroke="#191970" points="149.9372,-454.4213 160.3325,-456.4678 153.4824,-448.3854 149.9372,-454.4213"/>
</g>
<!-- Node342670 -->
<g id="node7" class="node">
<title>Node342670</title>
<g id="a_node7"><a xlink:href="quickjs_8c.html#a5c417bcd8453a3ab8f4ced37e8f86bf2" target="_top" xlink:title="bc_put_leb128">
<polygon fill="none" stroke="#000000" points="268.5,-228.5 268.5,-247.5 348.5,-247.5 348.5,-228.5 268.5,-228.5"/>
<text text-anchor="middle" x="308.5" y="-235.5" font-family="Helvetica,sans-Serif" font-size="10.00" fill="#000000">bc_put_leb128</text>
</a>
</g>
</g>
<!-- Node342664&#45;&gt;Node342670 -->
<g id="edge11" class="edge">
<title>Node342664&#45;&gt;Node342670</title>
<path fill="none" stroke="#191970" d="M104.0947,-267.5684C115.8954,-265.6985 128.3742,-263.7526 140,-262 179.719,-256.0123 224.7674,-249.6164 258.2859,-244.9341"/>
<polygon fill="#191970" stroke="#191970" points="258.8783,-248.3855 268.2994,-243.5384 257.9119,-241.4525 258.8783,-248.3855"/>
</g>
<!-- Node342675 -->
<g id="node11" class="node">
<title>Node342675</title>
<g id="a_node11"><a xlink:href="quickjs_8c.html#a27f947bd87f87a0672cb81a01add8a02" target="_top" xlink:title="bc_put_sleb128">
<polygon fill="none" stroke="#000000" points="140.5,-190.5 140.5,-209.5 225.5,-209.5 225.5,-190.5 140.5,-190.5"/>
<text text-anchor="middle" x="183" y="-197.5" font-family="Helvetica,sans-Serif" font-size="10.00" fill="#000000">bc_put_sleb128</text>
</a>
</g>
</g>
<!-- Node342664&#45;&gt;Node342675 -->
<g id="edge12" class="edge">
<title>Node342664&#45;&gt;Node342675</title>
<path fill="none" stroke="#191970" d="M67.8286,-266.4879C85.3924,-255.9703 114.6101,-238.5842 140,-224 145.3191,-220.9447 151.0344,-217.7167 156.5059,-214.6529"/>
<polygon fill="#191970" stroke="#191970" points="158.3406,-217.6373 165.3711,-209.7112 154.9323,-211.5231 158.3406,-217.6373"/>
</g>
<!-- Node342677 -->
<g id="node13" class="node">
<title>Node342677</title>
<g id="a_node13"><a xlink:href="quickjs_8c.html#a226c9e47a5047a3adcce0950aa3e3610" target="_top" xlink:title="bc_put_u16">
<polygon fill="none" stroke="#000000" points="275,-76.5 275,-95.5 342,-95.5 342,-76.5 275,-76.5"/>
<text text-anchor="middle" x="308.5" y="-83.5" font-family="Helvetica,sans-Serif" font-size="10.00" fill="#000000">bc_put_u16</text>
</a>
</g>
</g>
<!-- Node342664&#45;&gt;Node342677 -->
<g id="edge15" class="edge">
<title>Node342664&#45;&gt;Node342677</title>
<path fill="none" stroke="#191970" d="M53.7418,-266.1441C59.6225,-236.0871 81.7371,-145.1946 140,-105 176.3904,-79.8949 228.0714,-77.7059 264.5803,-80.1861"/>
<polygon fill="#191970" stroke="#191970" points="264.6651,-83.7049 274.9192,-81.0395 265.241,-76.7286 264.6651,-83.7049"/>
</g>
<!-- Node342680 -->
<g id="node16" class="node">
<title>Node342680</title>
<g id="a_node16"><a xlink:href="quickjs_8c.html#a62769be0f680a8dc54843456a730d84a" target="_top" xlink:title="bc_put_u64">
<polygon fill="none" stroke="#000000" points="149.5,-38.5 149.5,-57.5 216.5,-57.5 216.5,-38.5 149.5,-38.5"/>
<text text-anchor="middle" x="183" y="-45.5" font-family="Helvetica,sans-Serif" font-size="10.00" fill="#000000">bc_put_u64</text>
</a>
</g>
</g>
<!-- Node342664&#45;&gt;Node342680 -->
<g id="edge19" class="edge">
<title>Node342664&#45;&gt;Node342680</title>
<path fill="none" stroke="#191970" d="M53.8616,-266.2756C60.3542,-234.6547 84.6791,-133.2609 140,-72 143.1138,-68.5518 146.8433,-65.4861 150.7868,-62.7959"/>
<polygon fill="#191970" stroke="#191970" points="152.8322,-65.6503 159.6056,-57.5035 149.2301,-59.6482 152.8322,-65.6503"/>
</g>
<!-- Node342682 -->
<g id="node18" class="node">
<title>Node342682</title>
<g id="a_node18"><a xlink:href="quickjs_8c.html#a1691ba44aef8ba12408b5a824d07600a" target="_top" xlink:title="bc_put_u8">
<polygon fill="none" stroke="#000000" points="419.5,-152.5 419.5,-171.5 481.5,-171.5 481.5,-152.5 419.5,-152.5"/>
<text text-anchor="middle" x="450.5" y="-159.5" font-family="Helvetica,sans-Serif" font-size="10.00" fill="#000000">bc_put_u8</text>
</a>
</g>
</g>
<!-- Node342664&#45;&gt;Node342682 -->
<g id="edge22" class="edge">
<title>Node342664&#45;&gt;Node342682</title>
<path fill="none" stroke="#191970" d="M57.4901,-266.209C69.4389,-245.9961 99.9742,-199.9595 140,-181 228.3563,-139.1471 347.0161,-146.9849 408.9399,-155.1654"/>
<polygon fill="#191970" stroke="#191970" points="408.7135,-158.6675 419.1005,-156.579 409.6782,-151.7343 408.7135,-158.6675"/>
</g>
<!-- Node342683 -->
<g id="node19" class="node">
<title>Node342683</title>
<g id="a_node19"><a xlink:href="quickjs_8c.html#a643df594b75933007bcdbb071b5ea8c5" target="_top" xlink:title="get_shape_prop">
<polygon fill="none" stroke="#000000" points="140,-.5 140,-19.5 226,-19.5 226,-.5 140,-.5"/>
<text text-anchor="middle" x="183" y="-7.5" font-family="Helvetica,sans-Serif" font-size="10.00" fill="#000000">get_shape_prop</text>
</a>
</g>
</g>
<!-- Node342664&#45;&gt;Node342683 -->
<g id="edge24" class="edge">
<title>Node342664&#45;&gt;Node342683</title>
<path fill="none" stroke="#191970" d="M52.7771,-266.0952C56.1365,-229.701 72.4647,-101.7135 140,-29 141.2219,-27.6844 142.5514,-26.4546 143.9609,-25.3055"/>
<polygon fill="#191970" stroke="#191970" points="146.268,-27.9785 152.7173,-19.5727 142.4337,-22.122 146.268,-27.9785"/>
</g>
<!-- Node342684 -->
<g id="node20" class="node">
<title>Node342684</title>
<g id="a_node20"><a xlink:href="quickjs_8c.html#a0cb22a5238646cb008179fa2ad24827d" target="_top" xlink:title="JS_AtomIsString">
<polygon fill="none" stroke="#000000" points="263,-570.5 263,-589.5 354,-589.5 354,-570.5 263,-570.5"/>
<text text-anchor="middle" x="308.5" y="-577.5" font-family="Helvetica,sans-Serif" font-size="10.00" fill="#000000">JS_AtomIsString</text>
</a>
</g>
</g>
<!-- Node342664&#45;&gt;Node342684 -->
<g id="edge25" class="edge">
<title>Node342664&#45;&gt;Node342684</title>
<path fill="none" stroke="#191970" d="M53.4835,-285.7195C58.9274,-318.2453 80.674,-424.624 140,-485 169.2877,-514.8061 191.0238,-500.1344 226,-523 244.1673,-534.8769 244.1996,-543.58 262,-556 266.9639,-559.4635 272.4935,-562.7498 277.9583,-565.7165"/>
<polygon fill="#191970" stroke="#191970" points="276.4921,-568.8985 286.9825,-570.3825 279.7071,-562.6805 276.4921,-568.8985"/>
</g>
<!-- Node342686 -->
<g id="node22" class="node">
<title>Node342686</title>
<g id="a_node22"><a xlink:href="quickjs_8h.html#afaa20c47565bc704c6c85f3d77254e7d" target="_top" xlink:title="JS_FreeValue">
<polygon fill="none" stroke="#000000" points="566.5,-399.5 566.5,-418.5 644.5,-418.5 644.5,-399.5 566.5,-399.5"/>
<text text-anchor="middle" x="605.5" y="-406.5" font-family="Helvetica,sans-Serif" font-size="10.00" fill="#000000">JS_FreeValue</text>
</a>
</g>
</g>
<!-- Node342664&#45;&gt;Node342686 -->
<g id="edge28" class="edge">
<title>Node342664&#45;&gt;Node342686</title>
<path fill="none" stroke="#191970" d="M57.5211,-285.7263C69.5287,-305.8168 100.1691,-351.6345 140,-371 176.7276,-388.8567 443.9331,-402.1419 556.1193,-406.9921"/>
<polygon fill="#191970" stroke="#191970" points="556.0207,-410.491 566.1612,-407.4216 556.3199,-403.4974 556.0207,-410.491"/>
</g>
<!-- Node342721 -->
<g id="node24" class="node">
<title>Node342721</title>
<g id="a_node24"><a xlink:href="quickjs_8c.html#a718e904644ebc55548a5bdbd44f3adb9" target="_top" xlink:title="js_get_length32">
<polygon fill="none" stroke="#000000" points="140.5,-342.5 140.5,-361.5 225.5,-361.5 225.5,-342.5 140.5,-342.5"/>
<text text-anchor="middle" x="183" y="-349.5" font-family="Helvetica,sans-Serif" font-size="10.00" fill="#000000">js_get_length32</text>
</a>
</g>
</g>
<!-- Node342664&#45;&gt;Node342721 -->
<g id="edge30" class="edge">
<title>Node342664&#45;&gt;Node342721</title>
<path fill="none" stroke="#191970" d="M67.8286,-285.5121C85.3924,-296.0297 114.6101,-313.4158 140,-328 145.3191,-331.0553 151.0344,-334.2833 156.5059,-337.3471"/>
<polygon fill="#191970" stroke="#191970" points="154.9323,-340.4769 165.3711,-342.2888 158.3406,-334.3627 154.9323,-340.4769"/>
</g>
<!-- Node342722 -->
<g id="node25" class="node">
<title>Node342722</title>
<g id="a_node25"><a xlink:href="quickjs_8h.html#a89b7c8686c7eee70b86be722ee4730ad" target="_top" xlink:title="JS_GetProperty">
<polygon fill="none" stroke="#000000" points="265.5,-418.5 265.5,-437.5 351.5,-437.5 351.5,-418.5 265.5,-418.5"/>
<text text-anchor="middle" x="308.5" y="-425.5" font-family="Helvetica,sans-Serif" font-size="10.00" fill="#000000">JS_GetProperty</text>
</a>
</g>
</g>
<!-- Node342664&#45;&gt;Node342722 -->
<g id="edge39" class="edge">
<title>Node342664&#45;&gt;Node342722</title>
<path fill="none" stroke="#191970" d="M55.4918,-285.7477C64.8493,-310.3131 93.0148,-374.8692 140,-404 174.4002,-425.3281 220.2291,-430.7033 255.4076,-431.0912"/>
<polygon fill="#191970" stroke="#191970" points="255.4998,-434.5911 265.4926,-431.0709 255.4856,-427.5912 255.4998,-434.5911"/>
</g>
<!-- Node342802 -->
<g id="node27" class="node">
<title>Node342802</title>
<g id="a_node27"><a xlink:href="quickjs_8c.html#aeb97957655d979e9fe56c955da2b2d4b" target="_top" xlink:title="JS_GetPropertyUint32">
<polygon fill="none" stroke="#ff0000" points="548,-323.5 548,-342.5 663,-342.5 663,-323.5 548,-323.5"/>
<text text-anchor="middle" x="605.5" y="-330.5" font-family="Helvetica,sans-Serif" font-size="10.00" fill="#000000">JS_GetPropertyUint32</text>
</a>
</g>
</g>
<!-- Node342664&#45;&gt;Node342802 -->
<g id="edge40" class="edge">
<title>Node342664&#45;&gt;Node342802</title>
<path fill="none" stroke="#191970" d="M104.1248,-277.8747C164.5899,-280.3722 267.216,-285.6078 355,-295 418.8328,-301.8296 491.2993,-313.2226 541.8089,-321.7561"/>
<polygon fill="#191970" stroke="#191970" points="541.4803,-325.2504 551.9256,-323.4767 542.654,-318.3495 541.4803,-325.2504"/>
</g>
<!-- Node342729 -->
<g id="node28" class="node">
<title>Node342729</title>
<g id="a_node28"><a xlink:href="quickjs_8h.html#ad80a83d73e9b7d872b88fbf2943aebe9" target="_top" xlink:title="JS_IsException">
<polygon fill="none" stroke="#000000" points="265.5,-304.5 265.5,-323.5 351.5,-323.5 351.5,-304.5 265.5,-304.5"/>
<text text-anchor="middle" x="308.5" y="-311.5" font-family="Helvetica,sans-Serif" font-size="10.00" fill="#000000">JS_IsException</text>
</a>
</g>
</g>
<!-- Node342664&#45;&gt;Node342729 -->
<g id="edge41" class="edge">
<title>Node342664&#45;&gt;Node342729</title>
<path fill="none" stroke="#191970" d="M104.0947,-284.4316C115.8954,-286.3015 128.3742,-288.2474 140,-290 178.5274,-295.8081 222.0693,-302.0002 255.2386,-306.6399"/>
<polygon fill="#191970" stroke="#191970" points="254.7946,-310.1118 265.1824,-308.0278 255.7623,-303.179 254.7946,-310.1118"/>
</g>
<!-- Node343107 -->
<g id="node30" class="node">
<title>Node343107</title>
<g id="a_node30"><a xlink:href="quickjs_8c.html#a0c946fdd3a6def82765db148f99b8fba" target="_top" xlink:title="JS_WriteString">
<polygon fill="none" stroke="#000000" points="141.5,-114.5 141.5,-133.5 224.5,-133.5 224.5,-114.5 141.5,-114.5"/>
<text text-anchor="middle" x="183" y="-121.5" font-family="Helvetica,sans-Serif" font-size="10.00" fill="#000000">JS_WriteString</text>
</a>
</g>
</g>
<!-- Node342664&#45;&gt;Node343107 -->
<g id="edge43" class="edge">
<title>Node342664&#45;&gt;Node343107</title>
<path fill="none" stroke="#191970" d="M56.7191,-266.2133C68.2198,-243.1707 99.7282,-184.6825 140,-148 143.6777,-144.6501 147.905,-141.5831 152.2422,-138.8435"/>
<polygon fill="#191970" stroke="#191970" points="154.249,-141.7263 161.1581,-133.6941 150.7481,-135.6647 154.249,-141.7263"/>
</g>
<!-- Node342667 -->
<g id="node4" class="node">
<title>Node342667</title>
<g id="a_node4"><a xlink:href="quickjs_8c.html#a288254c06a39c9fca740a7abdad2834e" target="_top" xlink:title="__JS_AtomIsTaggedInt">
<polygon fill="none" stroke="#000000" points="546,-498.5 546,-517.5 665,-517.5 665,-498.5 546,-498.5"/>
<text text-anchor="middle" x="605.5" y="-505.5" font-family="Helvetica,sans-Serif" font-size="10.00" fill="#000000">__JS_AtomIsTaggedInt</text>
</a>
</g>
</g>
<!-- Node342666&#45;&gt;Node342667 -->
<g id="edge3" class="edge">
<title>Node342666&#45;&gt;Node342667</title>
<path fill="none" stroke="#191970" d="M212.3722,-475.5842C216.9777,-477.2763 221.6505,-479.1063 226,-481 242.5877,-488.222 244.8906,-494.1199 262,-500 366.6853,-535.978 399.6405,-531.6142 510,-523 521.0171,-522.1401 532.6846,-520.7302 543.9391,-519.1101"/>
<polygon fill="#191970" stroke="#191970" points="544.7622,-522.5256 554.1282,-517.573 543.718,-515.604 544.7622,-522.5256"/>
</g>
<!-- Node342668 -->
<g id="node5" class="node">
<title>Node342668</title>
<g id="a_node5"><a xlink:href="quickjs_8c.html#a89f38938cee8077ce1fbba07946ed185" target="_top" xlink:title="__JS_AtomToUInt32">
<polygon fill="none" stroke="#000000" points="551.5,-451.5 551.5,-470.5 659.5,-470.5 659.5,-451.5 551.5,-451.5"/>
<text text-anchor="middle" x="605.5" y="-458.5" font-family="Helvetica,sans-Serif" font-size="10.00" fill="#000000">__JS_AtomToUInt32</text>
</a>
</g>
</g>
<!-- Node342666&#45;&gt;Node342668 -->
<g id="edge4" class="edge">
<title>Node342666&#45;&gt;Node342668</title>
<path fill="none" stroke="#191970" d="M219.755,-465.565C291.5714,-464.7151 451.3294,-462.8245 541.091,-461.7622"/>
<polygon fill="#191970" stroke="#191970" points="541.1903,-465.2614 551.1481,-461.6432 541.1074,-458.2619 541.1903,-465.2614"/>
</g>
<!-- Node342669 -->
<g id="node6" class="node">
<title>Node342669</title>
<g id="a_node6"><a xlink:href="quickjs_8c.html#abe9790a1548fcb007a2c864356f71ef5" target="_top" xlink:title="bc_atom_to_idx">
<polygon fill="none" stroke="#000000" points="407.5,-494.5 407.5,-513.5 493.5,-513.5 493.5,-494.5 407.5,-494.5"/>
<text text-anchor="middle" x="450.5" y="-501.5" font-family="Helvetica,sans-Serif" font-size="10.00" fill="#000000">bc_atom_to_idx</text>
</a>
</g>
</g>
<!-- Node342666&#45;&gt;Node342669 -->
<g id="edge5" class="edge">
<title>Node342666&#45;&gt;Node342669</title>
<path fill="none" stroke="#191970" d="M219.5168,-472.8543C232.8614,-475.2579 248.0918,-477.8835 262,-480 307.4627,-486.9183 359.3042,-493.4182 397.0985,-497.9042"/>
<polygon fill="#191970" stroke="#191970" points="397.028,-501.42 407.369,-499.1147 397.8475,-494.4681 397.028,-501.42"/>
</g>
<!-- Node342666&#45;&gt;Node342670 -->
<g id="edge7" class="edge">
<title>Node342666&#45;&gt;Node342670</title>
<path fill="none" stroke="#191970" d="M187.3931,-456.3148C203.3104,-421.2457 257.2774,-302.5572 262,-295 270.9527,-280.6736 283.069,-265.9336 292.6889,-255.0326"/>
<polygon fill="#191970" stroke="#191970" points="295.3693,-257.2865 299.4651,-247.5153 290.1699,-252.5997 295.3693,-257.2865"/>
</g>
<!-- Node342669&#45;&gt;Node342667 -->
<g id="edge6" class="edge">
<title>Node342669&#45;&gt;Node342667</title>
<path fill="none" stroke="#191970" d="M493.6761,-505.1142C506.6508,-505.4491 521.2338,-505.8254 535.4768,-506.193"/>
<polygon fill="#191970" stroke="#191970" points="535.673,-509.6991 545.76,-506.4583 535.8537,-502.7014 535.673,-509.6991"/>
</g>
<!-- Node342671 -->
<g id="node8" class="node">
<title>Node342671</title>
<g id="a_node8"><a xlink:href="quickjs_8c.html#af9b9e3f8ca5a82349d1925fca4683c38" target="_top" xlink:title="dbuf_put_leb128">
<polygon fill="none" stroke="#000000" points="406.5,-190.5 406.5,-209.5 494.5,-209.5 494.5,-190.5 406.5,-190.5"/>
<text text-anchor="middle" x="450.5" y="-197.5" font-family="Helvetica,sans-Serif" font-size="10.00" fill="#000000">dbuf_put_leb128</text>
</a>
</g>
</g>
<!-- Node342670&#45;&gt;Node342671 -->
<g id="edge8" class="edge">
<title>Node342670&#45;&gt;Node342671</title>
<path fill="none" stroke="#191970" d="M344.3326,-228.411C362.6634,-223.5056 385.1784,-217.4804 404.7501,-212.2429"/>
<polygon fill="#191970" stroke="#191970" points="405.9236,-215.5521 414.6789,-209.5859 404.114,-208.7901 405.9236,-215.5521"/>
</g>
<!-- Node342672 -->
<g id="node9" class="node">
<title>Node342672</title>
<g id="a_node9"><a xlink:href="cutils_8h.html#aeed81d4787ccdbd55baa9b5fd6717e88" target="_top" xlink:title="dbuf_putc">
<polygon fill="none" stroke="#000000" points="576,-152.5 576,-171.5 635,-171.5 635,-152.5 576,-152.5"/>
<text text-anchor="middle" x="605.5" y="-159.5" font-family="Helvetica,sans-Serif" font-size="10.00" fill="#000000">dbuf_putc</text>
</a>
</g>
</g>
<!-- Node342671&#45;&gt;Node342672 -->
<g id="edge9" class="edge">
<title>Node342671&#45;&gt;Node342672</title>
<path fill="none" stroke="#191970" d="M489.613,-190.411C512.8934,-184.7036 542.3563,-177.4804 565.7484,-171.7455"/>
<polygon fill="#191970" stroke="#191970" points="566.8158,-175.0876 575.6947,-169.3071 565.1489,-168.2889 566.8158,-175.0876"/>
</g>
<!-- Node342673 -->
<g id="node10" class="node">
<title>Node342673</title>
<g id="a_node10"><a xlink:href="cutils_8h.html#ad1cfaae47347ae771136b5a9bbda49aa" target="_top" xlink:title="dbuf_put">
<polygon fill="none" stroke="#ff0000" points="718.5,-76.5 718.5,-95.5 772.5,-95.5 772.5,-76.5 718.5,-76.5"/>
<text text-anchor="middle" x="745.5" y="-83.5" font-family="Helvetica,sans-Serif" font-size="10.00" fill="#000000">dbuf_put</text>
</a>
</g>
</g>
<!-- Node342672&#45;&gt;Node342673 -->
<g id="edge10" class="edge">
<title>Node342672&#45;&gt;Node342673</title>
<path fill="none" stroke="#191970" d="M632.346,-152.4208C642.7428,-148.3899 654.6179,-143.3848 665,-138 685.742,-127.2419 707.9525,-112.6381 723.7782,-101.6456"/>
<polygon fill="#191970" stroke="#191970" points="726.1368,-104.2656 732.299,-95.6471 722.1072,-98.5417 726.1368,-104.2656"/>
</g>
<!-- Node342676 -->
<g id="node12" class="node">
<title>Node342676</title>
<g id="a_node12"><a xlink:href="quickjs_8c.html#a6adbc9d495ea79b1764fc21ed895e636" target="_top" xlink:title="dbuf_put_sleb128">
<polygon fill="none" stroke="#000000" points="262,-190.5 262,-209.5 355,-209.5 355,-190.5 262,-190.5"/>
<text text-anchor="middle" x="308.5" y="-197.5" font-family="Helvetica,sans-Serif" font-size="10.00" fill="#000000">dbuf_put_sleb128</text>
</a>
</g>
</g>
<!-- Node342675&#45;&gt;Node342676 -->
<g id="edge13" class="edge">
<title>Node342675&#45;&gt;Node342676</title>
<path fill="none" stroke="#191970" d="M225.839,-200C234.2091,-200 243.1065,-200 251.8448,-200"/>
<polygon fill="#191970" stroke="#191970" points="251.9886,-203.5001 261.9886,-200 251.9885,-196.5001 251.9886,-203.5001"/>
</g>
<!-- Node342676&#45;&gt;Node342671 -->
<g id="edge14" class="edge">
<title>Node342676&#45;&gt;Node342671</title>
<path fill="none" stroke="#191970" d="M355.3897,-200C368.3934,-200 382.6215,-200 396.0188,-200"/>
<polygon fill="#191970" stroke="#191970" points="396.0679,-203.5001 406.0678,-200 396.0678,-196.5001 396.0679,-203.5001"/>
</g>
<!-- Node342678 -->
<g id="node14" class="node">
<title>Node342678</title>
<g id="a_node14"><a xlink:href="cutils_8h.html#a86b872249d4bcf1f6b08c4af388f1d3c" target="_top" xlink:title="bswap16">
<polygon fill="none" stroke="#000000" points="422.5,-76.5 422.5,-95.5 478.5,-95.5 478.5,-76.5 422.5,-76.5"/>
<text text-anchor="middle" x="450.5" y="-83.5" font-family="Helvetica,sans-Serif" font-size="10.00" fill="#000000">bswap16</text>
</a>
</g>
</g>
<!-- Node342677&#45;&gt;Node342678 -->
<g id="edge16" class="edge">
<title>Node342677&#45;&gt;Node342678</title>
<path fill="none" stroke="#191970" d="M342.152,-86C363.1554,-86 390.2545,-86 412.0967,-86"/>
<polygon fill="#191970" stroke="#191970" points="412.3473,-89.5001 422.3473,-86 412.3472,-82.5001 412.3473,-89.5001"/>
</g>
<!-- Node342679 -->
<g id="node15" class="node">
<title>Node342679</title>
<g id="a_node15"><a xlink:href="cutils_8h.html#a31a6b9f8517a73d45e976d8a026e964e" target="_top" xlink:title="dbuf_put_u16">
<polygon fill="none" stroke="#000000" points="568,-57.5 568,-76.5 643,-76.5 643,-57.5 568,-57.5"/>
<text text-anchor="middle" x="605.5" y="-64.5" font-family="Helvetica,sans-Serif" font-size="10.00" fill="#000000">dbuf_put_u16</text>
</a>
</g>
</g>
<!-- Node342677&#45;&gt;Node342679 -->
<g id="edge17" class="edge">
<title>Node342677&#45;&gt;Node342679</title>
<path fill="none" stroke="#191970" d="M341.9184,-76.4927C356.8082,-72.7282 374.6437,-68.8591 391,-67 448.0348,-60.5172 514.1526,-61.8412 557.7374,-63.9211"/>
<polygon fill="#191970" stroke="#191970" points="557.6039,-67.4188 567.7691,-64.4323 557.9602,-60.4279 557.6039,-67.4188"/>
</g>
<!-- Node342679&#45;&gt;Node342673 -->
<g id="edge18" class="edge">
<title>Node342679&#45;&gt;Node342673</title>
<path fill="none" stroke="#191970" d="M643.0174,-72.0917C663.1575,-74.8249 687.907,-78.1838 708.0385,-80.9159"/>
<polygon fill="#191970" stroke="#191970" points="707.7163,-84.4042 718.0961,-82.2809 708.6577,-77.4678 707.7163,-84.4042"/>
</g>
<!-- Node342680&#45;&gt;Node342673 -->
<g id="edge21" class="edge">
<title>Node342680&#45;&gt;Node342673</title>
<path fill="none" stroke="#191970" d="M214.9751,-38.4937C229.2285,-34.7294 246.3108,-30.8602 262,-29 370.3575,-16.1528 606.3651,-32.9577 665,-48 684.711,-53.0567 705.4418,-62.9645 720.9287,-71.3954"/>
<polygon fill="#191970" stroke="#191970" points="719.4047,-74.5536 729.8379,-76.3974 722.8317,-68.4498 719.4047,-74.5536"/>
</g>
<!-- Node342681 -->
<g id="node17" class="node">
<title>Node342681</title>
<g id="a_node17"><a xlink:href="cutils_8h.html#a099a2e37a35e9b2fe832c74cdeadfe2c" target="_top" xlink:title="bswap64">
<polygon fill="none" stroke="#000000" points="280.5,-38.5 280.5,-57.5 336.5,-57.5 336.5,-38.5 280.5,-38.5"/>
<text text-anchor="middle" x="308.5" y="-45.5" font-family="Helvetica,sans-Serif" font-size="10.00" fill="#000000">bswap64</text>
</a>
</g>
</g>
<!-- Node342680&#45;&gt;Node342681 -->
<g id="edge20" class="edge">
<title>Node342680&#45;&gt;Node342681</title>
<path fill="none" stroke="#191970" d="M216.6317,-48C233.1066,-48 253.0223,-48 270.0934,-48"/>
<polygon fill="#191970" stroke="#191970" points="270.2987,-51.5001 280.2987,-48 270.2987,-44.5001 270.2987,-51.5001"/>
</g>
<!-- Node342682&#45;&gt;Node342672 -->
<g id="edge23" class="edge">
<title>Node342682&#45;&gt;Node342672</title>
<path fill="none" stroke="#191970" d="M481.8666,-162C505.9684,-162 539.4297,-162 565.4638,-162"/>
<polygon fill="#191970" stroke="#191970" points="565.7578,-165.5001 575.7578,-162 565.7577,-158.5001 565.7578,-165.5001"/>
</g>
<!-- Node342685 -->
<g id="node21" class="node">
<title>Node342685</title>
<g id="a_node21"><a xlink:href="quickjs_8c.html#aff3fe39c77b412895d2260471aafe5aa" target="_top" xlink:title="JS_AtomGetKind">
<polygon fill="none" stroke="#000000" points="404.5,-570.5 404.5,-589.5 496.5,-589.5 496.5,-570.5 404.5,-570.5"/>
<text text-anchor="middle" x="450.5" y="-577.5" font-family="Helvetica,sans-Serif" font-size="10.00" fill="#000000">JS_AtomGetKind</text>
</a>
</g>
</g>
<!-- Node342684&#45;&gt;Node342685 -->
<g id="edge26" class="edge">
<title>Node342684&#45;&gt;Node342685</title>
<path fill="none" stroke="#191970" d="M354.2113,-580C367.0037,-580 381.0559,-580 394.3766,-580"/>
<polygon fill="#191970" stroke="#191970" points="394.3875,-583.5001 404.3875,-580 394.3874,-576.5001 394.3875,-583.5001"/>
</g>
<!-- Node342685&#45;&gt;Node342667 -->
<g id="edge27" class="edge">
<title>Node342685&#45;&gt;Node342667</title>
<path fill="none" stroke="#191970" d="M475.59,-570.4103C486.2798,-566.188 498.8354,-561.0471 510,-556 533.4332,-545.4067 559.4826,-532.2158 578.4482,-522.3443"/>
<polygon fill="#191970" stroke="#191970" points="580.1716,-525.3927 587.4076,-517.6537 576.9249,-519.1912 580.1716,-525.3927"/>
</g>
<!-- Node342687 -->
<g id="node23" class="node">
<title>Node342687</title>
<g id="a_node23"><a xlink:href="quickjs_8c.html#aa059f309c30fd5166d16c82a97973146" target="_top" xlink:title="__JS_FreeValue">
<polygon fill="none" stroke="#ff0000" points="701,-399.5 701,-418.5 790,-418.5 790,-399.5 701,-399.5"/>
<text text-anchor="middle" x="745.5" y="-406.5" font-family="Helvetica,sans-Serif" font-size="10.00" fill="#000000">__JS_FreeValue</text>
</a>
</g>
</g>
<!-- Node342686&#45;&gt;Node342687 -->
<g id="edge29" class="edge">
<title>Node342686&#45;&gt;Node342687</title>
<path fill="none" stroke="#191970" d="M644.8704,-409C658.9984,-409 675.2,-409 690.4155,-409"/>
<polygon fill="#191970" stroke="#191970" points="690.7543,-412.5001 700.7542,-409 690.7542,-405.5001 690.7543,-412.5001"/>
</g>
<!-- Node342721&#45;&gt;Node342722 -->
<g id="edge31" class="edge">
<title>Node342721&#45;&gt;Node342722</title>
<path fill="none" stroke="#191970" d="M198.8947,-361.6255C220.3948,-374.6454 258.9451,-397.9907 284.1207,-413.2364"/>
<polygon fill="#191970" stroke="#191970" points="282.3676,-416.2665 292.7344,-418.4527 285.9936,-410.2788 282.3676,-416.2665"/>
</g>
<!-- Node342721&#45;&gt;Node342729 -->
<g id="edge37" class="edge">
<title>Node342721&#45;&gt;Node342729</title>
<path fill="none" stroke="#191970" d="M214.6689,-342.411C230.5725,-337.5956 250.0396,-331.7012 267.1114,-326.532"/>
<polygon fill="#191970" stroke="#191970" points="268.2846,-329.8338 276.8412,-323.5859 266.256,-323.1342 268.2846,-329.8338"/>
</g>
<!-- Node343099 -->
<g id="node29" class="node">
<title>Node343099</title>
<g id="a_node29"><a xlink:href="quickjs_8c.html#abb4af1ff2252e70ad0e5a9c25550f548" target="_top" xlink:title="JS_ToUint32Free">
<polygon fill="none" stroke="#ff0000" points="262,-342.5 262,-361.5 355,-361.5 355,-342.5 262,-342.5"/>
<text text-anchor="middle" x="308.5" y="-349.5" font-family="Helvetica,sans-Serif" font-size="10.00" fill="#000000">JS_ToUint32Free</text>
</a>
</g>
</g>
<!-- Node342721&#45;&gt;Node343099 -->
<g id="edge38" class="edge">
<title>Node342721&#45;&gt;Node343099</title>
<path fill="none" stroke="#191970" d="M225.839,-352C234.2091,-352 243.1065,-352 251.8448,-352"/>
<polygon fill="#191970" stroke="#191970" points="251.9886,-355.5001 261.9886,-352 251.9885,-348.5001 251.9886,-355.5001"/>
</g>
<!-- Node342723 -->
<g id="node26" class="node">
<title>Node342723</title>
<g id="a_node26"><a xlink:href="quickjs_8c.html#a5762c57ae0c9937e986040c01222833a" target="_top" xlink:title="JS_GetPropertyInternal">
<polygon fill="none" stroke="#ff0000" points="391,-418.5 391,-437.5 510,-437.5 510,-418.5 391,-418.5"/>
<text text-anchor="middle" x="450.5" y="-425.5" font-family="Helvetica,sans-Serif" font-size="10.00" fill="#000000">JS_GetPropertyInternal</text>
</a>
</g>
</g>
<!-- Node342722&#45;&gt;Node342723 -->
<g id="edge32" class="edge">
<title>Node342722&#45;&gt;Node342723</title>
<path fill="none" stroke="#191970" d="M351.8763,-428C361.0169,-428 370.8812,-428 380.7145,-428"/>
<polygon fill="#191970" stroke="#191970" points="380.9189,-431.5001 390.9189,-428 380.9189,-424.5001 380.9189,-431.5001"/>
</g>
<!-- Node342723&#45;&gt;Node342667 -->
<g id="edge33" class="edge">
<title>Node342723&#45;&gt;Node342667</title>
<path fill="none" stroke="#191970" d="M467.2471,-437.5076C486.192,-448.1715 518.049,-465.829 546,-480 555.3712,-484.7511 565.6942,-489.7049 575.0736,-494.1016"/>
<polygon fill="#191970" stroke="#191970" points="573.8833,-497.4079 584.4268,-498.4499 576.8343,-491.0603 573.8833,-497.4079"/>
</g>
<!-- Node342723&#45;&gt;Node342668 -->
<g id="edge34" class="edge">
<title>Node342723&#45;&gt;Node342668</title>
<path fill="none" stroke="#191970" d="M495.3324,-437.545C512.6834,-441.239 532.7082,-445.5024 550.8874,-449.3728"/>
<polygon fill="#191970" stroke="#191970" points="550.2587,-452.8173 560.7683,-451.4765 551.7164,-445.9708 550.2587,-452.8173"/>
</g>
<!-- Node342723&#45;&gt;Node342686 -->
<g id="edge35" class="edge">
<title>Node342723&#45;&gt;Node342686</title>
<path fill="none" stroke="#191970" d="M510.427,-420.6541C525.5082,-418.8054 541.5266,-416.8419 556.0311,-415.0639"/>
<polygon fill="#191970" stroke="#191970" points="556.7901,-418.4972 566.2899,-413.8064 555.9384,-411.5492 556.7901,-418.4972"/>
</g>
<!-- Node342723&#45;&gt;Node342802 -->
<g id="edge36" class="edge">
<title>Node342723&#45;&gt;Node342802</title>
<path fill="none" stroke="#191970" d="M466.2152,-418.3681C493.2542,-401.7958 548.7662,-367.7723 580.9456,-348.0495"/>
<polygon fill="#191970" stroke="#191970" points="583.0461,-350.8672 589.7432,-342.6574 579.3882,-344.899 583.0461,-350.8672"/>
</g>
<!-- Node343107&#45;&gt;Node342670 -->
<g id="edge44" class="edge">
<title>Node343107&#45;&gt;Node342670</title>
<path fill="none" stroke="#191970" d="M189.9648,-133.5061C205.8276,-154.9593 244.6124,-206.2558 262,-219 264.453,-220.7979 267.1007,-222.4586 269.8444,-223.9861"/>
<polygon fill="#191970" stroke="#191970" points="268.2984,-227.1261 278.8144,-228.4161 271.3981,-220.8498 268.2984,-227.1261"/>
</g>
<!-- Node343107&#45;&gt;Node342673 -->
<g id="edge46" class="edge">
<title>Node343107&#45;&gt;Node342673</title>
<path fill="none" stroke="#191970" d="M224.5724,-121.8843C286.704,-118.6543 407.4602,-112.1145 510,-105 580.0413,-100.1403 661.7017,-93.2852 708.1314,-89.2755"/>
<polygon fill="#191970" stroke="#191970" points="708.6574,-92.7432 718.3178,-88.3926 708.0529,-85.7693 708.6574,-92.7432"/>
</g>
<!-- Node343107&#45;&gt;Node342677 -->
<g id="edge45" class="edge">
<title>Node343107&#45;&gt;Node342677</title>
<path fill="none" stroke="#191970" d="M214.6689,-114.411C230.5725,-109.5956 250.0396,-103.7012 267.1114,-98.532"/>
<polygon fill="#191970" stroke="#191970" points="268.2846,-101.8338 276.8412,-95.5859 266.256,-95.1342 268.2846,-101.8338"/>
</g>
</g>
</svg>
