<?xml version="1.0" encoding="UTF-8" standalone="no"?>
<!DOCTYPE svg PUBLIC "-//W3C//DTD SVG 1.1//EN"
 "http://www.w3.org/Graphics/SVG/1.1/DTD/svg11.dtd">
<!-- Generated by graphviz version 2.40.1 (20161225.0304)
 -->
<!-- Title: js_parse_string Pages: 1 -->
<!--zoomable 1620 -->
<svg id="main" version="1.1" xmlns="http://www.w3.org/2000/svg" xmlns:xlink="http://www.w3.org/1999/xlink" xml:space="preserve" onload="init(evt)">
<style type="text/css"><![CDATA[
.edge:hover path { stroke: red; }
.edge:hover polygon { stroke: red; fill: red; }
]]></style>
<script type="text/javascript"><![CDATA[
var edges = document.getElementsByTagName('g');
if (edges && edges.length) {
  for (var i=0;i<edges.length;i++) {
    if (edges[i].id.substr(0,4)=='edge') {
      edges[i].setAttribute('class','edge');
    }
  }
}
]]></script>
        <defs>
                <circle id="rim" cx="0" cy="0" r="7"/>
                <circle id="rim2" cx="0" cy="0" r="3.5"/>
                <g id="zoomPlus">
                        <use xlink:href="#rim" fill="#404040">
                                <set attributeName="fill" to="#808080" begin="zoomplus.mouseover" end="zoomplus.mouseout"/>
                        </use>
                        <path d="M-4,0h8M0,-4v8" fill="none" stroke="white" stroke-width="1.5" pointer-events="none"/>
                </g>
                <g id="zoomMin">
                        <use xlink:href="#rim" fill="#404040">
                                <set attributeName="fill" to="#808080" begin="zoomminus.mouseover" end="zoomminus.mouseout"/>
                        </use>
                        <path d="M-4,0h8" fill="none" stroke="white" stroke-width="1.5" pointer-events="none"/>
                </g>
                <g id="dirArrow">
                        <path fill="none" stroke="white" stroke-width="1.5" d="M0,-3.0v7 M-2.5,-0.5L0,-3.0L2.5,-0.5"/>
                </g>
               <g id="resetDef">
                       <use xlink:href="#rim2" fill="#404040">
                               <set attributeName="fill" to="#808080" begin="reset.mouseover" end="reset.mouseout"/>
                       </use>
               </g>
        </defs>

<script type="text/javascript">
var viewWidth = 1552;
var viewHeight = 1620;
var sectionId = 'dynsection-895';
</script>
<script xlink:href="svgpan.js"/>
<svg id="graph" class="graph">
<g id="viewport">
<title>js_parse_string</title>
<!-- Node298077 -->
<g id="node1" class="node">
<title>Node298077</title>
<polygon fill="#bfbfbf" stroke="#000000" points="0,-510.2946 0,-529.2946 83,-529.2946 83,-510.2946 0,-510.2946"/>
<text text-anchor="middle" x="41.5" y="-517.2946" font-family="Helvetica,sans-Serif" font-size="10.00" fill="#000000">js_parse_string</text>
</g>
<!-- Node298078 -->
<g id="node2" class="node">
<title>Node298078</title>
<g id="a_node2"><a xlink:href="quickjs_8c.html#a035daca514f14aacc1e0cff81d8e423a" target="_top" xlink:title="js_parse_template">
<polygon fill="none" stroke="#000000" points="542,-235.2946 542,-254.2946 638,-254.2946 638,-235.2946 542,-235.2946"/>
<text text-anchor="middle" x="590" y="-242.2946" font-family="Helvetica,sans-Serif" font-size="10.00" fill="#000000">js_parse_template</text>
</a>
</g>
</g>
<!-- Node298077&#45;&gt;Node298078 -->
<g id="edge1" class="edge">
<title>Node298077&#45;&gt;Node298078</title>
<path fill="none" stroke="#191970" d="M56.5654,-502.6534C85.3196,-470.923 151.3045,-402.7277 220,-363.7946 326.8415,-303.2423 468.7777,-268.6414 541.9071,-253.6973"/>
<polygon fill="#191970" stroke="#191970" points="53.8363,-500.4545 49.7734,-510.2393 59.0515,-505.1238 53.8363,-500.4545"/>
</g>
<!-- Node298109 -->
<g id="node10" class="node">
<title>Node298109</title>
<g id="a_node10"><a xlink:href="quickjs_8c.html#a75a3798e2045f6e403c1ef467126d1fb" target="_top" xlink:title="next_token">
<polygon fill="none" stroke="#ff0000" points="119,-785.2946 119,-804.2946 184,-804.2946 184,-785.2946 119,-785.2946"/>
<text text-anchor="middle" x="151.5" y="-792.2946" font-family="Helvetica,sans-Serif" font-size="10.00" fill="#000000">next_token</text>
</a>
</g>
</g>
<!-- Node298077&#45;&gt;Node298109 -->
<g id="edge17" class="edge">
<title>Node298077&#45;&gt;Node298109</title>
<path fill="none" stroke="#191970" d="M49.1952,-539.0327C70.835,-593.132 131.6812,-745.2477 147.632,-785.1245"/>
<polygon fill="#191970" stroke="#191970" points="52.3786,-537.5669 45.415,-529.582 45.8793,-540.1666 52.3786,-537.5669"/>
</g>
<!-- Node298079 -->
<g id="node3" class="node">
<title>Node298079</title>
<g id="a_node3"><a xlink:href="quickjs_8c.html#acdcc62310b4f6f73fa7bc7267b18b1d4" target="_top" xlink:title="js_parse_postfix_expr">
<polygon fill="none" stroke="#ff0000" points="698,-477.2946 698,-496.2946 810,-496.2946 810,-477.2946 698,-477.2946"/>
<text text-anchor="middle" x="754" y="-484.2946" font-family="Helvetica,sans-Serif" font-size="10.00" fill="#000000">js_parse_postfix_expr</text>
</a>
</g>
</g>
<!-- Node298078&#45;&gt;Node298079 -->
<g id="edge2" class="edge">
<title>Node298078&#45;&gt;Node298079</title>
<path fill="none" stroke="#191970" d="M644.7918,-259.1472C646.9827,-260.554 649.0664,-262.0986 651,-263.7946 720.5709,-324.8164 746.2051,-442.6174 752.4008,-477.0936"/>
<polygon fill="#191970" stroke="#191970" points="646.3681,-256.021 635.9017,-254.376 643.0578,-262.1889 646.3681,-256.021"/>
</g>
<!-- Node298079&#45;&gt;Node298079 -->
<g id="edge15" class="edge">
<title>Node298079&#45;&gt;Node298079</title>
<path fill="none" stroke="#191970" d="M724.0599,-505.0691C724.9135,-510.5356 734.8936,-514.7946 754,-514.7946 782.4375,-514.7946 790.6577,-505.3599 778.6606,-496.5516"/>
<polygon fill="#191970" stroke="#191970" points="727.0458,-506.8953 729.3394,-496.5516 721.096,-503.2073 727.0458,-506.8953"/>
</g>
<!-- Node298080 -->
<g id="node4" class="node">
<title>Node298080</title>
<g id="a_node4"><a xlink:href="quickjs_8c.html#a00eb789430243c24dab4a63ad6a79653" target="_top" xlink:title="js_parse_class">
<polygon fill="none" stroke="#ff0000" points="1340,-396.2946 1340,-415.2946 1422,-415.2946 1422,-396.2946 1340,-396.2946"/>
<text text-anchor="middle" x="1381" y="-403.2946" font-family="Helvetica,sans-Serif" font-size="10.00" fill="#000000">js_parse_class</text>
</a>
</g>
</g>
<!-- Node298079&#45;&gt;Node298080 -->
<g id="edge3" class="edge">
<title>Node298079&#45;&gt;Node298080</title>
<path fill="none" stroke="#191970" d="M809.1022,-475.6456C932.7689,-455.8956 1230.124,-417.6353 1339.6183,-407.5719"/>
<polygon fill="#191970" stroke="#191970" points="808.4043,-472.2129 799.0923,-477.2663 809.5232,-479.1229 808.4043,-472.2129"/>
</g>
<!-- Node298095 -->
<g id="node6" class="node">
<title>Node298095</title>
<g id="a_node6"><a xlink:href="quickjs_8c.html#a26be546cf89c4580ba9020e8fc43a759" target="_top" xlink:title="js_parse_destructuring\l_element">
<polygon fill="none" stroke="#ff0000" points="857,-823.7946 857,-853.7946 972,-853.7946 972,-823.7946 857,-823.7946"/>
<text text-anchor="start" x="865" y="-841.7946" font-family="Helvetica,sans-Serif" font-size="10.00" fill="#000000">js_parse_destructuring</text>
<text text-anchor="middle" x="914.5" y="-830.7946" font-family="Helvetica,sans-Serif" font-size="10.00" fill="#000000">_element</text>
</a>
</g>
</g>
<!-- Node298079&#45;&gt;Node298095 -->
<g id="edge6" class="edge">
<title>Node298079&#45;&gt;Node298095</title>
<path fill="none" stroke="#191970" d="M802.0365,-501.9396C809.1304,-506.9741 815.7918,-512.9704 821,-519.7946 895.5191,-617.4348 910.9455,-774.2317 913.8659,-823.6691"/>
<polygon fill="#191970" stroke="#191970" points="803.8721,-498.9586 793.5714,-496.4793 800.0777,-504.8411 803.8721,-498.9586"/>
</g>
<!-- Node298083 -->
<g id="node7" class="node">
<title>Node298083</title>
<g id="a_node7"><a xlink:href="quickjs_8c.html#ac188b916dd086803591a67de7e7a85f6" target="_top" xlink:title="js_parse_for_in_of">
<polygon fill="none" stroke="#ff0000" points="1021,-531.2946 1021,-550.2946 1117,-550.2946 1117,-531.2946 1021,-531.2946"/>
<text text-anchor="middle" x="1069" y="-538.2946" font-family="Helvetica,sans-Serif" font-size="10.00" fill="#000000">js_parse_for_in_of</text>
</a>
</g>
</g>
<!-- Node298079&#45;&gt;Node298083 -->
<g id="edge16" class="edge">
<title>Node298079&#45;&gt;Node298083</title>
<path fill="none" stroke="#191970" d="M819.7263,-498.062C879.777,-508.3563 967.1633,-523.3369 1020.9233,-532.5529"/>
<polygon fill="#191970" stroke="#191970" points="820.0382,-494.5644 809.5906,-496.3244 818.8554,-501.4638 820.0382,-494.5644"/>
</g>
<!-- Node298080&#45;&gt;Node298079 -->
<g id="edge4" class="edge">
<title>Node298080&#45;&gt;Node298079</title>
<path fill="none" stroke="#191970" d="M1329.9002,-416.3011C1213.8182,-435.0369 930.9889,-471.6275 810.1939,-483.5987"/>
<polygon fill="#191970" stroke="#191970" points="1330.6436,-419.726 1339.9459,-414.6546 1329.5114,-412.8181 1330.6436,-419.726"/>
</g>
<!-- Node298088 -->
<g id="node5" class="node">
<title>Node298088</title>
<g id="a_node5"><a xlink:href="quickjs_8c.html#a498e1d5c7de1b59c1630e9847cde1e41" target="_top" xlink:title="js_parse_export">
<polygon fill="none" stroke="#ff0000" points="1458,-273.2946 1458,-292.2946 1544,-292.2946 1544,-273.2946 1458,-273.2946"/>
<text text-anchor="middle" x="1501" y="-280.2946" font-family="Helvetica,sans-Serif" font-size="10.00" fill="#000000">js_parse_export</text>
</a>
</g>
</g>
<!-- Node298080&#45;&gt;Node298088 -->
<g id="edge5" class="edge">
<title>Node298080&#45;&gt;Node298088</title>
<path fill="none" stroke="#191970" d="M1397.5647,-388.8158C1423.1229,-362.6186 1471.3384,-313.1977 1491.6275,-292.4014"/>
<polygon fill="#191970" stroke="#191970" points="1394.8942,-386.541 1390.4162,-396.143 1399.9047,-391.4293 1394.8942,-386.541"/>
</g>
<!-- Node298095&#45;&gt;Node298079 -->
<g id="edge8" class="edge">
<title>Node298095&#45;&gt;Node298079</title>
<path fill="none" stroke="#191970" d="M912.3516,-813.4446C906.7557,-757.8987 887.1847,-624.5145 821,-537.7946 806.0078,-518.1508 778.9746,-505.3669 764.245,-496.3793"/>
<polygon fill="#191970" stroke="#191970" points="908.8742,-813.8503 913.2941,-823.4791 915.8435,-813.1956 908.8742,-813.8503"/>
</g>
<!-- Node298095&#45;&gt;Node298095 -->
<g id="edge7" class="edge">
<title>Node298095&#45;&gt;Node298095</title>
<path fill="none" stroke="#191970" d="M887.1361,-864.2525C890.5323,-868.9736 899.6536,-872.2946 914.5,-872.2946 938.8633,-872.2946 947.8092,-863.3512 941.3377,-853.9536"/>
<polygon fill="#191970" stroke="#191970" points="890.6473,-864.1192 887.6623,-853.9536 883.6565,-863.7619 890.6473,-864.1192"/>
</g>
<!-- Node298095&#45;&gt;Node298083 -->
<g id="edge9" class="edge">
<title>Node298095&#45;&gt;Node298083</title>
<path fill="none" stroke="#191970" d="M927.049,-814.59C959.0474,-752.8714 1042.6627,-591.594 1063.991,-550.4559"/>
<polygon fill="#191970" stroke="#191970" points="923.8697,-813.1183 922.3741,-823.607 930.0841,-816.3402 923.8697,-813.1183"/>
</g>
<!-- Node298086 -->
<g id="node8" class="node">
<title>Node298086</title>
<g id="a_node8"><a xlink:href="quickjs_8c.html#acc9eb677cab8dfcf45f59381f8a19601" target="_top" xlink:title="js_parse_function_decl2">
<polygon fill="none" stroke="#ff0000" points="1008,-1089.2946 1008,-1108.2946 1130,-1108.2946 1130,-1089.2946 1008,-1089.2946"/>
<text text-anchor="middle" x="1069" y="-1096.2946" font-family="Helvetica,sans-Serif" font-size="10.00" fill="#000000">js_parse_function_decl2</text>
</a>
</g>
</g>
<!-- Node298095&#45;&gt;Node298086 -->
<g id="edge10" class="edge">
<title>Node298095&#45;&gt;Node298086</title>
<path fill="none" stroke="#191970" d="M928.6693,-862.6393C961.4471,-917.7994 1041.3794,-1052.3134 1063.3378,-1089.266"/>
<polygon fill="#191970" stroke="#191970" points="931.5917,-860.7059 923.4744,-853.8971 925.574,-864.2818 931.5917,-860.7059"/>
</g>
<!-- Node298086&#45;&gt;Node298080 -->
<g id="edge13" class="edge">
<title>Node298086&#45;&gt;Node298080</title>
<path fill="none" stroke="#191970" d="M1092.1722,-1083.7433C1111.6925,-1071.1802 1140.4435,-1052.9462 1166,-1037.7946 1226.4152,-1001.9764 1264.3507,-1018.7676 1304,-960.7946 1368.2508,-866.8505 1379.3774,-480.9397 1380.8153,-415.3051"/>
<polygon fill="#191970" stroke="#191970" points="1090.1446,-1080.8863 1083.6418,-1089.2508 1093.9415,-1086.7671 1090.1446,-1080.8863"/>
</g>
<!-- Node298086&#45;&gt;Node298088 -->
<g id="edge14" class="edge">
<title>Node298086&#45;&gt;Node298088</title>
<path fill="none" stroke="#191970" d="M1118.2093,-1086.7221C1179.2708,-1070.8026 1278.4777,-1041.5512 1304,-1013.7946 1409.4231,-899.1425 1488.4917,-370.2571 1499.6477,-292.3822"/>
<polygon fill="#191970" stroke="#191970" points="1117.1953,-1083.369 1108.3854,-1089.2543 1118.9425,-1090.1475 1117.1953,-1083.369"/>
</g>
<!-- Node298087 -->
<g id="node9" class="node">
<title>Node298087</title>
<g id="a_node9"><a xlink:href="quickjs_8c.html#adf95ddf430ef93fd9efea1cc2f8a2fbe" target="_top" xlink:title="js_parse_class_default_ctor">
<polygon fill="none" stroke="#000000" points="1166,-1089.2946 1166,-1108.2946 1304,-1108.2946 1304,-1089.2946 1166,-1089.2946"/>
<text text-anchor="middle" x="1235" y="-1096.2946" font-family="Helvetica,sans-Serif" font-size="10.00" fill="#000000">js_parse_class_default_ctor</text>
</a>
</g>
</g>
<!-- Node298086&#45;&gt;Node298087 -->
<g id="edge11" class="edge">
<title>Node298086&#45;&gt;Node298087</title>
<path fill="none" stroke="#191970" d="M1140.4791,-1098.7946C1148.8754,-1098.7946 1157.4321,-1098.7946 1165.7965,-1098.7946"/>
<polygon fill="#191970" stroke="#191970" points="1140.3407,-1095.2947 1130.3406,-1098.7946 1140.3406,-1102.2947 1140.3407,-1095.2947"/>
</g>
<!-- Node298087&#45;&gt;Node298080 -->
<g id="edge12" class="edge">
<title>Node298087&#45;&gt;Node298080</title>
<path fill="none" stroke="#191970" d="M1252.614,-1081.7357C1268.8678,-1064.845 1292.2125,-1037.4265 1304,-1008.7946 1351.108,-894.3694 1376.5222,-483.6067 1380.4587,-415.4185"/>
<polygon fill="#191970" stroke="#191970" points="1249.8322,-1079.5709 1245.2862,-1089.1409 1254.8079,-1084.4946 1249.8322,-1079.5709"/>
</g>
<!-- Node298109&#45;&gt;Node298078 -->
<g id="edge95" class="edge">
<title>Node298109&#45;&gt;Node298078</title>
<path fill="none" stroke="#191970" d="M152.3389,-775.0057C155.7282,-704.4025 170.6848,-466.1921 220,-411.7946 304.673,-318.3953 395.6285,-414.8679 493,-334.7946 520.3268,-312.3224 501.9795,-286.6342 529,-263.7946 533.5745,-259.9279 538.9333,-256.8471 544.542,-254.3927"/>
<polygon fill="#191970" stroke="#191970" points="148.8343,-775.0295 151.8765,-785.1782 155.8271,-775.3475 148.8343,-775.0295"/>
</g>
<!-- Node298109&#45;&gt;Node298079 -->
<g id="edge87" class="edge">
<title>Node298109&#45;&gt;Node298079</title>
<path fill="none" stroke="#191970" d="M194.1281,-807.0322C260.1118,-823.8163 390.101,-848.2099 493,-813.7946 576.3718,-785.9103 594.8696,-762.4538 651,-694.7946 706.0593,-628.4265 741.0418,-527.6689 751.0385,-496.3942"/>
<polygon fill="#191970" stroke="#191970" points="194.6615,-803.5542 184.1016,-804.414 192.8928,-810.3271 194.6615,-803.5542"/>
</g>
<!-- Node298109&#45;&gt;Node298080 -->
<g id="edge38" class="edge">
<title>Node298109&#45;&gt;Node298080</title>
<path fill="none" stroke="#191970" d="M152.4437,-774.7174C157.3884,-673.0107 181.5565,-217.578 220,-168.7946 281.8239,-90.3424 331.6154,-92.7946 431.5,-92.7946 431.5,-92.7946 431.5,-92.7946 590,-92.7946 750.1242,-92.7946 1182.9266,-85.0044 1304,-189.7946 1337.1878,-218.519 1370.3297,-358.0085 1378.8832,-396.1427"/>
<polygon fill="#191970" stroke="#191970" points="148.9405,-774.7008 151.9579,-784.8569 155.9325,-775.0358 148.9405,-774.7008"/>
</g>
<!-- Node298109&#45;&gt;Node298088 -->
<g id="edge71" class="edge">
<title>Node298109&#45;&gt;Node298088</title>
<path fill="none" stroke="#191970" d="M151.8026,-775.0689C153.7418,-661.059 166.1155,-89.6568 220,-35.7946 286.7495,30.9274 337.1215,-16.7946 431.5,-16.7946 431.5,-16.7946 431.5,-16.7946 1235,-16.7946 1322.9888,-16.7946 1358.552,-20.8325 1422,-81.7946 1480.1293,-137.6464 1496.3412,-241.4575 1500.0431,-273.2768"/>
<polygon fill="#191970" stroke="#191970" points="148.3017,-775.1018 151.6384,-785.1575 155.3007,-775.2158 148.3017,-775.1018"/>
</g>
<!-- Node298109&#45;&gt;Node298095 -->
<g id="edge44" class="edge">
<title>Node298109&#45;&gt;Node298095</title>
<path fill="none" stroke="#191970" d="M154.0659,-814.6952C159.6297,-849.6926 176.0523,-922.372 220,-962.7946 271.4195,-1010.0896 301.2283,-997.4963 370,-1009.7946 468.6659,-1027.4389 743.5934,-1067.4695 821,-1003.7946 866.3084,-966.5237 822.3639,-924.1477 857,-876.7946 863.7816,-867.523 873.5629,-859.8614 883.1405,-853.9061"/>
<polygon fill="#191970" stroke="#191970" points="157.4682,-813.7674 152.5713,-804.3721 150.5404,-814.7705 157.4682,-813.7674"/>
</g>
<!-- Node298109&#45;&gt;Node298083 -->
<g id="edge79" class="edge">
<title>Node298109&#45;&gt;Node298083</title>
<path fill="none" stroke="#191970" d="M152.1855,-775.2597C155.1833,-700.0124 169.3491,-429.8458 220,-363.7946 265.7627,-304.1177 455.4489,-241.4724 529,-225.7946 748.0063,-179.1122 793.7485,-330.2608 972,-465.7946 1002.6705,-489.115 1038.4607,-516.9509 1056.799,-531.2593"/>
<polygon fill="#191970" stroke="#191970" points="148.6881,-775.1283 151.8087,-785.2531 155.6831,-775.3921 148.6881,-775.1283"/>
</g>
<!-- Node298109&#45;&gt;Node298086 -->
<g id="edge83" class="edge">
<title>Node298109&#45;&gt;Node298086</title>
<path fill="none" stroke="#191970" d="M151.8311,-814.6323C153.8847,-925.7054 166.6014,-1467.2288 220,-1515.7946 482.1576,-1754.2259 725.29,-1505.1767 972,-1250.7946 1016.8959,-1204.5025 1052.3471,-1134.2884 1064.4826,-1108.6269"/>
<polygon fill="#191970" stroke="#191970" points="155.3282,-814.4346 151.6518,-804.4981 148.3293,-814.5585 155.3282,-814.4346"/>
</g>
<!-- Node298109&#45;&gt;Node298087 -->
<g id="edge39" class="edge">
<title>Node298109&#45;&gt;Node298087</title>
<path fill="none" stroke="#191970" d="M151.9066,-814.7912C153.8263,-887.1767 164.4108,-1133.8935 220,-1183.7946 362.9508,-1312.1181 1127.6239,-1118.1556 1130,-1117.7946 1148.2234,-1115.0257 1168.1429,-1111.539 1185.6871,-1108.3107"/>
<polygon fill="#191970" stroke="#191970" points="155.396,-814.3013 151.6602,-804.3869 148.398,-814.467 155.396,-814.3013"/>
</g>
<!-- Node298110 -->
<g id="node11" class="node">
<title>Node298110</title>
<g id="a_node11"><a xlink:href="quickjs_8c.html#a08f5927b79691c477c726fc5d309cfef" target="_top" xlink:title="is_let">
<polygon fill="none" stroke="#ff0000" points="411.5,-1165.2946 411.5,-1184.2946 451.5,-1184.2946 451.5,-1165.2946 411.5,-1165.2946"/>
<text text-anchor="middle" x="431.5" y="-1172.2946" font-family="Helvetica,sans-Serif" font-size="10.00" fill="#000000">is_let</text>
</a>
</g>
</g>
<!-- Node298109&#45;&gt;Node298110 -->
<g id="edge18" class="edge">
<title>Node298109&#45;&gt;Node298110</title>
<path fill="none" stroke="#191970" d="M152.3408,-814.7669C155.6453,-882.9148 170.1172,-1104.6167 220,-1150.7946 273.4232,-1200.2498 369.8705,-1187.8027 411.489,-1179.4384"/>
<polygon fill="#191970" stroke="#191970" points="155.8267,-814.3752 151.8748,-804.5451 148.834,-814.6941 155.8267,-814.3752"/>
</g>
<!-- Node298104 -->
<g id="node12" class="node">
<title>Node298104</title>
<g id="a_node12"><a xlink:href="quickjs_8c.html#a253917187cfb6b3db09d355b31edb3d5" target="_top" xlink:title="js_parse_array_literal">
<polygon fill="none" stroke="#000000" points="535.5,-595.2946 535.5,-614.2946 644.5,-614.2946 644.5,-595.2946 535.5,-595.2946"/>
<text text-anchor="middle" x="590" y="-602.2946" font-family="Helvetica,sans-Serif" font-size="10.00" fill="#000000">js_parse_array_literal</text>
</a>
</g>
</g>
<!-- Node298109&#45;&gt;Node298104 -->
<g id="edge20" class="edge">
<title>Node298109&#45;&gt;Node298104</title>
<path fill="none" stroke="#191970" d="M155.234,-775.1458C164.549,-728.302 190.2178,-612.1418 220,-587.7946 324.7973,-502.1221 507.4168,-568.8347 569.0219,-595.2554"/>
<polygon fill="#191970" stroke="#191970" points="151.7466,-774.7442 153.2703,-785.2289 158.6175,-776.0824 151.7466,-774.7442"/>
</g>
<!-- Node298103 -->
<g id="node13" class="node">
<title>Node298103</title>
<g id="a_node13"><a xlink:href="quickjs_8c.html#a4fa2fc1719feb03edf64eaf034103fd2" target="_top" xlink:title="js_parse_assign_expr">
<polygon fill="none" stroke="#ff0000" points="376,-463.2946 376,-482.2946 487,-482.2946 487,-463.2946 376,-463.2946"/>
<text text-anchor="middle" x="431.5" y="-470.2946" font-family="Helvetica,sans-Serif" font-size="10.00" fill="#000000">js_parse_assign_expr</text>
</a>
</g>
</g>
<!-- Node298109&#45;&gt;Node298103 -->
<g id="edge22" class="edge">
<title>Node298109&#45;&gt;Node298103</title>
<path fill="none" stroke="#191970" d="M153.5756,-775.2138C160.0685,-717.7439 181.8677,-551.2886 220,-514.7946 261.2447,-475.3219 328.4035,-467.973 375.9661,-468.4828"/>
<polygon fill="#191970" stroke="#191970" points="150.0933,-774.8616 152.4808,-785.1839 157.0515,-775.6257 150.0933,-774.8616"/>
</g>
<!-- Node298090 -->
<g id="node14" class="node">
<title>Node298090</title>
<g id="a_node14"><a xlink:href="quickjs_8c.html#aee6d0acd87f136d43f157ae1426436e6" target="_top" xlink:title="js_parse_object_literal">
<polygon fill="none" stroke="#000000" points="533.5,-633.2946 533.5,-652.2946 646.5,-652.2946 646.5,-633.2946 533.5,-633.2946"/>
<text text-anchor="middle" x="590" y="-640.2946" font-family="Helvetica,sans-Serif" font-size="10.00" fill="#000000">js_parse_object_literal</text>
</a>
</g>
</g>
<!-- Node298109&#45;&gt;Node298090 -->
<g id="edge86" class="edge">
<title>Node298109&#45;&gt;Node298090</title>
<path fill="none" stroke="#191970" d="M155.1399,-774.9195C162.0864,-742.4626 180.2322,-677.9804 220,-640.7946 271.8649,-592.2971 300.0866,-598.208 370,-585.7946 423.8248,-576.2378 442.7818,-564.1941 493,-585.7946 514.3713,-594.9871 509.2544,-611.4924 529,-623.7946 535.1194,-627.6072 542.0638,-630.7086 549.0198,-633.2141"/>
<polygon fill="#191970" stroke="#191970" points="151.6595,-774.4751 153.1327,-784.967 158.5239,-775.8464 151.6595,-774.4751"/>
</g>
<!-- Node298102 -->
<g id="node15" class="node">
<title>Node298102</title>
<g id="a_node15"><a xlink:href="quickjs_8c.html#abd2cbff624ea609dbf883fb1a2f048cd" target="_top" xlink:title="js_parse_cond_expr">
<polygon fill="none" stroke="#000000" points="702,-975.2946 702,-994.2946 806,-994.2946 806,-975.2946 702,-975.2946"/>
<text text-anchor="middle" x="754" y="-982.2946" font-family="Helvetica,sans-Serif" font-size="10.00" fill="#000000">js_parse_cond_expr</text>
</a>
</g>
</g>
<!-- Node298109&#45;&gt;Node298102 -->
<g id="edge42" class="edge">
<title>Node298109&#45;&gt;Node298102</title>
<path fill="none" stroke="#191970" d="M156.5439,-814.2585C164.8481,-842.2202 184.1643,-893.2998 220,-919.7946 366.0629,-1027.7847 598.4268,-1009.2013 701.6408,-994.0402"/>
<polygon fill="#191970" stroke="#191970" points="159.8674,-813.1467 153.8062,-804.4569 153.1255,-815.0299 159.8674,-813.1467"/>
</g>
<!-- Node298105 -->
<g id="node16" class="node">
<title>Node298105</title>
<g id="a_node16"><a xlink:href="quickjs_8c.html#a1cef6995e7ec0c736babe92589cf441f" target="_top" xlink:title="js_parse_expr2">
<polygon fill="none" stroke="#ff0000" points="548.5,-273.2946 548.5,-292.2946 631.5,-292.2946 631.5,-273.2946 548.5,-273.2946"/>
<text text-anchor="middle" x="590" y="-280.2946" font-family="Helvetica,sans-Serif" font-size="10.00" fill="#000000">js_parse_expr2</text>
</a>
</g>
</g>
<!-- Node298109&#45;&gt;Node298105 -->
<g id="edge72" class="edge">
<title>Node298109&#45;&gt;Node298105</title>
<path fill="none" stroke="#191970" d="M153.1259,-774.7068C158.6834,-710.7632 178.8959,-513.421 220,-466.7946 304.8595,-370.5344 394.9786,-455.6134 493,-372.7946 518.5229,-351.2301 503.9492,-328.9057 529,-306.7946 536.0818,-300.5439 544.9836,-295.8235 553.781,-292.2983"/>
<polygon fill="#191970" stroke="#191970" points="149.6084,-774.7692 152.257,-785.0276 156.5837,-775.3565 149.6084,-774.7692"/>
</g>
<!-- Node298084 -->
<g id="node17" class="node">
<title>Node298084</title>
<g id="a_node17"><a xlink:href="quickjs_8c.html#acc0cac53be5317d9cab6a79afcd7da48" target="_top" xlink:title="js_parse_block">
<polygon fill="none" stroke="#ff0000" points="390.5,-595.2946 390.5,-614.2946 472.5,-614.2946 472.5,-595.2946 390.5,-595.2946"/>
<text text-anchor="middle" x="431.5" y="-602.2946" font-family="Helvetica,sans-Serif" font-size="10.00" fill="#000000">js_parse_block</text>
</a>
</g>
</g>
<!-- Node298109&#45;&gt;Node298084 -->
<g id="edge37" class="edge">
<title>Node298109&#45;&gt;Node298084</title>
<path fill="none" stroke="#191970" d="M167.7665,-777.874C201.9405,-743.3111 285.077,-664.2912 370,-621.7946 376.3401,-618.6219 383.3539,-615.9731 390.3083,-613.7845"/>
<polygon fill="#191970" stroke="#191970" points="165.0057,-775.6912 160.5158,-785.2877 170.0101,-780.5857 165.0057,-775.6912"/>
</g>
<!-- Node298101 -->
<g id="node18" class="node">
<title>Node298101</title>
<g id="a_node18"><a xlink:href="quickjs_8c.html#a2a6a8f6738ae03f046617522b9781245" target="_top" xlink:title="js_parse_coalesce_expr">
<polygon fill="none" stroke="#000000" points="529,-1288.2946 529,-1307.2946 651,-1307.2946 651,-1288.2946 529,-1288.2946"/>
<text text-anchor="middle" x="590" y="-1295.2946" font-family="Helvetica,sans-Serif" font-size="10.00" fill="#000000">js_parse_coalesce_expr</text>
</a>
</g>
</g>
<!-- Node298109&#45;&gt;Node298101 -->
<g id="edge40" class="edge">
<title>Node298109&#45;&gt;Node298101</title>
<path fill="none" stroke="#191970" d="M152.3514,-814.484C156.6999,-910.4928 177.8845,-1326.4451 220,-1363.7946 248.9856,-1389.5 482.225,-1346.9394 493,-1343.7946 493.5032,-1343.6477 541.2541,-1320.9657 569.5618,-1307.5112"/>
<polygon fill="#191970" stroke="#191970" points="155.8443,-814.2436 151.9043,-804.4086 148.8512,-814.554 155.8443,-814.2436"/>
</g>
<!-- Node298098 -->
<g id="node19" class="node">
<title>Node298098</title>
<g id="a_node19"><a xlink:href="quickjs_8c.html#a2ecfb6abb190101748202a8aa5821fba" target="_top" xlink:title="js_parse_delete">
<polygon fill="none" stroke="#ff0000" points="234.5,-1487.2946 234.5,-1506.2946 319.5,-1506.2946 319.5,-1487.2946 234.5,-1487.2946"/>
<text text-anchor="middle" x="277" y="-1494.2946" font-family="Helvetica,sans-Serif" font-size="10.00" fill="#000000">js_parse_delete</text>
</a>
</g>
</g>
<!-- Node298109&#45;&gt;Node298098 -->
<g id="edge43" class="edge">
<title>Node298109&#45;&gt;Node298098</title>
<path fill="none" stroke="#191970" d="M152.2208,-814.669C156.2612,-921.4895 177.4543,-1424.5865 220,-1477.7946 223.7783,-1482.5198 228.7704,-1486.0792 234.2324,-1488.7584"/>
<polygon fill="#191970" stroke="#191970" points="155.7161,-814.4747 151.8473,-804.6116 148.7209,-814.7346 155.7161,-814.4747"/>
</g>
<!-- Node298111 -->
<g id="node20" class="node">
<title>Node298111</title>
<g id="a_node20"><a xlink:href="quickjs_8c.html#ab10609a91c359ea5d3051f7bb646af83" target="_top" xlink:title="js_parse_destructuring_var">
<polygon fill="none" stroke="#000000" points="687,-899.2946 687,-918.2946 821,-918.2946 821,-899.2946 687,-899.2946"/>
<text text-anchor="middle" x="754" y="-906.2946" font-family="Helvetica,sans-Serif" font-size="10.00" fill="#000000">js_parse_destructuring_var</text>
</a>
</g>
</g>
<!-- Node298109&#45;&gt;Node298111 -->
<g id="edge45" class="edge">
<title>Node298109&#45;&gt;Node298111</title>
<path fill="none" stroke="#191970" d="M159.6341,-813.4997C170.1186,-835.0227 190.5695,-869.3765 220,-884.7946 383.998,-970.7097 616.6899,-937.2933 711.4132,-918.3582"/>
<polygon fill="#191970" stroke="#191970" points="162.7831,-811.9706 155.4065,-804.3655 156.4305,-814.9107 162.7831,-811.9706"/>
</g>
<!-- Node298112 -->
<g id="node21" class="node">
<title>Node298112</title>
<g id="a_node21"><a xlink:href="quickjs_8c.html#a64f81788f15df1683a1f8c3919cfd6fd" target="_top" xlink:title="js_parse_directives">
<polygon fill="none" stroke="#000000" points="381,-1411.2946 381,-1430.2946 482,-1430.2946 482,-1411.2946 381,-1411.2946"/>
<text text-anchor="middle" x="431.5" y="-1418.2946" font-family="Helvetica,sans-Serif" font-size="10.00" fill="#000000">js_parse_directives</text>
</a>
</g>
</g>
<!-- Node298109&#45;&gt;Node298112 -->
<g id="edge47" class="edge">
<title>Node298109&#45;&gt;Node298112</title>
<path fill="none" stroke="#191970" d="M152.312,-814.5799C156.5736,-913.8527 177.781,-1354.5886 220,-1396.7946 262.861,-1439.6423 337.606,-1437.441 385.7935,-1430.325"/>
<polygon fill="#191970" stroke="#191970" points="155.8028,-814.284 151.8853,-804.44 148.809,-814.5784 155.8028,-814.284"/>
</g>
<!-- Node298091 -->
<g id="node22" class="node">
<title>Node298091</title>
<g id="a_node22"><a xlink:href="quickjs_8c.html#aec05caae64451720670d1a56040110b3" target="_top" xlink:title="js_parse_program">
<polygon fill="none" stroke="#ff0000" points="543,-1248.2946 543,-1267.2946 637,-1267.2946 637,-1248.2946 543,-1248.2946"/>
<text text-anchor="middle" x="590" y="-1255.2946" font-family="Helvetica,sans-Serif" font-size="10.00" fill="#000000">js_parse_program</text>
</a>
</g>
</g>
<!-- Node298109&#45;&gt;Node298091 -->
<g id="edge88" class="edge">
<title>Node298109&#45;&gt;Node298091</title>
<path fill="none" stroke="#191970" d="M153.255,-815.0716C160.5123,-896.696 189.2434,-1198.2242 220,-1226.7946 265.6936,-1269.2403 453.701,-1265.231 542.7779,-1260.7434"/>
<polygon fill="#191970" stroke="#191970" points="156.7042,-814.3382 152.3424,-804.6829 149.731,-814.9509 156.7042,-814.3382"/>
</g>
<!-- Node298113 -->
<g id="node23" class="node">
<title>Node298113</title>
<g id="a_node23"><a xlink:href="quickjs_8c.html#aeca8ed71e1eef8ec809afab744958c28" target="_top" xlink:title="js_parse_expect">
<polygon fill="none" stroke="#ff0000" points="233,-747.2946 233,-766.2946 321,-766.2946 321,-747.2946 233,-747.2946"/>
<text text-anchor="middle" x="277" y="-754.2946" font-family="Helvetica,sans-Serif" font-size="10.00" fill="#000000">js_parse_expect</text>
</a>
</g>
</g>
<!-- Node298109&#45;&gt;Node298113 -->
<g id="edge50" class="edge">
<title>Node298109&#45;&gt;Node298113</title>
<path fill="none" stroke="#191970" d="M192.8995,-782.2593C209.9723,-777.0898 229.4391,-771.1955 245.3412,-766.3805"/>
<polygon fill="#191970" stroke="#191970" points="191.7255,-778.9577 183.1689,-785.2056 193.7541,-785.6574 191.7255,-778.9577"/>
</g>
<!-- Node298114 -->
<g id="node24" class="node">
<title>Node298114</title>
<g id="a_node24"><a xlink:href="quickjs_8c.html#aa24f7964f6d938a05c3c3c03af5a01e9" target="_top" xlink:title="js_parse_import">
<polygon fill="none" stroke="#ff0000" points="388.5,-197.2946 388.5,-216.2946 474.5,-216.2946 474.5,-197.2946 388.5,-197.2946"/>
<text text-anchor="middle" x="431.5" y="-204.2946" font-family="Helvetica,sans-Serif" font-size="10.00" fill="#000000">js_parse_import</text>
</a>
</g>
</g>
<!-- Node298109&#45;&gt;Node298114 -->
<g id="edge84" class="edge">
<title>Node298109&#45;&gt;Node298114</title>
<path fill="none" stroke="#191970" d="M151.8352,-774.8656C153.5753,-692.9808 163.8246,-383.1495 220,-306.7946 260.5572,-251.6683 339.3531,-225.7875 388.4794,-214.5356"/>
<polygon fill="#191970" stroke="#191970" points="148.3287,-775.1726 151.6357,-785.2381 155.3274,-775.3073 148.3287,-775.1726"/>
</g>
<!-- Node298107 -->
<g id="node25" class="node">
<title>Node298107</title>
<g id="a_node25"><a xlink:href="quickjs_8c.html#a42234753f3193f37ce45b3c0ca4c25cd" target="_top" xlink:title="js_parse_property_name">
<polygon fill="none" stroke="#000000" points="370,-785.2946 370,-804.2946 493,-804.2946 493,-785.2946 370,-785.2946"/>
<text text-anchor="middle" x="431.5" y="-792.2946" font-family="Helvetica,sans-Serif" font-size="10.00" fill="#000000">js_parse_property_name</text>
</a>
</g>
</g>
<!-- Node298109&#45;&gt;Node298107 -->
<g id="edge89" class="edge">
<title>Node298109&#45;&gt;Node298107</title>
<path fill="none" stroke="#191970" d="M194.2731,-794.7946C241.0755,-794.7946 316.5164,-794.7946 369.738,-794.7946"/>
<polygon fill="#191970" stroke="#191970" points="194.1676,-791.2947 184.1675,-794.7946 194.1675,-798.2947 194.1676,-791.2947"/>
</g>
<!-- Node298119 -->
<g id="node26" class="node">
<title>Node298119</title>
<g id="a_node26"><a xlink:href="quickjs_8c.html#a02cbd69384985a4e904190810cf45641" target="_top" xlink:title="js_parse_expect_semi">
<polygon fill="none" stroke="#ff0000" points="220,-178.2946 220,-197.2946 334,-197.2946 334,-178.2946 220,-178.2946"/>
<text text-anchor="middle" x="277" y="-185.2946" font-family="Helvetica,sans-Serif" font-size="10.00" fill="#000000">js_parse_expect_semi</text>
</a>
</g>
</g>
<!-- Node298109&#45;&gt;Node298119 -->
<g id="edge67" class="edge">
<title>Node298109&#45;&gt;Node298119</title>
<path fill="none" stroke="#191970" d="M152.7996,-775.072C158.5176,-691.221 182.8175,-364.2762 220,-268.7946 231.2317,-239.9526 254.8487,-211.6245 267.8815,-197.3467"/>
<polygon fill="#191970" stroke="#191970" points="149.2947,-775.0289 152.1167,-785.241 156.279,-775.498 149.2947,-775.0289"/>
</g>
<!-- Node298099 -->
<g id="node27" class="node">
<title>Node298099</title>
<g id="a_node27"><a xlink:href="quickjs_8c.html#ab1c84e1eb8a5f06b9257c3c9b5a6f024" target="_top" xlink:title="js_parse_expr_binary">
<polygon fill="none" stroke="#000000" points="222.5,-1317.2946 222.5,-1336.2946 331.5,-1336.2946 331.5,-1317.2946 222.5,-1317.2946"/>
<text text-anchor="middle" x="277" y="-1324.2946" font-family="Helvetica,sans-Serif" font-size="10.00" fill="#000000">js_parse_expr_binary</text>
</a>
</g>
</g>
<!-- Node298109&#45;&gt;Node298099 -->
<g id="edge73" class="edge">
<title>Node298109&#45;&gt;Node298099</title>
<path fill="none" stroke="#191970" d="M153.0076,-814.5603C159.9373,-903.4048 189.6915,-1263.1857 220,-1302.7946 224.8285,-1309.1047 231.6282,-1313.7722 238.8562,-1317.2194"/>
<polygon fill="#191970" stroke="#191970" points="156.4895,-814.1896 152.2298,-804.4889 149.5103,-814.7287 156.4895,-814.1896"/>
</g>
<!-- Node298100 -->
<g id="node28" class="node">
<title>Node298100</title>
<g id="a_node28"><a xlink:href="quickjs_8c.html#a2af8c0e05d949d0ae23d94c8e73e5494" target="_top" xlink:title="js_parse_logical_and_or">
<polygon fill="none" stroke="#000000" points="371,-1279.2946 371,-1298.2946 492,-1298.2946 492,-1279.2946 371,-1279.2946"/>
<text text-anchor="middle" x="431.5" y="-1286.2946" font-family="Helvetica,sans-Serif" font-size="10.00" fill="#000000">js_parse_logical_and_or</text>
</a>
</g>
</g>
<!-- Node298109&#45;&gt;Node298100 -->
<g id="edge85" class="edge">
<title>Node298109&#45;&gt;Node298100</title>
<path fill="none" stroke="#191970" d="M152.9964,-814.8917C159.5684,-900.624 187.0173,-1232.8423 220,-1264.7946 262.9981,-1306.4494 336.2722,-1304.9956 384.2857,-1298.3119"/>
<polygon fill="#191970" stroke="#191970" points="156.4687,-814.3923 152.224,-804.685 149.4887,-814.9206 156.4687,-814.3923"/>
</g>
<!-- Node298120 -->
<g id="node29" class="node">
<title>Node298120</title>
<g id="a_node29"><a xlink:href="quickjs_8c.html#a736435f0774c85e09f2817c97ec47bbf" target="_top" xlink:title="js_parse_from_clause">
<polygon fill="none" stroke="#000000" points="221,-45.2946 221,-64.2946 333,-64.2946 333,-45.2946 221,-45.2946"/>
<text text-anchor="middle" x="277" y="-52.2946" font-family="Helvetica,sans-Serif" font-size="10.00" fill="#000000">js_parse_from_clause</text>
</a>
</g>
</g>
<!-- Node298109&#45;&gt;Node298120 -->
<g id="edge80" class="edge">
<title>Node298109&#45;&gt;Node298120</title>
<path fill="none" stroke="#191970" d="M152.1922,-775.0539C156.185,-665.6414 177.5907,-136.4949 220,-78.7946 224.642,-72.4788 231.2716,-67.8135 238.3776,-64.3709"/>
<polygon fill="#191970" stroke="#191970" points="148.6943,-774.9344 151.8335,-785.0534 155.6898,-775.1854 148.6943,-774.9344"/>
</g>
<!-- Node298121 -->
<g id="node30" class="node">
<title>Node298121</title>
<g id="a_node30"><a xlink:href="quickjs_8c.html#aba7eb7aae2eb61bfccb4565ee626cd18" target="_top" xlink:title="js_parse_seek_token">
<polygon fill="none" stroke="#ff0000" points="222.5,-1449.2946 222.5,-1468.2946 331.5,-1468.2946 331.5,-1449.2946 222.5,-1449.2946"/>
<text text-anchor="middle" x="277" y="-1456.2946" font-family="Helvetica,sans-Serif" font-size="10.00" fill="#000000">js_parse_seek_token</text>
</a>
</g>
</g>
<!-- Node298109&#45;&gt;Node298121 -->
<g id="edge90" class="edge">
<title>Node298109&#45;&gt;Node298121</title>
<path fill="none" stroke="#191970" d="M152.433,-814.6257C157.4099,-917.0912 182.0358,-1383.7461 220,-1434.7946 224.6775,-1441.0841 231.3222,-1445.7382 238.432,-1449.1781"/>
<polygon fill="#191970" stroke="#191970" points="155.92,-814.2673 151.9455,-804.4462 148.928,-814.6022 155.92,-814.2673"/>
</g>
<!-- Node298110&#45;&gt;Node298083 -->
<g id="edge19" class="edge">
<title>Node298110&#45;&gt;Node298083</title>
<path fill="none" stroke="#191970" d="M461.7457,-1175.9715C505.0486,-1176.6712 586.5928,-1174.2912 651,-1150.7946 826.1335,-1086.9036 878.8022,-1042.2503 972,-880.7946 1040.4318,-762.2435 1063.2466,-592.2372 1067.9914,-550.3773"/>
<polygon fill="#191970" stroke="#191970" points="461.6719,-1172.469 451.5942,-1175.7382 461.5111,-1179.4671 461.6719,-1172.469"/>
</g>
<!-- Node298104&#45;&gt;Node298079 -->
<g id="edge21" class="edge">
<title>Node298104&#45;&gt;Node298079</title>
<path fill="none" stroke="#191970" d="M611.8389,-589.0812C646.2274,-564.3383 711.9999,-517.0142 740.3938,-496.5844"/>
<polygon fill="#191970" stroke="#191970" points="609.4939,-586.4566 603.4208,-595.1381 613.5822,-592.1387 609.4939,-586.4566"/>
</g>
<!-- Node298103&#45;&gt;Node298078 -->
<g id="edge23" class="edge">
<title>Node298103&#45;&gt;Node298078</title>
<path fill="none" stroke="#191970" d="M481.8924,-458.4098C486.0546,-455.7311 489.8606,-452.5564 493,-448.7946 546.6712,-384.4837 473.1076,-326.1848 529,-263.7946 532.6266,-259.7463 537.0998,-256.5517 541.9625,-254.0323"/>
<polygon fill="#191970" stroke="#191970" points="480.0829,-455.4092 472.9476,-463.241 483.4096,-461.5682 480.0829,-455.4092"/>
</g>
<!-- Node298103&#45;&gt;Node298079 -->
<g id="edge29" class="edge">
<title>Node298103&#45;&gt;Node298079</title>
<path fill="none" stroke="#191970" d="M497.1269,-461.9094C540.8685,-456.2977 599.5579,-451.9271 651,-458.7946 677.2662,-462.3011 706.3269,-470.6269 726.8644,-477.2939"/>
<polygon fill="#191970" stroke="#191970" points="496.6356,-458.4438 487.1878,-463.2386 497.5635,-465.3821 496.6356,-458.4438"/>
</g>
<!-- Node298103&#45;&gt;Node298080 -->
<g id="edge26" class="edge">
<title>Node298103&#45;&gt;Node298080</title>
<path fill="none" stroke="#191970" d="M455.4234,-457.9687C507.5838,-427.1044 636.3197,-358.7946 754,-358.7946 754,-358.7946 754,-358.7946 1069,-358.7946 1168.6956,-358.7946 1284.3314,-382.5499 1342.853,-396.2834"/>
<polygon fill="#191970" stroke="#191970" points="453.3655,-455.1219 446.5949,-463.2711 456.9697,-461.1227 453.3655,-455.1219"/>
</g>
<!-- Node298103&#45;&gt;Node298088 -->
<g id="edge35" class="edge">
<title>Node298103&#45;&gt;Node298088</title>
<path fill="none" stroke="#191970" d="M456.5364,-457.56C468.4113,-449.5995 482.3048,-439.1556 493,-427.7946 513.2812,-406.2509 504.2734,-388.0443 529,-371.7946 732.2722,-238.2092 825.7622,-282.7946 1069,-282.7946 1069,-282.7946 1069,-282.7946 1235,-282.7946 1313.5069,-282.7946 1405.0473,-282.7946 1457.6911,-282.7946"/>
<polygon fill="#191970" stroke="#191970" points="454.4214,-454.7599 447.9354,-463.1374 458.2301,-460.6331 454.4214,-454.7599"/>
</g>
<!-- Node298103&#45;&gt;Node298095 -->
<g id="edge28" class="edge">
<title>Node298103&#45;&gt;Node298095</title>
<path fill="none" stroke="#191970" d="M497.2131,-475.9394C543.157,-480.708 604.3863,-492.4031 651,-520.7946 782.9603,-601.1689 879.475,-771.5673 906.7101,-823.4708"/>
<polygon fill="#191970" stroke="#191970" points="497.3511,-472.4368 487.0641,-474.9721 496.6868,-479.4052 497.3511,-472.4368"/>
</g>
<!-- Node298103&#45;&gt;Node298083 -->
<g id="edge34" class="edge">
<title>Node298103&#45;&gt;Node298083</title>
<path fill="none" stroke="#191970" d="M476.7105,-460.9691C493.0626,-457.2478 511.7471,-453.6315 529,-451.7946 726.0754,-430.8117 782.696,-444.1175 972,-502.7946 998.4316,-510.9874 1027.9169,-522.9606 1047.3646,-531.269"/>
<polygon fill="#191970" stroke="#191970" points="475.7972,-457.5883 466.864,-463.2847 477.3997,-464.4024 475.7972,-457.5883"/>
</g>
<!-- Node298103&#45;&gt;Node298086 -->
<g id="edge36" class="edge">
<title>Node298103&#45;&gt;Node298086</title>
<path fill="none" stroke="#191970" d="M497.3915,-479.6844C542.633,-486.454 602.9517,-499.6088 651,-524.7946 821.0258,-613.918 866.3267,-653.5295 972,-813.7946 1035.2968,-909.7911 1061.4392,-1051.2734 1067.54,-1089.1669"/>
<polygon fill="#191970" stroke="#191970" points="497.7919,-476.2061 487.3972,-478.2556 496.8012,-483.1357 497.7919,-476.2061"/>
</g>
<!-- Node298103&#45;&gt;Node298104 -->
<g id="edge27" class="edge">
<title>Node298103&#45;&gt;Node298104</title>
<path fill="none" stroke="#191970" d="M458.9926,-487.6617C470.4701,-494.8 483.3485,-504.1281 493,-514.7946 515.4185,-539.5707 503.9492,-558.6835 529,-580.7946 536.0818,-587.0453 544.9836,-591.7656 553.781,-595.2909"/>
<polygon fill="#191970" stroke="#191970" points="460.5613,-484.5226 450.1766,-482.4227 456.9852,-490.5402 460.5613,-484.5226"/>
</g>
<!-- Node298103&#45;&gt;Node298103 -->
<g id="edge32" class="edge">
<title>Node298103&#45;&gt;Node298103</title>
<path fill="none" stroke="#191970" d="M402.7542,-491.4485C403.9558,-496.7314 413.5377,-500.7946 431.5,-500.7946 458.8711,-500.7946 466.7831,-491.3599 455.2359,-482.5516"/>
<polygon fill="#191970" stroke="#191970" points="405.9072,-492.9825 407.7641,-482.5516 399.8077,-489.5478 405.9072,-492.9825"/>
</g>
<!-- Node298103&#45;&gt;Node298090 -->
<g id="edge24" class="edge">
<title>Node298103&#45;&gt;Node298090</title>
<path fill="none" stroke="#191970" d="M446.706,-490.5614C459.815,-506.327 478.8146,-530.2852 493,-552.7946 511.8632,-582.7267 501.9795,-600.955 529,-623.7946 533.5745,-627.6612 538.9333,-630.7421 544.542,-633.1965"/>
<polygon fill="#191970" stroke="#191970" points="449.2136,-488.1053 440.0973,-482.7068 443.8573,-492.612 449.2136,-488.1053"/>
</g>
<!-- Node298103&#45;&gt;Node298102 -->
<g id="edge30" class="edge">
<title>Node298103&#45;&gt;Node298102</title>
<path fill="none" stroke="#191970" d="M473.1254,-486.9803C490.3629,-495.5453 510.5921,-506.2859 529,-515.7946 582.8609,-543.6166 616.4699,-526.9676 651,-576.7946 738.0568,-702.4175 615.6944,-783.6076 687,-918.7946 700.5373,-944.4597 730.8866,-963.4262 745.6357,-975.1793"/>
<polygon fill="#191970" stroke="#191970" points="474.4089,-483.712 463.8874,-482.4674 471.3363,-490.0016 474.4089,-483.712"/>
</g>
<!-- Node298103&#45;&gt;Node298105 -->
<g id="edge33" class="edge">
<title>Node298103&#45;&gt;Node298105</title>
<path fill="none" stroke="#191970" d="M480.9807,-458.6537C485.4541,-455.9218 489.5785,-452.6682 493,-448.7946 536.1025,-399.9972 485.9652,-355.6517 529,-306.7946 534.5665,-300.475 542.0118,-295.8036 549.7847,-292.3555"/>
<polygon fill="#191970" stroke="#191970" points="479.3067,-455.5791 472.0408,-463.2899 482.5294,-461.7931 479.3067,-455.5791"/>
</g>
<!-- Node298090&#45;&gt;Node298079 -->
<g id="edge25" class="edge">
<title>Node298090&#45;&gt;Node298079</title>
<path fill="none" stroke="#191970" d="M642.3242,-628.999C645.3602,-627.4407 648.2802,-625.7119 651,-623.7946 701.1016,-588.4755 737.2657,-521.2876 749.4811,-496.3896"/>
<polygon fill="#191970" stroke="#191970" points="640.6591,-625.9093 632.9526,-633.1798 643.511,-632.302 640.6591,-625.9093"/>
</g>
<!-- Node298102&#45;&gt;Node298103 -->
<g id="edge31" class="edge">
<title>Node298102&#45;&gt;Node298103</title>
<path fill="none" stroke="#191970" d="M715.8031,-969.2379C704.7006,-960.7447 693.7564,-949.6039 687,-936.7946 615.6944,-801.6076 738.0568,-720.4175 651,-594.7946 616.4699,-544.9676 582.8609,-561.6166 529,-533.7946 495.7635,-516.6261 456.5897,-495.4415 439.8081,-482.3429"/>
<polygon fill="#191970" stroke="#191970" points="714.068,-972.2971 724.2573,-975.2005 718.1025,-966.5767 714.068,-972.2971"/>
</g>
<!-- Node298101&#45;&gt;Node298102 -->
<g id="edge41" class="edge">
<title>Node298101&#45;&gt;Node298102</title>
<path fill="none" stroke="#191970" d="M642.6926,-1283.3955C645.6928,-1281.465 648.4996,-1279.2762 651,-1276.7946 735.703,-1192.7294 750.9567,-1034.8766 753.5144,-994.4298"/>
<polygon fill="#191970" stroke="#191970" points="640.9596,-1280.3534 633.8193,-1288.1807 644.2823,-1286.5146 640.9596,-1280.3534"/>
</g>
<!-- Node298111&#45;&gt;Node298095 -->
<g id="edge46" class="edge">
<title>Node298111&#45;&gt;Node298095</title>
<path fill="none" stroke="#191970" d="M792.4991,-895.8465C801.9029,-892.4532 811.8802,-888.6567 821,-884.7946 843.1559,-875.4118 867.5273,-863.3624 885.8319,-853.9496"/>
<polygon fill="#191970" stroke="#191970" points="791.2246,-892.5848 782.967,-899.2226 793.5617,-899.1832 791.2246,-892.5848"/>
</g>
<!-- Node298112&#45;&gt;Node298086 -->
<g id="edge48" class="edge">
<title>Node298112&#45;&gt;Node298086</title>
<path fill="none" stroke="#191970" d="M461.7402,-1406.912C504.2319,-1387.3042 583.9234,-1350.1612 651,-1316.7946 807.4528,-1238.9686 993.6787,-1139.3284 1051.1995,-1108.3897"/>
<polygon fill="#191970" stroke="#191970" points="460.1286,-1403.8009 452.5112,-1411.1648 463.0582,-1410.1584 460.1286,-1403.8009"/>
</g>
<!-- Node298112&#45;&gt;Node298091 -->
<g id="edge49" class="edge">
<title>Node298112&#45;&gt;Node298091</title>
<path fill="none" stroke="#191970" d="M443.3037,-1402.2486C466.6261,-1365.8127 517.3658,-1287.645 529,-1278.7946 535.329,-1273.9799 542.8395,-1270.2206 550.3893,-1267.3015"/>
<polygon fill="#191970" stroke="#191970" points="440.1875,-1400.6256 437.7556,-1410.9375 446.0873,-1404.3928 440.1875,-1400.6256"/>
</g>
<!-- Node298113&#45;&gt;Node298078 -->
<g id="edge66" class="edge">
<title>Node298113&#45;&gt;Node298078</title>
<path fill="none" stroke="#191970" d="M278.4829,-736.9591C283.24,-685.3254 302.0463,-544.4708 370,-453.7946 409.2536,-401.4152 453.1936,-424.7551 493,-372.7946 524.0264,-332.2949 492.6185,-299.5612 529,-263.7946 532.9549,-259.9065 537.6919,-256.8124 542.7546,-254.3505"/>
<polygon fill="#191970" stroke="#191970" points="274.9819,-736.8242 277.6294,-747.0829 281.9571,-737.4123 274.9819,-736.8242"/>
</g>
<!-- Node298113&#45;&gt;Node298079 -->
<g id="edge61" class="edge">
<title>Node298113&#45;&gt;Node298079</title>
<path fill="none" stroke="#191970" d="M331.0478,-745.4776C428.3505,-724.7529 625.3185,-681.0671 651,-661.7946 710.7776,-616.9348 742.185,-526.3606 751.2154,-496.5509"/>
<polygon fill="#191970" stroke="#191970" points="330.1586,-742.0884 321.1039,-747.5896 331.6129,-748.9356 330.1586,-742.0884"/>
</g>
<!-- Node298113&#45;&gt;Node298080 -->
<g id="edge53" class="edge">
<title>Node298113&#45;&gt;Node298080</title>
<path fill="none" stroke="#191970" d="M291.1706,-774.2301C307.9759,-793.7685 337.7957,-825.0276 370,-842.7946 585.7228,-961.8079 668.1253,-946.7946 914.5,-946.7946 914.5,-946.7946 914.5,-946.7946 1069,-946.7946 1324.3375,-946.7946 1373.9259,-488.9699 1380.2304,-415.6465"/>
<polygon fill="#191970" stroke="#191970" points="293.7115,-771.8134 284.5994,-766.4078 288.3517,-776.3159 293.7115,-771.8134"/>
</g>
<!-- Node298113&#45;&gt;Node298088 -->
<g id="edge56" class="edge">
<title>Node298113&#45;&gt;Node298088</title>
<path fill="none" stroke="#191970" d="M278.6455,-776.4438C283.5945,-822.8843 302.4748,-940.2779 370,-1003.7946 437.09,-1066.9019 759.7311,-1136.7946 914.5,-1136.7946 914.5,-1136.7946 914.5,-1136.7946 1235,-1136.7946 1387.2428,-1136.7946 1380.4249,-996.2507 1422,-849.7946 1484.4252,-629.8901 1498.4481,-347.4498 1500.6526,-292.3474"/>
<polygon fill="#191970" stroke="#191970" points="282.1279,-776.0921 277.686,-766.4734 275.1601,-776.7627 282.1279,-776.0921"/>
</g>
<!-- Node298113&#45;&gt;Node298095 -->
<g id="edge55" class="edge">
<title>Node298113&#45;&gt;Node298095</title>
<path fill="none" stroke="#191970" d="M296.7133,-772.607C314.6755,-786.0648 342.5205,-804.6284 370,-813.7946 539.6625,-870.3877 755.5924,-857.044 856.997,-846.183"/>
<polygon fill="#191970" stroke="#191970" points="298.7958,-769.7933 288.7343,-766.4742 294.5299,-775.3433 298.7958,-769.7933"/>
</g>
<!-- Node298113&#45;&gt;Node298083 -->
<g id="edge57" class="edge">
<title>Node298113&#45;&gt;Node298083</title>
<path fill="none" stroke="#191970" d="M331.3236,-754.695C375.2181,-752.3572 438.4502,-747.5366 493,-737.7946 718.7686,-697.4746 975.657,-583.9609 1048.688,-550.3105"/>
<polygon fill="#191970" stroke="#191970" points="330.9639,-751.2087 321.154,-755.2107 331.3185,-758.1997 330.9639,-751.2087"/>
</g>
<!-- Node298113&#45;&gt;Node298086 -->
<g id="edge58" class="edge">
<title>Node298113&#45;&gt;Node298086</title>
<path fill="none" stroke="#191970" d="M280.0214,-776.4269C287.4273,-817.6017 310.4283,-913.263 370,-962.7946 467.3202,-1043.7126 856.1077,-1082.1909 1007.8741,-1094.3542"/>
<polygon fill="#191970" stroke="#191970" points="283.4358,-775.6246 278.3286,-766.3419 276.5323,-776.7834 283.4358,-775.6246"/>
</g>
<!-- Node298113&#45;&gt;Node298104 -->
<g id="edge51" class="edge">
<title>Node298113&#45;&gt;Node298104</title>
<path fill="none" stroke="#191970" d="M289.8172,-738.946C306.0696,-717.6299 336.0908,-682.4019 370,-662.7946 399.0653,-645.9881 486.5437,-625.926 542.038,-614.3434"/>
<polygon fill="#191970" stroke="#191970" points="286.8804,-737.0299 283.7236,-747.1436 292.4983,-741.206 286.8804,-737.0299"/>
</g>
<!-- Node298113&#45;&gt;Node298090 -->
<g id="edge60" class="edge">
<title>Node298113&#45;&gt;Node298090</title>
<path fill="none" stroke="#191970" d="M300.1486,-741.8279C318.5133,-730.4598 345.1412,-715.0787 370,-704.7946 428.3024,-680.6747 499.0489,-662.5993 544.2911,-652.3644"/>
<polygon fill="#191970" stroke="#191970" points="298.2011,-738.918 291.5965,-747.2023 301.9257,-744.8448 298.2011,-738.918"/>
</g>
<!-- Node298113&#45;&gt;Node298102 -->
<g id="edge54" class="edge">
<title>Node298113&#45;&gt;Node298102</title>
<path fill="none" stroke="#191970" d="M281.9063,-776.3517C291.9107,-811.8612 318.2287,-886.6029 370,-922.7946 470.8698,-993.3095 622.7379,-994.8463 701.8684,-989.8794"/>
<polygon fill="#191970" stroke="#191970" points="285.2832,-775.4311 279.3151,-766.6771 278.5215,-777.2422 285.2832,-775.4311"/>
</g>
<!-- Node298113&#45;&gt;Node298084 -->
<g id="edge52" class="edge">
<title>Node298113&#45;&gt;Node298084</title>
<path fill="none" stroke="#191970" d="M289.5669,-738.9464C313.7188,-704.7229 364.7101,-632.877 370,-628.7946 377.894,-622.7026 387.5254,-617.9794 396.8016,-614.3982"/>
<polygon fill="#191970" stroke="#191970" points="286.6885,-736.955 283.7869,-747.1448 292.4096,-740.9885 286.6885,-736.955"/>
</g>
<!-- Node298113&#45;&gt;Node298114 -->
<g id="edge59" class="edge">
<title>Node298113&#45;&gt;Node298114</title>
<path fill="none" stroke="#191970" d="M282.3096,-737.3521C296.4201,-685.7404 336.0913,-541.0053 370,-420.7946 392.2486,-341.9205 419.8241,-246.9224 428.6459,-216.5967"/>
<polygon fill="#191970" stroke="#191970" points="278.8886,-736.5937 279.6288,-747.1626 285.6411,-738.4389 278.8886,-736.5937"/>
</g>
<!-- Node298113&#45;&gt;Node298107 -->
<g id="edge62" class="edge">
<title>Node298113&#45;&gt;Node298107</title>
<path fill="none" stroke="#191970" d="M325.9521,-768.8346C347.5365,-774.1434 372.541,-780.2933 392.7935,-785.2745"/>
<polygon fill="#191970" stroke="#191970" points="326.5334,-765.3733 315.9869,-766.3836 324.8615,-772.1707 326.5334,-765.3733"/>
</g>
<!-- Node298107&#45;&gt;Node298080 -->
<g id="edge64" class="edge">
<title>Node298107&#45;&gt;Node298080</title>
<path fill="none" stroke="#191970" d="M503.2164,-794.7946C568.571,-794.7946 667.77,-794.7946 754,-794.7946 754,-794.7946 754,-794.7946 1069,-794.7946 1269.8505,-794.7946 1362.9016,-475.3131 1378.5835,-415.4104"/>
<polygon fill="#191970" stroke="#191970" points="503.0252,-791.2947 493.0251,-794.7946 503.0251,-798.2947 503.0252,-791.2947"/>
</g>
<!-- Node298107&#45;&gt;Node298095 -->
<g id="edge65" class="edge">
<title>Node298107&#45;&gt;Node298095</title>
<path fill="none" stroke="#191970" d="M503.191,-805.6292C511.8757,-806.7818 520.6316,-807.8691 529,-808.7946 645.0975,-821.6335 781.4663,-830.8788 856.916,-835.4842"/>
<polygon fill="#191970" stroke="#191970" points="503.4363,-802.1304 493.056,-804.2518 502.4936,-809.0666 503.4363,-802.1304"/>
</g>
<!-- Node298107&#45;&gt;Node298090 -->
<g id="edge63" class="edge">
<title>Node298107&#45;&gt;Node298090</title>
<path fill="none" stroke="#191970" d="M449.0111,-778.0016C482.3275,-746.0515 553.8525,-677.4597 580.0889,-652.2993"/>
<polygon fill="#191970" stroke="#191970" points="446.2099,-775.8386 441.4149,-785.2863 451.055,-780.8909 446.2099,-775.8386"/>
</g>
<!-- Node298119&#45;&gt;Node298080 -->
<g id="edge68" class="edge">
<title>Node298119&#45;&gt;Node298080</title>
<path fill="none" stroke="#191970" d="M344.3041,-181.3435C407.6409,-175.8342 505.1683,-168.7946 590,-168.7946 590,-168.7946 590,-168.7946 1069,-168.7946 1222.0497,-168.7946 1347.0793,-351.8714 1375.1156,-396.2104"/>
<polygon fill="#191970" stroke="#191970" points="343.7059,-177.8826 334.0522,-182.2479 344.3211,-184.8555 343.7059,-177.8826"/>
</g>
<!-- Node298119&#45;&gt;Node298088 -->
<g id="edge69" class="edge">
<title>Node298119&#45;&gt;Node298088</title>
<path fill="none" stroke="#191970" d="M326.9648,-176.0415C340.8447,-173.052 355.9605,-170.051 370,-167.7946 678.4909,-118.2139 756.5502,-92.7946 1069,-92.7946 1069,-92.7946 1069,-92.7946 1235,-92.7946 1360.4207,-92.7946 1467.5324,-234.3929 1494.4764,-273.1112"/>
<polygon fill="#191970" stroke="#191970" points="326.1262,-172.6422 317.1095,-178.2055 327.6275,-179.4793 326.1262,-172.6422"/>
</g>
<!-- Node298119&#45;&gt;Node298114 -->
<g id="edge70" class="edge">
<title>Node298119&#45;&gt;Node298114</title>
<path fill="none" stroke="#191970" d="M344.284,-196.069C359.163,-197.8988 374.5435,-199.7902 388.1677,-201.4657"/>
<polygon fill="#191970" stroke="#191970" points="344.4436,-192.5623 334.0911,-194.8155 343.5891,-199.51 344.4436,-192.5623"/>
</g>
<!-- Node298099&#45;&gt;Node298101 -->
<g id="edge78" class="edge">
<title>Node298099&#45;&gt;Node298101</title>
<path fill="none" stroke="#191970" d="M341.967,-1331.1411C385.03,-1332.8834 442.6572,-1333.0341 493,-1325.7946 517.6361,-1322.2518 544.7863,-1314.0243 564.0816,-1307.3992"/>
<polygon fill="#191970" stroke="#191970" points="342.0475,-1327.6413 331.9021,-1330.6943 341.7371,-1334.6344 342.0475,-1327.6413"/>
</g>
<!-- Node298099&#45;&gt;Node298099 -->
<g id="edge74" class="edge">
<title>Node298099&#45;&gt;Node298099</title>
<path fill="none" stroke="#191970" d="M253.9346,-1345.8238C255.1928,-1350.9226 262.8812,-1354.7946 277,-1354.7946 299.0391,-1354.7946 305.4097,-1345.3599 296.112,-1336.5516"/>
<polygon fill="#191970" stroke="#191970" points="257.1854,-1347.1232 257.888,-1336.5516 250.7463,-1344.3777 257.1854,-1347.1232"/>
</g>
<!-- Node298099&#45;&gt;Node298100 -->
<g id="edge75" class="edge">
<title>Node298099&#45;&gt;Node298100</title>
<path fill="none" stroke="#191970" d="M325.9521,-1314.7546C347.5365,-1309.4458 372.541,-1303.2958 392.7935,-1298.3146"/>
<polygon fill="#191970" stroke="#191970" points="324.8615,-1311.4184 315.9869,-1317.2056 326.5334,-1318.2158 324.8615,-1311.4184"/>
</g>
<!-- Node298100&#45;&gt;Node298101 -->
<g id="edge77" class="edge">
<title>Node298100&#45;&gt;Node298101</title>
<path fill="none" stroke="#191970" d="M502.5329,-1292.828C511.3021,-1293.3259 520.207,-1293.8316 528.8119,-1294.3202"/>
<polygon fill="#191970" stroke="#191970" points="502.5093,-1289.3211 492.3269,-1292.2485 502.1124,-1296.3099 502.5093,-1289.3211"/>
</g>
<!-- Node298100&#45;&gt;Node298100 -->
<g id="edge76" class="edge">
<title>Node298100&#45;&gt;Node298100</title>
<path fill="none" stroke="#191970" d="M402.7542,-1307.4485C403.9558,-1312.7314 413.5377,-1316.7946 431.5,-1316.7946 458.8711,-1316.7946 466.7831,-1307.3599 455.2359,-1298.5516"/>
<polygon fill="#191970" stroke="#191970" points="405.9072,-1308.9825 407.7641,-1298.5516 399.8077,-1305.5478 405.9072,-1308.9825"/>
</g>
<!-- Node298120&#45;&gt;Node298088 -->
<g id="edge81" class="edge">
<title>Node298120&#45;&gt;Node298088</title>
<path fill="none" stroke="#191970" d="M343.5108,-54.7946C406.873,-54.7946 504.9381,-54.7946 590,-54.7946 590,-54.7946 590,-54.7946 1235,-54.7946 1257.3584,-54.7946 1400.3784,-101.464 1422,-120.7946 1470.9876,-164.5914 1492.765,-245.5459 1499.0096,-273.2248"/>
<polygon fill="#191970" stroke="#191970" points="343.2596,-51.2947 333.2596,-54.7946 343.2595,-58.2947 343.2596,-51.2947"/>
</g>
<!-- Node298120&#45;&gt;Node298114 -->
<g id="edge82" class="edge">
<title>Node298120&#45;&gt;Node298114</title>
<path fill="none" stroke="#191970" d="M294.0692,-71.5876C326.5448,-103.5377 396.2648,-172.1295 421.839,-197.2899"/>
<polygon fill="#191970" stroke="#191970" points="296.2478,-68.8211 286.6647,-64.3029 291.3386,-73.811 296.2478,-68.8211"/>
</g>
<!-- Node298121&#45;&gt;Node298086 -->
<g id="edge94" class="edge">
<title>Node298121&#45;&gt;Node298086</title>
<path fill="none" stroke="#191970" d="M341.8524,-1459.2658C385.3362,-1458.0891 443.4852,-1453.606 493,-1439.7946 723.3278,-1375.5482 780.7666,-1338.3504 972,-1194.7946 1008.5705,-1167.3417 1045.1319,-1126.7187 1060.9121,-1108.3871"/>
<polygon fill="#191970" stroke="#191970" points="341.61,-1455.7702 331.689,-1459.4882 341.7632,-1462.7685 341.61,-1455.7702"/>
</g>
<!-- Node298121&#45;&gt;Node298087 -->
<g id="edge91" class="edge">
<title>Node298121&#45;&gt;Node298087</title>
<path fill="none" stroke="#191970" d="M335.3924,-1470.1615C398.0695,-1481.3575 500.6838,-1496.7946 590,-1496.7946 590,-1496.7946 590,-1496.7946 914.5,-1496.7946 1010.8699,-1496.7946 1056.5413,-1535.1723 1130,-1472.7946 1188.9899,-1422.703 1226.5996,-1161.8462 1233.7539,-1108.3774"/>
<polygon fill="#191970" stroke="#191970" points="335.7689,-1466.6729 325.3051,-1468.3345 334.5212,-1473.5608 335.7689,-1466.6729"/>
</g>
<!-- Node298121&#45;&gt;Node298110 -->
<g id="edge92" class="edge">
<title>Node298121&#45;&gt;Node298110</title>
<path fill="none" stroke="#191970" d="M289.1619,-1440.6993C301.4352,-1421.9686 320.4591,-1391.6072 334,-1363.7946 353.5831,-1323.5716 349.7339,-1309.6778 370,-1269.7946 386.7328,-1236.8649 412.0566,-1201.0665 424.3293,-1184.3721"/>
<polygon fill="#191970" stroke="#191970" points="286.1828,-1438.8588 283.5782,-1449.1286 292.0186,-1442.7246 286.1828,-1438.8588"/>
</g>
<!-- Node298121&#45;&gt;Node298112 -->
<g id="edge93" class="edge">
<title>Node298121&#45;&gt;Node298112</title>
<path fill="none" stroke="#191970" d="M325.9521,-1446.7546C347.5365,-1441.4458 372.541,-1435.2958 392.7935,-1430.3146"/>
<polygon fill="#191970" stroke="#191970" points="324.8615,-1443.4184 315.9869,-1449.2056 326.5334,-1450.2158 324.8615,-1443.4184"/>
</g>
</g>
</svg>
        <g id="navigator" transform="translate(0 0)" fill="#404254">
                <rect fill="#f2f5e9" fill-opacity="0.5" stroke="#606060" stroke-width=".5" x="0" y="0" width="60" height="60"/>
                <use id="zoomplus" xlink:href="#zoomPlus" x="17" y="9" onmousedown="handleZoom(evt,'in')"/>
                <use id="zoomminus" xlink:href="#zoomMin" x="42" y="9" onmousedown="handleZoom(evt,'out')"/>
                <use id="reset" xlink:href="#resetDef" x="30" y="36" onmousedown="handleReset()"/>
                <g id="arrowUp" xlink:href="#dirArrow" transform="translate(30 24)" onmousedown="handlePan(0,-1)">
                  <use xlink:href="#rim" fill="#404040">
                        <set attributeName="fill" to="#808080" begin="arrowUp.mouseover" end="arrowUp.mouseout"/>
                  </use>
                  <path fill="none" stroke="white" stroke-width="1.5" d="M0,-3.0v7 M-2.5,-0.5L0,-3.0L2.5,-0.5"/>
                </g>
                <g id="arrowRight" xlink:href="#dirArrow" transform="rotate(90) translate(36 -43)" onmousedown="handlePan(1,0)">
                  <use xlink:href="#rim" fill="#404040">
                        <set attributeName="fill" to="#808080" begin="arrowRight.mouseover" end="arrowRight.mouseout"/>
                  </use>
                  <path fill="none" stroke="white" stroke-width="1.5" d="M0,-3.0v7 M-2.5,-0.5L0,-3.0L2.5,-0.5"/>
                </g>
                <g id="arrowDown" xlink:href="#dirArrow" transform="rotate(180) translate(-30 -48)" onmousedown="handlePan(0,1)">
                  <use xlink:href="#rim" fill="#404040">
                        <set attributeName="fill" to="#808080" begin="arrowDown.mouseover" end="arrowDown.mouseout"/>
                  </use>
                  <path fill="none" stroke="white" stroke-width="1.5" d="M0,-3.0v7 M-2.5,-0.5L0,-3.0L2.5,-0.5"/>
                </g>
                <g id="arrowLeft" xlink:href="#dirArrow" transform="rotate(270) translate(-36 17)" onmousedown="handlePan(-1,0)">
                  <use xlink:href="#rim" fill="#404040">
                        <set attributeName="fill" to="#808080" begin="arrowLeft.mouseover" end="arrowLeft.mouseout"/>
                  </use>
                  <path fill="none" stroke="white" stroke-width="1.5" d="M0,-3.0v7 M-2.5,-0.5L0,-3.0L2.5,-0.5"/>
                </g>
        </g>
        <svg viewBox="0 0 15 15" width="100%" height="30px" preserveAspectRatio="xMaxYMin meet">
         <g id="arrow_out" transform="scale(0.3 0.3)">
          <a xlink:href="quickjs_8c_ace438176f9f0e0fea6d6f5cdffb1577e_icgraph_org.svg" target="_base">
           <rect id="button" ry="5" rx="5" y="6" x="6" height="38" width="38"
                fill="#f2f5e9" fill-opacity="0.5" stroke="#606060" stroke-width="1.0"/>
           <path id="arrow"
             d="M 11.500037,31.436501 C 11.940474,20.09759 22.043105,11.32322 32.158766,21.979434 L 37.068811,17.246167 C 37.068811,17.246167 37.088388,32 37.088388,32 L 22.160133,31.978069 C 22.160133,31.978069 26.997745,27.140456 26.997745,27.140456 C 18.528582,18.264221 13.291696,25.230495 11.500037,31.436501 z"
             style="fill:#404040;"/>
          </a>
         </g>
        </svg>
</svg>
