<?xml version="1.0" encoding="UTF-8" standalone="no"?>
<!DOCTYPE svg PUBLIC "-//W3C//DTD SVG 1.1//EN"
 "http://www.w3.org/Graphics/SVG/1.1/DTD/svg11.dtd">
<!-- Generated by graphviz version 2.40.1 (20161225.0304)
 -->
<!-- Title: is_num_string Pages: 1 -->
<svg width="780pt" height="739pt"
 viewBox="0.00 0.00 780.00 738.71" xmlns="http://www.w3.org/2000/svg" xmlns:xlink="http://www.w3.org/1999/xlink">
<g id="graph0" class="graph" transform="scale(1 1) rotate(0) translate(4 734.7088)">
<title>is_num_string</title>
<!-- Node74478 -->
<g id="node1" class="node">
<title>Node74478</title>
<polygon fill="#bfbfbf" stroke="#000000" points="0,-408.5 0,-427.5 77,-427.5 77,-408.5 0,-408.5"/>
<text text-anchor="middle" x="38.5" y="-415.5" font-family="Helvetica,sans-Serif" font-size="10.00" fill="#000000">is_num_string</text>
</g>
<!-- Node74479 -->
<g id="node2" class="node">
<title>Node74479</title>
<g id="a_node2"><a xlink:href="quickjs_8c.html#aae16c5cdefab4e9dd9866993a7f0150e" target="_top" xlink:title="JS_AtomIsArrayIndex">
<polygon fill="none" stroke="#000000" points="113,-575.5 113,-594.5 226,-594.5 226,-575.5 113,-575.5"/>
<text text-anchor="middle" x="169.5" y="-582.5" font-family="Helvetica,sans-Serif" font-size="10.00" fill="#000000">JS_AtomIsArrayIndex</text>
</a>
</g>
</g>
<!-- Node74478&#45;&gt;Node74479 -->
<g id="edge1" class="edge">
<title>Node74478&#45;&gt;Node74479</title>
<path fill="none" stroke="#191970" d="M52.571,-435.9379C80.1822,-471.1369 140.6218,-548.1858 161.9026,-575.3148"/>
<polygon fill="#191970" stroke="#191970" points="55.2282,-433.6544 46.3023,-427.9465 49.7205,-437.9748 55.2282,-433.6544"/>
</g>
<!-- Node75066 -->
<g id="node19" class="node">
<title>Node75066</title>
<g id="a_node19"><a xlink:href="quickjs_8c.html#a33fd643aff7f70e649d246385cd99b00" target="_top" xlink:title="JS_NewAtomStr">
<polygon fill="none" stroke="#000000" points="124.5,-228.5 124.5,-247.5 214.5,-247.5 214.5,-228.5 124.5,-228.5"/>
<text text-anchor="middle" x="169.5" y="-235.5" font-family="Helvetica,sans-Serif" font-size="10.00" fill="#000000">JS_NewAtomStr</text>
</a>
</g>
</g>
<!-- Node74478&#45;&gt;Node75066 -->
<g id="edge21" class="edge">
<title>Node74478&#45;&gt;Node75066</title>
<path fill="none" stroke="#191970" d="M51.7176,-399.8384C79.1392,-362.1598 141.4075,-276.6003 162.422,-247.7254"/>
<polygon fill="#191970" stroke="#191970" points="48.5977,-398.1774 45.5431,-408.3224 54.2575,-402.2965 48.5977,-398.1774"/>
</g>
<!-- Node74480 -->
<g id="node3" class="node">
<title>Node74480</title>
<g id="a_node3"><a xlink:href="quickjs_8c.html#a176ac5ff56a118a0b1b2566798d28823" target="_top" xlink:title="JS_GetOwnPropertyNamesInternal">
<polygon fill="none" stroke="#000000" points="262,-474.5 262,-493.5 432,-493.5 432,-474.5 262,-474.5"/>
<text text-anchor="middle" x="347" y="-481.5" font-family="Helvetica,sans-Serif" font-size="10.00" fill="#000000">JS_GetOwnPropertyNamesInternal</text>
</a>
</g>
</g>
<!-- Node74479&#45;&gt;Node74480 -->
<g id="edge2" class="edge">
<title>Node74479&#45;&gt;Node74480</title>
<path fill="none" stroke="#191970" d="M195.3344,-570.2999C232.2593,-549.289 299.0963,-511.2579 330.2163,-493.5502"/>
<polygon fill="#191970" stroke="#191970" points="193.1593,-567.5105 186.1988,-575.4982 196.6212,-573.5946 193.1593,-567.5105"/>
</g>
<!-- Node75065 -->
<g id="node14" class="node">
<title>Node75065</title>
<g id="a_node14"><a xlink:href="quickjs_8c.html#a2b9a2014cb970af5b5b7dde00afbdffa" target="_top" xlink:title="delete_property">
<polygon fill="none" stroke="#000000" points="305.5,-670.5 305.5,-689.5 388.5,-689.5 388.5,-670.5 305.5,-670.5"/>
<text text-anchor="middle" x="347" y="-677.5" font-family="Helvetica,sans-Serif" font-size="10.00" fill="#000000">delete_property</text>
</a>
</g>
</g>
<!-- Node74479&#45;&gt;Node75065 -->
<g id="edge14" class="edge">
<title>Node74479&#45;&gt;Node75065</title>
<path fill="none" stroke="#191970" d="M196.6453,-599.5285C233.4249,-619.2133 298.0634,-653.8086 329.2198,-670.4838"/>
<polygon fill="#191970" stroke="#191970" points="197.9647,-596.2649 187.4965,-594.6319 194.6615,-602.4366 197.9647,-596.2649"/>
</g>
<!-- Node74647 -->
<g id="node15" class="node">
<title>Node74647</title>
<g id="a_node15"><a xlink:href="quickjs_8c.html#aeb73aae9c3ad7daaf7646e3f2f89245a" target="_top" xlink:title="set_array_length">
<polygon fill="none" stroke="#ff0000" points="495,-708.5 495,-727.5 584,-727.5 584,-708.5 495,-708.5"/>
<text text-anchor="middle" x="539.5" y="-715.5" font-family="Helvetica,sans-Serif" font-size="10.00" fill="#000000">set_array_length</text>
</a>
</g>
</g>
<!-- Node74479&#45;&gt;Node74647 -->
<g id="edge18" class="edge">
<title>Node74479&#45;&gt;Node74647</title>
<path fill="none" stroke="#191970" d="M178.3496,-603.5867C192.0911,-630.0896 221.2799,-677.8653 262,-699 336.3633,-737.5964 437.3918,-732.6037 494.7849,-725.3774"/>
<polygon fill="#191970" stroke="#191970" points="181.4464,-601.9538 173.8476,-594.5708 175.1837,-605.081 181.4464,-601.9538"/>
</g>
<!-- Node74648 -->
<g id="node17" class="node">
<title>Node74648</title>
<g id="a_node17"><a xlink:href="quickjs_8c.html#ad5565bb5cfd5321f181573257f3b0c91" target="_top" xlink:title="JS_CreateProperty">
<polygon fill="none" stroke="#ff0000" points="297,-597.5 297,-616.5 397,-616.5 397,-597.5 297,-597.5"/>
<text text-anchor="middle" x="347" y="-604.5" font-family="Helvetica,sans-Serif" font-size="10.00" fill="#000000">JS_CreateProperty</text>
</a>
</g>
</g>
<!-- Node74479&#45;&gt;Node74648 -->
<g id="edge19" class="edge">
<title>Node74479&#45;&gt;Node74648</title>
<path fill="none" stroke="#191970" d="M236.1859,-593.2653C256.302,-595.7586 278.0327,-598.4519 296.877,-600.7876"/>
<polygon fill="#191970" stroke="#191970" points="236.5047,-589.7781 226.1501,-592.0214 235.6437,-596.725 236.5047,-589.7781"/>
</g>
<!-- Node75041 -->
<g id="node18" class="node">
<title>Node75041</title>
<g id="a_node18"><a xlink:href="quickjs_8c.html#a9105ee38f5a557a7922fe6cfee0f9bb2" target="_top" xlink:title="js_arguments_define\l_own_property">
<polygon fill="none" stroke="#000000" points="293.5,-548 293.5,-578 400.5,-578 400.5,-548 293.5,-548"/>
<text text-anchor="start" x="301.5" y="-566" font-family="Helvetica,sans-Serif" font-size="10.00" fill="#000000">js_arguments_define</text>
<text text-anchor="middle" x="347" y="-555" font-family="Helvetica,sans-Serif" font-size="10.00" fill="#000000">_own_property</text>
</a>
</g>
</g>
<!-- Node74479&#45;&gt;Node75041 -->
<g id="edge20" class="edge">
<title>Node74479&#45;&gt;Node75041</title>
<path fill="none" stroke="#191970" d="M236.1613,-576.7377C255.0246,-574.3998 275.3096,-571.8856 293.3039,-569.6553"/>
<polygon fill="#191970" stroke="#191970" points="235.6437,-573.275 226.1501,-577.9786 236.5047,-580.2219 235.6437,-573.275"/>
</g>
<!-- Node74481 -->
<g id="node4" class="node">
<title>Node74481</title>
<g id="a_node4"><a xlink:href="quickjs_8c.html#a160229a9daaaf70e287d6dadb69bc609" target="_top" xlink:title="JS_GetOwnPropertyNames">
<polygon fill="none" stroke="#ff0000" points="470.5,-316.5 470.5,-335.5 608.5,-335.5 608.5,-316.5 470.5,-316.5"/>
<text text-anchor="middle" x="539.5" y="-323.5" font-family="Helvetica,sans-Serif" font-size="10.00" fill="#000000">JS_GetOwnPropertyNames</text>
</a>
</g>
</g>
<!-- Node74480&#45;&gt;Node74481 -->
<g id="edge3" class="edge">
<title>Node74480&#45;&gt;Node74481</title>
<path fill="none" stroke="#191970" d="M357.8988,-465.5064C376.5537,-435.5104 417.5213,-376.4458 468,-345 474.214,-341.129 481.2055,-338.0399 488.3202,-335.5763"/>
<polygon fill="#191970" stroke="#191970" points="354.8468,-463.7892 352.6423,-474.1521 360.8281,-467.4258 354.8468,-463.7892"/>
</g>
<!-- Node74484 -->
<g id="node5" class="node">
<title>Node74484</title>
<g id="a_node5"><a xlink:href="quickjs_8c.html#aa40a5354bee3b56e05a71244910bcc78" target="_top" xlink:title="build_for_in_iterator">
<polygon fill="none" stroke="#ff0000" points="489,-594.5 489,-613.5 590,-613.5 590,-594.5 489,-594.5"/>
<text text-anchor="middle" x="539.5" y="-601.5" font-family="Helvetica,sans-Serif" font-size="10.00" fill="#000000">build_for_in_iterator</text>
</a>
</g>
</g>
<!-- Node74480&#45;&gt;Node74484 -->
<g id="edge4" class="edge">
<title>Node74480&#45;&gt;Node74484</title>
<path fill="none" stroke="#191970" d="M374.608,-498.7059C392.0889,-508.7516 414.595,-523.0909 432,-539 451.1622,-556.5153 446.3308,-570.7024 468,-585 474.3252,-589.1734 481.5326,-592.4324 488.8797,-594.9767"/>
<polygon fill="#191970" stroke="#191970" points="375.9115,-495.424 365.4777,-493.5839 372.4867,-501.529 375.9115,-495.424"/>
</g>
<!-- Node74603 -->
<g id="node6" class="node">
<title>Node74603</title>
<g id="a_node6"><a xlink:href="quickjs_8c.html#a3b754d750c7f3123e85f4a2e748de023" target="_top" xlink:title="JS_CopyDataProperties">
<polygon fill="none" stroke="#ff0000" points="478.5,-556.5 478.5,-575.5 600.5,-575.5 600.5,-556.5 478.5,-556.5"/>
<text text-anchor="middle" x="539.5" y="-563.5" font-family="Helvetica,sans-Serif" font-size="10.00" fill="#000000">JS_CopyDataProperties</text>
</a>
</g>
</g>
<!-- Node74480&#45;&gt;Node74603 -->
<g id="edge5" class="edge">
<title>Node74480&#45;&gt;Node74603</title>
<path fill="none" stroke="#191970" d="M371.2706,-498.675C395.1851,-512.6386 433.1053,-533.4702 468,-547 477.3408,-550.6217 487.6272,-553.8003 497.4158,-556.4696"/>
<polygon fill="#191970" stroke="#191970" points="372.9175,-495.5829 362.5273,-493.5105 369.3574,-501.61 372.9175,-495.5829"/>
</g>
<!-- Node74744 -->
<g id="node7" class="node">
<title>Node74744</title>
<g id="a_node7"><a xlink:href="quickjs_8c.html#ab2de4cc7a9e58c7a6220acf9e4769d62" target="_top" xlink:title="JS_ObjectDefineProperties">
<polygon fill="none" stroke="#ff0000" points="472,-518.5 472,-537.5 607,-537.5 607,-518.5 472,-518.5"/>
<text text-anchor="middle" x="539.5" y="-525.5" font-family="Helvetica,sans-Serif" font-size="10.00" fill="#000000">JS_ObjectDefineProperties</text>
</a>
</g>
</g>
<!-- Node74480&#45;&gt;Node74744 -->
<g id="edge6" class="edge">
<title>Node74480&#45;&gt;Node74744</title>
<path fill="none" stroke="#191970" d="M398.5554,-495.7841C429.6304,-502.8869 468.6949,-511.816 497.8119,-518.4713"/>
<polygon fill="#191970" stroke="#191970" points="399.2981,-492.3637 388.7696,-493.5473 397.7383,-499.1877 399.2981,-492.3637"/>
</g>
<!-- Node74753 -->
<g id="node8" class="node">
<title>Node74753</title>
<g id="a_node8"><a xlink:href="quickjs_8c.html#ad4eec5e88dc04d884c28e0f09d9a81f5" target="_top" xlink:title="js_object_getOwnProperty\lDescriptors">
<polygon fill="none" stroke="#000000" points="474,-469 474,-499 605,-499 605,-469 474,-469"/>
<text text-anchor="start" x="482" y="-487" font-family="Helvetica,sans-Serif" font-size="10.00" fill="#000000">js_object_getOwnProperty</text>
<text text-anchor="middle" x="539.5" y="-476" font-family="Helvetica,sans-Serif" font-size="10.00" fill="#000000">Descriptors</text>
</a>
</g>
</g>
<!-- Node74480&#45;&gt;Node74753 -->
<g id="edge7" class="edge">
<title>Node74480&#45;&gt;Node74753</title>
<path fill="none" stroke="#191970" d="M442.4684,-484C453.1233,-484 463.7909,-484 473.9489,-484"/>
<polygon fill="#191970" stroke="#191970" points="442.274,-480.5001 432.274,-484 442.2739,-487.5001 442.274,-480.5001"/>
</g>
<!-- Node74700 -->
<g id="node9" class="node">
<title>Node74700</title>
<g id="a_node9"><a xlink:href="quickjs_8c.html#a79c9d633e8f9d5fd70546406b9e6f176" target="_top" xlink:title="JS_GetOwnPropertyNames2">
<polygon fill="none" stroke="#ff0000" points="468,-430.5 468,-449.5 611,-449.5 611,-430.5 468,-430.5"/>
<text text-anchor="middle" x="539.5" y="-437.5" font-family="Helvetica,sans-Serif" font-size="10.00" fill="#000000">JS_GetOwnPropertyNames2</text>
</a>
</g>
</g>
<!-- Node74480&#45;&gt;Node74700 -->
<g id="edge8" class="edge">
<title>Node74480&#45;&gt;Node74700</title>
<path fill="none" stroke="#191970" d="M398.5554,-472.2159C429.6304,-465.1131 468.6949,-456.184 497.8119,-449.5287"/>
<polygon fill="#191970" stroke="#191970" points="397.7383,-468.8123 388.7696,-474.4527 399.2981,-475.6363 397.7383,-468.8123"/>
</g>
<!-- Node74757 -->
<g id="node10" class="node">
<title>Node74757</title>
<g id="a_node10"><a xlink:href="quickjs_8c.html#a3b1f61e0c2e39eb52d8b1c5c8713873e" target="_top" xlink:title="js_object_seal">
<polygon fill="none" stroke="#ff0000" points="500,-392.5 500,-411.5 579,-411.5 579,-392.5 500,-392.5"/>
<text text-anchor="middle" x="539.5" y="-399.5" font-family="Helvetica,sans-Serif" font-size="10.00" fill="#000000">js_object_seal</text>
</a>
</g>
</g>
<!-- Node74480&#45;&gt;Node74757 -->
<g id="edge9" class="edge">
<title>Node74480&#45;&gt;Node74757</title>
<path fill="none" stroke="#191970" d="M371.2706,-469.325C395.1851,-455.3614 433.1053,-434.5298 468,-421 478.0593,-417.0997 489.2153,-413.7133 499.6652,-410.9235"/>
<polygon fill="#191970" stroke="#191970" points="369.3574,-466.39 362.5273,-474.4895 372.9175,-472.4171 369.3574,-466.39"/>
</g>
<!-- Node74755 -->
<g id="node11" class="node">
<title>Node74755</title>
<g id="a_node11"><a xlink:href="quickjs_8c.html#a43a4ecde0329def8ff22e9341c7b109d" target="_top" xlink:title="js_object_isSealed">
<polygon fill="none" stroke="#000000" points="490.5,-354.5 490.5,-373.5 588.5,-373.5 588.5,-354.5 490.5,-354.5"/>
<text text-anchor="middle" x="539.5" y="-361.5" font-family="Helvetica,sans-Serif" font-size="10.00" fill="#000000">js_object_isSealed</text>
</a>
</g>
</g>
<!-- Node74480&#45;&gt;Node74755 -->
<g id="edge10" class="edge">
<title>Node74480&#45;&gt;Node74755</title>
<path fill="none" stroke="#191970" d="M362.7352,-466.8504C384.3333,-444.3298 425.3632,-405.0695 468,-383 475.4142,-379.1623 483.6729,-376.0485 491.8692,-373.5384"/>
<polygon fill="#191970" stroke="#191970" points="360.0006,-464.6489 355.6902,-474.3273 365.0953,-469.4494 360.0006,-464.6489"/>
</g>
<!-- Node74549 -->
<g id="node12" class="node">
<title>Node74549</title>
<g id="a_node12"><a xlink:href="quickjs_8c.html#a624282391413d4c5a030adbd8b77aa80" target="_top" xlink:title="internalize_json_property">
<polygon fill="none" stroke="#ff0000" points="647,-651.5 647,-670.5 772,-670.5 772,-651.5 647,-651.5"/>
<text text-anchor="middle" x="709.5" y="-658.5" font-family="Helvetica,sans-Serif" font-size="10.00" fill="#000000">internalize_json_property</text>
</a>
</g>
</g>
<!-- Node74480&#45;&gt;Node74549 -->
<g id="edge11" class="edge">
<title>Node74480&#45;&gt;Node74549</title>
<path fill="none" stroke="#191970" d="M378.1698,-498.3605C395.8807,-507.8177 417.3704,-521.6554 432,-539 458.188,-570.0478 435.9371,-598.0651 468,-623 495.18,-644.1376 584.915,-653.7458 646.9938,-657.9483"/>
<polygon fill="#191970" stroke="#191970" points="379.2837,-494.9991 368.7867,-493.5627 376.0969,-501.2316 379.2837,-494.9991"/>
</g>
<!-- Node74761 -->
<g id="node13" class="node">
<title>Node74761</title>
<g id="a_node13"><a xlink:href="quickjs_8c.html#a438b354d69a8f0674195b0cdc19dd686" target="_top" xlink:title="js_proxy_get_own_property\l_names">
<polygon fill="none" stroke="#000000" points="471.5,-267 471.5,-297 607.5,-297 607.5,-267 471.5,-267"/>
<text text-anchor="start" x="479.5" y="-285" font-family="Helvetica,sans-Serif" font-size="10.00" fill="#000000">js_proxy_get_own_property</text>
<text text-anchor="middle" x="539.5" y="-274" font-family="Helvetica,sans-Serif" font-size="10.00" fill="#000000">_names</text>
</a>
</g>
</g>
<!-- Node74480&#45;&gt;Node74761 -->
<g id="edge13" class="edge">
<title>Node74480&#45;&gt;Node74761</title>
<path fill="none" stroke="#191970" d="M355.0279,-465.0295C371.1777,-429.0688 410.9862,-350.6811 468,-307 473.0105,-303.1612 478.6558,-299.883 484.5216,-297.0902"/>
<polygon fill="#191970" stroke="#191970" points="351.7456,-463.8 350.9432,-474.3644 358.1585,-466.6062 351.7456,-463.8"/>
</g>
<!-- Node74549&#45;&gt;Node74549 -->
<g id="edge12" class="edge">
<title>Node74549&#45;&gt;Node74549</title>
<path fill="none" stroke="#191970" d="M677.6886,-679.2746C678.5956,-684.741 689.1994,-689 709.5,-689 739.7148,-689 748.4488,-679.5653 735.7019,-670.7571"/>
<polygon fill="#191970" stroke="#191970" points="680.7209,-681.0337 683.2981,-670.7571 674.8748,-677.1836 680.7209,-681.0337"/>
</g>
<!-- Node75065&#45;&gt;Node74647 -->
<g id="edge15" class="edge">
<title>Node75065&#45;&gt;Node74647</title>
<path fill="none" stroke="#191970" d="M398.6356,-690.193C428.6356,-696.1151 466.0611,-703.503 494.7941,-709.1749"/>
<polygon fill="#191970" stroke="#191970" points="399.2582,-686.7484 388.7696,-688.2454 397.9025,-693.6159 399.2582,-686.7484"/>
</g>
<!-- Node75032 -->
<g id="node16" class="node">
<title>Node75032</title>
<g id="a_node16"><a xlink:href="quickjs_8c.html#a2b88ed25233c441cbed7b0a027c9ee2f" target="_top" xlink:title="JS_DeleteProperty">
<polygon fill="none" stroke="#ff0000" points="490,-670.5 490,-689.5 589,-689.5 589,-670.5 490,-670.5"/>
<text text-anchor="middle" x="539.5" y="-677.5" font-family="Helvetica,sans-Serif" font-size="10.00" fill="#000000">JS_DeleteProperty</text>
</a>
</g>
</g>
<!-- Node75065&#45;&gt;Node75032 -->
<g id="edge16" class="edge">
<title>Node75065&#45;&gt;Node75032</title>
<path fill="none" stroke="#191970" d="M398.8764,-680C427.1816,-680 462.0414,-680 489.9714,-680"/>
<polygon fill="#191970" stroke="#191970" points="398.7697,-676.5001 388.7696,-680 398.7696,-683.5001 398.7697,-676.5001"/>
</g>
<!-- Node75032&#45;&gt;Node74549 -->
<g id="edge17" class="edge">
<title>Node75032&#45;&gt;Node74549</title>
<path fill="none" stroke="#191970" d="M599.0749,-673.3416C614.5185,-671.6156 631.1954,-669.7517 646.7944,-668.0083"/>
<polygon fill="#191970" stroke="#191970" points="598.6774,-669.8642 589.128,-674.4533 599.4549,-676.8209 598.6774,-669.8642"/>
</g>
<!-- Node75067 -->
<g id="node20" class="node">
<title>Node75067</title>
<g id="a_node20"><a xlink:href="quickjs_8c.html#a522741f41afb1d0da0aa55968cd8579e" target="_top" xlink:title="JS_NewAtomLen">
<polygon fill="none" stroke="#000000" points="300.5,-171.5 300.5,-190.5 393.5,-190.5 393.5,-171.5 300.5,-171.5"/>
<text text-anchor="middle" x="347" y="-178.5" font-family="Helvetica,sans-Serif" font-size="10.00" fill="#000000">JS_NewAtomLen</text>
</a>
</g>
</g>
<!-- Node75066&#45;&gt;Node75067 -->
<g id="edge22" class="edge">
<title>Node75066&#45;&gt;Node75067</title>
<path fill="none" stroke="#191970" d="M208.9105,-225.3442C241.6303,-214.837 287.4648,-200.1184 317.1936,-190.5716"/>
<polygon fill="#191970" stroke="#191970" points="207.6605,-222.0695 199.2095,-228.4595 209.8008,-228.7343 207.6605,-222.0695"/>
</g>
<!-- Node74987 -->
<g id="node24" class="node">
<title>Node74987</title>
<g id="a_node24"><a xlink:href="quickjs_8c.html#a859d5c989a2aaecef1653b3ac279e108" target="_top" xlink:title="JS_ValueToAtom">
<polygon fill="none" stroke="#ff0000" points="300.5,-269.5 300.5,-288.5 393.5,-288.5 393.5,-269.5 300.5,-269.5"/>
<text text-anchor="middle" x="347" y="-276.5" font-family="Helvetica,sans-Serif" font-size="10.00" fill="#000000">JS_ValueToAtom</text>
</a>
</g>
</g>
<!-- Node75066&#45;&gt;Node74987 -->
<g id="edge26" class="edge">
<title>Node75066&#45;&gt;Node74987</title>
<path fill="none" stroke="#191970" d="M220.7111,-249.8291C247.7119,-256.0658 280.3954,-263.6153 305.748,-269.4714"/>
<polygon fill="#191970" stroke="#191970" points="221.1994,-246.3497 210.6682,-247.5093 219.6239,-253.1702 221.1994,-246.3497"/>
</g>
<!-- Node75091 -->
<g id="node25" class="node">
<title>Node75091</title>
<g id="a_node25"><a xlink:href="quickjs_8c.html#a22324bb35cdaa36ce844506a073bb7f4" target="_top" xlink:title="emit_push_const">
<polygon fill="none" stroke="#000000" points="301.5,-57.5 301.5,-76.5 392.5,-76.5 392.5,-57.5 301.5,-57.5"/>
<text text-anchor="middle" x="347" y="-64.5" font-family="Helvetica,sans-Serif" font-size="10.00" fill="#000000">emit_push_const</text>
</a>
</g>
</g>
<!-- Node75066&#45;&gt;Node75091 -->
<g id="edge28" class="edge">
<title>Node75066&#45;&gt;Node75091</title>
<path fill="none" stroke="#191970" d="M187.0455,-221.097C223.8607,-185.63 308.1536,-104.4239 337.0585,-76.5774"/>
<polygon fill="#191970" stroke="#191970" points="184.3252,-218.8577 179.5517,-228.3163 189.1818,-223.8989 184.3252,-218.8577"/>
</g>
<!-- Node75092 -->
<g id="node29" class="node">
<title>Node75092</title>
<g id="a_node29"><a xlink:href="quickjs_8c.html#ad54b242d774ba44b2ac39fe8161aaf9c" target="_top" xlink:title="JS_ReadObjectAtoms">
<polygon fill="none" stroke="#000000" points="290,-228.5 290,-247.5 404,-247.5 404,-228.5 290,-228.5"/>
<text text-anchor="middle" x="347" y="-235.5" font-family="Helvetica,sans-Serif" font-size="10.00" fill="#000000">JS_ReadObjectAtoms</text>
</a>
</g>
</g>
<!-- Node75066&#45;&gt;Node75092 -->
<g id="edge34" class="edge">
<title>Node75066&#45;&gt;Node75092</title>
<path fill="none" stroke="#191970" d="M224.9296,-238C245.5393,-238 268.9534,-238 289.725,-238"/>
<polygon fill="#191970" stroke="#191970" points="224.75,-234.5001 214.75,-238 224.75,-241.5001 224.75,-234.5001"/>
</g>
<!-- Node75068 -->
<g id="node21" class="node">
<title>Node75068</title>
<g id="a_node21"><a xlink:href="quickjs_8c.html#aa2ef5af1544a3012f91a80c98c326b8f" target="_top" xlink:title="JS_NewAtom">
<polygon fill="none" stroke="#ff0000" points="501,-190.5 501,-209.5 578,-209.5 578,-190.5 501,-190.5"/>
<text text-anchor="middle" x="539.5" y="-197.5" font-family="Helvetica,sans-Serif" font-size="10.00" fill="#000000">JS_NewAtom</text>
</a>
</g>
</g>
<!-- Node75067&#45;&gt;Node75068 -->
<g id="edge23" class="edge">
<title>Node75067&#45;&gt;Node75068</title>
<path fill="none" stroke="#191970" d="M403.9043,-186.6165C435.1175,-189.6973 472.9991,-193.4363 500.7799,-196.1783"/>
<polygon fill="#191970" stroke="#191970" points="403.8943,-183.0986 393.5989,-185.5994 403.2067,-190.0648 403.8943,-183.0986"/>
</g>
<!-- Node74805 -->
<g id="node22" class="node">
<title>Node74805</title>
<g id="a_node22"><a xlink:href="quickjs_8c.html#aadfd9c31a6f69160c12e99b8d5eb5b3c" target="_top" xlink:title="js_atom_concat_str">
<polygon fill="none" stroke="#ff0000" points="488.5,-152.5 488.5,-171.5 590.5,-171.5 590.5,-152.5 488.5,-152.5"/>
<text text-anchor="middle" x="539.5" y="-159.5" font-family="Helvetica,sans-Serif" font-size="10.00" fill="#000000">js_atom_concat_str</text>
</a>
</g>
</g>
<!-- Node75067&#45;&gt;Node74805 -->
<g id="edge24" class="edge">
<title>Node75067&#45;&gt;Node74805</title>
<path fill="none" stroke="#191970" d="M403.6051,-175.413C430.4061,-172.7677 462.1766,-169.6319 488.2572,-167.0577"/>
<polygon fill="#191970" stroke="#191970" points="403.2067,-171.9352 393.5989,-176.4006 403.8943,-178.9014 403.2067,-171.9352"/>
</g>
<!-- Node75082 -->
<g id="node23" class="node">
<title>Node75082</title>
<g id="a_node23"><a xlink:href="quickjs_8c.html#ad91865d0889d1420e3e70d5d497a9bdb" target="_top" xlink:title="parse_ident">
<polygon fill="none" stroke="#ff0000" points="506,-114.5 506,-133.5 573,-133.5 573,-114.5 506,-114.5"/>
<text text-anchor="middle" x="539.5" y="-121.5" font-family="Helvetica,sans-Serif" font-size="10.00" fill="#000000">parse_ident</text>
</a>
</g>
</g>
<!-- Node75067&#45;&gt;Node75082 -->
<g id="edge25" class="edge">
<title>Node75067&#45;&gt;Node75082</title>
<path fill="none" stroke="#191970" d="M385.8972,-168.3001C409.556,-160.6964 440.4274,-150.9888 468,-143 480.3366,-139.4256 493.9453,-135.7446 505.9498,-132.5856"/>
<polygon fill="#191970" stroke="#191970" points="384.6723,-165.0175 376.2299,-171.4188 386.8215,-171.6794 384.6723,-165.0175"/>
</g>
<!-- Node74987&#45;&gt;Node74761 -->
<g id="edge27" class="edge">
<title>Node74987&#45;&gt;Node74761</title>
<path fill="none" stroke="#191970" d="M403.7526,-279.8845C424.9913,-280.2154 449.3344,-280.5948 471.4878,-280.9401"/>
<polygon fill="#191970" stroke="#191970" points="403.6522,-276.3826 393.5989,-279.7262 403.5431,-283.3817 403.6522,-276.3826"/>
</g>
<!-- Node74672 -->
<g id="node26" class="node">
<title>Node74672</title>
<g id="a_node26"><a xlink:href="quickjs_8c.html#a035daca514f14aacc1e0cff81d8e423a" target="_top" xlink:title="js_parse_template">
<polygon fill="none" stroke="#000000" points="491.5,-38.5 491.5,-57.5 587.5,-57.5 587.5,-38.5 491.5,-38.5"/>
<text text-anchor="middle" x="539.5" y="-45.5" font-family="Helvetica,sans-Serif" font-size="10.00" fill="#000000">js_parse_template</text>
</a>
</g>
</g>
<!-- Node75091&#45;&gt;Node74672 -->
<g id="edge29" class="edge">
<title>Node75091&#45;&gt;Node74672</title>
<path fill="none" stroke="#191970" d="M402.6599,-61.5063C430.6627,-58.7424 464.2773,-55.4246 491.1823,-52.769"/>
<polygon fill="#191970" stroke="#191970" points="402.2276,-58.0319 392.6198,-62.4973 402.9153,-64.998 402.2276,-58.0319"/>
</g>
<!-- Node74650 -->
<g id="node27" class="node">
<title>Node74650</title>
<g id="a_node27"><a xlink:href="quickjs_8c.html#acdcc62310b4f6f73fa7bc7267b18b1d4" target="_top" xlink:title="js_parse_postfix_expr">
<polygon fill="none" stroke="#ff0000" points="653.5,-57.5 653.5,-76.5 765.5,-76.5 765.5,-57.5 653.5,-57.5"/>
<text text-anchor="middle" x="709.5" y="-64.5" font-family="Helvetica,sans-Serif" font-size="10.00" fill="#000000">js_parse_postfix_expr</text>
</a>
</g>
</g>
<!-- Node75091&#45;&gt;Node74650 -->
<g id="edge32" class="edge">
<title>Node75091&#45;&gt;Node74650</title>
<path fill="none" stroke="#191970" d="M402.6438,-67C470.6934,-67 585.2179,-67 653.4513,-67"/>
<polygon fill="#191970" stroke="#191970" points="402.5439,-63.5001 392.5438,-67 402.5438,-70.5001 402.5439,-63.5001"/>
</g>
<!-- Node74666 -->
<g id="node28" class="node">
<title>Node74666</title>
<g id="a_node28"><a xlink:href="quickjs_8c.html#a2ecfb6abb190101748202a8aa5821fba" target="_top" xlink:title="js_parse_delete">
<polygon fill="none" stroke="#ff0000" points="497,-.5 497,-19.5 582,-19.5 582,-.5 497,-.5"/>
<text text-anchor="middle" x="539.5" y="-7.5" font-family="Helvetica,sans-Serif" font-size="10.00" fill="#000000">js_parse_delete</text>
</a>
</g>
</g>
<!-- Node75091&#45;&gt;Node74666 -->
<g id="edge33" class="edge">
<title>Node75091&#45;&gt;Node74666</title>
<path fill="none" stroke="#191970" d="M385.8972,-54.3001C409.556,-46.6964 440.4274,-36.9888 468,-29 479.103,-25.7831 491.2363,-22.4797 502.3032,-19.5483"/>
<polygon fill="#191970" stroke="#191970" points="384.6723,-51.0175 376.2299,-57.4188 386.8215,-57.6794 384.6723,-51.0175"/>
</g>
<!-- Node74672&#45;&gt;Node74650 -->
<g id="edge30" class="edge">
<title>Node74672&#45;&gt;Node74650</title>
<path fill="none" stroke="#191970" d="M597.8146,-54.5175C615.7707,-56.5244 635.4949,-58.7288 653.3055,-60.7194"/>
<polygon fill="#191970" stroke="#191970" points="598.0874,-51.0263 587.7605,-53.3938 597.3098,-57.983 598.0874,-51.0263"/>
</g>
<!-- Node74650&#45;&gt;Node74650 -->
<g id="edge31" class="edge">
<title>Node74650&#45;&gt;Node74650</title>
<path fill="none" stroke="#191970" d="M677.6886,-85.2746C678.5956,-90.741 689.1994,-95 709.5,-95 739.7148,-95 748.4488,-85.5653 735.7019,-76.7571"/>
<polygon fill="#191970" stroke="#191970" points="680.7209,-87.0337 683.2981,-76.7571 674.8748,-83.1836 680.7209,-87.0337"/>
</g>
<!-- Node74693 -->
<g id="node30" class="node">
<title>Node74693</title>
<g id="a_node30"><a xlink:href="quickjs_8c.html#a12be2ea9c010752715072489497594e9" target="_top" xlink:title="JS_ReadObject">
<polygon fill="none" stroke="#ff0000" points="496.5,-228.5 496.5,-247.5 582.5,-247.5 582.5,-228.5 496.5,-228.5"/>
<text text-anchor="middle" x="539.5" y="-235.5" font-family="Helvetica,sans-Serif" font-size="10.00" fill="#000000">JS_ReadObject</text>
</a>
</g>
</g>
<!-- Node75092&#45;&gt;Node74693 -->
<g id="edge35" class="edge">
<title>Node75092&#45;&gt;Node74693</title>
<path fill="none" stroke="#191970" d="M414.4596,-238C441.6211,-238 472.1515,-238 496.2449,-238"/>
<polygon fill="#191970" stroke="#191970" points="414.2352,-234.5001 404.2352,-238 414.2351,-241.5001 414.2352,-234.5001"/>
</g>
</g>
</svg>
