<?xml version="1.0" encoding="UTF-8" standalone="no"?>
<!DOCTYPE svg PUBLIC "-//W3C//DTD SVG 1.1//EN"
 "http://www.w3.org/Graphics/SVG/1.1/DTD/svg11.dtd">
<!-- Generated by graphviz version 2.40.1 (20161225.0304)
 -->
<!-- Title: JS_ReadObjectAtoms Pages: 1 -->
<svg width="378pt" height="28pt"
 viewBox="0.00 0.00 378.00 28.00" xmlns="http://www.w3.org/2000/svg" xmlns:xlink="http://www.w3.org/1999/xlink">
<g id="graph0" class="graph" transform="scale(1 1) rotate(0) translate(4 24)">
<title>JS_ReadObjectAtoms</title>
<!-- Node344201 -->
<g id="node1" class="node">
<title>Node344201</title>
<polygon fill="#bfbfbf" stroke="#000000" points="0,-.5 0,-19.5 114,-19.5 114,-.5 0,-.5"/>
<text text-anchor="middle" x="57" y="-7.5" font-family="Helvetica,sans-Serif" font-size="10.00" fill="#000000">JS_ReadObjectAtoms</text>
</g>
<!-- Node344202 -->
<g id="node2" class="node">
<title>Node344202</title>
<g id="a_node2"><a xlink:href="quickjs_8c.html#a12be2ea9c010752715072489497594e9" target="_top" xlink:title="JS_ReadObject">
<polygon fill="none" stroke="#000000" points="150,-.5 150,-19.5 236,-19.5 236,-.5 150,-.5"/>
<text text-anchor="middle" x="193" y="-7.5" font-family="Helvetica,sans-Serif" font-size="10.00" fill="#000000">JS_ReadObject</text>
</a>
</g>
</g>
<!-- Node344201&#45;&gt;Node344202 -->
<g id="edge1" class="edge">
<title>Node344201&#45;&gt;Node344202</title>
<path fill="none" stroke="#191970" d="M124.4003,-10C133.0532,-10 141.7191,-10 149.8374,-10"/>
<polygon fill="#191970" stroke="#191970" points="124.2821,-6.5001 114.2821,-10 124.282,-13.5001 124.2821,-6.5001"/>
</g>
<!-- Node344203 -->
<g id="node3" class="node">
<title>Node344203</title>
<g id="a_node3"><a xlink:href="quickjs-libc_8c.html#ab1b439d304c2125490b47ef262b5df67" target="_top" xlink:title="js_std_eval_binary">
<polygon fill="none" stroke="#000000" points="272,-.5 272,-19.5 370,-19.5 370,-.5 272,-.5"/>
<text text-anchor="middle" x="321" y="-7.5" font-family="Helvetica,sans-Serif" font-size="10.00" fill="#000000">js_std_eval_binary</text>
</a>
</g>
</g>
<!-- Node344202&#45;&gt;Node344203 -->
<g id="edge2" class="edge">
<title>Node344202&#45;&gt;Node344203</title>
<path fill="none" stroke="#191970" d="M246.4794,-10C254.932,-10 263.6364,-10 271.9808,-10"/>
<polygon fill="#191970" stroke="#191970" points="246.335,-6.5001 236.335,-10 246.3349,-13.5001 246.335,-6.5001"/>
</g>
</g>
</svg>
