<?xml version="1.0" encoding="UTF-8" standalone="no"?>
<!DOCTYPE svg PUBLIC "-//W3C//DTD SVG 1.1//EN"
 "http://www.w3.org/Graphics/SVG/1.1/DTD/svg11.dtd">
<!-- Generated by graphviz version 2.40.1 (20161225.0304)
 -->
<!-- Title: js_loadScript Pages: 1 -->
<svg width="292pt" height="28pt"
 viewBox="0.00 0.00 292.00 28.00" xmlns="http://www.w3.org/2000/svg" xmlns:xlink="http://www.w3.org/1999/xlink">
<g id="graph0" class="graph" transform="scale(1 1) rotate(0) translate(4 24)">
<title>js_loadScript</title>
<!-- Node897 -->
<g id="node1" class="node">
<title>Node897</title>
<polygon fill="#bfbfbf" stroke="#000000" points="0,-.5 0,-19.5 73,-19.5 73,-.5 0,-.5"/>
<text text-anchor="middle" x="36.5" y="-7.5" font-family="Helvetica,sans-Serif" font-size="10.00" fill="#000000">js_loadScript</text>
</g>
<!-- Node898 -->
<g id="node2" class="node">
<title>Node898</title>
<g id="a_node2"><a xlink:href="quickjs-libc_8c.html#ad04466feec6822a3b838baf229f6dfa0" target="_top" xlink:title="js_std_add_helpers">
<polygon fill="none" stroke="#000000" points="109,-.5 109,-19.5 210,-19.5 210,-.5 109,-.5"/>
<text text-anchor="middle" x="159.5" y="-7.5" font-family="Helvetica,sans-Serif" font-size="10.00" fill="#000000">js_std_add_helpers</text>
</a>
</g>
</g>
<!-- Node897&#45;&gt;Node898 -->
<g id="edge1" class="edge">
<title>Node897&#45;&gt;Node898</title>
<path fill="none" stroke="#191970" d="M83.3371,-10C91.6406,-10 100.3229,-10 108.7291,-10"/>
<polygon fill="#191970" stroke="#191970" points="83.0711,-6.5001 73.071,-10 83.071,-13.5001 83.0711,-6.5001"/>
</g>
<!-- Node899 -->
<g id="node3" class="node">
<title>Node899</title>
<g id="a_node3"><a xlink:href="qjs_8cpp.html#a3c04138a5bfe5d72780bb7e82a18e627" target="_top" xlink:title="main">
<polygon fill="none" stroke="#000000" points="246,-.5 246,-19.5 284,-19.5 284,-.5 246,-.5"/>
<text text-anchor="middle" x="265" y="-7.5" font-family="Helvetica,sans-Serif" font-size="10.00" fill="#000000">main</text>
</a>
</g>
</g>
<!-- Node898&#45;&gt;Node899 -->
<g id="edge2" class="edge">
<title>Node898&#45;&gt;Node899</title>
<path fill="none" stroke="#191970" d="M220.181,-10C229.4142,-10 238.3156,-10 245.7187,-10"/>
<polygon fill="#191970" stroke="#191970" points="220.087,-6.5001 210.087,-10 220.0869,-13.5001 220.087,-6.5001"/>
</g>
</g>
</svg>
