<?xml version="1.0" encoding="UTF-8" standalone="no"?>
<!DOCTYPE svg PUBLIC "-//W3C//DTD SVG 1.1//EN"
 "http://www.w3.org/Graphics/SVG/1.1/DTD/svg11.dtd">
<!-- Generated by graphviz version 2.40.1 (20161225.0304)
 -->
<!-- Title: JS_CheckGlobalVar Pages: 1 -->
<!--zoomable 995 -->
<svg id="main" version="1.1" xmlns="http://www.w3.org/2000/svg" xmlns:xlink="http://www.w3.org/1999/xlink" xml:space="preserve" onload="init(evt)">
<style type="text/css"><![CDATA[
.edge:hover path { stroke: red; }
.edge:hover polygon { stroke: red; fill: red; }
]]></style>
<script type="text/javascript"><![CDATA[
var edges = document.getElementsByTagName('g');
if (edges && edges.length) {
  for (var i=0;i<edges.length;i++) {
    if (edges[i].id.substr(0,4)=='edge') {
      edges[i].setAttribute('class','edge');
    }
  }
}
]]></script>
        <defs>
                <circle id="rim" cx="0" cy="0" r="7"/>
                <circle id="rim2" cx="0" cy="0" r="3.5"/>
                <g id="zoomPlus">
                        <use xlink:href="#rim" fill="#404040">
                                <set attributeName="fill" to="#808080" begin="zoomplus.mouseover" end="zoomplus.mouseout"/>
                        </use>
                        <path d="M-4,0h8M0,-4v8" fill="none" stroke="white" stroke-width="1.5" pointer-events="none"/>
                </g>
                <g id="zoomMin">
                        <use xlink:href="#rim" fill="#404040">
                                <set attributeName="fill" to="#808080" begin="zoomminus.mouseover" end="zoomminus.mouseout"/>
                        </use>
                        <path d="M-4,0h8" fill="none" stroke="white" stroke-width="1.5" pointer-events="none"/>
                </g>
                <g id="dirArrow">
                        <path fill="none" stroke="white" stroke-width="1.5" d="M0,-3.0v7 M-2.5,-0.5L0,-3.0L2.5,-0.5"/>
                </g>
               <g id="resetDef">
                       <use xlink:href="#rim2" fill="#404040">
                               <set attributeName="fill" to="#808080" begin="reset.mouseover" end="reset.mouseout"/>
                       </use>
               </g>
        </defs>

<script type="text/javascript">
var viewWidth = 571;
var viewHeight = 995;
var sectionId = 'dynsection-617';
</script>
<script xlink:href="svgpan.js"/>
<svg id="graph" class="graph">
<g id="viewport">
<title>JS_CheckGlobalVar</title>
<!-- Node208792 -->
<g id="node1" class="node">
<title>Node208792</title>
<polygon fill="#bfbfbf" stroke="#000000" points="0,-340.5 0,-359.5 105,-359.5 105,-340.5 0,-340.5"/>
<text text-anchor="middle" x="52.5" y="-347.5" font-family="Helvetica,sans-Serif" font-size="10.00" fill="#000000">JS_CheckGlobalVar</text>
</g>
<!-- Node208793 -->
<g id="node2" class="node">
<title>Node208793</title>
<g id="a_node2"><a xlink:href="quickjs_8c.html#ac2894ff4edcdb4e6841bcce9c76081e3" target="_top" xlink:title="JS_CallInternal">
<polygon fill="none" stroke="#000000" points="141,-340.5 141,-359.5 224,-359.5 224,-340.5 141,-340.5"/>
<text text-anchor="middle" x="182.5" y="-347.5" font-family="Helvetica,sans-Serif" font-size="10.00" fill="#000000">JS_CallInternal</text>
</a>
</g>
</g>
<!-- Node208792&#45;&gt;Node208793 -->
<g id="edge1" class="edge">
<title>Node208792&#45;&gt;Node208793</title>
<path fill="none" stroke="#191970" d="M115.2107,-350C123.9617,-350 132.7681,-350 140.9944,-350"/>
<polygon fill="#191970" stroke="#191970" points="115.0013,-346.5001 105.0013,-350 115.0012,-353.5001 115.0013,-346.5001"/>
</g>
<!-- Node208793&#45;&gt;Node208793 -->
<g id="edge40" class="edge">
<title>Node208793&#45;&gt;Node208793</title>
<path fill="none" stroke="#191970" d="M158.3186,-369.0292C159.6376,-374.128 167.6981,-378 182.5,-378 205.6055,-378 212.2844,-368.5653 202.5368,-359.7571"/>
<polygon fill="#191970" stroke="#191970" points="161.5776,-370.3148 162.4632,-359.7571 155.187,-367.4582 161.5776,-370.3148"/>
</g>
<!-- Node208794 -->
<g id="node3" class="node">
<title>Node208794</title>
<g id="a_node3"><a xlink:href="quickjs_8c.html#ade71a22dc56e7371392393df663b28b3" target="_top" xlink:title="async_func_resume">
<polygon fill="none" stroke="#000000" points="275,-874.5 275,-893.5 379,-893.5 379,-874.5 275,-874.5"/>
<text text-anchor="middle" x="327" y="-881.5" font-family="Helvetica,sans-Serif" font-size="10.00" fill="#000000">async_func_resume</text>
</a>
</g>
</g>
<!-- Node208793&#45;&gt;Node208794 -->
<g id="edge2" class="edge">
<title>Node208793&#45;&gt;Node208794</title>
<path fill="none" stroke="#191970" d="M187.7489,-369.3972C211.3253,-456.524 307.0372,-810.2275 324.3189,-874.092"/>
<polygon fill="#191970" stroke="#191970" points="191.122,-368.463 185.1314,-359.7244 184.365,-370.2915 191.122,-368.463"/>
</g>
<!-- Node208806 -->
<g id="node8" class="node">
<title>Node208806</title>
<g id="a_node8"><a xlink:href="quickjs_8c.html#a1a4c02a29525d5cb2085dd8bca3af350" target="_top" xlink:title="JS_Call">
<polygon fill="none" stroke="#ff0000" points="301.5,-378.5 301.5,-397.5 352.5,-397.5 352.5,-378.5 301.5,-378.5"/>
<text text-anchor="middle" x="327" y="-385.5" font-family="Helvetica,sans-Serif" font-size="10.00" fill="#000000">JS_Call</text>
</a>
</g>
</g>
<!-- Node208793&#45;&gt;Node208806 -->
<g id="edge7" class="edge">
<title>Node208793&#45;&gt;Node208806</title>
<path fill="none" stroke="#191970" d="M234.3524,-357.1309C260.197,-363.291 289.8346,-371.6885 308.4855,-378.4368"/>
<polygon fill="#191970" stroke="#191970" points="234.8269,-353.6484 224.2954,-354.8052 233.2497,-360.4684 234.8269,-353.6484"/>
</g>
<!-- Node208880 -->
<g id="node29" class="node">
<title>Node208880</title>
<g id="a_node29"><a xlink:href="quickjs_8c.html#ad35594576a14c10812efaf958c99af8a" target="_top" xlink:title="JS_CallConstructorInternal">
<polygon fill="none" stroke="#ff0000" points="260,-264.5 260,-283.5 394,-283.5 394,-264.5 260,-264.5"/>
<text text-anchor="middle" x="327" y="-271.5" font-family="Helvetica,sans-Serif" font-size="10.00" fill="#000000">JS_CallConstructorInternal</text>
</a>
</g>
</g>
<!-- Node208793&#45;&gt;Node208880 -->
<g id="edge34" class="edge">
<title>Node208793&#45;&gt;Node208880</title>
<path fill="none" stroke="#191970" d="M194.5491,-332.5463C209.0695,-317.2145 234.6856,-296.3922 260,-284 260.3258,-283.8405 260.6531,-283.6822 260.9819,-283.525"/>
<polygon fill="#191970" stroke="#191970" points="191.627,-330.572 187.6961,-340.4106 196.9045,-335.1708 191.627,-330.572"/>
</g>
<!-- Node208894 -->
<g id="node30" class="node">
<title>Node208894</title>
<g id="a_node30"><a xlink:href="quickjs_8c.html#a75f6ee5e4235a7dc99889f3d2eb2c147" target="_top" xlink:title="JS_CallFree">
<polygon fill="none" stroke="#ff0000" points="291.5,-302.5 291.5,-321.5 362.5,-321.5 362.5,-302.5 291.5,-302.5"/>
<text text-anchor="middle" x="327" y="-309.5" font-family="Helvetica,sans-Serif" font-size="10.00" fill="#000000">JS_CallFree</text>
</a>
</g>
</g>
<!-- Node208793&#45;&gt;Node208894 -->
<g id="edge36" class="edge">
<title>Node208793&#45;&gt;Node208894</title>
<path fill="none" stroke="#191970" d="M210.6305,-337.1263C233.6733,-329.5295 266.4179,-320.7723 291.3055,-315.4723"/>
<polygon fill="#191970" stroke="#191970" points="209.4119,-333.8441 201.095,-340.4076 211.6897,-340.4632 209.4119,-333.8441"/>
</g>
<!-- Node208795 -->
<g id="node4" class="node">
<title>Node208795</title>
<g id="a_node4"><a xlink:href="quickjs_8c.html#ac90552b1f1659acb3dae9a4c62479a30" target="_top" xlink:title="js_generator_function_call">
<polygon fill="none" stroke="#ff0000" points="431.5,-967.5 431.5,-986.5 561.5,-986.5 561.5,-967.5 431.5,-967.5"/>
<text text-anchor="middle" x="496.5" y="-974.5" font-family="Helvetica,sans-Serif" font-size="10.00" fill="#000000">js_generator_function_call</text>
</a>
</g>
</g>
<!-- Node208794&#45;&gt;Node208795 -->
<g id="edge3" class="edge">
<title>Node208794&#45;&gt;Node208795</title>
<path fill="none" stroke="#191970" d="M345.4671,-900.3133C365.1641,-916.9499 397.8865,-942.4617 430,-958 437.782,-961.7654 446.4469,-964.9157 454.8825,-967.499"/>
<polygon fill="#191970" stroke="#191970" points="347.488,-897.4351 337.6226,-893.5717 342.9255,-902.7439 347.488,-897.4351"/>
</g>
<!-- Node208799 -->
<g id="node5" class="node">
<title>Node208799</title>
<g id="a_node5"><a xlink:href="quickjs_8c.html#a1bf6b62983e8fff99c0a5d5a9f486115" target="_top" xlink:title="js_async_function_resume">
<polygon fill="none" stroke="#ff0000" points="430,-830.5 430,-849.5 563,-849.5 563,-830.5 430,-830.5"/>
<text text-anchor="middle" x="496.5" y="-837.5" font-family="Helvetica,sans-Serif" font-size="10.00" fill="#000000">js_async_function_resume</text>
</a>
</g>
</g>
<!-- Node208794&#45;&gt;Node208799 -->
<g id="edge4" class="edge">
<title>Node208794&#45;&gt;Node208799</title>
<path fill="none" stroke="#191970" d="M373.4651,-871.9383C400.6496,-864.8815 434.4877,-856.0976 459.7928,-849.5287"/>
<polygon fill="#191970" stroke="#191970" points="372.5787,-868.5523 363.779,-874.4527 374.3376,-875.3277 372.5787,-868.5523"/>
</g>
<!-- Node208804 -->
<g id="node6" class="node">
<title>Node208804</title>
<g id="a_node6"><a xlink:href="quickjs_8c.html#a89b019c704a2d2914bc30b30a72040b3" target="_top" xlink:title="js_async_generator\l_resume_next">
<polygon fill="none" stroke="#000000" points="446,-918 446,-948 547,-948 547,-918 446,-918"/>
<text text-anchor="start" x="454" y="-936" font-family="Helvetica,sans-Serif" font-size="10.00" fill="#000000">js_async_generator</text>
<text text-anchor="middle" x="496.5" y="-925" font-family="Helvetica,sans-Serif" font-size="10.00" fill="#000000">_resume_next</text>
</a>
</g>
</g>
<!-- Node208794&#45;&gt;Node208804 -->
<g id="edge5" class="edge">
<title>Node208794&#45;&gt;Node208804</title>
<path fill="none" stroke="#191970" d="M369.9372,-896.4125C393.0226,-903.0862 421.6309,-911.3564 445.805,-918.3448"/>
<polygon fill="#191970" stroke="#191970" points="370.6623,-892.9789 360.0837,-893.564 368.7183,-899.7036 370.6623,-892.9789"/>
</g>
<!-- Node208805 -->
<g id="node7" class="node">
<title>Node208805</title>
<g id="a_node7"><a xlink:href="quickjs_8c.html#ae19867da709929c072f05e90301835a4" target="_top" xlink:title="js_async_generator\l_function_call">
<polygon fill="none" stroke="#ff0000" points="446,-869 446,-899 547,-899 547,-869 446,-869"/>
<text text-anchor="start" x="454" y="-887" font-family="Helvetica,sans-Serif" font-size="10.00" fill="#000000">js_async_generator</text>
<text text-anchor="middle" x="496.5" y="-876" font-family="Helvetica,sans-Serif" font-size="10.00" fill="#000000">_function_call</text>
</a>
</g>
</g>
<!-- Node208794&#45;&gt;Node208805 -->
<g id="edge6" class="edge">
<title>Node208794&#45;&gt;Node208805</title>
<path fill="none" stroke="#191970" d="M389.388,-884C407.9885,-884 428.1368,-884 445.8866,-884"/>
<polygon fill="#191970" stroke="#191970" points="389.2387,-880.5001 379.2387,-884 389.2386,-887.5001 389.2387,-880.5001"/>
</g>
<!-- Node208806&#45;&gt;Node208793 -->
<g id="edge15" class="edge">
<title>Node208806&#45;&gt;Node208793</title>
<path fill="none" stroke="#191970" d="M291.4088,-384.5497C262.8289,-378.469 223.8374,-367.8129 201.095,-359.5924"/>
<polygon fill="#191970" stroke="#191970" points="290.923,-388.0222 301.4179,-386.57 292.3081,-381.1605 290.923,-388.0222"/>
</g>
<!-- Node208806&#45;&gt;Node208799 -->
<g id="edge16" class="edge">
<title>Node208806&#45;&gt;Node208799</title>
<path fill="none" stroke="#191970" d="M329.0847,-407.927C337.4965,-484.64 371.3319,-759.645 430,-821 433.6512,-824.8184 438.0118,-827.8855 442.73,-830.3468"/>
<polygon fill="#191970" stroke="#191970" points="332.5382,-407.3053 327.9903,-397.7362 325.5782,-408.0528 332.5382,-407.3053"/>
</g>
<!-- Node208807 -->
<g id="node9" class="node">
<title>Node208807</title>
<g id="a_node9"><a xlink:href="structqjs_1_1js__traits_3_01std_1_1function_3_01R_07Args_8_8_8_08_4_01_4.html#abc36cacd670b6b5f1773734a0586a02b" target="_top" xlink:title="qjs::js_traits\&lt; std\l::function\&lt; R(Args...)\l\&gt; \&gt;::unwrap">
<polygon fill="none" stroke="#000000" points="442,-392.5 442,-433.5 551,-433.5 551,-392.5 442,-392.5"/>
<text text-anchor="start" x="450" y="-421.5" font-family="Helvetica,sans-Serif" font-size="10.00" fill="#000000">qjs::js_traits&lt; std</text>
<text text-anchor="start" x="450" y="-410.5" font-family="Helvetica,sans-Serif" font-size="10.00" fill="#000000">::function&lt; R(Args...)</text>
<text text-anchor="middle" x="496.5" y="-399.5" font-family="Helvetica,sans-Serif" font-size="10.00" fill="#000000">&gt; &gt;::unwrap</text>
</a>
</g>
</g>
<!-- Node208806&#45;&gt;Node208807 -->
<g id="edge8" class="edge">
<title>Node208806&#45;&gt;Node208807</title>
<path fill="none" stroke="#191970" d="M362.7116,-393.2672C385.6128,-396.645 415.7972,-401.0969 441.6986,-404.9172"/>
<polygon fill="#191970" stroke="#191970" points="363.1471,-389.7936 352.7434,-391.797 362.1256,-396.7187 363.1471,-389.7936"/>
</g>
<!-- Node208808 -->
<g id="node10" class="node">
<title>Node208808</title>
<g id="a_node10"><a xlink:href="quickjs-libc_8c.html#abb1cbe3fdf905e81f603a3a0bfce475a" target="_top" xlink:title="call_handler">
<polygon fill="none" stroke="#ff0000" points="462.5,-354.5 462.5,-373.5 530.5,-373.5 530.5,-354.5 462.5,-354.5"/>
<text text-anchor="middle" x="496.5" y="-361.5" font-family="Helvetica,sans-Serif" font-size="10.00" fill="#000000">call_handler</text>
</a>
</g>
</g>
<!-- Node208806&#45;&gt;Node208808 -->
<g id="edge9" class="edge">
<title>Node208806&#45;&gt;Node208808</title>
<path fill="none" stroke="#191970" d="M362.9702,-382.9069C392.3013,-378.7538 433.4516,-372.9272 462.2948,-368.8432"/>
<polygon fill="#191970" stroke="#191970" points="362.1539,-379.4875 352.7434,-384.3549 363.1354,-386.4183 362.1539,-379.4875"/>
</g>
<!-- Node208813 -->
<g id="node11" class="node">
<title>Node208813</title>
<g id="a_node11"><a xlink:href="quickjs_8c.html#aa049793cc8648d35fe81876a2543ca4e" target="_top" xlink:title="JS_GetIterator2">
<polygon fill="none" stroke="#ff0000" points="453.5,-316.5 453.5,-335.5 539.5,-335.5 539.5,-316.5 453.5,-316.5"/>
<text text-anchor="middle" x="496.5" y="-323.5" font-family="Helvetica,sans-Serif" font-size="10.00" fill="#000000">JS_GetIterator2</text>
</a>
</g>
</g>
<!-- Node208806&#45;&gt;Node208813 -->
<g id="edge10" class="edge">
<title>Node208806&#45;&gt;Node208813</title>
<path fill="none" stroke="#191970" d="M362.3423,-376.395C372.6658,-372.723 383.8882,-368.4527 394,-364 410.5575,-356.709 413.2121,-351.7435 430,-345 438.9135,-341.4196 448.7502,-338.2214 458.0626,-335.5163"/>
<polygon fill="#191970" stroke="#191970" points="361.0809,-373.128 352.7855,-379.7188 363.3804,-379.7396 361.0809,-373.128"/>
</g>
<!-- Node208835 -->
<g id="node12" class="node">
<title>Node208835</title>
<g id="a_node12"><a xlink:href="quickjs_8c.html#ad6303fbd3add4afa0cb64b0aa6d431ce" target="_top" xlink:title="JS_IteratorNext2">
<polygon fill="none" stroke="#ff0000" points="451,-278.5 451,-297.5 542,-297.5 542,-278.5 451,-278.5"/>
<text text-anchor="middle" x="496.5" y="-285.5" font-family="Helvetica,sans-Serif" font-size="10.00" fill="#000000">JS_IteratorNext2</text>
</a>
</g>
</g>
<!-- Node208806&#45;&gt;Node208835 -->
<g id="edge11" class="edge">
<title>Node208806&#45;&gt;Node208835</title>
<path fill="none" stroke="#191970" d="M362.3224,-380.1664C373.2689,-376.5326 384.8475,-371.3368 394,-364 417.3787,-345.2593 406.0187,-324.9631 430,-307 436.1505,-302.393 443.3819,-298.902 450.7695,-296.257"/>
<polygon fill="#191970" stroke="#191970" points="361.1201,-376.8724 352.5349,-383.081 363.118,-383.5813 361.1201,-376.8724"/>
</g>
<!-- Node208839 -->
<g id="node13" class="node">
<title>Node208839</title>
<g id="a_node13"><a xlink:href="quickjs_8c.html#a62424fefab7bcc97f49c978205c7a1c1" target="_top" xlink:title="js_for_await_of_next">
<polygon fill="none" stroke="#000000" points="443,-792.5 443,-811.5 550,-811.5 550,-792.5 443,-792.5"/>
<text text-anchor="middle" x="496.5" y="-799.5" font-family="Helvetica,sans-Serif" font-size="10.00" fill="#000000">js_for_await_of_next</text>
</a>
</g>
</g>
<!-- Node208806&#45;&gt;Node208839 -->
<g id="edge12" class="edge">
<title>Node208806&#45;&gt;Node208839</title>
<path fill="none" stroke="#191970" d="M334.5257,-407.4189C348.0233,-442.8427 376.5623,-520.5268 394,-588 416.052,-673.3277 370.7352,-717.7712 430,-783 433.6334,-786.9991 438.0443,-790.1793 442.847,-792.705"/>
<polygon fill="#191970" stroke="#191970" points="337.7,-405.9215 330.8486,-397.8401 331.1649,-408.4303 337.7,-405.9215"/>
</g>
<!-- Node208840 -->
<g id="node14" class="node">
<title>Node208840</title>
<g id="a_node14"><a xlink:href="quickjs_8c.html#afd4ef2d701fa0702f321925b61c57bbf" target="_top" xlink:title="js_call_bound_function">
<polygon fill="none" stroke="#ff0000" points="438.5,-240.5 438.5,-259.5 554.5,-259.5 554.5,-240.5 438.5,-240.5"/>
<text text-anchor="middle" x="496.5" y="-247.5" font-family="Helvetica,sans-Serif" font-size="10.00" fill="#000000">js_call_bound_function</text>
</a>
</g>
</g>
<!-- Node208806&#45;&gt;Node208840 -->
<g id="edge14" class="edge">
<title>Node208806&#45;&gt;Node208840</title>
<path fill="none" stroke="#191970" d="M362.3781,-381.4933C373.6487,-377.9274 385.4083,-372.4362 394,-364 426.2175,-332.3654 396.7613,-299.5599 430,-269 434.2427,-265.0992 439.2323,-261.9932 444.5396,-259.5212"/>
<polygon fill="#191970" stroke="#191970" points="361.4055,-378.1308 352.6914,-384.157 363.2615,-384.8802 361.4055,-378.1308"/>
</g>
<!-- Node208841 -->
<g id="node15" class="node">
<title>Node208841</title>
<g id="a_node15"><a xlink:href="quickjs_8c.html#a3e852026d167fa03c673f86697dd3e67" target="_top" xlink:title="js_async_generator\l_resolve_or_reject">
<polygon fill="none" stroke="#ff0000" points="446,-191 446,-221 547,-221 547,-191 446,-191"/>
<text text-anchor="start" x="454" y="-209" font-family="Helvetica,sans-Serif" font-size="10.00" fill="#000000">js_async_generator</text>
<text text-anchor="middle" x="496.5" y="-198" font-family="Helvetica,sans-Serif" font-size="10.00" fill="#000000">_resolve_or_reject</text>
</a>
</g>
</g>
<!-- Node208806&#45;&gt;Node208841 -->
<g id="edge17" class="edge">
<title>Node208806&#45;&gt;Node208841</title>
<path fill="none" stroke="#191970" d="M362.5957,-382.049C373.9874,-378.5241 385.7665,-372.9166 394,-364 435.5441,-319.0088 388.8086,-276.3144 430,-231 434.48,-226.0715 440.029,-222.1099 445.9965,-218.9265"/>
<polygon fill="#191970" stroke="#191970" points="361.5576,-378.7031 352.7834,-384.6414 363.3457,-385.4709 361.5576,-378.7031"/>
</g>
<!-- Node208844 -->
<g id="node16" class="node">
<title>Node208844</title>
<g id="a_node16"><a xlink:href="quickjs_8c.html#a2355fabf91f59212ea65baba1b0b7c1b" target="_top" xlink:title="js_async_generator_next">
<polygon fill="none" stroke="#000000" points="434,-152.5 434,-171.5 559,-171.5 559,-152.5 434,-152.5"/>
<text text-anchor="middle" x="496.5" y="-159.5" font-family="Helvetica,sans-Serif" font-size="10.00" fill="#000000">js_async_generator_next</text>
</a>
</g>
</g>
<!-- Node208806&#45;&gt;Node208844 -->
<g id="edge18" class="edge">
<title>Node208806&#45;&gt;Node208844</title>
<path fill="none" stroke="#191970" d="M362.6823,-382.4491C374.1883,-378.957 386.0169,-373.268 394,-364 447.8136,-301.5251 374.5859,-243.0597 430,-182 433.9701,-177.6255 438.8566,-174.1929 444.1634,-171.5018"/>
<polygon fill="#191970" stroke="#191970" points="361.5797,-379.1184 352.7588,-384.9871 363.3142,-385.9001 361.5797,-379.1184"/>
</g>
<!-- Node208845 -->
<g id="node17" class="node">
<title>Node208845</title>
<g id="a_node17"><a xlink:href="quickjs_8c.html#a6357b7fdae71c70c140e78e6c20cb5c2" target="_top" xlink:title="js_dynamic_import_job">
<polygon fill="none" stroke="#ff0000" points="438.5,-114.5 438.5,-133.5 554.5,-133.5 554.5,-114.5 438.5,-114.5"/>
<text text-anchor="middle" x="496.5" y="-121.5" font-family="Helvetica,sans-Serif" font-size="10.00" fill="#000000">js_dynamic_import_job</text>
</a>
</g>
</g>
<!-- Node208806&#45;&gt;Node208845 -->
<g id="edge19" class="edge">
<title>Node208806&#45;&gt;Node208845</title>
<path fill="none" stroke="#191970" d="M362.5904,-382.681C374.1973,-379.21 386.1135,-373.475 394,-364 457.6643,-287.5117 363.859,-217.357 430,-143 433.4315,-139.1423 437.5864,-136.0444 442.1249,-133.5601"/>
<polygon fill="#191970" stroke="#191970" points="361.4306,-379.3632 352.579,-385.1855 363.1295,-386.1539 361.4306,-379.3632"/>
</g>
<!-- Node208847 -->
<g id="node18" class="node">
<title>Node208847</title>
<g id="a_node18"><a xlink:href="quickjs_8c.html#a8d4b24969540aff427939eeda47f451d" target="_top" xlink:title="js_function_apply">
<polygon fill="none" stroke="#ff0000" points="450.5,-76.5 450.5,-95.5 542.5,-95.5 542.5,-76.5 450.5,-76.5"/>
<text text-anchor="middle" x="496.5" y="-83.5" font-family="Helvetica,sans-Serif" font-size="10.00" fill="#000000">js_function_apply</text>
</a>
</g>
</g>
<!-- Node208806&#45;&gt;Node208847 -->
<g id="edge20" class="edge">
<title>Node208806&#45;&gt;Node208847</title>
<path fill="none" stroke="#191970" d="M362.7146,-382.7832C374.3331,-379.3217 386.2248,-373.5665 394,-364 467.2998,-273.813 353.7789,-192.7321 430,-105 435.3549,-98.8364 442.557,-94.6066 450.2472,-91.7183"/>
<polygon fill="#191970" stroke="#191970" points="361.5474,-379.4666 352.6852,-385.2729 363.2339,-386.2605 361.5474,-379.4666"/>
</g>
<!-- Node208850 -->
<g id="node19" class="node">
<title>Node208850</title>
<g id="a_node19"><a xlink:href="quickjs_8c.html#a677ad630a103e1f3d5129e0549112b50" target="_top" xlink:title="js_function_call">
<polygon fill="none" stroke="#000000" points="454.5,-754.5 454.5,-773.5 538.5,-773.5 538.5,-754.5 454.5,-754.5"/>
<text text-anchor="middle" x="496.5" y="-761.5" font-family="Helvetica,sans-Serif" font-size="10.00" fill="#000000">js_function_call</text>
</a>
</g>
</g>
<!-- Node208806&#45;&gt;Node208850 -->
<g id="edge22" class="edge">
<title>Node208806&#45;&gt;Node208850</title>
<path fill="none" stroke="#191970" d="M334.241,-407.4957C347.2837,-443.0423 375.1211,-520.9157 394,-588 413.3933,-656.9118 380.7356,-693.0582 430,-745 436.5276,-751.8824 445.3593,-756.3264 454.4513,-759.1816"/>
<polygon fill="#191970" stroke="#191970" points="337.4392,-406.0524 330.6945,-397.8817 330.8718,-408.4751 337.4392,-406.0524"/>
</g>
<!-- Node208816 -->
<g id="node20" class="node">
<title>Node208816</title>
<g id="a_node20"><a xlink:href="quickjs_8c.html#a5e32da9a43002cb96dcbd62a1a340144" target="_top" xlink:title="js_array_from">
<polygon fill="none" stroke="#000000" points="458.5,-716.5 458.5,-735.5 534.5,-735.5 534.5,-716.5 458.5,-716.5"/>
<text text-anchor="middle" x="496.5" y="-723.5" font-family="Helvetica,sans-Serif" font-size="10.00" fill="#000000">js_array_from</text>
</a>
</g>
</g>
<!-- Node208806&#45;&gt;Node208816 -->
<g id="edge23" class="edge">
<title>Node208806&#45;&gt;Node208816</title>
<path fill="none" stroke="#191970" d="M333.6153,-407.1229C345.8581,-442.6484 372.7386,-521.284 394,-588 410.7779,-640.6473 390.627,-668.2314 430,-707 437.6146,-714.4977 447.9722,-719.0786 458.2452,-721.8646"/>
<polygon fill="#191970" stroke="#191970" points="336.8797,-405.8532 330.3081,-397.5427 330.2629,-408.1374 336.8797,-405.8532"/>
</g>
<!-- Node208831 -->
<g id="node21" class="node">
<title>Node208831</title>
<g id="a_node21"><a xlink:href="quickjs_8c.html#aa0bbf08a7e91459c68a312fba7016c6d" target="_top" xlink:title="js_array_every">
<polygon fill="none" stroke="#000000" points="456.5,-678.5 456.5,-697.5 536.5,-697.5 536.5,-678.5 456.5,-678.5"/>
<text text-anchor="middle" x="496.5" y="-685.5" font-family="Helvetica,sans-Serif" font-size="10.00" fill="#000000">js_array_every</text>
</a>
</g>
</g>
<!-- Node208806&#45;&gt;Node208831 -->
<g id="edge24" class="edge">
<title>Node208806&#45;&gt;Node208831</title>
<path fill="none" stroke="#191970" d="M333.5433,-407.3208C354.5972,-469.2814 419.8129,-659.531 430,-669 437.2996,-675.785 446.8562,-680.1675 456.4389,-682.9923"/>
<polygon fill="#191970" stroke="#191970" points="336.7776,-405.9597 330.2501,-397.6145 330.1487,-408.2089 336.7776,-405.9597"/>
</g>
<!-- Node208851 -->
<g id="node22" class="node">
<title>Node208851</title>
<g id="a_node22"><a xlink:href="quickjs_8c.html#a36c1692489542a86dd79a7d39ab8ff95" target="_top" xlink:title="js_array_reduce">
<polygon fill="none" stroke="#000000" points="453.5,-640.5 453.5,-659.5 539.5,-659.5 539.5,-640.5 453.5,-640.5"/>
<text text-anchor="middle" x="496.5" y="-647.5" font-family="Helvetica,sans-Serif" font-size="10.00" fill="#000000">js_array_reduce</text>
</a>
</g>
</g>
<!-- Node208806&#45;&gt;Node208851 -->
<g id="edge25" class="edge">
<title>Node208806&#45;&gt;Node208851</title>
<path fill="none" stroke="#191970" d="M332.8036,-407.3014C348.7383,-459.1162 394.3498,-599.4734 430,-631 436.566,-636.8066 444.7947,-640.8465 453.204,-643.6553"/>
<polygon fill="#191970" stroke="#191970" points="336.129,-406.2066 329.868,-397.6597 329.4325,-408.2455 336.129,-406.2066"/>
</g>
<!-- Node208852 -->
<g id="node23" class="node">
<title>Node208852</title>
<g id="a_node23"><a xlink:href="quickjs_8c.html#a9dd41b086da4e13b3487cc9c6e2af2b8" target="_top" xlink:title="js_array_find">
<polygon fill="none" stroke="#000000" points="460.5,-602.5 460.5,-621.5 532.5,-621.5 532.5,-602.5 460.5,-602.5"/>
<text text-anchor="middle" x="496.5" y="-609.5" font-family="Helvetica,sans-Serif" font-size="10.00" fill="#000000">js_array_find</text>
</a>
</g>
</g>
<!-- Node208806&#45;&gt;Node208852 -->
<g id="edge26" class="edge">
<title>Node208806&#45;&gt;Node208852</title>
<path fill="none" stroke="#191970" d="M331.2704,-407.7068C341.1682,-448.587 369.5889,-542.9626 430,-593 438.5998,-600.123 449.7275,-604.5782 460.4115,-607.3639"/>
<polygon fill="#191970" stroke="#191970" points="334.6634,-406.8442 329.0048,-397.8871 327.8426,-408.418 334.6634,-406.8442"/>
</g>
<!-- Node208853 -->
<g id="node24" class="node">
<title>Node208853</title>
<g id="a_node24"><a xlink:href="quickjs_8c.html#ad90c33b4aae1181151bda4a98ac2ef23" target="_top" xlink:title="JS_FlattenIntoArray">
<polygon fill="none" stroke="#ff0000" points="444.5,-546.5 444.5,-565.5 548.5,-565.5 548.5,-546.5 444.5,-546.5"/>
<text text-anchor="middle" x="496.5" y="-553.5" font-family="Helvetica,sans-Serif" font-size="10.00" fill="#000000">JS_FlattenIntoArray</text>
</a>
</g>
</g>
<!-- Node208806&#45;&gt;Node208853 -->
<g id="edge27" class="edge">
<title>Node208806&#45;&gt;Node208853</title>
<path fill="none" stroke="#191970" d="M335.028,-407.2333C349.3239,-439.1074 382.2437,-502.7529 430,-537 435.3666,-540.8485 441.4968,-543.9204 447.8147,-546.3717"/>
<polygon fill="#191970" stroke="#191970" points="338.0942,-405.5072 330.8992,-397.7302 331.6739,-408.2967 338.0942,-405.5072"/>
</g>
<!-- Node208855 -->
<g id="node25" class="node">
<title>Node208855</title>
<g id="a_node25"><a xlink:href="quickjs_8c.html#aed1bf9ce4b9e3a82388679dd6ec7635b" target="_top" xlink:title="js_string_replace">
<polygon fill="none" stroke="#000000" points="451.5,-38.5 451.5,-57.5 541.5,-57.5 541.5,-38.5 451.5,-38.5"/>
<text text-anchor="middle" x="496.5" y="-45.5" font-family="Helvetica,sans-Serif" font-size="10.00" fill="#000000">js_string_replace</text>
</a>
</g>
</g>
<!-- Node208806&#45;&gt;Node208855 -->
<g id="edge29" class="edge">
<title>Node208806&#45;&gt;Node208855</title>
<path fill="none" stroke="#191970" d="M352.7835,-372.8288C367.3369,-362.8465 384.4685,-348.4185 394,-331 450.8458,-227.117 352.4507,-156.4942 430,-67 435.5828,-60.5573 443.1841,-56.2268 451.2547,-53.3324"/>
<polygon fill="#191970" stroke="#191970" points="350.6138,-370.065 344.1461,-378.4566 354.4353,-375.9299 350.6138,-370.065"/>
</g>
<!-- Node208856 -->
<g id="node26" class="node">
<title>Node208856</title>
<g id="a_node26"><a xlink:href="quickjs_8c.html#a624282391413d4c5a030adbd8b77aa80" target="_top" xlink:title="internalize_json_property">
<polygon fill="none" stroke="#ff0000" points="434,-490.5 434,-509.5 559,-509.5 559,-490.5 434,-490.5"/>
<text text-anchor="middle" x="496.5" y="-497.5" font-family="Helvetica,sans-Serif" font-size="10.00" fill="#000000">internalize_json_property</text>
</a>
</g>
</g>
<!-- Node208806&#45;&gt;Node208856 -->
<g id="edge30" class="edge">
<title>Node208806&#45;&gt;Node208856</title>
<path fill="none" stroke="#191970" d="M341.7694,-405.5222C360.3129,-426.4365 394.0752,-461.0764 430,-481 436.9303,-484.8435 444.7072,-487.968 452.4336,-490.4889"/>
<polygon fill="#191970" stroke="#191970" points="344.2051,-402.989 335.0056,-397.7336 338.9199,-407.5788 344.2051,-402.989"/>
</g>
<!-- Node208858 -->
<g id="node27" class="node">
<title>Node208858</title>
<g id="a_node27"><a xlink:href="quickjs_8c.html#a0da6493b4bc0edb7ddddfab807241d0b" target="_top" xlink:title="js_json_check">
<polygon fill="none" stroke="#ff0000" points="457,-.5 457,-19.5 536,-19.5 536,-.5 457,-.5"/>
<text text-anchor="middle" x="496.5" y="-7.5" font-family="Helvetica,sans-Serif" font-size="10.00" fill="#000000">js_json_check</text>
</a>
</g>
</g>
<!-- Node208806&#45;&gt;Node208858 -->
<g id="edge32" class="edge">
<title>Node208806&#45;&gt;Node208858</title>
<path fill="none" stroke="#191970" d="M352.8906,-372.8868C367.4819,-362.9251 384.6158,-348.4983 394,-331 457.8847,-211.8768 342.3449,-131.8989 430,-29 436.774,-21.0479 446.6242,-16.3064 456.6773,-13.5117"/>
<polygon fill="#191970" stroke="#191970" points="350.7158,-370.1253 344.226,-378.4999 354.5217,-376.0003 350.7158,-370.1253"/>
</g>
<!-- Node208862 -->
<g id="node28" class="node">
<title>Node208862</title>
<g id="a_node28"><a xlink:href="quickjs_8c.html#af97646b66d6fcb8bd19543d93baeadd7" target="_top" xlink:title="js_proxy_call_constructor">
<polygon fill="none" stroke="#ff0000" points="432.5,-452.5 432.5,-471.5 560.5,-471.5 560.5,-452.5 432.5,-452.5"/>
<text text-anchor="middle" x="496.5" y="-459.5" font-family="Helvetica,sans-Serif" font-size="10.00" fill="#000000">js_proxy_call_constructor</text>
</a>
</g>
</g>
<!-- Node208806&#45;&gt;Node208862 -->
<g id="edge33" class="edge">
<title>Node208806&#45;&gt;Node208862</title>
<path fill="none" stroke="#191970" d="M351.2006,-402.8192C371.6373,-414.8649 401.9699,-431.6618 430,-443 438.7935,-446.557 448.4925,-449.728 457.7008,-452.4125"/>
<polygon fill="#191970" stroke="#191970" points="352.9314,-399.7763 342.551,-397.6557 349.3434,-405.7868 352.9314,-399.7763"/>
</g>
<!-- Node208839&#45;&gt;Node208793 -->
<g id="edge13" class="edge">
<title>Node208839&#45;&gt;Node208793</title>
<path fill="none" stroke="#191970" d="M437.3504,-787.9188C434.7708,-786.4399 432.3033,-784.8058 430,-783 274.296,-660.927 199.3658,-411.8041 185.0642,-359.6903"/>
<polygon fill="#191970" stroke="#191970" points="435.9552,-791.1323 446.4772,-792.3721 439.0249,-784.8413 435.9552,-791.1323"/>
</g>
<!-- Node208847&#45;&gt;Node208793 -->
<g id="edge21" class="edge">
<title>Node208847&#45;&gt;Node208793</title>
<path fill="none" stroke="#191970" d="M440.9527,-96.201C436.8686,-98.572 433.131,-101.4676 430,-105 362.5344,-181.1149 468.3365,-261.5798 394,-331 348.3292,-373.6503 270.4173,-368.1517 222.9801,-359.5664"/>
<polygon fill="#191970" stroke="#191970" points="442.7723,-99.2138 450.3458,-91.8047 439.805,-92.8738 442.7723,-99.2138"/>
</g>
<!-- Node208853&#45;&gt;Node208853 -->
<g id="edge28" class="edge">
<title>Node208853&#45;&gt;Node208853</title>
<path fill="none" stroke="#191970" d="M465.0629,-574.2746C465.9592,-579.741 476.4382,-584 496.5,-584 526.3594,-584 534.9906,-574.5653 522.3937,-565.7571"/>
<polygon fill="#191970" stroke="#191970" points="468.085,-576.0475 470.6063,-565.7571 462.2181,-572.2291 468.085,-576.0475"/>
</g>
<!-- Node208856&#45;&gt;Node208856 -->
<g id="edge31" class="edge">
<title>Node208856&#45;&gt;Node208856</title>
<path fill="none" stroke="#191970" d="M465.0629,-518.2746C465.9592,-523.741 476.4382,-528 496.5,-528 526.3594,-528 534.9906,-518.5653 522.3937,-509.7571"/>
<polygon fill="#191970" stroke="#191970" points="468.085,-520.0475 470.6063,-509.7571 462.2181,-516.2291 468.085,-520.0475"/>
</g>
<!-- Node208880&#45;&gt;Node208793 -->
<g id="edge35" class="edge">
<title>Node208880&#45;&gt;Node208793</title>
<path fill="none" stroke="#191970" d="M302.6333,-286.6763C289.5753,-290.7533 273.4528,-295.4145 260,-302 238.3984,-312.5746 216.5771,-329.288 201.6182,-340.2863"/>
<polygon fill="#191970" stroke="#191970" points="303.9199,-289.9381 312.3391,-283.5063 301.7466,-283.284 303.9199,-289.9381"/>
</g>
<!-- Node208894&#45;&gt;Node208793 -->
<g id="edge37" class="edge">
<title>Node208894&#45;&gt;Node208793</title>
<path fill="none" stroke="#191970" d="M298.7961,-324.8979C277.5982,-331.8825 248.2201,-339.8432 224.2954,-345.1948"/>
<polygon fill="#191970" stroke="#191970" points="300.1689,-328.127 308.4855,-321.5632 297.8909,-321.508 300.1689,-328.127"/>
</g>
<!-- Node208894&#45;&gt;Node208855 -->
<g id="edge39" class="edge">
<title>Node208894&#45;&gt;Node208855</title>
<path fill="none" stroke="#191970" d="M372.4133,-306.6486C380.5737,-303.7571 388.2871,-299.4326 394,-293 461.5406,-216.9517 362.5344,-143.1149 430,-67 435.6547,-60.6203 443.288,-56.3179 451.3674,-53.4312"/>
<polygon fill="#191970" stroke="#191970" points="371.3708,-303.3063 362.7214,-309.425 373.2986,-310.0357 371.3708,-303.3063"/>
</g>
<!-- Node208894&#45;&gt;Node208858 -->
<g id="edge38" class="edge">
<title>Node208894&#45;&gt;Node208858</title>
<path fill="none" stroke="#191970" d="M372.5267,-306.7482C380.6784,-303.8491 388.3596,-299.4962 394,-293 471.6376,-203.5823 352.4507,-118.4942 430,-29 436.8409,-21.1054 446.7125,-16.3823 456.7647,-13.5868"/>
<polygon fill="#191970" stroke="#191970" points="371.4844,-303.4059 362.8353,-309.525 373.4125,-310.1351 371.4844,-303.4059"/>
</g>
</g>
</svg>
        <g id="navigator" transform="translate(0 0)" fill="#404254">
                <rect fill="#f2f5e9" fill-opacity="0.5" stroke="#606060" stroke-width=".5" x="0" y="0" width="60" height="60"/>
                <use id="zoomplus" xlink:href="#zoomPlus" x="17" y="9" onmousedown="handleZoom(evt,'in')"/>
                <use id="zoomminus" xlink:href="#zoomMin" x="42" y="9" onmousedown="handleZoom(evt,'out')"/>
                <use id="reset" xlink:href="#resetDef" x="30" y="36" onmousedown="handleReset()"/>
                <g id="arrowUp" xlink:href="#dirArrow" transform="translate(30 24)" onmousedown="handlePan(0,-1)">
                  <use xlink:href="#rim" fill="#404040">
                        <set attributeName="fill" to="#808080" begin="arrowUp.mouseover" end="arrowUp.mouseout"/>
                  </use>
                  <path fill="none" stroke="white" stroke-width="1.5" d="M0,-3.0v7 M-2.5,-0.5L0,-3.0L2.5,-0.5"/>
                </g>
                <g id="arrowRight" xlink:href="#dirArrow" transform="rotate(90) translate(36 -43)" onmousedown="handlePan(1,0)">
                  <use xlink:href="#rim" fill="#404040">
                        <set attributeName="fill" to="#808080" begin="arrowRight.mouseover" end="arrowRight.mouseout"/>
                  </use>
                  <path fill="none" stroke="white" stroke-width="1.5" d="M0,-3.0v7 M-2.5,-0.5L0,-3.0L2.5,-0.5"/>
                </g>
                <g id="arrowDown" xlink:href="#dirArrow" transform="rotate(180) translate(-30 -48)" onmousedown="handlePan(0,1)">
                  <use xlink:href="#rim" fill="#404040">
                        <set attributeName="fill" to="#808080" begin="arrowDown.mouseover" end="arrowDown.mouseout"/>
                  </use>
                  <path fill="none" stroke="white" stroke-width="1.5" d="M0,-3.0v7 M-2.5,-0.5L0,-3.0L2.5,-0.5"/>
                </g>
                <g id="arrowLeft" xlink:href="#dirArrow" transform="rotate(270) translate(-36 17)" onmousedown="handlePan(-1,0)">
                  <use xlink:href="#rim" fill="#404040">
                        <set attributeName="fill" to="#808080" begin="arrowLeft.mouseover" end="arrowLeft.mouseout"/>
                  </use>
                  <path fill="none" stroke="white" stroke-width="1.5" d="M0,-3.0v7 M-2.5,-0.5L0,-3.0L2.5,-0.5"/>
                </g>
        </g>
        <svg viewBox="0 0 15 15" width="100%" height="30px" preserveAspectRatio="xMaxYMin meet">
         <g id="arrow_out" transform="scale(0.3 0.3)">
          <a xlink:href="quickjs_8c_aa4c729f8538eb4637d69f8c64138cfee_icgraph_org.svg" target="_base">
           <rect id="button" ry="5" rx="5" y="6" x="6" height="38" width="38"
                fill="#f2f5e9" fill-opacity="0.5" stroke="#606060" stroke-width="1.0"/>
           <path id="arrow"
             d="M 11.500037,31.436501 C 11.940474,20.09759 22.043105,11.32322 32.158766,21.979434 L 37.068811,17.246167 C 37.068811,17.246167 37.088388,32 37.088388,32 L 22.160133,31.978069 C 22.160133,31.978069 26.997745,27.140456 26.997745,27.140456 C 18.528582,18.264221 13.291696,25.230495 11.500037,31.436501 z"
             style="fill:#404040;"/>
          </a>
         </g>
        </svg>
</svg>
