<?xml version="1.0" encoding="UTF-8" standalone="no"?>
<!DOCTYPE svg PUBLIC "-//W3C//DTD SVG 1.1//EN"
 "http://www.w3.org/Graphics/SVG/1.1/DTD/svg11.dtd">
<!-- Generated by graphviz version 2.40.1 (20161225.0304)
 -->
<!-- Title: js_for_of_start Pages: 1 -->
<svg width="545pt" height="996pt"
 viewBox="0.00 0.00 545.00 995.50" xmlns="http://www.w3.org/2000/svg" xmlns:xlink="http://www.w3.org/1999/xlink">
<g id="graph0" class="graph" transform="scale(1 1) rotate(0) translate(4 991.5)">
<title>js_for_of_start</title>
<!-- Node271507 -->
<g id="node1" class="node">
<title>Node271507</title>
<polygon fill="#bfbfbf" stroke="#000000" points="0,-381.5 0,-400.5 79,-400.5 79,-381.5 0,-381.5"/>
<text text-anchor="middle" x="39.5" y="-388.5" font-family="Helvetica,sans-Serif" font-size="10.00" fill="#000000">js_for_of_start</text>
</g>
<!-- Node271508 -->
<g id="node2" class="node">
<title>Node271508</title>
<g id="a_node2"><a xlink:href="quickjs_8c.html#a5e32da9a43002cb96dcbd62a1a340144" target="_top" xlink:title="js_array_from">
<polygon fill="none" stroke="#000000" points="432.5,-792.5 432.5,-811.5 508.5,-811.5 508.5,-792.5 432.5,-792.5"/>
<text text-anchor="middle" x="470.5" y="-799.5" font-family="Helvetica,sans-Serif" font-size="10.00" fill="#000000">js_array_from</text>
</a>
</g>
</g>
<!-- Node271507&#45;&gt;Node271508 -->
<g id="edge1" class="edge">
<title>Node271507&#45;&gt;Node271508</title>
<path fill="none" stroke="#191970" d="M50.9871,-409.2504C79.0758,-453.1244 154.7496,-566.8813 234,-648 301.4232,-717.0127 318.1876,-738.8993 404,-783 412.7571,-787.5004 422.7271,-791.0672 432.2345,-793.8367"/>
<polygon fill="#191970" stroke="#191970" points="53.7681,-407.1009 45.4497,-400.5393 47.8606,-410.8562 53.7681,-407.1009"/>
</g>
<!-- Node271509 -->
<g id="node3" class="node">
<title>Node271509</title>
<g id="a_node3"><a xlink:href="quickjs_8c.html#ac2894ff4edcdb4e6841bcce9c76081e3" target="_top" xlink:title="JS_CallInternal">
<polygon fill="none" stroke="#000000" points="115,-381.5 115,-400.5 198,-400.5 198,-381.5 115,-381.5"/>
<text text-anchor="middle" x="156.5" y="-388.5" font-family="Helvetica,sans-Serif" font-size="10.00" fill="#000000">JS_CallInternal</text>
</a>
</g>
</g>
<!-- Node271507&#45;&gt;Node271509 -->
<g id="edge2" class="edge">
<title>Node271507&#45;&gt;Node271509</title>
<path fill="none" stroke="#191970" d="M89.339,-391C97.8675,-391 106.6471,-391 114.931,-391"/>
<polygon fill="#191970" stroke="#191970" points="89.1109,-387.5001 79.1109,-391 89.1108,-394.5001 89.1109,-387.5001"/>
</g>
<!-- Node271552 -->
<g id="node28" class="node">
<title>Node271552</title>
<g id="a_node28"><a xlink:href="quickjs_8c.html#a5f46f50deddd4e3a23da24e8173db28e" target="_top" xlink:title="js_typed_array_from">
<polygon fill="none" stroke="#000000" points="418,-.5 418,-19.5 523,-19.5 523,-.5 418,-.5"/>
<text text-anchor="middle" x="470.5" y="-7.5" font-family="Helvetica,sans-Serif" font-size="10.00" fill="#000000">js_typed_array_from</text>
</a>
</g>
</g>
<!-- Node271507&#45;&gt;Node271552 -->
<g id="edge42" class="edge">
<title>Node271507&#45;&gt;Node271552</title>
<path fill="none" stroke="#191970" d="M47.135,-372.1178C68.7821,-320.8023 135.4383,-177.2622 234,-97 287.9388,-53.0758 366.1071,-30.1528 417.6001,-19.0876"/>
<polygon fill="#191970" stroke="#191970" points="43.9002,-370.7815 43.3062,-381.3596 50.3672,-373.4607 43.9002,-370.7815"/>
</g>
<!-- Node271509&#45;&gt;Node271509 -->
<g id="edge41" class="edge">
<title>Node271509&#45;&gt;Node271509</title>
<path fill="none" stroke="#191970" d="M135.0196,-410.4C136.4541,-415.3146 143.6143,-419 156.5,-419 177.1172,-419 183.0768,-409.5653 174.379,-400.7571"/>
<polygon fill="#191970" stroke="#191970" points="138.401,-411.3496 138.621,-400.7571 131.8434,-408.9004 138.401,-411.3496"/>
</g>
<!-- Node271510 -->
<g id="node4" class="node">
<title>Node271510</title>
<g id="a_node4"><a xlink:href="quickjs_8c.html#ade71a22dc56e7371392393df663b28b3" target="_top" xlink:title="async_func_resume">
<polygon fill="none" stroke="#000000" points="249,-874.5 249,-893.5 353,-893.5 353,-874.5 249,-874.5"/>
<text text-anchor="middle" x="301" y="-881.5" font-family="Helvetica,sans-Serif" font-size="10.00" fill="#000000">async_func_resume</text>
</a>
</g>
</g>
<!-- Node271509&#45;&gt;Node271510 -->
<g id="edge3" class="edge">
<title>Node271509&#45;&gt;Node271510</title>
<path fill="none" stroke="#191970" d="M162.2184,-410.5099C186.4696,-493.2492 280.3854,-813.6679 298.1067,-874.1287"/>
<polygon fill="#191970" stroke="#191970" points="165.5579,-409.4597 159.3864,-400.8479 158.8405,-411.4286 165.5579,-409.4597"/>
</g>
<!-- Node271522 -->
<g id="node9" class="node">
<title>Node271522</title>
<g id="a_node9"><a xlink:href="quickjs_8c.html#a1a4c02a29525d5cb2085dd8bca3af350" target="_top" xlink:title="JS_Call">
<polygon fill="none" stroke="#ff0000" points="275.5,-419.5 275.5,-438.5 326.5,-438.5 326.5,-419.5 275.5,-419.5"/>
<text text-anchor="middle" x="301" y="-426.5" font-family="Helvetica,sans-Serif" font-size="10.00" fill="#000000">JS_Call</text>
</a>
</g>
</g>
<!-- Node271509&#45;&gt;Node271522 -->
<g id="edge8" class="edge">
<title>Node271509&#45;&gt;Node271522</title>
<path fill="none" stroke="#191970" d="M208.3524,-398.1309C234.197,-404.291 263.8346,-412.6885 282.4855,-419.4368"/>
<polygon fill="#191970" stroke="#191970" points="208.8269,-394.6484 198.2954,-395.8052 207.2497,-401.4684 208.8269,-394.6484"/>
</g>
<!-- Node271594 -->
<g id="node29" class="node">
<title>Node271594</title>
<g id="a_node29"><a xlink:href="quickjs_8c.html#ad35594576a14c10812efaf958c99af8a" target="_top" xlink:title="JS_CallConstructorInternal">
<polygon fill="none" stroke="#ff0000" points="234,-381.5 234,-400.5 368,-400.5 368,-381.5 234,-381.5"/>
<text text-anchor="middle" x="301" y="-388.5" font-family="Helvetica,sans-Serif" font-size="10.00" fill="#000000">JS_CallConstructorInternal</text>
</a>
</g>
</g>
<!-- Node271509&#45;&gt;Node271594 -->
<g id="edge35" class="edge">
<title>Node271509&#45;&gt;Node271594</title>
<path fill="none" stroke="#191970" d="M208.5209,-384.4909C216.7845,-384.2892 225.4321,-384.2142 233.9815,-384.2658"/>
<polygon fill="#191970" stroke="#191970" points="208.1798,-380.9998 198.2954,-384.814 208.401,-387.9963 208.1798,-380.9998"/>
</g>
<!-- Node271608 -->
<g id="node30" class="node">
<title>Node271608</title>
<g id="a_node30"><a xlink:href="quickjs_8c.html#a75f6ee5e4235a7dc99889f3d2eb2c147" target="_top" xlink:title="JS_CallFree">
<polygon fill="none" stroke="#ff0000" points="265.5,-312.5 265.5,-331.5 336.5,-331.5 336.5,-312.5 265.5,-312.5"/>
<text text-anchor="middle" x="301" y="-319.5" font-family="Helvetica,sans-Serif" font-size="10.00" fill="#000000">JS_CallFree</text>
</a>
</g>
</g>
<!-- Node271509&#45;&gt;Node271608 -->
<g id="edge37" class="edge">
<title>Node271509&#45;&gt;Node271608</title>
<path fill="none" stroke="#191970" d="M176.9574,-376.353C200.9266,-362.7321 240.9287,-343.3518 269.0106,-331.5598"/>
<polygon fill="#191970" stroke="#191970" points="175.1623,-373.3483 168.325,-381.4416 178.7171,-379.3785 175.1623,-373.3483"/>
</g>
<!-- Node271511 -->
<g id="node5" class="node">
<title>Node271511</title>
<g id="a_node5"><a xlink:href="quickjs_8c.html#ac90552b1f1659acb3dae9a4c62479a30" target="_top" xlink:title="js_generator_function_call">
<polygon fill="none" stroke="#ff0000" points="405.5,-918.5 405.5,-937.5 535.5,-937.5 535.5,-918.5 405.5,-918.5"/>
<text text-anchor="middle" x="470.5" y="-925.5" font-family="Helvetica,sans-Serif" font-size="10.00" fill="#000000">js_generator_function_call</text>
</a>
</g>
</g>
<!-- Node271510&#45;&gt;Node271511 -->
<g id="edge4" class="edge">
<title>Node271510&#45;&gt;Node271511</title>
<path fill="none" stroke="#191970" d="M347.4651,-896.0617C374.6496,-903.1185 408.4877,-911.9024 433.7928,-918.4713"/>
<polygon fill="#191970" stroke="#191970" points="348.3376,-892.6723 337.779,-893.5473 346.5787,-899.4477 348.3376,-892.6723"/>
</g>
<!-- Node271515 -->
<g id="node6" class="node">
<title>Node271515</title>
<g id="a_node6"><a xlink:href="quickjs_8c.html#a1bf6b62983e8fff99c0a5d5a9f486115" target="_top" xlink:title="js_async_function_resume">
<polygon fill="none" stroke="#ff0000" points="404,-830.5 404,-849.5 537,-849.5 537,-830.5 404,-830.5"/>
<text text-anchor="middle" x="470.5" y="-837.5" font-family="Helvetica,sans-Serif" font-size="10.00" fill="#000000">js_async_function_resume</text>
</a>
</g>
</g>
<!-- Node271510&#45;&gt;Node271515 -->
<g id="edge5" class="edge">
<title>Node271510&#45;&gt;Node271515</title>
<path fill="none" stroke="#191970" d="M347.4651,-871.9383C374.6496,-864.8815 408.4877,-856.0976 433.7928,-849.5287"/>
<polygon fill="#191970" stroke="#191970" points="346.5787,-868.5523 337.779,-874.4527 348.3376,-875.3277 346.5787,-868.5523"/>
</g>
<!-- Node271520 -->
<g id="node7" class="node">
<title>Node271520</title>
<g id="a_node7"><a xlink:href="quickjs_8c.html#a89b019c704a2d2914bc30b30a72040b3" target="_top" xlink:title="js_async_generator\l_resume_next">
<polygon fill="none" stroke="#000000" points="420,-869 420,-899 521,-899 521,-869 420,-869"/>
<text text-anchor="start" x="428" y="-887" font-family="Helvetica,sans-Serif" font-size="10.00" fill="#000000">js_async_generator</text>
<text text-anchor="middle" x="470.5" y="-876" font-family="Helvetica,sans-Serif" font-size="10.00" fill="#000000">_resume_next</text>
</a>
</g>
</g>
<!-- Node271510&#45;&gt;Node271520 -->
<g id="edge6" class="edge">
<title>Node271510&#45;&gt;Node271520</title>
<path fill="none" stroke="#191970" d="M363.388,-884C381.9885,-884 402.1368,-884 419.8866,-884"/>
<polygon fill="#191970" stroke="#191970" points="363.2387,-880.5001 353.2387,-884 363.2386,-887.5001 363.2387,-880.5001"/>
</g>
<!-- Node271521 -->
<g id="node8" class="node">
<title>Node271521</title>
<g id="a_node8"><a xlink:href="quickjs_8c.html#ae19867da709929c072f05e90301835a4" target="_top" xlink:title="js_async_generator\l_function_call">
<polygon fill="none" stroke="#ff0000" points="420,-957 420,-987 521,-987 521,-957 420,-957"/>
<text text-anchor="start" x="428" y="-975" font-family="Helvetica,sans-Serif" font-size="10.00" fill="#000000">js_async_generator</text>
<text text-anchor="middle" x="470.5" y="-964" font-family="Helvetica,sans-Serif" font-size="10.00" fill="#000000">_function_call</text>
</a>
</g>
</g>
<!-- Node271510&#45;&gt;Node271521 -->
<g id="edge7" class="edge">
<title>Node271510&#45;&gt;Node271521</title>
<path fill="none" stroke="#191970" d="M323.1366,-899.2394C343.5367,-912.8664 374.9583,-932.818 404,-947 411.204,-950.518 419.0369,-953.8612 426.7149,-956.8915"/>
<polygon fill="#191970" stroke="#191970" points="325.0943,-896.3381 314.8476,-893.6445 321.178,-902.1401 325.0943,-896.3381"/>
</g>
<!-- Node271522&#45;&gt;Node271508 -->
<g id="edge24" class="edge">
<title>Node271522&#45;&gt;Node271508</title>
<path fill="none" stroke="#191970" d="M304.1687,-448.6519C315.3593,-515.7364 355.0003,-734.2371 404,-783 411.5747,-790.5381 421.9201,-795.1312 432.1942,-797.9161"/>
<polygon fill="#191970" stroke="#191970" points="307.5909,-447.8918 302.5159,-438.5915 300.6835,-449.0267 307.5909,-447.8918"/>
</g>
<!-- Node271522&#45;&gt;Node271509 -->
<g id="edge16" class="edge">
<title>Node271522&#45;&gt;Node271509</title>
<path fill="none" stroke="#191970" d="M265.4088,-425.5497C236.8289,-419.469 197.8374,-408.8129 175.095,-400.5924"/>
<polygon fill="#191970" stroke="#191970" points="264.923,-429.0222 275.4179,-427.57 266.3081,-422.1605 264.923,-429.0222"/>
</g>
<!-- Node271522&#45;&gt;Node271515 -->
<g id="edge17" class="edge">
<title>Node271522&#45;&gt;Node271515</title>
<path fill="none" stroke="#191970" d="M303.6056,-448.8519C313.4245,-520.7566 350.3798,-766.2224 404,-821 407.7796,-824.8612 412.2853,-827.9521 417.1449,-830.424"/>
<polygon fill="#191970" stroke="#191970" points="307.0182,-447.9656 302.2199,-438.5196 300.0803,-448.8961 307.0182,-447.9656"/>
</g>
<!-- Node271523 -->
<g id="node10" class="node">
<title>Node271523</title>
<g id="a_node10"><a xlink:href="structqjs_1_1js__traits_3_01std_1_1function_3_01R_07Args_8_8_8_08_4_01_4.html#abc36cacd670b6b5f1773734a0586a02b" target="_top" xlink:title="qjs::js_traits\&lt; std\l::function\&lt; R(Args...)\l\&gt; \&gt;::unwrap">
<polygon fill="none" stroke="#000000" points="416,-190.5 416,-231.5 525,-231.5 525,-190.5 416,-190.5"/>
<text text-anchor="start" x="424" y="-219.5" font-family="Helvetica,sans-Serif" font-size="10.00" fill="#000000">qjs::js_traits&lt; std</text>
<text text-anchor="start" x="424" y="-208.5" font-family="Helvetica,sans-Serif" font-size="10.00" fill="#000000">::function&lt; R(Args...)</text>
<text text-anchor="middle" x="470.5" y="-197.5" font-family="Helvetica,sans-Serif" font-size="10.00" fill="#000000">&gt; &gt;::unwrap</text>
</a>
</g>
</g>
<!-- Node271522&#45;&gt;Node271523 -->
<g id="edge9" class="edge">
<title>Node271522&#45;&gt;Node271523</title>
<path fill="none" stroke="#191970" d="M336.4623,-426.1888C347.9492,-423.562 359.822,-418.7403 368,-410 420.4695,-353.9229 355.804,-300.7899 404,-241 407.3384,-236.8585 411.3714,-233.2684 415.7812,-230.1603"/>
<polygon fill="#191970" stroke="#191970" points="335.7885,-422.7538 326.5698,-427.9755 337.0327,-429.6424 335.7885,-422.7538"/>
</g>
<!-- Node271524 -->
<g id="node11" class="node">
<title>Node271524</title>
<g id="a_node11"><a xlink:href="quickjs-libc_8c.html#abb1cbe3fdf905e81f603a3a0bfce475a" target="_top" xlink:title="call_handler">
<polygon fill="none" stroke="#ff0000" points="436.5,-152.5 436.5,-171.5 504.5,-171.5 504.5,-152.5 436.5,-152.5"/>
<text text-anchor="middle" x="470.5" y="-159.5" font-family="Helvetica,sans-Serif" font-size="10.00" fill="#000000">call_handler</text>
</a>
</g>
</g>
<!-- Node271522&#45;&gt;Node271524 -->
<g id="edge10" class="edge">
<title>Node271522&#45;&gt;Node271524</title>
<path fill="none" stroke="#191970" d="M336.7317,-426.4341C348.242,-423.8287 360.0607,-418.9577 368,-410 436.3367,-332.8974 335.7394,-258.17 404,-181 412.1939,-171.7366 424.5594,-166.8516 436.4131,-164.3213"/>
<polygon fill="#191970" stroke="#191970" points="336.041,-423.0018 326.8013,-428.1863 337.2573,-429.8954 336.041,-423.0018"/>
</g>
<!-- Node271529 -->
<g id="node12" class="node">
<title>Node271529</title>
<g id="a_node12"><a xlink:href="quickjs_8c.html#aa049793cc8648d35fe81876a2543ca4e" target="_top" xlink:title="JS_GetIterator2">
<polygon fill="none" stroke="#ff0000" points="427.5,-716.5 427.5,-735.5 513.5,-735.5 513.5,-716.5 427.5,-716.5"/>
<text text-anchor="middle" x="470.5" y="-723.5" font-family="Helvetica,sans-Serif" font-size="10.00" fill="#000000">JS_GetIterator2</text>
</a>
</g>
</g>
<!-- Node271522&#45;&gt;Node271529 -->
<g id="edge11" class="edge">
<title>Node271522&#45;&gt;Node271529</title>
<path fill="none" stroke="#191970" d="M308.6872,-448.1195C321.4069,-479.9141 347.4662,-545.7292 368,-602 384.9115,-648.3441 368.221,-673.0347 404,-707 410.444,-713.1174 418.7192,-717.2857 427.2283,-720.1207"/>
<polygon fill="#191970" stroke="#191970" points="311.8824,-446.6834 304.9123,-438.7042 305.3851,-449.2884 311.8824,-446.6834"/>
</g>
<!-- Node271548 -->
<g id="node13" class="node">
<title>Node271548</title>
<g id="a_node13"><a xlink:href="quickjs_8c.html#ad6303fbd3add4afa0cb64b0aa6d431ce" target="_top" xlink:title="JS_IteratorNext2">
<polygon fill="none" stroke="#ff0000" points="425,-678.5 425,-697.5 516,-697.5 516,-678.5 425,-678.5"/>
<text text-anchor="middle" x="470.5" y="-685.5" font-family="Helvetica,sans-Serif" font-size="10.00" fill="#000000">JS_IteratorNext2</text>
</a>
</g>
</g>
<!-- Node271522&#45;&gt;Node271548 -->
<g id="edge12" class="edge">
<title>Node271522&#45;&gt;Node271548</title>
<path fill="none" stroke="#191970" d="M308.0511,-447.9387C328.269,-501.8482 386.1328,-653.2706 404,-669 409.9482,-674.2364 417.2494,-678.0357 424.8106,-680.7908"/>
<polygon fill="#191970" stroke="#191970" points="311.3125,-446.6674 304.5324,-438.526 304.7556,-449.1185 311.3125,-446.6674"/>
</g>
<!-- Node271553 -->
<g id="node14" class="node">
<title>Node271553</title>
<g id="a_node14"><a xlink:href="quickjs_8c.html#a62424fefab7bcc97f49c978205c7a1c1" target="_top" xlink:title="js_for_await_of_next">
<polygon fill="none" stroke="#000000" points="417,-38.5 417,-57.5 524,-57.5 524,-38.5 417,-38.5"/>
<text text-anchor="middle" x="470.5" y="-45.5" font-family="Helvetica,sans-Serif" font-size="10.00" fill="#000000">js_for_await_of_next</text>
</a>
</g>
</g>
<!-- Node271522&#45;&gt;Node271553 -->
<g id="edge13" class="edge">
<title>Node271522&#45;&gt;Node271553</title>
<path fill="none" stroke="#191970" d="M336.7239,-426.721C348.3432,-424.1517 360.2331,-419.2302 368,-410 466.6907,-292.7164 305.425,-184.3809 404,-67 407.552,-62.7704 411.9746,-59.4473 416.8403,-56.8415"/>
<polygon fill="#191970" stroke="#191970" points="335.9669,-423.2993 326.6931,-428.4225 337.1376,-430.2007 335.9669,-423.2993"/>
</g>
<!-- Node271554 -->
<g id="node15" class="node">
<title>Node271554</title>
<g id="a_node15"><a xlink:href="quickjs_8c.html#afd4ef2d701fa0702f321925b61c57bbf" target="_top" xlink:title="js_call_bound_function">
<polygon fill="none" stroke="#ff0000" points="412.5,-640.5 412.5,-659.5 528.5,-659.5 528.5,-640.5 412.5,-640.5"/>
<text text-anchor="middle" x="470.5" y="-647.5" font-family="Helvetica,sans-Serif" font-size="10.00" fill="#000000">js_call_bound_function</text>
</a>
</g>
</g>
<!-- Node271522&#45;&gt;Node271554 -->
<g id="edge15" class="edge">
<title>Node271522&#45;&gt;Node271554</title>
<path fill="none" stroke="#191970" d="M305.4242,-448.6815C315.5484,-489.1102 344.2747,-581.829 404,-631 408.7276,-634.8922 414.2108,-637.9876 419.9609,-640.4493"/>
<polygon fill="#191970" stroke="#191970" points="308.7784,-447.6586 303.0517,-438.7448 301.9698,-449.2843 308.7784,-447.6586"/>
</g>
<!-- Node271555 -->
<g id="node16" class="node">
<title>Node271555</title>
<g id="a_node16"><a xlink:href="quickjs_8c.html#a3e852026d167fa03c673f86697dd3e67" target="_top" xlink:title="js_async_generator\l_resolve_or_reject">
<polygon fill="none" stroke="#ff0000" points="420,-591 420,-621 521,-621 521,-591 420,-591"/>
<text text-anchor="start" x="428" y="-609" font-family="Helvetica,sans-Serif" font-size="10.00" fill="#000000">js_async_generator</text>
<text text-anchor="middle" x="470.5" y="-598" font-family="Helvetica,sans-Serif" font-size="10.00" fill="#000000">_resolve_or_reject</text>
</a>
</g>
</g>
<!-- Node271522&#45;&gt;Node271555 -->
<g id="edge18" class="edge">
<title>Node271522&#45;&gt;Node271555</title>
<path fill="none" stroke="#191970" d="M309.2399,-448.1973C323.8471,-480.0915 357.2124,-544.1286 404,-581 408.8437,-584.8171 414.3321,-588.0969 420.0286,-590.9035"/>
<polygon fill="#191970" stroke="#191970" points="312.2764,-446.4121 305.0129,-438.699 305.8811,-449.2582 312.2764,-446.4121"/>
</g>
<!-- Node271558 -->
<g id="node17" class="node">
<title>Node271558</title>
<g id="a_node17"><a xlink:href="quickjs_8c.html#a2355fabf91f59212ea65baba1b0b7c1b" target="_top" xlink:title="js_async_generator_next">
<polygon fill="none" stroke="#000000" points="408,-552.5 408,-571.5 533,-571.5 533,-552.5 408,-552.5"/>
<text text-anchor="middle" x="470.5" y="-559.5" font-family="Helvetica,sans-Serif" font-size="10.00" fill="#000000">js_async_generator_next</text>
</a>
</g>
</g>
<!-- Node271522&#45;&gt;Node271558 -->
<g id="edge19" class="edge">
<title>Node271522&#45;&gt;Node271558</title>
<path fill="none" stroke="#191970" d="M312.57,-447.21C329.559,-472.4691 363.65,-517.8612 404,-543 410.2166,-546.873 417.2463,-549.9791 424.3487,-552.4638"/>
<polygon fill="#191970" stroke="#191970" points="315.3317,-445.0391 306.9187,-438.5992 309.4795,-448.8799 315.3317,-445.0391"/>
</g>
<!-- Node271559 -->
<g id="node18" class="node">
<title>Node271559</title>
<g id="a_node18"><a xlink:href="quickjs_8c.html#a6357b7fdae71c70c140e78e6c20cb5c2" target="_top" xlink:title="js_dynamic_import_job">
<polygon fill="none" stroke="#ff0000" points="412.5,-514.5 412.5,-533.5 528.5,-533.5 528.5,-514.5 412.5,-514.5"/>
<text text-anchor="middle" x="470.5" y="-521.5" font-family="Helvetica,sans-Serif" font-size="10.00" fill="#000000">js_dynamic_import_job</text>
</a>
</g>
</g>
<!-- Node271522&#45;&gt;Node271559 -->
<g id="edge20" class="edge">
<title>Node271522&#45;&gt;Node271559</title>
<path fill="none" stroke="#191970" d="M318.8088,-445.278C338.3728,-462.3727 371.3692,-488.9551 404,-505 411.6502,-508.7617 420.1721,-511.8983 428.4937,-514.4672"/>
<polygon fill="#191970" stroke="#191970" points="321.0859,-442.6192 311.2868,-438.5909 316.435,-447.8508 321.0859,-442.6192"/>
</g>
<!-- Node271561 -->
<g id="node19" class="node">
<title>Node271561</title>
<g id="a_node19"><a xlink:href="quickjs_8c.html#a8d4b24969540aff427939eeda47f451d" target="_top" xlink:title="js_function_apply">
<polygon fill="none" stroke="#ff0000" points="424.5,-754.5 424.5,-773.5 516.5,-773.5 516.5,-754.5 424.5,-754.5"/>
<text text-anchor="middle" x="470.5" y="-761.5" font-family="Helvetica,sans-Serif" font-size="10.00" fill="#000000">js_function_apply</text>
</a>
</g>
</g>
<!-- Node271522&#45;&gt;Node271561 -->
<g id="edge21" class="edge">
<title>Node271522&#45;&gt;Node271561</title>
<path fill="none" stroke="#191970" d="M309.2195,-447.9378C322.7042,-479.4712 349.8376,-544.9196 368,-602 387.872,-664.4533 358.397,-697.9291 404,-745 409.5977,-750.7779 416.8204,-754.8329 424.4341,-757.671"/>
<polygon fill="#191970" stroke="#191970" points="312.3709,-446.4066 305.2024,-438.6051 305.9413,-449.1742 312.3709,-446.4066"/>
</g>
<!-- Node271564 -->
<g id="node20" class="node">
<title>Node271564</title>
<g id="a_node20"><a xlink:href="quickjs_8c.html#a677ad630a103e1f3d5129e0549112b50" target="_top" xlink:title="js_function_call">
<polygon fill="none" stroke="#000000" points="428.5,-476.5 428.5,-495.5 512.5,-495.5 512.5,-476.5 428.5,-476.5"/>
<text text-anchor="middle" x="470.5" y="-483.5" font-family="Helvetica,sans-Serif" font-size="10.00" fill="#000000">js_function_call</text>
</a>
</g>
</g>
<!-- Node271522&#45;&gt;Node271564 -->
<g id="edge23" class="edge">
<title>Node271522&#45;&gt;Node271564</title>
<path fill="none" stroke="#191970" d="M334.9579,-442.2589C354.9312,-449.8737 380.752,-459.4023 404,-467 414.0435,-470.2823 425.04,-473.5532 435.1476,-476.4326"/>
<polygon fill="#191970" stroke="#191970" points="335.9659,-438.8969 325.3758,-438.5817 333.4579,-445.4322 335.9659,-438.8969"/>
</g>
<!-- Node271534 -->
<g id="node21" class="node">
<title>Node271534</title>
<g id="a_node21"><a xlink:href="quickjs_8c.html#aa0bbf08a7e91459c68a312fba7016c6d" target="_top" xlink:title="js_array_every">
<polygon fill="none" stroke="#000000" points="430.5,-438.5 430.5,-457.5 510.5,-457.5 510.5,-438.5 430.5,-438.5"/>
<text text-anchor="middle" x="470.5" y="-445.5" font-family="Helvetica,sans-Serif" font-size="10.00" fill="#000000">js_array_every</text>
</a>
</g>
</g>
<!-- Node271522&#45;&gt;Node271534 -->
<g id="edge25" class="edge">
<title>Node271522&#45;&gt;Node271534</title>
<path fill="none" stroke="#191970" d="M336.6835,-432.9999C364.0578,-436.0684 401.8501,-440.3047 430.2923,-443.4929"/>
<polygon fill="#191970" stroke="#191970" points="337.0711,-429.5215 326.7434,-431.8857 336.2912,-436.478 337.0711,-429.5215"/>
</g>
<!-- Node271565 -->
<g id="node22" class="node">
<title>Node271565</title>
<g id="a_node22"><a xlink:href="quickjs_8c.html#a36c1692489542a86dd79a7d39ab8ff95" target="_top" xlink:title="js_array_reduce">
<polygon fill="none" stroke="#000000" points="427.5,-400.5 427.5,-419.5 513.5,-419.5 513.5,-400.5 427.5,-400.5"/>
<text text-anchor="middle" x="470.5" y="-407.5" font-family="Helvetica,sans-Serif" font-size="10.00" fill="#000000">js_array_reduce</text>
</a>
</g>
</g>
<!-- Node271522&#45;&gt;Node271565 -->
<g id="edge26" class="edge">
<title>Node271522&#45;&gt;Node271565</title>
<path fill="none" stroke="#191970" d="M336.7164,-424.9964C363.1523,-422.0331 399.2909,-417.9821 427.3443,-414.8375"/>
<polygon fill="#191970" stroke="#191970" points="336.2912,-421.522 326.7434,-426.1143 337.0711,-428.4785 336.2912,-421.522"/>
</g>
<!-- Node271566 -->
<g id="node23" class="node">
<title>Node271566</title>
<g id="a_node23"><a xlink:href="quickjs_8c.html#a9dd41b086da4e13b3487cc9c6e2af2b8" target="_top" xlink:title="js_array_find">
<polygon fill="none" stroke="#000000" points="434.5,-362.5 434.5,-381.5 506.5,-381.5 506.5,-362.5 434.5,-362.5"/>
<text text-anchor="middle" x="470.5" y="-369.5" font-family="Helvetica,sans-Serif" font-size="10.00" fill="#000000">js_array_find</text>
</a>
</g>
</g>
<!-- Node271522&#45;&gt;Node271566 -->
<g id="edge27" class="edge">
<title>Node271522&#45;&gt;Node271566</title>
<path fill="none" stroke="#191970" d="M336.4974,-420.4249C346.8067,-417.5363 357.9828,-414.0123 368,-410 384.7945,-403.2731 387.2121,-397.7435 404,-391 413.6934,-387.1063 424.4787,-383.6647 434.4941,-380.8176"/>
<polygon fill="#191970" stroke="#191970" points="335.3018,-417.1219 326.552,-423.0961 337.1176,-423.8823 335.3018,-417.1219"/>
</g>
<!-- Node271567 -->
<g id="node24" class="node">
<title>Node271567</title>
<g id="a_node24"><a xlink:href="quickjs_8c.html#ad90c33b4aae1181151bda4a98ac2ef23" target="_top" xlink:title="JS_FlattenIntoArray">
<polygon fill="none" stroke="#ff0000" points="418.5,-306.5 418.5,-325.5 522.5,-325.5 522.5,-306.5 418.5,-306.5"/>
<text text-anchor="middle" x="470.5" y="-313.5" font-family="Helvetica,sans-Serif" font-size="10.00" fill="#000000">JS_FlattenIntoArray</text>
</a>
</g>
</g>
<!-- Node271522&#45;&gt;Node271567 -->
<g id="edge28" class="edge">
<title>Node271522&#45;&gt;Node271567</title>
<path fill="none" stroke="#191970" d="M336.8711,-423.9076C347.6377,-421.1002 358.9734,-416.7475 368,-410 391.999,-392.0606 382.2325,-373.5901 404,-353 416.3816,-341.2881 433.1707,-331.9845 446.7813,-325.636"/>
<polygon fill="#191970" stroke="#191970" points="335.8133,-420.5576 326.8168,-426.1534 337.3393,-427.3892 335.8133,-420.5576"/>
</g>
<!-- Node271569 -->
<g id="node25" class="node">
<title>Node271569</title>
<g id="a_node25"><a xlink:href="quickjs_8c.html#aed1bf9ce4b9e3a82388679dd6ec7635b" target="_top" xlink:title="js_string_replace">
<polygon fill="none" stroke="#000000" points="425.5,-76.5 425.5,-95.5 515.5,-95.5 515.5,-76.5 425.5,-76.5"/>
<text text-anchor="middle" x="470.5" y="-83.5" font-family="Helvetica,sans-Serif" font-size="10.00" fill="#000000">js_string_replace</text>
</a>
</g>
</g>
<!-- Node271522&#45;&gt;Node271569 -->
<g id="edge30" class="edge">
<title>Node271522&#45;&gt;Node271569</title>
<path fill="none" stroke="#191970" d="M336.6575,-426.6647C348.2706,-424.0902 360.1736,-419.1798 368,-410 456.5561,-306.1293 315.5464,-208.958 404,-105 409.5245,-98.5072 417.0998,-94.1544 425.1633,-91.254"/>
<polygon fill="#191970" stroke="#191970" points="335.9052,-423.2424 326.6363,-428.3744 337.0826,-430.1427 335.9052,-423.2424"/>
</g>
<!-- Node271570 -->
<g id="node26" class="node">
<title>Node271570</title>
<g id="a_node26"><a xlink:href="quickjs_8c.html#a624282391413d4c5a030adbd8b77aa80" target="_top" xlink:title="internalize_json_property">
<polygon fill="none" stroke="#ff0000" points="408,-250.5 408,-269.5 533,-269.5 533,-250.5 408,-250.5"/>
<text text-anchor="middle" x="470.5" y="-257.5" font-family="Helvetica,sans-Serif" font-size="10.00" fill="#000000">internalize_json_property</text>
</a>
</g>
</g>
<!-- Node271522&#45;&gt;Node271570 -->
<g id="edge31" class="edge">
<title>Node271522&#45;&gt;Node271570</title>
<path fill="none" stroke="#191970" d="M336.8667,-425.5137C348.0432,-422.8109 359.6213,-418.1141 368,-410 405.8643,-373.3317 370.6221,-337.7944 404,-297 414.2069,-284.5251 429.7883,-275.5372 443.3035,-269.546"/>
<polygon fill="#191970" stroke="#191970" points="335.9625,-422.1241 326.8189,-427.4762 337.3044,-428.9943 335.9625,-422.1241"/>
</g>
<!-- Node271572 -->
<g id="node27" class="node">
<title>Node271572</title>
<g id="a_node27"><a xlink:href="quickjs_8c.html#a0da6493b4bc0edb7ddddfab807241d0b" target="_top" xlink:title="js_json_check">
<polygon fill="none" stroke="#ff0000" points="431,-114.5 431,-133.5 510,-133.5 510,-114.5 431,-114.5"/>
<text text-anchor="middle" x="470.5" y="-121.5" font-family="Helvetica,sans-Serif" font-size="10.00" fill="#000000">js_json_check</text>
</a>
</g>
</g>
<!-- Node271522&#45;&gt;Node271572 -->
<g id="edge33" class="edge">
<title>Node271522&#45;&gt;Node271572</title>
<path fill="none" stroke="#191970" d="M336.573,-426.5921C348.1783,-424.0109 360.098,-419.1148 368,-410 446.4357,-319.5256 325.6535,-233.5517 404,-143 410.835,-135.1002 420.7046,-130.3755 430.757,-127.5801"/>
<polygon fill="#191970" stroke="#191970" points="335.8267,-423.1689 326.5642,-428.3124 337.0125,-430.0678 335.8267,-423.1689"/>
</g>
<!-- Node271522&#45;&gt;Node271552 -->
<g id="edge34" class="edge">
<title>Node271522&#45;&gt;Node271552</title>
<path fill="none" stroke="#191970" d="M336.7775,-426.7658C348.4017,-424.2006 360.281,-419.2703 368,-410 422.4176,-344.6458 349.6469,-94.4078 404,-29 407.7603,-24.475 412.5174,-20.9861 417.7519,-18.3025"/>
<polygon fill="#191970" stroke="#191970" points="336.0165,-423.3446 326.7389,-428.4608 337.182,-430.247 336.0165,-423.3446"/>
</g>
<!-- Node271553&#45;&gt;Node271509 -->
<g id="edge14" class="edge">
<title>Node271553&#45;&gt;Node271509</title>
<path fill="none" stroke="#191970" d="M413.2825,-61.6333C410.0386,-63.2302 406.9158,-65.0121 404,-67 272.9933,-156.3158 181.7561,-337.3914 160.9938,-381.2648"/>
<polygon fill="#191970" stroke="#191970" points="414.8631,-64.7637 422.6734,-57.6048 412.1035,-58.3306 414.8631,-64.7637"/>
</g>
<!-- Node271561&#45;&gt;Node271509 -->
<g id="edge22" class="edge">
<title>Node271561&#45;&gt;Node271509</title>
<path fill="none" stroke="#191970" d="M414.9974,-751.4037C411.124,-749.5527 407.4094,-747.4313 404,-745 266.3198,-646.8191 179.1549,-446.932 160.3394,-400.6963"/>
<polygon fill="#191970" stroke="#191970" points="413.6771,-754.6451 424.2547,-755.2501 416.3631,-748.1809 413.6771,-754.6451"/>
</g>
<!-- Node271567&#45;&gt;Node271567 -->
<g id="edge29" class="edge">
<title>Node271567&#45;&gt;Node271567</title>
<path fill="none" stroke="#191970" d="M439.0629,-334.2746C439.9592,-339.741 450.4382,-344 470.5,-344 500.3594,-344 508.9906,-334.5653 496.3937,-325.7571"/>
<polygon fill="#191970" stroke="#191970" points="442.085,-336.0475 444.6063,-325.7571 436.2181,-332.2291 442.085,-336.0475"/>
</g>
<!-- Node271570&#45;&gt;Node271570 -->
<g id="edge32" class="edge">
<title>Node271570&#45;&gt;Node271570</title>
<path fill="none" stroke="#191970" d="M439.0629,-278.2746C439.9592,-283.741 450.4382,-288 470.5,-288 500.3594,-288 508.9906,-278.5653 496.3937,-269.7571"/>
<polygon fill="#191970" stroke="#191970" points="442.085,-280.0475 444.6063,-269.7571 436.2181,-276.2291 442.085,-280.0475"/>
</g>
<!-- Node271594&#45;&gt;Node271509 -->
<g id="edge36" class="edge">
<title>Node271594&#45;&gt;Node271509</title>
<path fill="none" stroke="#191970" d="M223.7059,-397.7354C214.9651,-397.6845 206.3232,-397.5014 198.2954,-397.186"/>
<polygon fill="#191970" stroke="#191970" points="223.9819,-401.2354 233.9815,-397.7342 223.981,-394.2354 223.9819,-401.2354"/>
</g>
<!-- Node271608&#45;&gt;Node271509 -->
<g id="edge38" class="edge">
<title>Node271608&#45;&gt;Node271509</title>
<path fill="none" stroke="#191970" d="M280.445,-336.7024C256.4877,-350.3075 216.609,-369.6275 188.5692,-381.4067"/>
<polygon fill="#191970" stroke="#191970" points="282.2384,-339.7081 289.079,-331.6176 278.6861,-333.6765 282.2384,-339.7081"/>
</g>
<!-- Node271608&#45;&gt;Node271569 -->
<g id="edge40" class="edge">
<title>Node271608&#45;&gt;Node271569</title>
<path fill="none" stroke="#191970" d="M317.919,-304.6432C333.0621,-288.212 354.8457,-262.2187 368,-236 395.0771,-182.0309 361.5208,-147.9109 404,-105 409.8286,-99.1121 417.3463,-95.0179 425.2191,-92.1782"/>
<polygon fill="#191970" stroke="#191970" points="314.9996,-302.6375 310.6863,-312.3145 320.0929,-307.4395 314.9996,-302.6375"/>
</g>
<!-- Node271608&#45;&gt;Node271572 -->
<g id="edge39" class="edge">
<title>Node271608&#45;&gt;Node271572</title>
<path fill="none" stroke="#191970" d="M317.0657,-304.5906C331.7928,-287.9481 353.4576,-261.6605 368,-236 389.8529,-197.4397 371.266,-172.8819 404,-143 411.449,-136.2 421.1694,-131.8169 430.8685,-128.9966"/>
<polygon fill="#191970" stroke="#191970" points="314.1607,-302.5862 310.0712,-312.36 319.3631,-307.2697 314.1607,-302.5862"/>
</g>
</g>
</svg>
