<?xml version="1.0" encoding="UTF-8" standalone="no"?>
<!DOCTYPE svg PUBLIC "-//W3C//DTD SVG 1.1//EN"
 "http://www.w3.org/Graphics/SVG/1.1/DTD/svg11.dtd">
<!-- Generated by graphviz version 2.40.1 (20161225.0304)
 -->
<!-- Title: JS_SetConstructor Pages: 1 -->
<svg width="790pt" height="237pt"
 viewBox="0.00 0.00 790.00 237.03" xmlns="http://www.w3.org/2000/svg" xmlns:xlink="http://www.w3.org/1999/xlink">
<g id="graph0" class="graph" transform="scale(1 1) rotate(0) translate(4 233.029)">
<title>JS_SetConstructor</title>
<!-- Node84205 -->
<g id="node1" class="node">
<title>Node84205</title>
<polygon fill="#bfbfbf" stroke="#000000" points="0,-10.4358 0,-29.4358 100,-29.4358 100,-10.4358 0,-10.4358"/>
<text text-anchor="middle" x="50" y="-17.4358" font-family="Helvetica,sans-Serif" font-size="10.00" fill="#000000">JS_SetConstructor</text>
</g>
<!-- Node84206 -->
<g id="node2" class="node">
<title>Node84206</title>
<g id="a_node2"><a xlink:href="quickjs_8c.html#a177d09828596bfe6df4bd90b2e93989d" target="_top" xlink:title="JS_AddIntrinsicTypedArrays">
<polygon fill="none" stroke="#000000" points="515.5,-10.4358 515.5,-29.4358 656.5,-29.4358 656.5,-10.4358 515.5,-10.4358"/>
<text text-anchor="middle" x="586" y="-17.4358" font-family="Helvetica,sans-Serif" font-size="10.00" fill="#000000">JS_AddIntrinsicTypedArrays</text>
</a>
</g>
</g>
<!-- Node84205&#45;&gt;Node84206 -->
<g id="edge1" class="edge">
<title>Node84205&#45;&gt;Node84206</title>
<path fill="none" stroke="#191970" d="M110.2795,-13.461C193.3664,-5.5002 347.7163,5.8256 479,-3.9358 496.6073,-5.2449 515.7108,-7.7499 532.8376,-10.396"/>
<polygon fill="#191970" stroke="#191970" points="109.875,-9.9837 100.2619,-14.4378 110.5544,-16.9507 109.875,-9.9837"/>
</g>
<!-- Node84208 -->
<g id="node4" class="node">
<title>Node84208</title>
<g id="a_node4"><a xlink:href="quickjs_8c.html#acd5457d29e9641ae5e3a1d778f94bd0e" target="_top" xlink:title="JS_NewGlobalCConstructor2">
<polygon fill="none" stroke="#000000" points="136,-67.4358 136,-86.4358 282,-86.4358 282,-67.4358 136,-67.4358"/>
<text text-anchor="middle" x="209" y="-74.4358" font-family="Helvetica,sans-Serif" font-size="10.00" fill="#000000">JS_NewGlobalCConstructor2</text>
</a>
</g>
</g>
<!-- Node84205&#45;&gt;Node84208 -->
<g id="edge3" class="edge">
<title>Node84205&#45;&gt;Node84208</title>
<path fill="none" stroke="#191970" d="M86.0636,-32.8642C115.3193,-43.3521 155.8994,-57.8997 182.3002,-67.3641"/>
<polygon fill="#191970" stroke="#191970" points="87.2076,-29.5563 76.613,-29.4763 84.8453,-36.1456 87.2076,-29.5563"/>
</g>
<!-- Node84207 -->
<g id="node3" class="node">
<title>Node84207</title>
<g id="a_node3"><a xlink:href="quickjs_8c.html#ad8aedb643b8753b7a15f6cb2df61945e" target="_top" xlink:title="JS_NewContext">
<polygon fill="none" stroke="#000000" points="693,-124.4358 693,-143.4358 782,-143.4358 782,-124.4358 693,-124.4358"/>
<text text-anchor="middle" x="737.5" y="-131.4358" font-family="Helvetica,sans-Serif" font-size="10.00" fill="#000000">JS_NewContext</text>
</a>
</g>
</g>
<!-- Node84206&#45;&gt;Node84207 -->
<g id="edge2" class="edge">
<title>Node84206&#45;&gt;Node84207</title>
<path fill="none" stroke="#191970" d="M612.665,-34.5721C626.3008,-42.4298 642.9409,-52.6059 657,-62.9358 684.031,-82.7965 712.8476,-109.8294 727.5751,-124.1297"/>
<polygon fill="#191970" stroke="#191970" points="614.1985,-31.4181 603.7734,-29.5291 610.7451,-37.507 614.1985,-31.4181"/>
</g>
<!-- Node84208&#45;&gt;Node84206 -->
<g id="edge10" class="edge">
<title>Node84208&#45;&gt;Node84206</title>
<path fill="none" stroke="#191970" d="M230.7698,-61.4902C251.9083,-47.5104 285.4832,-27.9246 318,-19.9358 383.5169,-3.8392 460.7941,-5.977 515.4906,-10.8571"/>
<polygon fill="#191970" stroke="#191970" points="228.5569,-58.762 222.2462,-67.2724 232.4866,-64.5549 228.5569,-58.762"/>
</g>
<!-- Node84209 -->
<g id="node5" class="node">
<title>Node84209</title>
<g id="a_node5"><a xlink:href="quickjs_8c.html#a4c9489297c684663f30e517204a9ec14" target="_top" xlink:title="JS_AddIntrinsicBaseObjects">
<polygon fill="none" stroke="#000000" points="515,-105.4358 515,-124.4358 657,-124.4358 657,-105.4358 515,-105.4358"/>
<text text-anchor="middle" x="586" y="-112.4358" font-family="Helvetica,sans-Serif" font-size="10.00" fill="#000000">JS_AddIntrinsicBaseObjects</text>
</a>
</g>
</g>
<!-- Node84208&#45;&gt;Node84209 -->
<g id="edge4" class="edge">
<title>Node84208&#45;&gt;Node84209</title>
<path fill="none" stroke="#191970" d="M267.3631,-88.2377C283.6992,-91.0933 301.4997,-93.9181 318,-95.9358 384.5558,-104.0743 460.869,-109.0637 514.996,-111.8745"/>
<polygon fill="#191970" stroke="#191970" points="267.8647,-84.772 257.4056,-86.4627 266.6361,-91.6634 267.8647,-84.772"/>
</g>
<!-- Node84210 -->
<g id="node6" class="node">
<title>Node84210</title>
<g id="a_node6"><a xlink:href="quickjs_8c.html#a4497f8c7cf2ec38da989910ae8b1f042" target="_top" xlink:title="JS_AddIntrinsicMapSet">
<polygon fill="none" stroke="#000000" points="339,-200.4358 339,-219.4358 458,-219.4358 458,-200.4358 339,-200.4358"/>
<text text-anchor="middle" x="398.5" y="-207.4358" font-family="Helvetica,sans-Serif" font-size="10.00" fill="#000000">JS_AddIntrinsicMapSet</text>
</a>
</g>
</g>
<!-- Node84208&#45;&gt;Node84210 -->
<g id="edge6" class="edge">
<title>Node84208&#45;&gt;Node84210</title>
<path fill="none" stroke="#191970" d="M225.4077,-93.8534C245.7706,-114.2008 282.2001,-148.5341 318,-171.9358 335.5929,-183.4359 357.2126,-193.4418 373.6154,-200.2954"/>
<polygon fill="#191970" stroke="#191970" points="227.706,-91.1998 218.187,-86.548 222.7275,-96.1206 227.706,-91.1998"/>
</g>
<!-- Node84211 -->
<g id="node7" class="node">
<title>Node84211</title>
<g id="a_node7"><a xlink:href="quickjs_8c.html#a2e66fcf1bc1d19f346317f10ee590621" target="_top" xlink:title="JS_AddIntrinsicPromise">
<polygon fill="none" stroke="#000000" points="337.5,-67.4358 337.5,-86.4358 459.5,-86.4358 459.5,-67.4358 337.5,-67.4358"/>
<text text-anchor="middle" x="398.5" y="-74.4358" font-family="Helvetica,sans-Serif" font-size="10.00" fill="#000000">JS_AddIntrinsicPromise</text>
</a>
</g>
</g>
<!-- Node84208&#45;&gt;Node84211 -->
<g id="edge8" class="edge">
<title>Node84208&#45;&gt;Node84211</title>
<path fill="none" stroke="#191970" d="M292.617,-76.9358C307.6844,-76.9358 323.1327,-76.9358 337.4091,-76.9358"/>
<polygon fill="#191970" stroke="#191970" points="292.2657,-73.4358 282.2656,-76.9358 292.2656,-80.4358 292.2657,-73.4358"/>
</g>
<!-- Node84212 -->
<g id="node8" class="node">
<title>Node84212</title>
<g id="a_node8"><a xlink:href="quickjs_8c.html#a293feb2179c9a722b2bd410bc2c5c173" target="_top" xlink:title="JS_NewGlobalCConstructor">
<polygon fill="none" stroke="#000000" points="328.5,-143.4358 328.5,-162.4358 468.5,-162.4358 468.5,-143.4358 328.5,-143.4358"/>
<text text-anchor="middle" x="398.5" y="-150.4358" font-family="Helvetica,sans-Serif" font-size="10.00" fill="#000000">JS_NewGlobalCConstructor</text>
</a>
</g>
</g>
<!-- Node84208&#45;&gt;Node84212 -->
<g id="edge11" class="edge">
<title>Node84208&#45;&gt;Node84212</title>
<path fill="none" stroke="#191970" d="M235.7153,-91.1186C257.473,-102.3163 289.1942,-117.8478 318,-128.9358 332.1545,-134.3841 348.0942,-139.3666 362.0324,-143.3626"/>
<polygon fill="#191970" stroke="#191970" points="237.2396,-87.9664 226.7524,-86.4605 234.0116,-94.1777 237.2396,-87.9664"/>
</g>
<!-- Node84215 -->
<g id="node11" class="node">
<title>Node84215</title>
<g id="a_node11"><a xlink:href="quickjs_8c.html#abc33a664e231090ec89f9d9975e21229" target="_top" xlink:title="JS_NewGlobalCConstructorOnly">
<polygon fill="none" stroke="#000000" points="318,-29.4358 318,-48.4358 479,-48.4358 479,-29.4358 318,-29.4358"/>
<text text-anchor="middle" x="398.5" y="-36.4358" font-family="Helvetica,sans-Serif" font-size="10.00" fill="#000000">JS_NewGlobalCConstructorOnly</text>
</a>
</g>
</g>
<!-- Node84208&#45;&gt;Node84215 -->
<g id="edge17" class="edge">
<title>Node84208&#45;&gt;Node84215</title>
<path fill="none" stroke="#191970" d="M266.8948,-65.3262C293.846,-59.9218 325.5102,-53.5722 351.025,-48.4558"/>
<polygon fill="#191970" stroke="#191970" points="265.9355,-61.9488 256.8189,-67.3467 267.3118,-68.8122 265.9355,-61.9488"/>
</g>
<!-- Node84209&#45;&gt;Node84207 -->
<g id="edge5" class="edge">
<title>Node84209&#45;&gt;Node84207</title>
<path fill="none" stroke="#191970" d="M667.2695,-125.128C676.0724,-126.232 684.7754,-127.3234 692.8995,-128.3423"/>
<polygon fill="#191970" stroke="#191970" points="667.6716,-121.6511 657.3138,-123.8794 666.8005,-128.5967 667.6716,-121.6511"/>
</g>
<!-- Node84210&#45;&gt;Node84207 -->
<g id="edge7" class="edge">
<title>Node84210&#45;&gt;Node84207</title>
<path fill="none" stroke="#191970" d="M452.4363,-221.1727C506.2862,-229.8518 590.3944,-236.4097 657,-209.9358 691.1144,-196.3762 719.1345,-160.7442 731.1642,-143.524"/>
<polygon fill="#191970" stroke="#191970" points="452.8583,-217.6944 442.4144,-219.4765 451.69,-224.5963 452.8583,-217.6944"/>
</g>
<!-- Node84211&#45;&gt;Node84207 -->
<g id="edge9" class="edge">
<title>Node84211&#45;&gt;Node84207</title>
<path fill="none" stroke="#191970" d="M469.8309,-75.2131C522.3949,-75.6114 595.189,-79.6776 657,-95.9358 680.7644,-102.1865 706.0625,-115.3314 721.8218,-124.3954"/>
<polygon fill="#191970" stroke="#191970" points="469.6085,-71.7125 459.5971,-75.1799 469.5857,-78.7124 469.6085,-71.7125"/>
</g>
<!-- Node84212&#45;&gt;Node84209 -->
<g id="edge12" class="edge">
<title>Node84212&#45;&gt;Node84209</title>
<path fill="none" stroke="#191970" d="M455.7838,-141.3262C482.4506,-135.9218 513.7805,-129.5722 539.0261,-124.4558"/>
<polygon fill="#191970" stroke="#191970" points="454.9197,-137.9301 445.8142,-143.3467 456.3101,-144.7906 454.9197,-137.9301"/>
</g>
<!-- Node84213 -->
<g id="node9" class="node">
<title>Node84213</title>
<g id="a_node9"><a xlink:href="quickjs_8c.html#a8ecbf5799518b7bfc3fefd47c7a0dd4e" target="_top" xlink:title="JS_AddIntrinsicDate">
<polygon fill="none" stroke="#000000" points="532.5,-181.4358 532.5,-200.4358 639.5,-200.4358 639.5,-181.4358 532.5,-181.4358"/>
<text text-anchor="middle" x="586" y="-188.4358" font-family="Helvetica,sans-Serif" font-size="10.00" fill="#000000">JS_AddIntrinsicDate</text>
</a>
</g>
</g>
<!-- Node84212&#45;&gt;Node84213 -->
<g id="edge13" class="edge">
<title>Node84212&#45;&gt;Node84213</title>
<path fill="none" stroke="#191970" d="M455.7838,-164.5453C482.4506,-169.9497 513.7805,-176.2993 539.0261,-181.4157"/>
<polygon fill="#191970" stroke="#191970" points="456.3101,-161.0809 445.8142,-162.5248 454.9197,-167.9414 456.3101,-161.0809"/>
</g>
<!-- Node84214 -->
<g id="node10" class="node">
<title>Node84214</title>
<g id="a_node10"><a xlink:href="quickjs_8c.html#aafc8241682ce24b6d72e0f237ee85a51" target="_top" xlink:title="JS_AddIntrinsicRegExp">
<polygon fill="none" stroke="#000000" points="525.5,-143.4358 525.5,-162.4358 646.5,-162.4358 646.5,-143.4358 525.5,-143.4358"/>
<text text-anchor="middle" x="586" y="-150.4358" font-family="Helvetica,sans-Serif" font-size="10.00" fill="#000000">JS_AddIntrinsicRegExp</text>
</a>
</g>
</g>
<!-- Node84212&#45;&gt;Node84214 -->
<g id="edge15" class="edge">
<title>Node84212&#45;&gt;Node84214</title>
<path fill="none" stroke="#191970" d="M478.732,-152.9358C494.3133,-152.9358 510.4034,-152.9358 525.2319,-152.9358"/>
<polygon fill="#191970" stroke="#191970" points="478.5848,-149.4359 468.5847,-152.9358 478.5847,-156.4359 478.5848,-149.4359"/>
</g>
<!-- Node84213&#45;&gt;Node84207 -->
<g id="edge14" class="edge">
<title>Node84213&#45;&gt;Node84207</title>
<path fill="none" stroke="#191970" d="M636.6101,-178.5911C643.523,-176.5573 650.4797,-174.3251 657,-171.9358 679.2017,-163.7998 703.6195,-151.8155 719.6741,-143.489"/>
<polygon fill="#191970" stroke="#191970" points="635.2429,-175.3401 626.5691,-181.4241 637.1438,-182.0771 635.2429,-175.3401"/>
</g>
<!-- Node84214&#45;&gt;Node84207 -->
<g id="edge16" class="edge">
<title>Node84214&#45;&gt;Node84207</title>
<path fill="none" stroke="#191970" d="M656.8909,-144.0451C669.0457,-142.5208 681.368,-140.9754 692.5992,-139.5669"/>
<polygon fill="#191970" stroke="#191970" points="656.2346,-140.5999 646.7479,-145.3172 657.1057,-147.5455 656.2346,-140.5999"/>
</g>
<!-- Node84215&#45;&gt;Node84206 -->
<g id="edge18" class="edge">
<title>Node84215&#45;&gt;Node84206</title>
<path fill="none" stroke="#191970" d="M489.0883,-29.7561C497.96,-28.8571 506.8694,-27.9543 515.4983,-27.0799"/>
<polygon fill="#191970" stroke="#191970" points="488.7012,-26.2773 479.105,-30.7678 489.407,-33.2417 488.7012,-26.2773"/>
</g>
</g>
</svg>
