<?xml version="1.0" encoding="UTF-8" standalone="no"?>
<!DOCTYPE svg PUBLIC "-//W3C//DTD SVG 1.1//EN"
 "http://www.w3.org/Graphics/SVG/1.1/DTD/svg11.dtd">
<!-- Generated by graphviz version 2.40.1 (20161225.0304)
 -->
<!-- Title: free_property Pages: 1 -->
<!--zoomable 194 -->
<svg id="main" version="1.1" xmlns="http://www.w3.org/2000/svg" xmlns:xlink="http://www.w3.org/1999/xlink" xml:space="preserve" onload="init(evt)">
<style type="text/css"><![CDATA[
.edge:hover path { stroke: red; }
.edge:hover polygon { stroke: red; fill: red; }
]]></style>
<script type="text/javascript"><![CDATA[
var edges = document.getElementsByTagName('g');
if (edges && edges.length) {
  for (var i=0;i<edges.length;i++) {
    if (edges[i].id.substr(0,4)=='edge') {
      edges[i].setAttribute('class','edge');
    }
  }
}
]]></script>
        <defs>
                <circle id="rim" cx="0" cy="0" r="7"/>
                <circle id="rim2" cx="0" cy="0" r="3.5"/>
                <g id="zoomPlus">
                        <use xlink:href="#rim" fill="#404040">
                                <set attributeName="fill" to="#808080" begin="zoomplus.mouseover" end="zoomplus.mouseout"/>
                        </use>
                        <path d="M-4,0h8M0,-4v8" fill="none" stroke="white" stroke-width="1.5" pointer-events="none"/>
                </g>
                <g id="zoomMin">
                        <use xlink:href="#rim" fill="#404040">
                                <set attributeName="fill" to="#808080" begin="zoomminus.mouseover" end="zoomminus.mouseout"/>
                        </use>
                        <path d="M-4,0h8" fill="none" stroke="white" stroke-width="1.5" pointer-events="none"/>
                </g>
                <g id="dirArrow">
                        <path fill="none" stroke="white" stroke-width="1.5" d="M0,-3.0v7 M-2.5,-0.5L0,-3.0L2.5,-0.5"/>
                </g>
               <g id="resetDef">
                       <use xlink:href="#rim2" fill="#404040">
                               <set attributeName="fill" to="#808080" begin="reset.mouseover" end="reset.mouseout"/>
                       </use>
               </g>
        </defs>

<script type="text/javascript">
var viewWidth = 560;
var viewHeight = 194;
var sectionId = 'dynsection-416';
</script>
<script xlink:href="svgpan.js"/>
<svg id="graph" class="graph">
<g id="viewport">
<title>free_property</title>
<!-- Node139913 -->
<g id="node1" class="node">
<title>Node139913</title>
<polygon fill="#bfbfbf" stroke="#000000" points="0,-66.5 0,-85.5 74,-85.5 74,-66.5 0,-66.5"/>
<text text-anchor="middle" x="37" y="-73.5" font-family="Helvetica,sans-Serif" font-size="10.00" fill="#000000">free_property</text>
</g>
<!-- Node139914 -->
<g id="node2" class="node">
<title>Node139914</title>
<g id="a_node2"><a xlink:href="quickjs_8c.html#a9e7b4bccf927d811b0f99b40b08c0472" target="_top" xlink:title="free_var_ref">
<polygon fill="none" stroke="#000000" points="117.5,-66.5 117.5,-85.5 185.5,-85.5 185.5,-66.5 117.5,-66.5"/>
<text text-anchor="middle" x="151.5" y="-73.5" font-family="Helvetica,sans-Serif" font-size="10.00" fill="#000000">free_var_ref</text>
</a>
</g>
</g>
<!-- Node139913&#45;&gt;Node139914 -->
<g id="edge1" class="edge">
<title>Node139913&#45;&gt;Node139914</title>
<path fill="none" stroke="#191970" d="M74.1749,-76C84.6656,-76 96.1861,-76 107.0572,-76"/>
<polygon fill="#191970" stroke="#191970" points="107.2263,-79.5001 117.2262,-76 107.2262,-72.5001 107.2263,-79.5001"/>
</g>
<!-- Node139916 -->
<g id="node4" class="node">
<title>Node139916</title>
<g id="a_node4"><a xlink:href="quickjs_8h.html#ab8db583fa5e7c2b1935854a42859daed" target="_top" xlink:title="JS_FreeValueRT">
<polygon fill="none" stroke="#000000" points="229,-.5 229,-19.5 321,-19.5 321,-.5 229,-.5"/>
<text text-anchor="middle" x="275" y="-7.5" font-family="Helvetica,sans-Serif" font-size="10.00" fill="#000000">JS_FreeValueRT</text>
</a>
</g>
</g>
<!-- Node139913&#45;&gt;Node139916 -->
<g id="edge14" class="edge">
<title>Node139913&#45;&gt;Node139916</title>
<path fill="none" stroke="#191970" d="M71.3531,-66.4735C113.4484,-54.8 184.8435,-35.0014 230.9404,-22.2182"/>
<polygon fill="#191970" stroke="#191970" points="231.9563,-25.5686 240.6573,-19.5236 230.0857,-18.8232 231.9563,-25.5686"/>
</g>
<!-- Node139948 -->
<g id="node8" class="node">
<title>Node139948</title>
<g id="a_node8"><a xlink:href="quickjs_8c.html#af2bcf1faee5b5dd948692540d9cce73e" target="_top" xlink:title="js_autoinit_free">
<polygon fill="none" stroke="#000000" points="110,-142.5 110,-161.5 193,-161.5 193,-142.5 110,-142.5"/>
<text text-anchor="middle" x="151.5" y="-149.5" font-family="Helvetica,sans-Serif" font-size="10.00" fill="#000000">js_autoinit_free</text>
</a>
</g>
</g>
<!-- Node139913&#45;&gt;Node139948 -->
<g id="edge9" class="edge">
<title>Node139913&#45;&gt;Node139948</title>
<path fill="none" stroke="#191970" d="M51.5015,-85.6255C70.9451,-98.5312 105.6727,-121.5819 128.6503,-136.8334"/>
<polygon fill="#191970" stroke="#191970" points="126.849,-139.8386 137.1162,-142.4527 130.7201,-134.0064 126.849,-139.8386"/>
</g>
<!-- Node139915 -->
<g id="node3" class="node">
<title>Node139915</title>
<g id="a_node3"><a xlink:href="quickjs_8c.html#a69e19dda8a93d613203e0baa06f0ed8d" target="_top" xlink:title="js_free_rt">
<polygon fill="none" stroke="#000000" points="495,-38.5 495,-57.5 552,-57.5 552,-38.5 495,-38.5"/>
<text text-anchor="middle" x="523.5" y="-45.5" font-family="Helvetica,sans-Serif" font-size="10.00" fill="#000000">js_free_rt</text>
</a>
</g>
</g>
<!-- Node139914&#45;&gt;Node139915 -->
<g id="edge2" class="edge">
<title>Node139914&#45;&gt;Node139915</title>
<path fill="none" stroke="#191970" d="M185.8301,-73.416C255.2615,-68.19 411.9377,-56.3972 484.8383,-50.91"/>
<polygon fill="#191970" stroke="#191970" points="485.2568,-54.3885 494.9659,-50.1477 484.7314,-47.4083 485.2568,-54.3885"/>
</g>
<!-- Node139914&#45;&gt;Node139916 -->
<g id="edge3" class="edge">
<title>Node139914&#45;&gt;Node139916</title>
<path fill="none" stroke="#191970" d="M169.0021,-66.4132C184.6821,-57.8487 208.3269,-44.9939 229,-34 234.9499,-30.8359 241.3507,-27.4715 247.4308,-24.294"/>
<polygon fill="#191970" stroke="#191970" points="249.3596,-27.2357 256.6103,-19.5105 246.1247,-21.028 249.3596,-27.2357"/>
</g>
<!-- Node139933 -->
<g id="node6" class="node">
<title>Node139933</title>
<g id="a_node6"><a xlink:href="list_8h.html#ab60d5d18869ebeb5d6ab694289576fa7" target="_top" xlink:title="list_del">
<polygon fill="none" stroke="#000000" points="500,-114.5 500,-133.5 547,-133.5 547,-114.5 500,-114.5"/>
<text text-anchor="middle" x="523.5" y="-121.5" font-family="Helvetica,sans-Serif" font-size="10.00" fill="#000000">list_del</text>
</a>
</g>
</g>
<!-- Node139914&#45;&gt;Node139933 -->
<g id="edge6" class="edge">
<title>Node139914&#45;&gt;Node139933</title>
<path fill="none" stroke="#191970" d="M185.9324,-77.0885C243.1131,-79.3766 361.0621,-86.1391 459,-105 469.2093,-106.9661 480.1216,-109.8638 490.0122,-112.807"/>
<polygon fill="#191970" stroke="#191970" points="489.2896,-116.2469 499.8771,-115.8534 491.3551,-109.5586 489.2896,-116.2469"/>
</g>
<!-- Node139932 -->
<g id="node7" class="node">
<title>Node139932</title>
<g id="a_node7"><a xlink:href="quickjs_8c.html#adfb3133f30938e2db9b525ade5fc09cf" target="_top" xlink:title="remove_gc_object">
<polygon fill="none" stroke="#000000" points="360,-114.5 360,-133.5 456,-133.5 456,-114.5 360,-114.5"/>
<text text-anchor="middle" x="408" y="-121.5" font-family="Helvetica,sans-Serif" font-size="10.00" fill="#000000">remove_gc_object</text>
</a>
</g>
</g>
<!-- Node139914&#45;&gt;Node139932 -->
<g id="edge7" class="edge">
<title>Node139914&#45;&gt;Node139932</title>
<path fill="none" stroke="#191970" d="M178.4611,-85.5658C193.2271,-90.4948 211.9431,-96.2431 229,-100 268.8533,-108.7781 314.4508,-114.8339 349.6504,-118.6666"/>
<polygon fill="#191970" stroke="#191970" points="349.4418,-122.164 359.7549,-119.7371 350.1793,-115.203 349.4418,-122.164"/>
</g>
<!-- Node139917 -->
<g id="node5" class="node">
<title>Node139917</title>
<g id="a_node5"><a xlink:href="quickjs_8c.html#ab1ea3fad7d138be12144a38be4d36423" target="_top" xlink:title="__JS_FreeValueRT">
<polygon fill="none" stroke="#ff0000" points="357,-.5 357,-19.5 459,-19.5 459,-.5 357,-.5"/>
<text text-anchor="middle" x="408" y="-7.5" font-family="Helvetica,sans-Serif" font-size="10.00" fill="#000000">__JS_FreeValueRT</text>
</a>
</g>
</g>
<!-- Node139916&#45;&gt;Node139917 -->
<g id="edge4" class="edge">
<title>Node139916&#45;&gt;Node139917</title>
<path fill="none" stroke="#191970" d="M321.1437,-10C329.4482,-10 338.2214,-10 346.8726,-10"/>
<polygon fill="#191970" stroke="#191970" points="346.9369,-13.5001 356.9368,-10 346.9368,-6.5001 346.9369,-13.5001"/>
</g>
<!-- Node139917&#45;&gt;Node139915 -->
<g id="edge5" class="edge">
<title>Node139917&#45;&gt;Node139915</title>
<path fill="none" stroke="#191970" d="M437.1455,-19.589C451.618,-24.3505 469.2969,-30.1669 484.8805,-35.294"/>
<polygon fill="#191970" stroke="#191970" points="484.1709,-38.7451 494.7639,-38.5457 486.3587,-32.0957 484.1709,-38.7451"/>
</g>
<!-- Node139932&#45;&gt;Node139933 -->
<g id="edge8" class="edge">
<title>Node139932&#45;&gt;Node139933</title>
<path fill="none" stroke="#191970" d="M456.3132,-124C467.6256,-124 479.4345,-124 489.9399,-124"/>
<polygon fill="#191970" stroke="#191970" points="489.9441,-127.5001 499.9441,-124 489.944,-120.5001 489.9441,-127.5001"/>
</g>
<!-- Node139940 -->
<g id="node9" class="node">
<title>Node139940</title>
<g id="a_node9"><a xlink:href="quickjs_8c.html#a1b4fe6eb1b7bcaec6713bd5ac2921f1b" target="_top" xlink:title="JS_FreeContext">
<polygon fill="none" stroke="#ff0000" points="231,-152.5 231,-171.5 319,-171.5 319,-152.5 231,-152.5"/>
<text text-anchor="middle" x="275" y="-159.5" font-family="Helvetica,sans-Serif" font-size="10.00" fill="#000000">JS_FreeContext</text>
</a>
</g>
</g>
<!-- Node139948&#45;&gt;Node139940 -->
<g id="edge10" class="edge">
<title>Node139948&#45;&gt;Node139940</title>
<path fill="none" stroke="#191970" d="M193.3115,-155.3855C202.0564,-156.0936 211.399,-156.8501 220.5266,-157.5892"/>
<polygon fill="#191970" stroke="#191970" points="220.4472,-161.0941 230.6971,-158.4127 221.0123,-154.117 220.4472,-161.0941"/>
</g>
<!-- Node139940&#45;&gt;Node139915 -->
<g id="edge11" class="edge">
<title>Node139940&#45;&gt;Node139915</title>
<path fill="none" stroke="#191970" d="M319.1353,-167.4366C358.5841,-170.0912 416.546,-168.3685 459,-143 474.2585,-133.8823 499.5572,-91.3691 513.5042,-66.411"/>
<polygon fill="#191970" stroke="#191970" points="516.6436,-67.9659 518.4082,-57.5191 510.514,-64.5854 516.6436,-67.9659"/>
</g>
<!-- Node139940&#45;&gt;Node139933 -->
<g id="edge12" class="edge">
<title>Node139940&#45;&gt;Node139933</title>
<path fill="none" stroke="#191970" d="M304.9722,-171.5453C342.218,-181.7873 407.1885,-194.2842 459,-176 478.583,-169.0892 496.5924,-153.4343 508.5746,-141.0962"/>
<polygon fill="#191970" stroke="#191970" points="511.3001,-143.3044 515.5342,-133.5924 506.1678,-138.5442 511.3001,-143.3044"/>
</g>
<!-- Node139940&#45;&gt;Node139932 -->
<g id="edge13" class="edge">
<title>Node139940&#45;&gt;Node139932</title>
<path fill="none" stroke="#191970" d="M308.5615,-152.411C325.573,-147.5506 346.4319,-141.5909 364.6446,-136.3873"/>
<polygon fill="#191970" stroke="#191970" points="365.7955,-139.6986 374.4492,-133.5859 363.8724,-132.9679 365.7955,-139.6986"/>
</g>
</g>
</svg>
        <g id="navigator" transform="translate(0 0)" fill="#404254">
                <rect fill="#f2f5e9" fill-opacity="0.5" stroke="#606060" stroke-width=".5" x="0" y="0" width="60" height="60"/>
                <use id="zoomplus" xlink:href="#zoomPlus" x="17" y="9" onmousedown="handleZoom(evt,'in')"/>
                <use id="zoomminus" xlink:href="#zoomMin" x="42" y="9" onmousedown="handleZoom(evt,'out')"/>
                <use id="reset" xlink:href="#resetDef" x="30" y="36" onmousedown="handleReset()"/>
                <g id="arrowUp" xlink:href="#dirArrow" transform="translate(30 24)" onmousedown="handlePan(0,-1)">
                  <use xlink:href="#rim" fill="#404040">
                        <set attributeName="fill" to="#808080" begin="arrowUp.mouseover" end="arrowUp.mouseout"/>
                  </use>
                  <path fill="none" stroke="white" stroke-width="1.5" d="M0,-3.0v7 M-2.5,-0.5L0,-3.0L2.5,-0.5"/>
                </g>
                <g id="arrowRight" xlink:href="#dirArrow" transform="rotate(90) translate(36 -43)" onmousedown="handlePan(1,0)">
                  <use xlink:href="#rim" fill="#404040">
                        <set attributeName="fill" to="#808080" begin="arrowRight.mouseover" end="arrowRight.mouseout"/>
                  </use>
                  <path fill="none" stroke="white" stroke-width="1.5" d="M0,-3.0v7 M-2.5,-0.5L0,-3.0L2.5,-0.5"/>
                </g>
                <g id="arrowDown" xlink:href="#dirArrow" transform="rotate(180) translate(-30 -48)" onmousedown="handlePan(0,1)">
                  <use xlink:href="#rim" fill="#404040">
                        <set attributeName="fill" to="#808080" begin="arrowDown.mouseover" end="arrowDown.mouseout"/>
                  </use>
                  <path fill="none" stroke="white" stroke-width="1.5" d="M0,-3.0v7 M-2.5,-0.5L0,-3.0L2.5,-0.5"/>
                </g>
                <g id="arrowLeft" xlink:href="#dirArrow" transform="rotate(270) translate(-36 17)" onmousedown="handlePan(-1,0)">
                  <use xlink:href="#rim" fill="#404040">
                        <set attributeName="fill" to="#808080" begin="arrowLeft.mouseover" end="arrowLeft.mouseout"/>
                  </use>
                  <path fill="none" stroke="white" stroke-width="1.5" d="M0,-3.0v7 M-2.5,-0.5L0,-3.0L2.5,-0.5"/>
                </g>
        </g>
        <svg viewBox="0 0 15 15" width="100%" height="30px" preserveAspectRatio="xMaxYMin meet">
         <g id="arrow_out" transform="scale(0.3 0.3)">
          <a xlink:href="quickjs_8c_af4274494e2e45f9018154ffcbb7e89e4_cgraph_org.svg" target="_base">
           <rect id="button" ry="5" rx="5" y="6" x="6" height="38" width="38"
                fill="#f2f5e9" fill-opacity="0.5" stroke="#606060" stroke-width="1.0"/>
           <path id="arrow"
             d="M 11.500037,31.436501 C 11.940474,20.09759 22.043105,11.32322 32.158766,21.979434 L 37.068811,17.246167 C 37.068811,17.246167 37.088388,32 37.088388,32 L 22.160133,31.978069 C 22.160133,31.978069 26.997745,27.140456 26.997745,27.140456 C 18.528582,18.264221 13.291696,25.230495 11.500037,31.436501 z"
             style="fill:#404040;"/>
          </a>
         </g>
        </svg>
</svg>
