<?xml version="1.0" encoding="UTF-8" standalone="no"?>
<!DOCTYPE svg PUBLIC "-//W3C//DTD SVG 1.1//EN"
 "http://www.w3.org/Graphics/SVG/1.1/DTD/svg11.dtd">
<!-- Generated by graphviz version 2.40.1 (20161225.0304)
 -->
<!-- Title: js_for_in_next Pages: 1 -->
<!--zoomable 995 -->
<svg id="main" version="1.1" xmlns="http://www.w3.org/2000/svg" xmlns:xlink="http://www.w3.org/1999/xlink" xml:space="preserve" onload="init(evt)">
<style type="text/css"><![CDATA[
.edge:hover path { stroke: red; }
.edge:hover polygon { stroke: red; fill: red; }
]]></style>
<script type="text/javascript"><![CDATA[
var edges = document.getElementsByTagName('g');
if (edges && edges.length) {
  for (var i=0;i<edges.length;i++) {
    if (edges[i].id.substr(0,4)=='edge') {
      edges[i].setAttribute('class','edge');
    }
  }
}
]]></script>
        <defs>
                <circle id="rim" cx="0" cy="0" r="7"/>
                <circle id="rim2" cx="0" cy="0" r="3.5"/>
                <g id="zoomPlus">
                        <use xlink:href="#rim" fill="#404040">
                                <set attributeName="fill" to="#808080" begin="zoomplus.mouseover" end="zoomplus.mouseout"/>
                        </use>
                        <path d="M-4,0h8M0,-4v8" fill="none" stroke="white" stroke-width="1.5" pointer-events="none"/>
                </g>
                <g id="zoomMin">
                        <use xlink:href="#rim" fill="#404040">
                                <set attributeName="fill" to="#808080" begin="zoomminus.mouseover" end="zoomminus.mouseout"/>
                        </use>
                        <path d="M-4,0h8" fill="none" stroke="white" stroke-width="1.5" pointer-events="none"/>
                </g>
                <g id="dirArrow">
                        <path fill="none" stroke="white" stroke-width="1.5" d="M0,-3.0v7 M-2.5,-0.5L0,-3.0L2.5,-0.5"/>
                </g>
               <g id="resetDef">
                       <use xlink:href="#rim2" fill="#404040">
                               <set attributeName="fill" to="#808080" begin="reset.mouseover" end="reset.mouseout"/>
                       </use>
               </g>
        </defs>

<script type="text/javascript">
var viewWidth = 543;
var viewHeight = 995;
var sectionId = 'dynsection-780';
</script>
<script xlink:href="svgpan.js"/>
<svg id="graph" class="graph">
<g id="viewport">
<title>js_for_in_next</title>
<!-- Node265423 -->
<g id="node1" class="node">
<title>Node265423</title>
<polygon fill="#bfbfbf" stroke="#000000" points="0,-340.5 0,-359.5 77,-359.5 77,-340.5 0,-340.5"/>
<text text-anchor="middle" x="38.5" y="-347.5" font-family="Helvetica,sans-Serif" font-size="10.00" fill="#000000">js_for_in_next</text>
</g>
<!-- Node265424 -->
<g id="node2" class="node">
<title>Node265424</title>
<g id="a_node2"><a xlink:href="quickjs_8c.html#ac2894ff4edcdb4e6841bcce9c76081e3" target="_top" xlink:title="JS_CallInternal">
<polygon fill="none" stroke="#000000" points="113,-340.5 113,-359.5 196,-359.5 196,-340.5 113,-340.5"/>
<text text-anchor="middle" x="154.5" y="-347.5" font-family="Helvetica,sans-Serif" font-size="10.00" fill="#000000">JS_CallInternal</text>
</a>
</g>
</g>
<!-- Node265423&#45;&gt;Node265424 -->
<g id="edge1" class="edge">
<title>Node265423&#45;&gt;Node265424</title>
<path fill="none" stroke="#191970" d="M87.3065,-350C95.8039,-350 104.5714,-350 112.8543,-350"/>
<polygon fill="#191970" stroke="#191970" points="87.1264,-346.5001 77.1263,-350 87.1263,-353.5001 87.1264,-346.5001"/>
</g>
<!-- Node265424&#45;&gt;Node265424 -->
<g id="edge40" class="edge">
<title>Node265424&#45;&gt;Node265424</title>
<path fill="none" stroke="#191970" d="M133.0196,-369.4C134.4541,-374.3146 141.6143,-378 154.5,-378 175.1172,-378 181.0768,-368.5653 172.379,-359.7571"/>
<polygon fill="#191970" stroke="#191970" points="136.401,-370.3496 136.621,-359.7571 129.8434,-367.9004 136.401,-370.3496"/>
</g>
<!-- Node265425 -->
<g id="node3" class="node">
<title>Node265425</title>
<g id="a_node3"><a xlink:href="quickjs_8c.html#ade71a22dc56e7371392393df663b28b3" target="_top" xlink:title="async_func_resume">
<polygon fill="none" stroke="#000000" points="247,-874.5 247,-893.5 351,-893.5 351,-874.5 247,-874.5"/>
<text text-anchor="middle" x="299" y="-881.5" font-family="Helvetica,sans-Serif" font-size="10.00" fill="#000000">async_func_resume</text>
</a>
</g>
</g>
<!-- Node265424&#45;&gt;Node265425 -->
<g id="edge2" class="edge">
<title>Node265424&#45;&gt;Node265425</title>
<path fill="none" stroke="#191970" d="M159.7489,-369.3972C183.3253,-456.524 279.0372,-810.2275 296.3189,-874.092"/>
<polygon fill="#191970" stroke="#191970" points="163.122,-368.463 157.1314,-359.7244 156.365,-370.2915 163.122,-368.463"/>
</g>
<!-- Node265437 -->
<g id="node8" class="node">
<title>Node265437</title>
<g id="a_node8"><a xlink:href="quickjs_8c.html#a1a4c02a29525d5cb2085dd8bca3af350" target="_top" xlink:title="JS_Call">
<polygon fill="none" stroke="#ff0000" points="273.5,-378.5 273.5,-397.5 324.5,-397.5 324.5,-378.5 273.5,-378.5"/>
<text text-anchor="middle" x="299" y="-385.5" font-family="Helvetica,sans-Serif" font-size="10.00" fill="#000000">JS_Call</text>
</a>
</g>
</g>
<!-- Node265424&#45;&gt;Node265437 -->
<g id="edge7" class="edge">
<title>Node265424&#45;&gt;Node265437</title>
<path fill="none" stroke="#191970" d="M206.3524,-357.1309C232.197,-363.291 261.8346,-371.6885 280.4855,-378.4368"/>
<polygon fill="#191970" stroke="#191970" points="206.8269,-353.6484 196.2954,-354.8052 205.2497,-360.4684 206.8269,-353.6484"/>
</g>
<!-- Node265511 -->
<g id="node29" class="node">
<title>Node265511</title>
<g id="a_node29"><a xlink:href="quickjs_8c.html#ad35594576a14c10812efaf958c99af8a" target="_top" xlink:title="JS_CallConstructorInternal">
<polygon fill="none" stroke="#ff0000" points="232,-264.5 232,-283.5 366,-283.5 366,-264.5 232,-264.5"/>
<text text-anchor="middle" x="299" y="-271.5" font-family="Helvetica,sans-Serif" font-size="10.00" fill="#000000">JS_CallConstructorInternal</text>
</a>
</g>
</g>
<!-- Node265424&#45;&gt;Node265511 -->
<g id="edge34" class="edge">
<title>Node265424&#45;&gt;Node265511</title>
<path fill="none" stroke="#191970" d="M166.5491,-332.5463C181.0695,-317.2145 206.6856,-296.3922 232,-284 232.3258,-283.8405 232.6531,-283.6822 232.9819,-283.525"/>
<polygon fill="#191970" stroke="#191970" points="163.627,-330.572 159.6961,-340.4106 168.9045,-335.1708 163.627,-330.572"/>
</g>
<!-- Node265525 -->
<g id="node30" class="node">
<title>Node265525</title>
<g id="a_node30"><a xlink:href="quickjs_8c.html#a75f6ee5e4235a7dc99889f3d2eb2c147" target="_top" xlink:title="JS_CallFree">
<polygon fill="none" stroke="#ff0000" points="263.5,-302.5 263.5,-321.5 334.5,-321.5 334.5,-302.5 263.5,-302.5"/>
<text text-anchor="middle" x="299" y="-309.5" font-family="Helvetica,sans-Serif" font-size="10.00" fill="#000000">JS_CallFree</text>
</a>
</g>
</g>
<!-- Node265424&#45;&gt;Node265525 -->
<g id="edge36" class="edge">
<title>Node265424&#45;&gt;Node265525</title>
<path fill="none" stroke="#191970" d="M182.6305,-337.1263C205.6733,-329.5295 238.4179,-320.7723 263.3055,-315.4723"/>
<polygon fill="#191970" stroke="#191970" points="181.4119,-333.8441 173.095,-340.4076 183.6897,-340.4632 181.4119,-333.8441"/>
</g>
<!-- Node265426 -->
<g id="node4" class="node">
<title>Node265426</title>
<g id="a_node4"><a xlink:href="quickjs_8c.html#ac90552b1f1659acb3dae9a4c62479a30" target="_top" xlink:title="js_generator_function_call">
<polygon fill="none" stroke="#ff0000" points="403.5,-967.5 403.5,-986.5 533.5,-986.5 533.5,-967.5 403.5,-967.5"/>
<text text-anchor="middle" x="468.5" y="-974.5" font-family="Helvetica,sans-Serif" font-size="10.00" fill="#000000">js_generator_function_call</text>
</a>
</g>
</g>
<!-- Node265425&#45;&gt;Node265426 -->
<g id="edge3" class="edge">
<title>Node265425&#45;&gt;Node265426</title>
<path fill="none" stroke="#191970" d="M317.4671,-900.3133C337.1641,-916.9499 369.8865,-942.4617 402,-958 409.782,-961.7654 418.4469,-964.9157 426.8825,-967.499"/>
<polygon fill="#191970" stroke="#191970" points="319.488,-897.4351 309.6226,-893.5717 314.9255,-902.7439 319.488,-897.4351"/>
</g>
<!-- Node265430 -->
<g id="node5" class="node">
<title>Node265430</title>
<g id="a_node5"><a xlink:href="quickjs_8c.html#a1bf6b62983e8fff99c0a5d5a9f486115" target="_top" xlink:title="js_async_function_resume">
<polygon fill="none" stroke="#ff0000" points="402,-830.5 402,-849.5 535,-849.5 535,-830.5 402,-830.5"/>
<text text-anchor="middle" x="468.5" y="-837.5" font-family="Helvetica,sans-Serif" font-size="10.00" fill="#000000">js_async_function_resume</text>
</a>
</g>
</g>
<!-- Node265425&#45;&gt;Node265430 -->
<g id="edge4" class="edge">
<title>Node265425&#45;&gt;Node265430</title>
<path fill="none" stroke="#191970" d="M345.4651,-871.9383C372.6496,-864.8815 406.4877,-856.0976 431.7928,-849.5287"/>
<polygon fill="#191970" stroke="#191970" points="344.5787,-868.5523 335.779,-874.4527 346.3376,-875.3277 344.5787,-868.5523"/>
</g>
<!-- Node265435 -->
<g id="node6" class="node">
<title>Node265435</title>
<g id="a_node6"><a xlink:href="quickjs_8c.html#a89b019c704a2d2914bc30b30a72040b3" target="_top" xlink:title="js_async_generator\l_resume_next">
<polygon fill="none" stroke="#000000" points="418,-918 418,-948 519,-948 519,-918 418,-918"/>
<text text-anchor="start" x="426" y="-936" font-family="Helvetica,sans-Serif" font-size="10.00" fill="#000000">js_async_generator</text>
<text text-anchor="middle" x="468.5" y="-925" font-family="Helvetica,sans-Serif" font-size="10.00" fill="#000000">_resume_next</text>
</a>
</g>
</g>
<!-- Node265425&#45;&gt;Node265435 -->
<g id="edge5" class="edge">
<title>Node265425&#45;&gt;Node265435</title>
<path fill="none" stroke="#191970" d="M341.9372,-896.4125C365.0226,-903.0862 393.6309,-911.3564 417.805,-918.3448"/>
<polygon fill="#191970" stroke="#191970" points="342.6623,-892.9789 332.0837,-893.564 340.7183,-899.7036 342.6623,-892.9789"/>
</g>
<!-- Node265436 -->
<g id="node7" class="node">
<title>Node265436</title>
<g id="a_node7"><a xlink:href="quickjs_8c.html#ae19867da709929c072f05e90301835a4" target="_top" xlink:title="js_async_generator\l_function_call">
<polygon fill="none" stroke="#ff0000" points="418,-869 418,-899 519,-899 519,-869 418,-869"/>
<text text-anchor="start" x="426" y="-887" font-family="Helvetica,sans-Serif" font-size="10.00" fill="#000000">js_async_generator</text>
<text text-anchor="middle" x="468.5" y="-876" font-family="Helvetica,sans-Serif" font-size="10.00" fill="#000000">_function_call</text>
</a>
</g>
</g>
<!-- Node265425&#45;&gt;Node265436 -->
<g id="edge6" class="edge">
<title>Node265425&#45;&gt;Node265436</title>
<path fill="none" stroke="#191970" d="M361.388,-884C379.9885,-884 400.1368,-884 417.8866,-884"/>
<polygon fill="#191970" stroke="#191970" points="361.2387,-880.5001 351.2387,-884 361.2386,-887.5001 361.2387,-880.5001"/>
</g>
<!-- Node265437&#45;&gt;Node265424 -->
<g id="edge15" class="edge">
<title>Node265437&#45;&gt;Node265424</title>
<path fill="none" stroke="#191970" d="M263.4088,-384.5497C234.8289,-378.469 195.8374,-367.8129 173.095,-359.5924"/>
<polygon fill="#191970" stroke="#191970" points="262.923,-388.0222 273.4179,-386.57 264.3081,-381.1605 262.923,-388.0222"/>
</g>
<!-- Node265437&#45;&gt;Node265430 -->
<g id="edge16" class="edge">
<title>Node265437&#45;&gt;Node265430</title>
<path fill="none" stroke="#191970" d="M301.0847,-407.927C309.4965,-484.64 343.3319,-759.645 402,-821 405.6512,-824.8184 410.0118,-827.8855 414.73,-830.3468"/>
<polygon fill="#191970" stroke="#191970" points="304.5382,-407.3053 299.9903,-397.7362 297.5782,-408.0528 304.5382,-407.3053"/>
</g>
<!-- Node265438 -->
<g id="node9" class="node">
<title>Node265438</title>
<g id="a_node9"><a xlink:href="structqjs_1_1js__traits_3_01std_1_1function_3_01R_07Args_8_8_8_08_4_01_4.html#abc36cacd670b6b5f1773734a0586a02b" target="_top" xlink:title="qjs::js_traits\&lt; std\l::function\&lt; R(Args...)\l\&gt; \&gt;::unwrap">
<polygon fill="none" stroke="#000000" points="414,-392.5 414,-433.5 523,-433.5 523,-392.5 414,-392.5"/>
<text text-anchor="start" x="422" y="-421.5" font-family="Helvetica,sans-Serif" font-size="10.00" fill="#000000">qjs::js_traits&lt; std</text>
<text text-anchor="start" x="422" y="-410.5" font-family="Helvetica,sans-Serif" font-size="10.00" fill="#000000">::function&lt; R(Args...)</text>
<text text-anchor="middle" x="468.5" y="-399.5" font-family="Helvetica,sans-Serif" font-size="10.00" fill="#000000">&gt; &gt;::unwrap</text>
</a>
</g>
</g>
<!-- Node265437&#45;&gt;Node265438 -->
<g id="edge8" class="edge">
<title>Node265437&#45;&gt;Node265438</title>
<path fill="none" stroke="#191970" d="M334.7116,-393.2672C357.6128,-396.645 387.7972,-401.0969 413.6986,-404.9172"/>
<polygon fill="#191970" stroke="#191970" points="335.1471,-389.7936 324.7434,-391.797 334.1256,-396.7187 335.1471,-389.7936"/>
</g>
<!-- Node265439 -->
<g id="node10" class="node">
<title>Node265439</title>
<g id="a_node10"><a xlink:href="quickjs-libc_8c.html#abb1cbe3fdf905e81f603a3a0bfce475a" target="_top" xlink:title="call_handler">
<polygon fill="none" stroke="#ff0000" points="434.5,-354.5 434.5,-373.5 502.5,-373.5 502.5,-354.5 434.5,-354.5"/>
<text text-anchor="middle" x="468.5" y="-361.5" font-family="Helvetica,sans-Serif" font-size="10.00" fill="#000000">call_handler</text>
</a>
</g>
</g>
<!-- Node265437&#45;&gt;Node265439 -->
<g id="edge9" class="edge">
<title>Node265437&#45;&gt;Node265439</title>
<path fill="none" stroke="#191970" d="M334.9702,-382.9069C364.3013,-378.7538 405.4516,-372.9272 434.2948,-368.8432"/>
<polygon fill="#191970" stroke="#191970" points="334.1539,-379.4875 324.7434,-384.3549 335.1354,-386.4183 334.1539,-379.4875"/>
</g>
<!-- Node265444 -->
<g id="node11" class="node">
<title>Node265444</title>
<g id="a_node11"><a xlink:href="quickjs_8c.html#aa049793cc8648d35fe81876a2543ca4e" target="_top" xlink:title="JS_GetIterator2">
<polygon fill="none" stroke="#ff0000" points="425.5,-316.5 425.5,-335.5 511.5,-335.5 511.5,-316.5 425.5,-316.5"/>
<text text-anchor="middle" x="468.5" y="-323.5" font-family="Helvetica,sans-Serif" font-size="10.00" fill="#000000">JS_GetIterator2</text>
</a>
</g>
</g>
<!-- Node265437&#45;&gt;Node265444 -->
<g id="edge10" class="edge">
<title>Node265437&#45;&gt;Node265444</title>
<path fill="none" stroke="#191970" d="M334.3423,-376.395C344.6658,-372.723 355.8882,-368.4527 366,-364 382.5575,-356.709 385.2121,-351.7435 402,-345 410.9135,-341.4196 420.7502,-338.2214 430.0626,-335.5163"/>
<polygon fill="#191970" stroke="#191970" points="333.0809,-373.128 324.7855,-379.7188 335.3804,-379.7396 333.0809,-373.128"/>
</g>
<!-- Node265466 -->
<g id="node12" class="node">
<title>Node265466</title>
<g id="a_node12"><a xlink:href="quickjs_8c.html#ad6303fbd3add4afa0cb64b0aa6d431ce" target="_top" xlink:title="JS_IteratorNext2">
<polygon fill="none" stroke="#ff0000" points="423,-278.5 423,-297.5 514,-297.5 514,-278.5 423,-278.5"/>
<text text-anchor="middle" x="468.5" y="-285.5" font-family="Helvetica,sans-Serif" font-size="10.00" fill="#000000">JS_IteratorNext2</text>
</a>
</g>
</g>
<!-- Node265437&#45;&gt;Node265466 -->
<g id="edge11" class="edge">
<title>Node265437&#45;&gt;Node265466</title>
<path fill="none" stroke="#191970" d="M334.3224,-380.1664C345.2689,-376.5326 356.8475,-371.3368 366,-364 389.3787,-345.2593 378.0187,-324.9631 402,-307 408.1505,-302.393 415.3819,-298.902 422.7695,-296.257"/>
<polygon fill="#191970" stroke="#191970" points="333.1201,-376.8724 324.5349,-383.081 335.118,-383.5813 333.1201,-376.8724"/>
</g>
<!-- Node265470 -->
<g id="node13" class="node">
<title>Node265470</title>
<g id="a_node13"><a xlink:href="quickjs_8c.html#a62424fefab7bcc97f49c978205c7a1c1" target="_top" xlink:title="js_for_await_of_next">
<polygon fill="none" stroke="#000000" points="415,-792.5 415,-811.5 522,-811.5 522,-792.5 415,-792.5"/>
<text text-anchor="middle" x="468.5" y="-799.5" font-family="Helvetica,sans-Serif" font-size="10.00" fill="#000000">js_for_await_of_next</text>
</a>
</g>
</g>
<!-- Node265437&#45;&gt;Node265470 -->
<g id="edge12" class="edge">
<title>Node265437&#45;&gt;Node265470</title>
<path fill="none" stroke="#191970" d="M306.5257,-407.4189C320.0233,-442.8427 348.5623,-520.5268 366,-588 388.052,-673.3277 342.7352,-717.7712 402,-783 405.6334,-786.9991 410.0443,-790.1793 414.847,-792.705"/>
<polygon fill="#191970" stroke="#191970" points="309.7,-405.9215 302.8486,-397.8401 303.1649,-408.4303 309.7,-405.9215"/>
</g>
<!-- Node265471 -->
<g id="node14" class="node">
<title>Node265471</title>
<g id="a_node14"><a xlink:href="quickjs_8c.html#afd4ef2d701fa0702f321925b61c57bbf" target="_top" xlink:title="js_call_bound_function">
<polygon fill="none" stroke="#ff0000" points="410.5,-240.5 410.5,-259.5 526.5,-259.5 526.5,-240.5 410.5,-240.5"/>
<text text-anchor="middle" x="468.5" y="-247.5" font-family="Helvetica,sans-Serif" font-size="10.00" fill="#000000">js_call_bound_function</text>
</a>
</g>
</g>
<!-- Node265437&#45;&gt;Node265471 -->
<g id="edge14" class="edge">
<title>Node265437&#45;&gt;Node265471</title>
<path fill="none" stroke="#191970" d="M334.3781,-381.4933C345.6487,-377.9274 357.4083,-372.4362 366,-364 398.2175,-332.3654 368.7613,-299.5599 402,-269 406.2427,-265.0992 411.2323,-261.9932 416.5396,-259.5212"/>
<polygon fill="#191970" stroke="#191970" points="333.4055,-378.1308 324.6914,-384.157 335.2615,-384.8802 333.4055,-378.1308"/>
</g>
<!-- Node265472 -->
<g id="node15" class="node">
<title>Node265472</title>
<g id="a_node15"><a xlink:href="quickjs_8c.html#a3e852026d167fa03c673f86697dd3e67" target="_top" xlink:title="js_async_generator\l_resolve_or_reject">
<polygon fill="none" stroke="#ff0000" points="418,-191 418,-221 519,-221 519,-191 418,-191"/>
<text text-anchor="start" x="426" y="-209" font-family="Helvetica,sans-Serif" font-size="10.00" fill="#000000">js_async_generator</text>
<text text-anchor="middle" x="468.5" y="-198" font-family="Helvetica,sans-Serif" font-size="10.00" fill="#000000">_resolve_or_reject</text>
</a>
</g>
</g>
<!-- Node265437&#45;&gt;Node265472 -->
<g id="edge17" class="edge">
<title>Node265437&#45;&gt;Node265472</title>
<path fill="none" stroke="#191970" d="M334.5957,-382.049C345.9874,-378.5241 357.7665,-372.9166 366,-364 407.5441,-319.0088 360.8086,-276.3144 402,-231 406.48,-226.0715 412.029,-222.1099 417.9965,-218.9265"/>
<polygon fill="#191970" stroke="#191970" points="333.5576,-378.7031 324.7834,-384.6414 335.3457,-385.4709 333.5576,-378.7031"/>
</g>
<!-- Node265475 -->
<g id="node16" class="node">
<title>Node265475</title>
<g id="a_node16"><a xlink:href="quickjs_8c.html#a2355fabf91f59212ea65baba1b0b7c1b" target="_top" xlink:title="js_async_generator_next">
<polygon fill="none" stroke="#000000" points="406,-152.5 406,-171.5 531,-171.5 531,-152.5 406,-152.5"/>
<text text-anchor="middle" x="468.5" y="-159.5" font-family="Helvetica,sans-Serif" font-size="10.00" fill="#000000">js_async_generator_next</text>
</a>
</g>
</g>
<!-- Node265437&#45;&gt;Node265475 -->
<g id="edge18" class="edge">
<title>Node265437&#45;&gt;Node265475</title>
<path fill="none" stroke="#191970" d="M334.6823,-382.4491C346.1883,-378.957 358.0169,-373.268 366,-364 419.8136,-301.5251 346.5859,-243.0597 402,-182 405.9701,-177.6255 410.8566,-174.1929 416.1634,-171.5018"/>
<polygon fill="#191970" stroke="#191970" points="333.5797,-379.1184 324.7588,-384.9871 335.3142,-385.9001 333.5797,-379.1184"/>
</g>
<!-- Node265476 -->
<g id="node17" class="node">
<title>Node265476</title>
<g id="a_node17"><a xlink:href="quickjs_8c.html#a6357b7fdae71c70c140e78e6c20cb5c2" target="_top" xlink:title="js_dynamic_import_job">
<polygon fill="none" stroke="#ff0000" points="410.5,-114.5 410.5,-133.5 526.5,-133.5 526.5,-114.5 410.5,-114.5"/>
<text text-anchor="middle" x="468.5" y="-121.5" font-family="Helvetica,sans-Serif" font-size="10.00" fill="#000000">js_dynamic_import_job</text>
</a>
</g>
</g>
<!-- Node265437&#45;&gt;Node265476 -->
<g id="edge19" class="edge">
<title>Node265437&#45;&gt;Node265476</title>
<path fill="none" stroke="#191970" d="M334.5904,-382.681C346.1973,-379.21 358.1135,-373.475 366,-364 429.6643,-287.5117 335.859,-217.357 402,-143 405.4315,-139.1423 409.5864,-136.0444 414.1249,-133.5601"/>
<polygon fill="#191970" stroke="#191970" points="333.4306,-379.3632 324.579,-385.1855 335.1295,-386.1539 333.4306,-379.3632"/>
</g>
<!-- Node265478 -->
<g id="node18" class="node">
<title>Node265478</title>
<g id="a_node18"><a xlink:href="quickjs_8c.html#a8d4b24969540aff427939eeda47f451d" target="_top" xlink:title="js_function_apply">
<polygon fill="none" stroke="#ff0000" points="422.5,-76.5 422.5,-95.5 514.5,-95.5 514.5,-76.5 422.5,-76.5"/>
<text text-anchor="middle" x="468.5" y="-83.5" font-family="Helvetica,sans-Serif" font-size="10.00" fill="#000000">js_function_apply</text>
</a>
</g>
</g>
<!-- Node265437&#45;&gt;Node265478 -->
<g id="edge20" class="edge">
<title>Node265437&#45;&gt;Node265478</title>
<path fill="none" stroke="#191970" d="M334.7146,-382.7832C346.3331,-379.3217 358.2248,-373.5665 366,-364 439.2998,-273.813 325.7789,-192.7321 402,-105 407.3549,-98.8364 414.557,-94.6066 422.2472,-91.7183"/>
<polygon fill="#191970" stroke="#191970" points="333.5474,-379.4666 324.6852,-385.2729 335.2339,-386.2605 333.5474,-379.4666"/>
</g>
<!-- Node265481 -->
<g id="node19" class="node">
<title>Node265481</title>
<g id="a_node19"><a xlink:href="quickjs_8c.html#a677ad630a103e1f3d5129e0549112b50" target="_top" xlink:title="js_function_call">
<polygon fill="none" stroke="#000000" points="426.5,-754.5 426.5,-773.5 510.5,-773.5 510.5,-754.5 426.5,-754.5"/>
<text text-anchor="middle" x="468.5" y="-761.5" font-family="Helvetica,sans-Serif" font-size="10.00" fill="#000000">js_function_call</text>
</a>
</g>
</g>
<!-- Node265437&#45;&gt;Node265481 -->
<g id="edge22" class="edge">
<title>Node265437&#45;&gt;Node265481</title>
<path fill="none" stroke="#191970" d="M306.241,-407.4957C319.2837,-443.0423 347.1211,-520.9157 366,-588 385.3933,-656.9118 352.7356,-693.0582 402,-745 408.5276,-751.8824 417.3593,-756.3264 426.4513,-759.1816"/>
<polygon fill="#191970" stroke="#191970" points="309.4392,-406.0524 302.6945,-397.8817 302.8718,-408.4751 309.4392,-406.0524"/>
</g>
<!-- Node265447 -->
<g id="node20" class="node">
<title>Node265447</title>
<g id="a_node20"><a xlink:href="quickjs_8c.html#a5e32da9a43002cb96dcbd62a1a340144" target="_top" xlink:title="js_array_from">
<polygon fill="none" stroke="#000000" points="430.5,-716.5 430.5,-735.5 506.5,-735.5 506.5,-716.5 430.5,-716.5"/>
<text text-anchor="middle" x="468.5" y="-723.5" font-family="Helvetica,sans-Serif" font-size="10.00" fill="#000000">js_array_from</text>
</a>
</g>
</g>
<!-- Node265437&#45;&gt;Node265447 -->
<g id="edge23" class="edge">
<title>Node265437&#45;&gt;Node265447</title>
<path fill="none" stroke="#191970" d="M305.6153,-407.1229C317.8581,-442.6484 344.7386,-521.284 366,-588 382.7779,-640.6473 362.627,-668.2314 402,-707 409.6146,-714.4977 419.9722,-719.0786 430.2452,-721.8646"/>
<polygon fill="#191970" stroke="#191970" points="308.8797,-405.8532 302.3081,-397.5427 302.2629,-408.1374 308.8797,-405.8532"/>
</g>
<!-- Node265462 -->
<g id="node21" class="node">
<title>Node265462</title>
<g id="a_node21"><a xlink:href="quickjs_8c.html#aa0bbf08a7e91459c68a312fba7016c6d" target="_top" xlink:title="js_array_every">
<polygon fill="none" stroke="#000000" points="428.5,-678.5 428.5,-697.5 508.5,-697.5 508.5,-678.5 428.5,-678.5"/>
<text text-anchor="middle" x="468.5" y="-685.5" font-family="Helvetica,sans-Serif" font-size="10.00" fill="#000000">js_array_every</text>
</a>
</g>
</g>
<!-- Node265437&#45;&gt;Node265462 -->
<g id="edge24" class="edge">
<title>Node265437&#45;&gt;Node265462</title>
<path fill="none" stroke="#191970" d="M305.5433,-407.3208C326.5972,-469.2814 391.8129,-659.531 402,-669 409.2996,-675.785 418.8562,-680.1675 428.4389,-682.9923"/>
<polygon fill="#191970" stroke="#191970" points="308.7776,-405.9597 302.2501,-397.6145 302.1487,-408.2089 308.7776,-405.9597"/>
</g>
<!-- Node265482 -->
<g id="node22" class="node">
<title>Node265482</title>
<g id="a_node22"><a xlink:href="quickjs_8c.html#a36c1692489542a86dd79a7d39ab8ff95" target="_top" xlink:title="js_array_reduce">
<polygon fill="none" stroke="#000000" points="425.5,-640.5 425.5,-659.5 511.5,-659.5 511.5,-640.5 425.5,-640.5"/>
<text text-anchor="middle" x="468.5" y="-647.5" font-family="Helvetica,sans-Serif" font-size="10.00" fill="#000000">js_array_reduce</text>
</a>
</g>
</g>
<!-- Node265437&#45;&gt;Node265482 -->
<g id="edge25" class="edge">
<title>Node265437&#45;&gt;Node265482</title>
<path fill="none" stroke="#191970" d="M304.8036,-407.3014C320.7383,-459.1162 366.3498,-599.4734 402,-631 408.566,-636.8066 416.7947,-640.8465 425.204,-643.6553"/>
<polygon fill="#191970" stroke="#191970" points="308.129,-406.2066 301.868,-397.6597 301.4325,-408.2455 308.129,-406.2066"/>
</g>
<!-- Node265483 -->
<g id="node23" class="node">
<title>Node265483</title>
<g id="a_node23"><a xlink:href="quickjs_8c.html#a9dd41b086da4e13b3487cc9c6e2af2b8" target="_top" xlink:title="js_array_find">
<polygon fill="none" stroke="#000000" points="432.5,-602.5 432.5,-621.5 504.5,-621.5 504.5,-602.5 432.5,-602.5"/>
<text text-anchor="middle" x="468.5" y="-609.5" font-family="Helvetica,sans-Serif" font-size="10.00" fill="#000000">js_array_find</text>
</a>
</g>
</g>
<!-- Node265437&#45;&gt;Node265483 -->
<g id="edge26" class="edge">
<title>Node265437&#45;&gt;Node265483</title>
<path fill="none" stroke="#191970" d="M303.2704,-407.7068C313.1682,-448.587 341.5889,-542.9626 402,-593 410.5998,-600.123 421.7275,-604.5782 432.4115,-607.3639"/>
<polygon fill="#191970" stroke="#191970" points="306.6634,-406.8442 301.0048,-397.8871 299.8426,-408.418 306.6634,-406.8442"/>
</g>
<!-- Node265484 -->
<g id="node24" class="node">
<title>Node265484</title>
<g id="a_node24"><a xlink:href="quickjs_8c.html#ad90c33b4aae1181151bda4a98ac2ef23" target="_top" xlink:title="JS_FlattenIntoArray">
<polygon fill="none" stroke="#ff0000" points="416.5,-546.5 416.5,-565.5 520.5,-565.5 520.5,-546.5 416.5,-546.5"/>
<text text-anchor="middle" x="468.5" y="-553.5" font-family="Helvetica,sans-Serif" font-size="10.00" fill="#000000">JS_FlattenIntoArray</text>
</a>
</g>
</g>
<!-- Node265437&#45;&gt;Node265484 -->
<g id="edge27" class="edge">
<title>Node265437&#45;&gt;Node265484</title>
<path fill="none" stroke="#191970" d="M307.028,-407.2333C321.3239,-439.1074 354.2437,-502.7529 402,-537 407.3666,-540.8485 413.4968,-543.9204 419.8147,-546.3717"/>
<polygon fill="#191970" stroke="#191970" points="310.0942,-405.5072 302.8992,-397.7302 303.6739,-408.2967 310.0942,-405.5072"/>
</g>
<!-- Node265486 -->
<g id="node25" class="node">
<title>Node265486</title>
<g id="a_node25"><a xlink:href="quickjs_8c.html#aed1bf9ce4b9e3a82388679dd6ec7635b" target="_top" xlink:title="js_string_replace">
<polygon fill="none" stroke="#000000" points="423.5,-38.5 423.5,-57.5 513.5,-57.5 513.5,-38.5 423.5,-38.5"/>
<text text-anchor="middle" x="468.5" y="-45.5" font-family="Helvetica,sans-Serif" font-size="10.00" fill="#000000">js_string_replace</text>
</a>
</g>
</g>
<!-- Node265437&#45;&gt;Node265486 -->
<g id="edge29" class="edge">
<title>Node265437&#45;&gt;Node265486</title>
<path fill="none" stroke="#191970" d="M324.7835,-372.8288C339.3369,-362.8465 356.4685,-348.4185 366,-331 422.8458,-227.117 324.4507,-156.4942 402,-67 407.5828,-60.5573 415.1841,-56.2268 423.2547,-53.3324"/>
<polygon fill="#191970" stroke="#191970" points="322.6138,-370.065 316.1461,-378.4566 326.4353,-375.9299 322.6138,-370.065"/>
</g>
<!-- Node265487 -->
<g id="node26" class="node">
<title>Node265487</title>
<g id="a_node26"><a xlink:href="quickjs_8c.html#a624282391413d4c5a030adbd8b77aa80" target="_top" xlink:title="internalize_json_property">
<polygon fill="none" stroke="#ff0000" points="406,-490.5 406,-509.5 531,-509.5 531,-490.5 406,-490.5"/>
<text text-anchor="middle" x="468.5" y="-497.5" font-family="Helvetica,sans-Serif" font-size="10.00" fill="#000000">internalize_json_property</text>
</a>
</g>
</g>
<!-- Node265437&#45;&gt;Node265487 -->
<g id="edge30" class="edge">
<title>Node265437&#45;&gt;Node265487</title>
<path fill="none" stroke="#191970" d="M313.7694,-405.5222C332.3129,-426.4365 366.0752,-461.0764 402,-481 408.9303,-484.8435 416.7072,-487.968 424.4336,-490.4889"/>
<polygon fill="#191970" stroke="#191970" points="316.2051,-402.989 307.0056,-397.7336 310.9199,-407.5788 316.2051,-402.989"/>
</g>
<!-- Node265489 -->
<g id="node27" class="node">
<title>Node265489</title>
<g id="a_node27"><a xlink:href="quickjs_8c.html#a0da6493b4bc0edb7ddddfab807241d0b" target="_top" xlink:title="js_json_check">
<polygon fill="none" stroke="#ff0000" points="429,-.5 429,-19.5 508,-19.5 508,-.5 429,-.5"/>
<text text-anchor="middle" x="468.5" y="-7.5" font-family="Helvetica,sans-Serif" font-size="10.00" fill="#000000">js_json_check</text>
</a>
</g>
</g>
<!-- Node265437&#45;&gt;Node265489 -->
<g id="edge32" class="edge">
<title>Node265437&#45;&gt;Node265489</title>
<path fill="none" stroke="#191970" d="M324.8906,-372.8868C339.4819,-362.9251 356.6158,-348.4983 366,-331 429.8847,-211.8768 314.3449,-131.8989 402,-29 408.774,-21.0479 418.6242,-16.3064 428.6773,-13.5117"/>
<polygon fill="#191970" stroke="#191970" points="322.7158,-370.1253 316.226,-378.4999 326.5217,-376.0003 322.7158,-370.1253"/>
</g>
<!-- Node265493 -->
<g id="node28" class="node">
<title>Node265493</title>
<g id="a_node28"><a xlink:href="quickjs_8c.html#af97646b66d6fcb8bd19543d93baeadd7" target="_top" xlink:title="js_proxy_call_constructor">
<polygon fill="none" stroke="#ff0000" points="404.5,-452.5 404.5,-471.5 532.5,-471.5 532.5,-452.5 404.5,-452.5"/>
<text text-anchor="middle" x="468.5" y="-459.5" font-family="Helvetica,sans-Serif" font-size="10.00" fill="#000000">js_proxy_call_constructor</text>
</a>
</g>
</g>
<!-- Node265437&#45;&gt;Node265493 -->
<g id="edge33" class="edge">
<title>Node265437&#45;&gt;Node265493</title>
<path fill="none" stroke="#191970" d="M323.2006,-402.8192C343.6373,-414.8649 373.9699,-431.6618 402,-443 410.7935,-446.557 420.4925,-449.728 429.7008,-452.4125"/>
<polygon fill="#191970" stroke="#191970" points="324.9314,-399.7763 314.551,-397.6557 321.3434,-405.7868 324.9314,-399.7763"/>
</g>
<!-- Node265470&#45;&gt;Node265424 -->
<g id="edge13" class="edge">
<title>Node265470&#45;&gt;Node265424</title>
<path fill="none" stroke="#191970" d="M409.3504,-787.9188C406.7708,-786.4399 404.3033,-784.8058 402,-783 246.296,-660.927 171.3658,-411.8041 157.0642,-359.6903"/>
<polygon fill="#191970" stroke="#191970" points="407.9552,-791.1323 418.4772,-792.3721 411.0249,-784.8413 407.9552,-791.1323"/>
</g>
<!-- Node265478&#45;&gt;Node265424 -->
<g id="edge21" class="edge">
<title>Node265478&#45;&gt;Node265424</title>
<path fill="none" stroke="#191970" d="M412.9527,-96.201C408.8686,-98.572 405.131,-101.4676 402,-105 334.5344,-181.1149 440.3365,-261.5798 366,-331 320.3292,-373.6503 242.4173,-368.1517 194.9801,-359.5664"/>
<polygon fill="#191970" stroke="#191970" points="414.7723,-99.2138 422.3458,-91.8047 411.805,-92.8738 414.7723,-99.2138"/>
</g>
<!-- Node265484&#45;&gt;Node265484 -->
<g id="edge28" class="edge">
<title>Node265484&#45;&gt;Node265484</title>
<path fill="none" stroke="#191970" d="M437.0629,-574.2746C437.9592,-579.741 448.4382,-584 468.5,-584 498.3594,-584 506.9906,-574.5653 494.3937,-565.7571"/>
<polygon fill="#191970" stroke="#191970" points="440.085,-576.0475 442.6063,-565.7571 434.2181,-572.2291 440.085,-576.0475"/>
</g>
<!-- Node265487&#45;&gt;Node265487 -->
<g id="edge31" class="edge">
<title>Node265487&#45;&gt;Node265487</title>
<path fill="none" stroke="#191970" d="M437.0629,-518.2746C437.9592,-523.741 448.4382,-528 468.5,-528 498.3594,-528 506.9906,-518.5653 494.3937,-509.7571"/>
<polygon fill="#191970" stroke="#191970" points="440.085,-520.0475 442.6063,-509.7571 434.2181,-516.2291 440.085,-520.0475"/>
</g>
<!-- Node265511&#45;&gt;Node265424 -->
<g id="edge35" class="edge">
<title>Node265511&#45;&gt;Node265424</title>
<path fill="none" stroke="#191970" d="M274.6333,-286.6763C261.5753,-290.7533 245.4528,-295.4145 232,-302 210.3984,-312.5746 188.5771,-329.288 173.6182,-340.2863"/>
<polygon fill="#191970" stroke="#191970" points="275.9199,-289.9381 284.3391,-283.5063 273.7466,-283.284 275.9199,-289.9381"/>
</g>
<!-- Node265525&#45;&gt;Node265424 -->
<g id="edge37" class="edge">
<title>Node265525&#45;&gt;Node265424</title>
<path fill="none" stroke="#191970" d="M270.7961,-324.8979C249.5982,-331.8825 220.2201,-339.8432 196.2954,-345.1948"/>
<polygon fill="#191970" stroke="#191970" points="272.1689,-328.127 280.4855,-321.5632 269.8909,-321.508 272.1689,-328.127"/>
</g>
<!-- Node265525&#45;&gt;Node265486 -->
<g id="edge39" class="edge">
<title>Node265525&#45;&gt;Node265486</title>
<path fill="none" stroke="#191970" d="M344.4133,-306.6486C352.5737,-303.7571 360.2871,-299.4326 366,-293 433.5406,-216.9517 334.5344,-143.1149 402,-67 407.6547,-60.6203 415.288,-56.3179 423.3674,-53.4312"/>
<polygon fill="#191970" stroke="#191970" points="343.3708,-303.3063 334.7214,-309.425 345.2986,-310.0357 343.3708,-303.3063"/>
</g>
<!-- Node265525&#45;&gt;Node265489 -->
<g id="edge38" class="edge">
<title>Node265525&#45;&gt;Node265489</title>
<path fill="none" stroke="#191970" d="M344.5267,-306.7482C352.6784,-303.8491 360.3596,-299.4962 366,-293 443.6376,-203.5823 324.4507,-118.4942 402,-29 408.8409,-21.1054 418.7125,-16.3823 428.7647,-13.5868"/>
<polygon fill="#191970" stroke="#191970" points="343.4844,-303.4059 334.8353,-309.525 345.4125,-310.1351 343.4844,-303.4059"/>
</g>
</g>
</svg>
        <g id="navigator" transform="translate(0 0)" fill="#404254">
                <rect fill="#f2f5e9" fill-opacity="0.5" stroke="#606060" stroke-width=".5" x="0" y="0" width="60" height="60"/>
                <use id="zoomplus" xlink:href="#zoomPlus" x="17" y="9" onmousedown="handleZoom(evt,'in')"/>
                <use id="zoomminus" xlink:href="#zoomMin" x="42" y="9" onmousedown="handleZoom(evt,'out')"/>
                <use id="reset" xlink:href="#resetDef" x="30" y="36" onmousedown="handleReset()"/>
                <g id="arrowUp" xlink:href="#dirArrow" transform="translate(30 24)" onmousedown="handlePan(0,-1)">
                  <use xlink:href="#rim" fill="#404040">
                        <set attributeName="fill" to="#808080" begin="arrowUp.mouseover" end="arrowUp.mouseout"/>
                  </use>
                  <path fill="none" stroke="white" stroke-width="1.5" d="M0,-3.0v7 M-2.5,-0.5L0,-3.0L2.5,-0.5"/>
                </g>
                <g id="arrowRight" xlink:href="#dirArrow" transform="rotate(90) translate(36 -43)" onmousedown="handlePan(1,0)">
                  <use xlink:href="#rim" fill="#404040">
                        <set attributeName="fill" to="#808080" begin="arrowRight.mouseover" end="arrowRight.mouseout"/>
                  </use>
                  <path fill="none" stroke="white" stroke-width="1.5" d="M0,-3.0v7 M-2.5,-0.5L0,-3.0L2.5,-0.5"/>
                </g>
                <g id="arrowDown" xlink:href="#dirArrow" transform="rotate(180) translate(-30 -48)" onmousedown="handlePan(0,1)">
                  <use xlink:href="#rim" fill="#404040">
                        <set attributeName="fill" to="#808080" begin="arrowDown.mouseover" end="arrowDown.mouseout"/>
                  </use>
                  <path fill="none" stroke="white" stroke-width="1.5" d="M0,-3.0v7 M-2.5,-0.5L0,-3.0L2.5,-0.5"/>
                </g>
                <g id="arrowLeft" xlink:href="#dirArrow" transform="rotate(270) translate(-36 17)" onmousedown="handlePan(-1,0)">
                  <use xlink:href="#rim" fill="#404040">
                        <set attributeName="fill" to="#808080" begin="arrowLeft.mouseover" end="arrowLeft.mouseout"/>
                  </use>
                  <path fill="none" stroke="white" stroke-width="1.5" d="M0,-3.0v7 M-2.5,-0.5L0,-3.0L2.5,-0.5"/>
                </g>
        </g>
        <svg viewBox="0 0 15 15" width="100%" height="30px" preserveAspectRatio="xMaxYMin meet">
         <g id="arrow_out" transform="scale(0.3 0.3)">
          <a xlink:href="quickjs_8c_ad4da6445b7b08b23f5464ae9b51705bc_icgraph_org.svg" target="_base">
           <rect id="button" ry="5" rx="5" y="6" x="6" height="38" width="38"
                fill="#f2f5e9" fill-opacity="0.5" stroke="#606060" stroke-width="1.0"/>
           <path id="arrow"
             d="M 11.500037,31.436501 C 11.940474,20.09759 22.043105,11.32322 32.158766,21.979434 L 37.068811,17.246167 C 37.068811,17.246167 37.088388,32 37.088388,32 L 22.160133,31.978069 C 22.160133,31.978069 26.997745,27.140456 26.997745,27.140456 C 18.528582,18.264221 13.291696,25.230495 11.500037,31.436501 z"
             style="fill:#404040;"/>
          </a>
         </g>
        </svg>
</svg>
