<?xml version="1.0" encoding="UTF-8" standalone="no"?>
<!DOCTYPE svg PUBLIC "-//W3C//DTD SVG 1.1//EN"
 "http://www.w3.org/Graphics/SVG/1.1/DTD/svg11.dtd">
<!-- Generated by graphviz version 2.40.1 (20161225.0304)
 -->
<!-- Title: js_malloc_usable_size_rt Pages: 1 -->
<!--zoomable 198 -->
<svg id="main" version="1.1" xmlns="http://www.w3.org/2000/svg" xmlns:xlink="http://www.w3.org/1999/xlink" xml:space="preserve" onload="init(evt)">
<style type="text/css"><![CDATA[
.edge:hover path { stroke: red; }
.edge:hover polygon { stroke: red; fill: red; }
]]></style>
<script type="text/javascript"><![CDATA[
var edges = document.getElementsByTagName('g');
if (edges && edges.length) {
  for (var i=0;i<edges.length;i++) {
    if (edges[i].id.substr(0,4)=='edge') {
      edges[i].setAttribute('class','edge');
    }
  }
}
]]></script>
        <defs>
                <circle id="rim" cx="0" cy="0" r="7"/>
                <circle id="rim2" cx="0" cy="0" r="3.5"/>
                <g id="zoomPlus">
                        <use xlink:href="#rim" fill="#404040">
                                <set attributeName="fill" to="#808080" begin="zoomplus.mouseover" end="zoomplus.mouseout"/>
                        </use>
                        <path d="M-4,0h8M0,-4v8" fill="none" stroke="white" stroke-width="1.5" pointer-events="none"/>
                </g>
                <g id="zoomMin">
                        <use xlink:href="#rim" fill="#404040">
                                <set attributeName="fill" to="#808080" begin="zoomminus.mouseover" end="zoomminus.mouseout"/>
                        </use>
                        <path d="M-4,0h8" fill="none" stroke="white" stroke-width="1.5" pointer-events="none"/>
                </g>
                <g id="dirArrow">
                        <path fill="none" stroke="white" stroke-width="1.5" d="M0,-3.0v7 M-2.5,-0.5L0,-3.0L2.5,-0.5"/>
                </g>
               <g id="resetDef">
                       <use xlink:href="#rim2" fill="#404040">
                               <set attributeName="fill" to="#808080" begin="reset.mouseover" end="reset.mouseout"/>
                       </use>
               </g>
        </defs>

<script type="text/javascript">
var viewWidth = 664;
var viewHeight = 198;
var sectionId = 'dynsection-138';
</script>
<script xlink:href="svgpan.js"/>
<svg id="graph" class="graph">
<g id="viewport">
<title>js_malloc_usable_size_rt</title>
<!-- Node52805 -->
<g id="node1" class="node">
<title>Node52805</title>
<polygon fill="#bfbfbf" stroke="#000000" points="0,-113.5 0,-132.5 126,-132.5 126,-113.5 0,-113.5"/>
<text text-anchor="middle" x="63" y="-120.5" font-family="Helvetica,sans-Serif" font-size="10.00" fill="#000000">js_malloc_usable_size_rt</text>
</g>
<!-- Node52806 -->
<g id="node2" class="node">
<title>Node52806</title>
<g id="a_node2"><a xlink:href="quickjs_8c.html#a2424196308d86d1a8c2bb410ca279be4" target="_top" xlink:title="JS_DumpMemoryUsage">
<polygon fill="none" stroke="#000000" points="162,-132.5 162,-151.5 286,-151.5 286,-132.5 162,-132.5"/>
<text text-anchor="middle" x="224" y="-139.5" font-family="Helvetica,sans-Serif" font-size="10.00" fill="#000000">JS_DumpMemoryUsage</text>
</a>
</g>
</g>
<!-- Node52805&#45;&gt;Node52806 -->
<g id="edge1" class="edge">
<title>Node52805&#45;&gt;Node52806</title>
<path fill="none" stroke="#191970" d="M136.1539,-131.6331C144.723,-132.6443 153.4042,-133.6688 161.8045,-134.6602"/>
<polygon fill="#191970" stroke="#191970" points="136.5107,-128.151 126.1694,-130.4548 135.6902,-135.1027 136.5107,-128.151"/>
</g>
<!-- Node52807 -->
<g id="node3" class="node">
<title>Node52807</title>
<g id="a_node3"><a xlink:href="quickjs_8c.html#ade5954b108a45072dff068d11f1c6d10" target="_top" xlink:title="js_malloc_usable_size">
<polygon fill="none" stroke="#000000" points="166.5,-94.5 166.5,-113.5 281.5,-113.5 281.5,-94.5 166.5,-94.5"/>
<text text-anchor="middle" x="224" y="-101.5" font-family="Helvetica,sans-Serif" font-size="10.00" fill="#000000">js_malloc_usable_size</text>
</a>
</g>
</g>
<!-- Node52805&#45;&gt;Node52807 -->
<g id="edge2" class="edge">
<title>Node52805&#45;&gt;Node52807</title>
<path fill="none" stroke="#191970" d="M136.1791,-114.364C146.264,-113.1738 156.5035,-111.9654 166.2573,-110.8144"/>
<polygon fill="#191970" stroke="#191970" points="135.6902,-110.8973 126.1694,-115.5452 136.5107,-117.849 135.6902,-110.8973"/>
</g>
<!-- Node52808 -->
<g id="node4" class="node">
<title>Node52808</title>
<g id="a_node4"><a xlink:href="quickjs_8c.html#ab6d8a1a52baf4d686aed594b996699d7" target="_top" xlink:title="JS_ConcatString">
<polygon fill="none" stroke="#000000" points="322,-94.5 322,-113.5 413,-113.5 413,-94.5 322,-94.5"/>
<text text-anchor="middle" x="367.5" y="-101.5" font-family="Helvetica,sans-Serif" font-size="10.00" fill="#000000">JS_ConcatString</text>
</a>
</g>
</g>
<!-- Node52807&#45;&gt;Node52808 -->
<g id="edge3" class="edge">
<title>Node52807&#45;&gt;Node52808</title>
<path fill="none" stroke="#191970" d="M291.6973,-104C301.922,-104 312.2569,-104 321.8677,-104"/>
<polygon fill="#191970" stroke="#191970" points="291.5401,-100.5001 281.5401,-104 291.5401,-107.5001 291.5401,-100.5001"/>
</g>
<!-- Node52809 -->
<g id="node5" class="node">
<title>Node52809</title>
<g id="a_node5"><a xlink:href="quickjs_8c.html#ae8ff05447c0d51fe277baccf616dc7c6" target="_top" xlink:title="js_add_slow">
<polygon fill="none" stroke="#000000" points="457.5,-170.5 457.5,-189.5 528.5,-189.5 528.5,-170.5 457.5,-170.5"/>
<text text-anchor="middle" x="493" y="-177.5" font-family="Helvetica,sans-Serif" font-size="10.00" fill="#000000">js_add_slow</text>
</a>
</g>
</g>
<!-- Node52808&#45;&gt;Node52809 -->
<g id="edge4" class="edge">
<title>Node52808&#45;&gt;Node52809</title>
<path fill="none" stroke="#191970" d="M390.5053,-119.2741C406.6878,-129.8707 428.9477,-144.153 449,-156 457.3906,-160.9572 466.8613,-166.1706 474.861,-170.4672"/>
<polygon fill="#191970" stroke="#191970" points="392.0197,-116.0808 381.7422,-113.5071 388.1716,-121.9282 392.0197,-116.0808"/>
</g>
<!-- Node52810 -->
<g id="node6" class="node">
<title>Node52810</title>
<g id="a_node6"><a xlink:href="quickjs_8c.html#ac2894ff4edcdb4e6841bcce9c76081e3" target="_top" xlink:title="JS_CallInternal">
<polygon fill="none" stroke="#ff0000" points="573,-151.5 573,-170.5 656,-170.5 656,-151.5 573,-151.5"/>
<text text-anchor="middle" x="614.5" y="-158.5" font-family="Helvetica,sans-Serif" font-size="10.00" fill="#000000">JS_CallInternal</text>
</a>
</g>
</g>
<!-- Node52808&#45;&gt;Node52810 -->
<g id="edge7" class="edge">
<title>Node52808&#45;&gt;Node52810</title>
<path fill="none" stroke="#191970" d="M418.4687,-115.9099C428.5839,-118.2657 439.127,-120.7157 449,-123 491.0771,-132.7353 539.1949,-143.7728 572.6599,-151.4339"/>
<polygon fill="#191970" stroke="#191970" points="419.0703,-112.4564 408.5369,-113.5951 417.4814,-119.2737 419.0703,-112.4564"/>
</g>
<!-- Node53291 -->
<g id="node7" class="node">
<title>Node53291</title>
<g id="a_node7"><a xlink:href="quickjs_8c.html#a367aedcd65b39452fb00ce58dac0c6f6" target="_top" xlink:title="js_error_toString">
<polygon fill="none" stroke="#000000" points="449,-94.5 449,-113.5 537,-113.5 537,-94.5 449,-94.5"/>
<text text-anchor="middle" x="493" y="-101.5" font-family="Helvetica,sans-Serif" font-size="10.00" fill="#000000">js_error_toString</text>
</a>
</g>
</g>
<!-- Node52808&#45;&gt;Node53291 -->
<g id="edge8" class="edge">
<title>Node52808&#45;&gt;Node53291</title>
<path fill="none" stroke="#191970" d="M423.4222,-104C431.9366,-104 440.6208,-104 448.8375,-104"/>
<polygon fill="#191970" stroke="#191970" points="423.1634,-100.5001 413.1634,-104 423.1634,-107.5001 423.1634,-100.5001"/>
</g>
<!-- Node53300 -->
<g id="node8" class="node">
<title>Node53300</title>
<g id="a_node8"><a xlink:href="quickjs_8c.html#ad15d899d5566569437570ab09c3f1f33" target="_top" xlink:title="js_string_concat">
<polygon fill="none" stroke="#000000" points="449,-56.5 449,-75.5 537,-75.5 537,-56.5 449,-56.5"/>
<text text-anchor="middle" x="493" y="-63.5" font-family="Helvetica,sans-Serif" font-size="10.00" fill="#000000">js_string_concat</text>
</a>
</g>
</g>
<!-- Node52808&#45;&gt;Node53300 -->
<g id="edge9" class="edge">
<title>Node52808&#45;&gt;Node53300</title>
<path fill="none" stroke="#191970" d="M408.8995,-91.4647C425.9723,-86.2952 445.4391,-80.4009 461.3412,-75.5859"/>
<polygon fill="#191970" stroke="#191970" points="407.7255,-88.1632 399.1689,-94.411 409.7541,-94.8628 407.7255,-88.1632"/>
</g>
<!-- Node52876 -->
<g id="node9" class="node">
<title>Node52876</title>
<g id="a_node9"><a xlink:href="quickjs_8c.html#a60d84dd116a9d7d912d08f298a4734dd" target="_top" xlink:title="js_json_to_str">
<polygon fill="none" stroke="#ff0000" points="454.5,-.5 454.5,-19.5 531.5,-19.5 531.5,-.5 454.5,-.5"/>
<text text-anchor="middle" x="493" y="-7.5" font-family="Helvetica,sans-Serif" font-size="10.00" fill="#000000">js_json_to_str</text>
</a>
</g>
</g>
<!-- Node52808&#45;&gt;Node52876 -->
<g id="edge10" class="edge">
<title>Node52808&#45;&gt;Node52876</title>
<path fill="none" stroke="#191970" d="M388.6172,-88.1832C414.8457,-68.5378 458.7574,-35.6479 480.2994,-19.5128"/>
<polygon fill="#191970" stroke="#191970" points="386.3636,-85.4981 380.458,-94.2944 390.5601,-91.1008 386.3636,-85.4981"/>
</g>
<!-- Node52809&#45;&gt;Node52810 -->
<g id="edge5" class="edge">
<title>Node52809&#45;&gt;Node52810</title>
<path fill="none" stroke="#191970" d="M538.8401,-172.8316C550.0488,-171.0788 561.9793,-169.2131 572.9734,-167.4939"/>
<polygon fill="#191970" stroke="#191970" points="538.136,-169.3991 528.7969,-174.4021 539.2176,-176.315 538.136,-169.3991"/>
</g>
<!-- Node52810&#45;&gt;Node52810 -->
<g id="edge6" class="edge">
<title>Node52810&#45;&gt;Node52810</title>
<path fill="none" stroke="#191970" d="M592.1787,-180.0292C593.3962,-185.128 600.8367,-189 614.5,-189 635.8281,-189 641.9933,-179.5653 632.9955,-170.7571"/>
<polygon fill="#191970" stroke="#191970" points="595.4256,-181.3361 596.0045,-170.7571 588.9548,-178.6661 595.4256,-181.3361"/>
</g>
<!-- Node52876&#45;&gt;Node52876 -->
<g id="edge11" class="edge">
<title>Node52876&#45;&gt;Node52876</title>
<path fill="none" stroke="#191970" d="M470.6787,-29.0292C471.8962,-34.128 479.3367,-38 493,-38 514.3281,-38 520.4933,-28.5653 511.4955,-19.7571"/>
<polygon fill="#191970" stroke="#191970" points="473.9256,-30.3361 474.5045,-19.7571 467.4548,-27.6661 473.9256,-30.3361"/>
</g>
</g>
</svg>
        <g id="navigator" transform="translate(0 0)" fill="#404254">
                <rect fill="#f2f5e9" fill-opacity="0.5" stroke="#606060" stroke-width=".5" x="0" y="0" width="60" height="60"/>
                <use id="zoomplus" xlink:href="#zoomPlus" x="17" y="9" onmousedown="handleZoom(evt,'in')"/>
                <use id="zoomminus" xlink:href="#zoomMin" x="42" y="9" onmousedown="handleZoom(evt,'out')"/>
                <use id="reset" xlink:href="#resetDef" x="30" y="36" onmousedown="handleReset()"/>
                <g id="arrowUp" xlink:href="#dirArrow" transform="translate(30 24)" onmousedown="handlePan(0,-1)">
                  <use xlink:href="#rim" fill="#404040">
                        <set attributeName="fill" to="#808080" begin="arrowUp.mouseover" end="arrowUp.mouseout"/>
                  </use>
                  <path fill="none" stroke="white" stroke-width="1.5" d="M0,-3.0v7 M-2.5,-0.5L0,-3.0L2.5,-0.5"/>
                </g>
                <g id="arrowRight" xlink:href="#dirArrow" transform="rotate(90) translate(36 -43)" onmousedown="handlePan(1,0)">
                  <use xlink:href="#rim" fill="#404040">
                        <set attributeName="fill" to="#808080" begin="arrowRight.mouseover" end="arrowRight.mouseout"/>
                  </use>
                  <path fill="none" stroke="white" stroke-width="1.5" d="M0,-3.0v7 M-2.5,-0.5L0,-3.0L2.5,-0.5"/>
                </g>
                <g id="arrowDown" xlink:href="#dirArrow" transform="rotate(180) translate(-30 -48)" onmousedown="handlePan(0,1)">
                  <use xlink:href="#rim" fill="#404040">
                        <set attributeName="fill" to="#808080" begin="arrowDown.mouseover" end="arrowDown.mouseout"/>
                  </use>
                  <path fill="none" stroke="white" stroke-width="1.5" d="M0,-3.0v7 M-2.5,-0.5L0,-3.0L2.5,-0.5"/>
                </g>
                <g id="arrowLeft" xlink:href="#dirArrow" transform="rotate(270) translate(-36 17)" onmousedown="handlePan(-1,0)">
                  <use xlink:href="#rim" fill="#404040">
                        <set attributeName="fill" to="#808080" begin="arrowLeft.mouseover" end="arrowLeft.mouseout"/>
                  </use>
                  <path fill="none" stroke="white" stroke-width="1.5" d="M0,-3.0v7 M-2.5,-0.5L0,-3.0L2.5,-0.5"/>
                </g>
        </g>
        <svg viewBox="0 0 15 15" width="100%" height="30px" preserveAspectRatio="xMaxYMin meet">
         <g id="arrow_out" transform="scale(0.3 0.3)">
          <a xlink:href="quickjs_8c_a9a3248be6328b083907b3655ec93777b_icgraph_org.svg" target="_base">
           <rect id="button" ry="5" rx="5" y="6" x="6" height="38" width="38"
                fill="#f2f5e9" fill-opacity="0.5" stroke="#606060" stroke-width="1.0"/>
           <path id="arrow"
             d="M 11.500037,31.436501 C 11.940474,20.09759 22.043105,11.32322 32.158766,21.979434 L 37.068811,17.246167 C 37.068811,17.246167 37.088388,32 37.088388,32 L 22.160133,31.978069 C 22.160133,31.978069 26.997745,27.140456 26.997745,27.140456 C 18.528582,18.264221 13.291696,25.230495 11.500037,31.436501 z"
             style="fill:#404040;"/>
          </a>
         </g>
        </svg>
</svg>
