<?xml version="1.0" encoding="UTF-8" standalone="no"?>
<!DOCTYPE svg PUBLIC "-//W3C//DTD SVG 1.1//EN"
 "http://www.w3.org/Graphics/SVG/1.1/DTD/svg11.dtd">
<!-- Generated by graphviz version 2.40.1 (20161225.0304)
 -->
<!-- Title: JS_AddIntrinsicRegExpCompiler Pages: 1 -->
<svg width="898pt" height="788pt"
 viewBox="0.00 0.00 898.00 788.00" xmlns="http://www.w3.org/2000/svg" xmlns:xlink="http://www.w3.org/1999/xlink">
<g id="graph0" class="graph" transform="scale(1 1) rotate(0) translate(4 784)">
<title>JS_AddIntrinsicRegExpCompiler</title>
<!-- Node411089 -->
<g id="node1" class="node">
<title>Node411089</title>
<polygon fill="#bfbfbf" stroke="#000000" points="0,-646.5 0,-665.5 160,-665.5 160,-646.5 0,-646.5"/>
<text text-anchor="middle" x="80" y="-653.5" font-family="Helvetica,sans-Serif" font-size="10.00" fill="#000000">JS_AddIntrinsicRegExpCompiler</text>
</g>
<!-- Node411090 -->
<g id="node2" class="node">
<title>Node411090</title>
<g id="a_node2"><a xlink:href="quickjs_8c.html#ab0bd3fbfe9b7f004c067b103a6d60d03" target="_top" xlink:title="js_compile_regexp">
<polygon fill="none" stroke="#000000" points="196,-646.5 196,-665.5 294,-665.5 294,-646.5 196,-646.5"/>
<text text-anchor="middle" x="245" y="-653.5" font-family="Helvetica,sans-Serif" font-size="10.00" fill="#000000">js_compile_regexp</text>
</a>
</g>
</g>
<!-- Node411089&#45;&gt;Node411090 -->
<g id="edge1" class="edge">
<title>Node411089&#45;&gt;Node411090</title>
<path fill="none" stroke="#191970" d="M160.0833,-656C168.6277,-656 177.2068,-656 185.4534,-656"/>
<polygon fill="#191970" stroke="#191970" points="185.6937,-659.5001 195.6936,-656 185.6936,-652.5001 185.6937,-659.5001"/>
</g>
<!-- Node411091 -->
<g id="node3" class="node">
<title>Node411091</title>
<g id="a_node3"><a xlink:href="quickjs_8c.html#a80e54dcf9ac687d4ccc2f90273565f30" target="_top" xlink:title="js_free">
<polygon fill="none" stroke="#000000" points="354,-760.5 354,-779.5 400,-779.5 400,-760.5 354,-760.5"/>
<text text-anchor="middle" x="377" y="-767.5" font-family="Helvetica,sans-Serif" font-size="10.00" fill="#000000">js_free</text>
</a>
</g>
</g>
<!-- Node411090&#45;&gt;Node411091 -->
<g id="edge2" class="edge">
<title>Node411090&#45;&gt;Node411091</title>
<path fill="none" stroke="#191970" d="M251.3606,-665.6739C264.1707,-684.4867 294.8713,-726.3152 330,-751 334.3882,-754.0836 339.3504,-756.7757 344.3646,-759.088"/>
<polygon fill="#191970" stroke="#191970" points="343.357,-762.4596 353.9342,-763.0697 346.046,-755.9967 343.357,-762.4596"/>
</g>
<!-- Node411093 -->
<g id="node5" class="node">
<title>Node411093</title>
<g id="a_node5"><a xlink:href="quickjs_8c.html#ae0bc4f65da64810facb2cb9e476eda2e" target="_top" xlink:title="JS_FreeCString">
<polygon fill="none" stroke="#000000" points="334,-722.5 334,-741.5 420,-741.5 420,-722.5 334,-722.5"/>
<text text-anchor="middle" x="377" y="-729.5" font-family="Helvetica,sans-Serif" font-size="10.00" fill="#000000">JS_FreeCString</text>
</a>
</g>
</g>
<!-- Node411090&#45;&gt;Node411093 -->
<g id="edge4" class="edge">
<title>Node411090&#45;&gt;Node411093</title>
<path fill="none" stroke="#191970" d="M257.4468,-665.5498C273.5717,-677.6338 302.8417,-698.6032 330,-713 333.5722,-714.8936 337.3758,-716.7195 341.2127,-718.4409"/>
<polygon fill="#191970" stroke="#191970" points="340.1342,-721.7857 350.706,-722.4838 342.877,-715.3454 340.1342,-721.7857"/>
</g>
<!-- Node411128 -->
<g id="node7" class="node">
<title>Node411128</title>
<g id="a_node7"><a xlink:href="quickjs_8h.html#a4e407128a9605afb77523e49e9a627fd" target="_top" xlink:title="JS_IsUndefined">
<polygon fill="none" stroke="#000000" points="334,-684.5 334,-703.5 420,-703.5 420,-684.5 334,-684.5"/>
<text text-anchor="middle" x="377" y="-691.5" font-family="Helvetica,sans-Serif" font-size="10.00" fill="#000000">JS_IsUndefined</text>
</a>
</g>
</g>
<!-- Node411090&#45;&gt;Node411128 -->
<g id="edge6" class="edge">
<title>Node411090&#45;&gt;Node411128</title>
<path fill="none" stroke="#191970" d="M278.3092,-665.589C295.1928,-670.4494 315.8948,-676.4091 333.9705,-681.6127"/>
<polygon fill="#191970" stroke="#191970" points="333.1235,-685.011 343.7015,-684.4141 335.06,-678.2842 333.1235,-685.011"/>
</g>
<!-- Node411129 -->
<g id="node8" class="node">
<title>Node411129</title>
<g id="a_node8"><a xlink:href="quickjs_8c.html#aa923510185fe24e3083baf7405b09f51" target="_top" xlink:title="js_new_string8">
<polygon fill="none" stroke="#000000" points="336,-570.5 336,-589.5 418,-589.5 418,-570.5 336,-570.5"/>
<text text-anchor="middle" x="377" y="-577.5" font-family="Helvetica,sans-Serif" font-size="10.00" fill="#000000">js_new_string8</text>
</a>
</g>
</g>
<!-- Node411090&#45;&gt;Node411129 -->
<g id="edge7" class="edge">
<title>Node411090&#45;&gt;Node411129</title>
<path fill="none" stroke="#191970" d="M257.4468,-646.4502C273.5717,-634.3662 302.8417,-613.3968 330,-599 333.5722,-597.1064 337.3758,-595.2805 341.2127,-593.5591"/>
<polygon fill="#191970" stroke="#191970" points="342.877,-596.6546 350.706,-589.5162 340.1342,-590.2143 342.877,-596.6546"/>
</g>
<!-- Node411155 -->
<g id="node11" class="node">
<title>Node411155</title>
<g id="a_node11"><a xlink:href="quickjs_8h.html#a1e7f56471f8608df9405987087a56070" target="_top" xlink:title="JS_ToCStringLen">
<polygon fill="none" stroke="#000000" points="330,-608.5 330,-627.5 424,-627.5 424,-608.5 330,-608.5"/>
<text text-anchor="middle" x="377" y="-615.5" font-family="Helvetica,sans-Serif" font-size="10.00" fill="#000000">JS_ToCStringLen</text>
</a>
</g>
</g>
<!-- Node411090&#45;&gt;Node411155 -->
<g id="edge10" class="edge">
<title>Node411090&#45;&gt;Node411155</title>
<path fill="none" stroke="#191970" d="M278.3092,-646.411C295.1928,-641.5506 315.8948,-635.5909 333.9705,-630.3873"/>
<polygon fill="#191970" stroke="#191970" points="335.06,-633.7158 343.7015,-627.5859 333.1235,-626.989 335.06,-633.7158"/>
</g>
<!-- Node411156 -->
<g id="node12" class="node">
<title>Node411156</title>
<g id="a_node12"><a xlink:href="quickjs_8c.html#af49e67b73f845dc1f9c3ee648dd9f95c" target="_top" xlink:title="JS_ToCStringLen2">
<polygon fill="none" stroke="#ff0000" points="464,-646.5 464,-665.5 563,-665.5 563,-646.5 464,-646.5"/>
<text text-anchor="middle" x="513.5" y="-653.5" font-family="Helvetica,sans-Serif" font-size="10.00" fill="#000000">JS_ToCStringLen2</text>
</a>
</g>
</g>
<!-- Node411090&#45;&gt;Node411156 -->
<g id="edge14" class="edge">
<title>Node411090&#45;&gt;Node411156</title>
<path fill="none" stroke="#191970" d="M294.247,-656C339.0993,-656 405.4555,-656 453.4123,-656"/>
<polygon fill="#191970" stroke="#191970" points="453.6559,-659.5001 463.6559,-656 453.6559,-652.5001 453.6559,-659.5001"/>
</g>
<!-- Node411520 -->
<g id="node13" class="node">
<title>Node411520</title>
<g id="a_node13"><a xlink:href="libregexp_8h.html#a9f2d004d841acbf42a7cf0490258b5ab" target="_top" xlink:title="lre_compile">
<polygon fill="none" stroke="#000000" points="344,-285.5 344,-304.5 410,-304.5 410,-285.5 344,-285.5"/>
<text text-anchor="middle" x="377" y="-292.5" font-family="Helvetica,sans-Serif" font-size="10.00" fill="#000000">lre_compile</text>
</a>
</g>
</g>
<!-- Node411090&#45;&gt;Node411520 -->
<g id="edge15" class="edge">
<title>Node411090&#45;&gt;Node411520</title>
<path fill="none" stroke="#191970" d="M248.5307,-646.3441C266.2794,-597.8042 345.8555,-380.1756 370.0195,-314.0906"/>
<polygon fill="#191970" stroke="#191970" points="373.3727,-315.1118 373.5197,-304.518 366.7984,-312.7079 373.3727,-315.1118"/>
</g>
<!-- Node411092 -->
<g id="node4" class="node">
<title>Node411092</title>
<g id="a_node4"><a xlink:href="quickjs_8c.html#a69e19dda8a93d613203e0baa06f0ed8d" target="_top" xlink:title="js_free_rt">
<polygon fill="none" stroke="#000000" points="485,-760.5 485,-779.5 542,-779.5 542,-760.5 485,-760.5"/>
<text text-anchor="middle" x="513.5" y="-767.5" font-family="Helvetica,sans-Serif" font-size="10.00" fill="#000000">js_free_rt</text>
</a>
</g>
</g>
<!-- Node411091&#45;&gt;Node411092 -->
<g id="edge3" class="edge">
<title>Node411091&#45;&gt;Node411092</title>
<path fill="none" stroke="#191970" d="M400.1554,-770C420.4302,-770 450.3152,-770 474.3086,-770"/>
<polygon fill="#191970" stroke="#191970" points="474.5232,-773.5001 484.5232,-770 474.5231,-766.5001 474.5232,-773.5001"/>
</g>
<!-- Node411094 -->
<g id="node6" class="node">
<title>Node411094</title>
<g id="a_node6"><a xlink:href="quickjs_8h.html#afaa20c47565bc704c6c85f3d77254e7d" target="_top" xlink:title="JS_FreeValue">
<polygon fill="none" stroke="#ff0000" points="607,-674.5 607,-693.5 685,-693.5 685,-674.5 607,-674.5"/>
<text text-anchor="middle" x="646" y="-681.5" font-family="Helvetica,sans-Serif" font-size="10.00" fill="#000000">JS_FreeValue</text>
</a>
</g>
</g>
<!-- Node411093&#45;&gt;Node411094 -->
<g id="edge5" class="edge">
<title>Node411093&#45;&gt;Node411094</title>
<path fill="none" stroke="#191970" d="M420.2195,-724.288C468.4329,-715.6848 546.2754,-701.7947 596.7914,-692.7807"/>
<polygon fill="#191970" stroke="#191970" points="597.5947,-696.1927 606.8244,-690.9904 596.365,-689.3016 597.5947,-696.1927"/>
</g>
<!-- Node411130 -->
<g id="node9" class="node">
<title>Node411130</title>
<g id="a_node9"><a xlink:href="quickjs_8c.html#ad303a9bc56766627b5fca41574933930" target="_top" xlink:title="js_alloc_string">
<polygon fill="none" stroke="#ff0000" points="606.5,-617.5 606.5,-636.5 685.5,-636.5 685.5,-617.5 606.5,-617.5"/>
<text text-anchor="middle" x="646" y="-624.5" font-family="Helvetica,sans-Serif" font-size="10.00" fill="#000000">js_alloc_string</text>
</a>
</g>
</g>
<!-- Node411129&#45;&gt;Node411130 -->
<g id="edge8" class="edge">
<title>Node411129&#45;&gt;Node411130</title>
<path fill="none" stroke="#191970" d="M418.2234,-581.263C457.0185,-583.122 516.5331,-587.7071 567,-599 582.9218,-602.5628 600.0514,-608.376 614.2764,-613.7849"/>
<polygon fill="#191970" stroke="#191970" points="613.0218,-617.0523 623.6099,-617.4322 615.5697,-610.5325 613.0218,-617.0523"/>
</g>
<!-- Node411134 -->
<g id="node10" class="node">
<title>Node411134</title>
<g id="a_node10"><a xlink:href="quickjs_8c.html#a260bfa297ff6cb5bd18e229afaa54663" target="_top" xlink:title="JS_AtomToString">
<polygon fill="none" stroke="#ff0000" points="466.5,-608.5 466.5,-627.5 560.5,-627.5 560.5,-608.5 466.5,-608.5"/>
<text text-anchor="middle" x="513.5" y="-615.5" font-family="Helvetica,sans-Serif" font-size="10.00" fill="#000000">JS_AtomToString</text>
</a>
</g>
</g>
<!-- Node411129&#45;&gt;Node411134 -->
<g id="edge9" class="edge">
<title>Node411129&#45;&gt;Node411134</title>
<path fill="none" stroke="#191970" d="M411.4447,-589.589C428.9847,-594.4719 450.51,-600.4643 469.2631,-605.685"/>
<polygon fill="#191970" stroke="#191970" points="468.494,-609.1039 479.0663,-608.4141 470.3713,-602.3603 468.494,-609.1039"/>
</g>
<!-- Node411155&#45;&gt;Node411156 -->
<g id="edge11" class="edge">
<title>Node411155&#45;&gt;Node411156</title>
<path fill="none" stroke="#191970" d="M411.4447,-627.589C428.9847,-632.4719 450.51,-638.4643 469.2631,-643.685"/>
<polygon fill="#191970" stroke="#191970" points="468.494,-647.1039 479.0663,-646.4141 470.3713,-640.3603 468.494,-647.1039"/>
</g>
<!-- Node411156&#45;&gt;Node411094 -->
<g id="edge13" class="edge">
<title>Node411156&#45;&gt;Node411094</title>
<path fill="none" stroke="#191970" d="M558.7284,-665.5577C571.0327,-668.1579 584.4163,-670.9861 596.9229,-673.629"/>
<polygon fill="#191970" stroke="#191970" points="596.2199,-677.0577 606.7275,-675.7009 597.6672,-670.2089 596.2199,-677.0577"/>
</g>
<!-- Node411156&#45;&gt;Node411130 -->
<g id="edge12" class="edge">
<title>Node411156&#45;&gt;Node411130</title>
<path fill="none" stroke="#191970" d="M557.2527,-646.4239C569.7433,-643.6901 583.4446,-640.6914 596.2646,-637.8855"/>
<polygon fill="#191970" stroke="#191970" points="597.2968,-641.2425 606.3172,-635.6853 595.8001,-634.4044 597.2968,-641.2425"/>
</g>
<!-- Node411521 -->
<g id="node14" class="node">
<title>Node411521</title>
<g id="a_node14"><a xlink:href="libregexp_8c.html#a0a619a0b3bf0d0ec3aa0a9a59d610e1c" target="_top" xlink:title="__attribute__">
<polygon fill="none" stroke="#000000" points="477,-342.5 477,-361.5 550,-361.5 550,-342.5 477,-342.5"/>
<text text-anchor="middle" x="513.5" y="-349.5" font-family="Helvetica,sans-Serif" font-size="10.00" fill="#000000">__attribute__</text>
</a>
</g>
</g>
<!-- Node411520&#45;&gt;Node411521 -->
<g id="edge16" class="edge">
<title>Node411520&#45;&gt;Node411521</title>
<path fill="none" stroke="#191970" d="M396.5755,-304.5544C413.2611,-312.5549 437.9706,-324.0656 460,-333 464.8981,-334.9865 470.0916,-336.9745 475.242,-338.8761"/>
<polygon fill="#191970" stroke="#191970" points="474.4097,-342.2968 485.004,-342.4036 476.7886,-335.7134 474.4097,-342.2968"/>
</g>
<!-- Node411522 -->
<g id="node15" class="node">
<title>Node411522</title>
<g id="a_node15"><a xlink:href="libregexp_8c.html#a09c49010ae229bc3a53575addc5f7c40" target="_top" xlink:title="compute_stack_size">
<polygon fill="none" stroke="#ff0000" points="460,-304.5 460,-323.5 567,-323.5 567,-304.5 460,-304.5"/>
<text text-anchor="middle" x="513.5" y="-311.5" font-family="Helvetica,sans-Serif" font-size="10.00" fill="#000000">compute_stack_size</text>
</a>
</g>
</g>
<!-- Node411520&#45;&gt;Node411522 -->
<g id="edge17" class="edge">
<title>Node411520&#45;&gt;Node411522</title>
<path fill="none" stroke="#191970" d="M410.0428,-299.5994C422.1061,-301.2785 436.1902,-303.2389 450.0125,-305.1629"/>
<polygon fill="#191970" stroke="#191970" points="449.6113,-308.6407 459.9984,-306.5529 450.5765,-301.7076 449.6113,-308.6407"/>
</g>
<!-- Node411226 -->
<g id="node16" class="node">
<title>Node411226</title>
<g id="a_node16"><a xlink:href="cutils_8h.html#a1fed0a329cb7bb0e04283285037921a4" target="_top" xlink:title="dbuf_error">
<polygon fill="none" stroke="#000000" points="483.5,-266.5 483.5,-285.5 543.5,-285.5 543.5,-266.5 483.5,-266.5"/>
<text text-anchor="middle" x="513.5" y="-273.5" font-family="Helvetica,sans-Serif" font-size="10.00" fill="#000000">dbuf_error</text>
</a>
</g>
</g>
<!-- Node411520&#45;&gt;Node411226 -->
<g id="edge18" class="edge">
<title>Node411520&#45;&gt;Node411226</title>
<path fill="none" stroke="#191970" d="M410.0428,-290.4006C428.9903,-287.7633 452.923,-284.432 472.9965,-281.6379"/>
<polygon fill="#191970" stroke="#191970" points="473.673,-285.0775 483.095,-280.2322 472.7079,-278.1444 473.673,-285.0775"/>
</g>
<!-- Node411227 -->
<g id="node17" class="node">
<title>Node411227</title>
<g id="a_node17"><a xlink:href="cutils_8h.html#a8a3b715fc2146312b777c4e3db546b55" target="_top" xlink:title="dbuf_free">
<polygon fill="none" stroke="#000000" points="485,-228.5 485,-247.5 542,-247.5 542,-228.5 485,-228.5"/>
<text text-anchor="middle" x="513.5" y="-235.5" font-family="Helvetica,sans-Serif" font-size="10.00" fill="#000000">dbuf_free</text>
</a>
</g>
</g>
<!-- Node411520&#45;&gt;Node411227 -->
<g id="edge19" class="edge">
<title>Node411520&#45;&gt;Node411227</title>
<path fill="none" stroke="#191970" d="M396.5755,-285.4456C413.2611,-277.4451 437.9706,-265.9344 460,-257 464.8981,-255.0135 470.0916,-253.0255 475.242,-251.1239"/>
<polygon fill="#191970" stroke="#191970" points="476.7886,-254.2866 485.004,-247.5964 474.4097,-247.7032 476.7886,-254.2866"/>
</g>
<!-- Node411241 -->
<g id="node18" class="node">
<title>Node411241</title>
<g id="a_node18"><a xlink:href="cutils_8h.html#a04e3983476063eb6fbab2fd74fc49fc6" target="_top" xlink:title="dbuf_init2">
<polygon fill="none" stroke="#ff0000" points="484,-190.5 484,-209.5 543,-209.5 543,-190.5 484,-190.5"/>
<text text-anchor="middle" x="513.5" y="-197.5" font-family="Helvetica,sans-Serif" font-size="10.00" fill="#000000">dbuf_init2</text>
</a>
</g>
</g>
<!-- Node411520&#45;&gt;Node411241 -->
<g id="edge20" class="edge">
<title>Node411520&#45;&gt;Node411241</title>
<path fill="none" stroke="#191970" d="M385.2375,-285.2606C399.1525,-269.3603 428.855,-237.7253 460,-219 464.4784,-216.3074 469.3964,-213.9153 474.3798,-211.8145"/>
<polygon fill="#191970" stroke="#191970" points="475.8709,-214.9909 483.9455,-208.1315 473.3557,-208.4584 475.8709,-214.9909"/>
</g>
<!-- Node411229 -->
<g id="node19" class="node">
<title>Node411229</title>
<g id="a_node19"><a xlink:href="cutils_8h.html#ad1cfaae47347ae771136b5a9bbda49aa" target="_top" xlink:title="dbuf_put">
<polygon fill="none" stroke="#ff0000" points="836,-228.5 836,-247.5 890,-247.5 890,-228.5 836,-228.5"/>
<text text-anchor="middle" x="863" y="-235.5" font-family="Helvetica,sans-Serif" font-size="10.00" fill="#000000">dbuf_put</text>
</a>
</g>
</g>
<!-- Node411520&#45;&gt;Node411229 -->
<g id="edge21" class="edge">
<title>Node411520&#45;&gt;Node411229</title>
<path fill="none" stroke="#191970" d="M378.7944,-285.0992C384.5506,-256.6198 405.4675,-174.4569 460,-142 589.8906,-64.6911 778.1206,-179.0168 841.3605,-222.4344"/>
<polygon fill="#191970" stroke="#191970" points="839.558,-225.4444 849.7623,-228.2945 843.5626,-219.703 839.558,-225.4444"/>
</g>
<!-- Node411523 -->
<g id="node20" class="node">
<title>Node411523</title>
<g id="a_node20"><a xlink:href="cutils_8h.html#a8ba08f82c43549fcb3c939229498354d" target="_top" xlink:title="dbuf_put_u32">
<polygon fill="none" stroke="#000000" points="725,-228.5 725,-247.5 800,-247.5 800,-228.5 725,-228.5"/>
<text text-anchor="middle" x="762.5" y="-235.5" font-family="Helvetica,sans-Serif" font-size="10.00" fill="#000000">dbuf_put_u32</text>
</a>
</g>
</g>
<!-- Node411520&#45;&gt;Node411523 -->
<g id="edge22" class="edge">
<title>Node411520&#45;&gt;Node411523</title>
<path fill="none" stroke="#191970" d="M379.5675,-285.3216C386.9563,-259.6781 410.9516,-190.0978 460,-163 555.8338,-110.0545 689.1642,-187.6673 740.8388,-222.523"/>
<polygon fill="#191970" stroke="#191970" points="739.0154,-225.5168 749.2378,-228.3014 742.9831,-219.7498 739.0154,-225.5168"/>
</g>
<!-- Node411228 -->
<g id="node21" class="node">
<title>Node411228</title>
<g id="a_node21"><a xlink:href="cutils_8h.html#aeed81d4787ccdbd55baa9b5fd6717e88" target="_top" xlink:title="dbuf_putc">
<polygon fill="none" stroke="#000000" points="733,-380.5 733,-399.5 792,-399.5 792,-380.5 733,-380.5"/>
<text text-anchor="middle" x="762.5" y="-387.5" font-family="Helvetica,sans-Serif" font-size="10.00" fill="#000000">dbuf_putc</text>
</a>
</g>
</g>
<!-- Node411520&#45;&gt;Node411228 -->
<g id="edge24" class="edge">
<title>Node411520&#45;&gt;Node411228</title>
<path fill="none" stroke="#191970" d="M383.8938,-304.6532C396.6654,-321.6457 425.8381,-356.4734 460,-371 547.7091,-408.2964 662.733,-402.328 722.5145,-395.6463"/>
<polygon fill="#191970" stroke="#191970" points="723.1481,-399.0958 732.6672,-394.4442 722.325,-392.1443 723.1481,-399.0958"/>
</g>
<!-- Node411524 -->
<g id="node22" class="node">
<title>Node411524</title>
<g id="a_node22"><a xlink:href="quickjs_8c.html#a770bcb52221b07905a94fcb36ac192cd" target="_top" xlink:title="lre_realloc">
<polygon fill="none" stroke="#000000" points="483,-38.5 483,-57.5 544,-57.5 544,-38.5 483,-38.5"/>
<text text-anchor="middle" x="513.5" y="-45.5" font-family="Helvetica,sans-Serif" font-size="10.00" fill="#000000">lre_realloc</text>
</a>
</g>
</g>
<!-- Node411520&#45;&gt;Node411524 -->
<g id="edge26" class="edge">
<title>Node411520&#45;&gt;Node411524</title>
<path fill="none" stroke="#191970" d="M377.9782,-285.1381C381.8489,-251.1078 399.001,-137.1232 460,-72 463.8711,-67.8672 468.5858,-64.3973 473.5947,-61.4973"/>
<polygon fill="#191970" stroke="#191970" points="475.4421,-64.4863 482.81,-56.8728 472.3024,-58.2299 475.4421,-64.4863"/>
</g>
<!-- Node411525 -->
<g id="node23" class="node">
<title>Node411525</title>
<g id="a_node23"><a xlink:href="cutils_8h.html#adbfc0638ae78ec4076886d7cbc03d0e4" target="_top" xlink:title="pstrcpy">
<polygon fill="none" stroke="#000000" points="489,-.5 489,-19.5 538,-19.5 538,-.5 489,-.5"/>
<text text-anchor="middle" x="513.5" y="-7.5" font-family="Helvetica,sans-Serif" font-size="10.00" fill="#000000">pstrcpy</text>
</a>
</g>
</g>
<!-- Node411520&#45;&gt;Node411525 -->
<g id="edge27" class="edge">
<title>Node411520&#45;&gt;Node411525</title>
<path fill="none" stroke="#191970" d="M378.8057,-285.4007C387.0626,-242.4183 422.438,-68.048 460,-29 465.2145,-23.5792 472.0743,-19.7018 479.135,-16.9294"/>
<polygon fill="#191970" stroke="#191970" points="480.3304,-20.2211 488.7522,-13.7927 478.1598,-13.5661 480.3304,-20.2211"/>
</g>
<!-- Node411526 -->
<g id="node24" class="node">
<title>Node411526</title>
<g id="a_node24"><a xlink:href="cutils_8h.html#a3b6aba81e32ed70a2a851744e5a9cc9c" target="_top" xlink:title="put_u32">
<polygon fill="none" stroke="#000000" points="620.5,-437.5 620.5,-456.5 671.5,-456.5 671.5,-437.5 620.5,-437.5"/>
<text text-anchor="middle" x="646" y="-444.5" font-family="Helvetica,sans-Serif" font-size="10.00" fill="#000000">put_u32</text>
</a>
</g>
</g>
<!-- Node411520&#45;&gt;Node411526 -->
<g id="edge28" class="edge">
<title>Node411520&#45;&gt;Node411526</title>
<path fill="none" stroke="#191970" d="M378.8167,-304.8387C384.6336,-333.1388 405.6983,-414.7816 460,-447 506.2409,-474.4358 571.0154,-466.1823 610.6529,-457.0588"/>
<polygon fill="#191970" stroke="#191970" points="611.5186,-460.4504 620.4038,-454.6794 609.8591,-453.6499 611.5186,-460.4504"/>
</g>
<!-- Node411527 -->
<g id="node25" class="node">
<title>Node411527</title>
<g id="a_node25"><a xlink:href="libregexp_8c.html#a9cfa82248f8e07e4f79304fb3c51b6ab" target="_top" xlink:title="re_emit_op">
<polygon fill="none" stroke="#000000" points="613.5,-532.5 613.5,-551.5 678.5,-551.5 678.5,-532.5 613.5,-532.5"/>
<text text-anchor="middle" x="646" y="-539.5" font-family="Helvetica,sans-Serif" font-size="10.00" fill="#000000">re_emit_op</text>
</a>
</g>
</g>
<!-- Node411520&#45;&gt;Node411527 -->
<g id="edge29" class="edge">
<title>Node411520&#45;&gt;Node411527</title>
<path fill="none" stroke="#191970" d="M377.8903,-304.9186C381.4157,-338.0313 397.4322,-445.6776 460,-499 500.1143,-533.1868 562.1638,-541.4934 603.4179,-542.8809"/>
<polygon fill="#191970" stroke="#191970" points="603.3593,-546.3803 613.4322,-543.0961 603.5097,-539.3819 603.3593,-546.3803"/>
</g>
<!-- Node411528 -->
<g id="node26" class="node">
<title>Node411528</title>
<g id="a_node26"><a xlink:href="libregexp_8c.html#ac72424cc4c3614e12582bb5684d5971e" target="_top" xlink:title="re_emit_op_u32">
<polygon fill="none" stroke="#000000" points="603,-247.5 603,-266.5 689,-266.5 689,-247.5 603,-247.5"/>
<text text-anchor="middle" x="646" y="-254.5" font-family="Helvetica,sans-Serif" font-size="10.00" fill="#000000">re_emit_op_u32</text>
</a>
</g>
</g>
<!-- Node411520&#45;&gt;Node411528 -->
<g id="edge31" class="edge">
<title>Node411520&#45;&gt;Node411528</title>
<path fill="none" stroke="#191970" d="M380.5042,-285.2628C389.4699,-262.0162 415.7078,-203.5402 460,-181 502.3831,-159.4314 522.8904,-163.2273 567,-181 595.975,-192.6747 620.2712,-220.6223 633.9767,-239.1758"/>
<polygon fill="#191970" stroke="#191970" points="631.1849,-241.2894 639.8282,-247.4167 636.8925,-237.2367 631.1849,-241.2894"/>
</g>
<!-- Node411529 -->
<g id="node27" class="node">
<title>Node411529</title>
<g id="a_node27"><a xlink:href="libregexp_8c.html#a108e0185eb65a399b93d273b6b609da5" target="_top" xlink:title="re_emit_op_u8">
<polygon fill="none" stroke="#000000" points="606,-485.5 606,-504.5 686,-504.5 686,-485.5 606,-485.5"/>
<text text-anchor="middle" x="646" y="-492.5" font-family="Helvetica,sans-Serif" font-size="10.00" fill="#000000">re_emit_op_u8</text>
</a>
</g>
</g>
<!-- Node411520&#45;&gt;Node411529 -->
<g id="edge34" class="edge">
<title>Node411520&#45;&gt;Node411529</title>
<path fill="none" stroke="#191970" d="M378.3428,-304.5781C383.1101,-334.6614 402.159,-427.759 460,-470 498.9706,-498.46 555.1055,-502.3571 595.5001,-500.5868"/>
<polygon fill="#191970" stroke="#191970" points="595.8845,-504.0707 605.6695,-500.0081 595.4868,-497.082 595.8845,-504.0707"/>
</g>
<!-- Node411530 -->
<g id="node28" class="node">
<title>Node411530</title>
<g id="a_node28"><a xlink:href="libregexp_8c.html#af445f369f2ccbbc81596e0fbed929b7e" target="_top" xlink:title="re_parse_disjunction">
<polygon fill="none" stroke="#ff0000" points="460.5,-418.5 460.5,-437.5 566.5,-437.5 566.5,-418.5 460.5,-418.5"/>
<text text-anchor="middle" x="513.5" y="-425.5" font-family="Helvetica,sans-Serif" font-size="10.00" fill="#000000">re_parse_disjunction</text>
</a>
</g>
</g>
<!-- Node411520&#45;&gt;Node411530 -->
<g id="edge36" class="edge">
<title>Node411520&#45;&gt;Node411530</title>
<path fill="none" stroke="#191970" d="M382.1701,-304.7415C393.6334,-325.5297 423.1105,-374.7236 460,-404 464.8018,-407.8108 470.3049,-411.1568 475.9136,-414.0458"/>
<polygon fill="#191970" stroke="#191970" points="474.808,-417.3934 485.3472,-418.4776 477.7845,-411.0577 474.808,-417.3934"/>
</g>
<!-- Node411523&#45;&gt;Node411229 -->
<g id="edge23" class="edge">
<title>Node411523&#45;&gt;Node411229</title>
<path fill="none" stroke="#191970" d="M800.2084,-238C808.5109,-238 817.3013,-238 825.5918,-238"/>
<polygon fill="#191970" stroke="#191970" points="825.7515,-241.5001 835.7515,-238 825.7515,-234.5001 825.7515,-241.5001"/>
</g>
<!-- Node411228&#45;&gt;Node411229 -->
<g id="edge25" class="edge">
<title>Node411228&#45;&gt;Node411229</title>
<path fill="none" stroke="#191970" d="M768.7867,-380.4917C785.2136,-355.6471 829.6288,-288.4719 851.0826,-256.0243"/>
<polygon fill="#191970" stroke="#191970" points="854.1199,-257.7766 856.7157,-247.5047 848.2808,-253.9159 854.1199,-257.7766"/>
</g>
<!-- Node411527&#45;&gt;Node411228 -->
<g id="edge30" class="edge">
<title>Node411527&#45;&gt;Node411228</title>
<path fill="none" stroke="#191970" d="M664.5259,-532.4789C672.676,-527.6851 681.9717,-521.3308 689,-514 719.5958,-482.0873 742.9659,-435.1693 754.513,-409.1528"/>
<polygon fill="#191970" stroke="#191970" points="757.8507,-410.2517 758.6004,-399.6835 751.4238,-407.4775 757.8507,-410.2517"/>
</g>
<!-- Node411528&#45;&gt;Node411523 -->
<g id="edge32" class="edge">
<title>Node411528&#45;&gt;Node411523</title>
<path fill="none" stroke="#191970" d="M689.0493,-249.9791C697.5282,-248.5963 706.4692,-247.1381 715.0825,-245.7333"/>
<polygon fill="#191970" stroke="#191970" points="715.6899,-249.1806 724.9961,-244.1165 714.5631,-242.2719 715.6899,-249.1806"/>
</g>
<!-- Node411528&#45;&gt;Node411228 -->
<g id="edge33" class="edge">
<title>Node411528&#45;&gt;Node411228</title>
<path fill="none" stroke="#191970" d="M654.3784,-266.565C673.8474,-288.7914 722.3714,-344.1879 747.2557,-372.5967"/>
<polygon fill="#191970" stroke="#191970" points="744.6613,-374.9467 753.8832,-380.1628 749.9269,-370.3343 744.6613,-374.9467"/>
</g>
<!-- Node411529&#45;&gt;Node411228 -->
<g id="edge35" class="edge">
<title>Node411529&#45;&gt;Node411228</title>
<path fill="none" stroke="#191970" d="M662.0913,-485.2825C670.4215,-479.975 680.5819,-473.0579 689,-466 711.0393,-447.5218 733.6342,-423.1921 747.8484,-407.0962"/>
<polygon fill="#191970" stroke="#191970" points="750.5347,-409.3411 754.4701,-399.5042 745.2593,-404.7399 750.5347,-409.3411"/>
</g>
<!-- Node411530&#45;&gt;Node411526 -->
<g id="edge37" class="edge">
<title>Node411530&#45;&gt;Node411526</title>
<path fill="none" stroke="#191970" d="M566.6294,-435.6185C581.2864,-437.7203 596.836,-439.9501 610.2511,-441.8737"/>
<polygon fill="#191970" stroke="#191970" points="610.0988,-445.3876 620.4943,-443.3426 611.0924,-438.4585 610.0988,-445.3876"/>
</g>
<!-- Node411530&#45;&gt;Node411528 -->
<g id="edge38" class="edge">
<title>Node411530&#45;&gt;Node411528</title>
<path fill="none" stroke="#191970" d="M523.436,-418.3148C534.5457,-407.2857 552.836,-388.5202 567,-371 593.0784,-338.7424 619.8319,-298.2774 634.5434,-275.2573"/>
<polygon fill="#191970" stroke="#191970" points="637.5051,-277.1223 639.9051,-266.8029 631.5936,-273.3733 637.5051,-277.1223"/>
</g>
</g>
</svg>
