<?xml version="1.0" encoding="UTF-8" standalone="no"?>
<!DOCTYPE svg PUBLIC "-//W3C//DTD SVG 1.1//EN"
 "http://www.w3.org/Graphics/SVG/1.1/DTD/svg11.dtd">
<!-- Generated by graphviz version 2.40.1 (20161225.0304)
 -->
<!-- Title: bc_get_flags Pages: 1 -->
<svg width="476pt" height="46pt"
 viewBox="0.00 0.00 476.00 46.00" xmlns="http://www.w3.org/2000/svg" xmlns:xlink="http://www.w3.org/1999/xlink">
<g id="graph0" class="graph" transform="scale(1 1) rotate(0) translate(4 42)">
<title>bc_get_flags</title>
<!-- Node343702 -->
<g id="node1" class="node">
<title>Node343702</title>
<polygon fill="#bfbfbf" stroke="#000000" points="0,-.5 0,-19.5 72,-19.5 72,-.5 0,-.5"/>
<text text-anchor="middle" x="36" y="-7.5" font-family="Helvetica,sans-Serif" font-size="10.00" fill="#000000">bc_get_flags</text>
</g>
<!-- Node343703 -->
<g id="node2" class="node">
<title>Node343703</title>
<g id="a_node2"><a xlink:href="quickjs_8c.html#a4b8ef2bb3b35e4a5f6ed8bd837a50e7c" target="_top" xlink:title="JS_ReadObjectRec">
<polygon fill="none" stroke="#000000" points="108,-.5 108,-19.5 212,-19.5 212,-.5 108,-.5"/>
<text text-anchor="middle" x="160" y="-7.5" font-family="Helvetica,sans-Serif" font-size="10.00" fill="#000000">JS_ReadObjectRec</text>
</a>
</g>
</g>
<!-- Node343702&#45;&gt;Node343703 -->
<g id="edge1" class="edge">
<title>Node343702&#45;&gt;Node343703</title>
<path fill="none" stroke="#191970" d="M82.4409,-10C90.7324,-10 99.4208,-10 107.8592,-10"/>
<polygon fill="#191970" stroke="#191970" points="82.1993,-6.5001 72.1993,-10 82.1992,-13.5001 82.1993,-6.5001"/>
</g>
<!-- Node343703&#45;&gt;Node343703 -->
<g id="edge2" class="edge">
<title>Node343703&#45;&gt;Node343703</title>
<path fill="none" stroke="#191970" d="M136.9346,-29.0292C138.1928,-34.128 145.8812,-38 160,-38 182.0391,-38 188.4097,-28.5653 179.112,-19.7571"/>
<polygon fill="#191970" stroke="#191970" points="140.1854,-30.3286 140.888,-19.7571 133.7463,-27.5831 140.1854,-30.3286"/>
</g>
<!-- Node343704 -->
<g id="node3" class="node">
<title>Node343704</title>
<g id="a_node3"><a xlink:href="quickjs_8c.html#a12be2ea9c010752715072489497594e9" target="_top" xlink:title="JS_ReadObject">
<polygon fill="none" stroke="#000000" points="248,-.5 248,-19.5 334,-19.5 334,-.5 248,-.5"/>
<text text-anchor="middle" x="291" y="-7.5" font-family="Helvetica,sans-Serif" font-size="10.00" fill="#000000">JS_ReadObject</text>
</a>
</g>
</g>
<!-- Node343703&#45;&gt;Node343704 -->
<g id="edge3" class="edge">
<title>Node343703&#45;&gt;Node343704</title>
<path fill="none" stroke="#191970" d="M222.2525,-10C230.9182,-10 239.66,-10 247.8689,-10"/>
<polygon fill="#191970" stroke="#191970" points="222.1511,-6.5001 212.1511,-10 222.151,-13.5001 222.1511,-6.5001"/>
</g>
<!-- Node343705 -->
<g id="node4" class="node">
<title>Node343705</title>
<g id="a_node4"><a xlink:href="quickjs-libc_8c.html#ab1b439d304c2125490b47ef262b5df67" target="_top" xlink:title="js_std_eval_binary">
<polygon fill="none" stroke="#000000" points="370,-.5 370,-19.5 468,-19.5 468,-.5 370,-.5"/>
<text text-anchor="middle" x="419" y="-7.5" font-family="Helvetica,sans-Serif" font-size="10.00" fill="#000000">js_std_eval_binary</text>
</a>
</g>
</g>
<!-- Node343704&#45;&gt;Node343705 -->
<g id="edge4" class="edge">
<title>Node343704&#45;&gt;Node343705</title>
<path fill="none" stroke="#191970" d="M344.4794,-10C352.932,-10 361.6364,-10 369.9808,-10"/>
<polygon fill="#191970" stroke="#191970" points="344.335,-6.5001 334.335,-10 344.3349,-13.5001 344.335,-6.5001"/>
</g>
</g>
</svg>
