<?xml version="1.0" encoding="UTF-8" standalone="no"?>
<!DOCTYPE svg PUBLIC "-//W3C//DTD SVG 1.1//EN"
 "http://www.w3.org/Graphics/SVG/1.1/DTD/svg11.dtd">
<!-- Generated by graphviz version 2.40.1 (20161225.0304)
 -->
<!-- Title: js_call_c_function Pages: 1 -->
<svg width="513pt" height="28pt"
 viewBox="0.00 0.00 513.00 28.00" xmlns="http://www.w3.org/2000/svg" xmlns:xlink="http://www.w3.org/1999/xlink">
<g id="graph0" class="graph" transform="scale(1 1) rotate(0) translate(4 24)">
<title>js_call_c_function</title>
<!-- Node2008 -->
<g id="node1" class="node">
<title>Node2008</title>
<polygon fill="#bfbfbf" stroke="#000000" points="0,-.5 0,-19.5 95,-19.5 95,-.5 0,-.5"/>
<text text-anchor="middle" x="47.5" y="-7.5" font-family="Helvetica,sans-Serif" font-size="10.00" fill="#000000">js_call_c_function</text>
</g>
<!-- Node2009 -->
<g id="node2" class="node">
<title>Node2009</title>
<g id="a_node2"><a xlink:href="quickjs_8c.html#a27966451027feb455b5da12c1578771c" target="_top" xlink:title="JS_NewRuntime2">
<polygon fill="none" stroke="#000000" points="131,-.5 131,-19.5 227,-19.5 227,-.5 131,-.5"/>
<text text-anchor="middle" x="179" y="-7.5" font-family="Helvetica,sans-Serif" font-size="10.00" fill="#000000">JS_NewRuntime2</text>
</a>
</g>
</g>
<!-- Node2008&#45;&gt;Node2009 -->
<g id="edge1" class="edge">
<title>Node2008&#45;&gt;Node2009</title>
<path fill="none" stroke="#191970" d="M105.5715,-10C114.0562,-10 122.7138,-10 130.9687,-10"/>
<polygon fill="#191970" stroke="#191970" points="105.3465,-6.5001 95.3465,-10 105.3465,-13.5001 105.3465,-6.5001"/>
</g>
<!-- Node2010 -->
<g id="node3" class="node">
<title>Node2010</title>
<g id="a_node3"><a xlink:href="quickjs_8c.html#afc1ca27a266094085ebb43e2eea0dda2" target="_top" xlink:title="JS_NewRuntime">
<polygon fill="none" stroke="#000000" points="263,-.5 263,-19.5 354,-19.5 354,-.5 263,-.5"/>
<text text-anchor="middle" x="308.5" y="-7.5" font-family="Helvetica,sans-Serif" font-size="10.00" fill="#000000">JS_NewRuntime</text>
</a>
</g>
</g>
<!-- Node2009&#45;&gt;Node2010 -->
<g id="edge2" class="edge">
<title>Node2009&#45;&gt;Node2010</title>
<path fill="none" stroke="#191970" d="M237.4754,-10C245.9739,-10 254.6181,-10 262.8147,-10"/>
<polygon fill="#191970" stroke="#191970" points="237.2211,-6.5001 227.221,-10 237.221,-13.5001 237.2211,-6.5001"/>
</g>
<!-- Node2011 -->
<g id="node4" class="node">
<title>Node2011</title>
<g id="a_node4"><a xlink:href="classqjs_1_1Runtime.html#a0860a1339ff567f9f603c7bed4d670f9" target="_top" xlink:title="qjs::Runtime::Runtime">
<polygon fill="none" stroke="#000000" points="390,-.5 390,-19.5 505,-19.5 505,-.5 390,-.5"/>
<text text-anchor="middle" x="447.5" y="-7.5" font-family="Helvetica,sans-Serif" font-size="10.00" fill="#000000">qjs::Runtime::Runtime</text>
</a>
</g>
</g>
<!-- Node2010&#45;&gt;Node2011 -->
<g id="edge3" class="edge">
<title>Node2010&#45;&gt;Node2011</title>
<path fill="none" stroke="#191970" d="M364.1119,-10C372.5346,-10 381.2411,-10 389.7088,-10"/>
<polygon fill="#191970" stroke="#191970" points="364.0138,-6.5001 354.0138,-10 364.0138,-13.5001 364.0138,-6.5001"/>
</g>
</g>
</svg>
