<?xml version="1.0" encoding="UTF-8" standalone="no"?>
<!DOCTYPE svg PUBLIC "-//W3C//DTD SVG 1.1//EN"
 "http://www.w3.org/Graphics/SVG/1.1/DTD/svg11.dtd">
<!-- Generated by graphviz version 2.40.1 (20161225.0304)
 -->
<!-- Title: js_std_dump_error1 Pages: 1 -->
<svg width="501pt" height="116pt"
 viewBox="0.00 0.00 501.00 115.50" xmlns="http://www.w3.org/2000/svg" xmlns:xlink="http://www.w3.org/1999/xlink">
<g id="graph0" class="graph" transform="scale(1 1) rotate(0) translate(4 111.5)">
<title>js_std_dump_error1</title>
<!-- Node28830 -->
<g id="node1" class="node">
<title>Node28830</title>
<polygon fill="#bfbfbf" stroke="#000000" points="0,-28 0,-47 102,-47 102,-28 0,-28"/>
<text text-anchor="middle" x="51" y="-35" font-family="Helvetica,sans-Serif" font-size="10.00" fill="#000000">js_std_dump_error1</text>
</g>
<!-- Node28831 -->
<g id="node2" class="node">
<title>Node28831</title>
<g id="a_node2"><a xlink:href="quickjs-libc_8c.html#a82bb7888d024e97e430d98653e97a7bc" target="_top" xlink:title="js_std_dump_error">
<polygon fill="none" stroke="#000000" points="152,-50 152,-69 249,-69 249,-50 152,-50"/>
<text text-anchor="middle" x="200.5" y="-57" font-family="Helvetica,sans-Serif" font-size="10.00" fill="#000000">js_std_dump_error</text>
</a>
</g>
</g>
<!-- Node28830&#45;&gt;Node28831 -->
<g id="edge1" class="edge">
<title>Node28830&#45;&gt;Node28831</title>
<path fill="none" stroke="#191970" d="M112.0515,-46.4842C125.3456,-48.4405 139.2381,-50.4849 151.9689,-52.3583"/>
<polygon fill="#191970" stroke="#191970" points="112.4343,-43.0029 102.0313,-45.0096 111.4151,-49.9283 112.4343,-43.0029"/>
</g>
<!-- Node28839 -->
<g id="node8" class="node">
<title>Node28839</title>
<g id="a_node8"><a xlink:href="quickjs-libc_8c.html#aecbca056dde897142bf11bb90347c524" target="_top" xlink:title="js_std_promise_rejection\l_tracker">
<polygon fill="none" stroke="#000000" points="138,-.5 138,-30.5 263,-30.5 263,-.5 138,-.5"/>
<text text-anchor="start" x="146" y="-18.5" font-family="Helvetica,sans-Serif" font-size="10.00" fill="#000000">js_std_promise_rejection</text>
<text text-anchor="middle" x="200.5" y="-7.5" font-family="Helvetica,sans-Serif" font-size="10.00" fill="#000000">_tracker</text>
</a>
</g>
</g>
<!-- Node28830&#45;&gt;Node28839 -->
<g id="edge7" class="edge">
<title>Node28830&#45;&gt;Node28839</title>
<path fill="none" stroke="#191970" d="M112.1866,-28.4959C120.6343,-27.2528 129.3211,-25.9745 137.7957,-24.7274"/>
<polygon fill="#191970" stroke="#191970" points="111.4151,-25.0717 102.0313,-29.9904 112.4343,-31.9971 111.4151,-25.0717"/>
</g>
<!-- Node28832 -->
<g id="node3" class="node">
<title>Node28832</title>
<g id="a_node3"><a xlink:href="quickjs-libc_8c.html#abb1cbe3fdf905e81f603a3a0bfce475a" target="_top" xlink:title="call_handler">
<polygon fill="none" stroke="#000000" points="314,-88 314,-107 382,-107 382,-88 314,-88"/>
<text text-anchor="middle" x="348" y="-95" font-family="Helvetica,sans-Serif" font-size="10.00" fill="#000000">call_handler</text>
</a>
</g>
</g>
<!-- Node28831&#45;&gt;Node28832 -->
<g id="edge2" class="edge">
<title>Node28831&#45;&gt;Node28832</title>
<path fill="none" stroke="#191970" d="M247.6441,-71.6456C269.1571,-77.1879 294.1581,-83.6289 313.8246,-88.6955"/>
<polygon fill="#191970" stroke="#191970" points="248.2775,-68.1946 237.7205,-69.089 246.5311,-74.9732 248.2775,-68.1946"/>
</g>
<!-- Node28837 -->
<g id="node5" class="node">
<title>Node28837</title>
<g id="a_node5"><a xlink:href="quickjs-libc_8c.html#af7480dad10e937004e36b2b409b084a4" target="_top" xlink:title="js_std_loop">
<polygon fill="none" stroke="#000000" points="315,-50 315,-69 381,-69 381,-50 315,-50"/>
<text text-anchor="middle" x="348" y="-57" font-family="Helvetica,sans-Serif" font-size="10.00" fill="#000000">js_std_loop</text>
</a>
</g>
</g>
<!-- Node28831&#45;&gt;Node28837 -->
<g id="edge4" class="edge">
<title>Node28831&#45;&gt;Node28837</title>
<path fill="none" stroke="#191970" d="M259.2172,-59.5C278.0882,-59.5 298.3306,-59.5 314.7142,-59.5"/>
<polygon fill="#191970" stroke="#191970" points="259.2058,-56.0001 249.2058,-59.5 259.2058,-63.0001 259.2058,-56.0001"/>
</g>
<!-- Node28838 -->
<g id="node7" class="node">
<title>Node28838</title>
<g id="a_node7"><a xlink:href="quickjs-libc_8c.html#ab1b439d304c2125490b47ef262b5df67" target="_top" xlink:title="js_std_eval_binary">
<polygon fill="none" stroke="#000000" points="299,-12 299,-31 397,-31 397,-12 299,-12"/>
<text text-anchor="middle" x="348" y="-19" font-family="Helvetica,sans-Serif" font-size="10.00" fill="#000000">js_std_eval_binary</text>
</a>
</g>
</g>
<!-- Node28831&#45;&gt;Node28838 -->
<g id="edge6" class="edge">
<title>Node28831&#45;&gt;Node28838</title>
<path fill="none" stroke="#191970" d="M247.5141,-47.3879C268.0566,-42.0956 291.7998,-35.9787 311.0472,-31.0201"/>
<polygon fill="#191970" stroke="#191970" points="246.5311,-44.0268 237.7205,-49.911 248.2775,-50.8054 246.5311,-44.0268"/>
</g>
<!-- Node28833 -->
<g id="node4" class="node">
<title>Node28833</title>
<g id="a_node4"><a xlink:href="quickjs-libc_8c.html#ac6c5f34cb0df6ab0d7579f0f20908a2c" target="_top" xlink:title="js_os_poll">
<polygon fill="none" stroke="#ff0000" points="433,-88 433,-107 493,-107 493,-88 433,-88"/>
<text text-anchor="middle" x="463" y="-95" font-family="Helvetica,sans-Serif" font-size="10.00" fill="#000000">js_os_poll</text>
</a>
</g>
</g>
<!-- Node28832&#45;&gt;Node28833 -->
<g id="edge3" class="edge">
<title>Node28832&#45;&gt;Node28833</title>
<path fill="none" stroke="#191970" d="M392.2629,-97.5C405.7637,-97.5 420.294,-97.5 432.6523,-97.5"/>
<polygon fill="#191970" stroke="#191970" points="392.1925,-94.0001 382.1924,-97.5 392.1924,-101.0001 392.1925,-94.0001"/>
</g>
<!-- Node28836 -->
<g id="node6" class="node">
<title>Node28836</title>
<g id="a_node6"><a xlink:href="qjs_8cpp.html#a3c04138a5bfe5d72780bb7e82a18e627" target="_top" xlink:title="main">
<polygon fill="none" stroke="#000000" points="444,-50 444,-69 482,-69 482,-50 444,-50"/>
<text text-anchor="middle" x="463" y="-57" font-family="Helvetica,sans-Serif" font-size="10.00" fill="#000000">main</text>
</a>
</g>
</g>
<!-- Node28837&#45;&gt;Node28836 -->
<g id="edge5" class="edge">
<title>Node28837&#45;&gt;Node28836</title>
<path fill="none" stroke="#191970" d="M391.3412,-59.5C409.4327,-59.5 429.5183,-59.5 443.8103,-59.5"/>
<polygon fill="#191970" stroke="#191970" points="391.2628,-56.0001 381.2628,-59.5 391.2627,-63.0001 391.2628,-56.0001"/>
</g>
</g>
</svg>
