<?xml version="1.0" encoding="UTF-8" standalone="no"?>
<!DOCTYPE svg PUBLIC "-//W3C//DTD SVG 1.1//EN"
 "http://www.w3.org/Graphics/SVG/1.1/DTD/svg11.dtd">
<!-- Generated by graphviz version 2.40.1 (20161225.0304)
 -->
<!-- Title: js_error_constructor Pages: 1 -->
<svg width="582pt" height="1148pt"
 viewBox="0.00 0.00 582.00 1148.00" xmlns="http://www.w3.org/2000/svg" xmlns:xlink="http://www.w3.org/1999/xlink">
<g id="graph0" class="graph" transform="scale(1 1) rotate(0) translate(4 1144)">
<title>js_error_constructor</title>
<!-- Node368700 -->
<g id="node1" class="node">
<title>Node368700</title>
<polygon fill="#bfbfbf" stroke="#000000" points="0,-246.5 0,-265.5 103,-265.5 103,-246.5 0,-246.5"/>
<text text-anchor="middle" x="51.5" y="-253.5" font-family="Helvetica,sans-Serif" font-size="10.00" fill="#000000">js_error_constructor</text>
</g>
<!-- Node368701 -->
<g id="node2" class="node">
<title>Node368701</title>
<g id="a_node2"><a xlink:href="quickjs_8c.html#a61c8dfb5e807af1b6ff7d8ca61576dda" target="_top" xlink:title="build_backtrace">
<polygon fill="none" stroke="#000000" points="162,-873.5 162,-892.5 247,-892.5 247,-873.5 162,-873.5"/>
<text text-anchor="middle" x="204.5" y="-880.5" font-family="Helvetica,sans-Serif" font-size="10.00" fill="#000000">build_backtrace</text>
</a>
</g>
</g>
<!-- Node368700&#45;&gt;Node368701 -->
<g id="edge1" class="edge">
<title>Node368700&#45;&gt;Node368701</title>
<path fill="none" stroke="#191970" d="M52.9781,-265.5255C60.3095,-312.1668 94.2142,-520.9577 139,-688 156.6008,-753.6477 184.2314,-829.4572 197.2521,-864.0392"/>
<polygon fill="#191970" stroke="#191970" points="193.9797,-865.2807 200.7967,-873.391 200.5253,-862.7997 193.9797,-865.2807"/>
</g>
<!-- Node368838 -->
<g id="node12" class="node">
<title>Node368838</title>
<g id="a_node12"><a xlink:href="quickjs_8c.html#a0a8765bd4012467d9139bc24aabcb3ca" target="_top" xlink:title="JS_DefinePropertyValue">
<polygon fill="none" stroke="#ff0000" points="317,-664.5 317,-683.5 441,-683.5 441,-664.5 317,-664.5"/>
<text text-anchor="middle" x="379" y="-671.5" font-family="Helvetica,sans-Serif" font-size="10.00" fill="#000000">JS_DefinePropertyValue</text>
</a>
</g>
</g>
<!-- Node368700&#45;&gt;Node368838 -->
<g id="edge37" class="edge">
<title>Node368700&#45;&gt;Node368838</title>
<path fill="none" stroke="#191970" d="M52.1595,-265.7114C56.1301,-321.1013 78.7378,-596.5066 139,-650 189.3084,-694.6576 270.9863,-692.7186 324.8526,-685.0784"/>
<polygon fill="#191970" stroke="#191970" points="325.5491,-688.5127 334.9051,-683.5411 324.4909,-681.5931 325.5491,-688.5127"/>
</g>
<!-- Node368721 -->
<g id="node13" class="node">
<title>Node368721</title>
<g id="a_node13"><a xlink:href="quickjs_8h.html#afaa20c47565bc704c6c85f3d77254e7d" target="_top" xlink:title="JS_FreeValue">
<polygon fill="none" stroke="#ff0000" points="492,-550.5 492,-569.5 570,-569.5 570,-550.5 492,-550.5"/>
<text text-anchor="middle" x="531" y="-557.5" font-family="Helvetica,sans-Serif" font-size="10.00" fill="#000000">JS_FreeValue</text>
</a>
</g>
</g>
<!-- Node368700&#45;&gt;Node368721 -->
<g id="edge39" class="edge">
<title>Node368700&#45;&gt;Node368721</title>
<path fill="none" stroke="#191970" d="M52.1021,-265.8166C54.8468,-301.8368 69.2677,-428.0617 139,-494 232.8922,-582.7837 399.1427,-577 481.6749,-567.4884"/>
<polygon fill="#191970" stroke="#191970" points="482.2901,-570.9394 491.7929,-566.2546 481.4427,-563.9908 482.2901,-570.9394"/>
</g>
<!-- Node369130 -->
<g id="node17" class="node">
<title>Node369130</title>
<g id="a_node17"><a xlink:href="quickjs_8c.html#a9f70dbefcf33550d6f9e588c05c9ffef" target="_top" xlink:title="iterator_to_array">
<polygon fill="none" stroke="#ff0000" points="161,-417.5 161,-436.5 248,-436.5 248,-417.5 161,-417.5"/>
<text text-anchor="middle" x="204.5" y="-424.5" font-family="Helvetica,sans-Serif" font-size="10.00" fill="#000000">iterator_to_array</text>
</a>
</g>
</g>
<!-- Node368700&#45;&gt;Node369130 -->
<g id="edge17" class="edge">
<title>Node368700&#45;&gt;Node369130</title>
<path fill="none" stroke="#191970" d="M60.1643,-265.6837C85.0953,-293.5477 157.2573,-374.1993 189.0959,-409.7837"/>
<polygon fill="#191970" stroke="#191970" points="186.6544,-412.3039 195.9307,-417.4226 191.8711,-407.6363 186.6544,-412.3039"/>
</g>
<!-- Node368812 -->
<g id="node20" class="node">
<title>Node368812</title>
<g id="a_node20"><a xlink:href="quickjs_8h.html#a89b7c8686c7eee70b86be722ee4730ad" target="_top" xlink:title="JS_GetProperty">
<polygon fill="none" stroke="#ff0000" points="488,-436.5 488,-455.5 574,-455.5 574,-436.5 488,-436.5"/>
<text text-anchor="middle" x="531" y="-443.5" font-family="Helvetica,sans-Serif" font-size="10.00" fill="#000000">JS_GetProperty</text>
</a>
</g>
</g>
<!-- Node368700&#45;&gt;Node368812 -->
<g id="edge43" class="edge">
<title>Node368700&#45;&gt;Node368812</title>
<path fill="none" stroke="#191970" d="M53.4596,-265.6389C60.1006,-296.0435 84.4506,-391.1562 139,-446 196.7694,-504.0811 226.0284,-506.2446 306,-524 369.3464,-538.0642 391.9717,-548.6409 452,-524 481.4199,-511.9235 505.7339,-483.0116 519.3022,-463.983"/>
<polygon fill="#191970" stroke="#191970" points="522.3129,-465.7811 525.0751,-455.5526 516.5372,-461.826 522.3129,-465.7811"/>
</g>
<!-- Node368756 -->
<g id="node21" class="node">
<title>Node368756</title>
<g id="a_node21"><a xlink:href="quickjs_8h.html#ad80a83d73e9b7d872b88fbf2943aebe9" target="_top" xlink:title="JS_IsException">
<polygon fill="none" stroke="#000000" points="488,-379.5 488,-398.5 574,-398.5 574,-379.5 488,-379.5"/>
<text text-anchor="middle" x="531" y="-386.5" font-family="Helvetica,sans-Serif" font-size="10.00" fill="#000000">JS_IsException</text>
</a>
</g>
</g>
<!-- Node368700&#45;&gt;Node368756 -->
<g id="edge44" class="edge">
<title>Node368700&#45;&gt;Node368756</title>
<path fill="none" stroke="#191970" d="M103.0677,-265.0659C207.7587,-283.588 436.6532,-324.7249 452,-333 472.1951,-343.8893 469.1624,-356.9018 488,-370 490.5317,-371.7603 493.2527,-373.4149 496.052,-374.9566"/>
<polygon fill="#191970" stroke="#191970" points="494.6137,-378.1505 505.1238,-379.4878 497.7416,-371.8882 494.6137,-378.1505"/>
</g>
<!-- Node368835 -->
<g id="node22" class="node">
<title>Node368835</title>
<g id="a_node22"><a xlink:href="quickjs_8h.html#a4e407128a9605afb77523e49e9a627fd" target="_top" xlink:title="JS_IsUndefined">
<polygon fill="none" stroke="#000000" points="488,-341.5 488,-360.5 574,-360.5 574,-341.5 488,-341.5"/>
<text text-anchor="middle" x="531" y="-348.5" font-family="Helvetica,sans-Serif" font-size="10.00" fill="#000000">JS_IsUndefined</text>
</a>
</g>
</g>
<!-- Node368700&#45;&gt;Node368835 -->
<g id="edge46" class="edge">
<title>Node368700&#45;&gt;Node368835</title>
<path fill="none" stroke="#191970" d="M103.2417,-254.9037C196.8829,-253.6069 390.4655,-254.2744 452,-280 479.2375,-291.3871 503.3037,-316.2989 517.513,-333.3663"/>
<polygon fill="#191970" stroke="#191970" points="515.0215,-335.8538 524.0096,-341.4632 520.4813,-331.4731 515.0215,-335.8538"/>
</g>
<!-- Node368990 -->
<g id="node24" class="node">
<title>Node368990</title>
<g id="a_node24"><a xlink:href="quickjs_8h.html#a3d68fe446df2d9c7d1900b16371bff5b" target="_top" xlink:title="JS_IsObject">
<polygon fill="none" stroke="#000000" points="495.5,-265.5 495.5,-284.5 566.5,-284.5 566.5,-265.5 495.5,-265.5"/>
<text text-anchor="middle" x="531" y="-272.5" font-family="Helvetica,sans-Serif" font-size="10.00" fill="#000000">JS_IsObject</text>
</a>
</g>
</g>
<!-- Node368700&#45;&gt;Node368990 -->
<g id="edge45" class="edge">
<title>Node368700&#45;&gt;Node368990</title>
<path fill="none" stroke="#191970" d="M103.0093,-246.675C179.8578,-234.4478 328.6987,-217.2821 452,-242 470.2913,-245.6668 489.6358,-253.6701 504.6044,-260.8764"/>
<polygon fill="#191970" stroke="#191970" points="503.2435,-264.1088 513.7539,-265.4433 506.3697,-257.8457 503.2435,-264.1088"/>
</g>
<!-- Node368720 -->
<g id="node26" class="node">
<title>Node368720</title>
<g id="a_node26"><a xlink:href="quickjs_8h.html#a775522f2d084fc8fa0fcb33f390006b4" target="_top" xlink:title="JS_DupValue">
<polygon fill="none" stroke="#000000" points="166,-170.5 166,-189.5 243,-189.5 243,-170.5 166,-170.5"/>
<text text-anchor="middle" x="204.5" y="-177.5" font-family="Helvetica,sans-Serif" font-size="10.00" fill="#000000">JS_DupValue</text>
</a>
</g>
</g>
<!-- Node368700&#45;&gt;Node368720 -->
<g id="edge38" class="edge">
<title>Node368700&#45;&gt;Node368720</title>
<path fill="none" stroke="#191970" d="M65.9049,-246.3087C82.8833,-235.1565 112.1874,-216.7447 139,-204 147.3446,-200.0336 156.5325,-196.2999 165.3201,-193.0124"/>
<polygon fill="#191970" stroke="#191970" points="166.7966,-196.2001 175.0053,-189.5016 164.4111,-189.6191 166.7966,-196.2001"/>
</g>
<!-- Node369132 -->
<g id="node27" class="node">
<title>Node369132</title>
<g id="a_node27"><a xlink:href="quickjs_8c.html#a3755be7c2ce474f29037fb2bbf35083b" target="_top" xlink:title="JS_GetActiveFunction">
<polygon fill="none" stroke="#000000" points="147,-132.5 147,-151.5 262,-151.5 262,-132.5 147,-132.5"/>
<text text-anchor="middle" x="204.5" y="-139.5" font-family="Helvetica,sans-Serif" font-size="10.00" fill="#000000">JS_GetActiveFunction</text>
</a>
</g>
</g>
<!-- Node368700&#45;&gt;Node369132 -->
<g id="edge40" class="edge">
<title>Node368700&#45;&gt;Node369132</title>
<path fill="none" stroke="#191970" d="M57.7044,-246.3096C70.5147,-227.09 101.8246,-184.0181 139,-161 142.4133,-158.8866 146.0714,-156.9997 149.8497,-155.3164"/>
<polygon fill="#191970" stroke="#191970" points="151.4019,-158.4665 159.4177,-151.5385 148.8311,-151.9557 151.4019,-158.4665"/>
</g>
<!-- Node369002 -->
<g id="node28" class="node">
<title>Node369002</title>
<g id="a_node28"><a xlink:href="quickjs_8c.html#a83e9d1851a3e2cd176944272b583143c" target="_top" xlink:title="JS_GetFunctionRealm">
<polygon fill="none" stroke="#ff0000" points="146.5,-76.5 146.5,-95.5 262.5,-95.5 262.5,-76.5 146.5,-76.5"/>
<text text-anchor="middle" x="204.5" y="-83.5" font-family="Helvetica,sans-Serif" font-size="10.00" fill="#000000">JS_GetFunctionRealm</text>
</a>
</g>
</g>
<!-- Node368700&#45;&gt;Node369002 -->
<g id="edge41" class="edge">
<title>Node368700&#45;&gt;Node369002</title>
<path fill="none" stroke="#191970" d="M55.9271,-246.1844C67.0059,-222.4925 98.0058,-161.3085 139,-123 148.6915,-113.9434 161.0025,-106.2493 172.3291,-100.262"/>
<polygon fill="#191970" stroke="#191970" points="174.166,-103.2562 181.5329,-95.6417 171.0255,-97.0002 174.166,-103.2562"/>
</g>
<!-- Node368846 -->
<g id="node29" class="node">
<title>Node368846</title>
<g id="a_node29"><a xlink:href="quickjs_8c.html#a73738c650f11459db0d7af3dcdf8316b" target="_top" xlink:title="JS_NewObjectProtoClass">
<polygon fill="none" stroke="#ff0000" points="139,-38.5 139,-57.5 270,-57.5 270,-38.5 139,-38.5"/>
<text text-anchor="middle" x="204.5" y="-45.5" font-family="Helvetica,sans-Serif" font-size="10.00" fill="#000000">JS_NewObjectProtoClass</text>
</a>
</g>
</g>
<!-- Node368700&#45;&gt;Node368846 -->
<g id="edge47" class="edge">
<title>Node368700&#45;&gt;Node368846</title>
<path fill="none" stroke="#191970" d="M53.0534,-246.4794C58.5972,-215.6172 80.3073,-117.4247 139,-67 140.9646,-65.3122 143.0717,-63.774 145.2826,-62.3724"/>
<polygon fill="#191970" stroke="#191970" points="147.0523,-65.3956 154.2429,-57.6145 143.7694,-59.2131 147.0523,-65.3956"/>
</g>
<!-- Node368757 -->
<g id="node30" class="node">
<title>Node368757</title>
<g id="a_node30"><a xlink:href="quickjs_8c.html#a7bcb8e1a20cbc8374a5f9ba4a2088cec" target="_top" xlink:title="JS_ToString">
<polygon fill="none" stroke="#ff0000" points="169,-.5 169,-19.5 240,-19.5 240,-.5 169,-.5"/>
<text text-anchor="middle" x="204.5" y="-7.5" font-family="Helvetica,sans-Serif" font-size="10.00" fill="#000000">JS_ToString</text>
</a>
</g>
</g>
<!-- Node368700&#45;&gt;Node368757 -->
<g id="edge48" class="edge">
<title>Node368700&#45;&gt;Node368757</title>
<path fill="none" stroke="#191970" d="M52.2723,-246.1153C55.5566,-210.9877 71.4789,-90.9763 139,-29 144.6371,-23.8258 151.6023,-20.0531 158.8657,-17.3042"/>
<polygon fill="#191970" stroke="#191970" points="160.3732,-20.4988 168.8585,-14.1546 158.2689,-13.8226 160.3732,-20.4988"/>
</g>
<!-- Node368702 -->
<g id="node3" class="node">
<title>Node368702</title>
<g id="a_node3"><a xlink:href="cutils_8h.html#a7e3df12bda422b64b14ec2fc2f487c5f" target="_top" xlink:title="__attribute__">
<polygon fill="none" stroke="#000000" points="342.5,-1082.5 342.5,-1101.5 415.5,-1101.5 415.5,-1082.5 342.5,-1082.5"/>
<text text-anchor="middle" x="379" y="-1089.5" font-family="Helvetica,sans-Serif" font-size="10.00" fill="#000000">__attribute__</text>
</a>
</g>
</g>
<!-- Node368701&#45;&gt;Node368702 -->
<g id="edge2" class="edge">
<title>Node368701&#45;&gt;Node368702</title>
<path fill="none" stroke="#191970" d="M206.7237,-892.6644C214.4468,-923.9761 243.1401,-1023.4654 306,-1073 313.6341,-1079.0158 322.9775,-1083.1404 332.3974,-1085.9648"/>
<polygon fill="#191970" stroke="#191970" points="331.618,-1089.3781 342.1732,-1088.4622 333.3507,-1082.5959 331.618,-1089.3781"/>
</g>
<!-- Node368703 -->
<g id="node4" class="node">
<title>Node368703</title>
<g id="a_node4"><a xlink:href="cutils_8h.html#a1fed0a329cb7bb0e04283285037921a4" target="_top" xlink:title="dbuf_error">
<polygon fill="none" stroke="#000000" points="349,-1044.5 349,-1063.5 409,-1063.5 409,-1044.5 349,-1044.5"/>
<text text-anchor="middle" x="379" y="-1051.5" font-family="Helvetica,sans-Serif" font-size="10.00" fill="#000000">dbuf_error</text>
</a>
</g>
</g>
<!-- Node368701&#45;&gt;Node368703 -->
<g id="edge3" class="edge">
<title>Node368701&#45;&gt;Node368703</title>
<path fill="none" stroke="#191970" d="M208.0429,-892.6016C218.5055,-919.5731 251.9601,-996.5566 306,-1035 315.6565,-1041.8696 327.6077,-1046.2566 339.0246,-1049.0579"/>
<polygon fill="#191970" stroke="#191970" points="338.3414,-1052.4908 348.849,-1051.1339 339.7887,-1045.642 338.3414,-1052.4908"/>
</g>
<!-- Node368704 -->
<g id="node5" class="node">
<title>Node368704</title>
<g id="a_node5"><a xlink:href="cutils_8h.html#a8a3b715fc2146312b777c4e3db546b55" target="_top" xlink:title="dbuf_free">
<polygon fill="none" stroke="#000000" points="350.5,-1006.5 350.5,-1025.5 407.5,-1025.5 407.5,-1006.5 350.5,-1006.5"/>
<text text-anchor="middle" x="379" y="-1013.5" font-family="Helvetica,sans-Serif" font-size="10.00" fill="#000000">dbuf_free</text>
</a>
</g>
</g>
<!-- Node368701&#45;&gt;Node368704 -->
<g id="edge4" class="edge">
<title>Node368701&#45;&gt;Node368704</title>
<path fill="none" stroke="#191970" d="M210.2501,-892.6762C223.9044,-914.7795 260.5626,-969.2058 306,-997 316.3685,-1003.3425 328.8141,-1007.5834 340.4678,-1010.413"/>
<polygon fill="#191970" stroke="#191970" points="339.9209,-1013.8753 350.433,-1012.5536 341.3911,-1007.0314 339.9209,-1013.8753"/>
</g>
<!-- Node368705 -->
<g id="node6" class="node">
<title>Node368705</title>
<g id="a_node6"><a xlink:href="cutils_8h.html#aeed81d4787ccdbd55baa9b5fd6717e88" target="_top" xlink:title="dbuf_putc">
<polygon fill="none" stroke="#ff0000" points="349.5,-968.5 349.5,-987.5 408.5,-987.5 408.5,-968.5 349.5,-968.5"/>
<text text-anchor="middle" x="379" y="-975.5" font-family="Helvetica,sans-Serif" font-size="10.00" fill="#000000">dbuf_putc</text>
</a>
</g>
</g>
<!-- Node368701&#45;&gt;Node368705 -->
<g id="edge5" class="edge">
<title>Node368701&#45;&gt;Node368705</title>
<path fill="none" stroke="#191970" d="M214.5624,-892.6956C231.8465,-908.8218 268.9084,-941.1436 306,-959 316.3893,-964.0015 328.2673,-967.8102 339.381,-970.6549"/>
<polygon fill="#191970" stroke="#191970" points="338.7709,-974.1071 349.308,-973.0029 340.3822,-967.295 338.7709,-974.1071"/>
</g>
<!-- Node368708 -->
<g id="node7" class="node">
<title>Node368708</title>
<g id="a_node7"><a xlink:href="quickjs_8c.html#af139f102b1c52111bc98af4ba935bf18" target="_top" xlink:title="find_line_num">
<polygon fill="none" stroke="#ff0000" points="340.5,-930.5 340.5,-949.5 417.5,-949.5 417.5,-930.5 340.5,-930.5"/>
<text text-anchor="middle" x="379" y="-937.5" font-family="Helvetica,sans-Serif" font-size="10.00" fill="#000000">find_line_num</text>
</a>
</g>
</g>
<!-- Node368701&#45;&gt;Node368708 -->
<g id="edge6" class="edge">
<title>Node368701&#45;&gt;Node368708</title>
<path fill="none" stroke="#191970" d="M228.0473,-892.6085C248.4654,-900.7486 278.9114,-912.4293 306,-921 313.8114,-923.4715 322.1647,-925.8697 330.3285,-928.0829"/>
<polygon fill="#191970" stroke="#191970" points="329.5805,-931.5055 340.1433,-930.6833 331.3732,-924.7389 329.5805,-931.5055"/>
</g>
<!-- Node368711 -->
<g id="node8" class="node">
<title>Node368711</title>
<g id="a_node8"><a xlink:href="quickjs_8c.html#adb1fc78e06c842a22d4fa3bf3fb75f70" target="_top" xlink:title="get_func_name">
<polygon fill="none" stroke="#ff0000" points="337.5,-892.5 337.5,-911.5 420.5,-911.5 420.5,-892.5 337.5,-892.5"/>
<text text-anchor="middle" x="379" y="-899.5" font-family="Helvetica,sans-Serif" font-size="10.00" fill="#000000">get_func_name</text>
</a>
</g>
</g>
<!-- Node368701&#45;&gt;Node368711 -->
<g id="edge7" class="edge">
<title>Node368701&#45;&gt;Node368711</title>
<path fill="none" stroke="#191970" d="M247.1875,-887.6479C271.3088,-890.2743 301.6416,-893.577 327.1266,-896.3519"/>
<polygon fill="#191970" stroke="#191970" points="327.0352,-899.8625 337.3554,-897.4656 327.793,-892.9037 327.0352,-899.8625"/>
</g>
<!-- Node368877 -->
<g id="node9" class="node">
<title>Node368877</title>
<g id="a_node9"><a xlink:href="quickjs_8c.html#ab18048ab5eea3e47109a5473f78515bc" target="_top" xlink:title="JS_AtomGetStr">
<polygon fill="none" stroke="#ff0000" points="336,-854.5 336,-873.5 422,-873.5 422,-854.5 336,-854.5"/>
<text text-anchor="middle" x="379" y="-861.5" font-family="Helvetica,sans-Serif" font-size="10.00" fill="#000000">JS_AtomGetStr</text>
</a>
</g>
</g>
<!-- Node368701&#45;&gt;Node368877 -->
<g id="edge8" class="edge">
<title>Node368701&#45;&gt;Node368877</title>
<path fill="none" stroke="#191970" d="M247.1875,-878.3521C270.8654,-875.774 300.5285,-872.5442 325.7163,-869.8017"/>
<polygon fill="#191970" stroke="#191970" points="326.2827,-873.2608 335.845,-868.6988 325.5249,-866.3019 326.2827,-873.2608"/>
</g>
<!-- Node368844 -->
<g id="node10" class="node">
<title>Node368844</title>
<g id="a_node10"><a xlink:href="quickjs_8c.html#a76e95dd1ab1d7cb4b9407d2ad41ee119" target="_top" xlink:title="js_class_has_bytecode">
<polygon fill="none" stroke="#000000" points="319.5,-816.5 319.5,-835.5 438.5,-835.5 438.5,-816.5 319.5,-816.5"/>
<text text-anchor="middle" x="379" y="-823.5" font-family="Helvetica,sans-Serif" font-size="10.00" fill="#000000">js_class_has_bytecode</text>
</a>
</g>
</g>
<!-- Node368701&#45;&gt;Node368844 -->
<g id="edge9" class="edge">
<title>Node368701&#45;&gt;Node368844</title>
<path fill="none" stroke="#191970" d="M228.0473,-873.3915C248.4654,-865.2514 278.9114,-853.5707 306,-845 313.55,-842.6112 321.6062,-840.2909 329.5082,-838.1399"/>
<polygon fill="#191970" stroke="#191970" points="330.6206,-841.4658 339.3853,-835.5135 328.8217,-834.7009 330.6206,-841.4658"/>
</g>
<!-- Node369127 -->
<g id="node11" class="node">
<title>Node369127</title>
<g id="a_node11"><a xlink:href="quickjs_8c.html#a85c6e39e83eab2ddb82d58e82721d06a" target="_top" xlink:title="js_dbuf_init">
<polygon fill="none" stroke="#ff0000" points="346,-778.5 346,-797.5 412,-797.5 412,-778.5 346,-778.5"/>
<text text-anchor="middle" x="379" y="-785.5" font-family="Helvetica,sans-Serif" font-size="10.00" fill="#000000">js_dbuf_init</text>
</a>
</g>
</g>
<!-- Node368701&#45;&gt;Node369127 -->
<g id="edge10" class="edge">
<title>Node368701&#45;&gt;Node369127</title>
<path fill="none" stroke="#191970" d="M214.5624,-873.3044C231.8465,-857.1782 268.9084,-824.8564 306,-807 315.2923,-802.5266 325.7755,-799.0074 335.8376,-796.2787"/>
<polygon fill="#191970" stroke="#191970" points="336.8503,-799.6333 345.6997,-793.8075 335.1488,-792.8432 336.8503,-799.6333"/>
</g>
<!-- Node368701&#45;&gt;Node368838 -->
<g id="edge11" class="edge">
<title>Node368701&#45;&gt;Node368838</title>
<path fill="none" stroke="#191970" d="M206.7237,-873.3356C214.4468,-842.0239 243.1401,-742.5346 306,-693 308.3143,-691.1763 310.7858,-689.5263 313.3688,-688.0337"/>
<polygon fill="#191970" stroke="#191970" points="315.0823,-691.0916 322.5149,-683.5413 311.9962,-684.8086 315.0823,-691.0916"/>
</g>
<!-- Node368831 -->
<g id="node14" class="node">
<title>Node368831</title>
<g id="a_node14"><a xlink:href="quickjs_8c.html#ae0bc4f65da64810facb2cb9e476eda2e" target="_top" xlink:title="JS_FreeCString">
<polygon fill="none" stroke="#000000" points="336,-702.5 336,-721.5 422,-721.5 422,-702.5 336,-702.5"/>
<text text-anchor="middle" x="379" y="-709.5" font-family="Helvetica,sans-Serif" font-size="10.00" fill="#000000">JS_FreeCString</text>
</a>
</g>
</g>
<!-- Node368701&#45;&gt;Node368831 -->
<g id="edge13" class="edge">
<title>Node368701&#45;&gt;Node368831</title>
<path fill="none" stroke="#191970" d="M208.0429,-873.3984C218.5055,-846.4269 251.9601,-769.4434 306,-731 312.0158,-726.7204 318.9222,-723.4042 326.0352,-720.8348"/>
<polygon fill="#191970" stroke="#191970" points="327.3038,-724.1051 335.7986,-717.7734 325.2094,-717.4257 327.3038,-724.1051"/>
</g>
<!-- Node368817 -->
<g id="node15" class="node">
<title>Node368817</title>
<g id="a_node15"><a xlink:href="quickjs_8h.html#a2050bc428da1c65ac7eb87c3fa3b0392" target="_top" xlink:title="JS_NewInt32">
<polygon fill="none" stroke="#000000" points="341,-740.5 341,-759.5 417,-759.5 417,-740.5 341,-740.5"/>
<text text-anchor="middle" x="379" y="-747.5" font-family="Helvetica,sans-Serif" font-size="10.00" fill="#000000">JS_NewInt32</text>
</a>
</g>
</g>
<!-- Node368701&#45;&gt;Node368817 -->
<g id="edge15" class="edge">
<title>Node368701&#45;&gt;Node368817</title>
<path fill="none" stroke="#191970" d="M210.2501,-873.3238C223.9044,-851.2205 260.5626,-796.7942 306,-769 313.6298,-764.3328 322.3843,-760.8036 331.1203,-758.1373"/>
<polygon fill="#191970" stroke="#191970" points="332.1807,-761.4762 340.9147,-755.4791 330.3471,-754.7206 332.1807,-761.4762"/>
</g>
<!-- Node368763 -->
<g id="node16" class="node">
<title>Node368763</title>
<g id="a_node16"><a xlink:href="quickjs_8c.html#a0ee6a3654a6016393fac5e1c108f403a" target="_top" xlink:title="JS_NewString">
<polygon fill="none" stroke="#ff0000" points="339,-1120.5 339,-1139.5 419,-1139.5 419,-1120.5 339,-1120.5"/>
<text text-anchor="middle" x="379" y="-1127.5" font-family="Helvetica,sans-Serif" font-size="10.00" fill="#000000">JS_NewString</text>
</a>
</g>
</g>
<!-- Node368701&#45;&gt;Node368763 -->
<g id="edge16" class="edge">
<title>Node368701&#45;&gt;Node368763</title>
<path fill="none" stroke="#191970" d="M205.7832,-892.5417C211.0086,-927.5284 233.9568,-1049.9121 306,-1111 312.6048,-1116.6005 320.6681,-1120.5754 328.9957,-1123.3909"/>
<polygon fill="#191970" stroke="#191970" points="328.2451,-1126.8163 338.8215,-1126.1913 330.1638,-1120.0843 328.2451,-1126.8163"/>
</g>
<!-- Node368838&#45;&gt;Node368721 -->
<g id="edge12" class="edge">
<title>Node368838&#45;&gt;Node368721</title>
<path fill="none" stroke="#191970" d="M420.9181,-664.4241C431.5776,-660.887 442.651,-656.179 452,-650 480.8985,-630.9003 505.6439,-598.5395 519.4013,-578.2694"/>
<polygon fill="#191970" stroke="#191970" points="522.502,-579.9249 525.0836,-569.6493 516.6576,-576.0722 522.502,-579.9249"/>
</g>
<!-- Node368831&#45;&gt;Node368721 -->
<g id="edge14" class="edge">
<title>Node368831&#45;&gt;Node368721</title>
<path fill="none" stroke="#191970" d="M422.0525,-706.6462C432.5844,-703.8261 443.3123,-699.5323 452,-693 491.0195,-663.6611 514.4575,-608.9293 524.7684,-579.6586"/>
<polygon fill="#191970" stroke="#191970" points="528.2159,-580.3869 528.0825,-569.7929 521.5803,-578.1578 528.2159,-580.3869"/>
</g>
<!-- Node369130&#45;&gt;Node368721 -->
<g id="edge19" class="edge">
<title>Node369130&#45;&gt;Node368721</title>
<path fill="none" stroke="#191970" d="M211.335,-436.6802C226.0683,-456.719 262.9885,-502.6528 306,-524 361.9566,-551.772 434.4926,-558.9798 481.8625,-560.4262"/>
<polygon fill="#191970" stroke="#191970" points="481.7886,-563.9253 491.8668,-560.6573 481.9504,-556.9272 481.7886,-563.9253"/>
</g>
<!-- Node369131 -->
<g id="node18" class="node">
<title>Node369131</title>
<g id="a_node18"><a xlink:href="quickjs_8c.html#a57a83f0615206965524d78bf89bbf777" target="_top" xlink:title="JS_DefinePropertyValueInt64">
<polygon fill="none" stroke="#ff0000" points="306,-474.5 306,-493.5 452,-493.5 452,-474.5 306,-474.5"/>
<text text-anchor="middle" x="379" y="-481.5" font-family="Helvetica,sans-Serif" font-size="10.00" fill="#000000">JS_DefinePropertyValueInt64</text>
</a>
</g>
</g>
<!-- Node369130&#45;&gt;Node369131 -->
<g id="edge18" class="edge">
<title>Node369130&#45;&gt;Node369131</title>
<path fill="none" stroke="#191970" d="M228.0473,-436.6085C248.4654,-444.7486 278.9114,-456.4293 306,-465 313.55,-467.3888 321.6062,-469.7091 329.5082,-471.8601"/>
<polygon fill="#191970" stroke="#191970" points="328.8217,-475.2991 339.3853,-474.4865 330.6206,-468.5342 328.8217,-475.2991"/>
</g>
<!-- Node368986 -->
<g id="node19" class="node">
<title>Node368986</title>
<g id="a_node19"><a xlink:href="quickjs_8c.html#a5ec5d4521881c24fd8de4e8a4f602fba" target="_top" xlink:title="JS_GetIterator">
<polygon fill="none" stroke="#ff0000" points="339,-398.5 339,-417.5 419,-417.5 419,-398.5 339,-398.5"/>
<text text-anchor="middle" x="379" y="-405.5" font-family="Helvetica,sans-Serif" font-size="10.00" fill="#000000">JS_GetIterator</text>
</a>
</g>
</g>
<!-- Node369130&#45;&gt;Node368986 -->
<g id="edge20" class="edge">
<title>Node369130&#45;&gt;Node368986</title>
<path fill="none" stroke="#191970" d="M248.0836,-422.2545C272.5715,-419.5882 303.2425,-416.2487 328.7409,-413.4723"/>
<polygon fill="#191970" stroke="#191970" points="329.3935,-416.9221 338.9559,-412.3601 328.6358,-409.9632 329.3935,-416.9221"/>
</g>
<!-- Node369130&#45;&gt;Node368812 -->
<g id="edge25" class="edge">
<title>Node369130&#45;&gt;Node368812</title>
<path fill="none" stroke="#191970" d="M213.092,-436.6422C229.2407,-453.9501 266.1059,-489.7194 306,-503 367.5671,-523.4954 390.254,-522.95 452,-503 476.4419,-495.1028 499.6877,-476.5142 514.5541,-462.6992"/>
<polygon fill="#191970" stroke="#191970" points="517.1343,-465.0733 521.9054,-455.6135 512.2765,-460.0333 517.1343,-465.0733"/>
</g>
<!-- Node369130&#45;&gt;Node368756 -->
<g id="edge26" class="edge">
<title>Node369130&#45;&gt;Node368756</title>
<path fill="none" stroke="#191970" d="M213.092,-417.3578C229.2407,-400.0499 266.1059,-364.2806 306,-351 367.5671,-330.5046 389.0146,-335.3986 452,-351 469.561,-355.3498 471.716,-362.117 488,-370 491.6156,-371.7503 495.4305,-373.5299 499.2342,-375.2628"/>
<polygon fill="#191970" stroke="#191970" points="497.9895,-378.5403 508.5468,-379.4311 500.8493,-372.1511 497.9895,-378.5403"/>
</g>
<!-- Node368992 -->
<g id="node23" class="node">
<title>Node368992</title>
<g id="a_node23"><a xlink:href="quickjs_8c.html#abb88b24dc63d82fcc312bba0cf93c3d7" target="_top" xlink:title="JS_IteratorClose">
<polygon fill="none" stroke="#ff0000" points="334,-360.5 334,-379.5 424,-379.5 424,-360.5 334,-360.5"/>
<text text-anchor="middle" x="379" y="-367.5" font-family="Helvetica,sans-Serif" font-size="10.00" fill="#000000">JS_IteratorClose</text>
</a>
</g>
</g>
<!-- Node369130&#45;&gt;Node368992 -->
<g id="edge27" class="edge">
<title>Node369130&#45;&gt;Node368992</title>
<path fill="none" stroke="#191970" d="M228.0473,-417.3915C248.4654,-409.2514 278.9114,-397.5707 306,-389 313.55,-386.6112 321.6062,-384.2909 329.5082,-382.1399"/>
<polygon fill="#191970" stroke="#191970" points="330.6206,-385.4658 339.3853,-379.5135 328.8217,-378.7009 330.6206,-385.4658"/>
</g>
<!-- Node368993 -->
<g id="node25" class="node">
<title>Node368993</title>
<g id="a_node25"><a xlink:href="quickjs_8c.html#a44f6eee98516c994a594533cfa8618ed" target="_top" xlink:title="JS_IteratorNext">
<polygon fill="none" stroke="#ff0000" points="336,-436.5 336,-455.5 422,-455.5 422,-436.5 336,-436.5"/>
<text text-anchor="middle" x="379" y="-443.5" font-family="Helvetica,sans-Serif" font-size="10.00" fill="#000000">JS_IteratorNext</text>
</a>
</g>
</g>
<!-- Node369130&#45;&gt;Node368993 -->
<g id="edge33" class="edge">
<title>Node369130&#45;&gt;Node368993</title>
<path fill="none" stroke="#191970" d="M248.0836,-431.7455C271.6843,-434.3152 301.0281,-437.5102 325.9495,-440.2237"/>
<polygon fill="#191970" stroke="#191970" points="325.6518,-443.7119 335.9719,-441.315 326.4095,-436.753 325.6518,-443.7119"/>
</g>
<!-- Node368986&#45;&gt;Node368721 -->
<g id="edge21" class="edge">
<title>Node368986&#45;&gt;Node368721</title>
<path fill="none" stroke="#191970" d="M419.0146,-412.5788C430.4975,-415.367 442.4749,-419.8381 452,-427 491.0195,-456.3389 514.4575,-511.0707 524.7684,-540.3414"/>
<polygon fill="#191970" stroke="#191970" points="521.5803,-541.8422 528.0825,-550.2071 528.2159,-539.6131 521.5803,-541.8422"/>
</g>
<!-- Node368986&#45;&gt;Node368812 -->
<g id="edge22" class="edge">
<title>Node368986&#45;&gt;Node368812</title>
<path fill="none" stroke="#191970" d="M417.356,-417.589C437.3237,-422.5809 461.9295,-428.7324 483.1334,-434.0334"/>
<polygon fill="#191970" stroke="#191970" points="482.3695,-437.45 492.9198,-436.4799 484.0673,-430.659 482.3695,-437.45"/>
</g>
<!-- Node368986&#45;&gt;Node368756 -->
<g id="edge23" class="edge">
<title>Node368986&#45;&gt;Node368756</title>
<path fill="none" stroke="#191970" d="M419.3341,-402.9582C437.2266,-400.7217 458.5299,-398.0588 477.7088,-395.6614"/>
<polygon fill="#191970" stroke="#191970" points="478.3228,-399.112 487.8114,-394.3986 477.4545,-392.166 478.3228,-399.112"/>
</g>
<!-- Node368986&#45;&gt;Node368835 -->
<g id="edge24" class="edge">
<title>Node368986&#45;&gt;Node368835</title>
<path fill="none" stroke="#191970" d="M419.3097,-399.2828C430.0882,-396.4739 441.6223,-393.0266 452,-389 468.8666,-382.4557 471.716,-377.883 488,-370 491.6156,-368.2497 495.4305,-366.4701 499.2342,-364.7372"/>
<polygon fill="#191970" stroke="#191970" points="500.8493,-367.8489 508.5468,-360.5689 497.9895,-361.4597 500.8493,-367.8489"/>
</g>
<!-- Node368992&#45;&gt;Node368721 -->
<g id="edge28" class="edge">
<title>Node368992&#45;&gt;Node368721</title>
<path fill="none" stroke="#191970" d="M424.0521,-375.1721C434.0724,-378.0146 444.0627,-382.3643 452,-389 453.5896,-390.329 502.2123,-496.8088 522.3728,-541.0518"/>
<polygon fill="#191970" stroke="#191970" points="519.3034,-542.7568 526.6339,-550.4063 525.6737,-539.8551 519.3034,-542.7568"/>
</g>
<!-- Node368992&#45;&gt;Node368812 -->
<g id="edge29" class="edge">
<title>Node368992&#45;&gt;Node368812</title>
<path fill="none" stroke="#191970" d="M424.3169,-379.0062C433.6971,-381.6356 443.3499,-384.9296 452,-389 474.7249,-399.6936 497.6681,-417.1609 512.9297,-429.9451"/>
<polygon fill="#191970" stroke="#191970" points="510.6977,-432.6417 520.5678,-436.4928 515.2536,-427.3272 510.6977,-432.6417"/>
</g>
<!-- Node368992&#45;&gt;Node368756 -->
<g id="edge30" class="edge">
<title>Node368992&#45;&gt;Node368756</title>
<path fill="none" stroke="#191970" d="M424.1935,-375.6492C441.0188,-377.7523 460.2689,-380.1586 477.7501,-382.3438"/>
<polygon fill="#191970" stroke="#191970" points="477.4497,-385.8334 487.8066,-383.6008 478.318,-378.8874 477.4497,-385.8334"/>
</g>
<!-- Node368992&#45;&gt;Node368835 -->
<g id="edge32" class="edge">
<title>Node368992&#45;&gt;Node368835</title>
<path fill="none" stroke="#191970" d="M424.1935,-364.3508C441.0188,-362.2477 460.2689,-359.8414 477.7501,-357.6562"/>
<polygon fill="#191970" stroke="#191970" points="478.318,-361.1126 487.8066,-356.3992 477.4497,-354.1666 478.318,-361.1126"/>
</g>
<!-- Node368992&#45;&gt;Node368990 -->
<g id="edge31" class="edge">
<title>Node368992&#45;&gt;Node368990</title>
<path fill="none" stroke="#191970" d="M394.4111,-360.3681C420.9267,-343.7958 475.3643,-309.7723 506.9208,-290.0495"/>
<polygon fill="#191970" stroke="#191970" points="508.9232,-292.9254 515.5482,-284.6574 505.2131,-286.9894 508.9232,-292.9254"/>
</g>
<!-- Node368993&#45;&gt;Node368721 -->
<g id="edge34" class="edge">
<title>Node368993&#45;&gt;Node368721</title>
<path fill="none" stroke="#191970" d="M422.1471,-452.5244C432.4497,-455.3224 443.0458,-459.3128 452,-465 482.6194,-484.4477 507.2574,-519.6543 520.4559,-541.315"/>
<polygon fill="#191970" stroke="#191970" points="517.6039,-543.3694 525.6955,-550.2087 523.6351,-539.8162 517.6039,-543.3694"/>
</g>
<!-- Node368993&#45;&gt;Node368812 -->
<g id="edge35" class="edge">
<title>Node368993&#45;&gt;Node368812</title>
<path fill="none" stroke="#191970" d="M422.1505,-446C439.3992,-446 459.4433,-446 477.5957,-446"/>
<polygon fill="#191970" stroke="#191970" points="477.7416,-449.5001 487.7416,-446 477.7415,-442.5001 477.7416,-449.5001"/>
</g>
<!-- Node368993&#45;&gt;Node368756 -->
<g id="edge36" class="edge">
<title>Node368993&#45;&gt;Node368756</title>
<path fill="none" stroke="#191970" d="M421.5052,-436.4197C431.6166,-433.7349 442.2868,-430.5619 452,-427 469.9338,-420.4235 489.2714,-411.1618 504.3257,-403.4285"/>
<polygon fill="#191970" stroke="#191970" points="506.3013,-406.3452 513.5423,-398.6109 503.0586,-400.1416 506.3013,-406.3452"/>
</g>
<!-- Node369002&#45;&gt;Node369002 -->
<g id="edge42" class="edge">
<title>Node369002&#45;&gt;Node369002</title>
<path fill="none" stroke="#191970" d="M181.0724,-95.7571C169.6752,-104.5653 177.4844,-114 204.5,-114 222.229,-114 231.6865,-109.9368 232.8725,-104.6539"/>
<polygon fill="#191970" stroke="#191970" points="235.8449,-102.7974 227.9276,-95.7571 229.7265,-106.1981 235.8449,-102.7974"/>
</g>
</g>
</svg>
