<?xml version="1.0" encoding="UTF-8" standalone="no"?>
<!DOCTYPE svg PUBLIC "-//W3C//DTD SVG 1.1//EN"
 "http://www.w3.org/Graphics/SVG/1.1/DTD/svg11.dtd">
<!-- Generated by graphviz version 2.40.1 (20161225.0304)
 -->
<!-- Title: JS_GetArrayBuffer Pages: 1 -->
<svg width="579pt" height="83pt"
 viewBox="0.00 0.00 579.00 83.00" xmlns="http://www.w3.org/2000/svg" xmlns:xlink="http://www.w3.org/1999/xlink">
<g id="graph0" class="graph" transform="scale(1 1) rotate(0) translate(4 79)">
<title>JS_GetArrayBuffer</title>
<!-- Node454233 -->
<g id="node1" class="node">
<title>Node454233</title>
<polygon fill="#bfbfbf" stroke="#000000" points="0,-28 0,-47 99,-47 99,-28 0,-28"/>
<text text-anchor="middle" x="49.5" y="-35" font-family="Helvetica,sans-Serif" font-size="10.00" fill="#000000">JS_GetArrayBuffer</text>
</g>
<!-- Node454234 -->
<g id="node2" class="node">
<title>Node454234</title>
<g id="a_node2"><a xlink:href="quickjs_8c.html#a939f8b5d288d1f52e00280a42a29b9b4" target="_top" xlink:title="js_get_array_buffer">
<polygon fill="none" stroke="#000000" points="158,-50 158,-69 258,-69 258,-50 158,-50"/>
<text text-anchor="middle" x="208" y="-57" font-family="Helvetica,sans-Serif" font-size="10.00" fill="#000000">js_get_array_buffer</text>
</a>
</g>
</g>
<!-- Node454233&#45;&gt;Node454234 -->
<g id="edge1" class="edge">
<title>Node454233&#45;&gt;Node454234</title>
<path fill="none" stroke="#191970" d="M99.2155,-44.4006C114.5571,-46.53 131.6218,-48.8986 147.601,-51.1165"/>
<polygon fill="#191970" stroke="#191970" points="147.5297,-54.6401 157.9159,-52.5483 148.4921,-47.7066 147.5297,-54.6401"/>
</g>
<!-- Node454242 -->
<g id="node5" class="node">
<title>Node454242</title>
<g id="a_node5"><a xlink:href="quickjs_8c.html#a033dd3ebd29c4eb9f0baff1dd0fec0b1" target="_top" xlink:title="JS_ThrowTypeErrorDetached\lArrayBuffer">
<polygon fill="none" stroke="#000000" points="135,-.5 135,-30.5 281,-30.5 281,-.5 135,-.5"/>
<text text-anchor="start" x="143" y="-18.5" font-family="Helvetica,sans-Serif" font-size="10.00" fill="#000000">JS_ThrowTypeErrorDetached</text>
<text text-anchor="middle" x="208" y="-7.5" font-family="Helvetica,sans-Serif" font-size="10.00" fill="#000000">ArrayBuffer</text>
</a>
</g>
</g>
<!-- Node454233&#45;&gt;Node454242 -->
<g id="edge4" class="edge">
<title>Node454233&#45;&gt;Node454242</title>
<path fill="none" stroke="#191970" d="M99.2155,-30.5994C107.4608,-29.455 116.2038,-28.2414 125.0086,-27.0193"/>
<polygon fill="#191970" stroke="#191970" points="125.5286,-30.4808 134.9524,-25.6391 124.5661,-23.5473 125.5286,-30.4808"/>
</g>
<!-- Node454235 -->
<g id="node3" class="node">
<title>Node454235</title>
<g id="a_node3"><a xlink:href="quickjs_8c.html#ab0f713d7a2440dbb2673810323a9a78d" target="_top" xlink:title="JS_ThrowTypeErrorInvalid\lClass">
<polygon fill="none" stroke="#000000" points="317,-44.5 317,-74.5 449,-74.5 449,-44.5 317,-44.5"/>
<text text-anchor="start" x="325" y="-62.5" font-family="Helvetica,sans-Serif" font-size="10.00" fill="#000000">JS_ThrowTypeErrorInvalid</text>
<text text-anchor="middle" x="383" y="-51.5" font-family="Helvetica,sans-Serif" font-size="10.00" fill="#000000">Class</text>
</a>
</g>
</g>
<!-- Node454234&#45;&gt;Node454235 -->
<g id="edge2" class="edge">
<title>Node454234&#45;&gt;Node454235</title>
<path fill="none" stroke="#191970" d="M258.148,-59.5C273.287,-59.5 290.2625,-59.5 306.7016,-59.5"/>
<polygon fill="#191970" stroke="#191970" points="306.8469,-63.0001 316.8468,-59.5 306.8468,-56.0001 306.8469,-63.0001"/>
</g>
<!-- Node454236 -->
<g id="node4" class="node">
<title>Node454236</title>
<g id="a_node4"><a xlink:href="quickjs_8c.html#ab18048ab5eea3e47109a5473f78515bc" target="_top" xlink:title="JS_AtomGetStr">
<polygon fill="none" stroke="#ff0000" points="485,-50 485,-69 571,-69 571,-50 485,-50"/>
<text text-anchor="middle" x="528" y="-57" font-family="Helvetica,sans-Serif" font-size="10.00" fill="#000000">JS_AtomGetStr</text>
</a>
</g>
</g>
<!-- Node454235&#45;&gt;Node454236 -->
<g id="edge3" class="edge">
<title>Node454235&#45;&gt;Node454236</title>
<path fill="none" stroke="#191970" d="M449.1352,-59.5C457.6431,-59.5 466.2688,-59.5 474.5388,-59.5"/>
<polygon fill="#191970" stroke="#191970" points="474.7882,-63.0001 484.7882,-59.5 474.7882,-56.0001 474.7882,-63.0001"/>
</g>
</g>
</svg>
