<?xml version="1.0" encoding="UTF-8" standalone="no"?>
<!DOCTYPE svg PUBLIC "-//W3C//DTD SVG 1.1//EN"
 "http://www.w3.org/Graphics/SVG/1.1/DTD/svg11.dtd">
<!-- Generated by graphviz version 2.40.1 (20161225.0304)
 -->
<!-- Title: js_aggregate_error_errors Pages: 1 -->
<svg width="754pt" height="294pt"
 viewBox="0.00 0.00 754.00 294.00" xmlns="http://www.w3.org/2000/svg" xmlns:xlink="http://www.w3.org/1999/xlink">
<g id="graph0" class="graph" transform="scale(1 1) rotate(0) translate(4 290)">
<title>js_aggregate_error_errors</title>
<!-- Node369654 -->
<g id="node1" class="node">
<title>Node369654</title>
<polygon fill="#bfbfbf" stroke="#000000" points="0,-90 0,-120 97,-120 97,-90 0,-90"/>
<text text-anchor="start" x="8" y="-108" font-family="Helvetica,sans-Serif" font-size="10.00" fill="#000000">js_aggregate_error</text>
<text text-anchor="middle" x="48.5" y="-97" font-family="Helvetica,sans-Serif" font-size="10.00" fill="#000000">_errors</text>
</g>
<!-- Node369655 -->
<g id="node2" class="node">
<title>Node369655</title>
<g id="a_node2"><a xlink:href="quickjs_8c.html#a57a83f0615206965524d78bf89bbf777" target="_top" xlink:title="JS_DefinePropertyValueInt64">
<polygon fill="none" stroke="#000000" points="133,-152.5 133,-171.5 279,-171.5 279,-152.5 133,-152.5"/>
<text text-anchor="middle" x="206" y="-159.5" font-family="Helvetica,sans-Serif" font-size="10.00" fill="#000000">JS_DefinePropertyValueInt64</text>
</a>
</g>
</g>
<!-- Node369654&#45;&gt;Node369655 -->
<g id="edge1" class="edge">
<title>Node369654&#45;&gt;Node369655</title>
<path fill="none" stroke="#191970" d="M85.772,-120.0625C100.426,-125.8513 117.4377,-132.4077 133,-138 143.6698,-141.8341 155.3003,-145.7675 166.078,-149.3118"/>
<polygon fill="#191970" stroke="#191970" points="165.0916,-152.6714 175.684,-152.4432 167.2612,-146.0161 165.0916,-152.6714"/>
</g>
<!-- Node369685 -->
<g id="node5" class="node">
<title>Node369685</title>
<g id="a_node5"><a xlink:href="quickjs_8h.html#afaa20c47565bc704c6c85f3d77254e7d" target="_top" xlink:title="JS_FreeValue">
<polygon fill="none" stroke="#ff0000" points="664,-266.5 664,-285.5 742,-285.5 742,-266.5 664,-266.5"/>
<text text-anchor="middle" x="703" y="-273.5" font-family="Helvetica,sans-Serif" font-size="10.00" fill="#000000">JS_FreeValue</text>
</a>
</g>
</g>
<!-- Node369654&#45;&gt;Node369685 -->
<g id="edge11" class="edge">
<title>Node369654&#45;&gt;Node369685</title>
<path fill="none" stroke="#191970" d="M61.2665,-120.1546C76.5876,-137.3841 103.8781,-165.1667 133,-181 281.423,-261.6961 332.5224,-257.8077 500,-280 552.1873,-286.9153 612.5712,-284.4009 653.8277,-281.1054"/>
<polygon fill="#191970" stroke="#191970" points="654.2178,-284.585 663.8879,-280.256 653.6288,-277.6098 654.2178,-284.585"/>
</g>
<!-- Node369720 -->
<g id="node8" class="node">
<title>Node369720</title>
<g id="a_node8"><a xlink:href="quickjs_8h.html#ad80a83d73e9b7d872b88fbf2943aebe9" target="_top" xlink:title="JS_IsException">
<polygon fill="none" stroke="#000000" points="660,-133.5 660,-152.5 746,-152.5 746,-133.5 660,-133.5"/>
<text text-anchor="middle" x="703" y="-140.5" font-family="Helvetica,sans-Serif" font-size="10.00" fill="#000000">JS_IsException</text>
</a>
</g>
</g>
<!-- Node369654&#45;&gt;Node369720 -->
<g id="edge13" class="edge">
<title>Node369654&#45;&gt;Node369720</title>
<path fill="none" stroke="#191970" d="M97.1592,-107.8251C216.8868,-114.7765 525.0718,-132.6696 649.6068,-139.9"/>
<polygon fill="#191970" stroke="#191970" points="649.48,-143.3985 659.6661,-140.4841 649.8858,-136.4102 649.48,-143.3985"/>
</g>
<!-- Node369684 -->
<g id="node10" class="node">
<title>Node369684</title>
<g id="a_node10"><a xlink:href="quickjs_8h.html#a775522f2d084fc8fa0fcb33f390006b4" target="_top" xlink:title="JS_DupValue">
<polygon fill="none" stroke="#000000" points="167.5,-76.5 167.5,-95.5 244.5,-95.5 244.5,-76.5 167.5,-76.5"/>
<text text-anchor="middle" x="206" y="-83.5" font-family="Helvetica,sans-Serif" font-size="10.00" fill="#000000">JS_DupValue</text>
</a>
</g>
</g>
<!-- Node369654&#45;&gt;Node369684 -->
<g id="edge10" class="edge">
<title>Node369654&#45;&gt;Node369684</title>
<path fill="none" stroke="#191970" d="M97.0403,-99.1443C116.1942,-96.8337 138.1585,-94.1841 157.3255,-91.8718"/>
<polygon fill="#191970" stroke="#191970" points="157.8474,-95.3344 167.3562,-90.6618 157.0089,-88.3847 157.8474,-95.3344"/>
</g>
<!-- Node369908 -->
<g id="node11" class="node">
<title>Node369908</title>
<g id="a_node11"><a xlink:href="quickjs_8c.html#a4e7bf9ce9c03f0cac9529a14161183e0" target="_top" xlink:title="js_get_fast_array">
<polygon fill="none" stroke="#000000" points="160,-38.5 160,-57.5 252,-57.5 252,-38.5 160,-38.5"/>
<text text-anchor="middle" x="206" y="-45.5" font-family="Helvetica,sans-Serif" font-size="10.00" fill="#000000">js_get_fast_array</text>
</a>
</g>
</g>
<!-- Node369654&#45;&gt;Node369908 -->
<g id="edge12" class="edge">
<title>Node369654&#45;&gt;Node369908</title>
<path fill="none" stroke="#191970" d="M78.8968,-89.8368C94.7604,-82.3082 114.642,-73.4653 133,-67 139.8786,-64.5775 147.2189,-62.3098 154.4946,-60.2443"/>
<polygon fill="#191970" stroke="#191970" points="155.6028,-63.5699 164.3264,-57.5574 153.7574,-56.8175 155.6028,-63.5699"/>
</g>
<!-- Node369898 -->
<g id="node12" class="node">
<title>Node369898</title>
<g id="a_node12"><a xlink:href="quickjs_8c.html#ad4ba09e4c7ab9f28c144182e1aacf1f6" target="_top" xlink:title="JS_NewArray">
<polygon fill="none" stroke="#ff0000" points="167.5,-.5 167.5,-19.5 244.5,-19.5 244.5,-.5 167.5,-.5"/>
<text text-anchor="middle" x="206" y="-7.5" font-family="Helvetica,sans-Serif" font-size="10.00" fill="#000000">JS_NewArray</text>
</a>
</g>
</g>
<!-- Node369654&#45;&gt;Node369898 -->
<g id="edge14" class="edge">
<title>Node369654&#45;&gt;Node369898</title>
<path fill="none" stroke="#191970" d="M61.2417,-89.7997C76.5396,-72.5271 103.8083,-44.7041 133,-29 140.5432,-24.942 148.9972,-21.7173 157.4041,-19.165"/>
<polygon fill="#191970" stroke="#191970" points="158.4828,-22.4984 167.1941,-16.4681 156.6236,-15.7497 158.4828,-22.4984"/>
</g>
<!-- Node369656 -->
<g id="node3" class="node">
<title>Node369656</title>
<g id="a_node3"><a xlink:href="quickjs_8c.html#a0c61bd5a64c743e81188bb528b78e715" target="_top" xlink:title="JS_DefinePropertyValueValue">
<polygon fill="none" stroke="#000000" points="315,-190.5 315,-209.5 464,-209.5 464,-190.5 315,-190.5"/>
<text text-anchor="middle" x="389.5" y="-197.5" font-family="Helvetica,sans-Serif" font-size="10.00" fill="#000000">JS_DefinePropertyValueValue</text>
</a>
</g>
</g>
<!-- Node369655&#45;&gt;Node369656 -->
<g id="edge2" class="edge">
<title>Node369655&#45;&gt;Node369656</title>
<path fill="none" stroke="#191970" d="M252.3048,-171.589C276.9559,-176.6939 307.4625,-183.0113 333.4447,-188.3918"/>
<polygon fill="#191970" stroke="#191970" points="333.0262,-191.8793 343.5282,-190.4799 334.4457,-185.0248 333.0262,-191.8793"/>
</g>
<!-- Node369900 -->
<g id="node9" class="node">
<title>Node369900</title>
<g id="a_node9"><a xlink:href="quickjs_8h.html#a6acbc709e59969eac6775f9b253b438f" target="_top" xlink:title="JS_NewInt64">
<polygon fill="none" stroke="#ff0000" points="351.5,-152.5 351.5,-171.5 427.5,-171.5 427.5,-152.5 351.5,-152.5"/>
<text text-anchor="middle" x="389.5" y="-159.5" font-family="Helvetica,sans-Serif" font-size="10.00" fill="#000000">JS_NewInt64</text>
</a>
</g>
</g>
<!-- Node369655&#45;&gt;Node369900 -->
<g id="edge9" class="edge">
<title>Node369655&#45;&gt;Node369900</title>
<path fill="none" stroke="#191970" d="M279.0513,-162C299.965,-162 322.2323,-162 341.2536,-162"/>
<polygon fill="#191970" stroke="#191970" points="341.4578,-165.5001 351.4578,-162 341.4578,-158.5001 341.4578,-165.5001"/>
</g>
<!-- Node369657 -->
<g id="node4" class="node">
<title>Node369657</title>
<g id="a_node4"><a xlink:href="quickjs_8c.html#a0a8765bd4012467d9139bc24aabcb3ca" target="_top" xlink:title="JS_DefinePropertyValue">
<polygon fill="none" stroke="#ff0000" points="500,-228.5 500,-247.5 624,-247.5 624,-228.5 500,-228.5"/>
<text text-anchor="middle" x="562" y="-235.5" font-family="Helvetica,sans-Serif" font-size="10.00" fill="#000000">JS_DefinePropertyValue</text>
</a>
</g>
</g>
<!-- Node369656&#45;&gt;Node369657 -->
<g id="edge3" class="edge">
<title>Node369656&#45;&gt;Node369657</title>
<path fill="none" stroke="#191970" d="M433.029,-209.589C456.0999,-214.6713 484.6266,-220.9554 508.9805,-226.3203"/>
<polygon fill="#191970" stroke="#191970" points="508.2651,-229.7466 518.784,-228.4799 509.7711,-222.9105 508.2651,-229.7466"/>
</g>
<!-- Node369656&#45;&gt;Node369685 -->
<g id="edge6" class="edge">
<title>Node369656&#45;&gt;Node369685</title>
<path fill="none" stroke="#191970" d="M403.7536,-209.6438C424.1067,-222.8647 463.1245,-246.2052 500,-257 550.8908,-271.8976 611.7347,-275.866 653.4567,-276.5948"/>
<polygon fill="#191970" stroke="#191970" points="653.5936,-280.0965 663.6342,-276.7149 653.6763,-273.097 653.5936,-280.0965"/>
</g>
<!-- Node369707 -->
<g id="node6" class="node">
<title>Node369707</title>
<g id="a_node6"><a xlink:href="quickjs_8c.html#ab7fc45a99935a1c0ba50b0216d9401a9" target="_top" xlink:title="JS_FreeAtom">
<polygon fill="none" stroke="#ff0000" points="523.5,-190.5 523.5,-209.5 600.5,-209.5 600.5,-190.5 523.5,-190.5"/>
<text text-anchor="middle" x="562" y="-197.5" font-family="Helvetica,sans-Serif" font-size="10.00" fill="#000000">JS_FreeAtom</text>
</a>
</g>
</g>
<!-- Node369656&#45;&gt;Node369707 -->
<g id="edge5" class="edge">
<title>Node369656&#45;&gt;Node369707</title>
<path fill="none" stroke="#191970" d="M464.1577,-200C480.7297,-200 497.8832,-200 513.1108,-200"/>
<polygon fill="#191970" stroke="#191970" points="513.3145,-203.5001 523.3145,-200 513.3145,-196.5001 513.3145,-203.5001"/>
</g>
<!-- Node369832 -->
<g id="node7" class="node">
<title>Node369832</title>
<g id="a_node7"><a xlink:href="quickjs_8c.html#a859d5c989a2aaecef1653b3ac279e108" target="_top" xlink:title="JS_ValueToAtom">
<polygon fill="none" stroke="#ff0000" points="515.5,-152.5 515.5,-171.5 608.5,-171.5 608.5,-152.5 515.5,-152.5"/>
<text text-anchor="middle" x="562" y="-159.5" font-family="Helvetica,sans-Serif" font-size="10.00" fill="#000000">JS_ValueToAtom</text>
</a>
</g>
</g>
<!-- Node369656&#45;&gt;Node369832 -->
<g id="edge7" class="edge">
<title>Node369656&#45;&gt;Node369832</title>
<path fill="none" stroke="#191970" d="M433.029,-190.411C456.0999,-185.3287 484.6266,-179.0446 508.9805,-173.6797"/>
<polygon fill="#191970" stroke="#191970" points="509.7711,-177.0895 518.784,-171.5201 508.2651,-170.2534 509.7711,-177.0895"/>
</g>
<!-- Node369657&#45;&gt;Node369685 -->
<g id="edge4" class="edge">
<title>Node369657&#45;&gt;Node369685</title>
<path fill="none" stroke="#191970" d="M597.5803,-247.589C615.782,-252.4944 638.1384,-258.5196 657.5723,-263.7571"/>
<polygon fill="#191970" stroke="#191970" points="656.8648,-267.1912 667.4311,-266.4141 658.6864,-260.4324 656.8648,-267.1912"/>
</g>
<!-- Node369832&#45;&gt;Node369720 -->
<g id="edge8" class="edge">
<title>Node369832&#45;&gt;Node369720</title>
<path fill="none" stroke="#191970" d="M608.5594,-155.726C621.7273,-153.9516 636.1595,-152.0069 649.6918,-150.1834"/>
<polygon fill="#191970" stroke="#191970" points="650.3857,-153.6216 659.8287,-148.8174 649.4508,-146.6843 650.3857,-153.6216"/>
</g>
</g>
</svg>
