<?xml version="1.0" encoding="UTF-8" standalone="no"?>
<!DOCTYPE svg PUBLIC "-//W3C//DTD SVG 1.1//EN"
 "http://www.w3.org/Graphics/SVG/1.1/DTD/svg11.dtd">
<!-- Generated by graphviz version 2.40.1 (20161225.0304)
 -->
<!-- Title: JS_GetOpaque2 Pages: 1 -->
<!--zoomable 78 -->
<svg id="main" version="1.1" xmlns="http://www.w3.org/2000/svg" xmlns:xlink="http://www.w3.org/1999/xlink" xml:space="preserve" onload="init(evt)">
<style type="text/css"><![CDATA[
.edge:hover path { stroke: red; }
.edge:hover polygon { stroke: red; fill: red; }
]]></style>
<script type="text/javascript"><![CDATA[
var edges = document.getElementsByTagName('g');
if (edges && edges.length) {
  for (var i=0;i<edges.length;i++) {
    if (edges[i].id.substr(0,4)=='edge') {
      edges[i].setAttribute('class','edge');
    }
  }
}
]]></script>
        <defs>
                <circle id="rim" cx="0" cy="0" r="7"/>
                <circle id="rim2" cx="0" cy="0" r="3.5"/>
                <g id="zoomPlus">
                        <use xlink:href="#rim" fill="#404040">
                                <set attributeName="fill" to="#808080" begin="zoomplus.mouseover" end="zoomplus.mouseout"/>
                        </use>
                        <path d="M-4,0h8M0,-4v8" fill="none" stroke="white" stroke-width="1.5" pointer-events="none"/>
                </g>
                <g id="zoomMin">
                        <use xlink:href="#rim" fill="#404040">
                                <set attributeName="fill" to="#808080" begin="zoomminus.mouseover" end="zoomminus.mouseout"/>
                        </use>
                        <path d="M-4,0h8" fill="none" stroke="white" stroke-width="1.5" pointer-events="none"/>
                </g>
                <g id="dirArrow">
                        <path fill="none" stroke="white" stroke-width="1.5" d="M0,-3.0v7 M-2.5,-0.5L0,-3.0L2.5,-0.5"/>
                </g>
               <g id="resetDef">
                       <use xlink:href="#rim2" fill="#404040">
                               <set attributeName="fill" to="#808080" begin="reset.mouseover" end="reset.mouseout"/>
                       </use>
               </g>
        </defs>

<script type="text/javascript">
var viewWidth = 522;
var viewHeight = 78;
var sectionId = 'dynsection-635';
</script>
<script xlink:href="svgpan.js"/>
<svg id="graph" class="graph">
<g id="viewport">
<title>JS_GetOpaque2</title>
<!-- Node216004 -->
<g id="node1" class="node">
<title>Node216004</title>
<polygon fill="#bfbfbf" stroke="#000000" points="0,-28 0,-47 89,-47 89,-28 0,-28"/>
<text text-anchor="middle" x="44.5" y="-35" font-family="Helvetica,sans-Serif" font-size="10.00" fill="#000000">JS_GetOpaque2</text>
</g>
<!-- Node216005 -->
<g id="node2" class="node">
<title>Node216005</title>
<g id="a_node2"><a xlink:href="quickjs_8c.html#a5644dc5dba0d760dcc06cc1a79e256cc" target="_top" xlink:title="JS_GetOpaque">
<polygon fill="none" stroke="#000000" points="149.5,-50 149.5,-69 232.5,-69 232.5,-50 149.5,-50"/>
<text text-anchor="middle" x="191" y="-57" font-family="Helvetica,sans-Serif" font-size="10.00" fill="#000000">JS_GetOpaque</text>
</a>
</g>
</g>
<!-- Node216004&#45;&gt;Node216005 -->
<g id="edge1" class="edge">
<title>Node216004&#45;&gt;Node216005</title>
<path fill="none" stroke="#191970" d="M89.2509,-44.2203C104.9994,-46.5852 122.8301,-49.2629 139.1165,-51.7086"/>
<polygon fill="#191970" stroke="#191970" points="138.6162,-55.1727 149.0251,-53.1966 139.6558,-48.2503 138.6162,-55.1727"/>
</g>
<!-- Node216006 -->
<g id="node3" class="node">
<title>Node216006</title>
<g id="a_node3"><a xlink:href="quickjs_8c.html#ab0f713d7a2440dbb2673810323a9a78d" target="_top" xlink:title="JS_ThrowTypeErrorInvalid\lClass">
<polygon fill="none" stroke="#000000" points="125,-.5 125,-30.5 257,-30.5 257,-.5 125,-.5"/>
<text text-anchor="start" x="133" y="-18.5" font-family="Helvetica,sans-Serif" font-size="10.00" fill="#000000">JS_ThrowTypeErrorInvalid</text>
<text text-anchor="middle" x="191" y="-7.5" font-family="Helvetica,sans-Serif" font-size="10.00" fill="#000000">Class</text>
</a>
</g>
</g>
<!-- Node216004&#45;&gt;Node216006 -->
<g id="edge2" class="edge">
<title>Node216004&#45;&gt;Node216006</title>
<path fill="none" stroke="#191970" d="M89.2509,-30.7797C97.4433,-29.5495 106.1992,-28.2346 115.0081,-26.9118"/>
<polygon fill="#191970" stroke="#191970" points="115.5795,-30.3653 124.9489,-25.4189 114.5399,-23.4429 115.5795,-30.3653"/>
</g>
<!-- Node216007 -->
<g id="node4" class="node">
<title>Node216007</title>
<g id="a_node4"><a xlink:href="quickjs_8c.html#ab18048ab5eea3e47109a5473f78515bc" target="_top" xlink:title="JS_AtomGetStr">
<polygon fill="none" stroke="#000000" points="293,-6 293,-25 379,-25 379,-6 293,-6"/>
<text text-anchor="middle" x="336" y="-13" font-family="Helvetica,sans-Serif" font-size="10.00" fill="#000000">JS_AtomGetStr</text>
</a>
</g>
</g>
<!-- Node216006&#45;&gt;Node216007 -->
<g id="edge3" class="edge">
<title>Node216006&#45;&gt;Node216007</title>
<path fill="none" stroke="#191970" d="M257.1352,-15.5C265.6431,-15.5 274.2688,-15.5 282.5388,-15.5"/>
<polygon fill="#191970" stroke="#191970" points="282.7882,-19.0001 292.7882,-15.5 282.7882,-12.0001 282.7882,-19.0001"/>
</g>
<!-- Node216008 -->
<g id="node5" class="node">
<title>Node216008</title>
<g id="a_node5"><a xlink:href="quickjs_8c.html#a4e63c63058f1efe20ee939c165f7b3ad" target="_top" xlink:title="JS_AtomGetStrRT">
<polygon fill="none" stroke="#ff0000" points="415,-6 415,-25 514,-25 514,-6 415,-6"/>
<text text-anchor="middle" x="464.5" y="-13" font-family="Helvetica,sans-Serif" font-size="10.00" fill="#000000">JS_AtomGetStrRT</text>
</a>
</g>
</g>
<!-- Node216007&#45;&gt;Node216008 -->
<g id="edge4" class="edge">
<title>Node216007&#45;&gt;Node216008</title>
<path fill="none" stroke="#191970" d="M379.1461,-15.5C387.2324,-15.5 395.8205,-15.5 404.3134,-15.5"/>
<polygon fill="#191970" stroke="#191970" points="404.5858,-19.0001 414.5858,-15.5 404.5857,-12.0001 404.5858,-19.0001"/>
</g>
</g>
</svg>
        <g id="navigator" transform="translate(0 0)" fill="#404254">
                <rect fill="#f2f5e9" fill-opacity="0.5" stroke="#606060" stroke-width=".5" x="0" y="0" width="60" height="60"/>
                <use id="zoomplus" xlink:href="#zoomPlus" x="17" y="9" onmousedown="handleZoom(evt,'in')"/>
                <use id="zoomminus" xlink:href="#zoomMin" x="42" y="9" onmousedown="handleZoom(evt,'out')"/>
                <use id="reset" xlink:href="#resetDef" x="30" y="36" onmousedown="handleReset()"/>
                <g id="arrowUp" xlink:href="#dirArrow" transform="translate(30 24)" onmousedown="handlePan(0,-1)">
                  <use xlink:href="#rim" fill="#404040">
                        <set attributeName="fill" to="#808080" begin="arrowUp.mouseover" end="arrowUp.mouseout"/>
                  </use>
                  <path fill="none" stroke="white" stroke-width="1.5" d="M0,-3.0v7 M-2.5,-0.5L0,-3.0L2.5,-0.5"/>
                </g>
                <g id="arrowRight" xlink:href="#dirArrow" transform="rotate(90) translate(36 -43)" onmousedown="handlePan(1,0)">
                  <use xlink:href="#rim" fill="#404040">
                        <set attributeName="fill" to="#808080" begin="arrowRight.mouseover" end="arrowRight.mouseout"/>
                  </use>
                  <path fill="none" stroke="white" stroke-width="1.5" d="M0,-3.0v7 M-2.5,-0.5L0,-3.0L2.5,-0.5"/>
                </g>
                <g id="arrowDown" xlink:href="#dirArrow" transform="rotate(180) translate(-30 -48)" onmousedown="handlePan(0,1)">
                  <use xlink:href="#rim" fill="#404040">
                        <set attributeName="fill" to="#808080" begin="arrowDown.mouseover" end="arrowDown.mouseout"/>
                  </use>
                  <path fill="none" stroke="white" stroke-width="1.5" d="M0,-3.0v7 M-2.5,-0.5L0,-3.0L2.5,-0.5"/>
                </g>
                <g id="arrowLeft" xlink:href="#dirArrow" transform="rotate(270) translate(-36 17)" onmousedown="handlePan(-1,0)">
                  <use xlink:href="#rim" fill="#404040">
                        <set attributeName="fill" to="#808080" begin="arrowLeft.mouseover" end="arrowLeft.mouseout"/>
                  </use>
                  <path fill="none" stroke="white" stroke-width="1.5" d="M0,-3.0v7 M-2.5,-0.5L0,-3.0L2.5,-0.5"/>
                </g>
        </g>
        <svg viewBox="0 0 15 15" width="100%" height="30px" preserveAspectRatio="xMaxYMin meet">
         <g id="arrow_out" transform="scale(0.3 0.3)">
          <a xlink:href="quickjs_8c_a1951b8aab94369f326d8c0720097c523_cgraph_org.svg" target="_base">
           <rect id="button" ry="5" rx="5" y="6" x="6" height="38" width="38"
                fill="#f2f5e9" fill-opacity="0.5" stroke="#606060" stroke-width="1.0"/>
           <path id="arrow"
             d="M 11.500037,31.436501 C 11.940474,20.09759 22.043105,11.32322 32.158766,21.979434 L 37.068811,17.246167 C 37.068811,17.246167 37.088388,32 37.088388,32 L 22.160133,31.978069 C 22.160133,31.978069 26.997745,27.140456 26.997745,27.140456 C 18.528582,18.264221 13.291696,25.230495 11.500037,31.436501 z"
             style="fill:#404040;"/>
          </a>
         </g>
        </svg>
</svg>
