<?xml version="1.0" encoding="UTF-8" standalone="no"?>
<!DOCTYPE svg PUBLIC "-//W3C//DTD SVG 1.1//EN"
 "http://www.w3.org/Graphics/SVG/1.1/DTD/svg11.dtd">
<!-- Generated by graphviz version 2.40.1 (20161225.0304)
 -->
<!-- Title: js_typed_array_constructor_obj Pages: 1 -->
<svg width="666pt" height="142pt"
 viewBox="0.00 0.00 666.00 142.00" xmlns="http://www.w3.org/2000/svg" xmlns:xlink="http://www.w3.org/1999/xlink">
<g id="graph0" class="graph" transform="scale(1 1) rotate(0) translate(4 138)">
<title>js_typed_array_constructor_obj</title>
<!-- Node462800 -->
<g id="node1" class="node">
<title>Node462800</title>
<polygon fill="#bfbfbf" stroke="#000000" points="0,-76.5 0,-95.5 152,-95.5 152,-76.5 0,-76.5"/>
<text text-anchor="middle" x="76" y="-83.5" font-family="Helvetica,sans-Serif" font-size="10.00" fill="#000000">js_typed_array_constructor_obj</text>
</g>
<!-- Node462801 -->
<g id="node2" class="node">
<title>Node462801</title>
<g id="a_node2"><a xlink:href="quickjs_8c.html#a3be661c1eaa7a31184410667862635a2" target="_top" xlink:title="js_typed_array_constructor">
<polygon fill="none" stroke="#000000" points="188,-76.5 188,-95.5 322,-95.5 322,-76.5 188,-76.5"/>
<text text-anchor="middle" x="255" y="-83.5" font-family="Helvetica,sans-Serif" font-size="10.00" fill="#000000">js_typed_array_constructor</text>
</a>
</g>
</g>
<!-- Node462800&#45;&gt;Node462801 -->
<g id="edge1" class="edge">
<title>Node462800&#45;&gt;Node462801</title>
<path fill="none" stroke="#191970" d="M162.2645,-86C170.8942,-86 179.5641,-86 187.9527,-86"/>
<polygon fill="#191970" stroke="#191970" points="162.1717,-82.5001 152.1717,-86 162.1716,-89.5001 162.1717,-82.5001"/>
</g>
<!-- Node462802 -->
<g id="node3" class="node">
<title>Node462802</title>
<g id="a_node3"><a xlink:href="quickjs_8c.html#a177d09828596bfe6df4bd90b2e93989d" target="_top" xlink:title="JS_AddIntrinsicTypedArrays">
<polygon fill="none" stroke="#000000" points="358,-106.5 358,-125.5 499,-125.5 499,-106.5 358,-106.5"/>
<text text-anchor="middle" x="428.5" y="-113.5" font-family="Helvetica,sans-Serif" font-size="10.00" fill="#000000">JS_AddIntrinsicTypedArrays</text>
</a>
</g>
</g>
<!-- Node462801&#45;&gt;Node462802 -->
<g id="edge2" class="edge">
<title>Node462801&#45;&gt;Node462802</title>
<path fill="none" stroke="#191970" d="M320.4695,-97.3204C337.8954,-100.3335 356.5424,-103.5578 373.3549,-106.4648"/>
<polygon fill="#191970" stroke="#191970" points="320.8237,-93.8298 310.3735,-95.5747 319.6309,-100.7274 320.8237,-93.8298"/>
</g>
<!-- Node462804 -->
<g id="node5" class="node">
<title>Node462804</title>
<g id="a_node5"><a xlink:href="quickjs_8c.html#ae5a8e884ec4a3364f63ebfeae6b08bdc" target="_top" xlink:title="js_typed_array___species\lCreate">
<polygon fill="none" stroke="#000000" points="363.5,-49 363.5,-79 493.5,-79 493.5,-49 363.5,-49"/>
<text text-anchor="start" x="371.5" y="-67" font-family="Helvetica,sans-Serif" font-size="10.00" fill="#000000">js_typed_array___species</text>
<text text-anchor="middle" x="428.5" y="-56" font-family="Helvetica,sans-Serif" font-size="10.00" fill="#000000">Create</text>
</a>
</g>
</g>
<!-- Node462801&#45;&gt;Node462804 -->
<g id="edge4" class="edge">
<title>Node462801&#45;&gt;Node462804</title>
<path fill="none" stroke="#191970" d="M332.0165,-76.2342C342.4626,-74.9096 353.0994,-73.5609 363.3107,-72.2661"/>
<polygon fill="#191970" stroke="#191970" points="331.5599,-72.764 322.0796,-77.4942 332.4405,-79.7084 331.5599,-72.764"/>
</g>
<!-- Node462803 -->
<g id="node4" class="node">
<title>Node462803</title>
<g id="a_node4"><a xlink:href="quickjs_8c.html#ad8aedb643b8753b7a15f6cb2df61945e" target="_top" xlink:title="JS_NewContext">
<polygon fill="none" stroke="#000000" points="552,-114.5 552,-133.5 641,-133.5 641,-114.5 552,-114.5"/>
<text text-anchor="middle" x="596.5" y="-121.5" font-family="Helvetica,sans-Serif" font-size="10.00" fill="#000000">JS_NewContext</text>
</a>
</g>
</g>
<!-- Node462802&#45;&gt;Node462803 -->
<g id="edge3" class="edge">
<title>Node462802&#45;&gt;Node462803</title>
<path fill="none" stroke="#191970" d="M509.3114,-119.8482C523.8907,-120.5424 538.5983,-121.2428 551.6739,-121.8654"/>
<polygon fill="#191970" stroke="#191970" points="509.4154,-116.3492 499.2602,-119.3695 509.0824,-123.3413 509.4154,-116.3492"/>
</g>
<!-- Node462805 -->
<g id="node6" class="node">
<title>Node462805</title>
<g id="a_node6"><a xlink:href="quickjs_8c.html#aa0bbf08a7e91459c68a312fba7016c6d" target="_top" xlink:title="js_array_every">
<polygon fill="none" stroke="#000000" points="556.5,-76.5 556.5,-95.5 636.5,-95.5 636.5,-76.5 556.5,-76.5"/>
<text text-anchor="middle" x="596.5" y="-83.5" font-family="Helvetica,sans-Serif" font-size="10.00" fill="#000000">js_array_every</text>
</a>
</g>
</g>
<!-- Node462804&#45;&gt;Node462805 -->
<g id="edge5" class="edge">
<title>Node462804&#45;&gt;Node462805</title>
<path fill="none" stroke="#191970" d="M503.8788,-73.871C521.917,-76.2332 540.491,-78.6655 556.2264,-80.7261"/>
<polygon fill="#191970" stroke="#191970" points="504.3041,-70.3969 493.9342,-72.5688 503.3951,-77.3377 504.3041,-70.3969"/>
</g>
<!-- Node462806 -->
<g id="node7" class="node">
<title>Node462806</title>
<g id="a_node7"><a xlink:href="quickjs_8c.html#a04f45f4b341a84aa1039cfd862adbcd2" target="_top" xlink:title="js_typed_array_slice">
<polygon fill="none" stroke="#000000" points="543.5,-38.5 543.5,-57.5 649.5,-57.5 649.5,-38.5 543.5,-38.5"/>
<text text-anchor="middle" x="596.5" y="-45.5" font-family="Helvetica,sans-Serif" font-size="10.00" fill="#000000">js_typed_array_slice</text>
</a>
</g>
</g>
<!-- Node462804&#45;&gt;Node462806 -->
<g id="edge6" class="edge">
<title>Node462804&#45;&gt;Node462806</title>
<path fill="none" stroke="#191970" d="M504.0283,-56.8068C517.3305,-55.54 530.919,-54.2458 543.4411,-53.0532"/>
<polygon fill="#191970" stroke="#191970" points="503.5573,-53.3358 493.9342,-57.7682 504.2211,-60.3042 503.5573,-53.3358"/>
</g>
<!-- Node462807 -->
<g id="node8" class="node">
<title>Node462807</title>
<g id="a_node8"><a xlink:href="quickjs_8c.html#a355310420e303302c981eb7c73a222fb" target="_top" xlink:title="js_typed_array_subarray">
<polygon fill="none" stroke="#000000" points="535,-.5 535,-19.5 658,-19.5 658,-.5 535,-.5"/>
<text text-anchor="middle" x="596.5" y="-7.5" font-family="Helvetica,sans-Serif" font-size="10.00" fill="#000000">js_typed_array_subarray</text>
</a>
</g>
</g>
<!-- Node462804&#45;&gt;Node462807 -->
<g id="edge7" class="edge">
<title>Node462804&#45;&gt;Node462807</title>
<path fill="none" stroke="#191970" d="M483.3309,-45.7727C499.9121,-40.3167 518.1815,-34.3611 535,-29 544.7954,-25.8776 555.4931,-22.5456 565.1795,-19.5578"/>
<polygon fill="#191970" stroke="#191970" points="482.1884,-42.464 473.787,-48.9191 484.3801,-49.112 482.1884,-42.464"/>
</g>
</g>
</svg>
