<?xml version="1.0" encoding="UTF-8" standalone="no"?>
<!DOCTYPE svg PUBLIC "-//W3C//DTD SVG 1.1//EN"
 "http://www.w3.org/Graphics/SVG/1.1/DTD/svg11.dtd">
<!-- Generated by graphviz version 2.40.1 (20161225.0304)
 -->
<!-- Title: resolve_scope_var Pages: 1 -->
<svg width="646pt" height="729pt"
 viewBox="0.00 0.00 646.00 729.00" xmlns="http://www.w3.org/2000/svg" xmlns:xlink="http://www.w3.org/1999/xlink">
<g id="graph0" class="graph" transform="scale(1 1) rotate(0) translate(4 725)">
<title>resolve_scope_var</title>
<!-- Node337394 -->
<g id="node1" class="node">
<title>Node337394</title>
<polygon fill="#bfbfbf" stroke="#000000" points="0,-335.5 0,-354.5 98,-354.5 98,-335.5 0,-335.5"/>
<text text-anchor="middle" x="49" y="-342.5" font-family="Helvetica,sans-Serif" font-size="10.00" fill="#000000">resolve_scope_var</text>
</g>
<!-- Node337395 -->
<g id="node2" class="node">
<title>Node337395</title>
<g id="a_node2"><a xlink:href="quickjs_8c.html#a07c499a02fee3c2a738f301111f16c2c" target="_top" xlink:title="add_arguments_var">
<polygon fill="none" stroke="#000000" points="301,-645.5 301,-664.5 403,-664.5 403,-645.5 301,-645.5"/>
<text text-anchor="middle" x="352" y="-652.5" font-family="Helvetica,sans-Serif" font-size="10.00" fill="#000000">add_arguments_var</text>
</a>
</g>
</g>
<!-- Node337394&#45;&gt;Node337395 -->
<g id="edge1" class="edge">
<title>Node337394&#45;&gt;Node337395</title>
<path fill="none" stroke="#191970" d="M50.9908,-354.7705C59.7666,-396.9314 96.2399,-562.7375 134,-598 156.6562,-619.1577 234.811,-635.9646 291.0651,-645.6988"/>
<polygon fill="#191970" stroke="#191970" points="290.4996,-649.1528 300.9442,-647.3751 291.6707,-642.2514 290.4996,-649.1528"/>
</g>
<!-- Node337398 -->
<g id="node5" class="node">
<title>Node337398</title>
<g id="a_node5"><a xlink:href="quickjs_8c.html#abbf44eaeace1104a6bef718fbf5700fe" target="_top" xlink:title="JS_DupAtom">
<polygon fill="none" stroke="#ff0000" points="563,-512.5 563,-531.5 638,-531.5 638,-512.5 563,-512.5"/>
<text text-anchor="middle" x="600.5" y="-519.5" font-family="Helvetica,sans-Serif" font-size="10.00" fill="#000000">JS_DupAtom</text>
</a>
</g>
</g>
<!-- Node337394&#45;&gt;Node337398 -->
<g id="edge29" class="edge">
<title>Node337394&#45;&gt;Node337398</title>
<path fill="none" stroke="#191970" d="M52.2625,-354.6811C61.042,-379.0639 87.69,-443.0445 134,-471 203.6246,-513.0295 448.3697,-520.522 552.753,-521.784"/>
<polygon fill="#191970" stroke="#191970" points="552.9614,-525.2863 562.9982,-521.8931 553.0361,-518.2867 552.9614,-525.2863"/>
</g>
<!-- Node337401 -->
<g id="node7" class="node">
<title>Node337401</title>
<g id="a_node7"><a xlink:href="quickjs_8c.html#afe834031fad358f2fbd7d71cfe8ac19c" target="_top" xlink:title="add_func_var">
<polygon fill="none" stroke="#000000" points="314.5,-531.5 314.5,-550.5 389.5,-550.5 389.5,-531.5 314.5,-531.5"/>
<text text-anchor="middle" x="352" y="-538.5" font-family="Helvetica,sans-Serif" font-size="10.00" fill="#000000">add_func_var</text>
</a>
</g>
</g>
<!-- Node337394&#45;&gt;Node337401 -->
<g id="edge6" class="edge">
<title>Node337394&#45;&gt;Node337401</title>
<path fill="none" stroke="#191970" d="M50.5431,-354.9078C55.8222,-385.1239 76.151,-476.5053 134,-517 183.9842,-551.9892 256.8078,-552.5791 304.2941,-548.1249"/>
<polygon fill="#191970" stroke="#191970" points="304.738,-551.5976 314.3188,-547.0745 304.0085,-544.6357 304.738,-551.5976"/>
</g>
<!-- Node337402 -->
<g id="node8" class="node">
<title>Node337402</title>
<g id="a_node8"><a xlink:href="quickjs_8c.html#a4779c8b73a4a772f6f1535c7f661c93b" target="_top" xlink:title="can_opt_put_global\l_ref_value">
<polygon fill="none" stroke="#000000" points="149,-229 149,-259 250,-259 250,-229 149,-229"/>
<text text-anchor="start" x="157" y="-247" font-family="Helvetica,sans-Serif" font-size="10.00" fill="#000000">can_opt_put_global</text>
<text text-anchor="middle" x="199.5" y="-236" font-family="Helvetica,sans-Serif" font-size="10.00" fill="#000000">_ref_value</text>
</a>
</g>
</g>
<!-- Node337394&#45;&gt;Node337402 -->
<g id="edge8" class="edge">
<title>Node337394&#45;&gt;Node337402</title>
<path fill="none" stroke="#191970" d="M58.7814,-335.3118C73.9263,-320.6784 104.4009,-292.6685 134,-274 139.8284,-270.3239 146.1818,-266.8407 152.5643,-263.6375"/>
<polygon fill="#191970" stroke="#191970" points="154.3854,-266.6453 161.8785,-259.1549 151.3498,-260.3377 154.3854,-266.6453"/>
</g>
<!-- Node337403 -->
<g id="node9" class="node">
<title>Node337403</title>
<g id="a_node9"><a xlink:href="quickjs_8c.html#a5b51cf5eccb40dc59d44e2a1ea5a1f4e" target="_top" xlink:title="can_opt_put_ref_value">
<polygon fill="none" stroke="#000000" points="142,-190.5 142,-209.5 257,-209.5 257,-190.5 142,-190.5"/>
<text text-anchor="middle" x="199.5" y="-197.5" font-family="Helvetica,sans-Serif" font-size="10.00" fill="#000000">can_opt_put_ref_value</text>
</a>
</g>
</g>
<!-- Node337394&#45;&gt;Node337403 -->
<g id="edge9" class="edge">
<title>Node337394&#45;&gt;Node337403</title>
<path fill="none" stroke="#191970" d="M52.7119,-335.4403C62.3517,-311.8917 90.4984,-250.7059 134,-219 136.6792,-217.0473 139.5559,-215.2944 142.5548,-213.7211"/>
<polygon fill="#191970" stroke="#191970" points="144.1746,-216.8299 151.843,-209.5192 141.2894,-210.4521 144.1746,-216.8299"/>
</g>
<!-- Node337404 -->
<g id="node10" class="node">
<title>Node337404</title>
<g id="a_node10"><a xlink:href="cutils_8h.html#a31a6b9f8517a73d45e976d8a026e964e" target="_top" xlink:title="dbuf_put_u16">
<polygon fill="none" stroke="#000000" points="314.5,-265.5 314.5,-284.5 389.5,-284.5 389.5,-265.5 314.5,-265.5"/>
<text text-anchor="middle" x="352" y="-272.5" font-family="Helvetica,sans-Serif" font-size="10.00" fill="#000000">dbuf_put_u16</text>
</a>
</g>
</g>
<!-- Node337394&#45;&gt;Node337404 -->
<g id="edge10" class="edge">
<title>Node337394&#45;&gt;Node337404</title>
<path fill="none" stroke="#191970" d="M66.6933,-335.3591C83.5199,-326.6134 109.787,-314.0433 134,-307 191.2477,-290.3473 259.5934,-282.1104 304.3037,-278.2144"/>
<polygon fill="#191970" stroke="#191970" points="304.6304,-281.6994 314.3052,-277.3811 304.0491,-274.7236 304.6304,-281.6994"/>
</g>
<!-- Node337407 -->
<g id="node13" class="node">
<title>Node337407</title>
<g id="a_node13"><a xlink:href="cutils_8h.html#a8ba08f82c43549fcb3c939229498354d" target="_top" xlink:title="dbuf_put_u32">
<polygon fill="none" stroke="#000000" points="314.5,-379.5 314.5,-398.5 389.5,-398.5 389.5,-379.5 314.5,-379.5"/>
<text text-anchor="middle" x="352" y="-386.5" font-family="Helvetica,sans-Serif" font-size="10.00" fill="#000000">dbuf_put_u32</text>
</a>
</g>
</g>
<!-- Node337394&#45;&gt;Node337407 -->
<g id="edge13" class="edge">
<title>Node337394&#45;&gt;Node337407</title>
<path fill="none" stroke="#191970" d="M93.4427,-354.5351C106.4759,-357.1559 120.778,-359.862 134,-362 192.3792,-371.4398 260.0213,-379.3503 304.2843,-384.1206"/>
<polygon fill="#191970" stroke="#191970" points="304.1474,-387.6257 314.4623,-385.2065 304.8901,-380.6652 304.1474,-387.6257"/>
</g>
<!-- Node337408 -->
<g id="node14" class="node">
<title>Node337408</title>
<g id="a_node14"><a xlink:href="cutils_8h.html#aeed81d4787ccdbd55baa9b5fd6717e88" target="_top" xlink:title="dbuf_putc">
<polygon fill="none" stroke="#000000" points="322.5,-341.5 322.5,-360.5 381.5,-360.5 381.5,-341.5 322.5,-341.5"/>
<text text-anchor="middle" x="352" y="-348.5" font-family="Helvetica,sans-Serif" font-size="10.00" fill="#000000">dbuf_putc</text>
</a>
</g>
</g>
<!-- Node337394&#45;&gt;Node337408 -->
<g id="edge15" class="edge">
<title>Node337394&#45;&gt;Node337408</title>
<path fill="none" stroke="#191970" d="M98.0189,-345.9707C157.6547,-347.1516 257.1731,-349.1222 312.2642,-350.2132"/>
<polygon fill="#191970" stroke="#191970" points="312.2723,-353.7139 322.3397,-350.4127 312.411,-346.7153 312.2723,-353.7139"/>
</g>
<!-- Node337409 -->
<g id="node15" class="node">
<title>Node337409</title>
<g id="a_node15"><a xlink:href="quickjs_8c.html#aa26b47ba93d2f7737148d89fa85ba21f" target="_top" xlink:title="find_arg">
<polygon fill="none" stroke="#000000" points="326.5,-133.5 326.5,-152.5 377.5,-152.5 377.5,-133.5 326.5,-133.5"/>
<text text-anchor="middle" x="352" y="-140.5" font-family="Helvetica,sans-Serif" font-size="10.00" fill="#000000">find_arg</text>
</a>
</g>
</g>
<!-- Node337394&#45;&gt;Node337409 -->
<g id="edge17" class="edge">
<title>Node337394&#45;&gt;Node337409</title>
<path fill="none" stroke="#191970" d="M50.8972,-335.2877C57.0709,-306.4762 79.4278,-221.0071 134,-181 162.3937,-160.1844 261.8719,-149.6966 316.096,-145.4178"/>
<polygon fill="#191970" stroke="#191970" points="316.5963,-148.89 326.3029,-144.6437 316.0668,-141.9101 316.5963,-148.89"/>
</g>
<!-- Node337410 -->
<g id="node16" class="node">
<title>Node337410</title>
<g id="a_node16"><a xlink:href="quickjs_8c.html#a17f57e818da8e28af51d672f9dd1e02b" target="_top" xlink:title="find_var">
<polygon fill="none" stroke="#000000" points="174,-114.5 174,-133.5 225,-133.5 225,-114.5 174,-114.5"/>
<text text-anchor="middle" x="199.5" y="-121.5" font-family="Helvetica,sans-Serif" font-size="10.00" fill="#000000">find_var</text>
</a>
</g>
</g>
<!-- Node337394&#45;&gt;Node337410 -->
<g id="edge18" class="edge">
<title>Node337394&#45;&gt;Node337410</title>
<path fill="none" stroke="#191970" d="M50.4356,-335.2543C55.5961,-303.6308 76.075,-202.7622 134,-148 142.355,-140.1012 153.5213,-134.7602 164.2647,-131.1662"/>
<polygon fill="#191970" stroke="#191970" points="165.3093,-134.5074 173.9194,-128.3335 163.3385,-127.7905 165.3093,-134.5074"/>
</g>
<!-- Node337411 -->
<g id="node17" class="node">
<title>Node337411</title>
<g id="a_node17"><a xlink:href="quickjs_8c.html#a5067e8cf3633f10ec12c2f3ee9134c85" target="_top" xlink:title="get_closure_var">
<polygon fill="none" stroke="#000000" points="156.5,-683.5 156.5,-702.5 242.5,-702.5 242.5,-683.5 156.5,-683.5"/>
<text text-anchor="middle" x="199.5" y="-690.5" font-family="Helvetica,sans-Serif" font-size="10.00" fill="#000000">get_closure_var</text>
</a>
</g>
</g>
<!-- Node337394&#45;&gt;Node337411 -->
<g id="edge20" class="edge">
<title>Node337394&#45;&gt;Node337411</title>
<path fill="none" stroke="#191970" d="M50.3154,-354.6516C57.105,-403.1859 89.5883,-620.1721 134,-669 137.7689,-673.1436 142.3138,-676.5734 147.2315,-679.412"/>
<polygon fill="#191970" stroke="#191970" points="145.8791,-682.6471 156.3985,-683.9095 148.9624,-676.3627 145.8791,-682.6471"/>
</g>
<!-- Node337412 -->
<g id="node18" class="node">
<title>Node337412</title>
<g id="a_node18"><a xlink:href="quickjs_8c.html#a4671a759c33274b073d0578ac62261e0" target="_top" xlink:title="get_closure_var2">
<polygon fill="none" stroke="#000000" points="306.5,-683.5 306.5,-702.5 397.5,-702.5 397.5,-683.5 306.5,-683.5"/>
<text text-anchor="middle" x="352" y="-690.5" font-family="Helvetica,sans-Serif" font-size="10.00" fill="#000000">get_closure_var2</text>
</a>
</g>
</g>
<!-- Node337394&#45;&gt;Node337412 -->
<g id="edge27" class="edge">
<title>Node337394&#45;&gt;Node337412</title>
<path fill="none" stroke="#191970" d="M50.546,-354.5364C58.0529,-399.7249 92.0561,-591.8213 134,-633 145.9239,-644.7063 238.4263,-667.3836 299.0433,-681.259"/>
<polygon fill="#191970" stroke="#191970" points="298.3237,-684.6847 308.8511,-683.4911 299.8771,-677.8592 298.3237,-684.6847"/>
</g>
<!-- Node337414 -->
<g id="node20" class="node">
<title>Node337414</title>
<g id="a_node20"><a xlink:href="quickjs_8c.html#a169ce004a01995f262e73c34f866d5a9" target="_top" xlink:title="get_with_scope_opcode">
<polygon fill="none" stroke="#000000" points="138.5,-76.5 138.5,-95.5 260.5,-95.5 260.5,-76.5 138.5,-76.5"/>
<text text-anchor="middle" x="199.5" y="-83.5" font-family="Helvetica,sans-Serif" font-size="10.00" fill="#000000">get_with_scope_opcode</text>
</a>
</g>
</g>
<!-- Node337394&#45;&gt;Node337414 -->
<g id="edge28" class="edge">
<title>Node337394&#45;&gt;Node337414</title>
<path fill="none" stroke="#191970" d="M49.4298,-335.077C51.5544,-298.671 63.913,-171.1319 134,-105 135.6793,-103.4155 137.4828,-101.9621 139.3819,-100.6291"/>
<polygon fill="#191970" stroke="#191970" points="141.3196,-103.5519 148.2313,-95.522 137.8206,-97.4891 141.3196,-103.5519"/>
</g>
<!-- Node337415 -->
<g id="node21" class="node">
<title>Node337415</title>
<g id="a_node21"><a xlink:href="quickjs_8c.html#a217c750ab1ff788ada118a7f6736cb6e" target="_top" xlink:title="new_label_fd">
<polygon fill="none" stroke="#000000" points="162.5,-38.5 162.5,-57.5 236.5,-57.5 236.5,-38.5 162.5,-38.5"/>
<text text-anchor="middle" x="199.5" y="-45.5" font-family="Helvetica,sans-Serif" font-size="10.00" fill="#000000">new_label_fd</text>
</a>
</g>
</g>
<!-- Node337394&#45;&gt;Node337415 -->
<g id="edge30" class="edge">
<title>Node337394&#45;&gt;Node337415</title>
<path fill="none" stroke="#191970" d="M50.7115,-335.215C58.702,-290.582 93.6536,-106.7695 134,-67 139.2176,-61.857 145.7394,-58.0902 152.6302,-55.3348"/>
<polygon fill="#191970" stroke="#191970" points="153.7788,-58.6414 162.1676,-52.17 151.5741,-51.9976 153.7788,-58.6414"/>
</g>
<!-- Node337416 -->
<g id="node22" class="node">
<title>Node337416</title>
<g id="a_node22"><a xlink:href="quickjs_8c.html#adeab43cd3441f3747a2af76709a4dd69" target="_top" xlink:title="optimize_scope_make\l_global_ref">
<polygon fill="none" stroke="#000000" points="142.5,-431 142.5,-461 256.5,-461 256.5,-431 142.5,-431"/>
<text text-anchor="start" x="150.5" y="-449" font-family="Helvetica,sans-Serif" font-size="10.00" fill="#000000">optimize_scope_make</text>
<text text-anchor="middle" x="199.5" y="-438" font-family="Helvetica,sans-Serif" font-size="10.00" fill="#000000">_global_ref</text>
</a>
</g>
</g>
<!-- Node337394&#45;&gt;Node337416 -->
<g id="edge31" class="edge">
<title>Node337394&#45;&gt;Node337416</title>
<path fill="none" stroke="#191970" d="M58.7814,-354.6882C73.9263,-369.3216 104.4009,-397.3315 134,-416 139.8284,-419.6761 146.1818,-423.1593 152.5643,-426.3625"/>
<polygon fill="#191970" stroke="#191970" points="151.3498,-429.6623 161.8785,-430.8451 154.3854,-423.3547 151.3498,-429.6623"/>
</g>
<!-- Node337418 -->
<g id="node24" class="node">
<title>Node337418</title>
<g id="a_node24"><a xlink:href="quickjs_8c.html#a7c152c8f95a5338351e7f99447d6aea4" target="_top" xlink:title="optimize_scope_make_ref">
<polygon fill="none" stroke="#000000" points="134,-316.5 134,-335.5 265,-335.5 265,-316.5 134,-316.5"/>
<text text-anchor="middle" x="199.5" y="-323.5" font-family="Helvetica,sans-Serif" font-size="10.00" fill="#000000">optimize_scope_make_ref</text>
</a>
</g>
</g>
<!-- Node337394&#45;&gt;Node337418 -->
<g id="edge36" class="edge">
<title>Node337394&#45;&gt;Node337418</title>
<path fill="none" stroke="#191970" d="M98.2793,-338.7787C106.4743,-337.7441 115.1376,-336.6504 123.8088,-335.5557"/>
<polygon fill="#191970" stroke="#191970" points="124.4811,-338.9987 133.9639,-334.2737 123.6043,-332.0538 124.4811,-338.9987"/>
</g>
<!-- Node337420 -->
<g id="node26" class="node">
<title>Node337420</title>
<g id="a_node26"><a xlink:href="quickjs_8c.html#a0b2f53f86b03dc687031b5092d8069cf" target="_top" xlink:title="resolve_pseudo_var">
<polygon fill="none" stroke="#000000" points="147.5,-569.5 147.5,-588.5 251.5,-588.5 251.5,-569.5 147.5,-569.5"/>
<text text-anchor="middle" x="199.5" y="-576.5" font-family="Helvetica,sans-Serif" font-size="10.00" fill="#000000">resolve_pseudo_var</text>
</a>
</g>
</g>
<!-- Node337394&#45;&gt;Node337420 -->
<g id="edge40" class="edge">
<title>Node337394&#45;&gt;Node337420</title>
<path fill="none" stroke="#191970" d="M50.165,-354.9104C54.5762,-388.0484 73.2152,-496.2113 134,-555 138.0807,-558.9467 142.863,-562.2527 147.9532,-565.0203"/>
<polygon fill="#191970" stroke="#191970" points="146.8241,-568.3569 157.3631,-569.4428 149.8015,-562.0217 146.8241,-568.3569"/>
</g>
<!-- Node337422 -->
<g id="node28" class="node">
<title>Node337422</title>
<g id="a_node28"><a xlink:href="quickjs_8c.html#a337071c33fd0684a2b132b17f536f35c" target="_top" xlink:title="update_label">
<polygon fill="none" stroke="#000000" points="164,-.5 164,-19.5 235,-19.5 235,-.5 164,-.5"/>
<text text-anchor="middle" x="199.5" y="-7.5" font-family="Helvetica,sans-Serif" font-size="10.00" fill="#000000">update_label</text>
</a>
</g>
</g>
<!-- Node337394&#45;&gt;Node337422 -->
<g id="edge44" class="edge">
<title>Node337394&#45;&gt;Node337422</title>
<path fill="none" stroke="#191970" d="M50.3315,-335.2086C57.0792,-286.9551 88.9528,-74.937 134,-29 139.5375,-23.3531 146.6446,-19.3595 154.1253,-16.5408"/>
<polygon fill="#191970" stroke="#191970" points="155.1992,-19.8723 163.7105,-13.5629 153.1223,-13.1875 155.1992,-19.8723"/>
</g>
<!-- Node337396 -->
<g id="node3" class="node">
<title>Node337396</title>
<g id="a_node3"><a xlink:href="quickjs_8c.html#ab2e0855c4317f8e3b05c0a091bc43a29" target="_top" xlink:title="add_var">
<polygon fill="none" stroke="#000000" points="457.5,-569.5 457.5,-588.5 508.5,-588.5 508.5,-569.5 457.5,-569.5"/>
<text text-anchor="middle" x="483" y="-576.5" font-family="Helvetica,sans-Serif" font-size="10.00" fill="#000000">add_var</text>
</a>
</g>
</g>
<!-- Node337395&#45;&gt;Node337396 -->
<g id="edge2" class="edge">
<title>Node337395&#45;&gt;Node337396</title>
<path fill="none" stroke="#191970" d="M376.164,-645.4308C384.9311,-641.5002 394.7111,-636.5606 403,-631 421.0248,-618.908 420.7828,-609.8001 439,-598 441.7934,-596.1906 444.7881,-594.4827 447.853,-592.8889"/>
<polygon fill="#191970" stroke="#191970" points="449.6104,-595.9284 457.1271,-588.4618 446.5948,-589.6112 449.6104,-595.9284"/>
</g>
<!-- Node337397 -->
<g id="node4" class="node">
<title>Node337397</title>
<g id="a_node4"><a xlink:href="quickjs_8c.html#a853f0924d441ea4225488f37c8b69f9a" target="_top" xlink:title="__attribute__">
<polygon fill="none" stroke="#000000" points="564,-607.5 564,-626.5 637,-626.5 637,-607.5 564,-607.5"/>
<text text-anchor="middle" x="600.5" y="-614.5" font-family="Helvetica,sans-Serif" font-size="10.00" fill="#000000">__attribute__</text>
</a>
</g>
</g>
<!-- Node337396&#45;&gt;Node337397 -->
<g id="edge3" class="edge">
<title>Node337396&#45;&gt;Node337397</title>
<path fill="none" stroke="#191970" d="M508.7859,-587.3393C524.1461,-592.3068 543.9513,-598.7119 561.2242,-604.298"/>
<polygon fill="#191970" stroke="#191970" points="560.457,-607.7283 571.0488,-607.4754 562.611,-601.068 560.457,-607.7283"/>
</g>
<!-- Node337396&#45;&gt;Node337398 -->
<g id="edge4" class="edge">
<title>Node337396&#45;&gt;Node337398</title>
<path fill="none" stroke="#191970" d="M502.6669,-569.4595C521.476,-560.335 550.0666,-546.4656 571.4907,-536.0726"/>
<polygon fill="#191970" stroke="#191970" points="573.2994,-539.0853 580.769,-531.5716 570.2441,-532.7873 573.2994,-539.0853"/>
</g>
<!-- Node337400 -->
<g id="node6" class="node">
<title>Node337400</title>
<g id="a_node6"><a xlink:href="cutils_8h.html#a94f155fcce337a2b9d4719ed8042cbbe" target="_top" xlink:title="max_int">
<polygon fill="none" stroke="#000000" points="575,-569.5 575,-588.5 626,-588.5 626,-569.5 575,-569.5"/>
<text text-anchor="middle" x="600.5" y="-576.5" font-family="Helvetica,sans-Serif" font-size="10.00" fill="#000000">max_int</text>
</a>
</g>
</g>
<!-- Node337396&#45;&gt;Node337400 -->
<g id="edge5" class="edge">
<title>Node337396&#45;&gt;Node337400</title>
<path fill="none" stroke="#191970" d="M508.7859,-579C525.1626,-579 546.592,-579 564.618,-579"/>
<polygon fill="#191970" stroke="#191970" points="564.7743,-582.5001 574.7743,-579 564.7742,-575.5001 564.7743,-582.5001"/>
</g>
<!-- Node337401&#45;&gt;Node337396 -->
<g id="edge7" class="edge">
<title>Node337401&#45;&gt;Node337396</title>
<path fill="none" stroke="#191970" d="M385.0568,-550.589C404.1622,-556.131 428.1944,-563.1022 447.6719,-568.7521"/>
<polygon fill="#191970" stroke="#191970" points="446.8127,-572.1471 457.3919,-571.5717 448.7629,-565.4243 446.8127,-572.1471"/>
</g>
<!-- Node337405 -->
<g id="node11" class="node">
<title>Node337405</title>
<g id="a_node11"><a xlink:href="cutils_8h.html#ad1cfaae47347ae771136b5a9bbda49aa" target="_top" xlink:title="dbuf_put">
<polygon fill="none" stroke="#000000" points="456,-341.5 456,-360.5 510,-360.5 510,-341.5 456,-341.5"/>
<text text-anchor="middle" x="483" y="-348.5" font-family="Helvetica,sans-Serif" font-size="10.00" fill="#000000">dbuf_put</text>
</a>
</g>
</g>
<!-- Node337404&#45;&gt;Node337405 -->
<g id="edge11" class="edge">
<title>Node337404&#45;&gt;Node337405</title>
<path fill="none" stroke="#191970" d="M381.7034,-284.5694C388.8385,-287.2729 396.3229,-290.457 403,-294 425.1163,-305.7354 448.1767,-322.7571 463.8247,-335.1423"/>
<polygon fill="#191970" stroke="#191970" points="461.7176,-337.9393 471.7023,-341.483 466.1068,-332.4862 461.7176,-337.9393"/>
</g>
<!-- Node337406 -->
<g id="node12" class="node">
<title>Node337406</title>
<g id="a_node12"><a xlink:href="cutils_8h.html#ac0b9ce26415947e972d6781d9f2fb11b" target="_top" xlink:title="dbuf_realloc">
<polygon fill="none" stroke="#000000" points="566,-341.5 566,-360.5 635,-360.5 635,-341.5 566,-341.5"/>
<text text-anchor="middle" x="600.5" y="-348.5" font-family="Helvetica,sans-Serif" font-size="10.00" fill="#000000">dbuf_realloc</text>
</a>
</g>
</g>
<!-- Node337405&#45;&gt;Node337406 -->
<g id="edge12" class="edge">
<title>Node337405&#45;&gt;Node337406</title>
<path fill="none" stroke="#191970" d="M510.2522,-351C523.6924,-351 540.2551,-351 555.5072,-351"/>
<polygon fill="#191970" stroke="#191970" points="555.8024,-354.5001 565.8024,-351 555.8023,-347.5001 555.8024,-354.5001"/>
</g>
<!-- Node337407&#45;&gt;Node337405 -->
<g id="edge14" class="edge">
<title>Node337407&#45;&gt;Node337405</title>
<path fill="none" stroke="#191970" d="M385.0568,-379.411C403.6459,-374.0188 426.899,-367.2736 446.0828,-361.7088"/>
<polygon fill="#191970" stroke="#191970" points="447.0686,-365.0672 455.6976,-358.9198 445.1184,-358.3443 447.0686,-365.0672"/>
</g>
<!-- Node337408&#45;&gt;Node337405 -->
<g id="edge16" class="edge">
<title>Node337408&#45;&gt;Node337405</title>
<path fill="none" stroke="#191970" d="M381.7259,-351C400.6254,-351 425.2569,-351 445.4958,-351"/>
<polygon fill="#191970" stroke="#191970" points="445.6254,-354.5001 455.6253,-351 445.6253,-347.5001 445.6254,-354.5001"/>
</g>
<!-- Node337410&#45;&gt;Node337409 -->
<g id="edge19" class="edge">
<title>Node337410&#45;&gt;Node337409</title>
<path fill="none" stroke="#191970" d="M225.0251,-127.1802C249.9868,-130.2902 288.2218,-135.0539 316.214,-138.5414"/>
<polygon fill="#191970" stroke="#191970" points="316.0356,-142.0462 326.3917,-139.8095 316.9011,-135.0999 316.0356,-142.0462"/>
</g>
<!-- Node337411&#45;&gt;Node337412 -->
<g id="edge21" class="edge">
<title>Node337411&#45;&gt;Node337412</title>
<path fill="none" stroke="#191970" d="M242.7925,-693C259.4285,-693 278.6564,-693 296.2984,-693"/>
<polygon fill="#191970" stroke="#191970" points="296.4709,-696.5001 306.4709,-693 296.4709,-689.5001 296.4709,-696.5001"/>
</g>
<!-- Node337412&#45;&gt;Node337412 -->
<g id="edge26" class="edge">
<title>Node337412&#45;&gt;Node337412</title>
<path fill="none" stroke="#191970" d="M331.9632,-702.7571C322.2156,-711.5653 328.8945,-721 352,-721 366.8019,-721 374.8624,-717.128 376.1814,-712.0292"/>
<polygon fill="#191970" stroke="#191970" points="379.313,-710.4582 372.0368,-702.7571 372.9224,-713.3148 379.313,-710.4582"/>
</g>
<!-- Node337413 -->
<g id="node19" class="node">
<title>Node337413</title>
<g id="a_node19"><a xlink:href="quickjs_8c.html#a9f64fb61a20cee1cad0eb2680624e341" target="_top" xlink:title="add_closure_var">
<polygon fill="none" stroke="#000000" points="439,-607.5 439,-626.5 527,-626.5 527,-607.5 439,-607.5"/>
<text text-anchor="middle" x="483" y="-614.5" font-family="Helvetica,sans-Serif" font-size="10.00" fill="#000000">add_closure_var</text>
</a>
</g>
</g>
<!-- Node337412&#45;&gt;Node337413 -->
<g id="edge22" class="edge">
<title>Node337412&#45;&gt;Node337413</title>
<path fill="none" stroke="#191970" d="M381.7034,-683.4306C388.8385,-680.7271 396.3229,-677.543 403,-674 425.1163,-662.2646 448.1767,-645.2429 463.8247,-632.8577"/>
<polygon fill="#191970" stroke="#191970" points="466.1068,-635.5138 471.7023,-626.517 461.7176,-630.0607 466.1068,-635.5138"/>
</g>
<!-- Node337413&#45;&gt;Node337397 -->
<g id="edge23" class="edge">
<title>Node337413&#45;&gt;Node337397</title>
<path fill="none" stroke="#191970" d="M527.087,-617C535.7926,-617 544.9571,-617 553.7474,-617"/>
<polygon fill="#191970" stroke="#191970" points="553.8446,-620.5001 563.8445,-617 553.8445,-613.5001 553.8446,-620.5001"/>
</g>
<!-- Node337413&#45;&gt;Node337398 -->
<g id="edge24" class="edge">
<title>Node337413&#45;&gt;Node337398</title>
<path fill="none" stroke="#191970" d="M509.9814,-607.4025C515.8333,-604.7691 521.8169,-601.6228 527,-598 546.0683,-584.6721 546.8286,-576.7248 563,-560 569.7609,-553.0077 577.2801,-545.3628 583.7999,-538.7752"/>
<polygon fill="#191970" stroke="#191970" points="586.3305,-541.194 590.8892,-531.6301 581.3613,-536.2637 586.3305,-541.194"/>
</g>
<!-- Node337413&#45;&gt;Node337400 -->
<g id="edge25" class="edge">
<title>Node337413&#45;&gt;Node337400</title>
<path fill="none" stroke="#191970" d="M512.6502,-607.411C528.5269,-602.2764 548.1968,-595.9151 564.8965,-590.5143"/>
<polygon fill="#191970" stroke="#191970" points="566.4125,-593.7026 574.8503,-587.2952 564.2584,-587.0422 566.4125,-593.7026"/>
</g>
<!-- Node337416&#45;&gt;Node337398 -->
<g id="edge34" class="edge">
<title>Node337416&#45;&gt;Node337398</title>
<path fill="none" stroke="#191970" d="M256.7253,-448.4698C322.902,-452.4758 434.5887,-462.7987 527,-489 543.0266,-493.544 560.0486,-501.002 573.6714,-507.6794"/>
<polygon fill="#191970" stroke="#191970" points="572.4229,-510.9698 582.9273,-512.3508 575.5768,-504.7205 572.4229,-510.9698"/>
</g>
<!-- Node337416&#45;&gt;Node337407 -->
<g id="edge32" class="edge">
<title>Node337416&#45;&gt;Node337407</title>
<path fill="none" stroke="#191970" d="M239.995,-430.8223C258.5798,-423.861 280.9054,-415.5047 301,-408 306.1449,-406.0785 311.5827,-404.0501 316.9151,-402.0624"/>
<polygon fill="#191970" stroke="#191970" points="318.1651,-405.3318 326.3136,-398.5603 315.7209,-398.7723 318.1651,-405.3318"/>
</g>
<!-- Node337416&#45;&gt;Node337408 -->
<g id="edge33" class="edge">
<title>Node337416&#45;&gt;Node337408</title>
<path fill="none" stroke="#191970" d="M216.4211,-430.9169C235.7692,-414.2668 268.9246,-387.509 301,-370 304.7321,-367.9628 308.7279,-366.0547 312.7795,-364.2933"/>
<polygon fill="#191970" stroke="#191970" points="314.2851,-367.4596 322.2365,-360.4578 311.6542,-360.9728 314.2851,-367.4596"/>
</g>
<!-- Node337417 -->
<g id="node23" class="node">
<title>Node337417</title>
<g id="a_node23"><a xlink:href="cutils_8h.html#a3b6aba81e32ed70a2a851744e5a9cc9c" target="_top" xlink:title="put_u32">
<polygon fill="none" stroke="#000000" points="326.5,-417.5 326.5,-436.5 377.5,-436.5 377.5,-417.5 326.5,-417.5"/>
<text text-anchor="middle" x="352" y="-424.5" font-family="Helvetica,sans-Serif" font-size="10.00" fill="#000000">put_u32</text>
</a>
</g>
</g>
<!-- Node337416&#45;&gt;Node337417 -->
<g id="edge35" class="edge">
<title>Node337416&#45;&gt;Node337417</title>
<path fill="none" stroke="#191970" d="M256.7192,-438.871C276.784,-436.3712 298.727,-433.6373 316.4924,-431.4239"/>
<polygon fill="#191970" stroke="#191970" points="316.9334,-434.8961 326.4239,-430.1865 316.0679,-427.9498 316.9334,-434.8961"/>
</g>
<!-- Node337418&#45;&gt;Node337404 -->
<g id="edge37" class="edge">
<title>Node337418&#45;&gt;Node337404</title>
<path fill="none" stroke="#191970" d="M228.1841,-316.4073C252.3601,-308.3222 287.1581,-296.6848 313.7109,-287.8049"/>
<polygon fill="#191970" stroke="#191970" points="315.0709,-291.0407 323.4445,-284.5497 312.8507,-284.4021 315.0709,-291.0407"/>
</g>
<!-- Node337418&#45;&gt;Node337408 -->
<g id="edge38" class="edge">
<title>Node337418&#45;&gt;Node337408</title>
<path fill="none" stroke="#191970" d="M257.5887,-335.5227C275.8516,-338.5167 295.5903,-341.7525 312.2744,-344.4876"/>
<polygon fill="#191970" stroke="#191970" points="311.7928,-347.9553 322.2274,-346.1192 312.9253,-341.0475 311.7928,-347.9553"/>
</g>
<!-- Node337419 -->
<g id="node25" class="node">
<title>Node337419</title>
<g id="a_node25"><a xlink:href="cutils_8h.html#ae92485345dfbbc7e4118dac3d514ad76" target="_top" xlink:title="put_u16">
<polygon fill="none" stroke="#000000" points="326.5,-303.5 326.5,-322.5 377.5,-322.5 377.5,-303.5 326.5,-303.5"/>
<text text-anchor="middle" x="352" y="-310.5" font-family="Helvetica,sans-Serif" font-size="10.00" fill="#000000">put_u16</text>
</a>
</g>
</g>
<!-- Node337418&#45;&gt;Node337419 -->
<g id="edge39" class="edge">
<title>Node337418&#45;&gt;Node337419</title>
<path fill="none" stroke="#191970" d="M265.0588,-320.4114C282.6373,-318.9129 300.9892,-317.3485 316.2771,-316.0452"/>
<polygon fill="#191970" stroke="#191970" points="316.6579,-319.5256 326.3244,-315.1887 316.0632,-312.5509 316.6579,-319.5256"/>
</g>
<!-- Node337420&#45;&gt;Node337396 -->
<g id="edge41" class="edge">
<title>Node337420&#45;&gt;Node337396</title>
<path fill="none" stroke="#191970" d="M240.7383,-588.511C259.0801,-592.2762 281.007,-596.1448 301,-598 346.1394,-602.1885 357.9744,-603.2734 403,-598 417.6878,-596.2797 433.5886,-592.8404 447.3155,-589.3551"/>
<polygon fill="#191970" stroke="#191970" points="448.5585,-592.6468 457.3327,-586.7085 446.7703,-585.8791 448.5585,-592.6468"/>
</g>
<!-- Node337421 -->
<g id="node27" class="node">
<title>Node337421</title>
<g id="a_node27"><a xlink:href="quickjs_8c.html#a237c9785e84b9382c476ee0868edb117" target="_top" xlink:title="add_var_this">
<polygon fill="none" stroke="#000000" points="316,-569.5 316,-588.5 388,-588.5 388,-569.5 316,-569.5"/>
<text text-anchor="middle" x="352" y="-576.5" font-family="Helvetica,sans-Serif" font-size="10.00" fill="#000000">add_var_this</text>
</a>
</g>
</g>
<!-- Node337420&#45;&gt;Node337421 -->
<g id="edge42" class="edge">
<title>Node337420&#45;&gt;Node337421</title>
<path fill="none" stroke="#191970" d="M251.5553,-579C268.9903,-579 288.3082,-579 305.3072,-579"/>
<polygon fill="#191970" stroke="#191970" points="305.5543,-582.5001 315.5542,-579 305.5542,-575.5001 305.5543,-582.5001"/>
</g>
<!-- Node337421&#45;&gt;Node337396 -->
<g id="edge43" class="edge">
<title>Node337421&#45;&gt;Node337396</title>
<path fill="none" stroke="#191970" d="M388.1431,-579C406.5882,-579 428.9495,-579 447.3273,-579"/>
<polygon fill="#191970" stroke="#191970" points="447.3518,-582.5001 457.3517,-579 447.3517,-575.5001 447.3518,-582.5001"/>
</g>
</g>
</svg>
