<?xml version="1.0" encoding="UTF-8" standalone="no"?>
<!DOCTYPE svg PUBLIC "-//W3C//DTD SVG 1.1//EN"
 "http://www.w3.org/Graphics/SVG/1.1/DTD/svg11.dtd">
<!-- Generated by graphviz version 2.40.1 (20161225.0304)
 -->
<!-- Title: js_dataview_constructor Pages: 1 -->
<!--zoomable 628 -->
<svg id="main" version="1.1" xmlns="http://www.w3.org/2000/svg" xmlns:xlink="http://www.w3.org/1999/xlink" xml:space="preserve" onload="init(evt)">
<style type="text/css"><![CDATA[
.edge:hover path { stroke: red; }
.edge:hover polygon { stroke: red; fill: red; }
]]></style>
<script type="text/javascript"><![CDATA[
var edges = document.getElementsByTagName('g');
if (edges && edges.length) {
  for (var i=0;i<edges.length;i++) {
    if (edges[i].id.substr(0,4)=='edge') {
      edges[i].setAttribute('class','edge');
    }
  }
}
]]></script>
        <defs>
                <circle id="rim" cx="0" cy="0" r="7"/>
                <circle id="rim2" cx="0" cy="0" r="3.5"/>
                <g id="zoomPlus">
                        <use xlink:href="#rim" fill="#404040">
                                <set attributeName="fill" to="#808080" begin="zoomplus.mouseover" end="zoomplus.mouseout"/>
                        </use>
                        <path d="M-4,0h8M0,-4v8" fill="none" stroke="white" stroke-width="1.5" pointer-events="none"/>
                </g>
                <g id="zoomMin">
                        <use xlink:href="#rim" fill="#404040">
                                <set attributeName="fill" to="#808080" begin="zoomminus.mouseover" end="zoomminus.mouseout"/>
                        </use>
                        <path d="M-4,0h8" fill="none" stroke="white" stroke-width="1.5" pointer-events="none"/>
                </g>
                <g id="dirArrow">
                        <path fill="none" stroke="white" stroke-width="1.5" d="M0,-3.0v7 M-2.5,-0.5L0,-3.0L2.5,-0.5"/>
                </g>
               <g id="resetDef">
                       <use xlink:href="#rim2" fill="#404040">
                               <set attributeName="fill" to="#808080" begin="reset.mouseover" end="reset.mouseout"/>
                       </use>
               </g>
        </defs>

<script type="text/javascript">
var viewWidth = 923;
var viewHeight = 628;
var sectionId = 'dynsection-1847';
</script>
<script xlink:href="svgpan.js"/>
<svg id="graph" class="graph">
<g id="viewport">
<title>js_dataview_constructor</title>
<!-- Node463296 -->
<g id="node1" class="node">
<title>Node463296</title>
<polygon fill="#bfbfbf" stroke="#000000" points="0,-152.5 0,-171.5 122,-171.5 122,-152.5 0,-152.5"/>
<text text-anchor="middle" x="61" y="-159.5" font-family="Helvetica,sans-Serif" font-size="10.00" fill="#000000">js_dataview_constructor</text>
</g>
<!-- Node463297 -->
<g id="node2" class="node">
<title>Node463297</title>
<g id="a_node2"><a xlink:href="quickjs_8c.html#a93dbf502b17d1328c524401335f60499" target="_top" xlink:title="js_create_from_ctor">
<polygon fill="none" stroke="#000000" points="158,-266.5 158,-285.5 261,-285.5 261,-266.5 158,-266.5"/>
<text text-anchor="middle" x="209.5" y="-273.5" font-family="Helvetica,sans-Serif" font-size="10.00" fill="#000000">js_create_from_ctor</text>
</a>
</g>
</g>
<!-- Node463296&#45;&gt;Node463297 -->
<g id="edge1" class="edge">
<title>Node463296&#45;&gt;Node463297</title>
<path fill="none" stroke="#191970" d="M73.4056,-171.5235C98.8926,-191.0892 157.3805,-235.9891 188.7394,-260.0626"/>
<polygon fill="#191970" stroke="#191970" points="186.7514,-262.9488 196.8149,-266.262 191.014,-257.3963 186.7514,-262.9488"/>
</g>
<!-- Node463298 -->
<g id="node3" class="node">
<title>Node463298</title>
<g id="a_node3"><a xlink:href="quickjs_8h.html#a775522f2d084fc8fa0fcb33f390006b4" target="_top" xlink:title="JS_DupValue">
<polygon fill="none" stroke="#000000" points="678.5,-436.5 678.5,-455.5 755.5,-455.5 755.5,-436.5 678.5,-436.5"/>
<text text-anchor="middle" x="717" y="-443.5" font-family="Helvetica,sans-Serif" font-size="10.00" fill="#000000">JS_DupValue</text>
</a>
</g>
</g>
<!-- Node463296&#45;&gt;Node463298 -->
<g id="edge17" class="edge">
<title>Node463296&#45;&gt;Node463298</title>
<path fill="none" stroke="#191970" d="M66.2928,-171.6698C88.279,-210.7033 176.896,-357.1363 297,-411 421.274,-466.7338 586.879,-459.922 668.0059,-452.0541"/>
<polygon fill="#191970" stroke="#191970" points="668.8174,-455.4897 678.4109,-450.9936 668.1076,-448.5257 668.8174,-455.4897"/>
</g>
<!-- Node463299 -->
<g id="node4" class="node">
<title>Node463299</title>
<g id="a_node4"><a xlink:href="quickjs_8h.html#afaa20c47565bc704c6c85f3d77254e7d" target="_top" xlink:title="JS_FreeValue">
<polygon fill="none" stroke="#000000" points="678,-190.5 678,-209.5 756,-209.5 756,-190.5 678,-190.5"/>
<text text-anchor="middle" x="717" y="-197.5" font-family="Helvetica,sans-Serif" font-size="10.00" fill="#000000">JS_FreeValue</text>
</a>
</g>
</g>
<!-- Node463296&#45;&gt;Node463299 -->
<g id="edge18" class="edge">
<title>Node463296&#45;&gt;Node463299</title>
<path fill="none" stroke="#191970" d="M122.0414,-155.7314C169.643,-151.1711 237.4461,-145.3934 297,-143 355.6193,-140.6441 370.6131,-137.2776 429,-143 515.3758,-151.4655 614.2625,-173.8871 670.8031,-187.9539"/>
<polygon fill="#191970" stroke="#191970" points="669.9664,-191.3524 680.5176,-190.3925 671.6707,-184.563 669.9664,-191.3524"/>
</g>
<!-- Node463533 -->
<g id="node10" class="node">
<title>Node463533</title>
<g id="a_node10"><a xlink:href="quickjs_8c.html#a033dd3ebd29c4eb9f0baff1dd0fec0b1" target="_top" xlink:title="JS_ThrowTypeErrorDetached\lArrayBuffer">
<polygon fill="none" stroke="#000000" points="644,-106 644,-136 790,-136 790,-106 644,-106"/>
<text text-anchor="start" x="652" y="-124" font-family="Helvetica,sans-Serif" font-size="10.00" fill="#000000">JS_ThrowTypeErrorDetached</text>
<text text-anchor="middle" x="717" y="-113" font-family="Helvetica,sans-Serif" font-size="10.00" fill="#000000">ArrayBuffer</text>
</a>
</g>
</g>
<!-- Node463296&#45;&gt;Node463533 -->
<g id="edge24" class="edge">
<title>Node463296&#45;&gt;Node463533</title>
<path fill="none" stroke="#191970" d="M97.5848,-152.4745C115.6406,-148.1855 137.8257,-143.5264 158,-141 325.7911,-119.9878 523.9555,-118.3072 633.5393,-119.3813"/>
<polygon fill="#191970" stroke="#191970" points="633.8263,-122.8845 643.8637,-119.4932 633.9023,-115.8849 633.8263,-122.8845"/>
</g>
<!-- Node463346 -->
<g id="node11" class="node">
<title>Node463346</title>
<g id="a_node11"><a xlink:href="quickjs_8h.html#ad80a83d73e9b7d872b88fbf2943aebe9" target="_top" xlink:title="JS_IsException">
<polygon fill="none" stroke="#000000" points="674,-550.5 674,-569.5 760,-569.5 760,-550.5 674,-550.5"/>
<text text-anchor="middle" x="717" y="-557.5" font-family="Helvetica,sans-Serif" font-size="10.00" fill="#000000">JS_IsException</text>
</a>
</g>
</g>
<!-- Node463296&#45;&gt;Node463346 -->
<g id="edge22" class="edge">
<title>Node463296&#45;&gt;Node463346</title>
<path fill="none" stroke="#191970" d="M62.0222,-171.6875C67.9299,-225.7436 99.4933,-489.5099 158,-541 309.0159,-673.9047 581.6947,-604.1456 680.2259,-572.697"/>
<polygon fill="#191970" stroke="#191970" points="681.5917,-575.9333 690.0194,-569.5128 679.4272,-569.2764 681.5917,-575.9333"/>
</g>
<!-- Node463504 -->
<g id="node13" class="node">
<title>Node463504</title>
<g id="a_node13"><a xlink:href="quickjs_8h.html#a4e407128a9605afb77523e49e9a627fd" target="_top" xlink:title="JS_IsUndefined">
<polygon fill="none" stroke="#000000" points="320,-152.5 320,-171.5 406,-171.5 406,-152.5 320,-152.5"/>
<text text-anchor="middle" x="363" y="-159.5" font-family="Helvetica,sans-Serif" font-size="10.00" fill="#000000">JS_IsUndefined</text>
</a>
</g>
</g>
<!-- Node463296&#45;&gt;Node463504 -->
<g id="edge23" class="edge">
<title>Node463296&#45;&gt;Node463504</title>
<path fill="none" stroke="#191970" d="M122.1142,-162C177.0521,-162 256.9482,-162 309.4338,-162"/>
<polygon fill="#191970" stroke="#191970" points="309.55,-165.5001 319.55,-162 309.5499,-158.5001 309.55,-165.5001"/>
</g>
<!-- Node463726 -->
<g id="node15" class="node">
<title>Node463726</title>
<g id="a_node15"><a xlink:href="quickjs_8c.html#a939f8b5d288d1f52e00280a42a29b9b4" target="_top" xlink:title="js_get_array_buffer">
<polygon fill="none" stroke="#000000" points="159.5,-38.5 159.5,-57.5 259.5,-57.5 259.5,-38.5 159.5,-38.5"/>
<text text-anchor="middle" x="209.5" y="-45.5" font-family="Helvetica,sans-Serif" font-size="10.00" fill="#000000">js_get_array_buffer</text>
</a>
</g>
</g>
<!-- Node463296&#45;&gt;Node463726 -->
<g id="edge19" class="edge">
<title>Node463296&#45;&gt;Node463726</title>
<path fill="none" stroke="#191970" d="M69.5429,-152.2757C85.5151,-134.5333 121.5903,-96.486 158,-72 163.4791,-68.3153 169.6139,-64.9166 175.6869,-61.9063"/>
<polygon fill="#191970" stroke="#191970" points="177.5038,-64.9204 185.0762,-57.5103 174.5356,-58.5808 177.5038,-64.9204"/>
</g>
<!-- Node463728 -->
<g id="node18" class="node">
<title>Node463728</title>
<g id="a_node18"><a xlink:href="quickjs_8c.html#ad52f50dfe0e0e4aeae7003b97c4c0765" target="_top" xlink:title="JS_ToIndex">
<polygon fill="none" stroke="#000000" points="175,-512.5 175,-531.5 244,-531.5 244,-512.5 175,-512.5"/>
<text text-anchor="middle" x="209.5" y="-519.5" font-family="Helvetica,sans-Serif" font-size="10.00" fill="#000000">JS_ToIndex</text>
</a>
</g>
</g>
<!-- Node463296&#45;&gt;Node463728 -->
<g id="edge25" class="edge">
<title>Node463296&#45;&gt;Node463728</title>
<path fill="none" stroke="#191970" d="M62.6692,-171.6149C71.3967,-220.9651 113.0932,-445.529 158,-498 161.1608,-501.6933 165.0132,-504.854 169.1738,-507.5503"/>
<polygon fill="#191970" stroke="#191970" points="167.5805,-510.6689 178.0238,-512.4546 170.9735,-504.5461 167.5805,-510.6689"/>
</g>
<!-- Node463329 -->
<g id="node21" class="node">
<title>Node463329</title>
<g id="a_node21"><a xlink:href="list_8h.html#a3a5d0733570b2fafc18f4c71a2968ea5" target="_top" xlink:title="list_add_tail">
<polygon fill="none" stroke="#ff0000" points="175.5,-.5 175.5,-19.5 243.5,-19.5 243.5,-.5 175.5,-.5"/>
<text text-anchor="middle" x="209.5" y="-7.5" font-family="Helvetica,sans-Serif" font-size="10.00" fill="#000000">list_add_tail</text>
</a>
</g>
</g>
<!-- Node463296&#45;&gt;Node463329 -->
<g id="edge30" class="edge">
<title>Node463296&#45;&gt;Node463329</title>
<path fill="none" stroke="#191970" d="M65.4498,-152.4727C77.174,-128.3584 111.2556,-64.3182 158,-29 160.5045,-27.1077 163.217,-25.3879 166.0426,-23.8273"/>
<polygon fill="#191970" stroke="#191970" points="167.8332,-26.8503 175.3361,-19.3698 164.8059,-20.5388 167.8332,-26.8503"/>
</g>
<!-- Node463297&#45;&gt;Node463298 -->
<g id="edge2" class="edge">
<title>Node463297&#45;&gt;Node463298</title>
<path fill="none" stroke="#191970" d="M213.7428,-285.6186C224.207,-308.0755 253.5896,-363.9487 297,-389 301.0084,-391.3132 558.2965,-425.2183 668.1484,-439.6128"/>
<polygon fill="#191970" stroke="#191970" points="667.9356,-443.1148 678.3055,-440.9432 668.8448,-436.1741 667.9356,-443.1148"/>
</g>
<!-- Node463297&#45;&gt;Node463299 -->
<g id="edge3" class="edge">
<title>Node463297&#45;&gt;Node463299</title>
<path fill="none" stroke="#191970" d="M220.1016,-266.3296C235.6367,-252.8471 266.1072,-228.9399 297,-219 425.5065,-177.6525 587.545,-186.1311 667.5941,-194.0228"/>
<polygon fill="#191970" stroke="#191970" points="667.5648,-197.5381 677.8699,-195.0777 668.2797,-190.5747 667.5648,-197.5381"/>
</g>
<!-- Node463335 -->
<g id="node6" class="node">
<title>Node463335</title>
<g id="a_node6"><a xlink:href="quickjs_8c.html#a83e9d1851a3e2cd176944272b583143c" target="_top" xlink:title="JS_GetFunctionRealm">
<polygon fill="none" stroke="#000000" points="305,-342.5 305,-361.5 421,-361.5 421,-342.5 305,-342.5"/>
<text text-anchor="middle" x="363" y="-349.5" font-family="Helvetica,sans-Serif" font-size="10.00" fill="#000000">JS_GetFunctionRealm</text>
</a>
</g>
</g>
<!-- Node463297&#45;&gt;Node463335 -->
<g id="edge5" class="edge">
<title>Node463297&#45;&gt;Node463335</title>
<path fill="none" stroke="#191970" d="M221.5702,-285.5459C237.8518,-298.0154 268.1456,-319.8073 297,-333 302.0153,-335.2931 307.3727,-337.3778 312.7848,-339.2545"/>
<polygon fill="#191970" stroke="#191970" points="311.9318,-342.6572 322.5237,-342.4082 314.0883,-335.9976 311.9318,-342.6572"/>
</g>
<!-- Node463337 -->
<g id="node8" class="node">
<title>Node463337</title>
<g id="a_node8"><a xlink:href="quickjs_8h.html#a89b7c8686c7eee70b86be722ee4730ad" target="_top" xlink:title="JS_GetProperty">
<polygon fill="none" stroke="#000000" points="320,-228.5 320,-247.5 406,-247.5 406,-228.5 320,-228.5"/>
<text text-anchor="middle" x="363" y="-235.5" font-family="Helvetica,sans-Serif" font-size="10.00" fill="#000000">JS_GetProperty</text>
</a>
</g>
</g>
<!-- Node463297&#45;&gt;Node463337 -->
<g id="edge8" class="edge">
<title>Node463297&#45;&gt;Node463337</title>
<path fill="none" stroke="#191970" d="M248.2345,-266.411C268.3993,-261.4191 293.2479,-255.2676 314.6611,-249.9666"/>
<polygon fill="#191970" stroke="#191970" points="315.6781,-253.3206 324.544,-247.5201 313.9959,-246.5257 315.6781,-253.3206"/>
</g>
<!-- Node463297&#45;&gt;Node463346 -->
<g id="edge13" class="edge">
<title>Node463297&#45;&gt;Node463346</title>
<path fill="none" stroke="#191970" d="M213.1839,-285.7145C222.9854,-310.2947 252.0614,-375.5201 297,-411 357.1151,-458.462 575.4719,-521.6352 671.34,-547.8271"/>
<polygon fill="#191970" stroke="#191970" points="670.4774,-551.2196 681.0454,-550.4666 672.3144,-544.465 670.4774,-551.2196"/>
</g>
<!-- Node463585 -->
<g id="node12" class="node">
<title>Node463585</title>
<g id="a_node12"><a xlink:href="quickjs_8h.html#a3d68fe446df2d9c7d1900b16371bff5b" target="_top" xlink:title="JS_IsObject">
<polygon fill="none" stroke="#000000" points="327.5,-304.5 327.5,-323.5 398.5,-323.5 398.5,-304.5 327.5,-304.5"/>
<text text-anchor="middle" x="363" y="-311.5" font-family="Helvetica,sans-Serif" font-size="10.00" fill="#000000">JS_IsObject</text>
</a>
</g>
</g>
<!-- Node463297&#45;&gt;Node463585 -->
<g id="edge14" class="edge">
<title>Node463297&#45;&gt;Node463585</title>
<path fill="none" stroke="#191970" d="M248.2345,-285.589C269.3377,-290.8132 295.5709,-297.3075 317.6276,-302.7677"/>
<polygon fill="#191970" stroke="#191970" points="316.8863,-306.1898 327.4344,-305.1955 318.5685,-299.3949 316.8863,-306.1898"/>
</g>
<!-- Node463297&#45;&gt;Node463504 -->
<g id="edge15" class="edge">
<title>Node463297&#45;&gt;Node463504</title>
<path fill="none" stroke="#191970" d="M216.373,-266.4811C229.8853,-248.3965 261.6843,-208.8424 297,-186 303.4049,-181.8573 310.621,-178.306 317.8694,-175.3046"/>
<polygon fill="#191970" stroke="#191970" points="319.6081,-178.3871 327.7003,-171.5485 317.1097,-171.8481 319.6081,-178.3871"/>
</g>
<!-- Node463465 -->
<g id="node14" class="node">
<title>Node463465</title>
<g id="a_node14"><a xlink:href="quickjs_8c.html#a73738c650f11459db0d7af3dcdf8316b" target="_top" xlink:title="JS_NewObjectProtoClass">
<polygon fill="none" stroke="#ff0000" points="297.5,-266.5 297.5,-285.5 428.5,-285.5 428.5,-266.5 297.5,-266.5"/>
<text text-anchor="middle" x="363" y="-273.5" font-family="Helvetica,sans-Serif" font-size="10.00" fill="#000000">JS_NewObjectProtoClass</text>
</a>
</g>
</g>
<!-- Node463297&#45;&gt;Node463465 -->
<g id="edge16" class="edge">
<title>Node463297&#45;&gt;Node463465</title>
<path fill="none" stroke="#191970" d="M261.0403,-276C269.5199,-276 278.4615,-276 287.3826,-276"/>
<polygon fill="#191970" stroke="#191970" points="287.4204,-279.5001 297.4204,-276 287.4204,-272.5001 287.4204,-279.5001"/>
</g>
<!-- Node463300 -->
<g id="node5" class="node">
<title>Node463300</title>
<g id="a_node5"><a xlink:href="quickjs_8c.html#aa059f309c30fd5166d16c82a97973146" target="_top" xlink:title="__JS_FreeValue">
<polygon fill="none" stroke="#ff0000" points="826,-190.5 826,-209.5 915,-209.5 915,-190.5 826,-190.5"/>
<text text-anchor="middle" x="870.5" y="-197.5" font-family="Helvetica,sans-Serif" font-size="10.00" fill="#000000">__JS_FreeValue</text>
</a>
</g>
</g>
<!-- Node463299&#45;&gt;Node463300 -->
<g id="edge4" class="edge">
<title>Node463299&#45;&gt;Node463300</title>
<path fill="none" stroke="#191970" d="M756.1317,-200C774.2096,-200 795.9868,-200 815.6659,-200"/>
<polygon fill="#191970" stroke="#191970" points="815.7348,-203.5001 825.7348,-200 815.7348,-196.5001 815.7348,-203.5001"/>
</g>
<!-- Node463335&#45;&gt;Node463335 -->
<g id="edge6" class="edge">
<title>Node463335&#45;&gt;Node463335</title>
<path fill="none" stroke="#191970" d="M339.5724,-361.7571C328.1752,-370.5653 335.9844,-380 363,-380 380.729,-380 390.1865,-375.9368 391.3725,-370.6539"/>
<polygon fill="#191970" stroke="#191970" points="394.3449,-368.7974 386.4276,-361.7571 388.2265,-372.1981 394.3449,-368.7974"/>
</g>
<!-- Node463336 -->
<g id="node7" class="node">
<title>Node463336</title>
<g id="a_node7"><a xlink:href="quickjs_8c.html#a199d64ccbee0a90d93e1ad12745417f6" target="_top" xlink:title="JS_ThrowTypeErrorRevoked\lProxy">
<polygon fill="none" stroke="#000000" points="465,-337 465,-367 608,-367 608,-337 465,-337"/>
<text text-anchor="start" x="473" y="-355" font-family="Helvetica,sans-Serif" font-size="10.00" fill="#000000">JS_ThrowTypeErrorRevoked</text>
<text text-anchor="middle" x="536.5" y="-344" font-family="Helvetica,sans-Serif" font-size="10.00" fill="#000000">Proxy</text>
</a>
</g>
</g>
<!-- Node463335&#45;&gt;Node463336 -->
<g id="edge7" class="edge">
<title>Node463335&#45;&gt;Node463336</title>
<path fill="none" stroke="#191970" d="M421.2556,-352C431.9584,-352 443.3121,-352 454.5578,-352"/>
<polygon fill="#191970" stroke="#191970" points="454.8333,-355.5001 464.8333,-352 454.8332,-348.5001 454.8333,-355.5001"/>
</g>
<!-- Node463338 -->
<g id="node9" class="node">
<title>Node463338</title>
<g id="a_node9"><a xlink:href="quickjs_8c.html#a5762c57ae0c9937e986040c01222833a" target="_top" xlink:title="JS_GetPropertyInternal">
<polygon fill="none" stroke="#ff0000" points="477,-228.5 477,-247.5 596,-247.5 596,-228.5 477,-228.5"/>
<text text-anchor="middle" x="536.5" y="-235.5" font-family="Helvetica,sans-Serif" font-size="10.00" fill="#000000">JS_GetPropertyInternal</text>
</a>
</g>
</g>
<!-- Node463337&#45;&gt;Node463338 -->
<g id="edge9" class="edge">
<title>Node463337&#45;&gt;Node463338</title>
<path fill="none" stroke="#191970" d="M406.3338,-238C424.5369,-238 446.1762,-238 466.5335,-238"/>
<polygon fill="#191970" stroke="#191970" points="466.7191,-241.5001 476.719,-238 466.719,-234.5001 466.7191,-241.5001"/>
</g>
<!-- Node463338&#45;&gt;Node463298 -->
<g id="edge10" class="edge">
<title>Node463338&#45;&gt;Node463298</title>
<path fill="none" stroke="#191970" d="M544.9638,-247.7533C573.2632,-280.3642 664.8693,-385.927 701.5779,-428.2282"/>
<polygon fill="#191970" stroke="#191970" points="699.1469,-430.767 708.3445,-436.0258 704.4338,-426.1791 699.1469,-430.767"/>
</g>
<!-- Node463338&#45;&gt;Node463299 -->
<g id="edge11" class="edge">
<title>Node463338&#45;&gt;Node463299</title>
<path fill="none" stroke="#191970" d="M582.0478,-228.411C608.2553,-222.8936 641.191,-215.9598 667.9642,-210.3233"/>
<polygon fill="#191970" stroke="#191970" points="668.8323,-213.7174 677.8967,-208.2323 667.3902,-206.8675 668.8323,-213.7174"/>
</g>
<!-- Node463338&#45;&gt;Node463533 -->
<g id="edge12" class="edge">
<title>Node463338&#45;&gt;Node463533</title>
<path fill="none" stroke="#191970" d="M551.2711,-228.4254C580.39,-209.5506 645.7874,-167.16 685.1668,-141.6343"/>
<polygon fill="#191970" stroke="#191970" points="687.1406,-144.5258 693.6282,-136.1496 683.3331,-138.6519 687.1406,-144.5258"/>
</g>
<!-- Node463727 -->
<g id="node16" class="node">
<title>Node463727</title>
<g id="a_node16"><a xlink:href="quickjs_8c.html#ab0f713d7a2440dbb2673810323a9a78d" target="_top" xlink:title="JS_ThrowTypeErrorInvalid\lClass">
<polygon fill="none" stroke="#000000" points="297,-27 297,-57 429,-57 429,-27 297,-27"/>
<text text-anchor="start" x="305" y="-45" font-family="Helvetica,sans-Serif" font-size="10.00" fill="#000000">JS_ThrowTypeErrorInvalid</text>
<text text-anchor="middle" x="363" y="-34" font-family="Helvetica,sans-Serif" font-size="10.00" fill="#000000">Class</text>
</a>
</g>
</g>
<!-- Node463726&#45;&gt;Node463727 -->
<g id="edge20" class="edge">
<title>Node463726&#45;&gt;Node463727</title>
<path fill="none" stroke="#191970" d="M259.7616,-46.0354C268.4943,-45.694 277.7484,-45.3323 286.9882,-44.9711"/>
<polygon fill="#191970" stroke="#191970" points="287.1279,-48.4685 296.9835,-44.5804 286.8544,-41.4738 287.1279,-48.4685"/>
</g>
<!-- Node463450 -->
<g id="node17" class="node">
<title>Node463450</title>
<g id="a_node17"><a xlink:href="quickjs_8c.html#ab18048ab5eea3e47109a5473f78515bc" target="_top" xlink:title="JS_AtomGetStr">
<polygon fill="none" stroke="#ff0000" points="493.5,-32.5 493.5,-51.5 579.5,-51.5 579.5,-32.5 493.5,-32.5"/>
<text text-anchor="middle" x="536.5" y="-39.5" font-family="Helvetica,sans-Serif" font-size="10.00" fill="#000000">JS_AtomGetStr</text>
</a>
</g>
</g>
<!-- Node463727&#45;&gt;Node463450 -->
<g id="edge21" class="edge">
<title>Node463727&#45;&gt;Node463450</title>
<path fill="none" stroke="#191970" d="M429.0879,-42C446.9313,-42 466.0131,-42 483.0688,-42"/>
<polygon fill="#191970" stroke="#191970" points="483.3973,-45.5001 493.3973,-42 483.3972,-38.5001 483.3973,-45.5001"/>
</g>
<!-- Node463729 -->
<g id="node19" class="node">
<title>Node463729</title>
<g id="a_node19"><a xlink:href="quickjs_8c.html#aee6a60a9e9f3c0d9827d5cb0e15c23b4" target="_top" xlink:title="JS_ToInt64Sat">
<polygon fill="none" stroke="#000000" points="322,-512.5 322,-531.5 404,-531.5 404,-512.5 322,-512.5"/>
<text text-anchor="middle" x="363" y="-519.5" font-family="Helvetica,sans-Serif" font-size="10.00" fill="#000000">JS_ToInt64Sat</text>
</a>
</g>
</g>
<!-- Node463728&#45;&gt;Node463729 -->
<g id="edge26" class="edge">
<title>Node463728&#45;&gt;Node463729</title>
<path fill="none" stroke="#191970" d="M244.3315,-522C264.1855,-522 289.438,-522 311.5402,-522"/>
<polygon fill="#191970" stroke="#191970" points="311.7702,-525.5001 321.7702,-522 311.7702,-518.5001 311.7702,-525.5001"/>
</g>
<!-- Node463729&#45;&gt;Node463298 -->
<g id="edge27" class="edge">
<title>Node463729&#45;&gt;Node463298</title>
<path fill="none" stroke="#191970" d="M404.1085,-522.2828C453.4319,-521.6446 538.21,-517.4194 608,-498 638.6162,-489.4809 671.1882,-472.8211 692.6677,-460.6467"/>
<polygon fill="#191970" stroke="#191970" points="694.5282,-463.6139 701.4323,-455.5775 691.0236,-457.5544 694.5282,-463.6139"/>
</g>
<!-- Node463580 -->
<g id="node20" class="node">
<title>Node463580</title>
<g id="a_node20"><a xlink:href="quickjs_8c.html#a8c94da482e7e46bf333be67ff97e58c1" target="_top" xlink:title="JS_ToInt64SatFree">
<polygon fill="none" stroke="#ff0000" points="486,-550.5 486,-569.5 587,-569.5 587,-550.5 486,-550.5"/>
<text text-anchor="middle" x="536.5" y="-557.5" font-family="Helvetica,sans-Serif" font-size="10.00" fill="#000000">JS_ToInt64SatFree</text>
</a>
</g>
</g>
<!-- Node463729&#45;&gt;Node463580 -->
<g id="edge28" class="edge">
<title>Node463729&#45;&gt;Node463580</title>
<path fill="none" stroke="#191970" d="M404.1171,-531.0055C427.7371,-536.1787 457.6668,-542.7339 483.0904,-548.3022"/>
<polygon fill="#191970" stroke="#191970" points="482.434,-551.7414 492.9513,-550.462 483.9317,-544.9034 482.434,-551.7414"/>
</g>
<!-- Node463580&#45;&gt;Node463346 -->
<g id="edge29" class="edge">
<title>Node463580&#45;&gt;Node463346</title>
<path fill="none" stroke="#191970" d="M587.2597,-560C611.1641,-560 639.6727,-560 663.87,-560"/>
<polygon fill="#191970" stroke="#191970" points="663.9503,-563.5001 673.9503,-560 663.9503,-556.5001 663.9503,-563.5001"/>
</g>
</g>
</svg>
        <g id="navigator" transform="translate(0 0)" fill="#404254">
                <rect fill="#f2f5e9" fill-opacity="0.5" stroke="#606060" stroke-width=".5" x="0" y="0" width="60" height="60"/>
                <use id="zoomplus" xlink:href="#zoomPlus" x="17" y="9" onmousedown="handleZoom(evt,'in')"/>
                <use id="zoomminus" xlink:href="#zoomMin" x="42" y="9" onmousedown="handleZoom(evt,'out')"/>
                <use id="reset" xlink:href="#resetDef" x="30" y="36" onmousedown="handleReset()"/>
                <g id="arrowUp" xlink:href="#dirArrow" transform="translate(30 24)" onmousedown="handlePan(0,-1)">
                  <use xlink:href="#rim" fill="#404040">
                        <set attributeName="fill" to="#808080" begin="arrowUp.mouseover" end="arrowUp.mouseout"/>
                  </use>
                  <path fill="none" stroke="white" stroke-width="1.5" d="M0,-3.0v7 M-2.5,-0.5L0,-3.0L2.5,-0.5"/>
                </g>
                <g id="arrowRight" xlink:href="#dirArrow" transform="rotate(90) translate(36 -43)" onmousedown="handlePan(1,0)">
                  <use xlink:href="#rim" fill="#404040">
                        <set attributeName="fill" to="#808080" begin="arrowRight.mouseover" end="arrowRight.mouseout"/>
                  </use>
                  <path fill="none" stroke="white" stroke-width="1.5" d="M0,-3.0v7 M-2.5,-0.5L0,-3.0L2.5,-0.5"/>
                </g>
                <g id="arrowDown" xlink:href="#dirArrow" transform="rotate(180) translate(-30 -48)" onmousedown="handlePan(0,1)">
                  <use xlink:href="#rim" fill="#404040">
                        <set attributeName="fill" to="#808080" begin="arrowDown.mouseover" end="arrowDown.mouseout"/>
                  </use>
                  <path fill="none" stroke="white" stroke-width="1.5" d="M0,-3.0v7 M-2.5,-0.5L0,-3.0L2.5,-0.5"/>
                </g>
                <g id="arrowLeft" xlink:href="#dirArrow" transform="rotate(270) translate(-36 17)" onmousedown="handlePan(-1,0)">
                  <use xlink:href="#rim" fill="#404040">
                        <set attributeName="fill" to="#808080" begin="arrowLeft.mouseover" end="arrowLeft.mouseout"/>
                  </use>
                  <path fill="none" stroke="white" stroke-width="1.5" d="M0,-3.0v7 M-2.5,-0.5L0,-3.0L2.5,-0.5"/>
                </g>
        </g>
        <svg viewBox="0 0 15 15" width="100%" height="30px" preserveAspectRatio="xMaxYMin meet">
         <g id="arrow_out" transform="scale(0.3 0.3)">
          <a xlink:href="quickjs_8c_a67fcc1a61d5e110579fdaf06d051b6e9_cgraph_org.svg" target="_base">
           <rect id="button" ry="5" rx="5" y="6" x="6" height="38" width="38"
                fill="#f2f5e9" fill-opacity="0.5" stroke="#606060" stroke-width="1.0"/>
           <path id="arrow"
             d="M 11.500037,31.436501 C 11.940474,20.09759 22.043105,11.32322 32.158766,21.979434 L 37.068811,17.246167 C 37.068811,17.246167 37.088388,32 37.088388,32 L 22.160133,31.978069 C 22.160133,31.978069 26.997745,27.140456 26.997745,27.140456 C 18.528582,18.264221 13.291696,25.230495 11.500037,31.436501 z"
             style="fill:#404040;"/>
          </a>
         </g>
        </svg>
</svg>
