<?xml version="1.0" encoding="UTF-8" standalone="no"?>
<!DOCTYPE svg PUBLIC "-//W3C//DTD SVG 1.1//EN"
 "http://www.w3.org/Graphics/SVG/1.1/DTD/svg11.dtd">
<!-- Generated by graphviz version 2.40.1 (20161225.0304)
 -->
<!-- Title: add_arguments_var Pages: 1 -->
<svg width="446pt" height="104pt"
 viewBox="0.00 0.00 446.00 104.00" xmlns="http://www.w3.org/2000/svg" xmlns:xlink="http://www.w3.org/1999/xlink">
<g id="graph0" class="graph" transform="scale(1 1) rotate(0) translate(4 100)">
<title>add_arguments_var</title>
<!-- Node299653 -->
<g id="node1" class="node">
<title>Node299653</title>
<polygon fill="#bfbfbf" stroke="#000000" points="0,-38.5 0,-57.5 102,-57.5 102,-38.5 0,-38.5"/>
<text text-anchor="middle" x="51" y="-45.5" font-family="Helvetica,sans-Serif" font-size="10.00" fill="#000000">add_arguments_var</text>
</g>
<!-- Node299654 -->
<g id="node2" class="node">
<title>Node299654</title>
<g id="a_node2"><a xlink:href="quickjs_8c.html#ab2e0855c4317f8e3b05c0a091bc43a29" target="_top" xlink:title="add_var">
<polygon fill="none" stroke="#000000" points="138,-38.5 138,-57.5 189,-57.5 189,-38.5 138,-38.5"/>
<text text-anchor="middle" x="163.5" y="-45.5" font-family="Helvetica,sans-Serif" font-size="10.00" fill="#000000">add_var</text>
</a>
</g>
</g>
<!-- Node299653&#45;&gt;Node299654 -->
<g id="edge1" class="edge">
<title>Node299653&#45;&gt;Node299654</title>
<path fill="none" stroke="#191970" d="M102.3118,-48C110.8541,-48 119.5495,-48 127.6017,-48"/>
<polygon fill="#191970" stroke="#191970" points="127.7498,-51.5001 137.7497,-48 127.7497,-44.5001 127.7498,-51.5001"/>
</g>
<!-- Node299655 -->
<g id="node3" class="node">
<title>Node299655</title>
<g id="a_node3"><a xlink:href="quickjs_8c.html#a853f0924d441ea4225488f37c8b69f9a" target="_top" xlink:title="__attribute__">
<polygon fill="none" stroke="#000000" points="226,-76.5 226,-95.5 299,-95.5 299,-76.5 226,-76.5"/>
<text text-anchor="middle" x="262.5" y="-83.5" font-family="Helvetica,sans-Serif" font-size="10.00" fill="#000000">__attribute__</text>
</a>
</g>
</g>
<!-- Node299654&#45;&gt;Node299655 -->
<g id="edge2" class="edge">
<title>Node299654&#45;&gt;Node299655</title>
<path fill="none" stroke="#191970" d="M188.4819,-57.589C200.4411,-62.1794 214.9548,-67.7503 227.951,-72.7388"/>
<polygon fill="#191970" stroke="#191970" points="226.936,-76.0981 237.5261,-76.4141 229.4445,-69.563 226.936,-76.0981"/>
</g>
<!-- Node299656 -->
<g id="node4" class="node">
<title>Node299656</title>
<g id="a_node4"><a xlink:href="quickjs_8c.html#abbf44eaeace1104a6bef718fbf5700fe" target="_top" xlink:title="JS_DupAtom">
<polygon fill="none" stroke="#000000" points="225,-38.5 225,-57.5 300,-57.5 300,-38.5 225,-38.5"/>
<text text-anchor="middle" x="262.5" y="-45.5" font-family="Helvetica,sans-Serif" font-size="10.00" fill="#000000">JS_DupAtom</text>
</a>
</g>
</g>
<!-- Node299654&#45;&gt;Node299656 -->
<g id="edge3" class="edge">
<title>Node299654&#45;&gt;Node299656</title>
<path fill="none" stroke="#191970" d="M189.2526,-48C197.0765,-48 205.9377,-48 214.7262,-48"/>
<polygon fill="#191970" stroke="#191970" points="214.9434,-51.5001 224.9433,-48 214.9433,-44.5001 214.9434,-51.5001"/>
</g>
<!-- Node299658 -->
<g id="node6" class="node">
<title>Node299658</title>
<g id="a_node6"><a xlink:href="cutils_8h.html#a94f155fcce337a2b9d4719ed8042cbbe" target="_top" xlink:title="max_int">
<polygon fill="none" stroke="#000000" points="237,-.5 237,-19.5 288,-19.5 288,-.5 237,-.5"/>
<text text-anchor="middle" x="262.5" y="-7.5" font-family="Helvetica,sans-Serif" font-size="10.00" fill="#000000">max_int</text>
</a>
</g>
</g>
<!-- Node299654&#45;&gt;Node299658 -->
<g id="edge5" class="edge">
<title>Node299654&#45;&gt;Node299658</title>
<path fill="none" stroke="#191970" d="M188.4819,-38.411C200.4411,-33.8206 214.9548,-28.2497 227.951,-23.2612"/>
<polygon fill="#191970" stroke="#191970" points="229.4445,-26.437 237.5261,-19.5859 226.936,-19.9019 229.4445,-26.437"/>
</g>
<!-- Node299657 -->
<g id="node5" class="node">
<title>Node299657</title>
<g id="a_node5"><a xlink:href="quickjs_8c.html#a7f6796ee7a195631366f57c713a33f65" target="_top" xlink:title="__JS_AtomIsConst">
<polygon fill="none" stroke="#000000" points="336,-38.5 336,-57.5 438,-57.5 438,-38.5 336,-38.5"/>
<text text-anchor="middle" x="387" y="-45.5" font-family="Helvetica,sans-Serif" font-size="10.00" fill="#000000">__JS_AtomIsConst</text>
</a>
</g>
</g>
<!-- Node299656&#45;&gt;Node299657 -->
<g id="edge4" class="edge">
<title>Node299656&#45;&gt;Node299657</title>
<path fill="none" stroke="#191970" d="M300.192,-48C308.2167,-48 316.8899,-48 325.5426,-48"/>
<polygon fill="#191970" stroke="#191970" points="325.6508,-51.5001 335.6507,-48 325.6507,-44.5001 325.6508,-51.5001"/>
</g>
</g>
</svg>
