<?xml version="1.0" encoding="UTF-8" standalone="no"?>
<!DOCTYPE svg PUBLIC "-//W3C//DTD SVG 1.1//EN"
 "http://www.w3.org/Graphics/SVG/1.1/DTD/svg11.dtd">
<!-- Generated by graphviz version 2.40.1 (20161225.0304)
 -->
<!-- Title: JS_NewObjectFromShape Pages: 1 -->
<svg width="606pt" height="1076pt"
 viewBox="0.00 0.00 606.00 1075.50" xmlns="http://www.w3.org/2000/svg" xmlns:xlink="http://www.w3.org/1999/xlink">
<g id="graph0" class="graph" transform="scale(1 1) rotate(0) translate(4 1071.5)">
<title>JS_NewObjectFromShape</title>
<!-- Node126588 -->
<g id="node1" class="node">
<title>Node126588</title>
<polygon fill="#bfbfbf" stroke="#000000" points="0,-499.5 0,-518.5 133,-518.5 133,-499.5 0,-499.5"/>
<text text-anchor="middle" x="66.5" y="-506.5" font-family="Helvetica,sans-Serif" font-size="10.00" fill="#000000">JS_NewObjectFromShape</text>
</g>
<!-- Node126589 -->
<g id="node2" class="node">
<title>Node126589</title>
<g id="a_node2"><a xlink:href="quickjs_8c.html#ad4ba09e4c7ab9f28c144182e1aacf1f6" target="_top" xlink:title="JS_NewArray">
<polygon fill="none" stroke="#ff0000" points="196,-518.5 196,-537.5 273,-537.5 273,-518.5 196,-518.5"/>
<text text-anchor="middle" x="234.5" y="-525.5" font-family="Helvetica,sans-Serif" font-size="10.00" fill="#000000">JS_NewArray</text>
</a>
</g>
</g>
<!-- Node126588&#45;&gt;Node126589 -->
<g id="edge1" class="edge">
<title>Node126588&#45;&gt;Node126589</title>
<path fill="none" stroke="#191970" d="M143.4215,-517.6995C161.6167,-519.7572 180.2581,-521.8655 195.8981,-523.6343"/>
<polygon fill="#191970" stroke="#191970" points="143.7108,-514.2099 133.3808,-516.5639 142.9241,-521.1656 143.7108,-514.2099"/>
</g>
<!-- Node127176 -->
<g id="node30" class="node">
<title>Node127176</title>
<g id="a_node30"><a xlink:href="quickjs_8c.html#a73738c650f11459db0d7af3dcdf8316b" target="_top" xlink:title="JS_NewObjectProtoClass">
<polygon fill="none" stroke="#ff0000" points="169,-480.5 169,-499.5 300,-499.5 300,-480.5 169,-480.5"/>
<text text-anchor="middle" x="234.5" y="-487.5" font-family="Helvetica,sans-Serif" font-size="10.00" fill="#000000">JS_NewObjectProtoClass</text>
</a>
</g>
</g>
<!-- Node126588&#45;&gt;Node127176 -->
<g id="edge34" class="edge">
<title>Node126588&#45;&gt;Node127176</title>
<path fill="none" stroke="#191970" d="M143.3517,-500.3084C151.9028,-499.3414 160.5533,-498.363 168.9454,-497.4139"/>
<polygon fill="#191970" stroke="#191970" points="142.9241,-496.8344 133.3808,-501.4361 143.7108,-503.7901 142.9241,-496.8344"/>
</g>
<!-- Node126590 -->
<g id="node3" class="node">
<title>Node126590</title>
<g id="a_node3"><a xlink:href="structqjs_1_1js__traits_3_01std_1_1vector_3_01T_01_4_01_4.html#a0a1cc387d5c49e5cb5ae417730d32b1c" target="_top" xlink:title="qjs::js_traits\&lt; std\l::vector\&lt; T \&gt; \&gt;::wrap">
<polygon fill="none" stroke="#000000" points="352.5,-1037 352.5,-1067 462.5,-1067 462.5,-1037 352.5,-1037"/>
<text text-anchor="start" x="360.5" y="-1055" font-family="Helvetica,sans-Serif" font-size="10.00" fill="#000000">qjs::js_traits&lt; std</text>
<text text-anchor="middle" x="407.5" y="-1044" font-family="Helvetica,sans-Serif" font-size="10.00" fill="#000000">::vector&lt; T &gt; &gt;::wrap</text>
</a>
</g>
</g>
<!-- Node126589&#45;&gt;Node126590 -->
<g id="edge2" class="edge">
<title>Node126589&#45;&gt;Node126590</title>
<path fill="none" stroke="#191970" d="M235.9761,-548.0923C242.5166,-631.9454 271.4589,-953.0481 336,-1027 340.4963,-1032.1519 346.1161,-1036.2424 352.2173,-1039.49"/>
<polygon fill="#191970" stroke="#191970" points="239.4482,-547.5913 235.2005,-537.8853 232.4684,-548.1218 239.4482,-547.5913"/>
</g>
<!-- Node126591 -->
<g id="node4" class="node">
<title>Node126591</title>
<g id="a_node4"><a xlink:href="quickjs-libc_8c.html#a9caf548a60b412734dc8a40a7ebc914e" target="_top" xlink:title="js_os_ttyGetWinSize">
<polygon fill="none" stroke="#000000" points="353,-998.5 353,-1017.5 462,-1017.5 462,-998.5 353,-998.5"/>
<text text-anchor="middle" x="407.5" y="-1005.5" font-family="Helvetica,sans-Serif" font-size="10.00" fill="#000000">js_os_ttyGetWinSize</text>
</a>
</g>
</g>
<!-- Node126589&#45;&gt;Node126591 -->
<g id="edge3" class="edge">
<title>Node126589&#45;&gt;Node126591</title>
<path fill="none" stroke="#191970" d="M236.1483,-547.6926C243.1941,-627.2211 273.3233,-923.5675 336,-989 340.7089,-993.9159 346.5326,-997.6107 352.8077,-1000.3793"/>
<polygon fill="#191970" stroke="#191970" points="239.6229,-547.2471 235.2751,-537.5854 232.6489,-547.8496 239.6229,-547.2471"/>
</g>
<!-- Node126592 -->
<g id="node5" class="node">
<title>Node126592</title>
<g id="a_node5"><a xlink:href="quickjs-libc_8c.html#a0210b73e16d177f7668621a6573576aa" target="_top" xlink:title="make_obj_error">
<polygon fill="none" stroke="#ff0000" points="366,-960.5 366,-979.5 449,-979.5 449,-960.5 366,-960.5"/>
<text text-anchor="middle" x="407.5" y="-967.5" font-family="Helvetica,sans-Serif" font-size="10.00" fill="#000000">make_obj_error</text>
</a>
</g>
</g>
<!-- Node126589&#45;&gt;Node126592 -->
<g id="edge4" class="edge">
<title>Node126589&#45;&gt;Node126592</title>
<path fill="none" stroke="#191970" d="M236.808,-548.1064C245.8017,-623.1746 280.7578,-885.8124 336,-946 343.88,-954.5854 354.9228,-960.1021 365.9768,-963.646"/>
<polygon fill="#191970" stroke="#191970" points="240.2317,-547.2517 235.5883,-537.7286 233.2795,-548.0688 240.2317,-547.2517"/>
</g>
<!-- Node126593 -->
<g id="node6" class="node">
<title>Node126593</title>
<g id="a_node6"><a xlink:href="quickjs-libc_8c.html#a64270f007df853e9d2f443383d26ec60" target="_top" xlink:title="js_os_readdir">
<polygon fill="none" stroke="#000000" points="519.5,-941.5 519.5,-960.5 593.5,-960.5 593.5,-941.5 519.5,-941.5"/>
<text text-anchor="middle" x="556.5" y="-948.5" font-family="Helvetica,sans-Serif" font-size="10.00" fill="#000000">js_os_readdir</text>
</a>
</g>
</g>
<!-- Node126589&#45;&gt;Node126593 -->
<g id="edge6" class="edge">
<title>Node126589&#45;&gt;Node126593</title>
<path fill="none" stroke="#191970" d="M236.9491,-548.1593C246.0972,-620.0449 280.6071,-862.2339 336,-913 362.2037,-937.015 463.6201,-946.1141 519.3285,-949.3507"/>
<polygon fill="#191970" stroke="#191970" points="240.3679,-547.2898 235.6579,-537.7995 233.4217,-548.1556 240.3679,-547.2898"/>
</g>
<!-- Node126599 -->
<g id="node7" class="node">
<title>Node126599</title>
<g id="a_node7"><a xlink:href="quickjs-libc_8c.html#aedcefc332980a5da1b0a3c512232d46f" target="_top" xlink:title="js_os_waitpid">
<polygon fill="none" stroke="#000000" points="369.5,-884.5 369.5,-903.5 445.5,-903.5 445.5,-884.5 369.5,-884.5"/>
<text text-anchor="middle" x="407.5" y="-891.5" font-family="Helvetica,sans-Serif" font-size="10.00" fill="#000000">js_os_waitpid</text>
</a>
</g>
</g>
<!-- Node126589&#45;&gt;Node126599 -->
<g id="edge7" class="edge">
<title>Node126589&#45;&gt;Node126599</title>
<path fill="none" stroke="#191970" d="M237.6774,-547.7317C248.7454,-614.1038 287.5799,-827.7678 336,-875 344.9183,-883.6995 357.3435,-888.5343 369.3376,-891.184"/>
<polygon fill="#191970" stroke="#191970" points="241.1129,-547.0529 236.0388,-537.7521 234.2054,-548.1871 241.1129,-547.0529"/>
</g>
<!-- Node126600 -->
<g id="node8" class="node">
<title>Node126600</title>
<g id="a_node8"><a xlink:href="quickjs-libc_8c.html#a6d1c957c402e5cda23a3b00762208185" target="_top" xlink:title="js_os_pipe">
<polygon fill="none" stroke="#000000" points="376,-846.5 376,-865.5 439,-865.5 439,-846.5 376,-846.5"/>
<text text-anchor="middle" x="407.5" y="-853.5" font-family="Helvetica,sans-Serif" font-size="10.00" fill="#000000">js_os_pipe</text>
</a>
</g>
</g>
<!-- Node126589&#45;&gt;Node126600 -->
<g id="edge8" class="edge">
<title>Node126589&#45;&gt;Node126600</title>
<path fill="none" stroke="#191970" d="M238.3871,-547.5338C250.9548,-608.819 292.2227,-795.6761 336,-837 346.6476,-847.0509 361.9909,-851.918 375.7363,-854.225"/>
<polygon fill="#191970" stroke="#191970" points="241.794,-546.7225 236.3803,-537.6153 234.933,-548.1108 241.794,-546.7225"/>
</g>
<!-- Node126601 -->
<g id="node9" class="node">
<title>Node126601</title>
<g id="a_node9"><a xlink:href="quickjs-libc_8c.html#ad04466feec6822a3b838baf229f6dfa0" target="_top" xlink:title="js_std_add_helpers">
<polygon fill="none" stroke="#ff0000" points="357,-808.5 357,-827.5 458,-827.5 458,-808.5 357,-808.5"/>
<text text-anchor="middle" x="407.5" y="-815.5" font-family="Helvetica,sans-Serif" font-size="10.00" fill="#000000">js_std_add_helpers</text>
</a>
</g>
</g>
<!-- Node126589&#45;&gt;Node126601 -->
<g id="edge9" class="edge">
<title>Node126589&#45;&gt;Node126601</title>
<path fill="none" stroke="#191970" d="M235.89,-547.7266C240.4955,-597.6321 259.6607,-729.842 336,-799 341.9016,-804.3465 349.1385,-808.2177 356.7176,-811.0146"/>
<polygon fill="#191970" stroke="#191970" points="239.3677,-547.3103 235.0587,-537.6313 232.3913,-547.8849 239.3677,-547.3103"/>
</g>
<!-- Node126603 -->
<g id="node10" class="node">
<title>Node126603</title>
<g id="a_node10"><a xlink:href="quickjs_8c.html#a72f4829a5b32f5445fe3f2a59efeb8ea" target="_top" xlink:title="js_build_rest">
<polygon fill="none" stroke="#000000" points="372,-770.5 372,-789.5 443,-789.5 443,-770.5 372,-770.5"/>
<text text-anchor="middle" x="407.5" y="-777.5" font-family="Helvetica,sans-Serif" font-size="10.00" fill="#000000">js_build_rest</text>
</a>
</g>
</g>
<!-- Node126589&#45;&gt;Node126603 -->
<g id="edge10" class="edge">
<title>Node126589&#45;&gt;Node126603</title>
<path fill="none" stroke="#191970" d="M237.7886,-547.8364C246.0964,-591.7355 272.0051,-697.8124 336,-756 345.8816,-764.9849 359.2396,-770.62 371.735,-774.1483"/>
<polygon fill="#191970" stroke="#191970" points="241.2102,-547.0868 236.0057,-537.8584 234.3194,-548.3182 241.2102,-547.0868"/>
</g>
<!-- Node126604 -->
<g id="node11" class="node">
<title>Node126604</title>
<g id="a_node11"><a xlink:href="quickjs_8c.html#ac2894ff4edcdb4e6841bcce9c76081e3" target="_top" xlink:title="JS_CallInternal">
<polygon fill="none" stroke="#ff0000" points="515,-751.5 515,-770.5 598,-770.5 598,-751.5 515,-751.5"/>
<text text-anchor="middle" x="556.5" y="-758.5" font-family="Helvetica,sans-Serif" font-size="10.00" fill="#000000">JS_CallInternal</text>
</a>
</g>
</g>
<!-- Node126589&#45;&gt;Node126604 -->
<g id="edge13" class="edge">
<title>Node126589&#45;&gt;Node126604</title>
<path fill="none" stroke="#191970" d="M238.5818,-547.5229C248.039,-587.529 275.4281,-678.765 336,-723 363.8415,-743.3324 459.0794,-753.7379 514.8692,-758.2075"/>
<polygon fill="#191970" stroke="#191970" points="241.9782,-546.6726 236.3773,-537.6792 235.1474,-548.2024 241.9782,-546.6726"/>
</g>
<!-- Node126788 -->
<g id="node12" class="node">
<title>Node126788</title>
<g id="a_node12"><a xlink:href="quickjs_8c.html#a035daca514f14aacc1e0cff81d8e423a" target="_top" xlink:title="js_parse_template">
<polygon fill="none" stroke="#ff0000" points="359.5,-694.5 359.5,-713.5 455.5,-713.5 455.5,-694.5 359.5,-694.5"/>
<text text-anchor="middle" x="407.5" y="-701.5" font-family="Helvetica,sans-Serif" font-size="10.00" fill="#000000">js_parse_template</text>
</a>
</g>
</g>
<!-- Node126589&#45;&gt;Node126788 -->
<g id="edge14" class="edge">
<title>Node126589&#45;&gt;Node126788</title>
<path fill="none" stroke="#191970" d="M241.4173,-546.964C254.5342,-580.1959 286.2423,-648.8496 336,-685 342.8581,-689.9826 350.9324,-693.659 359.14,-696.3714"/>
<polygon fill="#191970" stroke="#191970" points="244.6443,-545.6031 237.8126,-537.5051 238.1032,-548.096 244.6443,-545.6031"/>
</g>
<!-- Node126797 -->
<g id="node13" class="node">
<title>Node126797</title>
<g id="a_node13"><a xlink:href="quickjs_8c.html#a4b8ef2bb3b35e4a5f6ed8bd837a50e7c" target="_top" xlink:title="JS_ReadObjectRec">
<polygon fill="none" stroke="#ff0000" points="355.5,-638.5 355.5,-657.5 459.5,-657.5 459.5,-638.5 355.5,-638.5"/>
<text text-anchor="middle" x="407.5" y="-645.5" font-family="Helvetica,sans-Serif" font-size="10.00" fill="#000000">JS_ReadObjectRec</text>
</a>
</g>
</g>
<!-- Node126589&#45;&gt;Node126797 -->
<g id="edge15" class="edge">
<title>Node126589&#45;&gt;Node126797</title>
<path fill="none" stroke="#191970" d="M247.551,-545.8522C265.1133,-568.5783 298.5095,-607.4681 336,-629 342.6827,-632.838 350.1604,-635.9207 357.6935,-638.3913"/>
<polygon fill="#191970" stroke="#191970" points="250.2409,-543.6062 241.4217,-537.7348 244.6545,-547.8244 250.2409,-543.6062"/>
</g>
<!-- Node126805 -->
<g id="node14" class="node">
<title>Node126805</title>
<g id="a_node14"><a xlink:href="quickjs_8c.html#a79c9d633e8f9d5fd70546406b9e6f176" target="_top" xlink:title="JS_GetOwnPropertyNames2">
<polygon fill="none" stroke="#ff0000" points="336,-600.5 336,-619.5 479,-619.5 479,-600.5 336,-600.5"/>
<text text-anchor="middle" x="407.5" y="-607.5" font-family="Helvetica,sans-Serif" font-size="10.00" fill="#000000">JS_GetOwnPropertyNames2</text>
</a>
</g>
</g>
<!-- Node126589&#45;&gt;Node126805 -->
<g id="edge17" class="edge">
<title>Node126589&#45;&gt;Node126805</title>
<path fill="none" stroke="#191970" d="M255.5619,-543.6683C275.4126,-557.7895 306.4437,-578.2377 336,-591 344.6079,-594.7169 354.1206,-597.8589 363.3221,-600.4518"/>
<polygon fill="#191970" stroke="#191970" points="257.4281,-540.6986 247.2736,-537.6758 253.3267,-546.3712 257.4281,-540.6986"/>
</g>
<!-- Node126630 -->
<g id="node15" class="node">
<title>Node126630</title>
<g id="a_node15"><a xlink:href="quickjs_8c.html#a9f70dbefcf33550d6f9e588c05c9ffef" target="_top" xlink:title="iterator_to_array">
<polygon fill="none" stroke="#ff0000" points="364,-562.5 364,-581.5 451,-581.5 451,-562.5 364,-562.5"/>
<text text-anchor="middle" x="407.5" y="-569.5" font-family="Helvetica,sans-Serif" font-size="10.00" fill="#000000">iterator_to_array</text>
</a>
</g>
</g>
<!-- Node126589&#45;&gt;Node126630 -->
<g id="edge18" class="edge">
<title>Node126589&#45;&gt;Node126630</title>
<path fill="none" stroke="#191970" d="M281.9246,-540.0617C309.6704,-547.1185 344.2072,-555.9024 370.0348,-562.4713"/>
<polygon fill="#191970" stroke="#191970" points="282.5926,-536.6203 272.0384,-537.5473 280.8672,-543.4043 282.5926,-536.6203"/>
</g>
<!-- Node126803 -->
<g id="node16" class="node">
<title>Node126803</title>
<g id="a_node16"><a xlink:href="quickjs_8c.html#abeb62c764d89030ee284963156b33241" target="_top" xlink:title="js_aggregate_error\l_errors">
<polygon fill="none" stroke="#000000" points="359,-513 359,-543 456,-543 456,-513 359,-513"/>
<text text-anchor="start" x="367" y="-531" font-family="Helvetica,sans-Serif" font-size="10.00" fill="#000000">js_aggregate_error</text>
<text text-anchor="middle" x="407.5" y="-520" font-family="Helvetica,sans-Serif" font-size="10.00" fill="#000000">_errors</text>
</a>
</g>
</g>
<!-- Node126589&#45;&gt;Node126803 -->
<g id="edge19" class="edge">
<title>Node126589&#45;&gt;Node126803</title>
<path fill="none" stroke="#191970" d="M283.4745,-528C307.0904,-528 335.3353,-528 358.9017,-528"/>
<polygon fill="#191970" stroke="#191970" points="283.3246,-524.5001 273.3246,-528 283.3245,-531.5001 283.3246,-524.5001"/>
</g>
<!-- Node126626 -->
<g id="node17" class="node">
<title>Node126626</title>
<g id="a_node17"><a xlink:href="quickjs_8c.html#a5e32da9a43002cb96dcbd62a1a340144" target="_top" xlink:title="js_array_from">
<polygon fill="none" stroke="#000000" points="369.5,-474.5 369.5,-493.5 445.5,-493.5 445.5,-474.5 369.5,-474.5"/>
<text text-anchor="middle" x="407.5" y="-481.5" font-family="Helvetica,sans-Serif" font-size="10.00" fill="#000000">js_array_from</text>
</a>
</g>
</g>
<!-- Node126589&#45;&gt;Node126626 -->
<g id="edge20" class="edge">
<title>Node126589&#45;&gt;Node126626</title>
<path fill="none" stroke="#191970" d="M281.9246,-515.9383C309.6704,-508.8815 344.2072,-500.0976 370.0348,-493.5287"/>
<polygon fill="#191970" stroke="#191970" points="280.8672,-512.5957 272.0384,-518.4527 282.5926,-519.3797 280.8672,-512.5957"/>
</g>
<!-- Node126692 -->
<g id="node18" class="node">
<title>Node126692</title>
<g id="a_node18"><a xlink:href="quickjs_8c.html#aed64f4c93145310216f62d7548856b8d" target="_top" xlink:title="js_array_of">
<polygon fill="none" stroke="#000000" points="375,-436.5 375,-455.5 440,-455.5 440,-436.5 375,-436.5"/>
<text text-anchor="middle" x="407.5" y="-443.5" font-family="Helvetica,sans-Serif" font-size="10.00" fill="#000000">js_array_of</text>
</a>
</g>
</g>
<!-- Node126589&#45;&gt;Node126692 -->
<g id="edge21" class="edge">
<title>Node126589&#45;&gt;Node126692</title>
<path fill="none" stroke="#191970" d="M282.809,-517.6505C288.8534,-515.316 294.7482,-512.4686 300,-509 321.0835,-495.075 314.7605,-478.6859 336,-465 347.5525,-457.5561 361.9387,-453.0155 374.7717,-450.2518"/>
<polygon fill="#191970" stroke="#191970" points="281.5903,-514.3681 273.2584,-520.9125 283.8529,-520.9924 281.5903,-514.3681"/>
</g>
<!-- Node126641 -->
<g id="node19" class="node">
<title>Node126641</title>
<g id="a_node19"><a xlink:href="quickjs_8c.html#aa0bbf08a7e91459c68a312fba7016c6d" target="_top" xlink:title="js_array_every">
<polygon fill="none" stroke="#000000" points="367.5,-398.5 367.5,-417.5 447.5,-417.5 447.5,-398.5 367.5,-398.5"/>
<text text-anchor="middle" x="407.5" y="-405.5" font-family="Helvetica,sans-Serif" font-size="10.00" fill="#000000">js_array_every</text>
</a>
</g>
</g>
<!-- Node126589&#45;&gt;Node126641 -->
<g id="edge22" class="edge">
<title>Node126589&#45;&gt;Node126641</title>
<path fill="none" stroke="#191970" d="M282.4676,-519.486C288.8392,-516.8714 294.9151,-513.4573 300,-509 329.9308,-482.7636 305.7747,-452.8965 336,-427 344.7783,-419.4789 356.2214,-414.8978 367.3708,-412.119"/>
<polygon fill="#191970" stroke="#191970" points="281.3002,-516.1863 273.0017,-522.773 283.5965,-522.7989 281.3002,-516.1863"/>
</g>
<!-- Node126810 -->
<g id="node20" class="node">
<title>Node126810</title>
<g id="a_node20"><a xlink:href="quickjs_8c.html#a339d687d765143d3f8ea0ea89fa47b0f" target="_top" xlink:title="js_create_array">
<polygon fill="none" stroke="#ff0000" points="366,-360.5 366,-379.5 449,-379.5 449,-360.5 366,-360.5"/>
<text text-anchor="middle" x="407.5" y="-367.5" font-family="Helvetica,sans-Serif" font-size="10.00" fill="#000000">js_create_array</text>
</a>
</g>
</g>
<!-- Node126589&#45;&gt;Node126810 -->
<g id="edge23" class="edge">
<title>Node126589&#45;&gt;Node126810</title>
<path fill="none" stroke="#191970" d="M282.7552,-520.128C289.1375,-517.4252 295.1403,-513.8155 300,-509 339.5522,-469.8073 296.0076,-427.7434 336,-389 344.0257,-381.2249 354.8543,-376.5401 365.6537,-373.7431"/>
<polygon fill="#191970" stroke="#191970" points="281.4985,-516.8597 273.2218,-523.4739 283.8167,-523.4647 281.4985,-516.8597"/>
</g>
<!-- Node126813 -->
<g id="node21" class="node">
<title>Node126813</title>
<g id="a_node21"><a xlink:href="quickjs_8c.html#a99f359a90bf2aa7902ec554d726d4fda" target="_top" xlink:title="js_string_split">
<polygon fill="none" stroke="#000000" points="369,-322.5 369,-341.5 446,-341.5 446,-322.5 369,-322.5"/>
<text text-anchor="middle" x="407.5" y="-329.5" font-family="Helvetica,sans-Serif" font-size="10.00" fill="#000000">js_string_split</text>
</a>
</g>
</g>
<!-- Node126589&#45;&gt;Node126813 -->
<g id="edge24" class="edge">
<title>Node126589&#45;&gt;Node126813</title>
<path fill="none" stroke="#191970" d="M282.8308,-520.513C289.2555,-517.7604 295.2508,-514.0345 300,-509 349.4211,-456.61 285.9901,-402.8283 336,-351 344.5617,-342.1269 356.7569,-337.2368 368.6563,-334.5902"/>
<polygon fill="#191970" stroke="#191970" points="281.484,-517.2763 273.2057,-523.8884 283.8005,-523.8819 281.484,-517.2763"/>
</g>
<!-- Node126724 -->
<g id="node22" class="node">
<title>Node126724</title>
<g id="a_node22"><a xlink:href="quickjs_8c.html#a9eb2d90f27f684820f9de13189502b7c" target="_top" xlink:title="js_regexp_exec">
<polygon fill="none" stroke="#ff0000" points="365,-284.5 365,-303.5 450,-303.5 450,-284.5 365,-284.5"/>
<text text-anchor="middle" x="407.5" y="-291.5" font-family="Helvetica,sans-Serif" font-size="10.00" fill="#000000">js_regexp_exec</text>
</a>
</g>
</g>
<!-- Node126589&#45;&gt;Node126724 -->
<g id="edge25" class="edge">
<title>Node126589&#45;&gt;Node126724</title>
<path fill="none" stroke="#191970" d="M282.8024,-520.7861C289.2852,-518.0007 295.3052,-514.193 300,-509 359.3966,-443.3008 275.8649,-378.024 336,-313 343.4998,-304.8905 354.0297,-300.0854 364.7075,-297.2796"/>
<polygon fill="#191970" stroke="#191970" points="281.3643,-517.5808 273.0739,-524.1777 283.6687,-524.1906 281.3643,-517.5808"/>
</g>
<!-- Node126719 -->
<g id="node23" class="node">
<title>Node126719</title>
<g id="a_node23"><a xlink:href="quickjs_8c.html#a41fc4304b39616e7be3500fe6ec881c2" target="_top" xlink:title="js_regexp_Symbol_match">
<polygon fill="none" stroke="#000000" points="343,-246.5 343,-265.5 472,-265.5 472,-246.5 343,-246.5"/>
<text text-anchor="middle" x="407.5" y="-253.5" font-family="Helvetica,sans-Serif" font-size="10.00" fill="#000000">js_regexp_Symbol_match</text>
</a>
</g>
</g>
<!-- Node126589&#45;&gt;Node126719 -->
<g id="edge26" class="edge">
<title>Node126589&#45;&gt;Node126719</title>
<path fill="none" stroke="#191970" d="M282.9369,-520.9059C289.4017,-518.1046 295.381,-514.2605 300,-509 369.427,-429.9311 265.6841,-353.2795 336,-275 339.4332,-271.178 343.5392,-268.0864 348.0238,-265.5905"/>
<polygon fill="#191970" stroke="#191970" points="281.5016,-517.7 273.2196,-524.3076 283.8145,-524.3069 281.5016,-517.7"/>
</g>
<!-- Node126658 -->
<g id="node24" class="node">
<title>Node126658</title>
<g id="a_node24"><a xlink:href="quickjs_8c.html#a6a77bcdb9f7f18c13c108c99a198708b" target="_top" xlink:title="js_regexp_Symbol_replace">
<polygon fill="none" stroke="#000000" points="340.5,-208.5 340.5,-227.5 474.5,-227.5 474.5,-208.5 340.5,-208.5"/>
<text text-anchor="middle" x="407.5" y="-215.5" font-family="Helvetica,sans-Serif" font-size="10.00" fill="#000000">js_regexp_Symbol_replace</text>
</a>
</g>
</g>
<!-- Node126589&#45;&gt;Node126658 -->
<g id="edge27" class="edge">
<title>Node126589&#45;&gt;Node126658</title>
<path fill="none" stroke="#191970" d="M283.0356,-520.9917C289.4873,-518.1789 295.4366,-514.3088 300,-509 379.4893,-416.5252 255.471,-328.5708 336,-237 339.3928,-233.142 343.4709,-230.0258 347.9374,-227.5137"/>
<polygon fill="#191970" stroke="#191970" points="281.6025,-517.7853 273.3267,-524.4005 283.9215,-524.3901 281.6025,-517.7853"/>
</g>
<!-- Node126698 -->
<g id="node25" class="node">
<title>Node126698</title>
<g id="a_node25"><a xlink:href="quickjs_8c.html#a79872a6d9d139e36d5d1894d16132024" target="_top" xlink:title="js_regexp_Symbol_split">
<polygon fill="none" stroke="#000000" points="347.5,-170.5 347.5,-189.5 467.5,-189.5 467.5,-170.5 347.5,-170.5"/>
<text text-anchor="middle" x="407.5" y="-177.5" font-family="Helvetica,sans-Serif" font-size="10.00" fill="#000000">js_regexp_Symbol_split</text>
</a>
</g>
</g>
<!-- Node126589&#45;&gt;Node126698 -->
<g id="edge28" class="edge">
<title>Node126589&#45;&gt;Node126698</title>
<path fill="none" stroke="#191970" d="M282.8913,-521.1518C289.4179,-518.323 295.4278,-514.4059 300,-509 389.5716,-403.0961 245.2376,-303.8852 336,-199 339.2778,-195.2122 343.2163,-192.1375 347.5382,-189.6465"/>
<polygon fill="#191970" stroke="#191970" points="281.3647,-517.9769 273.0668,-524.5645 283.6616,-524.5893 281.3647,-517.9769"/>
</g>
<!-- Node126799 -->
<g id="node26" class="node">
<title>Node126799</title>
<g id="a_node26"><a xlink:href="quickjs_8c.html#a756c1ab5dee9a6dd07723d7a075e2a53" target="_top" xlink:title="json_parse_value">
<polygon fill="none" stroke="#ff0000" points="361.5,-114.5 361.5,-133.5 453.5,-133.5 453.5,-114.5 361.5,-114.5"/>
<text text-anchor="middle" x="407.5" y="-121.5" font-family="Helvetica,sans-Serif" font-size="10.00" fill="#000000">json_parse_value</text>
</a>
</g>
</g>
<!-- Node126589&#45;&gt;Node126799 -->
<g id="edge29" class="edge">
<title>Node126589&#45;&gt;Node126799</title>
<path fill="none" stroke="#191970" d="M282.9512,-521.2021C289.4699,-518.3667 295.4618,-514.4344 300,-509 399.6674,-389.651 248.4374,-289.4935 336,-161 344.894,-147.9486 359.8673,-139.21 373.8201,-133.5199"/>
<polygon fill="#191970" stroke="#191970" points="281.4259,-518.0269 273.1313,-524.6187 283.7262,-524.6382 281.4259,-518.0269"/>
</g>
<!-- Node126670 -->
<g id="node27" class="node">
<title>Node126670</title>
<g id="a_node27"><a xlink:href="quickjs_8c.html#a343a343b16bc3c9875050e99ee0d2884" target="_top" xlink:title="JS_JSONStringify">
<polygon fill="none" stroke="#ff0000" points="359,-76.5 359,-95.5 456,-95.5 456,-76.5 359,-76.5"/>
<text text-anchor="middle" x="407.5" y="-83.5" font-family="Helvetica,sans-Serif" font-size="10.00" fill="#000000">JS_JSONStringify</text>
</a>
</g>
</g>
<!-- Node126589&#45;&gt;Node126670 -->
<g id="edge31" class="edge">
<title>Node126589&#45;&gt;Node126670</title>
<path fill="none" stroke="#191970" d="M283.0194,-521.2587C289.5293,-518.4159 295.5005,-514.4665 300,-509 357.2809,-439.4087 277.9365,-173.9397 336,-105 341.8746,-98.025 349.9903,-93.4575 358.6523,-90.4986"/>
<polygon fill="#191970" stroke="#191970" points="281.4957,-518.0832 273.2049,-524.6797 283.7997,-524.6932 281.4957,-518.0832"/>
</g>
<!-- Node126635 -->
<g id="node28" class="node">
<title>Node126635</title>
<g id="a_node28"><a xlink:href="quickjs_8c.html#a7a5c4f3ad3260974d9a0c75120ce5647" target="_top" xlink:title="js_promise_all">
<polygon fill="none" stroke="#000000" points="368,-38.5 368,-57.5 447,-57.5 447,-38.5 368,-38.5"/>
<text text-anchor="middle" x="407.5" y="-45.5" font-family="Helvetica,sans-Serif" font-size="10.00" fill="#000000">js_promise_all</text>
</a>
</g>
</g>
<!-- Node126589&#45;&gt;Node126635 -->
<g id="edge32" class="edge">
<title>Node126589&#45;&gt;Node126635</title>
<path fill="none" stroke="#191970" d="M283.0561,-521.2888C289.5612,-518.4421 295.5213,-514.4836 300,-509 362.3383,-432.6748 272.8034,-142.6161 336,-67 343.9071,-57.5389 355.9386,-52.5018 367.8892,-49.9011"/>
<polygon fill="#191970" stroke="#191970" points="281.5332,-518.1131 273.2445,-524.7121 283.8393,-524.7224 281.5332,-518.1131"/>
</g>
<!-- Node126627 -->
<g id="node29" class="node">
<title>Node126627</title>
<g id="a_node29"><a xlink:href="quickjs_8c.html#a5f46f50deddd4e3a23da24e8173db28e" target="_top" xlink:title="js_typed_array_from">
<polygon fill="none" stroke="#000000" points="355,-.5 355,-19.5 460,-19.5 460,-.5 355,-.5"/>
<text text-anchor="middle" x="407.5" y="-7.5" font-family="Helvetica,sans-Serif" font-size="10.00" fill="#000000">js_typed_array_from</text>
</a>
</g>
</g>
<!-- Node126589&#45;&gt;Node126627 -->
<g id="edge33" class="edge">
<title>Node126589&#45;&gt;Node126627</title>
<path fill="none" stroke="#191970" d="M283.0871,-521.314C289.5882,-518.464 295.5389,-514.4979 300,-509 367.398,-425.938 267.6679,-111.2952 336,-29 341.005,-22.9722 347.6845,-18.7383 354.9562,-15.7855"/>
<polygon fill="#191970" stroke="#191970" points="281.565,-518.1382 273.2779,-524.7393 283.8727,-524.7469 281.565,-518.1382"/>
</g>
<!-- Node126592&#45;&gt;Node126593 -->
<g id="edge5" class="edge">
<title>Node126592&#45;&gt;Node126593</title>
<path fill="none" stroke="#191970" d="M459.1067,-963.4193C478.9055,-960.8946 501.0936,-958.0652 519.2854,-955.7455"/>
<polygon fill="#191970" stroke="#191970" points="458.4817,-959.9705 449.0048,-964.7074 459.3672,-966.9143 458.4817,-959.9705"/>
</g>
<!-- Node126603&#45;&gt;Node126604 -->
<g id="edge11" class="edge">
<title>Node126603&#45;&gt;Node126604</title>
<path fill="none" stroke="#191970" d="M453.1344,-774.1809C472.7728,-771.6766 495.5768,-768.7687 514.7614,-766.3224"/>
<polygon fill="#191970" stroke="#191970" points="452.6661,-770.7121 443.1892,-775.449 453.5516,-777.6559 452.6661,-770.7121"/>
</g>
<!-- Node126604&#45;&gt;Node126604 -->
<g id="edge12" class="edge">
<title>Node126604&#45;&gt;Node126604</title>
<path fill="none" stroke="#191970" d="M528.8742,-779.6539C530.0289,-784.9368 539.2375,-789 556.5,-789 582.8047,-789 590.4084,-779.5653 579.3111,-770.7571"/>
<polygon fill="#191970" stroke="#191970" points="532.0076,-781.2176 533.6889,-770.7571 525.8512,-777.886 532.0076,-781.2176"/>
</g>
<!-- Node126797&#45;&gt;Node126797 -->
<g id="edge16" class="edge">
<title>Node126797&#45;&gt;Node126797</title>
<path fill="none" stroke="#191970" d="M379.8742,-666.6539C381.0289,-671.9368 390.2375,-676 407.5,-676 433.8047,-676 441.4084,-666.5653 430.3111,-657.7571"/>
<polygon fill="#191970" stroke="#191970" points="383.0076,-668.2176 384.6889,-657.7571 376.8512,-664.886 383.0076,-668.2176"/>
</g>
<!-- Node126799&#45;&gt;Node126799 -->
<g id="edge30" class="edge">
<title>Node126799&#45;&gt;Node126799</title>
<path fill="none" stroke="#191970" d="M379.8742,-142.6539C381.0289,-147.9368 390.2375,-152 407.5,-152 433.8047,-152 441.4084,-142.5653 430.3111,-133.7571"/>
<polygon fill="#191970" stroke="#191970" points="383.0076,-144.2176 384.6889,-133.7571 376.8512,-140.886 383.0076,-144.2176"/>
</g>
</g>
</svg>
