<?xml version="1.0" encoding="UTF-8" standalone="no"?>
<!DOCTYPE svg PUBLIC "-//W3C//DTD SVG 1.1//EN"
 "http://www.w3.org/Graphics/SVG/1.1/DTD/svg11.dtd">
<!-- Generated by graphviz version 2.40.1 (20161225.0304)
 -->
<!-- Title: js_set_error_object Pages: 1 -->
<svg width="1085pt" height="1222pt"
 viewBox="0.00 0.00 1085.00 1222.40" xmlns="http://www.w3.org/2000/svg" xmlns:xlink="http://www.w3.org/1999/xlink">
<g id="graph0" class="graph" transform="scale(1 1) rotate(0) translate(4 1218.4036)">
<title>js_set_error_object</title>
<!-- Node4551 -->
<g id="node1" class="node">
<title>Node4551</title>
<polygon fill="#bfbfbf" stroke="#000000" points="0,-1090.9036 0,-1109.9036 99,-1109.9036 99,-1090.9036 0,-1090.9036"/>
<text text-anchor="middle" x="49.5" y="-1097.9036" font-family="Helvetica,sans-Serif" font-size="10.00" fill="#000000">js_set_error_object</text>
</g>
<!-- Node4552 -->
<g id="node2" class="node">
<title>Node4552</title>
<g id="a_node2"><a xlink:href="quickjs_8h.html#a4e407128a9605afb77523e49e9a627fd" target="_top" xlink:title="JS_IsUndefined">
<polygon fill="none" stroke="#000000" points="960.5,-1128.9036 960.5,-1147.9036 1046.5,-1147.9036 1046.5,-1128.9036 960.5,-1128.9036"/>
<text text-anchor="middle" x="1003.5" y="-1135.9036" font-family="Helvetica,sans-Serif" font-size="10.00" fill="#000000">JS_IsUndefined</text>
</a>
</g>
</g>
<!-- Node4551&#45;&gt;Node4552 -->
<g id="edge1" class="edge">
<title>Node4551&#45;&gt;Node4552</title>
<path fill="none" stroke="#191970" d="M62.3436,-1109.9271C100.6077,-1137.3258 218.0251,-1214.4036 328,-1214.4036 328,-1214.4036 328,-1214.4036 657,-1214.4036 763.2306,-1214.4036 791.3396,-1210.7124 894,-1183.4036 922.5925,-1175.7976 953.6529,-1162.5166 975.3647,-1152.3478"/>
<polygon fill="#191970" stroke="#191970" points="977.1193,-1155.3888 984.6401,-1147.9263 974.1071,-1149.07 977.1193,-1155.3888"/>
</g>
<!-- Node4553 -->
<g id="node3" class="node">
<title>Node4553</title>
<g id="a_node3"><a xlink:href="quickjs_8h.html#a2050bc428da1c65ac7eb87c3fa3b0392" target="_top" xlink:title="JS_NewInt32">
<polygon fill="none" stroke="#000000" points="965.5,-786.9036 965.5,-805.9036 1041.5,-805.9036 1041.5,-786.9036 965.5,-786.9036"/>
<text text-anchor="middle" x="1003.5" y="-793.9036" font-family="Helvetica,sans-Serif" font-size="10.00" fill="#000000">JS_NewInt32</text>
</a>
</g>
</g>
<!-- Node4551&#45;&gt;Node4553 -->
<g id="edge2" class="edge">
<title>Node4551&#45;&gt;Node4553</title>
<path fill="none" stroke="#191970" d="M99.0534,-1100.4036C154.7454,-1100.4036 247.8587,-1100.4036 328,-1100.4036 328,-1100.4036 328,-1100.4036 494.5,-1100.4036 586.8216,-1100.4036 821.2352,-1043.2239 894,-986.4036 924.2802,-962.7584 974.8726,-858.3077 994.931,-815.1551"/>
<polygon fill="#191970" stroke="#191970" points="998.1289,-816.5781 999.1402,-806.0317 991.7728,-813.6456 998.1289,-816.5781"/>
</g>
<!-- Node4554 -->
<g id="node4" class="node">
<title>Node4554</title>
<g id="a_node4"><a xlink:href="quickjs_8c.html#a62617fe11025d2e5a545db069fc28e64" target="_top" xlink:title="JS_SetPropertyStr">
<polygon fill="none" stroke="#000000" points="135,-778.9036 135,-797.9036 233,-797.9036 233,-778.9036 135,-778.9036"/>
<text text-anchor="middle" x="184" y="-785.9036" font-family="Helvetica,sans-Serif" font-size="10.00" fill="#000000">JS_SetPropertyStr</text>
</a>
</g>
</g>
<!-- Node4551&#45;&gt;Node4554 -->
<g id="edge3" class="edge">
<title>Node4551&#45;&gt;Node4554</title>
<path fill="none" stroke="#191970" d="M53.6728,-1090.7239C72.5794,-1046.8663 150.386,-866.378 175.8746,-807.252"/>
<polygon fill="#191970" stroke="#191970" points="179.1311,-808.539 179.8759,-797.9704 172.703,-805.7679 179.1311,-808.539"/>
</g>
<!-- Node4555 -->
<g id="node5" class="node">
<title>Node4555</title>
<g id="a_node5"><a xlink:href="quickjs_8c.html#aa2ef5af1544a3012f91a80c98c326b8f" target="_top" xlink:title="JS_NewAtom">
<polygon fill="none" stroke="#000000" points="289.5,-1128.9036 289.5,-1147.9036 366.5,-1147.9036 366.5,-1128.9036 289.5,-1128.9036"/>
<text text-anchor="middle" x="328" y="-1135.9036" font-family="Helvetica,sans-Serif" font-size="10.00" fill="#000000">JS_NewAtom</text>
</a>
</g>
</g>
<!-- Node4554&#45;&gt;Node4555 -->
<g id="edge4" class="edge">
<title>Node4554&#45;&gt;Node4555</title>
<path fill="none" stroke="#191970" d="M188.0017,-798.1299C207.6227,-845.8198 293.782,-1055.2348 320.2429,-1119.5496"/>
<polygon fill="#191970" stroke="#191970" points="317.0437,-1120.9727 324.0854,-1128.8889 323.5172,-1118.3093 317.0437,-1120.9727"/>
</g>
<!-- Node4606 -->
<g id="node8" class="node">
<title>Node4606</title>
<g id="a_node8"><a xlink:href="quickjs_8c.html#ad7f03358a8088ca920ab308225c6b2e6" target="_top" xlink:title="JS_SetPropertyInternal">
<polygon fill="none" stroke="#000000" points="269,-530.9036 269,-549.9036 387,-549.9036 387,-530.9036 269,-530.9036"/>
<text text-anchor="middle" x="328" y="-537.9036" font-family="Helvetica,sans-Serif" font-size="10.00" fill="#000000">JS_SetPropertyInternal</text>
</a>
</g>
</g>
<!-- Node4554&#45;&gt;Node4606 -->
<g id="edge7" class="edge">
<title>Node4554&#45;&gt;Node4606</title>
<path fill="none" stroke="#191970" d="M189.645,-778.6817C211.2408,-741.4888 288.8357,-607.8532 317.372,-558.7073"/>
<polygon fill="#191970" stroke="#191970" points="320.3994,-560.4637 322.3941,-550.0583 314.3459,-556.9487 320.3994,-560.4637"/>
</g>
<!-- Node4623 -->
<g id="node14" class="node">
<title>Node4623</title>
<g id="a_node14"><a xlink:href="quickjs_8c.html#ab7fc45a99935a1c0ba50b0216d9401a9" target="_top" xlink:title="JS_FreeAtom">
<polygon fill="none" stroke="#ff0000" points="782.5,-216.9036 782.5,-235.9036 859.5,-235.9036 859.5,-216.9036 782.5,-216.9036"/>
<text text-anchor="middle" x="821" y="-223.9036" font-family="Helvetica,sans-Serif" font-size="10.00" fill="#000000">JS_FreeAtom</text>
</a>
</g>
</g>
<!-- Node4554&#45;&gt;Node4623 -->
<g id="edge73" class="edge">
<title>Node4554&#45;&gt;Node4623</title>
<path fill="none" stroke="#191970" d="M186.0452,-778.8927C201.9387,-705.9669 308.1437,-236.2773 423,-160.4036 482.0856,-121.3718 696.142,-185.1774 783.4919,-213.7155"/>
<polygon fill="#191970" stroke="#191970" points="782.4175,-217.0465 793.0105,-216.85 784.607,-210.3978 782.4175,-217.0465"/>
</g>
<!-- Node4556 -->
<g id="node6" class="node">
<title>Node4556</title>
<g id="a_node6"><a xlink:href="quickjs_8c.html#a522741f41afb1d0da0aa55968cd8579e" target="_top" xlink:title="JS_NewAtomLen">
<polygon fill="none" stroke="#ff0000" points="610.5,-1128.9036 610.5,-1147.9036 703.5,-1147.9036 703.5,-1128.9036 610.5,-1128.9036"/>
<text text-anchor="middle" x="657" y="-1135.9036" font-family="Helvetica,sans-Serif" font-size="10.00" fill="#000000">JS_NewAtomLen</text>
</a>
</g>
</g>
<!-- Node4555&#45;&gt;Node4556 -->
<g id="edge5" class="edge">
<title>Node4555&#45;&gt;Node4556</title>
<path fill="none" stroke="#191970" d="M366.7079,-1138.4036C424.3493,-1138.4036 533.1035,-1138.4036 599.8961,-1138.4036"/>
<polygon fill="#191970" stroke="#191970" points="600.2414,-1141.9037 610.2414,-1138.4036 600.2413,-1134.9037 600.2414,-1141.9037"/>
</g>
<!-- Node4589 -->
<g id="node7" class="node">
<title>Node4589</title>
<g id="a_node7"><a xlink:href="quickjs_8h.html#ad80a83d73e9b7d872b88fbf2943aebe9" target="_top" xlink:title="JS_IsException">
<polygon fill="none" stroke="#000000" points="960.5,-957.9036 960.5,-976.9036 1046.5,-976.9036 1046.5,-957.9036 960.5,-957.9036"/>
<text text-anchor="middle" x="1003.5" y="-964.9036" font-family="Helvetica,sans-Serif" font-size="10.00" fill="#000000">JS_IsException</text>
</a>
</g>
</g>
<!-- Node4556&#45;&gt;Node4589 -->
<g id="edge6" class="edge">
<title>Node4556&#45;&gt;Node4589</title>
<path fill="none" stroke="#191970" d="M703.8233,-1133.4903C753.7053,-1126.6402 833.6366,-1110.9245 894,-1076.4036 935.294,-1052.7882 971.9244,-1009.5826 990.5356,-985.2621"/>
<polygon fill="#191970" stroke="#191970" points="993.5695,-987.0495 996.7584,-976.9459 987.9649,-982.8556 993.5695,-987.0495"/>
</g>
<!-- Node4606&#45;&gt;Node4552 -->
<g id="edge46" class="edge">
<title>Node4606&#45;&gt;Node4552</title>
<path fill="none" stroke="#191970" d="M328.8037,-550.1342C334.1036,-612.4788 365.6056,-955.9788 423,-1041.4036 475.8688,-1120.0925 511.0909,-1130.5225 602,-1157.4036 725.9904,-1194.0665 880.8228,-1167.7054 956.9006,-1150.3444"/>
<polygon fill="#191970" stroke="#191970" points="958.1595,-1153.6446 967.1014,-1147.9619 956.5674,-1146.8281 958.1595,-1153.6446"/>
</g>
<!-- Node4606&#45;&gt;Node4553 -->
<g id="edge36" class="edge">
<title>Node4606&#45;&gt;Node4553</title>
<path fill="none" stroke="#191970" d="M329.0674,-549.9739C333.4919,-585.0972 353.5497,-708.2436 423,-773.4036 500.9986,-846.5837 791.9301,-904.3543 894,-872.4036 931.0726,-860.7988 966.6101,-831.7334 986.6845,-813.0969"/>
<polygon fill="#191970" stroke="#191970" points="989.2421,-815.4942 994.0648,-806.0606 984.4119,-810.4277 989.2421,-815.4942"/>
</g>
<!-- Node4606&#45;&gt;Node4589 -->
<g id="edge42" class="edge">
<title>Node4606&#45;&gt;Node4589</title>
<path fill="none" stroke="#191970" d="M328.5317,-549.98C332.0593,-609.8354 354.1029,-932.0346 423,-995.4036 582.0497,-1141.6915 881.2718,-1023.6119 974.8088,-981.1188"/>
<polygon fill="#191970" stroke="#191970" points="976.3336,-984.27 983.9513,-976.9065 973.4043,-977.9123 976.3336,-984.27"/>
</g>
<!-- Node4607 -->
<g id="node9" class="node">
<title>Node4607</title>
<g id="a_node9"><a xlink:href="quickjs_8h.html#afaa20c47565bc704c6c85f3d77254e7d" target="_top" xlink:title="JS_FreeValue">
<polygon fill="none" stroke="#ff0000" points="964.5,-444.9036 964.5,-463.9036 1042.5,-463.9036 1042.5,-444.9036 964.5,-444.9036"/>
<text text-anchor="middle" x="1003.5" y="-451.9036" font-family="Helvetica,sans-Serif" font-size="10.00" fill="#000000">JS_FreeValue</text>
</a>
</g>
</g>
<!-- Node4606&#45;&gt;Node4607 -->
<g id="edge8" class="edge">
<title>Node4606&#45;&gt;Node4607</title>
<path fill="none" stroke="#191970" d="M328.5266,-530.6668C331.9583,-471.2338 353.2259,-157.9723 423,-100.4036 584.4862,32.8343 725.8446,31.3117 894,-93.4036 951.0557,-135.7199 990.0409,-365.5261 1000.6131,-434.6959"/>
<polygon fill="#191970" stroke="#191970" points="997.1681,-435.3243 1002.1128,-444.6945 1004.0907,-434.2859 997.1681,-435.3243"/>
</g>
<!-- Node4638 -->
<g id="node10" class="node">
<title>Node4638</title>
<g id="a_node10"><a xlink:href="quickjs_8c.html#a23a30fec3b10bfa38c3dc29b4cb1c99d" target="_top" xlink:title="JS_GetPrototype">
<polygon fill="none" stroke="#ff0000" points="448.5,-301.9036 448.5,-320.9036 540.5,-320.9036 540.5,-301.9036 448.5,-301.9036"/>
<text text-anchor="middle" x="494.5" y="-308.9036" font-family="Helvetica,sans-Serif" font-size="10.00" fill="#000000">JS_GetPrototype</text>
</a>
</g>
</g>
<!-- Node4606&#45;&gt;Node4638 -->
<g id="edge9" class="edge">
<title>Node4606&#45;&gt;Node4638</title>
<path fill="none" stroke="#191970" d="M329.6953,-530.6425C335.8691,-498.0195 360.1743,-391.6665 423,-335.4036 427.7369,-331.1615 433.2495,-327.6652 439.0732,-324.7844"/>
<polygon fill="#191970" stroke="#191970" points="440.6244,-327.9269 448.4139,-320.7454 437.8461,-321.5019 440.6244,-327.9269"/>
</g>
<!-- Node4700 -->
<g id="node11" class="node">
<title>Node4700</title>
<g id="a_node11"><a xlink:href="quickjs_8c.html#a06b76f5124fd985e35f4c652fd018d6d" target="_top" xlink:title="find_own_property">
<polygon fill="none" stroke="#ff0000" points="609,-786.9036 609,-805.9036 705,-805.9036 705,-786.9036 609,-786.9036"/>
<text text-anchor="middle" x="657" y="-793.9036" font-family="Helvetica,sans-Serif" font-size="10.00" fill="#000000">find_own_property</text>
</a>
</g>
</g>
<!-- Node4606&#45;&gt;Node4700 -->
<g id="edge10" class="edge">
<title>Node4606&#45;&gt;Node4700</title>
<path fill="none" stroke="#191970" d="M334.8716,-550.0715C349.5592,-570.3349 385.7199,-618.1303 423,-651.4036 494.642,-715.3454 517.8643,-726.1185 602,-772.4036 608.6521,-776.063 615.9738,-779.5839 623.045,-782.7485"/>
<polygon fill="#191970" stroke="#191970" points="621.8785,-786.0575 632.4457,-786.8227 624.6621,-779.6347 621.8785,-786.0575"/>
</g>
<!-- Node4790 -->
<g id="node12" class="node">
<title>Node4790</title>
<g id="a_node12"><a xlink:href="quickjs_8c.html#a0ec52a675282f321a6f42aa1298a53fe" target="_top" xlink:title="set_value">
<polygon fill="none" stroke="#000000" points="791.5,-368.9036 791.5,-387.9036 850.5,-387.9036 850.5,-368.9036 791.5,-368.9036"/>
<text text-anchor="middle" x="821" y="-375.9036" font-family="Helvetica,sans-Serif" font-size="10.00" fill="#000000">set_value</text>
</a>
</g>
</g>
<!-- Node4606&#45;&gt;Node4790 -->
<g id="edge11" class="edge">
<title>Node4606&#45;&gt;Node4790</title>
<path fill="none" stroke="#191970" d="M331.4535,-530.7346C341.1887,-505.0902 371.5438,-435.3322 423,-406.4036 483.4874,-372.3976 693.0794,-374.4698 781.3361,-376.9772"/>
<polygon fill="#191970" stroke="#191970" points="781.3786,-380.48 791.4795,-377.2828 781.5894,-373.4832 781.3786,-380.48"/>
</g>
<!-- Node4781 -->
<g id="node13" class="node">
<title>Node4781</title>
<g id="a_node13"><a xlink:href="quickjs_8c.html#aeb73aae9c3ad7daaf7646e3f2f89245a" target="_top" xlink:title="set_array_length">
<polygon fill="none" stroke="#ff0000" points="612.5,-292.9036 612.5,-311.9036 701.5,-311.9036 701.5,-292.9036 612.5,-292.9036"/>
<text text-anchor="middle" x="657" y="-299.9036" font-family="Helvetica,sans-Serif" font-size="10.00" fill="#000000">set_array_length</text>
</a>
</g>
</g>
<!-- Node4606&#45;&gt;Node4781 -->
<g id="edge13" class="edge">
<title>Node4606&#45;&gt;Node4781</title>
<path fill="none" stroke="#191970" d="M330.672,-530.8032C339.1124,-502.2731 367.9583,-417.2658 423,-373.4036 474.9023,-332.0431 502.5059,-349.718 566,-330.4036 582.4751,-325.392 600.6115,-319.8223 616.3287,-314.9787"/>
<polygon fill="#191970" stroke="#191970" points="617.7417,-318.2056 626.266,-311.9137 615.6786,-311.5165 617.7417,-318.2056"/>
</g>
<!-- Node4702 -->
<g id="node15" class="node">
<title>Node4702</title>
<g id="a_node15"><a xlink:href="quickjs_8c.html#a2f49d212e519c9e138d8b48148b6f955" target="_top" xlink:title="__attribute__">
<polygon fill="none" stroke="#ff0000" points="784.5,-292.9036 784.5,-311.9036 857.5,-311.9036 857.5,-292.9036 784.5,-292.9036"/>
<text text-anchor="middle" x="821" y="-299.9036" font-family="Helvetica,sans-Serif" font-size="10.00" fill="#000000">__attribute__</text>
</a>
</g>
</g>
<!-- Node4606&#45;&gt;Node4702 -->
<g id="edge45" class="edge">
<title>Node4606&#45;&gt;Node4702</title>
<path fill="none" stroke="#191970" d="M330.1881,-530.8902C340.0007,-489.1139 381.2947,-322.6589 423,-292.4036 475.009,-254.6735 647.9857,-277.8661 712,-283.4036 732.602,-285.1857 755.1519,-288.8289 774.3684,-292.4527"/>
<polygon fill="#191970" stroke="#191970" points="773.8922,-295.9255 784.3757,-294.3938 775.2252,-289.0536 773.8922,-295.9255"/>
</g>
<!-- Node4941 -->
<g id="node16" class="node">
<title>Node4941</title>
<g id="a_node16"><a xlink:href="quickjs_8c.html#a3fb71f8d31b557ebebec82476999408a" target="_top" xlink:title="call_setter">
<polygon fill="none" stroke="#ff0000" points="790,-748.9036 790,-767.9036 852,-767.9036 852,-748.9036 790,-748.9036"/>
<text text-anchor="middle" x="821" y="-755.9036" font-family="Helvetica,sans-Serif" font-size="10.00" fill="#000000">call_setter</text>
</a>
</g>
</g>
<!-- Node4606&#45;&gt;Node4941 -->
<g id="edge18" class="edge">
<title>Node4606&#45;&gt;Node4941</title>
<path fill="none" stroke="#191970" d="M331.0222,-549.9145C340.4403,-578.2771 371.7354,-663.5136 423,-715.4036 487.0457,-780.2306 513.8122,-792.4403 602,-815.4036 649.3113,-827.723 664.523,-827.068 712,-815.4036 744.5168,-807.4147 778.0917,-787.8289 799.2302,-773.8492"/>
<polygon fill="#191970" stroke="#191970" points="801.4431,-776.5773 807.7538,-768.0669 797.5134,-770.7845 801.4431,-776.5773"/>
</g>
<!-- Node4733 -->
<g id="node17" class="node">
<title>Node4733</title>
<g id="a_node17"><a xlink:href="quickjs_8c.html#a23b7fe57d08a1b3b39ba556f9cbb6c76" target="_top" xlink:title="JS_AutoInitProperty">
<polygon fill="none" stroke="#ff0000" points="442.5,-169.9036 442.5,-188.9036 546.5,-188.9036 546.5,-169.9036 442.5,-169.9036"/>
<text text-anchor="middle" x="494.5" y="-176.9036" font-family="Helvetica,sans-Serif" font-size="10.00" fill="#000000">JS_AutoInitProperty</text>
</a>
</g>
</g>
<!-- Node4606&#45;&gt;Node4733 -->
<g id="edge21" class="edge">
<title>Node4606&#45;&gt;Node4733</title>
<path fill="none" stroke="#191970" d="M329.4973,-530.6653C337.3589,-480.6954 375.3212,-253.4817 423,-203.4036 426.6863,-199.5318 431.0154,-196.2845 435.6885,-193.5611"/>
<polygon fill="#191970" stroke="#191970" points="437.6104,-196.5152 445.0206,-188.9429 434.5057,-190.2414 437.6104,-196.5152"/>
</g>
<!-- Node4566 -->
<g id="node18" class="node">
<title>Node4566</title>
<g id="a_node18"><a xlink:href="quickjs_8c.html#a288254c06a39c9fca740a7abdad2834e" target="_top" xlink:title="__JS_AtomIsTaggedInt">
<polygon fill="none" stroke="#000000" points="761.5,-710.9036 761.5,-729.9036 880.5,-729.9036 880.5,-710.9036 761.5,-710.9036"/>
<text text-anchor="middle" x="821" y="-717.9036" font-family="Helvetica,sans-Serif" font-size="10.00" fill="#000000">__JS_AtomIsTaggedInt</text>
</a>
</g>
</g>
<!-- Node4606&#45;&gt;Node4566 -->
<g id="edge22" class="edge">
<title>Node4606&#45;&gt;Node4566</title>
<path fill="none" stroke="#191970" d="M328.9862,-550.0916C334.5857,-602.98 364.2308,-856.0991 423,-901.4036 473.3353,-940.2065 504.6824,-918.1206 566,-901.4036 638.6576,-881.595 661.1962,-870.9957 712,-815.4036 737.2136,-787.8135 719.2105,-763.2384 748,-739.4036 750.0301,-737.7229 752.1921,-736.189 754.4529,-734.7892"/>
<polygon fill="#191970" stroke="#191970" points="756.3398,-737.7528 763.5913,-730.0284 753.1055,-731.5447 756.3398,-737.7528"/>
</g>
<!-- Node4567 -->
<g id="node19" class="node">
<title>Node4567</title>
<g id="a_node19"><a xlink:href="quickjs_8c.html#a89f38938cee8077ce1fbba07946ed185" target="_top" xlink:title="__JS_AtomToUInt32">
<polygon fill="none" stroke="#000000" points="767,-596.9036 767,-615.9036 875,-615.9036 875,-596.9036 767,-596.9036"/>
<text text-anchor="middle" x="821" y="-603.9036" font-family="Helvetica,sans-Serif" font-size="10.00" fill="#000000">__JS_AtomToUInt32</text>
</a>
</g>
</g>
<!-- Node4606&#45;&gt;Node4567 -->
<g id="edge23" class="edge">
<title>Node4606&#45;&gt;Node4567</title>
<path fill="none" stroke="#191970" d="M387.0168,-549.2542C398.9245,-550.9968 411.3587,-552.7854 423,-554.4036 540.5782,-570.7471 677.9112,-588.3653 756.6437,-598.3248"/>
<polygon fill="#191970" stroke="#191970" points="756.5271,-601.8378 766.887,-599.6192 757.4047,-594.8931 756.5271,-601.8378"/>
</g>
<!-- Node4800 -->
<g id="node20" class="node">
<title>Node4800</title>
<g id="a_node20"><a xlink:href="quickjs_8c.html#aee75cc1546e19479e3ccda58f3b50a96" target="_top" xlink:title="JS_SetPropertyValue">
<polygon fill="none" stroke="#ff0000" points="602,-216.9036 602,-235.9036 712,-235.9036 712,-216.9036 602,-216.9036"/>
<text text-anchor="middle" x="657" y="-223.9036" font-family="Helvetica,sans-Serif" font-size="10.00" fill="#000000">JS_SetPropertyValue</text>
</a>
</g>
</g>
<!-- Node4606&#45;&gt;Node4800 -->
<g id="edge24" class="edge">
<title>Node4606&#45;&gt;Node4800</title>
<path fill="none" stroke="#191970" d="M329.381,-530.691C337.2335,-484.0493 377.5166,-288.1297 423,-250.4036 479.4562,-203.576 571.1848,-206.0597 621.3843,-214.8838"/>
<polygon fill="#191970" stroke="#191970" points="620.9528,-218.3656 631.4384,-216.8476 622.2948,-211.4954 620.9528,-218.3656"/>
</g>
<!-- Node4801 -->
<g id="node21" class="node">
<title>Node4801</title>
<g id="a_node21"><a xlink:href="quickjs_8c.html#adbffd820afae76d09c641b5b911e3600" target="_top" xlink:title="add_fast_array_element">
<polygon fill="none" stroke="#ff0000" points="760.5,-558.9036 760.5,-577.9036 881.5,-577.9036 881.5,-558.9036 760.5,-558.9036"/>
<text text-anchor="middle" x="821" y="-565.9036" font-family="Helvetica,sans-Serif" font-size="10.00" fill="#000000">add_fast_array_element</text>
</a>
</g>
</g>
<!-- Node4606&#45;&gt;Node4801 -->
<g id="edge70" class="edge">
<title>Node4606&#45;&gt;Node4801</title>
<path fill="none" stroke="#191970" d="M387.3043,-540.8886C462.8304,-541.8913 597.3111,-544.9674 712,-554.4036 724.3782,-555.422 737.5093,-556.8278 750.2101,-558.358"/>
<polygon fill="#191970" stroke="#191970" points="749.9262,-561.8495 760.2809,-559.6069 750.7877,-554.9027 749.9262,-561.8495"/>
</g>
<!-- Node4802 -->
<g id="node22" class="node">
<title>Node4802</title>
<g id="a_node22"><a xlink:href="quickjs_8c.html#adba489eac6c2332de312326782457940" target="_top" xlink:title="JS_ThrowTypeErrorReadOnly">
<polygon fill="none" stroke="#ff0000" points="930,-558.9036 930,-577.9036 1077,-577.9036 1077,-558.9036 930,-558.9036"/>
<text text-anchor="middle" x="1003.5" y="-565.9036" font-family="Helvetica,sans-Serif" font-size="10.00" fill="#000000">JS_ThrowTypeErrorReadOnly</text>
</a>
</g>
</g>
<!-- Node4606&#45;&gt;Node4802 -->
<g id="edge68" class="edge">
<title>Node4606&#45;&gt;Node4802</title>
<path fill="none" stroke="#191970" d="M387.2817,-537.9183C490.5484,-534.3531 709.9981,-530.1633 894,-549.4036 911.1629,-551.1982 929.6987,-554.058 946.5533,-557.0195"/>
<polygon fill="#191970" stroke="#191970" points="946.3406,-560.5376 956.8031,-558.8681 947.5831,-553.6487 946.3406,-560.5376"/>
</g>
<!-- Node4761 -->
<g id="node23" class="node">
<title>Node4761</title>
<g id="a_node23"><a xlink:href="quickjs_8c.html#a869fa88a646c0a1914ec2e559b193b5c" target="_top" xlink:title="typed_array_is_detached">
<polygon fill="none" stroke="#000000" points="758.5,-102.9036 758.5,-121.9036 883.5,-121.9036 883.5,-102.9036 758.5,-102.9036"/>
<text text-anchor="middle" x="821" y="-109.9036" font-family="Helvetica,sans-Serif" font-size="10.00" fill="#000000">typed_array_is_detached</text>
</a>
</g>
</g>
<!-- Node4606&#45;&gt;Node4761 -->
<g id="edge43" class="edge">
<title>Node4606&#45;&gt;Node4761</title>
<path fill="none" stroke="#191970" d="M328.7435,-530.7432C333.2906,-474.4088 359.2882,-188.9649 423,-135.4036 470.5061,-95.4661 646.778,-100.1973 748.0874,-106.612"/>
<polygon fill="#191970" stroke="#191970" points="748.0446,-110.1166 758.2518,-107.2772 748.5017,-103.1316 748.0446,-110.1166"/>
</g>
<!-- Node4762 -->
<g id="node24" class="node">
<title>Node4762</title>
<g id="a_node24"><a xlink:href="quickjs_8c.html#a033dd3ebd29c4eb9f0baff1dd0fec0b1" target="_top" xlink:title="JS_ThrowTypeErrorDetached\lArrayBuffer">
<polygon fill="none" stroke="#000000" points="748,-158.4036 748,-188.4036 894,-188.4036 894,-158.4036 748,-158.4036"/>
<text text-anchor="start" x="756" y="-176.4036" font-family="Helvetica,sans-Serif" font-size="10.00" fill="#000000">JS_ThrowTypeErrorDetached</text>
<text text-anchor="middle" x="821" y="-165.4036" font-family="Helvetica,sans-Serif" font-size="10.00" fill="#000000">ArrayBuffer</text>
</a>
</g>
</g>
<!-- Node4606&#45;&gt;Node4762 -->
<g id="edge44" class="edge">
<title>Node4606&#45;&gt;Node4762</title>
<path fill="none" stroke="#191970" d="M328.866,-530.5747C333.9163,-475.7457 361.494,-208.426 423,-160.4036 470.1985,-123.5521 635.7654,-142.5271 737.892,-158.649"/>
<polygon fill="#191970" stroke="#191970" points="737.4489,-162.1226 747.8766,-160.2479 738.5558,-155.2106 737.4489,-162.1226"/>
</g>
<!-- Node4746 -->
<g id="node25" class="node">
<title>Node4746</title>
<g id="a_node25"><a xlink:href="quickjs_8c.html#add3eea1f6d626963ade3c28a1fd563d1" target="_top" xlink:title="JS_AtomIsNumericIndex">
<polygon fill="none" stroke="#ff0000" points="758,-957.9036 758,-976.9036 884,-976.9036 884,-957.9036 758,-957.9036"/>
<text text-anchor="middle" x="821" y="-964.9036" font-family="Helvetica,sans-Serif" font-size="10.00" fill="#000000">JS_AtomIsNumericIndex</text>
</a>
</g>
</g>
<!-- Node4606&#45;&gt;Node4746 -->
<g id="edge37" class="edge">
<title>Node4606&#45;&gt;Node4746</title>
<path fill="none" stroke="#191970" d="M328.6483,-549.9781C332.7275,-607.0879 356.8435,-902.1399 423,-956.4036 527.8545,-1042.4085 705.7499,-1003.0504 783.1493,-979.9658"/>
<polygon fill="#191970" stroke="#191970" points="784.4121,-983.2397 792.951,-976.9677 782.3646,-976.5458 784.4121,-983.2397"/>
</g>
<!-- Node4749 -->
<g id="node26" class="node">
<title>Node4749</title>
<g id="a_node26"><a xlink:href="quickjs_8c.html#ae738291483438efefca5c9fa4d269504" target="_top" xlink:title="JS_ToNumberFree">
<polygon fill="none" stroke="#ff0000" points="445,-872.9036 445,-891.9036 544,-891.9036 544,-872.9036 445,-872.9036"/>
<text text-anchor="middle" x="494.5" y="-879.9036" font-family="Helvetica,sans-Serif" font-size="10.00" fill="#000000">JS_ToNumberFree</text>
</a>
</g>
</g>
<!-- Node4606&#45;&gt;Node4749 -->
<g id="edge41" class="edge">
<title>Node4606&#45;&gt;Node4749</title>
<path fill="none" stroke="#191970" d="M329.6309,-549.9115C338.0045,-597.7184 377.5388,-811.3912 423,-858.4036 426.8115,-862.3452 431.2892,-865.6394 436.1131,-868.3926"/>
<polygon fill="#191970" stroke="#191970" points="434.58,-871.5389 445.101,-872.7871 437.6547,-865.2504 434.58,-871.5389"/>
</g>
<!-- Node4698 -->
<g id="node27" class="node">
<title>Node4698</title>
<g id="a_node27"><a xlink:href="quickjs_8c.html#ab50618f1bf78e444caa6da0e3e2785d7" target="_top" xlink:title="JS_DefineProperty">
<polygon fill="none" stroke="#ff0000" points="445,-596.9036 445,-615.9036 544,-615.9036 544,-596.9036 445,-596.9036"/>
<text text-anchor="middle" x="494.5" y="-603.9036" font-family="Helvetica,sans-Serif" font-size="10.00" fill="#000000">JS_DefineProperty</text>
</a>
</g>
</g>
<!-- Node4606&#45;&gt;Node4698 -->
<g id="edge47" class="edge">
<title>Node4606&#45;&gt;Node4698</title>
<path fill="none" stroke="#191970" d="M348.1568,-549.9654C367.2329,-558.8587 396.7728,-572.2293 423,-582.4036 433.0836,-586.3153 444.1039,-590.2013 454.4066,-593.671"/>
<polygon fill="#191970" stroke="#191970" points="453.4173,-597.0303 464.0107,-596.8573 455.6215,-590.3864 453.4173,-597.0303"/>
</g>
<!-- Node4804 -->
<g id="node28" class="node">
<title>Node4804</title>
<g id="a_node28"><a xlink:href="quickjs_8c.html#ad5565bb5cfd5321f181573257f3b0c91" target="_top" xlink:title="JS_CreateProperty">
<polygon fill="none" stroke="#ff0000" points="607,-634.9036 607,-653.9036 707,-653.9036 707,-634.9036 607,-634.9036"/>
<text text-anchor="middle" x="657" y="-641.9036" font-family="Helvetica,sans-Serif" font-size="10.00" fill="#000000">JS_CreateProperty</text>
</a>
</g>
</g>
<!-- Node4606&#45;&gt;Node4804 -->
<g id="edge71" class="edge">
<title>Node4606&#45;&gt;Node4804</title>
<path fill="none" stroke="#191970" d="M335.0752,-549.9656C349.3332,-568.3869 383.5466,-608.4685 423,-625.4036 478.4225,-649.1933 547.9563,-651.829 596.7707,-649.8174"/>
<polygon fill="#191970" stroke="#191970" points="597.0432,-653.3084 606.8601,-649.3236 596.7009,-646.3167 597.0432,-653.3084"/>
</g>
<!-- Node4686 -->
<g id="node29" class="node">
<title>Node4686</title>
<g id="a_node29"><a xlink:href="quickjs_8c.html#a74547db03bf739a52c83a326b32db997" target="_top" xlink:title="add_property">
<polygon fill="none" stroke="#ff0000" points="784.5,-843.9036 784.5,-862.9036 857.5,-862.9036 857.5,-843.9036 784.5,-843.9036"/>
<text text-anchor="middle" x="821" y="-850.9036" font-family="Helvetica,sans-Serif" font-size="10.00" fill="#000000">add_property</text>
</a>
</g>
</g>
<!-- Node4606&#45;&gt;Node4686 -->
<g id="edge72" class="edge">
<title>Node4606&#45;&gt;Node4686</title>
<path fill="none" stroke="#191970" d="M328.8119,-550C333.6564,-604.7192 360.6709,-876.5849 423,-925.4036 538.9167,-1016.1942 731.9633,-909.9475 798.017,-868.5343"/>
<polygon fill="#191970" stroke="#191970" points="800.2651,-871.252 806.8169,-862.9258 796.5029,-865.3489 800.2651,-871.252"/>
</g>
<!-- Node4763 -->
<g id="node30" class="node">
<title>Node4763</title>
<g id="a_node30"><a xlink:href="quickjs_8c.html#ab8d0b87c9eed4eb6c054b6f4e1731554" target="_top" xlink:title="JS_ThrowReferenceErrorNot\lDefined">
<polygon fill="none" stroke="#ff0000" points="423,-416.4036 423,-446.4036 566,-446.4036 566,-416.4036 423,-416.4036"/>
<text text-anchor="start" x="431" y="-434.4036" font-family="Helvetica,sans-Serif" font-size="10.00" fill="#000000">JS_ThrowReferenceErrorNot</text>
<text text-anchor="middle" x="494.5" y="-423.4036" font-family="Helvetica,sans-Serif" font-size="10.00" fill="#000000">Defined</text>
</a>
</g>
</g>
<!-- Node4606&#45;&gt;Node4763 -->
<g id="edge69" class="edge">
<title>Node4606&#45;&gt;Node4763</title>
<path fill="none" stroke="#191970" d="M337.5106,-530.8157C353.8243,-514.7756 388.7087,-482.2154 423,-461.4036 429.3294,-457.5622 436.2394,-453.9867 443.1884,-450.7401"/>
<polygon fill="#191970" stroke="#191970" points="444.9323,-453.7946 452.6376,-446.5227 442.0793,-447.4023 444.9323,-453.7946"/>
</g>
<!-- Node4790&#45;&gt;Node4607 -->
<g id="edge12" class="edge">
<title>Node4790&#45;&gt;Node4607</title>
<path fill="none" stroke="#191970" d="M850.7842,-387.2625C864.1393,-391.4727 880.0029,-396.8049 894,-402.4036 922.5955,-413.8414 954.281,-429.1953 976.1789,-440.2502"/>
<polygon fill="#191970" stroke="#191970" points="974.7158,-443.4328 985.2156,-444.849 977.8907,-437.1942 974.7158,-443.4328"/>
</g>
<!-- Node4781&#45;&gt;Node4607 -->
<g id="edge14" class="edge">
<title>Node4781&#45;&gt;Node4607</title>
<path fill="none" stroke="#191970" d="M701.7223,-311.9576C765.5488,-325.775 876.9734,-350.6404 894,-359.4036 932.5231,-379.2304 968.7515,-415.3505 988.3514,-436.8853"/>
<polygon fill="#191970" stroke="#191970" points="985.9774,-439.482 995.2441,-444.6179 991.2028,-434.8241 985.9774,-439.482"/>
</g>
<!-- Node4781&#45;&gt;Node4790 -->
<g id="edge16" class="edge">
<title>Node4781&#45;&gt;Node4790</title>
<path fill="none" stroke="#191970" d="M682.5695,-311.9996C692.0705,-315.9652 702.7756,-320.9211 712,-326.4036 729.4245,-336.7597 730.109,-344.8759 748,-354.4036 758.4736,-359.9812 770.4815,-364.5802 781.6933,-368.2073"/>
<polygon fill="#191970" stroke="#191970" points="780.6959,-371.5622 791.2825,-371.1447 782.7462,-364.8692 780.6959,-371.5622"/>
</g>
<!-- Node4781&#45;&gt;Node4623 -->
<g id="edge15" class="edge">
<title>Node4781&#45;&gt;Node4623</title>
<path fill="none" stroke="#191970" d="M677.7707,-292.7781C706.4826,-279.4726 758.4633,-255.384 791.2805,-240.176"/>
<polygon fill="#191970" stroke="#191970" points="792.7965,-243.3311 800.3979,-235.9509 789.8532,-236.98 792.7965,-243.3311"/>
</g>
<!-- Node4781&#45;&gt;Node4702 -->
<g id="edge17" class="edge">
<title>Node4781&#45;&gt;Node4702</title>
<path fill="none" stroke="#191970" d="M701.8137,-302.4036C724.266,-302.4036 751.4373,-302.4036 774.1631,-302.4036"/>
<polygon fill="#191970" stroke="#191970" points="774.2591,-305.9037 784.259,-302.4036 774.259,-298.9037 774.2591,-305.9037"/>
</g>
<!-- Node4941&#45;&gt;Node4589 -->
<g id="edge20" class="edge">
<title>Node4941&#45;&gt;Node4589</title>
<path fill="none" stroke="#191970" d="M852.1582,-763.4785C866.0957,-766.9731 882.0415,-772.7924 894,-782.4036 950.3972,-827.7305 984.1727,-910.4993 997.2462,-948.0084"/>
<polygon fill="#191970" stroke="#191970" points="994.006,-949.3536 1000.5144,-957.7137 1000.6399,-947.1196 994.006,-949.3536"/>
</g>
<!-- Node4941&#45;&gt;Node4607 -->
<g id="edge19" class="edge">
<title>Node4941&#45;&gt;Node4607</title>
<path fill="none" stroke="#191970" d="M852.1997,-757.6845C866.8357,-755.694 883.3578,-750.788 894,-739.4036 952.6923,-676.6176 894.7291,-627.7798 930,-549.4036 943.729,-518.896 969.116,-489.3163 986.1577,-471.4827"/>
<polygon fill="#191970" stroke="#191970" points="988.8363,-473.7496 993.3285,-464.1543 983.833,-468.854 988.8363,-473.7496"/>
</g>
<!-- Node4800&#45;&gt;Node4606 -->
<g id="edge34" class="edge">
<title>Node4800&#45;&gt;Node4606</title>
<path fill="none" stroke="#191970" d="M601.8203,-225.8827C549.8451,-224.1672 472.7354,-227.1506 423,-268.4036 382.1244,-302.3078 345.4488,-463.9768 332.7378,-520.8259"/>
<polygon fill="#191970" stroke="#191970" points="329.29,-520.2062 330.521,-530.7293 336.1209,-521.7353 329.29,-520.2062"/>
</g>
<!-- Node4800&#45;&gt;Node4607 -->
<g id="edge33" class="edge">
<title>Node4800&#45;&gt;Node4607</title>
<path fill="none" stroke="#191970" d="M700.275,-235.9345C766.4577,-250.6354 886.0489,-277.7437 894,-283.4036 949.1771,-322.6809 983.2086,-399.3167 996.7561,-435.1145"/>
<polygon fill="#191970" stroke="#191970" points="993.585,-436.6343 1000.3035,-444.8265 1000.1601,-434.2326 993.585,-436.6343"/>
</g>
<!-- Node4800&#45;&gt;Node4790 -->
<g id="edge29" class="edge">
<title>Node4800&#45;&gt;Node4790</title>
<path fill="none" stroke="#191970" d="M666.3694,-236.0596C677.3373,-247.3756 696.0347,-266.7052 712,-283.4036 728.0772,-300.219 730.7836,-305.7566 748,-321.4036 764.5121,-336.4105 784.5723,-351.8961 799.4825,-362.9322"/>
<polygon fill="#191970" stroke="#191970" points="797.465,-365.7929 807.6005,-368.8786 801.6015,-360.1458 797.465,-365.7929"/>
</g>
<!-- Node4800&#45;&gt;Node4623 -->
<g id="edge35" class="edge">
<title>Node4800&#45;&gt;Node4623</title>
<path fill="none" stroke="#191970" d="M712.0659,-226.4036C731.5374,-226.4036 753.2884,-226.4036 772.2033,-226.4036"/>
<polygon fill="#191970" stroke="#191970" points="772.3874,-229.9037 782.3873,-226.4036 772.3873,-222.9037 772.3874,-229.9037"/>
</g>
<!-- Node4800&#45;&gt;Node4702 -->
<g id="edge32" class="edge">
<title>Node4800&#45;&gt;Node4702</title>
<path fill="none" stroke="#191970" d="M682.5695,-235.9996C692.0705,-239.9652 702.7756,-244.9211 712,-250.4036 729.4245,-260.7597 730.109,-268.8759 748,-278.4036 756.3016,-282.8245 765.5672,-286.6306 774.6361,-289.8253"/>
<polygon fill="#191970" stroke="#191970" points="773.7514,-293.2194 784.3449,-293.052 775.9591,-286.5767 773.7514,-293.2194"/>
</g>
<!-- Node4800&#45;&gt;Node4801 -->
<g id="edge25" class="edge">
<title>Node4800&#45;&gt;Node4801</title>
<path fill="none" stroke="#191970" d="M669.1934,-236.0714C681.6101,-246.5181 700.6093,-264.2585 712,-283.4036 739.1675,-329.0658 729.5475,-347.5777 748,-397.4036 768.8486,-453.6994 797.9319,-518.4476 812.2823,-549.6567"/>
<polygon fill="#191970" stroke="#191970" points="809.1789,-551.2848 816.5509,-558.8942 815.5333,-548.3484 809.1789,-551.2848"/>
</g>
<!-- Node4800&#45;&gt;Node4761 -->
<g id="edge30" class="edge">
<title>Node4800&#45;&gt;Node4761</title>
<path fill="none" stroke="#191970" d="M666.4455,-216.8793C682.2969,-201.2385 715.6986,-169.7233 748,-148.4036 760.7169,-140.0101 775.6721,-132.3005 788.7239,-126.1878"/>
<polygon fill="#191970" stroke="#191970" points="790.1871,-129.3673 797.832,-122.0321 787.2814,-122.9989 790.1871,-129.3673"/>
</g>
<!-- Node4800&#45;&gt;Node4762 -->
<g id="edge31" class="edge">
<title>Node4800&#45;&gt;Node4762</title>
<path fill="none" stroke="#191970" d="M686.6992,-216.8057C708.3891,-209.7961 738.458,-200.0787 764.6463,-191.6154"/>
<polygon fill="#191970" stroke="#191970" points="766.0285,-194.847 774.4677,-188.4415 763.8759,-188.1862 766.0285,-194.847"/>
</g>
<!-- Node4801&#45;&gt;Node4553 -->
<g id="edge28" class="edge">
<title>Node4801&#45;&gt;Node4553</title>
<path fill="none" stroke="#191970" d="M877.5161,-577.9056C883.436,-580.3811 889.0784,-583.4931 894,-587.4036 957.4573,-637.8236 988.2343,-735.153 998.9408,-776.7616"/>
<polygon fill="#191970" stroke="#191970" points="995.6033,-777.8466 1001.3893,-786.722 1002.4009,-776.1755 995.6033,-777.8466"/>
</g>
<!-- Node4801&#45;&gt;Node4607 -->
<g id="edge26" class="edge">
<title>Node4801&#45;&gt;Node4607</title>
<path fill="none" stroke="#191970" d="M858.8752,-558.8759C870.5217,-555.1845 883.1284,-550.3823 894,-544.4036 930.7382,-524.1997 967.0785,-491.0225 987.2768,-471.0906"/>
<polygon fill="#191970" stroke="#191970" points="989.849,-473.4678 994.4302,-463.9146 984.8914,-468.5258 989.849,-473.4678"/>
</g>
<!-- Node4801&#45;&gt;Node4802 -->
<g id="edge27" class="edge">
<title>Node4801&#45;&gt;Node4802</title>
<path fill="none" stroke="#191970" d="M881.5164,-568.4036C893.7152,-568.4036 906.7438,-568.4036 919.5778,-568.4036"/>
<polygon fill="#191970" stroke="#191970" points="919.8092,-571.9037 929.8092,-568.4036 919.8091,-564.9037 919.8092,-571.9037"/>
</g>
<!-- Node4746&#45;&gt;Node4552 -->
<g id="edge38" class="edge">
<title>Node4746&#45;&gt;Node4552</title>
<path fill="none" stroke="#191970" d="M831.3349,-977.0872C861.1983,-1005.0688 947.8758,-1086.2845 985.604,-1121.6353"/>
<polygon fill="#191970" stroke="#191970" points="983.5881,-1124.5427 993.2785,-1128.8261 988.3743,-1119.4346 983.5881,-1124.5427"/>
</g>
<!-- Node4746&#45;&gt;Node4589 -->
<g id="edge39" class="edge">
<title>Node4746&#45;&gt;Node4589</title>
<path fill="none" stroke="#191970" d="M884.0617,-967.4036C905.5674,-967.4036 929.3894,-967.4036 950.0648,-967.4036"/>
<polygon fill="#191970" stroke="#191970" points="950.2483,-970.9037 960.2482,-967.4036 950.2482,-963.9037 950.2483,-970.9037"/>
</g>
<!-- Node4746&#45;&gt;Node4607 -->
<g id="edge40" class="edge">
<title>Node4746&#45;&gt;Node4607</title>
<path fill="none" stroke="#191970" d="M831.4116,-957.7708C847.8987,-941.8128 879.6165,-908.0943 894,-872.4036 947.9919,-738.4294 875.7871,-683.2884 930,-549.4036 942.5561,-518.3948 968.2403,-488.9421 985.6673,-471.2732"/>
<polygon fill="#191970" stroke="#191970" points="988.357,-473.5362 993.0164,-464.0209 983.4401,-468.5537 988.357,-473.5362"/>
</g>
<!-- Node4698&#45;&gt;Node4552 -->
<g id="edge55" class="edge">
<title>Node4698&#45;&gt;Node4552</title>
<path fill="none" stroke="#191970" d="M498.4819,-616.0036C511.3151,-646.4716 553.5827,-743.2286 602,-815.4036 657.6718,-898.3928 671.5919,-921.9957 748,-986.4036 821.4392,-1048.3089 923.1209,-1100.5333 973.1775,-1124.4392"/>
<polygon fill="#191970" stroke="#191970" points="971.9404,-1127.7258 982.4768,-1128.8373 974.9332,-1121.3978 971.9404,-1127.7258"/>
</g>
<!-- Node4698&#45;&gt;Node4553 -->
<g id="edge58" class="edge">
<title>Node4698&#45;&gt;Node4553</title>
<path fill="none" stroke="#191970" d="M510.8329,-615.9936C536.0494,-630.6383 583.4829,-657.5031 602,-663.4036 726.6946,-703.1371 774.6097,-647.7989 894,-701.4036 933.9302,-719.3317 970.1434,-756.7451 989.2614,-778.8949"/>
<polygon fill="#191970" stroke="#191970" points="986.8218,-781.4317 995.9397,-786.8275 992.1768,-776.9234 986.8218,-781.4317"/>
</g>
<!-- Node4698&#45;&gt;Node4589 -->
<g id="edge56" class="edge">
<title>Node4698&#45;&gt;Node4589</title>
<path fill="none" stroke="#191970" d="M519.1835,-616.0488C534.2511,-622.9416 553.0438,-633.4635 566,-647.4036 591.1716,-674.4868 574.8147,-697.3423 602,-722.4036 653.0984,-769.5096 837.604,-793.7893 894,-834.4036 938.2898,-866.2994 975.0772,-920.3034 992.5533,-948.6898"/>
<polygon fill="#191970" stroke="#191970" points="989.7525,-950.8233 997.9101,-957.5838 995.7489,-947.2117 989.7525,-950.8233"/>
</g>
<!-- Node4698&#45;&gt;Node4607 -->
<g id="edge50" class="edge">
<title>Node4698&#45;&gt;Node4607</title>
<path fill="none" stroke="#191970" d="M526.3402,-596.8953C614.7146,-570.5045 863.0325,-496.3506 962.0146,-466.7921"/>
<polygon fill="#191970" stroke="#191970" points="963.0914,-470.1234 971.6718,-463.9083 961.0884,-463.4161 963.0914,-470.1234"/>
</g>
<!-- Node4698&#45;&gt;Node4700 -->
<g id="edge48" class="edge">
<title>Node4698&#45;&gt;Node4700</title>
<path fill="none" stroke="#191970" d="M500.2359,-615.9484C520.4322,-649.4565 587.7991,-760.3501 602,-772.4036 606.5795,-776.2906 611.886,-779.6441 617.3598,-782.5072"/>
<polygon fill="#191970" stroke="#191970" points="616.0924,-785.779 626.6308,-786.8704 619.0732,-779.4453 616.0924,-785.779"/>
</g>
<!-- Node4698&#45;&gt;Node4790 -->
<g id="edge52" class="edge">
<title>Node4698&#45;&gt;Node4790</title>
<path fill="none" stroke="#191970" d="M505.0955,-596.703C523.944,-579.6387 564.8186,-543.4933 602,-516.4036 669.1981,-467.4441 753.6483,-417.1753 795.3189,-393.0599"/>
<polygon fill="#191970" stroke="#191970" points="797.0971,-396.0748 804.0136,-388.049 793.6018,-390.01 797.0971,-396.0748"/>
</g>
<!-- Node4698&#45;&gt;Node4781 -->
<g id="edge51" class="edge">
<title>Node4698&#45;&gt;Node4781</title>
<path fill="none" stroke="#191970" d="M499.4106,-596.6124C511.3343,-572.7174 542.5578,-509.4174 566,-455.4036 583.3161,-415.5049 579.2225,-401.4568 602,-364.4036 612.3845,-347.5106 627.5274,-330.8381 639.2961,-319.0442"/>
<polygon fill="#191970" stroke="#191970" points="641.7525,-321.5375 646.4586,-312.0452 636.8602,-316.5309 641.7525,-321.5375"/>
</g>
<!-- Node4698&#45;&gt;Node4702 -->
<g id="edge49" class="edge">
<title>Node4698&#45;&gt;Node4702</title>
<path fill="none" stroke="#191970" d="M499.1096,-596.5195C512.1496,-569.3382 551.6436,-492.1877 602,-442.4036 660.299,-384.7671 746.143,-338.4298 791.078,-316.3805"/>
<polygon fill="#191970" stroke="#191970" points="792.8063,-319.4325 800.2816,-311.9244 789.7558,-313.1321 792.8063,-319.4325"/>
</g>
<!-- Node4698&#45;&gt;Node4566 -->
<g id="edge53" class="edge">
<title>Node4698&#45;&gt;Node4566</title>
<path fill="none" stroke="#191970" d="M502.4654,-616.1271C518.8202,-635.3115 558.3402,-677.7854 602,-696.4036 649.1655,-716.5167 706.9881,-722.1462 751.3725,-722.9456"/>
<polygon fill="#191970" stroke="#191970" points="751.4532,-726.4466 761.4885,-723.0491 751.5248,-719.4469 751.4532,-726.4466"/>
</g>
<!-- Node4698&#45;&gt;Node4567 -->
<g id="edge54" class="edge">
<title>Node4698&#45;&gt;Node4567</title>
<path fill="none" stroke="#191970" d="M544.0883,-606.4036C600.9521,-606.4036 694.3412,-606.4036 756.7367,-606.4036"/>
<polygon fill="#191970" stroke="#191970" points="756.8577,-609.9037 766.8576,-606.4036 756.8576,-602.9037 756.8577,-609.9037"/>
</g>
<!-- Node4698&#45;&gt;Node4800 -->
<g id="edge57" class="edge">
<title>Node4698&#45;&gt;Node4800</title>
<path fill="none" stroke="#191970" d="M500.0125,-596.8437C513.2726,-573.4622 547.2389,-511.2162 566,-455.4036 590.8849,-381.3732 565.4552,-352.427 602,-283.4036 610.3649,-267.6044 624.4173,-253.1525 636.2237,-242.7537"/>
<polygon fill="#191970" stroke="#191970" points="638.5599,-245.3619 643.941,-236.2353 634.043,-240.0142 638.5599,-245.3619"/>
</g>
<!-- Node4698&#45;&gt;Node4804 -->
<g id="edge59" class="edge">
<title>Node4698&#45;&gt;Node4804</title>
<path fill="none" stroke="#191970" d="M535.5056,-615.9926C557.0458,-621.0297 583.6347,-627.2474 606.4414,-632.5806"/>
<polygon fill="#191970" stroke="#191970" points="605.755,-636.0145 616.2893,-634.8835 607.3489,-629.1984 605.755,-636.0145"/>
</g>
<!-- Node4804&#45;&gt;Node4790 -->
<g id="edge64" class="edge">
<title>Node4804&#45;&gt;Node4790</title>
<path fill="none" stroke="#191970" d="M663.0313,-634.621C687.2446,-595.3484 777.6195,-448.7647 809.6534,-396.8072"/>
<polygon fill="#191970" stroke="#191970" points="812.8179,-398.3436 815.0868,-387.9946 806.8593,-394.6699 812.8179,-398.3436"/>
</g>
<!-- Node4804&#45;&gt;Node4702 -->
<g id="edge66" class="edge">
<title>Node4804&#45;&gt;Node4702</title>
<path fill="none" stroke="#191970" d="M657.9878,-634.9033C662.332,-596.9041 682.5349,-453.3771 748,-359.4036 760.0626,-342.088 778.9433,-327.5455 794.481,-317.4838"/>
<polygon fill="#191970" stroke="#191970" points="796.5174,-320.3392 803.1662,-312.0903 792.8245,-314.3926 796.5174,-320.3392"/>
</g>
<!-- Node4804&#45;&gt;Node4566 -->
<g id="edge60" class="edge">
<title>Node4804&#45;&gt;Node4566</title>
<path fill="none" stroke="#191970" d="M677.7707,-654.029C706.4826,-667.3345 758.4633,-691.4231 791.2805,-706.6311"/>
<polygon fill="#191970" stroke="#191970" points="789.8532,-709.8272 800.3979,-710.8563 792.7965,-703.476 789.8532,-709.8272"/>
</g>
<!-- Node4804&#45;&gt;Node4567 -->
<g id="edge61" class="edge">
<title>Node4804&#45;&gt;Node4567</title>
<path fill="none" stroke="#191970" d="M698.3841,-634.8146C720.1232,-629.7775 746.9575,-623.5598 769.9747,-618.2265"/>
<polygon fill="#191970" stroke="#191970" points="770.9616,-621.5906 779.9135,-615.9236 769.3815,-614.7713 770.9616,-621.5906"/>
</g>
<!-- Node4804&#45;&gt;Node4801 -->
<g id="edge62" class="edge">
<title>Node4804&#45;&gt;Node4801</title>
<path fill="none" stroke="#191970" d="M669.5684,-634.775C686.5184,-622.214 718.0428,-600.3209 748,-587.4036 753.6821,-584.9535 759.7535,-582.7606 765.877,-580.8134"/>
<polygon fill="#191970" stroke="#191970" points="766.9061,-584.1589 775.4939,-577.9541 764.9111,-577.4492 766.9061,-584.1589"/>
</g>
<!-- Node4804&#45;&gt;Node4802 -->
<g id="edge63" class="edge">
<title>Node4804&#45;&gt;Node4802</title>
<path fill="none" stroke="#191970" d="M707.0465,-646.1054C755.7328,-646.4392 831.3205,-643.4256 894,-625.4036 925.9371,-616.2208 959.3569,-597.2512 980.7472,-583.7189"/>
<polygon fill="#191970" stroke="#191970" points="982.9123,-586.4869 989.4092,-578.1178 979.1114,-580.6087 982.9123,-586.4869"/>
</g>
<!-- Node4804&#45;&gt;Node4746 -->
<g id="edge65" class="edge">
<title>Node4804&#45;&gt;Node4746</title>
<path fill="none" stroke="#191970" d="M661.102,-654.0423C670.3785,-675.9002 693.5951,-730.9428 712,-777.4036 728.6292,-819.382 726.0087,-832.9688 748,-872.4036 764.4282,-901.8627 789.3356,-932.1198 805.3878,-950.3431"/>
<polygon fill="#191970" stroke="#191970" points="802.8025,-952.7027 812.0778,-957.8231 808.0201,-948.0361 802.8025,-952.7027"/>
</g>
<!-- Node4804&#45;&gt;Node4686 -->
<g id="edge67" class="edge">
<title>Node4804&#45;&gt;Node4686</title>
<path fill="none" stroke="#191970" d="M662.8837,-654.1407C676.6574,-676.6645 712.5235,-733.7706 748,-777.4036 765.4946,-798.9204 787.8647,-821.6014 803.2034,-836.5244"/>
<polygon fill="#191970" stroke="#191970" points="800.8906,-839.1563 810.5206,-843.5738 805.7473,-834.1151 800.8906,-839.1563"/>
</g>
</g>
</svg>
