<?xml version="1.0" encoding="UTF-8" standalone="no"?>
<!DOCTYPE svg PUBLIC "-//W3C//DTD SVG 1.1//EN"
 "http://www.w3.org/Graphics/SVG/1.1/DTD/svg11.dtd">
<!-- Generated by graphviz version 2.40.1 (20161225.0304)
 -->
<!-- Title: JS_CopyDataProperties Pages: 1 -->
<!--zoomable 957 -->
<svg id="main" version="1.1" xmlns="http://www.w3.org/2000/svg" xmlns:xlink="http://www.w3.org/1999/xlink" xml:space="preserve" onload="init(evt)">
<style type="text/css"><![CDATA[
.edge:hover path { stroke: red; }
.edge:hover polygon { stroke: red; fill: red; }
]]></style>
<script type="text/javascript"><![CDATA[
var edges = document.getElementsByTagName('g');
if (edges && edges.length) {
  for (var i=0;i<edges.length;i++) {
    if (edges[i].id.substr(0,4)=='edge') {
      edges[i].setAttribute('class','edge');
    }
  }
}
]]></script>
        <defs>
                <circle id="rim" cx="0" cy="0" r="7"/>
                <circle id="rim2" cx="0" cy="0" r="3.5"/>
                <g id="zoomPlus">
                        <use xlink:href="#rim" fill="#404040">
                                <set attributeName="fill" to="#808080" begin="zoomplus.mouseover" end="zoomplus.mouseout"/>
                        </use>
                        <path d="M-4,0h8M0,-4v8" fill="none" stroke="white" stroke-width="1.5" pointer-events="none"/>
                </g>
                <g id="zoomMin">
                        <use xlink:href="#rim" fill="#404040">
                                <set attributeName="fill" to="#808080" begin="zoomminus.mouseover" end="zoomminus.mouseout"/>
                        </use>
                        <path d="M-4,0h8" fill="none" stroke="white" stroke-width="1.5" pointer-events="none"/>
                </g>
                <g id="dirArrow">
                        <path fill="none" stroke="white" stroke-width="1.5" d="M0,-3.0v7 M-2.5,-0.5L0,-3.0L2.5,-0.5"/>
                </g>
               <g id="resetDef">
                       <use xlink:href="#rim2" fill="#404040">
                               <set attributeName="fill" to="#808080" begin="reset.mouseover" end="reset.mouseout"/>
                       </use>
               </g>
        </defs>

<script type="text/javascript">
var viewWidth = 594;
var viewHeight = 957;
var sectionId = 'dynsection-811';
</script>
<script xlink:href="svgpan.js"/>
<svg id="graph" class="graph">
<g id="viewport">
<title>JS_CopyDataProperties</title>
<!-- Node280062 -->
<g id="node1" class="node">
<title>Node280062</title>
<polygon fill="#bfbfbf" stroke="#000000" points="0,-319.5 0,-338.5 122,-338.5 122,-319.5 0,-319.5"/>
<text text-anchor="middle" x="61" y="-326.5" font-family="Helvetica,sans-Serif" font-size="10.00" fill="#000000">JS_CopyDataProperties</text>
</g>
<!-- Node280063 -->
<g id="node2" class="node">
<title>Node280063</title>
<g id="a_node2"><a xlink:href="quickjs_8c.html#ac2894ff4edcdb4e6841bcce9c76081e3" target="_top" xlink:title="JS_CallInternal">
<polygon fill="none" stroke="#000000" points="161,-338.5 161,-357.5 244,-357.5 244,-338.5 161,-338.5"/>
<text text-anchor="middle" x="202.5" y="-345.5" font-family="Helvetica,sans-Serif" font-size="10.00" fill="#000000">JS_CallInternal</text>
</a>
</g>
</g>
<!-- Node280062&#45;&gt;Node280063 -->
<g id="edge1" class="edge">
<title>Node280062&#45;&gt;Node280063</title>
<path fill="none" stroke="#191970" d="M132.349,-338.5804C142.0728,-339.8861 151.7816,-341.1898 160.7406,-342.3927"/>
<polygon fill="#191970" stroke="#191970" points="132.6179,-335.0852 122.241,-337.2232 131.6862,-342.0229 132.6179,-335.0852"/>
</g>
<!-- Node280624 -->
<g id="node30" class="node">
<title>Node280624</title>
<g id="a_node30"><a xlink:href="quickjs_8c.html#ae69502aeeec991fb0bf5a9657aaa7453" target="_top" xlink:title="js_object_assign">
<polygon fill="none" stroke="#000000" points="158,-300.5 158,-319.5 247,-319.5 247,-300.5 158,-300.5"/>
<text text-anchor="middle" x="202.5" y="-307.5" font-family="Helvetica,sans-Serif" font-size="10.00" fill="#000000">js_object_assign</text>
</a>
</g>
</g>
<!-- Node280062&#45;&gt;Node280624 -->
<g id="edge40" class="edge">
<title>Node280062&#45;&gt;Node280624</title>
<path fill="none" stroke="#191970" d="M132.3807,-319.4153C141.0398,-318.2526 149.6863,-317.0916 157.8014,-316.0019"/>
<polygon fill="#191970" stroke="#191970" points="131.6862,-315.9771 122.241,-320.7768 132.6179,-322.9148 131.6862,-315.9771"/>
</g>
<!-- Node280063&#45;&gt;Node280063 -->
<g id="edge39" class="edge">
<title>Node280063&#45;&gt;Node280063</title>
<path fill="none" stroke="#191970" d="M176.4584,-367.0292C177.8789,-372.128 186.5594,-376 202.5,-376 227.3828,-376 234.5755,-366.5653 224.0781,-357.7571"/>
<polygon fill="#191970" stroke="#191970" points="179.738,-368.2855 180.9219,-357.7571 173.4308,-365.2493 179.738,-368.2855"/>
</g>
<!-- Node280064 -->
<g id="node3" class="node">
<title>Node280064</title>
<g id="a_node3"><a xlink:href="quickjs_8c.html#ade71a22dc56e7371392393df663b28b3" target="_top" xlink:title="async_func_resume">
<polygon fill="none" stroke="#000000" points="298,-836.5 298,-855.5 402,-855.5 402,-836.5 298,-836.5"/>
<text text-anchor="middle" x="350" y="-843.5" font-family="Helvetica,sans-Serif" font-size="10.00" fill="#000000">async_func_resume</text>
</a>
</g>
</g>
<!-- Node280063&#45;&gt;Node280064 -->
<g id="edge2" class="edge">
<title>Node280063&#45;&gt;Node280064</title>
<path fill="none" stroke="#191970" d="M208.1704,-367.1447C232.7075,-449.9887 329.3061,-776.1319 347.1556,-836.3967"/>
<polygon fill="#191970" stroke="#191970" points="211.5107,-366.0978 205.3148,-357.5035 204.7989,-368.0858 211.5107,-366.0978"/>
</g>
<!-- Node280076 -->
<g id="node8" class="node">
<title>Node280076</title>
<g id="a_node8"><a xlink:href="quickjs_8c.html#a1a4c02a29525d5cb2085dd8bca3af350" target="_top" xlink:title="JS_Call">
<polygon fill="none" stroke="#ff0000" points="324.5,-376.5 324.5,-395.5 375.5,-395.5 375.5,-376.5 324.5,-376.5"/>
<text text-anchor="middle" x="350" y="-383.5" font-family="Helvetica,sans-Serif" font-size="10.00" fill="#000000">JS_Call</text>
</a>
</g>
</g>
<!-- Node280063&#45;&gt;Node280076 -->
<g id="edge7" class="edge">
<title>Node280063&#45;&gt;Node280076</title>
<path fill="none" stroke="#191970" d="M254.3098,-354.8704C280.8543,-361.0304 311.5708,-369.5313 330.8918,-376.3626"/>
<polygon fill="#191970" stroke="#191970" points="254.8977,-351.4152 244.373,-352.6325 253.3597,-358.2442 254.8977,-351.4152"/>
</g>
<!-- Node280150 -->
<g id="node28" class="node">
<title>Node280150</title>
<g id="a_node28"><a xlink:href="quickjs_8c.html#ad35594576a14c10812efaf958c99af8a" target="_top" xlink:title="JS_CallConstructorInternal">
<polygon fill="none" stroke="#ff0000" points="283,-262.5 283,-281.5 417,-281.5 417,-262.5 283,-262.5"/>
<text text-anchor="middle" x="350" y="-269.5" font-family="Helvetica,sans-Serif" font-size="10.00" fill="#000000">JS_CallConstructorInternal</text>
</a>
</g>
</g>
<!-- Node280063&#45;&gt;Node280150 -->
<g id="edge33" class="edge">
<title>Node280063&#45;&gt;Node280150</title>
<path fill="none" stroke="#191970" d="M220.9116,-333.8955C229.2853,-329.9127 239.0706,-325.5181 247,-320 266.0956,-306.7112 263.0984,-294.0482 283,-282 283.2069,-281.8748 283.4146,-281.7503 283.6231,-281.6267"/>
<polygon fill="#191970" stroke="#191970" points="219.2805,-330.7982 211.9259,-338.4245 222.4311,-337.0491 219.2805,-330.7982"/>
</g>
<!-- Node280164 -->
<g id="node29" class="node">
<title>Node280164</title>
<g id="a_node29"><a xlink:href="quickjs_8c.html#a75f6ee5e4235a7dc99889f3d2eb2c147" target="_top" xlink:title="JS_CallFree">
<polygon fill="none" stroke="#ff0000" points="314.5,-300.5 314.5,-319.5 385.5,-319.5 385.5,-300.5 314.5,-300.5"/>
<text text-anchor="middle" x="350" y="-307.5" font-family="Helvetica,sans-Serif" font-size="10.00" fill="#000000">JS_CallFree</text>
</a>
</g>
</g>
<!-- Node280063&#45;&gt;Node280164 -->
<g id="edge35" class="edge">
<title>Node280063&#45;&gt;Node280164</title>
<path fill="none" stroke="#191970" d="M231.0003,-335.1955C254.8036,-327.4951 288.8574,-318.5856 314.442,-313.2899"/>
<polygon fill="#191970" stroke="#191970" points="229.8371,-331.8941 221.4811,-338.4076 232.0753,-338.5266 229.8371,-331.8941"/>
</g>
<!-- Node280065 -->
<g id="node4" class="node">
<title>Node280065</title>
<g id="a_node4"><a xlink:href="quickjs_8c.html#ac90552b1f1659acb3dae9a4c62479a30" target="_top" xlink:title="js_generator_function_call">
<polygon fill="none" stroke="#ff0000" points="454.5,-929.5 454.5,-948.5 584.5,-948.5 584.5,-929.5 454.5,-929.5"/>
<text text-anchor="middle" x="519.5" y="-936.5" font-family="Helvetica,sans-Serif" font-size="10.00" fill="#000000">js_generator_function_call</text>
</a>
</g>
</g>
<!-- Node280064&#45;&gt;Node280065 -->
<g id="edge3" class="edge">
<title>Node280064&#45;&gt;Node280065</title>
<path fill="none" stroke="#191970" d="M368.4671,-862.3133C388.1641,-878.9499 420.8865,-904.4617 453,-920 460.782,-923.7654 469.4469,-926.9157 477.8825,-929.499"/>
<polygon fill="#191970" stroke="#191970" points="370.488,-859.4351 360.6226,-855.5717 365.9255,-864.7439 370.488,-859.4351"/>
</g>
<!-- Node280069 -->
<g id="node5" class="node">
<title>Node280069</title>
<g id="a_node5"><a xlink:href="quickjs_8c.html#a1bf6b62983e8fff99c0a5d5a9f486115" target="_top" xlink:title="js_async_function_resume">
<polygon fill="none" stroke="#ff0000" points="453,-792.5 453,-811.5 586,-811.5 586,-792.5 453,-792.5"/>
<text text-anchor="middle" x="519.5" y="-799.5" font-family="Helvetica,sans-Serif" font-size="10.00" fill="#000000">js_async_function_resume</text>
</a>
</g>
</g>
<!-- Node280064&#45;&gt;Node280069 -->
<g id="edge4" class="edge">
<title>Node280064&#45;&gt;Node280069</title>
<path fill="none" stroke="#191970" d="M396.4651,-833.9383C423.6496,-826.8815 457.4877,-818.0976 482.7928,-811.5287"/>
<polygon fill="#191970" stroke="#191970" points="395.5787,-830.5523 386.779,-836.4527 397.3376,-837.3277 395.5787,-830.5523"/>
</g>
<!-- Node280074 -->
<g id="node6" class="node">
<title>Node280074</title>
<g id="a_node6"><a xlink:href="quickjs_8c.html#a89b019c704a2d2914bc30b30a72040b3" target="_top" xlink:title="js_async_generator\l_resume_next">
<polygon fill="none" stroke="#000000" points="469,-880 469,-910 570,-910 570,-880 469,-880"/>
<text text-anchor="start" x="477" y="-898" font-family="Helvetica,sans-Serif" font-size="10.00" fill="#000000">js_async_generator</text>
<text text-anchor="middle" x="519.5" y="-887" font-family="Helvetica,sans-Serif" font-size="10.00" fill="#000000">_resume_next</text>
</a>
</g>
</g>
<!-- Node280064&#45;&gt;Node280074 -->
<g id="edge5" class="edge">
<title>Node280064&#45;&gt;Node280074</title>
<path fill="none" stroke="#191970" d="M392.9372,-858.4125C416.0226,-865.0862 444.6309,-873.3564 468.805,-880.3448"/>
<polygon fill="#191970" stroke="#191970" points="393.6623,-854.9789 383.0837,-855.564 391.7183,-861.7036 393.6623,-854.9789"/>
</g>
<!-- Node280075 -->
<g id="node7" class="node">
<title>Node280075</title>
<g id="a_node7"><a xlink:href="quickjs_8c.html#ae19867da709929c072f05e90301835a4" target="_top" xlink:title="js_async_generator\l_function_call">
<polygon fill="none" stroke="#ff0000" points="469,-831 469,-861 570,-861 570,-831 469,-831"/>
<text text-anchor="start" x="477" y="-849" font-family="Helvetica,sans-Serif" font-size="10.00" fill="#000000">js_async_generator</text>
<text text-anchor="middle" x="519.5" y="-838" font-family="Helvetica,sans-Serif" font-size="10.00" fill="#000000">_function_call</text>
</a>
</g>
</g>
<!-- Node280064&#45;&gt;Node280075 -->
<g id="edge6" class="edge">
<title>Node280064&#45;&gt;Node280075</title>
<path fill="none" stroke="#191970" d="M412.388,-846C430.9885,-846 451.1368,-846 468.8866,-846"/>
<polygon fill="#191970" stroke="#191970" points="412.2387,-842.5001 402.2387,-846 412.2386,-849.5001 412.2387,-842.5001"/>
</g>
<!-- Node280076&#45;&gt;Node280063 -->
<g id="edge15" class="edge">
<title>Node280076&#45;&gt;Node280063</title>
<path fill="none" stroke="#191970" d="M314.5751,-382.7376C285.3249,-376.6906 244.9367,-365.8982 221.4811,-357.5924"/>
<polygon fill="#191970" stroke="#191970" points="313.9241,-386.1765 324.4108,-384.6668 315.2714,-379.3074 313.9241,-386.1765"/>
</g>
<!-- Node280076&#45;&gt;Node280069 -->
<g id="edge16" class="edge">
<title>Node280076&#45;&gt;Node280069</title>
<path fill="none" stroke="#191970" d="M352.5091,-405.6544C362.1087,-477.8895 398.714,-727.3701 453,-783 456.7737,-786.8671 461.2754,-789.9617 466.1327,-792.436"/>
<polygon fill="#191970" stroke="#191970" points="355.9669,-405.1025 351.2018,-395.6397 349.0258,-406.0087 355.9669,-405.1025"/>
</g>
<!-- Node280077 -->
<g id="node9" class="node">
<title>Node280077</title>
<g id="a_node9"><a xlink:href="structqjs_1_1js__traits_3_01std_1_1function_3_01R_07Args_8_8_8_08_4_01_4.html#abc36cacd670b6b5f1773734a0586a02b" target="_top" xlink:title="qjs::js_traits\&lt; std\l::function\&lt; R(Args...)\l\&gt; \&gt;::unwrap">
<polygon fill="none" stroke="#000000" points="465,-316.5 465,-357.5 574,-357.5 574,-316.5 465,-316.5"/>
<text text-anchor="start" x="473" y="-345.5" font-family="Helvetica,sans-Serif" font-size="10.00" fill="#000000">qjs::js_traits&lt; std</text>
<text text-anchor="start" x="473" y="-334.5" font-family="Helvetica,sans-Serif" font-size="10.00" fill="#000000">::function&lt; R(Args...)</text>
<text text-anchor="middle" x="519.5" y="-323.5" font-family="Helvetica,sans-Serif" font-size="10.00" fill="#000000">&gt; &gt;::unwrap</text>
</a>
</g>
</g>
<!-- Node280076&#45;&gt;Node280077 -->
<g id="edge8" class="edge">
<title>Node280076&#45;&gt;Node280077</title>
<path fill="none" stroke="#191970" d="M385.4025,-375.7656C408.3408,-369.1345 438.6805,-360.3637 464.6986,-352.8423"/>
<polygon fill="#191970" stroke="#191970" points="384.378,-372.4184 375.7434,-378.558 386.3221,-379.1431 384.378,-372.4184"/>
</g>
<!-- Node280078 -->
<g id="node10" class="node">
<title>Node280078</title>
<g id="a_node10"><a xlink:href="quickjs-libc_8c.html#abb1cbe3fdf905e81f603a3a0bfce475a" target="_top" xlink:title="call_handler">
<polygon fill="none" stroke="#ff0000" points="485.5,-278.5 485.5,-297.5 553.5,-297.5 553.5,-278.5 485.5,-278.5"/>
<text text-anchor="middle" x="519.5" y="-285.5" font-family="Helvetica,sans-Serif" font-size="10.00" fill="#000000">call_handler</text>
</a>
</g>
</g>
<!-- Node280076&#45;&gt;Node280078 -->
<g id="edge9" class="edge">
<title>Node280076&#45;&gt;Node280078</title>
<path fill="none" stroke="#191970" d="M385.5169,-377.9894C396.3811,-374.3551 407.8625,-369.2036 417,-362 439.943,-343.9127 429.4756,-324.3243 453,-307 462.3782,-300.0935 474.1969,-295.693 485.2602,-292.891"/>
<polygon fill="#191970" stroke="#191970" points="384.3641,-374.6813 375.7979,-380.9159 386.3824,-381.384 384.3641,-374.6813"/>
</g>
<!-- Node280083 -->
<g id="node11" class="node">
<title>Node280083</title>
<g id="a_node11"><a xlink:href="quickjs_8c.html#aa049793cc8648d35fe81876a2543ca4e" target="_top" xlink:title="JS_GetIterator2">
<polygon fill="none" stroke="#ff0000" points="476.5,-240.5 476.5,-259.5 562.5,-259.5 562.5,-240.5 476.5,-240.5"/>
<text text-anchor="middle" x="519.5" y="-247.5" font-family="Helvetica,sans-Serif" font-size="10.00" fill="#000000">JS_GetIterator2</text>
</a>
</g>
</g>
<!-- Node280076&#45;&gt;Node280083 -->
<g id="edge10" class="edge">
<title>Node280076&#45;&gt;Node280083</title>
<path fill="none" stroke="#191970" d="M385.3437,-379.4581C396.6116,-375.8895 408.3784,-370.4056 417,-362 448.7354,-331.0596 420.266,-298.8819 453,-269 459.5622,-263.0095 467.8872,-258.8947 476.4075,-256.0718"/>
<polygon fill="#191970" stroke="#191970" points="384.3722,-376.0953 375.6615,-382.1264 386.232,-382.8437 384.3722,-376.0953"/>
</g>
<!-- Node280105 -->
<g id="node12" class="node">
<title>Node280105</title>
<g id="a_node12"><a xlink:href="quickjs_8c.html#ad6303fbd3add4afa0cb64b0aa6d431ce" target="_top" xlink:title="JS_IteratorNext2">
<polygon fill="none" stroke="#ff0000" points="474,-202.5 474,-221.5 565,-221.5 565,-202.5 474,-202.5"/>
<text text-anchor="middle" x="519.5" y="-209.5" font-family="Helvetica,sans-Serif" font-size="10.00" fill="#000000">JS_IteratorNext2</text>
</a>
</g>
</g>
<!-- Node280076&#45;&gt;Node280105 -->
<g id="edge11" class="edge">
<title>Node280076&#45;&gt;Node280105</title>
<path fill="none" stroke="#191970" d="M385.5761,-380.0309C396.9663,-376.5045 408.7494,-370.9008 417,-362 458.0476,-317.7177 410.5208,-273.9109 453,-231 458.7442,-225.1975 466.1287,-221.137 473.877,-218.3024"/>
<polygon fill="#191970" stroke="#191970" points="384.5389,-376.6849 375.7665,-382.6258 386.329,-383.4521 384.5389,-376.6849"/>
</g>
<!-- Node280109 -->
<g id="node13" class="node">
<title>Node280109</title>
<g id="a_node13"><a xlink:href="quickjs_8c.html#a62424fefab7bcc97f49c978205c7a1c1" target="_top" xlink:title="js_for_await_of_next">
<polygon fill="none" stroke="#000000" points="466,-754.5 466,-773.5 573,-773.5 573,-754.5 466,-754.5"/>
<text text-anchor="middle" x="519.5" y="-761.5" font-family="Helvetica,sans-Serif" font-size="10.00" fill="#000000">js_for_await_of_next</text>
</a>
</g>
</g>
<!-- Node280076&#45;&gt;Node280109 -->
<g id="edge12" class="edge">
<title>Node280076&#45;&gt;Node280109</title>
<path fill="none" stroke="#191970" d="M357.5215,-405.3151C370.8085,-439.9293 398.751,-514.9919 417,-580 437.2862,-652.2651 401.6368,-690.268 453,-745 456.6975,-748.94 461.1498,-752.0819 465.9774,-754.5846"/>
<polygon fill="#191970" stroke="#191970" points="360.6222,-403.6286 353.7534,-395.562 354.0926,-406.1514 360.6222,-403.6286"/>
</g>
<!-- Node280110 -->
<g id="node14" class="node">
<title>Node280110</title>
<g id="a_node14"><a xlink:href="quickjs_8c.html#afd4ef2d701fa0702f321925b61c57bbf" target="_top" xlink:title="js_call_bound_function">
<polygon fill="none" stroke="#ff0000" points="461.5,-164.5 461.5,-183.5 577.5,-183.5 577.5,-164.5 461.5,-164.5"/>
<text text-anchor="middle" x="519.5" y="-171.5" font-family="Helvetica,sans-Serif" font-size="10.00" fill="#000000">js_call_bound_function</text>
</a>
</g>
</g>
<!-- Node280076&#45;&gt;Node280110 -->
<g id="edge14" class="edge">
<title>Node280076&#45;&gt;Node280110</title>
<path fill="none" stroke="#191970" d="M385.6062,-380.3831C397.1056,-376.8852 408.9495,-371.2095 417,-362 467.5432,-304.1808 400.5859,-249.1288 453,-193 456.6058,-189.1387 460.9366,-186.0434 465.6366,-183.5649"/>
<polygon fill="#191970" stroke="#191970" points="384.5076,-377.0516 375.6934,-382.9304 386.2499,-383.8313 384.5076,-377.0516"/>
</g>
<!-- Node280111 -->
<g id="node15" class="node">
<title>Node280111</title>
<g id="a_node15"><a xlink:href="quickjs_8c.html#a3e852026d167fa03c673f86697dd3e67" target="_top" xlink:title="js_async_generator\l_resolve_or_reject">
<polygon fill="none" stroke="#ff0000" points="469,-115 469,-145 570,-145 570,-115 469,-115"/>
<text text-anchor="start" x="477" y="-133" font-family="Helvetica,sans-Serif" font-size="10.00" fill="#000000">js_async_generator</text>
<text text-anchor="middle" x="519.5" y="-122" font-family="Helvetica,sans-Serif" font-size="10.00" fill="#000000">_resolve_or_reject</text>
</a>
</g>
</g>
<!-- Node280076&#45;&gt;Node280111 -->
<g id="edge17" class="edge">
<title>Node280076&#45;&gt;Node280111</title>
<path fill="none" stroke="#191970" d="M385.5338,-380.6336C397.1355,-377.1583 409.0629,-371.4326 417,-362 477.1226,-290.5488 393.4375,-226.9187 453,-155 457.327,-149.7754 462.8642,-145.6418 468.8919,-142.3716"/>
<polygon fill="#191970" stroke="#191970" points="384.3773,-377.3153 375.5306,-383.1451 386.0819,-384.1046 384.3773,-377.3153"/>
</g>
<!-- Node280114 -->
<g id="node16" class="node">
<title>Node280114</title>
<g id="a_node16"><a xlink:href="quickjs_8c.html#a2355fabf91f59212ea65baba1b0b7c1b" target="_top" xlink:title="js_async_generator_next">
<polygon fill="none" stroke="#000000" points="457,-716.5 457,-735.5 582,-735.5 582,-716.5 457,-716.5"/>
<text text-anchor="middle" x="519.5" y="-723.5" font-family="Helvetica,sans-Serif" font-size="10.00" fill="#000000">js_async_generator_next</text>
</a>
</g>
</g>
<!-- Node280076&#45;&gt;Node280114 -->
<g id="edge18" class="edge">
<title>Node280076&#45;&gt;Node280114</title>
<path fill="none" stroke="#191970" d="M357.1192,-405.4347C369.7761,-440.2363 396.764,-515.5827 417,-580 434.5829,-635.9716 411.5584,-665.4721 453,-707 456.8167,-710.8246 461.3463,-713.8917 466.2204,-716.3495"/>
<polygon fill="#191970" stroke="#191970" points="360.2558,-403.8199 353.5401,-395.6254 353.6799,-406.2193 360.2558,-403.8199"/>
</g>
<!-- Node280115 -->
<g id="node17" class="node">
<title>Node280115</title>
<g id="a_node17"><a xlink:href="quickjs_8c.html#a6357b7fdae71c70c140e78e6c20cb5c2" target="_top" xlink:title="js_dynamic_import_job">
<polygon fill="none" stroke="#ff0000" points="461.5,-678.5 461.5,-697.5 577.5,-697.5 577.5,-678.5 461.5,-678.5"/>
<text text-anchor="middle" x="519.5" y="-685.5" font-family="Helvetica,sans-Serif" font-size="10.00" fill="#000000">js_dynamic_import_job</text>
</a>
</g>
</g>
<!-- Node280076&#45;&gt;Node280115 -->
<g id="edge19" class="edge">
<title>Node280076&#45;&gt;Node280115</title>
<path fill="none" stroke="#191970" d="M356.5391,-405.458C377.5799,-467.8587 442.7598,-659.4599 453,-669 457.1291,-672.8468 461.9835,-675.9215 467.1578,-678.378"/>
<polygon fill="#191970" stroke="#191970" points="359.7559,-404.0432 353.2479,-395.6828 353.1218,-406.2769 359.7559,-404.0432"/>
</g>
<!-- Node280117 -->
<g id="node18" class="node">
<title>Node280117</title>
<g id="a_node18"><a xlink:href="quickjs_8c.html#a8d4b24969540aff427939eeda47f451d" target="_top" xlink:title="js_function_apply">
<polygon fill="none" stroke="#ff0000" points="473.5,-76.5 473.5,-95.5 565.5,-95.5 565.5,-76.5 473.5,-76.5"/>
<text text-anchor="middle" x="519.5" y="-83.5" font-family="Helvetica,sans-Serif" font-size="10.00" fill="#000000">js_function_apply</text>
</a>
</g>
</g>
<!-- Node280076&#45;&gt;Node280117 -->
<g id="edge20" class="edge">
<title>Node280076&#45;&gt;Node280117</title>
<path fill="none" stroke="#191970" d="M385.7061,-380.7762C397.3237,-377.3141 409.2171,-371.5603 417,-362 489.5382,-272.8956 378.1776,-193.1951 453,-106 458.3387,-99.7785 465.5332,-95.4511 473.221,-92.4504"/>
<polygon fill="#191970" stroke="#191970" points="384.5393,-377.4596 375.6779,-383.2669 386.2267,-384.2532 384.5393,-377.4596"/>
</g>
<!-- Node280120 -->
<g id="node19" class="node">
<title>Node280120</title>
<g id="a_node19"><a xlink:href="quickjs_8c.html#a677ad630a103e1f3d5129e0549112b50" target="_top" xlink:title="js_function_call">
<polygon fill="none" stroke="#000000" points="477.5,-640.5 477.5,-659.5 561.5,-659.5 561.5,-640.5 477.5,-640.5"/>
<text text-anchor="middle" x="519.5" y="-647.5" font-family="Helvetica,sans-Serif" font-size="10.00" fill="#000000">js_function_call</text>
</a>
</g>
</g>
<!-- Node280076&#45;&gt;Node280120 -->
<g id="edge22" class="edge">
<title>Node280076&#45;&gt;Node280120</title>
<path fill="none" stroke="#191970" d="M355.7821,-405.4589C371.6621,-457.6965 417.1476,-599.2006 453,-631 459.827,-637.0552 468.4614,-641.1897 477.2284,-644.0102"/>
<polygon fill="#191970" stroke="#191970" points="359.0901,-404.3057 352.8569,-395.7384 352.3871,-406.3228 359.0901,-404.3057"/>
</g>
<!-- Node280098 -->
<g id="node20" class="node">
<title>Node280098</title>
<g id="a_node20"><a xlink:href="quickjs_8c.html#a5e32da9a43002cb96dcbd62a1a340144" target="_top" xlink:title="js_array_from">
<polygon fill="none" stroke="#000000" points="481.5,-602.5 481.5,-621.5 557.5,-621.5 557.5,-602.5 481.5,-602.5"/>
<text text-anchor="middle" x="519.5" y="-609.5" font-family="Helvetica,sans-Serif" font-size="10.00" fill="#000000">js_array_from</text>
</a>
</g>
</g>
<!-- Node280076&#45;&gt;Node280098 -->
<g id="edge23" class="edge">
<title>Node280076&#45;&gt;Node280098</title>
<path fill="none" stroke="#191970" d="M354.0755,-405.3235C363.7343,-446.2814 391.9332,-542.2192 453,-593 461.032,-599.6791 471.2851,-604.0129 481.322,-606.824"/>
<polygon fill="#191970" stroke="#191970" points="357.4806,-404.5122 351.8754,-395.5216 350.6506,-406.0453 357.4806,-404.5122"/>
</g>
<!-- Node280088 -->
<g id="node21" class="node">
<title>Node280088</title>
<g id="a_node21"><a xlink:href="quickjs_8c.html#aa0bbf08a7e91459c68a312fba7016c6d" target="_top" xlink:title="js_array_every">
<polygon fill="none" stroke="#000000" points="479.5,-564.5 479.5,-583.5 559.5,-583.5 559.5,-564.5 479.5,-564.5"/>
<text text-anchor="middle" x="519.5" y="-571.5" font-family="Helvetica,sans-Serif" font-size="10.00" fill="#000000">js_array_every</text>
</a>
</g>
</g>
<!-- Node280076&#45;&gt;Node280088 -->
<g id="edge24" class="edge">
<title>Node280076&#45;&gt;Node280088</title>
<path fill="none" stroke="#191970" d="M356.4074,-405.3415C369.0788,-440.5625 400.7297,-515.1919 453,-555 460.6419,-560.8199 470.0017,-564.8578 479.2595,-567.6592"/>
<polygon fill="#191970" stroke="#191970" points="359.667,-404.0584 353.0824,-395.7581 353.0537,-406.3529 359.667,-404.0584"/>
</g>
<!-- Node280121 -->
<g id="node22" class="node">
<title>Node280121</title>
<g id="a_node22"><a xlink:href="quickjs_8c.html#a36c1692489542a86dd79a7d39ab8ff95" target="_top" xlink:title="js_array_reduce">
<polygon fill="none" stroke="#000000" points="476.5,-526.5 476.5,-545.5 562.5,-545.5 562.5,-526.5 476.5,-526.5"/>
<text text-anchor="middle" x="519.5" y="-533.5" font-family="Helvetica,sans-Serif" font-size="10.00" fill="#000000">js_array_reduce</text>
</a>
</g>
</g>
<!-- Node280076&#45;&gt;Node280121 -->
<g id="edge25" class="edge">
<title>Node280076&#45;&gt;Node280121</title>
<path fill="none" stroke="#191970" d="M359.5306,-404.5039C375.1607,-432.9999 408.9568,-487.4216 453,-517 459.9775,-521.6859 468.1113,-525.2299 476.2473,-527.9059"/>
<polygon fill="#191970" stroke="#191970" points="362.5689,-402.7631 354.7726,-395.5889 356.3933,-406.0591 362.5689,-402.7631"/>
</g>
<!-- Node280122 -->
<g id="node23" class="node">
<title>Node280122</title>
<g id="a_node23"><a xlink:href="quickjs_8c.html#a9dd41b086da4e13b3487cc9c6e2af2b8" target="_top" xlink:title="js_array_find">
<polygon fill="none" stroke="#000000" points="483.5,-488.5 483.5,-507.5 555.5,-507.5 555.5,-488.5 483.5,-488.5"/>
<text text-anchor="middle" x="519.5" y="-495.5" font-family="Helvetica,sans-Serif" font-size="10.00" fill="#000000">js_array_find</text>
</a>
</g>
</g>
<!-- Node280076&#45;&gt;Node280122 -->
<g id="edge26" class="edge">
<title>Node280076&#45;&gt;Node280122</title>
<path fill="none" stroke="#191970" d="M364.7694,-403.5222C383.3129,-424.4365 417.0752,-459.0764 453,-479 462.3454,-484.1829 473.2303,-488.0584 483.4548,-490.9093"/>
<polygon fill="#191970" stroke="#191970" points="367.2051,-400.989 358.0056,-395.7336 361.9199,-405.5788 367.2051,-400.989"/>
</g>
<!-- Node280123 -->
<g id="node24" class="node">
<title>Node280123</title>
<g id="a_node24"><a xlink:href="quickjs_8c.html#ad90c33b4aae1181151bda4a98ac2ef23" target="_top" xlink:title="JS_FlattenIntoArray">
<polygon fill="none" stroke="#ff0000" points="467.5,-432.5 467.5,-451.5 571.5,-451.5 571.5,-432.5 467.5,-432.5"/>
<text text-anchor="middle" x="519.5" y="-439.5" font-family="Helvetica,sans-Serif" font-size="10.00" fill="#000000">JS_FlattenIntoArray</text>
</a>
</g>
</g>
<!-- Node280076&#45;&gt;Node280123 -->
<g id="edge27" class="edge">
<title>Node280076&#45;&gt;Node280123</title>
<path fill="none" stroke="#191970" d="M384.7903,-399.1494C404.6594,-406.4948 430.1017,-415.625 453,-423 463.1718,-426.2761 474.3085,-429.5707 484.5098,-432.475"/>
<polygon fill="#191970" stroke="#191970" points="385.8289,-395.8015 375.2361,-395.5963 383.3889,-402.3625 385.8289,-395.8015"/>
</g>
<!-- Node280125 -->
<g id="node25" class="node">
<title>Node280125</title>
<g id="a_node25"><a xlink:href="quickjs_8c.html#aed1bf9ce4b9e3a82388679dd6ec7635b" target="_top" xlink:title="js_string_replace">
<polygon fill="none" stroke="#000000" points="474.5,-.5 474.5,-19.5 564.5,-19.5 564.5,-.5 474.5,-.5"/>
<text text-anchor="middle" x="519.5" y="-7.5" font-family="Helvetica,sans-Serif" font-size="10.00" fill="#000000">js_string_replace</text>
</a>
</g>
</g>
<!-- Node280076&#45;&gt;Node280125 -->
<g id="edge29" class="edge">
<title>Node280076&#45;&gt;Node280125</title>
<path fill="none" stroke="#191970" d="M375.8856,-370.8841C390.4752,-360.9214 407.609,-346.4946 417,-329 480.514,-210.6794 365.8772,-131.1929 453,-29 458.5308,-22.5125 466.1088,-18.1621 474.1732,-15.2624"/>
<polygon fill="#191970" stroke="#191970" points="373.711,-368.1226 367.2222,-376.4979 377.5177,-373.9971 373.711,-368.1226"/>
</g>
<!-- Node280126 -->
<g id="node26" class="node">
<title>Node280126</title>
<g id="a_node26"><a xlink:href="quickjs_8c.html#a624282391413d4c5a030adbd8b77aa80" target="_top" xlink:title="internalize_json_property">
<polygon fill="none" stroke="#ff0000" points="457,-376.5 457,-395.5 582,-395.5 582,-376.5 457,-376.5"/>
<text text-anchor="middle" x="519.5" y="-383.5" font-family="Helvetica,sans-Serif" font-size="10.00" fill="#000000">internalize_json_property</text>
</a>
</g>
</g>
<!-- Node280076&#45;&gt;Node280126 -->
<g id="edge30" class="edge">
<title>Node280076&#45;&gt;Node280126</title>
<path fill="none" stroke="#191970" d="M385.9311,-386C406.5135,-386 432.9253,-386 456.8209,-386"/>
<polygon fill="#191970" stroke="#191970" points="385.7434,-382.5001 375.7434,-386 385.7434,-389.5001 385.7434,-382.5001"/>
</g>
<!-- Node280128 -->
<g id="node27" class="node">
<title>Node280128</title>
<g id="a_node27"><a xlink:href="quickjs_8c.html#a0da6493b4bc0edb7ddddfab807241d0b" target="_top" xlink:title="js_json_check">
<polygon fill="none" stroke="#ff0000" points="480,-38.5 480,-57.5 559,-57.5 559,-38.5 480,-38.5"/>
<text text-anchor="middle" x="519.5" y="-45.5" font-family="Helvetica,sans-Serif" font-size="10.00" fill="#000000">js_json_check</text>
</a>
</g>
</g>
<!-- Node280076&#45;&gt;Node280128 -->
<g id="edge32" class="edge">
<title>Node280076&#45;&gt;Node280128</title>
<path fill="none" stroke="#191970" d="M375.777,-370.8252C390.3281,-360.8417 407.4596,-346.4136 417,-329 473.4757,-225.9184 375.982,-155.7893 453,-67 459.8449,-59.1089 469.7178,-54.3869 479.77,-51.5914"/>
<polygon fill="#191970" stroke="#191970" points="373.6077,-368.0613 367.1413,-376.454 377.43,-373.9256 373.6077,-368.0613"/>
</g>
<!-- Node280109&#45;&gt;Node280063 -->
<g id="edge13" class="edge">
<title>Node280109&#45;&gt;Node280063</title>
<path fill="none" stroke="#191970" d="M461.0185,-750.109C458.2071,-748.5802 455.5132,-746.8834 453,-745 378.0001,-688.7967 235.5646,-413.1293 207.406,-357.7141"/>
<polygon fill="#191970" stroke="#191970" points="459.7774,-753.3919 470.32,-754.4422 462.7334,-747.0467 459.7774,-753.3919"/>
</g>
<!-- Node280117&#45;&gt;Node280063 -->
<g id="edge21" class="edge">
<title>Node280117&#45;&gt;Node280063</title>
<path fill="none" stroke="#191970" d="M464.2667,-96.8714C460.057,-99.3344 456.2072,-102.3384 453,-106 386.8505,-181.5199 490.4885,-260.6008 417,-329 370.204,-372.5552 290.2185,-366.4008 242.262,-357.5122"/>
<polygon fill="#191970" stroke="#191970" points="465.8126,-100.0118 473.3229,-92.5388 462.7916,-93.6973 465.8126,-100.0118"/>
</g>
<!-- Node280123&#45;&gt;Node280123 -->
<g id="edge28" class="edge">
<title>Node280123&#45;&gt;Node280123</title>
<path fill="none" stroke="#191970" d="M488.0629,-460.2746C488.9592,-465.741 499.4382,-470 519.5,-470 549.3594,-470 557.9906,-460.5653 545.3937,-451.7571"/>
<polygon fill="#191970" stroke="#191970" points="491.085,-462.0475 493.6063,-451.7571 485.2181,-458.2291 491.085,-462.0475"/>
</g>
<!-- Node280126&#45;&gt;Node280126 -->
<g id="edge31" class="edge">
<title>Node280126&#45;&gt;Node280126</title>
<path fill="none" stroke="#191970" d="M488.0629,-404.2746C488.9592,-409.741 499.4382,-414 519.5,-414 549.3594,-414 557.9906,-404.5653 545.3937,-395.7571"/>
<polygon fill="#191970" stroke="#191970" points="491.085,-406.0475 493.6063,-395.7571 485.2181,-402.2291 491.085,-406.0475"/>
</g>
<!-- Node280150&#45;&gt;Node280063 -->
<g id="edge34" class="edge">
<title>Node280150&#45;&gt;Node280063</title>
<path fill="none" stroke="#191970" d="M323.0816,-284.3291C310.2826,-288.031 295.1602,-292.6383 283,-300 263.0984,-312.0482 266.0956,-324.7112 247,-338 246.0347,-338.6718 245.0419,-339.3269 244.0274,-339.9637"/>
<polygon fill="#191970" stroke="#191970" points="324.1217,-287.6717 332.747,-281.519 322.1674,-280.95 324.1217,-287.6717"/>
</g>
<!-- Node280164&#45;&gt;Node280063 -->
<g id="edge36" class="edge">
<title>Node280164&#45;&gt;Node280063</title>
<path fill="none" stroke="#191970" d="M321.1991,-322.9016C299.3279,-329.9608 268.9308,-338.0164 244.373,-343.3675"/>
<polygon fill="#191970" stroke="#191970" points="322.5318,-326.146 330.8918,-319.6374 320.2977,-319.5121 322.5318,-326.146"/>
</g>
<!-- Node280164&#45;&gt;Node280125 -->
<g id="edge38" class="edge">
<title>Node280164&#45;&gt;Node280125</title>
<path fill="none" stroke="#191970" d="M395.5215,-304.7437C403.6736,-301.8449 411.3563,-297.4934 417,-291 494.1055,-202.2867 375.982,-117.7893 453,-29 458.5861,-22.5601 466.1888,-18.2309 474.2599,-15.3369"/>
<polygon fill="#191970" stroke="#191970" points="394.4792,-301.4014 385.8301,-307.5204 396.4073,-308.1306 394.4792,-301.4014"/>
</g>
<!-- Node280164&#45;&gt;Node280128 -->
<g id="edge37" class="edge">
<title>Node280164&#45;&gt;Node280128</title>
<path fill="none" stroke="#191970" d="M395.4063,-304.6424C403.5672,-301.7514 411.2826,-297.4286 417,-291 484.01,-215.6544 386.0643,-142.4117 453,-67 459.9345,-59.1874 469.836,-54.4906 479.887,-51.694"/>
<polygon fill="#191970" stroke="#191970" points="394.3639,-301.3001 385.7144,-307.4188 396.2916,-308.0295 394.3639,-301.3001"/>
</g>
</g>
</svg>
        <g id="navigator" transform="translate(0 0)" fill="#404254">
                <rect fill="#f2f5e9" fill-opacity="0.5" stroke="#606060" stroke-width=".5" x="0" y="0" width="60" height="60"/>
                <use id="zoomplus" xlink:href="#zoomPlus" x="17" y="9" onmousedown="handleZoom(evt,'in')"/>
                <use id="zoomminus" xlink:href="#zoomMin" x="42" y="9" onmousedown="handleZoom(evt,'out')"/>
                <use id="reset" xlink:href="#resetDef" x="30" y="36" onmousedown="handleReset()"/>
                <g id="arrowUp" xlink:href="#dirArrow" transform="translate(30 24)" onmousedown="handlePan(0,-1)">
                  <use xlink:href="#rim" fill="#404040">
                        <set attributeName="fill" to="#808080" begin="arrowUp.mouseover" end="arrowUp.mouseout"/>
                  </use>
                  <path fill="none" stroke="white" stroke-width="1.5" d="M0,-3.0v7 M-2.5,-0.5L0,-3.0L2.5,-0.5"/>
                </g>
                <g id="arrowRight" xlink:href="#dirArrow" transform="rotate(90) translate(36 -43)" onmousedown="handlePan(1,0)">
                  <use xlink:href="#rim" fill="#404040">
                        <set attributeName="fill" to="#808080" begin="arrowRight.mouseover" end="arrowRight.mouseout"/>
                  </use>
                  <path fill="none" stroke="white" stroke-width="1.5" d="M0,-3.0v7 M-2.5,-0.5L0,-3.0L2.5,-0.5"/>
                </g>
                <g id="arrowDown" xlink:href="#dirArrow" transform="rotate(180) translate(-30 -48)" onmousedown="handlePan(0,1)">
                  <use xlink:href="#rim" fill="#404040">
                        <set attributeName="fill" to="#808080" begin="arrowDown.mouseover" end="arrowDown.mouseout"/>
                  </use>
                  <path fill="none" stroke="white" stroke-width="1.5" d="M0,-3.0v7 M-2.5,-0.5L0,-3.0L2.5,-0.5"/>
                </g>
                <g id="arrowLeft" xlink:href="#dirArrow" transform="rotate(270) translate(-36 17)" onmousedown="handlePan(-1,0)">
                  <use xlink:href="#rim" fill="#404040">
                        <set attributeName="fill" to="#808080" begin="arrowLeft.mouseover" end="arrowLeft.mouseout"/>
                  </use>
                  <path fill="none" stroke="white" stroke-width="1.5" d="M0,-3.0v7 M-2.5,-0.5L0,-3.0L2.5,-0.5"/>
                </g>
        </g>
        <svg viewBox="0 0 15 15" width="100%" height="30px" preserveAspectRatio="xMaxYMin meet">
         <g id="arrow_out" transform="scale(0.3 0.3)">
          <a xlink:href="quickjs_8c_a3b754d750c7f3123e85f4a2e748de023_icgraph_org.svg" target="_base">
           <rect id="button" ry="5" rx="5" y="6" x="6" height="38" width="38"
                fill="#f2f5e9" fill-opacity="0.5" stroke="#606060" stroke-width="1.0"/>
           <path id="arrow"
             d="M 11.500037,31.436501 C 11.940474,20.09759 22.043105,11.32322 32.158766,21.979434 L 37.068811,17.246167 C 37.068811,17.246167 37.088388,32 37.088388,32 L 22.160133,31.978069 C 22.160133,31.978069 26.997745,27.140456 26.997745,27.140456 C 18.528582,18.264221 13.291696,25.230495 11.500037,31.436501 z"
             style="fill:#404040;"/>
          </a>
         </g>
        </svg>
</svg>
