<?xml version="1.0" encoding="UTF-8" standalone="no"?>
<!DOCTYPE svg PUBLIC "-//W3C//DTD SVG 1.1//EN"
 "http://www.w3.org/Graphics/SVG/1.1/DTD/svg11.dtd">
<!-- Generated by graphviz version 2.40.1 (20161225.0304)
 -->
<!-- Title: JS_AtomGetKind Pages: 1 -->
<svg width="607pt" height="468pt"
 viewBox="0.00 0.00 607.00 467.50" xmlns="http://www.w3.org/2000/svg" xmlns:xlink="http://www.w3.org/1999/xlink">
<g id="graph0" class="graph" transform="scale(1 1) rotate(0) translate(4 463.5)">
<title>JS_AtomGetKind</title>
<!-- Node78317 -->
<g id="node1" class="node">
<title>Node78317</title>
<polygon fill="#bfbfbf" stroke="#000000" points="0,-245 0,-264 92,-264 92,-245 0,-245"/>
<text text-anchor="middle" x="46" y="-252" font-family="Helvetica,sans-Serif" font-size="10.00" fill="#000000">JS_AtomGetKind</text>
</g>
<!-- Node78318 -->
<g id="node2" class="node">
<title>Node78318</title>
<g id="a_node2"><a xlink:href="quickjs_8c.html#a0cb22a5238646cb008179fa2ad24827d" target="_top" xlink:title="JS_AtomIsString">
<polygon fill="none" stroke="#000000" points="167.5,-343 167.5,-362 258.5,-362 258.5,-343 167.5,-343"/>
<text text-anchor="middle" x="213" y="-350" font-family="Helvetica,sans-Serif" font-size="10.00" fill="#000000">JS_AtomIsString</text>
</a>
</g>
</g>
<!-- Node78317&#45;&gt;Node78318 -->
<g id="edge1" class="edge">
<title>Node78317&#45;&gt;Node78318</title>
<path fill="none" stroke="#191970" d="M71.3261,-269.362C105.9313,-289.6693 167.0338,-325.5258 196.3697,-342.7409"/>
<polygon fill="#191970" stroke="#191970" points="72.7128,-266.1177 62.3167,-264.0751 69.17,-272.1549 72.7128,-266.1177"/>
</g>
<!-- Node78321 -->
<g id="node5" class="node">
<title>Node78321</title>
<g id="a_node5"><a xlink:href="quickjs_8c.html#a176ac5ff56a118a0b1b2566798d28823" target="_top" xlink:title="JS_GetOwnPropertyNamesInternal">
<polygon fill="none" stroke="#000000" points="128,-226 128,-245 298,-245 298,-226 128,-226"/>
<text text-anchor="middle" x="213" y="-233" font-family="Helvetica,sans-Serif" font-size="10.00" fill="#000000">JS_GetOwnPropertyNamesInternal</text>
</a>
</g>
</g>
<!-- Node78317&#45;&gt;Node78321 -->
<g id="edge5" class="edge">
<title>Node78317&#45;&gt;Node78321</title>
<path fill="none" stroke="#191970" d="M102.1115,-248.1161C110.86,-247.1207 120.0596,-246.0741 129.263,-245.027"/>
<polygon fill="#191970" stroke="#191970" points="101.6158,-244.6498 92.0756,-249.2579 102.4071,-251.6049 101.6158,-244.6498"/>
</g>
<!-- Node78319 -->
<g id="node3" class="node">
<title>Node78319</title>
<g id="a_node3"><a xlink:href="quickjs_8c.html#aa9342f7444c1c9f8743d43aa4d7f89e3" target="_top" xlink:title="JS_WriteObjectRec">
<polygon fill="none" stroke="#000000" points="353.5,-422 353.5,-441 457.5,-441 457.5,-422 353.5,-422"/>
<text text-anchor="middle" x="405.5" y="-429" font-family="Helvetica,sans-Serif" font-size="10.00" fill="#000000">JS_WriteObjectRec</text>
</a>
</g>
</g>
<!-- Node78318&#45;&gt;Node78319 -->
<g id="edge2" class="edge">
<title>Node78318&#45;&gt;Node78319</title>
<path fill="none" stroke="#191970" d="M238.5838,-367.0735C262.6233,-380.3077 299.9038,-399.6648 334,-412.5 343.4962,-416.0748 353.9404,-419.2526 363.8432,-421.9381"/>
<polygon fill="#191970" stroke="#191970" points="240.1889,-363.9613 229.7489,-362.1565 236.7847,-370.0779 240.1889,-363.9613"/>
</g>
<!-- Node78319&#45;&gt;Node78319 -->
<g id="edge3" class="edge">
<title>Node78319&#45;&gt;Node78319</title>
<path fill="none" stroke="#191970" d="M377.5009,-450.1539C378.6712,-455.4368 388.0043,-459.5 405.5,-459.5 432.1602,-459.5 439.8666,-450.0653 428.6194,-441.2571"/>
<polygon fill="#191970" stroke="#191970" points="380.6403,-451.708 382.3806,-441.2571 374.5029,-448.3417 380.6403,-451.708"/>
</g>
<!-- Node78320 -->
<g id="node4" class="node">
<title>Node78320</title>
<g id="a_node4"><a xlink:href="quickjs_8c.html#a8c807d481615ed55818787ae89621a37" target="_top" xlink:title="JS_WriteObject">
<polygon fill="none" stroke="#000000" points="513,-422 513,-441 599,-441 599,-422 513,-422"/>
<text text-anchor="middle" x="556" y="-429" font-family="Helvetica,sans-Serif" font-size="10.00" fill="#000000">JS_WriteObject</text>
</a>
</g>
</g>
<!-- Node78319&#45;&gt;Node78320 -->
<g id="edge4" class="edge">
<title>Node78319&#45;&gt;Node78320</title>
<path fill="none" stroke="#191970" d="M468.0136,-431.5C483.096,-431.5 498.8815,-431.5 512.8507,-431.5"/>
<polygon fill="#191970" stroke="#191970" points="467.7153,-428.0001 457.7152,-431.5 467.7152,-435.0001 467.7153,-428.0001"/>
</g>
<!-- Node78322 -->
<g id="node6" class="node">
<title>Node78322</title>
<g id="a_node6"><a xlink:href="quickjs_8c.html#a160229a9daaaf70e287d6dadb69bc609" target="_top" xlink:title="JS_GetOwnPropertyNames">
<polygon fill="none" stroke="#000000" points="336.5,-384 336.5,-403 474.5,-403 474.5,-384 336.5,-384"/>
<text text-anchor="middle" x="405.5" y="-391" font-family="Helvetica,sans-Serif" font-size="10.00" fill="#000000">JS_GetOwnPropertyNames</text>
</a>
</g>
</g>
<!-- Node78321&#45;&gt;Node78322 -->
<g id="edge6" class="edge">
<title>Node78321&#45;&gt;Node78322</title>
<path fill="none" stroke="#191970" d="M228.1782,-253.0021C260.4767,-290.237 333.1554,-373.9739 334,-374.5 340.214,-378.371 347.2055,-381.4601 354.3202,-383.9237"/>
<polygon fill="#191970" stroke="#191970" points="230.4429,-250.2714 221.2466,-245.0103 225.1548,-254.858 230.4429,-250.2714"/>
</g>
<!-- Node78325 -->
<g id="node8" class="node">
<title>Node78325</title>
<g id="a_node8"><a xlink:href="quickjs_8c.html#aa40a5354bee3b56e05a71244910bcc78" target="_top" xlink:title="build_for_in_iterator">
<polygon fill="none" stroke="#000000" points="355,-346 355,-365 456,-365 456,-346 355,-346"/>
<text text-anchor="middle" x="405.5" y="-353" font-family="Helvetica,sans-Serif" font-size="10.00" fill="#000000">build_for_in_iterator</text>
</a>
</g>
</g>
<!-- Node78321&#45;&gt;Node78325 -->
<g id="edge8" class="edge">
<title>Node78321&#45;&gt;Node78325</title>
<path fill="none" stroke="#191970" d="M228.7352,-252.6496C250.3333,-275.1702 291.3632,-314.4305 334,-336.5 341.4142,-340.3377 349.6729,-343.4515 357.8692,-345.9616"/>
<polygon fill="#191970" stroke="#191970" points="231.0953,-250.0506 221.6902,-245.1727 226.0006,-254.8511 231.0953,-250.0506"/>
</g>
<!-- Node78444 -->
<g id="node10" class="node">
<title>Node78444</title>
<g id="a_node10"><a xlink:href="quickjs_8c.html#a3b754d750c7f3123e85f4a2e748de023" target="_top" xlink:title="JS_CopyDataProperties">
<polygon fill="none" stroke="#ff0000" points="344.5,-308 344.5,-327 466.5,-327 466.5,-308 344.5,-308"/>
<text text-anchor="middle" x="405.5" y="-315" font-family="Helvetica,sans-Serif" font-size="10.00" fill="#000000">JS_CopyDataProperties</text>
</a>
</g>
</g>
<!-- Node78321&#45;&gt;Node78444 -->
<g id="edge10" class="edge">
<title>Node78321&#45;&gt;Node78444</title>
<path fill="none" stroke="#191970" d="M237.2706,-250.175C261.1851,-264.1386 299.1053,-284.9702 334,-298.5 343.3408,-302.1217 353.6272,-305.3003 363.4158,-307.9696"/>
<polygon fill="#191970" stroke="#191970" points="238.9175,-247.0829 228.5273,-245.0105 235.3574,-253.11 238.9175,-247.0829"/>
</g>
<!-- Node78585 -->
<g id="node11" class="node">
<title>Node78585</title>
<g id="a_node11"><a xlink:href="quickjs_8c.html#ab2de4cc7a9e58c7a6220acf9e4769d62" target="_top" xlink:title="JS_ObjectDefineProperties">
<polygon fill="none" stroke="#ff0000" points="338,-270 338,-289 473,-289 473,-270 338,-270"/>
<text text-anchor="middle" x="405.5" y="-277" font-family="Helvetica,sans-Serif" font-size="10.00" fill="#000000">JS_ObjectDefineProperties</text>
</a>
</g>
</g>
<!-- Node78321&#45;&gt;Node78585 -->
<g id="edge11" class="edge">
<title>Node78321&#45;&gt;Node78585</title>
<path fill="none" stroke="#191970" d="M264.5554,-247.2841C295.6304,-254.3869 334.6949,-263.316 363.8119,-269.9713"/>
<polygon fill="#191970" stroke="#191970" points="265.2981,-243.8637 254.7696,-245.0473 263.7383,-250.6877 265.2981,-243.8637"/>
</g>
<!-- Node78594 -->
<g id="node12" class="node">
<title>Node78594</title>
<g id="a_node12"><a xlink:href="quickjs_8c.html#ad4eec5e88dc04d884c28e0f09d9a81f5" target="_top" xlink:title="js_object_getOwnProperty\lDescriptors">
<polygon fill="none" stroke="#000000" points="340,-220.5 340,-250.5 471,-250.5 471,-220.5 340,-220.5"/>
<text text-anchor="start" x="348" y="-238.5" font-family="Helvetica,sans-Serif" font-size="10.00" fill="#000000">js_object_getOwnProperty</text>
<text text-anchor="middle" x="405.5" y="-227.5" font-family="Helvetica,sans-Serif" font-size="10.00" fill="#000000">Descriptors</text>
</a>
</g>
</g>
<!-- Node78321&#45;&gt;Node78594 -->
<g id="edge12" class="edge">
<title>Node78321&#45;&gt;Node78594</title>
<path fill="none" stroke="#191970" d="M308.4684,-235.5C319.1233,-235.5 329.7909,-235.5 339.9489,-235.5"/>
<polygon fill="#191970" stroke="#191970" points="308.274,-232.0001 298.274,-235.5 308.2739,-239.0001 308.274,-232.0001"/>
</g>
<!-- Node78541 -->
<g id="node13" class="node">
<title>Node78541</title>
<g id="a_node13"><a xlink:href="quickjs_8c.html#a79c9d633e8f9d5fd70546406b9e6f176" target="_top" xlink:title="JS_GetOwnPropertyNames2">
<polygon fill="none" stroke="#ff0000" points="334,-182 334,-201 477,-201 477,-182 334,-182"/>
<text text-anchor="middle" x="405.5" y="-189" font-family="Helvetica,sans-Serif" font-size="10.00" fill="#000000">JS_GetOwnPropertyNames2</text>
</a>
</g>
</g>
<!-- Node78321&#45;&gt;Node78541 -->
<g id="edge13" class="edge">
<title>Node78321&#45;&gt;Node78541</title>
<path fill="none" stroke="#191970" d="M264.5554,-223.7159C295.6304,-216.6131 334.6949,-207.684 363.8119,-201.0287"/>
<polygon fill="#191970" stroke="#191970" points="263.7383,-220.3123 254.7696,-225.9527 265.2981,-227.1363 263.7383,-220.3123"/>
</g>
<!-- Node78598 -->
<g id="node14" class="node">
<title>Node78598</title>
<g id="a_node14"><a xlink:href="quickjs_8c.html#a3b1f61e0c2e39eb52d8b1c5c8713873e" target="_top" xlink:title="js_object_seal">
<polygon fill="none" stroke="#ff0000" points="366,-144 366,-163 445,-163 445,-144 366,-144"/>
<text text-anchor="middle" x="405.5" y="-151" font-family="Helvetica,sans-Serif" font-size="10.00" fill="#000000">js_object_seal</text>
</a>
</g>
</g>
<!-- Node78321&#45;&gt;Node78598 -->
<g id="edge14" class="edge">
<title>Node78321&#45;&gt;Node78598</title>
<path fill="none" stroke="#191970" d="M237.2706,-220.825C261.1851,-206.8614 299.1053,-186.0298 334,-172.5 344.0593,-168.5997 355.2153,-165.2133 365.6652,-162.4235"/>
<polygon fill="#191970" stroke="#191970" points="235.3574,-217.89 228.5273,-225.9895 238.9175,-223.9171 235.3574,-217.89"/>
</g>
<!-- Node78596 -->
<g id="node15" class="node">
<title>Node78596</title>
<g id="a_node15"><a xlink:href="quickjs_8c.html#a43a4ecde0329def8ff22e9341c7b109d" target="_top" xlink:title="js_object_isSealed">
<polygon fill="none" stroke="#000000" points="356.5,-106 356.5,-125 454.5,-125 454.5,-106 356.5,-106"/>
<text text-anchor="middle" x="405.5" y="-113" font-family="Helvetica,sans-Serif" font-size="10.00" fill="#000000">js_object_isSealed</text>
</a>
</g>
</g>
<!-- Node78321&#45;&gt;Node78596 -->
<g id="edge15" class="edge">
<title>Node78321&#45;&gt;Node78596</title>
<path fill="none" stroke="#191970" d="M228.7352,-218.3504C250.3333,-195.8298 291.3632,-156.5695 334,-134.5 341.4142,-130.6623 349.6729,-127.5485 357.8692,-125.0384"/>
<polygon fill="#191970" stroke="#191970" points="226.0006,-216.1489 221.6902,-225.8273 231.0953,-220.9494 226.0006,-216.1489"/>
</g>
<!-- Node78390 -->
<g id="node16" class="node">
<title>Node78390</title>
<g id="a_node16"><a xlink:href="quickjs_8c.html#a624282391413d4c5a030adbd8b77aa80" target="_top" xlink:title="internalize_json_property">
<polygon fill="none" stroke="#ff0000" points="343,-50 343,-69 468,-69 468,-50 343,-50"/>
<text text-anchor="middle" x="405.5" y="-57" font-family="Helvetica,sans-Serif" font-size="10.00" fill="#000000">internalize_json_property</text>
</a>
</g>
</g>
<!-- Node78321&#45;&gt;Node78390 -->
<g id="edge16" class="edge">
<title>Node78321&#45;&gt;Node78390</title>
<path fill="none" stroke="#191970" d="M225.2868,-217.4146C245.3715,-188.877 287.6666,-132.9092 334,-96.5 348.5064,-85.1008 367.0627,-75.6198 381.6357,-69.1097"/>
<polygon fill="#191970" stroke="#191970" points="222.1744,-215.7609 219.3531,-225.9732 227.9271,-219.7493 222.1744,-215.7609"/>
</g>
<!-- Node78602 -->
<g id="node17" class="node">
<title>Node78602</title>
<g id="a_node17"><a xlink:href="quickjs_8c.html#a438b354d69a8f0674195b0cdc19dd686" target="_top" xlink:title="js_proxy_get_own_property\l_names">
<polygon fill="none" stroke="#000000" points="337.5,-.5 337.5,-30.5 473.5,-30.5 473.5,-.5 337.5,-.5"/>
<text text-anchor="start" x="345.5" y="-18.5" font-family="Helvetica,sans-Serif" font-size="10.00" fill="#000000">js_proxy_get_own_property</text>
<text text-anchor="middle" x="405.5" y="-7.5" font-family="Helvetica,sans-Serif" font-size="10.00" fill="#000000">_names</text>
</a>
</g>
</g>
<!-- Node78321&#45;&gt;Node78602 -->
<g id="edge18" class="edge">
<title>Node78321&#45;&gt;Node78602</title>
<path fill="none" stroke="#191970" d="M219.8732,-216.2047C234.6686,-177.3534 273.1993,-89.2559 334,-40.5 338.8217,-36.6335 344.283,-33.344 349.9865,-30.5501"/>
<polygon fill="#191970" stroke="#191970" points="216.5168,-215.19 216.3308,-225.7832 223.0823,-217.6182 216.5168,-215.19"/>
</g>
<!-- Node78323 -->
<g id="node7" class="node">
<title>Node78323</title>
<g id="a_node7"><a xlink:href="quickjs-libc_8c.html#afc77720d4d1c0b90749ce275a4a16f74" target="_top" xlink:title="build_envp">
<polygon fill="none" stroke="#ff0000" points="524.5,-384 524.5,-403 587.5,-403 587.5,-384 524.5,-384"/>
<text text-anchor="middle" x="556" y="-391" font-family="Helvetica,sans-Serif" font-size="10.00" fill="#000000">build_envp</text>
</a>
</g>
</g>
<!-- Node78322&#45;&gt;Node78323 -->
<g id="edge7" class="edge">
<title>Node78322&#45;&gt;Node78323</title>
<path fill="none" stroke="#191970" d="M484.748,-393.5C498.7008,-393.5 512.4697,-393.5 524.1288,-393.5"/>
<polygon fill="#191970" stroke="#191970" points="484.5833,-390.0001 474.5833,-393.5 484.5833,-397.0001 484.5833,-390.0001"/>
</g>
<!-- Node78326 -->
<g id="node9" class="node">
<title>Node78326</title>
<g id="a_node9"><a xlink:href="quickjs_8c.html#a3472bcc4762be7f7de1dcf4c1e0c5ff1" target="_top" xlink:title="js_for_in_start">
<polygon fill="none" stroke="#ff0000" points="517,-346 517,-365 595,-365 595,-346 517,-346"/>
<text text-anchor="middle" x="556" y="-353" font-family="Helvetica,sans-Serif" font-size="10.00" fill="#000000">js_for_in_start</text>
</a>
</g>
</g>
<!-- Node78325&#45;&gt;Node78326 -->
<g id="edge9" class="edge">
<title>Node78325&#45;&gt;Node78326</title>
<path fill="none" stroke="#191970" d="M466.4437,-355.5C483.4255,-355.5 501.4166,-355.5 516.7833,-355.5"/>
<polygon fill="#191970" stroke="#191970" points="466.033,-352.0001 456.033,-355.5 466.033,-359.0001 466.033,-352.0001"/>
</g>
<!-- Node78390&#45;&gt;Node78390 -->
<g id="edge17" class="edge">
<title>Node78390&#45;&gt;Node78390</title>
<path fill="none" stroke="#191970" d="M377.5009,-78.1539C378.6712,-83.4368 388.0043,-87.5 405.5,-87.5 432.1602,-87.5 439.8666,-78.0653 428.6194,-69.2571"/>
<polygon fill="#191970" stroke="#191970" points="380.6403,-79.708 382.3806,-69.2571 374.5029,-76.3417 380.6403,-79.708"/>
</g>
</g>
</svg>
