<?xml version="1.0" encoding="UTF-8" standalone="no"?>
<!DOCTYPE svg PUBLIC "-//W3C//DTD SVG 1.1//EN"
 "http://www.w3.org/Graphics/SVG/1.1/DTD/svg11.dtd">
<!-- Generated by graphviz version 2.40.1 (20161225.0304)
 -->
<!-- Title: js_create_module_function Pages: 1 -->
<!--zoomable 436 -->
<svg id="main" version="1.1" xmlns="http://www.w3.org/2000/svg" xmlns:xlink="http://www.w3.org/1999/xlink" xml:space="preserve" onload="init(evt)">
<style type="text/css"><![CDATA[
.edge:hover path { stroke: red; }
.edge:hover polygon { stroke: red; fill: red; }
]]></style>
<script type="text/javascript"><![CDATA[
var edges = document.getElementsByTagName('g');
if (edges && edges.length) {
  for (var i=0;i<edges.length;i++) {
    if (edges[i].id.substr(0,4)=='edge') {
      edges[i].setAttribute('class','edge');
    }
  }
}
]]></script>
        <defs>
                <circle id="rim" cx="0" cy="0" r="7"/>
                <circle id="rim2" cx="0" cy="0" r="3.5"/>
                <g id="zoomPlus">
                        <use xlink:href="#rim" fill="#404040">
                                <set attributeName="fill" to="#808080" begin="zoomplus.mouseover" end="zoomplus.mouseout"/>
                        </use>
                        <path d="M-4,0h8M0,-4v8" fill="none" stroke="white" stroke-width="1.5" pointer-events="none"/>
                </g>
                <g id="zoomMin">
                        <use xlink:href="#rim" fill="#404040">
                                <set attributeName="fill" to="#808080" begin="zoomminus.mouseover" end="zoomminus.mouseout"/>
                        </use>
                        <path d="M-4,0h8" fill="none" stroke="white" stroke-width="1.5" pointer-events="none"/>
                </g>
                <g id="dirArrow">
                        <path fill="none" stroke="white" stroke-width="1.5" d="M0,-3.0v7 M-2.5,-0.5L0,-3.0L2.5,-0.5"/>
                </g>
               <g id="resetDef">
                       <use xlink:href="#rim2" fill="#404040">
                               <set attributeName="fill" to="#808080" begin="reset.mouseover" end="reset.mouseout"/>
                       </use>
               </g>
        </defs>

<script type="text/javascript">
var viewWidth = 852;
var viewHeight = 436;
var sectionId = 'dynsection-1115';
</script>
<script xlink:href="svgpan.js"/>
<svg id="graph" class="graph">
<g id="viewport">
<title>js_create_module_function</title>
<!-- Node329190 -->
<g id="node1" class="node">
<title>Node329190</title>
<polygon fill="#bfbfbf" stroke="#000000" points="0,-95.5 0,-114.5 133,-114.5 133,-95.5 0,-95.5"/>
<text text-anchor="middle" x="66.5" y="-102.5" font-family="Helvetica,sans-Serif" font-size="10.00" fill="#000000">js_create_module_function</text>
</g>
<!-- Node329191 -->
<g id="node2" class="node">
<title>Node329191</title>
<g id="a_node2"><a xlink:href="quickjs_8c.html#a66b74f17c8f724e92b6d7e3856e12b1e" target="_top" xlink:title="js_create_module_var">
<polygon fill="none" stroke="#000000" points="178.5,-152.5 178.5,-171.5 290.5,-171.5 290.5,-152.5 178.5,-152.5"/>
<text text-anchor="middle" x="234.5" y="-159.5" font-family="Helvetica,sans-Serif" font-size="10.00" fill="#000000">js_create_module_var</text>
</a>
</g>
</g>
<!-- Node329190&#45;&gt;Node329191 -->
<g id="edge1" class="edge">
<title>Node329190&#45;&gt;Node329191</title>
<path fill="none" stroke="#191970" d="M90.7621,-114.5622C111.4213,-122.5674 141.9653,-134.0807 169,-143 175.6481,-145.1933 182.7192,-147.387 189.6633,-149.4639"/>
<polygon fill="#191970" stroke="#191970" points="189.101,-152.9467 199.6822,-152.4096 191.0755,-146.2309 189.101,-152.9467"/>
</g>
<!-- Node329195 -->
<g id="node5" class="node">
<title>Node329195</title>
<g id="a_node5"><a xlink:href="quickjs_8h.html#afaa20c47565bc704c6c85f3d77254e7d" target="_top" xlink:title="JS_FreeValue">
<polygon fill="none" stroke="#000000" points="195.5,-76.5 195.5,-95.5 273.5,-95.5 273.5,-76.5 195.5,-76.5"/>
<text text-anchor="middle" x="234.5" y="-83.5" font-family="Helvetica,sans-Serif" font-size="10.00" fill="#000000">JS_FreeValue</text>
</a>
</g>
</g>
<!-- Node329190&#45;&gt;Node329195 -->
<g id="edge4" class="edge">
<title>Node329190&#45;&gt;Node329195</title>
<path fill="none" stroke="#191970" d="M133.3808,-97.4361C150.6449,-95.4836 168.9166,-93.4172 185.1089,-91.5859"/>
<polygon fill="#191970" stroke="#191970" points="185.8745,-95.0217 195.4178,-90.42 185.0878,-88.0661 185.8745,-95.0217"/>
</g>
<!-- Node329229 -->
<g id="node8" class="node">
<title>Node329229</title>
<g id="a_node8"><a xlink:href="quickjs_8h.html#ad80a83d73e9b7d872b88fbf2943aebe9" target="_top" xlink:title="JS_IsException">
<polygon fill="none" stroke="#000000" points="191.5,-38.5 191.5,-57.5 277.5,-57.5 277.5,-38.5 191.5,-38.5"/>
<text text-anchor="middle" x="234.5" y="-45.5" font-family="Helvetica,sans-Serif" font-size="10.00" fill="#000000">JS_IsException</text>
</a>
</g>
</g>
<!-- Node329190&#45;&gt;Node329229 -->
<g id="edge7" class="edge">
<title>Node329190&#45;&gt;Node329229</title>
<path fill="none" stroke="#191970" d="M90.7621,-95.4378C111.4213,-87.4326 141.9653,-75.9193 169,-67 175.6481,-64.8067 182.7192,-62.613 189.6633,-60.5361"/>
<polygon fill="#191970" stroke="#191970" points="191.0755,-63.7691 199.6822,-57.5904 189.101,-57.0533 191.0755,-63.7691"/>
</g>
<!-- Node329230 -->
<g id="node9" class="node">
<title>Node329230</title>
<g id="a_node9"><a xlink:href="quickjs_8c.html#a73738c650f11459db0d7af3dcdf8316b" target="_top" xlink:title="JS_NewObjectProtoClass">
<polygon fill="none" stroke="#000000" points="169,-114.5 169,-133.5 300,-133.5 300,-114.5 169,-114.5"/>
<text text-anchor="middle" x="234.5" y="-121.5" font-family="Helvetica,sans-Serif" font-size="10.00" fill="#000000">JS_NewObjectProtoClass</text>
</a>
</g>
</g>
<!-- Node329190&#45;&gt;Node329230 -->
<g id="edge8" class="edge">
<title>Node329190&#45;&gt;Node329230</title>
<path fill="none" stroke="#191970" d="M133.3808,-112.5639C141.7991,-113.516 150.457,-114.4951 158.9965,-115.4609"/>
<polygon fill="#191970" stroke="#191970" points="158.6154,-118.94 168.9454,-116.5861 159.4021,-111.9844 158.6154,-118.94"/>
</g>
<!-- Node329192 -->
<g id="node3" class="node">
<title>Node329192</title>
<g id="a_node3"><a xlink:href="quickjs_8c.html#a9780456a71703c53244b88831bc8fb7a" target="_top" xlink:title="add_gc_object">
<polygon fill="none" stroke="#000000" points="651.5,-152.5 651.5,-171.5 731.5,-171.5 731.5,-152.5 651.5,-152.5"/>
<text text-anchor="middle" x="691.5" y="-159.5" font-family="Helvetica,sans-Serif" font-size="10.00" fill="#000000">add_gc_object</text>
</a>
</g>
</g>
<!-- Node329191&#45;&gt;Node329192 -->
<g id="edge2" class="edge">
<title>Node329191&#45;&gt;Node329192</title>
<path fill="none" stroke="#191970" d="M290.5372,-162C380.4329,-162 555.4716,-162 641.428,-162"/>
<polygon fill="#191970" stroke="#191970" points="641.4572,-165.5001 651.4572,-162 641.4571,-158.5001 641.4572,-165.5001"/>
</g>
<!-- Node329193 -->
<g id="node4" class="node">
<title>Node329193</title>
<g id="a_node4"><a xlink:href="list_8h.html#a3a5d0733570b2fafc18f4c71a2968ea5" target="_top" xlink:title="list_add_tail">
<polygon fill="none" stroke="#ff0000" points="776,-152.5 776,-171.5 844,-171.5 844,-152.5 776,-152.5"/>
<text text-anchor="middle" x="810" y="-159.5" font-family="Helvetica,sans-Serif" font-size="10.00" fill="#000000">list_add_tail</text>
</a>
</g>
</g>
<!-- Node329192&#45;&gt;Node329193 -->
<g id="edge3" class="edge">
<title>Node329192&#45;&gt;Node329193</title>
<path fill="none" stroke="#191970" d="M731.6187,-162C742.6198,-162 754.6067,-162 765.8218,-162"/>
<polygon fill="#191970" stroke="#191970" points="765.8541,-165.5001 775.8541,-162 765.854,-158.5001 765.8541,-165.5001"/>
</g>
<!-- Node329196 -->
<g id="node6" class="node">
<title>Node329196</title>
<g id="a_node6"><a xlink:href="quickjs_8c.html#aa059f309c30fd5166d16c82a97973146" target="_top" xlink:title="__JS_FreeValue">
<polygon fill="none" stroke="#000000" points="358,-.5 358,-19.5 447,-19.5 447,-.5 358,-.5"/>
<text text-anchor="middle" x="402.5" y="-7.5" font-family="Helvetica,sans-Serif" font-size="10.00" fill="#000000">__JS_FreeValue</text>
</a>
</g>
</g>
<!-- Node329195&#45;&gt;Node329196 -->
<g id="edge5" class="edge">
<title>Node329195&#45;&gt;Node329196</title>
<path fill="none" stroke="#191970" d="M273.6824,-78.293C282.7177,-75.5411 292.0128,-71.8682 300,-67 319.8654,-54.8921 316.1103,-41.0679 336,-29 339.8575,-26.6595 344.0155,-24.5967 348.3025,-22.7805"/>
<polygon fill="#191970" stroke="#191970" points="349.7068,-25.9916 357.8272,-19.1865 347.2355,-19.4423 349.7068,-25.9916"/>
</g>
<!-- Node329197 -->
<g id="node7" class="node">
<title>Node329197</title>
<g id="a_node7"><a xlink:href="quickjs_8c.html#ab1ea3fad7d138be12144a38be4d36423" target="_top" xlink:title="__JS_FreeValueRT">
<polygon fill="none" stroke="#ff0000" points="505,-.5 505,-19.5 607,-19.5 607,-.5 505,-.5"/>
<text text-anchor="middle" x="556" y="-7.5" font-family="Helvetica,sans-Serif" font-size="10.00" fill="#000000">__JS_FreeValueRT</text>
</a>
</g>
</g>
<!-- Node329196&#45;&gt;Node329197 -->
<g id="edge6" class="edge">
<title>Node329196&#45;&gt;Node329197</title>
<path fill="none" stroke="#191970" d="M447.3112,-10C462.1197,-10 478.8589,-10 494.6848,-10"/>
<polygon fill="#191970" stroke="#191970" points="494.9234,-13.5001 504.9234,-10 494.9233,-6.5001 494.9234,-13.5001"/>
</g>
<!-- Node329231 -->
<g id="node10" class="node">
<title>Node329231</title>
<g id="a_node10"><a xlink:href="quickjs_8c.html#aad24bdf2bcbb0ce55462fe6074dac8a5" target="_top" xlink:title="find_hashed_shape_proto">
<polygon fill="none" stroke="#000000" points="338.5,-38.5 338.5,-57.5 466.5,-57.5 466.5,-38.5 338.5,-38.5"/>
<text text-anchor="middle" x="402.5" y="-45.5" font-family="Helvetica,sans-Serif" font-size="10.00" fill="#000000">find_hashed_shape_proto</text>
</a>
</g>
</g>
<!-- Node329230&#45;&gt;Node329231 -->
<g id="edge9" class="edge">
<title>Node329230&#45;&gt;Node329231</title>
<path fill="none" stroke="#191970" d="M279.5358,-114.3858C286.6575,-111.905 293.7316,-108.8206 300,-105 319.8654,-92.8921 316.1103,-79.0679 336,-67 339.5801,-64.8278 343.4188,-62.8949 347.3794,-61.1763"/>
<polygon fill="#191970" stroke="#191970" points="348.7119,-64.4137 356.7774,-57.5436 346.188,-57.8845 348.7119,-64.4137"/>
</g>
<!-- Node329234 -->
<g id="node13" class="node">
<title>Node329234</title>
<g id="a_node13"><a xlink:href="quickjs_8c.html#aab0be018b8f7bdcff45226f502c3f820" target="_top" xlink:title="get_proto_obj">
<polygon fill="none" stroke="#000000" points="365,-114.5 365,-133.5 440,-133.5 440,-114.5 365,-114.5"/>
<text text-anchor="middle" x="402.5" y="-121.5" font-family="Helvetica,sans-Serif" font-size="10.00" fill="#000000">get_proto_obj</text>
</a>
</g>
</g>
<!-- Node329230&#45;&gt;Node329234 -->
<g id="edge12" class="edge">
<title>Node329230&#45;&gt;Node329234</title>
<path fill="none" stroke="#191970" d="M300.4159,-124C318.5339,-124 337.8303,-124 354.713,-124"/>
<polygon fill="#191970" stroke="#191970" points="354.8809,-127.5001 364.8809,-124 354.8808,-120.5001 354.8809,-127.5001"/>
</g>
<!-- Node329235 -->
<g id="node14" class="node">
<title>Node329235</title>
<g id="a_node14"><a xlink:href="quickjs_8c.html#aed229eb80b3b03a2275471dee93c69d6" target="_top" xlink:title="js_dup_shape">
<polygon fill="none" stroke="#000000" points="653,-408.5 653,-427.5 730,-427.5 730,-408.5 653,-408.5"/>
<text text-anchor="middle" x="691.5" y="-415.5" font-family="Helvetica,sans-Serif" font-size="10.00" fill="#000000">js_dup_shape</text>
</a>
</g>
</g>
<!-- Node329230&#45;&gt;Node329235 -->
<g id="edge13" class="edge">
<title>Node329230&#45;&gt;Node329235</title>
<path fill="none" stroke="#191970" d="M287.155,-133.5782C291.922,-136.0497 296.3274,-139.1399 300,-143 347.8538,-193.2968 296.5166,-237.8964 336,-295 387.5278,-369.523 419.0208,-380.4279 505,-409 549.8489,-423.9039 604.103,-424.7512 642.5036,-422.7185"/>
<polygon fill="#191970" stroke="#191970" points="643.1274,-426.1868 652.8931,-422.0782 642.6967,-419.2001 643.1274,-426.1868"/>
</g>
<!-- Node329236 -->
<g id="node15" class="node">
<title>Node329236</title>
<g id="a_node15"><a xlink:href="quickjs_8c.html#ad6926e49955be5e10423f6df8d8cff3e" target="_top" xlink:title="js_new_shape">
<polygon fill="none" stroke="#000000" points="363,-76.5 363,-95.5 442,-95.5 442,-76.5 363,-76.5"/>
<text text-anchor="middle" x="402.5" y="-83.5" font-family="Helvetica,sans-Serif" font-size="10.00" fill="#000000">js_new_shape</text>
</a>
</g>
</g>
<!-- Node329230&#45;&gt;Node329236 -->
<g id="edge14" class="edge">
<title>Node329230&#45;&gt;Node329236</title>
<path fill="none" stroke="#191970" d="M276.8935,-114.411C299.9431,-109.1974 328.5843,-102.719 352.6939,-97.2657"/>
<polygon fill="#191970" stroke="#191970" points="353.7382,-100.618 362.7196,-94.9979 352.1938,-93.7904 353.7382,-100.618"/>
</g>
<!-- Node329247 -->
<g id="node17" class="node">
<title>Node329247</title>
<g id="a_node17"><a xlink:href="quickjs_8c.html#a030c2e98b1775a7e3bdd13be1400b1fe" target="_top" xlink:title="JS_NewObjectFromShape">
<polygon fill="none" stroke="#000000" points="336,-266.5 336,-285.5 469,-285.5 469,-266.5 336,-266.5"/>
<text text-anchor="middle" x="402.5" y="-273.5" font-family="Helvetica,sans-Serif" font-size="10.00" fill="#000000">JS_NewObjectFromShape</text>
</a>
</g>
</g>
<!-- Node329230&#45;&gt;Node329247 -->
<g id="edge18" class="edge">
<title>Node329230&#45;&gt;Node329247</title>
<path fill="none" stroke="#191970" d="M281.2532,-133.575C287.8599,-136.0418 294.3254,-139.1323 300,-143 344.1735,-173.108 377.6567,-228.3268 393.0988,-257.2324"/>
<polygon fill="#191970" stroke="#191970" points="390.0804,-259.0146 397.7964,-266.2751 396.2922,-255.7875 390.0804,-259.0146"/>
</g>
<!-- Node329224 -->
<g id="node11" class="node">
<title>Node329224</title>
<g id="a_node11"><a xlink:href="quickjs_8c.html#a8291bf195606b5d1b0faed795b6dc3ff" target="_top" xlink:title="get_shape_hash">
<polygon fill="none" stroke="#000000" points="512,-38.5 512,-57.5 600,-57.5 600,-38.5 512,-38.5"/>
<text text-anchor="middle" x="556" y="-45.5" font-family="Helvetica,sans-Serif" font-size="10.00" fill="#000000">get_shape_hash</text>
</a>
</g>
</g>
<!-- Node329231&#45;&gt;Node329224 -->
<g id="edge10" class="edge">
<title>Node329231&#45;&gt;Node329224</title>
<path fill="none" stroke="#191970" d="M466.7084,-48C478.2819,-48 490.2464,-48 501.5107,-48"/>
<polygon fill="#191970" stroke="#191970" points="501.6272,-51.5001 511.6272,-48 501.6272,-44.5001 501.6272,-51.5001"/>
</g>
<!-- Node329232 -->
<g id="node12" class="node">
<title>Node329232</title>
<g id="a_node12"><a xlink:href="quickjs_8c.html#afeaafcef811076df11d1552bcc7f6a2a" target="_top" xlink:title="shape_initial_hash">
<polygon fill="none" stroke="#ff0000" points="643,-95.5 643,-114.5 740,-114.5 740,-95.5 643,-95.5"/>
<text text-anchor="middle" x="691.5" y="-102.5" font-family="Helvetica,sans-Serif" font-size="10.00" fill="#000000">shape_initial_hash</text>
</a>
</g>
</g>
<!-- Node329231&#45;&gt;Node329232 -->
<g id="edge11" class="edge">
<title>Node329231&#45;&gt;Node329232</title>
<path fill="none" stroke="#191970" d="M450.8721,-57.5405C500.9898,-67.4253 579.3425,-82.879 632.9316,-93.4484"/>
<polygon fill="#191970" stroke="#191970" points="632.4818,-96.9271 642.9701,-95.4284 633.8364,-90.0594 632.4818,-96.9271"/>
</g>
<!-- Node329237 -->
<g id="node16" class="node">
<title>Node329237</title>
<g id="a_node16"><a xlink:href="quickjs_8c.html#a1030d2020be7d911eb62869f21cc3b70" target="_top" xlink:title="js_new_shape2">
<polygon fill="none" stroke="#ff0000" points="514,-114.5 514,-133.5 598,-133.5 598,-114.5 514,-114.5"/>
<text text-anchor="middle" x="556" y="-121.5" font-family="Helvetica,sans-Serif" font-size="10.00" fill="#000000">js_new_shape2</text>
</a>
</g>
</g>
<!-- Node329236&#45;&gt;Node329237 -->
<g id="edge15" class="edge">
<title>Node329236&#45;&gt;Node329237</title>
<path fill="none" stroke="#191970" d="M441.2345,-95.589C461.3993,-100.5809 486.2479,-106.7324 507.6611,-112.0334"/>
<polygon fill="#191970" stroke="#191970" points="506.9959,-115.4743 517.544,-114.4799 508.6781,-108.6794 506.9959,-115.4743"/>
</g>
<!-- Node329237&#45;&gt;Node329192 -->
<g id="edge16" class="edge">
<title>Node329237&#45;&gt;Node329192</title>
<path fill="none" stroke="#191970" d="M590.1924,-133.589C607.6039,-138.4719 628.9715,-144.4643 647.5871,-149.685"/>
<polygon fill="#191970" stroke="#191970" points="646.7449,-153.0837 657.3186,-152.4141 648.6351,-146.3438 646.7449,-153.0837"/>
</g>
<!-- Node329237&#45;&gt;Node329232 -->
<g id="edge17" class="edge">
<title>Node329237&#45;&gt;Node329232</title>
<path fill="none" stroke="#191970" d="M598.1303,-118.0924C609.0661,-116.559 621.0463,-114.8791 632.6701,-113.2492"/>
<polygon fill="#191970" stroke="#191970" points="633.3408,-116.6895 642.7579,-111.8347 632.3687,-109.7573 633.3408,-116.6895"/>
</g>
<!-- Node329247&#45;&gt;Node329192 -->
<g id="edge19" class="edge">
<title>Node329247&#45;&gt;Node329192</title>
<path fill="none" stroke="#191970" d="M454.1102,-266.4274C496.4563,-257.4522 557.3105,-241.9474 607,-219 630.7215,-208.045 655.19,-190.7647 671.6521,-178.1002"/>
<polygon fill="#191970" stroke="#191970" points="674.2153,-180.5376 679.9185,-171.6087 669.892,-175.0322 674.2153,-180.5376"/>
</g>
<!-- Node329248 -->
<g id="node18" class="node">
<title>Node329248</title>
<g id="a_node18"><a xlink:href="quickjs_8c.html#a74547db03bf739a52c83a326b32db997" target="_top" xlink:title="add_property">
<polygon fill="none" stroke="#ff0000" points="519.5,-380.5 519.5,-399.5 592.5,-399.5 592.5,-380.5 519.5,-380.5"/>
<text text-anchor="middle" x="556" y="-387.5" font-family="Helvetica,sans-Serif" font-size="10.00" fill="#000000">add_property</text>
</a>
</g>
</g>
<!-- Node329247&#45;&gt;Node329248 -->
<g id="edge20" class="edge">
<title>Node329247&#45;&gt;Node329248</title>
<path fill="none" stroke="#191970" d="M411.652,-285.6645C428.7325,-303.3096 467.1705,-341.2046 505,-366 510.532,-369.626 516.6982,-373.0103 522.778,-376.0279"/>
<polygon fill="#191970" stroke="#191970" points="521.6197,-379.3512 532.1574,-380.4499 524.6048,-373.0196 521.6197,-379.3512"/>
</g>
<!-- Node329219 -->
<g id="node19" class="node">
<title>Node329219</title>
<g id="a_node19"><a xlink:href="quickjs_8c.html#a3a9f27520d96cf58aa5bd7359e9cddee" target="_top" xlink:title="js_free_shape">
<polygon fill="none" stroke="#ff0000" points="653,-361.5 653,-380.5 730,-380.5 730,-361.5 653,-361.5"/>
<text text-anchor="middle" x="691.5" y="-368.5" font-family="Helvetica,sans-Serif" font-size="10.00" fill="#000000">js_free_shape</text>
</a>
</g>
</g>
<!-- Node329247&#45;&gt;Node329219 -->
<g id="edge24" class="edge">
<title>Node329247&#45;&gt;Node329219</title>
<path fill="none" stroke="#191970" d="M416.4262,-285.5782C435.5458,-298.289 471.3889,-320.5686 505,-333 550.0423,-349.6594 604.0517,-359.6506 642.3292,-365.1756"/>
<polygon fill="#191970" stroke="#191970" points="642.3007,-368.7053 652.6878,-366.6174 643.2658,-361.7722 642.3007,-368.7053"/>
</g>
<!-- Node329216 -->
<g id="node20" class="node">
<title>Node329216</title>
<g id="a_node20"><a xlink:href="quickjs_8c.html#a80e54dcf9ac687d4ccc2f90273565f30" target="_top" xlink:title="js_free">
<polygon fill="none" stroke="#ff0000" points="533,-190.5 533,-209.5 579,-209.5 579,-190.5 533,-190.5"/>
<text text-anchor="middle" x="556" y="-197.5" font-family="Helvetica,sans-Serif" font-size="10.00" fill="#000000">js_free</text>
</a>
</g>
</g>
<!-- Node329247&#45;&gt;Node329216 -->
<g id="edge23" class="edge">
<title>Node329247&#45;&gt;Node329216</title>
<path fill="none" stroke="#191970" d="M420.9344,-266.4405C441.3902,-255.8813 475.4205,-238.459 505,-224 511.7694,-220.691 519.0805,-217.2013 525.9951,-213.9389"/>
<polygon fill="#191970" stroke="#191970" points="527.5251,-217.0872 535.0901,-209.6696 524.5505,-210.7507 527.5251,-217.0872"/>
</g>
<!-- Node329258 -->
<g id="node21" class="node">
<title>Node329258</title>
<g id="a_node21"><a xlink:href="quickjs_8h.html#a2050bc428da1c65ac7eb87c3fa3b0392" target="_top" xlink:title="JS_NewInt32">
<polygon fill="none" stroke="#000000" points="518,-304.5 518,-323.5 594,-323.5 594,-304.5 518,-304.5"/>
<text text-anchor="middle" x="556" y="-311.5" font-family="Helvetica,sans-Serif" font-size="10.00" fill="#000000">JS_NewInt32</text>
</a>
</g>
</g>
<!-- Node329247&#45;&gt;Node329258 -->
<g id="edge25" class="edge">
<title>Node329247&#45;&gt;Node329258</title>
<path fill="none" stroke="#191970" d="M441.2345,-285.589C461.4759,-290.5999 486.4369,-296.7792 507.9052,-302.0938"/>
<polygon fill="#191970" stroke="#191970" points="507.2615,-305.54 517.8096,-304.5457 508.9437,-298.7452 507.2615,-305.54"/>
</g>
<!-- Node329259 -->
<g id="node22" class="node">
<title>Node329259</title>
<g id="a_node22"><a xlink:href="quickjs_8c.html#a85321334e4bec66bfc03451897a03a3b" target="_top" xlink:title="js_trigger_gc">
<polygon fill="none" stroke="#ff0000" points="520,-266.5 520,-285.5 592,-285.5 592,-266.5 520,-266.5"/>
<text text-anchor="middle" x="556" y="-273.5" font-family="Helvetica,sans-Serif" font-size="10.00" fill="#000000">js_trigger_gc</text>
</a>
</g>
</g>
<!-- Node329247&#45;&gt;Node329259 -->
<g id="edge26" class="edge">
<title>Node329247&#45;&gt;Node329259</title>
<path fill="none" stroke="#191970" d="M469.3808,-276C482.8881,-276 496.81,-276 509.4356,-276"/>
<polygon fill="#191970" stroke="#191970" points="509.6986,-279.5001 519.6986,-276 509.6986,-272.5001 509.6986,-279.5001"/>
</g>
<!-- Node329248&#45;&gt;Node329235 -->
<g id="edge21" class="edge">
<title>Node329248&#45;&gt;Node329235</title>
<path fill="none" stroke="#191970" d="M592.6683,-397.5772C608.1158,-400.7693 626.3158,-404.5302 642.86,-407.9489"/>
<polygon fill="#191970" stroke="#191970" points="642.4063,-411.429 652.9077,-410.0252 643.8229,-404.5739 642.4063,-411.429"/>
</g>
<!-- Node329248&#45;&gt;Node329219 -->
<g id="edge22" class="edge">
<title>Node329248&#45;&gt;Node329219</title>
<path fill="none" stroke="#191970" d="M592.6683,-384.8583C608.1158,-382.6922 626.3158,-380.1402 642.86,-377.8204"/>
<polygon fill="#191970" stroke="#191970" points="643.4906,-381.2663 652.9077,-376.4115 642.5185,-374.3341 643.4906,-381.2663"/>
</g>
</g>
</svg>
        <g id="navigator" transform="translate(0 0)" fill="#404254">
                <rect fill="#f2f5e9" fill-opacity="0.5" stroke="#606060" stroke-width=".5" x="0" y="0" width="60" height="60"/>
                <use id="zoomplus" xlink:href="#zoomPlus" x="17" y="9" onmousedown="handleZoom(evt,'in')"/>
                <use id="zoomminus" xlink:href="#zoomMin" x="42" y="9" onmousedown="handleZoom(evt,'out')"/>
                <use id="reset" xlink:href="#resetDef" x="30" y="36" onmousedown="handleReset()"/>
                <g id="arrowUp" xlink:href="#dirArrow" transform="translate(30 24)" onmousedown="handlePan(0,-1)">
                  <use xlink:href="#rim" fill="#404040">
                        <set attributeName="fill" to="#808080" begin="arrowUp.mouseover" end="arrowUp.mouseout"/>
                  </use>
                  <path fill="none" stroke="white" stroke-width="1.5" d="M0,-3.0v7 M-2.5,-0.5L0,-3.0L2.5,-0.5"/>
                </g>
                <g id="arrowRight" xlink:href="#dirArrow" transform="rotate(90) translate(36 -43)" onmousedown="handlePan(1,0)">
                  <use xlink:href="#rim" fill="#404040">
                        <set attributeName="fill" to="#808080" begin="arrowRight.mouseover" end="arrowRight.mouseout"/>
                  </use>
                  <path fill="none" stroke="white" stroke-width="1.5" d="M0,-3.0v7 M-2.5,-0.5L0,-3.0L2.5,-0.5"/>
                </g>
                <g id="arrowDown" xlink:href="#dirArrow" transform="rotate(180) translate(-30 -48)" onmousedown="handlePan(0,1)">
                  <use xlink:href="#rim" fill="#404040">
                        <set attributeName="fill" to="#808080" begin="arrowDown.mouseover" end="arrowDown.mouseout"/>
                  </use>
                  <path fill="none" stroke="white" stroke-width="1.5" d="M0,-3.0v7 M-2.5,-0.5L0,-3.0L2.5,-0.5"/>
                </g>
                <g id="arrowLeft" xlink:href="#dirArrow" transform="rotate(270) translate(-36 17)" onmousedown="handlePan(-1,0)">
                  <use xlink:href="#rim" fill="#404040">
                        <set attributeName="fill" to="#808080" begin="arrowLeft.mouseover" end="arrowLeft.mouseout"/>
                  </use>
                  <path fill="none" stroke="white" stroke-width="1.5" d="M0,-3.0v7 M-2.5,-0.5L0,-3.0L2.5,-0.5"/>
                </g>
        </g>
        <svg viewBox="0 0 15 15" width="100%" height="30px" preserveAspectRatio="xMaxYMin meet">
         <g id="arrow_out" transform="scale(0.3 0.3)">
          <a xlink:href="quickjs_8c_a2d91a9da16cf07ff3b9ec053b870c335_cgraph_org.svg" target="_base">
           <rect id="button" ry="5" rx="5" y="6" x="6" height="38" width="38"
                fill="#f2f5e9" fill-opacity="0.5" stroke="#606060" stroke-width="1.0"/>
           <path id="arrow"
             d="M 11.500037,31.436501 C 11.940474,20.09759 22.043105,11.32322 32.158766,21.979434 L 37.068811,17.246167 C 37.068811,17.246167 37.088388,32 37.088388,32 L 22.160133,31.978069 C 22.160133,31.978069 26.997745,27.140456 26.997745,27.140456 C 18.528582,18.264221 13.291696,25.230495 11.500037,31.436501 z"
             style="fill:#404040;"/>
          </a>
         </g>
        </svg>
</svg>
