<?xml version="1.0" encoding="UTF-8" standalone="no"?>
<!DOCTYPE svg PUBLIC "-//W3C//DTD SVG 1.1//EN"
 "http://www.w3.org/Graphics/SVG/1.1/DTD/svg11.dtd">
<!-- Generated by graphviz version 2.40.1 (20161225.0304)
 -->
<!-- Title: js_has_unscopable Pages: 1 -->
<!--zoomable 995 -->
<svg id="main" version="1.1" xmlns="http://www.w3.org/2000/svg" xmlns:xlink="http://www.w3.org/1999/xlink" xml:space="preserve" onload="init(evt)">
<style type="text/css"><![CDATA[
.edge:hover path { stroke: red; }
.edge:hover polygon { stroke: red; fill: red; }
]]></style>
<script type="text/javascript"><![CDATA[
var edges = document.getElementsByTagName('g');
if (edges && edges.length) {
  for (var i=0;i<edges.length;i++) {
    if (edges[i].id.substr(0,4)=='edge') {
      edges[i].setAttribute('class','edge');
    }
  }
}
]]></script>
        <defs>
                <circle id="rim" cx="0" cy="0" r="7"/>
                <circle id="rim2" cx="0" cy="0" r="3.5"/>
                <g id="zoomPlus">
                        <use xlink:href="#rim" fill="#404040">
                                <set attributeName="fill" to="#808080" begin="zoomplus.mouseover" end="zoomplus.mouseout"/>
                        </use>
                        <path d="M-4,0h8M0,-4v8" fill="none" stroke="white" stroke-width="1.5" pointer-events="none"/>
                </g>
                <g id="zoomMin">
                        <use xlink:href="#rim" fill="#404040">
                                <set attributeName="fill" to="#808080" begin="zoomminus.mouseover" end="zoomminus.mouseout"/>
                        </use>
                        <path d="M-4,0h8" fill="none" stroke="white" stroke-width="1.5" pointer-events="none"/>
                </g>
                <g id="dirArrow">
                        <path fill="none" stroke="white" stroke-width="1.5" d="M0,-3.0v7 M-2.5,-0.5L0,-3.0L2.5,-0.5"/>
                </g>
               <g id="resetDef">
                       <use xlink:href="#rim2" fill="#404040">
                               <set attributeName="fill" to="#808080" begin="reset.mouseover" end="reset.mouseout"/>
                       </use>
               </g>
        </defs>

<script type="text/javascript">
var viewWidth = 566;
var viewHeight = 995;
var sectionId = 'dynsection-756';
</script>
<script xlink:href="svgpan.js"/>
<svg id="graph" class="graph">
<g id="viewport">
<title>js_has_unscopable</title>
<!-- Node256243 -->
<g id="node1" class="node">
<title>Node256243</title>
<polygon fill="#bfbfbf" stroke="#000000" points="0,-340.5 0,-359.5 100,-359.5 100,-340.5 0,-340.5"/>
<text text-anchor="middle" x="50" y="-347.5" font-family="Helvetica,sans-Serif" font-size="10.00" fill="#000000">js_has_unscopable</text>
</g>
<!-- Node256244 -->
<g id="node2" class="node">
<title>Node256244</title>
<g id="a_node2"><a xlink:href="quickjs_8c.html#ac2894ff4edcdb4e6841bcce9c76081e3" target="_top" xlink:title="JS_CallInternal">
<polygon fill="none" stroke="#000000" points="136,-340.5 136,-359.5 219,-359.5 219,-340.5 136,-340.5"/>
<text text-anchor="middle" x="177.5" y="-347.5" font-family="Helvetica,sans-Serif" font-size="10.00" fill="#000000">JS_CallInternal</text>
</a>
</g>
</g>
<!-- Node256243&#45;&gt;Node256244 -->
<g id="edge1" class="edge">
<title>Node256243&#45;&gt;Node256244</title>
<path fill="none" stroke="#191970" d="M110.1514,-350C118.8453,-350 127.6289,-350 135.8524,-350"/>
<polygon fill="#191970" stroke="#191970" points="110.0255,-346.5001 100.0254,-350 110.0254,-353.5001 110.0255,-346.5001"/>
</g>
<!-- Node256244&#45;&gt;Node256244 -->
<g id="edge40" class="edge">
<title>Node256244&#45;&gt;Node256244</title>
<path fill="none" stroke="#191970" d="M154.0626,-369.0292C155.341,-374.128 163.1535,-378 177.5,-378 199.8945,-378 206.368,-368.5653 196.9203,-359.7571"/>
<polygon fill="#191970" stroke="#191970" points="157.3158,-370.3243 158.0797,-359.7571 150.8927,-367.5415 157.3158,-370.3243"/>
</g>
<!-- Node256245 -->
<g id="node3" class="node">
<title>Node256245</title>
<g id="a_node3"><a xlink:href="quickjs_8c.html#ade71a22dc56e7371392393df663b28b3" target="_top" xlink:title="async_func_resume">
<polygon fill="none" stroke="#000000" points="270,-874.5 270,-893.5 374,-893.5 374,-874.5 270,-874.5"/>
<text text-anchor="middle" x="322" y="-881.5" font-family="Helvetica,sans-Serif" font-size="10.00" fill="#000000">async_func_resume</text>
</a>
</g>
</g>
<!-- Node256244&#45;&gt;Node256245 -->
<g id="edge2" class="edge">
<title>Node256244&#45;&gt;Node256245</title>
<path fill="none" stroke="#191970" d="M182.7489,-369.3972C206.3253,-456.524 302.0372,-810.2275 319.3189,-874.092"/>
<polygon fill="#191970" stroke="#191970" points="186.122,-368.463 180.1314,-359.7244 179.365,-370.2915 186.122,-368.463"/>
</g>
<!-- Node256257 -->
<g id="node8" class="node">
<title>Node256257</title>
<g id="a_node8"><a xlink:href="quickjs_8c.html#a1a4c02a29525d5cb2085dd8bca3af350" target="_top" xlink:title="JS_Call">
<polygon fill="none" stroke="#ff0000" points="296.5,-378.5 296.5,-397.5 347.5,-397.5 347.5,-378.5 296.5,-378.5"/>
<text text-anchor="middle" x="322" y="-385.5" font-family="Helvetica,sans-Serif" font-size="10.00" fill="#000000">JS_Call</text>
</a>
</g>
</g>
<!-- Node256244&#45;&gt;Node256257 -->
<g id="edge7" class="edge">
<title>Node256244&#45;&gt;Node256257</title>
<path fill="none" stroke="#191970" d="M229.3524,-357.1309C255.197,-363.291 284.8346,-371.6885 303.4855,-378.4368"/>
<polygon fill="#191970" stroke="#191970" points="229.8269,-353.6484 219.2954,-354.8052 228.2497,-360.4684 229.8269,-353.6484"/>
</g>
<!-- Node256331 -->
<g id="node29" class="node">
<title>Node256331</title>
<g id="a_node29"><a xlink:href="quickjs_8c.html#ad35594576a14c10812efaf958c99af8a" target="_top" xlink:title="JS_CallConstructorInternal">
<polygon fill="none" stroke="#ff0000" points="255,-264.5 255,-283.5 389,-283.5 389,-264.5 255,-264.5"/>
<text text-anchor="middle" x="322" y="-271.5" font-family="Helvetica,sans-Serif" font-size="10.00" fill="#000000">JS_CallConstructorInternal</text>
</a>
</g>
</g>
<!-- Node256244&#45;&gt;Node256331 -->
<g id="edge34" class="edge">
<title>Node256244&#45;&gt;Node256331</title>
<path fill="none" stroke="#191970" d="M189.5491,-332.5463C204.0695,-317.2145 229.6856,-296.3922 255,-284 255.3258,-283.8405 255.6531,-283.6822 255.9819,-283.525"/>
<polygon fill="#191970" stroke="#191970" points="186.627,-330.572 182.6961,-340.4106 191.9045,-335.1708 186.627,-330.572"/>
</g>
<!-- Node256345 -->
<g id="node30" class="node">
<title>Node256345</title>
<g id="a_node30"><a xlink:href="quickjs_8c.html#a75f6ee5e4235a7dc99889f3d2eb2c147" target="_top" xlink:title="JS_CallFree">
<polygon fill="none" stroke="#ff0000" points="286.5,-302.5 286.5,-321.5 357.5,-321.5 357.5,-302.5 286.5,-302.5"/>
<text text-anchor="middle" x="322" y="-309.5" font-family="Helvetica,sans-Serif" font-size="10.00" fill="#000000">JS_CallFree</text>
</a>
</g>
</g>
<!-- Node256244&#45;&gt;Node256345 -->
<g id="edge36" class="edge">
<title>Node256244&#45;&gt;Node256345</title>
<path fill="none" stroke="#191970" d="M205.6305,-337.1263C228.6733,-329.5295 261.4179,-320.7723 286.3055,-315.4723"/>
<polygon fill="#191970" stroke="#191970" points="204.4119,-333.8441 196.095,-340.4076 206.6897,-340.4632 204.4119,-333.8441"/>
</g>
<!-- Node256246 -->
<g id="node4" class="node">
<title>Node256246</title>
<g id="a_node4"><a xlink:href="quickjs_8c.html#ac90552b1f1659acb3dae9a4c62479a30" target="_top" xlink:title="js_generator_function_call">
<polygon fill="none" stroke="#ff0000" points="426.5,-967.5 426.5,-986.5 556.5,-986.5 556.5,-967.5 426.5,-967.5"/>
<text text-anchor="middle" x="491.5" y="-974.5" font-family="Helvetica,sans-Serif" font-size="10.00" fill="#000000">js_generator_function_call</text>
</a>
</g>
</g>
<!-- Node256245&#45;&gt;Node256246 -->
<g id="edge3" class="edge">
<title>Node256245&#45;&gt;Node256246</title>
<path fill="none" stroke="#191970" d="M340.4671,-900.3133C360.1641,-916.9499 392.8865,-942.4617 425,-958 432.782,-961.7654 441.4469,-964.9157 449.8825,-967.499"/>
<polygon fill="#191970" stroke="#191970" points="342.488,-897.4351 332.6226,-893.5717 337.9255,-902.7439 342.488,-897.4351"/>
</g>
<!-- Node256250 -->
<g id="node5" class="node">
<title>Node256250</title>
<g id="a_node5"><a xlink:href="quickjs_8c.html#a1bf6b62983e8fff99c0a5d5a9f486115" target="_top" xlink:title="js_async_function_resume">
<polygon fill="none" stroke="#ff0000" points="425,-830.5 425,-849.5 558,-849.5 558,-830.5 425,-830.5"/>
<text text-anchor="middle" x="491.5" y="-837.5" font-family="Helvetica,sans-Serif" font-size="10.00" fill="#000000">js_async_function_resume</text>
</a>
</g>
</g>
<!-- Node256245&#45;&gt;Node256250 -->
<g id="edge4" class="edge">
<title>Node256245&#45;&gt;Node256250</title>
<path fill="none" stroke="#191970" d="M368.4651,-871.9383C395.6496,-864.8815 429.4877,-856.0976 454.7928,-849.5287"/>
<polygon fill="#191970" stroke="#191970" points="367.5787,-868.5523 358.779,-874.4527 369.3376,-875.3277 367.5787,-868.5523"/>
</g>
<!-- Node256255 -->
<g id="node6" class="node">
<title>Node256255</title>
<g id="a_node6"><a xlink:href="quickjs_8c.html#a89b019c704a2d2914bc30b30a72040b3" target="_top" xlink:title="js_async_generator\l_resume_next">
<polygon fill="none" stroke="#000000" points="441,-918 441,-948 542,-948 542,-918 441,-918"/>
<text text-anchor="start" x="449" y="-936" font-family="Helvetica,sans-Serif" font-size="10.00" fill="#000000">js_async_generator</text>
<text text-anchor="middle" x="491.5" y="-925" font-family="Helvetica,sans-Serif" font-size="10.00" fill="#000000">_resume_next</text>
</a>
</g>
</g>
<!-- Node256245&#45;&gt;Node256255 -->
<g id="edge5" class="edge">
<title>Node256245&#45;&gt;Node256255</title>
<path fill="none" stroke="#191970" d="M364.9372,-896.4125C388.0226,-903.0862 416.6309,-911.3564 440.805,-918.3448"/>
<polygon fill="#191970" stroke="#191970" points="365.6623,-892.9789 355.0837,-893.564 363.7183,-899.7036 365.6623,-892.9789"/>
</g>
<!-- Node256256 -->
<g id="node7" class="node">
<title>Node256256</title>
<g id="a_node7"><a xlink:href="quickjs_8c.html#ae19867da709929c072f05e90301835a4" target="_top" xlink:title="js_async_generator\l_function_call">
<polygon fill="none" stroke="#ff0000" points="441,-869 441,-899 542,-899 542,-869 441,-869"/>
<text text-anchor="start" x="449" y="-887" font-family="Helvetica,sans-Serif" font-size="10.00" fill="#000000">js_async_generator</text>
<text text-anchor="middle" x="491.5" y="-876" font-family="Helvetica,sans-Serif" font-size="10.00" fill="#000000">_function_call</text>
</a>
</g>
</g>
<!-- Node256245&#45;&gt;Node256256 -->
<g id="edge6" class="edge">
<title>Node256245&#45;&gt;Node256256</title>
<path fill="none" stroke="#191970" d="M384.388,-884C402.9885,-884 423.1368,-884 440.8866,-884"/>
<polygon fill="#191970" stroke="#191970" points="384.2387,-880.5001 374.2387,-884 384.2386,-887.5001 384.2387,-880.5001"/>
</g>
<!-- Node256257&#45;&gt;Node256244 -->
<g id="edge15" class="edge">
<title>Node256257&#45;&gt;Node256244</title>
<path fill="none" stroke="#191970" d="M286.4088,-384.5497C257.8289,-378.469 218.8374,-367.8129 196.095,-359.5924"/>
<polygon fill="#191970" stroke="#191970" points="285.923,-388.0222 296.4179,-386.57 287.3081,-381.1605 285.923,-388.0222"/>
</g>
<!-- Node256257&#45;&gt;Node256250 -->
<g id="edge16" class="edge">
<title>Node256257&#45;&gt;Node256250</title>
<path fill="none" stroke="#191970" d="M324.0847,-407.927C332.4965,-484.64 366.3319,-759.645 425,-821 428.6512,-824.8184 433.0118,-827.8855 437.73,-830.3468"/>
<polygon fill="#191970" stroke="#191970" points="327.5382,-407.3053 322.9903,-397.7362 320.5782,-408.0528 327.5382,-407.3053"/>
</g>
<!-- Node256258 -->
<g id="node9" class="node">
<title>Node256258</title>
<g id="a_node9"><a xlink:href="structqjs_1_1js__traits_3_01std_1_1function_3_01R_07Args_8_8_8_08_4_01_4.html#abc36cacd670b6b5f1773734a0586a02b" target="_top" xlink:title="qjs::js_traits\&lt; std\l::function\&lt; R(Args...)\l\&gt; \&gt;::unwrap">
<polygon fill="none" stroke="#000000" points="437,-392.5 437,-433.5 546,-433.5 546,-392.5 437,-392.5"/>
<text text-anchor="start" x="445" y="-421.5" font-family="Helvetica,sans-Serif" font-size="10.00" fill="#000000">qjs::js_traits&lt; std</text>
<text text-anchor="start" x="445" y="-410.5" font-family="Helvetica,sans-Serif" font-size="10.00" fill="#000000">::function&lt; R(Args...)</text>
<text text-anchor="middle" x="491.5" y="-399.5" font-family="Helvetica,sans-Serif" font-size="10.00" fill="#000000">&gt; &gt;::unwrap</text>
</a>
</g>
</g>
<!-- Node256257&#45;&gt;Node256258 -->
<g id="edge8" class="edge">
<title>Node256257&#45;&gt;Node256258</title>
<path fill="none" stroke="#191970" d="M357.7116,-393.2672C380.6128,-396.645 410.7972,-401.0969 436.6986,-404.9172"/>
<polygon fill="#191970" stroke="#191970" points="358.1471,-389.7936 347.7434,-391.797 357.1256,-396.7187 358.1471,-389.7936"/>
</g>
<!-- Node256259 -->
<g id="node10" class="node">
<title>Node256259</title>
<g id="a_node10"><a xlink:href="quickjs-libc_8c.html#abb1cbe3fdf905e81f603a3a0bfce475a" target="_top" xlink:title="call_handler">
<polygon fill="none" stroke="#ff0000" points="457.5,-354.5 457.5,-373.5 525.5,-373.5 525.5,-354.5 457.5,-354.5"/>
<text text-anchor="middle" x="491.5" y="-361.5" font-family="Helvetica,sans-Serif" font-size="10.00" fill="#000000">call_handler</text>
</a>
</g>
</g>
<!-- Node256257&#45;&gt;Node256259 -->
<g id="edge9" class="edge">
<title>Node256257&#45;&gt;Node256259</title>
<path fill="none" stroke="#191970" d="M357.9702,-382.9069C387.3013,-378.7538 428.4516,-372.9272 457.2948,-368.8432"/>
<polygon fill="#191970" stroke="#191970" points="357.1539,-379.4875 347.7434,-384.3549 358.1354,-386.4183 357.1539,-379.4875"/>
</g>
<!-- Node256264 -->
<g id="node11" class="node">
<title>Node256264</title>
<g id="a_node11"><a xlink:href="quickjs_8c.html#aa049793cc8648d35fe81876a2543ca4e" target="_top" xlink:title="JS_GetIterator2">
<polygon fill="none" stroke="#ff0000" points="448.5,-316.5 448.5,-335.5 534.5,-335.5 534.5,-316.5 448.5,-316.5"/>
<text text-anchor="middle" x="491.5" y="-323.5" font-family="Helvetica,sans-Serif" font-size="10.00" fill="#000000">JS_GetIterator2</text>
</a>
</g>
</g>
<!-- Node256257&#45;&gt;Node256264 -->
<g id="edge10" class="edge">
<title>Node256257&#45;&gt;Node256264</title>
<path fill="none" stroke="#191970" d="M357.3423,-376.395C367.6658,-372.723 378.8882,-368.4527 389,-364 405.5575,-356.709 408.2121,-351.7435 425,-345 433.9135,-341.4196 443.7502,-338.2214 453.0626,-335.5163"/>
<polygon fill="#191970" stroke="#191970" points="356.0809,-373.128 347.7855,-379.7188 358.3804,-379.7396 356.0809,-373.128"/>
</g>
<!-- Node256286 -->
<g id="node12" class="node">
<title>Node256286</title>
<g id="a_node12"><a xlink:href="quickjs_8c.html#ad6303fbd3add4afa0cb64b0aa6d431ce" target="_top" xlink:title="JS_IteratorNext2">
<polygon fill="none" stroke="#ff0000" points="446,-278.5 446,-297.5 537,-297.5 537,-278.5 446,-278.5"/>
<text text-anchor="middle" x="491.5" y="-285.5" font-family="Helvetica,sans-Serif" font-size="10.00" fill="#000000">JS_IteratorNext2</text>
</a>
</g>
</g>
<!-- Node256257&#45;&gt;Node256286 -->
<g id="edge11" class="edge">
<title>Node256257&#45;&gt;Node256286</title>
<path fill="none" stroke="#191970" d="M357.3224,-380.1664C368.2689,-376.5326 379.8475,-371.3368 389,-364 412.3787,-345.2593 401.0187,-324.9631 425,-307 431.1505,-302.393 438.3819,-298.902 445.7695,-296.257"/>
<polygon fill="#191970" stroke="#191970" points="356.1201,-376.8724 347.5349,-383.081 358.118,-383.5813 356.1201,-376.8724"/>
</g>
<!-- Node256290 -->
<g id="node13" class="node">
<title>Node256290</title>
<g id="a_node13"><a xlink:href="quickjs_8c.html#a62424fefab7bcc97f49c978205c7a1c1" target="_top" xlink:title="js_for_await_of_next">
<polygon fill="none" stroke="#000000" points="438,-792.5 438,-811.5 545,-811.5 545,-792.5 438,-792.5"/>
<text text-anchor="middle" x="491.5" y="-799.5" font-family="Helvetica,sans-Serif" font-size="10.00" fill="#000000">js_for_await_of_next</text>
</a>
</g>
</g>
<!-- Node256257&#45;&gt;Node256290 -->
<g id="edge12" class="edge">
<title>Node256257&#45;&gt;Node256290</title>
<path fill="none" stroke="#191970" d="M329.5257,-407.4189C343.0233,-442.8427 371.5623,-520.5268 389,-588 411.052,-673.3277 365.7352,-717.7712 425,-783 428.6334,-786.9991 433.0443,-790.1793 437.847,-792.705"/>
<polygon fill="#191970" stroke="#191970" points="332.7,-405.9215 325.8486,-397.8401 326.1649,-408.4303 332.7,-405.9215"/>
</g>
<!-- Node256291 -->
<g id="node14" class="node">
<title>Node256291</title>
<g id="a_node14"><a xlink:href="quickjs_8c.html#afd4ef2d701fa0702f321925b61c57bbf" target="_top" xlink:title="js_call_bound_function">
<polygon fill="none" stroke="#ff0000" points="433.5,-240.5 433.5,-259.5 549.5,-259.5 549.5,-240.5 433.5,-240.5"/>
<text text-anchor="middle" x="491.5" y="-247.5" font-family="Helvetica,sans-Serif" font-size="10.00" fill="#000000">js_call_bound_function</text>
</a>
</g>
</g>
<!-- Node256257&#45;&gt;Node256291 -->
<g id="edge14" class="edge">
<title>Node256257&#45;&gt;Node256291</title>
<path fill="none" stroke="#191970" d="M357.3781,-381.4933C368.6487,-377.9274 380.4083,-372.4362 389,-364 421.2175,-332.3654 391.7613,-299.5599 425,-269 429.2427,-265.0992 434.2323,-261.9932 439.5396,-259.5212"/>
<polygon fill="#191970" stroke="#191970" points="356.4055,-378.1308 347.6914,-384.157 358.2615,-384.8802 356.4055,-378.1308"/>
</g>
<!-- Node256292 -->
<g id="node15" class="node">
<title>Node256292</title>
<g id="a_node15"><a xlink:href="quickjs_8c.html#a3e852026d167fa03c673f86697dd3e67" target="_top" xlink:title="js_async_generator\l_resolve_or_reject">
<polygon fill="none" stroke="#ff0000" points="441,-191 441,-221 542,-221 542,-191 441,-191"/>
<text text-anchor="start" x="449" y="-209" font-family="Helvetica,sans-Serif" font-size="10.00" fill="#000000">js_async_generator</text>
<text text-anchor="middle" x="491.5" y="-198" font-family="Helvetica,sans-Serif" font-size="10.00" fill="#000000">_resolve_or_reject</text>
</a>
</g>
</g>
<!-- Node256257&#45;&gt;Node256292 -->
<g id="edge17" class="edge">
<title>Node256257&#45;&gt;Node256292</title>
<path fill="none" stroke="#191970" d="M357.5957,-382.049C368.9874,-378.5241 380.7665,-372.9166 389,-364 430.5441,-319.0088 383.8086,-276.3144 425,-231 429.48,-226.0715 435.029,-222.1099 440.9965,-218.9265"/>
<polygon fill="#191970" stroke="#191970" points="356.5576,-378.7031 347.7834,-384.6414 358.3457,-385.4709 356.5576,-378.7031"/>
</g>
<!-- Node256295 -->
<g id="node16" class="node">
<title>Node256295</title>
<g id="a_node16"><a xlink:href="quickjs_8c.html#a2355fabf91f59212ea65baba1b0b7c1b" target="_top" xlink:title="js_async_generator_next">
<polygon fill="none" stroke="#000000" points="429,-152.5 429,-171.5 554,-171.5 554,-152.5 429,-152.5"/>
<text text-anchor="middle" x="491.5" y="-159.5" font-family="Helvetica,sans-Serif" font-size="10.00" fill="#000000">js_async_generator_next</text>
</a>
</g>
</g>
<!-- Node256257&#45;&gt;Node256295 -->
<g id="edge18" class="edge">
<title>Node256257&#45;&gt;Node256295</title>
<path fill="none" stroke="#191970" d="M357.6823,-382.4491C369.1883,-378.957 381.0169,-373.268 389,-364 442.8136,-301.5251 369.5859,-243.0597 425,-182 428.9701,-177.6255 433.8566,-174.1929 439.1634,-171.5018"/>
<polygon fill="#191970" stroke="#191970" points="356.5797,-379.1184 347.7588,-384.9871 358.3142,-385.9001 356.5797,-379.1184"/>
</g>
<!-- Node256296 -->
<g id="node17" class="node">
<title>Node256296</title>
<g id="a_node17"><a xlink:href="quickjs_8c.html#a6357b7fdae71c70c140e78e6c20cb5c2" target="_top" xlink:title="js_dynamic_import_job">
<polygon fill="none" stroke="#ff0000" points="433.5,-114.5 433.5,-133.5 549.5,-133.5 549.5,-114.5 433.5,-114.5"/>
<text text-anchor="middle" x="491.5" y="-121.5" font-family="Helvetica,sans-Serif" font-size="10.00" fill="#000000">js_dynamic_import_job</text>
</a>
</g>
</g>
<!-- Node256257&#45;&gt;Node256296 -->
<g id="edge19" class="edge">
<title>Node256257&#45;&gt;Node256296</title>
<path fill="none" stroke="#191970" d="M357.5904,-382.681C369.1973,-379.21 381.1135,-373.475 389,-364 452.6643,-287.5117 358.859,-217.357 425,-143 428.4315,-139.1423 432.5864,-136.0444 437.1249,-133.5601"/>
<polygon fill="#191970" stroke="#191970" points="356.4306,-379.3632 347.579,-385.1855 358.1295,-386.1539 356.4306,-379.3632"/>
</g>
<!-- Node256298 -->
<g id="node18" class="node">
<title>Node256298</title>
<g id="a_node18"><a xlink:href="quickjs_8c.html#a8d4b24969540aff427939eeda47f451d" target="_top" xlink:title="js_function_apply">
<polygon fill="none" stroke="#ff0000" points="445.5,-76.5 445.5,-95.5 537.5,-95.5 537.5,-76.5 445.5,-76.5"/>
<text text-anchor="middle" x="491.5" y="-83.5" font-family="Helvetica,sans-Serif" font-size="10.00" fill="#000000">js_function_apply</text>
</a>
</g>
</g>
<!-- Node256257&#45;&gt;Node256298 -->
<g id="edge20" class="edge">
<title>Node256257&#45;&gt;Node256298</title>
<path fill="none" stroke="#191970" d="M357.7146,-382.7832C369.3331,-379.3217 381.2248,-373.5665 389,-364 462.2998,-273.813 348.7789,-192.7321 425,-105 430.3549,-98.8364 437.557,-94.6066 445.2472,-91.7183"/>
<polygon fill="#191970" stroke="#191970" points="356.5474,-379.4666 347.6852,-385.2729 358.2339,-386.2605 356.5474,-379.4666"/>
</g>
<!-- Node256301 -->
<g id="node19" class="node">
<title>Node256301</title>
<g id="a_node19"><a xlink:href="quickjs_8c.html#a677ad630a103e1f3d5129e0549112b50" target="_top" xlink:title="js_function_call">
<polygon fill="none" stroke="#000000" points="449.5,-754.5 449.5,-773.5 533.5,-773.5 533.5,-754.5 449.5,-754.5"/>
<text text-anchor="middle" x="491.5" y="-761.5" font-family="Helvetica,sans-Serif" font-size="10.00" fill="#000000">js_function_call</text>
</a>
</g>
</g>
<!-- Node256257&#45;&gt;Node256301 -->
<g id="edge22" class="edge">
<title>Node256257&#45;&gt;Node256301</title>
<path fill="none" stroke="#191970" d="M329.241,-407.4957C342.2837,-443.0423 370.1211,-520.9157 389,-588 408.3933,-656.9118 375.7356,-693.0582 425,-745 431.5276,-751.8824 440.3593,-756.3264 449.4513,-759.1816"/>
<polygon fill="#191970" stroke="#191970" points="332.4392,-406.0524 325.6945,-397.8817 325.8718,-408.4751 332.4392,-406.0524"/>
</g>
<!-- Node256267 -->
<g id="node20" class="node">
<title>Node256267</title>
<g id="a_node20"><a xlink:href="quickjs_8c.html#a5e32da9a43002cb96dcbd62a1a340144" target="_top" xlink:title="js_array_from">
<polygon fill="none" stroke="#000000" points="453.5,-716.5 453.5,-735.5 529.5,-735.5 529.5,-716.5 453.5,-716.5"/>
<text text-anchor="middle" x="491.5" y="-723.5" font-family="Helvetica,sans-Serif" font-size="10.00" fill="#000000">js_array_from</text>
</a>
</g>
</g>
<!-- Node256257&#45;&gt;Node256267 -->
<g id="edge23" class="edge">
<title>Node256257&#45;&gt;Node256267</title>
<path fill="none" stroke="#191970" d="M328.6153,-407.1229C340.8581,-442.6484 367.7386,-521.284 389,-588 405.7779,-640.6473 385.627,-668.2314 425,-707 432.6146,-714.4977 442.9722,-719.0786 453.2452,-721.8646"/>
<polygon fill="#191970" stroke="#191970" points="331.8797,-405.8532 325.3081,-397.5427 325.2629,-408.1374 331.8797,-405.8532"/>
</g>
<!-- Node256282 -->
<g id="node21" class="node">
<title>Node256282</title>
<g id="a_node21"><a xlink:href="quickjs_8c.html#aa0bbf08a7e91459c68a312fba7016c6d" target="_top" xlink:title="js_array_every">
<polygon fill="none" stroke="#000000" points="451.5,-678.5 451.5,-697.5 531.5,-697.5 531.5,-678.5 451.5,-678.5"/>
<text text-anchor="middle" x="491.5" y="-685.5" font-family="Helvetica,sans-Serif" font-size="10.00" fill="#000000">js_array_every</text>
</a>
</g>
</g>
<!-- Node256257&#45;&gt;Node256282 -->
<g id="edge24" class="edge">
<title>Node256257&#45;&gt;Node256282</title>
<path fill="none" stroke="#191970" d="M328.5433,-407.3208C349.5972,-469.2814 414.8129,-659.531 425,-669 432.2996,-675.785 441.8562,-680.1675 451.4389,-682.9923"/>
<polygon fill="#191970" stroke="#191970" points="331.7776,-405.9597 325.2501,-397.6145 325.1487,-408.2089 331.7776,-405.9597"/>
</g>
<!-- Node256302 -->
<g id="node22" class="node">
<title>Node256302</title>
<g id="a_node22"><a xlink:href="quickjs_8c.html#a36c1692489542a86dd79a7d39ab8ff95" target="_top" xlink:title="js_array_reduce">
<polygon fill="none" stroke="#000000" points="448.5,-640.5 448.5,-659.5 534.5,-659.5 534.5,-640.5 448.5,-640.5"/>
<text text-anchor="middle" x="491.5" y="-647.5" font-family="Helvetica,sans-Serif" font-size="10.00" fill="#000000">js_array_reduce</text>
</a>
</g>
</g>
<!-- Node256257&#45;&gt;Node256302 -->
<g id="edge25" class="edge">
<title>Node256257&#45;&gt;Node256302</title>
<path fill="none" stroke="#191970" d="M327.8036,-407.3014C343.7383,-459.1162 389.3498,-599.4734 425,-631 431.566,-636.8066 439.7947,-640.8465 448.204,-643.6553"/>
<polygon fill="#191970" stroke="#191970" points="331.129,-406.2066 324.868,-397.6597 324.4325,-408.2455 331.129,-406.2066"/>
</g>
<!-- Node256303 -->
<g id="node23" class="node">
<title>Node256303</title>
<g id="a_node23"><a xlink:href="quickjs_8c.html#a9dd41b086da4e13b3487cc9c6e2af2b8" target="_top" xlink:title="js_array_find">
<polygon fill="none" stroke="#000000" points="455.5,-602.5 455.5,-621.5 527.5,-621.5 527.5,-602.5 455.5,-602.5"/>
<text text-anchor="middle" x="491.5" y="-609.5" font-family="Helvetica,sans-Serif" font-size="10.00" fill="#000000">js_array_find</text>
</a>
</g>
</g>
<!-- Node256257&#45;&gt;Node256303 -->
<g id="edge26" class="edge">
<title>Node256257&#45;&gt;Node256303</title>
<path fill="none" stroke="#191970" d="M326.2704,-407.7068C336.1682,-448.587 364.5889,-542.9626 425,-593 433.5998,-600.123 444.7275,-604.5782 455.4115,-607.3639"/>
<polygon fill="#191970" stroke="#191970" points="329.6634,-406.8442 324.0048,-397.8871 322.8426,-408.418 329.6634,-406.8442"/>
</g>
<!-- Node256304 -->
<g id="node24" class="node">
<title>Node256304</title>
<g id="a_node24"><a xlink:href="quickjs_8c.html#ad90c33b4aae1181151bda4a98ac2ef23" target="_top" xlink:title="JS_FlattenIntoArray">
<polygon fill="none" stroke="#ff0000" points="439.5,-546.5 439.5,-565.5 543.5,-565.5 543.5,-546.5 439.5,-546.5"/>
<text text-anchor="middle" x="491.5" y="-553.5" font-family="Helvetica,sans-Serif" font-size="10.00" fill="#000000">JS_FlattenIntoArray</text>
</a>
</g>
</g>
<!-- Node256257&#45;&gt;Node256304 -->
<g id="edge27" class="edge">
<title>Node256257&#45;&gt;Node256304</title>
<path fill="none" stroke="#191970" d="M330.028,-407.2333C344.3239,-439.1074 377.2437,-502.7529 425,-537 430.3666,-540.8485 436.4968,-543.9204 442.8147,-546.3717"/>
<polygon fill="#191970" stroke="#191970" points="333.0942,-405.5072 325.8992,-397.7302 326.6739,-408.2967 333.0942,-405.5072"/>
</g>
<!-- Node256306 -->
<g id="node25" class="node">
<title>Node256306</title>
<g id="a_node25"><a xlink:href="quickjs_8c.html#aed1bf9ce4b9e3a82388679dd6ec7635b" target="_top" xlink:title="js_string_replace">
<polygon fill="none" stroke="#000000" points="446.5,-38.5 446.5,-57.5 536.5,-57.5 536.5,-38.5 446.5,-38.5"/>
<text text-anchor="middle" x="491.5" y="-45.5" font-family="Helvetica,sans-Serif" font-size="10.00" fill="#000000">js_string_replace</text>
</a>
</g>
</g>
<!-- Node256257&#45;&gt;Node256306 -->
<g id="edge29" class="edge">
<title>Node256257&#45;&gt;Node256306</title>
<path fill="none" stroke="#191970" d="M347.7835,-372.8288C362.3369,-362.8465 379.4685,-348.4185 389,-331 445.8458,-227.117 347.4507,-156.4942 425,-67 430.5828,-60.5573 438.1841,-56.2268 446.2547,-53.3324"/>
<polygon fill="#191970" stroke="#191970" points="345.6138,-370.065 339.1461,-378.4566 349.4353,-375.9299 345.6138,-370.065"/>
</g>
<!-- Node256307 -->
<g id="node26" class="node">
<title>Node256307</title>
<g id="a_node26"><a xlink:href="quickjs_8c.html#a624282391413d4c5a030adbd8b77aa80" target="_top" xlink:title="internalize_json_property">
<polygon fill="none" stroke="#ff0000" points="429,-490.5 429,-509.5 554,-509.5 554,-490.5 429,-490.5"/>
<text text-anchor="middle" x="491.5" y="-497.5" font-family="Helvetica,sans-Serif" font-size="10.00" fill="#000000">internalize_json_property</text>
</a>
</g>
</g>
<!-- Node256257&#45;&gt;Node256307 -->
<g id="edge30" class="edge">
<title>Node256257&#45;&gt;Node256307</title>
<path fill="none" stroke="#191970" d="M336.7694,-405.5222C355.3129,-426.4365 389.0752,-461.0764 425,-481 431.9303,-484.8435 439.7072,-487.968 447.4336,-490.4889"/>
<polygon fill="#191970" stroke="#191970" points="339.2051,-402.989 330.0056,-397.7336 333.9199,-407.5788 339.2051,-402.989"/>
</g>
<!-- Node256309 -->
<g id="node27" class="node">
<title>Node256309</title>
<g id="a_node27"><a xlink:href="quickjs_8c.html#a0da6493b4bc0edb7ddddfab807241d0b" target="_top" xlink:title="js_json_check">
<polygon fill="none" stroke="#ff0000" points="452,-.5 452,-19.5 531,-19.5 531,-.5 452,-.5"/>
<text text-anchor="middle" x="491.5" y="-7.5" font-family="Helvetica,sans-Serif" font-size="10.00" fill="#000000">js_json_check</text>
</a>
</g>
</g>
<!-- Node256257&#45;&gt;Node256309 -->
<g id="edge32" class="edge">
<title>Node256257&#45;&gt;Node256309</title>
<path fill="none" stroke="#191970" d="M347.8906,-372.8868C362.4819,-362.9251 379.6158,-348.4983 389,-331 452.8847,-211.8768 337.3449,-131.8989 425,-29 431.774,-21.0479 441.6242,-16.3064 451.6773,-13.5117"/>
<polygon fill="#191970" stroke="#191970" points="345.7158,-370.1253 339.226,-378.4999 349.5217,-376.0003 345.7158,-370.1253"/>
</g>
<!-- Node256313 -->
<g id="node28" class="node">
<title>Node256313</title>
<g id="a_node28"><a xlink:href="quickjs_8c.html#af97646b66d6fcb8bd19543d93baeadd7" target="_top" xlink:title="js_proxy_call_constructor">
<polygon fill="none" stroke="#ff0000" points="427.5,-452.5 427.5,-471.5 555.5,-471.5 555.5,-452.5 427.5,-452.5"/>
<text text-anchor="middle" x="491.5" y="-459.5" font-family="Helvetica,sans-Serif" font-size="10.00" fill="#000000">js_proxy_call_constructor</text>
</a>
</g>
</g>
<!-- Node256257&#45;&gt;Node256313 -->
<g id="edge33" class="edge">
<title>Node256257&#45;&gt;Node256313</title>
<path fill="none" stroke="#191970" d="M346.2006,-402.8192C366.6373,-414.8649 396.9699,-431.6618 425,-443 433.7935,-446.557 443.4925,-449.728 452.7008,-452.4125"/>
<polygon fill="#191970" stroke="#191970" points="347.9314,-399.7763 337.551,-397.6557 344.3434,-405.7868 347.9314,-399.7763"/>
</g>
<!-- Node256290&#45;&gt;Node256244 -->
<g id="edge13" class="edge">
<title>Node256290&#45;&gt;Node256244</title>
<path fill="none" stroke="#191970" d="M432.3504,-787.9188C429.7708,-786.4399 427.3033,-784.8058 425,-783 269.296,-660.927 194.3658,-411.8041 180.0642,-359.6903"/>
<polygon fill="#191970" stroke="#191970" points="430.9552,-791.1323 441.4772,-792.3721 434.0249,-784.8413 430.9552,-791.1323"/>
</g>
<!-- Node256298&#45;&gt;Node256244 -->
<g id="edge21" class="edge">
<title>Node256298&#45;&gt;Node256244</title>
<path fill="none" stroke="#191970" d="M435.9527,-96.201C431.8686,-98.572 428.131,-101.4676 425,-105 357.5344,-181.1149 463.3365,-261.5798 389,-331 343.3292,-373.6503 265.4173,-368.1517 217.9801,-359.5664"/>
<polygon fill="#191970" stroke="#191970" points="437.7723,-99.2138 445.3458,-91.8047 434.805,-92.8738 437.7723,-99.2138"/>
</g>
<!-- Node256304&#45;&gt;Node256304 -->
<g id="edge28" class="edge">
<title>Node256304&#45;&gt;Node256304</title>
<path fill="none" stroke="#191970" d="M460.0629,-574.2746C460.9592,-579.741 471.4382,-584 491.5,-584 521.3594,-584 529.9906,-574.5653 517.3937,-565.7571"/>
<polygon fill="#191970" stroke="#191970" points="463.085,-576.0475 465.6063,-565.7571 457.2181,-572.2291 463.085,-576.0475"/>
</g>
<!-- Node256307&#45;&gt;Node256307 -->
<g id="edge31" class="edge">
<title>Node256307&#45;&gt;Node256307</title>
<path fill="none" stroke="#191970" d="M460.0629,-518.2746C460.9592,-523.741 471.4382,-528 491.5,-528 521.3594,-528 529.9906,-518.5653 517.3937,-509.7571"/>
<polygon fill="#191970" stroke="#191970" points="463.085,-520.0475 465.6063,-509.7571 457.2181,-516.2291 463.085,-520.0475"/>
</g>
<!-- Node256331&#45;&gt;Node256244 -->
<g id="edge35" class="edge">
<title>Node256331&#45;&gt;Node256244</title>
<path fill="none" stroke="#191970" d="M297.6333,-286.6763C284.5753,-290.7533 268.4528,-295.4145 255,-302 233.3984,-312.5746 211.5771,-329.288 196.6182,-340.2863"/>
<polygon fill="#191970" stroke="#191970" points="298.9199,-289.9381 307.3391,-283.5063 296.7466,-283.284 298.9199,-289.9381"/>
</g>
<!-- Node256345&#45;&gt;Node256244 -->
<g id="edge37" class="edge">
<title>Node256345&#45;&gt;Node256244</title>
<path fill="none" stroke="#191970" d="M293.7961,-324.8979C272.5982,-331.8825 243.2201,-339.8432 219.2954,-345.1948"/>
<polygon fill="#191970" stroke="#191970" points="295.1689,-328.127 303.4855,-321.5632 292.8909,-321.508 295.1689,-328.127"/>
</g>
<!-- Node256345&#45;&gt;Node256306 -->
<g id="edge39" class="edge">
<title>Node256345&#45;&gt;Node256306</title>
<path fill="none" stroke="#191970" d="M367.4133,-306.6486C375.5737,-303.7571 383.2871,-299.4326 389,-293 456.5406,-216.9517 357.5344,-143.1149 425,-67 430.6547,-60.6203 438.288,-56.3179 446.3674,-53.4312"/>
<polygon fill="#191970" stroke="#191970" points="366.3708,-303.3063 357.7214,-309.425 368.2986,-310.0357 366.3708,-303.3063"/>
</g>
<!-- Node256345&#45;&gt;Node256309 -->
<g id="edge38" class="edge">
<title>Node256345&#45;&gt;Node256309</title>
<path fill="none" stroke="#191970" d="M367.5267,-306.7482C375.6784,-303.8491 383.3596,-299.4962 389,-293 466.6376,-203.5823 347.4507,-118.4942 425,-29 431.8409,-21.1054 441.7125,-16.3823 451.7647,-13.5868"/>
<polygon fill="#191970" stroke="#191970" points="366.4844,-303.4059 357.8353,-309.525 368.4125,-310.1351 366.4844,-303.4059"/>
</g>
</g>
</svg>
        <g id="navigator" transform="translate(0 0)" fill="#404254">
                <rect fill="#f2f5e9" fill-opacity="0.5" stroke="#606060" stroke-width=".5" x="0" y="0" width="60" height="60"/>
                <use id="zoomplus" xlink:href="#zoomPlus" x="17" y="9" onmousedown="handleZoom(evt,'in')"/>
                <use id="zoomminus" xlink:href="#zoomMin" x="42" y="9" onmousedown="handleZoom(evt,'out')"/>
                <use id="reset" xlink:href="#resetDef" x="30" y="36" onmousedown="handleReset()"/>
                <g id="arrowUp" xlink:href="#dirArrow" transform="translate(30 24)" onmousedown="handlePan(0,-1)">
                  <use xlink:href="#rim" fill="#404040">
                        <set attributeName="fill" to="#808080" begin="arrowUp.mouseover" end="arrowUp.mouseout"/>
                  </use>
                  <path fill="none" stroke="white" stroke-width="1.5" d="M0,-3.0v7 M-2.5,-0.5L0,-3.0L2.5,-0.5"/>
                </g>
                <g id="arrowRight" xlink:href="#dirArrow" transform="rotate(90) translate(36 -43)" onmousedown="handlePan(1,0)">
                  <use xlink:href="#rim" fill="#404040">
                        <set attributeName="fill" to="#808080" begin="arrowRight.mouseover" end="arrowRight.mouseout"/>
                  </use>
                  <path fill="none" stroke="white" stroke-width="1.5" d="M0,-3.0v7 M-2.5,-0.5L0,-3.0L2.5,-0.5"/>
                </g>
                <g id="arrowDown" xlink:href="#dirArrow" transform="rotate(180) translate(-30 -48)" onmousedown="handlePan(0,1)">
                  <use xlink:href="#rim" fill="#404040">
                        <set attributeName="fill" to="#808080" begin="arrowDown.mouseover" end="arrowDown.mouseout"/>
                  </use>
                  <path fill="none" stroke="white" stroke-width="1.5" d="M0,-3.0v7 M-2.5,-0.5L0,-3.0L2.5,-0.5"/>
                </g>
                <g id="arrowLeft" xlink:href="#dirArrow" transform="rotate(270) translate(-36 17)" onmousedown="handlePan(-1,0)">
                  <use xlink:href="#rim" fill="#404040">
                        <set attributeName="fill" to="#808080" begin="arrowLeft.mouseover" end="arrowLeft.mouseout"/>
                  </use>
                  <path fill="none" stroke="white" stroke-width="1.5" d="M0,-3.0v7 M-2.5,-0.5L0,-3.0L2.5,-0.5"/>
                </g>
        </g>
        <svg viewBox="0 0 15 15" width="100%" height="30px" preserveAspectRatio="xMaxYMin meet">
         <g id="arrow_out" transform="scale(0.3 0.3)">
          <a xlink:href="quickjs_8c_a4bc21a37de9a904eb78a57afc1067eb9_icgraph_org.svg" target="_base">
           <rect id="button" ry="5" rx="5" y="6" x="6" height="38" width="38"
                fill="#f2f5e9" fill-opacity="0.5" stroke="#606060" stroke-width="1.0"/>
           <path id="arrow"
             d="M 11.500037,31.436501 C 11.940474,20.09759 22.043105,11.32322 32.158766,21.979434 L 37.068811,17.246167 C 37.068811,17.246167 37.088388,32 37.088388,32 L 22.160133,31.978069 C 22.160133,31.978069 26.997745,27.140456 26.997745,27.140456 C 18.528582,18.264221 13.291696,25.230495 11.500037,31.436501 z"
             style="fill:#404040;"/>
          </a>
         </g>
        </svg>
</svg>
