<?xml version="1.0" encoding="UTF-8" standalone="no"?>
<!DOCTYPE svg PUBLIC "-//W3C//DTD SVG 1.1//EN"
 "http://www.w3.org/Graphics/SVG/1.1/DTD/svg11.dtd">
<!-- Generated by graphviz version 2.40.1 (20161225.0304)
 -->
<!-- Title: get_exported_names Pages: 1 -->
<svg width="354pt" height="85pt"
 viewBox="0.00 0.00 354.00 85.00" xmlns="http://www.w3.org/2000/svg" xmlns:xlink="http://www.w3.org/1999/xlink">
<g id="graph0" class="graph" transform="scale(1 1) rotate(0) translate(4 81)">
<title>get_exported_names</title>
<!-- Node324374 -->
<g id="node1" class="node">
<title>Node324374</title>
<polygon fill="#bfbfbf" stroke="#000000" points="0,-38.5 0,-57.5 107,-57.5 107,-38.5 0,-38.5"/>
<text text-anchor="middle" x="53.5" y="-45.5" font-family="Helvetica,sans-Serif" font-size="10.00" fill="#000000">get_exported_names</text>
</g>
<!-- Node324374&#45;&gt;Node324374 -->
<g id="edge2" class="edge">
<title>Node324374&#45;&gt;Node324374</title>
<path fill="none" stroke="#191970" d="M31.9219,-57.7571C21.4245,-66.5653 28.6172,-76 53.5,-76 69.4406,-76 78.1211,-72.128 79.5416,-67.0292"/>
<polygon fill="#191970" stroke="#191970" points="82.5692,-65.2493 75.0781,-57.7571 76.262,-68.2855 82.5692,-65.2493"/>
</g>
<!-- Node324375 -->
<g id="node2" class="node">
<title>Node324375</title>
<g id="a_node2"><a xlink:href="quickjs_8c.html#a7b018150a56e3c8e7a5b5031c8df4fb0" target="_top" xlink:title="find_exported_name">
<polygon fill="none" stroke="#000000" points="143,-57.5 143,-76.5 247,-76.5 247,-57.5 143,-57.5"/>
<text text-anchor="middle" x="195" y="-64.5" font-family="Helvetica,sans-Serif" font-size="10.00" fill="#000000">find_exported_name</text>
</a>
</g>
</g>
<!-- Node324374&#45;&gt;Node324375 -->
<g id="edge1" class="edge">
<title>Node324374&#45;&gt;Node324375</title>
<path fill="none" stroke="#191970" d="M107.3987,-55.2373C115.6165,-56.3407 124.1562,-57.4874 132.5386,-58.613"/>
<polygon fill="#191970" stroke="#191970" points="132.2761,-62.109 142.653,-59.9711 133.2078,-55.1713 132.2761,-62.109"/>
</g>
<!-- Node324376 -->
<g id="node3" class="node">
<title>Node324376</title>
<g id="a_node3"><a xlink:href="quickjs_8c.html#a39677cf9d17404b20a0d067fe1f4a86d" target="_top" xlink:title="js_resize_array">
<polygon fill="none" stroke="#000000" points="153.5,-19.5 153.5,-38.5 236.5,-38.5 236.5,-19.5 153.5,-19.5"/>
<text text-anchor="middle" x="195" y="-26.5" font-family="Helvetica,sans-Serif" font-size="10.00" fill="#000000">js_resize_array</text>
</a>
</g>
</g>
<!-- Node324374&#45;&gt;Node324376 -->
<g id="edge3" class="edge">
<title>Node324374&#45;&gt;Node324376</title>
<path fill="none" stroke="#191970" d="M107.3987,-40.7627C119.1176,-39.1892 131.4914,-37.5277 143.1297,-35.9649"/>
<polygon fill="#191970" stroke="#191970" points="143.6879,-39.4215 153.1331,-34.6217 142.7562,-32.4837 143.6879,-39.4215"/>
</g>
<!-- Node324377 -->
<g id="node4" class="node">
<title>Node324377</title>
<g id="a_node4"><a xlink:href="quickjs_8c.html#a1c31248142879982abb1595f97817cd9" target="_top" xlink:title="js_realloc2">
<polygon fill="none" stroke="#000000" points="283,-38.5 283,-57.5 346,-57.5 346,-38.5 283,-38.5"/>
<text text-anchor="middle" x="314.5" y="-45.5" font-family="Helvetica,sans-Serif" font-size="10.00" fill="#000000">js_realloc2</text>
</a>
</g>
</g>
<!-- Node324376&#45;&gt;Node324377 -->
<g id="edge4" class="edge">
<title>Node324376&#45;&gt;Node324377</title>
<path fill="none" stroke="#191970" d="M236.7953,-35.6453C248.456,-37.4993 261.1224,-39.5132 272.7788,-41.3665"/>
<polygon fill="#191970" stroke="#191970" points="272.286,-44.832 282.7116,-42.9458 273.3852,-37.9189 272.286,-44.832"/>
</g>
<!-- Node324378 -->
<g id="node5" class="node">
<title>Node324378</title>
<g id="a_node5"><a xlink:href="cutils_8h.html#a94f155fcce337a2b9d4719ed8042cbbe" target="_top" xlink:title="max_int">
<polygon fill="none" stroke="#000000" points="289,-.5 289,-19.5 340,-19.5 340,-.5 289,-.5"/>
<text text-anchor="middle" x="314.5" y="-7.5" font-family="Helvetica,sans-Serif" font-size="10.00" fill="#000000">max_int</text>
</a>
</g>
</g>
<!-- Node324376&#45;&gt;Node324378 -->
<g id="edge5" class="edge">
<title>Node324376&#45;&gt;Node324378</title>
<path fill="none" stroke="#191970" d="M236.7953,-22.3547C250.4972,-20.1762 265.5878,-17.7768 278.7966,-15.6767"/>
<polygon fill="#191970" stroke="#191970" points="279.5975,-19.0934 288.9238,-14.0665 278.4983,-12.1802 279.5975,-19.0934"/>
</g>
</g>
</svg>
