<?xml version="1.0" encoding="UTF-8" standalone="no"?>
<!DOCTYPE svg PUBLIC "-//W3C//DTD SVG 1.1//EN"
 "http://www.w3.org/Graphics/SVG/1.1/DTD/svg11.dtd">
<!-- Generated by graphviz version 2.40.1 (20161225.0304)
 -->
<!-- Title: JS_SetModuleExport Pages: 1 -->
<svg width="509pt" height="116pt"
 viewBox="0.00 0.00 509.00 115.50" xmlns="http://www.w3.org/2000/svg" xmlns:xlink="http://www.w3.org/1999/xlink">
<g id="graph0" class="graph" transform="scale(1 1) rotate(0) translate(4 111.5)">
<title>JS_SetModuleExport</title>
<!-- Node318610 -->
<g id="node1" class="node">
<title>Node318610</title>
<polygon fill="#bfbfbf" stroke="#000000" points="0,-50 0,-69 109,-69 109,-50 0,-50"/>
<text text-anchor="middle" x="54.5" y="-57" font-family="Helvetica,sans-Serif" font-size="10.00" fill="#000000">JS_SetModuleExport</text>
</g>
<!-- Node318611 -->
<g id="node2" class="node">
<title>Node318611</title>
<g id="a_node2"><a xlink:href="quickjs_8c.html#a04f1ec3f8d1f5c012280eb23e64a7b58" target="_top" xlink:title="JS_SetModuleExportList">
<polygon fill="none" stroke="#000000" points="145,-50 145,-69 270,-69 270,-50 145,-50"/>
<text text-anchor="middle" x="207.5" y="-57" font-family="Helvetica,sans-Serif" font-size="10.00" fill="#000000">JS_SetModuleExportList</text>
</a>
</g>
</g>
<!-- Node318610&#45;&gt;Node318611 -->
<g id="edge1" class="edge">
<title>Node318610&#45;&gt;Node318611</title>
<path fill="none" stroke="#191970" d="M119.4187,-59.5C127.811,-59.5 136.3936,-59.5 144.7499,-59.5"/>
<polygon fill="#191970" stroke="#191970" points="119.3044,-56.0001 109.3044,-59.5 119.3043,-63.0001 119.3044,-56.0001"/>
</g>
<!-- Node318612 -->
<g id="node3" class="node">
<title>Node318612</title>
<g id="a_node3"><a xlink:href="quickjs-libc_8c.html#a08cea1a0226b7603e6969e2208d99d55" target="_top" xlink:title="js_std_init">
<polygon fill="none" stroke="#000000" points="306,-88 306,-107 367,-107 367,-88 306,-88"/>
<text text-anchor="middle" x="336.5" y="-95" font-family="Helvetica,sans-Serif" font-size="10.00" fill="#000000">js_std_init</text>
</a>
</g>
</g>
<!-- Node318610&#45;&gt;Node318612 -->
<g id="edge6" class="edge">
<title>Node318610&#45;&gt;Node318612</title>
<path fill="none" stroke="#191970" d="M105.4052,-71.1934C118.2753,-73.872 132.1043,-76.5125 145,-78.5 201.464,-87.2022 267.9396,-92.7563 305.8586,-95.4851"/>
<polygon fill="#191970" stroke="#191970" points="105.8349,-67.7065 95.3254,-69.0487 104.3781,-74.5533 105.8349,-67.7065"/>
</g>
<!-- Node318617 -->
<g id="node7" class="node">
<title>Node318617</title>
<g id="a_node7"><a xlink:href="classqjs_1_1Context_1_1Module.html#a3b16e4ca57ab1de004a35ae1930b40d2" target="_top" xlink:title="qjs::Context::Module\l::Module">
<polygon fill="none" stroke="#000000" points="154,-.5 154,-30.5 261,-30.5 261,-.5 154,-.5"/>
<text text-anchor="start" x="162" y="-18.5" font-family="Helvetica,sans-Serif" font-size="10.00" fill="#000000">qjs::Context::Module</text>
<text text-anchor="middle" x="207.5" y="-7.5" font-family="Helvetica,sans-Serif" font-size="10.00" fill="#000000">::Module</text>
</a>
</g>
</g>
<!-- Node318610&#45;&gt;Node318617 -->
<g id="edge7" class="edge">
<title>Node318610&#45;&gt;Node318617</title>
<path fill="none" stroke="#191970" d="M97.3113,-47.1882C115.2459,-42.0306 136.2672,-35.9852 155.1136,-30.5654"/>
<polygon fill="#191970" stroke="#191970" points="96.3419,-43.8251 87.6987,-49.9527 98.2766,-50.5525 96.3419,-43.8251"/>
</g>
<!-- Node318611&#45;&gt;Node318612 -->
<g id="edge2" class="edge">
<title>Node318611&#45;&gt;Node318612</title>
<path fill="none" stroke="#191970" d="M249.8626,-71.9789C268.0977,-77.3505 289.0193,-83.5134 305.7345,-88.4373"/>
<polygon fill="#191970" stroke="#191970" points="250.6336,-68.5574 240.0521,-69.089 248.6556,-75.2721 250.6336,-68.5574"/>
</g>
<!-- Node318615 -->
<g id="node5" class="node">
<title>Node318615</title>
<g id="a_node5"><a xlink:href="quickjs-libc_8c.html#a066e7962ce24f22d5df20968a8baa346" target="_top" xlink:title="js_os_init">
<polygon fill="none" stroke="#000000" points="307.5,-50 307.5,-69 365.5,-69 365.5,-50 307.5,-50"/>
<text text-anchor="middle" x="336.5" y="-57" font-family="Helvetica,sans-Serif" font-size="10.00" fill="#000000">js_os_init</text>
</a>
</g>
</g>
<!-- Node318611&#45;&gt;Node318615 -->
<g id="edge4" class="edge">
<title>Node318611&#45;&gt;Node318615</title>
<path fill="none" stroke="#191970" d="M280.1243,-59.5C289.6838,-59.5 299.0014,-59.5 307.2191,-59.5"/>
<polygon fill="#191970" stroke="#191970" points="280.1106,-56.0001 270.1106,-59.5 280.1106,-63.0001 280.1106,-56.0001"/>
</g>
<!-- Node318613 -->
<g id="node4" class="node">
<title>Node318613</title>
<g id="a_node4"><a xlink:href="quickjs-libc_8c.html#a0e65c67dfff872a664f8d29e7eae5a61" target="_top" xlink:title="js_init_module_std">
<polygon fill="none" stroke="#ff0000" points="403,-88 403,-107 501,-107 501,-88 403,-88"/>
<text text-anchor="middle" x="452" y="-95" font-family="Helvetica,sans-Serif" font-size="10.00" fill="#000000">js_init_module_std</text>
</a>
</g>
</g>
<!-- Node318612&#45;&gt;Node318613 -->
<g id="edge3" class="edge">
<title>Node318612&#45;&gt;Node318613</title>
<path fill="none" stroke="#191970" d="M377.2978,-97.5C385.5709,-97.5 394.3533,-97.5 402.8789,-97.5"/>
<polygon fill="#191970" stroke="#191970" points="377.1487,-94.0001 367.1486,-97.5 377.1486,-101.0001 377.1487,-94.0001"/>
</g>
<!-- Node318616 -->
<g id="node6" class="node">
<title>Node318616</title>
<g id="a_node6"><a xlink:href="quickjs-libc_8c.html#adcca2b4a661355e6ff87a0def2339894" target="_top" xlink:title="js_init_module_os">
<polygon fill="none" stroke="#ff0000" points="404.5,-50 404.5,-69 499.5,-69 499.5,-50 404.5,-50"/>
<text text-anchor="middle" x="452" y="-57" font-family="Helvetica,sans-Serif" font-size="10.00" fill="#000000">js_init_module_os</text>
</a>
</g>
</g>
<!-- Node318615&#45;&gt;Node318616 -->
<g id="edge5" class="edge">
<title>Node318615&#45;&gt;Node318616</title>
<path fill="none" stroke="#191970" d="M375.7107,-59.5C384.9432,-59.5 394.8829,-59.5 404.4383,-59.5"/>
<polygon fill="#191970" stroke="#191970" points="375.6456,-56.0001 365.6455,-59.5 375.6455,-63.0001 375.6456,-56.0001"/>
</g>
</g>
</svg>
