<?xml version="1.0" encoding="UTF-8" standalone="no"?>
<!DOCTYPE svg PUBLIC "-//W3C//DTD SVG 1.1//EN"
 "http://www.w3.org/Graphics/SVG/1.1/DTD/svg11.dtd">
<!-- Generated by graphviz version 2.40.1 (20161225.0304)
 -->
<!-- Title: ValueBuffer Pages: 1 -->
<!--zoomable 534 -->
<svg id="main" version="1.1" xmlns="http://www.w3.org/2000/svg" xmlns:xlink="http://www.w3.org/1999/xlink" xml:space="preserve" onload="init(evt)">
<style type="text/css"><![CDATA[
.edge:hover path { stroke: red; }
.edge:hover polygon { stroke: red; fill: red; }
]]></style>
<script type="text/javascript"><![CDATA[
var edges = document.getElementsByTagName('g');
if (edges && edges.length) {
  for (var i=0;i<edges.length;i++) {
    if (edges[i].id.substr(0,4)=='edge') {
      edges[i].setAttribute('class','edge');
    }
  }
}
]]></script>
        <defs>
                <circle id="rim" cx="0" cy="0" r="7"/>
                <circle id="rim2" cx="0" cy="0" r="3.5"/>
                <g id="zoomPlus">
                        <use xlink:href="#rim" fill="#404040">
                                <set attributeName="fill" to="#808080" begin="zoomplus.mouseover" end="zoomplus.mouseout"/>
                        </use>
                        <path d="M-4,0h8M0,-4v8" fill="none" stroke="white" stroke-width="1.5" pointer-events="none"/>
                </g>
                <g id="zoomMin">
                        <use xlink:href="#rim" fill="#404040">
                                <set attributeName="fill" to="#808080" begin="zoomminus.mouseover" end="zoomminus.mouseout"/>
                        </use>
                        <path d="M-4,0h8" fill="none" stroke="white" stroke-width="1.5" pointer-events="none"/>
                </g>
                <g id="dirArrow">
                        <path fill="none" stroke="white" stroke-width="1.5" d="M0,-3.0v7 M-2.5,-0.5L0,-3.0L2.5,-0.5"/>
                </g>
               <g id="resetDef">
                       <use xlink:href="#rim2" fill="#404040">
                               <set attributeName="fill" to="#808080" begin="reset.mouseover" end="reset.mouseout"/>
                       </use>
               </g>
        </defs>

<script type="text/javascript">
var viewWidth = 1127;
var viewHeight = 534;
var sectionId = 'dynsection-0';
</script>
<script xlink:href="svgpan.js"/>
<svg id="graph" class="graph">
<g id="viewport">
<title>ValueBuffer</title>
<!-- Node1 -->
<g id="node1" class="node">
<title>Node1</title>
<polygon fill="#bfbfbf" stroke="#000000" points="694,-.5 694,-19.5 762,-19.5 762,-.5 694,-.5"/>
<text text-anchor="middle" x="728" y="-7.5" font-family="Helvetica,sans-Serif" font-size="10.00" fill="#000000">ValueBuffer</text>
</g>
<!-- Node2 -->
<g id="node2" class="node">
<title>Node2</title>
<g id="a_node2"><a xlink:href="structJSValue.html" target="_top" xlink:title="JSValue">
<polygon fill="none" stroke="#000000" points="862.5,-437.5 862.5,-456.5 915.5,-456.5 915.5,-437.5 862.5,-437.5"/>
<text text-anchor="middle" x="889" y="-444.5" font-family="Helvetica,sans-Serif" font-size="10.00" fill="#000000">JSValue</text>
</a>
</g>
</g>
<!-- Node2&#45;&gt;Node1 -->
<g id="edge1" class="edge">
<title>Node2&#45;&gt;Node1</title>
<path fill="none" stroke="#9a32cd" stroke-dasharray="5,2" d="M925.872,-442.7756C987.3203,-433.4619 1104,-405.0993 1104,-324 1104,-324 1104,-324 1104,-77 1104,-42.438 854.5865,-19.7309 762.0306,-12.4943"/>
<polygon fill="#9a32cd" stroke="#9a32cd" points="925.2034,-439.3353 915.7952,-444.2073 926.1881,-446.2657 925.2034,-439.3353"/>
<text text-anchor="middle" x="1111.5" y="-148" font-family="Helvetica,sans-Serif" font-size="10.00" fill="#000000"> arr</text>
<text text-anchor="middle" x="1111.5" y="-137" font-family="Helvetica,sans-Serif" font-size="10.00" fill="#000000">def</text>
</g>
<!-- Node4 -->
<g id="node4" class="node">
<title>Node4</title>
<g id="a_node4"><a xlink:href="structJSContext.html" target="_top" xlink:title="JSContext">
<polygon fill="none" stroke="#000000" points="231.5,-67.5 231.5,-86.5 294.5,-86.5 294.5,-67.5 231.5,-67.5"/>
<text text-anchor="middle" x="263" y="-74.5" font-family="Helvetica,sans-Serif" font-size="10.00" fill="#000000">JSContext</text>
</a>
</g>
</g>
<!-- Node2&#45;&gt;Node4 -->
<g id="edge21" class="edge">
<title>Node2&#45;&gt;Node4</title>
<path fill="none" stroke="#9a32cd" stroke-dasharray="5,2" d="M908.2616,-430.5309C930.0268,-410.5223 964.2144,-374.5069 978,-335 997.558,-278.9507 1001.9969,-231.7276 934,-174 884.4809,-131.9597 421.4279,-90.2963 294.8463,-79.6196"/>
<polygon fill="#9a32cd" stroke="#9a32cd" points="905.7148,-428.1131 900.5965,-437.3896 910.3826,-433.3297 905.7148,-428.1131"/>
<text text-anchor="middle" x="1036" y="-287" font-family="Helvetica,sans-Serif" font-size="10.00" fill="#000000"> async_iterator_proto</text>
<text text-anchor="middle" x="1036" y="-276" font-family="Helvetica,sans-Serif" font-size="10.00" fill="#000000">function_proto</text>
<text text-anchor="middle" x="1036" y="-265" font-family="Helvetica,sans-Serif" font-size="10.00" fill="#000000">function_ctor</text>
<text text-anchor="middle" x="1036" y="-254" font-family="Helvetica,sans-Serif" font-size="10.00" fill="#000000">array_ctor</text>
<text text-anchor="middle" x="1036" y="-243" font-family="Helvetica,sans-Serif" font-size="10.00" fill="#000000">class_proto</text>
<text text-anchor="middle" x="1036" y="-232" font-family="Helvetica,sans-Serif" font-size="10.00" fill="#000000">array_proto_values</text>
<text text-anchor="middle" x="1036" y="-221" font-family="Helvetica,sans-Serif" font-size="10.00" fill="#000000">regexp_ctor</text>
<text text-anchor="middle" x="1036" y="-210" font-family="Helvetica,sans-Serif" font-size="10.00" fill="#000000">throw_type_error</text>
<text text-anchor="middle" x="1036" y="-199" font-family="Helvetica,sans-Serif" font-size="10.00" fill="#000000">native_error_proto</text>
<text text-anchor="middle" x="1036" y="-188" font-family="Helvetica,sans-Serif" font-size="10.00" fill="#000000">eval_obj</text>
<text text-anchor="middle" x="1036" y="-177" font-family="Helvetica,sans-Serif" font-size="10.00" fill="#000000">...</text>
</g>
<!-- Node5 -->
<g id="node5" class="node">
<title>Node5</title>
<g id="a_node5"><a xlink:href="structJSRuntime.html" target="_top" xlink:title="JSRuntime">
<polygon fill="none" stroke="#000000" points="454.5,-135.5 454.5,-154.5 519.5,-154.5 519.5,-135.5 454.5,-135.5"/>
<text text-anchor="middle" x="487" y="-142.5" font-family="Helvetica,sans-Serif" font-size="10.00" fill="#000000">JSRuntime</text>
</a>
</g>
</g>
<!-- Node2&#45;&gt;Node5 -->
<g id="edge8" class="edge">
<title>Node2&#45;&gt;Node5</title>
<path fill="none" stroke="#9a32cd" stroke-dasharray="5,2" d="M862.0846,-432.6853C806.1882,-402.9338 682.5625,-337.0004 681,-335 635.5469,-276.8084 693.8065,-224.5679 640,-174 623.0082,-158.0309 559.4467,-150.4154 519.7905,-147.1464"/>
<polygon fill="#9a32cd" stroke="#9a32cd" points="860.5967,-435.8582 871.0688,-437.4661 863.8851,-429.6787 860.5967,-435.8582"/>
<text text-anchor="middle" x="721.5" y="-321.5" font-family="Helvetica,sans-Serif" font-size="10.00" fill="#000000"> current_exception</text>
</g>
<!-- Node30 -->
<g id="node13" class="node">
<title>Node30</title>
<g id="a_node13"><a xlink:href="structJSStackFrame.html" target="_top" xlink:title="JSStackFrame">
<polygon fill="none" stroke="#000000" points="446,-314.5 446,-333.5 528,-333.5 528,-314.5 446,-314.5"/>
<text text-anchor="middle" x="487" y="-321.5" font-family="Helvetica,sans-Serif" font-size="10.00" fill="#000000">JSStackFrame</text>
</a>
</g>
</g>
<!-- Node2&#45;&gt;Node30 -->
<g id="edge18" class="edge">
<title>Node2&#45;&gt;Node30</title>
<path fill="none" stroke="#9a32cd" stroke-dasharray="5,2" d="M852.277,-444.2904C794.7384,-439.7358 688.4778,-429.9613 675,-419 650.9004,-399.4003 675.6638,-373.1237 652,-353 633.7762,-337.5025 570.8433,-329.9474 528.1841,-326.5265"/>
<polygon fill="#9a32cd" stroke="#9a32cd" points="852.179,-447.7932 862.4203,-445.0792 852.7218,-440.8143 852.179,-447.7932"/>
<text text-anchor="middle" x="694" y="-400" font-family="Helvetica,sans-Serif" font-size="10.00" fill="#000000"> var_buf</text>
<text text-anchor="middle" x="694" y="-389" font-family="Helvetica,sans-Serif" font-size="10.00" fill="#000000">arg_buf</text>
<text text-anchor="middle" x="694" y="-378" font-family="Helvetica,sans-Serif" font-size="10.00" fill="#000000">cur_sp</text>
<text text-anchor="middle" x="694" y="-367" font-family="Helvetica,sans-Serif" font-size="10.00" fill="#000000">cur_func</text>
</g>
<!-- Node3 -->
<g id="node3" class="node">
<title>Node3</title>
<g id="a_node3"><a xlink:href="unionJSValueUnion.html" target="_top" xlink:title="JSValueUnion">
<polygon fill="none" stroke="#000000" points="849.5,-505.5 849.5,-524.5 928.5,-524.5 928.5,-505.5 849.5,-505.5"/>
<text text-anchor="middle" x="889" y="-512.5" font-family="Helvetica,sans-Serif" font-size="10.00" fill="#000000">JSValueUnion</text>
</a>
</g>
</g>
<!-- Node3&#45;&gt;Node2 -->
<g id="edge2" class="edge">
<title>Node3&#45;&gt;Node2</title>
<path fill="none" stroke="#9a32cd" stroke-dasharray="5,2" d="M889,-495.1951C889,-482.5514 889,-466.7157 889,-456.7247"/>
<polygon fill="#9a32cd" stroke="#9a32cd" points="885.5001,-495.2572 889,-505.2573 892.5001,-495.2573 885.5001,-495.2572"/>
<text text-anchor="middle" x="893.5" y="-478" font-family="Helvetica,sans-Serif" font-size="10.00" fill="#000000"> u</text>
</g>
<!-- Node4&#45;&gt;Node1 -->
<g id="edge3" class="edge">
<title>Node4&#45;&gt;Node1</title>
<path fill="none" stroke="#9a32cd" stroke-dasharray="5,2" d="M304.5308,-71.016C395.3666,-57.9278 610.2426,-26.9672 693.8656,-14.9183"/>
<polygon fill="#9a32cd" stroke="#9a32cd" points="303.9944,-67.557 294.5958,-72.4475 304.9927,-74.4855 303.9944,-67.557"/>
<text text-anchor="middle" x="532.5" y="-41" font-family="Helvetica,sans-Serif" font-size="10.00" fill="#000000"> ctx</text>
</g>
<!-- Node5&#45;&gt;Node4 -->
<g id="edge4" class="edge">
<title>Node5&#45;&gt;Node4</title>
<path fill="none" stroke="#9a32cd" stroke-dasharray="5,2" d="M445.6349,-132.4428C401.9324,-119.1759 333.9872,-98.5497 294.4578,-86.5497"/>
<polygon fill="#9a32cd" stroke="#9a32cd" points="444.7958,-135.8457 455.3814,-135.4015 446.8293,-129.1475 444.7958,-135.8457"/>
<text text-anchor="middle" x="394" y="-108" font-family="Helvetica,sans-Serif" font-size="10.00" fill="#000000"> rt</text>
</g>
<!-- Node6 -->
<g id="node6" class="node">
<title>Node6</title>
<g id="a_node6"><a xlink:href="structlist__head.html" target="_top" xlink:title="list_head">
<polygon fill="none" stroke="#000000" points="324,-505.5 324,-524.5 380,-524.5 380,-505.5 324,-505.5"/>
<text text-anchor="middle" x="352" y="-512.5" font-family="Helvetica,sans-Serif" font-size="10.00" fill="#000000">list_head</text>
</a>
</g>
</g>
<!-- Node6&#45;&gt;Node4 -->
<g id="edge20" class="edge">
<title>Node6&#45;&gt;Node4</title>
<path fill="none" stroke="#9a32cd" stroke-dasharray="5,2" d="M313.5855,-511.5816C222.3085,-502.9437 0,-478.6565 0,-447 0,-447 0,-447 0,-145 0,-97.7209 161.3261,-82.7884 231.2761,-78.5359"/>
<polygon fill="#9a32cd" stroke="#9a32cd" points="313.5075,-515.0894 323.7894,-512.5335 314.1577,-508.1197 313.5075,-515.0894"/>
<text text-anchor="middle" x="37" y="-327" font-family="Helvetica,sans-Serif" font-size="10.00" fill="#000000"> loaded_modules</text>
<text text-anchor="middle" x="37" y="-316" font-family="Helvetica,sans-Serif" font-size="10.00" fill="#000000">link</text>
</g>
<!-- Node6&#45;&gt;Node5 -->
<g id="edge5" class="edge">
<title>Node6&#45;&gt;Node5</title>
<path fill="none" stroke="#9a32cd" stroke-dasharray="5,2" d="M384.6057,-501.165C407.5686,-490.6754 438.4655,-475.0185 463,-457 515.686,-418.3067 513.2021,-390.1319 567,-353 583.0442,-341.9261 596.4149,-351.3708 607,-335 619.5332,-315.6164 648.1322,-246.8072 584,-174 575.4027,-164.2397 544.3258,-156.0721 519.6349,-150.9179"/>
<polygon fill="#9a32cd" stroke="#9a32cd" points="382.9881,-498.0544 375.292,-505.3359 385.8491,-504.443 382.9881,-498.0544"/>
<text text-anchor="middle" x="607.5" y="-411" font-family="Helvetica,sans-Serif" font-size="10.00" fill="#000000"> job_list</text>
<text text-anchor="middle" x="607.5" y="-400" font-family="Helvetica,sans-Serif" font-size="10.00" fill="#000000">tmp_obj_list</text>
<text text-anchor="start" x="567" y="-389" font-family="Helvetica,sans-Serif" font-size="10.00" fill="#000000">gc_zero_ref_count</text>
<text text-anchor="middle" x="607.5" y="-378" font-family="Helvetica,sans-Serif" font-size="10.00" fill="#000000">_list</text>
<text text-anchor="middle" x="607.5" y="-367" font-family="Helvetica,sans-Serif" font-size="10.00" fill="#000000">gc_obj_list</text>
<text text-anchor="middle" x="607.5" y="-356" font-family="Helvetica,sans-Serif" font-size="10.00" fill="#000000">context_list</text>
</g>
<!-- Node6&#45;&gt;Node6 -->
<g id="edge6" class="edge">
<title>Node6&#45;&gt;Node6</title>
<path fill="none" stroke="#9a32cd" stroke-dasharray="5,2" d="M390.5533,-520.4491C395.0634,-519.4467 398,-517.6303 398,-515 398,-510.6836 390.0919,-508.5591 380.2994,-508.6266"/>
<polygon fill="#9a32cd" stroke="#9a32cd" points="389.9447,-516.9897 380.2994,-521.3734 390.5733,-523.9614 389.9447,-516.9897"/>
<text text-anchor="middle" x="409" y="-518" font-family="Helvetica,sans-Serif" font-size="10.00" fill="#000000"> prev</text>
<text text-anchor="middle" x="409" y="-507" font-family="Helvetica,sans-Serif" font-size="10.00" fill="#000000">next</text>
</g>
<!-- Node15 -->
<g id="node11" class="node">
<title>Node15</title>
<g id="a_node11"><a xlink:href="structJSGCObjectHeader.html" target="_top" xlink:title="JSGCObjectHeader">
<polygon fill="none" stroke="#000000" points="106,-437.5 106,-456.5 210,-456.5 210,-437.5 106,-437.5"/>
<text text-anchor="middle" x="158" y="-444.5" font-family="Helvetica,sans-Serif" font-size="10.00" fill="#000000">JSGCObjectHeader</text>
</a>
</g>
</g>
<!-- Node6&#45;&gt;Node15 -->
<g id="edge14" class="edge">
<title>Node6&#45;&gt;Node15</title>
<path fill="none" stroke="#9a32cd" stroke-dasharray="5,2" d="M314.9727,-502.0214C277.0893,-488.7426 219.1196,-468.4234 185.2447,-456.5497"/>
<polygon fill="#9a32cd" stroke="#9a32cd" points="314.0212,-505.3966 324.616,-505.4015 316.3367,-498.7906 314.0212,-505.3966"/>
<text text-anchor="middle" x="276.5" y="-478" font-family="Helvetica,sans-Serif" font-size="10.00" fill="#000000"> link</text>
</g>
<!-- Node6&#45;&gt;Node30 -->
<g id="edge17" class="edge">
<title>Node6&#45;&gt;Node30</title>
<path fill="none" stroke="#9a32cd" stroke-dasharray="5,2" d="M364.8346,-496.8415C392.7848,-457.2971 458.3796,-364.4926 479.9717,-333.9437"/>
<polygon fill="#9a32cd" stroke="#9a32cd" points="361.794,-495.0794 358.8803,-505.2657 367.5103,-499.1197 361.794,-495.0794"/>
<text text-anchor="middle" x="433" y="-444.5" font-family="Helvetica,sans-Serif" font-size="10.00" fill="#000000"> var_ref_list</text>
</g>
<!-- Node7 -->
<g id="node7" class="node">
<title>Node7</title>
<g id="a_node7"><a xlink:href="structJSMallocState.html" target="_top" xlink:title="JSMallocState">
<polygon fill="none" stroke="#000000" points="771,-314.5 771,-333.5 851,-333.5 851,-314.5 771,-314.5"/>
<text text-anchor="middle" x="811" y="-321.5" font-family="Helvetica,sans-Serif" font-size="10.00" fill="#000000">JSMallocState</text>
</a>
</g>
</g>
<!-- Node7&#45;&gt;Node5 -->
<g id="edge7" class="edge">
<title>Node7&#45;&gt;Node5</title>
<path fill="none" stroke="#9a32cd" stroke-dasharray="5,2" d="M801.3981,-305.1973C783.5726,-272.4291 742.0235,-205.3655 686,-174 658.1254,-158.394 568.4134,-150.2807 519.5162,-146.9225"/>
<polygon fill="#9a32cd" stroke="#9a32cd" points="798.3859,-306.9882 806.1582,-314.1883 804.5723,-303.7128 798.3859,-306.9882"/>
<text text-anchor="middle" x="824.5" y="-232" font-family="Helvetica,sans-Serif" font-size="10.00" fill="#000000"> malloc_state</text>
</g>
<!-- Node8 -->
<g id="node8" class="node">
<title>Node8</title>
<g id="a_node8"><a xlink:href="structJSMallocFunctions.html" target="_top" xlink:title="JSMallocFunctions">
<polygon fill="none" stroke="#000000" points="869,-314.5 869,-333.5 969,-333.5 969,-314.5 869,-314.5"/>
<text text-anchor="middle" x="919" y="-321.5" font-family="Helvetica,sans-Serif" font-size="10.00" fill="#000000">JSMallocFunctions</text>
</a>
</g>
</g>
<!-- Node8&#45;&gt;Node5 -->
<g id="edge9" class="edge">
<title>Node8&#45;&gt;Node5</title>
<path fill="none" stroke="#9a32cd" stroke-dasharray="5,2" d="M917.3409,-303.922C913.4199,-270.7325 900.4291,-205.0191 858,-174 831.0099,-154.2681 605.0992,-147.4855 519.6066,-145.6119"/>
<polygon fill="#9a32cd" stroke="#9a32cd" points="913.8915,-304.5993 918.3829,-314.195 920.8558,-303.8928 913.8915,-304.5993"/>
<text text-anchor="middle" x="922.5" y="-232" font-family="Helvetica,sans-Serif" font-size="10.00" fill="#000000"> mf</text>
</g>
<!-- Node9 -->
<g id="node9" class="node">
<title>Node9</title>
<g id="a_node9"><a xlink:href="structJSString.html" target="_top" xlink:title="JSString">
<polygon fill="none" stroke="#ff0000" points="302,-314.5 302,-333.5 356,-333.5 356,-314.5 302,-314.5"/>
<text text-anchor="middle" x="329" y="-321.5" font-family="Helvetica,sans-Serif" font-size="10.00" fill="#000000">JSString</text>
</a>
</g>
</g>
<!-- Node9&#45;&gt;Node5 -->
<g id="edge10" class="edge">
<title>Node9&#45;&gt;Node5</title>
<path fill="none" stroke="#9a32cd" stroke-dasharray="5,2" d="M324.4338,-304.6182C318.2305,-272.9713 311.3386,-210.1176 344,-174 358.4421,-158.0297 416.7633,-150.4815 454.318,-147.2125"/>
<polygon fill="#9a32cd" stroke="#9a32cd" points="321.0156,-305.371 326.5334,-314.4156 327.8602,-303.9042 321.0156,-305.371"/>
<text text-anchor="middle" x="370" y="-232" font-family="Helvetica,sans-Serif" font-size="10.00" fill="#000000"> atom_array</text>
</g>
<!-- Node11 -->
<g id="node10" class="node">
<title>Node11</title>
<g id="a_node10"><a xlink:href="structJSShape.html" target="_top" xlink:title="JSShape">
<polygon fill="none" stroke="#ff0000" points="130,-314.5 130,-333.5 186,-333.5 186,-314.5 130,-314.5"/>
<text text-anchor="middle" x="158" y="-321.5" font-family="Helvetica,sans-Serif" font-size="10.00" fill="#000000">JSShape</text>
</a>
</g>
</g>
<!-- Node11&#45;&gt;Node4 -->
<g id="edge22" class="edge">
<title>Node11&#45;&gt;Node4</title>
<path fill="none" stroke="#9a32cd" stroke-dasharray="5,2" d="M158.8812,-304.1562C160.8348,-274.5642 167.0859,-217.6763 187,-174 203.5082,-137.7937 236.1478,-102.994 252.7633,-86.6701"/>
<polygon fill="#9a32cd" stroke="#9a32cd" points="155.3721,-304.2232 158.3085,-314.4029 162.3612,-304.6139 155.3721,-304.2232"/>
<text text-anchor="middle" x="240.5" y="-142.5" font-family="Helvetica,sans-Serif" font-size="10.00" fill="#000000"> array_shape</text>
</g>
<!-- Node11&#45;&gt;Node5 -->
<g id="edge11" class="edge">
<title>Node11&#45;&gt;Node5</title>
<path fill="none" stroke="#9a32cd" stroke-dasharray="5,2" d="M176.2641,-307.1014C179.9976,-303.2803 183.7689,-299.128 187,-295 225.7121,-245.5423 207.3788,-208.2886 260,-174 291.2896,-153.6113 399.0452,-147.5286 454.0827,-145.7357"/>
<polygon fill="#9a32cd" stroke="#9a32cd" points="173.5393,-304.8708 168.8389,-314.3659 178.4346,-309.8744 173.5393,-304.8708"/>
<text text-anchor="middle" x="288" y="-232" font-family="Helvetica,sans-Serif" font-size="10.00" fill="#000000"> shape_hash</text>
</g>
<!-- Node11&#45;&gt;Node11 -->
<g id="edge12" class="edge">
<title>Node11&#45;&gt;Node11</title>
<path fill="none" stroke="#9a32cd" stroke-dasharray="5,2" d="M184.1609,-335.5337C194.9142,-336.2814 204,-332.4368 204,-324 204,-312.9805 188.5001,-309.7951 174.0295,-314.444"/>
<polygon fill="#9a32cd" stroke="#9a32cd" points="184.5148,-332.0368 174.0295,-333.556 183.1736,-338.9071 184.5148,-332.0368"/>
<text text-anchor="middle" x="244" y="-321.5" font-family="Helvetica,sans-Serif" font-size="10.00" fill="#000000"> shape_hash_next</text>
</g>
<!-- Node15&#45;&gt;Node4 -->
<g id="edge23" class="edge">
<title>Node15&#45;&gt;Node4</title>
<path fill="none" stroke="#9a32cd" stroke-dasharray="5,2" d="M148.4656,-428.1692C126.4569,-381.854 77.3641,-259.9209 123,-174 147.0652,-128.6914 202.8161,-100.2428 236.25,-86.6123"/>
<polygon fill="#9a32cd" stroke="#9a32cd" points="145.4075,-429.883 152.9418,-437.3318 151.6971,-426.8104 145.4075,-429.883"/>
<text text-anchor="middle" x="139.5" y="-232" font-family="Helvetica,sans-Serif" font-size="10.00" fill="#000000"> header</text>
</g>
<!-- Node15&#45;&gt;Node11 -->
<g id="edge13" class="edge">
<title>Node15&#45;&gt;Node11</title>
<path fill="none" stroke="#9a32cd" stroke-dasharray="5,2" d="M158,-427.2305C158,-400.4497 158,-353.686 158,-333.6068"/>
<polygon fill="#9a32cd" stroke="#9a32cd" points="154.5001,-427.3484 158,-437.3484 161.5001,-427.3484 154.5001,-427.3484"/>
<text text-anchor="middle" x="174.5" y="-383.5" font-family="Helvetica,sans-Serif" font-size="10.00" fill="#000000"> header</text>
</g>
<!-- Node42 -->
<g id="node12" class="node">
<title>Node42</title>
<g id="a_node12"><a xlink:href="structJSClass.html" target="_top" xlink:title="JSClass">
<polygon fill="none" stroke="#ff0000" points="374,-314.5 374,-333.5 428,-333.5 428,-314.5 374,-314.5"/>
<text text-anchor="middle" x="401" y="-321.5" font-family="Helvetica,sans-Serif" font-size="10.00" fill="#000000">JSClass</text>
</a>
</g>
</g>
<!-- Node42&#45;&gt;Node5 -->
<g id="edge15" class="edge">
<title>Node42&#45;&gt;Node5</title>
<path fill="none" stroke="#9a32cd" stroke-dasharray="5,2" d="M399.4264,-304.0889C398.0407,-273.0915 399.7337,-212.8318 429,-174 435.5726,-165.2792 445.4915,-159.0036 455.2771,-154.5722"/>
<polygon fill="#9a32cd" stroke="#9a32cd" points="395.9548,-304.6622 400.0572,-314.4306 402.9418,-304.236 395.9548,-304.6622"/>
<text text-anchor="middle" x="456" y="-232" font-family="Helvetica,sans-Serif" font-size="10.00" fill="#000000"> class_array</text>
</g>
<!-- Node30&#45;&gt;Node5 -->
<g id="edge16" class="edge">
<title>Node30&#45;&gt;Node5</title>
<path fill="none" stroke="#9a32cd" stroke-dasharray="5,2" d="M487,-303.9935C487,-265.602 487,-182.8992 487,-154.6714"/>
<polygon fill="#9a32cd" stroke="#9a32cd" points="483.5001,-304.3761 487,-314.3762 490.5001,-304.3762 483.5001,-304.3761"/>
<text text-anchor="middle" x="533.5" y="-232" font-family="Helvetica,sans-Serif" font-size="10.00" fill="#000000"> current_stack_frame</text>
</g>
<!-- Node30&#45;&gt;Node30 -->
<g id="edge19" class="edge">
<title>Node30&#45;&gt;Node30</title>
<path fill="none" stroke="#9a32cd" stroke-dasharray="5,2" d="M517.5695,-335.3032C532.6223,-336.8072 546,-333.0395 546,-324 546,-312.9805 526.1197,-309.7951 507.5595,-314.444"/>
<polygon fill="#9a32cd" stroke="#9a32cd" points="518.0124,-331.8277 507.5595,-333.556 516.8087,-338.7234 518.0124,-331.8277"/>
<text text-anchor="middle" x="572" y="-321.5" font-family="Helvetica,sans-Serif" font-size="10.00" fill="#000000"> prev_frame</text>
</g>
</g>
</svg>
        <g id="navigator" transform="translate(0 0)" fill="#404254">
                <rect fill="#f2f5e9" fill-opacity="0.5" stroke="#606060" stroke-width=".5" x="0" y="0" width="60" height="60"/>
                <use id="zoomplus" xlink:href="#zoomPlus" x="17" y="9" onmousedown="handleZoom(evt,'in')"/>
                <use id="zoomminus" xlink:href="#zoomMin" x="42" y="9" onmousedown="handleZoom(evt,'out')"/>
                <use id="reset" xlink:href="#resetDef" x="30" y="36" onmousedown="handleReset()"/>
                <g id="arrowUp" xlink:href="#dirArrow" transform="translate(30 24)" onmousedown="handlePan(0,-1)">
                  <use xlink:href="#rim" fill="#404040">
                        <set attributeName="fill" to="#808080" begin="arrowUp.mouseover" end="arrowUp.mouseout"/>
                  </use>
                  <path fill="none" stroke="white" stroke-width="1.5" d="M0,-3.0v7 M-2.5,-0.5L0,-3.0L2.5,-0.5"/>
                </g>
                <g id="arrowRight" xlink:href="#dirArrow" transform="rotate(90) translate(36 -43)" onmousedown="handlePan(1,0)">
                  <use xlink:href="#rim" fill="#404040">
                        <set attributeName="fill" to="#808080" begin="arrowRight.mouseover" end="arrowRight.mouseout"/>
                  </use>
                  <path fill="none" stroke="white" stroke-width="1.5" d="M0,-3.0v7 M-2.5,-0.5L0,-3.0L2.5,-0.5"/>
                </g>
                <g id="arrowDown" xlink:href="#dirArrow" transform="rotate(180) translate(-30 -48)" onmousedown="handlePan(0,1)">
                  <use xlink:href="#rim" fill="#404040">
                        <set attributeName="fill" to="#808080" begin="arrowDown.mouseover" end="arrowDown.mouseout"/>
                  </use>
                  <path fill="none" stroke="white" stroke-width="1.5" d="M0,-3.0v7 M-2.5,-0.5L0,-3.0L2.5,-0.5"/>
                </g>
                <g id="arrowLeft" xlink:href="#dirArrow" transform="rotate(270) translate(-36 17)" onmousedown="handlePan(-1,0)">
                  <use xlink:href="#rim" fill="#404040">
                        <set attributeName="fill" to="#808080" begin="arrowLeft.mouseover" end="arrowLeft.mouseout"/>
                  </use>
                  <path fill="none" stroke="white" stroke-width="1.5" d="M0,-3.0v7 M-2.5,-0.5L0,-3.0L2.5,-0.5"/>
                </g>
        </g>
        <svg viewBox="0 0 15 15" width="100%" height="30px" preserveAspectRatio="xMaxYMin meet">
         <g id="arrow_out" transform="scale(0.3 0.3)">
          <a xlink:href="structValueBuffer__coll__graph_org.svg" target="_base">
           <rect id="button" ry="5" rx="5" y="6" x="6" height="38" width="38"
                fill="#f2f5e9" fill-opacity="0.5" stroke="#606060" stroke-width="1.0"/>
           <path id="arrow"
             d="M 11.500037,31.436501 C 11.940474,20.09759 22.043105,11.32322 32.158766,21.979434 L 37.068811,17.246167 C 37.068811,17.246167 37.088388,32 37.088388,32 L 22.160133,31.978069 C 22.160133,31.978069 26.997745,27.140456 26.997745,27.140456 C 18.528582,18.264221 13.291696,25.230495 11.500037,31.436501 z"
             style="fill:#404040;"/>
          </a>
         </g>
        </svg>
</svg>
