<?xml version="1.0" encoding="UTF-8" standalone="no"?>
<!DOCTYPE svg PUBLIC "-//W3C//DTD SVG 1.1//EN"
 "http://www.w3.org/Graphics/SVG/1.1/DTD/svg11.dtd">
<!-- Generated by graphviz version 2.40.1 (20161225.0304)
 -->
<!-- Title: StringBuffer Pages: 1 -->
<!--zoomable 532 -->
<svg id="main" version="1.1" xmlns="http://www.w3.org/2000/svg" xmlns:xlink="http://www.w3.org/1999/xlink" xml:space="preserve" onload="init(evt)">
<style type="text/css"><![CDATA[
.edge:hover path { stroke: red; }
.edge:hover polygon { stroke: red; fill: red; }
]]></style>
<script type="text/javascript"><![CDATA[
var edges = document.getElementsByTagName('g');
if (edges && edges.length) {
  for (var i=0;i<edges.length;i++) {
    if (edges[i].id.substr(0,4)=='edge') {
      edges[i].setAttribute('class','edge');
    }
  }
}
]]></script>
        <defs>
                <circle id="rim" cx="0" cy="0" r="7"/>
                <circle id="rim2" cx="0" cy="0" r="3.5"/>
                <g id="zoomPlus">
                        <use xlink:href="#rim" fill="#404040">
                                <set attributeName="fill" to="#808080" begin="zoomplus.mouseover" end="zoomplus.mouseout"/>
                        </use>
                        <path d="M-4,0h8M0,-4v8" fill="none" stroke="white" stroke-width="1.5" pointer-events="none"/>
                </g>
                <g id="zoomMin">
                        <use xlink:href="#rim" fill="#404040">
                                <set attributeName="fill" to="#808080" begin="zoomminus.mouseover" end="zoomminus.mouseout"/>
                        </use>
                        <path d="M-4,0h8" fill="none" stroke="white" stroke-width="1.5" pointer-events="none"/>
                </g>
                <g id="dirArrow">
                        <path fill="none" stroke="white" stroke-width="1.5" d="M0,-3.0v7 M-2.5,-0.5L0,-3.0L2.5,-0.5"/>
                </g>
               <g id="resetDef">
                       <use xlink:href="#rim2" fill="#404040">
                               <set attributeName="fill" to="#808080" begin="reset.mouseover" end="reset.mouseout"/>
                       </use>
               </g>
        </defs>

<script type="text/javascript">
var viewWidth = 1057;
var viewHeight = 532;
var sectionId = 'dynsection-0';
</script>
<script xlink:href="svgpan.js"/>
<svg id="graph" class="graph">
<g id="viewport">
<title>StringBuffer</title>
<!-- Node1 -->
<g id="node1" class="node">
<title>Node1</title>
<polygon fill="#bfbfbf" stroke="#000000" points="844.4482,-.5 844.4482,-19.5 912.4482,-19.5 912.4482,-.5 844.4482,-.5"/>
<text text-anchor="middle" x="878.4482" y="-7.5" font-family="Helvetica,sans-Serif" font-size="10.00" fill="#000000">StringBuffer</text>
</g>
<!-- Node2 -->
<g id="node2" class="node">
<title>Node2</title>
<g id="a_node2"><a xlink:href="structJSString.html" target="_top" xlink:title="JSString">
<polygon fill="none" stroke="#000000" points="864.4482,-312.5 864.4482,-331.5 918.4482,-331.5 918.4482,-312.5 864.4482,-312.5"/>
<text text-anchor="middle" x="891.4482" y="-319.5" font-family="Helvetica,sans-Serif" font-size="10.00" fill="#000000">JSString</text>
</a>
</g>
</g>
<!-- Node2&#45;&gt;Node1 -->
<g id="edge1" class="edge">
<title>Node2&#45;&gt;Node1</title>
<path fill="none" stroke="#9a32cd" stroke-dasharray="5,2" d="M914.5813,-305.5413C918.1853,-301.8529 921.3915,-297.6394 923.4482,-293 945.2425,-243.8364 930.7114,-225.285 923.4482,-172 915.3663,-112.709 891.3718,-44.4936 882.1322,-19.6672"/>
<polygon fill="#9a32cd" stroke="#9a32cd" points="912.0525,-303.1047 906.8655,-312.343 916.6814,-308.3557 912.0525,-303.1047"/>
<text text-anchor="middle" x="918.9482" y="-108" font-family="Helvetica,sans-Serif" font-size="10.00" fill="#000000"> str</text>
</g>
<!-- Node5 -->
<g id="node5" class="node">
<title>Node5</title>
<g id="a_node5"><a xlink:href="structJSRuntime.html" target="_top" xlink:title="JSRuntime">
<polygon fill="none" stroke="#000000" points="456.9482,-134.5 456.9482,-153.5 521.9482,-153.5 521.9482,-134.5 456.9482,-134.5"/>
<text text-anchor="middle" x="489.4482" y="-141.5" font-family="Helvetica,sans-Serif" font-size="10.00" fill="#000000">JSRuntime</text>
</a>
</g>
</g>
<!-- Node2&#45;&gt;Node5 -->
<g id="edge10" class="edge">
<title>Node2&#45;&gt;Node5</title>
<path fill="none" stroke="#9a32cd" stroke-dasharray="5,2" d="M854.0713,-316.1368C816.5384,-309.9095 763.299,-300.0155 756.4482,-293 718.2032,-253.8354 773.5534,-209.2574 733.4482,-172 718.2582,-157.8886 585.3024,-149.0571 522.2979,-145.6282"/>
<polygon fill="#9a32cd" stroke="#9a32cd" points="853.7558,-319.6316 864.1894,-317.7905 854.8849,-312.7232 853.7558,-319.6316"/>
<text text-anchor="middle" x="782.4482" y="-230" font-family="Helvetica,sans-Serif" font-size="10.00" fill="#000000"> atom_array</text>
</g>
<!-- Node3 -->
<g id="node3" class="node">
<title>Node3</title>
<g id="a_node3"><a xlink:href="structJSRefCountHeader.html" target="_top" xlink:title="JSRefCountHeader">
<polygon fill="none" stroke="#000000" points="840.4482,-435.5 840.4482,-454.5 942.4482,-454.5 942.4482,-435.5 840.4482,-435.5"/>
<text text-anchor="middle" x="891.4482" y="-442.5" font-family="Helvetica,sans-Serif" font-size="10.00" fill="#000000">JSRefCountHeader</text>
</a>
</g>
</g>
<!-- Node3&#45;&gt;Node2 -->
<g id="edge2" class="edge">
<title>Node3&#45;&gt;Node2</title>
<path fill="none" stroke="#9a32cd" stroke-dasharray="5,2" d="M891.4482,-425.2305C891.4482,-398.4497 891.4482,-351.686 891.4482,-331.6068"/>
<polygon fill="#9a32cd" stroke="#9a32cd" points="887.9483,-425.3484 891.4482,-435.3484 894.9483,-425.3484 887.9483,-425.3484"/>
<text text-anchor="middle" x="907.9482" y="-381.5" font-family="Helvetica,sans-Serif" font-size="10.00" fill="#000000"> header</text>
</g>
<!-- Node4 -->
<g id="node4" class="node">
<title>Node4</title>
<g id="a_node4"><a xlink:href="structJSContext.html" target="_top" xlink:title="JSContext">
<polygon fill="none" stroke="#000000" points="786.9482,-67.5 786.9482,-86.5 849.9482,-86.5 849.9482,-67.5 786.9482,-67.5"/>
<text text-anchor="middle" x="818.4482" y="-74.5" font-family="Helvetica,sans-Serif" font-size="10.00" fill="#000000">JSContext</text>
</a>
</g>
</g>
<!-- Node4&#45;&gt;Node1 -->
<g id="edge3" class="edge">
<title>Node4&#45;&gt;Node1</title>
<path fill="none" stroke="#9a32cd" stroke-dasharray="5,2" d="M833.9276,-59.7147C845.3667,-46.941 860.5177,-30.0224 869.8676,-19.5817"/>
<polygon fill="#9a32cd" stroke="#9a32cd" points="831.1086,-57.6161 827.0447,-67.4005 836.3233,-62.2859 831.1086,-57.6161"/>
<text text-anchor="middle" x="860.9482" y="-41" font-family="Helvetica,sans-Serif" font-size="10.00" fill="#000000"> ctx</text>
</g>
<!-- Node5&#45;&gt;Node4 -->
<g id="edge4" class="edge">
<title>Node5&#45;&gt;Node4</title>
<path fill="none" stroke="#9a32cd" stroke-dasharray="5,2" d="M532.0032,-135.3338C598.9487,-121.7005 727.3467,-95.5526 786.7997,-83.4451"/>
<polygon fill="#9a32cd" stroke="#9a32cd" points="531.2972,-131.9056 522.1968,-137.3308 532.6941,-138.7648 531.2972,-131.9056"/>
<text text-anchor="middle" x="679.4482" y="-108" font-family="Helvetica,sans-Serif" font-size="10.00" fill="#000000"> rt</text>
</g>
<!-- Node6 -->
<g id="node6" class="node">
<title>Node6</title>
<g id="a_node6"><a xlink:href="structlist__head.html" target="_top" xlink:title="list_head">
<polygon fill="none" stroke="#000000" points="454.4482,-503.5 454.4482,-522.5 510.4482,-522.5 510.4482,-503.5 454.4482,-503.5"/>
<text text-anchor="middle" x="482.4482" y="-510.5" font-family="Helvetica,sans-Serif" font-size="10.00" fill="#000000">list_head</text>
</a>
</g>
</g>
<!-- Node6&#45;&gt;Node4 -->
<g id="edge20" class="edge">
<title>Node6&#45;&gt;Node4</title>
<path fill="none" stroke="#9a32cd" stroke-dasharray="5,2" d="M520.9233,-511.7303C636.9459,-507.3949 975.4482,-490.8199 975.4482,-445 975.4482,-445 975.4482,-445 975.4482,-232.5 975.4482,-157.6913 884.3544,-106.6255 840.9425,-86.5369"/>
<polygon fill="#9a32cd" stroke="#9a32cd" points="520.5909,-508.2399 510.7247,-512.101 520.8453,-515.2353 520.5909,-508.2399"/>
<text text-anchor="middle" x="1012.4482" y="-325" font-family="Helvetica,sans-Serif" font-size="10.00" fill="#000000"> loaded_modules</text>
<text text-anchor="middle" x="1012.4482" y="-314" font-family="Helvetica,sans-Serif" font-size="10.00" fill="#000000">link</text>
</g>
<!-- Node6&#45;&gt;Node5 -->
<g id="edge5" class="edge">
<title>Node6&#45;&gt;Node5</title>
<path fill="none" stroke="#9a32cd" stroke-dasharray="5,2" d="M473.0945,-494.2193C464.2196,-475.2731 451.5094,-444.9108 446.4482,-417 427.8712,-314.5538 471.6844,-189.6296 485.4649,-153.9445"/>
<polygon fill="#9a32cd" stroke="#9a32cd" points="469.9498,-495.7559 477.4413,-503.2477 476.2568,-492.7193 469.9498,-495.7559"/>
<text text-anchor="middle" x="486.9482" y="-409" font-family="Helvetica,sans-Serif" font-size="10.00" fill="#000000"> job_list</text>
<text text-anchor="middle" x="486.9482" y="-398" font-family="Helvetica,sans-Serif" font-size="10.00" fill="#000000">tmp_obj_list</text>
<text text-anchor="start" x="446.4482" y="-387" font-family="Helvetica,sans-Serif" font-size="10.00" fill="#000000">gc_zero_ref_count</text>
<text text-anchor="middle" x="486.9482" y="-376" font-family="Helvetica,sans-Serif" font-size="10.00" fill="#000000">_list</text>
<text text-anchor="middle" x="486.9482" y="-365" font-family="Helvetica,sans-Serif" font-size="10.00" fill="#000000">gc_obj_list</text>
<text text-anchor="middle" x="486.9482" y="-354" font-family="Helvetica,sans-Serif" font-size="10.00" fill="#000000">context_list</text>
</g>
<!-- Node6&#45;&gt;Node6 -->
<g id="edge6" class="edge">
<title>Node6&#45;&gt;Node6</title>
<path fill="none" stroke="#9a32cd" stroke-dasharray="5,2" d="M521.0015,-518.4491C525.5116,-517.4467 528.4482,-515.6303 528.4482,-513 528.4482,-508.6836 520.5401,-506.5591 510.7476,-506.6266"/>
<polygon fill="#9a32cd" stroke="#9a32cd" points="520.393,-514.9897 510.7476,-519.3734 521.0215,-521.9614 520.393,-514.9897"/>
<text text-anchor="middle" x="539.4482" y="-516" font-family="Helvetica,sans-Serif" font-size="10.00" fill="#000000"> prev</text>
<text text-anchor="middle" x="539.4482" y="-505" font-family="Helvetica,sans-Serif" font-size="10.00" fill="#000000">next</text>
</g>
<!-- Node15 -->
<g id="node11" class="node">
<title>Node15</title>
<g id="a_node11"><a xlink:href="structJSGCObjectHeader.html" target="_top" xlink:title="JSGCObjectHeader">
<polygon fill="none" stroke="#000000" points="12.4482,-435.5 12.4482,-454.5 116.4482,-454.5 116.4482,-435.5 12.4482,-435.5"/>
<text text-anchor="middle" x="64.4482" y="-442.5" font-family="Helvetica,sans-Serif" font-size="10.00" fill="#000000">JSGCObjectHeader</text>
</a>
</g>
</g>
<!-- Node6&#45;&gt;Node15 -->
<g id="edge14" class="edge">
<title>Node6&#45;&gt;Node15</title>
<path fill="none" stroke="#9a32cd" stroke-dasharray="5,2" d="M444.4123,-506.8123C369.3557,-494.6022 202.0833,-467.3904 116.7299,-453.5052"/>
<polygon fill="#9a32cd" stroke="#9a32cd" points="443.9407,-510.2816 454.373,-508.4327 445.0648,-503.3724 443.9407,-510.2816"/>
<text text-anchor="middle" x="308.9482" y="-476" font-family="Helvetica,sans-Serif" font-size="10.00" fill="#000000"> link</text>
</g>
<!-- Node30 -->
<g id="node13" class="node">
<title>Node30</title>
<g id="a_node13"><a xlink:href="structJSStackFrame.html" target="_top" xlink:title="JSStackFrame">
<polygon fill="none" stroke="#000000" points="534.4482,-312.5 534.4482,-331.5 616.4482,-331.5 616.4482,-312.5 534.4482,-312.5"/>
<text text-anchor="middle" x="575.4482" y="-319.5" font-family="Helvetica,sans-Serif" font-size="10.00" fill="#000000">JSStackFrame</text>
</a>
</g>
</g>
<!-- Node6&#45;&gt;Node30 -->
<g id="edge17" class="edge">
<title>Node6&#45;&gt;Node30</title>
<path fill="none" stroke="#9a32cd" stroke-dasharray="5,2" d="M491.6585,-494.0842C511.1152,-454.1248 555.8261,-362.2993 570.6065,-331.9437"/>
<polygon fill="#9a32cd" stroke="#9a32cd" points="488.4189,-492.7426 487.1879,-503.2657 494.7125,-495.8071 488.4189,-492.7426"/>
<text text-anchor="middle" x="546.4482" y="-442.5" font-family="Helvetica,sans-Serif" font-size="10.00" fill="#000000"> var_ref_list</text>
</g>
<!-- Node7 -->
<g id="node7" class="node">
<title>Node7</title>
<g id="a_node7"><a xlink:href="structJSMallocState.html" target="_top" xlink:title="JSMallocState">
<polygon fill="none" stroke="#000000" points="208.4482,-312.5 208.4482,-331.5 288.4482,-331.5 288.4482,-312.5 208.4482,-312.5"/>
<text text-anchor="middle" x="248.4482" y="-319.5" font-family="Helvetica,sans-Serif" font-size="10.00" fill="#000000">JSMallocState</text>
</a>
</g>
</g>
<!-- Node7&#45;&gt;Node5 -->
<g id="edge7" class="edge">
<title>Node7&#45;&gt;Node5</title>
<path fill="none" stroke="#9a32cd" stroke-dasharray="5,2" d="M248.5261,-302.3614C249.8046,-269.8186 257.4356,-205.0325 296.4482,-172 308.4635,-161.8265 404.9024,-151.6553 456.7441,-146.8537"/>
<polygon fill="#9a32cd" stroke="#9a32cd" points="245.0257,-302.3457 248.2978,-312.4226 252.0239,-302.5046 245.0257,-302.3457"/>
<text text-anchor="middle" x="325.9482" y="-230" font-family="Helvetica,sans-Serif" font-size="10.00" fill="#000000"> malloc_state</text>
</g>
<!-- Node8 -->
<g id="node8" class="node">
<title>Node8</title>
<g id="a_node8"><a xlink:href="structJSValue.html" target="_top" xlink:title="JSValue">
<polygon fill="none" stroke="#ff0000" points="695.9482,-435.5 695.9482,-454.5 748.9482,-454.5 748.9482,-435.5 695.9482,-435.5"/>
<text text-anchor="middle" x="722.4482" y="-442.5" font-family="Helvetica,sans-Serif" font-size="10.00" fill="#000000">JSValue</text>
</a>
</g>
</g>
<!-- Node8&#45;&gt;Node4 -->
<g id="edge21" class="edge">
<title>Node8&#45;&gt;Node4</title>
<path fill="none" stroke="#9a32cd" stroke-dasharray="5,2" d="M743.0124,-428.7561C766.1935,-409.0002 802.5831,-373.2625 817.4482,-333 834.5736,-286.6156 822.6857,-127.4765 819.2811,-86.6212"/>
<polygon fill="#9a32cd" stroke="#9a32cd" points="740.5967,-426.2124 735.1339,-435.2903 745.0655,-431.6005 740.5967,-426.2124"/>
<text text-anchor="middle" x="873.4482" y="-285" font-family="Helvetica,sans-Serif" font-size="10.00" fill="#000000"> async_iterator_proto</text>
<text text-anchor="middle" x="873.4482" y="-274" font-family="Helvetica,sans-Serif" font-size="10.00" fill="#000000">function_proto</text>
<text text-anchor="middle" x="873.4482" y="-263" font-family="Helvetica,sans-Serif" font-size="10.00" fill="#000000">function_ctor</text>
<text text-anchor="middle" x="873.4482" y="-252" font-family="Helvetica,sans-Serif" font-size="10.00" fill="#000000">array_ctor</text>
<text text-anchor="middle" x="873.4482" y="-241" font-family="Helvetica,sans-Serif" font-size="10.00" fill="#000000">class_proto</text>
<text text-anchor="middle" x="873.4482" y="-230" font-family="Helvetica,sans-Serif" font-size="10.00" fill="#000000">array_proto_values</text>
<text text-anchor="middle" x="873.4482" y="-219" font-family="Helvetica,sans-Serif" font-size="10.00" fill="#000000">regexp_ctor</text>
<text text-anchor="middle" x="873.4482" y="-208" font-family="Helvetica,sans-Serif" font-size="10.00" fill="#000000">throw_type_error</text>
<text text-anchor="middle" x="873.4482" y="-197" font-family="Helvetica,sans-Serif" font-size="10.00" fill="#000000">native_error_proto</text>
<text text-anchor="middle" x="873.4482" y="-186" font-family="Helvetica,sans-Serif" font-size="10.00" fill="#000000">eval_obj</text>
<text text-anchor="middle" x="873.4482" y="-175" font-family="Helvetica,sans-Serif" font-size="10.00" fill="#000000">...</text>
</g>
<!-- Node8&#45;&gt;Node5 -->
<g id="edge8" class="edge">
<title>Node8&#45;&gt;Node5</title>
<path fill="none" stroke="#9a32cd" stroke-dasharray="5,2" d="M725.9752,-425.339C733.7563,-375.0218 746.4701,-240.7232 675.4482,-172 664.6238,-161.5259 572.7909,-151.6057 522.3381,-146.8813"/>
<polygon fill="#9a32cd" stroke="#9a32cd" points="722.4737,-425.0597 724.2885,-435.498 729.3792,-426.2063 722.4737,-425.0597"/>
<text text-anchor="middle" x="772.9482" y="-319.5" font-family="Helvetica,sans-Serif" font-size="10.00" fill="#000000"> current_exception</text>
</g>
<!-- Node8&#45;&gt;Node30 -->
<g id="edge18" class="edge">
<title>Node8&#45;&gt;Node30</title>
<path fill="none" stroke="#9a32cd" stroke-dasharray="5,2" d="M692.2657,-430.6691C684.8703,-426.6454 677.1577,-421.9921 670.4482,-417 634.3316,-390.1282 598.6765,-349.7784 583.3148,-331.5462"/>
<polygon fill="#9a32cd" stroke="#9a32cd" points="690.8782,-433.8926 701.3643,-435.4071 694.1114,-427.684 690.8782,-433.8926"/>
<text text-anchor="middle" x="689.4482" y="-398" font-family="Helvetica,sans-Serif" font-size="10.00" fill="#000000"> var_buf</text>
<text text-anchor="middle" x="689.4482" y="-387" font-family="Helvetica,sans-Serif" font-size="10.00" fill="#000000">arg_buf</text>
<text text-anchor="middle" x="689.4482" y="-376" font-family="Helvetica,sans-Serif" font-size="10.00" fill="#000000">cur_sp</text>
<text text-anchor="middle" x="689.4482" y="-365" font-family="Helvetica,sans-Serif" font-size="10.00" fill="#000000">cur_func</text>
</g>
<!-- Node10 -->
<g id="node9" class="node">
<title>Node10</title>
<g id="a_node9"><a xlink:href="structJSMallocFunctions.html" target="_top" xlink:title="JSMallocFunctions">
<polygon fill="none" stroke="#000000" points="306.4482,-312.5 306.4482,-331.5 406.4482,-331.5 406.4482,-312.5 306.4482,-312.5"/>
<text text-anchor="middle" x="356.4482" y="-319.5" font-family="Helvetica,sans-Serif" font-size="10.00" fill="#000000">JSMallocFunctions</text>
</a>
</g>
</g>
<!-- Node10&#45;&gt;Node5 -->
<g id="edge9" class="edge">
<title>Node10&#45;&gt;Node5</title>
<path fill="none" stroke="#9a32cd" stroke-dasharray="5,2" d="M357.4091,-302.2097C360.0137,-270.4418 369.6699,-207.994 405.4482,-172 418.9945,-158.372 439.3392,-151.3769 456.6135,-147.7864"/>
<polygon fill="#9a32cd" stroke="#9a32cd" points="353.9015,-302.2103 356.7333,-312.4197 360.8862,-302.6727 353.9015,-302.2103"/>
<text text-anchor="middle" x="412.9482" y="-230" font-family="Helvetica,sans-Serif" font-size="10.00" fill="#000000"> mf</text>
</g>
<!-- Node11 -->
<g id="node10" class="node">
<title>Node11</title>
<g id="a_node10"><a xlink:href="structJSShape.html" target="_top" xlink:title="JSShape">
<polygon fill="none" stroke="#ff0000" points="36.4482,-312.5 36.4482,-331.5 92.4482,-331.5 92.4482,-312.5 36.4482,-312.5"/>
<text text-anchor="middle" x="64.4482" y="-319.5" font-family="Helvetica,sans-Serif" font-size="10.00" fill="#000000">JSShape</text>
</a>
</g>
</g>
<!-- Node11&#45;&gt;Node4 -->
<g id="edge22" class="edge">
<title>Node11&#45;&gt;Node4</title>
<path fill="none" stroke="#9a32cd" stroke-dasharray="5,2" d="M62.1592,-302.058C59.6585,-269.6044 60.0532,-205.6157 96.4482,-172 148.0511,-124.3378 654.2322,-87.8305 786.8011,-79.0329"/>
<polygon fill="#9a32cd" stroke="#9a32cd" points="58.6847,-302.4944 63.1102,-312.1207 65.6537,-301.8357 58.6847,-302.4944"/>
<text text-anchor="middle" x="258.9482" y="-141.5" font-family="Helvetica,sans-Serif" font-size="10.00" fill="#000000"> array_shape</text>
</g>
<!-- Node11&#45;&gt;Node5 -->
<g id="edge11" class="edge">
<title>Node11&#45;&gt;Node5</title>
<path fill="none" stroke="#9a32cd" stroke-dasharray="5,2" d="M83.6804,-305.5945C88.0223,-301.6147 92.5092,-297.2716 96.4482,-293 142.4288,-243.1374 130.0643,-204.7725 189.4482,-172 212.4332,-159.3151 383.8508,-149.3064 456.771,-145.5771"/>
<polygon fill="#9a32cd" stroke="#9a32cd" points="81.3183,-303.0113 76.1711,-312.2718 85.9698,-308.2424 81.3183,-303.0113"/>
<text text-anchor="middle" x="217.4482" y="-230" font-family="Helvetica,sans-Serif" font-size="10.00" fill="#000000"> shape_hash</text>
</g>
<!-- Node11&#45;&gt;Node11 -->
<g id="edge12" class="edge">
<title>Node11&#45;&gt;Node11</title>
<path fill="none" stroke="#9a32cd" stroke-dasharray="5,2" d="M90.6091,-333.5337C101.3624,-334.2814 110.4482,-330.4368 110.4482,-322 110.4482,-310.9805 94.9483,-307.7951 80.4777,-312.444"/>
<polygon fill="#9a32cd" stroke="#9a32cd" points="90.963,-330.0368 80.4777,-331.556 89.6218,-336.9071 90.963,-330.0368"/>
<text text-anchor="middle" x="150.4482" y="-319.5" font-family="Helvetica,sans-Serif" font-size="10.00" fill="#000000"> shape_hash_next</text>
</g>
<!-- Node15&#45;&gt;Node4 -->
<g id="edge23" class="edge">
<title>Node15&#45;&gt;Node4</title>
<path fill="none" stroke="#9a32cd" stroke-dasharray="5,2" d="M53.6193,-426.5593C27.4094,-379.2571 -33.1832,-251.7397 24.4482,-172 70.0396,-108.919 645.021,-83.4561 786.942,-78.1105"/>
<polygon fill="#9a32cd" stroke="#9a32cd" points="50.6528,-428.4232 58.6354,-435.3895 56.7393,-424.9657 50.6528,-428.4232"/>
<text text-anchor="middle" x="40.9482" y="-230" font-family="Helvetica,sans-Serif" font-size="10.00" fill="#000000"> header</text>
</g>
<!-- Node15&#45;&gt;Node11 -->
<g id="edge13" class="edge">
<title>Node15&#45;&gt;Node11</title>
<path fill="none" stroke="#9a32cd" stroke-dasharray="5,2" d="M64.4482,-425.2305C64.4482,-398.4497 64.4482,-351.686 64.4482,-331.6068"/>
<polygon fill="#9a32cd" stroke="#9a32cd" points="60.9483,-425.3484 64.4482,-435.3484 67.9483,-425.3484 60.9483,-425.3484"/>
<text text-anchor="middle" x="80.9482" y="-381.5" font-family="Helvetica,sans-Serif" font-size="10.00" fill="#000000"> header</text>
</g>
<!-- Node42 -->
<g id="node12" class="node">
<title>Node42</title>
<g id="a_node12"><a xlink:href="structJSClass.html" target="_top" xlink:title="JSClass">
<polygon fill="none" stroke="#ff0000" points="462.4482,-312.5 462.4482,-331.5 516.4482,-331.5 516.4482,-312.5 462.4482,-312.5"/>
<text text-anchor="middle" x="489.4482" y="-319.5" font-family="Helvetica,sans-Serif" font-size="10.00" fill="#000000">JSClass</text>
</a>
</g>
</g>
<!-- Node42&#45;&gt;Node5 -->
<g id="edge15" class="edge">
<title>Node42&#45;&gt;Node5</title>
<path fill="none" stroke="#9a32cd" stroke-dasharray="5,2" d="M489.4482,-302.1053C489.4482,-263.9283 489.4482,-181.6875 489.4482,-153.6174"/>
<polygon fill="#9a32cd" stroke="#9a32cd" points="485.9483,-302.4299 489.4482,-312.4299 492.9483,-302.43 485.9483,-302.4299"/>
<text text-anchor="middle" x="516.4482" y="-230" font-family="Helvetica,sans-Serif" font-size="10.00" fill="#000000"> class_array</text>
</g>
<!-- Node30&#45;&gt;Node5 -->
<g id="edge16" class="edge">
<title>Node30&#45;&gt;Node5</title>
<path fill="none" stroke="#9a32cd" stroke-dasharray="5,2" d="M577.0864,-302.0399C578.5598,-270.9759 576.9835,-210.6276 547.4482,-172 541.0641,-163.6505 531.5483,-157.6575 522.0615,-153.4162"/>
<polygon fill="#9a32cd" stroke="#9a32cd" points="573.569,-302.2025 576.4244,-312.4053 580.5547,-302.6487 573.569,-302.2025"/>
<text text-anchor="middle" x="624.9482" y="-230" font-family="Helvetica,sans-Serif" font-size="10.00" fill="#000000"> current_stack_frame</text>
</g>
<!-- Node30&#45;&gt;Node30 -->
<g id="edge19" class="edge">
<title>Node30&#45;&gt;Node30</title>
<path fill="none" stroke="#9a32cd" stroke-dasharray="5,2" d="M606.0177,-333.3032C621.0705,-334.8072 634.4482,-331.0395 634.4482,-322 634.4482,-310.9805 614.5679,-307.7951 596.0077,-312.444"/>
<polygon fill="#9a32cd" stroke="#9a32cd" points="606.4606,-329.8277 596.0077,-331.556 605.257,-336.7234 606.4606,-329.8277"/>
<text text-anchor="middle" x="660.4482" y="-319.5" font-family="Helvetica,sans-Serif" font-size="10.00" fill="#000000"> prev_frame</text>
</g>
</g>
</svg>
        <g id="navigator" transform="translate(0 0)" fill="#404254">
                <rect fill="#f2f5e9" fill-opacity="0.5" stroke="#606060" stroke-width=".5" x="0" y="0" width="60" height="60"/>
                <use id="zoomplus" xlink:href="#zoomPlus" x="17" y="9" onmousedown="handleZoom(evt,'in')"/>
                <use id="zoomminus" xlink:href="#zoomMin" x="42" y="9" onmousedown="handleZoom(evt,'out')"/>
                <use id="reset" xlink:href="#resetDef" x="30" y="36" onmousedown="handleReset()"/>
                <g id="arrowUp" xlink:href="#dirArrow" transform="translate(30 24)" onmousedown="handlePan(0,-1)">
                  <use xlink:href="#rim" fill="#404040">
                        <set attributeName="fill" to="#808080" begin="arrowUp.mouseover" end="arrowUp.mouseout"/>
                  </use>
                  <path fill="none" stroke="white" stroke-width="1.5" d="M0,-3.0v7 M-2.5,-0.5L0,-3.0L2.5,-0.5"/>
                </g>
                <g id="arrowRight" xlink:href="#dirArrow" transform="rotate(90) translate(36 -43)" onmousedown="handlePan(1,0)">
                  <use xlink:href="#rim" fill="#404040">
                        <set attributeName="fill" to="#808080" begin="arrowRight.mouseover" end="arrowRight.mouseout"/>
                  </use>
                  <path fill="none" stroke="white" stroke-width="1.5" d="M0,-3.0v7 M-2.5,-0.5L0,-3.0L2.5,-0.5"/>
                </g>
                <g id="arrowDown" xlink:href="#dirArrow" transform="rotate(180) translate(-30 -48)" onmousedown="handlePan(0,1)">
                  <use xlink:href="#rim" fill="#404040">
                        <set attributeName="fill" to="#808080" begin="arrowDown.mouseover" end="arrowDown.mouseout"/>
                  </use>
                  <path fill="none" stroke="white" stroke-width="1.5" d="M0,-3.0v7 M-2.5,-0.5L0,-3.0L2.5,-0.5"/>
                </g>
                <g id="arrowLeft" xlink:href="#dirArrow" transform="rotate(270) translate(-36 17)" onmousedown="handlePan(-1,0)">
                  <use xlink:href="#rim" fill="#404040">
                        <set attributeName="fill" to="#808080" begin="arrowLeft.mouseover" end="arrowLeft.mouseout"/>
                  </use>
                  <path fill="none" stroke="white" stroke-width="1.5" d="M0,-3.0v7 M-2.5,-0.5L0,-3.0L2.5,-0.5"/>
                </g>
        </g>
        <svg viewBox="0 0 15 15" width="100%" height="30px" preserveAspectRatio="xMaxYMin meet">
         <g id="arrow_out" transform="scale(0.3 0.3)">
          <a xlink:href="structStringBuffer__coll__graph_org.svg" target="_base">
           <rect id="button" ry="5" rx="5" y="6" x="6" height="38" width="38"
                fill="#f2f5e9" fill-opacity="0.5" stroke="#606060" stroke-width="1.0"/>
           <path id="arrow"
             d="M 11.500037,31.436501 C 11.940474,20.09759 22.043105,11.32322 32.158766,21.979434 L 37.068811,17.246167 C 37.068811,17.246167 37.088388,32 37.088388,32 L 22.160133,31.978069 C 22.160133,31.978069 26.997745,27.140456 26.997745,27.140456 C 18.528582,18.264221 13.291696,25.230495 11.500037,31.436501 z"
             style="fill:#404040;"/>
          </a>
         </g>
        </svg>
</svg>
